<svg version="1.1" xmlns="http://www.w3.org/2000/svg" viewBox="0 0 177.54388992285476 282.84744224955995" width="355.0877798457095" height="565.6948844991199">
  <!-- svg-source:excalidraw -->
  
  <defs>
    <style class="style-fonts">
      @font-face {
        font-family: "Virgil";
        src: url("https://excalidraw.com/Virgil.woff2");
      }
      @font-face {
        font-family: "Cascadia";
        src: url("https://excalidraw.com/Cascadia.woff2");
      }
    </style>
  </defs>
  <g stroke-linecap="round"><g transform="translate(127.93971882451388 73.46535194504258) rotate(0 16.11068347966284 10.261413282040678)"><path d="M1.53 -2.19 C6.07 1.21, 23.76 15.97, 28.33 20 M-1.09 2.79 C4.19 6.56, 27.34 18.98, 33.31 22.72" stroke="#000000" stroke-width="2" fill="none"></path></g></g><g stroke-linecap="round"><g transform="translate(158.884632630944 95.13891102748391) rotate(0 3.2328270738485116 74.99683286532337)"><path d="M-2.19 -2.62 C-1.6 22.14, 1.95 124.57, 3.17 150.06 M1.81 2.13 C3.36 27.05, 8.38 127.55, 8.66 152.61" stroke="#000000" stroke-width="2" fill="none"></path></g></g><g stroke-linecap="round"><g transform="translate(163.72836000090865 247.70218386036322) rotate(0 -24.724026998862882 11.734424203712223)"><path d="M-2.62 -1.68 C-11.31 2.25, -42.65 17.67, -50.61 21.36 M1.16 3.59 C-6.78 8.22, -37.68 21.87, -45.28 25.15" stroke="#000000" stroke-width="2" fill="none"></path></g></g><g stroke-linecap="round"><g transform="translate(115.10929503218813 268.2607564923379) rotate(0 -32.85005054714975 -4.11337482743599)"><path d="M-1.68 -1.99 C-12.35 -3.44, -55.32 -10.25, -66.23 -11.33 M2.61 3.11 C-8.21 2.22, -56.33 -5.89, -68.31 -8.64" stroke="#000000" stroke-width="2" fill="none"></path></g></g><g stroke-linecap="round"><g transform="translate(49.89874690380566 258.65409787201247) rotate(0 0.4521723609473156 -9.416768455393367)"><path d="M-1.99 0.29 C-1.94 -2.62, -2.75 -15.55, -2.33 -19.12 M2.13 -2.03 C3.33 -4.36, 3.6 -12.93, 3.14 -15.82" stroke="#000000" stroke-width="2" fill="none"></path></g></g><g stroke-linecap="round"><g transform="translate(49.89066729184651 240.15178648383335) rotate(0 2.4980311555978005 -1.4217394373032732)"><path d="M0.29 -1.73 C1.9 -1.72, 7.05 -1.46, 8 -1.96 M-3 3.51 C-1.67 2.84, 3.02 -5.35, 5.43 -6.35" stroke="#000000" stroke-width="2" fill="none"></path></g></g><g stroke-linecap="round"><g transform="translate(58.507573447082905 248.20311980187728) rotate(0 22.34413373068719 -58.280228488687186)"><path d="M-1.73 -0.62 C-1.21 -1.1, -9.39 -3.26, 1.14 -2.6 C11.67 -1.94, 46.57 5.13, 61.45 3.34 C76.33 1.54, 87.41 -4.57, 90.44 -13.38 C93.47 -22.18, 91.96 -45.11, 79.62 -49.49 C67.29 -53.86, 32.57 -40.33, 16.44 -39.63 C0.3 -38.94, -11.52 -42.96, -17.2 -45.32 C-22.88 -47.68, -13.6 -51.37, -17.63 -53.81 C-21.66 -56.26, -36.72 -52.36, -41.35 -59.98 C-45.98 -67.6, -50.86 -89.69, -45.42 -99.54 C-39.98 -109.38, -29.22 -116.02, -8.69 -119.06 C11.84 -122.11, 61.85 -124.62, 77.75 -117.8 C93.65 -110.98, 88.85 -88.08, 86.71 -78.16 C84.56 -68.25, 82.23 -62.5, 64.9 -58.29 C47.57 -54.09, -3.96 -53.56, -17.27 -52.92 M2.53 -3.42 C2.96 -3.68, -9.85 -1.82, -0.48 -0.38 C8.89 1.06, 43.62 7.11, 58.77 5.22 C73.91 3.32, 86.26 -2.58, 90.4 -11.76 C94.54 -20.94, 95.4 -44.81, 83.62 -49.87 C71.85 -54.94, 36.34 -43.67, 19.74 -42.15 C3.14 -40.63, -10.58 -38.85, -15.98 -40.74 C-21.38 -42.64, -7.8 -50.98, -12.67 -53.52 C-17.53 -56.05, -40.06 -47.91, -45.16 -55.95 C-50.26 -63.98, -49.46 -91.51, -43.26 -101.74 C-37.06 -111.96, -27.72 -114.45, -7.94 -117.3 C11.83 -120.15, 59.7 -124.96, 75.4 -118.85 C91.11 -112.74, 88.48 -91.88, 86.3 -80.65 C84.11 -69.43, 79.68 -55.95, 62.31 -51.51 C44.93 -47.08, -5.46 -53.92, -17.97 -54.03" stroke="#000000" stroke-width="2" fill="none"></path></g></g><g stroke-linecap="round"><g transform="translate(47.1920768972368 128.09160840595075) rotate(0 5.933946301880042 -20.434699979422334)"><path d="M-0.62 1.14 C0.58 -5.57, 6.09 -34.89, 7.49 -42.01 M4.24 -0.71 C6.25 -6.93, 10.95 -32.86, 12.48 -39.25" stroke="#000000" stroke-width="2" fill="none"></path></g></g><g stroke-linecap="round"><g transform="translate(57.28755204113713 87.69354860643284) rotate(0 14.646458275662553 -8.915915009095016)"><path d="M1.14 -2.6 C5.67 -5.83, 21.32 -17.17, 25.45 -19.99 M-1.69 2.16 C3.92 -0.74, 26.79 -14.32, 30.98 -17.59" stroke="#000000" stroke-width="2" fill="none"></path></g></g><g stroke-linecap="round"><g transform="translate(84.86730746626927 69.96284016042432) rotate(0 5.501864898624262 -3.0635084909090438)"><path d="M-2.6 -1.61 C-1.09 -3.44, 6.52 -8.28, 8.43 -9.81 M1.18 3.69 C3.61 2.13, 11.35 -4.72, 13.6 -6.81" stroke="#000000" stroke-width="2" fill="none"></path></g></g><g stroke-linecap="round"><g transform="translate(95.0395389237874 60.78844077995376) rotate(0 1.686944966721967 -21.124038357500197)"><path d="M-1.61 -2.26 C-0.97 -9.32, 4.05 -37.72, 4.99 -44.93 M2.71 2.69 C2.77 -3.82, 0.96 -34.56, 2.12 -42.29" stroke="#000000" stroke-width="2" fill="none"></path></g></g><g stroke-linecap="round"><g transform="translate(98.95815072434016 63.53146904034105) rotate(0 9.651320165153265 -1.9672035965323573)"><path d="M-2.26 -1.16 C0.87 -1.24, 13.18 -2.33, 16.15 -2.15 M1.71 -4.25 C5.97 -3.91, 18.33 -0.89, 21.56 0.32" stroke="#000000" stroke-width="2" fill="none"></path></g></g><g stroke-linecap="round"><g transform="translate(116.92720772316625 63.53146904034105) rotate(0 -4.536035033598637 -22.64234713541002)"><path d="M-1.16 -1.82 C-2.97 -9.55, -10.94 -41.23, -12.49 -48.65 M3.41 3.36 C2.62 -3.9, -4.64 -38.55, -7.25 -46.33" stroke="#000000" stroke-width="2" fill="none"></path></g></g><g stroke-linecap="round"><g transform="translate(116.41819216969088 62.95781659118791) rotate(0 6.5129790065502675 6.665438558130887)"><path d="M-1.82 -2.15 C0.18 0.03, 7.44 9.63, 9.75 11.88 M2.39 2.86 C5.44 5.61, 13.55 13.58, 14.85 15.48" stroke="#000000" stroke-width="2" fill="none"></path></g></g><g stroke-linecap="round"><g transform="translate(128.5780081693456 74.09556167791499) rotate(0 -13.063330373587178 3.0213547875630127)"><path d="M-2.15 -2.41 C-4.52 -1.36, -11.43 3.17, -15.39 4.47 C-19.35 5.76, -23.86 4.61, -25.91 5.38 M1.88 2.46 C-0.76 4.14, -12.68 7.18, -17.66 8.04 C-22.65 8.89, -26.23 8.26, -28.01 7.6" stroke="#000000" stroke-width="2" fill="none"></path></g></g><g stroke-linecap="round"><g transform="translate(106.53031762520641 81.98746034273461) rotate(0 -13.533038153937468 -6.122119892935643)"><path d="M-2.41 -0.07 C-4.15 -0.08, -7.94 0.04, -12.29 -2.23 C-16.65 -4.49, -26.45 -12.19, -28.55 -13.66 M1.48 -2.57 C-0.48 -1.95, -10.58 2.65, -14.59 1.11 C-18.6 -0.43, -21.16 -10.24, -22.6 -11.81" stroke="#000000" stroke-width="2" fill="none"></path></g></g><g stroke-linecap="round"><g transform="translate(29.182621838614068 146.82014892900713) rotate(0 38.71288884022351 -0.6074976179204157)"><path d="M-0.07 -0.11 C13.79 0.07, 67.76 -1.73, 80.97 -1.32 M-3.55 -2.64 C10.08 -1.9, 63.72 1.33, 78.44 1.42" stroke="#000000" stroke-width="2" fill="none"></path></g></g><g stroke-linecap="round"><g transform="translate(110.69782690208103 147.1312139894634) rotate(0 6.174702809631526 7.577686659341225)"><path d="M-0.11 -0.54 C2.03 2.15, 8.08 12.89, 10.45 16.09 M-3.61 -3.31 C-0.33 -0.34, 13.13 14.26, 15.96 18.46" stroke="#000000" stroke-width="2" fill="none"></path></g></g><g stroke-linecap="round"><g transform="translate(122.77684678213518 165.53657003412377) rotate(0 -5.505656113189616 8.89721076778352)"><path d="M-0.54 -1.63 C-2.28 1.62, -9.24 16.67, -10.47 19.43 M-4.28 3.65 C-5.15 6.14, -4.44 13.34, -5.32 15.52" stroke="#000000" stroke-width="2" fill="none"></path></g></g><g stroke-linecap="round"><g transform="translate(114.62451831459293 182.93601438977606) rotate(0 -42.892784239058074 1.0342550121498277)"><path d="M-1.63 -2.31 C-16.17 -2.12, -72.29 0.06, -87.33 0.61 M2.68 2.6 C-12.04 3.35, -73.63 4.07, -88.46 4.38" stroke="#000000" stroke-width="2" fill="none"></path></g></g><g stroke-linecap="round"><g transform="translate(25.27208965002046 183.2915173160119) rotate(0 -2.822496352550843 -4.268250777648603)"><path d="M-2.31 2.03 C-3.09 0.54, -4.76 -8.53, -5.17 -10.56 M1.62 0.66 C0.55 -0.42, -5.96 -6.8, -7.27 -8.28" stroke="#000000" stroke-width="2" fill="none"></path></g></g><g stroke-linecap="round"><g transform="translate(22.75834864247372 180.7665101571365) rotate(0 3.4163411396134507 -17.77994299534683)"><path d="M2.03 0.26 C1.51 -2.29, -5.38 -11.57, -4.74 -17.58 C-4.09 -23.6, 3.96 -33.08, 5.91 -35.82 M-0.32 -2.07 C0.16 -5.3, -1.66 -17.14, 0.32 -22.25 C2.31 -27.36, 10.5 -29.92, 11.61 -32.71" stroke="#000000" stroke-width="2" fill="none"></path></g></g><g stroke-linecap="round" transform="translate(33.004278295647055 147.01405961604485) rotate(0 20.731185750034 18.514430806119066)"><path d="M8.44 3.95 C11.59 1.4, 17.54 -1.75, 22.37 -1.23 C27.2 -0.7, 34.27 3.95, 37.44 7.1 C40.62 10.24, 41.79 13.46, 41.41 17.63 C41.03 21.8, 37.96 28.7, 35.14 32.13 C32.33 35.56, 28.35 37.54, 24.53 38.21 C20.71 38.88, 16.02 38.1, 12.23 36.13 C8.45 34.16, 3.94 30.18, 1.82 26.39 C-0.3 22.61, -5.83 17.34, -0.48 13.44 C4.88 9.53, 27.47 1.2, 33.96 2.95 C40.46 4.69, 38.85 23.43, 38.48 23.91 M17.35 1.01 C21.06 0.93, 28.23 2.89, 32.01 4.48 C35.8 6.07, 38.62 6.71, 40.06 10.58 C41.49 14.44, 42.08 23.19, 40.64 27.67 C39.2 32.15, 35.74 35.74, 31.42 37.45 C27.1 39.17, 19.18 39.41, 14.72 37.98 C10.27 36.55, 7.06 32.55, 4.69 28.87 C2.32 25.19, 0.45 19.93, 0.51 15.92 C0.57 11.91, 2.09 7.02, 5.05 4.82 C8.01 2.63, 16.47 3.12, 18.25 2.74 C20.04 2.36, 16.02 2.21, 15.79 2.55" stroke="none" stroke-width="0" fill="#fab005"></path><path d="M24.69 1.78 C29.1 2.19, 34.58 3.39, 37.25 6.14 C39.92 8.9, 41.26 14.45, 40.72 18.29 C40.18 22.14, 36.88 26.18, 34.01 29.23 C31.14 32.28, 27.74 35.9, 23.5 36.62 C19.26 37.33, 12.53 35.31, 8.56 33.5 C4.6 31.69, 0.75 29.73, -0.31 25.75 C-1.36 21.78, 0.29 13.64, 2.23 9.65 C4.18 5.66, 6.81 3.54, 11.35 1.82 C15.9 0.11, 26.45 -0.62, 29.51 -0.66 C32.57 -0.7, 29.95 0.96, 29.73 1.57 M5.36 5.43 C7.57 2.42, 8.75 1.83, 12.88 1.07 C17.01 0.3, 26.14 -1.09, 30.14 0.85 C34.13 2.79, 34.73 8.97, 36.86 12.71 C39 16.45, 43.94 19.73, 42.96 23.3 C41.98 26.86, 34.85 32.08, 30.97 34.12 C27.1 36.16, 23.41 36.01, 19.73 35.53 C16.05 35.05, 12.63 33.44, 8.87 31.24 C5.11 29.04, -2.01 25.81, -2.82 22.32 C-3.64 18.82, 2.51 12.41, 3.98 10.27 C5.44 8.13, 5.65 9.19, 5.98 9.46" stroke="#000000" stroke-width="2" fill="none"></path></g><g stroke-linecap="round" transform="translate(76.10092848977274 145.915232389498) rotate(0 23.123849429244274 19.459745405427782)"><path d="M28.09 -1.65 C32.34 -0.83, 35.91 4.08, 39.02 7.53 C42.14 10.97, 46.57 15.23, 46.78 19 C47 22.76, 43.24 26.85, 40.34 30.13 C37.44 33.41, 33.87 37.3, 29.39 38.66 C24.91 40.03, 17.84 40.24, 13.46 38.31 C9.08 36.37, 4.91 31.51, 3.11 27.04 C1.32 22.57, 1.17 15.41, 2.71 11.49 C4.24 7.58, 7.09 5.34, 12.33 3.56 C17.56 1.78, 29.19 0.1, 34.14 0.79 C39.09 1.48, 41.99 7.14, 42.03 7.7 M42.53 7.96 C46.21 11.03, 48.61 15.86, 47.78 20.13 C46.95 24.4, 40.87 30.28, 37.55 33.58 C34.23 36.87, 31.96 39.82, 27.85 39.93 C23.75 40.04, 17.17 36.64, 12.92 34.22 C8.68 31.81, 4.36 29.13, 2.37 25.47 C0.38 21.8, -0.44 16.21, 0.99 12.24 C2.43 8.27, 6.6 3.57, 10.98 1.66 C15.37 -0.26, 21.75 0.08, 27.29 0.72 C32.84 1.37, 41.58 4.54, 44.25 5.51 C46.93 6.49, 43.6 6.06, 43.33 6.58" stroke="none" stroke-width="0" fill="#fab005"></path><path d="M8.75 5.09 C11.8 2.22, 16.27 -0.2, 20.8 -0.69 C25.33 -1.18, 32.1 -0.56, 35.93 2.14 C39.75 4.83, 42.51 11.24, 43.75 15.47 C44.99 19.71, 45.43 24.1, 43.38 27.55 C41.34 31.01, 35.72 34.37, 31.5 36.22 C27.29 38.06, 23 39.65, 18.09 38.6 C13.18 37.56, 5.07 33.3, 2.06 29.96 C-0.95 26.62, -1.9 23.43, 0.01 18.56 C1.92 13.7, 9.59 3.63, 13.51 0.78 C17.43 -2.08, 23.1 1.4, 23.54 1.44 M2.97 4.55 C6.1 1.27, 14.7 1.95, 19.94 1.25 C25.17 0.54, 29.81 -2, 34.38 0.34 C38.96 2.69, 45.6 11.27, 47.37 15.3 C49.14 19.33, 47.1 20.92, 45.02 24.53 C42.94 28.13, 39.55 34.16, 34.9 36.91 C30.26 39.67, 22.23 42.42, 17.16 41.05 C12.09 39.69, 7.03 32.29, 4.47 28.7 C1.92 25.11, 1.27 22.83, 1.83 19.5 C2.39 16.17, 6.92 10.73, 7.81 8.75 C8.69 6.76, 6.75 7.49, 7.14 7.59" stroke="#000000" stroke-width="2" fill="none"></path></g><g stroke-linecap="round"><g transform="translate(59.72759485302868 218.0944458332965) rotate(0 7.364778693834523 2.924515104992338)"><path d="M0.64 -2.08 C3.46 -0.86, 14.12 3.55, 17.19 4.87 M-2.46 2.96 C-0.03 4.79, 11.5 6.95, 14.94 7.93" stroke="#000000" stroke-width="2" fill="none"></path></g></g><g stroke-linecap="round"><g transform="translate(76.92504890968303 223.9966023700061) rotate(0 20.083154077214658 -2.0605832915562985)"><path d="M-2.08 -0.01 C5.37 -0.15, 34.7 0.44, 42.25 -0.19 M1.98 -2.49 C9.19 -3.48, 32.89 -4.36, 39.45 -4.21" stroke="#000000" stroke-width="2" fill="none"></path></g></g><g stroke-linecap="round"><g transform="translate(120.21156998486731 221.99689840992994) rotate(0 10.129599698484071 -4.781247319716158)"><path d="M-0.01 -1.04 C3.84 -2.11, 20.36 -7.13, 23.72 -8.53 M-3.46 -4.07 C0.12 -4.48, 17.55 -4.48, 22.47 -4.95" stroke="#000000" stroke-width="2" fill="none"></path></g></g><g stroke-linecap="round"><g transform="translate(130.30300532278488 206.4194065512359) rotate(0 0.6950695899249695 12.532121027483441)"><path d="M-1.04 1.81 C-0.68 5.49, 0.04 18.68, 0.07 22.06 M3.6 0.33 C3.76 4.33, -1.08 20.74, -2.21 24.73" stroke="#000000" stroke-width="2" fill="none"></path></g></g><g stroke-linecap="round"><g transform="translate(130.997851951337 233.86988818500822) rotate(0 9.463254572923233 -2.5334451555724797)"><path d="M1.81 -0.09 C4.17 -0.74, 12.07 -3.9, 14.12 -4.98 M-0.65 -2.6 C2.62 -2.78, 16.12 -1.52, 19.57 -1.89" stroke="#000000" stroke-width="2" fill="none"></path></g></g><g stroke-linecap="round"><g transform="translate(131.6442209081306 238.39851068853426) rotate(0 -2.7966238729800352 4.791606370422301)"><path d="M-0.09 -1.76 C-0.34 -0.62, -1.85 7.07, -2.53 8.64 M-3.58 3.46 C-4.2 4.76, -6.12 10.37, -5.31 11.34" stroke="#000000" stroke-width="2" fill="none"></path></g></g><g stroke-linecap="round"><g transform="translate(126.79241392620679 234.52433675376056) rotate(0 -26.315565918895118 -1.3854087172355491)"><path d="M-1.76 -1 C-4.02 -1.33, -3.46 -2.79, -11.75 -2.06 C-20.04 -1.34, -44.53 4.61, -51.5 3.35 C-58.47 2.09, -53.15 -7.38, -53.55 -9.63 M2.49 -4.01 C0.97 -4.08, 1.83 -1.62, -6.28 0.16 C-14.38 1.94, -38.32 7.98, -46.14 6.67 C-53.95 5.37, -52.68 -4.86, -53.18 -7.66" stroke="#000000" stroke-width="2" fill="none"></path></g></g><g stroke-linecap="round"><g transform="translate(103.02623534615122 206.58503859641394) rotate(0 0.4544897766440954 20.862236234837297)"><path d="M-1 -1.71 C-1.45 5.46, -3.01 33.73, -2.81 41.28 M3.65 3.53 C4.04 11.1, 3.03 36.28, 2.18 43.44" stroke="#000000" stroke-width="2" fill="none"></path></g></g><g stroke-linecap="round"><g transform="translate(73.76188082737917 207.59095028542197) rotate(0 -0.5597251272465655 6.4778129638068265)"><path d="M-1.71 -2.59 C-2.06 -0.48, -3.89 9.59, -3.86 11.71 M2.55 2.17 C3.18 4.9, 2.09 13.81, 1.07 15.55" stroke="#000000" stroke-width="2" fill="none"></path></g></g><g stroke-linecap="round" transform="translate(92.0016048268626 160.34945915586565) rotate(0 5.572912349343369 5.073996310819467)"><path d="M3.2 3.2 C3.94 2.51, 5.57 1.2, 6.76 0.55 C7.96 -0.1, 9.45 -1.39, 10.35 -0.71 C11.25 -0.03, 12.27 3.6, 12.17 4.62 C12.08 5.64, 10.35 4.57, 9.78 5.39 C9.2 6.21, 9.58 8.83, 8.72 9.55 C7.86 10.26, 5.61 10.21, 4.62 9.68 C3.64 9.16, 3.64 7.15, 2.8 6.38 C1.95 5.62, -0.53 5.9, -0.43 5.09 C-0.34 4.27, 2.48 2.59, 3.35 1.5 C4.23 0.4, 4.68 -1.61, 4.79 -1.48 M9.04 0.79 C9.55 1.44, 9.55 2.34, 9.59 3.16 C9.63 3.98, 9.56 4.68, 9.27 5.7 C8.98 6.71, 8.07 8.91, 7.86 9.26 C7.64 9.62, 8.64 8.14, 7.98 7.82 C7.32 7.51, 4.74 7.77, 3.89 7.37 C3.04 6.96, 3.24 6.14, 2.88 5.41 C2.52 4.69, 1.79 3.69, 1.74 3.03 C1.68 2.36, 1.49 1.68, 2.57 1.42 C3.65 1.17, 7.6 1.99, 8.19 1.49 C8.78 0.99, 6.58 -1.29, 6.12 -1.58" stroke="none" stroke-width="0" fill="#000"></path><path d="M5.82 -1.15 C7.31 -0.84, 10.95 1.24, 11.57 2.25 C12.19 3.25, 9.84 3.64, 9.55 4.89 C9.25 6.15, 10.56 8.99, 9.79 9.79 C9.02 10.58, 6.21 9.54, 4.93 9.67 C3.65 9.8, 2.85 11.35, 2.11 10.57 C1.37 9.8, 1.08 6.32, 0.49 5.02 C-0.1 3.71, -1.99 3.76, -1.43 2.74 C-0.87 1.73, 2.71 -0.67, 3.84 -1.07 C4.98 -1.47, 4.72 0.19, 5.38 0.34 C6.05 0.49, 7.9 -0.48, 7.84 -0.17 M9.82 1.59 C10.43 2.95, 9.61 6.2, 9.61 6.71 C9.6 7.23, 9.82 4.08, 9.77 4.68 C9.72 5.28, 9.97 9.09, 9.29 10.31 C8.62 11.52, 6.98 12.29, 5.73 11.95 C4.48 11.62, 2.29 9.36, 1.79 8.3 C1.3 7.25, 2.22 7.08, 2.75 5.63 C3.28 4.18, 4.42 0.24, 4.97 -0.4 C5.52 -1.04, 5.81 1.17, 6.05 1.79 C6.28 2.42, 6.35 3.81, 6.39 3.35 C6.42 2.89, 5.65 -0.82, 6.27 -0.97" stroke="#000000" stroke-width="2" fill="none"></path></g><g stroke-linecap="round" transform="translate(49.727055149657645 160.919071799039) rotate(0 5.572912349343369 5.073996310819467)"><path d="M11.69 3.42 C12.53 4.18, 12.29 5.6, 11.69 6.62 C11.09 7.65, 8.84 9.13, 8.09 9.57 C7.35 10.02, 8.42 9.17, 7.21 9.29 C5.99 9.42, 1.96 10.66, 0.79 10.34 C-0.39 10.02, 0.25 8.23, 0.14 7.36 C0.02 6.49, -0.1 6.33, 0.1 5.13 C0.31 3.93, 0.17 1, 1.35 0.18 C2.53 -0.65, 5.51 -0.17, 7.19 0.17 C8.87 0.51, 11.12 1.62, 11.44 2.22 C11.75 2.83, 9.1 3.57, 9.07 3.79 M10.13 0.77 C11.27 0.97, 11.72 2.08, 11.63 3.12 C11.53 4.16, 10.34 5.44, 9.56 7.02 C8.78 8.61, 8.43 11.86, 6.95 12.62 C5.46 13.38, 1.99 12.06, 0.65 11.59 C-0.69 11.12, -0.95 11, -1.08 9.81 C-1.21 8.61, -0.84 6.13, -0.12 4.42 C0.6 2.7, 1.96 0.15, 3.23 -0.48 C4.5 -1.12, 6.23 0.49, 7.5 0.6 C8.77 0.71, 10.82 0.33, 10.84 0.18 C10.85 0.04, 8.02 -0.2, 7.59 -0.28" stroke="none" stroke-width="0" fill="#000"></path><path d="M3.6 1.91 C4.94 1.52, 7.88 -1.06, 9.1 -0.83 C10.31 -0.59, 10.33 2.33, 10.87 3.33 C11.41 4.33, 12.84 4.27, 12.33 5.17 C11.82 6.06, 8.97 7.88, 7.82 8.71 C6.67 9.53, 6.86 10.49, 5.43 10.12 C4 9.75, 0.25 7.16, -0.78 6.5 C-1.81 5.83, -0.82 7.16, -0.76 6.12 C-0.7 5.09, -1.7 1.18, -0.41 0.29 C0.88 -0.6, 5.58 0.97, 6.99 0.8 C8.4 0.62, 7.84 -0.96, 8.04 -0.76 M6.61 -1.42 C8.49 -1.58, 11.86 -0.37, 12.13 0.97 C12.39 2.3, 8.46 5.06, 8.19 6.6 C7.92 8.13, 10.38 9.43, 10.51 10.17 C10.64 10.92, 10.1 10.71, 8.98 11.06 C7.86 11.41, 4.96 12.44, 3.78 12.27 C2.6 12.11, 2.76 11.43, 1.91 10.06 C1.05 8.7, -1.75 6.09, -1.35 4.09 C-0.95 2.09, 2.68 -0.8, 4.3 -1.94 C5.92 -3.09, 8.42 -3.35, 8.37 -2.79 C8.31 -2.22, 4.19 0.92, 3.95 1.46" stroke="#000000" stroke-width="2" fill="none"></path></g><g stroke-linecap="round" transform="translate(92.45406309661848 10) rotate(0 14.937182610871787 3.956989957362751)"><path d="M17.34 0.55 C20.38 -0.04, 24.38 -1.24, 26.65 -0.62 C28.92 -0.01, 30.96 3.43, 30.95 4.24 C30.95 5.04, 28.44 3.64, 26.64 4.2 C24.83 4.75, 22.98 7.05, 20.14 7.57 C17.31 8.1, 12.43 7.89, 9.65 7.33 C6.87 6.78, 5.08 4.85, 3.46 4.23 C1.84 3.61, -0.51 4.02, -0.07 3.62 C0.37 3.22, 2.06 2.55, 6.08 1.83 C10.1 1.11, 20.14 -1.12, 24.05 -0.71 C27.97 -0.3, 29.56 3.71, 29.58 4.31 M6.9 0.97 C8.96 0.4, 13.05 -0.46, 16.14 -0.34 C19.24 -0.22, 22.74 1.35, 25.46 1.69 C28.18 2.04, 32 1.17, 32.45 1.74 C32.9 2.3, 30.24 4.13, 28.16 5.09 C26.08 6.04, 23.33 7.01, 19.98 7.48 C16.62 7.96, 11.45 8.14, 8.04 7.96 C4.63 7.78, 0.59 7.1, -0.49 6.38 C-1.56 5.66, 0.45 4.96, 1.59 3.64 C2.72 2.32, 5.59 -0.86, 6.32 -1.55 C7.04 -2.24, 5.94 -0.97, 5.93 -0.49" stroke="none" stroke-width="0" fill="#fab005"></path><path d="M10.68 0.92 C13.19 0.74, 14.67 -0.25, 17.41 0.15 C20.15 0.55, 25.35 2.68, 27.12 3.33 C28.88 3.97, 28.43 3.24, 27.99 3.99 C27.55 4.74, 26.48 7.49, 24.5 7.81 C22.52 8.14, 19.45 6.18, 16.11 5.94 C12.78 5.71, 6.9 6.88, 4.49 6.4 C2.09 5.92, 2.41 3.74, 1.68 3.08 C0.95 2.43, -2.38 3.05, 0.1 2.46 C2.58 1.86, 13.09 -0.44, 16.56 -0.48 C20.03 -0.52, 20.81 2.03, 20.92 2.22 M4.31 3.34 C6.38 2.25, 11.12 -2.63, 14.87 -2.94 C18.61 -3.25, 23.96 0.07, 26.78 1.48 C29.6 2.89, 31.5 4.65, 31.81 5.53 C32.12 6.41, 30.24 6.16, 28.64 6.76 C27.04 7.37, 24.91 9.29, 22.18 9.17 C19.46 9.05, 15.61 6.3, 12.28 6.04 C8.95 5.78, 4.65 7.73, 2.19 7.6 C-0.26 7.47, -2.57 6.78, -2.45 5.28 C-2.32 3.78, 1.33 -0.82, 2.95 -1.41 C4.57 -2.01, 6.67 1.48, 7.28 1.71" stroke="#000000" stroke-width="2" fill="none"></path></g><g stroke-linecap="round"><g transform="translate(54.57684222858916 237.1340514168093) rotate(0 7.363814159585218 -5.367321995310476)"><path d="M-0.39 -1.18 C3.19 -2.84, 15.02 -8.57, 18.78 -9.55 M-4.05 -4.29 C-0.66 -5.65, 11.84 -5.52, 16.14 -6.84" stroke="#000000" stroke-width="2" fill="none"></path></g></g><g stroke-linecap="round"><g transform="translate(60.36184439188128 221.4232459607768) rotate(0 -1.4764945247329706 -7.557117847945904)"><path d="M-1.18 -0.74 C-2.3 -2.47, -5.88 -8.3, -6.32 -10.78 M3.37 -3.61 C3.13 -6.02, 0.6 -12.69, -0.84 -14.38" stroke="#000000" stroke-width="2" fill="none"></path></g></g><g stroke-linecap="round"><g transform="translate(61.56570657390603 220.93846924318257) rotate(0 8.551160782487841 14.443988246097717)"><path d="M-0.74 -1.68 C2.3 3.61, 15.55 25.33, 17.84 30.57 M4.06 3.57 C6.99 8.09, 14.59 21.11, 17.01 25.99" stroke="#000000" stroke-width="2" fill="none"></path></g></g><g stroke-linecap="round"><g transform="translate(69.49988551853221 236.17661739956083) rotate(0 10.684948781752155 0.1832487206906137)"><path d="M-1.68 2.6 C2.36 2.35, 19.06 -1.76, 23.05 -2.23 M2.6 1.55 C6.44 1.64, 18.27 -0.02, 21.25 0.18" stroke="#000000" stroke-width="2" fill="none"></path></g></g></svg>
