<svg version="1.1" xmlns="http://www.w3.org/2000/svg" viewBox="0 0 232.117132782103 390.94240817174796" width="464.234265564206" height="781.8848163434959">
  <!-- svg-source:excalidraw -->
  
  <defs>
    <style class="style-fonts">
      @font-face {
        font-family: "Virgil";
        src: url("https://excalidraw.com/Virgil.woff2");
      }
      @font-face {
        font-family: "Cascadia";
        src: url("https://excalidraw.com/Cascadia.woff2");
      }
    </style>
  </defs>
  <g stroke-linecap="round"><g transform="translate(36.61603166452187 108.58766315303046) rotate(0 88.18845358940234 30.97065845399834)" fill-rule="evenodd"><path d="M1.33 0.18 L10.38 25.73 L24.99 45.01 L56.08 58.16 L88.4 61.05 L106.44 60.03 L125.49 53.37 L142.94 42.4 L171.58 21.15 L177.14 8.33 L169.98 2.6 L165.98 0.43 L142.26 -0.08 L-1.04 1.06" stroke="none" stroke-width="0" fill="#6c1d5f" fill-rule="evenodd"></path><path d="M-0.44 0.87 C0.73 3.8, 4.14 12.73, 6.13 16.92 C8.12 21.11, 8.98 22.24, 11.48 26.03 C13.97 29.81, 17.44 36.11, 21.11 39.65 C24.78 43.19, 22.44 43.39, 33.48 47.27 C44.52 51.15, 71.79 61.62, 87.36 62.92 C102.94 64.22, 115.15 59.89, 126.92 55.06 C138.69 50.24, 150.39 40.38, 157.98 33.98 C165.56 27.59, 172.6 22.17, 172.44 16.69 C172.29 11.21, 185.63 4.07, 157.02 1.09 C128.42 -1.9, 26.69 -0.96, 0.81 -1.22 M1.53 0.28 C2.63 2.96, 3.7 10.9, 5.28 15.34 C6.86 19.78, 8.4 22.66, 11.03 26.9 C13.65 31.13, 17.44 37.37, 21.03 40.76 C24.62 44.14, 21.85 43.65, 32.55 47.19 C43.26 50.73, 69.95 60.86, 85.26 61.98 C100.57 63.11, 112.44 58.59, 124.44 53.95 C136.43 49.31, 148.99 40.05, 157.24 34.12 C165.48 28.19, 173.79 23.9, 173.91 18.37 C174.04 12.83, 186.76 4.08, 157.98 0.92 C129.2 -2.25, 27.4 -0.34, 1.23 -0.63" stroke="#000" stroke-width="2" fill="none"></path></g></g><g stroke-linecap="round"><g transform="translate(30.96656840878495 105.90029262442022) rotate(0 93.30575013241287 -10.859072805055803)" fill-rule="evenodd"><path d="M0.6 0.89 L1.11 0.31 L-1.01 -17.72 L0.83 -22.37 L3.82 -25.91 L103.64 -29.09 L140.24 -27.11 L169.29 -28.32 L180.84 -20.92 L189.48 -11.49 L190.12 -7.08 L187.45 -1.1 L183.95 3.14 L172.47 4.39 L159.91 5.12 L113.72 6.28 L-1.66 1.51" stroke="none" stroke-width="0" fill="#ac3d7f" fill-rule="evenodd"></path><path d="M0.18 1.04 C0.51 0.75, 1.7 3.08, 1.48 -0.85 C1.27 -4.78, -7.47 -18.24, -1.12 -22.54 C5.23 -26.84, 11.36 -25.98, 39.59 -26.63 C67.82 -27.28, 145.69 -31.88, 168.25 -26.44 C190.8 -21, 202.87 1.45, 174.92 6.01 C146.97 10.57, 29.87 2.11, 0.55 0.91 M-1.18 0.54 C-0.92 0.3, 1.02 3.86, 0.85 0.24 C0.68 -3.39, -8.8 -16.84, -2.21 -21.22 C4.38 -25.59, 12.19 -25.21, 40.38 -26 C68.57 -26.79, 144.78 -31.15, 166.92 -25.95 C189.06 -20.75, 200.77 0.87, 173.2 5.2 C145.63 9.54, 30.16 0.65, 1.48 0.05" stroke="#000" stroke-width="2" fill="none"></path></g></g><g stroke-linecap="round"><g transform="translate(117.20063494097849 76.9768408730124) rotate(0 -5.0402512172440765 -11.338104148071125)" fill-rule="evenodd"><path d="M-1.65 -1.91 L-11.64 -7.85 L-13.97 -13.21 L-7.54 -18.31 L-0.77 -22.6 L1.44 -23.89 L2.41 -19.7 L-0.38 1.5" stroke="none" stroke-width="0" fill="#ced4da" fill-rule="evenodd"></path><path d="M0.6 -0.85 C-1.91 -3.01, -14.63 -8.12, -14.9 -11.92 C-15.18 -15.72, -4.28 -22.52, -1.06 -23.67 C2.15 -24.82, 3.78 -22.81, 4.38 -18.82 C4.99 -14.83, 2.95 -2.99, 2.57 0.28 M-0.54 1.32 C-2.67 -0.12, -12.39 -6.35, -12.52 -10.38 C-12.64 -14.4, -4.17 -21.61, -1.29 -22.82 C1.59 -24.03, 4.29 -21.57, 4.77 -17.62 C5.26 -13.66, 2.4 -2.07, 1.63 0.9" stroke="#000" stroke-width="2" fill="none"></path></g></g><g stroke-linecap="round"><g transform="translate(105.42849285130433 46.46606863466286) rotate(0 -4.245332941636661 6.755417896330528)" fill-rule="evenodd"><path d="M-0.49 -1.14 L-15.64 8.1 L-14.71 14.06 L-7.99 12.55 L-6.43 8.2 L-2.5 10.47 L0.52 8.25 L2.33 7.42 L2.36 5.29 L3.65 1.15 L2.29 -2.5" stroke="none" stroke-width="0" fill="#868e96" fill-rule="evenodd"></path><path d="M-0.62 0.01 C-2.88 1.47, -11.51 5.5, -12.91 7.9 C-14.31 10.3, -10.53 14.15, -9.03 14.42 C-7.53 14.7, -5.16 9.84, -3.91 9.54 C-2.66 9.25, -2.49 13.1, -1.53 12.63 C-0.57 12.17, 1.37 7.9, 1.86 6.76 C2.34 5.62, 0.81 6.67, 1.38 5.8 C1.95 4.94, 4.99 2.69, 5.28 1.56 C5.57 0.43, 3.54 -0.56, 3.12 -0.97 M1.25 -1.03 C-1.12 0.63, -11.5 6.16, -13.32 8.97 C-15.13 11.78, -11.35 15.52, -9.65 15.84 C-7.95 16.16, -4.28 11.27, -3.13 10.88 C-1.97 10.49, -3.7 13.85, -2.72 13.5 C-1.74 13.15, 1.93 10.24, 2.75 8.78 C3.57 7.32, 1.94 6.07, 2.21 4.74 C2.48 3.41, 4.38 2, 4.35 0.82 C4.33 -0.36, 2.74 -1.99, 2.06 -2.34" stroke="#000" stroke-width="2" fill="none"></path></g></g><g stroke-linecap="round"><g transform="translate(122.94561163900289 76.3159160331652) rotate(0 5.90213358384608 -19.827896279681227)" fill-rule="evenodd"><path d="M0.31 -1.27 L2.08 -35.6 L3.64 -39.27 L4.99 -42.42 L6.93 -41.54 L8.81 -36.22 L12.98 -32.29 L8.85 -1.99 L7.81 0.47 L-0.15 -1.89" stroke="none" stroke-width="0" fill="#ced4da" fill-rule="evenodd"></path><path d="M1.03 -0.89 C1.21 -6.8, -1.37 -29.34, 0.42 -35.43 C2.21 -41.52, 10.01 -43.32, 11.76 -37.44 C13.51 -31.57, 13.04 -6.22, 10.91 -0.17 C8.79 5.87, 0.77 -1.27, -0.99 -1.15 M0.11 1.26 C0.21 -4.43, -2.29 -26.99, -0.38 -33.79 C1.52 -40.6, 9.56 -44.81, 11.53 -39.55 C13.5 -34.3, 13.25 -8.62, 11.45 -2.25 C9.64 4.11, 2.87 -1.7, 0.68 -1.36" stroke="#000" stroke-width="2" fill="none"></path></g></g><g stroke-linecap="round"><g transform="translate(140.15031256570728 74.9698641404525) rotate(0 5.927730713325218 -10.103818902508237)" fill-rule="evenodd"><path d="M1.33 0.18 L-1.35 -19.65 L-0.31 -22.16 L2.93 -19.16 L11.79 -18.19 L12.52 -11.42 L5.57 -2.85 L3.22 -1.54 L-0.52 -0.49" stroke="none" stroke-width="0" fill="#ced4da" fill-rule="evenodd"></path><path d="M0.28 0.19 C0.13 -2.67, -0.71 -14.71, 0.15 -18.06 C1.01 -21.41, 3.27 -20.99, 5.42 -19.92 C7.57 -18.86, 13.32 -15.13, 13.04 -11.67 C12.76 -8.2, 5.87 -0.94, 3.73 0.88 C1.59 2.7, 0.62 -0.62, 0.19 -0.76 M-1.04 -0.76 C-1.35 -3.91, -1.26 -16.44, -0.27 -19.95 C0.73 -23.45, 2.77 -23.25, 4.94 -21.79 C7.11 -20.32, 13.19 -15.05, 12.77 -11.16 C12.35 -7.27, 4.29 -0.55, 2.44 1.55 C0.6 3.66, 2.32 1.93, 1.7 1.45" stroke="#000" stroke-width="2" fill="none"></path></g></g><g stroke-linecap="round"><g transform="translate(150.77446465810135 52.84088841735411) rotate(0 7.533267933918978 -3.2463980320535484)" fill-rule="evenodd"><path d="M1.32 -1.69 L3.54 3.48 L7.87 -0.4 L12.4 3.95 L16.62 3.48 L12.08 -5 L0.14 -12.97 L-0.26 -9.81 L2.79 -3.73 L-1.66 1.51" stroke="none" stroke-width="0" fill="#868e96" fill-rule="evenodd"></path><path d="M1.01 0.44 C1.9 1.3, 4.55 5.41, 5.59 5.29 C6.64 5.17, 6.07 -0.48, 7.29 -0.3 C8.51 -0.12, 11.27 6.09, 12.91 6.37 C14.56 6.66, 18.56 4.35, 17.17 1.4 C15.79 -1.56, 7.43 -9.76, 4.6 -11.35 C1.77 -12.95, 0.48 -9.3, 0.21 -8.19 C-0.06 -7.08, 3.2 -5.99, 2.99 -4.69 C2.79 -3.4, -0.32 -1.37, -1.02 -0.42 M0.08 -0.37 C0.84 0.14, 3.33 3.52, 4.93 3.65 C6.53 3.78, 8.27 0.34, 9.67 0.42 C11.07 0.49, 12.32 3.94, 13.35 4.1 C14.37 4.26, 17.53 4.14, 15.8 1.39 C14.07 -1.36, 5.99 -10.58, 2.96 -12.39 C-0.07 -14.2, -2.2 -10.64, -2.39 -9.48 C-2.58 -8.31, 1.34 -7.25, 1.81 -5.4 C2.29 -3.54, 0.91 0.56, 0.44 1.64" stroke="#000" stroke-width="2" fill="none"></path></g></g><g stroke-linecap="round" transform="translate(117.0205382494023 28.555512671661745) rotate(0 10.6984879110787 3.2526707706720117)"><path d="M3.31 0.74 L20.68 1.52 L19.34 -1.51 L21.99 5.77 L20.08 5.23 L3.56 6.53 L1.33 5.06 L-0.49 0.48 L-0.07 -0.69" stroke="none" stroke-width="0" fill="#868e96"></path><path d="M1.63 0 M1.63 0 C3.78 -1.49, 8.18 -0.5, 19.77 0 M1.63 0 C5.7 -0.05, 10.85 0.18, 19.77 0 M19.77 0 C19.41 -1.18, 21.72 -0.97, 21.4 1.63 M19.77 0 C20.28 0.32, 19.48 2.28, 21.4 1.63 M21.4 1.63 C21.61 2.55, 21.16 3.35, 21.4 4.88 M21.4 1.63 C21.23 2.69, 21.41 3.74, 21.4 4.88 M21.4 4.88 C21.87 7.24, 20.23 5.55, 19.77 6.51 M21.4 4.88 C23.55 7.3, 21.79 6.26, 19.77 6.51 M19.77 6.51 C16.73 7.87, 10.08 5.45, 1.63 6.51 M19.77 6.51 C15.44 6.3, 11.77 6.66, 1.63 6.51 M1.63 6.51 C-0.78 7.55, -1.08 4.77, 0 4.88 M1.63 6.51 C-1.12 7.28, 1.42 6.49, 0 4.88 M0 4.88 C0.27 3.96, 0.15 3.28, 0 1.63 M0 4.88 C-0.06 4, -0.11 3.57, 0 1.63 M0 1.63 C-0.61 0.02, -0.15 0.72, 1.63 0 M0 1.63 C0.1 0.86, -1.32 -1.76, 1.63 0" stroke="#000" stroke-width="2" fill="none"></path></g><g stroke-linecap="round" transform="translate(122.35267424173071 10) rotate(0 5.375599466427957 7.636008371028083)"><path d="M3.6 1.52 L8.43 -1.24 L10.68 15.49 L0.99 13.33 L1.93 2.71 L4.02 0.18" stroke="none" stroke-width="0" fill="#6c1d5f"></path><path d="M2.69 0 M2.69 0 C3.98 -0.48, 6.1 0.4, 8.06 0 M2.69 0 C3.79 -0.14, 4.99 -0.23, 8.06 0 M8.06 0 C9.34 -0.49, 12.09 0.92, 10.75 2.69 M8.06 0 C8.2 -1.35, 11.13 -0.85, 10.75 2.69 M10.75 2.69 C11.51 5.49, 10.17 7.66, 10.75 12.58 M10.75 2.69 C10.3 6.61, 10.68 9.92, 10.75 12.58 M10.75 12.58 C8.8 13.49, 10.1 13.42, 8.06 15.27 M10.75 12.58 C11.3 15.84, 9.14 14.18, 8.06 15.27 M8.06 15.27 C5.89 14.94, 3.52 15.12, 2.69 15.27 M8.06 15.27 C5.94 14.98, 4.28 15.18, 2.69 15.27 M2.69 15.27 C-0.51 14.91, -1.32 14.81, 0 12.58 M2.69 15.27 C-0.63 16.47, -1.24 13.01, 0 12.58 M0 12.58 C0.19 9.74, -0.92 8.57, 0 2.69 M0 12.58 C-0.01 8.48, 0.16 5.31, 0 2.69 M0 2.69 C-0.7 -1.08, -0.32 1.57, 2.69 0 M0 2.69 C-0.7 0.3, 0.1 0.83, 2.69 0" stroke="#000" stroke-width="2" fill="none"></path></g><g stroke-linecap="round" transform="translate(110.27490151061284 173.60663113985038) rotate(0 15.987897333090586 3.26352756693268)"><path d="M-0.02 -1.91 L30.94 0.89 L31.88 -0.87 L33.91 4.92 L31.67 6.71 L1.14 5.38 L-1.69 4.2 L-1.94 3.3 L2.95 -1.69" stroke="none" stroke-width="0" fill="#868e96"></path><path d="M1.63 0 M1.63 0 C6.83 -0.09, 12.64 -0.46, 30.34 0 M1.63 0 C8.82 -0.59, 17.61 -0.76, 30.34 0 M30.34 0 C30.93 0.28, 30.31 2.05, 31.98 1.63 M30.34 0 C31.61 -1.38, 30.88 2.2, 31.98 1.63 M31.98 1.63 C32.11 2.5, 31.86 3.12, 31.98 4.9 M31.98 1.63 C32.02 2.57, 31.93 3.22, 31.98 4.9 M31.98 4.9 C33.85 7.15, 32.25 6.31, 30.34 6.53 M31.98 4.9 C30.48 4.65, 30.68 8.08, 30.34 6.53 M30.34 6.53 C17.55 7.62, 8.17 4.97, 1.63 6.53 M30.34 6.53 C21.59 7.11, 13.63 6, 1.63 6.53 M1.63 6.53 C-0.9 7.2, 1.24 6.44, 0 4.9 M1.63 6.53 C-0.83 4.47, 1.16 7.71, 0 4.9 M0 4.9 C-0.27 4.13, 0.09 3.1, 0 1.63 M0 4.9 C-0.03 4.2, -0.04 3.64, 0 1.63 M0 1.63 C0.09 0.82, -1.08 -1.53, 1.63 0 M0 1.63 C-0.49 -1.44, 2.28 0.69, 1.63 0" stroke="#000" stroke-width="2" fill="none"></path></g><g stroke-linecap="round" transform="translate(26.141386684746976 267.8009954246522) rotate(0 17.790177608809245 4.568185761510222)"><path d="M2.88 0.89 L33.61 -1.27 L36.94 0.59 L36.91 7.03 L32.81 7.99 L0.59 8.44 L-1.94 8.52 L1.89 -1.12 L0.78 -0.9" stroke="none" stroke-width="0" fill="#868e96"></path><path d="M2.28 0 M2.28 0 C9.05 -0.49, 19.1 1.36, 33.3 0 M2.28 0 C11.78 -0.57, 20.71 0.32, 33.3 0 M33.3 0 C33.16 1.51, 35.74 -0.44, 35.58 2.28 M33.3 0 C33.72 1.66, 35.04 -0.78, 35.58 2.28 M35.58 2.28 C35.48 2.82, 35.4 4.3, 35.58 6.85 M35.58 2.28 C35.52 3.12, 35.81 4.31, 35.58 6.85 M35.58 6.85 C36.4 8.16, 33.52 7.98, 33.3 9.14 M35.58 6.85 C34.82 9.93, 36.62 7.67, 33.3 9.14 M33.3 9.14 C25.25 7.93, 17.73 8.01, 2.28 9.14 M33.3 9.14 C22.77 8.7, 12.61 9.63, 2.28 9.14 M2.28 9.14 C2 9.59, -1.19 6.59, 0 6.85 M2.28 9.14 C1.92 10.87, -0.98 9.21, 0 6.85 M0 6.85 C0.17 5.37, -0.41 3.93, 0 2.28 M0 6.85 C-0.07 5.21, 0.02 3.43, 0 2.28 M0 2.28 C-1.62 -0.77, 0.33 -1.73, 2.28 0 M0 2.28 C1.74 1.45, 0.96 1.9, 2.28 0" stroke="#000" stroke-width="2" fill="none"></path></g><g stroke-linecap="round"><g transform="translate(149.1848940855889 235.08795669412712) rotate(0 23.526381745812614 5.903577280556874)" fill-rule="evenodd"><path d="M-0.15 -1.89 L34.02 -4.68 L45.13 -3.94 L47.06 -2.51 L50.98 1.4 L50.18 7.68 L47.36 12.21 L45.19 11.17 L1.32 16.14 L-2.37 10.44 L-4.6 8.76 L-0.21 -0.55" stroke="none" stroke-width="0" fill="#ffffeb" fill-rule="evenodd"></path><path d="M1.16 0.01 C8.56 -0.5, 36.67 -5.52, 44.6 -3.85 C52.52 -2.19, 52.17 7.12, 48.72 10.01 C45.28 12.9, 31.87 12.56, 23.94 13.51 C16 14.46, 5.46 16.82, 1.12 15.7 C-3.22 14.58, -1.76 9.49, -2.09 6.79 C-2.43 4.08, -1.21 0.72, -0.91 -0.54 M0.31 -1.02 C7.61 -1.26, 36.15 -4.26, 44.07 -2.26 C51.98 -0.26, 51.21 8.19, 47.8 10.97 C44.4 13.74, 31.17 14.06, 23.65 14.39 C16.13 14.73, 7.29 13.88, 2.7 12.96 C-1.9 12.04, -3.35 10.79, -3.93 8.88 C-4.5 6.96, -1.16 3.22, -0.74 1.49" stroke="#000" stroke-width="2" fill="none"></path></g></g><g stroke-linecap="round"><g transform="translate(151.5636583532323 255.75385545830204) rotate(0 23.899970972748633 5.096691316294482)" fill-rule="evenodd"><path d="M-0.52 -0.49 L35.87 -4.17 L42.36 -5.14 L48.83 -2.85 L50.15 3.2 L49.01 8.91 L49.18 9.5 L44.07 13.8 L1.81 13.36 L-3.61 12.75 L-3.09 7.25 L-1.95 -0.88" stroke="none" stroke-width="0" fill="#ffffeb" fill-rule="evenodd"></path><path d="M0.8 0.11 C7.85 -0.67, 35.64 -6.34, 43.5 -4.65 C51.37 -2.95, 51.29 7.02, 48 10.28 C44.72 13.54, 31.28 14.36, 23.79 14.93 C16.3 15.5, 7.67 14.96, 3.07 13.69 C-1.53 12.41, -3.23 9.67, -3.79 7.26 C-4.34 4.85, -0.87 0.65, -0.25 -0.75 M-0.24 -0.88 C6.53 -1.52, 33.97 -5.51, 42.4 -3.47 C50.84 -1.43, 53.53 8.65, 50.36 11.38 C47.2 14.11, 31.49 12.54, 23.43 12.9 C15.37 13.26, 6.39 14.1, 2.01 13.55 C-2.37 13, -2.56 11.66, -2.85 9.6 C-3.14 7.53, -0.02 2.5, 0.26 1.17" stroke="#000" stroke-width="2" fill="none"></path></g></g><g stroke-linecap="round"><g transform="translate(154.07629729556356 275.4914663890595) rotate(0 24.419661278139756 4.837157008679469)" fill-rule="evenodd"><path d="M1.34 0.02 L33.09 -5.36 L44.12 -5.47 L48 -1.06 L48.99 4.43 L50.83 6.2 L48.06 12.13 L44.56 11.02 L0.57 15.66 L-2.11 11.24 L-4.84 6.92 L0.25 -1.85" stroke="none" stroke-width="0" fill="#ffffeb" fill-rule="evenodd"></path><path d="M-0.29 -0.69 C6.7 -1.43, 34.76 -6.44, 42.78 -4.38 C50.81 -2.31, 50.7 8.82, 47.86 11.7 C45.02 14.58, 33.49 12.5, 25.74 12.91 C18 13.32, 6.19 15.14, 1.37 14.16 C-3.44 13.18, -2.89 9.6, -3.13 7.05 C-3.38 4.5, -0.56 0.09, -0.09 -1.13 M1.75 1.57 C9.04 0.98, 36.9 -4.44, 44.96 -3.06 C53.03 -1.67, 53.23 7.13, 50.14 9.88 C47.05 12.64, 34.25 12.75, 26.41 13.48 C18.56 14.21, 7.8 14.97, 3.09 14.27 C-1.62 13.57, -1.42 11.55, -1.85 9.27 C-2.28 6.99, 0.44 2.26, 0.5 0.59" stroke="#000" stroke-width="2" fill="none"></path></g></g><g stroke-linecap="round"><g transform="translate(155.5869491725898 295.66456993123893) rotate(0 24.31456117156631 4.772564930628505)" fill-rule="evenodd"><path d="M-1.44 -1.18 L34.86 -5.7 L43.3 -3.68 L46.84 0.17 L50.81 1.72 L49.72 8.84 L48.55 9.35 L43.31 13.33 L2.07 14.15 L-3.85 10.9 L-2.63 5.95 L0.48 1.28" stroke="none" stroke-width="0" fill="#ffffeb" fill-rule="evenodd"></path><path d="M-1.02 -0.42 C6.14 -0.8, 34.17 -4.64, 42.64 -2.96 C51.11 -1.27, 52.91 6.96, 49.81 9.68 C46.71 12.41, 32.01 12.67, 24.05 13.38 C16.09 14.1, 6.53 15.07, 2.03 13.95 C-2.47 12.83, -2.59 9.04, -2.98 6.67 C-3.36 4.29, -0.94 0.81, -0.31 -0.3 M0.65 -1.68 C8.18 -2.32, 36.6 -6.58, 44.74 -4.55 C52.87 -2.53, 52.94 7.34, 49.46 10.47 C45.97 13.59, 31.38 13.63, 23.82 14.21 C16.26 14.78, 8.33 14.86, 4.09 13.94 C-0.15 13.03, -0.96 11.32, -1.61 8.69 C-2.26 6.07, -0.13 -0.29, 0.17 -1.8" stroke="#000" stroke-width="2" fill="none"></path></g></g><g stroke-linecap="round"><g transform="translate(151.68691125690384 229.49854474913218) rotate(0 23.623020421613546 -31.67801541856602)" fill-rule="evenodd"><path d="M0.48 1.28 L-11.93 -15.33 L-13.45 -22 L-14.6 -31.49 L-10.99 -48.19 L1.54 -59.65 L7.24 -64.36 L7.05 -63.91 L8.84 -31.45 L7.58 -28.25 L13.68 -23.77 L31.14 -21.42 L37.62 -24.96 L40 -26.3 L41.9 -57.7 L40.63 -62.03 L51.49 -53.92 L58.82 -45.53 L62.83 -39.18 L63.63 -19.35 L60 -14.12 L54.49 -4.19 L47.69 -1.8 L40.39 -2.44 L0.09 0.28" stroke="none" stroke-width="0" fill="#ced4da" fill-rule="evenodd"></path><path d="M-1.16 1 C-1.91 -0.22, -2.97 -3.64, -5.48 -7.76 C-7.99 -11.87, -14.88 -18.34, -16.23 -23.7 C-17.57 -29.06, -15.46 -34.7, -13.56 -39.92 C-11.65 -45.14, -8.38 -51.32, -4.81 -55.04 C-1.25 -58.77, 5.4 -66.81, 7.84 -62.28 C10.27 -57.75, 4.79 -34.17, 9.79 -27.87 C14.79 -21.57, 32.45 -21.82, 37.84 -24.48 C43.22 -27.14, 41.49 -37.92, 42.1 -43.85 C42.72 -49.78, 38.76 -59.82, 41.53 -60.07 C44.29 -60.32, 54.95 -50.46, 58.67 -45.35 C62.4 -40.23, 63.63 -35.03, 63.87 -29.36 C64.12 -23.68, 62.49 -15.77, 60.13 -11.28 C57.76 -6.79, 53.05 -3.88, 49.7 -2.43 C46.36 -0.98, 47.74 -3.01, 40.05 -2.58 C32.36 -2.15, 10.43 -0.2, 3.56 0.14 C-3.31 0.48, -0.6 -0.32, -1.17 -0.53 M0.43 0.48 C-0.31 -0.59, -3.64 -2.89, -6.01 -6.75 C-8.38 -10.61, -12.57 -17.26, -13.81 -22.67 C-15.05 -28.08, -14.69 -33.78, -13.44 -39.21 C-12.19 -44.64, -10.09 -51.2, -6.33 -55.25 C-2.58 -59.29, 6.83 -67.81, 9.09 -63.47 C11.34 -59.13, 2.04 -35.59, 7.19 -29.21 C12.35 -22.83, 34.46 -23.05, 40.02 -25.19 C45.57 -27.33, 40.18 -36.18, 40.53 -42.05 C40.89 -47.92, 39.15 -59.52, 42.14 -60.44 C45.13 -61.35, 55.07 -52.59, 58.47 -47.54 C61.86 -42.5, 62.25 -36.14, 62.51 -30.16 C62.78 -24.18, 62.33 -16.17, 60.05 -11.65 C57.78 -7.13, 52.22 -4.51, 48.85 -3.04 C45.48 -1.57, 47.23 -3.55, 39.84 -2.83 C32.45 -2.12, 11.06 0.76, 4.53 1.22 C-2.01 1.68, 1.55 0.36, 0.62 -0.06" stroke="#000" stroke-width="2" fill="none"></path></g></g><g stroke-linecap="round"><g transform="translate(57.794969171311095 263.4541423285805) rotate(0 27.435610499056565 -31.147806979581674)" fill-rule="evenodd"><path d="M-1.1 -1.92 L-17.43 3.03 L-25.08 -0.68 L-26.45 -4.21 L-28.65 -40.11 L-27.36 -54.52 L-25.38 -60.31 L-19.06 -65.83 L-12.95 -75.1 L-2.26 -76.23 L5.23 -78.07 L17.11 -78.24 L28.01 -71.32 L33.07 -68.46 L36.15 -54.91 L37.27 -13.45 L40.32 -7.99 L45.62 -7.05 L52.15 -9.26 L56.94 -7.64 L60.65 -16.81 L58.98 -70.43 L61.84 -77.93 L61.28 -81.45 L73.67 -81.96 L75.45 -78.8 L81.84 -57.83 L82.15 -19.07 L82.3 -3.73 L80.96 4.06 L75.52 10.08 L60.14 15.75 L49.89 20.38 L42.63 17.1 L23.25 7.32 L20.35 -1.65 L17.83 -44.8 L17.88 -49.76 L7.98 -54.77 L-0.01 -52.79 L1.5 -3.53" stroke="none" stroke-width="0" fill="#ced4da" fill-rule="evenodd"></path><path d="M0.79 -1.01 C-3.11 -1.32, -20.02 7.99, -24.58 -0.85 C-29.13 -9.7, -28.66 -41.81, -26.53 -54.08 C-24.41 -66.34, -17.24 -70.28, -11.85 -74.44 C-6.47 -78.61, -0.93 -79.51, 5.77 -79.09 C12.47 -78.66, 23.23 -75.56, 28.35 -71.91 C33.47 -68.26, 34.88 -66.86, 36.5 -57.18 C38.12 -47.51, 35.24 -22.11, 38.07 -13.84 C40.9 -5.57, 50.15 -7.99, 53.47 -7.57 C56.78 -7.14, 57.07 -0.44, 57.97 -11.31 C58.88 -22.18, 57.28 -61.44, 58.9 -72.8 C60.53 -84.16, 64.48 -79.26, 67.73 -79.47 C70.97 -79.68, 76.32 -86.92, 78.39 -74.06 C80.45 -61.21, 81.84 -16.9, 80.1 -2.35 C78.37 12.19, 73.13 9.74, 67.99 13.2 C62.85 16.65, 55.18 18.92, 49.26 18.39 C43.33 17.86, 37.28 13.26, 32.43 10.01 C27.58 6.77, 22.44 7.92, 20.15 -1.07 C17.86 -10.06, 20.34 -35.21, 18.67 -43.93 C17.01 -52.65, 12.72 -51.9, 10.16 -53.38 C7.61 -54.85, 5.3 -53.42, 3.35 -52.76 C1.39 -52.09, -0.9 -57.71, -1.58 -49.37 C-2.26 -41.03, -1.07 -10.24, -0.71 -2.73 M-0.25 1.07 C-3.68 1.44, -17.81 9.44, -22.34 0.4 C-26.87 -8.64, -29.21 -40.76, -27.43 -53.15 C-25.65 -65.54, -17.53 -69.65, -11.65 -73.94 C-5.78 -78.22, 1.44 -79.02, 7.8 -78.85 C14.16 -78.69, 21.71 -76.88, 26.53 -72.94 C31.34 -69, 34.92 -64.95, 36.69 -55.24 C38.46 -45.53, 34.04 -22.39, 37.15 -14.66 C40.25 -6.93, 51.79 -9.42, 55.3 -8.86 C58.81 -8.3, 57.55 -0.73, 58.22 -11.29 C58.88 -21.84, 57.36 -60.83, 59.27 -72.19 C61.18 -83.55, 66.47 -79.53, 69.67 -79.44 C72.87 -79.35, 76.33 -84.52, 78.47 -71.65 C80.61 -58.79, 84.22 -16.26, 82.52 -2.24 C80.82 11.78, 73.73 8.86, 68.25 12.47 C62.78 16.07, 55.84 19.75, 49.67 19.37 C43.51 18.98, 36.37 13.46, 31.26 10.18 C26.15 6.9, 20.77 8.72, 19.01 -0.3 C17.26 -9.33, 22.65 -34.89, 20.75 -43.97 C18.84 -53.06, 10.62 -53.12, 7.58 -54.79 C4.54 -56.46, 4.06 -55.24, 2.52 -54.01 C0.97 -52.78, -1.13 -55.9, -1.7 -47.43 C-2.28 -38.95, -1.07 -10.75, -0.93 -3.17" stroke="#000" stroke-width="2" fill="none"></path></g></g><g stroke-linecap="round"><g transform="translate(46.41335857679587 286.3202988673029) rotate(0 -1.4370676840262604 41.11930890893518)" fill-rule="evenodd"><path d="M-1.71 0.96 L-25.5 29.17 L-33.75 38.74 L-34.79 52.71 L-32.07 67.38 L-27.15 72.76 L-8.74 82.8 L-1.98 82.68 L16.25 77.94 L22.97 76.45 L31.23 64.79 L32.59 53.88 L34.35 47.23 L25.42 33.34 L-1.32 0.44" stroke="none" stroke-width="0" fill="#6c1d5f" fill-rule="evenodd"></path><path d="M-0.91 -0.54 C-6.38 6.11, -26.76 27.96, -32.05 38.88 C-37.34 49.79, -34.85 58.4, -32.64 64.97 C-30.43 71.53, -23.88 75.28, -18.78 78.27 C-13.67 81.26, -6.81 82.58, -1.99 82.91 C2.83 83.23, 5.84 81.67, 10.14 80.21 C14.44 78.76, 19.95 78.24, 23.82 74.2 C27.7 70.15, 32.49 61.49, 33.38 55.97 C34.27 50.45, 31.16 46.22, 29.16 41.09 C27.15 35.97, 26.32 31.92, 21.36 25.22 C16.41 18.51, 3.03 5.2, -0.57 0.86 M0.82 1.79 C-4.9 8.67, -27.42 29.37, -33.13 40.02 C-38.84 50.67, -35.86 59.16, -33.45 65.69 C-31.05 72.22, -23.76 76.28, -18.69 79.22 C-13.62 82.15, -8 82.76, -3.04 83.3 C1.92 83.84, 6.5 83.68, 11.1 82.46 C15.7 81.25, 21.05 80.49, 24.57 76.03 C28.09 71.57, 31.19 61.69, 32.2 55.72 C33.21 49.74, 32.29 45.41, 30.62 40.19 C28.95 34.97, 27.38 31.31, 22.18 24.39 C16.99 17.46, 2.84 2.98, -0.55 -1.36" stroke="#000" stroke-width="2" fill="none"></path></g></g><g stroke-linecap="round"><g transform="translate(154.41646210933322 314.5017902174245) rotate(0 21.141241393135715 31.614621161075092)" fill-rule="evenodd"><path d="M1.24 0.46 L-14.33 10.45 L-16.24 23.84 L-18.55 32.56 L-17.11 40.41 L-12.2 52.02 L-0.59 62.04 L1.37 67 L4.14 60.23 L3.5 30.56 L5.66 26.85 L9.61 21.7 L27.16 21.28 L37.89 25.93 L38.01 34.41 L37.69 61.54 L35.83 61.36 L53.65 49.93 L57.46 41.56 L61.41 28.86 L56.88 14.83 L50.99 5.08 L43.82 -2.07 L35.58 -1.31 L30.83 -3.15 L24.67 4.7 L20.13 4.55 L-1.74 0.57" stroke="none" stroke-width="0" fill="#ced4da" fill-rule="evenodd"></path><path d="M-0.25 -0.75 C-0.09 -0.87, 1.21 -2.27, 0.04 -1.28 C-1.12 -0.29, -5.17 2.92, -7.24 5.18 C-9.3 7.43, -10.52 9.5, -12.34 12.24 C-14.15 14.99, -17.25 18.52, -18.12 21.63 C-18.98 24.74, -17.66 27.5, -17.51 30.92 C-17.35 34.35, -17.85 38.59, -17.21 42.16 C-16.57 45.73, -15.71 49.67, -13.65 52.33 C-11.6 54.99, -7.8 56.1, -4.89 58.13 C-1.98 60.15, 2.12 69.88, 3.82 64.48 C5.51 59.09, 0.51 32.42, 5.29 25.76 C10.07 19.11, 27.11 23.43, 32.51 24.54 C37.92 25.65, 37.03 29.47, 37.71 32.43 C38.39 35.39, 36.6 39.26, 36.62 42.31 C36.63 45.36, 37.59 47.27, 37.77 50.74 C37.96 54.22, 35.11 63.37, 37.74 63.18 C40.37 62.99, 49.87 53.27, 53.53 49.61 C57.2 45.95, 58.62 44.88, 59.74 41.23 C60.86 37.58, 60.93 32.07, 60.26 27.7 C59.59 23.32, 57.55 18.5, 55.74 15 C53.94 11.5, 51.57 9.47, 49.43 6.7 C47.28 3.92, 45.23 -0.02, 42.87 -1.66 C40.51 -3.31, 37.26 -3.24, 35.29 -3.2 C33.31 -3.16, 32.85 -2.46, 31.03 -1.43 C29.21 -0.39, 27.68 2.21, 24.36 3.02 C21.05 3.83, 14.08 3.69, 11.14 3.43 C8.2 3.17, 8.68 2.16, 6.72 1.47 C4.76 0.78, 0.62 -0.53, -0.65 -0.71 M1.82 1.47 C1.89 1.5, 0.71 -1.15, -0.95 -0.34 C-2.62 0.47, -6.38 4.06, -8.17 6.34 C-9.95 8.62, -10.3 10.8, -11.67 13.36 C-13.04 15.91, -15.66 18.36, -16.38 21.65 C-17.1 24.93, -15.93 29.86, -15.99 33.07 C-16.05 36.28, -17.46 37.67, -16.72 40.9 C-15.98 44.13, -13.25 49.28, -11.54 52.46 C-9.84 55.65, -9.15 58.02, -6.51 60.03 C-3.87 62.03, 2.29 70.1, 4.28 64.49 C6.28 58.87, 0.47 33, 5.46 26.32 C10.45 19.65, 28.82 23.57, 34.22 24.42 C39.62 25.27, 37.08 28.53, 37.87 31.43 C38.66 34.34, 38.9 38.2, 38.96 41.84 C39.01 45.48, 38.19 50.04, 38.18 53.26 C38.17 56.49, 36.61 61.7, 38.92 61.17 C41.24 60.64, 48.73 53.26, 52.09 50.06 C55.44 46.86, 57.87 45.66, 59.05 41.96 C60.22 38.27, 59.67 32.13, 59.13 27.88 C58.59 23.64, 57.65 20.17, 55.82 16.51 C53.99 12.86, 50.16 8.65, 48.14 5.94 C46.11 3.22, 45.85 1.4, 43.65 0.24 C41.45 -0.92, 37.3 -0.56, 34.92 -1.01 C32.55 -1.46, 30.96 -3.16, 29.4 -2.45 C27.84 -1.75, 28.49 2.22, 25.57 3.2 C22.65 4.18, 14.84 3.73, 11.88 3.42 C8.91 3.11, 9.68 1.77, 7.76 1.36 C5.85 0.95, 1.91 1.43, 0.41 0.95" stroke="#000" stroke-width="2" fill="none"></path></g></g></svg>
