<svg version="1.1" xmlns="http://www.w3.org/2000/svg" viewBox="0 0 355.3300656812547 133.67225434136697" width="710.6601313625094" height="267.34450868273393">
  <!-- svg-source:excalidraw -->
  
  <defs>
    <style class="style-fonts">
      @font-face {
        font-family: "Virgil";
        src: url("https://excalidraw.com/Virgil.woff2");
      }
      @font-face {
        font-family: "Cascadia";
        src: url("https://excalidraw.com/Cascadia.woff2");
      }
    </style>
  </defs>
  <g stroke-linecap="round"><g transform="translate(141.4709452569316 72.25096180070062) rotate(0 16.12688512497641 -4.587473349266048)" fill-rule="evenodd"><path d="M-1.44 0.54 L46.17 1.87 L47.1 -4.47 L47.71 -4.63 L47.35 -9.97 L43.1 -12.48 L42.74 -18.62 L39.2 -23.05 L37.12 -28.02 L29.52 -32.89 L20.97 -34.79 L15.88 -33.82 L8.82 -35.04 L2.65 -31.98 L-2.58 -27.96 L-4.25 -23.95 L-7.93 -20.91 L-10.03 -14.17 L-12.12 -11.94 L-14.39 -2.85 L-10.93 1.85 L-11.18 5.61 L-7.28 12.13 L-3.23 17.93 L-2.03 18.73 L4.06 21.43 L11.6 23.05 L15.96 26.69 L22.04 24.01 L24.19 23.37 L30.43 23.91 L34.36 20.04 L35.91 15.83 L39.97 13.24 L41.09 10.5 L42.18 6.38 L31.27 7.44 L30.85 6.04 L28.22 7.55 L24.33 12.12 L18.37 11.94 L15.99 11.63 L11.1 10.86 L9.72 12.14 L6.67 9.82 L-0.23 5.72 L1.43 1.55 L0.09 1.83" stroke="none" stroke-width="0" fill="#6c1d5f" fill-rule="evenodd"></path><path d="M-0.51 -1.77 C10.56 0.66, 21.58 -1.36, 45.9 -0.57 M-0.49 -0.27 C16.26 0.29, 30.49 -0.78, 45.76 -0.83 M45.55 0.04 C45.94 -0.57, 45.88 -1.37, 46.04 -2.98 M45.9 -0.07 C45.86 -1.12, 45.69 -1.91, 45.72 -2.76 M45.76 -2.9 C45.76 -2.9, 45.76 -2.9, 45.76 -2.9 M45.76 -2.9 C45.76 -2.9, 45.76 -2.9, 45.76 -2.9 M45.63 -2.64 C45.49 -4.84, 45.12 -6.67, 45.75 -7.94 M45.88 -2.65 C45.47 -4.37, 45.39 -6.45, 45.38 -8.13 M45.72 -8.53 C45.11 -9.36, 45.17 -10.91, 44.86 -13.69 M45.26 -8.24 C45.19 -10.13, 44.91 -11.78, 44.35 -13.03 M44.6 -12.89 C44.13 -14.6, 43.09 -16.47, 43.26 -17.46 M44.65 -13.38 C44.07 -14.32, 43.56 -15.4, 42.74 -17.54 M42.4 -17.63 C41.99 -18.67, 41.06 -20.42, 40.67 -22.05 M42.76 -17.81 C42.01 -18.51, 41.37 -19.92, 40.53 -21.46 M39.83 -21.23 C39.55 -23.26, 37.56 -24.87, 35.77 -27.05 M40.51 -21.47 C38.72 -24.03, 36.73 -25.97, 35.61 -27.05 M35 -26.94 C33.53 -27.97, 32.18 -28.69, 29.79 -31.84 M35.22 -27.32 C32.75 -28.93, 30.81 -30.46, 29.32 -30.85 M29.83 -30.51 C27.36 -32.12, 26.43 -32.54, 22.13 -33.71 M29.55 -31.07 C27.01 -31.79, 24.73 -32.86, 22.67 -33.61 M22.41 -34.21 C20.82 -33.76, 18.32 -34.22, 15.96 -34.73 M23.02 -34.01 C19.94 -34.15, 17.86 -34.04, 15.63 -34.61 M15.68 -34.74 C13.9 -33.84, 12.05 -34.63, 9.52 -33.59 M15.82 -34.65 C13.7 -34.36, 11.65 -34.21, 9.94 -34.22 M9.85 -33.56 C9.02 -33.79, 7.31 -33.04, 4.22 -32.54 M9.69 -34.28 C8.6 -33.44, 7.08 -33.11, 4.12 -32.44 M3.88 -32.18 C2.8 -32, 2.06 -30.97, -1.01 -29.49 M4.33 -32.07 C2.55 -31.35, 1.46 -30.43, -0.88 -29.27 M-1.3 -28.67 C-1.93 -28.68, -3.09 -26.71, -5.82 -25.78 M-0.77 -29.25 C-1.87 -28.15, -3.32 -27.03, -5.76 -24.9 M-4.9 -25.3 C-6.2 -24.03, -7.44 -22.45, -8.38 -20.66 M-5.22 -25.08 C-6.44 -23.47, -7.92 -22.34, -9.02 -20.57 M-8.74 -20.6 C-10.04 -18.99, -11.12 -17.44, -11.32 -15.34 M-9.13 -20.64 C-9.82 -19.09, -10.43 -17.39, -11.26 -15.91 M-11.27 -15.7 C-12.07 -14.3, -12.82 -11.29, -12.98 -9.82 M-11.57 -15.74 C-12.08 -14.39, -12.29 -12.92, -13.01 -10.21 M-12.9 -10.23 C-13.23 -8.32, -13.47 -6.48, -13.26 -4.55 M-13.08 -10.51 C-13.07 -7.97, -13.37 -5.72, -13.27 -4.33 M-13.79 -4.93 C-12.91 -2.81, -12.93 -0.37, -12.9 1.55 M-13.59 -4.67 C-13.19 -3.19, -13.32 -2.16, -13.03 1.3 M-12.98 1.44 C-12.64 2.55, -12.32 3.32, -11.14 7.2 M-13.09 1.2 C-12.33 2.77, -11.89 4.19, -11.31 6.73 M-10.81 6.99 C-9.99 9.03, -8.8 9.88, -8.54 11.46 M-11.1 6.75 C-10.54 8.27, -9.71 10.43, -8.31 11.98 M-8.17 11.8 C-7.83 13.89, -6.57 15.2, -4.39 15.99 M-8.7 11.98 C-7.47 13.36, -6.14 15.2, -5.18 16.26 M-5.18 16.68 C-3.56 17.88, -2.66 18.64, -0.48 20.62 M-4.78 16.39 C-3.47 17.78, -2.29 18.96, -0.55 20.67 M-0.18 20.97 C1.62 21.81, 2.83 22.67, 5.1 23.72 M-0.17 20.66 C1.93 21.66, 3.42 22.32, 4.53 23.31 M4.72 23.09 C6.42 24.1, 8.28 24.44, 10.66 24.26 M5.03 23.34 C6.53 23.44, 8.63 24.08, 10.64 24.94 M10.4 24.72 C12.79 25.03, 14.98 25.18, 16.26 25.57 M10.22 24.85 C12.79 24.71, 14.64 25.09, 16.54 25.11 M16.67 25.41 C18.2 24.88, 19.32 24.7, 21.24 25.18 M16.68 25.39 C17.62 25.06, 18.8 25.11, 21.01 25.12 M21.17 25.21 C22.47 24.42, 24.45 24.59, 25.1 23.89 M20.91 24.94 C21.83 24.76, 23.15 24.37, 25.27 23.86 M25.52 24.2 C26.1 23.3, 27.1 22.95, 29.85 22.57 M25.55 24.12 C26.6 23.75, 27.75 23.36, 29.39 22.25 M29.6 22.3 C30.93 21.51, 31.51 21.18, 32.96 20.62 M29.6 22.38 C30.92 21.53, 32.38 20.87, 33.22 20.38 M32.92 20.02 C33.58 19.96, 34.9 19.41, 36.73 17.9 M33.31 20.1 C34.28 19.39, 35.42 18.79, 36.65 17.52 M36.89 17.76 C37.3 17.03, 37.55 15.92, 39.75 14.35 M36.66 17.5 C37.52 16.32, 38.45 15.52, 39.25 14.3 M39.68 13.66 C39.69 13.43, 40.88 12.09, 41.62 10.11 M39.48 14.25 C40.1 13.12, 41.19 11.92, 41.8 10.35 M41.95 10.03 C42.27 8.71, 43.28 7.64, 44.17 6.2 M42.14 10.16 C42.87 8.66, 43.45 7.22, 43.79 5.65 M45.42 5.89 C41.86 6.6, 38.32 6.89, 29.5 5.63 M43.39 5.57 C38.99 5.76, 35.06 5.21, 29.37 5.96 M29.65 5.8 C29.65 5.8, 29.65 5.8, 29.65 5.8 M29.65 5.8 C29.65 5.8, 29.65 5.8, 29.65 5.8 M29.91 5.92 C29.04 6.53, 28.69 6.93, 27.49 8.79 M29.62 5.7 C29.01 6.56, 28.52 7.38, 27.23 8.92 M27.45 8.68 C26.26 9.23, 25.49 9.85, 24.38 11.02 M27.11 8.9 C26.54 9.43, 25.54 10.08, 24.08 11.22 M24.15 11.47 C22.92 11.41, 21.9 11.85, 20.6 12.39 M23.89 11.25 C23.1 11.49, 22.44 11.76, 20.08 12.25 M20.15 12.08 C18.35 12.97, 17.63 12.58, 15.96 12.77 M20.03 12.56 C19.4 12.36, 18.27 12.65, 16.12 12.94 M15.8 12.84 C14.67 13.07, 13.93 13.03, 12.39 12.7 M15.93 12.86 C14.91 12.75, 14.02 12.61, 12.62 12.78 M12.89 12.85 C11.84 12.3, 11.21 12.38, 9.93 12.36 M12.69 12.68 C11.9 12.41, 11.08 12.33, 9.79 12.17 M9.41 12.42 C8.46 11.95, 6.99 11.18, 5.1 9.17 M9.57 11.89 C8.29 11.79, 7.32 10.66, 4.56 9.71 M5.05 9.33 C3.5 8.37, 2.64 7.26, 1.61 5.36 M4.6 9.57 C3.53 7.87, 2.52 6.86, 1.67 5.42 M1.2 5.91 C0.89 3.75, 0.54 1.87, 0.34 0.45 M1.7 5.38 C1.06 3.48, 0.42 2.07, -0.14 -0.15 M0 0 C0 0, 0 0, 0 0 M0 0 C0 0, 0 0, 0 0 M0 0 C0 0, 0 0, 0 0 M0 0 C0 0, 0 0, 0 0" stroke="#000000" stroke-width="1" fill="none"></path></g></g><g stroke-linecap="round"><g transform="translate(172.81286955372047 61.52021695906984) rotate(0 -15.512987111367806 -5.690030884206919)" fill-rule="evenodd"><path d="M-1.85 -0.13 L-29.56 1.77 L-31.74 0.7 L-28.55 -5.25 L-26.63 -9.78 L-21.91 -12.62 L-17.47 -13.4 L-10.19 -9.54 L-6.93 -7.99 L-3.77 -6.64 L-1.18 1.92 L-0.27 -1.58" stroke="none" stroke-width="0" fill="#fff" fill-rule="evenodd"></path><path d="M-0.78 0.48 C-9.22 -1.81, -16.12 -0.85, -30.5 -1.97 M0.99 0.46 C-10.59 -0.69, -21.07 -0.91, -32.01 0.51 M-31.18 0 C-31.18 0, -31.18 0, -31.18 0 M-31.18 0 C-31.18 0, -31.18 0, -31.18 0 M-30.9 -0.51 C-30.67 -1.94, -29.72 -3.33, -29.32 -4.96 M-31.42 0.14 C-30.77 -1.22, -30.13 -1.79, -28.8 -4.77 M-29.1 -4.79 C-27.99 -6.1, -25.99 -7.3, -25.4 -8.12 M-29.1 -4.61 C-27.79 -6.4, -26.39 -7.47, -25.64 -8.29 M-25.52 -8.44 C-23.9 -9.55, -22.37 -10.42, -20.8 -10.87 M-25.35 -8.62 C-24.39 -9.04, -23.77 -9.3, -20.95 -10.72 M-20.76 -10.78 C-19.8 -11.44, -17.61 -11.22, -16.48 -11.89 M-21.07 -10.99 C-19.92 -11.26, -18.54 -11.18, -16.11 -11.75 M-16.24 -11.51 C-14.49 -11.92, -11.76 -11.64, -10.61 -10.66 M-16.31 -11.51 C-15.04 -11.76, -13.35 -11.04, -10.28 -10.9 M-9.84 -10.85 C-8.49 -10, -6.87 -9.36, -5.2 -8.97 M-10.17 -11.05 C-9.18 -10.46, -8.24 -9.98, -5.85 -8.55 M-5.99 -8.64 C-4.7 -7.13, -2.96 -6.49, -1.78 -5.14 M-5.94 -8.87 C-4.55 -7.61, -3.52 -6.02, -2.37 -4.84 M-2.57 -5.26 C-1.29 -3.52, -1.29 -1.8, 0.33 0.11 M-2.26 -4.76 C-1.53 -3.48, -1.07 -2.12, 0.01 -0.21 M0 0 C0 0, 0 0, 0 0 M0 0 C0 0, 0 0, 0 0 M0 0 C0 0, 0 0, 0 0 M0 0 C0 0, 0 0, 0 0" stroke="#000000" stroke-width="1" fill="none"></path></g></g><g stroke-linecap="round"><g transform="translate(207.37615598540958 43.89103350563215) rotate(0 16.105680506008184 15.267268979872611)" fill-rule="evenodd"><path d="M1.29 0.46 L1.31 -24.31 L-13.44 -21.64 L-12.1 52.55 L-0.56 54.66 L1.17 48.37 L1.18 46.7 L5.99 50.89 L6.4 54.3 L11.95 51.93 L19.7 55.12 L21.04 51.82 L29.3 52.97 L32.26 48.93 L35.96 47.66 L40.39 41.61 L44.52 38.18 L45.35 32.19 L48.92 25.31 L45.08 19.05 L44.2 11.39 L39.64 6.52 L36.61 0.79 L31.85 -0.73 L27.68 -3.12 L24.82 -4.13 L18.56 -4.12 L14.17 -6 L9.86 -4.38 L4.48 -1.57 L-1.81 -1.24 L-1.13 0.25" stroke="none" stroke-width="0" fill="#6c1d5f" fill-rule="evenodd"></path><path d="M-1.09 -1.54 C0.23 -5.43, 0.76 -11.68, 0.76 -23.91 M-0.05 -0.61 C-0.22 -7.08, -1.06 -12, 0.24 -23.66 M0.62 -23.43 C-2.82 -23.28, -7.71 -23.85, -12.07 -21.68 M-0.38 -22.72 C-3.45 -22.43, -5.95 -22.91, -12.5 -23.37 M-14.56 -23.09 C-13.87 6, -14.04 30.93, -14.99 52.74 M-13.28 -23.78 C-13.25 4.28, -13.16 30.11, -12.3 52.53 M-14.04 53.14 C-7.78 53.65, -3.83 53.76, 1 53.39 M-13.41 52.35 C-8.05 53.08, -3.23 53.23, 0.02 53.16 M0.22 52.45 C0.4 51.13, 0.23 50.43, -0.46 47.82 M0.16 52.73 C-0.11 51.41, 0.07 49.89, -0.01 48.2 M0 48.12 C0 48.12, 0 48.12, 0 48.12 M0 48.12 C0 48.12, 0 48.12, 0 48.12 M-0.36 47.72 C1.44 48.54, 2.23 49.99, 3.73 50.78 M-0.23 47.9 C0.97 48.94, 1.87 49.36, 4.18 50.62 M4.29 51 C5.86 51.54, 7.62 51.93, 7.92 52.79 M4.23 50.87 C5.73 51.56, 6.99 52.32, 8.49 52.59 M8.12 52.94 C10.03 52.65, 11.68 53.32, 13.02 53.61 M8.36 52.59 C9.35 53.24, 10.39 53.46, 12.93 53.97 M13.07 53.77 C14.35 54.04, 17.02 54.25, 17.64 54.36 M12.94 53.97 C14.42 54.01, 16.13 53.85, 17.75 54.07 M17.65 54.26 C19.22 54.02, 20.57 53.71, 23.22 54.1 M17.86 54.45 C18.93 54.15, 20.18 54.24, 23.3 53.76 M22.91 53.41 C24.11 53.73, 26.17 52.75, 27.82 52.74 M23.25 53.75 C24.56 53.19, 25.88 53.12, 27.7 52.46 M28.1 52.58 C29.51 51.42, 31.01 50.71, 31.98 50.08 M27.78 52.56 C28.71 51.8, 29.72 51.79, 32.38 50.22 M32.56 50.25 C33.49 49.39, 34.84 48.59, 36.44 47.6 M32.52 50.45 C33.78 49.43, 35.09 48.58, 36.4 47.44 M36.48 48.21 C37.87 45.1, 39.81 44.37, 41.33 42.85 M36.39 47.68 C37.47 46.5, 39.04 44.74, 41.02 43.08 M40.96 43.09 C42.62 41.21, 43 39.8, 44.9 37.65 M40.73 42.74 C42.08 40.95, 43.51 38.99, 44.51 37.21 M44 36.62 C45.24 35.55, 46.07 33.2, 45.94 30.41 M44.73 36.89 C45.3 34.86, 45.93 33.2, 46.23 30.95 M46.13 31.49 C46.7 29.4, 46.55 26.75, 46.77 23.94 M46.38 31.01 C46.7 28.99, 46.91 26.82, 46.87 24.24 M46.99 24.69 C47.23 22.2, 47.23 20.05, 46.91 17.77 M47.19 24.49 C47.24 22.96, 46.95 21.26, 46.6 17.84 M46.77 18.45 C46.1 17.07, 45.08 15.56, 45.14 11.83 M46.45 18.01 C45.95 16.72, 45.34 15.1, 44.86 12.01 M44.59 11.88 C43.74 10.69, 42.38 7.85, 42.17 6.22 M44.86 12.11 C43.64 10.39, 42.96 8.94, 41.6 6.84 M42.16 6.01 C40.18 4.52, 38.9 3.54, 37.57 2.2 M41.36 6.9 C40.64 5.21, 39.15 3.97, 37.09 2.13 M37.1 2.21 C36.78 0.51, 35.32 0.27, 33.46 -1.7 M37.31 1.99 C35.89 0.58, 34.7 -0.47, 33.12 -1.53 M32.88 -1.53 C31.46 -1.99, 29.94 -3.23, 27.95 -3.45 M33.26 -1.22 C31.72 -1.78, 30.78 -2.74, 28.18 -3.72 M28.24 -3.39 C26.62 -3.78, 24.76 -4.81, 22.85 -4.9 M28.14 -4.05 C26.14 -4.17, 24.39 -4.78, 23.35 -5.21 M23.22 -4.91 C21.89 -5.78, 20.14 -4.91, 17.34 -5.17 M23.46 -5.34 C21.47 -5.27, 19.35 -5.64, 17.57 -5.63 M18 -5.66 C16.08 -5.4, 15.06 -5.08, 13.2 -5.66 M17.73 -5.67 C16.16 -5.8, 14.52 -5.5, 12.83 -5.32 M12.88 -5.86 C11.44 -4.98, 9.64 -4.51, 8.33 -4.05 M12.76 -5.48 C11.18 -5.04, 10.06 -4.99, 8.4 -4.41 M8.05 -4.05 C6.35 -4.01, 4.88 -3.68, 4.17 -3.08 M8.34 -4.66 C6.83 -4.17, 5.76 -3.41, 3.76 -2.63 M3.69 -3.09 C3.01 -1.69, 1.14 -1.04, 0.15 0.2 M4.1 -2.47 C2.53 -1.98, 1.37 -1, 0.01 0.06 M0 0 C0 0, 0 0, 0 0 M0 0 C0 0, 0 0, 0 0 M0 0 C0 0, 0 0, 0 0 M0 0 C0 0, 0 0, 0 0" stroke="#000000" stroke-width="1" fill="none"></path></g></g><g stroke-linecap="round"><g transform="translate(207.75084901109938 68.19214474855096) rotate(0 16.414008741716998 -0.27697601026083873)" fill-rule="evenodd"><path d="M1.16 1.81 L1.58 -0.2 L0.08 -3.22 L1.47 -8.1 L0.99 -10.36 L3.36 -12.11 L7.47 -15.68 L9.07 -15.39 L13.44 -15.17 L18.1 -16.28 L21.27 -14.99 L24.78 -14.35 L26.95 -13.86 L29.08 -13.06 L28.12 -9.27 L31.4 -5.27 L33.27 -2.94 L33.8 0.98 L31.54 1.28 L30.2 8.23 L31.26 10.53 L28.72 11.31 L25.72 14.43 L21.26 16.82 L18.88 14.76 L17.35 16.23 L12.32 15.22 L8.53 16.07 L6.6 15.78 L5.11 12.28 L1.33 10.74 L1.86 7.87 L-0.65 2.26 L-0.81 -1.32 L-0.19 1.95" stroke="none" stroke-width="0" fill="#fff" fill-rule="evenodd"></path><path d="M0 0 C0 0, 0 0, 0 0 M0 0 C0 0, 0 0, 0 0 M0.35 -0.1 C0.22 -1.39, 0.47 -1.92, 0.14 -3.35 M-0.05 0.17 C0.25 -0.68, 0.31 -1.56, 0.43 -3.46 M0.12 -3.26 C0.31 -4.31, 0.4 -4.88, 1.41 -7.12 M0.41 -3.42 C0.76 -4.66, 1.11 -5.88, 1.33 -6.85 M1.44 -6.59 C1.75 -7.46, 2.41 -8.44, 3.03 -9.9 M1.22 -6.71 C1.7 -7.77, 2.38 -8.92, 2.64 -9.75 M2.99 -10.05 C3.48 -10.49, 3.62 -11.5, 4.76 -12.1 M2.66 -9.62 C3.27 -10.27, 3.7 -10.96, 4.78 -12.15 M5 -12.12 C5.23 -13, 6.1 -13.27, 6.84 -14.32 M4.65 -12.18 C5.3 -12.77, 6 -13.4, 7.08 -14.33 M7.23 -14.55 C7.88 -14.63, 8.74 -15.34, 9.62 -16.06 M7.13 -14.15 C8.16 -14.82, 9.24 -15.55, 9.95 -15.68 M10.02 -15.81 C11.16 -16.33, 11.54 -16.42, 13.14 -16.59 M9.95 -15.81 C10.56 -16, 11.56 -16.43, 13 -16.89 M13.13 -17.11 C14.31 -17, 15.15 -17.19, 16.13 -17.45 M12.9 -16.64 C13.64 -16.74, 14.54 -16.84, 16.49 -17.24 M16.01 -17.11 C17.4 -16.97, 17.99 -16.84, 19.81 -16.81 M16.27 -17.07 C17.67 -17.14, 19 -16.97, 19.6 -16.74 M19.84 -16.82 C20.95 -16.6, 21.93 -15.89, 22.6 -16.05 M19.69 -16.76 C20.57 -16.39, 21.59 -16.25, 22.81 -15.78 M22.63 -15.53 C24.17 -15.27, 25 -14.32, 25.67 -14 M22.87 -15.88 C23.7 -15.15, 24.55 -14.74, 25.79 -14.04 M25.59 -14.37 C26.12 -13.76, 26.72 -13.27, 27.84 -12.07 M25.53 -14.31 C26.46 -13.26, 27.44 -12.77, 28.11 -12.18 M28 -12.23 C28.52 -11.66, 28.96 -11.02, 30.26 -9.89 M28.07 -12.12 C28.63 -11.3, 29.25 -10.74, 30.27 -9.57 M29.93 -9.89 C30.35 -8.68, 30.95 -8.24, 31.62 -6.57 M29.96 -9.43 C30.52 -8.74, 31 -7.72, 31.6 -6.66 M31.96 -6.7 C31.96 -5.72, 32.43 -4.64, 32.72 -3.47 M31.6 -6.65 C32.09 -5.43, 32.42 -4.17, 32.62 -3.65 M32.67 -3.37 C32.83 -2.63, 32.49 -1.96, 33 -0.27 M32.71 -3.71 C32.81 -2.68, 32.67 -1.84, 32.93 -0.3 M32.93 0.02 C32.65 0.41, 32.56 1.03, 32.58 2.88 M32.91 -0.22 C32.8 0.72, 32.56 1.84, 32.63 3.14 M32.73 3.13 C32.5 4.15, 32.12 5.3, 31.42 6.5 M32.73 3.26 C32.31 4.26, 31.96 5.38, 31.54 6.48 M31.67 6.56 C30.96 7.25, 31.1 7.8, 29.95 9.4 M31.6 6.42 C30.98 7.31, 30.69 8.34, 30.23 9.21 M30.21 9.48 C29.36 9.81, 29.06 10.7, 28.14 11.9 M30.11 9.22 C29.57 10.17, 28.78 11.03, 28.19 11.78 M28.13 11.45 C27.29 12.51, 26.33 13.37, 25.62 13.53 M28.26 11.74 C27.53 12.35, 26.73 12.82, 25.57 13.63 M25.94 13.44 C24.64 14.46, 23.55 14.77, 22.7 15.09 M25.49 13.59 C24.85 13.98, 24.13 14.46, 22.69 15.32 M22.56 15.41 C21.43 15.42, 20.09 16.16, 19.15 16.52 M22.52 15.44 C21.54 15.56, 20.21 16.03, 19.48 16.34 M19.51 16.61 C18.25 16.44, 16.26 16.73, 15.94 16.9 M19.15 16.35 C18.04 16.38, 16.84 16.43, 15.59 16.56 M15.76 16.31 C14.52 16.75, 13.12 16.62, 12.76 16.22 M15.76 16.66 C15.07 16.47, 14.31 16.45, 12.56 16.35 M12.46 16.38 C11.84 16.25, 11.13 15.55, 9.75 15.63 M12.6 16.15 C11.91 16.07, 11.33 15.9, 9.72 15.45 M9.78 15.43 C8.94 15.18, 8.62 14.89, 7.1 13.81 M9.63 15.39 C9.27 14.89, 8.69 14.68, 7.12 13.69 M6.81 13.71 C6.18 13.02, 5.98 12.5, 4.61 11.5 M6.92 13.69 C6.27 13.28, 5.57 12.67, 4.77 11.7 M4.97 11.89 C4.22 11.2, 4.02 10.91, 2.86 9.44 M4.64 11.66 C4.01 10.85, 3.29 10.08, 2.71 9.45 M2.59 9.62 C2.69 8.73, 1.76 8.17, 1.17 6.56 M2.78 9.44 C2.26 8.57, 2.11 7.9, 1.19 6.4 M1.43 6.85 C0.92 5.5, 0.28 4.37, 0.1 3.5 M1.37 6.56 C0.86 5.57, 0.7 4.93, 0.44 3.43 M0.55 3.56 C0.2 2.05, 0.43 1.11, 0.04 0.2 M0.17 3.52 C0.14 2.45, 0.31 1.91, -0.17 -0.17 M0 0 C0 0, 0 0, 0 0 M0 0 C0 0, 0 0, 0 0 M0 0 C0 0, 0 0, 0 0 M0 0 C0 0, 0 0, 0 0" stroke="#000000" stroke-width="1" fill="none"></path></g></g><g stroke-linecap="round"><g transform="translate(263.6716310028172 39.56598724805639) rotate(0 6.556011323755911 28.590197109036097)" fill-rule="evenodd"><path d="M-1.64 0.91 L11.07 -0.91 L13.66 55.74 L-0.21 55.62 L-1.38 1.45 L-1.85 -1.81" stroke="none" stroke-width="0" fill="#6c1d5f" fill-rule="evenodd"></path><path d="M0.43 -1.25 C3.31 -0.58, 5.31 1.29, 13.26 -0.06 M-0.53 0.32 C3.18 -0.35, 6.14 0.54, 12.79 0.3 M13.4 -1.43 C14.81 16.91, 12.22 31.09, 10.72 55.95 M13.59 0.24 C13.44 18.37, 13.11 38.58, 11.71 56.38 M11.82 56.75 C7.77 57.19, 5.88 56.07, 0.65 56.88 M13.06 57.21 C10.44 57.05, 7.49 57.04, 0.02 56.65 M0.25 58.61 C1.19 39.34, 1.55 18.67, 1.59 -0.93 M-0.69 57.95 C0.13 44.31, -0.37 30.25, 0.13 0.48 M0 0 C0 0, 0 0, 0 0 M0 0 C0 0, 0 0, 0 0 M0 0 C0 0, 0 0, 0 0 M0 0 C0 0, 0 0, 0 0" stroke="#000000" stroke-width="1" fill="none"></path></g></g><g stroke-linecap="round"><g transform="translate(263.6716310028172 20.951464251302525) rotate(0 6.305769313019141 6.381610676136901)" fill-rule="evenodd"><path d="M-1.6 -0.91 L13.66 -1.36 L12.45 11.22 L-1.38 14.15 L-1.85 -1.81 L0.61 1.88" stroke="none" stroke-width="0" fill="#6c1d5f" fill-rule="evenodd"></path><path d="M0.48 -0.62 C3.09 1.38, 7.46 0.06, 11.9 0 M0.15 -0.46 C2.83 0.38, 5.63 0.23, 12.43 0.62 M13.67 1.22 C12.08 4.17, 11.48 6.18, 13.09 12.37 M13.25 -0.42 C13.16 5.38, 12.17 9.63, 12.62 12.33 M11.48 12.68 C8.4 11.53, 3.54 12.44, -1.06 13.38 M13.18 12.55 C8.18 12.57, 3.12 12.27, 0.17 13.07 M0.97 13.29 C1.18 7.38, 1 2.8, -0.84 -0.22 M0.02 13.07 C-0.21 8.04, 0.17 3.81, -0.44 0.54 M0 0 C0 0, 0 0, 0 0 M0 0 C0 0, 0 0, 0 0 M0 0 C0 0, 0 0, 0 0 M0 0 C0 0, 0 0, 0 0" stroke="#000000" stroke-width="1" fill="none"></path></g></g><g stroke-linecap="round"><g transform="translate(330.7208212605884 97.33909246739984) rotate(0 -16.5145847298636 -28.746761970807697)" fill-rule="evenodd"><path d="M-0.66 -1.14 L12.78 1.09 L11.55 -55.76 L1.74 -55.99 L-1.46 -49.21 L-0.49 -50.93 L-5.27 -54.02 L-8.17 -57.66 L-13.59 -57.37 L-18.78 -57.91 L-22.54 -57.01 L-28.8 -54.93 L-33.21 -54.3 L-37.51 -49.71 L-42.16 -44.14 L-47.01 -41.39 L-47.85 -34.38 L-47.79 -26.78 L-46.54 -20.67 L-43.83 -15.02 L-40.76 -11.92 L-39.04 -6.99 L-34.25 -5.01 L-31.2 -1.66 L-25.2 0.81 L-17.41 -0.12 L-12.55 1.24 L-6.33 0.95 L-1.15 -2.41 L1.51 -5.27 L1.89 1.42 L1.29 0.33 L0.97 -0.97" stroke="none" stroke-width="0" fill="#6c1d5f" fill-rule="evenodd"></path><path d="M-0.35 1.25 C3.14 0, 4.33 0.06, 11.62 -1.06 M0.08 0.44 C4.57 0.39, 8.66 0.71, 12.49 0.23 M11.67 1.13 C10.27 -14.21, 12.88 -26.63, 14.61 -55.27 M13.26 0.53 C11.18 -19.23, 12.07 -37.59, 13.53 -57.77 M13.29 -58.24 C9.88 -57.33, 4.72 -56.43, 0.98 -56.31 M12.97 -57.26 C8.68 -57.59, 4.82 -56.76, 0.42 -57.02 M0.64 -57.46 C0.6 -54.85, -0.4 -52.08, 0.42 -50.73 M-0.16 -57.14 C0.05 -54.31, -0.24 -51.55, -0.34 -50.09 M0 -50.26 C0 -50.26, 0 -50.26, 0 -50.26 M0 -50.26 C0 -50.26, 0 -50.26, 0 -50.26 M-0.38 -50.29 C-1.09 -51.5, -2.12 -52.29, -3.1 -53.94 M0.01 -50.31 C-0.88 -51.52, -2.11 -52.28, -3.49 -54.05 M-3.65 -54.27 C-4.35 -55.3, -6.57 -55.61, -6.92 -56.43 M-3.15 -53.7 C-4.55 -54.68, -5.8 -55.49, -7.36 -56.3 M-7.09 -56.2 C-8.78 -56.54, -9.7 -56.99, -12.21 -58.38 M-7.32 -56.68 C-9.1 -57.23, -10.74 -57.52, -12.53 -57.85 M-12.63 -58.62 C-14.29 -58.18, -15.8 -58.58, -17.53 -58.9 M-12.02 -58.25 C-14.56 -58.12, -16.62 -58.69, -18.05 -58.41 M-17.88 -58.64 C-19.45 -58.26, -21.64 -58.43, -23.9 -58.03 M-18.26 -58.5 C-19.33 -58.55, -20.78 -58.26, -24.18 -57.88 M-24.56 -58.55 C-25.68 -57.36, -26.39 -57.28, -29.58 -56.44 M-24.2 -58.07 C-25.99 -57.51, -28.61 -57, -29.45 -56.26 M-29.64 -56.14 C-30.77 -55.26, -32.22 -54.93, -35.02 -53.98 M-29.43 -56.2 C-31.56 -55.37, -33.22 -54.55, -34.82 -53.89 M-35.16 -53.66 C-35.44 -53.1, -36.82 -52.17, -39.69 -50.12 M-34.65 -53.87 C-36.72 -52.09, -38.36 -50.72, -39.33 -49.79 M-38.96 -50.32 C-40.16 -48.33, -40.97 -47.49, -42.77 -45.54 M-38.94 -49.76 C-40.58 -48.29, -41.28 -46.97, -42.97 -45.34 M-42.73 -44.97 C-43.63 -43.45, -44.5 -41.93, -44.68 -40.32 M-42.75 -45.13 C-43.46 -43.77, -44.01 -41.97, -45.19 -40.11 M-44.99 -39.94 C-45.11 -38.87, -46.19 -36.62, -46.46 -34.25 M-45.15 -40.26 C-45.75 -38.51, -46.39 -36.44, -46.53 -34.49 M-46.59 -34.63 C-47.19 -32.23, -47.44 -30.55, -47.64 -28.39 M-46.71 -34.67 C-47.2 -32.8, -46.82 -30.66, -46.98 -28.9 M-47.26 -29.27 C-47.08 -27.11, -46.61 -25.21, -46.45 -22.6 M-47.19 -28.79 C-46.97 -27.18, -46.73 -25.3, -46.69 -22.31 M-47.08 -22.28 C-45.85 -21.04, -45.22 -19.16, -44.67 -16.67 M-46.88 -22.32 C-46.3 -20.93, -45.56 -19.53, -44.8 -17.11 M-45.35 -16.51 C-43.78 -15.29, -43.16 -13.63, -42.12 -12.25 M-44.87 -16.86 C-44.14 -15.49, -43.62 -14.04, -42.11 -11.82 M-42.31 -11.39 C-41.29 -10.39, -40.62 -9.88, -38.83 -7 M-42.22 -11.59 C-40.84 -9.91, -40.04 -8.53, -39.03 -7.23 M-38.78 -7.7 C-37.76 -6.68, -35.53 -4.57, -34.39 -3.62 M-38.86 -7.53 C-36.99 -6.14, -35.43 -4.35, -34.74 -3.58 M-34.39 -4.06 C-33.1 -2.98, -30.97 -2.3, -30.01 -1.11 M-34.41 -3.66 C-33.33 -3.28, -32.45 -2.65, -29.37 -1.08 M-29.74 -0.57 C-27.84 -0.39, -26.26 -0.66, -23.36 0.82 M-29.19 -0.87 C-27.84 -0.69, -26.45 -0.02, -23.59 0.94 M-23.34 1.19 C-21.71 0.27, -20.72 0.49, -17.49 1.33 M-23.91 0.62 C-21.66 0.88, -19.79 1.21, -18.08 1.32 M-17.43 1.15 C-16.04 1.59, -13.45 1.4, -11.49 1.06 M-17.84 1.41 C-16.14 1.32, -14.51 0.89, -11.65 0.92 M-11.68 1.3 C-10.25 0.33, -8.02 -0.25, -7.23 -0.74 M-11.73 1 C-10.42 0.4, -8.93 -0.08, -6.73 -0.82 M-6.74 -0.7 C-5.77 -1.61, -4.07 -2.84, -2.73 -2.81 M-6.72 -0.88 C-6.02 -1.36, -4.82 -2.09, -3.01 -3.47 M-3.09 -3.74 C-2.43 -3.66, -2.24 -5.2, -0.45 -7.38 M-2.85 -3.43 C-2.15 -4.69, -1.17 -5.65, 0.01 -7.14 M0.16 -6.88 C0.41 -4.71, 0.53 -3.56, -0.73 0.07 M-0.18 -6.84 C-0.27 -5.55, 0.02 -3.76, 0.24 0.28 M-0.06 0 C-0.04 0, -0.02 0, 0 0 M-0.06 0 C-0.04 0, -0.03 0, 0 0 M0 0 C0 0, 0 0, 0 0 M0 0 C0 0, 0 0, 0 0 M0 0 C0 0, 0 0, 0 0 M0 0 C0 0, 0 0, 0 0" stroke="#000000" stroke-width="1" fill="none"></path></g></g><g stroke-linecap="round"><g transform="translate(296.27038214792503 67.98680186796389) rotate(0 16.08128101489058 0.5202082545825988)" fill-rule="evenodd"><path d="M-1.73 -0.64 L-1.32 0.14 L0.72 -4.76 L0.5 -6.04 L3.28 -7.64 L6.56 -10.82 L8.76 -11.85 L11.92 -13.7 L14.33 -15.72 L17.3 -17.33 L17.4 -15.73 L22.1 -13.62 L25.73 -12.88 L28.34 -10.22 L28.43 -10.85 L29.57 -4.17 L33.13 -1.48 L32.98 0.36 L32.15 4.68 L29.68 8.57 L29.13 8.33 L29.31 11.9 L24.94 13.23 L21.36 16.56 L19.16 18.76 L16.94 17.61 L11.81 18.2 L10.74 17.22 L6.37 13.25 L4.08 11.03 L2.67 11.79 L1.01 5.59 L-1.19 5.58 L-0.78 0.33 L1.2 0.09" stroke="none" stroke-width="0" fill="#fff" fill-rule="evenodd"></path><path d="M0 0 C0 0, 0 0, 0 0 M0 0 C0 0, 0 0, 0 0 M-0.33 -0.2 C0.26 -1.43, 0.61 -2.37, 0.41 -3.06 M-0.16 -0.12 C0.05 -0.89, 0.28 -1.7, 0.28 -3.54 M0.5 -3.43 C0.33 -4.12, 1.14 -5.02, 1.34 -6.22 M0.34 -3.49 C0.62 -4.13, 0.95 -5.07, 1.41 -6.36 M1.54 -6.63 C1.57 -7.5, 2.5 -8.63, 3.06 -9.26 M1.31 -6.41 C1.73 -7.35, 2.22 -8.4, 2.79 -9.43 M2.65 -9.06 C3.19 -9.96, 3.92 -10.28, 4.98 -11.68 M2.82 -9.34 C3.35 -9.93, 4.16 -11, 4.73 -11.74 M4.64 -11.86 C5.49 -12.5, 6.79 -13.2, 7.16 -13.47 M4.84 -11.79 C5.18 -12.03, 5.71 -12.59, 7.28 -13.75 M7.43 -13.93 C7.73 -13.96, 9.11 -14.41, 10.02 -14.97 M7.23 -13.57 C7.85 -13.91, 8.4 -14.15, 9.89 -15.26 M9.84 -14.9 C10.98 -15.25, 11.94 -15.91, 13.21 -15.85 M9.99 -15.2 C10.8 -15.25, 11.33 -15.42, 13 -16 M12.81 -16.01 C13.68 -16.21, 15 -16.36, 16.56 -16.31 M12.97 -15.99 C14.18 -16.29, 15.38 -16.16, 16.36 -16.41 M16.62 -16.3 C17.52 -16.36, 18.5 -16.13, 19.17 -16.03 M16.38 -16.4 C17.1 -16.23, 17.83 -16.12, 19.32 -15.98 M19.32 -15.9 C20.75 -15.69, 21.57 -15.3, 22.61 -14.77 M19.55 -16.07 C20.17 -15.84, 21.28 -15.35, 22.26 -15.1 M22.42 -14.81 C23.29 -14.49, 24.05 -14.15, 25.24 -13.82 M22.29 -15.02 C23.18 -14.68, 23.85 -14.29, 24.99 -13.67 M25.28 -13.73 C25.71 -13.3, 25.9 -12.77, 27.77 -11.52 M24.92 -13.48 C25.54 -13.12, 26.05 -12.62, 27.41 -11.49 M27.45 -11.34 C28.12 -10.78, 28.62 -10.15, 29.59 -9.07 M27.35 -11.47 C28.08 -11.01, 28.23 -10.42, 29.62 -8.89 M29.48 -9.04 C30.02 -8.37, 30.77 -7.22, 31.01 -6.07 M29.47 -8.98 C30.19 -7.64, 30.73 -6.62, 31.09 -5.92 M31.37 -6.38 C31.42 -4.88, 31.97 -3.31, 32.13 -2.67 M31 -6.15 C31.26 -4.9, 31.83 -3.75, 32.05 -2.92 M31.87 -2.44 C31.91 -1.7, 31.95 -0.91, 32.51 0.51 M31.87 -2.88 C32.32 -1.6, 32.42 -0.5, 32.36 0.66 M32.39 0.68 C32.46 1.57, 32.31 2.42, 31.93 3.7 M32.46 0.72 C32.41 1.84, 32.15 2.9, 31.97 4.09 M32.23 4.02 C32.06 5.05, 31.68 5.69, 30.95 7.1 M31.99 4.06 C31.89 4.76, 31.64 5.36, 31.13 7.16 M31.23 6.94 C30.66 7.65, 30.38 8.22, 29.46 10 M31.13 7.02 C30.61 7.86, 30.34 8.58, 29.44 9.96 M29.68 10 C29.14 10.33, 28.6 11.17, 27.77 12.23 M29.68 9.95 C28.68 10.74, 27.96 11.7, 27.6 12.3 M27.39 11.99 C27.05 13.21, 25.99 13.69, 25.44 13.97 M27.7 12.17 C26.78 13.14, 25.69 13.8, 25.25 14.37 M25.04 14.18 C24.61 14.43, 23.56 14.99, 22.23 15.78 M25.26 14.2 C24.47 14.65, 23.84 15.06, 22.44 15.69 M22.66 15.95 C21.71 15.97, 20.67 16.63, 19.46 16.55 M22.64 15.78 C21.7 16.24, 20.78 16.61, 19.62 16.69 M19.76 16.51 C18.23 16.68, 17.61 17.1, 16.62 17.3 M19.73 16.8 C18.79 16.96, 17.69 17.02, 16.68 17.04 M16.22 17.45 C15.09 17.31, 14.15 17.03, 13.16 16.67 M16.55 17.24 C15.54 16.99, 14.6 17.03, 13.39 16.97 M13.01 16.86 C12.44 16.66, 11.45 16.34, 10.2 16.01 M13.12 16.87 C12.05 16.57, 11.21 16.12, 10.27 15.93 M9.9 15.92 C8.99 15.16, 8.14 15.03, 7.14 14.69 M10.1 15.83 C9.41 15.25, 8.34 14.77, 7.2 14.45 M7.3 14.61 C6.54 13.65, 6.07 13.3, 5.02 12.07 M7.2 14.28 C6.43 13.85, 5.84 13.03, 4.85 12.4 M5.1 12.54 C4.45 11.33, 3.18 10.67, 2.69 9.86 M4.8 12.24 C4.28 11.46, 3.72 10.87, 2.88 9.69 M2.66 9.96 C2.41 8.86, 1.98 7.52, 1.11 7.06 M2.98 9.95 C2.64 9.22, 2.31 8.46, 1.38 6.79 M1.24 7.25 C1.32 5.97, 0.73 4.35, 0.15 3.57 M1.43 6.81 C0.89 5.78, 0.64 4.39, 0.29 3.79 M0.08 3.98 C0.23 1.98, 0.38 0.86, -0.35 0.36 M0.47 3.67 C0.25 2.23, 0.09 1.12, -0.06 -0.1 M0 0 C0 0, 0 0, 0 0 M0 0 C0 0, 0 0, 0 0 M0 0 C0 0, 0 0, 0 0 M0 0 C0 0, 0 0, 0 0" stroke="#000000" stroke-width="1" fill="none"></path></g></g><g stroke-linecap="round"><g transform="translate(11.547488002659293 122.0573349974037) rotate(0 72.26893361251501 -55.22120782672022)" fill-rule="evenodd"><path d="M0.94 -0.04 L34.23 0.27 L70.36 -35.73 L109.19 -0.17 L144.75 1.97 L89.45 -54.45 L145.19 -111.08 L111.29 -108.81 L72.42 -72.4 L35.19 -109.32 L1.22 -110.06 L55.46 -53.24 L-1.95 -0.06 L-0.49 0.9" stroke="none" stroke-width="0" fill="#6c1d5f" fill-rule="evenodd"></path><path d="M-1.22 0 C12.19 -1.65, 28.71 0.49, 33.28 0.25 M-0.38 0.97 C12.55 0.2, 24.95 0.63, 35.69 -0.5 M35.39 -0.52 C50.43 -11.34, 62.36 -24.73, 70.98 -36.37 M34.65 -0.58 C49.2 -13.65, 61.31 -27.17, 72.28 -37.07 M70.62 -36.49 C81.91 -28.35, 88.56 -20.09, 109.26 0.95 M72.57 -36.97 C83.28 -26.83, 93.67 -15.86, 110.22 0.94 M108.44 -0.34 C119.69 -1.22, 128.84 0.23, 146.09 -0.93 M109.05 0.85 C118.93 0.33, 130.12 -1.16, 144.26 0.26 M144.54 -0.74 C127.5 -17.86, 108.48 -37.7, 90.54 -53.92 M144.36 1 C125.45 -20.75, 105 -40.2, 90.75 -55.96 M88.3 -55.61 C107.23 -71.2, 122.46 -86.41, 143.74 -110.77 M89.06 -54.73 C104.31 -70.7, 121.04 -86.38, 145.3 -111.55 M143.6 -110.21 C139.17 -110.71, 129.49 -110.17, 108.55 -109.61 M145.77 -110.31 C131.5 -109.67, 116.89 -111.53, 110.39 -110.24 M110.55 -109.68 C96.54 -97.82, 83.44 -81.46, 71.2 -72.26 M110.7 -110.32 C100.14 -100.83, 91.57 -92.16, 71.8 -73.29 M71.16 -73.38 C66.68 -81.61, 58.44 -87.99, 35.66 -108.9 M72.15 -73.63 C63.53 -81.06, 54.66 -90.97, 34.88 -110.49 M35.68 -111.49 C25.21 -110.63, 12.7 -110.68, -1.55 -112.06 M34.68 -110.41 C22.99 -110.29, 11.14 -110.53, 0.15 -111.52 M1.37 -111.04 C11.46 -99.13, 24.74 -85.3, 54.73 -55.48 M-1.19 -111.45 C17.05 -93.63, 32.07 -78.16, 55.23 -55.15 M54.67 -54.82 C34.14 -36.08, 17.15 -17.34, -0.13 1.61 M54.92 -55.4 C32.71 -34.19, 11.61 -12.98, -0.68 -0.84 M0 0 C0 0, 0 0, 0 0 M0 0 C0 0, 0 0, 0 0 M0 0 C0 0, 0 0, 0 0 M0 0 C0 0, 0 0, 0 0" stroke="#000000" stroke-width="1" fill="none"></path></g></g></svg>