<svg version="1.1" xmlns="http://www.w3.org/2000/svg" viewBox="0 0 299.870741990695 331.53168023371063" width="599.74148398139" height="663.0633604674213">
  <!-- svg-source:excalidraw -->
  
  <defs>
    <style class="style-fonts">
      @font-face {
        font-family: "Virgil";
        src: url("https://excalidraw.com/Virgil.woff2");
      }
      @font-face {
        font-family: "Cascadia";
        src: url("https://excalidraw.com/Cascadia.woff2");
      }
    </style>
  </defs>
  <g stroke-linecap="round" transform="translate(10 10) rotate(0 139.9353709953475 133.62588005218652)"><path d="M64.82 -1.78 L229.93 0.47 L240.39 5.5 L255.25 8.52 L266.27 19.28 L277.07 36.99 L281.47 58.15 L281.03 208.38 L278.59 222.26 L274.8 233.86 L267.17 246.36 L257.43 254.79 L242.84 264.13 L222.86 265.3 L59.14 267.91 L44.47 265.26 L31.59 259.11 L21.05 255.28 L12.78 247.25 L3.09 227.89 L-0.38 208.55 L-0.68 68.06 L3.81 43.16 L9.78 24.83 L21.12 14.17 L32.3 8.18 L45.07 1.69 L67.09 1.16" stroke="none" stroke-width="0" fill="#fab005"></path><path d="M66.81 0 M66.81 0 C114.92 1.34, 167.07 0.82, 213.06 0 M66.81 0 C105.73 -1.55, 143.68 -1.96, 213.06 0 M213.06 0 C258.55 1.49, 281.83 21.77, 279.87 66.81 M213.06 0 C256.47 0.7, 279.45 20.68, 279.87 66.81 M279.87 66.81 C278.79 106.71, 278.17 149.23, 279.87 200.44 M279.87 66.81 C279.29 113.38, 279.97 162.09, 279.87 200.44 M279.87 200.44 C278.95 243.71, 258.04 267.77, 213.06 267.25 M279.87 200.44 C281.74 242.9, 256.31 268.22, 213.06 267.25 M213.06 267.25 C155.42 268.09, 97.74 269.58, 66.81 267.25 M213.06 267.25 C166.63 268.79, 122.53 268.65, 66.81 267.25 M66.81 267.25 C20.97 269.19, -1.36 245.15, 0 200.44 M66.81 267.25 C22.69 265.22, -0.42 243.52, 0 200.44 M0 200.44 C1.35 159.78, -0.29 118.8, 0 66.81 M0 200.44 C-0.96 164.37, -1.2 128.98, 0 66.81 M0 66.81 C-0.57 20.52, 22.95 -1.12, 66.81 0 M0 66.81 C0.85 22.91, 21.99 -0.53, 66.81 0" stroke="#000000" stroke-width="1" fill="none"></path></g><g stroke-linecap="round" transform="translate(26.50442849256069 25.5766647607295) rotate(0 125.84814571883726 117.22611574158088)"><path d="M166.25 5.4 C179.77 7.81, 194.21 17.22, 205.6 25.73 C216.99 34.23, 227.15 44.94, 234.56 56.43 C241.97 67.91, 247.37 81.53, 250.06 94.62 C252.75 107.71, 252.93 121.89, 250.71 134.96 C248.49 148.02, 243.75 161.22, 236.73 173.01 C229.71 184.8, 219.63 196.75, 208.59 205.71 C197.54 214.67, 183.81 221.9, 170.46 226.77 C157.11 231.64, 142.59 234.87, 128.49 234.96 C114.4 235.04, 99.48 231.62, 85.89 227.27 C72.31 222.93, 58.27 217.12, 46.99 208.89 C35.72 200.67, 25.69 189.57, 18.25 177.92 C10.81 166.26, 5.15 152.02, 2.35 138.95 C-0.44 125.87, -0.75 112.43, 1.48 99.46 C3.7 86.48, 8.83 73.02, 15.69 61.1 C22.55 49.19, 31.85 36.85, 42.61 27.97 C53.37 19.1, 66.84 12.41, 80.26 7.86 C93.69 3.3, 108.23 0.85, 123.14 0.65 C138.05 0.44, 161.81 5.16, 169.72 6.63 C177.63 8.1, 171.43 7.43, 170.59 9.46 M147.85 2.1 C161.55 2.54, 177.69 10.09, 190.21 16.59 C202.73 23.09, 214.12 30.92, 222.96 41.12 C231.81 51.32, 238.32 65.07, 243.25 77.81 C248.19 90.55, 252.55 104.44, 252.57 117.56 C252.59 130.67, 248.31 143.9, 243.37 156.49 C238.43 169.08, 232.24 182.88, 222.93 193.08 C213.61 203.27, 200.35 210.93, 187.49 217.66 C174.62 224.4, 159.55 230.76, 145.71 233.49 C131.88 236.22, 118.43 236.66, 104.47 234.03 C90.52 231.4, 74.49 224.74, 61.99 217.71 C49.49 210.67, 38.76 201.96, 29.48 191.84 C20.2 181.71, 11.43 169.53, 6.33 156.95 C1.22 144.36, -1.39 129.98, -1.15 116.34 C-0.91 102.7, 2.69 87.75, 7.77 75.1 C12.86 62.45, 19.93 50.52, 29.35 40.46 C38.77 30.39, 51.8 21.17, 64.29 14.72 C76.78 8.26, 90.45 3.68, 104.3 1.72 C118.14 -0.24, 139.89 2.65, 147.37 2.95 C154.85 3.25, 149.55 1.71, 149.18 3.51" stroke="#000000" stroke-width="1" fill="none"></path></g><g transform="translate(139.0931974337327 32.9560575489927) rotate(0 20.165716747554143 23.52666953881362)"><text x="0" y="33.053339077627356" font-family="Virgil, Segoe UI Emoji" font-size="36.93389096233766px" fill="#000000" text-anchor="start" style="white-space: pre;" direction="ltr">12</text></g><g transform="translate(195.7074729565793 44.66621698821564) rotate(0 6.721905582518048 23.52666953881362)"><text x="0" y="33.053339077627356" font-family="Virgil, Segoe UI Emoji" font-size="36.93389096233766px" fill="#000000" text-anchor="start" style="white-space: pre;" direction="ltr">1</text></g><g stroke-linecap="round"><g transform="translate(152.3768255711966 146.5335234275367) rotate(0 33.51136390440115 -20.80584163315814)"><path d="M0.89 -0.52 C5.54 -3.59, 15.75 -10.48, 26.79 -17.63 C37.83 -24.78, 60.35 -39.13, 67.13 -43.43 M-0.1 1.82 C4.45 -1.22, 14.43 -9.32, 25.58 -16.68 C36.73 -24.03, 60.29 -38, 66.79 -42.3" stroke="#000000" stroke-width="1" fill="none"></path></g></g><g stroke-linecap="round"><g transform="translate(152.65980586396836 145.7735432544962) rotate(0 -19.354669198986812 -0.4328160549586073)"><path d="M-0.52 -0.49 C-7.34 -0.47, -33.64 0.7, -40.11 1 M1.4 -1.79 C-5.13 -2.18, -31.04 -0.91, -37.99 -0.69" stroke="#000000" stroke-width="1" fill="none"></path></g></g><g transform="translate(219.53398906407529 73.47358706666682) rotate(0 15.124287560665834 23.52666953881362)"><text x="0" y="33.053339077627356" font-family="Virgil, Segoe UI Emoji" font-size="36.93389096233762px" fill="#000000" text-anchor="start" style="white-space: pre;" direction="ltr">2</text></g><g transform="translate(244.65724473986666 116.227348263767) rotate(0 14.284049362850965 23.52666953881362)"><text x="0" y="33.053339077627356" font-family="Virgil, Segoe UI Emoji" font-size="36.93389096233762px" fill="#000000" text-anchor="start" style="white-space: pre;" direction="ltr">3</text></g><g transform="translate(227.48618005906428 162.56217171214257) rotate(0 13.443811165036095 23.52666953881362)"><text x="0" y="33.053339077627356" font-family="Virgil, Segoe UI Emoji" font-size="36.93389096233765px" fill="#000000" text-anchor="start" style="white-space: pre;" direction="ltr">4</text></g><g transform="translate(192.31533964887967 194.25070818236054) rotate(0 13.443811165036095 23.52666953881362)"><text x="0" y="33.053339077627356" font-family="Virgil, Segoe UI Emoji" font-size="36.93389096233765px" fill="#000000" text-anchor="start" style="white-space: pre;" direction="ltr">5</text></g><g transform="translate(144.4519092919545 219.1463903577519) rotate(0 13.443811165036095 23.52666953881362)"><text x="0" y="33.053339077627356" font-family="Virgil, Segoe UI Emoji" font-size="36.93389096233765px" fill="#000000" text-anchor="start" style="white-space: pre;" direction="ltr">6</text></g><g transform="translate(99.09178743948178 203.61557241557784) rotate(0 11.763334769407265 23.52666953881362)"><text x="0" y="33.053339077627356" font-family="Virgil, Segoe UI Emoji" font-size="36.933890962337685px" fill="#000000" text-anchor="start" style="white-space: pre;" direction="ltr">7</text></g><g transform="translate(58.587998208711724 164.90660815023716) rotate(0 15.964525758480704 23.526669538813735)"><text x="0" y="33.053339077627356" font-family="Virgil, Segoe UI Emoji" font-size="36.93389096233766px" fill="#000000" text-anchor="start" style="white-space: pre;" direction="ltr">8</text></g><g transform="translate(40.154544676592195 121.71487531084836) rotate(0 12.603572967221226 23.526669538813735)"><text x="0" y="33.053339077627356" font-family="Virgil, Segoe UI Emoji" font-size="36.93389096233765px" fill="#000000" text-anchor="start" style="white-space: pre;" direction="ltr">9</text></g><g transform="translate(54.4530306450979 73.93732174656407) rotate(0 19.325478549740183 23.52666953881362)"><text x="0" y="33.053339077627356" font-family="Virgil, Segoe UI Emoji" font-size="36.933890962337635px" fill="#000000" text-anchor="start" style="white-space: pre;" direction="ltr">10</text></g><g transform="translate(98.05697208879064 41.50595102061402) rotate(0 11.763334769407265 23.526669538813735)"><text x="0" y="33.053339077627356" font-family="Virgil, Segoe UI Emoji" font-size="36.933890962337685px" fill="#000000" text-anchor="start" style="white-space: pre;" direction="ltr">11</text></g><g stroke-linecap="round" transform="translate(60.44130457207211 270.95054846108997) rotate(0 99.27803988111009 25.290565886310333)"><path d="M0.46 -1.34 L202 0.47 L201.85 52.31 L-3.39 54.23" stroke="none" stroke-width="0" fill="#fd7e14"></path><path d="M-3.62 0.18 C70.69 -5.48, 141.05 -1.79, 200.66 3.42 M0.36 0.35 C42.8 -3.45, 85.49 -1.02, 198.55 1.14 M198.6 -1.36 C200.15 15.35, 195.76 25.64, 196.01 50.54 M199.52 -0.66 C199.2 19.84, 199.7 37.75, 196.93 49.15 M197.19 46.85 C140.46 49.95, 74.61 46.16, -3.59 52.49 M197.57 51.19 C123.83 48.21, 50.09 48.06, -0.37 50.53 M2.13 48.75 C-0.56 40.45, -2.25 32.92, 3.43 -1.84 M1.62 48.77 C-1.34 39.46, 1.62 25.93, 0.84 -0.32" stroke="#000000" stroke-width="1" fill="none"></path></g><g transform="translate(94.56472425455286 280.95218817651516) rotate(0 69.739770418626 16.80476395629546)"><text x="0" y="23.609527912590963" font-family="Virgil, Segoe UI Emoji" font-size="26.534427573753707px" fill="#fff" text-anchor="start" style="white-space: pre;" direction="ltr">10 Minutes</text></g></svg>
