<svg version="1.1" xmlns="http://www.w3.org/2000/svg" viewBox="0 0 714.8390471819948 793.4441060930662" width="1429.6780943639897" height="1586.8882121861325">
  <!-- svg-source:excalidraw -->
  
  <defs>
    <style class="style-fonts">
      @font-face {
        font-family: "Virgil";
        src: url("https://excalidraw.com/Virgil.woff2");
      }
      @font-face {
        font-family: "Cascadia";
        src: url("https://excalidraw.com/Cascadia.woff2");
      }
    </style>
  </defs>
  <g stroke-linecap="round" transform="translate(10 10) rotate(0 347.4195235909974 331.7548612402061)"><path d="M166.55 -0.65 L529.37 1.51 L569.72 1.57 L601.28 9.08 L629.06 22.04 L652.55 43.39 L661.45 50.6 L672.96 66.56 L684.64 95.17 L690.27 109.42 L692.79 145.47 L695.47 518.85 L690.78 552.33 L678.7 586.33 L662.81 612.67 L642.48 630.83 L630.5 638.74 L601.46 653.75 L587.21 656.7 L550.92 661.68 L145.64 660.93 L109.77 659.46 L78.59 647.11 L53.88 632.38 L30.35 612.38 L22.79 600.23 L11.15 571.16 L3.19 538.23 L-1.03 519.61 L-1.12 167.41 L1.44 146.29 L6.17 109.85 L15.87 76.59 L22.25 65.38 L32.12 53.91 L53 31.51 L76.66 17.93 L108.46 4.25 L144.42 0.36 L165.88 0.19" stroke="none" stroke-width="0" fill="#fab005"></path><path d="M165.88 0 M165.88 0 C287.7 -0.49, 410.05 -1.13, 528.96 0 M165.88 0 C254.34 -2.24, 342.69 -1.31, 528.96 0 M528.96 0 C639.01 -1.92, 693.66 57.04, 694.84 165.88 M528.96 0 C641.71 1.11, 696.97 57.23, 694.84 165.88 M694.84 165.88 C696.8 268.45, 695.53 370.16, 694.84 497.63 M694.84 165.88 C696.51 287.98, 696.67 409.23, 694.84 497.63 M694.84 497.63 C696.72 609.57, 637.62 663.63, 528.96 663.51 M694.84 497.63 C696.42 609, 637.9 662.6, 528.96 663.51 M528.96 663.51 C455.2 664.78, 382.19 666.6, 165.88 663.51 M528.96 663.51 C398.06 662.12, 266.82 662.7, 165.88 663.51 M165.88 663.51 C54.4 663.49, -0.62 608.45, 0 497.63 M165.88 663.51 C54.36 662.86, -2.28 606.88, 0 497.63 M0 497.63 C-0.56 426.27, 0.45 353.82, 0 165.88 M0 497.63 C-0.73 415.99, -0.33 335.34, 0 165.88 M0 165.88 C-1.07 53.92, 56.99 0.9, 165.88 0 M0 165.88 C-0.19 57.34, 56.03 -1.68, 165.88 0" stroke="#000000" stroke-width="1" fill="none"></path></g><g stroke-linecap="round" transform="translate(51.36296857754496 48.86334912304574) rotate(0 312.44497027061516 291.0389345715678)"><path d="M233.33 8.72 C253.32 -0.75, 279.56 1.79, 302.67 1.09 C325.78 0.4, 349.07 0.39, 372 4.54 C394.92 8.7, 418.92 16.94, 440.24 26.04 C461.56 35.13, 481.4 46.3, 499.93 59.1 C518.46 71.89, 536.56 86.52, 551.41 102.8 C566.27 119.09, 578.38 137.54, 589.06 156.8 C599.74 176.06, 609.38 197.59, 615.47 218.37 C621.57 239.15, 625.04 259.9, 625.63 281.48 C626.23 303.07, 623.68 326.43, 619.03 347.89 C614.38 369.34, 607.17 390.69, 597.75 410.23 C588.33 429.77, 576.35 448.12, 562.51 465.14 C548.67 482.15, 532.4 498.24, 514.71 512.32 C497.01 526.41, 476.8 539.67, 456.35 549.66 C435.89 559.64, 414.27 566.94, 392 572.22 C369.73 577.51, 346.07 580.79, 322.74 581.36 C299.4 581.92, 274.87 579.55, 252 575.63 C229.13 571.7, 206.65 566.45, 185.51 557.81 C164.36 549.18, 143.58 536.86, 125.13 523.81 C106.68 510.77, 89.93 495.88, 74.81 479.54 C59.69 463.21, 45.27 444.88, 34.43 425.79 C23.59 406.7, 15.43 385.95, 9.78 365.03 C4.13 344.1, 1.13 321.8, 0.53 300.24 C-0.07 278.67, 1.91 256.77, 6.19 235.66 C10.46 214.56, 16.89 193.36, 26.17 173.62 C35.45 153.88, 47.78 134.63, 61.88 117.24 C75.99 99.85, 93.01 83.34, 110.81 69.28 C128.61 55.23, 143.04 44.03, 168.68 32.9 C194.32 21.76, 243.4 6.9, 264.63 2.5 C285.86 -1.9, 295.19 1.44, 296.04 6.5 M353.98 1.64 C376.3 -0.36, 397.94 9.36, 419.43 16.97 C440.92 24.58, 463.28 35.22, 482.91 47.27 C502.55 59.33, 520.96 73.61, 537.23 89.3 C553.5 104.99, 568.59 122.83, 580.53 141.42 C592.48 160.02, 601.68 180.45, 608.88 200.86 C616.08 221.27, 621.64 242.52, 623.74 263.88 C625.83 285.24, 624.29 307.78, 621.45 329.04 C618.61 350.31, 614.79 371.46, 606.7 391.47 C598.61 411.48, 585.6 431.02, 572.92 449.09 C560.23 467.16, 547.31 484.88, 530.61 499.89 C513.91 514.9, 492.51 527.69, 472.73 539.17 C452.95 550.65, 433.58 561.58, 411.94 568.75 C390.3 575.91, 365.96 580.31, 342.89 582.15 C319.81 583.99, 296.44 582.97, 273.47 579.8 C250.49 576.63, 226.84 570.65, 205.04 563.11 C183.23 555.58, 162.27 546.47, 142.65 534.61 C123.02 522.75, 103.37 507.23, 87.29 491.96 C71.2 476.7, 58.04 461.38, 46.13 443.01 C34.21 424.64, 23.21 402.54, 15.8 381.76 C8.39 360.99, 4.1 339.48, 1.67 318.35 C-0.76 297.22, -1.9 276.55, 1.21 254.97 C4.32 233.38, 12.07 209.15, 20.34 188.83 C28.61 168.52, 38.26 151.1, 50.84 133.08 C63.41 115.06, 79.25 96.13, 95.8 80.71 C112.35 65.29, 130.42 51.31, 150.12 40.56 C169.83 29.82, 191.95 22.98, 214.02 16.24 C236.09 9.5, 259.35 2.26, 282.55 0.12 C305.75 -2.02, 341.52 2.2, 353.23 3.4 C364.93 4.61, 353.65 2.51, 352.8 7.33" stroke="#000000" stroke-width="1" fill="none"></path></g><g transform="translate(330.8886966976934 67.18427190799866) rotate(0 46 58)"><text x="0" y="81" font-family="Virgil, Segoe UI Emoji" font-size="91.69629316181803px" fill="#000000" text-anchor="start" style="white-space: pre;" direction="ltr">12</text></g><g transform="translate(471.4457587949764 96.25725027373664) rotate(0 13.5 58)"><text x="0" y="81" font-family="Virgil, Segoe UI Emoji" font-size="91.69629316181803px" fill="#000000" text-anchor="start" style="white-space: pre;" direction="ltr">1</text></g><g stroke-linecap="round"><g transform="translate(363.8681480419327 349.16465189004157) rotate(0 50.69242802253939 -78.98312894574019)"><path d="M-1.29 -0.99 C17.09 -27.83, 38.34 -55.7, 43.87 -67.2 M0.63 -0.04 C16.99 -27.22, 36.08 -53.12, 46.64 -69.48 M47.4 -68.52 C61.29 -95.24, 77.8 -122.88, 102.58 -156.36 M45.68 -69.61 C59.17 -89.91, 73.24 -113.41, 102.67 -157.92" stroke="#000000" stroke-width="1" fill="none"></path></g></g><g stroke-linecap="round"><g transform="translate(364.57070721479613 347.2778383719278) rotate(0 -48.284314926964726 0.5826148481658038)"><path d="M-0.77 -0.59 C-16.94 -0.58, -81.78 -0.07, -97.59 -0.07 M1.02 1.71 C-14.7 1.9, -79.15 1.45, -95.29 1.21" stroke="#000000" stroke-width="1" fill="none"></path></g></g><g transform="translate(530.6001871287044 167.7777151667633) rotate(0 33.5 58)"><text x="0" y="81" font-family="Virgil, Segoe UI Emoji" font-size="91.6962931618179px" fill="#000000" text-anchor="start" style="white-space: pre;" direction="ltr">2</text></g><g transform="translate(592.9740491183802 273.92308242571835) rotate(0 32 58)"><text x="0" y="81" font-family="Virgil, Segoe UI Emoji" font-size="91.6962931618179px" fill="#000000" text-anchor="start" style="white-space: pre;" direction="ltr">3</text></g><g transform="translate(550.3432041181331 388.9592035551141) rotate(0 30.5 58)"><text x="0" y="81" font-family="Virgil, Segoe UI Emoji" font-size="91.696293161818px" fill="#000000" text-anchor="start" style="white-space: pre;" direction="ltr">4</text></g><g transform="translate(463.02406148329464 467.63278097497187) rotate(0 29.5 58)"><text x="0" y="81" font-family="Virgil, Segoe UI Emoji" font-size="91.696293161818px" fill="#000000" text-anchor="start" style="white-space: pre;" direction="ltr">5</text></g><g transform="translate(344.19284637482633 529.4416430183992) rotate(0 30.5 58)"><text x="0" y="81" font-family="Virgil, Segoe UI Emoji" font-size="91.696293161818px" fill="#000000" text-anchor="start" style="white-space: pre;" direction="ltr">6</text></g><g transform="translate(231.5766306752157 490.8830617814383) rotate(0 25.5 58)"><text x="0" y="81" font-family="Virgil, Segoe UI Emoji" font-size="91.69629316181809px" fill="#000000" text-anchor="start" style="white-space: pre;" direction="ltr">7</text></g><g transform="translate(131.0173006209734 394.77976903915715) rotate(0 36 58)"><text x="0" y="81" font-family="Virgil, Segoe UI Emoji" font-size="91.69629316181805px" fill="#000000" text-anchor="start" style="white-space: pre;" direction="ltr">8</text></g><g transform="translate(85.25230497539087 287.54704339305135) rotate(0 29 58)"><text x="0" y="81" font-family="Virgil, Segoe UI Emoji" font-size="91.696293161818px" fill="#000000" text-anchor="start" style="white-space: pre;" direction="ltr">9</text></g><g transform="translate(120.7513582020074 168.92903581154678) rotate(0 45 58)"><text x="0" y="81" font-family="Virgil, Segoe UI Emoji" font-size="91.69629316181796px" fill="#000000" text-anchor="start" style="white-space: pre;" direction="ltr">10</text></g><g transform="translate(229.0074799766844 88.41121328483678) rotate(0 26 58)"><text x="0" y="81" font-family="Virgil, Segoe UI Emoji" font-size="91.69629316181809px" fill="#000000" text-anchor="start" style="white-space: pre;" direction="ltr">11</text></g><g stroke-linecap="round" transform="translate(135.2313398613078 657.8656152644571) rotate(0 246.4789929323142 62.78924541430456)"><path d="M-2.57 2.38 L492.43 -1.37 L489.34 128.29 L3.54 125.49" stroke="none" stroke-width="0" fill="#fd7e14"></path><path d="M-0.07 -1.15 C151.74 -1.52, 304.94 -1.11, 491.58 0.05 M0.05 -0.38 C178.3 -3.93, 356.2 -3.09, 493.73 -0.4 M489.1 0.54 C495.05 49.77, 491.07 101.61, 494.2 122.78 M493.74 0.96 C492.88 47.88, 490.61 94.22, 491.84 127.11 M493.24 125.3 C323.99 125.38, 158.48 126.57, 1.17 126 M492.53 124.93 C350.48 128.97, 209.14 129.17, 0.3 125.99 M0.7 126.97 C-1.94 80.67, 3.33 32.09, -3.28 -2.52 M-1.18 127.32 C2.55 80.43, 2.53 35.02, 0.19 1.02" stroke="#000000" stroke-width="1" fill="none"></path></g><g transform="translate(218.26544147107415 683.0309784093806) rotate(0 159 42)"><text x="0" y="59" font-family="Virgil, Segoe UI Emoji" font-size="65.87739840801082px" fill="#fff" text-anchor="start" style="white-space: pre;" direction="ltr">5 Minutes</text></g></svg>
