<svg version="1.1" xmlns="http://www.w3.org/2000/svg" viewBox="0 0 308.53347017170154 284.71753878031893" width="617.0669403434031" height="569.4350775606379">
  <!-- svg-source:excalidraw -->
  
  <defs>
    <style class="style-fonts">
      @font-face {
        font-family: "Virgil";
        src: url("https://excalidraw.com/Virgil.woff2");
      }
      @font-face {
        font-family: "Cascadia";
        src: url("https://excalidraw.com/Cascadia.woff2");
      }
    </style>
  </defs>
  <g stroke-linecap="round" transform="translate(10 10) rotate(0 101.39388801551627 98.5490044673698)"><path d="M-1.85 0.54 L204.87 3.93 L204.39 201 L-1.84 197.82" stroke="none" stroke-width="0" fill="#be4bdb"></path><path d="M2.77 0.25 C57.13 -2.65, 122.95 1.92, 201.94 0.83 M0.41 1.33 C41.75 3.34, 85.14 2.3, 203.99 0.11 M206.18 2.88 C200.48 55.76, 204.43 108.73, 205.93 198.91 M200.84 -1.17 C205.55 42.67, 205.04 83.04, 201.38 196.43 M200.28 198.53 C125.97 194.3, 48.17 199.92, 0.89 195.65 M201.46 198.86 C152.61 194.77, 98.42 196.22, -0.23 197.52 M-1.93 194.26 C-3.42 125.1, 3.26 58.48, 3.76 -3.04 M-0.65 197.32 C-4.27 141.07, -2 88.33, -1.47 -0.48" stroke="#000000" stroke-width="1" fill="none"></path></g><g stroke-linecap="round" transform="translate(46.119023650460804 33.9735842467868) rotate(0 101.39388801551627 98.5490044673698)"><path d="M0.54 2.08 L206.72 1.6 L206.69 195.26 L0.72 199.47" stroke="none" stroke-width="0" fill="#fab005"></path><path d="M0.25 -2.72 C67.07 0.44, 141.5 -3.66, 203.62 -3.13 M1.33 -1.37 C62.88 -1.92, 124.82 0.37, 202.9 -0.26 M205.67 -1.87 C204.77 59.03, 201.42 117.05, 204.6 193.51 M201.62 -0.23 C205.78 73.37, 204.71 146.82, 202.12 198.63 M204.22 196.68 C129.67 192.74, 64.45 195.45, -1.45 195.42 M204.55 198.22 C136.95 192.65, 72.7 194.18, 0.42 198 M-2.84 193.48 C-3.67 142.04, -1.18 84.62, -3.04 -0.93 M0.22 196.05 C0.33 123.08, 2.14 45.16, -0.48 -0.93" stroke="#000000" stroke-width="1" fill="none"></path></g><g stroke-linecap="round" transform="translate(95.745694140669 77.61952984557934) rotate(0 101.39388801551627 98.5490044673698)"><path d="M2.08 3.93 L204.39 3.9 L200.95 197.82 L2.37 194.95" stroke="none" stroke-width="0" fill="#82c91e"></path><path d="M-2.72 -2.8 C63.25 1.52, 119.16 0.58, 199.66 0.38 M-1.37 -0.1 C40.52 -3.84, 84.42 -2.58, 202.53 -0.2 M200.92 -0.57 C208.21 67.95, 209.28 145.53, 199.2 200.14 M202.56 1.23 C198.2 68.13, 197.54 135.29, 204.32 198.09 M202.37 194.83 C143.09 201.9, 87.91 197.1, -1.68 197.96 M203.91 196.96 C152.45 201.99, 105.39 201.1, 0.91 197.01 M-3.62 194.21 C4.97 133.67, 5.66 68, -0.93 3.27 M-1.05 195.63 C2.51 147.31, -0.18 96.35, -0.93 0.27" stroke="#000000" stroke-width="1" fill="none"></path></g><g stroke-linecap="round" transform="translate(144.21453993769592 222.840782995548) rotate(0 24.5 25.5)"><path d="M35.05 3.75 C39.6 5.92, 44.22 11.42, 46.46 16.2 C48.7 20.98, 50.06 27.47, 48.5 32.44 C46.93 37.42, 41.5 43.01, 37.07 46.06 C32.65 49.11, 26.98 51.19, 21.95 50.75 C16.92 50.31, 10.63 47.52, 6.91 43.43 C3.19 39.33, -0.02 31.65, -0.39 26.17 C-0.76 20.7, 1.33 14.72, 4.7 10.57 C8.07 6.41, 14.17 2.22, 19.84 1.24 C25.51 0.26, 34.88 3.32, 38.72 4.67 C42.55 6.01, 42.94 8.78, 42.86 9.31 M22.04 1.63 C26.96 0.52, 32.84 1.66, 37.3 4.5 C41.76 7.35, 47.21 13.75, 48.77 18.68 C50.34 23.6, 49.01 29.34, 46.68 34.04 C44.35 38.75, 39.24 44.35, 34.8 46.9 C30.36 49.46, 25.16 50.47, 20.03 49.39 C14.91 48.31, 7.5 44.68, 4.05 40.42 C0.6 36.15, -0.85 29.14, -0.67 23.82 C-0.49 18.49, 1.68 12.56, 5.15 8.46 C8.62 4.35, 17.43 0.38, 20.14 -0.81 C22.84 -1.99, 21.14 0.84, 21.4 1.34" stroke="none" stroke-width="0" fill="#fab005"></path><path d="M33.05 1.64 C37.75 3.54, 43.95 9.59, 46.62 14.3 C49.3 19.02, 50.21 24.64, 49.1 29.93 C47.98 35.23, 44.25 42.53, 39.93 46.08 C35.6 49.64, 28.49 51.56, 23.15 51.27 C17.82 50.97, 11.72 48.08, 7.92 44.29 C4.12 40.5, 0.91 33.81, 0.35 28.54 C-0.2 23.27, 1.9 17.04, 4.58 12.65 C7.26 8.26, 11.15 3.84, 16.42 2.22 C21.68 0.61, 32.71 2.67, 36.17 2.97 C39.63 3.27, 37.61 3.56, 37.17 4.03 M31.17 0.05 C36.23 0.85, 43.67 5.58, 46.57 10.51 C49.47 15.45, 49.3 24.01, 48.57 29.66 C47.85 35.31, 46.25 40.77, 42.22 44.41 C38.19 48.04, 29.64 51.14, 24.42 51.49 C19.19 51.83, 14.96 50, 10.85 46.46 C6.74 42.92, 1.05 35.56, -0.25 30.25 C-1.56 24.95, 0.56 19.16, 3 14.62 C5.43 10.08, 9.43 5.04, 14.37 3 C19.3 0.95, 29.51 2.76, 32.61 2.34 C35.71 1.92, 33.26 0.16, 32.97 0.47" stroke="#000000" stroke-width="1" fill="none"></path></g><g stroke-linecap="round"><g transform="translate(155.99894990859775 237.81288213145297) rotate(0 4.390138408304438 2.0905420991925894)"><path d="M0 0 C1.46 0.7, 7.32 3.48, 8.78 4.18 M0 0 C1.46 0.7, 7.32 3.48, 8.78 4.18" stroke="#000000" stroke-width="1" fill="none"></path></g></g><g stroke-linecap="round"><g transform="translate(181.81704185125682 237.396215464786) rotate(0 -4.390138408304438 2.0905420991925894)"><path d="M0 0 C-1.46 0.7, -7.32 3.48, -8.78 4.18 M0 0 C-1.46 0.7, -7.32 3.48, -8.78 4.18" stroke="#000000" stroke-width="1" fill="none"></path></g></g><g stroke-linecap="round"><g transform="translate(165.3645785129802 242.16120969777364) rotate(0 -4.390138408304438 2.0905420991925894)"><path d="M0 0 C-1.46 0.7, -7.32 3.48, -8.78 4.18 M0 0 C-1.46 0.7, -7.32 3.48, -8.78 4.18" stroke="#000000" stroke-width="1" fill="none"></path></g></g><g stroke-linecap="round"><g transform="translate(171.62211682242196 241.74454303110667) rotate(0 4.390138408304438 2.0905420991925894)"><path d="M0 0 C1.46 0.7, 7.32 3.48, 8.78 4.18 M0 0 C1.46 0.7, 7.32 3.48, 8.78 4.18" stroke="#000000" stroke-width="1" fill="none"></path></g></g><g stroke-linecap="round"><g transform="translate(183.68821938532938 253.91087786638866) rotate(0 -14.463321521049465 4.881693481068169)" fill-rule="evenodd"><path d="M0 0 L-11.09 2.42 L-18.07 2.5 L-28.9 0.28 L-23.28 5.49 L-18.7 8.47 L-14.5 9.76 L-10.54 8.45 L0 0" stroke="none" stroke-width="0" fill="#fab005" fill-rule="evenodd"></path><path d="M0 0 C-1.85 0.4, -8.08 2, -11.09 2.42 C-14.11 2.83, -15.11 2.86, -18.07 2.5 C-21.04 2.15, -29.49 -0.93, -28.9 0.28 C-28.3 1.49, -19.31 9.81, -14.5 9.76 C-9.68 9.72, -2.42 1.63, 0 0 M0 0 C-1.85 0.4, -8.08 2, -11.09 2.42 C-14.11 2.83, -15.11 2.86, -18.07 2.5 C-21.04 2.15, -29.49 -0.93, -28.9 0.28 C-28.3 1.49, -19.31 9.81, -14.5 9.76 C-9.68 9.72, -2.42 1.63, 0 0" stroke="#000000" stroke-width="1" fill="none"></path></g></g><g stroke-linecap="round" transform="translate(222.7383809560106 211.10106688626547) rotate(0 24.5 25.500000000000057)"><path d="M23.98 -0.7 C29.03 -1.35, 35.54 2.19, 39.52 5.49 C43.5 8.78, 46.56 13.69, 47.86 19.07 C49.15 24.44, 49.46 32.83, 47.27 37.74 C45.07 42.64, 39.5 46.48, 34.7 48.51 C29.89 50.54, 23.63 51.33, 18.45 49.92 C13.27 48.51, 6.78 44.51, 3.62 40.05 C0.47 35.59, -1.02 28.7, -0.49 23.16 C0.03 17.63, 2 10.57, 6.77 6.84 C11.55 3.11, 23.87 1.8, 28.16 0.8 C32.45 -0.21, 32.59 0.45, 32.5 0.81 M31.11 2.18 C35.83 3.63, 42.72 8.21, 45.84 12.86 C48.96 17.51, 50.48 24.92, 49.81 30.06 C49.13 35.21, 45.81 40.34, 41.79 43.72 C37.77 47.1, 31.35 49.97, 25.7 50.34 C20.06 50.71, 12.13 49.24, 7.91 45.96 C3.7 42.68, 0.98 36.34, 0.4 30.66 C-0.18 24.99, 1.96 16.79, 4.43 11.93 C6.91 7.07, 10.35 3.28, 15.26 1.5 C20.16 -0.27, 30.87 1.14, 33.85 1.28 C36.84 1.42, 33.7 1.78, 33.17 2.35" stroke="none" stroke-width="0" fill="#fab005"></path><path d="M34.79 2.92 C39.45 5.02, 45.29 10.51, 47.66 15.5 C50.02 20.48, 50.64 27.57, 48.99 32.83 C47.33 38.1, 42.08 44.04, 37.72 47.09 C33.36 50.15, 28.07 51.65, 22.82 51.15 C17.58 50.65, 10.14 48.02, 6.25 44.1 C2.36 40.19, -0.35 33.19, -0.5 27.66 C-0.64 22.13, 2.21 15.48, 5.4 10.93 C8.58 6.37, 13.02 1.44, 18.62 0.32 C24.21 -0.8, 35.33 3.11, 38.98 4.22 C42.62 5.32, 40.82 6.74, 40.48 6.95 M29.85 1.62 C34.9 2.58, 40.86 6.78, 43.85 10.75 C46.84 14.73, 48.02 20.2, 47.79 25.46 C47.57 30.72, 45.64 38.07, 42.49 42.3 C39.33 46.52, 34 49.91, 28.86 50.83 C23.73 51.74, 16.52 50.77, 11.69 47.79 C6.86 44.82, 1.49 38.27, -0.12 32.98 C-1.72 27.68, -0.12 21.26, 2.05 16 C4.22 10.75, 8.16 3.84, 12.9 1.44 C17.65 -0.96, 27.62 1.69, 30.52 1.61 C33.42 1.53, 30.71 0.82, 30.3 0.97" stroke="#000000" stroke-width="1" fill="none"></path></g><g stroke-linecap="round" transform="translate(236.54470506668258 227.78090878349883) rotate(0 2.5691699604742553 2.7667984189723143)"><path d="M5.14 2.77 C5.14 2.93, 5.13 3.09, 5.1 3.25 C5.07 3.4, 5.03 3.56, 4.98 3.71 C4.93 3.86, 4.87 4.01, 4.79 4.15 C4.72 4.29, 4.63 4.42, 4.54 4.55 C4.44 4.67, 4.33 4.78, 4.22 4.89 C4.11 4.99, 3.98 5.08, 3.85 5.16 C3.72 5.24, 3.59 5.31, 3.45 5.37 C3.31 5.42, 3.16 5.46, 3.02 5.49 C2.87 5.52, 2.72 5.53, 2.57 5.53 C2.42 5.53, 2.27 5.52, 2.12 5.49 C1.98 5.46, 1.83 5.42, 1.69 5.37 C1.55 5.31, 1.41 5.24, 1.28 5.16 C1.16 5.08, 1.03 4.99, 0.92 4.89 C0.8 4.78, 0.7 4.67, 0.6 4.55 C0.51 4.42, 0.42 4.29, 0.34 4.15 C0.27 4.01, 0.21 3.86, 0.15 3.71 C0.1 3.56, 0.06 3.4, 0.04 3.25 C0.01 3.09, 0 2.93, 0 2.77 C0 2.61, 0.01 2.44, 0.04 2.29 C0.06 2.13, 0.1 1.97, 0.15 1.82 C0.21 1.67, 0.27 1.52, 0.34 1.38 C0.42 1.24, 0.51 1.11, 0.6 0.99 C0.7 0.87, 0.8 0.75, 0.92 0.65 C1.03 0.54, 1.16 0.45, 1.28 0.37 C1.41 0.29, 1.55 0.22, 1.69 0.17 C1.83 0.11, 1.98 0.07, 2.12 0.04 C2.27 0.01, 2.42 0, 2.57 0 C2.72 0, 2.87 0.01, 3.02 0.04 C3.16 0.07, 3.31 0.11, 3.45 0.17 C3.59 0.22, 3.72 0.29, 3.85 0.37 C3.98 0.45, 4.11 0.54, 4.22 0.65 C4.33 0.75, 4.44 0.87, 4.54 0.99 C4.63 1.11, 4.72 1.24, 4.79 1.38 C4.87 1.52, 4.93 1.67, 4.98 1.82 C5.03 1.97, 5.07 2.13, 5.1 2.29 C5.13 2.44, 5.13 2.69, 5.14 2.77 C5.14 2.85, 5.14 2.69, 5.14 2.77" stroke="none" stroke-width="0" fill="#fab005"></path><path d="M5.14 2.77 C5.14 2.93, 5.13 3.09, 5.1 3.25 C5.07 3.4, 5.03 3.56, 4.98 3.71 C4.93 3.86, 4.87 4.01, 4.79 4.15 C4.72 4.29, 4.63 4.42, 4.54 4.55 C4.44 4.67, 4.33 4.78, 4.22 4.89 C4.11 4.99, 3.98 5.08, 3.85 5.16 C3.72 5.24, 3.59 5.31, 3.45 5.37 C3.31 5.42, 3.16 5.46, 3.02 5.49 C2.87 5.52, 2.72 5.53, 2.57 5.53 C2.42 5.53, 2.27 5.52, 2.12 5.49 C1.98 5.46, 1.83 5.42, 1.69 5.37 C1.55 5.31, 1.41 5.24, 1.28 5.16 C1.16 5.08, 1.03 4.99, 0.92 4.89 C0.8 4.78, 0.7 4.67, 0.6 4.55 C0.51 4.42, 0.42 4.29, 0.34 4.15 C0.27 4.01, 0.21 3.86, 0.15 3.71 C0.1 3.56, 0.06 3.4, 0.04 3.25 C0.01 3.09, 0 2.93, 0 2.77 C0 2.61, 0.01 2.44, 0.04 2.29 C0.06 2.13, 0.1 1.97, 0.15 1.82 C0.21 1.67, 0.27 1.52, 0.34 1.38 C0.42 1.24, 0.51 1.11, 0.6 0.99 C0.7 0.87, 0.8 0.75, 0.92 0.65 C1.03 0.54, 1.16 0.45, 1.28 0.37 C1.41 0.29, 1.55 0.22, 1.69 0.17 C1.83 0.11, 1.98 0.07, 2.12 0.04 C2.27 0.01, 2.42 0, 2.57 0 C2.72 0, 2.87 0.01, 3.02 0.04 C3.16 0.07, 3.31 0.11, 3.45 0.17 C3.59 0.22, 3.72 0.29, 3.85 0.37 C3.98 0.45, 4.11 0.54, 4.22 0.65 C4.33 0.75, 4.44 0.87, 4.54 0.99 C4.63 1.11, 4.72 1.24, 4.79 1.38 C4.87 1.52, 4.93 1.67, 4.98 1.82 C5.03 1.97, 5.07 2.13, 5.1 2.29 C5.13 2.44, 5.13 2.69, 5.14 2.77 C5.14 2.85, 5.14 2.69, 5.14 2.77" stroke="#000000" stroke-width="1" fill="none"></path></g><g stroke-linecap="round" transform="translate(251.6830449876311 227.89948585859736) rotate(0 2.5691699604742553 2.7667984189723143)"><path d="M5.14 2.77 C5.14 2.93, 5.13 3.09, 5.1 3.25 C5.07 3.4, 5.03 3.56, 4.98 3.71 C4.93 3.86, 4.87 4.01, 4.79 4.15 C4.72 4.29, 4.63 4.42, 4.54 4.55 C4.44 4.67, 4.33 4.78, 4.22 4.89 C4.11 4.99, 3.98 5.08, 3.85 5.16 C3.72 5.24, 3.59 5.31, 3.45 5.37 C3.31 5.42, 3.16 5.46, 3.02 5.49 C2.87 5.52, 2.72 5.53, 2.57 5.53 C2.42 5.53, 2.27 5.52, 2.12 5.49 C1.98 5.46, 1.83 5.42, 1.69 5.37 C1.55 5.31, 1.41 5.24, 1.28 5.16 C1.16 5.08, 1.03 4.99, 0.92 4.89 C0.8 4.78, 0.7 4.67, 0.6 4.55 C0.51 4.42, 0.42 4.29, 0.34 4.15 C0.27 4.01, 0.21 3.86, 0.15 3.71 C0.1 3.56, 0.06 3.4, 0.04 3.25 C0.01 3.09, 0 2.93, 0 2.77 C0 2.61, 0.01 2.44, 0.04 2.29 C0.06 2.13, 0.1 1.97, 0.15 1.82 C0.21 1.67, 0.27 1.52, 0.34 1.38 C0.42 1.24, 0.51 1.11, 0.6 0.99 C0.7 0.87, 0.8 0.75, 0.92 0.65 C1.03 0.54, 1.16 0.45, 1.28 0.37 C1.41 0.29, 1.55 0.22, 1.69 0.17 C1.83 0.11, 1.98 0.07, 2.12 0.04 C2.27 0.01, 2.42 0, 2.57 0 C2.72 0, 2.87 0.01, 3.02 0.04 C3.16 0.07, 3.31 0.11, 3.45 0.17 C3.59 0.22, 3.72 0.29, 3.85 0.37 C3.98 0.45, 4.11 0.54, 4.22 0.65 C4.33 0.75, 4.44 0.87, 4.54 0.99 C4.63 1.11, 4.72 1.24, 4.79 1.38 C4.87 1.52, 4.93 1.67, 4.98 1.82 C5.03 1.97, 5.07 2.13, 5.1 2.29 C5.13 2.44, 5.13 2.69, 5.14 2.77 C5.14 2.85, 5.14 2.69, 5.14 2.77" stroke="none" stroke-width="0" fill="#fab005"></path><path d="M5.14 2.77 C5.14 2.93, 5.13 3.09, 5.1 3.25 C5.07 3.4, 5.03 3.56, 4.98 3.71 C4.93 3.86, 4.87 4.01, 4.79 4.15 C4.72 4.29, 4.63 4.42, 4.54 4.55 C4.44 4.67, 4.33 4.78, 4.22 4.89 C4.11 4.99, 3.98 5.08, 3.85 5.16 C3.72 5.24, 3.59 5.31, 3.45 5.37 C3.31 5.42, 3.16 5.46, 3.02 5.49 C2.87 5.52, 2.72 5.53, 2.57 5.53 C2.42 5.53, 2.27 5.52, 2.12 5.49 C1.98 5.46, 1.83 5.42, 1.69 5.37 C1.55 5.31, 1.41 5.24, 1.28 5.16 C1.16 5.08, 1.03 4.99, 0.92 4.89 C0.8 4.78, 0.7 4.67, 0.6 4.55 C0.51 4.42, 0.42 4.29, 0.34 4.15 C0.27 4.01, 0.21 3.86, 0.15 3.71 C0.1 3.56, 0.06 3.4, 0.04 3.25 C0.01 3.09, 0 2.93, 0 2.77 C0 2.61, 0.01 2.44, 0.04 2.29 C0.06 2.13, 0.1 1.97, 0.15 1.82 C0.21 1.67, 0.27 1.52, 0.34 1.38 C0.42 1.24, 0.51 1.11, 0.6 0.99 C0.7 0.87, 0.8 0.75, 0.92 0.65 C1.03 0.54, 1.16 0.45, 1.28 0.37 C1.41 0.29, 1.55 0.22, 1.69 0.17 C1.83 0.11, 1.98 0.07, 2.12 0.04 C2.27 0.01, 2.42 0, 2.57 0 C2.72 0, 2.87 0.01, 3.02 0.04 C3.16 0.07, 3.31 0.11, 3.45 0.17 C3.59 0.22, 3.72 0.29, 3.85 0.37 C3.98 0.45, 4.11 0.54, 4.22 0.65 C4.33 0.75, 4.44 0.87, 4.54 0.99 C4.63 1.11, 4.72 1.24, 4.79 1.38 C4.87 1.52, 4.93 1.67, 4.98 1.82 C5.03 1.97, 5.07 2.13, 5.1 2.29 C5.13 2.44, 5.13 2.69, 5.14 2.77 C5.14 2.85, 5.14 2.69, 5.14 2.77" stroke="#000000" stroke-width="1" fill="none"></path></g><g stroke-linecap="round"><g transform="translate(261.2441641979008 243.448284175838) rotate(0 -12.505986556852122 4.366541974008442)" fill-rule="evenodd"><path d="M0 0 L-9.59 1.75 L-15.63 1.73 L-24.99 0.27 L-20.13 4.99 L-16.17 7.64 L-12.54 8.78 L-9.11 7.6 L0 0" stroke="none" stroke-width="0" fill="#fab005" fill-rule="evenodd"></path><path d="M0 0 C-1.6 0.29, -6.99 1.46, -9.59 1.75 C-12.2 2.04, -13.06 1.98, -15.63 1.73 C-18.19 1.49, -25.5 -0.9, -24.99 0.27 C-24.47 1.45, -16.7 8.83, -12.54 8.78 C-8.37 8.74, -2.09 1.46, 0 0 M0 0 C-1.6 0.29, -6.99 1.46, -9.59 1.75 C-12.2 2.04, -13.06 1.98, -15.63 1.73 C-18.19 1.49, -25.5 -0.9, -24.99 0.27 C-24.47 1.45, -16.7 8.83, -12.54 8.78 C-8.37 8.74, -2.09 1.46, 0 0" stroke="#000000" stroke-width="1" fill="none"></path></g></g><g stroke-linecap="round" transform="translate(106.10084855260902 140.9666217063393) rotate(0 24.5 25.5)"><path d="M24.5 0.03 C29.37 -0.34, 35.04 2.08, 38.89 5.39 C42.73 8.7, 46.24 14.42, 47.56 19.89 C48.89 25.37, 49.05 33.2, 46.86 38.22 C44.66 43.25, 39.37 48.1, 34.39 50.05 C29.4 51.99, 22.15 51.77, 16.96 49.88 C11.77 47.99, 5.99 43.31, 3.25 38.71 C0.51 34.11, -0.13 27.77, 0.53 22.27 C1.18 16.77, 2.11 9.3, 7.19 5.7 C12.26 2.1, 26.2 0.99, 30.96 0.67 C35.72 0.35, 35.98 3.22, 35.75 3.79 M15.75 0.28 C20.21 -2.06, 27.74 -0.69, 32.83 1.36 C37.91 3.41, 43.76 7.99, 46.26 12.58 C48.76 17.17, 49.05 23.74, 47.83 28.91 C46.61 34.07, 42.93 40.14, 38.96 43.59 C34.99 47.04, 29.08 49.36, 24.02 49.59 C18.96 49.81, 12.49 48.42, 8.62 44.94 C4.75 41.47, 1.44 33.91, 0.79 28.73 C0.14 23.54, 1.93 18.57, 4.72 13.83 C7.5 9.08, 15.55 2.4, 17.49 0.25 C19.42 -1.89, 16.37 0.21, 16.32 0.97" stroke="none" stroke-width="0" fill="#fab005"></path><path d="M30.57 0.07 C35.42 0.97, 41.07 5.41, 44.06 9.91 C47.05 14.42, 48.91 21.74, 48.53 27.1 C48.14 32.46, 45.25 38.07, 41.75 42.07 C38.25 46.07, 32.71 50.46, 27.52 51.1 C22.33 51.74, 15.06 49.01, 10.63 45.9 C6.2 42.78, 2.34 37.39, 0.95 32.41 C-0.44 27.43, 0.19 20.82, 2.3 16 C4.42 11.19, 8.62 5.79, 13.65 3.52 C18.68 1.25, 28.72 2.38, 32.48 2.39 C36.24 2.4, 36.13 3.26, 36.22 3.58 M29.3 -0.77 C34.48 -0.14, 41.22 5.29, 44.35 9.7 C47.47 14.11, 48.39 20.12, 48.05 25.7 C47.71 31.28, 45.4 38.94, 42.3 43.19 C39.2 47.44, 34.38 50.4, 29.43 51.19 C24.48 51.99, 17.21 50.99, 12.59 47.96 C7.97 44.93, 3.38 38.33, 1.7 33.02 C0.02 27.72, 0.9 20.89, 2.5 16.11 C4.1 11.33, 6.95 7.19, 11.31 4.33 C15.68 1.47, 25.69 -0.55, 28.7 -1.04 C31.71 -1.53, 29.37 0.95, 29.39 1.41" stroke="#000000" stroke-width="1" fill="none"></path></g><g stroke-linecap="round" transform="translate(128.4288874850797 158.60239481039252) rotate(0 3.068176319781628 0.5844145371012814)"><path d="M0.29 0 L5.84 0 L6.14 0.88 L0.29 1.17 L0.29 0" stroke="none" stroke-width="0" fill="#000000"></path><path d="M0.29 0 M0.29 0 C1.72 0, 3.15 0, 5.84 0 M0.29 0 C1.47 0, 2.65 0, 5.84 0 M5.84 0 C6.04 0, 6.14 0.1, 6.14 0.29 M5.84 0 C6.04 0, 6.14 0.1, 6.14 0.29 M6.14 0.29 C6.14 0.48, 6.14 0.66, 6.14 0.88 M6.14 0.29 C6.14 0.43, 6.14 0.57, 6.14 0.88 M6.14 0.88 C6.14 1.07, 6.04 1.17, 5.84 1.17 M6.14 0.88 C6.14 1.07, 6.04 1.17, 5.84 1.17 M5.84 1.17 C3.99 1.17, 2.14 1.17, 0.29 1.17 M5.84 1.17 C4.61 1.17, 3.37 1.17, 0.29 1.17 M0.29 1.17 C0.1 1.17, 0 1.07, 0 0.88 M0.29 1.17 C0.1 1.17, 0 1.07, 0 0.88 M0 0.88 C0 0.68, 0 0.49, 0 0.29 M0 0.88 C0 0.69, 0 0.51, 0 0.29 M0 0.29 C0 0.1, 0.1 0, 0.29 0 M0 0.29 C0 0.1, 0.1 0, 0.29 0" stroke="#000000" stroke-width="4" fill="none"></path></g><g stroke-linecap="round"><g transform="translate(113.38161745103321 156.08039550580224) rotate(0 6.0442116159628085 6.181290646996217)" fill-rule="evenodd"><path d="M0 0 L11.44 -0.16 L14.42 0.47 L16.05 4.04 L15.07 8.1 L12.46 10.96 L8.6 12.56 L3.71 12.07 L-0.78 10.11 L-3.2 6.5 L-3.95 2.84 L0 0" stroke="none" stroke-width="0" fill="#000000" fill-rule="evenodd"></path><path d="M0 0 C2.4 0.08, 11.9 -0.88, 14.42 0.47 C16.93 1.82, 16.04 6.09, 15.07 8.1 C14.1 10.12, 11.24 12.23, 8.6 12.56 C5.96 12.89, 1.32 11.73, -0.78 10.11 C-2.87 8.49, -4.08 4.53, -3.95 2.84 C-3.82 1.16, -0.66 0.47, 0 0 M0 0 C2.4 0.08, 11.9 -0.88, 14.42 0.47 C16.93 1.82, 16.04 6.09, 15.07 8.1 C14.1 10.12, 11.24 12.23, 8.6 12.56 C5.96 12.89, 1.32 11.73, -0.78 10.11 C-2.87 8.49, -4.08 4.53, -3.95 2.84 C-3.82 1.16, -0.66 0.47, 0 0" stroke="#000000" stroke-width="1" fill="none"></path></g></g><g stroke-linecap="round"><g transform="translate(136.43677093967926 156.05117477894782) rotate(0 6.044211615962695 6.181290646996217)" fill-rule="evenodd"><path d="M0 0 L11.44 -0.16 L14.42 0.47 L16.05 4.04 L15.07 8.1 L12.46 10.96 L8.6 12.56 L3.71 12.07 L-0.78 10.11 L-3.2 6.5 L-3.95 2.84 L0 0" stroke="none" stroke-width="0" fill="#000000" fill-rule="evenodd"></path><path d="M0 0 C2.4 0.08, 11.9 -0.88, 14.42 0.47 C16.93 1.82, 16.04 6.09, 15.07 8.1 C14.1 10.12, 11.24 12.23, 8.6 12.56 C5.96 12.89, 1.32 11.73, -0.78 10.11 C-2.87 8.49, -4.08 4.53, -3.95 2.84 C-3.82 1.16, -0.66 0.47, 0 0 M0 0 C2.4 0.08, 11.9 -0.88, 14.42 0.47 C16.93 1.82, 16.04 6.09, 15.07 8.1 C14.1 10.12, 11.24 12.23, 8.6 12.56 C5.96 12.89, 1.32 11.73, -0.78 10.11 C-2.87 8.49, -4.08 4.53, -3.95 2.84 C-3.82 1.16, -0.66 0.47, 0 0" stroke="#000000" stroke-width="1" fill="none"></path></g></g><g stroke-linecap="round"><g transform="translate(144.05553546979763 181.63577506200056) rotate(176.8197862031195 -13.31076230662768 -2.761673479523722)" fill-rule="evenodd"><path d="M0 0 L-13.15 -5.42 L-16.12 -4.98 L-26.6 -0.17 L-21.46 -2.89 L-13.35 -5.52 L-5.85 -3.1 L0 0" stroke="none" stroke-width="0" fill="#0000" fill-rule="evenodd"></path><path d="M0 0 C-1.7 -0.78, -7.53 -3.84, -10.21 -4.67 C-12.9 -5.5, -13.39 -5.73, -16.12 -4.98 C-18.85 -4.23, -27.07 -0.08, -26.6 -0.17 C-26.14 -0.26, -17.78 -5.55, -13.35 -5.52 C-8.91 -5.49, -2.22 -0.92, 0 0 M0 0 C-1.7 -0.78, -7.53 -3.84, -10.21 -4.67 C-12.9 -5.5, -13.39 -5.73, -16.12 -4.98 C-18.85 -4.23, -27.07 -0.08, -26.6 -0.17 C-26.14 -0.26, -17.78 -5.55, -13.35 -5.52 C-8.91 -5.49, -2.22 -0.92, 0 0" stroke="#000000" stroke-width="1" fill="none"></path></g></g><g stroke-linecap="round" transform="translate(170.3595063311409 95.91381122138318) rotate(0 24.5 25.5)"><path d="M35.29 3.34 C39.86 5.72, 45.32 11.39, 47.42 16.49 C49.51 21.58, 49.53 28.8, 47.87 33.91 C46.21 39.01, 41.89 44.22, 37.47 47.13 C33.06 50.04, 26.76 52.12, 21.38 51.38 C16 50.64, 8.63 46.96, 5.21 42.67 C1.78 38.38, 0.77 31.1, 0.84 25.64 C0.91 20.17, 2.36 13.91, 5.61 9.87 C8.86 5.83, 14.63 2.19, 20.35 1.41 C26.07 0.64, 36.47 4.11, 39.93 5.22 C43.38 6.33, 41.52 7.94, 41.07 8.1 M16.98 1.13 C21.68 -0.3, 30.93 -0.29, 36.13 2.13 C41.33 4.56, 46.22 10.71, 48.18 15.69 C50.14 20.67, 49.32 26.64, 47.89 32 C46.46 37.36, 44.04 44.84, 39.58 47.82 C35.13 50.81, 26.75 50.52, 21.16 49.92 C15.57 49.33, 9.52 47.98, 6.04 44.25 C2.57 40.53, 0.4 32.97, 0.31 27.56 C0.22 22.15, 2.43 16.34, 5.5 11.81 C8.57 7.27, 16.77 2.29, 18.73 0.35 C20.69 -1.59, 17.36 -0.21, 17.27 0.15" stroke="none" stroke-width="0" fill="#fab005"></path><path d="M14.48 1.78 C18.98 -0.67, 26.54 -0.71, 31.6 0.98 C36.65 2.66, 41.87 7.19, 44.8 11.89 C47.73 16.6, 49.95 23.87, 49.19 29.19 C48.42 34.51, 44.26 40.21, 40.21 43.81 C36.17 47.41, 30.01 50.46, 24.93 50.78 C19.85 51.1, 13.65 49.12, 9.71 45.73 C5.77 42.34, 2.47 35.59, 1.29 30.44 C0.11 25.29, 0 19.71, 2.64 14.84 C5.28 9.97, 14.46 3.51, 17.13 1.2 C19.79 -1.1, 18.49 0.71, 18.62 0.99 M27.27 0.52 C32.14 0.86, 39.39 4.04, 42.96 8.1 C46.52 12.15, 48.47 19.39, 48.67 24.86 C48.87 30.33, 47.39 36.76, 44.17 40.92 C40.95 45.08, 34.4 48.83, 29.35 49.84 C24.3 50.85, 18.39 49.17, 13.86 46.96 C9.33 44.76, 4.39 41.56, 2.18 36.59 C-0.03 31.63, -1.01 22.5, 0.6 17.18 C2.22 11.86, 7.37 7.66, 11.87 4.68 C16.36 1.7, 24.97 -0.14, 27.55 -0.69 C30.13 -1.24, 27.68 0.91, 27.37 1.36" stroke="#000000" stroke-width="1" fill="none"></path></g><g stroke-linecap="round" transform="translate(184.1658304418129 112.59365311861643) rotate(0 2.5691699604742553 2.7667984189723143)"><path d="M5.14 2.77 C5.14 2.93, 5.13 3.09, 5.1 3.25 C5.07 3.4, 5.03 3.56, 4.98 3.71 C4.93 3.86, 4.87 4.01, 4.79 4.15 C4.72 4.29, 4.63 4.42, 4.54 4.55 C4.44 4.67, 4.33 4.78, 4.22 4.89 C4.11 4.99, 3.98 5.08, 3.85 5.16 C3.72 5.24, 3.59 5.31, 3.45 5.37 C3.31 5.42, 3.16 5.46, 3.02 5.49 C2.87 5.52, 2.72 5.53, 2.57 5.53 C2.42 5.53, 2.27 5.52, 2.12 5.49 C1.98 5.46, 1.83 5.42, 1.69 5.37 C1.55 5.31, 1.41 5.24, 1.28 5.16 C1.16 5.08, 1.03 4.99, 0.92 4.89 C0.8 4.78, 0.7 4.67, 0.6 4.55 C0.51 4.42, 0.42 4.29, 0.34 4.15 C0.27 4.01, 0.21 3.86, 0.15 3.71 C0.1 3.56, 0.06 3.4, 0.04 3.25 C0.01 3.09, 0 2.93, 0 2.77 C0 2.61, 0.01 2.44, 0.04 2.29 C0.06 2.13, 0.1 1.97, 0.15 1.82 C0.21 1.67, 0.27 1.52, 0.34 1.38 C0.42 1.24, 0.51 1.11, 0.6 0.99 C0.7 0.87, 0.8 0.75, 0.92 0.65 C1.03 0.54, 1.16 0.45, 1.28 0.37 C1.41 0.29, 1.55 0.22, 1.69 0.17 C1.83 0.11, 1.98 0.07, 2.12 0.04 C2.27 0.01, 2.42 0, 2.57 0 C2.72 0, 2.87 0.01, 3.02 0.04 C3.16 0.07, 3.31 0.11, 3.45 0.17 C3.59 0.22, 3.72 0.29, 3.85 0.37 C3.98 0.45, 4.11 0.54, 4.22 0.65 C4.33 0.75, 4.44 0.87, 4.54 0.99 C4.63 1.11, 4.72 1.24, 4.79 1.38 C4.87 1.52, 4.93 1.67, 4.98 1.82 C5.03 1.97, 5.07 2.13, 5.1 2.29 C5.13 2.44, 5.13 2.69, 5.14 2.77 C5.14 2.85, 5.14 2.69, 5.14 2.77" stroke="none" stroke-width="0" fill="#fab005"></path><path d="M5.14 2.77 C5.14 2.93, 5.13 3.09, 5.1 3.25 C5.07 3.4, 5.03 3.56, 4.98 3.71 C4.93 3.86, 4.87 4.01, 4.79 4.15 C4.72 4.29, 4.63 4.42, 4.54 4.55 C4.44 4.67, 4.33 4.78, 4.22 4.89 C4.11 4.99, 3.98 5.08, 3.85 5.16 C3.72 5.24, 3.59 5.31, 3.45 5.37 C3.31 5.42, 3.16 5.46, 3.02 5.49 C2.87 5.52, 2.72 5.53, 2.57 5.53 C2.42 5.53, 2.27 5.52, 2.12 5.49 C1.98 5.46, 1.83 5.42, 1.69 5.37 C1.55 5.31, 1.41 5.24, 1.28 5.16 C1.16 5.08, 1.03 4.99, 0.92 4.89 C0.8 4.78, 0.7 4.67, 0.6 4.55 C0.51 4.42, 0.42 4.29, 0.34 4.15 C0.27 4.01, 0.21 3.86, 0.15 3.71 C0.1 3.56, 0.06 3.4, 0.04 3.25 C0.01 3.09, 0 2.93, 0 2.77 C0 2.61, 0.01 2.44, 0.04 2.29 C0.06 2.13, 0.1 1.97, 0.15 1.82 C0.21 1.67, 0.27 1.52, 0.34 1.38 C0.42 1.24, 0.51 1.11, 0.6 0.99 C0.7 0.87, 0.8 0.75, 0.92 0.65 C1.03 0.54, 1.16 0.45, 1.28 0.37 C1.41 0.29, 1.55 0.22, 1.69 0.17 C1.83 0.11, 1.98 0.07, 2.12 0.04 C2.27 0.01, 2.42 0, 2.57 0 C2.72 0, 2.87 0.01, 3.02 0.04 C3.16 0.07, 3.31 0.11, 3.45 0.17 C3.59 0.22, 3.72 0.29, 3.85 0.37 C3.98 0.45, 4.11 0.54, 4.22 0.65 C4.33 0.75, 4.44 0.87, 4.54 0.99 C4.63 1.11, 4.72 1.24, 4.79 1.38 C4.87 1.52, 4.93 1.67, 4.98 1.82 C5.03 1.97, 5.07 2.13, 5.1 2.29 C5.13 2.44, 5.13 2.69, 5.14 2.77 C5.14 2.85, 5.14 2.69, 5.14 2.77" stroke="#000000" stroke-width="1" fill="none"></path></g><g stroke-linecap="round" transform="translate(199.30417036276094 112.71223019371519) rotate(0 2.5691699604742553 2.7667984189723143)"><path d="M5.14 2.77 C5.14 2.93, 5.13 3.09, 5.1 3.25 C5.07 3.4, 5.03 3.56, 4.98 3.71 C4.93 3.86, 4.87 4.01, 4.79 4.15 C4.72 4.29, 4.63 4.42, 4.54 4.55 C4.44 4.67, 4.33 4.78, 4.22 4.89 C4.11 4.99, 3.98 5.08, 3.85 5.16 C3.72 5.24, 3.59 5.31, 3.45 5.37 C3.31 5.42, 3.16 5.46, 3.02 5.49 C2.87 5.52, 2.72 5.53, 2.57 5.53 C2.42 5.53, 2.27 5.52, 2.12 5.49 C1.98 5.46, 1.83 5.42, 1.69 5.37 C1.55 5.31, 1.41 5.24, 1.28 5.16 C1.16 5.08, 1.03 4.99, 0.92 4.89 C0.8 4.78, 0.7 4.67, 0.6 4.55 C0.51 4.42, 0.42 4.29, 0.34 4.15 C0.27 4.01, 0.21 3.86, 0.15 3.71 C0.1 3.56, 0.06 3.4, 0.04 3.25 C0.01 3.09, 0 2.93, 0 2.77 C0 2.61, 0.01 2.44, 0.04 2.29 C0.06 2.13, 0.1 1.97, 0.15 1.82 C0.21 1.67, 0.27 1.52, 0.34 1.38 C0.42 1.24, 0.51 1.11, 0.6 0.99 C0.7 0.87, 0.8 0.75, 0.92 0.65 C1.03 0.54, 1.16 0.45, 1.28 0.37 C1.41 0.29, 1.55 0.22, 1.69 0.17 C1.83 0.11, 1.98 0.07, 2.12 0.04 C2.27 0.01, 2.42 0, 2.57 0 C2.72 0, 2.87 0.01, 3.02 0.04 C3.16 0.07, 3.31 0.11, 3.45 0.17 C3.59 0.22, 3.72 0.29, 3.85 0.37 C3.98 0.45, 4.11 0.54, 4.22 0.65 C4.33 0.75, 4.44 0.87, 4.54 0.99 C4.63 1.11, 4.72 1.24, 4.79 1.38 C4.87 1.52, 4.93 1.67, 4.98 1.82 C5.03 1.97, 5.07 2.13, 5.1 2.29 C5.13 2.44, 5.13 2.69, 5.14 2.77 C5.14 2.85, 5.14 2.69, 5.14 2.77" stroke="none" stroke-width="0" fill="#fab005"></path><path d="M5.14 2.77 C5.14 2.93, 5.13 3.09, 5.1 3.25 C5.07 3.4, 5.03 3.56, 4.98 3.71 C4.93 3.86, 4.87 4.01, 4.79 4.15 C4.72 4.29, 4.63 4.42, 4.54 4.55 C4.44 4.67, 4.33 4.78, 4.22 4.89 C4.11 4.99, 3.98 5.08, 3.85 5.16 C3.72 5.24, 3.59 5.31, 3.45 5.37 C3.31 5.42, 3.16 5.46, 3.02 5.49 C2.87 5.52, 2.72 5.53, 2.57 5.53 C2.42 5.53, 2.27 5.52, 2.12 5.49 C1.98 5.46, 1.83 5.42, 1.69 5.37 C1.55 5.31, 1.41 5.24, 1.28 5.16 C1.16 5.08, 1.03 4.99, 0.92 4.89 C0.8 4.78, 0.7 4.67, 0.6 4.55 C0.51 4.42, 0.42 4.29, 0.34 4.15 C0.27 4.01, 0.21 3.86, 0.15 3.71 C0.1 3.56, 0.06 3.4, 0.04 3.25 C0.01 3.09, 0 2.93, 0 2.77 C0 2.61, 0.01 2.44, 0.04 2.29 C0.06 2.13, 0.1 1.97, 0.15 1.82 C0.21 1.67, 0.27 1.52, 0.34 1.38 C0.42 1.24, 0.51 1.11, 0.6 0.99 C0.7 0.87, 0.8 0.75, 0.92 0.65 C1.03 0.54, 1.16 0.45, 1.28 0.37 C1.41 0.29, 1.55 0.22, 1.69 0.17 C1.83 0.11, 1.98 0.07, 2.12 0.04 C2.27 0.01, 2.42 0, 2.57 0 C2.72 0, 2.87 0.01, 3.02 0.04 C3.16 0.07, 3.31 0.11, 3.45 0.17 C3.59 0.22, 3.72 0.29, 3.85 0.37 C3.98 0.45, 4.11 0.54, 4.22 0.65 C4.33 0.75, 4.44 0.87, 4.54 0.99 C4.63 1.11, 4.72 1.24, 4.79 1.38 C4.87 1.52, 4.93 1.67, 4.98 1.82 C5.03 1.97, 5.07 2.13, 5.1 2.29 C5.13 2.44, 5.13 2.69, 5.14 2.77 C5.14 2.85, 5.14 2.69, 5.14 2.77" stroke="#000000" stroke-width="1" fill="none"></path></g><g stroke-linecap="round"><g transform="translate(208.86528957303062 128.2610285109556) rotate(0 -12.505986556852122 4.366541974008442)" fill-rule="evenodd"><path d="M0 0 L-9.59 1.75 L-15.63 1.73 L-24.99 0.27 L-20.13 4.99 L-16.17 7.64 L-12.54 8.78 L-9.11 7.6 L0 0" stroke="none" stroke-width="0" fill="#fab005" fill-rule="evenodd"></path><path d="M0 0 C-1.6 0.29, -6.99 1.46, -9.59 1.75 C-12.2 2.04, -13.06 1.98, -15.63 1.73 C-18.19 1.49, -25.5 -0.9, -24.99 0.27 C-24.47 1.45, -16.7 8.83, -12.54 8.78 C-8.37 8.74, -2.09 1.46, 0 0 M0 0 C-1.6 0.29, -6.99 1.46, -9.59 1.75 C-12.2 2.04, -13.06 1.98, -15.63 1.73 C-18.19 1.49, -25.5 -0.9, -24.99 0.27 C-24.47 1.45, -16.7 8.83, -12.54 8.78 C-8.37 8.74, -2.09 1.46, 0 0" stroke="#000000" stroke-width="1" fill="none"></path></g></g><g stroke-linecap="round"><g transform="translate(163.62594087470734 94.14504116030866) rotate(346.3873024360953 31.360709340054882 7.685648079805787)"><path d="M0.76 -0.59 C11.43 1.88, 52.63 12.02, 63.02 14.5 M-0.29 1.71 C10.27 4.41, 51.5 13.67, 61.92 15.97" stroke="#000000" stroke-width="1" fill="none"></path></g></g><g stroke-linecap="round" transform="translate(172.94377805332078 86.33966162839874) rotate(357.57617965034245 20.624651672629398 7.114577110279129)"><path d="M-0.47 1.85 L42.27 -0.29 L40.82 15.84 L1.74 12.91" stroke="none" stroke-width="0" fill="#fab005"></path><path d="M-0.46 -0.23 C10.81 -0.34, 22.71 0.96, 42.32 -1.92 M0 -0.1 C11.51 -0.67, 21.62 1.04, 41.68 -0.13 M40.04 0.32 C42.55 4.02, 41.21 9, 41.9 14.37 M41.37 -0.42 C41.12 4.14, 40.69 8.07, 41.69 14.04 M41.63 13.09 C32.05 15.27, 20.66 13.44, -1.47 15.51 M40.4 14.51 C24.94 14.29, 8.45 14.27, 0.11 14.15 M0.31 15.41 C-0.95 9.8, 0.18 5.59, 1.26 1.18 M-0.28 13.57 C-0.31 10.32, -0.64 4.46, 0.15 0.51" stroke="#000000" stroke-width="1" fill="none"></path></g><g stroke-linecap="round" transform="translate(238.38673195814863 133.54297769605773) rotate(0 24.5 25.5)"><path d="M49 25.5 C49 26.98, 48.87 28.47, 48.63 29.93 C48.38 31.38, 48.01 32.83, 47.52 34.22 C47.04 35.61, 46.43 36.97, 45.72 38.25 C45.01 39.53, 44.18 40.76, 43.27 41.89 C42.36 43.02, 41.33 44.09, 40.25 45.03 C39.16 45.98, 37.98 46.85, 36.75 47.58 C35.52 48.32, 34.21 48.96, 32.88 49.46 C31.55 49.97, 30.15 50.36, 28.75 50.61 C27.36 50.87, 25.92 51, 24.5 51 C23.08 51, 21.64 50.87, 20.25 50.61 C18.85 50.36, 17.45 49.97, 16.12 49.46 C14.79 48.96, 13.48 48.32, 12.25 47.58 C11.02 46.85, 9.84 45.98, 8.75 45.03 C7.67 44.09, 6.64 43.02, 5.73 41.89 C4.82 40.76, 3.99 39.53, 3.28 38.25 C2.57 36.97, 1.96 35.61, 1.48 34.22 C0.99 32.83, 0.62 31.38, 0.37 29.93 C0.13 28.47, 0 26.98, 0 25.5 C0 24.02, 0.13 22.53, 0.37 21.07 C0.62 19.62, 0.99 18.17, 1.48 16.78 C1.96 15.39, 2.57 14.03, 3.28 12.75 C3.99 11.47, 4.82 10.24, 5.73 9.11 C6.64 7.98, 7.67 6.91, 8.75 5.97 C9.84 5.02, 11.02 4.15, 12.25 3.42 C13.48 2.68, 14.79 2.04, 16.12 1.54 C17.45 1.03, 18.85 0.64, 20.25 0.39 C21.64 0.13, 23.08 0, 24.5 0 C25.92 0, 27.36 0.13, 28.75 0.39 C30.15 0.64, 31.55 1.03, 32.88 1.54 C34.21 2.04, 35.52 2.68, 36.75 3.42 C37.98 4.15, 39.16 5.02, 40.25 5.97 C41.33 6.91, 42.36 7.98, 43.27 9.11 C44.18 10.24, 45.01 11.47, 45.72 12.75 C46.43 14.03, 47.04 15.39, 47.52 16.78 C48.01 18.17, 48.38 19.62, 48.63 21.07 C48.87 22.53, 48.94 24.76, 49 25.5 C49.06 26.24, 49.06 24.76, 49 25.5" stroke="none" stroke-width="0" fill="#fab005"></path><path d="M49 25.5 C49 26.98, 48.87 28.47, 48.63 29.93 C48.38 31.38, 48.01 32.83, 47.52 34.22 C47.04 35.61, 46.43 36.97, 45.72 38.25 C45.01 39.53, 44.18 40.76, 43.27 41.89 C42.36 43.02, 41.33 44.09, 40.25 45.03 C39.16 45.98, 37.98 46.85, 36.75 47.58 C35.52 48.32, 34.21 48.96, 32.88 49.46 C31.55 49.97, 30.15 50.36, 28.75 50.61 C27.36 50.87, 25.92 51, 24.5 51 C23.08 51, 21.64 50.87, 20.25 50.61 C18.85 50.36, 17.45 49.97, 16.12 49.46 C14.79 48.96, 13.48 48.32, 12.25 47.58 C11.02 46.85, 9.84 45.98, 8.75 45.03 C7.67 44.09, 6.64 43.02, 5.73 41.89 C4.82 40.76, 3.99 39.53, 3.28 38.25 C2.57 36.97, 1.96 35.61, 1.48 34.22 C0.99 32.83, 0.62 31.38, 0.37 29.93 C0.13 28.47, 0 26.98, 0 25.5 C0 24.02, 0.13 22.53, 0.37 21.07 C0.62 19.62, 0.99 18.17, 1.48 16.78 C1.96 15.39, 2.57 14.03, 3.28 12.75 C3.99 11.47, 4.82 10.24, 5.73 9.11 C6.64 7.98, 7.67 6.91, 8.75 5.97 C9.84 5.02, 11.02 4.15, 12.25 3.42 C13.48 2.68, 14.79 2.04, 16.12 1.54 C17.45 1.03, 18.85 0.64, 20.25 0.39 C21.64 0.13, 23.08 0, 24.5 0 C25.92 0, 27.36 0.13, 28.75 0.39 C30.15 0.64, 31.55 1.03, 32.88 1.54 C34.21 2.04, 35.52 2.68, 36.75 3.42 C37.98 4.15, 39.16 5.02, 40.25 5.97 C41.33 6.91, 42.36 7.98, 43.27 9.11 C44.18 10.24, 45.01 11.47, 45.72 12.75 C46.43 14.03, 47.04 15.39, 47.52 16.78 C48.01 18.17, 48.38 19.62, 48.63 21.07 C48.87 22.53, 48.94 24.76, 49 25.5 C49.06 26.24, 49.06 24.76, 49 25.5" stroke="#000000" stroke-width="1" fill="none"></path></g><g stroke-linecap="round" transform="translate(252.19305606882062 150.73302367492352) rotate(0 2.817926179380038 0.5279924488230563)"><path d="M5.64 0.53 C5.64 0.56, 5.62 0.59, 5.59 0.62 C5.56 0.65, 5.52 0.68, 5.47 0.71 C5.41 0.74, 5.34 0.77, 5.26 0.79 C5.18 0.82, 5.08 0.84, 4.98 0.87 C4.87 0.89, 4.75 0.91, 4.63 0.93 C4.5 0.95, 4.37 0.97, 4.23 0.99 C4.09 1, 3.93 1.01, 3.78 1.02 C3.63 1.03, 3.47 1.04, 3.31 1.05 C3.15 1.05, 2.98 1.06, 2.82 1.06 C2.65 1.06, 2.49 1.05, 2.33 1.05 C2.17 1.04, 2.01 1.03, 1.85 1.02 C1.7 1.01, 1.55 1, 1.41 0.99 C1.27 0.97, 1.13 0.95, 1.01 0.93 C0.88 0.91, 0.76 0.89, 0.66 0.87 C0.55 0.84, 0.46 0.82, 0.38 0.79 C0.3 0.77, 0.23 0.74, 0.17 0.71 C0.11 0.68, 0.07 0.65, 0.04 0.62 C0.01 0.59, 0 0.56, 0 0.53 C0 0.5, 0.01 0.47, 0.04 0.44 C0.07 0.41, 0.11 0.38, 0.17 0.35 C0.23 0.32, 0.3 0.29, 0.38 0.26 C0.46 0.24, 0.55 0.21, 0.66 0.19 C0.76 0.17, 0.88 0.14, 1.01 0.12 C1.13 0.1, 1.27 0.09, 1.41 0.07 C1.55 0.06, 1.7 0.04, 1.85 0.03 C2.01 0.02, 2.17 0.01, 2.33 0.01 C2.49 0, 2.65 0, 2.82 0 C2.98 0, 3.15 0, 3.31 0.01 C3.47 0.01, 3.63 0.02, 3.78 0.03 C3.93 0.04, 4.09 0.06, 4.23 0.07 C4.37 0.09, 4.5 0.1, 4.63 0.12 C4.75 0.14, 4.87 0.17, 4.98 0.19 C5.08 0.21, 5.18 0.24, 5.26 0.26 C5.34 0.29, 5.41 0.32, 5.47 0.35 C5.52 0.38, 5.56 0.41, 5.59 0.44 C5.62 0.47, 5.63 0.51, 5.64 0.53 C5.64 0.54, 5.64 0.51, 5.64 0.53" stroke="none" stroke-width="0" fill="#fab005"></path><path d="M5.64 0.53 C5.64 0.56, 5.62 0.59, 5.59 0.62 C5.56 0.65, 5.52 0.68, 5.47 0.71 C5.41 0.74, 5.34 0.77, 5.26 0.79 C5.18 0.82, 5.08 0.84, 4.98 0.87 C4.87 0.89, 4.75 0.91, 4.63 0.93 C4.5 0.95, 4.37 0.97, 4.23 0.99 C4.09 1, 3.93 1.01, 3.78 1.02 C3.63 1.03, 3.47 1.04, 3.31 1.05 C3.15 1.05, 2.98 1.06, 2.82 1.06 C2.65 1.06, 2.49 1.05, 2.33 1.05 C2.17 1.04, 2.01 1.03, 1.85 1.02 C1.7 1.01, 1.55 1, 1.41 0.99 C1.27 0.97, 1.13 0.95, 1.01 0.93 C0.88 0.91, 0.76 0.89, 0.66 0.87 C0.55 0.84, 0.46 0.82, 0.38 0.79 C0.3 0.77, 0.23 0.74, 0.17 0.71 C0.11 0.68, 0.07 0.65, 0.04 0.62 C0.01 0.59, 0 0.56, 0 0.53 C0 0.5, 0.01 0.47, 0.04 0.44 C0.07 0.41, 0.11 0.38, 0.17 0.35 C0.23 0.32, 0.3 0.29, 0.38 0.26 C0.46 0.24, 0.55 0.21, 0.66 0.19 C0.76 0.17, 0.88 0.14, 1.01 0.12 C1.13 0.1, 1.27 0.09, 1.41 0.07 C1.55 0.06, 1.7 0.04, 1.85 0.03 C2.01 0.02, 2.17 0.01, 2.33 0.01 C2.49 0, 2.65 0, 2.82 0 C2.98 0, 3.15 0, 3.31 0.01 C3.47 0.01, 3.63 0.02, 3.78 0.03 C3.93 0.04, 4.09 0.06, 4.23 0.07 C4.37 0.09, 4.5 0.1, 4.63 0.12 C4.75 0.14, 4.87 0.17, 4.98 0.19 C5.08 0.21, 5.18 0.24, 5.26 0.26 C5.34 0.29, 5.41 0.32, 5.47 0.35 C5.52 0.38, 5.56 0.41, 5.59 0.44 C5.62 0.47, 5.63 0.51, 5.64 0.53 C5.64 0.54, 5.64 0.51, 5.64 0.53" stroke="#000000" stroke-width="1" fill="none"></path></g><g stroke-linecap="round" transform="translate(267.8289084275798 150.83890910620084) rotate(0 2.942304288832247 0.5279924488231131)"><path d="M5.88 0.53 C5.88 0.56, 5.87 0.59, 5.84 0.62 C5.81 0.65, 5.77 0.68, 5.71 0.71 C5.65 0.74, 5.58 0.77, 5.49 0.79 C5.41 0.82, 5.31 0.84, 5.2 0.87 C5.09 0.89, 4.96 0.91, 4.83 0.93 C4.7 0.95, 4.56 0.97, 4.41 0.99 C4.27 1, 4.11 1.01, 3.95 1.02 C3.79 1.03, 3.62 1.04, 3.45 1.05 C3.29 1.05, 3.11 1.06, 2.94 1.06 C2.77 1.06, 2.6 1.05, 2.43 1.05 C2.26 1.04, 2.1 1.03, 1.94 1.02 C1.78 1.01, 1.62 1, 1.47 0.99 C1.32 0.97, 1.18 0.95, 1.05 0.93 C0.92 0.91, 0.8 0.89, 0.69 0.87 C0.58 0.84, 0.48 0.82, 0.39 0.79 C0.31 0.77, 0.24 0.74, 0.18 0.71 C0.12 0.68, 0.07 0.65, 0.04 0.62 C0.02 0.59, 0 0.56, 0 0.53 C0 0.5, 0.02 0.47, 0.04 0.44 C0.07 0.41, 0.12 0.38, 0.18 0.35 C0.24 0.32, 0.31 0.29, 0.39 0.26 C0.48 0.24, 0.58 0.21, 0.69 0.19 C0.8 0.17, 0.92 0.14, 1.05 0.12 C1.18 0.1, 1.32 0.09, 1.47 0.07 C1.62 0.06, 1.78 0.04, 1.94 0.03 C2.1 0.02, 2.26 0.01, 2.43 0.01 C2.6 0, 2.77 0, 2.94 0 C3.11 0, 3.29 0, 3.45 0.01 C3.62 0.01, 3.79 0.02, 3.95 0.03 C4.11 0.04, 4.27 0.06, 4.41 0.07 C4.56 0.09, 4.7 0.1, 4.83 0.12 C4.96 0.14, 5.09 0.17, 5.2 0.19 C5.31 0.21, 5.41 0.24, 5.49 0.26 C5.58 0.29, 5.65 0.32, 5.71 0.35 C5.77 0.38, 5.81 0.41, 5.84 0.44 C5.87 0.47, 5.88 0.51, 5.88 0.53 C5.89 0.54, 5.89 0.51, 5.88 0.53" stroke="none" stroke-width="0" fill="#fab005"></path><path d="M5.88 0.53 C5.88 0.56, 5.87 0.59, 5.84 0.62 C5.81 0.65, 5.77 0.68, 5.71 0.71 C5.65 0.74, 5.58 0.77, 5.49 0.79 C5.41 0.82, 5.31 0.84, 5.2 0.87 C5.09 0.89, 4.96 0.91, 4.83 0.93 C4.7 0.95, 4.56 0.97, 4.41 0.99 C4.27 1, 4.11 1.01, 3.95 1.02 C3.79 1.03, 3.62 1.04, 3.45 1.05 C3.29 1.05, 3.11 1.06, 2.94 1.06 C2.77 1.06, 2.6 1.05, 2.43 1.05 C2.26 1.04, 2.1 1.03, 1.94 1.02 C1.78 1.01, 1.62 1, 1.47 0.99 C1.32 0.97, 1.18 0.95, 1.05 0.93 C0.92 0.91, 0.8 0.89, 0.69 0.87 C0.58 0.84, 0.48 0.82, 0.39 0.79 C0.31 0.77, 0.24 0.74, 0.18 0.71 C0.12 0.68, 0.07 0.65, 0.04 0.62 C0.02 0.59, 0 0.56, 0 0.53 C0 0.5, 0.02 0.47, 0.04 0.44 C0.07 0.41, 0.12 0.38, 0.18 0.35 C0.24 0.32, 0.31 0.29, 0.39 0.26 C0.48 0.24, 0.58 0.21, 0.69 0.19 C0.8 0.17, 0.92 0.14, 1.05 0.12 C1.18 0.1, 1.32 0.09, 1.47 0.07 C1.62 0.06, 1.78 0.04, 1.94 0.03 C2.1 0.02, 2.26 0.01, 2.43 0.01 C2.6 0, 2.77 0, 2.94 0 C3.11 0, 3.29 0, 3.45 0.01 C3.62 0.01, 3.79 0.02, 3.95 0.03 C4.11 0.04, 4.27 0.06, 4.41 0.07 C4.56 0.09, 4.7 0.1, 4.83 0.12 C4.96 0.14, 5.09 0.17, 5.2 0.19 C5.31 0.21, 5.41 0.24, 5.49 0.26 C5.58 0.29, 5.65 0.32, 5.71 0.35 C5.77 0.38, 5.81 0.41, 5.84 0.44 C5.87 0.47, 5.88 0.51, 5.88 0.53 C5.89 0.54, 5.89 0.51, 5.88 0.53" stroke="#000000" stroke-width="1" fill="none"></path></g><g stroke-linecap="round" transform="translate(258.84461720087165 166.2690089562211) rotate(0 4.228855721393074 4.726368159204014)"><path d="M8.46 4.73 C8.46 5, 8.44 5.28, 8.39 5.55 C8.35 5.82, 8.29 6.09, 8.2 6.34 C8.12 6.6, 8.01 6.85, 7.89 7.09 C7.77 7.33, 7.63 7.55, 7.47 7.76 C7.31 7.97, 7.13 8.17, 6.95 8.35 C6.76 8.52, 6.56 8.68, 6.34 8.82 C6.13 8.96, 5.91 9.07, 5.68 9.17 C5.45 9.26, 5.2 9.33, 4.96 9.38 C4.72 9.43, 4.47 9.45, 4.23 9.45 C3.98 9.45, 3.74 9.43, 3.49 9.38 C3.25 9.33, 3.01 9.26, 2.78 9.17 C2.55 9.07, 2.33 8.96, 2.11 8.82 C1.9 8.68, 1.7 8.52, 1.51 8.35 C1.32 8.17, 1.15 7.97, 0.99 7.76 C0.83 7.55, 0.69 7.33, 0.57 7.09 C0.44 6.85, 0.34 6.6, 0.26 6.34 C0.17 6.09, 0.11 5.82, 0.06 5.55 C0.02 5.28, 0 5, 0 4.73 C0 4.45, 0.02 4.18, 0.06 3.91 C0.11 3.64, 0.17 3.37, 0.26 3.11 C0.34 2.85, 0.44 2.6, 0.57 2.36 C0.69 2.13, 0.83 1.9, 0.99 1.69 C1.15 1.48, 1.32 1.28, 1.51 1.11 C1.7 0.93, 1.9 0.77, 2.11 0.63 C2.33 0.5, 2.55 0.38, 2.78 0.29 C3.01 0.19, 3.25 0.12, 3.49 0.07 C3.74 0.02, 3.98 0, 4.23 0 C4.47 0, 4.72 0.02, 4.96 0.07 C5.2 0.12, 5.45 0.19, 5.68 0.29 C5.91 0.38, 6.13 0.5, 6.34 0.63 C6.56 0.77, 6.76 0.93, 6.95 1.11 C7.13 1.28, 7.31 1.48, 7.47 1.69 C7.63 1.9, 7.77 2.13, 7.89 2.36 C8.01 2.6, 8.12 2.85, 8.2 3.11 C8.29 3.37, 8.35 3.64, 8.39 3.91 C8.44 4.18, 8.45 4.59, 8.46 4.73 C8.47 4.86, 8.47 4.59, 8.46 4.73" stroke="none" stroke-width="0" fill="#fab005"></path><path d="M8.46 4.73 C8.46 5, 8.44 5.28, 8.39 5.55 C8.35 5.82, 8.29 6.09, 8.2 6.34 C8.12 6.6, 8.01 6.85, 7.89 7.09 C7.77 7.33, 7.63 7.55, 7.47 7.76 C7.31 7.97, 7.13 8.17, 6.95 8.35 C6.76 8.52, 6.56 8.68, 6.34 8.82 C6.13 8.96, 5.91 9.07, 5.68 9.17 C5.45 9.26, 5.2 9.33, 4.96 9.38 C4.72 9.43, 4.47 9.45, 4.23 9.45 C3.98 9.45, 3.74 9.43, 3.49 9.38 C3.25 9.33, 3.01 9.26, 2.78 9.17 C2.55 9.07, 2.33 8.96, 2.11 8.82 C1.9 8.68, 1.7 8.52, 1.51 8.35 C1.32 8.17, 1.15 7.97, 0.99 7.76 C0.83 7.55, 0.69 7.33, 0.57 7.09 C0.44 6.85, 0.34 6.6, 0.26 6.34 C0.17 6.09, 0.11 5.82, 0.06 5.55 C0.02 5.28, 0 5, 0 4.73 C0 4.45, 0.02 4.18, 0.06 3.91 C0.11 3.64, 0.17 3.37, 0.26 3.11 C0.34 2.85, 0.44 2.6, 0.57 2.36 C0.69 2.13, 0.83 1.9, 0.99 1.69 C1.15 1.48, 1.32 1.28, 1.51 1.11 C1.7 0.93, 1.9 0.77, 2.11 0.63 C2.33 0.5, 2.55 0.38, 2.78 0.29 C3.01 0.19, 3.25 0.12, 3.49 0.07 C3.74 0.02, 3.98 0, 4.23 0 C4.47 0, 4.72 0.02, 4.96 0.07 C5.2 0.12, 5.45 0.19, 5.68 0.29 C5.91 0.38, 6.13 0.5, 6.34 0.63 C6.56 0.77, 6.76 0.93, 6.95 1.11 C7.13 1.28, 7.31 1.48, 7.47 1.69 C7.63 1.9, 7.77 2.13, 7.89 2.36 C8.01 2.6, 8.12 2.85, 8.2 3.11 C8.29 3.37, 8.35 3.64, 8.39 3.91 C8.44 4.18, 8.45 4.59, 8.46 4.73 C8.47 4.86, 8.47 4.59, 8.46 4.73" stroke="#000000" stroke-width="1" fill="none"></path></g><g stroke-linecap="round" transform="translate(252.48591633391788 152.4644239054303) rotate(0 2.3631840796019787 15.174129353233809)"><path d="M1.18 0 L3.54 0 L4.73 1.18 L4.73 29.17 L3.54 30.35 L0.3 30.05 L0 29.17 L0 1.18 L1.18 0" stroke="none" stroke-width="0" fill="#228be6"></path><path d="M1.18 0 M1.18 0 C1.86 0, 2.55 0, 3.54 0 M1.18 0 C1.97 0, 2.76 0, 3.54 0 M3.54 0 C4.33 0, 4.73 0.39, 4.73 1.18 M3.54 0 C4.33 0, 4.73 0.39, 4.73 1.18 M4.73 1.18 C4.73 9.81, 4.73 18.44, 4.73 29.17 M4.73 1.18 C4.73 11.47, 4.73 21.77, 4.73 29.17 M4.73 29.17 C4.73 29.95, 4.33 30.35, 3.54 30.35 M4.73 29.17 C4.73 29.95, 4.33 30.35, 3.54 30.35 M3.54 30.35 C2.76 30.35, 1.97 30.35, 1.18 30.35 M3.54 30.35 C2.8 30.35, 2.06 30.35, 1.18 30.35 M1.18 30.35 C0.39 30.35, 0 29.95, 0 29.17 M1.18 30.35 C0.39 30.35, 0 29.95, 0 29.17 M0 29.17 C0 18.58, 0 7.99, 0 1.18 M0 29.17 C0 20.9, 0 12.63, 0 1.18 M0 1.18 C0 0.39, 0.39 0, 1.18 0 M0 1.18 C0 0.39, 0.39 0, 1.18 0" stroke="#000000" stroke-width="1" fill="none"></path></g><g stroke-linecap="round" transform="translate(268.7048218065547 152.76293136811682) rotate(0 2.3631840796019787 15.174129353233809)"><path d="M1.18 0 L3.54 0 L4.73 1.18 L4.73 29.17 L3.54 30.35 L0.3 30.05 L0 29.17 L0 1.18 L1.18 0" stroke="none" stroke-width="0" fill="#228be6"></path><path d="M1.18 0 M1.18 0 C1.95 0, 2.71 0, 3.54 0 M1.18 0 C2.05 0, 2.91 0, 3.54 0 M3.54 0 C4.33 0, 4.73 0.39, 4.73 1.18 M3.54 0 C4.33 0, 4.73 0.39, 4.73 1.18 M4.73 1.18 C4.73 12.08, 4.73 22.98, 4.73 29.17 M4.73 1.18 C4.73 10.34, 4.73 19.5, 4.73 29.17 M4.73 29.17 C4.73 29.95, 4.33 30.35, 3.54 30.35 M4.73 29.17 C4.73 29.95, 4.33 30.35, 3.54 30.35 M3.54 30.35 C2.89 30.35, 2.24 30.35, 1.18 30.35 M3.54 30.35 C2.75 30.35, 1.95 30.35, 1.18 30.35 M1.18 30.35 C0.39 30.35, 0 29.95, 0 29.17 M1.18 30.35 C0.39 30.35, 0 29.95, 0 29.17 M0 29.17 C0 19.64, 0 10.11, 0 1.18 M0 29.17 C0 21.62, 0 14.07, 0 1.18 M0 1.18 C0 0.39, 0.39 0, 1.18 0 M0 1.18 C0 0.39, 0.39 0, 1.18 0" stroke="#000000" stroke-width="1" fill="none"></path></g><g transform="translate(146.9524539360068 169.57745684840415) rotate(346.16310820127717 45 19.5)"><text x="0" y="28" font-family="Virgil, Segoe UI Emoji" font-size="31.052021422815216px" fill="#000" text-anchor="start" style="white-space: pre;" direction="ltr">Group</text></g></svg>
