<svg version="1.1" xmlns="http://www.w3.org/2000/svg" viewBox="0 0 274.7189223398291 234.39235349135666" width="549.4378446796582" height="468.7847069827133">
  <!-- svg-source:excalidraw -->
  
  <defs>
    <style class="style-fonts">
      @font-face {
        font-family: "Virgil";
        src: url("https://excalidraw.com/Virgil.woff2");
      }
      @font-face {
        font-family: "Cascadia";
        src: url("https://excalidraw.com/Cascadia.woff2");
      }
    </style>
  </defs>
  <g stroke-linecap="round" transform="translate(9.99999999999909 87.97118156541637) rotate(0 34.424156366138504 35.82922397291951)"><path d="M48.42 3.23 C54.28 5.92, 61.67 13.52, 64.91 19.61 C68.15 25.71, 68.83 32.81, 67.87 39.79 C66.91 46.77, 63.6 56.16, 59.15 61.49 C54.7 66.82, 47.7 70.67, 41.14 71.75 C34.58 72.83, 26.1 71.18, 19.8 67.97 C13.5 64.76, 6.71 58.77, 3.34 52.49 C-0.04 46.2, -1.39 37.05, -0.45 30.24 C0.49 23.44, 4.11 16.45, 8.99 11.66 C13.86 6.88, 21.53 2.66, 28.79 1.54 C36.04 0.43, 48.28 3.86, 52.52 4.98 C56.75 6.11, 54.5 7.72, 54.18 8.3 M20.73 1.24 C26.49 -1.86, 35.06 -1.24, 42.02 0.84 C48.97 2.92, 58.11 8.43, 62.46 13.72 C66.82 19.01, 68.16 25.4, 68.17 32.57 C68.18 39.75, 66.15 50.45, 62.54 56.77 C58.94 63.08, 52.71 68.2, 46.54 70.47 C40.38 72.73, 32.13 72.47, 25.54 70.36 C18.95 68.25, 11.42 63.43, 7.02 57.8 C2.62 52.17, -0.56 43.5, -0.85 36.6 C-1.14 29.7, 1.57 22.29, 5.31 16.38 C9.05 10.47, 18.68 3.52, 21.59 1.16 C24.5 -1.2, 22.29 1.6, 22.77 2.22" stroke="none" stroke-width="0" fill="#fab005"></path><path d="M44.9 0.64 C51.29 2.24, 57.78 8.58, 61.83 14.19 C65.88 19.79, 69.16 27.31, 69.2 34.25 C69.24 41.19, 66.12 49.76, 62.05 55.82 C57.98 61.87, 51.01 68.2, 44.79 70.58 C38.58 72.96, 31.04 72.39, 24.74 70.11 C18.45 67.83, 11.17 62.5, 7.03 56.92 C2.9 51.34, 0.15 43.57, -0.08 36.61 C-0.3 29.65, 1.68 20.93, 5.67 15.14 C9.67 9.34, 16.84 3.85, 23.91 1.83 C30.97 -0.19, 43.4 2.35, 48.04 3.02 C52.68 3.7, 51.75 5.35, 51.75 5.87 M47.81 3.08 C53.8 4.81, 60.05 9.44, 63.66 15.32 C67.26 21.21, 69.8 31.08, 69.42 38.42 C69.05 45.75, 65.88 53.97, 61.4 59.34 C56.93 64.72, 49.21 68.95, 42.57 70.64 C35.94 72.33, 27.72 72.26, 21.59 69.49 C15.45 66.72, 9.18 59.9, 5.79 54.04 C2.4 48.18, 0.71 41.2, 1.25 34.31 C1.79 27.42, 5.14 18.26, 9.02 12.71 C12.91 7.16, 18.32 2.64, 24.56 1.03 C30.8 -0.58, 42.6 2.49, 46.46 3.04 C50.32 3.59, 47.71 3.92, 47.71 4.34" stroke="#000000" stroke-width="1" fill="none"></path></g><g stroke-linecap="round" transform="translate(41.372404226963226 112.75063507446396) rotate(0 4.310995158818059 0.8211419350129958)"><path d="M0.41 0 L8.21 0 L8.62 1.23 L0.41 1.64 L0.41 0" stroke="none" stroke-width="0" fill="#000000"></path><path d="M0.41 0 M0.41 0 C3.03 0, 5.65 0, 8.21 0 M0.41 0 C2.74 0, 5.06 0, 8.21 0 M8.21 0 C8.49 0, 8.62 0.14, 8.62 0.41 M8.21 0 C8.49 0, 8.62 0.14, 8.62 0.41 M8.62 0.41 C8.62 0.72, 8.62 1.03, 8.62 1.23 M8.62 0.41 C8.62 0.69, 8.62 0.98, 8.62 1.23 M8.62 1.23 C8.62 1.51, 8.49 1.64, 8.21 1.64 M8.62 1.23 C8.62 1.51, 8.49 1.64, 8.21 1.64 M8.21 1.64 C5.89 1.64, 3.58 1.64, 0.41 1.64 M8.21 1.64 C6.36 1.64, 4.51 1.64, 0.41 1.64 M0.41 1.64 C0.14 1.64, 0 1.51, 0 1.23 M0.41 1.64 C0.14 1.64, 0 1.51, 0 1.23 M0 1.23 C0 0.96, 0 0.68, 0 0.41 M0 1.23 C0 0.93, 0 0.64, 0 0.41 M0 0.41 C0 0.14, 0.14 0, 0.41 0 M0 0.41 C0 0.14, 0.14 0, 0.41 0" stroke="#000000" stroke-width="4" fill="none"></path></g><g stroke-linecap="round"><g transform="translate(20.229972531634303 109.20705554725953) rotate(0 8.49252595011967 8.685131256193692)" fill-rule="evenodd"><path d="M0 0 L16.08 -0.22 L20.26 0.67 L22.08 2.74 L22.55 5.68 L21.17 11.39 L17.51 15.4 L12.08 17.65 L5.21 16.96 L-1.09 14.21 L-4.49 9.13 L-5.55 3.99 L-3.05 1.36 L0 0" stroke="none" stroke-width="0" fill="#000000" fill-rule="evenodd"></path><path d="M0 0 C3.38 0.11, 16.73 -1.23, 20.26 0.67 C23.78 2.56, 22.53 8.56, 21.17 11.39 C19.81 14.22, 15.79 17.18, 12.08 17.65 C8.37 18.12, 1.85 16.48, -1.09 14.21 C-4.03 11.93, -5.73 6.36, -5.55 3.99 C-5.37 1.62, -0.93 0.67, 0 0 M0 0 C3.38 0.11, 16.73 -1.23, 20.26 0.67 C23.78 2.56, 22.53 8.56, 21.17 11.39 C19.81 14.22, 15.79 17.18, 12.08 17.65 C8.37 18.12, 1.85 16.48, -1.09 14.21 C-4.03 11.93, -5.73 6.36, -5.55 3.99 C-5.37 1.62, -0.93 0.67, 0 0" stroke="#000000" stroke-width="1" fill="none"></path></g></g><g stroke-linecap="round"><g transform="translate(52.62402186790041 109.16599845050979) rotate(0 8.49252595011967 8.685131256193692)" fill-rule="evenodd"><path d="M0 0 L16.08 -0.22 L20.26 0.67 L22.08 2.74 L22.55 5.68 L21.17 11.39 L17.51 15.4 L12.08 17.65 L5.21 16.96 L-1.09 14.21 L-4.49 9.13 L-5.55 3.99 L-3.05 1.36 L0 0" stroke="none" stroke-width="0" fill="#000000" fill-rule="evenodd"></path><path d="M0 0 C3.38 0.11, 16.73 -1.23, 20.26 0.67 C23.78 2.56, 22.53 8.56, 21.17 11.39 C19.81 14.22, 15.79 17.18, 12.08 17.65 C8.37 18.12, 1.85 16.48, -1.09 14.21 C-4.03 11.93, -5.73 6.36, -5.55 3.99 C-5.37 1.62, -0.93 0.67, 0 0 M0 0 C3.38 0.11, 16.73 -1.23, 20.26 0.67 C23.78 2.56, 22.53 8.56, 21.17 11.39 C19.81 14.22, 15.79 17.18, 12.08 17.65 C8.37 18.12, 1.85 16.48, -1.09 14.21 C-4.03 11.93, -5.73 6.36, -5.55 3.99 C-5.37 1.62, -0.93 0.67, 0 0" stroke="#000000" stroke-width="1" fill="none"></path></g></g><g stroke-linecap="round"><g transform="translate(63.328901112862695 145.11409154067138) rotate(176.8197862031195 -18.702520938606085 -3.880337946585385)" fill-rule="evenodd"><path d="M0 0 L-14.35 -6.56 L-18.48 -7.61 L-26.66 -5.48 L-37.38 -0.24 L-24.2 -6.62 L-18.75 -7.76 L-13.64 -6.71 L0 0" stroke="none" stroke-width="0" fill="#0000" fill-rule="evenodd"></path><path d="M0 0 C-2.39 -1.09, -10.57 -5.39, -14.35 -6.56 C-18.12 -7.73, -18.82 -8.05, -22.65 -7 C-26.49 -5.95, -38.03 -0.11, -37.38 -0.24 C-36.73 -0.37, -24.98 -7.8, -18.75 -7.76 C-12.52 -7.72, -3.13 -1.29, 0 0 M0 0 C-2.39 -1.09, -10.57 -5.39, -14.35 -6.56 C-18.12 -7.73, -18.82 -8.05, -22.65 -7 C-26.49 -5.95, -38.03 -0.11, -37.38 -0.24 C-36.73 -0.37, -24.98 -7.8, -18.75 -7.76 C-12.52 -7.72, -3.13 -1.29, 0 0" stroke="#000000" stroke-width="1" fill="none"></path></g></g><g stroke-linecap="round" transform="translate(100.28775849985232 24.66893695855424) rotate(0 34.424156366138504 35.82922397291951)"><path d="M36.02 -0.03 C42.47 0.19, 52.07 4.46, 57.49 9.07 C62.9 13.67, 67.06 21.03, 68.51 27.62 C69.96 34.2, 68.89 42.28, 66.19 48.6 C63.49 54.91, 58.14 61.77, 52.31 65.5 C46.48 69.23, 37.78 71.28, 31.2 70.97 C24.63 70.67, 17.73 68.09, 12.86 63.67 C7.99 59.26, 3.75 51.48, 1.98 44.47 C0.2 37.46, -0.22 28.12, 2.22 21.6 C4.67 15.09, 10.49 9.06, 16.65 5.39 C22.81 1.72, 35.23 0.13, 39.19 -0.41 C43.15 -0.94, 40.67 1.59, 40.42 2.18 M20.82 2.51 C26.32 -1.01, 33.4 -1.52, 40.17 -0.02 C46.93 1.49, 56.47 6.19, 61.42 11.52 C66.37 16.85, 69.4 25.06, 69.86 31.97 C70.32 38.88, 67.85 47.04, 64.19 52.98 C60.53 58.92, 54.22 64.67, 47.89 67.62 C41.55 70.57, 32.69 72.04, 26.19 70.67 C19.7 69.31, 13.46 64.51, 8.92 59.42 C4.38 54.33, -0.17 46.86, -1.04 40.15 C-1.91 33.45, 0.3 25.37, 3.72 19.19 C7.13 13.02, 16.38 5.77, 19.45 3.1 C22.52 0.42, 21.78 2.53, 22.12 3.15" stroke="none" stroke-width="0" fill="#fab005"></path><path d="M33.31 -0.64 C39.63 -1.4, 48.18 1.49, 53.96 5.72 C59.74 9.95, 65.78 17.92, 67.99 24.74 C70.2 31.56, 69.51 40.01, 67.23 46.64 C64.95 53.28, 59.73 60.47, 54.32 64.56 C48.9 68.64, 41.43 70.97, 34.74 71.17 C28.05 71.38, 19.7 69.87, 14.18 65.79 C8.66 61.72, 3.73 53.57, 1.61 46.73 C-0.5 39.89, -0.57 31.23, 1.49 24.76 C3.55 18.3, 8.3 11.94, 13.95 7.95 C19.61 3.95, 31.49 1.93, 35.45 0.79 C39.4 -0.35, 37.61 0.58, 37.68 1.11 M35.26 0.59 C42.01 0.09, 50.38 2.91, 55.75 7.06 C61.11 11.2, 65.5 18.63, 67.43 25.47 C69.37 32.32, 69.72 41.31, 67.36 48.13 C65 54.95, 58.72 62.32, 53.27 66.41 C47.82 70.49, 41.28 73.24, 34.65 72.65 C28.02 72.06, 19.04 67.43, 13.5 62.88 C7.96 58.34, 3.28 51.74, 1.43 45.38 C-0.43 39.03, -0.05 31.16, 2.36 24.75 C4.76 18.34, 10.44 11.21, 15.85 6.93 C21.25 2.65, 31.55 -0.12, 34.78 -0.93 C38.01 -1.74, 34.98 1.47, 35.23 2.07" stroke="#000000" stroke-width="1" fill="none"></path></g><g stroke-linecap="round" transform="translate(119.6865772764786 48.10524249458763) rotate(0 3.6098574877778447 3.887538832991339)"><path d="M7.22 3.89 C7.22 4.11, 7.2 4.34, 7.16 4.56 C7.13 4.78, 7.07 5.01, 7 5.22 C6.93 5.43, 6.84 5.64, 6.74 5.83 C6.63 6.03, 6.51 6.21, 6.38 6.39 C6.24 6.56, 6.09 6.72, 5.93 6.87 C5.77 7.01, 5.6 7.14, 5.41 7.25 C5.23 7.37, 5.04 7.46, 4.84 7.54 C4.65 7.62, 4.44 7.68, 4.24 7.72 C4.03 7.76, 3.82 7.78, 3.61 7.78 C3.4 7.78, 3.19 7.76, 2.98 7.72 C2.78 7.68, 2.57 7.62, 2.38 7.54 C2.18 7.46, 1.99 7.37, 1.8 7.25 C1.62 7.14, 1.45 7.01, 1.29 6.87 C1.13 6.72, 0.98 6.56, 0.84 6.39 C0.71 6.21, 0.59 6.03, 0.48 5.83 C0.38 5.64, 0.29 5.43, 0.22 5.22 C0.15 5.01, 0.09 4.78, 0.05 4.56 C0.02 4.34, 0 4.11, 0 3.89 C0 3.66, 0.02 3.43, 0.05 3.21 C0.09 2.99, 0.15 2.77, 0.22 2.56 C0.29 2.35, 0.38 2.14, 0.48 1.94 C0.59 1.75, 0.71 1.56, 0.84 1.39 C0.98 1.22, 1.13 1.05, 1.29 0.91 C1.45 0.76, 1.62 0.63, 1.8 0.52 C1.99 0.41, 2.18 0.31, 2.38 0.23 C2.57 0.16, 2.78 0.1, 2.98 0.06 C3.19 0.02, 3.4 0, 3.61 0 C3.82 0, 4.03 0.02, 4.24 0.06 C4.44 0.1, 4.65 0.16, 4.84 0.23 C5.04 0.31, 5.23 0.41, 5.41 0.52 C5.6 0.63, 5.77 0.76, 5.93 0.91 C6.09 1.05, 6.24 1.22, 6.38 1.39 C6.51 1.56, 6.63 1.75, 6.74 1.94 C6.84 2.14, 6.93 2.35, 7 2.56 C7.07 2.77, 7.13 2.99, 7.16 3.21 C7.2 3.43, 7.21 3.78, 7.22 3.89 C7.23 4, 7.23 3.78, 7.22 3.89" stroke="none" stroke-width="0" fill="#fab005"></path><path d="M7.22 3.89 C7.22 4.11, 7.2 4.34, 7.16 4.56 C7.13 4.78, 7.07 5.01, 7 5.22 C6.93 5.43, 6.84 5.64, 6.74 5.83 C6.63 6.03, 6.51 6.21, 6.38 6.39 C6.24 6.56, 6.09 6.72, 5.93 6.87 C5.77 7.01, 5.6 7.14, 5.41 7.25 C5.23 7.37, 5.04 7.46, 4.84 7.54 C4.65 7.62, 4.44 7.68, 4.24 7.72 C4.03 7.76, 3.82 7.78, 3.61 7.78 C3.4 7.78, 3.19 7.76, 2.98 7.72 C2.78 7.68, 2.57 7.62, 2.38 7.54 C2.18 7.46, 1.99 7.37, 1.8 7.25 C1.62 7.14, 1.45 7.01, 1.29 6.87 C1.13 6.72, 0.98 6.56, 0.84 6.39 C0.71 6.21, 0.59 6.03, 0.48 5.83 C0.38 5.64, 0.29 5.43, 0.22 5.22 C0.15 5.01, 0.09 4.78, 0.05 4.56 C0.02 4.34, 0 4.11, 0 3.89 C0 3.66, 0.02 3.43, 0.05 3.21 C0.09 2.99, 0.15 2.77, 0.22 2.56 C0.29 2.35, 0.38 2.14, 0.48 1.94 C0.59 1.75, 0.71 1.56, 0.84 1.39 C0.98 1.22, 1.13 1.05, 1.29 0.91 C1.45 0.76, 1.62 0.63, 1.8 0.52 C1.99 0.41, 2.18 0.31, 2.38 0.23 C2.57 0.16, 2.78 0.1, 2.98 0.06 C3.19 0.02, 3.4 0, 3.61 0 C3.82 0, 4.03 0.02, 4.24 0.06 C4.44 0.1, 4.65 0.16, 4.84 0.23 C5.04 0.31, 5.23 0.41, 5.41 0.52 C5.6 0.63, 5.77 0.76, 5.93 0.91 C6.09 1.05, 6.24 1.22, 6.38 1.39 C6.51 1.56, 6.63 1.75, 6.74 1.94 C6.84 2.14, 6.93 2.35, 7 2.56 C7.07 2.77, 7.13 2.99, 7.16 3.21 C7.2 3.43, 7.21 3.78, 7.22 3.89 C7.23 4, 7.23 3.78, 7.22 3.89" stroke="#000000" stroke-width="1" fill="none"></path></g><g stroke-linecap="round" transform="translate(140.95696831984515 48.271851301715856) rotate(0 3.6098574877778447 3.887538832991339)"><path d="M7.22 3.89 C7.22 4.11, 7.2 4.34, 7.16 4.56 C7.13 4.78, 7.07 5.01, 7 5.22 C6.93 5.43, 6.84 5.64, 6.74 5.83 C6.63 6.03, 6.51 6.21, 6.38 6.39 C6.24 6.56, 6.09 6.72, 5.93 6.87 C5.77 7.01, 5.6 7.14, 5.41 7.25 C5.23 7.37, 5.04 7.46, 4.84 7.54 C4.65 7.62, 4.44 7.68, 4.24 7.72 C4.03 7.76, 3.82 7.78, 3.61 7.78 C3.4 7.78, 3.19 7.76, 2.98 7.72 C2.78 7.68, 2.57 7.62, 2.38 7.54 C2.18 7.46, 1.99 7.37, 1.8 7.25 C1.62 7.14, 1.45 7.01, 1.29 6.87 C1.13 6.72, 0.98 6.56, 0.84 6.39 C0.71 6.21, 0.59 6.03, 0.48 5.83 C0.38 5.64, 0.29 5.43, 0.22 5.22 C0.15 5.01, 0.09 4.78, 0.05 4.56 C0.02 4.34, 0 4.11, 0 3.89 C0 3.66, 0.02 3.43, 0.05 3.21 C0.09 2.99, 0.15 2.77, 0.22 2.56 C0.29 2.35, 0.38 2.14, 0.48 1.94 C0.59 1.75, 0.71 1.56, 0.84 1.39 C0.98 1.22, 1.13 1.05, 1.29 0.91 C1.45 0.76, 1.62 0.63, 1.8 0.52 C1.99 0.41, 2.18 0.31, 2.38 0.23 C2.57 0.16, 2.78 0.1, 2.98 0.06 C3.19 0.02, 3.4 0, 3.61 0 C3.82 0, 4.03 0.02, 4.24 0.06 C4.44 0.1, 4.65 0.16, 4.84 0.23 C5.04 0.31, 5.23 0.41, 5.41 0.52 C5.6 0.63, 5.77 0.76, 5.93 0.91 C6.09 1.05, 6.24 1.22, 6.38 1.39 C6.51 1.56, 6.63 1.75, 6.74 1.94 C6.84 2.14, 6.93 2.35, 7 2.56 C7.07 2.77, 7.13 2.99, 7.16 3.21 C7.2 3.43, 7.21 3.78, 7.22 3.89 C7.23 4, 7.23 3.78, 7.22 3.89" stroke="none" stroke-width="0" fill="#fab005"></path><path d="M7.22 3.89 C7.22 4.11, 7.2 4.34, 7.16 4.56 C7.13 4.78, 7.07 5.01, 7 5.22 C6.93 5.43, 6.84 5.64, 6.74 5.83 C6.63 6.03, 6.51 6.21, 6.38 6.39 C6.24 6.56, 6.09 6.72, 5.93 6.87 C5.77 7.01, 5.6 7.14, 5.41 7.25 C5.23 7.37, 5.04 7.46, 4.84 7.54 C4.65 7.62, 4.44 7.68, 4.24 7.72 C4.03 7.76, 3.82 7.78, 3.61 7.78 C3.4 7.78, 3.19 7.76, 2.98 7.72 C2.78 7.68, 2.57 7.62, 2.38 7.54 C2.18 7.46, 1.99 7.37, 1.8 7.25 C1.62 7.14, 1.45 7.01, 1.29 6.87 C1.13 6.72, 0.98 6.56, 0.84 6.39 C0.71 6.21, 0.59 6.03, 0.48 5.83 C0.38 5.64, 0.29 5.43, 0.22 5.22 C0.15 5.01, 0.09 4.78, 0.05 4.56 C0.02 4.34, 0 4.11, 0 3.89 C0 3.66, 0.02 3.43, 0.05 3.21 C0.09 2.99, 0.15 2.77, 0.22 2.56 C0.29 2.35, 0.38 2.14, 0.48 1.94 C0.59 1.75, 0.71 1.56, 0.84 1.39 C0.98 1.22, 1.13 1.05, 1.29 0.91 C1.45 0.76, 1.62 0.63, 1.8 0.52 C1.99 0.41, 2.18 0.31, 2.38 0.23 C2.57 0.16, 2.78 0.1, 2.98 0.06 C3.19 0.02, 3.4 0, 3.61 0 C3.82 0, 4.03 0.02, 4.24 0.06 C4.44 0.1, 4.65 0.16, 4.84 0.23 C5.04 0.31, 5.23 0.41, 5.41 0.52 C5.6 0.63, 5.77 0.76, 5.93 0.91 C6.09 1.05, 6.24 1.22, 6.38 1.39 C6.51 1.56, 6.63 1.75, 6.74 1.94 C6.84 2.14, 6.93 2.35, 7 2.56 C7.07 2.77, 7.13 2.99, 7.16 3.21 C7.2 3.43, 7.21 3.78, 7.22 3.89 C7.23 4, 7.23 3.78, 7.22 3.89" stroke="#000000" stroke-width="1" fill="none"></path></g><g stroke-linecap="round"><g transform="translate(154.39098720676793 70.1189641416438) rotate(0 -17.571756601873858 6.135286681329475)" fill-rule="evenodd"><path d="M0 0 L-13.48 2.46 L-21.96 2.43 L-33.86 -0.04 L-35.11 0.38 L-28.28 7.01 L-22.71 10.73 L-17.61 12.34 L-12.81 10.68 L0 0" stroke="none" stroke-width="0" fill="#fab005" fill-rule="evenodd"></path><path d="M0 0 C-2.25 0.41, -9.82 2.05, -13.48 2.46 C-17.14 2.86, -18.35 2.78, -21.96 2.43 C-25.56 2.09, -35.83 -1.27, -35.11 0.38 C-34.38 2.03, -23.47 12.41, -17.61 12.34 C-11.76 12.28, -2.94 2.06, 0 0 M0 0 C-2.25 0.41, -9.82 2.05, -13.48 2.46 C-17.14 2.86, -18.35 2.78, -21.96 2.43 C-25.56 2.09, -35.83 -1.27, -35.11 0.38 C-34.38 2.03, -23.47 12.41, -17.61 12.34 C-11.76 12.28, -2.94 2.06, 0 0" stroke="#000000" stroke-width="1" fill="none"></path></g></g><g stroke-linecap="round"><g transform="translate(90.82664379887592 22.183695441894088) rotate(346.3873024360953 44.83372016693011 10.133200979124936)"><path d="M0.43 -1 C15.13 2.34, 73.6 16.24, 88.16 20.01 M-0.8 1.1 C14.28 4.58, 75.32 18.13, 90.47 21.26" stroke="#000000" stroke-width="1" fill="none"></path></g></g><g stroke-linecap="round" transform="translate(103.91883498380503 11.21660950297462) rotate(357.57617965034245 28.979029966356393 9.99646183359988)"><path d="M-1.69 -0.49 L59.72 0.64 L57.12 18.22 L-1.04 21.95" stroke="none" stroke-width="0" fill="#fab005"></path><path d="M-1.28 -0.92 C15.59 2.31, 35.52 0.44, 58.01 -1.15 M-0.25 0.8 C16.74 -0.18, 33.71 0, 57.96 0.92 M58.51 0.71 C58.76 5.66, 56.14 12.04, 58.14 20.76 M57.97 0.28 C58.28 6.15, 58.71 14, 58.62 19.91 M58.55 20.92 C47.78 20.36, 34.26 18.42, 0.15 21.79 M57.62 20.14 C36.68 18.76, 13.07 19.3, 0.86 20.61 M-1.49 19.44 C-1.6 11.23, -1.25 6.61, 0.92 1.95 M0.38 19.99 C0.17 13.13, -0.59 8.5, -0.87 -0.77" stroke="#000000" stroke-width="1" fill="none"></path></g><g stroke-linecap="round" transform="translate(195.87060960755207 77.54045984229481) rotate(0 34.424156366138504 35.82922397291951)"><path d="M68.85 35.83 C68.85 37.7, 68.71 39.59, 68.42 41.43 C68.14 43.28, 67.72 45.12, 67.16 46.9 C66.61 48.68, 65.91 50.43, 65.1 52.1 C64.28 53.76, 63.33 55.38, 62.27 56.89 C61.22 58.4, 60.03 59.84, 58.77 61.16 C57.5 62.49, 56.11 63.72, 54.66 64.82 C53.21 65.91, 51.65 66.91, 50.05 67.75 C48.45 68.6, 46.77 69.33, 45.06 69.9 C43.35 70.48, 41.58 70.93, 39.81 71.22 C38.04 71.51, 36.22 71.66, 34.42 71.66 C32.63 71.66, 30.81 71.51, 29.04 71.22 C27.27 70.93, 25.49 70.48, 23.79 69.9 C22.08 69.33, 20.4 68.6, 18.8 67.75 C17.2 66.91, 15.64 65.91, 14.19 64.82 C12.74 63.72, 11.35 62.49, 10.08 61.16 C8.81 59.84, 7.63 58.4, 6.57 56.89 C5.52 55.38, 4.57 53.76, 3.75 52.1 C2.94 50.43, 2.24 48.68, 1.68 46.9 C1.13 45.12, 0.7 43.28, 0.42 41.43 C0.14 39.59, 0 37.7, 0 35.83 C0 33.96, 0.14 32.07, 0.42 30.22 C0.7 28.38, 1.13 26.53, 1.68 24.76 C2.24 22.98, 2.94 21.23, 3.75 19.56 C4.57 17.9, 5.52 16.28, 6.57 14.77 C7.63 13.26, 8.81 11.82, 10.08 10.49 C11.35 9.17, 12.74 7.94, 14.19 6.84 C15.64 5.74, 17.2 4.75, 18.8 3.91 C20.4 3.06, 22.08 2.33, 23.79 1.75 C25.49 1.18, 27.27 0.73, 29.04 0.44 C30.81 0.15, 32.63 0, 34.42 0 C36.22 0, 38.04 0.15, 39.81 0.44 C41.58 0.73, 43.35 1.18, 45.06 1.75 C46.77 2.33, 48.45 3.06, 50.05 3.91 C51.65 4.75, 53.21 5.74, 54.66 6.84 C56.11 7.94, 57.5 9.17, 58.77 10.49 C60.03 11.82, 61.22 13.26, 62.27 14.77 C63.33 16.28, 64.28 17.9, 65.1 19.56 C65.91 21.23, 66.61 22.98, 67.16 24.76 C67.72 26.53, 68.14 28.38, 68.42 30.22 C68.71 32.07, 68.78 34.9, 68.85 35.83 C68.92 36.76, 68.92 34.9, 68.85 35.83" stroke="none" stroke-width="0" fill="#fab005"></path><path d="M68.85 35.83 C68.85 37.7, 68.71 39.59, 68.42 41.43 C68.14 43.28, 67.72 45.12, 67.16 46.9 C66.61 48.68, 65.91 50.43, 65.1 52.1 C64.28 53.76, 63.33 55.38, 62.27 56.89 C61.22 58.4, 60.03 59.84, 58.77 61.16 C57.5 62.49, 56.11 63.72, 54.66 64.82 C53.21 65.91, 51.65 66.91, 50.05 67.75 C48.45 68.6, 46.77 69.33, 45.06 69.9 C43.35 70.48, 41.58 70.93, 39.81 71.22 C38.04 71.51, 36.22 71.66, 34.42 71.66 C32.63 71.66, 30.81 71.51, 29.04 71.22 C27.27 70.93, 25.49 70.48, 23.79 69.9 C22.08 69.33, 20.4 68.6, 18.8 67.75 C17.2 66.91, 15.64 65.91, 14.19 64.82 C12.74 63.72, 11.35 62.49, 10.08 61.16 C8.81 59.84, 7.63 58.4, 6.57 56.89 C5.52 55.38, 4.57 53.76, 3.75 52.1 C2.94 50.43, 2.24 48.68, 1.68 46.9 C1.13 45.12, 0.7 43.28, 0.42 41.43 C0.14 39.59, 0 37.7, 0 35.83 C0 33.96, 0.14 32.07, 0.42 30.22 C0.7 28.38, 1.13 26.53, 1.68 24.76 C2.24 22.98, 2.94 21.23, 3.75 19.56 C4.57 17.9, 5.52 16.28, 6.57 14.77 C7.63 13.26, 8.81 11.82, 10.08 10.49 C11.35 9.17, 12.74 7.94, 14.19 6.84 C15.64 5.74, 17.2 4.75, 18.8 3.91 C20.4 3.06, 22.08 2.33, 23.79 1.75 C25.49 1.18, 27.27 0.73, 29.04 0.44 C30.81 0.15, 32.63 0, 34.42 0 C36.22 0, 38.04 0.15, 39.81 0.44 C41.58 0.73, 43.35 1.18, 45.06 1.75 C46.77 2.33, 48.45 3.06, 50.05 3.91 C51.65 4.75, 53.21 5.74, 54.66 6.84 C56.11 7.94, 57.5 9.17, 58.77 10.49 C60.03 11.82, 61.22 13.26, 62.27 14.77 C63.33 16.28, 64.28 17.9, 65.1 19.56 C65.91 21.23, 66.61 22.98, 67.16 24.76 C67.72 26.53, 68.14 28.38, 68.42 30.22 C68.71 32.07, 68.78 34.9, 68.85 35.83 C68.92 36.76, 68.92 34.9, 68.85 35.83" stroke="#000000" stroke-width="1" fill="none"></path></g><g stroke-linecap="round" transform="translate(215.26942838418017 101.69363660627795) rotate(0 3.959376792947751 0.741865086466369)"><path d="M7.92 0.74 C7.92 0.78, 7.9 0.83, 7.86 0.87 C7.82 0.91, 7.76 0.96, 7.68 1 C7.6 1.04, 7.5 1.08, 7.39 1.11 C7.27 1.15, 7.14 1.19, 6.99 1.22 C6.85 1.25, 6.68 1.28, 6.5 1.31 C6.33 1.34, 6.14 1.36, 5.94 1.38 C5.74 1.41, 5.53 1.42, 5.31 1.44 C5.1 1.45, 4.87 1.47, 4.65 1.47 C4.42 1.48, 4.19 1.48, 3.96 1.48 C3.73 1.48, 3.5 1.48, 3.27 1.47 C3.05 1.47, 2.82 1.45, 2.61 1.44 C2.39 1.42, 2.18 1.41, 1.98 1.38 C1.78 1.36, 1.59 1.34, 1.41 1.31 C1.24 1.28, 1.07 1.25, 0.93 1.22 C0.78 1.19, 0.65 1.15, 0.53 1.11 C0.42 1.08, 0.32 1.04, 0.24 1 C0.16 0.96, 0.1 0.91, 0.06 0.87 C0.02 0.83, 0 0.78, 0 0.74 C0 0.7, 0.02 0.66, 0.06 0.61 C0.1 0.57, 0.16 0.53, 0.24 0.49 C0.32 0.45, 0.42 0.41, 0.53 0.37 C0.65 0.33, 0.78 0.3, 0.93 0.27 C1.07 0.23, 1.24 0.2, 1.41 0.17 C1.59 0.15, 1.78 0.12, 1.98 0.1 C2.18 0.08, 2.39 0.06, 2.61 0.04 C2.82 0.03, 3.05 0.02, 3.27 0.01 C3.5 0, 3.73 0, 3.96 0 C4.19 0, 4.42 0, 4.65 0.01 C4.87 0.02, 5.1 0.03, 5.31 0.04 C5.53 0.06, 5.74 0.08, 5.94 0.1 C6.14 0.12, 6.33 0.15, 6.5 0.17 C6.68 0.2, 6.85 0.23, 6.99 0.27 C7.14 0.3, 7.27 0.33, 7.39 0.37 C7.5 0.41, 7.6 0.45, 7.68 0.49 C7.76 0.53, 7.82 0.57, 7.86 0.61 C7.9 0.66, 7.91 0.72, 7.92 0.74 C7.93 0.76, 7.93 0.72, 7.92 0.74" stroke="none" stroke-width="0" fill="#fab005"></path><path d="M7.92 0.74 C7.92 0.78, 7.9 0.83, 7.86 0.87 C7.82 0.91, 7.76 0.96, 7.68 1 C7.6 1.04, 7.5 1.08, 7.39 1.11 C7.27 1.15, 7.14 1.19, 6.99 1.22 C6.85 1.25, 6.68 1.28, 6.5 1.31 C6.33 1.34, 6.14 1.36, 5.94 1.38 C5.74 1.41, 5.53 1.42, 5.31 1.44 C5.1 1.45, 4.87 1.47, 4.65 1.47 C4.42 1.48, 4.19 1.48, 3.96 1.48 C3.73 1.48, 3.5 1.48, 3.27 1.47 C3.05 1.47, 2.82 1.45, 2.61 1.44 C2.39 1.42, 2.18 1.41, 1.98 1.38 C1.78 1.36, 1.59 1.34, 1.41 1.31 C1.24 1.28, 1.07 1.25, 0.93 1.22 C0.78 1.19, 0.65 1.15, 0.53 1.11 C0.42 1.08, 0.32 1.04, 0.24 1 C0.16 0.96, 0.1 0.91, 0.06 0.87 C0.02 0.83, 0 0.78, 0 0.74 C0 0.7, 0.02 0.66, 0.06 0.61 C0.1 0.57, 0.16 0.53, 0.24 0.49 C0.32 0.45, 0.42 0.41, 0.53 0.37 C0.65 0.33, 0.78 0.3, 0.93 0.27 C1.07 0.23, 1.24 0.2, 1.41 0.17 C1.59 0.15, 1.78 0.12, 1.98 0.1 C2.18 0.08, 2.39 0.06, 2.61 0.04 C2.82 0.03, 3.05 0.02, 3.27 0.01 C3.5 0, 3.73 0, 3.96 0 C4.19 0, 4.42 0, 4.65 0.01 C4.87 0.02, 5.1 0.03, 5.31 0.04 C5.53 0.06, 5.74 0.08, 5.94 0.1 C6.14 0.12, 6.33 0.15, 6.5 0.17 C6.68 0.2, 6.85 0.23, 6.99 0.27 C7.14 0.3, 7.27 0.33, 7.39 0.37 C7.5 0.41, 7.6 0.45, 7.68 0.49 C7.76 0.53, 7.82 0.57, 7.86 0.61 C7.9 0.66, 7.91 0.72, 7.92 0.74 C7.93 0.76, 7.93 0.72, 7.92 0.74" stroke="#000000" stroke-width="1" fill="none"></path></g><g stroke-linecap="round" transform="translate(237.2388580378838 101.84241279579578) rotate(0 4.134136445531567 0.7418650864664116)"><path d="M8.27 0.74 C8.27 0.78, 8.25 0.83, 8.21 0.87 C8.16 0.91, 8.1 0.96, 8.02 1 C7.94 1.04, 7.83 1.08, 7.71 1.11 C7.59 1.15, 7.45 1.19, 7.3 1.22 C7.15 1.25, 6.97 1.28, 6.79 1.31 C6.61 1.34, 6.41 1.36, 6.2 1.38 C5.99 1.41, 5.77 1.42, 5.55 1.44 C5.32 1.45, 5.09 1.47, 4.85 1.47 C4.62 1.48, 4.37 1.48, 4.13 1.48 C3.89 1.48, 3.65 1.48, 3.42 1.47 C3.18 1.47, 2.95 1.45, 2.72 1.44 C2.5 1.42, 2.27 1.41, 2.07 1.38 C1.86 1.36, 1.66 1.34, 1.48 1.31 C1.29 1.28, 1.12 1.25, 0.97 1.22 C0.81 1.19, 0.67 1.15, 0.55 1.11 C0.43 1.08, 0.33 1.04, 0.25 1 C0.17 0.96, 0.1 0.91, 0.06 0.87 C0.02 0.83, 0 0.78, 0 0.74 C0 0.7, 0.02 0.66, 0.06 0.61 C0.1 0.57, 0.17 0.53, 0.25 0.49 C0.33 0.45, 0.43 0.41, 0.55 0.37 C0.67 0.33, 0.81 0.3, 0.97 0.27 C1.12 0.23, 1.29 0.2, 1.48 0.17 C1.66 0.15, 1.86 0.12, 2.07 0.1 C2.27 0.08, 2.5 0.06, 2.72 0.04 C2.95 0.03, 3.18 0.02, 3.42 0.01 C3.65 0, 3.89 0, 4.13 0 C4.37 0, 4.62 0, 4.85 0.01 C5.09 0.02, 5.32 0.03, 5.55 0.04 C5.77 0.06, 5.99 0.08, 6.2 0.1 C6.41 0.12, 6.61 0.15, 6.79 0.17 C6.97 0.2, 7.15 0.23, 7.3 0.27 C7.45 0.3, 7.59 0.33, 7.71 0.37 C7.83 0.41, 7.94 0.45, 8.02 0.49 C8.1 0.53, 8.16 0.57, 8.21 0.61 C8.25 0.66, 8.26 0.72, 8.27 0.74 C8.28 0.76, 8.28 0.72, 8.27 0.74" stroke="none" stroke-width="0" fill="#fab005"></path><path d="M8.27 0.74 C8.27 0.78, 8.25 0.83, 8.21 0.87 C8.16 0.91, 8.1 0.96, 8.02 1 C7.94 1.04, 7.83 1.08, 7.71 1.11 C7.59 1.15, 7.45 1.19, 7.3 1.22 C7.15 1.25, 6.97 1.28, 6.79 1.31 C6.61 1.34, 6.41 1.36, 6.2 1.38 C5.99 1.41, 5.77 1.42, 5.55 1.44 C5.32 1.45, 5.09 1.47, 4.85 1.47 C4.62 1.48, 4.37 1.48, 4.13 1.48 C3.89 1.48, 3.65 1.48, 3.42 1.47 C3.18 1.47, 2.95 1.45, 2.72 1.44 C2.5 1.42, 2.27 1.41, 2.07 1.38 C1.86 1.36, 1.66 1.34, 1.48 1.31 C1.29 1.28, 1.12 1.25, 0.97 1.22 C0.81 1.19, 0.67 1.15, 0.55 1.11 C0.43 1.08, 0.33 1.04, 0.25 1 C0.17 0.96, 0.1 0.91, 0.06 0.87 C0.02 0.83, 0 0.78, 0 0.74 C0 0.7, 0.02 0.66, 0.06 0.61 C0.1 0.57, 0.17 0.53, 0.25 0.49 C0.33 0.45, 0.43 0.41, 0.55 0.37 C0.67 0.33, 0.81 0.3, 0.97 0.27 C1.12 0.23, 1.29 0.2, 1.48 0.17 C1.66 0.15, 1.86 0.12, 2.07 0.1 C2.27 0.08, 2.5 0.06, 2.72 0.04 C2.95 0.03, 3.18 0.02, 3.42 0.01 C3.65 0, 3.89 0, 4.13 0 C4.37 0, 4.62 0, 4.85 0.01 C5.09 0.02, 5.32 0.03, 5.55 0.04 C5.77 0.06, 5.99 0.08, 6.2 0.1 C6.41 0.12, 6.61 0.15, 6.79 0.17 C6.97 0.2, 7.15 0.23, 7.3 0.27 C7.45 0.3, 7.59 0.33, 7.71 0.37 C7.83 0.41, 7.94 0.45, 8.02 0.49 C8.1 0.53, 8.16 0.57, 8.21 0.61 C8.25 0.66, 8.26 0.72, 8.27 0.74 C8.28 0.76, 8.28 0.72, 8.27 0.74" stroke="#000000" stroke-width="1" fill="none"></path></g><g stroke-linecap="round" transform="translate(224.61532146534864 123.52274626445796) rotate(0 5.941828187880674 6.640866798219406)"><path d="M11.88 6.64 C11.88 7.03, 11.85 7.42, 11.79 7.79 C11.73 8.17, 11.64 8.55, 11.53 8.91 C11.41 9.27, 11.26 9.63, 11.09 9.96 C10.92 10.29, 10.71 10.62, 10.49 10.91 C10.27 11.2, 10.02 11.48, 9.76 11.73 C9.5 11.98, 9.21 12.2, 8.91 12.39 C8.61 12.58, 8.3 12.75, 7.97 12.88 C7.65 13.01, 7.31 13.11, 6.97 13.18 C6.63 13.25, 6.29 13.28, 5.94 13.28 C5.6 13.28, 5.25 13.25, 4.91 13.18 C4.57 13.11, 4.23 13.01, 3.91 12.88 C3.59 12.75, 3.27 12.58, 2.97 12.39 C2.67 12.2, 2.39 11.98, 2.12 11.73 C1.86 11.48, 1.61 11.2, 1.39 10.91 C1.17 10.62, 0.97 10.29, 0.8 9.96 C0.62 9.63, 0.48 9.27, 0.36 8.91 C0.24 8.55, 0.15 8.17, 0.09 7.79 C0.03 7.42, 0 7.03, 0 6.64 C0 6.26, 0.03 5.87, 0.09 5.49 C0.15 5.11, 0.24 4.73, 0.36 4.37 C0.48 4.01, 0.62 3.65, 0.8 3.32 C0.97 2.99, 1.17 2.67, 1.39 2.37 C1.61 2.08, 1.86 1.8, 2.12 1.55 C2.39 1.31, 2.67 1.08, 2.97 0.89 C3.27 0.7, 3.59 0.53, 3.91 0.4 C4.23 0.27, 4.57 0.17, 4.91 0.1 C5.25 0.03, 5.6 0, 5.94 0 C6.29 0, 6.63 0.03, 6.97 0.1 C7.31 0.17, 7.65 0.27, 7.97 0.4 C8.3 0.53, 8.61 0.7, 8.91 0.89 C9.21 1.08, 9.5 1.31, 9.76 1.55 C10.02 1.8, 10.27 2.08, 10.49 2.37 C10.71 2.67, 10.92 2.99, 11.09 3.32 C11.26 3.65, 11.41 4.01, 11.53 4.37 C11.64 4.73, 11.73 5.11, 11.79 5.49 C11.85 5.87, 11.87 6.45, 11.88 6.64 C11.9 6.83, 11.9 6.45, 11.88 6.64" stroke="none" stroke-width="0" fill="#fab005"></path><path d="M11.88 6.64 C11.88 7.03, 11.85 7.42, 11.79 7.79 C11.73 8.17, 11.64 8.55, 11.53 8.91 C11.41 9.27, 11.26 9.63, 11.09 9.96 C10.92 10.29, 10.71 10.62, 10.49 10.91 C10.27 11.2, 10.02 11.48, 9.76 11.73 C9.5 11.98, 9.21 12.2, 8.91 12.39 C8.61 12.58, 8.3 12.75, 7.97 12.88 C7.65 13.01, 7.31 13.11, 6.97 13.18 C6.63 13.25, 6.29 13.28, 5.94 13.28 C5.6 13.28, 5.25 13.25, 4.91 13.18 C4.57 13.11, 4.23 13.01, 3.91 12.88 C3.59 12.75, 3.27 12.58, 2.97 12.39 C2.67 12.2, 2.39 11.98, 2.12 11.73 C1.86 11.48, 1.61 11.2, 1.39 10.91 C1.17 10.62, 0.97 10.29, 0.8 9.96 C0.62 9.63, 0.48 9.27, 0.36 8.91 C0.24 8.55, 0.15 8.17, 0.09 7.79 C0.03 7.42, 0 7.03, 0 6.64 C0 6.26, 0.03 5.87, 0.09 5.49 C0.15 5.11, 0.24 4.73, 0.36 4.37 C0.48 4.01, 0.62 3.65, 0.8 3.32 C0.97 2.99, 1.17 2.67, 1.39 2.37 C1.61 2.08, 1.86 1.8, 2.12 1.55 C2.39 1.31, 2.67 1.08, 2.97 0.89 C3.27 0.7, 3.59 0.53, 3.91 0.4 C4.23 0.27, 4.57 0.17, 4.91 0.1 C5.25 0.03, 5.6 0, 5.94 0 C6.29 0, 6.63 0.03, 6.97 0.1 C7.31 0.17, 7.65 0.27, 7.97 0.4 C8.3 0.53, 8.61 0.7, 8.91 0.89 C9.21 1.08, 9.5 1.31, 9.76 1.55 C10.02 1.8, 10.27 2.08, 10.49 2.37 C10.71 2.67, 10.92 2.99, 11.09 3.32 C11.26 3.65, 11.41 4.01, 11.53 4.37 C11.64 4.73, 11.73 5.11, 11.79 5.49 C11.85 5.87, 11.87 6.45, 11.88 6.64 C11.9 6.83, 11.9 6.45, 11.88 6.64" stroke="#000000" stroke-width="1" fill="none"></path></g><g stroke-linecap="round" transform="translate(215.68091685598029 104.12637098453627) rotate(0 3.3204333991097883 21.320677615335935)"><path d="M1.66 0 L6.23 0.42 L6.64 1.66 L6.64 40.98 L6.23 42.23 L4.98 42.64 L1.66 42.64 L0.42 42.23 L0 40.98 L0 1.66 L0.42 0.42 L1.66 0" stroke="none" stroke-width="0" fill="#228be6"></path><path d="M1.66 0 M1.66 0 C2.33 0, 3 0, 4.98 0 M1.66 0 C2.66 0, 3.66 0, 4.98 0 M4.98 0 C6.09 0, 6.64 0.55, 6.64 1.66 M4.98 0 C6.09 0, 6.64 0.55, 6.64 1.66 M6.64 1.66 C6.64 12.54, 6.64 23.42, 6.64 40.98 M6.64 1.66 C6.64 12.12, 6.64 22.58, 6.64 40.98 M6.64 40.98 C6.64 42.09, 6.09 42.64, 4.98 42.64 M6.64 40.98 C6.64 42.09, 6.09 42.64, 4.98 42.64 M4.98 42.64 C4.18 42.64, 3.38 42.64, 1.66 42.64 M4.98 42.64 C3.86 42.64, 2.73 42.64, 1.66 42.64 M1.66 42.64 C0.55 42.64, 0 42.09, 0 40.98 M1.66 42.64 C0.55 42.64, 0 42.09, 0 40.98 M0 40.98 C0 25.33, 0 9.68, 0 1.66 M0 40.98 C0 31.54, 0 22.11, 0 1.66 M0 1.66 C0 0.55, 0.55 0, 1.66 0 M0 1.66 C0 0.55, 0.55 0, 1.66 0" stroke="#000000" stroke-width="1" fill="none"></path></g><g stroke-linecap="round" transform="translate(238.46957555302924 104.54579415073965) rotate(0 3.3204333991097883 21.320677615335935)"><path d="M1.66 0 L6.23 0.42 L6.64 1.66 L6.64 40.98 L6.23 42.23 L4.98 42.64 L1.66 42.64 L0.42 42.23 L0 40.98 L0 1.66 L0.42 0.42 L1.66 0" stroke="none" stroke-width="0" fill="#228be6"></path><path d="M1.66 0 M1.66 0 C2.8 0, 3.94 0, 4.98 0 M1.66 0 C2.75 0, 3.84 0, 4.98 0 M4.98 0 C6.09 0, 6.64 0.55, 6.64 1.66 M4.98 0 C6.09 0, 6.64 0.55, 6.64 1.66 M6.64 1.66 C6.64 10.99, 6.64 20.33, 6.64 40.98 M6.64 1.66 C6.64 14.03, 6.64 26.39, 6.64 40.98 M6.64 40.98 C6.64 42.09, 6.09 42.64, 4.98 42.64 M6.64 40.98 C6.64 42.09, 6.09 42.64, 4.98 42.64 M4.98 42.64 C3.77 42.64, 2.57 42.64, 1.66 42.64 M4.98 42.64 C3.99 42.64, 2.99 42.64, 1.66 42.64 M1.66 42.64 C0.55 42.64, 0 42.09, 0 40.98 M1.66 42.64 C0.55 42.64, 0 42.09, 0 40.98 M0 40.98 C0 29.88, 0 18.79, 0 1.66 M0 40.98 C0 32.22, 0 23.46, 0 1.66 M0 1.66 C0 0.55, 0.55 0, 1.66 0 M0 1.66 C0 0.55, 0.55 0, 1.66 0" stroke="#000000" stroke-width="1" fill="none"></path></g><g transform="translate(51.2828475194583 150.81853486367766) rotate(346.16310820127717 81 27.5)"><text x="0" y="39" font-family="Virgil, Segoe UI Emoji" font-size="43.6301894262722px" fill="#000" text-anchor="start" style="white-space: pre;" direction="ltr">Pair Up</text></g></svg>
