<svg version="1.1" xmlns="http://www.w3.org/2000/svg" viewBox="0 0 402.0850628036876 414.87667533740125" width="804.1701256073752" height="829.7533506748025">
  <!-- svg-source:excalidraw -->
  
  <defs>
    <style class="style-fonts">
      @font-face {
        font-family: "Virgil";
        src: url("https://excalidraw.com/Virgil.woff2");
      }
      @font-face {
        font-family: "Cascadia";
        src: url("https://excalidraw.com/Cascadia.woff2");
      }
    </style>
  </defs>
  <g stroke-linecap="round" transform="translate(10 10) rotate(0 101.39388801551627 98.5490044673698)"><path d="M-2.88 -2.03 L201.06 2.71 L202.54 199.84 L-3.78 200.16" stroke="none" stroke-width="0" fill="#be4bdb"></path><path d="M-2.21 -1.26 C47.42 3.1, 98.85 1.7, 203.08 -0.16 M0.44 1.43 C79.33 2.12, 156.71 2.1, 203.84 1.58 M202.94 0.23 C202.46 79.01, 200.56 150.42, 204.61 197.95 M203.88 -0.56 C199.31 58.74, 201.47 118.26, 201.42 197.22 M204.17 198.38 C126.65 197.16, 56.51 200.58, -0.55 198.3 M202.22 196.95 C141.9 196.07, 79.93 196.66, 1.68 198.87 M-3.76 194.26 C0.33 152.02, -0.32 97.87, -1.23 2.88 M0.82 196.43 C0.17 147.87, -0.44 97.77, -0.71 -0.38" stroke="#000000" stroke-width="1" fill="none"></path></g><g stroke-linecap="round" transform="translate(46.11902365046126 33.97358424678674) rotate(0 101.39388801551638 98.54900446736983)"><path d="M-3.22 -2.08 L204.46 2.5 L204.73 197.17 L3.88 200.67" stroke="none" stroke-width="0" fill="#fab005"></path><path d="M2.39 -2 C69.59 -4.3, 135.89 -4.03, 205.55 2.56 M0.26 -0.87 C78.56 -2.91, 155.14 -2.5, 203.67 1.22 M202.71 -1.88 C207.24 41.11, 208.96 85.84, 200.4 199.15 M201.55 0.82 C199.46 43.17, 200.71 82.24, 200.81 197.32 M200.76 196.84 C157.95 195.46, 111.33 196.91, 2.84 196.52 M203.6 196.78 C131.15 194.85, 60.14 194.62, -0.1 197.41 M3.12 194.39 C-0.34 121.08, -5.7 39.51, 3.37 0.08 M-1.27 197.65 C3.09 141.19, -0.31 84.12, 1.33 -1" stroke="#000000" stroke-width="1" fill="none"></path></g><g stroke-linecap="round" transform="translate(95.745694140669 77.61952984557928) rotate(0 101.39388801551638 98.54900446736983)"><path d="M-2.63 1.83 L202.01 -3.74 L204.2 196.54 L-3.68 196.93" stroke="none" stroke-width="0" fill="#82c91e"></path><path d="M-3.47 -2.4 C68.85 -1.63, 130.04 -1.69, 204.29 2.24 M1.6 1.76 C70.71 -3.07, 141.62 -4.9, 201.7 0.29 M200.92 2.48 C197.16 49.75, 196.31 102, 201.19 194.62 M202.63 0.22 C204.68 72.81, 206.33 148.71, 203.35 198.05 M202.82 198.14 C144.36 193.09, 88.35 194.94, 2.89 194.42 M201.12 196.37 C146.27 197.37, 92.02 197.16, 1.27 197.15 M2.19 196.03 C-0.48 156.97, 4.08 110.54, 2.1 -3.25 M1.18 195.78 C1.36 148.28, 1.16 97.92, -1.49 0.39" stroke="#000000" stroke-width="1" fill="none"></path></g><g stroke-linecap="round" transform="translate(125.08768887036285 107.67468870672201) rotate(0 133.49868696666238 127.47941713982169)"><path d="M65.47 -0.62 L217.4 2.79 L238.25 4.98 L247.06 11.48 L256.34 21.85 L264.23 36.21 L266.09 54.65 L267.24 198.47 L264.56 211.54 L260.05 223.75 L256.66 234.21 L246.54 240.98 L231.48 252.15 L209.81 255.44 L56.02 255.46 L40.66 252.05 L31.6 250.33 L19.99 241.28 L11.53 234.53 L4.3 219.46 L0.27 200.73 L0.72 62.27 L2.17 41.06 L4.83 30.41 L11.52 21.28 L23.35 9.45 L42.45 0.84 L65.38 -0.4" stroke="none" stroke-width="0" fill="#fab005"></path><path d="M63.74 0 M63.74 0 C115.49 1.41, 164.15 -0.19, 203.26 0 M63.74 0 C108 1.69, 151.33 0.78, 203.26 0 M203.26 0 C245.03 1.85, 267.41 19.26, 267 63.74 M203.26 0 C245.39 -2.28, 267.02 20.51, 267 63.74 M267 63.74 C269.31 94.47, 267 124.22, 267 191.22 M267 63.74 C266.68 99.26, 267.5 135.11, 267 191.22 M267 191.22 C268.37 233.03, 243.87 256.06, 203.26 254.96 M267 191.22 C266.87 233.93, 244.22 254.66, 203.26 254.96 M203.26 254.96 C167.79 255.74, 135.91 255.14, 63.74 254.96 M203.26 254.96 C175.67 255.13, 146.52 253.81, 63.74 254.96 M63.74 254.96 C22.76 253.24, 0.25 235.43, 0 191.22 M63.74 254.96 C18.95 256.95, 0.58 235.37, 0 191.22 M0 191.22 C0.31 166.8, 0 139.88, 0 63.74 M0 191.22 C0.08 159.37, 1.44 126.12, 0 63.74 M0 63.74 C1.97 21.08, 20.28 1.97, 63.74 0 M0 63.74 C2.01 22.61, 21.6 1.04, 63.74 0" stroke="#000000" stroke-width="1" fill="none"></path></g><g stroke-linecap="round" transform="translate(140.83295411116546 122.53486507304149) rotate(0 120.05943951949484 111.8340017851765)"><path d="M84.06 6.22 C95.94 0.93, 111.7 0.03, 125.2 0.26 C138.69 0.48, 152.41 2.84, 165.03 7.58 C177.64 12.32, 190.71 20.14, 200.89 28.71 C211.08 37.27, 219.84 47.72, 226.13 58.94 C232.42 70.16, 236.6 83.35, 238.64 96.05 C240.67 108.74, 241.2 122.7, 238.35 135.11 C235.51 147.51, 228.96 159.54, 221.55 170.48 C214.13 181.42, 204.76 192.71, 193.88 200.74 C182.99 208.77, 169.31 214.79, 156.25 218.66 C143.19 222.53, 129.22 224.56, 115.52 223.96 C101.83 223.37, 86.61 219.81, 74.06 215.07 C61.51 210.33, 50.25 204.15, 40.2 195.53 C30.16 186.9, 20.38 174.74, 13.81 163.31 C7.24 151.88, 2.61 139.43, 0.78 126.95 C-1.04 114.47, -0.09 100.74, 2.85 88.45 C5.8 76.16, 11.12 64.14, 18.44 53.2 C25.76 42.25, 33.14 31.47, 46.77 22.77 C60.41 14.08, 88.52 4.41, 100.23 1.02 C111.94 -2.38, 116.74 0.38, 117.02 2.4 M73.62 9.53 C84.84 3.43, 101.21 1.61, 115.12 0.97 C129.03 0.33, 143.77 1.74, 157.06 5.7 C170.35 9.66, 184.07 16.98, 194.86 24.75 C205.65 32.52, 214.67 41.51, 221.8 52.32 C228.92 63.13, 234.99 77.09, 237.62 89.63 C240.25 102.17, 239.4 115.2, 237.6 127.54 C235.8 139.88, 233.12 152.57, 226.84 163.66 C220.56 174.76, 209.92 185.45, 199.92 194.12 C189.92 202.79, 179.62 210.81, 166.84 215.68 C154.05 220.55, 137.37 222.91, 123.21 223.35 C109.05 223.79, 94.76 222.35, 81.9 218.34 C69.03 214.33, 56.43 206.87, 46.01 199.3 C35.6 191.73, 26.46 183.5, 19.43 172.9 C12.4 162.3, 7 148.46, 3.85 135.7 C0.69 122.95, -1.11 108.94, 0.5 96.37 C2.12 83.81, 6.95 71.76, 13.56 60.32 C20.16 48.88, 30.04 36.42, 40.16 27.74 C50.27 19.07, 68.41 10.99, 74.25 8.27 C80.09 5.54, 74.48 9.9, 75.22 11.4" stroke="#000000" stroke-width="1" fill="none"></path></g><g transform="translate(248.24291568077183 129.5748238828636) rotate(0 18.5 22)"><text x="0" y="31" font-family="Virgil, Segoe UI Emoji" font-size="35.235022517686986px" fill="#000000" text-anchor="start" style="white-space: pre;" direction="ltr">12</text></g><g transform="translate(302.2530733136216 140.74634469412774) rotate(0 6 22)"><text x="0" y="31" font-family="Virgil, Segoe UI Emoji" font-size="35.235022517686986px" fill="#000000" text-anchor="start" style="white-space: pre;" direction="ltr">1</text></g><g stroke-linecap="round"><g transform="translate(260.9155294873592 237.9280047544146) rotate(0 18.232985007505476 -29.77597198208136)"><path d="M0.14 -0.43 C2.8 -4.44, 10.58 -15.04, 16.84 -24.82 C23.1 -34.6, 34.43 -53.23, 37.72 -59.12 M-1.25 -1.7 C1.27 -5.97, 9.95 -17.08, 16.38 -26.41 C22.81 -35.74, 33.96 -52.18, 37.34 -57.69" stroke="#000000" stroke-width="1" fill="none"></path></g></g><g stroke-linecap="round"><g transform="translate(261.1854933803618 237.20298180632153) rotate(0 -17.53522417416775 0.0886160739277102)"><path d="M-0.43 0.93 C-6.34 1.05, -30.1 1.09, -36.19 0.89 M1.54 0.37 C-4.37 0.14, -30.08 -0.93, -36.61 -0.85" stroke="#000000" stroke-width="1" fill="none"></path></g></g><g transform="translate(324.98362808841216 168.2286463672615) rotate(0 13.5 22)"><text x="0" y="31" font-family="Virgil, Segoe UI Emoji" font-size="35.23502251768694px" fill="#000000" text-anchor="start" style="white-space: pre;" direction="ltr">2</text></g><g transform="translate(348.9512755901808 209.0158393557216) rotate(0 13 22)"><text x="0" y="31" font-family="Virgil, Segoe UI Emoji" font-size="35.23502251768694px" fill="#000000" text-anchor="start" style="white-space: pre;" direction="ltr">3</text></g><g transform="translate(332.57003779160345 253.2193745105036) rotate(0 12.5 22)"><text x="0" y="31" font-family="Virgil, Segoe UI Emoji" font-size="35.23502251768697px" fill="#000000" text-anchor="start" style="white-space: pre;" direction="ltr">4</text></g><g transform="translate(299.01696982260705 283.45031598426385) rotate(0 12 22)"><text x="0" y="31" font-family="Virgil, Segoe UI Emoji" font-size="35.23502251768697px" fill="#000000" text-anchor="start" style="white-space: pre;" direction="ltr">5</text></g><g transform="translate(253.35513992985102 307.2008578087789) rotate(0 12.5 22)"><text x="0" y="31" font-family="Virgil, Segoe UI Emoji" font-size="35.23502251768697px" fill="#000000" text-anchor="start" style="white-space: pre;" direction="ltr">6</text></g><g transform="translate(210.08147248693717 292.38441941974963) rotate(0 10.5 22)"><text x="0" y="31" font-family="Virgil, Segoe UI Emoji" font-size="35.23502251768701px" fill="#000000" text-anchor="start" style="white-space: pre;" direction="ltr">7</text></g><g transform="translate(171.44075826993162 255.45597261958903) rotate(0 14.5 22)"><text x="0" y="31" font-family="Virgil, Segoe UI Emoji" font-size="35.235022517686986px" fill="#000000" text-anchor="start" style="white-space: pre;" direction="ltr">8</text></g><g transform="translate(153.85519841258383 214.25095361074307) rotate(0 11.5 22)"><text x="0" y="31" font-family="Virgil, Segoe UI Emoji" font-size="35.23502251768697px" fill="#000000" text-anchor="start" style="white-space: pre;" direction="ltr">9</text></g><g transform="translate(167.49598907779773 168.67105038868067) rotate(0 18 22)"><text x="0" y="31" font-family="Virgil, Segoe UI Emoji" font-size="35.235022517686964px" fill="#000000" text-anchor="start" style="white-space: pre;" direction="ltr">10</text></g><g transform="translate(209.09425610563653 137.73144321397035) rotate(0 10.5 22)"><text x="0" y="31" font-family="Virgil, Segoe UI Emoji" font-size="35.23502251768701px" fill="#000000" text-anchor="start" style="white-space: pre;" direction="ltr">11</text></g><g stroke-linecap="round" transform="translate(173.2088170837635 356.6221516319039) rotate(0 94.711493416434 24.12726185274869)"><path d="M-2.34 -0.67 L191.39 0.75 L188 44.42 L0.34 46.53" stroke="none" stroke-width="0" fill="#fd7e14"></path><path d="M-2.68 2.39 C57.8 3.26, 115.6 3.18, 189.82 3.76 M0.59 1.82 C55.88 2.19, 112.03 4.72, 190.05 1.11 M190.88 2.04 C190.82 10.34, 190.37 27.69, 188.63 51.39 M187.59 -1.37 C189.24 16.76, 188.82 29.55, 189.21 49.29 M187.88 45.69 C118.26 50.19, 42.23 47.22, -2.43 46.38 M189.53 49.57 C118.99 46.6, 49.24 44.62, 1.31 46.49 M-1.67 50.7 C-4.03 37.23, -2.88 21.46, -3.54 1.47 M0.25 50.15 C0.15 36.54, 0.43 26.09, -1.99 -1.66" stroke="#000000" stroke-width="1" fill="none"></path></g><g transform="translate(210.14534702902097 366.1637404384056) rotate(0 61.5 16)"><text x="0" y="23" font-family="Virgil, Segoe UI Emoji" font-size="25.313908951768106px" fill="#fff" text-anchor="start" style="white-space: pre;" direction="ltr">5 Minutes</text></g></svg>
