<svg version="1.1" xmlns="http://www.w3.org/2000/svg" viewBox="0 0 404.1658682174311 485.2307865887328" width="808.3317364348623" height="970.4615731774657">
  <!-- svg-source:excalidraw -->
  
  <defs>
    <style class="style-fonts">
      @font-face {
        font-family: "Virgil";
        src: url("https://excalidraw.com/Virgil.woff2");
      }
      @font-face {
        font-family: "Cascadia";
        src: url("https://excalidraw.com/Cascadia.woff2");
      }
    </style>
  </defs>
  <g stroke-linecap="round" transform="translate(165.4140495157917 10) rotate(0 101.39388801551627 98.5490044673698)"><path d="M-3.18 -1.16 L204.37 -0.35 L205.53 198.28 L3.95 195.94" stroke="none" stroke-width="0" fill="#fa5252"></path><path d="M0.36 2.65 C48.27 -2.99, 95.56 -6.57, 205.1 2.43 M-1.57 0.2 C46.22 2.15, 89.77 1.45, 204.47 0.49 M206.11 3.92 C202.64 73.76, 197.35 143.07, 201.28 200.86 M204.77 1.6 C205.73 73.96, 205.58 148.33, 202.6 198.82 M205.61 199.52 C151.03 199.66, 103.41 194.53, 1.97 195.45 M201.45 197.91 C130.44 198.81, 59.99 199.7, -1.05 197.02 M-0.08 194.75 C-6.26 152.6, -4.43 117.1, 1.94 1.17 M0.9 198.42 C4.25 152.3, 2.36 107.61, -0.05 0.28" stroke="#000000" stroke-width="1" fill="none"></path></g><g stroke-linecap="round" transform="translate(10 36.0650818786163) rotate(0 101.39388801551627 98.5490044673698)"><path d="M-2.63 1.83 L202.01 -3.74 L204.2 196.54 L-3.68 196.93" stroke="none" stroke-width="0" fill="#82c91e"></path><path d="M-3.47 -2.4 C68.85 -1.63, 130.04 -1.69, 204.29 2.24 M1.6 1.76 C70.71 -3.07, 141.62 -4.9, 201.7 0.29 M200.92 2.48 C197.16 49.75, 196.31 102, 201.19 194.62 M202.63 0.22 C204.68 72.81, 206.33 148.71, 203.35 198.05 M202.82 198.14 C144.36 193.09, 88.35 194.94, 2.89 194.42 M201.12 196.37 C146.27 197.37, 92.02 197.16, 1.27 197.15 M2.19 196.03 C-0.48 156.97, 4.08 110.54, 2.1 -3.25 M1.18 195.78 C1.36 148.28, 1.16 97.92, -1.49 0.39" stroke="#000000" stroke-width="1" fill="none"></path></g><g stroke-linecap="round" transform="translate(127.16849428410637 178.02879995805358) rotate(0 133.49868696666238 127.47941713982169)"><path d="M65.47 -0.62 L217.4 2.79 L238.25 4.98 L247.06 11.48 L256.34 21.85 L264.23 36.21 L266.09 54.65 L267.24 198.47 L264.56 211.54 L260.05 223.75 L256.66 234.21 L246.54 240.98 L231.48 252.15 L209.81 255.44 L56.02 255.46 L40.66 252.05 L31.6 250.33 L19.99 241.28 L11.53 234.53 L4.3 219.46 L0.27 200.73 L0.72 62.27 L2.17 41.06 L4.83 30.41 L11.52 21.28 L23.35 9.45 L42.45 0.84 L65.38 -0.4" stroke="none" stroke-width="0" fill="#fab005"></path><path d="M63.74 0 M63.74 0 C115.49 1.41, 164.15 -0.19, 203.26 0 M63.74 0 C108 1.69, 151.33 0.78, 203.26 0 M203.26 0 C245.03 1.85, 267.41 19.26, 267 63.74 M203.26 0 C245.39 -2.28, 267.02 20.51, 267 63.74 M267 63.74 C269.31 94.47, 267 124.22, 267 191.22 M267 63.74 C266.68 99.26, 267.5 135.11, 267 191.22 M267 191.22 C268.37 233.03, 243.87 256.06, 203.26 254.96 M267 191.22 C266.87 233.93, 244.22 254.66, 203.26 254.96 M203.26 254.96 C167.79 255.74, 135.91 255.14, 63.74 254.96 M203.26 254.96 C175.67 255.13, 146.52 253.81, 63.74 254.96 M63.74 254.96 C22.76 253.24, 0.25 235.43, 0 191.22 M63.74 254.96 C18.95 256.95, 0.58 235.37, 0 191.22 M0 191.22 C0.31 166.8, 0 139.88, 0 63.74 M0 191.22 C0.08 159.37, 1.44 126.12, 0 63.74 M0 63.74 C1.97 21.08, 20.28 1.97, 63.74 0 M0 63.74 C2.01 22.61, 21.6 1.04, 63.74 0" stroke="#000000" stroke-width="1" fill="none"></path></g><g stroke-linecap="round" transform="translate(142.91375952490898 192.88897632437306) rotate(0 120.05943951949484 111.8340017851765)"><path d="M84.06 6.22 C95.94 0.93, 111.7 0.03, 125.2 0.26 C138.69 0.48, 152.41 2.84, 165.03 7.58 C177.64 12.32, 190.71 20.14, 200.89 28.71 C211.08 37.27, 219.84 47.72, 226.13 58.94 C232.42 70.16, 236.6 83.35, 238.64 96.05 C240.67 108.74, 241.2 122.7, 238.35 135.11 C235.51 147.51, 228.96 159.54, 221.55 170.48 C214.13 181.42, 204.76 192.71, 193.88 200.74 C182.99 208.77, 169.31 214.79, 156.25 218.66 C143.19 222.53, 129.22 224.56, 115.52 223.96 C101.83 223.37, 86.61 219.81, 74.06 215.07 C61.51 210.33, 50.25 204.15, 40.2 195.53 C30.16 186.9, 20.38 174.74, 13.81 163.31 C7.24 151.88, 2.61 139.43, 0.78 126.95 C-1.04 114.47, -0.09 100.74, 2.85 88.45 C5.8 76.16, 11.12 64.14, 18.44 53.2 C25.76 42.25, 33.14 31.47, 46.77 22.77 C60.41 14.08, 88.52 4.41, 100.23 1.02 C111.94 -2.38, 116.74 0.38, 117.02 2.4 M73.62 9.53 C84.84 3.43, 101.21 1.61, 115.12 0.97 C129.03 0.33, 143.77 1.74, 157.06 5.7 C170.35 9.66, 184.07 16.98, 194.86 24.75 C205.65 32.52, 214.67 41.51, 221.8 52.32 C228.92 63.13, 234.99 77.09, 237.62 89.63 C240.25 102.17, 239.4 115.2, 237.6 127.54 C235.8 139.88, 233.12 152.57, 226.84 163.66 C220.56 174.76, 209.92 185.45, 199.92 194.12 C189.92 202.79, 179.62 210.81, 166.84 215.68 C154.05 220.55, 137.37 222.91, 123.21 223.35 C109.05 223.79, 94.76 222.35, 81.9 218.34 C69.03 214.33, 56.43 206.87, 46.01 199.3 C35.6 191.73, 26.46 183.5, 19.43 172.9 C12.4 162.3, 7 148.46, 3.85 135.7 C0.69 122.95, -1.11 108.94, 0.5 96.37 C2.12 83.81, 6.95 71.76, 13.56 60.32 C20.16 48.88, 30.04 36.42, 40.16 27.74 C50.27 19.07, 68.41 10.99, 74.25 8.27 C80.09 5.54, 74.48 9.9, 75.22 11.4" stroke="#000000" stroke-width="1" fill="none"></path></g><g transform="translate(250.32372109451535 199.92893513419517) rotate(0 17.61751125884348 22.021889073554348)"><text x="0" y="31.043778147108696" font-family="Virgil, Segoe UI Emoji" font-size="35.235022517686986px" fill="#000000" text-anchor="start" style="white-space: pre;" direction="ltr">12</text></g><g transform="translate(304.3338787273651 211.10045594545932) rotate(0 4.40437781471087 22.021889073554348)"><text x="0" y="31.043778147108696" font-family="Virgil, Segoe UI Emoji" font-size="35.235022517686986px" fill="#000000" text-anchor="start" style="white-space: pre;" direction="ltr">1</text></g><g stroke-linecap="round"><g transform="translate(262.9963349011027 308.28211600574616) rotate(0 -6.9580741324850806 -36.298777829627625)"><path d="M0.14 -0.43 C-1.4 -7.56, -6.09 -31.57, -8.39 -43.53 C-10.69 -55.48, -12.6 -67.22, -13.67 -72.17 M-1.25 -1.7 C-2.94 -9.09, -6.72 -33.61, -8.85 -45.12 C-10.99 -56.62, -13.07 -66.17, -14.05 -70.74" stroke="#000000" stroke-width="1" fill="none"></path></g></g><g stroke-linecap="round"><g transform="translate(263.2662987941053 307.5570930576531) rotate(0 -17.53522417416775 0.0886160739277102)"><path d="M-0.43 0.93 C-6.34 1.05, -30.1 1.09, -36.19 0.89 M1.54 0.37 C-4.37 0.14, -30.08 -0.93, -36.61 -0.85" stroke="#000000" stroke-width="1" fill="none"></path></g></g><g transform="translate(327.0644335021557 238.58275761859306) rotate(0 12.112038990454948 22.021889073554348)"><text x="0" y="31.043778147108696" font-family="Virgil, Segoe UI Emoji" font-size="35.23502251768694px" fill="#000000" text-anchor="start" style="white-space: pre;" direction="ltr">2</text></g><g transform="translate(351.0320810039243 279.36995060705317) rotate(0 12.112038990454948 22.021889073554348)"><text x="0" y="31.043778147108696" font-family="Virgil, Segoe UI Emoji" font-size="35.23502251768694px" fill="#000000" text-anchor="start" style="white-space: pre;" direction="ltr">3</text></g><g transform="translate(334.650843205347 323.5734857618352) rotate(0 11.01094453677706 22.021889073554348)"><text x="0" y="31.043778147108696" font-family="Virgil, Segoe UI Emoji" font-size="35.23502251768697px" fill="#000000" text-anchor="start" style="white-space: pre;" direction="ltr">4</text></g><g transform="translate(301.09777523635057 353.8044272355954) rotate(0 11.01094453677706 22.021889073554348)"><text x="0" y="31.043778147108696" font-family="Virgil, Segoe UI Emoji" font-size="35.23502251768697px" fill="#000000" text-anchor="start" style="white-space: pre;" direction="ltr">5</text></g><g transform="translate(255.43594534359454 377.55496906011047) rotate(0 11.01094453677706 22.021889073554348)"><text x="0" y="31.043778147108696" font-family="Virgil, Segoe UI Emoji" font-size="35.23502251768697px" fill="#000000" text-anchor="start" style="white-space: pre;" direction="ltr">6</text></g><g transform="translate(212.1622779006807 362.7385306710812) rotate(0 9.909850083099514 22.021889073554348)"><text x="0" y="31.043778147108696" font-family="Virgil, Segoe UI Emoji" font-size="35.23502251768701px" fill="#000000" text-anchor="start" style="white-space: pre;" direction="ltr">7</text></g><g transform="translate(173.52156368367514 325.8100838709206) rotate(0 13.213133444132609 22.021889073554348)"><text x="0" y="31.043778147108696" font-family="Virgil, Segoe UI Emoji" font-size="35.235022517686986px" fill="#000000" text-anchor="start" style="white-space: pre;" direction="ltr">8</text></g><g transform="translate(155.93600382632735 284.60506486207464) rotate(0 11.010944536777174 22.021889073554348)"><text x="0" y="31.043778147108696" font-family="Virgil, Segoe UI Emoji" font-size="35.23502251768697px" fill="#000000" text-anchor="start" style="white-space: pre;" direction="ltr">9</text></g><g transform="translate(169.57679449154125 239.02516164001224) rotate(0 16.516416805165818 22.021889073554348)"><text x="0" y="31.043778147108696" font-family="Virgil, Segoe UI Emoji" font-size="35.235022517686964px" fill="#000000" text-anchor="start" style="white-space: pre;" direction="ltr">10</text></g><g transform="translate(211.17506151938005 208.08555446530193) rotate(0 9.909850083099514 22.021889073554348)"><text x="0" y="31.043778147108696" font-family="Virgil, Segoe UI Emoji" font-size="35.23502251768701px" fill="#000000" text-anchor="start" style="white-space: pre;" direction="ltr">11</text></g><g stroke-linecap="round" transform="translate(175.28962249750703 426.97626288323545) rotate(0 94.711493416434 24.12726185274869)"><path d="M-2.34 -0.67 L191.39 0.75 L188 44.42 L0.34 46.53" stroke="none" stroke-width="0" fill="#fd7e14"></path><path d="M-2.68 2.39 C57.8 3.26, 115.6 3.18, 189.82 3.76 M0.59 1.82 C55.88 2.19, 112.03 4.72, 190.05 1.11 M190.88 2.04 C190.82 10.34, 190.37 27.69, 188.63 51.39 M187.59 -1.37 C189.24 16.76, 188.82 29.55, 189.21 49.29 M187.88 45.69 C118.26 50.19, 42.23 47.22, -2.43 46.38 M189.53 49.57 C118.99 46.6, 49.24 44.62, 1.31 46.49 M-1.67 50.7 C-4.03 37.23, -2.88 21.46, -3.54 1.47 M0.25 50.15 C0.15 36.54, 0.43 26.09, -1.99 -1.66" stroke="#000000" stroke-width="1" fill="none"></path></g><g transform="translate(212.2261524427645 436.5178516897372) rotate(0 47 16)"><text x="0" y="23" font-family="Virgil, Segoe UI Emoji" font-size="25.313908951768106px" fill="#fff" text-anchor="start" style="white-space: pre;" direction="ltr">ASAP :)</text></g><g stroke-linecap="round" transform="translate(44.08841779705108 74.66296995384255) rotate(0 14.678057222713733 13.120025166437074)"><path d="M-1.17 8.26 C-1.17 8.26, -1.17 8.26, -1.17 8.26 M-1.17 8.26 C-1.17 8.26, -1.17 8.26, -1.17 8.26 M0.33 11.21 C0.47 9.04, 1.56 8.35, 8.06 6.34 M1.01 12.6 C2.03 10.58, 4.06 9.05, 7.53 5.2 M0.75 16.98 C4.98 9.93, 10.14 11.97, 17.93 0.17 M1.64 16.24 C6.07 12, 10.4 6.81, 15.04 1.55 M7.97 18.92 C7.36 13.87, 12.05 7.36, 19 -0.36 M5.1 21.18 C9.84 14.62, 16.36 4.19, 21.78 3.39 M5.87 24.05 C10.62 21.27, 17.29 10.18, 24.53 0.2 M8.44 22.02 C14.15 16.91, 21.56 8.69, 23.46 2.51 M12.97 29.57 C18.4 22.35, 20.73 9.7, 26.36 7.82 M8.73 25.12 C16.87 19.87, 23.62 11.24, 27.69 5.52 M12.8 25.39 C18.83 20.64, 19.06 18.81, 26.08 12.95 M13.35 28.21 C18.16 24.47, 19.05 17.91, 29.74 12.56 M16.1 26.64 C17.84 25.19, 26.75 23.68, 32.22 16.97 M18.98 26.74 C23.23 24.46, 26.07 20.48, 29.33 15.67 M7.81 24.55 C7.81 24.55, 7.81 24.55, 7.81 24.55 M7.81 24.55 C7.81 24.55, 7.81 24.55, 7.81 24.55 M14.14 24.48 C10.7 22.73, 11.07 20.66, 2.21 17.19 M14.58 25.65 C11.81 23.36, 9.96 21.72, 3.28 16.19 M18.99 26.03 C10.64 21.08, 9.49 12.63, 3.21 10.43 M17.87 23.54 C14.42 17.82, 9.56 15.37, 0.43 5.53 M21.55 18.23 C15.34 15.61, 13.94 15.5, 4.77 2.15 M23.95 22.44 C17.57 18.8, 10.78 14.39, 4.96 3.4 M27.04 23.34 C19.14 16.04, 12.26 13.82, 8.07 5.36 M28.57 21.22 C23.26 15.17, 17.36 11.8, 8.87 4.18 M30.91 13.61 C20.13 7.9, 13.51 3.85, 14.57 -1.47 M29.08 13.65 C25.19 11.23, 18.55 10.16, 10.2 1.94 M31.4 8.88 C21.34 6.41, 19.09 1.75, 14.33 -4.99 M28.42 10.3 C22.33 6.11, 19.53 2.46, 15.08 -2.94" stroke="#000" stroke-width="0.5" fill="none"></path><path d="M14.75 -1.38 C17.48 -1.3, 22.29 -0.31, 24.51 2.07 C26.72 4.44, 27.71 9.87, 28.04 12.87 C28.37 15.86, 28.43 17.92, 26.48 20.04 C24.53 22.15, 19.47 24.82, 16.35 25.56 C13.22 26.3, 9.9 25.7, 7.71 24.47 C5.53 23.24, 4.73 20.85, 3.24 18.16 C1.74 15.48, -1.8 10.73, -1.25 8.35 C-0.69 5.96, 3.13 4.86, 6.59 3.83 C10.05 2.81, 16.17 1.85, 19.52 2.21 C22.87 2.58, 26.41 6.16, 26.69 6.02 M23.42 7.46 C25.56 9.48, 28.77 11.47, 28.92 14.21 C29.07 16.95, 26.55 21.52, 24.3 23.9 C22.04 26.28, 18.29 28.46, 15.4 28.48 C12.52 28.5, 9.37 26.12, 6.98 24.04 C4.58 21.97, 2.53 18.69, 1.03 16.04 C-0.48 13.4, -3.11 11, -2.06 8.16 C-1 5.33, 4.45 0.48, 7.37 -0.97 C10.29 -2.42, 11.93 -1.57, 15.48 -0.54 C19.03 0.49, 26.69 3.86, 28.68 5.19 C30.67 6.53, 27.61 7.41, 27.41 7.48" stroke="#000" stroke-width="1" fill="none"></path></g><g stroke-linecap="round" transform="translate(115.28815734791465 50.813452387912264) rotate(0 14.678057222713733 13.120025166437074)"><path d="M5.16 4.48 C5.16 4.48, 5.16 4.48, 5.16 4.48 M5.16 4.48 C5.16 4.48, 5.16 4.48, 5.16 4.48 M1.22 15.84 C6.02 6.34, 10.94 1.06, 13.45 -0.01 M3.76 13.54 C6.32 9.51, 9.4 6.88, 12.21 2.21 M4.6 16.94 C10.07 10.79, 18.33 6.45, 16.19 1.37 M5.9 19.5 C6.07 14.93, 11.89 12.16, 17.76 0.31 M3.93 25.15 C14.21 18.15, 19.46 8.04, 20.54 3.27 M6.57 20.91 C9.84 16.73, 17.17 11.19, 21.96 4.6 M5.3 23.27 C10.97 20.34, 15.01 11.6, 28.09 2.4 M8.35 23.82 C16.24 18.31, 22.34 8.88, 24.83 6.06 M10.37 23.83 C17.12 16.06, 24.59 16.25, 29.99 9.76 M11.79 27.03 C16.79 20.71, 24.95 12.82, 29.68 6.54 M17.32 29.65 C24.6 22.25, 25.99 16.25, 30.38 12.21 M18.83 25.51 C20.03 22.41, 26.33 18.15, 30 10.16 M3.38 20.5 C3.38 20.5, 3.38 20.5, 3.38 20.5 M3.38 20.5 C3.38 20.5, 3.38 20.5, 3.38 20.5 M14.57 23.87 C11.66 19.2, 8.1 19.64, 0.73 15.78 M11.49 23.03 C8.88 21.04, 3.96 17.57, 2.69 13.7 M19.37 21.45 C11.93 16.92, 9.44 16.62, 3.89 10.97 M17.88 23.74 C15.51 19.93, 12.7 15.18, 4.58 11.16 M19.81 22.37 C23.08 15.71, 16.78 10.71, 8.97 7.28 M24.99 23.9 C18.45 16.4, 9.14 8.99, 4.47 8.07 M30.67 22.76 C17.22 12.46, 9.5 5.99, 6.7 5.97 M28.29 20.93 C20.54 16.77, 16.42 9.81, 8.19 1.6 M27.09 19.02 C20.47 7.83, 15.03 3.84, 8.12 -0.02 M30.05 16.04 C24.26 12.12, 21.03 11.58, 11.44 0.74 M32.25 14.88 C27.68 7.77, 20 3.57, 13 -2.3 M30.27 13.6 C27.3 11.01, 22.3 3.87, 14.52 -3.42" stroke="#000" stroke-width="0.5" fill="none"></path><path d="M11.25 -0.34 C14.48 -0.55, 21.04 0.4, 24.11 2.23 C27.19 4.06, 28.7 8.02, 29.71 10.63 C30.71 13.25, 31.47 15.65, 30.12 17.91 C28.77 20.18, 24.85 22.94, 21.61 24.21 C18.38 25.49, 13.81 26.24, 10.72 25.57 C7.62 24.9, 4.62 22.52, 3.03 20.19 C1.45 17.86, 0.84 14.23, 1.22 11.59 C1.59 8.94, 3.29 6.11, 5.29 4.34 C7.28 2.57, 11.64 1.72, 13.21 0.97 C14.78 0.23, 14.97 -0.07, 14.73 -0.14 M22.24 1.66 C23.61 3.28, 25.74 6.79, 26.47 9.8 C27.21 12.81, 28.02 17.35, 26.65 19.72 C25.27 22.09, 21.63 23.55, 18.21 24.01 C14.79 24.48, 9.45 23.56, 6.15 22.52 C2.85 21.47, -0.88 19.5, -1.58 17.75 C-2.29 15.99, 0.96 14.91, 1.94 12 C2.92 9.08, 2.33 2, 4.29 0.24 C6.26 -1.51, 10.17 0.95, 13.73 1.47 C17.29 1.98, 23.86 2.74, 25.64 3.33 C27.42 3.92, 24.64 4.54, 24.43 4.99" stroke="#000" stroke-width="1" fill="none"></path></g><g stroke-linecap="round" transform="translate(25.74084626865897 179.99523864206185) rotate(0 14.678057222713733 13.120025166437074)"><path d="M5.19 3.19 C5.19 3.19, 5.19 3.19, 5.19 3.19 M5.19 3.19 C5.19 3.19, 5.19 3.19, 5.19 3.19 M4.55 15.35 C7.65 11.03, 8.43 2.65, 12.13 1.87 M1.37 12.02 C6.49 9.18, 10.61 3.79, 13.13 0.15 M1.84 15.86 C7.66 11.34, 7.68 9.76, 14.46 4.18 M2.39 18.68 C7.05 15.12, 7.78 8.74, 18.13 3.79 M1.58 20.71 C4.22 18.36, 14.8 15.89, 22.77 6.2 M4.78 20.83 C10.57 17.13, 14.76 11.53, 19.55 4.76 M11.65 26.18 C13.19 18.6, 16.14 15.47, 25.44 5.87 M7.29 22.3 C15.58 16.76, 22.78 8.21, 23.28 5.54 M10.59 24.72 C14.56 20.3, 23.87 15.74, 25.04 8.55 M11.21 26.37 C14.69 22.37, 19.48 18.67, 26.57 7.12 M17.39 29.41 C19.06 23.81, 27.94 15.09, 34.17 12.95 M16.28 26.91 C22.15 21.52, 26.61 18.82, 31.39 8.05 M20.48 25.54 C20.66 23.82, 23.95 23.92, 30.36 15.94 M22.04 28.27 C23.19 26.08, 24.06 23.43, 30.49 16.74 M2.67 21.32 C2.67 21.32, 2.67 21.32, 2.67 21.32 M2.67 21.32 C2.67 21.32, 2.67 21.32, 2.67 21.32 M12.49 21.84 C6.39 18.7, 2.78 16.59, 3.59 13.58 M11.39 21.86 C9.26 20.57, 5.49 20.11, 0.97 15.62 M21.05 22.31 C10.31 19.26, 7.43 14.04, 1.71 6.48 M18.07 23.73 C11.1 18.78, 7.43 14.36, 2.47 8.52 M26.02 24.25 C18.42 17.19, 13.62 16.58, 4.31 3.17 M24.74 24 C19.89 18.17, 10.76 15.56, 3.2 8.31 M30.59 24.53 C22.05 15.23, 14.14 14.16, 8.24 4.01 M25.64 20.12 C21.31 18.93, 18.79 12.94, 4.77 4.24 M32.5 17.47 C20.83 13.41, 17.51 2.62, 12.01 5.4 M30.62 19.64 C23.03 14.19, 18.23 8.04, 11.25 1.21 M32.26 14.94 C27.34 6.79, 26.09 4.18, 13.71 3.16 M31.8 12.08 C23.67 7.64, 18.59 5.1, 14.46 -1.69" stroke="#000" stroke-width="0.5" fill="none"></path><path d="M5.44 2.91 C7.77 0.98, 11.02 0.52, 14.14 0.66 C17.25 0.81, 21.52 2.37, 24.14 3.77 C26.75 5.18, 29.25 6.28, 29.8 9.09 C30.35 11.91, 29.2 17.91, 27.43 20.66 C25.67 23.41, 22.17 25, 19.21 25.59 C16.25 26.18, 12.39 24.88, 9.66 24.19 C6.92 23.49, 4.28 23.6, 2.8 21.43 C1.33 19.27, -0.15 14.91, 0.81 11.21 C1.76 7.51, 6.91 1.12, 8.55 -0.78 C10.2 -2.69, 10.63 -0.6, 10.69 -0.21 M13.56 2.49 C17.02 2.7, 24.29 2.64, 26.65 4.65 C29 6.66, 27.82 12.22, 27.7 14.55 C27.58 16.89, 27.46 17.24, 25.93 18.67 C24.41 20.11, 21.46 22.27, 18.54 23.16 C15.63 24.04, 11.58 24.3, 8.44 23.98 C5.31 23.65, 0.84 23.36, -0.26 21.23 C-1.37 19.11, 0.59 14.05, 1.81 11.22 C3.03 8.39, 4.86 5.64, 7.05 4.25 C9.24 2.86, 13.53 3.93, 14.95 2.89 C16.37 1.86, 15.05 -2.11, 15.57 -1.97" stroke="#000" stroke-width="1" fill="none"></path></g><g stroke-linecap="round" transform="translate(42.93500899121045 73.7095473522404) rotate(0 14.678057222713733 13.120025166437074)"><path d="M8.33 1.94 C8.33 1.94, 8.33 1.94, 8.33 1.94 M8.33 1.94 C8.33 1.94, 8.33 1.94, 8.33 1.94 M5.23 16.22 C7.23 14.05, 9.02 5.88, 12.9 2.2 M1.99 15.94 C3.54 13.16, 5.9 8.1, 13.63 3.14 M4.13 19.15 C9.77 14.04, 18.86 9.99, 21.97 -1.2 M5.56 18.75 C5.1 16.29, 9.87 10.06, 21.24 -0.19 M8.24 23.7 C7.53 19.13, 12.98 13.01, 19.97 1.16 M5.61 24.54 C9.9 16.58, 17.4 11.38, 25.12 2.59 M12.42 23.52 C19.44 20.03, 22.29 13.13, 23.47 3.96 M11.78 26.12 C15.29 16.45, 18.61 13.09, 27.85 4.42 M13.52 26.19 C19.16 18.99, 19.63 21.52, 30.39 10.47 M12.43 26.92 C21.1 17.41, 24.72 10.85, 28.22 7.73 M14.33 30.87 C23.67 24.55, 24.39 13.24, 32.71 17.44 M17.01 26.82 C23.96 23.91, 28.46 18.24, 31.5 15.34 M4.68 22.05 C4.68 22.05, 4.68 22.05, 4.68 22.05 M4.68 22.05 C4.68 22.05, 4.68 22.05, 4.68 22.05 M12.59 22.95 C11.21 19.27, 11.42 19.24, 1.2 11.79 M15.48 25.76 C11.8 21.02, 6.68 19.53, 2.03 14.91 M15.73 22.49 C13.47 15.34, 7.23 15.87, 2.8 12.72 M15.73 23.93 C11.98 20.24, 7.24 13.69, 3.19 11.93 M23.38 26.58 C19.58 18.14, 5.38 12.63, 3.28 4.21 M25.36 22.93 C18.97 21.07, 16.42 16.72, 6.7 8 M29.19 16.52 C22.69 19.02, 14.01 9.7, 9.09 5.9 M24.92 18.06 C20.32 13.2, 11.43 6.34, 9.05 4.3 M31.81 13.34 C21.38 13.84, 18.9 6.01, 10.8 3.02 M28.06 17.54 C24.37 10.88, 18.7 7.35, 12.07 -1.38 M32.09 11.19 C26.79 8.03, 23.66 7.97, 15.49 -0.5 M32.49 13.72 C29.24 8.36, 26.29 7.16, 14.64 -1.12" stroke="#000" stroke-width="0.5" fill="none"></path><path d="M8.06 2.24 C10.75 1.11, 17.74 -0.56, 21.22 0.2 C24.7 0.96, 27.73 4.22, 28.95 6.81 C30.18 9.39, 29.48 12.67, 28.6 15.71 C27.72 18.74, 25.92 23.39, 23.67 25.02 C21.42 26.64, 18.23 25.92, 15.1 25.46 C11.97 24.99, 7.25 24.16, 4.9 22.24 C2.55 20.33, 1.16 16.32, 0.98 13.96 C0.8 11.6, 0.51 9.99, 3.85 8.09 C7.18 6.19, 16.64 1.69, 21 2.56 C25.37 3.43, 29.96 13.57, 30.04 13.33 M15.95 2.44 C18.92 3.04, 26 4.66, 28.7 6.17 C31.39 7.68, 32.79 8.96, 32.13 11.53 C31.47 14.09, 27.13 18.73, 24.74 21.56 C22.34 24.39, 21.1 27.78, 17.77 28.49 C14.45 29.19, 7.92 27.8, 4.79 25.79 C1.65 23.78, -0.44 18.94, -1.01 16.4 C-1.58 13.86, -0.23 13.03, 1.37 10.56 C2.97 8.08, 5.6 3.65, 8.58 1.55 C11.56 -0.56, 17.68 -1.98, 19.22 -2.07 C20.75 -2.16, 18.58 0.61, 17.79 1.02" stroke="#000" stroke-width="1" fill="none"></path></g><g stroke-linecap="round" transform="translate(115.7532415438177 49.41354895824276) rotate(0 14.678057222713733 13.120025166437074)"><path d="M3.14 6.7 C3.14 6.7, 3.14 6.7, 3.14 6.7 M3.14 6.7 C3.14 6.7, 3.14 6.7, 3.14 6.7 M4.01 19.34 C4.65 7.67, 4.54 8.72, 15.15 0.1 M-0.11 16.4 C3.96 11.53, 5.36 11.47, 13.57 2.5 M-1.65 22.83 C10.41 10.15, 12.34 3.15, 14.84 1.82 M-0.03 22.13 C9.15 14.12, 13.39 3.41, 20.02 3.34 M2.98 21.37 C15.28 18.5, 22.06 9.61, 26.65 5.69 M4.53 22.68 C11.33 16.64, 12.68 12.78, 24.27 3.85 M4.79 27.7 C9.7 23.35, 14.57 20.7, 22.71 6.93 M7.11 24.33 C12.36 19.16, 18.29 15.97, 25.67 3.95 M14.93 29.31 C17.22 19.74, 16.24 17.57, 31.18 9.64 M10.75 27.32 C17.74 19.5, 22.57 15.34, 29.21 8.36 M11.01 32.85 C18.21 28.28, 23.16 17.4, 29.9 16.47 M14.07 31.54 C21.76 24, 24.3 17.83, 28.91 11.52 M2.68 21.3 C2.68 21.3, 2.68 21.3, 2.68 21.3 M2.68 21.3 C2.68 21.3, 2.68 21.3, 2.68 21.3 M10.92 22.52 C10.16 20.57, 2.38 15.28, 3.19 15.85 M15.07 24.31 C8.93 22.95, 6.17 18.14, 1.01 15.46 M17.88 27.23 C14.8 18.03, 7.92 14.85, 6.29 7.12 M19.05 23.48 C14.57 20.23, 11.09 18.53, 2.83 10.74 M26.38 24.58 C22.48 16.22, 19.07 16, 2.75 5.4 M22.53 25.38 C19.7 20.46, 17.18 16.83, 5.31 8 M27.35 24.43 C19.38 20.86, 22.23 14.32, 3.42 0.65 M26.76 19.47 C22.63 17.17, 18.73 13.34, 5.27 2.37 M31.66 19.25 C22.2 10.79, 20.38 6.08, 9.72 4.95 M30.13 19.11 C23.07 14.15, 18.42 7.86, 10.75 3.51 M33.46 17.56 C29.45 9.29, 22.52 8.75, 15.75 -4.73 M30.08 14.42 C25.16 9.98, 19.32 3.71, 14.56 -0.62 M31.48 8.12 C26.84 5.31, 26.34 2.21, 22.94 -0.86 M31.97 9.17 C29.83 7.66, 27.09 3.99, 20.19 0.44" stroke="#000" stroke-width="0.5" fill="none"></path><path d="M3.45 6.34 C5.31 3.85, 9.8 1.58, 12.54 0.66 C15.29 -0.27, 17.27 -0.17, 19.93 0.76 C22.59 1.7, 26.88 3.52, 28.48 6.29 C30.09 9.05, 30.52 14.26, 29.54 17.37 C28.57 20.48, 25.59 23.26, 22.64 24.93 C19.68 26.61, 15.16 28.04, 11.81 27.41 C8.46 26.78, 4.54 23.1, 2.52 21.16 C0.49 19.21, -0.97 18.68, -0.34 15.75 C0.29 12.82, 4.94 5.9, 6.3 3.55 C7.67 1.2, 7.86 1.53, 7.85 1.63 M20.41 -0.57 C22.37 -0.1, 22.6 4.88, 24.16 7.87 C25.71 10.87, 29.8 15.39, 29.74 17.41 C29.68 19.44, 25.98 18.66, 23.79 20.03 C21.61 21.39, 20.02 24.78, 16.63 25.6 C13.24 26.42, 6.3 26.75, 3.44 24.96 C0.57 23.17, 0.01 17.9, -0.54 14.86 C-1.09 11.82, -1.81 9, 0.13 6.72 C2.07 4.45, 8.33 2.07, 11.11 1.21 C13.89 0.36, 15.79 1.56, 16.8 1.6 C17.8 1.63, 17.33 1.54, 17.14 1.45" stroke="#000" stroke-width="1" fill="none"></path></g><g stroke-linecap="round" transform="translate(25.345524702141347 177.05125568199293) rotate(0 14.678057222713733 13.120025166437074)"><path d="M8.28 0.57 C8.28 0.57, 8.28 0.57, 8.28 0.57 M8.28 0.57 C8.28 0.57, 8.28 0.57, 8.28 0.57 M3.39 10.16 C7.81 9.3, 9.74 1.44, 13.48 2.98 M4.01 9.7 C8.75 6.43, 11.83 3.17, 14.48 -0.04 M0.48 18.38 C5.2 14.03, 9.42 11.49, 17.03 1.96 M1.38 21.79 C6.87 16.6, 8.19 9.7, 17.35 2.95 M1.93 20.95 C10.71 16.52, 13.62 7.89, 22.85 3.56 M4.29 20.95 C12.23 14.95, 18.81 7.98, 20.65 3.97 M7.04 24.16 C17.63 19.88, 22.88 5.21, 28.02 3.3 M9.64 26.14 C11.84 19.75, 18.3 17.2, 27.14 6.72 M12.18 30.72 C13.86 22.49, 27.13 12.07, 26.45 10.63 M11.11 26.45 C14.79 22.2, 22.06 13.67, 26.28 10.58 M13.73 30.15 C18.74 21.01, 28.78 19.41, 30.26 13.06 M16.17 26.59 C23.32 21.59, 25.02 14.73, 28.06 14.27 M22.14 28.07 C22.95 24.57, 25.17 22.71, 33.17 16.18 M20.99 28.36 C25.84 24.95, 27.13 21.75, 32.02 15.54 M0.34 19.43 C0.34 19.43, 0.34 19.43, 0.34 19.43 M0.34 19.43 C0.34 19.43, 0.34 19.43, 0.34 19.43 M12.04 23.61 C7.28 21.73, 6.44 19.9, 0.18 12.66 M12.07 24.36 C9.51 21.36, 6.13 20.73, 0.69 14.83 M19.44 24.7 C13.3 16.18, 7.07 13.28, 0.93 10.56 M17.88 23.95 C12.24 19.58, 4.37 13.6, 3.23 11.03 M17.82 18.32 C16.88 19.13, 17.58 18.61, 7.26 8.4 M21.89 22.66 C16.01 16.49, 10.55 13.8, 3.49 8.54 M28.44 23.87 C22.56 18.92, 18.17 12.67, 2.99 0.76 M26 22.06 C20.9 17.16, 13.71 9.64, 4.62 3.27 M32.31 15.3 C25.47 14.86, 15.13 2.82, 11.75 4.24 M30.46 16.84 C26.82 15.85, 19.31 9.88, 10.17 1.59 M26.87 15.61 C24.99 8.84, 23.06 11.78, 15.33 -2.48 M28.24 13.01 C27.22 10.1, 24.29 6.7, 14.63 -1.24" stroke="#000" stroke-width="0.5" fill="none"></path><path d="M16.55 1.25 C19.42 1.33, 21.69 1.98, 23.85 4.07 C26.01 6.15, 28.88 10.86, 29.5 13.74 C30.12 16.63, 29.24 19.51, 27.55 21.37 C25.87 23.24, 22.44 24.17, 19.39 24.95 C16.35 25.73, 12.4 26.92, 9.28 26.05 C6.15 25.17, 1.83 22.54, 0.65 19.7 C-0.53 16.85, 0.89 12.2, 2.19 8.98 C3.49 5.75, 5.57 1.62, 8.47 0.35 C11.37 -0.92, 16.88 1.03, 19.57 1.34 C22.26 1.65, 24.3 1.81, 24.61 2.21 M17.89 1.4 C21.23 1.61, 23.02 0.15, 24.54 1.62 C26.05 3.09, 26.73 6.94, 26.97 10.21 C27.22 13.49, 27.33 19, 26.02 21.25 C24.71 23.5, 22.3 22.64, 19.11 23.71 C15.92 24.79, 9.8 28.18, 6.88 27.68 C3.95 27.18, 2.37 23.66, 1.58 20.69 C0.78 17.71, 0.93 13.33, 2.12 9.81 C3.32 6.29, 6.09 0.83, 8.76 -0.46 C11.43 -1.74, 17.31 2.12, 18.14 2.11 C18.98 2.1, 14.56 0.05, 13.77 -0.51" stroke="#000" stroke-width="1" fill="none"></path></g><g stroke-linecap="round" transform="translate(317.9951041324448 39.986292307279314) rotate(0 14.492023544352378 11.999172254309684)"><path d="M0.77 8.62 C0.77 8.62, 0.77 8.62, 0.77 8.62 M0.77 8.62 C0.77 8.62, 0.77 8.62, 0.77 8.62 M3.15 19.53 C9.44 17.79, 6.99 11.87, 21.69 2.86 M1.34 21.27 C9.35 14.54, 13.45 4.7, 19.27 1.05 M6.97 20.68 C11.06 19.28, 13.97 18.29, 24.56 9.2 M11.3 21.86 C14.23 20.62, 15.97 16.94, 25.09 6.86 M17.82 22.95 C24.26 19.1, 26.9 15.4, 33.46 11.6 M19.87 23.17 C22.48 21.25, 25.48 16.2, 30.41 9.12 M0.43 19.32 C0.43 19.32, 0.43 19.32, 0.43 19.32 M0.43 19.32 C0.43 19.32, 0.43 19.32, 0.43 19.32 M11.24 19.86 C8.2 15.55, 6.01 10.99, -0.49 8.89 M12.91 19.57 C6.66 16.63, 4.08 10.84, 0.07 9.65 M27.48 17.06 C17.2 11.64, 10.75 8.8, 5.76 6.59 M24.95 17.13 C16.01 14.23, 11.41 8.96, 5.48 0.71 M30.63 13.02 C26.38 8.75, 20.29 1.02, 13.85 -1.99 M30.01 11.16 C23.31 6.76, 13.84 1.47, 11.91 -3.17" stroke="#000" stroke-width="1" fill="none"></path><path d="M22.7 4.79 C24.94 5.84, 27.15 6.21, 27.54 8.42 C27.93 10.63, 26.28 15.54, 25.04 18.04 C23.81 20.55, 22.85 22.81, 20.12 23.45 C17.38 24.09, 11.89 22.57, 8.62 21.89 C5.36 21.22, 1.87 21.55, 0.52 19.4 C-0.84 17.25, -0.62 11.94, 0.47 8.97 C1.57 5.99, 4.61 3.29, 7.07 1.54 C9.54 -0.2, 12.35 -1.96, 15.24 -1.53 C18.14 -1.11, 22.47 2.73, 24.43 4.1 C26.39 5.47, 26.79 6.68, 27.02 6.72 M25.81 3.47 C27.48 4.54, 27.41 6.61, 27.38 9.06 C27.35 11.52, 27.59 15.88, 25.64 18.18 C23.7 20.48, 18.65 21.69, 15.7 22.87 C12.75 24.05, 10.65 26.46, 7.95 25.25 C5.26 24.04, 0.45 18.76, -0.46 15.61 C-1.38 12.47, 0.81 8.66, 2.47 6.4 C4.14 4.14, 6.86 2.87, 9.5 2.05 C12.14 1.23, 15.87 1.17, 18.32 1.46 C20.76 1.74, 23.15 3.21, 24.2 3.75 C25.25 4.29, 24.65 4.72, 24.61 4.69" stroke="#000" stroke-width="2" fill="none"></path></g></svg>
