<svg version="1.1" xmlns="http://www.w3.org/2000/svg" viewBox="0 0 832.7407285198879 266.9998424819512" width="1665.4814570397757" height="533.9996849639024">
  <!-- svg-source:excalidraw -->
  
  <defs>
    <style class="style-fonts">
      @font-face {
        font-family: "Virgil";
        src: url("https://excalidraw.com/Virgil.woff2");
      }
      @font-face {
        font-family: "Cascadia";
        src: url("https://excalidraw.com/Cascadia.woff2");
      }
    </style>
  </defs>
  <g stroke-linecap="round" transform="translate(10 10) rotate(0 406.3703642599439 121.20491707348083)"><path d="M-1.28 2.6 L813.84 -0.38 L809.68 244.06 L2.93 238.58" stroke="none" stroke-width="0" fill="#fff"></path><path d="M0.69 0.95 C290.8 -1.61, 580.75 -1.82, 811.93 -0.47 M-0.51 0.39 C172.74 4.82, 345.92 5.21, 813.26 0.34 M815.62 -1.23 C808.45 67.4, 809.34 135.03, 809.87 242.67 M813.07 -1.23 C816.68 71.48, 816.11 141.28, 813.89 241.39 M814.04 242.1 C647.44 241.96, 484.49 243.42, 1.03 242.66 M813.43 241.97 C520.11 241.57, 227.38 241.68, -0.44 242.23 M1.25 239.14 C1.36 179.74, -0.22 121.95, -2.7 -2.56 M-0.86 241.25 C-2.24 164.42, -1.06 83.75, 0.43 -0.06" stroke="#000" stroke-width="1" fill="none"></path></g><g stroke-linecap="round" transform="translate(138.8635899653973 108.58454426736739) rotate(89.93005167266512 14.230353883231146 11.79676648745965)"><path d="M2.26 0.83 L31.37 0.56 L29.96 25.58 L3.52 26.66" stroke="none" stroke-width="0" fill="#fab005"></path><path d="M-0.89 -3.88 C7.54 1.67, 21.46 -0.77, 26.75 -0.17 M0.65 0.11 C8.36 -1.93, 20.11 0.62, 30.21 -1.12 M28.37 -2.91 C31.05 6.02, 30.08 7.39, 29.82 26.1 M26.48 1.22 C26.26 9.94, 27.35 15.02, 30.37 22.17 M25.09 19.77 C14.74 27.28, 10.8 21.42, 1.56 21.95 M27.37 25.27 C21.8 22.01, 14.45 23.85, -0.91 22.75 M0.32 23.98 C2.14 15.69, 3.88 5.48, 0.77 -0.62 M-1.84 23.5 C-0.9 19.78, 1.45 14.86, 0.18 0.57" stroke="#000" stroke-width="1" fill="none"></path></g><g stroke-linecap="round" transform="translate(101.62875918029204 115.23684130733727) rotate(89.93005167266512 14.230353883231146 11.79676648745965)"><path d="M0.83 2.91 L29.03 1.5 L30.44 27.12 L3.07 26.01" stroke="none" stroke-width="0" fill="#be4bdb"></path><path d="M-3.88 -1.66 C7.99 3.2, 11.7 -1.58, 28.29 1.6 M0.11 -1.32 C8.39 0.57, 20.74 1.57, 27.34 -1.55 M25.55 2.96 C29.31 7.21, 25.43 11.8, 30.97 25.77 M29.68 -1.77 C30.35 4.22, 27.07 11.68, 27.04 25 M24.63 20.42 C24.59 26.55, 11.44 24.68, -1.64 20.78 M30.14 23.47 C20.81 22.34, 16.24 22.37, -0.85 23.97 M0.39 25.71 C-0.37 20.47, -3.07 10.39, -0.62 -2.95 M-0.09 22.62 C1.72 18.26, 2.15 10.34, 0.57 1.13" stroke="#000" stroke-width="1" fill="none"></path></g><g stroke-linecap="round" transform="translate(135.35548824134912 156.39239440673487) rotate(89.93005167266512 14.230353883231146 11.79676648745965)"><path d="M2.91 0.56 L29.96 1.98 L31.98 26.66 L2.41 26.13" stroke="none" stroke-width="0" fill="#82c91e"></path><path d="M-1.66 1.85 C12.54 -0.03, 17.23 0.38, 30.06 1.78 M-1.32 -1.42 C11.85 1.1, 23.94 -1.15, 26.91 -1.58 M31.42 0.77 C30.44 4.39, 29.81 17.53, 30.63 19.88 M26.69 1.58 C27.33 6.93, 29.9 15.84, 29.87 22.72 M25.28 27.01 C22.01 20.61, 10.27 21.41, -2.81 20.61 M28.34 22.36 C20.75 24.68, 14.01 23.23, 0.37 23.51 M2.12 23.2 C3.82 13.51, 0.73 8.97, -2.95 -0.61 M-0.97 25.12 C1.82 19.47, 0.62 12.02, 1.13 0.41" stroke="#000" stroke-width="1" fill="none"></path></g><g stroke-linecap="round" transform="translate(64.6609150419763 115.86293567305074) rotate(89.93005167266512 14.230353883231146 11.79676648745965)"><path d="M0.56 1.5 L30.44 3.52 L31.53 26.01 L2.54 20.79" stroke="none" stroke-width="0" fill="#fab005"></path><path d="M1.85 3.07 C7.32 -1.47, 15.64 1.84, 30.24 3.59 M-1.42 0.76 C10.59 2.13, 17.81 -1.17, 26.89 0.37 M29.23 1.99 C25 8.39, 30.63 16.23, 24.74 26.22 M30.04 -0.67 C27.04 6.65, 27.33 10.9, 27.58 24.54 M31.88 27.02 C19.88 24.7, 14.53 20.33, -2.98 21.11 M27.23 22.65 C22.08 22.64, 13.64 23.93, -0.08 23.53 M-0.39 27.45 C-3.13 17.1, -0.67 6.12, -0.61 -1.7 M1.52 24.98 C1.97 18.87, 0.59 14.91, 0.41 1.46" stroke="#000" stroke-width="1" fill="none"></path></g><g stroke-linecap="round" transform="translate(97.62181640542622 201.23070354370384) rotate(89.93005167266512 14.230353883231146 11.79676648745965)"><path d="M1.5 1.98 L31.98 3.07 L30.87 26.13 L-2.81 23.82" stroke="none" stroke-width="0" fill="#82c91e"></path><path d="M3.07 -0.58 C4.07 -0.43, 13.16 1.52, 32.05 1.3 M0.76 1.13 C10.45 -0.72, 15.84 -1.17, 28.83 -0.04 M30.45 -3.12 C30.17 7.87, 30.98 7, 31.09 19.64 M27.79 -1.7 C29.95 7.09, 29.45 16.16, 29.4 21.91 M31.89 21.16 C24.21 22.44, 14.02 21.1, -2.49 21.41 M27.52 24.2 C16.62 22.4, 6.98 23.16, -0.07 23.75 M3.86 20.51 C0.52 15.66, -3.2 8.37, -1.7 -3.69 M1.38 25.54 C0.41 17.2, 1.36 10.07, 1.46 0.28" stroke="#000" stroke-width="1" fill="none"></path></g><g stroke-linecap="round" transform="translate(63.02895728236581 201.44076925566242) rotate(89.93005167266512 14.230353883231146 11.79676648745965)"><path d="M1.98 3.52 L31.53 2.41 L31 20.79 L0.23 21.67" stroke="none" stroke-width="0" fill="#7950f2"></path><path d="M-0.58 -1.71 C7.19 1.16, 16.49 3.15, 29.76 0.22 M1.13 1.75 C5.54 -1.76, 11.75 0.15, 28.42 -1.46 M25.34 1.36 C31.06 11, 24.83 20.28, 24.51 26.03 M26.76 1.91 C27.41 6.4, 27.96 10.93, 26.78 21.68 M26.02 25.16 C20.54 21.27, 12.92 21.59, -2.18 26.95 M29.07 22.68 C19.25 23.7, 11.66 23.26, 0.16 23.79 M-3.09 24.36 C-0.58 12.32, -0.56 5.23, -3.69 -0.18 M1.95 23.77 C0.21 18.79, 0.05 13.18, 0.28 0.75" stroke="#000" stroke-width="1" fill="none"></path></g><g stroke-linecap="round" transform="translate(200.77711677733168 103.55799825039321) rotate(89.93005167266512 14.230353883231146 11.79676648745965)"><path d="M3.52 3.07 L30.87 2.54 L25.65 23.82 L-1.93 25.07" stroke="none" stroke-width="0" fill="#fd7e14"></path><path d="M-1.71 -0.17 C11.46 1.86, 23.3 1.38, 28.68 -2.64 M1.75 -1.12 C4.98 -1.9, 13.42 -0.36, 27.01 1.48 M29.82 2.51 C30.87 3.81, 31.33 11.11, 30.9 20.06 M30.37 -1.42 C29.71 8.06, 29.24 16.2, 26.55 22.01 M30.02 21.95 C14.68 20.26, 4.03 21.07, 3.36 23.34 M27.55 22.75 C22.05 23.69, 14.82 23.93, 0.19 24.65 M0.77 22.97 C-3.4 16.14, -2.16 6.21, -0.18 -1.94 M0.18 24.17 C0.8 15.13, 1.13 6.13, 0.75 0.99" stroke="#000" stroke-width="1" fill="none"></path></g><g stroke-linecap="round" transform="translate(131.13569295919297 65.66079107011171) rotate(89.93005167266512 14.230353883231146 11.79676648745965)"><path d="M3.07 2.41 L31 -2.81 L28.69 21.67 L1.47 19.7" stroke="none" stroke-width="0" fill="#228be6"></path><path d="M-0.17 1.6 C12.5 3.84, 22.75 0.46, 25.82 -2.83 M-1.12 -1.55 C8.04 -0.13, 19.19 -1.95, 29.94 0.38 M30.97 2.17 C24.37 10.88, 24.14 18.95, 24.93 26.75 M27.04 1.41 C27.18 7.23, 26.38 10.66, 26.87 25.3 M26.82 20.78 C14.5 21.33, 4.32 27.18, -0.25 21.13 M27.62 23.97 C21.18 23.26, 14.22 23.53, 1.06 23.4 M-0.62 20.65 C-0.24 12.54, -3.32 4.7, -1.94 3.04 M0.57 24.72 C-0.05 16.34, -0.18 6.93, 0.99 1.76" stroke="#000" stroke-width="1" fill="none"></path></g><g stroke-linecap="round" transform="translate(305.50360846707645 173.46026098381685) rotate(89.93005167266512 14.230353883231146 11.79676648745965)"><path d="M2.41 2.54 L25.65 0.23 L26.53 25.07 L-3.9 25.05" stroke="none" stroke-width="0" fill="#228be6"></path><path d="M1.6 1.78 C11.72 1.33, 16.47 -2.61, 25.63 1.51 M-1.55 -1.58 C10.51 0.28, 18.83 1.8, 28.84 1 M30.63 -3.72 C31.25 1.29, 31.06 6.95, 31.62 22.26 M29.87 -0.88 C29.85 3.39, 27 8.55, 30.17 25.31 M25.65 20.61 C19.17 21.18, 18.21 23.11, -2.46 21.71 M28.83 23.51 C18.99 23.51, 9.85 24.41, -0.19 25.52 M-2.95 22.99 C-1.79 14.65, -0.27 11.14, 3.04 2.76 M1.13 24.01 C1.41 14.5, 0.71 5.84, 1.76 1.53" stroke="#000" stroke-width="1" fill="none"></path></g><g stroke-linecap="round" transform="translate(698.5738881391007 99.55476537846027) rotate(181.27658427485238 14.230353883231146 11.796766487459706)"><path d="M2.54 -2.81 L28.69 -1.93 L29.93 19.7 L1.45 24.36" stroke="none" stroke-width="0" fill="#82c91e"></path><path d="M1.78 3.59 C8.62 -0.01, 12.01 -3.06, 29.98 2.25 M-1.58 0.37 C10.99 -1.01, 23.54 0.82, 29.46 -1.56 M24.74 2.63 C24.8 10.32, 25.22 18.92, 27.12 20.19 M27.58 0.94 C26.44 7.42, 26.54 20.37, 30.18 22.37 M25.48 21.11 C16.63 26.55, 8.91 20.73, -1.88 24.81 M28.38 23.53 C21.38 23.89, 15.05 23.5, 1.93 22.05 M-0.61 21.89 C-3.61 15.88, -1.86 11.58, 2.76 3.89 M0.41 25.05 C0.15 17.05, 0.86 10.77, 1.53 1.21" stroke="#000000" stroke-width="1" fill="none"></path></g><g stroke-linecap="round" transform="translate(637.8900439173412 95.06754453767235) rotate(181.27658427485238 14.230353883231146 11.79676648745965)"><path d="M-2.81 0.23 L26.53 1.47 L24.56 25.05 L0.76 21.19" stroke="none" stroke-width="0" fill="#fa5252"></path><path d="M3.59 1.3 C8.63 -2.89, 14 1.26, 30.71 3.5 M0.37 -0.04 C5.49 1.93, 14.27 1.45, 26.9 0.68 M31.09 -3.95 C31.16 5.03, 31.88 15.78, 25.05 27.41 M29.4 -1.68 C26.88 3.81, 30.5 12.51, 27.24 24.37 M25.97 21.41 C24.45 22.92, 11.26 21.29, 1.22 21.76 M28.39 23.75 C21.32 24.63, 13.6 25.5, -1.54 23.98 M-1.7 19.91 C0.17 14.95, 3.39 12.94, 3.89 0.36 M1.46 23.88 C0.49 16.83, 1.5 9.62, 1.21 1.27" stroke="#000000" stroke-width="1" fill="none"></path></g><g stroke-linecap="round" transform="translate(614.4540053813671 175.2258522220841) rotate(181.27658427485238 14.230353883231146 11.79676648745965)"><path d="M0.23 -1.93 L29.93 -3.9 L29.91 24.36 L-2.4 25.22" stroke="none" stroke-width="0" fill="#82c91e"></path><path d="M1.3 0.22 C7.04 -3.34, 20.87 1.74, 31.97 -2.24 M-0.04 -1.46 C7.82 0.28, 13.67 -1.66, 29.14 1.25 M24.51 2.44 C24.49 11.52, 26.68 13.31, 32.28 20.75 M26.78 -1.91 C26.67 10.45, 29.97 16.26, 29.24 22.77 M26.28 26.95 C21.68 20.78, 13.5 24.46, -1.83 21.9 M28.62 23.79 C20.45 23.38, 12.26 22.03, 0.38 23.28 M-3.69 23.41 C-1.87 21.3, 2.84 16.81, 0.36 1.15 M0.28 24.35 C0.89 16.95, 1.44 7.98, 1.27 -1.4" stroke="#000000" stroke-width="1" fill="none"></path></g><g stroke-linecap="round"><g transform="translate(436.3006058632445 10.129102779616687) rotate(0 4.132123486533601 123.79817690470213)"><path d="M3.17 1.5 C-4.63 53.66, -0.73 104.2, 9.24 246.87 M0.61 0.73 C1.97 73.06, 4.26 144.38, 7.53 243.24" stroke="#000" stroke-width="1" fill="none"></path></g></g><g transform="translate(471.1147874074777 17.45211814204697) rotate(0 157 23)"><text x="0" y="32" font-family="Virgil, Segoe UI Emoji" font-size="36px" fill="#000" text-anchor="start" style="white-space: pre;" direction="ltr">Don't Understand</text></g><g transform="translate(108.49552366040189 17.90397787070492) rotate(0 100.5 23)"><text x="0" y="32" font-family="Virgil, Segoe UI Emoji" font-size="36px" fill="#000" text-anchor="start" style="white-space: pre;" direction="ltr">Understand</text></g></svg>
