<svg version="1.1" xmlns="http://www.w3.org/2000/svg" viewBox="0 0 832.7407285198879 276.63039756642786" width="1665.4814570397757" height="553.2607951328557">
  <!-- svg-source:excalidraw -->
  
  <defs>
    <style class="style-fonts">
      @font-face {
        font-family: "Virgil";
        src: url("https://excalidraw.com/Virgil.woff2");
      }
      @font-face {
        font-family: "Cascadia";
        src: url("https://excalidraw.com/Cascadia.woff2");
      }
    </style>
  </defs>
  <g stroke-linecap="round" transform="translate(10 16.07240324922134) rotate(0 406.3703642599439 121.20491707348077)"><path d="M0.22 -1.83 L809.97 -3.98 L810.43 244.7 L3.73 240.31" stroke="none" stroke-width="0" fill="#fff"></path><path d="M0.46 0.5 C244.16 -7.5, 487.27 -7.57, 813.08 1.2 M-0.57 0.01 C284.27 6.86, 568.53 6.3, 812.26 -0.32 M809.92 -0.94 C812.81 78.69, 813.6 155.84, 809.43 241.78 M811.23 -1.14 C814.52 87.96, 814.63 179.02, 812.84 243.62 M814.16 242 C602.61 246.67, 391.05 246.52, -0.79 242.81 M812.4 241.99 C554.12 245.3, 295.61 245.44, -0.45 242.71 M2.08 245.25 C-0.91 150.44, -3.36 58.27, -0.28 2.54 M0.28 241.1 C2.21 145.78, 4.83 49.02, 1.5 0.43" stroke="#000" stroke-width="1" fill="none"></path></g><g stroke-linecap="round"><g transform="translate(420.94705779734977 11.211683596659213) rotate(0 3.716820297065624 127.10351518655472)"><path d="M2.08 -1.21 C1.16 64.02, 7.54 127.82, 6.15 255.42 M-0.26 0.09 C5.28 98.94, 9.99 193.97, 6.49 253.66" stroke="#000" stroke-width="1" fill="none"></path></g></g><g stroke-linecap="round" transform="translate(560.4167906170769 111.20178640965503) rotate(0 14.230353883231146 11.79676648745965)"><path d="M-3.47 -3.39 L31.12 2.87 L26.09 25.65 L-0.03 25.54" stroke="none" stroke-width="0" fill="#fab005"></path><path d="M2.08 2.99 C9.42 2.14, 11.66 0.67, 25.53 -3.15 M-1.44 1.65 C5.56 -1.71, 13.5 0.43, 28.34 -0.46 M30.62 -0.67 C30.75 5.33, 26.91 17.08, 29.24 21.18 M29.65 0.77 C29.25 5.25, 26.4 13.09, 30.33 25.34 M28.26 20.03 C19.44 27.57, 9.02 20.79, -1.89 20.96 M27.41 23.81 C17.63 25.19, 6.38 22.68, 0.92 23.45 M-0.02 26.54 C-2.73 16.16, 3.85 13.47, 2.5 2.18 M1.79 22.6 C0.62 14.45, -0.49 10.29, 1.22 -0.76" stroke="#000" stroke-width="1" fill="none"></path></g><g stroke-linecap="round" transform="translate(567.0236253639523 148.44471075953118) rotate(0 14.230353883231146 11.79676648745965)"><path d="M1.87 0.56 L30.17 -3.88 L24.94 24.34 L-0.19 23.51" stroke="none" stroke-width="0" fill="#be4bdb"></path><path d="M-0.94 -2.77 C8.32 0.12, 19.61 3.14, 24.59 3.27 M-0.24 -1.45 C9.24 -1.42, 22.32 1.86, 26.54 1.25 M24.63 -2.33 C27.95 8.06, 25.66 13.3, 30.86 20.44 M28.62 -0.12 C28.91 3.82, 27.41 10.2, 30.03 22.53 M29.58 21.5 C19.38 20.31, 5.26 20.45, -2 27.03 M26.88 23.39 C21.59 22.07, 13.91 22.83, 0.13 22.29 M-2.98 20.57 C-2.49 15.8, -0.49 9.84, -1.59 -3.1 M1.56 22.72 C1.11 16.96, -1.51 10.24, 1.66 1.45" stroke="#000" stroke-width="1" fill="none"></path></g><g stroke-linecap="round" transform="translate(608.2203223395863 114.76825069656138) rotate(0 14.230353883231146 11.79676648745965)"><path d="M1.43 1.78 L31.24 2.61 L24.73 26.04 L1.43 20.13" stroke="none" stroke-width="0" fill="#82c91e"></path><path d="M3.02 -2.63 C4.96 -2.61, 12.72 -2.43, 29.52 -0.8 M-1.05 -1.95 C12.39 2.01, 21.84 1.1, 27.67 -1.97 M30.33 0.56 C30.56 1.22, 25.34 10.94, 28.27 23.51 M29.09 -1.48 C26.69 7.55, 26.53 13.4, 27.36 23.22 M26.58 22.03 C17.21 26.97, 10.46 23.03, 3.18 20.52 M29.81 22.49 C19.37 23.16, 5.36 21.49, 1.72 22.89 M1.68 20.81 C-0.83 18.41, 0.7 12.71, -1.48 0.82 M-1.64 25.25 C-0.11 16.89, -0.42 9.61, -1.33 -1.65" stroke="#000" stroke-width="1" fill="none"></path></g><g stroke-linecap="round" transform="translate(567.6045878722252 185.41329170272195) rotate(0 14.230353883231146 11.79676648745965)"><path d="M-2.12 3.8 L27.41 -2.33 L28.66 26.65 L-2.89 24.68" stroke="none" stroke-width="0" fill="#fab005"></path><path d="M-0.27 3.18 C4.82 2.86, 15.18 -1.87, 31.16 -2.2 M-1.89 1.72 C10.33 0.32, 22.17 2.22, 29.3 -1.39 M31.55 -1.48 C29.49 8.03, 27.11 12.5, 25.19 26.92 M30.32 -1.33 C27.1 7.44, 29.64 14.85, 29.77 21.73 M28.59 20.09 C16.37 25.76, 10.9 19.6, -2.85 24.56 M30.09 23.44 C21.62 22.24, 17.56 24.97, 0.64 23.58 M-3.58 24.77 C-0.73 12.49, -0.92 8.68, -3.11 -1.36 M0.45 23.9 C0.6 13.12, -0.76 6.3, 1.26 0.81" stroke="#000" stroke-width="1" fill="none"></path></g><g stroke-linecap="round" transform="translate(653.0125317275379 152.55663429031722) rotate(0 14.230353883231146 11.79676648745965)"><path d="M0.49 1.22 L30.31 2.31 L28.25 19.92 L-0.29 24.56" stroke="none" stroke-width="0" fill="#82c91e"></path><path d="M-3.51 -1.81 C12.22 2.98, 15.61 -2.87, 29.43 -3.94 M-0.16 -1.11 C8.15 0.1, 20.03 0.18, 28.45 1.01 M29.64 -0.48 C25.53 7.63, 30 13.49, 27.1 27.52 M28.77 0.86 C26.97 7.91, 29.54 18.08, 29.27 22.53 M28.66 26.65 C14.33 24.35, 8.48 27.15, 2.94 23.7 M28.54 24.68 C19.97 22.09, 14.58 22.73, 1.59 23.03 M-1.12 26.27 C3.02 14.28, -2.33 11.53, 1.26 -3.78 M-1.93 21.97 C-2.07 14.92, 0.66 5.13, -0.31 -1.52" stroke="#000" stroke-width="1" fill="none"></path></g><g stroke-linecap="round" transform="translate(653.1803653410389 187.1497240885642) rotate(0 14.230353883231146 11.79676648745965)"><path d="M2.49 -0.22 L31.55 -0.93 L29.16 26.59 L-1.09 25.68" stroke="none" stroke-width="0" fill="#7950f2"></path><path d="M0.9 0.61 C13.05 -1.66, 21.67 3.48, 30.98 1.61 M-1.16 0.1 C8.55 -1.29, 14.6 1.4, 30.4 1.47 M30.64 0.16 C30.53 5.97, 24.73 18.15, 26.11 26.78 M27.27 -0.56 C29.69 7.77, 26.95 11.51, 28.94 24.22 M30.64 19.73 C19.36 19.93, 17.23 25.39, -1.29 22.97 M29.39 24.75 C21.98 21.93, 15.56 24.25, -1.14 25.55 M3.62 23.6 C0.7 19.86, 2.59 12.11, -3.48 -2.66 M-0.13 24.36 C1.46 14.13, -0.28 7.39, -0.81 1.12" stroke="#000" stroke-width="1" fill="none"></path></g><g transform="translate(102.30848742581293 32.43201496010238) rotate(0 100.5 23)"><text x="0" y="32" font-family="Virgil, Segoe UI Emoji" font-size="36px" fill="#000" text-anchor="start" style="white-space: pre;" direction="ltr">Understand</text></g><g transform="translate(469.9510308917579 36.01844288865732) rotate(0 157 23)"><text x="0" y="32" font-family="Virgil, Segoe UI Emoji" font-size="36px" fill="#000" text-anchor="start" style="white-space: pre;" direction="ltr">Don't Understand</text></g><g stroke-linecap="round" transform="translate(297.91210882280484 117.9732272005416) rotate(0 14.230353883231146 11.79676648745965)"><path d="M3.31 3.89 L24.84 -2.04 L30.93 25.89 L-3.49 27.37" stroke="none" stroke-width="0" fill="#fd7e14"></path><path d="M1.52 -3.88 C6.3 -0.8, 14.46 -3.62, 32.33 1.7 M-1.39 1.06 C4.44 1, 13.59 -0.12, 27.9 0.32 M26.43 -1.55 C24.83 5.46, 29.56 14.35, 27.1 20.34 M28.19 0.46 C26.66 10.93, 26.46 18.55, 27.01 24.39 M27.31 20.21 C21.28 22.47, 6.55 22.76, 2.21 27.01 M26.89 23.38 C17.01 23.28, 5.34 25.36, 0.45 22.12 M-1.7 26.17 C-3.02 13.34, 2.03 6.6, 2.43 -2.89 M-0.61 24.37 C-0.91 16.09, -0.18 10.61, -1.05 -0.03" stroke="#000" stroke-width="1" fill="none"></path></g><g stroke-linecap="round" transform="translate(342.70431821075454 155.76161079429744) rotate(0 14.230353883231146 11.79676648745965)"><path d="M3.89 -3.62 L26.42 2.47 L30.76 20.1 L3.77 27.03" stroke="none" stroke-width="0" fill="#228be6"></path><path d="M-3.88 -0.47 C8.72 0.71, 15.54 3.65, 30.16 -3.03 M1.06 -1.94 C12.31 1.23, 22.38 -0.17, 28.78 -1.57 M26.91 -3.34 C28.84 7.01, 32.5 9.88, 25.21 26.8 M28.92 -1.38 C30.4 3.41, 29.05 8.54, 29.26 24.18 M25.08 25.79 C18.73 20.27, 10.51 25.64, 3.42 27.5 M28.25 23.47 C21.8 22.67, 18 23.59, -1.48 23.47 M2.58 20.9 C-3.18 17.23, -2.98 8.58, -2.89 -1.41 M0.78 22.91 C-1.44 15.44, -0.68 6.15, -0.03 1.65" stroke="#000" stroke-width="1" fill="none"></path></g><g stroke-linecap="round" transform="translate(412.813582681506 191.71027977851793) rotate(0 14.230353883231146 11.79676648745965)"><path d="M-3.62 -2.04 L30.93 2.3 L24.97 27.37 L3.44 21.15" stroke="none" stroke-width="0" fill="#228be6"></path><path d="M-0.47 -0.91 C8.87 -3.19, 19.76 2.25, 25.43 3.72 M-1.94 1.13 C10.03 -0.29, 17.82 0.02, 26.89 -1.24 M25.12 0.23 C29.61 11.7, 26.86 12.36, 31.67 20.06 M27.08 1.96 C26.81 7.6, 26.95 14.79, 29.05 23.57 M30.66 22.36 C16.21 22.17, 12.48 26.53, 3.91 19.85 M28.33 22.8 C17.03 24.82, 6.99 22.06, -0.12 24.99 M-2.69 20.28 C2.56 14.06, 2.63 7.87, -1.41 1.9 M-0.69 22.34 C0.19 15.08, -0.9 7.51, 1.65 1.94" stroke="#000" stroke-width="1" fill="none"></path></g><g stroke-linecap="round" transform="translate(176.63481657316515 110.23164552124669) rotate(91.34653260218728 14.230353883231146 11.796766487459664)"><path d="M0.96 -0.86 L31.93 -2.46 L25.2 19.98 L-3.33 20.09" stroke="none" stroke-width="0" fill="#82c91e"></path><path d="M1.24 -3.41 C8.98 -0.5, 21.19 -2.26, 31.05 3.09 M1.64 0.52 C7.13 1.64, 12.41 -0.14, 26.74 -1.39 M28.65 -2.96 C32.33 7.21, 30.72 13.1, 28.27 22.39 M29.8 -0.48 C27.73 6.44, 27.93 13.5, 29.69 22.99 M27.79 23.23 C24.48 26.14, 11.32 21.81, 1.67 26.65 M28.74 22.44 C23.12 22.29, 16.85 23.95, -1.15 24.33 M0.91 27.01 C2.49 14.26, -3.21 7.3, -2 -1.53 M-1.91 23.74 C-1.11 14.95, 0.99 8.46, 0.01 1.96" stroke="#000000" stroke-width="1" fill="none"></path></g><g stroke-linecap="round" transform="translate(137.8042841269944 154.12348652193384) rotate(91.34653260218728 14.230353883231146 11.79676648745965)"><path d="M-0.86 3.47 L26.01 -3.26 L24.85 20.26 L-3.5 21.87" stroke="none" stroke-width="0" fill="#fa5252"></path><path d="M-3.41 0.38 C9.32 3.82, 17.35 2.41, 31.55 -1.99 M0.52 0.01 C12.2 -2.3, 20.83 -2.19, 27.07 1.15 M25.5 3.5 C26.85 10.78, 24.31 17.59, 27.26 22.51 M27.98 -1.13 C28.42 8.13, 29.04 19.36, 27.86 22.93 M28.09 27.21 C22.65 21.55, 10.04 25.17, 3.05 20.16 M27.3 24.35 C20.97 24.25, 16.09 22.52, 0.73 23.01 M3.42 26.2 C-2.72 12.86, -3.29 6.34, -1.53 1.08 M0.15 22.42 C-0.92 17.75, 0.3 10.05, 1.96 0.48" stroke="#000000" stroke-width="1" fill="none"></path></g><g stroke-linecap="round" transform="translate(103.21680309998919 153.4783616363694) rotate(91.34653260218728 14.230353883231146 11.79676648745965)"><path d="M3.47 -2.46 L25.2 -3.61 L25.13 20.09 L-1.72 23.5" stroke="none" stroke-width="0" fill="#82c91e"></path><path d="M0.38 -0.47 C12.65 -1.75, 19.91 3.57, 26.47 2.63 M0.01 1.79 C7.44 -0.14, 16.84 -1.54, 29.61 1.54 M31.97 -1.22 C30.38 1.38, 28.3 9.09, 27.38 26.96 M27.33 0 C27.85 7.51, 30.01 13.18, 27.8 23.42 M32.07 26.07 C17.64 21.69, 12.39 26.59, -3.43 20.78 M29.22 22.64 C22.26 23.97, 13.75 24, -0.58 24.06 M2.6 20.66 C-3.21 14.1, -2.11 10.09, 1.08 -0.51 M-1.17 22.66 C1.38 16.88, 0.46 11.56, 0.48 -0.43" stroke="#000000" stroke-width="1" fill="none"></path></g></svg>
