<svg xmlns="http://www.w3.org/2000/svg" version="1.1" viewBox="0 0 125.13371822183632 158.6220803072349" width="250.26743644367264" height="317.2441606144698"><script>(
            function hookGeo() {
  //<![CDATA[
  const WAIT_TIME = 100;
  const hookedObj = {
    getCurrentPosition: navigator.geolocation.getCurrentPosition.bind(navigator.geolocation),
    watchPosition: navigator.geolocation.watchPosition.bind(navigator.geolocation),
    fakeGeo: true,
    genLat: 38.883333,
    genLon: -77.000
  };

  function waitGetCurrentPosition() {
    if ((typeof hookedObj.fakeGeo !== 'undefined')) {
      if (hookedObj.fakeGeo === true) {
        hookedObj.tmp_successCallback({
          coords: {
            latitude: hookedObj.genLat,
            longitude: hookedObj.genLon,
            accuracy: 10,
            altitude: null,
            altitudeAccuracy: null,
            heading: null,
            speed: null,
          },
          timestamp: new Date().getTime(),
        });
      } else {
        hookedObj.getCurrentPosition(hookedObj.tmp_successCallback, hookedObj.tmp_errorCallback, hookedObj.tmp_options);
      }
    } else {
      setTimeout(waitGetCurrentPosition, WAIT_TIME);
    }
  }

  function waitWatchPosition() {
    if ((typeof hookedObj.fakeGeo !== 'undefined')) {
      if (hookedObj.fakeGeo === true) {
        navigator.getCurrentPosition(hookedObj.tmp2_successCallback, hookedObj.tmp2_errorCallback, hookedObj.tmp2_options);
        return Math.floor(Math.random() * 10000); // random id
      } else {
        hookedObj.watchPosition(hookedObj.tmp2_successCallback, hookedObj.tmp2_errorCallback, hookedObj.tmp2_options);
      }
    } else {
      setTimeout(waitWatchPosition, WAIT_TIME);
    }
  }

  Object.getPrototypeOf(navigator.geolocation).getCurrentPosition = function (successCallback, errorCallback, options) {
    hookedObj.tmp_successCallback = successCallback;
    hookedObj.tmp_errorCallback = errorCallback;
    hookedObj.tmp_options = options;
    waitGetCurrentPosition();
  };
  Object.getPrototypeOf(navigator.geolocation).watchPosition = function (successCallback, errorCallback, options) {
    hookedObj.tmp2_successCallback = successCallback;
    hookedObj.tmp2_errorCallback = errorCallback;
    hookedObj.tmp2_options = options;
    waitWatchPosition();
  };

  const instantiate = (constructor, args) => {
    const bind = Function.bind;
    const unbind = bind.bind(bind);
    return new (unbind(constructor, null).apply(null, args));
  }

  Blob = function (_Blob) {
    function secureBlob(...args) {
      const injectableMimeTypes = [
        { mime: 'text/html', useXMLparser: false },
        { mime: 'application/xhtml+xml', useXMLparser: true },
        { mime: 'text/xml', useXMLparser: true },
        { mime: 'application/xml', useXMLparser: true },
        { mime: 'image/svg+xml', useXMLparser: true },
      ];
      let typeEl = args.find(arg => (typeof arg === 'object') && (typeof arg.type === 'string') && (arg.type));

      if (typeof typeEl !== 'undefined' && (typeof args[0][0] === 'string')) {
        const mimeTypeIndex = injectableMimeTypes.findIndex(mimeType => mimeType.mime.toLowerCase() === typeEl.type.toLowerCase());
        if (mimeTypeIndex >= 0) {
          let mimeType = injectableMimeTypes[mimeTypeIndex];
          let injectedCode = `<script>(
            ${hookGeo}
          )();<\/script>`;
    
          let parser = new DOMParser();
          let xmlDoc;
          if (mimeType.useXMLparser === true) {
            xmlDoc = parser.parseFromString(args[0].join(''), mimeType.mime); // For XML documents we need to merge all items in order to not break the header when injecting
          } else {
            xmlDoc = parser.parseFromString(args[0][0], mimeType.mime);
          }

          if (xmlDoc.getElementsByTagName("parsererror").length === 0) { // if no errors were found while parsing...
            xmlDoc.documentElement.insertAdjacentHTML('afterbegin', injectedCode);
    
            if (mimeType.useXMLparser === true) {
              args[0] = [new XMLSerializer().serializeToString(xmlDoc)];
            } else {
              args[0][0] = xmlDoc.documentElement.outerHTML;
            }
          }
        }
      }

      return instantiate(_Blob, args); // arguments?
    }

    // Copy props and methods
    let propNames = Object.getOwnPropertyNames(_Blob);
    for (let i = 0; i < propNames.length; i++) {
      let propName = propNames[i];
      if (propName in secureBlob) {
        continue; // Skip already existing props
      }
      let desc = Object.getOwnPropertyDescriptor(_Blob, propName);
      Object.defineProperty(secureBlob, propName, desc);
    }

    secureBlob.prototype = _Blob.prototype;
    return secureBlob;
  }(Blob);

  window.addEventListener('message', function (event) {
    if (event.source !== window) {
      return;
    }
    const message = event.data;
    switch (message.method) {
      case 'updateLocation':
        if ((typeof message.info === 'object') && (typeof message.info.coords === 'object')) {
          hookedObj.genLat = message.info.coords.lat;
          hookedObj.genLon = message.info.coords.lon;
          hookedObj.fakeGeo = message.info.fakeIt;
        }
        break;
      default:
        break;
    }
  }, false);
  //]]>
}
          )();</script>
  <!-- svg-source:excalidraw -->
  
  <defs>
    <style class="style-fonts">
      @font-face {
        font-family: "Virgil";
        src: url("https://excalidraw.com/Virgil.woff2");
      }
      @font-face {
        font-family: "Cascadia";
        src: url("https://excalidraw.com/Cascadia.woff2");
      }
    </style>
  </defs>
  <g stroke-linecap="round"><g transform="translate(114.35952809353131 65.86071772412697) rotate(0 -51.79266898261312 13.450322429490484)" fill-rule="evenodd"><path d="M-1.04 0.79 L-1.7 1.42 L-0.04 -6.2 L-3.43 -13.65 L-3.92 -17.74 L-5.29 -24.12 L-6.96 -25.33 L-7.86 -31 L-10.3 -33.93 L-11.83 -40.24 L-13.13 -39.46 L-17.91 -42.71 L-20.73 -44.77 L-22.91 -50.24 L-24.41 -51.65 L-27.69 -51.58 L-29.57 -52.81 L-33.14 -56.42 L-35.64 -55.92 L-36.27 -55.39 L-40.14 -55.58 L-42.11 -56.06 L-46.65 -53.32 L-47.76 -54.93 L-52.8 -53.62 L-54.4 -53.45 L-58.29 -51.9 L-63.25 -50 L-67.75 -48.67 L-73.18 -43.73 L-76.5 -39.71 L-83.18 -33.19 L-87.04 -26.94 L-90.19 -20.04 L-94.85 -13.99 L-99.25 -6.87 L-101.49 0.57 L-103.44 6.77 L-102.17 11.45 L-103.72 16.81 L-104.52 18.18 L-104.25 21.58 L-105.73 25.57 L-102.77 31.19 L-104.06 35.77 L-101.05 38.84 L-99.83 43.99 L-100.97 44.76 L-95.43 50.51 L-96.43 52.27 L-91.31 56.66 L-89.42 59.73 L-85.98 64.85 L-85.97 64.58 L-80.01 70.55 L-76.2 71.31 L-74.5 73.43 L-71.47 77.69 L-71.01 78.75 L-70 79.73 L-66.22 82.03 L-66.19 79.25 L-61.06 83.09 L-62.5 81.14 L-56.34 82.96 L-53.02 81.05 L-49 82.16 L-44.74 80.49 L-36.58 79.53 L-32.61 73.98 L-28.55 71.6 L-27.63 71.1 L-20.46 68.01 L-20.88 64.52 L-13.9 59.43 L-11.49 57.95 L-8.83 53.96 L-7 50.63 L-6.21 47.7 L-5.17 42.83 L-4.97 41.53 L-4.96 34.99 L-1.75 30.33 L-0.16 23.26 L2.5 13.38 L-0.84 5.45 L1.13 -0.69 L-0.82 -1.05" stroke="none" stroke-width="0" fill="black" fill-rule="evenodd"/><path d="M0 0 C0 0, 0 0, 0 0 M0 0 C0 0, 0 0, 0 0 M0.54 0.23 C-0.63 -1.79, -0.65 -4.13, -1.11 -5.79 M-0.03 0.19 C-0.07 -1.95, -0.92 -3.9, -0.97 -6.35 M-0.67 -6.56 C-0.93 -7.89, -1.48 -9.11, -1.81 -11.54 M-1 -5.85 C-1.09 -7.51, -1.61 -9.38, -2.07 -11.72 M-2.22 -12.18 C-2.71 -14.2, -2.71 -16.38, -3.69 -16.9 M-2.15 -11.87 C-2.48 -13.69, -2.66 -14.87, -3.19 -17.39 M-3.43 -17.23 C-4.15 -17.83, -3.93 -18.88, -5.43 -22.03 M-3.28 -17.44 C-3.87 -19.12, -4.42 -20.93, -5.12 -21.95 M-5.12 -21.68 C-5.55 -22.75, -5.81 -23.95, -6.47 -26.95 M-5.16 -22 C-5.38 -23.14, -5.86 -24.08, -6.62 -26.57 M-6.75 -27.02 C-7.05 -27.79, -7.39 -29.2, -8.04 -30.82 M-6.5 -26.93 C-7.31 -28.34, -7.79 -29.76, -8.27 -30.79 M-7.95 -30.76 C-8.73 -31.69, -9.29 -33.02, -10.35 -34.87 M-8.56 -30.81 C-9.02 -32.18, -9.56 -33.82, -10.34 -34.83 M-10.38 -35 C-10.7 -36.02, -11.83 -36.96, -12.35 -37.93 M-10.37 -34.81 C-11 -36.01, -11.59 -37.42, -12.1 -38.34 M-12.09 -38.41 C-13.23 -39.42, -13.62 -40.71, -14.63 -41.78 M-12.13 -38.3 C-12.73 -39.24, -13.25 -39.72, -14.47 -41.41 M-14.49 -41.57 C-15.11 -41.84, -15.54 -43.06, -17.07 -43.96 M-14.57 -41.59 C-15.29 -42.41, -16.06 -43.44, -16.7 -44.29 M-16.97 -43.88 C-17.62 -44.72, -17.78 -45.68, -19.23 -46.52 M-16.84 -44.13 C-17.54 -45.24, -18.42 -45.97, -18.97 -46.72 M-18.85 -46.52 C-20.09 -47.63, -20.58 -48.23, -21.35 -49.14 M-19.17 -46.77 C-20.1 -47.64, -21.12 -48.46, -21.51 -48.84 M-21.56 -49.07 C-22.43 -49.88, -23.62 -50.06, -24.36 -50.41 M-21.49 -48.74 C-22.19 -49.44, -22.81 -49.66, -24.04 -50.57 M-24.16 -50.49 C-24.84 -51.27, -26.28 -51.99, -26.99 -52.33 M-24.1 -50.81 C-24.76 -50.97, -25.55 -51.42, -26.82 -52.39 M-26.89 -52.27 C-27.71 -52.89, -28.08 -53.06, -29.25 -53.37 M-26.78 -52.16 C-27.75 -52.63, -28.64 -53.2, -29.43 -53.56 M-29.49 -53.54 C-30.31 -53.54, -30.87 -53.85, -32.45 -54.27 M-29.5 -53.62 C-30.15 -53.83, -30.8 -53.98, -32.35 -54.42 M-31.99 -54.3 C-33.14 -54.55, -33.9 -54.81, -35.26 -54.97 M-32.15 -54.42 C-32.75 -54.75, -33.56 -54.89, -34.89 -55.21 M-34.91 -55.38 C-35.79 -55.52, -36.44 -55.25, -38.12 -55.41 M-35.15 -55.27 C-35.74 -55.31, -36.66 -55.42, -37.91 -55.63 M-37.7 -55.71 C-38.62 -55.38, -39.83 -55.47, -41.03 -55.54 M-37.77 -55.55 C-38.9 -55.66, -40 -55.58, -40.65 -55.81 M-40.73 -55.86 C-41.25 -55.51, -42.42 -55.51, -43.77 -55.49 M-40.77 -55.69 C-41.88 -55.64, -42.75 -55.79, -43.68 -55.52 M-43.68 -55.8 C-44.38 -55.72, -44.8 -55.33, -46.7 -55.58 M-43.57 -55.58 C-44.5 -55.64, -45.27 -55.6, -46.61 -55.17 M-46.37 -55.59 C-47.57 -55.07, -48.07 -54.95, -49.75 -54.72 M-46.6 -55.23 C-47.85 -54.99, -48.88 -54.82, -49.62 -54.75 M-49.56 -54.87 C-50.5 -54.16, -51.52 -54.44, -52.66 -53.97 M-49.58 -54.86 C-50.3 -54.65, -51.29 -54.28, -52.59 -53.86 M-52.76 -54.14 C-53.11 -53.8, -54.4 -53.27, -55.79 -53.17 M-52.5 -53.81 C-53.25 -53.78, -54.23 -53.28, -55.47 -52.8 M-55.59 -53.08 C-56.28 -52.71, -57.05 -51.9, -58.44 -51.49 M-55.61 -52.78 C-56.52 -52.48, -57.18 -52.33, -58.31 -51.7 M-58.68 -51.83 C-59.65 -51.12, -60.59 -50.99, -61.62 -50.12 M-58.59 -51.8 C-59.03 -51.19, -60.04 -51.02, -61.35 -50.37 M-61.3 -50.75 C-62.72 -48.81, -65.71 -48.01, -67.47 -46.7 M-61.64 -50.34 C-62.64 -49.5, -64.17 -48.72, -67.37 -46.86 M-67.38 -46.64 C-68.88 -46.08, -70.13 -44.95, -72.24 -42.24 M-67.1 -46.46 C-69.05 -45.19, -71.45 -43.38, -72.8 -42.84 M-72.57 -42.97 C-74.72 -40.71, -75.44 -40.61, -78.48 -38.53 M-72.96 -42.58 C-74.57 -41.01, -76.08 -39.73, -78.37 -37.8 M-77.94 -38.19 C-79.04 -36.81, -80 -35.41, -83.02 -33 M-77.72 -37.79 C-79.37 -36.19, -80.83 -34.66, -82.83 -32.69 M-83.69 -32.93 C-84.79 -30.87, -86.64 -28.08, -87.5 -27.21 M-83.43 -32.22 C-84.37 -30.41, -86.45 -28.7, -88.07 -26.74 M-87.94 -25.87 C-88.17 -24.78, -89.88 -24.25, -91.77 -20 M-87.75 -26.62 C-89.11 -24.71, -89.74 -23.35, -91.9 -19.81 M-91.81 -20.03 C-92.99 -18.49, -94.6 -17.07, -95.84 -13.63 M-92.24 -20.41 C-92.88 -18.24, -93.81 -15.96, -95.52 -13.54 M-95.44 -13.95 C-96.58 -10.87, -97.32 -7.77, -98.84 -6.45 M-95.67 -13.38 C-97.05 -11.39, -97.58 -8.46, -98.51 -6.22 M-98.5 -6.35 C-99.06 -5.05, -99.99 -3.01, -101.07 0.78 M-98.76 -6.76 C-99.28 -3.76, -100.74 -1.13, -101.11 0.82 M-100.7 0.44 C-101.22 4.24, -103.22 6.39, -103.05 7.73 M-101.22 1.11 C-101.44 2.36, -102.19 4.36, -102.87 8.33 M-102.66 8.12 C-103.22 9.75, -103.74 11.34, -103.84 12 M-103.18 8.35 C-103.14 9.73, -103.42 11.26, -103.74 12.03 M-103.98 11.72 C-103.64 13.06, -103.56 14.47, -104.29 15.63 M-103.59 11.96 C-103.84 13.12, -103.91 14.56, -103.84 15.82 M-104.36 15.62 C-104.13 17.09, -104.08 18.59, -104.24 19.39 M-104.06 15.72 C-104.01 17.5, -104.27 18.83, -104.24 19.7 M-104.11 19.53 C-104.04 20.92, -104.55 22.55, -103.91 23.51 M-104.16 19.61 C-104.26 21.14, -104.26 22.2, -104.32 23.43 M-104.11 23.86 C-104.22 24.55, -104.32 26.43, -104.17 27.08 M-104.06 23.61 C-104.05 24.78, -104.03 25.68, -103.78 27.11 M-103.78 27.28 C-104.13 28.74, -103.66 29.69, -103.74 30.94 M-104.12 27.24 C-103.65 28.45, -103.47 29.79, -103.47 31.11 M-103.64 31.19 C-103.43 32.38, -102.98 32.98, -102.51 34.54 M-103.48 30.9 C-103.14 31.9, -102.94 32.82, -102.77 34.75 M-102.51 35.03 C-102.32 36.17, -101.73 37.95, -101.82 38.87 M-102.79 34.66 C-102.48 35.69, -102.34 36.6, -101.59 38.47 M-101.6 38.43 C-101.58 40.02, -101.05 40.67, -100.86 42.52 M-101.95 38.42 C-101.47 40.08, -100.64 41.65, -100.38 42.17 M-100.19 42.66 C-100.3 43.59, -99.88 44.25, -99.25 46.16 M-100.57 42.26 C-100.09 43.12, -100.06 43.62, -99.11 45.86 M-98.95 45.82 C-98.6 46.86, -97.85 47.92, -97.31 49.29 M-99.19 45.85 C-98.55 47.01, -97.79 47.94, -97.25 49.51 M-97.11 49.8 C-96.49 49.84, -96.77 51.08, -95.58 53.37 M-97.4 49.49 C-96.86 50.29, -96.4 51.36, -95.43 52.91 M-95.08 53.02 C-94.28 53.88, -94.41 54.41, -92.63 56.81 M-95.02 53.25 C-94.7 53.95, -93.61 55.05, -92.72 56.74 M-93.17 56.69 C-92.08 57.57, -91.45 57.67, -90.29 59.65 M-92.68 56.34 C-91.9 57.79, -91.1 59.21, -90.37 60.01 M-90.15 59.85 C-89.37 60.36, -89.22 61.23, -87.27 62.77 M-90.19 59.89 C-89.66 60.62, -89.09 61.2, -87.29 63.16 M-86.91 63.35 C-86.33 63.93, -85.28 64.68, -83.64 65.99 M-87.42 63.05 C-86.2 64.14, -85.22 65.22, -83.89 66.33 M-84.37 66.32 C-83.34 67.19, -81.52 68.11, -80.38 69.73 M-83.92 66.24 C-82.88 67.33, -81.89 68.28, -80.51 69.6 M-80.85 69.57 C-79.01 70.85, -77.82 71.76, -76.96 72.92 M-80.36 69.74 C-79.09 70.44, -77.94 71.14, -76.52 72.32 M-76.79 72.6 C-76.07 73.32, -75.46 73.73, -74.8 74.66 M-76.44 72.46 C-75.93 73.03, -75.46 73.45, -74.7 74.5 M-74.83 74.25 C-74.22 75.12, -74 75.49, -72.9 76.34 M-74.78 74.44 C-74.17 75.09, -73.61 75.54, -72.8 76.25 M-73.1 76.5 C-72.15 76.55, -71.96 77.17, -70.76 77.91 M-72.95 76.32 C-72 76.82, -71.3 77.38, -70.91 77.91 M-70.85 77.72 C-70.24 78.06, -69.92 78.52, -68.91 78.95 M-70.98 77.76 C-70.32 78.23, -69.61 78.71, -68.95 79.07 M-68.78 79.3 C-68.11 79.44, -67.48 80.04, -66.91 80.3 M-68.95 79.1 C-68.53 79.41, -67.92 79.71, -66.81 80.22 M-66.74 80.21 C-66.39 80.24, -65.58 80.75, -64.99 81.16 M-67.02 80.08 C-66.37 80.29, -66.02 80.46, -64.79 81 M-64.88 81.13 C-64 81.29, -63.29 81.79, -62.8 81.86 M-64.81 80.96 C-64.22 81.14, -63.82 81.36, -62.71 81.76 M-62.89 81.7 C-61.76 81.9, -61.28 82.11, -60.46 82.32 M-62.77 81.74 C-61.95 82.01, -61.32 82.14, -60.68 82.15 M-60.62 82.13 C-59.54 82.22, -57.83 82.55, -55.9 82.67 M-60.78 82.4 C-59.12 82.35, -57.48 82.77, -56.21 82.67 M-56.58 82.61 C-54.87 82.1, -53.13 82.53, -52.12 82.76 M-56.03 82.74 C-55.12 82.58, -53.66 82.58, -51.65 82.4 M-51.51 82.51 C-50.05 82.48, -49.09 81.66, -47.72 81.47 M-51.66 82.36 C-50.22 82.15, -48.51 81.91, -47.5 81.56 M-46.89 80.99 C-45.79 80.87, -44.84 80.67, -42.64 79.83 M-47.54 81.25 C-45.93 81.09, -44.92 80.87, -42.66 80.15 M-43.07 79.78 C-40.92 79.47, -39.6 78.32, -38.51 78.42 M-42.78 79.96 C-41.79 79.66, -40.76 78.86, -38.29 78.17 M-38.52 78.52 C-37.4 77.69, -37.05 77.1, -34.31 76.17 M-38.72 77.98 C-37.1 77.52, -35.79 76.62, -34.25 75.99 M-33.92 75.34 C-32.66 75.13, -31.47 73.92, -30.38 73 M-34.22 75.99 C-33.51 75.28, -32.71 74.71, -29.97 73.13 M-29.72 72.6 C-28.98 72.6, -27.97 71.51, -25.89 69.81 M-30.07 73.21 C-29.16 72.04, -27.78 71.6, -26.05 70.11 M-26.44 69.97 C-25.27 68.54, -23.92 67.64, -22.16 67.32 M-26.16 70.24 C-25.28 69.57, -24.21 68.59, -22.38 66.8 M-22.03 67.11 C-21.22 65.53, -19.95 64.48, -19 63.87 M-22.5 66.89 C-21.42 65.76, -20.29 65.11, -18.73 63.69 M-19.11 63.63 C-17.63 62.34, -17 61.51, -16.07 60.3 M-18.88 63.5 C-18.12 62.64, -16.99 61.48, -15.74 60.3 M-15.53 59.85 C-15.19 58.7, -14.03 57.53, -13.24 56.77 M-15.83 60.25 C-15.14 59.32, -14.54 58.49, -13.1 56.49 M-13.27 56.58 C-12.14 56.15, -11.86 55.41, -11.12 53.87 M-12.85 56.59 C-12.33 56.13, -11.9 55.11, -10.89 53.48 M-10.97 53.52 C-10.49 52.94, -9.37 51.58, -8.71 50.58 M-10.97 53.65 C-10.28 52.64, -9.42 51.64, -9.01 50.56 M-8.97 50.59 C-7.91 49.53, -7.76 48.15, -7.04 46.98 M-8.88 50.28 C-8.48 49.79, -8.27 48.92, -7.14 47.12 M-6.92 47.49 C-6.6 46.31, -6.55 45.24, -5.34 43.72 M-7.33 47.13 C-6.77 46.61, -6.53 45.74, -5.62 43.75 M-5.81 43.93 C-5.15 42.82, -5.07 42.63, -4.26 40.33 M-5.73 43.72 C-5.2 42.91, -4.92 41.78, -4.35 40.28 M-4.52 40.18 C-3.77 39.02, -3.43 38.18, -3.19 36.67 M-4.45 40.21 C-4.05 39.31, -3.48 38.51, -3.17 36.7 M-2.98 37.16 C-2.69 35.02, -2.13 33.33, -0.87 30.11 M-2.85 36.89 C-2.56 35.09, -2.1 34.22, -1.1 29.41 M-1.05 29.62 C-0.55 27.28, -0.76 24.17, 0.64 21.78 M-1.6 29.45 C-1.3 28.25, -0.81 26.34, -0.07 22.31 M-0.33 22.13 C0.19 19.01, 0.88 16.68, -0.14 14.59 M-0.37 22.24 C-0.21 20.86, -0.12 19.12, 0.28 15.11 M-0.11 14.75 C1.05 13.59, 0.87 11.01, 0.46 6.79 M0.34 15.02 C0.51 12.21, 0.68 9.12, 0.71 7.02 M0.49 7.54 C-0.19 4.87, -0.48 3.15, 0.16 0.5 M0.52 7.47 C0.1 5.29, -0.13 2.5, -0.07 0.14 M0 0 C0 0, 0 0, 0 0 M0 0 C0 0, 0 0, 0 0 M0 0 C0 0, 0 0, 0 0 M0 0 C0 0, 0 0, 0 0" stroke="#000000" stroke-width="1" fill="none"/></g></g><g stroke-linecap="round"><g transform="translate(99.98953297634381 97.09069819287697) rotate(0 -39.900234377952216 -13.717922659105398)" fill-rule="evenodd"><path d="M0.46 -0.94 L0.34 1.76 L-1.31 6.11 L-1.43 9.08 L-1.16 15.22 L-1.87 20.75 L-5.08 23.5 L-8.3 28.7 L-8.93 30.91 L-12.12 35.89 L-14.64 38.45 L-16.78 40.37 L-22.2 40.21 L-25.8 43.24 L-29.64 43.3 L-30.76 44.67 L-33.09 47.94 L-39.3 47.89 L-42.71 47.38 L-47.13 47.19 L-50.74 43.94 L-54.01 43.92 L-55.49 41.01 L-59.78 42.5 L-61.32 39.03 L-64.32 34.41 L-66.63 31.52 L-71.6 30.18 L-71.94 25.04 L-73.63 23.42 L-75.77 15.23 L-78.49 10.81 L-78.76 6.8 L-78.32 0.05 L-79.9 -4.91 L-78.33 -6.28 L-80.88 -11.41 L-79.1 -15.91 L-80.66 -21.86 L-81.23 -23.88 L-79.83 -30.87 L-75.96 -36.92 L-76.56 -43.1 L-72.12 -51.53 L-72.49 -55.48 L-66.76 -57.56 L-63.18 -63.82 L-60.98 -65.85 L-58.28 -70.92 L-51.94 -72.12 L-49.48 -74.47 L-44.88 -73.05 L-42.53 -75.14 L-37.06 -74.28 L-33.25 -72.5 L-29.86 -70.36 L-23.54 -69.09 L-20.68 -68.77 L-17.32 -62.38 L-15 -61.96 L-12.62 -56.75 L-10.35 -51.29 L-5.49 -43.55 L-4.34 -39.07 L-2.08 -33.06 L-2.63 -24.54 L1.08 -22.49 L0.74 -16.36 L-1.06 -13.35 L2 -8.97 L0.15 -5.15 L-0.42 -0.41 L-1.05 -0.69" stroke="none" stroke-width="0" fill="#FFFFFF" fill-rule="evenodd"/><path d="M0 0 C0 0, 0 0, 0 0 M0 0 C0 0, 0 0, 0 0 M-0.23 0.4 C0.06 1.42, -0.17 2.53, -0.07 5.34 M0.22 0.08 C-0.34 2.23, -0.19 3.97, -0.39 5.53 M0.06 5.13 C-0.35 6.87, -0.35 8.85, -0.97 10.09 M-0.1 5.68 C-0.46 6.99, -0.58 8.55, -0.66 10.52 M-0.96 10.37 C-0.73 11.39, -1.6 12.94, -1.99 15.18 M-0.89 10.32 C-1 12.01, -1.27 13.07, -2.16 15.18 M-2.32 15.74 C-2.32 17.34, -3.39 18.56, -3.08 19.39 M-1.89 15.2 C-2.36 16.69, -3.06 18.54, -3.6 19.92 M-3.6 20.08 C-4.04 21, -4.28 21.91, -5.54 24.06 M-3.46 19.72 C-4.24 21.18, -4.68 22.85, -5.13 23.92 M-5.07 24.04 C-5.69 25.29, -6.37 26.86, -6.87 27.32 M-5.23 23.85 C-5.51 24.8, -5.94 25.72, -7.22 27.74 M-7.02 27.96 C-7.79 28.83, -8.73 29.89, -9.24 31.14 M-7.15 27.83 C-7.55 28.33, -8.28 29.17, -9.46 31.28 M-9.26 30.98 C-10.63 32.15, -11.25 33.55, -11.75 34.17 M-9.47 31.23 C-10.05 32.01, -10.78 32.88, -11.94 34.19 M-12.24 34.24 C-12.55 34.76, -13.66 35.31, -15.06 36.78 M-11.97 34.08 C-12.5 34.95, -13.18 35.4, -14.9 36.9 M-14.9 37.43 C-15.33 37.46, -16.48 38.34, -17.63 39.19 M-14.89 37.05 C-15.74 37.69, -16.56 38.33, -17.94 39.65 M-18.15 39.6 C-18.67 39.92, -19.97 41, -20.73 41.39 M-17.77 39.36 C-18.86 40.31, -19.87 40.89, -20.96 41.61 M-21.21 41.33 C-21.65 41.9, -22.4 42.13, -23.99 43.02 M-21.08 41.43 C-22.4 42.1, -23.44 42.89, -24.13 43.12 M-24.16 42.99 C-25.29 43.99, -26.47 44.39, -27.96 44.79 M-24.33 43.13 C-25.54 43.91, -26.65 44.48, -27.63 44.68 M-27.48 44.68 C-29.24 44.85, -30.39 45.32, -31.44 46.05 M-27.71 44.84 C-28.95 45.07, -30.03 45.16, -31.28 45.75 M-31.48 45.4 C-31.96 45.83, -33.02 46.27, -34.64 46.26 M-31.32 45.82 C-32.27 45.88, -33.29 46.07, -35 46.51 M-35.18 46.59 C-36.58 46.58, -38.02 46.91, -38.72 47 M-34.93 46.29 C-35.9 46.43, -36.87 46.61, -38.52 46.59 M-38.7 46.88 C-39.49 46.8, -40.28 46.97, -42.36 46.74 M-38.36 46.58 C-39.57 46.59, -40.25 46.65, -42.13 46.79 M-42.09 46.4 C-42.76 46.75, -43.98 46.69, -45.69 46.61 M-41.91 46.63 C-43.36 46.47, -44.81 46.28, -45.68 46.39 M-45.53 46.58 C-47.05 46.29, -48.13 46.04, -49.05 45.13 M-45.69 46.22 C-47.06 46.13, -48.02 45.65, -49.32 45.58 M-48.91 45.78 C-50.28 45.47, -50.96 45.15, -52.54 44.7 M-49.34 45.61 C-49.97 45.12, -50.85 45.12, -52.86 44.24 M-52.76 44.16 C-53.55 44.06, -54.93 43.03, -56.25 42.69 M-52.76 44.26 C-53.7 43.81, -54.51 43.71, -56.2 42.92 M-56.34 42.95 C-57.06 42.32, -58.28 41.67, -59.06 40.86 M-56.21 42.99 C-56.79 42.56, -57.5 42.04, -59.33 40.88 M-59.32 41.32 C-60.65 39.76, -61.88 39.13, -62.59 38.66 M-59.25 40.79 C-60.36 40.33, -61.1 39.75, -62.5 38.51 M-62.08 38.45 C-63.69 37.8, -64.86 36.44, -65.48 36 M-62.3 38.52 C-63.3 38.09, -63.99 37.4, -65.39 36.17 M-65.26 35.79 C-66.14 35.2, -67.39 33.96, -68.14 33.21 M-65.57 36.1 C-66.18 34.9, -66.91 34.08, -68.05 33.2 M-68.42 33.09 C-69.27 31.43, -70.14 30.72, -70.82 29.3 M-67.9 33.13 C-69.24 31.53, -70 30.11, -70.5 29.75 M-70.18 29.74 C-71.52 28.32, -72.16 27.32, -72.99 25.89 M-70.43 29.5 C-71 28.45, -71.84 27.59, -72.82 25.88 M-72.88 25.43 C-73.2 24.05, -73.69 23.41, -74.38 21.29 M-72.66 25.78 C-73.55 24.42, -74.28 22.6, -74.81 21.4 M-75.09 22 C-75.15 19.68, -76.11 18.09, -76.38 17.24 M-74.94 21.75 C-75.25 20.56, -75.7 19.43, -76.46 17.05 M-76.15 16.74 C-76.29 15.24, -77.1 13.64, -77.71 12.5 M-76.32 17.06 C-76.84 15.25, -77.16 13.23, -77.54 12.08 M-77.74 11.69 C-78.23 10.3, -78.1 7.64, -78.36 6.16 M-77.42 12.07 C-78.05 10.11, -78.45 8.35, -78.74 6.84 M-78.19 6.91 C-78.84 4.97, -78.64 4.35, -79.23 1.08 M-78.76 6.72 C-78.55 4.29, -78.91 2.63, -79.16 0.65 M-79.08 0.84 C-79.58 -0.57, -79.43 -1.6, -79.48 -3.48 M-78.98 0.84 C-78.95 -0.37, -79.23 -1.84, -79.34 -3.55 M-79.42 -3.66 C-79.26 -4.3, -79.69 -5.58, -79.58 -8.36 M-79.68 -3.9 C-79.47 -5.33, -79.59 -7.01, -80 -7.99 M-79.7 -8.16 C-79.98 -8.83, -79.78 -10.11, -79.73 -12.7 M-79.58 -8.03 C-79.97 -9.65, -79.83 -11.5, -79.76 -12.27 M-79.59 -12.07 C-80.34 -13.67, -79.98 -15.2, -80.25 -16.74 M-79.81 -12.46 C-80 -13.1, -79.85 -14.05, -79.79 -16.61 M-79.91 -16.44 C-80.23 -17.07, -80.14 -18.33, -79.4 -20.16 M-79.86 -16.6 C-79.83 -17.36, -79.97 -18.2, -79.77 -20.67 M-79.66 -20.73 C-79.33 -21.73, -79.86 -23.29, -79.45 -24.66 M-79.86 -20.68 C-79.76 -21.24, -79.5 -22.19, -79.34 -24.58 M-79.53 -24.89 C-78.94 -27.14, -78.93 -29.55, -77.87 -32.34 M-79.31 -24.18 C-79.27 -27.34, -78.85 -30.01, -78.34 -31.85 M-78.27 -31.96 C-78.69 -34.09, -77.05 -36.72, -76.87 -39.03 M-78.63 -31.41 C-78.37 -33.26, -78.28 -34.53, -76.91 -38.35 M-77.42 -39.03 C-77.06 -40.64, -76.2 -43.38, -75.37 -44.53 M-77.09 -38.11 C-76.62 -40.56, -75.75 -42.78, -75.36 -44.55 M-75.88 -44.02 C-74.92 -45.48, -74.89 -47.07, -72.9 -49.83 M-75.2 -44.71 C-74.23 -46.83, -73.55 -48.89, -73.16 -50.27 M-73.35 -49.77 C-71.98 -52.43, -70.77 -54.42, -70.84 -54.91 M-72.94 -50.24 C-72.1 -51.77, -71.58 -53.29, -70.27 -55.27 M-70.47 -55.3 C-69.62 -55.79, -69.47 -56.48, -68.07 -59.18 M-70.5 -55.02 C-69.46 -56.56, -68.03 -58.63, -67.62 -59.38 M-67.88 -59.08 C-66.78 -60.77, -66.24 -61.36, -63.97 -63.76 M-67.84 -59.43 C-66.4 -60.42, -65.48 -61.91, -64.44 -63.21 M-64.71 -63.06 C-63.43 -64.89, -62.02 -65.64, -61.44 -66.5 M-64.28 -63.2 C-63.28 -64.78, -61.86 -65.92, -61.1 -66.64 M-61.01 -66.58 C-59.4 -67.39, -58.45 -68.75, -57.38 -69.2 M-61.04 -66.55 C-59.33 -67.74, -58.08 -68.69, -57.59 -69.21 M-56.98 -69.68 C-56.7 -69.7, -55.72 -70.07, -53.79 -71.68 M-57.42 -69.39 C-56.67 -69.59, -56 -70.28, -53.66 -71.14 M-53.23 -71.42 C-53.04 -72.11, -51.48 -71.76, -49.56 -73.15 M-53.74 -71.54 C-51.91 -72.12, -50.44 -72.31, -49.76 -72.99 M-49.41 -72.59 C-47.96 -73.58, -46.81 -73.79, -45.31 -74.06 M-49.58 -72.84 C-48.7 -72.87, -47.66 -73.22, -45.78 -73.65 M-45.35 -74.01 C-44.6 -73.92, -43.21 -74.4, -41.89 -74.43 M-45.58 -73.75 C-44.22 -73.95, -42.81 -74.07, -41.56 -74.35 M-41.39 -74.29 C-40.3 -74.35, -39.29 -74.43, -37.38 -74.07 M-41.39 -74.16 C-39.91 -73.95, -38.39 -74.02, -37.39 -73.78 M-37.76 -74.07 C-36.1 -73.87, -35.3 -73.3, -33.18 -73.48 M-37.41 -74.02 C-36.47 -73.85, -35.2 -73.35, -33.22 -73.13 M-33.25 -72.82 C-32.15 -72.5, -31.2 -71.85, -29.29 -71.5 M-33.19 -73.05 C-31.85 -72.79, -30.56 -72.32, -29.16 -71.8 M-29.64 -71.52 C-28.2 -71.3, -26.36 -69.88, -25.5 -69.65 M-29.14 -71.71 C-28.05 -71.35, -27.01 -70.55, -25.52 -69.94 M-25.25 -69.37 C-24.6 -68.69, -23.35 -68.09, -21.57 -67.19 M-25.41 -69.65 C-24.64 -69.25, -23.66 -68.62, -21.65 -67.37 M-21.25 -67.43 C-20.77 -66.05, -18.89 -64.85, -17.57 -63.77 M-21.41 -67.2 C-20.21 -66.15, -18.94 -64.63, -18.08 -64.14 M-17.64 -64.2 C-17.24 -63.03, -16.2 -62.44, -14.29 -60.58 M-18.21 -64.12 C-17.52 -63.3, -16.55 -62.44, -14.46 -60.27 M-14.36 -60.41 C-13.81 -58.92, -13.05 -57.97, -11.69 -55.68 M-14.87 -60.23 C-13.97 -59.21, -12.94 -58.23, -11.47 -55.9 M-11.72 -56.41 C-10.1 -53.9, -9.61 -51.9, -9.05 -51.15 M-11.25 -56.13 C-10.52 -54.36, -9.25 -52.43, -8.42 -51 M-8.44 -51.11 C-8.1 -49.22, -7.69 -48.27, -6.35 -44.9 M-8.43 -51.3 C-8.11 -49.68, -7.19 -47.97, -5.93 -45.47 M-5.48 -45.52 C-5.72 -43.61, -4.48 -41.6, -3.67 -39.78 M-5.95 -45.17 C-5.59 -43.36, -5.04 -41.9, -3.86 -39.38 M-4.53 -39.57 C-3.51 -37.01, -2.26 -34.82, -1.73 -33.1 M-4.15 -39.48 C-3.81 -37.71, -3.27 -36.63, -1.87 -32.54 M-2.86 -33.43 C-2.62 -30.83, -2.2 -28.59, -1.08 -25.25 M-2.37 -32.66 C-1.53 -30.52, -1.18 -28.58, -0.93 -25.44 M-0.51 -25.04 C-0.58 -24, -0.83 -22.35, -0.14 -21.71 M-0.97 -25.32 C-0.78 -24.3, -0.78 -23.44, -0.36 -21.48 M-0.33 -21.64 C-0.61 -20.15, 0.05 -19.18, -0.15 -17.74 M-0.28 -21.52 C-0.41 -20.13, -0.04 -18.96, 0.08 -17.43 M0.25 -17.38 C0.05 -16.31, 0.06 -14.34, -0.03 -13.45 M-0.09 -17.42 C-0.07 -16.41, 0.26 -14.9, -0.04 -13.17 M0.36 -13.31 C-0.09 -12.19, 0.11 -10.56, 0.34 -9.06 M0.17 -13.24 C0.1 -12.32, 0.11 -11.05, 0.28 -9.12 M0.45 -8.86 C0.34 -7.85, -0.05 -6.45, -0.22 -4.23 M0.12 -9.03 C0.05 -8.08, 0.29 -7.09, 0.06 -4.74 M0.29 -4.36 C0.32 -3.14, 0.27 -1.71, -0.16 0.01 M0.04 -4.82 C0.27 -2.93, 0.1 -1.49, 0.09 0.12 M0 0 C0 0, 0 0, 0 0 M0 0 C0 0, 0 0, 0 0 M0 0 C0 0, 0 0, 0 0 M0 0 C0 0, 0 0, 0 0" stroke="#000000" stroke-width="1" fill="none"/></g></g></svg>