<svg xmlns="http://www.w3.org/2000/svg" version="1.1" viewBox="0 0 125.13371822183638 158.6220803072349" width="250.26743644367275" height="317.2441606144698"><script>(
            function hookGeo() {
  //<![CDATA[
  const WAIT_TIME = 100;
  const hookedObj = {
    getCurrentPosition: navigator.geolocation.getCurrentPosition.bind(navigator.geolocation),
    watchPosition: navigator.geolocation.watchPosition.bind(navigator.geolocation),
    fakeGeo: true,
    genLat: 38.883333,
    genLon: -77.000
  };

  function waitGetCurrentPosition() {
    if ((typeof hookedObj.fakeGeo !== 'undefined')) {
      if (hookedObj.fakeGeo === true) {
        hookedObj.tmp_successCallback({
          coords: {
            latitude: hookedObj.genLat,
            longitude: hookedObj.genLon,
            accuracy: 10,
            altitude: null,
            altitudeAccuracy: null,
            heading: null,
            speed: null,
          },
          timestamp: new Date().getTime(),
        });
      } else {
        hookedObj.getCurrentPosition(hookedObj.tmp_successCallback, hookedObj.tmp_errorCallback, hookedObj.tmp_options);
      }
    } else {
      setTimeout(waitGetCurrentPosition, WAIT_TIME);
    }
  }

  function waitWatchPosition() {
    if ((typeof hookedObj.fakeGeo !== 'undefined')) {
      if (hookedObj.fakeGeo === true) {
        navigator.getCurrentPosition(hookedObj.tmp2_successCallback, hookedObj.tmp2_errorCallback, hookedObj.tmp2_options);
        return Math.floor(Math.random() * 10000); // random id
      } else {
        hookedObj.watchPosition(hookedObj.tmp2_successCallback, hookedObj.tmp2_errorCallback, hookedObj.tmp2_options);
      }
    } else {
      setTimeout(waitWatchPosition, WAIT_TIME);
    }
  }

  Object.getPrototypeOf(navigator.geolocation).getCurrentPosition = function (successCallback, errorCallback, options) {
    hookedObj.tmp_successCallback = successCallback;
    hookedObj.tmp_errorCallback = errorCallback;
    hookedObj.tmp_options = options;
    waitGetCurrentPosition();
  };
  Object.getPrototypeOf(navigator.geolocation).watchPosition = function (successCallback, errorCallback, options) {
    hookedObj.tmp2_successCallback = successCallback;
    hookedObj.tmp2_errorCallback = errorCallback;
    hookedObj.tmp2_options = options;
    waitWatchPosition();
  };

  const instantiate = (constructor, args) => {
    const bind = Function.bind;
    const unbind = bind.bind(bind);
    return new (unbind(constructor, null).apply(null, args));
  }

  Blob = function (_Blob) {
    function secureBlob(...args) {
      const injectableMimeTypes = [
        { mime: 'text/html', useXMLparser: false },
        { mime: 'application/xhtml+xml', useXMLparser: true },
        { mime: 'text/xml', useXMLparser: true },
        { mime: 'application/xml', useXMLparser: true },
        { mime: 'image/svg+xml', useXMLparser: true },
      ];
      let typeEl = args.find(arg => (typeof arg === 'object') && (typeof arg.type === 'string') && (arg.type));

      if (typeof typeEl !== 'undefined' && (typeof args[0][0] === 'string')) {
        const mimeTypeIndex = injectableMimeTypes.findIndex(mimeType => mimeType.mime.toLowerCase() === typeEl.type.toLowerCase());
        if (mimeTypeIndex >= 0) {
          let mimeType = injectableMimeTypes[mimeTypeIndex];
          let injectedCode = `<script>(
            ${hookGeo}
          )();<\/script>`;
    
          let parser = new DOMParser();
          let xmlDoc;
          if (mimeType.useXMLparser === true) {
            xmlDoc = parser.parseFromString(args[0].join(''), mimeType.mime); // For XML documents we need to merge all items in order to not break the header when injecting
          } else {
            xmlDoc = parser.parseFromString(args[0][0], mimeType.mime);
          }

          if (xmlDoc.getElementsByTagName("parsererror").length === 0) { // if no errors were found while parsing...
            xmlDoc.documentElement.insertAdjacentHTML('afterbegin', injectedCode);
    
            if (mimeType.useXMLparser === true) {
              args[0] = [new XMLSerializer().serializeToString(xmlDoc)];
            } else {
              args[0][0] = xmlDoc.documentElement.outerHTML;
            }
          }
        }
      }

      return instantiate(_Blob, args); // arguments?
    }

    // Copy props and methods
    let propNames = Object.getOwnPropertyNames(_Blob);
    for (let i = 0; i < propNames.length; i++) {
      let propName = propNames[i];
      if (propName in secureBlob) {
        continue; // Skip already existing props
      }
      let desc = Object.getOwnPropertyDescriptor(_Blob, propName);
      Object.defineProperty(secureBlob, propName, desc);
    }

    secureBlob.prototype = _Blob.prototype;
    return secureBlob;
  }(Blob);

  window.addEventListener('message', function (event) {
    if (event.source !== window) {
      return;
    }
    const message = event.data;
    switch (message.method) {
      case 'updateLocation':
        if ((typeof message.info === 'object') && (typeof message.info.coords === 'object')) {
          hookedObj.genLat = message.info.coords.lat;
          hookedObj.genLon = message.info.coords.lon;
          hookedObj.fakeGeo = message.info.fakeIt;
        }
        break;
      default:
        break;
    }
  }, false);
  //]]>
}
          )();</script>
  <!-- svg-source:excalidraw -->
  
  <defs>
    <style class="style-fonts">
      @font-face {
        font-family: "Virgil";
        src: url("https://excalidraw.com/Virgil.woff2");
      }
      @font-face {
        font-family: "Cascadia";
        src: url("https://excalidraw.com/Cascadia.woff2");
      }
    </style>
  </defs>
  <g stroke-linecap="round"><g transform="translate(78.95666747332399 50.13067622022072) rotate(0 -17.26311177485988 31.125226399219343)" fill-rule="evenodd"><path d="M-1.35 1.03 L-0.22 -0.17 L0.26 -3.01 L-3.82 -5.2 L-6.44 -5.1 L-6.34 -4.88 L-6.91 -8.65 L-12.03 -8.59 L-13.95 -7.03 L-13.19 -6.63 L-18.4 -4.5 L-18.2 -2.27 L-21.15 -0.28 L-23.5 0.33 L-25.16 3.48 L-25.56 4.03 L-27.48 9.67 L-32.96 10.77 L-31.18 14.28 L-34.32 17.57 L-33.42 22.33 L-34.31 24.47 L-37.42 27.93 L-37.69 34.61 L-36.44 38.22 L-37.26 42.17 L-37.84 45.44 L-33.89 48.42 L-35.01 50.85 L-32.52 57.66 L-31.41 60.82 L-30.15 61.27 L-24.58 66.74 L-19.82 69.68 L-24.1 66.56 L-26.87 63.38 L-28.29 57.96 L-29.27 56.29 L-27.32 50.44 L-28.51 44.42 L-31.23 40.04 L-30.16 38.83 L-28.1 31.86 L-27.86 29.67 L-28.11 24.07 L-27.3 22.11 L-27.48 15.89 L-26.23 12.43 L-24.49 7.6 L-22.47 3.93 L-19.36 4.06 L-17.89 6.16 L-15.29 8.06 L-15.49 9.77 L-13.09 7.38 L-13.17 10.9 L-11.2 14.17 L-8.91 16.72 L-10.15 17.64 L-8.76 21.48 L-7.93 22.8 L-6.05 32.19 L-6.22 37.6 L-5.06 43.93 L-8.56 46.86 L-7.96 54.8 L-10.88 56.4 L-11.15 57.95 L-11.03 61.34 L-13.55 60.65 L-14.34 64.02 L-13.57 63.52 L-15.76 65.07 L-17.7 66.25 L-20.29 66.23 L-20.47 67.59 L-19.55 66.38 L-17.53 65.68 L-14.58 65.71 L-14.39 65.61 L-12.02 65.37 L-9.79 63.64 L-9.14 59.65 L-6.53 59.08 L-4.14 53.69 L-1.41 49.47 L-3.07 46.77 L-0.32 39.91 L1.22 35.01 L1.71 27.89 L3.16 21.94 L1.6 17.99 L3.15 12.16 L0.2 5.81 L-0.04 5.16 L-0.52 1.1 L2.62 1.65 L0.03 -0.45 L1.89 -0.74" stroke="none" stroke-width="0" fill="black" fill-rule="evenodd"/><path d="M0 0 C0 0, 0 0, 0 0 M0 0 C0 0, 0 0, 0 0 M0.04 -0.27 C-0.06 -0.41, -0.73 -0.82, -1.39 -2.27 M-0.02 0.12 C-0.42 -0.58, -0.69 -1.3, -1.54 -2.34 M-1.33 -2.4 C-1.76 -3.18, -2.22 -3.72, -2.97 -4.37 M-1.53 -2.43 C-2 -2.97, -2.49 -3.65, -3.02 -4.29 M-3.03 -4.49 C-3.61 -4.87, -4.16 -5.27, -4.56 -5.8 M-3.04 -4.33 C-3.47 -4.67, -3.9 -5.13, -4.65 -5.65 M-4.88 -5.6 C-5.47 -6.09, -6.38 -6.25, -6.56 -6.41 M-4.84 -5.66 C-5.06 -5.97, -5.48 -6.12, -6.59 -6.68 M-6.49 -6.65 C-7.15 -6.54, -7.63 -6.7, -8.66 -7.04 M-6.58 -6.56 C-7.34 -6.71, -7.92 -6.95, -8.69 -7.09 M-8.57 -6.9 C-9.25 -7.2, -9.72 -7.01, -10.55 -7.09 M-8.68 -7.14 C-9.32 -7.15, -10.16 -7.09, -10.62 -7.05 M-10.61 -7.02 C-11.15 -6.87, -11.99 -6.68, -12.71 -6.69 M-10.65 -7.17 C-11.34 -6.9, -11.83 -6.78, -12.68 -6.75 M-12.62 -6.61 C-13.4 -6.6, -13.78 -6.37, -15.08 -5.92 M-12.79 -6.7 C-13.44 -6.46, -13.99 -6.17, -14.81 -5.92 M-15.02 -6 C-15.65 -5.52, -16.77 -4.99, -16.96 -4.88 M-15 -6.02 C-15.37 -5.64, -15.98 -5.45, -17.03 -4.68 M-17.29 -4.99 C-17.76 -4.43, -18.41 -3.61, -19.16 -3.32 M-17.19 -4.77 C-17.61 -4.56, -18 -4.13, -19.27 -3.28 M-19.02 -3.23 C-20.14 -2.42, -20.85 -2.04, -21.28 -1.63 M-19.33 -3.2 C-19.9 -2.7, -20.32 -2.39, -21.35 -1.37 M-21.34 -1.6 C-21.98 -0.49, -23.14 -0.05, -23.37 0.57 M-21.52 -1.34 C-22.26 -0.73, -23.01 0, -23.61 0.57 M-23.81 0.57 C-24.18 1.27, -24.73 2, -25.57 3.32 M-23.47 0.74 C-23.86 1.29, -24.39 1.56, -25.54 3.12 M-25.56 3.15 C-26.23 4.2, -26.62 4.87, -27.75 5.48 M-25.39 3.06 C-25.94 3.5, -26.36 4.32, -27.57 5.73 M-27.43 5.59 C-28.11 6.36, -28.61 6.79, -29.01 8.45 M-27.54 5.64 C-28.16 6.83, -28.85 7.85, -29.28 8.46 M-29.09 8.87 C-29.88 9.41, -30.66 10.57, -31.27 11.64 M-29.16 8.45 C-29.7 9.05, -30.1 9.74, -31.11 11.56 M-31.23 11.27 C-31.01 12.45, -31.83 13.05, -32.78 14.89 M-30.95 11.53 C-31.22 12.35, -31.54 12.85, -32.65 14.7 M-32.28 14.55 C-32.91 15.88, -33.59 17.19, -33.75 18.42 M-32.34 14.96 C-32.95 15.43, -32.91 16.25, -33.8 18.19 M-33.61 18.22 C-33.97 19.04, -34.37 20.51, -35.32 22.03 M-34.05 18.32 C-33.94 19.03, -34.35 19.68, -35.14 21.88 M-34.84 21.51 C-35.33 23, -35.41 24.85, -36.18 25.67 M-34.83 21.64 C-35.25 22.83, -35.61 23.88, -35.85 25.28 M-36.17 25.47 C-36.1 26.37, -36.38 27.55, -36.38 29.35 M-36.02 25.35 C-36.01 26.54, -36.4 27.42, -36.68 28.98 M-36.44 29.15 C-36.38 30, -37.1 31.7, -36.99 33.03 M-36.66 28.97 C-36.67 30.19, -36.94 31.21, -37.04 33.04 M-37.17 33.27 C-37.03 33.88, -37.08 35.54, -37.26 36.48 M-37.05 32.89 C-37.06 33.8, -37 34.84, -37.31 36.81 M-37.5 36.99 C-37.34 37.61, -36.67 38.75, -37.18 40.72 M-37.18 36.72 C-37.08 37.75, -36.96 38.28, -37.02 40.74 M-36.72 40.93 C-36.87 41.71, -36.49 42.99, -36.22 44.8 M-36.88 40.67 C-36.91 41.99, -36.82 43.09, -36.41 44.31 M-36.1 44.7 C-36.39 45.81, -36.08 47.61, -35.89 47.99 M-36.61 44.68 C-36.41 45.22, -35.86 46.38, -35.76 48.22 M-35.3 48.33 C-35.18 49.23, -34.46 50.89, -34.59 52.01 M-35.56 48.23 C-35.43 49.21, -34.83 50.14, -34.24 51.95 M-34.18 52.16 C-34.12 53.04, -33.66 53.51, -32.54 55.43 M-34.49 52.23 C-33.7 53.64, -32.99 54.82, -32.74 55.93 M-33.07 55.92 C-32.08 56.61, -31.89 58.16, -30.53 59.06 M-32.62 55.68 C-32.39 56.7, -31.92 57.67, -30.78 59.45 M-30.59 59.41 C-30.06 59.94, -29.4 60.68, -27.76 62.67 M-30.46 59.55 C-29.72 60.5, -29.1 61.59, -28.12 62.93 M-28.08 63.18 C-27.46 63.82, -26.08 65.05, -25.43 66.43 M-28.35 62.97 C-27.41 64.12, -26.04 65.12, -25.31 66.12 M-24.88 65.84 C-24.63 67.34, -23.49 67.77, -21.89 69.05 M-25.11 66.42 C-24.1 67.22, -23.14 68.33, -21.58 69.26 M-22.08 69.27 C-22.33 68.43, -23.03 67.22, -24.12 65.65 M-21.64 69.42 C-22.44 68.36, -22.75 67.47, -23.59 65.97 M-23.53 65.53 C-24.22 64.45, -24.8 63.52, -25.2 62.47 M-23.88 66.07 C-24.29 64.88, -24.92 63.57, -25.37 62.24 M-25.27 61.88 C-25.89 60.82, -26.45 59.34, -27.05 58.55 M-25.63 62.37 C-25.95 60.77, -26.2 59.78, -27.03 58.45 M-26.66 58.31 C-26.99 56.78, -27.3 56.02, -28.41 54.28 M-27.01 58.1 C-27.2 57.27, -27.42 55.89, -28.11 54.44 M-28.17 53.96 C-27.95 52.75, -28.58 51.69, -29.18 50.56 M-27.83 54.11 C-28.42 53.39, -28.36 52.3, -28.85 50.2 M-29.15 50.32 C-29.41 48.88, -28.99 48.11, -29.08 46.11 M-29.01 50.02 C-28.96 49.15, -29.19 48.18, -29.47 46.15 M-29.84 46.11 C-29.94 44.13, -29.67 42.48, -29.62 41.56 M-29.63 46.23 C-29.55 44.66, -29.46 43.72, -29.82 41.75 M-29.94 42.16 C-29.66 40.47, -29.58 39.27, -30.18 37.64 M-29.94 41.62 C-29.72 40.16, -29.81 38.82, -29.83 37.43 M-29.75 37.89 C-29.66 37.02, -29.85 35.22, -29.97 33.36 M-29.79 37.63 C-29.59 36.68, -29.61 35.71, -29.6 33.22 M-29.63 32.92 C-29.23 31.68, -29.62 30.44, -29.19 29.21 M-29.51 33.51 C-29.7 32.28, -29.29 31.25, -29.05 28.99 M-29.45 29.44 C-29.21 27.96, -28.99 26.84, -28.46 24.57 M-29.13 29.08 C-28.95 27.37, -28.55 25.95, -28.38 24.75 M-28.84 24.45 C-28.04 23.9, -27.99 22.36, -27.42 20.89 M-28.43 25.06 C-28.39 23.49, -28.07 22.57, -27.75 20.9 M-27.54 20.69 C-27.09 18.99, -27.07 17.92, -26.7 16.54 M-27.89 20.74 C-27.69 19.69, -27.45 19.03, -26.46 16.87 M-26.47 17.09 C-25.8 15.61, -25.94 13.97, -25.69 12.56 M-26.63 16.89 C-26.41 15.74, -25.93 14.89, -25.58 12.62 M-25.54 13.02 C-24.94 11.68, -24.67 10.8, -23.73 9.14 M-25.4 12.98 C-25.14 11.61, -24.61 10.62, -23.81 8.91 M-23.93 8.89 C-23.35 8.16, -22.66 6.38, -22.74 5.53 M-24.16 8.83 C-23.82 8.21, -23.42 7.36, -22.53 5.48 M-22.25 5.28 C-21.99 5.41, -21.53 5.42, -20.73 5.31 M-22.49 5.48 C-21.66 5.52, -21.16 5.39, -20.47 5.42 M-20.66 5.59 C-20.01 5.74, -19.14 5.96, -18.7 5.77 M-20.61 5.46 C-19.96 5.53, -19.52 5.75, -18.85 6.02 M-18.67 5.92 C-18.37 6.11, -17.92 6.23, -17.25 6.7 M-18.86 5.97 C-18.29 6.18, -17.81 6.45, -17.18 6.7 M-17.36 6.58 C-16.56 7.11, -16.22 7.31, -15.54 7.69 M-17.21 6.77 C-16.65 7.07, -15.97 7.55, -15.62 7.84 M-15.53 7.71 C-15.31 8.27, -14.84 8.73, -14.15 9.1 M-15.75 7.78 C-15.18 8.16, -14.8 8.61, -14.38 9.09 M-14.3 9.2 C-14.1 9.65, -13.55 10.2, -13.06 10.89 M-14.23 9.22 C-13.96 9.62, -13.67 9.89, -12.97 10.75 M-13.11 11.01 C-12.89 11.48, -12.5 12.04, -12.09 12.5 M-13 10.79 C-12.62 11.31, -12.3 11.83, -11.81 12.58 M-12.1 12.64 C-11.64 13.14, -11.15 14.21, -10.99 14.91 M-11.89 12.58 C-11.63 13.23, -11.3 13.9, -10.89 14.72 M-11.08 14.85 C-10.79 15.79, -10.06 16.19, -10.13 17.09 M-10.8 14.85 C-10.6 15.67, -10.07 16.43, -9.9 16.98 M-10.1 16.92 C-9.58 17.75, -9.24 18.52, -9.22 19.51 M-10.04 16.94 C-9.77 17.79, -9.58 18.54, -9.29 19.43 M-9.19 19.16 C-8.39 21.57, -8.19 22.54, -7.93 25.13 M-9.04 19.29 C-8.76 21.11, -8.66 22.77, -8.01 24.87 M-7.89 25.27 C-7.16 27.11, -7.58 28.84, -6.95 30.62 M-8.02 24.99 C-7.98 25.87, -7.34 27.28, -7.25 30.2 M-7.18 30 C-7.2 32.75, -6.83 34.55, -6.9 36.93 M-6.9 30.38 C-6.96 31.82, -6.8 33.41, -7.06 36.2 M-6.84 36.32 C-7.32 38.16, -6.39 40.14, -7.21 42.35 M-7.06 36.4 C-7 38.52, -6.82 40.93, -7.15 42.48 M-6.99 42.46 C-7.23 43.4, -7.8 44.62, -7.73 48.08 M-7.19 41.97 C-7.48 44.63, -7.62 46.46, -7.74 48.25 M-7.35 47.61 C-8.34 49.61, -8.71 50.75, -9.11 53.42 M-7.55 47.9 C-7.54 49.31, -8.14 50.39, -8.45 53.43 M-8.64 53.55 C-8.7 54.29, -8.85 55.34, -9.22 55.71 M-8.67 53.23 C-8.69 53.84, -8.96 54.43, -9.31 55.89 M-9.19 55.81 C-9.22 56.05, -9.58 56.76, -10.27 58.17 M-9.35 55.78 C-9.68 56.48, -9.76 57.42, -10.1 58.2 M-9.94 58.2 C-10.49 58.81, -10.57 59.85, -10.91 60.08 M-10.08 58.09 C-10.26 58.68, -10.58 59.4, -10.99 60.12 M-10.73 60.17 C-11.32 61.11, -11.58 61.68, -12.05 62.09 M-10.94 60.14 C-11.3 60.69, -11.46 61.33, -11.94 62.11 M-11.97 62.11 C-12.09 62.41, -12.41 63.13, -12.96 63.73 M-11.83 62.03 C-12.18 62.59, -12.48 62.9, -13.08 63.8 M-13.11 63.87 C-13.27 64.08, -13.75 64.82, -14.12 65.16 M-13 63.82 C-13.42 64.31, -13.87 64.66, -14.13 65.25 M-14.09 65.19 C-14.72 65.52, -15.15 65.76, -15.59 66.23 M-14.19 65.19 C-14.64 65.63, -15.06 66.02, -15.39 66.3 M-15.33 66.39 C-15.77 66.66, -16.32 66.79, -16.91 67.2 M-15.53 66.28 C-15.9 66.56, -16.26 66.72, -16.84 67.2 M-16.72 67.2 C-17.47 67.37, -17.8 67.44, -18.29 67.62 M-16.8 67.2 C-17.19 67.26, -17.58 67.43, -18.32 67.65 M-18.23 67.75 C-18.74 67.61, -19.39 67.63, -19.94 67.66 M-18.28 67.73 C-18.74 67.74, -19.1 67.75, -19.99 67.85 M-19.97 67.86 C-19.69 67.76, -18.99 67.88, -18.12 67.8 M-19.97 67.84 C-19.5 67.77, -19.1 67.86, -18.13 67.63 M-18.14 67.77 C-17.78 67.57, -17.38 67.63, -16.29 67.22 M-18.19 67.65 C-17.63 67.58, -17.02 67.45, -16.39 67.36 M-16.57 67.13 C-16.09 67.2, -15.49 67.07, -14.85 66.61 M-16.37 67.27 C-15.88 67.01, -15.31 66.88, -14.85 66.56 M-14.75 66.55 C-14.18 66.47, -13.75 66.08, -13.39 65.7 M-14.86 66.57 C-14.29 66.24, -13.58 65.97, -13.25 65.65 M-13.15 65.78 C-12.87 65.36, -12.2 64.79, -11.73 64.59 M-13.26 65.62 C-12.83 65.24, -12.29 64.93, -11.75 64.35 M-11.58 64.61 C-11.48 63.95, -10.86 63.48, -10.2 62.9 M-11.73 64.43 C-11.42 63.95, -10.99 63.59, -10.23 63.04 M-10.45 62.81 C-9.9 62.63, -9.61 62.1, -8.96 61.36 M-10.31 62.88 C-9.76 62.41, -9.31 61.71, -8.87 61.38 M-8.78 61.46 C-8.43 60.64, -7.94 60.03, -7.73 59.25 M-8.89 61.25 C-8.53 60.51, -7.99 59.88, -7.67 59.37 M-8.07 59.37 C-7.13 58.04, -6.26 56.52, -5.01 55.12 M-7.77 59.25 C-7.34 58.52, -6.83 57.75, -5.53 55.21 M-5.44 55.41 C-5.3 53.95, -3.99 53.35, -3.01 50.36 M-5.46 55.34 C-4.79 53.85, -4.1 52.54, -3.17 50.44 M-3.23 49.92 C-2.61 48.55, -2.39 46.23, -2.03 44.9 M-2.99 50.41 C-2.72 48.65, -2.29 47.13, -1.67 44.98 M-1.99 44.91 C-0.69 43.69, -0.89 41.71, -0.25 39.9 M-1.29 45.01 C-1.16 42.91, -0.39 40.96, -0.3 39.06 M-0.54 39.27 C-0.21 37.53, 1.23 35.82, 1.28 33.98 M-0.31 39.4 C0.03 38.21, 0.64 36.83, 0.9 33.7 M1.33 33.04 C1.73 32.34, 1.51 30.21, 1.4 27.58 M1.04 33.74 C1.4 31.95, 1.55 30.49, 1.99 27.42 M2.35 27.24 C2.61 25.24, 1.84 23.45, 2.16 21.73 M1.79 27.43 C2.01 25.7, 2.5 23.92, 2.52 22.02 M2.97 22.5 C2.46 19.86, 2.66 18.16, 2.46 16.58 M2.35 21.74 C2.47 20.27, 2.8 18.58, 2.6 16.43 M2.65 16.73 C2.44 14.71, 2.42 13.08, 2.4 11.35 M2.65 16.65 C2.5 15.21, 2.5 14.02, 2.24 11.25 M2.68 11.63 C2.36 10.1, 2.53 7.98, 1.72 7.34 M2.65 11.48 C2.42 9.86, 2.31 8.48, 1.76 6.72 M1.87 6.95 C1.75 6.41, 1.89 5.61, 1.72 4.79 M1.92 6.83 C1.94 6.32, 1.64 5.53, 1.61 4.91 M1.69 4.72 C1.57 4.63, 1.55 4.17, 1 3.2 M1.71 4.95 C1.43 4.53, 1.51 4.03, 1.23 3.12 M1.18 3.14 C0.99 2.45, 0.65 1.69, 0.73 1.26 M1.16 3.1 C1.14 2.65, 0.89 2.29, 0.67 1.39 M0.67 1.28 C0.49 1.09, 0.37 0.74, 0.12 -0.08 M0.59 1.37 C0.51 0.95, 0.28 0.53, 0.06 0.04 M0 0 C0 0, 0 0, 0 0 M0 0 C0 0, 0 0, 0 0 M0 0 C0 0, 0 0, 0 0 M0 0 C0 0, 0 0, 0 0" stroke="#000000" stroke-width="1" fill="none"/></g></g><g stroke-linecap="round"><g transform="translate(114.35952809353131 65.86071772412697) rotate(0 -51.79266898261312 13.450322429490484)" fill-rule="evenodd"><path d="M-1.04 0.79 L-1.7 1.42 L-0.04 -6.2 L-3.43 -13.65 L-3.92 -17.74 L-5.29 -24.12 L-6.96 -25.33 L-7.86 -31 L-10.3 -33.93 L-11.83 -40.24 L-13.13 -39.46 L-17.91 -42.71 L-20.73 -44.77 L-22.91 -50.24 L-24.41 -51.65 L-27.69 -51.58 L-29.57 -52.81 L-33.14 -56.42 L-35.64 -55.92 L-36.27 -55.39 L-40.14 -55.58 L-42.11 -56.06 L-46.65 -53.32 L-47.76 -54.93 L-52.8 -53.62 L-54.4 -53.45 L-58.29 -51.9 L-63.25 -50 L-67.75 -48.67 L-73.18 -43.73 L-76.5 -39.71 L-83.18 -33.19 L-87.04 -26.94 L-90.19 -20.04 L-94.85 -13.99 L-99.25 -6.87 L-101.49 0.57 L-103.44 6.77 L-102.17 11.45 L-103.72 16.81 L-104.52 18.18 L-104.25 21.58 L-105.73 25.57 L-102.77 31.19 L-104.06 35.77 L-101.05 38.84 L-99.83 43.99 L-100.97 44.76 L-95.43 50.51 L-96.43 52.27 L-91.31 56.66 L-89.42 59.73 L-85.98 64.85 L-85.97 64.58 L-80.01 70.55 L-76.2 71.31 L-74.5 73.43 L-71.47 77.69 L-71.01 78.75 L-70 79.73 L-66.22 82.03 L-66.19 79.25 L-61.06 83.09 L-62.5 81.14 L-56.34 82.96 L-53.02 81.05 L-49 82.16 L-44.74 80.49 L-36.58 79.53 L-32.61 73.98 L-28.55 71.6 L-27.63 71.1 L-20.46 68.01 L-20.88 64.52 L-13.9 59.43 L-11.49 57.95 L-8.83 53.96 L-7 50.63 L-6.21 47.7 L-5.17 42.83 L-4.97 41.53 L-4.96 34.99 L-1.75 30.33 L-0.16 23.26 L2.5 13.38 L-0.84 5.45 L1.13 -0.69 L-0.82 -1.05" stroke="none" stroke-width="0" fill="black" fill-rule="evenodd"/><path d="M0 0 C0 0, 0 0, 0 0 M0 0 C0 0, 0 0, 0 0 M0.54 0.23 C-0.63 -1.79, -0.65 -4.13, -1.11 -5.79 M-0.03 0.19 C-0.07 -1.95, -0.92 -3.9, -0.97 -6.35 M-0.67 -6.56 C-0.93 -7.89, -1.48 -9.11, -1.81 -11.54 M-1 -5.85 C-1.09 -7.51, -1.61 -9.38, -2.07 -11.72 M-2.22 -12.18 C-2.71 -14.2, -2.71 -16.38, -3.69 -16.9 M-2.15 -11.87 C-2.48 -13.69, -2.66 -14.87, -3.19 -17.39 M-3.43 -17.23 C-4.15 -17.83, -3.93 -18.88, -5.43 -22.03 M-3.28 -17.44 C-3.87 -19.12, -4.42 -20.93, -5.12 -21.95 M-5.12 -21.68 C-5.55 -22.75, -5.81 -23.95, -6.47 -26.95 M-5.16 -22 C-5.38 -23.14, -5.86 -24.08, -6.62 -26.57 M-6.75 -27.02 C-7.05 -27.79, -7.39 -29.2, -8.04 -30.82 M-6.5 -26.93 C-7.31 -28.34, -7.79 -29.76, -8.27 -30.79 M-7.95 -30.76 C-8.73 -31.69, -9.29 -33.02, -10.35 -34.87 M-8.56 -30.81 C-9.02 -32.18, -9.56 -33.82, -10.34 -34.83 M-10.38 -35 C-10.7 -36.02, -11.83 -36.96, -12.35 -37.93 M-10.37 -34.81 C-11 -36.01, -11.59 -37.42, -12.1 -38.34 M-12.09 -38.41 C-13.23 -39.42, -13.62 -40.71, -14.63 -41.78 M-12.13 -38.3 C-12.73 -39.24, -13.25 -39.72, -14.47 -41.41 M-14.49 -41.57 C-15.11 -41.84, -15.54 -43.06, -17.07 -43.96 M-14.57 -41.59 C-15.29 -42.41, -16.06 -43.44, -16.7 -44.29 M-16.97 -43.88 C-17.62 -44.72, -17.78 -45.68, -19.23 -46.52 M-16.84 -44.13 C-17.54 -45.24, -18.42 -45.97, -18.97 -46.72 M-18.85 -46.52 C-20.09 -47.63, -20.58 -48.23, -21.35 -49.14 M-19.17 -46.77 C-20.1 -47.64, -21.12 -48.46, -21.51 -48.84 M-21.56 -49.07 C-22.43 -49.88, -23.62 -50.06, -24.36 -50.41 M-21.49 -48.74 C-22.19 -49.44, -22.81 -49.66, -24.04 -50.57 M-24.16 -50.49 C-24.84 -51.27, -26.28 -51.99, -26.99 -52.33 M-24.1 -50.81 C-24.76 -50.97, -25.55 -51.42, -26.82 -52.39 M-26.89 -52.27 C-27.71 -52.89, -28.08 -53.06, -29.25 -53.37 M-26.78 -52.16 C-27.75 -52.63, -28.64 -53.2, -29.43 -53.56 M-29.49 -53.54 C-30.31 -53.54, -30.87 -53.85, -32.45 -54.27 M-29.5 -53.62 C-30.15 -53.83, -30.8 -53.98, -32.35 -54.42 M-31.99 -54.3 C-33.14 -54.55, -33.9 -54.81, -35.26 -54.97 M-32.15 -54.42 C-32.75 -54.75, -33.56 -54.89, -34.89 -55.21 M-34.91 -55.38 C-35.79 -55.52, -36.44 -55.25, -38.12 -55.41 M-35.15 -55.27 C-35.74 -55.31, -36.66 -55.42, -37.91 -55.63 M-37.7 -55.71 C-38.62 -55.38, -39.83 -55.47, -41.03 -55.54 M-37.77 -55.55 C-38.9 -55.66, -40 -55.58, -40.65 -55.81 M-40.73 -55.86 C-41.25 -55.51, -42.42 -55.51, -43.77 -55.49 M-40.77 -55.69 C-41.88 -55.64, -42.75 -55.79, -43.68 -55.52 M-43.68 -55.8 C-44.38 -55.72, -44.8 -55.33, -46.7 -55.58 M-43.57 -55.58 C-44.5 -55.64, -45.27 -55.6, -46.61 -55.17 M-46.37 -55.59 C-47.57 -55.07, -48.07 -54.95, -49.75 -54.72 M-46.6 -55.23 C-47.85 -54.99, -48.88 -54.82, -49.62 -54.75 M-49.56 -54.87 C-50.5 -54.16, -51.52 -54.44, -52.66 -53.97 M-49.58 -54.86 C-50.3 -54.65, -51.29 -54.28, -52.59 -53.86 M-52.76 -54.14 C-53.11 -53.8, -54.4 -53.27, -55.79 -53.17 M-52.5 -53.81 C-53.25 -53.78, -54.23 -53.28, -55.47 -52.8 M-55.59 -53.08 C-56.28 -52.71, -57.05 -51.9, -58.44 -51.49 M-55.61 -52.78 C-56.52 -52.48, -57.18 -52.33, -58.31 -51.7 M-58.68 -51.83 C-59.65 -51.12, -60.59 -50.99, -61.62 -50.12 M-58.59 -51.8 C-59.03 -51.19, -60.04 -51.02, -61.35 -50.37 M-61.3 -50.75 C-62.72 -48.81, -65.71 -48.01, -67.47 -46.7 M-61.64 -50.34 C-62.64 -49.5, -64.17 -48.72, -67.37 -46.86 M-67.38 -46.64 C-68.88 -46.08, -70.13 -44.95, -72.24 -42.24 M-67.1 -46.46 C-69.05 -45.19, -71.45 -43.38, -72.8 -42.84 M-72.57 -42.97 C-74.72 -40.71, -75.44 -40.61, -78.48 -38.53 M-72.96 -42.58 C-74.57 -41.01, -76.08 -39.73, -78.37 -37.8 M-77.94 -38.19 C-79.04 -36.81, -80 -35.41, -83.02 -33 M-77.72 -37.79 C-79.37 -36.19, -80.83 -34.66, -82.83 -32.69 M-83.69 -32.93 C-84.79 -30.87, -86.64 -28.08, -87.5 -27.21 M-83.43 -32.22 C-84.37 -30.41, -86.45 -28.7, -88.07 -26.74 M-87.94 -25.87 C-88.17 -24.78, -89.88 -24.25, -91.77 -20 M-87.75 -26.62 C-89.11 -24.71, -89.74 -23.35, -91.9 -19.81 M-91.81 -20.03 C-92.99 -18.49, -94.6 -17.07, -95.84 -13.63 M-92.24 -20.41 C-92.88 -18.24, -93.81 -15.96, -95.52 -13.54 M-95.44 -13.95 C-96.58 -10.87, -97.32 -7.77, -98.84 -6.45 M-95.67 -13.38 C-97.05 -11.39, -97.58 -8.46, -98.51 -6.22 M-98.5 -6.35 C-99.06 -5.05, -99.99 -3.01, -101.07 0.78 M-98.76 -6.76 C-99.28 -3.76, -100.74 -1.13, -101.11 0.82 M-100.7 0.44 C-101.22 4.24, -103.22 6.39, -103.05 7.73 M-101.22 1.11 C-101.44 2.36, -102.19 4.36, -102.87 8.33 M-102.66 8.12 C-103.22 9.75, -103.74 11.34, -103.84 12 M-103.18 8.35 C-103.14 9.73, -103.42 11.26, -103.74 12.03 M-103.98 11.72 C-103.64 13.06, -103.56 14.47, -104.29 15.63 M-103.59 11.96 C-103.84 13.12, -103.91 14.56, -103.84 15.82 M-104.36 15.62 C-104.13 17.09, -104.08 18.59, -104.24 19.39 M-104.06 15.72 C-104.01 17.5, -104.27 18.83, -104.24 19.7 M-104.11 19.53 C-104.04 20.92, -104.55 22.55, -103.91 23.51 M-104.16 19.61 C-104.26 21.14, -104.26 22.2, -104.32 23.43 M-104.11 23.86 C-104.22 24.55, -104.32 26.43, -104.17 27.08 M-104.06 23.61 C-104.05 24.78, -104.03 25.68, -103.78 27.11 M-103.78 27.28 C-104.13 28.74, -103.66 29.69, -103.74 30.94 M-104.12 27.24 C-103.65 28.45, -103.47 29.79, -103.47 31.11 M-103.64 31.19 C-103.43 32.38, -102.98 32.98, -102.51 34.54 M-103.48 30.9 C-103.14 31.9, -102.94 32.82, -102.77 34.75 M-102.51 35.03 C-102.32 36.17, -101.73 37.95, -101.82 38.87 M-102.79 34.66 C-102.48 35.69, -102.34 36.6, -101.59 38.47 M-101.6 38.43 C-101.58 40.02, -101.05 40.67, -100.86 42.52 M-101.95 38.42 C-101.47 40.08, -100.64 41.65, -100.38 42.17 M-100.19 42.66 C-100.3 43.59, -99.88 44.25, -99.25 46.16 M-100.57 42.26 C-100.09 43.12, -100.06 43.62, -99.11 45.86 M-98.95 45.82 C-98.6 46.86, -97.85 47.92, -97.31 49.29 M-99.19 45.85 C-98.55 47.01, -97.79 47.94, -97.25 49.51 M-97.11 49.8 C-96.49 49.84, -96.77 51.08, -95.58 53.37 M-97.4 49.49 C-96.86 50.29, -96.4 51.36, -95.43 52.91 M-95.08 53.02 C-94.28 53.88, -94.41 54.41, -92.63 56.81 M-95.02 53.25 C-94.7 53.95, -93.61 55.05, -92.72 56.74 M-93.17 56.69 C-92.08 57.57, -91.45 57.67, -90.29 59.65 M-92.68 56.34 C-91.9 57.79, -91.1 59.21, -90.37 60.01 M-90.15 59.85 C-89.37 60.36, -89.22 61.23, -87.27 62.77 M-90.19 59.89 C-89.66 60.62, -89.09 61.2, -87.29 63.16 M-86.91 63.35 C-86.33 63.93, -85.28 64.68, -83.64 65.99 M-87.42 63.05 C-86.2 64.14, -85.22 65.22, -83.89 66.33 M-84.37 66.32 C-83.34 67.19, -81.52 68.11, -80.38 69.73 M-83.92 66.24 C-82.88 67.33, -81.89 68.28, -80.51 69.6 M-80.85 69.57 C-79.01 70.85, -77.82 71.76, -76.96 72.92 M-80.36 69.74 C-79.09 70.44, -77.94 71.14, -76.52 72.32 M-76.79 72.6 C-76.07 73.32, -75.46 73.73, -74.8 74.66 M-76.44 72.46 C-75.93 73.03, -75.46 73.45, -74.7 74.5 M-74.83 74.25 C-74.22 75.12, -74 75.49, -72.9 76.34 M-74.78 74.44 C-74.17 75.09, -73.61 75.54, -72.8 76.25 M-73.1 76.5 C-72.15 76.55, -71.96 77.17, -70.76 77.91 M-72.95 76.32 C-72 76.82, -71.3 77.38, -70.91 77.91 M-70.85 77.72 C-70.24 78.06, -69.92 78.52, -68.91 78.95 M-70.98 77.76 C-70.32 78.23, -69.61 78.71, -68.95 79.07 M-68.78 79.3 C-68.11 79.44, -67.48 80.04, -66.91 80.3 M-68.95 79.1 C-68.53 79.41, -67.92 79.71, -66.81 80.22 M-66.74 80.21 C-66.39 80.24, -65.58 80.75, -64.99 81.16 M-67.02 80.08 C-66.37 80.29, -66.02 80.46, -64.79 81 M-64.88 81.13 C-64 81.29, -63.29 81.79, -62.8 81.86 M-64.81 80.96 C-64.22 81.14, -63.82 81.36, -62.71 81.76 M-62.89 81.7 C-61.76 81.9, -61.28 82.11, -60.46 82.32 M-62.77 81.74 C-61.95 82.01, -61.32 82.14, -60.68 82.15 M-60.62 82.13 C-59.54 82.22, -57.83 82.55, -55.9 82.67 M-60.78 82.4 C-59.12 82.35, -57.48 82.77, -56.21 82.67 M-56.58 82.61 C-54.87 82.1, -53.13 82.53, -52.12 82.76 M-56.03 82.74 C-55.12 82.58, -53.66 82.58, -51.65 82.4 M-51.51 82.51 C-50.05 82.48, -49.09 81.66, -47.72 81.47 M-51.66 82.36 C-50.22 82.15, -48.51 81.91, -47.5 81.56 M-46.89 80.99 C-45.79 80.87, -44.84 80.67, -42.64 79.83 M-47.54 81.25 C-45.93 81.09, -44.92 80.87, -42.66 80.15 M-43.07 79.78 C-40.92 79.47, -39.6 78.32, -38.51 78.42 M-42.78 79.96 C-41.79 79.66, -40.76 78.86, -38.29 78.17 M-38.52 78.52 C-37.4 77.69, -37.05 77.1, -34.31 76.17 M-38.72 77.98 C-37.1 77.52, -35.79 76.62, -34.25 75.99 M-33.92 75.34 C-32.66 75.13, -31.47 73.92, -30.38 73 M-34.22 75.99 C-33.51 75.28, -32.71 74.71, -29.97 73.13 M-29.72 72.6 C-28.98 72.6, -27.97 71.51, -25.89 69.81 M-30.07 73.21 C-29.16 72.04, -27.78 71.6, -26.05 70.11 M-26.44 69.97 C-25.27 68.54, -23.92 67.64, -22.16 67.32 M-26.16 70.24 C-25.28 69.57, -24.21 68.59, -22.38 66.8 M-22.03 67.11 C-21.22 65.53, -19.95 64.48, -19 63.87 M-22.5 66.89 C-21.42 65.76, -20.29 65.11, -18.73 63.69 M-19.11 63.63 C-17.63 62.34, -17 61.51, -16.07 60.3 M-18.88 63.5 C-18.12 62.64, -16.99 61.48, -15.74 60.3 M-15.53 59.85 C-15.19 58.7, -14.03 57.53, -13.24 56.77 M-15.83 60.25 C-15.14 59.32, -14.54 58.49, -13.1 56.49 M-13.27 56.58 C-12.14 56.15, -11.86 55.41, -11.12 53.87 M-12.85 56.59 C-12.33 56.13, -11.9 55.11, -10.89 53.48 M-10.97 53.52 C-10.49 52.94, -9.37 51.58, -8.71 50.58 M-10.97 53.65 C-10.28 52.64, -9.42 51.64, -9.01 50.56 M-8.97 50.59 C-7.91 49.53, -7.76 48.15, -7.04 46.98 M-8.88 50.28 C-8.48 49.79, -8.27 48.92, -7.14 47.12 M-6.92 47.49 C-6.6 46.31, -6.55 45.24, -5.34 43.72 M-7.33 47.13 C-6.77 46.61, -6.53 45.74, -5.62 43.75 M-5.81 43.93 C-5.15 42.82, -5.07 42.63, -4.26 40.33 M-5.73 43.72 C-5.2 42.91, -4.92 41.78, -4.35 40.28 M-4.52 40.18 C-3.77 39.02, -3.43 38.18, -3.19 36.67 M-4.45 40.21 C-4.05 39.31, -3.48 38.51, -3.17 36.7 M-2.98 37.16 C-2.69 35.02, -2.13 33.33, -0.87 30.11 M-2.85 36.89 C-2.56 35.09, -2.1 34.22, -1.1 29.41 M-1.05 29.62 C-0.55 27.28, -0.76 24.17, 0.64 21.78 M-1.6 29.45 C-1.3 28.25, -0.81 26.34, -0.07 22.31 M-0.33 22.13 C0.19 19.01, 0.88 16.68, -0.14 14.59 M-0.37 22.24 C-0.21 20.86, -0.12 19.12, 0.28 15.11 M-0.11 14.75 C1.05 13.59, 0.87 11.01, 0.46 6.79 M0.34 15.02 C0.51 12.21, 0.68 9.12, 0.71 7.02 M0.49 7.54 C-0.19 4.87, -0.48 3.15, 0.16 0.5 M0.52 7.47 C0.1 5.29, -0.13 2.5, -0.07 0.14 M0 0 C0 0, 0 0, 0 0 M0 0 C0 0, 0 0, 0 0 M0 0 C0 0, 0 0, 0 0 M0 0 C0 0, 0 0, 0 0" stroke="#000000" stroke-width="1" fill="none"/></g></g><g stroke-linecap="round"><g transform="translate(100.47653090312514 97.33056284338113) rotate(0 -39.900234377952216 -13.717922659105398)" fill-rule="evenodd"><path d="M0.46 -0.94 L0.34 1.76 L-1.31 6.11 L-1.43 9.08 L-1.16 15.22 L-1.87 20.75 L-5.08 23.5 L-8.3 28.7 L-8.93 30.91 L-12.12 35.89 L-14.64 38.45 L-16.78 40.37 L-22.2 40.21 L-25.8 43.24 L-29.64 43.3 L-30.76 44.67 L-33.09 47.94 L-39.3 47.89 L-42.71 47.38 L-47.13 47.19 L-50.74 43.94 L-54.01 43.92 L-55.49 41.01 L-59.78 42.5 L-61.32 39.03 L-64.32 34.41 L-66.63 31.52 L-71.6 30.18 L-71.94 25.04 L-73.63 23.42 L-75.77 15.23 L-78.49 10.81 L-78.76 6.8 L-78.32 0.05 L-79.9 -4.91 L-78.33 -6.28 L-80.88 -11.41 L-79.1 -15.91 L-80.66 -21.86 L-81.23 -23.88 L-79.83 -30.87 L-75.96 -36.92 L-76.56 -43.1 L-72.12 -51.53 L-72.49 -55.48 L-66.76 -57.56 L-63.18 -63.82 L-60.98 -65.85 L-58.28 -70.92 L-51.94 -72.12 L-49.48 -74.47 L-44.88 -73.05 L-42.53 -75.14 L-37.06 -74.28 L-33.25 -72.5 L-29.86 -70.36 L-23.54 -69.09 L-20.68 -68.77 L-17.32 -62.38 L-15 -61.96 L-12.62 -56.75 L-10.35 -51.29 L-5.49 -43.55 L-4.34 -39.07 L-2.08 -33.06 L-2.63 -24.54 L1.08 -22.49 L0.74 -16.36 L-1.06 -13.35 L2 -8.97 L0.15 -5.15 L-0.42 -0.41 L-1.05 -0.69" stroke="none" stroke-width="0" fill="#FFFFFF" fill-rule="evenodd"/><path d="M0 0 C0 0, 0 0, 0 0 M0 0 C0 0, 0 0, 0 0 M-0.23 0.4 C0.06 1.42, -0.17 2.53, -0.07 5.34 M0.22 0.08 C-0.34 2.23, -0.19 3.97, -0.39 5.53 M0.06 5.13 C-0.35 6.87, -0.35 8.85, -0.97 10.09 M-0.1 5.68 C-0.46 6.99, -0.58 8.55, -0.66 10.52 M-0.96 10.37 C-0.73 11.39, -1.6 12.94, -1.99 15.18 M-0.89 10.32 C-1 12.01, -1.27 13.07, -2.16 15.18 M-2.32 15.74 C-2.32 17.34, -3.39 18.56, -3.08 19.39 M-1.89 15.2 C-2.36 16.69, -3.06 18.54, -3.6 19.92 M-3.6 20.08 C-4.04 21, -4.28 21.91, -5.54 24.06 M-3.46 19.72 C-4.24 21.18, -4.68 22.85, -5.13 23.92 M-5.07 24.04 C-5.69 25.29, -6.37 26.86, -6.87 27.32 M-5.23 23.85 C-5.51 24.8, -5.94 25.72, -7.22 27.74 M-7.02 27.96 C-7.79 28.83, -8.73 29.89, -9.24 31.14 M-7.15 27.83 C-7.55 28.33, -8.28 29.17, -9.46 31.28 M-9.26 30.98 C-10.63 32.15, -11.25 33.55, -11.75 34.17 M-9.47 31.23 C-10.05 32.01, -10.78 32.88, -11.94 34.19 M-12.24 34.24 C-12.55 34.76, -13.66 35.31, -15.06 36.78 M-11.97 34.08 C-12.5 34.95, -13.18 35.4, -14.9 36.9 M-14.9 37.43 C-15.33 37.46, -16.48 38.34, -17.63 39.19 M-14.89 37.05 C-15.74 37.69, -16.56 38.33, -17.94 39.65 M-18.15 39.6 C-18.67 39.92, -19.97 41, -20.73 41.39 M-17.77 39.36 C-18.86 40.31, -19.87 40.89, -20.96 41.61 M-21.21 41.33 C-21.65 41.9, -22.4 42.13, -23.99 43.02 M-21.08 41.43 C-22.4 42.1, -23.44 42.89, -24.13 43.12 M-24.16 42.99 C-25.29 43.99, -26.47 44.39, -27.96 44.79 M-24.33 43.13 C-25.54 43.91, -26.65 44.48, -27.63 44.68 M-27.48 44.68 C-29.24 44.85, -30.39 45.32, -31.44 46.05 M-27.71 44.84 C-28.95 45.07, -30.03 45.16, -31.28 45.75 M-31.48 45.4 C-31.96 45.83, -33.02 46.27, -34.64 46.26 M-31.32 45.82 C-32.27 45.88, -33.29 46.07, -35 46.51 M-35.18 46.59 C-36.58 46.58, -38.02 46.91, -38.72 47 M-34.93 46.29 C-35.9 46.43, -36.87 46.61, -38.52 46.59 M-38.7 46.88 C-39.49 46.8, -40.28 46.97, -42.36 46.74 M-38.36 46.58 C-39.57 46.59, -40.25 46.65, -42.13 46.79 M-42.09 46.4 C-42.76 46.75, -43.98 46.69, -45.69 46.61 M-41.91 46.63 C-43.36 46.47, -44.81 46.28, -45.68 46.39 M-45.53 46.58 C-47.05 46.29, -48.13 46.04, -49.05 45.13 M-45.69 46.22 C-47.06 46.13, -48.02 45.65, -49.32 45.58 M-48.91 45.78 C-50.28 45.47, -50.96 45.15, -52.54 44.7 M-49.34 45.61 C-49.97 45.12, -50.85 45.12, -52.86 44.24 M-52.76 44.16 C-53.55 44.06, -54.93 43.03, -56.25 42.69 M-52.76 44.26 C-53.7 43.81, -54.51 43.71, -56.2 42.92 M-56.34 42.95 C-57.06 42.32, -58.28 41.67, -59.06 40.86 M-56.21 42.99 C-56.79 42.56, -57.5 42.04, -59.33 40.88 M-59.32 41.32 C-60.65 39.76, -61.88 39.13, -62.59 38.66 M-59.25 40.79 C-60.36 40.33, -61.1 39.75, -62.5 38.51 M-62.08 38.45 C-63.69 37.8, -64.86 36.44, -65.48 36 M-62.3 38.52 C-63.3 38.09, -63.99 37.4, -65.39 36.17 M-65.26 35.79 C-66.14 35.2, -67.39 33.96, -68.14 33.21 M-65.57 36.1 C-66.18 34.9, -66.91 34.08, -68.05 33.2 M-68.42 33.09 C-69.27 31.43, -70.14 30.72, -70.82 29.3 M-67.9 33.13 C-69.24 31.53, -70 30.11, -70.5 29.75 M-70.18 29.74 C-71.52 28.32, -72.16 27.32, -72.99 25.89 M-70.43 29.5 C-71 28.45, -71.84 27.59, -72.82 25.88 M-72.88 25.43 C-73.2 24.05, -73.69 23.41, -74.38 21.29 M-72.66 25.78 C-73.55 24.42, -74.28 22.6, -74.81 21.4 M-75.09 22 C-75.15 19.68, -76.11 18.09, -76.38 17.24 M-74.94 21.75 C-75.25 20.56, -75.7 19.43, -76.46 17.05 M-76.15 16.74 C-76.29 15.24, -77.1 13.64, -77.71 12.5 M-76.32 17.06 C-76.84 15.25, -77.16 13.23, -77.54 12.08 M-77.74 11.69 C-78.23 10.3, -78.1 7.64, -78.36 6.16 M-77.42 12.07 C-78.05 10.11, -78.45 8.35, -78.74 6.84 M-78.19 6.91 C-78.84 4.97, -78.64 4.35, -79.23 1.08 M-78.76 6.72 C-78.55 4.29, -78.91 2.63, -79.16 0.65 M-79.08 0.84 C-79.58 -0.57, -79.43 -1.6, -79.48 -3.48 M-78.98 0.84 C-78.95 -0.37, -79.23 -1.84, -79.34 -3.55 M-79.42 -3.66 C-79.26 -4.3, -79.69 -5.58, -79.58 -8.36 M-79.68 -3.9 C-79.47 -5.33, -79.59 -7.01, -80 -7.99 M-79.7 -8.16 C-79.98 -8.83, -79.78 -10.11, -79.73 -12.7 M-79.58 -8.03 C-79.97 -9.65, -79.83 -11.5, -79.76 -12.27 M-79.59 -12.07 C-80.34 -13.67, -79.98 -15.2, -80.25 -16.74 M-79.81 -12.46 C-80 -13.1, -79.85 -14.05, -79.79 -16.61 M-79.91 -16.44 C-80.23 -17.07, -80.14 -18.33, -79.4 -20.16 M-79.86 -16.6 C-79.83 -17.36, -79.97 -18.2, -79.77 -20.67 M-79.66 -20.73 C-79.33 -21.73, -79.86 -23.29, -79.45 -24.66 M-79.86 -20.68 C-79.76 -21.24, -79.5 -22.19, -79.34 -24.58 M-79.53 -24.89 C-78.94 -27.14, -78.93 -29.55, -77.87 -32.34 M-79.31 -24.18 C-79.27 -27.34, -78.85 -30.01, -78.34 -31.85 M-78.27 -31.96 C-78.69 -34.09, -77.05 -36.72, -76.87 -39.03 M-78.63 -31.41 C-78.37 -33.26, -78.28 -34.53, -76.91 -38.35 M-77.42 -39.03 C-77.06 -40.64, -76.2 -43.38, -75.37 -44.53 M-77.09 -38.11 C-76.62 -40.56, -75.75 -42.78, -75.36 -44.55 M-75.88 -44.02 C-74.92 -45.48, -74.89 -47.07, -72.9 -49.83 M-75.2 -44.71 C-74.23 -46.83, -73.55 -48.89, -73.16 -50.27 M-73.35 -49.77 C-71.98 -52.43, -70.77 -54.42, -70.84 -54.91 M-72.94 -50.24 C-72.1 -51.77, -71.58 -53.29, -70.27 -55.27 M-70.47 -55.3 C-69.62 -55.79, -69.47 -56.48, -68.07 -59.18 M-70.5 -55.02 C-69.46 -56.56, -68.03 -58.63, -67.62 -59.38 M-67.88 -59.08 C-66.78 -60.77, -66.24 -61.36, -63.97 -63.76 M-67.84 -59.43 C-66.4 -60.42, -65.48 -61.91, -64.44 -63.21 M-64.71 -63.06 C-63.43 -64.89, -62.02 -65.64, -61.44 -66.5 M-64.28 -63.2 C-63.28 -64.78, -61.86 -65.92, -61.1 -66.64 M-61.01 -66.58 C-59.4 -67.39, -58.45 -68.75, -57.38 -69.2 M-61.04 -66.55 C-59.33 -67.74, -58.08 -68.69, -57.59 -69.21 M-56.98 -69.68 C-56.7 -69.7, -55.72 -70.07, -53.79 -71.68 M-57.42 -69.39 C-56.67 -69.59, -56 -70.28, -53.66 -71.14 M-53.23 -71.42 C-53.04 -72.11, -51.48 -71.76, -49.56 -73.15 M-53.74 -71.54 C-51.91 -72.12, -50.44 -72.31, -49.76 -72.99 M-49.41 -72.59 C-47.96 -73.58, -46.81 -73.79, -45.31 -74.06 M-49.58 -72.84 C-48.7 -72.87, -47.66 -73.22, -45.78 -73.65 M-45.35 -74.01 C-44.6 -73.92, -43.21 -74.4, -41.89 -74.43 M-45.58 -73.75 C-44.22 -73.95, -42.81 -74.07, -41.56 -74.35 M-41.39 -74.29 C-40.3 -74.35, -39.29 -74.43, -37.38 -74.07 M-41.39 -74.16 C-39.91 -73.95, -38.39 -74.02, -37.39 -73.78 M-37.76 -74.07 C-36.1 -73.87, -35.3 -73.3, -33.18 -73.48 M-37.41 -74.02 C-36.47 -73.85, -35.2 -73.35, -33.22 -73.13 M-33.25 -72.82 C-32.15 -72.5, -31.2 -71.85, -29.29 -71.5 M-33.19 -73.05 C-31.85 -72.79, -30.56 -72.32, -29.16 -71.8 M-29.64 -71.52 C-28.2 -71.3, -26.36 -69.88, -25.5 -69.65 M-29.14 -71.71 C-28.05 -71.35, -27.01 -70.55, -25.52 -69.94 M-25.25 -69.37 C-24.6 -68.69, -23.35 -68.09, -21.57 -67.19 M-25.41 -69.65 C-24.64 -69.25, -23.66 -68.62, -21.65 -67.37 M-21.25 -67.43 C-20.77 -66.05, -18.89 -64.85, -17.57 -63.77 M-21.41 -67.2 C-20.21 -66.15, -18.94 -64.63, -18.08 -64.14 M-17.64 -64.2 C-17.24 -63.03, -16.2 -62.44, -14.29 -60.58 M-18.21 -64.12 C-17.52 -63.3, -16.55 -62.44, -14.46 -60.27 M-14.36 -60.41 C-13.81 -58.92, -13.05 -57.97, -11.69 -55.68 M-14.87 -60.23 C-13.97 -59.21, -12.94 -58.23, -11.47 -55.9 M-11.72 -56.41 C-10.1 -53.9, -9.61 -51.9, -9.05 -51.15 M-11.25 -56.13 C-10.52 -54.36, -9.25 -52.43, -8.42 -51 M-8.44 -51.11 C-8.1 -49.22, -7.69 -48.27, -6.35 -44.9 M-8.43 -51.3 C-8.11 -49.68, -7.19 -47.97, -5.93 -45.47 M-5.48 -45.52 C-5.72 -43.61, -4.48 -41.6, -3.67 -39.78 M-5.95 -45.17 C-5.59 -43.36, -5.04 -41.9, -3.86 -39.38 M-4.53 -39.57 C-3.51 -37.01, -2.26 -34.82, -1.73 -33.1 M-4.15 -39.48 C-3.81 -37.71, -3.27 -36.63, -1.87 -32.54 M-2.86 -33.43 C-2.62 -30.83, -2.2 -28.59, -1.08 -25.25 M-2.37 -32.66 C-1.53 -30.52, -1.18 -28.58, -0.93 -25.44 M-0.51 -25.04 C-0.58 -24, -0.83 -22.35, -0.14 -21.71 M-0.97 -25.32 C-0.78 -24.3, -0.78 -23.44, -0.36 -21.48 M-0.33 -21.64 C-0.61 -20.15, 0.05 -19.18, -0.15 -17.74 M-0.28 -21.52 C-0.41 -20.13, -0.04 -18.96, 0.08 -17.43 M0.25 -17.38 C0.05 -16.31, 0.06 -14.34, -0.03 -13.45 M-0.09 -17.42 C-0.07 -16.41, 0.26 -14.9, -0.04 -13.17 M0.36 -13.31 C-0.09 -12.19, 0.11 -10.56, 0.34 -9.06 M0.17 -13.24 C0.1 -12.32, 0.11 -11.05, 0.28 -9.12 M0.45 -8.86 C0.34 -7.85, -0.05 -6.45, -0.22 -4.23 M0.12 -9.03 C0.05 -8.08, 0.29 -7.09, 0.06 -4.74 M0.29 -4.36 C0.32 -3.14, 0.27 -1.71, -0.16 0.01 M0.04 -4.82 C0.27 -2.93, 0.1 -1.49, 0.09 0.12 M0 0 C0 0, 0 0, 0 0 M0 0 C0 0, 0 0, 0 0 M0 0 C0 0, 0 0, 0 0 M0 0 C0 0, 0 0, 0 0" stroke="#000000" stroke-width="1" fill="none"/></g></g><g stroke-linecap="round"><g transform="translate(83.84002155696754 76.40392731209863) rotate(0 -23.079685957889154 7.076415673693191)" fill-rule="evenodd"><path d="M-1.98 0.97 L-0.08 -1.09 L-1.91 -2.02 L-2.2 -5.78 L-2.54 -9.81 L-2.89 -11.77 L-1.47 -15.61 L-2.64 -17.7 L-4.73 -17.01 L-3.99 -21.14 L-6.39 -20.54 L-7.55 -22.59 L-8.58 -25.7 L-7.99 -25.48 L-9.53 -24.87 L-10.06 -28.21 L-11.48 -27.42 L-12.55 -28.09 L-16.78 -27.63 L-16.32 -29.38 L-19.81 -28.72 L-20.28 -31.25 L-19.02 -30.86 L-21.44 -27.86 L-24.94 -27.14 L-26.83 -28.26 L-28.14 -27.59 L-25.56 -28.45 L-28.55 -26.24 L-31.32 -21.2 L-36.65 -18.2 L-38.46 -17.57 L-37.68 -13.2 L-42.09 -10.65 L-42.26 -5.28 L-43.37 -4.42 L-45.09 -1.42 L-45.5 6.17 L-44.73 4.49 L-45.7 7.23 L-44.87 11.58 L-48.61 14.03 L-45.03 16.27 L-47.86 15.06 L-44.35 20.1 L-47.11 19.89 L-46.03 23.65 L-44.1 23.14 L-45.34 26.57 L-42.63 28.48 L-41.61 31.58 L-40.55 32.66 L-38.23 32.45 L-37.79 33.5 L-34.65 38.03 L-32.34 37.85 L-31.5 39.76 L-34.57 40.71 L-32.74 40.45 L-32.8 39.81 L-29.07 42.56 L-27.24 41.28 L-28.25 43.25 L-28.18 44.31 L-25.11 42.8 L-21.97 45 L-19.49 43.74 L-21.01 43.89 L-16.4 40.29 L-13.89 39.58 L-11.97 38.11 L-11.27 35.77 L-10.41 33.91 L-9.89 33.2 L-7.97 31.48 L-4.53 29.67 L-5.11 29.83 L-4.21 28.32 L-1.86 26.48 L-3.17 24.23 L-2.29 21.9 L-2.22 18.17 L-2.36 13.96 L0.3 12.07 L0.88 9.38 L2.12 4.62 L-1.49 0.2 L0.84 -0.12" stroke="none" stroke-width="0" fill="black" fill-rule="evenodd"/><path d="M0 0 C0 0, 0 0, 0 0 M0 0 C0 0, 0 0, 0 0 M0.32 0.29 C-0.06 -1.29, -0.53 -2.11, -0.43 -2.92 M0.11 0.04 C-0.22 -0.74, -0.06 -1.38, -0.42 -3.31 M-0.31 -3.39 C-0.56 -3.79, -0.42 -4.58, -0.87 -6.34 M-0.57 -3.35 C-0.67 -4.03, -0.8 -4.68, -0.99 -6.13 M-1.23 -6.02 C-1.25 -7.53, -1.66 -8.2, -1.7 -9.23 M-1.04 -6.39 C-1.18 -7.27, -1.27 -8.21, -1.69 -9.12 M-1.53 -9.23 C-1.83 -9.97, -1.84 -11.14, -2.33 -11.61 M-1.44 -8.98 C-1.76 -10.09, -2.14 -11.07, -2.12 -11.62 M-2.42 -11.58 C-2.38 -12.35, -2.62 -12.6, -2.74 -14 M-2.13 -11.77 C-2.52 -12.27, -2.74 -12.98, -2.84 -14.15 M-2.95 -14.24 C-3.13 -14.88, -3.41 -15.2, -3.91 -16.44 M-2.94 -14.14 C-3.13 -14.77, -3.32 -15.48, -3.67 -16.22 M-3.89 -16.31 C-4.05 -16.6, -3.92 -17.03, -4.61 -18.23 M-3.79 -16.4 C-3.98 -16.93, -4.2 -17.49, -4.64 -18.29 M-4.5 -18.39 C-5.08 -18.93, -5.3 -19.64, -5.48 -20.28 M-4.53 -18.38 C-4.92 -18.89, -5.24 -19.68, -5.54 -20.09 M-5.41 -20.27 C-5.71 -20.87, -6.32 -21.47, -6.32 -22.01 M-5.53 -20.18 C-5.72 -20.58, -6.04 -21.18, -6.4 -21.89 M-6.51 -21.95 C-6.68 -22.2, -7.34 -22.95, -7.52 -23.28 M-6.5 -21.81 C-6.68 -22.19, -6.98 -22.59, -7.46 -23.28 M-7.34 -23.27 C-7.93 -23.79, -8.1 -24.01, -8.66 -24.65 M-7.54 -23.3 C-7.78 -23.73, -8.01 -23.99, -8.61 -24.64 M-8.5 -24.68 C-8.9 -24.97, -9.08 -25.1, -9.81 -25.65 M-8.57 -24.69 C-9.03 -24.99, -9.35 -25.54, -9.69 -25.71 M-9.73 -25.9 C-10.11 -26.05, -10.48 -26.49, -10.87 -26.91 M-9.72 -25.83 C-10.12 -26.13, -10.43 -26.44, -10.82 -26.82 M-10.74 -26.7 C-11.06 -26.88, -11.63 -27.3, -12.04 -27.61 M-10.87 -26.74 C-11.1 -27.03, -11.52 -27.22, -11.92 -27.58 M-11.91 -27.51 C-12.39 -27.66, -12.64 -27.99, -13.26 -28.36 M-11.98 -27.61 C-12.31 -27.8, -12.52 -27.95, -13.19 -28.22 M-13.13 -28.26 C-13.72 -28.4, -14.26 -28.76, -14.4 -28.83 M-13.13 -28.18 C-13.54 -28.42, -13.86 -28.55, -14.42 -28.69 M-14.55 -28.77 C-14.84 -28.82, -15.39 -29.05, -15.8 -29.21 M-14.47 -28.73 C-14.68 -28.79, -14.95 -28.96, -15.73 -29.07 M-15.57 -29.04 C-16.12 -29.22, -16.35 -29.34, -16.87 -29.44 M-15.66 -29.07 C-15.98 -29.15, -16.27 -29.2, -17 -29.37 M-17.05 -29.27 C-17.33 -29.46, -17.68 -29.45, -18.19 -29.54 M-17.02 -29.33 C-17.32 -29.3, -17.72 -29.31, -18.22 -29.44 M-18.24 -29.42 C-18.73 -29.35, -19.12 -29.46, -19.57 -29.35 M-18.26 -29.44 C-18.72 -29.42, -19.12 -29.41, -19.58 -29.43 M-19.5 -29.47 C-20.09 -29.21, -20.64 -29.34, -20.89 -29.11 M-19.56 -29.35 C-19.94 -29.31, -20.31 -29.22, -20.88 -29.14 M-20.79 -29.23 C-21.21 -29.07, -21.64 -28.92, -22.22 -28.75 M-20.91 -29.23 C-21.38 -29.12, -21.86 -28.97, -22.17 -28.89 M-22.35 -28.88 C-22.55 -28.66, -22.83 -28.62, -23.61 -28.42 M-22.28 -28.9 C-22.66 -28.69, -23.26 -28.55, -23.55 -28.51 M-23.66 -28.49 C-23.9 -28.12, -24.66 -28, -24.95 -27.98 M-23.48 -28.48 C-23.9 -28.28, -24.29 -28.12, -24.9 -27.85 M-24.87 -27.81 C-25.07 -27.74, -25.42 -27.69, -26.29 -27.38 M-24.92 -27.93 C-25.26 -27.77, -25.73 -27.48, -26.13 -27.2 M-26.17 -27.13 C-26.59 -27.19, -26.91 -26.84, -27.43 -26.6 M-26.16 -27.23 C-26.55 -27.14, -26.85 -26.88, -27.43 -26.46 M-27.58 -26.42 C-28.44 -25.8, -29.46 -25.15, -30.22 -24.41 M-27.38 -26.64 C-27.91 -26.18, -28.41 -25.66, -30.11 -24.55 M-30.1 -24.62 C-30.91 -24.08, -31.28 -23.83, -32.62 -22.69 M-30 -24.75 C-30.85 -23.85, -31.58 -23.32, -32.69 -22.46 M-32.68 -22.73 C-33.3 -21.9, -34.02 -20.75, -34.78 -20.27 M-32.62 -22.59 C-33.39 -21.73, -34.18 -20.75, -35.13 -19.81 M-35.17 -20.26 C-35.84 -19.04, -36.96 -17.52, -37.29 -17.09 M-35.12 -20.13 C-35.71 -19.07, -36.49 -17.87, -37.21 -17.15 M-37.14 -17.17 C-37.64 -16.25, -38.9 -14.68, -39.11 -13.9 M-37.39 -17.25 C-37.8 -16.52, -38.12 -15.79, -39.26 -13.95 M-39.62 -14.08 C-39.55 -13.25, -40.45 -11.98, -41.47 -10.97 M-39.38 -13.89 C-39.79 -13.22, -40.06 -12.19, -41.07 -10.49 M-40.91 -10.9 C-41.38 -9.31, -42.31 -8.44, -42.92 -7.37 M-41.18 -10.59 C-41.98 -9.4, -42.66 -7.78, -42.76 -6.94 M-42.91 -6.87 C-43.2 -6.63, -43.46 -5.63, -44.12 -3.35 M-42.72 -7.06 C-43.28 -5.87, -43.73 -4.89, -44.41 -3.45 M-44.41 -3.05 C-44.6 -2.14, -45.24 -0.58, -45.07 0.26 M-44.19 -3.51 C-44.6 -2.36, -44.92 -1.21, -45.32 0.48 M-45.3 0.66 C-45.61 2.21, -45.58 3.13, -46.15 4.26 M-45.29 0.44 C-45.55 1.78, -45.91 3.32, -46.1 4.32 M-46.07 4.53 C-46.06 4.81, -46.4 5.41, -46.49 6.51 M-46.14 4.4 C-46.28 5.04, -46.21 5.66, -46.46 6.35 M-46.24 6.18 C-46.6 6.67, -46.43 7.22, -46.49 8.42 M-46.36 6.36 C-46.38 7.13, -46.54 7.73, -46.49 8.3 M-46.7 8.57 C-46.68 8.91, -46.69 9.58, -46.5 10.21 M-46.59 8.33 C-46.64 9.06, -46.72 9.81, -46.66 10.34 M-46.54 10.38 C-46.56 10.85, -46.61 11.11, -46.47 12.27 M-46.66 10.38 C-46.71 11.21, -46.73 11.78, -46.58 12.38 M-46.56 12.57 C-46.55 13.01, -46.54 13.3, -46.36 14.3 M-46.74 12.32 C-46.68 12.99, -46.49 13.65, -46.46 14.5 M-46.46 14.34 C-46.43 14.94, -46.28 15.52, -46.41 16.49 M-46.54 14.43 C-46.59 15.1, -46.33 15.67, -46.35 16.4 M-46.32 16.26 C-46.2 16.72, -46.26 17.57, -45.95 18.21 M-46.38 16.41 C-46.17 17.03, -46.19 17.73, -45.97 18.38 M-46.21 18.2 C-45.95 19.24, -45.74 20.01, -45.64 20.38 M-45.97 18.29 C-45.86 18.93, -45.83 19.5, -45.53 20.27 M-45.62 20.48 C-45.25 21.25, -45.29 21.85, -45.13 22.22 M-45.49 20.37 C-45.35 21.15, -45.24 21.74, -44.97 22.33 M-45.17 22.19 C-44.74 22.84, -44.36 23.65, -44.47 24.34 M-44.97 22.34 C-44.7 23.11, -44.48 23.76, -44.4 24.21 M-44.32 24.35 C-43.92 24.97, -43.77 25.3, -43.38 26.33 M-44.37 24.24 C-44.14 24.77, -43.97 25.28, -43.49 26.08 M-43.55 26.22 C-43.37 26.45, -42.98 27.03, -42.63 27.85 M-43.6 26.17 C-43.22 26.78, -43.02 27.22, -42.58 27.95 M-42.44 28.07 C-42.31 28.29, -42.13 28.8, -41.76 29.82 M-42.71 27.99 C-42.37 28.5, -42.08 29.05, -41.62 29.79 M-41.51 29.9 C-41.17 30.32, -40.81 30.92, -40.41 31.5 M-41.58 29.74 C-41.12 30.53, -40.66 31.13, -40.47 31.72 M-40.23 31.77 C-40.33 31.95, -39.85 32.4, -38.89 33.28 M-40.52 31.69 C-40.04 32.16, -39.78 32.49, -39.09 33.42 M-39.29 33.33 C-38.87 33.91, -38.1 34.45, -37.51 34.97 M-39.08 33.26 C-38.58 33.78, -38.12 34.38, -37.59 35.01 M-37.73 35.02 C-36.99 35.87, -36.54 36.19, -35.86 36.58 M-37.55 35.08 C-37 35.67, -36.43 36.41, -36.09 36.7 M-36.19 36.73 C-35.35 37.01, -35.04 37.77, -34.25 38.24 M-35.93 36.75 C-35.53 36.98, -35.23 37.53, -34.25 38.3 M-34.3 38.18 C-33.84 38.65, -33.55 39.13, -33.57 39.28 M-34.22 38.25 C-33.93 38.67, -33.65 39.1, -33.53 39.34 M-33.47 39.2 C-33.26 39.71, -32.86 39.87, -32.63 40.22 M-33.51 39.3 C-33.31 39.52, -33.04 39.88, -32.62 40.3 M-32.7 40.33 C-32.43 40.45, -31.99 40.83, -31.88 41.13 M-32.61 40.22 C-32.46 40.44, -32.3 40.56, -31.77 41.01 M-31.76 41.11 C-31.68 41.29, -31.28 41.3, -30.79 41.77 M-31.77 41 C-31.52 41.32, -31.14 41.44, -30.88 41.74 M-30.96 41.76 C-30.66 41.95, -30.22 42.07, -29.87 42.24 M-30.85 41.77 C-30.69 41.82, -30.49 41.99, -29.97 42.35 M-29.88 42.22 C-29.7 42.41, -29.47 42.58, -29.06 42.73 M-29.95 42.36 C-29.61 42.48, -29.34 42.66, -29.05 42.83 M-29.14 42.76 C-28.76 42.95, -28.32 43.03, -28.13 43.04 M-29.07 42.81 C-28.72 42.89, -28.4 43.08, -28.14 43.16 M-28.17 43.11 C-27.86 43.25, -27.43 43.23, -27.16 43.37 M-28.08 43.1 C-27.86 43.17, -27.65 43.22, -27.11 43.34 M-27.18 43.23 C-26.42 43.46, -25.65 43.45, -25.17 43.56 M-27.22 43.29 C-26.35 43.38, -25.75 43.48, -25.14 43.69 M-25.06 43.65 C-24.6 43.72, -23.94 43.68, -23.17 43.51 M-25.17 43.51 C-24.47 43.49, -23.9 43.41, -23.26 43.44 M-23.33 43.32 C-22.83 43.17, -22.33 43.42, -21.03 42.96 M-23.15 43.46 C-22.68 43.37, -22.22 43.2, -21.14 43 M-21.2 43.08 C-20.39 42.77, -19.43 42.26, -19.34 42.2 M-21.16 43.05 C-20.78 42.8, -20.46 42.74, -19.26 42.26 M-19.06 42.4 C-18.36 41.83, -17.86 41.31, -17.07 41.25 M-19.13 42.34 C-18.49 41.87, -17.98 41.67, -17.3 41.23 M-17.1 41.38 C-16.59 40.74, -15.9 40.23, -15.52 40.18 M-17.18 41.25 C-16.63 40.86, -15.73 40.33, -15.4 40.01 M-15.39 39.83 C-15.12 39.52, -14.46 39.49, -13.26 38.55 M-15.39 39.98 C-14.52 39.35, -13.93 38.86, -13.36 38.46 M-13.54 38.58 C-13.08 38.12, -12.74 37.97, -11.67 36.76 M-13.46 38.65 C-12.83 37.88, -12.28 37.51, -11.78 37.07 M-11.81 37.12 C-11.25 36.59, -10.63 35.62, -10.03 35.07 M-11.59 37.03 C-11.11 36.27, -10.44 35.61, -10.04 35.22 M-9.89 35.29 C-9.65 34.62, -9.01 34.17, -8.5 33.46 M-10.1 35.36 C-9.37 34.78, -8.95 34.16, -8.42 33.48 M-8.45 33.35 C-7.8 33, -7.72 32.32, -6.84 31.62 M-8.5 33.59 C-7.97 32.9, -7.61 32.39, -6.98 31.82 M-6.96 31.75 C-6.57 31.17, -6.25 30.72, -5.99 29.79 M-6.99 31.74 C-6.63 31.31, -6.35 30.69, -5.78 29.86 M-5.71 29.83 C-5.64 29.48, -5.24 29.15, -4.7 28.34 M-5.71 29.86 C-5.5 29.43, -5.15 28.8, -4.9 28.28 M-4.71 28.47 C-4.55 27.66, -4.4 27.29, -4.05 26.73 M-4.9 28.3 C-4.66 27.88, -4.38 27.44, -3.94 26.53 M-3.83 26.55 C-3.85 26.1, -3.53 25.7, -3.12 24.97 M-3.96 26.62 C-3.8 26.22, -3.61 25.82, -3.25 24.97 M-3.07 24.74 C-2.97 24.2, -2.66 23.51, -2.49 23.26 M-3.12 24.83 C-3.05 24.48, -2.84 23.98, -2.54 23.2 M-2.48 23.23 C-2.27 22.61, -2.09 22.06, -2.08 21.21 M-2.55 23.06 C-2.29 22.54, -2.15 21.72, -1.91 21.29 M-1.92 21.34 C-1.77 20.79, -1.71 20.04, -1.29 19.26 M-1.95 21.33 C-1.69 20.77, -1.52 20.12, -1.47 19.36 M-1.03 19.16 C-1.1 18.79, -1.03 17.69, -0.68 15.57 M-1.41 19.47 C-1.23 18.15, -0.67 16.59, -0.71 15.56 M-0.66 15.52 C-0.17 13.92, -0.55 12.72, -0.24 11.8 M-0.65 15.63 C-0.39 14.52, -0.14 13.39, -0.07 11.58 M-0.01 11.67 C-0.25 10.8, 0.25 9.5, -0.04 7.75 M-0.11 11.67 C0.13 10.31, 0.18 9, 0.42 7.85 M0.08 7.75 C0.17 6.23, 0.41 5.06, 0.58 3.88 M0.26 7.97 C0.44 6.96, 0.22 6.26, 0.14 4.03 M0.17 3.84 C-0.14 2.93, -0.06 2.1, -0.35 0.22 M0.32 3.95 C0.25 2.83, 0.27 2.06, 0.1 -0.01 M0 0 C0 0, 0 0, 0 0 M0 0 C0 0, 0 0, 0 0 M0 0 C0 0, 0 0, 0 0 M0 0 C0 0, 0 0, 0 0" stroke="#000000" stroke-width="1" fill="none"/></g></g><g stroke-linecap="round"><g transform="translate(76.96091985633996 93.31889845995147) rotate(0 -19.661932984423288 -7.7496490489635335)" fill-rule="evenodd"><path d="M0.39 1.61 L-0.39 -0.17 L0.33 5 L-1.59 5.29 L0.98 8.51 L0.26 10.98 L-0.6 13.63 L-1.64 14.16 L-4.18 19.1 L-5.01 20.02 L-6.46 21.57 L-10.55 21.69 L-9.1 23.65 L-13.86 24.24 L-14.66 25.86 L-13.49 24.67 L-18.67 26.69 L-18.93 27.93 L-21.58 26.54 L-22.61 26.9 L-24.8 27.76 L-27.89 26.39 L-26.65 22.65 L-29.07 23.16 L-30.41 21.41 L-31.39 21.9 L-32.27 20.22 L-35.02 15.24 L-37.39 13.17 L-35.08 11.75 L-35.84 8.3 L-37.62 7.93 L-38.65 3.58 L-39.62 0.23 L-37.94 -0.15 L-37.51 -4.84 L-39.07 -8.13 L-38.31 -7.83 L-39.95 -13.14 L-39.93 -12.49 L-39.22 -19.49 L-38.57 -22.44 L-36.22 -26.78 L-38.08 -28.72 L-35.9 -31.1 L-33.33 -35.26 L-32.11 -36.91 L-30.13 -38.02 L-27.62 -38.71 L-25.23 -41.07 L-26.16 -41.08 L-22.31 -40.49 L-20.37 -42.66 L-19.98 -40.46 L-15.84 -40.14 L-15.82 -41.21 L-11.1 -40.29 L-10.3 -39.03 L-9.61 -35.93 L-6.88 -34.27 L-3.77 -29.94 L-3.91 -27.35 L-2.93 -27.28 L-2.7 -22.75 L-1.36 -18.94 L0.5 -13.02 L1.55 -12.31 L-1.65 -11.58 L-1.74 -7.27 L1.73 -3.3 L0.15 -2.99 L1.71 -0.91 L1.5 -1.45" stroke="none" stroke-width="0" fill="#FFFFFF" fill-rule="evenodd"/><path d="M0 0 C0 0, 0 0, 0 0 M0 0 C0 0, 0 0, 0 0 M-0.13 -0.06 C-0.03 0.61, 0.07 1.51, 0.18 3.16 M-0.02 -0.15 C-0.12 1.12, -0.16 2.34, -0.01 3.19 M0.02 2.92 C-0.34 3.74, -0.23 4.82, -0.3 6.13 M-0.01 2.96 C-0.12 3.82, -0.39 4.64, -0.51 5.97 M-0.21 5.88 C-0.44 6.8, -0.8 7.95, -1 8.51 M-0.35 6.11 C-0.49 6.69, -0.58 7.44, -1.02 8.71 M-1.05 8.75 C-1.31 9.75, -1.36 10.87, -1.66 11.12 M-1.01 8.67 C-1.27 9.63, -1.41 10.79, -1.79 11.22 M-1.87 11.21 C-1.97 12.05, -1.98 12.78, -2.44 13.79 M-1.64 11.36 C-1.83 12.12, -2.3 12.84, -2.47 13.75 M-2.33 13.47 C-2.89 14.24, -3.01 14.5, -3.42 15.88 M-2.46 13.74 C-2.72 14.11, -3.08 14.58, -3.55 15.82 M-3.38 15.61 C-3.8 16.08, -4.19 16.83, -4.63 17.61 M-3.52 15.81 C-3.87 16.24, -4.13 16.92, -4.64 17.79 M-4.81 17.84 C-5.21 18.1, -5.48 18.7, -5.76 19.72 M-4.6 17.67 C-5.01 18.31, -5.33 18.87, -6.03 19.52 M-5.98 19.51 C-6.52 20.02, -6.6 20.25, -7.52 21.12 M-5.93 19.45 C-6.43 20.2, -7.12 20.84, -7.38 21.07 M-7.2 21.16 C-7.73 21.36, -8.19 21.6, -8.68 22.35 M-7.43 21.08 C-7.73 21.53, -8.27 22, -8.91 22.42 M-8.82 22.61 C-9.15 23.06, -9.86 23.13, -10.39 23.57 M-8.77 22.49 C-9.37 22.86, -9.73 23.29, -10.43 23.67 M-10.55 23.7 C-10.87 23.94, -11.07 24.19, -12.06 24.51 M-10.46 23.79 C-10.67 23.98, -11.18 24.12, -11.97 24.61 M-11.94 24.53 C-12.58 25.1, -13.38 25.32, -13.88 25.52 M-11.94 24.6 C-12.48 24.93, -12.82 25, -13.68 25.44 M-13.57 25.66 C-14.47 25.69, -14.84 26.03, -15.34 26.25 M-13.76 25.43 C-14.32 25.69, -15.02 25.95, -15.51 26.03 M-15.57 26.19 C-15.97 26.12, -16.54 26.24, -17.14 26.35 M-15.36 26.07 C-15.89 26.12, -16.47 26.36, -17.27 26.39 M-17.37 26.52 C-17.71 26.56, -18.27 26.56, -19.01 26.74 M-17.22 26.53 C-17.71 26.49, -18.27 26.58, -18.91 26.68 M-19.17 26.82 C-19.58 26.52, -20.11 26.51, -20.91 26.59 M-19.08 26.66 C-19.73 26.63, -20.27 26.69, -20.71 26.63 M-20.93 26.49 C-21.39 26.52, -21.54 26.64, -22.71 26.46 M-20.69 26.64 C-21.35 26.54, -21.7 26.58, -22.65 26.42 M-22.45 26.24 C-22.84 26.21, -23.35 26.25, -24.23 26.02 M-22.65 26.4 C-23.02 26.32, -23.41 26.16, -24.29 25.9 M-24.44 25.78 C-24.83 25.76, -24.99 25.5, -26.02 25.34 M-24.26 25.99 C-24.97 25.77, -25.69 25.37, -26.1 25.33 M-26.13 25.17 C-26.55 25.08, -27.21 24.55, -27.64 24.44 M-25.95 25.33 C-26.72 24.99, -27.34 24.62, -27.69 24.4 M-27.8 24.27 C-27.98 23.98, -28.38 23.84, -29.13 23.5 M-27.74 24.39 C-28.17 24.13, -28.71 23.85, -29.37 23.34 M-29.42 23.44 C-29.66 22.91, -30.14 22.76, -30.73 21.99 M-29.24 23.35 C-29.71 22.98, -30.04 22.7, -30.87 22.13 M-31.04 22.21 C-31.4 21.41, -31.8 20.82, -32.18 20.47 M-30.88 21.98 C-31.22 21.67, -31.47 21.41, -32.39 20.64 M-32.5 20.69 C-32.87 19.86, -32.95 19.42, -33.53 18.89 M-32.22 20.61 C-32.67 20.03, -32.98 19.43, -33.67 18.82 M-33.41 18.63 C-34.29 17.96, -34.68 17.33, -34.85 16.78 M-33.66 18.86 C-34.13 18.18, -34.32 17.5, -34.86 16.86 M-34.63 16.64 C-35.2 16.52, -35.42 15.87, -35.8 14.94 M-34.77 16.88 C-35.19 16.03, -35.58 15.45, -36.03 14.76 M-36.12 14.68 C-36.23 14.15, -36.65 13.23, -37.15 12.45 M-35.99 14.65 C-36.32 13.99, -36.63 13.01, -36.92 12.27 M-36.77 12.26 C-37.04 11.53, -37.55 10.88, -37.91 9.89 M-37.04 12.19 C-37.14 11.9, -37.22 11.23, -37.79 9.77 M-37.66 9.8 C-37.88 8.5, -38.23 7.43, -38.39 6.62 M-37.65 9.82 C-37.9 8.92, -38.11 8.09, -38.23 6.79 M-38.5 6.9 C-38.4 5.96, -38.47 4.99, -38.8 3.97 M-38.35 6.96 C-38.44 6.01, -38.52 4.84, -38.89 3.78 M-38.61 3.79 C-38.9 3.04, -39.19 2.09, -38.73 0.31 M-38.81 3.74 C-38.72 2.82, -39.04 2.01, -39 0.41 M-39.01 0.57 C-39.03 -0.43, -39 -1.14, -39.29 -2.18 M-39.11 0.51 C-39.19 -0.39, -39.24 -1.59, -39.29 -2.1 M-39.45 -2.04 C-39.31 -3.18, -39.37 -4.11, -39.55 -4.6 M-39.39 -1.99 C-39.22 -2.89, -39.26 -3.63, -39.36 -4.68 M-39.62 -4.77 C-39.38 -5.61, -39.49 -6.36, -39.59 -7.25 M-39.4 -4.7 C-39.37 -5.46, -39.4 -6.43, -39.44 -7.12 M-39.36 -6.91 C-39.63 -8.18, -39.62 -9.09, -39.26 -9.63 M-39.5 -7.18 C-39.45 -8.03, -39.45 -8.89, -39.37 -9.33 M-39.56 -9.46 C-39.44 -9.97, -39.67 -10.44, -39.19 -11.61 M-39.5 -9.32 C-39.44 -10.16, -39.4 -10.84, -39.45 -11.6 M-39.43 -11.52 C-39.43 -12.42, -39.17 -13.3, -39.42 -14 M-39.47 -11.72 C-39.46 -12.57, -39.36 -13.19, -39.3 -13.87 M-39.55 -14.32 C-38.97 -15.45, -38.8 -16.14, -38.97 -17.9 M-39.47 -13.97 C-39.12 -15.25, -38.78 -16.71, -38.94 -18.12 M-38.6 -17.91 C-38.26 -18.99, -38.4 -19.71, -38.45 -22.17 M-38.87 -17.88 C-38.71 -19.56, -38.27 -20.96, -37.94 -21.91 M-38.02 -22.2 C-37.7 -22.65, -37.4 -23.28, -37.01 -25.24 M-38.1 -21.73 C-37.84 -22.73, -37.47 -23.63, -37.15 -25.53 M-37.51 -25.11 C-36.86 -26.63, -36.36 -27.96, -36.3 -28.8 M-37.22 -25.24 C-36.77 -26.51, -36.41 -27.9, -36.03 -28.63 M-36.39 -28.66 C-35.79 -29.37, -35.02 -30.07, -34.78 -31.48 M-36.21 -28.51 C-35.48 -29.55, -35.07 -30.73, -34.79 -31.41 M-34.94 -31.44 C-34.68 -32, -34.25 -32.68, -33.53 -34.03 M-34.8 -31.4 C-34.37 -32.06, -33.98 -32.84, -33.35 -33.9 M-33.16 -33.65 C-32.85 -34.83, -32.38 -35.16, -31.72 -36.18 M-33.5 -33.89 C-32.91 -34.36, -32.75 -35.02, -31.82 -36.08 M-31.91 -36.31 C-31.38 -36.67, -30.4 -37.42, -30.28 -38.11 M-31.86 -36.09 C-31.42 -36.69, -30.9 -37.21, -30.04 -37.89 M-30.35 -37.83 C-29.45 -38.71, -28.69 -39.27, -28.19 -39.57 M-30.1 -38.03 C-29.56 -38.51, -28.89 -38.92, -28.42 -39.56 M-28.29 -39.39 C-27.45 -39.87, -26.93 -40.43, -26.61 -40.53 M-28.26 -39.44 C-27.95 -39.75, -27.36 -40.15, -26.51 -40.63 M-26.52 -40.51 C-25.66 -40.8, -25.11 -41.32, -24.59 -41.35 M-26.37 -40.78 C-25.85 -41.02, -25.1 -41.24, -24.4 -41.47 M-24.58 -41.66 C-23.87 -41.67, -23.49 -41.77, -22.49 -41.96 M-24.49 -41.6 C-24.08 -41.75, -23.68 -41.68, -22.43 -42.08 M-22.69 -42.22 C-22.03 -42.17, -21.49 -42.36, -20.55 -42.1 M-22.6 -41.99 C-21.93 -42.07, -21.3 -42.25, -20.4 -42.21 M-20.5 -42.3 C-19.98 -42.3, -19.71 -42.15, -18.64 -42.29 M-20.45 -42.32 C-19.88 -42.17, -19.39 -42.11, -18.37 -42.19 M-18.39 -42.04 C-17.71 -42.17, -17.11 -41.62, -16.29 -41.89 M-18.46 -42.05 C-17.94 -42, -17.36 -41.88, -16.45 -41.76 M-16.32 -41.76 C-15.52 -41.24, -14.88 -41.19, -14.43 -40.88 M-16.35 -41.64 C-15.75 -41.53, -15.22 -41.22, -14.47 -40.87 M-14.29 -40.87 C-13.81 -40.39, -13.16 -40.21, -12.54 -39.59 M-14.46 -40.9 C-13.99 -40.59, -13.38 -40.19, -12.49 -39.76 M-12.42 -39.63 C-12.15 -39.24, -11.58 -38.99, -10.8 -38.06 M-12.54 -39.64 C-12.2 -39.47, -11.81 -39.07, -10.65 -38.37 M-10.59 -38.14 C-10.09 -37.94, -9.59 -37.33, -8.86 -36.61 M-10.7 -38.19 C-10.06 -37.74, -9.33 -36.96, -8.78 -36.53 M-8.93 -36.39 C-8.6 -36.12, -7.65 -35.41, -7.32 -34.52 M-8.78 -36.52 C-8.2 -35.72, -7.75 -34.91, -7.25 -34.24 M-7.45 -34.46 C-6.67 -33.85, -6.14 -33.01, -5.87 -32.18 M-7.26 -34.47 C-6.96 -33.87, -6.58 -33.33, -5.74 -31.77 M-5.48 -32.16 C-4.98 -30.79, -4.51 -29.7, -4.3 -29.21 M-5.69 -32.05 C-5.17 -30.84, -4.64 -29.87, -4.1 -29.2 M-4.18 -29.11 C-3.85 -28.12, -3.65 -27.67, -3.29 -25.73 M-4.17 -29.22 C-3.83 -28.18, -3.55 -27.54, -3.14 -26.05 M-3.04 -25.69 C-2.37 -24.27, -1.88 -23.39, -2 -22.14 M-2.92 -25.94 C-2.64 -24.95, -2.48 -24.26, -1.92 -22.58 M-1.67 -22.81 C-1.52 -21.52, -1.85 -20.56, -0.71 -18.64 M-1.76 -22.62 C-1.8 -21.71, -1.71 -20.85, -1.04 -18.55 M-0.81 -19.05 C-1.11 -17.05, -0.26 -15.81, -0.56 -14.65 M-1.25 -18.68 C-0.94 -17.01, -0.65 -15.49, -0.52 -14.4 M-0.35 -14.51 C-0.39 -13.64, -0.33 -13.34, -0.39 -12.12 M-0.47 -14.48 C-0.43 -13.95, -0.39 -13.43, -0.25 -12.38 M0.02 -12.26 C0 -11.54, -0.21 -11.11, -0.04 -10.19 M-0.26 -12.18 C-0.11 -11.66, -0.21 -11.06, -0.06 -9.96 M-0.17 -9.96 C-0.18 -9.21, 0.22 -8.49, 0.06 -7.5 M-0.09 -10.06 C0 -9.31, 0.14 -8.42, 0.01 -7.68 M0.22 -7.62 C-0.01 -6.56, 0.22 -5.85, 0.05 -5.18 M0.06 -7.73 C0.17 -6.72, 0.23 -5.92, 0.23 -5.25 M0.26 -5.03 C0.24 -4.6, 0.35 -3.98, 0.27 -2.87 M0.01 -5.28 C0.16 -4.44, 0.06 -3.68, 0.2 -2.69 M0.25 -2.43 C0.31 -1.75, 0.01 -0.49, 0.12 -0.16 M0.06 -2.63 C0.16 -1.86, 0.06 -1.43, -0.06 0.02 M0 0 C0 0, 0 0, 0 0 M0 0 C0 0, 0 0, 0 0 M0 0 C0 0, 0 0, 0 0 M0 0 C0 0, 0 0, 0 0" stroke="#000000" stroke-width="1" fill="none"/></g></g></svg>