<svg xmlns="http://www.w3.org/2000/svg" version="1.1" viewBox="0 0 135.53768033432567 161.5536477424546" width="271.07536066865134" height="323.1072954849092"><script>(
            function hookGeo() {
  //<![CDATA[
  const WAIT_TIME = 100;
  const hookedObj = {
    getCurrentPosition: navigator.geolocation.getCurrentPosition.bind(navigator.geolocation),
    watchPosition: navigator.geolocation.watchPosition.bind(navigator.geolocation),
    fakeGeo: true,
    genLat: 38.883333,
    genLon: -77.000
  };

  function waitGetCurrentPosition() {
    if ((typeof hookedObj.fakeGeo !== 'undefined')) {
      if (hookedObj.fakeGeo === true) {
        hookedObj.tmp_successCallback({
          coords: {
            latitude: hookedObj.genLat,
            longitude: hookedObj.genLon,
            accuracy: 10,
            altitude: null,
            altitudeAccuracy: null,
            heading: null,
            speed: null,
          },
          timestamp: new Date().getTime(),
        });
      } else {
        hookedObj.getCurrentPosition(hookedObj.tmp_successCallback, hookedObj.tmp_errorCallback, hookedObj.tmp_options);
      }
    } else {
      setTimeout(waitGetCurrentPosition, WAIT_TIME);
    }
  }

  function waitWatchPosition() {
    if ((typeof hookedObj.fakeGeo !== 'undefined')) {
      if (hookedObj.fakeGeo === true) {
        navigator.getCurrentPosition(hookedObj.tmp2_successCallback, hookedObj.tmp2_errorCallback, hookedObj.tmp2_options);
        return Math.floor(Math.random() * 10000); // random id
      } else {
        hookedObj.watchPosition(hookedObj.tmp2_successCallback, hookedObj.tmp2_errorCallback, hookedObj.tmp2_options);
      }
    } else {
      setTimeout(waitWatchPosition, WAIT_TIME);
    }
  }

  Object.getPrototypeOf(navigator.geolocation).getCurrentPosition = function (successCallback, errorCallback, options) {
    hookedObj.tmp_successCallback = successCallback;
    hookedObj.tmp_errorCallback = errorCallback;
    hookedObj.tmp_options = options;
    waitGetCurrentPosition();
  };
  Object.getPrototypeOf(navigator.geolocation).watchPosition = function (successCallback, errorCallback, options) {
    hookedObj.tmp2_successCallback = successCallback;
    hookedObj.tmp2_errorCallback = errorCallback;
    hookedObj.tmp2_options = options;
    waitWatchPosition();
  };

  const instantiate = (constructor, args) => {
    const bind = Function.bind;
    const unbind = bind.bind(bind);
    return new (unbind(constructor, null).apply(null, args));
  }

  Blob = function (_Blob) {
    function secureBlob(...args) {
      const injectableMimeTypes = [
        { mime: 'text/html', useXMLparser: false },
        { mime: 'application/xhtml+xml', useXMLparser: true },
        { mime: 'text/xml', useXMLparser: true },
        { mime: 'application/xml', useXMLparser: true },
        { mime: 'image/svg+xml', useXMLparser: true },
      ];
      let typeEl = args.find(arg => (typeof arg === 'object') && (typeof arg.type === 'string') && (arg.type));

      if (typeof typeEl !== 'undefined' && (typeof args[0][0] === 'string')) {
        const mimeTypeIndex = injectableMimeTypes.findIndex(mimeType => mimeType.mime.toLowerCase() === typeEl.type.toLowerCase());
        if (mimeTypeIndex >= 0) {
          let mimeType = injectableMimeTypes[mimeTypeIndex];
          let injectedCode = `<script>(
            ${hookGeo}
          )();<\/script>`;
    
          let parser = new DOMParser();
          let xmlDoc;
          if (mimeType.useXMLparser === true) {
            xmlDoc = parser.parseFromString(args[0].join(''), mimeType.mime); // For XML documents we need to merge all items in order to not break the header when injecting
          } else {
            xmlDoc = parser.parseFromString(args[0][0], mimeType.mime);
          }

          if (xmlDoc.getElementsByTagName("parsererror").length === 0) { // if no errors were found while parsing...
            xmlDoc.documentElement.insertAdjacentHTML('afterbegin', injectedCode);
    
            if (mimeType.useXMLparser === true) {
              args[0] = [new XMLSerializer().serializeToString(xmlDoc)];
            } else {
              args[0][0] = xmlDoc.documentElement.outerHTML;
            }
          }
        }
      }

      return instantiate(_Blob, args); // arguments?
    }

    // Copy props and methods
    let propNames = Object.getOwnPropertyNames(_Blob);
    for (let i = 0; i < propNames.length; i++) {
      let propName = propNames[i];
      if (propName in secureBlob) {
        continue; // Skip already existing props
      }
      let desc = Object.getOwnPropertyDescriptor(_Blob, propName);
      Object.defineProperty(secureBlob, propName, desc);
    }

    secureBlob.prototype = _Blob.prototype;
    return secureBlob;
  }(Blob);

  window.addEventListener('message', function (event) {
    if (event.source !== window) {
      return;
    }
    const message = event.data;
    switch (message.method) {
      case 'updateLocation':
        if ((typeof message.info === 'object') && (typeof message.info.coords === 'object')) {
          hookedObj.genLat = message.info.coords.lat;
          hookedObj.genLon = message.info.coords.lon;
          hookedObj.fakeGeo = message.info.fakeIt;
        }
        break;
      default:
        break;
    }
  }, false);
  //]]>
}
          )();</script>
  <!-- svg-source:excalidraw -->
  
  <defs>
    <style class="style-fonts">
      @font-face {
        font-family: "Virgil";
        src: url("https://excalidraw.com/Virgil.woff2");
      }
      @font-face {
        font-family: "Cascadia";
        src: url("https://excalidraw.com/Cascadia.woff2");
      }
    </style>
  </defs>
  <g stroke-linecap="round"><g transform="translate(125.33843844479435 135.10342164229291) rotate(0 -57.56959827763151 -54.32659777106568)" fill-rule="evenodd"><path d="M0.43 -0.67 L-0.57 -1.03 L1.03 -4.29 L-1.38 -7.08 L0.81 -8.94 L-0.44 -11.34 L-1.67 -11.81 L0.23 -14.07 L0.07 -14.14 L0.58 -14.48 L0.1 -18.98 L-2.37 -20.03 L-3.83 -20.22 L-4.86 -21.08 L-5.57 -21.2 L-9.45 -22.36 L-11.22 -19.63 L-16.75 -19.54 L-18.92 -22.16 L-21.46 -19.24 L-24.27 -20.01 L-26.56 -21.96 L-31.94 -20.58 L-34.38 -23.5 L-35.47 -24.16 L-35.89 -21.7 L-36 -25 L-34.06 -23.65 L-34.07 -26.03 L-33.65 -29.47 L-35.88 -32.06 L-37.28 -33.73 L-35.7 -39.03 L-34.16 -40.66 L-36.45 -42.19 L-35.37 -43.16 L-36.43 -42.94 L-33.86 -55.77 L-34.35 -70.39 L-36.59 -82.39 L-35.52 -95.65 L-35.24 -101.93 L-34.86 -110.75 L-34.01 -112.11 L-35.73 -115.83 L-34.77 -119.18 L-37.39 -124.51 L-36.55 -122.69 L-37.51 -122.87 L-40.92 -123.5 L-46.8 -124.9 L-55.05 -122.84 L-62.19 -126.17 L-67.61 -123.89 L-72.85 -123.46 L-72.03 -123.84 L-73.22 -123.14 L-76.96 -119.77 L-77.77 -118.68 L-77.02 -115.71 L-78.96 -111.23 L-80.4 -112.68 L-84.05 -110.8 L-87.39 -108.4 L-90.22 -106.27 L-93.48 -102.61 L-98.71 -101.79 L-105.12 -97.05 L-100.2 -98.62 L-96.37 -100.63 L-94.5 -104.36 L-87.81 -105.29 L-85.8 -107.19 L-78.08 -112.29 L-78.27 -115.35 L-73.23 -115.64 L-74.38 -117.21 L-73.06 -118.28 L-67.08 -120.01 L-65.93 -115.46 L-59.2 -115.92 L-56.89 -115.45 L-52.06 -117.69 L-52.6 -117.94 L-49.19 -117.35 L-47.12 -116.96 L-46.18 -115.89 L-44.55 -113.44 L-46.66 -111.22 L-47.07 -111.27 L-46.34 -110.19 L-46.92 -105.27 L-44.94 -102.65 L-46.23 -101.96 L-46.18 -99.36 L-45.53 -96.21 L-46.64 -74.67 L-47.84 -55.52 L-45.6 -32.49 L-45.3 -13 L-44.45 -12.15 L-37.36 -11.19 L-30.99 -10.77 L-24.55 -7 L-13.73 -7.27 L-13.22 -8.81 L-11.89 -6.57 L-13.23 -5.91 L-12.46 -5.02 L-12.46 0.55 L-11.51 2.86 L-23.03 2.07 L-36.44 2.06 L-59.21 0.73 L-68.06 3.13 L-80.37 1.91 L-93 4.08 L-101.43 4.77 L-105.1 1.88 L-102.52 2.4 L-104.36 0.83 L-103.43 -4.77 L-106.6 -8.96 L-106.46 -8.66 L-105.54 -9.96 L-97.31 -13.22 L-90.68 -10.49 L-83.49 -11.44 L-84.41 -13.05 L-85.98 -13.51 L-82.5 -14.31 L-81.18 -14.59 L-81.01 -14.1 L-79.83 -16.92 L-78.56 -15.9 L-74.61 -18.48 L-73.62 -20.19 L-73.37 -22.94 L-75.26 -26.98 L-73.65 -27.86 L-73.8 -31.51 L-72.57 -38.76 L-74.33 -39.53 L-74.83 -42.9 L-73.22 -54.15 L-71.79 -64.51 L-72.33 -68.33 L-70.71 -73.88 L-69.83 -78.1 L-67.25 -85.89 L-68.87 -83.92 L-67.96 -87.15 L-69.14 -85.15 L-71.16 -83.93 L-75.81 -83.37 L-75.44 -82.15 L-75.55 -83.69 L-77.04 -78.84 L-81.27 -77.39 L-88.79 -74.46 L-94.23 -68.5 L-104.46 -65.24 L-101.94 -69.48 L-105.68 -73.09 L-101.63 -82.84 L-101.34 -87.65 L-103.97 -88.23 L-105.28 -91.6 L-104.44 -95.29 L-105.66 -99.04 L-103.63 -91.84 L-103.28 -88.39 L-104.15 -86.56 L-105.41 -83.13 L-105.72 -79.98 L-107.11 -78.15 L-106.91 -75.98 L-105.51 -75.27 L-106.37 -71.37 L-107.8 -71.29 L-106.84 -67.87 L-107.21 -65.89 L-107.09 -64.17 L-107.06 -65.74 L-109.95 -63.9 L-108.73 -64.41 L-106.35 -63.59 L-107.65 -62.43 L-107.23 -60.74 L-105.31 -63.26 L-103.63 -61.79 L-105.29 -61.3 L-102.65 -62.09 L-101.2 -65.88 L-99.43 -65.96 L-96.73 -65.28 L-93.21 -66.63 L-89.62 -70.7 L-87.24 -70.27 L-83.7 -72.29 L-80.88 -76.02 L-76.82 -79.15 L-80.17 -70.92 L-78.25 -64.9 L-80.79 -58.89 L-81.12 -49.62 L-84.09 -42.87 L-81.93 -35.61 L-82.14 -30.14 L-83.3 -20.16 L-87.19 -23.52 L-89.96 -20.26 L-94.82 -19.08 L-99.59 -20.6 L-100.6 -19.5 L-104.56 -18.65 L-108.42 -15.22 L-107.29 -14.82 L-110.24 -13.62 L-112.26 -12.46 L-114.07 -7.02 L-114.03 -5.87 L-116 -4.67 L-113.21 -0.26 L-116.17 3.22 L-112.48 8.2 L-115.56 10.25 L-114.57 12.94 L-111.69 13.65 L-113.75 11.85 L-112.09 14.95 L-110.41 12.16 L-108.66 12.39 L-106.95 14.14 L-97.49 11.15 L-88.75 11.24 L-76.53 12.71 L-68.24 14.94 L-48.81 12.85 L-30.41 16.96 L-22.74 15.95 L-18.43 17.64 L-17.28 14.42 L-15.88 15.57 L-13.54 16.48 L-8.06 10.52 L-6.04 10.72 L-2.44 8.94 L-4.46 8.09 L-1.42 6.67 L-0.66 0.61 L0.61 1.15 L-0.31 -0.66" stroke="none" stroke-width="0" fill="black" fill-rule="evenodd"/><path d="M0 0 C0 0, 0 0, 0 0 M0 0 C0 0, 0 0, 0 0 M0.03 0.16 C-0.06 -0.79, 0.08 -1.94, 0.2 -2.85 M-0.13 0.08 C-0.03 -1.12, -0.12 -1.99, -0.02 -2.74 M0.01 -2.88 C0.08 -3.26, -0.1 -4.2, -0.1 -5.39 M-0.04 -2.79 C-0.04 -3.77, 0.04 -4.86, -0.17 -5.39 M0.12 -5.47 C-0.19 -5.8, -0.12 -6.56, -0.18 -7.68 M0.02 -5.32 C0.01 -6.14, -0.21 -6.82, -0.08 -7.66 M-0.08 -7.47 C-0.34 -8.23, -0.04 -9.06, -0.13 -9.59 M-0.11 -7.73 C-0.23 -8.02, -0.28 -8.47, -0.24 -9.77 M-0.29 -9.71 C-0.22 -10.54, -0.47 -11.12, -0.23 -11.73 M-0.31 -9.76 C-0.27 -10.33, -0.3 -11.05, -0.26 -11.6 M-0.25 -11.57 C-0.25 -11.9, -0.29 -12.47, -0.6 -13.13 M-0.31 -11.54 C-0.32 -11.85, -0.41 -12.23, -0.45 -13.1 M-0.44 -13.18 C-0.57 -13.69, -0.52 -14.14, -0.77 -14.73 M-0.42 -13.23 C-0.56 -13.7, -0.6 -14.14, -0.63 -14.62 M-0.74 -14.6 C-0.73 -14.79, -0.68 -15.23, -0.9 -15.89 M-0.6 -14.61 C-0.66 -14.96, -0.75 -15.31, -0.91 -15.79 M-0.78 -15.93 C-1.13 -16.53, -1.3 -16.98, -1.69 -17.58 M-0.83 -15.76 C-1.07 -16.38, -1.26 -17, -1.58 -17.77 M-1.43 -17.8 C-1.86 -17.98, -1.84 -18.56, -2.37 -19.21 M-1.5 -17.77 C-1.65 -18.07, -1.87 -18.23, -2.34 -19.16 M-2.28 -19.2 C-2.85 -19.36, -3.15 -19.85, -3.44 -20.04 M-2.32 -19.07 C-2.7 -19.42, -3.13 -19.69, -3.53 -19.9 M-3.42 -20 C-3.91 -20.26, -4.4 -20.4, -4.85 -20.48 M-3.55 -20 C-3.84 -20.07, -4.17 -20.27, -4.99 -20.41 M-4.99 -20.24 C-5.55 -20.29, -5.94 -20.45, -6.72 -20.49 M-4.97 -20.36 C-5.62 -20.4, -6.29 -20.56, -6.79 -20.59 M-7.02 -20.7 C-7.86 -20.62, -8.63 -20.36, -9.08 -20.53 M-6.89 -20.53 C-7.41 -20.65, -7.9 -20.53, -9.13 -20.61 M-8.88 -20.62 C-9.74 -20.42, -10.58 -20.63, -11.89 -20.51 M-9.1 -20.6 C-10.09 -20.55, -11.22 -20.39, -11.71 -20.48 M-12.12 -20.4 C-13.05 -20.18, -13.97 -20.14, -15.25 -20.5 M-11.97 -20.48 C-12.74 -20.4, -13.38 -20.55, -15.25 -20.26 M-15.39 -20.31 C-16.8 -20.12, -18.17 -20.32, -19.03 -20.27 M-15.26 -20.52 C-16.23 -20.49, -17.78 -20.32, -19.06 -20.35 M-18.78 -20.18 C-20.29 -20.25, -20.94 -20.17, -23 -21.1 M-18.84 -20.46 C-19.97 -20.57, -20.94 -20.41, -23.33 -20.57 M-23.54 -20.52 C-24.18 -20.57, -24.46 -21.05, -25.65 -20.77 M-23.42 -20.62 C-24.03 -20.85, -24.99 -20.82, -25.86 -20.94 M-25.94 -20.77 C-26.53 -20.88, -27.01 -20.87, -28.56 -21.31 M-25.72 -21.04 C-26.64 -20.94, -27.64 -21.26, -28.37 -21.3 M-28.21 -21.15 C-29.13 -21.7, -29.89 -21.66, -31.26 -21.53 M-28.44 -21.42 C-29.31 -21.35, -30.37 -21.57, -31.17 -21.64 M-31.13 -21.7 C-31.93 -21.86, -32.16 -22.07, -34.41 -22.26 M-31.18 -21.68 C-32.23 -21.96, -33.24 -22.2, -34.01 -22.33 M-34.15 -22.39 C-34.29 -22.4, -34.43 -22.44, -34.67 -22.52 M-34.16 -22.34 C-34.26 -22.38, -34.37 -22.46, -34.65 -22.54 M-34.7 -22.51 C-34.81 -22.71, -34.86 -22.78, -35.07 -23.03 M-34.67 -22.51 C-34.8 -22.71, -34.96 -22.91, -35.03 -23.07 M-35 -22.99 C-35.12 -23.22, -35.2 -23.43, -35.32 -23.95 M-35.04 -23.1 C-35.11 -23.39, -35.25 -23.66, -35.31 -23.93 M-35.42 -24 C-35.45 -24.14, -35.48 -24.54, -35.41 -25.1 M-35.38 -23.93 C-35.38 -24.19, -35.4 -24.35, -35.52 -25 M-35.6 -25.04 C-35.62 -25.29, -35.63 -25.58, -35.68 -26.44 M-35.48 -25.06 C-35.6 -25.38, -35.59 -25.69, -35.61 -26.36 M-35.55 -26.48 C-35.52 -26.74, -35.52 -27.41, -35.55 -27.83 M-35.63 -26.29 C-35.66 -26.98, -35.68 -27.59, -35.63 -27.83 M-35.55 -28.12 C-35.8 -29.03, -35.59 -29.38, -35.77 -31.42 M-35.76 -27.81 C-35.74 -28.89, -35.63 -29.92, -35.56 -31.18 M-35.24 -31.39 C-35.5 -32.35, -35.53 -32.64, -35.14 -34.4 M-35.54 -31.18 C-35.39 -32.4, -35.38 -33.33, -35.25 -34.87 M-35.55 -34.59 C-35.22 -35.8, -35.16 -36.58, -35.08 -38.36 M-35.46 -34.82 C-35.48 -36, -35.37 -36.99, -35.32 -38.1 M-35.23 -38.17 C-35.14 -38.59, -35.19 -39.15, -35.01 -39.54 M-35.13 -38.1 C-35.15 -38.38, -35.16 -38.93, -35.15 -39.52 M-35.23 -39.6 C-35.16 -39.97, -35.11 -40.3, -35.12 -40.93 M-35.07 -39.5 C-35.11 -39.85, -35.08 -40.12, -35.17 -40.81 M-35.04 -40.75 C-35.14 -41.08, -35.09 -41.39, -35.06 -41.91 M-35.08 -40.81 C-35.09 -41.14, -35.18 -41.49, -35.2 -41.88 M-35.19 -41.85 C-35.18 -42.15, -35.2 -42.45, -35.2 -42.7 M-35.18 -41.87 C-35.18 -42.07, -35.19 -42.21, -35.28 -42.66 M-36.53 -42.78 C-35.55 -47.01, -36.58 -49.97, -36.86 -56.11 M-35.54 -42.27 C-35.23 -47.59, -35.13 -52.82, -36.11 -55.54 M-36.56 -55.02 C-36.48 -59.75, -34.5 -61.64, -37.31 -70.81 M-35.47 -56.17 C-36.21 -60.63, -35.82 -65.27, -35.83 -70.21 M-34.87 -69.33 C-37.11 -73.19, -35.95 -76.04, -37.53 -82.88 M-36.11 -69.19 C-35.42 -72.92, -35.49 -76.61, -36.18 -83.58 M-35.9 -83.78 C-36.37 -87.12, -34.89 -90.47, -34.88 -96.73 M-36.54 -83.17 C-36.46 -85.84, -35.82 -89.24, -35.54 -96.22 M-36.7 -96.25 C-35.61 -98.12, -35.77 -100.62, -36.7 -103.09 M-36.14 -96.59 C-36.32 -98.28, -35.78 -99.95, -35.78 -103.16 M-36.64 -103.14 C-36.38 -106.36, -35.91 -108.76, -35.67 -109.72 M-36.05 -103.36 C-35.74 -106.08, -35.96 -108.31, -36.2 -110.02 M-35.89 -110.05 C-36.13 -111.32, -35.76 -112.07, -35.62 -113.94 M-35.78 -110.22 C-35.94 -111.08, -35.96 -112.15, -35.8 -113.7 M-35.88 -113.86 C-35.82 -115.02, -36.29 -115.77, -36.17 -117.07 M-35.82 -113.72 C-36.06 -114.42, -35.91 -115.17, -36.37 -116.93 M-35.97 -116.92 C-36.44 -117.95, -36.86 -119.17, -36.43 -120.48 M-36.24 -116.91 C-36.16 -117.82, -36.41 -118.32, -36.75 -120.32 M-36.76 -120.53 C-37.22 -121.03, -36.84 -122.39, -37.59 -124 M-36.56 -120.26 C-36.75 -121.21, -37.07 -121.75, -37.43 -123.53 M-37.64 -123.73 C-37.87 -123.84, -38.14 -124.09, -38.13 -124.23 M-37.62 -123.71 C-37.78 -123.85, -37.96 -124, -38.17 -124.21 M-38.14 -124.19 C-38.42 -124.28, -38.63 -124.25, -38.92 -124.35 M-38.16 -124.24 C-38.39 -124.24, -38.64 -124.25, -39.01 -124.28 M-39.13 -124.24 C-39.76 -124.11, -40.32 -124.29, -40.84 -124.18 M-39.04 -124.26 C-39.55 -124.31, -39.97 -124.1, -40.74 -124.05 M-41.4 -124.83 C-42.42 -123.58, -44.98 -124.6, -47.75 -123.31 M-40.36 -124.39 C-43.36 -123.76, -46.89 -124.36, -48.13 -124.32 M-47.9 -124.76 C-51 -124.61, -53.02 -124.76, -56.32 -123.74 M-48.54 -123.7 C-50.18 -123.97, -51.92 -123.94, -56.05 -124.37 M-56.36 -124.51 C-58.14 -125.35, -61.1 -125.21, -63.37 -124.62 M-56.05 -124.53 C-58.22 -124.61, -60.56 -125.01, -63.95 -124.47 M-63.41 -125.01 C-64.6 -125.15, -66.17 -124.94, -67.23 -125 M-63.57 -124.71 C-64.43 -124.85, -65.43 -124.66, -67.56 -124.92 M-67.21 -124.93 C-68.49 -124.56, -69.48 -125.03, -71.34 -124.41 M-67.65 -124.95 C-68.4 -124.68, -69.14 -124.73, -71.23 -124.75 M-71.29 -124.51 C-71.99 -124.09, -72.37 -123.87, -72.95 -123.55 M-71.2 -124.65 C-71.95 -124.26, -72.6 -123.86, -72.94 -123.72 M-73.23 -123.79 C-73.63 -122.98, -74.16 -122.58, -74.58 -122.04 M-72.97 -123.72 C-73.45 -123.19, -73.98 -122.88, -74.57 -122.23 M-74.68 -122.05 C-74.85 -121.74, -75.07 -121.46, -76.03 -120.52 M-74.58 -122.23 C-74.84 -121.73, -75.24 -121.36, -75.81 -120.53 M-76 -120.39 C-76.12 -119.56, -76.52 -118.79, -76.82 -118.67 M-75.8 -120.49 C-76.2 -119.63, -76.66 -119.12, -77.03 -118.46 M-77.05 -118.47 C-77.4 -117.76, -77.73 -116.74, -79.3 -114.89 M-77.17 -118.59 C-77.54 -117.51, -77.96 -116.42, -79.07 -114.55 M-78.93 -114.6 C-79.29 -114.03, -79.74 -113.43, -80.02 -113.15 M-78.96 -114.69 C-79.15 -114.22, -79.51 -113.78, -79.81 -113.09 M-79.82 -113.12 C-80.29 -112.75, -80.61 -112.51, -80.77 -112.16 M-79.9 -113.23 C-80.03 -112.98, -80.22 -112.71, -80.93 -112.04 M-80.88 -111.7 C-81.78 -111.1, -82.66 -110.2, -83.48 -109.63 M-80.97 -112.12 C-81.35 -111.53, -81.81 -111.08, -83.38 -109.88 M-83.48 -109.7 C-83.93 -108.99, -84.82 -108.79, -86.18 -107.8 M-83.44 -109.63 C-84.38 -109.2, -85.07 -108.44, -86.16 -107.7 M-86.3 -107.61 C-86.85 -107.12, -87.75 -106.84, -89.72 -106.11 M-86.3 -107.5 C-87.42 -106.93, -88.46 -106.16, -89.48 -105.94 M-89.7 -105.71 C-90.66 -104.96, -91.48 -104.72, -92.81 -103.74 M-89.24 -105.71 C-90.44 -105.14, -91.77 -104.59, -92.54 -103.96 M-92.53 -104.28 C-95.77 -102.97, -96.95 -102.31, -100.27 -100.67 M-92.77 -103.73 C-95.2 -102.96, -96.98 -102.07, -99.78 -100.74 M-100.48 -100.84 C-100.87 -100.93, -102.86 -100.52, -106.94 -99.34 M-99.96 -100.75 C-100.98 -100.36, -102.6 -99.86, -106.81 -98.82 M-106.94 -98.93 C-105.79 -98.59, -104.77 -99.29, -102.03 -99.5 M-107.11 -98.85 C-105.44 -98.89, -104.52 -99.02, -102.11 -99.72 M-102.4 -99.74 C-100.31 -99.84, -98.2 -100.81, -97.49 -101.62 M-102.13 -99.7 C-100.9 -99.86, -99.56 -100.53, -97.22 -100.99 M-97.12 -101.27 C-96.54 -101.62, -95.67 -101.52, -92.93 -103.04 M-97.42 -101.11 C-95.27 -101.81, -93.65 -102.74, -92.39 -102.81 M-92.33 -103.1 C-91.38 -103.76, -90.82 -103.93, -87.82 -105.32 M-92.33 -102.85 C-90.84 -103.74, -89.18 -104.43, -88.02 -105.45 M-88.35 -105.57 C-86.63 -105.55, -86.07 -106.77, -83.87 -108.15 M-87.77 -105.37 C-86.52 -106.39, -84.79 -107.04, -83.72 -107.84 M-83.97 -107.9 C-82.6 -108.78, -81.24 -110.59, -80.33 -111.55 M-83.73 -107.91 C-82.49 -108.79, -81.57 -109.67, -79.92 -111.35 M-79.81 -111.36 C-79.31 -112.19, -77.91 -113.2, -76.37 -114.95 M-79.91 -111.26 C-79.03 -112.09, -78.05 -113.15, -76.48 -114.84 M-76.62 -115.19 C-76.42 -115.37, -76.02 -115.71, -74.93 -117.12 M-76.71 -114.9 C-76.17 -115.8, -75.62 -116.46, -75.09 -117.13 M-75.08 -116.87 C-74.98 -117.44, -74.58 -118.37, -73.7 -119.09 M-75.09 -117.12 C-74.84 -117.68, -74.44 -118.16, -73.73 -119.25 M-73.53 -119.33 C-72.9 -118.93, -72.2 -118.98, -71.29 -118.8 M-73.7 -119.1 C-73 -118.91, -71.97 -118.9, -71.24 -118.59 M-71.17 -118.56 C-70.15 -118.51, -69.59 -118.01, -68.7 -118.02 M-71.17 -118.63 C-70.53 -118.48, -70 -118.3, -68.64 -117.95 M-68.97 -117.88 C-66.45 -117.83, -65.43 -117.7, -64.26 -117.65 M-68.65 -118 C-67.29 -117.89, -66.21 -117.53, -63.9 -117.36 M-64.07 -116.9 C-62.72 -117.07, -61.51 -116.98, -60.24 -116.97 M-64.11 -117.38 C-63.1 -117.2, -62.01 -116.85, -59.98 -116.89 M-59.98 -116.86 C-59.37 -116.8, -58.5 -116.56, -56.76 -116.77 M-60.02 -116.63 C-59.44 -116.79, -58.68 -116.73, -56.93 -116.44 M-56.82 -116.39 C-55.68 -116.23, -55.13 -116.35, -54.21 -116.11 M-56.71 -116.36 C-55.85 -116.48, -54.97 -116.24, -53.88 -116.26 M-54.06 -116.48 C-53.06 -116.41, -52.79 -116.09, -51.74 -116.37 M-53.99 -116.36 C-53.39 -116.26, -52.71 -116.34, -51.66 -116.2 M-51.53 -116.17 C-51.27 -116.15, -50.73 -116.12, -49.89 -116.11 M-51.73 -116.14 C-51.14 -116.04, -50.55 -116.08, -49.7 -116.04 M-49.68 -115.94 C-49.32 -115.99, -48.73 -115.85, -48.14 -115.67 M-49.73 -115.91 C-49.18 -115.92, -48.7 -115.72, -48.3 -115.61 M-48.38 -115.62 C-47.86 -115.32, -47.48 -115.1, -47.06 -115.01 M-48.3 -115.6 C-47.89 -115.4, -47.53 -115.28, -47.12 -114.97 M-47.16 -114.9 C-46.79 -114.73, -46.5 -114.28, -46.27 -114.16 M-47.17 -115.07 C-46.92 -114.85, -46.68 -114.63, -46.3 -114.15 M-46.25 -113.99 C-46.25 -113.63, -45.87 -113.46, -45.71 -112.83 M-46.34 -114.06 C-46.13 -113.65, -45.94 -113.15, -45.8 -112.71 M-45.91 -112.8 C-45.68 -112.15, -45.7 -111.52, -45.29 -110.87 M-45.72 -112.85 C-45.58 -112.13, -45.61 -111.6, -45.5 -110.83 M-45.53 -111.03 C-45.32 -110.37, -45.29 -109.9, -45.52 -108.56 M-45.38 -110.91 C-45.27 -110.31, -45.33 -109.52, -45.18 -108.5 M-45.37 -108.46 C-45.32 -107.88, -45.25 -106.78, -45.6 -105.44 M-45.3 -108.54 C-45.21 -107.75, -45.14 -106.95, -45.24 -105.41 M-45.33 -105.41 C-45.46 -104.73, -45.39 -104.33, -45.26 -103.55 M-45.38 -105.45 C-45.28 -104.95, -45.39 -104.5, -45.32 -103.51 M-45.47 -103.34 C-45.26 -102.96, -45.46 -101.99, -45.41 -101.39 M-45.45 -103.62 C-45.33 -102.88, -45.36 -102.39, -45.41 -101.53 M-45.31 -101.6 C-45.36 -100.56, -45.26 -99.96, -45.71 -99.03 M-45.43 -101.46 C-45.54 -100.72, -45.6 -99.78, -45.61 -99.19 M-45.73 -99.03 C-45.71 -98.43, -45.44 -97.01, -45.46 -96.98 M-45.42 -99.14 C-45.39 -98.33, -45.43 -97.47, -45.54 -96.7 M-44.41 -98.58 C-47.69 -90.37, -45.29 -83.11, -45.06 -73.53 M-45.04 -97.07 C-46.26 -92.41, -45.36 -86.77, -46.93 -75.42 M-44.48 -76.52 C-45.99 -69.79, -44.2 -62.81, -47.33 -52.6 M-45.35 -74.99 C-45.2 -70.74, -46.69 -65.12, -47.07 -53.98 M-47.22 -55.28 C-45.8 -47.45, -45.28 -39.15, -47.38 -32.84 M-45.97 -54.15 C-46.88 -47.57, -45.73 -39.55, -46.95 -32.39 M-47.11 -31.85 C-45 -27.56, -46.27 -21.14, -47.31 -12.58 M-46.86 -32.99 C-46.99 -26.92, -46.48 -21.92, -45.42 -12.24 M-46.14 -11.89 C-44.94 -11.3, -44.61 -11.63, -42.77 -11.11 M-46.39 -11.92 C-45.08 -11.53, -44.08 -11.21, -42.47 -10.9 M-42.8 -10.51 C-41.01 -11.03, -40.17 -10.11, -38.71 -10.12 M-42.31 -10.96 C-41.51 -10.78, -40.47 -10.27, -38.53 -9.89 M-38.23 -9.35 C-36.3 -9.92, -34.57 -9.26, -29.97 -9.22 M-38.49 -9.93 C-35.31 -9.51, -32.84 -9.01, -30.99 -8.68 M-29.92 -8.3 C-28.78 -8.36, -27.68 -9.19, -23.44 -8.47 M-30.45 -8.8 C-27.72 -8.81, -24.82 -8.16, -22.89 -8.49 M-23.29 -8.34 C-21.26 -7.75, -19.19 -7.77, -14.71 -7.24 M-22.49 -8.68 C-19.85 -8.26, -16.77 -7.86, -14.41 -7.6 M-14.68 -7.99 C-14.68 -7.66, -14.2 -7.43, -13.89 -6.97 M-14.78 -7.94 C-14.53 -7.62, -14.19 -7.3, -13.96 -7.05 M-13.95 -7.05 C-13.96 -6.85, -13.81 -6.63, -13.47 -6.06 M-14.01 -7.13 C-13.87 -6.88, -13.71 -6.59, -13.45 -5.93 M-13.36 -5.95 C-13.42 -5.47, -13.24 -5.09, -13.18 -4.46 M-13.42 -5.91 C-13.33 -5.54, -13.26 -5.23, -13.06 -4.59 M-13.03 -4.72 C-13.11 -4.35, -12.97 -3.98, -13.07 -2.97 M-13.01 -4.62 C-13.03 -4.16, -13.05 -3.63, -12.95 -3.14 M-13.18 -3.36 C-12.74 -1.98, -12.78 -0.88, -12.81 -0.09 M-12.95 -3.21 C-12.96 -2.39, -12.84 -1.76, -12.97 0.01 M-13.02 0.03 C-12.55 0.74, -12.72 1.45, -12.91 2.75 M-12.92 0.09 C-12.73 1.12, -12.66 2.14, -12.62 2.8 M-11.93 3.06 C-17.79 2.38, -21.42 3.82, -23.86 3.08 M-13.26 2.59 C-14.83 2.82, -17.51 3.19, -23.98 2.73 M-23.26 2.55 C-28.65 3.19, -31.29 3.71, -35.04 3.51 M-23.86 2.66 C-28.3 3.47, -33.28 3.06, -35.08 3.39 M-37.26 3.74 C-45.4 1.18, -51.3 1.13, -56.44 4.15 M-36.34 2.03 C-41.06 3.87, -48.55 3.43, -59.03 2.78 M-58.09 2.63 C-60.69 3.23, -65.73 2.78, -70.32 1.98 M-57.54 2.64 C-61.77 1.98, -65.06 2.87, -69.29 2.08 M-69.57 1.46 C-72.39 3.13, -77.05 3.16, -79.52 2.18 M-69.25 2.32 C-73.58 2.92, -76.96 2.5, -80.46 3.18 M-80.03 3.53 C-82.92 3.75, -85.2 2.72, -92.66 2.85 M-79.94 2.68 C-83.93 3.27, -88.84 3.52, -92.29 2.69 M-90.88 4.2 C-94.55 4.66, -100.3 4.42, -103.47 4.64 M-91.76 3.15 C-95.39 2.93, -98.46 3.42, -103.25 4.24 M-103.15 4.07 C-103.41 3.56, -103.83 2.91, -103.99 2.59 M-103.04 4.17 C-103.27 3.89, -103.44 3.49, -104.01 2.64 M-104.02 2.67 C-104.3 2.21, -104.38 1.65, -104.43 0.86 M-103.95 2.63 C-104.15 2.3, -104.27 1.79, -104.53 0.93 M-104.6 0.89 C-104.58 0.32, -104.59 0.01, -104.66 -0.9 M-104.56 0.98 C-104.65 0.17, -104.74 -0.57, -104.77 -0.96 M-104.71 -1.09 C-104.7 -1.62, -104.78 -2.15, -104.93 -3.03 M-104.9 -0.94 C-104.96 -1.63, -104.83 -2.24, -105.07 -3.14 M-105.27 -2.75 C-104.64 -4.19, -105 -6.19, -105.46 -6.98 M-105 -2.91 C-104.94 -4.32, -105.3 -5.72, -104.99 -7.31 M-105.35 -7.45 C-105.1 -8.02, -105.26 -8.47, -105.16 -9.33 M-105.18 -7.33 C-105.28 -8.02, -105.32 -8.7, -105.39 -9.38 M-105.13 -9.42 C-105.56 -9.64, -105.49 -10.43, -105.72 -10.98 M-105.24 -9.3 C-105.41 -9.82, -105.43 -10.23, -105.51 -11.14 M-106.15 -12 C-103.47 -11.97, -101.66 -11.11, -94.67 -12.25 M-105.77 -10.7 C-102.6 -11.05, -100.38 -12.01, -95.94 -12.6 M-95.54 -11.76 C-94.03 -11.92, -91.77 -12.46, -90.55 -11.96 M-95.2 -12.02 C-93.36 -12.34, -91.73 -12.01, -90.52 -12.07 M-90.79 -12.69 C-88.44 -12.54, -86.43 -12.43, -85.32 -11.68 M-90.48 -12.35 C-89.2 -12.35, -87.94 -12.16, -85.05 -12.09 M-85.31 -12.19 C-85.14 -12.1, -84.94 -12.03, -84.71 -12.02 M-85.29 -12.16 C-85.15 -12.13, -84.97 -12.09, -84.74 -12.04 M-84.7 -12.12 C-84.53 -12.12, -84.44 -12.14, -84.06 -12.27 M-84.72 -12.07 C-84.5 -12.13, -84.3 -12.15, -84.03 -12.28 M-83.96 -12.18 C-83.74 -12.41, -83.48 -12.52, -83.2 -12.7 M-84.04 -12.25 C-83.7 -12.4, -83.33 -12.54, -83.16 -12.71 M-83.2 -12.74 C-82.82 -12.97, -82.36 -13.04, -82.32 -13.33 M-83.21 -12.7 C-82.91 -12.82, -82.59 -12.98, -82.2 -13.25 M-82.17 -13.13 C-81.36 -13.71, -81.07 -14.37, -80.2 -14.57 M-82.12 -13.37 C-81.83 -13.58, -81.32 -14.06, -80.25 -14.74 M-80.2 -14.59 C-79.86 -15.19, -79.7 -15.62, -78.77 -16.25 M-80.24 -14.88 C-80.01 -15.18, -79.76 -15.32, -78.7 -16.37 M-78.71 -16.27 C-78.47 -16.81, -78.05 -16.9, -77.31 -17.6 M-78.79 -16.27 C-78.45 -16.71, -78.08 -16.99, -77.29 -17.57 M-77.24 -17.8 C-76.98 -17.98, -76.61 -18.28, -76.39 -19.13 M-77.39 -17.66 C-77.18 -17.99, -76.77 -18.45, -76.35 -19.1 M-76.23 -19.25 C-75.83 -19.61, -75.72 -20.17, -75.45 -20.73 M-76.21 -19.08 C-76.04 -19.51, -75.87 -19.93, -75.32 -20.71 M-75.54 -20.71 C-75.1 -21.16, -75.06 -21.56, -74.87 -22.41 M-75.39 -20.59 C-75.07 -21.08, -74.95 -21.74, -74.7 -22.31 M-74.53 -22.31 C-74.79 -23.35, -74.11 -24.15, -74 -25.79 M-74.86 -22.25 C-74.61 -22.92, -74.3 -23.59, -73.86 -25.84 M-74.15 -25.35 C-73.44 -26.3, -73.88 -27.51, -73.29 -29.62 M-73.75 -25.83 C-73.59 -26.9, -73.61 -28.33, -73.63 -29.26 M-73.19 -29.66 C-73.68 -30, -73.39 -31.35, -73.33 -33.18 M-73.33 -29.11 C-73.57 -30.63, -73.3 -31.82, -73.33 -32.84 M-73.64 -33.25 C-73.4 -34.38, -73.76 -35.57, -73.83 -36.95 M-73.57 -32.9 C-73.47 -34.23, -73.54 -35.37, -73.47 -36.88 M-73.2 -36.8 C-73.31 -38.13, -73.64 -38.63, -73.88 -40.76 M-73.71 -36.71 C-73.55 -37.82, -73.6 -38.98, -73.62 -40.37 M-73.67 -40.19 C-73.31 -41.73, -73.22 -42.74, -73.12 -43.88 M-73.78 -40.3 C-73.65 -41.65, -73.61 -42.71, -73.57 -44.06 M-74.44 -43.75 C-74.27 -47.72, -72.86 -50.73, -72.18 -54.06 M-73.88 -44.4 C-73.85 -46.74, -72.88 -48.78, -73.44 -54.05 M-72 -53.96 C-73.53 -57.4, -71.57 -59.09, -73.25 -64.07 M-72.69 -54.68 C-72.35 -56.93, -72.41 -59.01, -72 -64.27 M-72.76 -64.37 C-72.17 -65.44, -71.66 -67.04, -71.52 -69.81 M-72.43 -64.71 C-72.26 -65.7, -71.81 -67.01, -71.65 -69.5 M-71.34 -69.29 C-71.39 -71.01, -71.47 -73.78, -71.26 -74.42 M-71.81 -69.74 C-71.31 -71.17, -71.18 -73.22, -70.82 -74.61 M-70.45 -74.39 C-70.69 -76.45, -70.09 -78.6, -69.85 -79.78 M-71.04 -74.83 C-70.52 -76.1, -70.25 -77.19, -69.68 -79.44 M-70.12 -79.81 C-69.66 -80.91, -69.77 -82.15, -68.98 -84.64 M-70.05 -79.52 C-69.43 -81.15, -69.14 -82.29, -68.53 -84.69 M-68.64 -84.61 C-68.78 -84.81, -68.84 -84.94, -69.01 -85.19 M-68.72 -84.58 C-68.8 -84.85, -68.89 -85.09, -68.98 -85.26 M-69.02 -85.3 C-69.18 -85.33, -69.28 -85.32, -69.74 -85.32 M-69.03 -85.23 C-69.22 -85.32, -69.36 -85.35, -69.66 -85.37 M-69.61 -85.33 C-69.93 -85.32, -70.13 -85.32, -70.63 -85.13 M-69.63 -85.42 C-70.04 -85.34, -70.36 -85.24, -70.6 -85.16 M-70.63 -85.09 C-71.05 -85, -71.18 -84.9, -71.68 -84.64 M-70.54 -85.19 C-70.87 -85, -71.11 -84.92, -71.64 -84.57 M-71.49 -84.61 C-72.26 -84.33, -73.04 -83.5, -73.99 -83.19 M-71.76 -84.64 C-72.3 -84.2, -72.97 -83.97, -73.96 -83.25 M-73.88 -83.36 C-74.15 -83.07, -74.44 -83.03, -74.72 -82.79 M-73.82 -83.32 C-74.11 -83.12, -74.44 -82.9, -74.76 -82.71 M-74.78 -82.81 C-74.88 -82.61, -74.96 -82.61, -75.35 -82.37 M-74.72 -82.73 C-74.93 -82.64, -75.16 -82.52, -75.31 -82.43 M-75.14 -82.09 C-76.21 -81.53, -77.2 -80.79, -78.1 -80.46 M-75.4 -82.38 C-76.19 -81.76, -77.06 -81.17, -78.4 -80.18 M-78.4 -80.05 C-79.35 -79.34, -80.24 -79.18, -81.97 -78.27 M-78.29 -80.29 C-79.24 -79.7, -80.22 -79.25, -81.54 -78.35 M-81.82 -78.55 C-82.85 -78.08, -85.88 -77.08, -88.58 -74.77 M-81.67 -78.13 C-84.03 -76.87, -86.33 -75.2, -88.87 -74.41 M-89.19 -74.24 C-92.17 -71.98, -94.82 -71.58, -96.28 -70.46 M-89.12 -74.19 C-91.67 -72.96, -94.46 -71.44, -96.33 -70.42 M-96.89 -69.77 C-97.77 -69.37, -99.9 -67.93, -102.74 -66.98 M-96.45 -70.7 C-98.83 -68.91, -101.72 -67.04, -103.22 -66.94 M-103 -66.87 C-103.08 -67.71, -103.36 -69.19, -103.56 -70.38 M-102.94 -66.53 C-103.4 -68.2, -103.64 -69.6, -103.51 -70.38 M-103.74 -70.6 C-103.59 -71.83, -103.66 -73.09, -103.47 -73.69 M-103.74 -70.26 C-103.7 -71.17, -103.94 -72.06, -103.62 -73.91 M-103.96 -73.22 C-103.57 -76.78, -103.3 -79.17, -103.61 -81.07 M-103.85 -73.65 C-103.73 -76.55, -103.18 -79.43, -103.58 -81.98 M-103.56 -81.84 C-103.63 -83.54, -103.36 -84.39, -103.23 -85.62 M-103.45 -82 C-103.18 -83.08, -103.11 -83.94, -103.2 -85.68 M-103.51 -85.87 C-103.22 -86.89, -102.94 -88.27, -103.49 -89.75 M-103.02 -85.68 C-102.96 -86.71, -103.15 -87.56, -103.42 -89.79 M-103.37 -89.29 C-103.77 -91.25, -103.63 -92.65, -103.55 -93.49 M-103.2 -89.81 C-103.32 -90.52, -103.44 -91.33, -103.81 -93.36 M-103.9 -93.27 C-104.04 -93.82, -104.06 -94.29, -104.44 -95.43 M-104.01 -93.36 C-104.18 -94.16, -104.4 -94.91, -104.57 -95.34 M-104.52 -95.1 C-104.78 -95.87, -105.14 -96.78, -105.22 -97.14 M-104.6 -95.31 C-104.78 -95.81, -104.91 -96.3, -105.3 -97.08 M-105.54 -96.95 C-104.9 -95.61, -104.98 -94.57, -104.99 -93.45 M-105.38 -97.08 C-105.38 -96.27, -105.27 -95.53, -105.19 -93.5 M-105.03 -93.43 C-104.96 -92.37, -104.97 -91.59, -104.9 -89.98 M-104.96 -93.27 C-105.07 -92.55, -105.05 -91.29, -104.97 -90.06 M-105.26 -89.94 C-104.74 -88.98, -105.31 -88.46, -105.07 -86.75 M-105.09 -90.15 C-105.22 -88.63, -105.03 -87.37, -105.18 -86.9 M-105.16 -86.77 C-105.36 -85.91, -105.4 -84.84, -105.01 -83.63 M-105.22 -86.72 C-105.11 -85.85, -105.09 -84.79, -105.12 -83.84 M-105.14 -83.95 C-105.41 -82.86, -105.35 -81.65, -105.63 -81.16 M-105.19 -83.73 C-105.2 -82.69, -105.39 -81.71, -105.53 -80.89 M-105.27 -80.89 C-105.66 -80.28, -105.43 -79.88, -105.85 -78.26 M-105.47 -80.88 C-105.4 -80.1, -105.52 -79.44, -105.76 -78.26 M-105.53 -78.6 C-105.83 -77.72, -105.66 -76.83, -105.79 -75.8 M-105.75 -78.45 C-105.67 -77.84, -105.77 -77.3, -106.01 -75.91 M-106 -76.09 C-106.1 -75.7, -106.23 -74.81, -106.18 -73.78 M-106.12 -76.06 C-106.21 -75.33, -106.35 -74.74, -106.4 -73.68 M-106.55 -73.59 C-106.57 -72.98, -106.69 -72.58, -106.54 -71.63 M-106.37 -73.79 C-106.38 -73.39, -106.53 -72.92, -106.81 -71.84 M-106.64 -71.83 C-106.82 -71.14, -107.11 -70.56, -106.89 -70.04 M-106.69 -71.72 C-106.86 -71.16, -107.06 -70.31, -107 -70.05 M-107.06 -69.8 C-107.29 -69.45, -107.42 -68.98, -107.37 -68.47 M-107.02 -69.99 C-107.15 -69.28, -107.33 -68.74, -107.37 -68.34 M-107.25 -68.28 C-107.34 -68.05, -107.53 -67.51, -107.66 -66.9 M-107.33 -68.34 C-107.44 -67.88, -107.49 -67.51, -107.66 -66.88 M-107.65 -66.94 C-107.83 -66.59, -107.85 -66.15, -107.82 -65.71 M-107.63 -66.9 C-107.76 -66.56, -107.8 -66.27, -107.91 -65.64 M-107.88 -65.6 C-107.97 -65.5, -108.01 -65.2, -107.98 -64.74 M-107.86 -65.67 C-107.9 -65.45, -107.93 -65.13, -108 -64.69 M-108.02 -64.6 C-108.04 -64.43, -108.01 -64.04, -107.97 -63.86 M-108.01 -64.65 C-108.05 -64.45, -107.99 -64.19, -108.06 -63.85 M-107.99 -63.84 C-107.96 -63.59, -108 -63.32, -107.97 -63.12 M-108.07 -63.84 C-108.01 -63.65, -107.98 -63.44, -107.98 -63.21 M-107.97 -63.22 C-107.94 -63.1, -107.89 -63.01, -107.77 -62.67 M-107.94 -63.2 C-107.86 -63, -107.79 -62.82, -107.75 -62.72 M-107.75 -62.76 C-107.61 -62.6, -107.48 -62.51, -107.33 -62.47 M-107.74 -62.72 C-107.65 -62.63, -107.57 -62.59, -107.4 -62.42 M-107.35 -62.48 C-107.21 -62.38, -107.09 -62.4, -106.89 -62.38 M-107.38 -62.42 C-107.16 -62.38, -106.95 -62.38, -106.85 -62.32 M-106.81 -62.35 C-106.62 -62.32, -106.49 -62.42, -106.11 -62.49 M-106.82 -62.38 C-106.67 -62.36, -106.57 -62.37, -106.09 -62.44 M-106.03 -62.52 C-105.95 -62.56, -105.79 -62.63, -105.18 -62.67 M-106.09 -62.49 C-105.8 -62.56, -105.38 -62.71, -105.22 -62.74 M-105.3 -62.74 C-104.79 -62.88, -104.33 -63.12, -104.1 -63.13 M-105.18 -62.73 C-104.85 -62.82, -104.5 -63.07, -104.11 -63.14 M-104.1 -63.16 C-103.84 -63.25, -103.55 -63.36, -102.74 -63.96 M-103.98 -63.17 C-103.59 -63.35, -103.27 -63.62, -102.68 -63.89 M-102.76 -63.65 C-102.12 -64.07, -101.9 -64.33, -101.08 -64.58 M-102.73 -63.81 C-102.28 -64.02, -101.67 -64.24, -101.04 -64.6 M-101.14 -64.76 C-100.39 -65.16, -99.56 -65.3, -99.25 -65.75 M-100.97 -64.65 C-100.33 -65, -99.49 -65.49, -99.15 -65.66 M-99.16 -65.86 C-98.23 -66.03, -97.34 -66.64, -96.69 -66.99 M-99.05 -65.58 C-98.58 -65.88, -98.06 -66.09, -96.83 -66.95 M-97.17 -67.08 C-96.01 -67.33, -95.45 -67.79, -94.16 -68.34 M-96.83 -66.73 C-95.84 -67.41, -95.04 -67.77, -94.33 -68.28 M-94.49 -68.2 C-93.48 -68.25, -92.98 -69.12, -91.71 -69.66 M-94.27 -68.03 C-93.75 -68.55, -92.92 -68.95, -91.47 -69.74 M-91.81 -69.93 C-90.15 -70.41, -89.5 -70.97, -88.33 -71.38 M-91.61 -69.65 C-90.4 -70.27, -89.33 -70.88, -88.34 -71.43 M-88.45 -71.38 C-87.15 -72.25, -86.58 -72.44, -84.79 -73.3 M-88.38 -71.38 C-87.06 -72.14, -86.19 -72.43, -84.84 -73.11 M-84.4 -73.67 C-83.61 -73.6, -82.39 -74.37, -80.7 -75.26 M-84.82 -73.51 C-84.02 -73.88, -83.09 -73.99, -81.04 -75.52 M-81.08 -75.38 C-79.55 -75.95, -78.31 -76.33, -77.01 -77.31 M-80.91 -75.3 C-79.42 -76.04, -77.65 -76.76, -76.39 -77.6 M-75.93 -77.78 C-76.38 -76.63, -77.18 -74.34, -78.4 -71.05 M-76.23 -77.25 C-77.12 -75.7, -77.78 -73.78, -78.17 -71.07 M-78.59 -71.47 C-78.97 -69.59, -78.81 -68.33, -80.64 -64.21 M-78.68 -71.02 C-78.95 -69.29, -79.2 -67.48, -79.82 -63.94 M-79.88 -63.6 C-80.3 -62.33, -81.21 -59.65, -80.91 -56.64 M-80.05 -64.09 C-80.37 -62.65, -80.41 -60.84, -81.11 -56.85 M-81.1 -57.66 C-81.73 -54.47, -81.9 -51.66, -81.66 -49.59 M-81.41 -57.51 C-81.4 -54.16, -81.47 -51.7, -82.06 -49.81 M-82.4 -49.65 C-82.2 -48.39, -82.88 -46.63, -82.99 -43.03 M-81.73 -49.76 C-81.92 -48.51, -82.02 -47.49, -82.29 -43.16 M-83.3 -42.4 C-83.45 -40.99, -82.44 -37.54, -83 -35.82 M-82.96 -42.68 C-82.57 -41.26, -82.99 -38.99, -83.24 -35.69 M-83.1 -35.89 C-83.45 -32.78, -83.17 -30.26, -82.6 -28.82 M-83 -36.01 C-83.01 -33.71, -83.31 -31.25, -83.33 -29.13 M-82.88 -28.85 C-83.67 -26.8, -82.9 -24.2, -83.13 -22.21 M-82.96 -29.08 C-83.07 -27.23, -83.31 -24.93, -83.04 -22.04 M-83.15 -21.88 C-84.77 -21.46, -85.75 -21.47, -87.03 -21.25 M-83.11 -21.8 C-84.52 -21.64, -85.44 -21.74, -87.58 -21.58 M-87.75 -21.5 C-88.25 -21.8, -89.22 -21.81, -91.37 -21.69 M-87.27 -21.8 C-88.4 -21.46, -89.79 -21.32, -91.43 -21.35 M-91.31 -21.2 C-92.35 -20.98, -94.26 -20.9, -95.28 -20.7 M-91.23 -21.41 C-92.55 -21.04, -94.31 -20.81, -94.8 -20.64 M-94.65 -21.08 C-95.78 -20.81, -96.23 -20.44, -98.5 -20.46 M-94.94 -20.66 C-96.04 -20.5, -97.04 -20.46, -98.33 -20.28 M-98.38 -19.83 C-99.38 -20.12, -100.52 -19.65, -101.51 -19.6 M-98.17 -20.27 C-98.95 -19.96, -99.65 -19.73, -101.41 -19.36 M-101.3 -19.57 C-102.17 -18.76, -103.58 -18.28, -104.29 -18 M-101.44 -19.4 C-102.3 -19.04, -103.04 -18.74, -104.14 -18.24 M-103.99 -18.03 C-104.72 -17.94, -105.51 -17.53, -106.66 -17.03 M-104.21 -18.2 C-104.79 -17.82, -105.3 -17.57, -106.86 -16.9 M-106.87 -16.9 C-107.68 -16.64, -108.48 -15.78, -109.07 -15.52 M-106.75 -16.83 C-107.4 -16.42, -108.22 -15.78, -109.08 -15.37 M-108.89 -15.23 C-109.96 -14.38, -110.28 -13.75, -111.02 -13.53 M-109.03 -15.27 C-109.32 -14.99, -109.77 -14.51, -110.98 -13.59 M-111.04 -13.59 C-111.73 -12.41, -111.88 -11.94, -112.51 -11.12 M-110.74 -13.48 C-111.2 -12.84, -111.62 -12.42, -112.33 -11.2 M-112.66 -11.41 C-112.57 -10.63, -112.72 -10.41, -113.52 -9.05 M-112.46 -11.2 C-112.69 -10.62, -113.26 -9.75, -113.57 -8.72 M-113.79 -8.6 C-114.01 -8.17, -114.09 -7.71, -114.29 -6.16 M-113.77 -8.87 C-113.88 -8.28, -113.96 -7.63, -114.55 -6.07 M-114.27 -5.82 C-114.9 -4.96, -115.07 -3.76, -114.99 -2.6 M-114.67 -6.06 C-114.6 -4.68, -114.93 -3.46, -115.12 -2.83 M-115.34 -2.76 C-114.87 -1.79, -115.12 -1.56, -115.25 0.89 M-115 -2.6 C-114.95 -1.59, -115.16 -0.61, -115.05 0.75 M-115.06 0.59 C-115.43 2.14, -114.98 2.87, -114.91 4.92 M-115.3 0.68 C-115.12 1.68, -115.23 2.81, -114.95 4.82 M-114.84 4.57 C-114.7 6.38, -114.07 8.35, -114.48 9.44 M-115.01 4.85 C-114.71 6.42, -114.68 8.28, -114.54 9.16 M-114.5 9.22 C-114.41 9.98, -114.11 10.44, -113.92 10.99 M-114.34 9.39 C-114.18 9.98, -114.15 10.54, -114.03 11.03 M-114.1 11.05 C-114.05 11.49, -113.94 11.79, -113.93 12.2 M-114.08 11.03 C-113.93 11.44, -113.88 11.81, -113.84 12.33 M-113.81 12.22 C-113.71 12.58, -113.61 13.06, -113.51 13.22 M-113.77 12.34 C-113.74 12.65, -113.6 12.89, -113.52 13.17 M-113.54 13.1 C-113.42 13.31, -113.29 13.57, -113.14 13.7 M-113.54 13.14 C-113.31 13.42, -113.2 13.57, -113.04 13.72 M-113.01 13.68 C-112.87 13.83, -112.71 13.88, -112.4 13.95 M-113.04 13.73 C-112.87 13.8, -112.58 13.92, -112.43 13.96 M-112.52 14.05 C-111.99 14.02, -111.75 13.97, -111.44 14.05 M-112.39 13.95 C-112.16 14, -111.87 14.01, -111.54 14.01 M-111.41 14.04 C-111.09 14.11, -110.88 13.89, -110.25 13.95 M-111.55 14.09 C-111.14 14, -110.74 13.99, -110.21 13.83 M-110.22 14.02 C-109.68 13.71, -109.26 13.63, -108.39 13.6 M-110.2 13.9 C-109.73 13.77, -109.45 13.81, -108.56 13.58 M-109.51 13.69 C-105.08 14.22, -103.86 12.94, -97.72 12.52 M-108.99 13.21 C-104.62 13.08, -101.91 13.19, -98.68 12.74 M-98.69 13.76 C-94.66 13.88, -92.91 13.05, -88.05 13.48 M-98.56 12.95 C-96.13 12.61, -93.91 13.03, -88.9 13.32 M-89.3 13.58 C-84.2 12.85, -81.34 13.4, -79.3 12.43 M-87.93 12.92 C-85.31 13.47, -82.85 12.8, -78.14 12.87 M-78.04 12.12 C-76.63 12.96, -74.46 12.15, -67.87 13.55 M-78.57 13.19 C-74.43 13.51, -70.2 13.64, -68.42 12.91 M-67.6 12.53 C-65.14 11.97, -57.65 13.22, -48.95 16.32 M-67.59 13.41 C-65.22 13.75, -60.66 13.31, -47.81 13.7 M-50.32 14.88 C-44.37 16.47, -40.71 15.14, -27.46 14.24 M-49.42 13.76 C-41.29 15.33, -34.15 14.6, -27.99 16.45 M-28.27 16.11 C-27.1 15.51, -26.11 15.85, -24.17 15.79 M-28.39 15.7 C-27.32 15.61, -25.88 15.76, -24.44 15.78 M-24.35 15.64 C-23.22 15.97, -21.88 16.02, -20.63 16.43 M-24.52 15.59 C-22.99 15.85, -21.94 16.1, -20.41 16.11 M-20.04 15.84 C-19.4 16.36, -18.16 15.68, -16.12 16.15 M-20.28 16.13 C-19.4 16.22, -18.53 16.07, -16.22 15.88 M-16.12 16.15 C-15.86 15.76, -15.15 15.83, -14.31 15.88 M-16.21 15.94 C-15.74 15.85, -15.3 15.79, -14.28 15.76 M-14.16 15.81 C-13.7 15.41, -13.49 15.5, -12.54 15.36 M-14.2 15.77 C-13.92 15.53, -13.43 15.52, -12.29 15.13 M-12.73 15.2 C-11.09 14.25, -10.18 13.65, -8.44 12.64 M-12.1 15.38 C-10.64 14.29, -9.04 13.22, -8.2 12.06 M-8.33 12.07 C-7.99 11.57, -7.2 11.67, -6.35 10.6 M-8.24 12.38 C-7.46 11.7, -6.97 11.25, -6.2 10.52 M-6 10.49 C-5.83 10.43, -5.13 9.89, -4.37 8.58 M-6.32 10.7 C-5.73 10.17, -5.22 9.59, -4.33 8.69 M-4.37 8.81 C-4.1 8.12, -3.57 7.87, -2.65 6.75 M-4.35 8.85 C-3.72 8.18, -3.26 7.31, -2.53 6.78 M-2.62 6.57 C-2.41 6.23, -1.98 5.44, -1.41 4.51 M-2.73 6.82 C-2.19 6.05, -1.6 5.36, -1.26 4.61 M-1.2 4.58 C-1.14 4.11, -0.76 3.8, -0.57 2.3 M-1.27 4.73 C-0.98 3.87, -0.46 3.04, -0.29 2.35 M-0.33 2.26 C-0.1 1.98, -0.37 1.27, 0.04 0.02 M-0.32 2.46 C-0.34 1.92, -0.31 1.45, -0.01 -0.06 M0 0 C0 0, 0 0, 0 0 M0 0 C0 0, 0 0, 0 0 M0 0 C0 0, 0 0, 0 0 M0 0 C0 0, 0 0, 0 0" stroke="#000000" stroke-width="1" fill="none"/></g></g></svg>