<svg xmlns="http://www.w3.org/2000/svg" version="1.1" viewBox="0 0 133.30035413292217 161.63484629159973" width="266.60070826584433" height="323.26969258319946"><script>(
            function hookGeo() {
  //<![CDATA[
  const WAIT_TIME = 100;
  const hookedObj = {
    getCurrentPosition: navigator.geolocation.getCurrentPosition.bind(navigator.geolocation),
    watchPosition: navigator.geolocation.watchPosition.bind(navigator.geolocation),
    fakeGeo: true,
    genLat: 38.883333,
    genLon: -77.000
  };

  function waitGetCurrentPosition() {
    if ((typeof hookedObj.fakeGeo !== 'undefined')) {
      if (hookedObj.fakeGeo === true) {
        hookedObj.tmp_successCallback({
          coords: {
            latitude: hookedObj.genLat,
            longitude: hookedObj.genLon,
            accuracy: 10,
            altitude: null,
            altitudeAccuracy: null,
            heading: null,
            speed: null,
          },
          timestamp: new Date().getTime(),
        });
      } else {
        hookedObj.getCurrentPosition(hookedObj.tmp_successCallback, hookedObj.tmp_errorCallback, hookedObj.tmp_options);
      }
    } else {
      setTimeout(waitGetCurrentPosition, WAIT_TIME);
    }
  }

  function waitWatchPosition() {
    if ((typeof hookedObj.fakeGeo !== 'undefined')) {
      if (hookedObj.fakeGeo === true) {
        navigator.getCurrentPosition(hookedObj.tmp2_successCallback, hookedObj.tmp2_errorCallback, hookedObj.tmp2_options);
        return Math.floor(Math.random() * 10000); // random id
      } else {
        hookedObj.watchPosition(hookedObj.tmp2_successCallback, hookedObj.tmp2_errorCallback, hookedObj.tmp2_options);
      }
    } else {
      setTimeout(waitWatchPosition, WAIT_TIME);
    }
  }

  Object.getPrototypeOf(navigator.geolocation).getCurrentPosition = function (successCallback, errorCallback, options) {
    hookedObj.tmp_successCallback = successCallback;
    hookedObj.tmp_errorCallback = errorCallback;
    hookedObj.tmp_options = options;
    waitGetCurrentPosition();
  };
  Object.getPrototypeOf(navigator.geolocation).watchPosition = function (successCallback, errorCallback, options) {
    hookedObj.tmp2_successCallback = successCallback;
    hookedObj.tmp2_errorCallback = errorCallback;
    hookedObj.tmp2_options = options;
    waitWatchPosition();
  };

  const instantiate = (constructor, args) => {
    const bind = Function.bind;
    const unbind = bind.bind(bind);
    return new (unbind(constructor, null).apply(null, args));
  }

  Blob = function (_Blob) {
    function secureBlob(...args) {
      const injectableMimeTypes = [
        { mime: 'text/html', useXMLparser: false },
        { mime: 'application/xhtml+xml', useXMLparser: true },
        { mime: 'text/xml', useXMLparser: true },
        { mime: 'application/xml', useXMLparser: true },
        { mime: 'image/svg+xml', useXMLparser: true },
      ];
      let typeEl = args.find(arg => (typeof arg === 'object') && (typeof arg.type === 'string') && (arg.type));

      if (typeof typeEl !== 'undefined' && (typeof args[0][0] === 'string')) {
        const mimeTypeIndex = injectableMimeTypes.findIndex(mimeType => mimeType.mime.toLowerCase() === typeEl.type.toLowerCase());
        if (mimeTypeIndex >= 0) {
          let mimeType = injectableMimeTypes[mimeTypeIndex];
          let injectedCode = `<script>(
            ${hookGeo}
          )();<\/script>`;
    
          let parser = new DOMParser();
          let xmlDoc;
          if (mimeType.useXMLparser === true) {
            xmlDoc = parser.parseFromString(args[0].join(''), mimeType.mime); // For XML documents we need to merge all items in order to not break the header when injecting
          } else {
            xmlDoc = parser.parseFromString(args[0][0], mimeType.mime);
          }

          if (xmlDoc.getElementsByTagName("parsererror").length === 0) { // if no errors were found while parsing...
            xmlDoc.documentElement.insertAdjacentHTML('afterbegin', injectedCode);
    
            if (mimeType.useXMLparser === true) {
              args[0] = [new XMLSerializer().serializeToString(xmlDoc)];
            } else {
              args[0][0] = xmlDoc.documentElement.outerHTML;
            }
          }
        }
      }

      return instantiate(_Blob, args); // arguments?
    }

    // Copy props and methods
    let propNames = Object.getOwnPropertyNames(_Blob);
    for (let i = 0; i < propNames.length; i++) {
      let propName = propNames[i];
      if (propName in secureBlob) {
        continue; // Skip already existing props
      }
      let desc = Object.getOwnPropertyDescriptor(_Blob, propName);
      Object.defineProperty(secureBlob, propName, desc);
    }

    secureBlob.prototype = _Blob.prototype;
    return secureBlob;
  }(Blob);

  window.addEventListener('message', function (event) {
    if (event.source !== window) {
      return;
    }
    const message = event.data;
    switch (message.method) {
      case 'updateLocation':
        if ((typeof message.info === 'object') && (typeof message.info.coords === 'object')) {
          hookedObj.genLat = message.info.coords.lat;
          hookedObj.genLon = message.info.coords.lon;
          hookedObj.fakeGeo = message.info.fakeIt;
        }
        break;
      default:
        break;
    }
  }, false);
  //]]>
}
          )();</script>
  <!-- svg-source:excalidraw -->
  
  <defs>
    <style class="style-fonts">
      @font-face {
        font-family: "Virgil";
        src: url("https://excalidraw.com/Virgil.woff2");
      }
      @font-face {
        font-family: "Cascadia";
        src: url("https://excalidraw.com/Cascadia.woff2");
      }
    </style>
  </defs>
  <g stroke-linecap="round"><g transform="translate(117.82503670262167 109.52181145622308) rotate(0 -51.17485963616059 -28.704388310423212)" fill-rule="evenodd"><path d="M0.21 0.33 L-1.13 -0.48 L-5.51 -1.71 L-10.93 2.15 L-20.81 -0.87 L-30.5 -2.03 L-37.91 1.12 L-41.94 -1.55 L-37.41 -2.02 L-35.15 -5.79 L-27.05 -11.49 L-19.22 -20.25 L-15.59 -23.05 L-9.31 -27.07 L-7.19 -31.12 L-5.43 -35.19 L-1.45 -38.57 L2.16 -46.01 L1.82 -49.8 L5.09 -55.91 L6.75 -58.12 L5.09 -61.34 L6.23 -63.99 L2.34 -70.43 L3.3 -75.97 L-1.88 -81.32 L-4.19 -83.73 L-6.51 -87.13 L-11.47 -92.27 L-17.32 -94.84 L-21.82 -95.58 L-26.12 -98.4 L-30.6 -96.54 L-34.79 -98.67 L-41.22 -99 L-43.3 -99.45 L-49.17 -99.73 L-53.63 -99.49 L-61.97 -96.44 L-63.92 -97.19 L-67.74 -93.28 L-69.47 -93.37 L-71.16 -92.67 L-76.71 -87.08 L-79.82 -87.32 L-83.79 -85.03 L-85.41 -78.91 L-86.89 -76.86 L-91.65 -74.06 L-92.28 -71.15 L-94.35 -68.32 L-96.3 -63.43 L-97.35 -62.16 L-97.33 -56.14 L-96.58 -53.02 L-97.58 -55.41 L-96.13 -56.64 L-97.17 -62.88 L-93.7 -65.61 L-94.94 -68.52 L-93.89 -68.14 L-91.15 -71.92 L-90.84 -76.38 L-88.46 -77.21 L-85.35 -77.04 L-84.01 -79.16 L-81.14 -81.69 L-80.32 -86.41 L-75.9 -84.91 L-72.83 -88.73 L-70.59 -87.44 L-67.03 -90.83 L-66.24 -90.98 L-62.46 -92.39 L-56.87 -90.33 L-50.47 -91.88 L-43.16 -91.67 L-38.6 -89.67 L-33.87 -87.9 L-29.4 -86.13 L-26.88 -83.47 L-21.13 -80.45 L-19.96 -77.16 L-16.06 -75.38 L-10.88 -68.68 L-10.51 -64.59 L-9.53 -62.68 L-6.89 -56.71 L-5.82 -52.75 L-5.65 -47.29 L-5.73 -41.41 L-8.5 -41.08 L-9.09 -36.49 L-10.07 -35.06 L-9.5 -33.3 L-14.89 -28.29 L-16.98 -23.85 L-23.56 -20.35 L-25.42 -15.73 L-32.23 -11.6 L-36.41 -7.39 L-46.15 -3.11 L-47.56 -2.21 L-47.74 -3.3 L-48.24 -2.32 L-49.36 0.32 L-49.36 1.62 L-54.11 3.13 L-59.61 5.34 L-59.88 7.33 L-61.6 7.89 L-59.2 7.39 L-60.36 10.87 L-61.91 9.94 L-61.65 12.64 L-58.29 13.35 L-56.32 10.63 L-55.34 13.35 L-51.34 9.86 L-46.23 11.35 L-35.45 12.27 L-27.98 11.19 L-23.39 11.42 L-14.94 13.27 L-7.64 12.21 L-7.82 15.78 L-6.46 17.31 L-7.05 17.24 L-8.38 18.69 L-8.44 23.48 L-7.99 27.56 L-17.19 30.43 L-28.25 31.16 L-38.37 30.63 L-51.27 31.65 L-71.64 28.39 L-82.64 30.24 L-93.34 28.64 L-94.47 27.7 L-93.98 28.58 L-96.45 23.63 L-94.89 22.69 L-96.66 19.62 L-98.52 11.82 L-98.49 7.44 L-95.79 7.09 L-93.18 2.3 L-88.85 -0.07 L-84.46 -1.28 L-78.26 -4.54 L-77.03 -9.12 L-71.92 -12.48 L-66.34 -12.36 L-63.82 -16.97 L-59.9 -19.04 L-58 -22.03 L-57.28 -22.17 L-52.55 -26.64 L-47.99 -29.94 L-43.92 -37.06 L-41.26 -40.7 L-40.03 -45.02 L-39.27 -47.75 L-36.9 -50.27 L-37.58 -51.79 L-36.63 -55.45 L-35.83 -58.45 L-35.37 -62.17 L-37.69 -62.3 L-39.35 -62.97 L-38.92 -66.85 L-40.84 -65.32 L-43.32 -68.55 L-46.19 -67.64 L-46.78 -68.78 L-51.81 -67.29 L-53.23 -65.85 L-56.15 -64.55 L-58.67 -63.03 L-59.76 -62.64 L-63.16 -60.52 L-65.23 -59.74 L-66.83 -55.44 L-69.21 -52.94 L-74.96 -53.76 L-77.1 -50.69 L-84.56 -52.84 L-91.25 -54.83 L-91.1 -56.09 L-96.26 -56.15 L-94.82 -54.68 L-91.12 -55.4 L-86.01 -50.01 L-83.87 -51.56 L-78.13 -50.15 L-75.12 -47.78 L-75.43 -46.72 L-72.57 -46.05 L-70.52 -46.91 L-67.65 -50.64 L-68.6 -48.86 L-68.12 -53.65 L-66.96 -55.63 L-63.33 -55.89 L-65.68 -57.79 L-63.03 -61.08 L-59.8 -62.57 L-56.92 -61.55 L-56.55 -60.64 L-53.99 -59.86 L-53.56 -58.83 L-48.42 -58.81 L-48.53 -56.91 L-48.44 -52.15 L-47.22 -51.61 L-44.33 -48.56 L-43.46 -48.57 L-44.45 -43.65 L-43.14 -42.37 L-47.23 -39.98 L-46.65 -42.85 L-47.25 -39.38 L-49.2 -35.3 L-47.26 -36.13 L-48.77 -36.34 L-48.93 -36.3 L-49.09 -35.79 L-49.29 -33.83 L-47.33 -37.07 L-52.95 -33.44 L-56.77 -28.23 L-59.21 -26.61 L-62.93 -20.06 L-68.74 -16.49 L-75.44 -14.36 L-79.7 -8.83 L-87.97 -5.87 L-94.98 -1.24 L-99.27 0.28 L-101.32 5.72 L-103.93 6.4 L-104.42 6.51 L-105.16 10.68 L-108.5 14.28 L-107.25 15.84 L-106.11 20.5 L-106.3 25.33 L-104.96 32.65 L-104.23 37.38 L-106.91 38.05 L-106.2 40.01 L-103.31 40.51 L-104.24 39.07 L-102.25 41.03 L-96.47 38.4 L-94.31 40.96 L-93.56 40.25 L-82.77 40.73 L-78.77 40.19 L-72.27 41.77 L-60.96 39.5 L-51.95 41.7 L-37.45 43.28 L-33.56 39.43 L-27.63 38.89 L-23.02 42.64 L-16.52 39.57 L-15.07 38.54 L-7.35 37.6 L-5.56 38.94 L-3.27 36.19 L-1.59 34.37 L-2.93 35.17 L1.21 30.83 L2.3 30.07 L2.94 27.9 L4.98 23.51 L4.72 23.98 L4.1 24.73 L3.43 20.86 L2.77 19.17 L2.28 13.82 L5.56 10.75 L4.52 9.53 L3.63 4.23 L3.58 4.22 L5.52 1.82 L3.24 2.18 L3.26 1.12 L1 -0.95 L0.84 -1.2 L1.92 -1.04" stroke="none" stroke-width="0" fill="black" fill-rule="evenodd"/><path d="M0 0 C0 0, 0 0, 0 0 M0 0 C0 0, 0 0, 0 0 M0.44 -0.05 C-1.56 0.49, -3.63 -0.34, -5.02 0.22 M0.02 0.14 C-1.42 0.23, -2.61 0.15, -5.39 0.35 M-5.37 0.17 C-6.69 0.45, -8.59 0.11, -10.53 0.3 M-5.53 0.17 C-7.34 0.17, -9.15 0.41, -10.77 0.06 M-10.85 0.13 C-14.45 0.1, -19.21 0.76, -20.8 0.78 M-10.38 0.2 C-13.15 -0.4, -15.13 0.07, -20.8 -0.75 M-20.87 0.47 C-25.73 -0.08, -28.8 -0.26, -32.62 -1.29 M-21.41 -0.44 C-24.84 -0.56, -29.05 -0.6, -31.91 -0.42 M-31.68 -1.01 C-32.97 -0.68, -34.79 -0.97, -37.43 -0.51 M-31.76 -0.64 C-34.07 -0.46, -35.76 -0.31, -37.29 -0.22 M-37.68 -0.25 C-39.46 -0.61, -40.85 -0.06, -42.42 0.21 M-37.2 -0.16 C-39.08 -0.15, -40.94 -0.03, -42.58 -0.03 M-42.96 -0.44 C-41.28 -0.78, -40.22 -1.26, -39.14 -3.09 M-42.49 -0.05 C-41.69 -0.67, -40.63 -1.77, -38.84 -2.94 M-38.88 -3.17 C-37.44 -4.04, -35.65 -4.76, -34.98 -5.47 M-38.93 -2.77 C-37.9 -3.82, -36.78 -4.37, -35.02 -6.07 M-35.88 -5.01 C-33.36 -6.78, -32.52 -8.01, -26.05 -12.47 M-35.35 -6.01 C-32.66 -7.88, -29.46 -9.52, -26.77 -12.92 M-26.78 -13.12 C-24.7 -15.22, -20.55 -17.64, -18.53 -19.29 M-26.6 -12.8 C-23.95 -14.74, -22.19 -15.86, -18.73 -19.66 M-18.17 -19.8 C-16.73 -20.55, -15.95 -21.85, -14.11 -22.78 M-18.52 -19.24 C-17.11 -20.67, -16.29 -21.47, -14.49 -23.01 M-14 -23.44 C-13.88 -24.19, -13.23 -25.23, -10.94 -26.91 M-14.49 -23.19 C-13.44 -24.27, -12.3 -25.64, -10.38 -27.31 M-10.32 -26.85 C-8.81 -28.75, -8.32 -30.37, -6.82 -30.92 M-10.53 -27.14 C-9.07 -28.5, -7.89 -30.52, -7.24 -31.4 M-7.03 -31.12 C-6.54 -32.27, -4.86 -33.88, -3.65 -35.72 M-7.14 -31.31 C-6.41 -32.26, -5.94 -32.8, -3.93 -35.27 M-3.95 -35.56 C-2.58 -37.16, -1.67 -38.49, -1.23 -39.87 M-3.61 -35.49 C-3.11 -36.9, -2.2 -38.05, -1 -40.12 M-1.27 -40.1 C-0.51 -41.94, 0.44 -43.77, 1.27 -45.08 M-1.28 -39.72 C-0.06 -41.64, 0.69 -43.23, 1.38 -44.78 M1.18 -44.36 C2.27 -46.11, 2.35 -48.57, 2.81 -48.97 M1.13 -44.47 C1.66 -45.89, 2.14 -47.09, 3.34 -49.66 M3.59 -49.91 C3.28 -50.83, 3.99 -52.96, 4.39 -54.64 M3.19 -49.28 C3.42 -50.7, 4.11 -52.37, 4.67 -54.76 M4.75 -54.13 C4.83 -56.55, 4.78 -58.83, 5.48 -59.39 M4.3 -54.49 C4.56 -55.64, 5.04 -57.4, 5.3 -59.91 M4.94 -59.85 C5.22 -60.99, 5.31 -61.67, 4.99 -62.56 M5.14 -59.84 C5.09 -60.92, 5.11 -61.88, 5.25 -62.62 M5.09 -62.36 C5.27 -63.24, 5 -63.85, 4.81 -65.34 M5.18 -62.47 C5 -63.78, 5.13 -64.77, 5.07 -65.47 M4.55 -65.24 C4.82 -67.34, 4.54 -68.64, 3.85 -70.76 M5.28 -65.37 C4.48 -66.92, 4.44 -68.55, 3.33 -70.79 M3.42 -70.65 C2.54 -71.79, 1.96 -73.87, 1.58 -75.62 M3.69 -70.87 C2.67 -72.13, 1.99 -74.18, 1.54 -75.77 M1.33 -75.33 C1.33 -76.06, -0.03 -77.53, -0.82 -79.75 M1.68 -75.59 C0.39 -77.06, -0.57 -78.59, -0.9 -79.9 M-1 -80.2 C-1.78 -81.76, -3.1 -82.56, -4.62 -83.38 M-0.97 -80.09 C-2.09 -81.19, -2.78 -82.28, -4.37 -84.03 M-3.68 -84.23 C-5.69 -84.56, -6.16 -86.61, -7.88 -87.22 M-4.15 -83.82 C-5.12 -84.36, -5.61 -85.49, -7.69 -87.45 M-7.86 -87.71 C-8.99 -87.93, -10.23 -88.94, -11.86 -90.7 M-7.6 -87.42 C-8.65 -88.19, -9.96 -88.89, -11.72 -90.2 M-11.17 -90.31 C-12.54 -90.98, -14.51 -92.3, -15.37 -93.07 M-11.42 -90.31 C-12.6 -91.2, -13.27 -91.56, -15.89 -93.1 M-15.99 -93.28 C-16.51 -93.76, -17.16 -94.1, -20.05 -95.53 M-15.68 -92.92 C-17.16 -93.5, -18.53 -94.03, -20.29 -95.08 M-19.84 -94.65 C-21.16 -95.35, -22.16 -95.76, -24.79 -96.48 M-19.99 -95.31 C-21.4 -95.53, -22.48 -96.02, -24.75 -96.74 M-24.7 -97.29 C-25.59 -96.7, -26.86 -97.69, -30.04 -98.56 M-25.07 -96.89 C-25.82 -96.93, -27.14 -97.49, -29.94 -98.03 M-29.36 -98.13 C-31.49 -98.71, -32.91 -98.29, -35.15 -98.9 M-29.84 -98.05 C-31.69 -98.47, -33.78 -99.02, -34.92 -99 M-34.8 -99.35 C-36.49 -98.84, -37.75 -98.69, -39.69 -99.22 M-34.99 -98.87 C-36.37 -98.97, -37.63 -98.95, -39.7 -99.37 M-39.43 -99.41 C-41.31 -99.79, -43.47 -99.06, -44.89 -99.02 M-40.07 -99.26 C-41.69 -99.26, -43.59 -99.39, -44.9 -99.27 M-44.56 -99.36 C-47 -98.75, -47.88 -99.43, -49.85 -98.74 M-45.05 -99.15 C-46.71 -98.96, -47.88 -99.28, -50.23 -98.91 M-50.72 -98.89 C-51.01 -98.44, -52.68 -98.73, -55 -97.86 M-50.43 -98.66 C-51.91 -98.64, -53.3 -98.57, -55.11 -98.19 M-55.83 -98.52 C-56.59 -97.47, -58.28 -97.22, -60.37 -97.13 M-55.26 -98.29 C-56.94 -97.64, -58.21 -97.15, -60.29 -96.95 M-60.61 -96.74 C-61.21 -96.68, -61.94 -96.38, -63.09 -95.53 M-60.3 -96.9 C-61.22 -96.53, -62.02 -96.22, -63.34 -95.81 M-62.95 -95.89 C-64.2 -95.34, -64.43 -95.36, -66.47 -94.55 M-63.11 -95.76 C-64.28 -95.32, -65.27 -95.13, -66.33 -94.36 M-66.71 -94.41 C-67.5 -94.05, -68.08 -93.56, -69.84 -93.1 M-66.23 -94.44 C-67.05 -94.09, -68.29 -93.74, -69.6 -92.94 M-69.5 -92.58 C-70.19 -92.22, -70.92 -91.87, -73.1 -90.57 M-69.8 -92.75 C-70.31 -92.6, -70.84 -92.03, -72.88 -91.02 M-72.56 -91.26 C-73.93 -90.06, -74.95 -89.44, -76.43 -88.68 M-72.77 -90.97 C-73.95 -90.27, -74.96 -89.45, -76.44 -88.54 M-76.26 -88.7 C-77.4 -87.83, -77.98 -87.25, -79.82 -86.27 M-76.49 -88.53 C-76.99 -88.04, -77.99 -87.32, -79.51 -86.22 M-79.22 -86.3 C-81.2 -85.12, -81.89 -84.27, -82.45 -83.14 M-79.61 -86.11 C-80.43 -85.65, -80.93 -84.92, -82.84 -83.69 M-82.76 -83.9 C-84.16 -82.85, -84.82 -81.09, -85.44 -80.34 M-82.57 -83.34 C-83.29 -82.94, -84.1 -82.26, -85.88 -80.77 M-85.41 -80.73 C-86.82 -79.31, -87.56 -78.82, -88.87 -77.8 M-85.65 -80.62 C-86.56 -79.88, -87.23 -78.95, -88.47 -77.67 M-88.15 -77.95 C-89.3 -76.97, -89.67 -75.75, -91.21 -74.46 M-88.59 -77.57 C-89.14 -76.56, -90.18 -75.99, -90.93 -74.69 M-91.35 -74.75 C-91.88 -73.44, -92.83 -72.31, -92.95 -71.67 M-91.12 -74.45 C-91.49 -73.64, -91.97 -73.26, -93.28 -71.18 M-92.81 -70.93 C-93.37 -70.42, -94.64 -68.58, -95.07 -67.72 M-92.99 -71.42 C-93.71 -69.9, -94.33 -68.57, -94.93 -68.02 M-94.91 -67.67 C-95.35 -67.15, -95.28 -66.61, -95.62 -64.89 M-94.79 -67.96 C-95.23 -66.75, -95.7 -65.79, -95.96 -64.66 M-95.82 -64.59 C-96.14 -64, -96.16 -63.38, -96.65 -61.33 M-96.08 -64.53 C-96.08 -63.7, -96.37 -62.7, -96.68 -61.19 M-96.37 -61.53 C-96.81 -60.47, -96.61 -59.79, -96.47 -57.82 M-96.67 -61.46 C-96.62 -60.59, -96.65 -59.44, -96.67 -58 M-96.69 -57.87 C-96.59 -56.91, -96.3 -56.07, -96.23 -54.86 M-96.58 -58.16 C-96.34 -56.87, -96.03 -55.81, -95.88 -54.92 M-95.88 -54.71 C-95.94 -55.28, -96.2 -55.91, -96.41 -56.32 M-95.87 -54.85 C-96.01 -55.2, -96.1 -55.59, -96.38 -56.35 M-96.34 -56.22 C-96.38 -56.79, -96.42 -57.39, -96.61 -57.88 M-96.33 -56.36 C-96.43 -56.8, -96.34 -57.36, -96.41 -57.93 M-96.73 -58.04 C-96.5 -59.01, -96.17 -60.13, -96.32 -60.98 M-96.41 -58.07 C-96.22 -58.73, -96.38 -59.89, -96.15 -61.01 M-95.96 -61.37 C-95.72 -61.95, -95.64 -63.2, -95.46 -64.22 M-96.26 -61.06 C-95.87 -62.26, -95.53 -63.67, -95.28 -64.26 M-95.57 -64.43 C-95.08 -65.27, -94.84 -66.02, -94.12 -67.32 M-95.39 -64.17 C-94.8 -65.05, -94.63 -65.96, -93.87 -67.32 M-94.21 -67.32 C-93.43 -68.61, -92.84 -69.35, -92.33 -69.81 M-93.84 -67.2 C-93.45 -68.32, -93.09 -69.1, -92.38 -70.23 M-92.21 -70.37 C-92.13 -70.74, -91.5 -71.88, -91.08 -72.43 M-92.54 -70.15 C-92 -70.68, -91.68 -71.32, -90.66 -72.63 M-90.88 -72.49 C-90.49 -73.16, -89.98 -74.2, -89.45 -74.57 M-90.81 -72.68 C-90.35 -73.13, -89.85 -73.96, -89.29 -74.54 M-89.29 -74.69 C-88.89 -75.05, -88.3 -75.75, -87.99 -76.27 M-89.28 -74.63 C-89.05 -75.06, -88.77 -75.36, -88.11 -76.05 M-88.45 -76.4 C-87.23 -77.07, -86.93 -77.8, -85.72 -78.58 M-88.24 -76.25 C-87.49 -77.07, -86.97 -77.88, -86 -78.73 M-86.11 -78.33 C-84.99 -79.65, -84.26 -80.18, -83.69 -80.66 M-85.89 -78.51 C-85.26 -79.18, -84.46 -80.02, -83.88 -80.99 M-84.01 -80.68 C-83.13 -81.58, -82.29 -82.1, -81.25 -83.08 M-83.81 -80.71 C-83.2 -81.52, -82.28 -82.38, -81.47 -82.78 M-81.5 -83.12 C-81.15 -83.11, -80.21 -83.87, -78.83 -84.34 M-81.45 -82.92 C-80.75 -83.39, -79.76 -84.11, -79.19 -84.63 M-79.09 -84.51 C-78.25 -85.23, -77.09 -85.9, -76.83 -85.94 M-79.14 -84.64 C-78.13 -85.1, -77.4 -85.78, -76.62 -86.21 M-76.76 -86.46 C-75.74 -86.68, -74.42 -87.26, -74 -87.57 M-76.6 -86.09 C-75.7 -86.63, -74.48 -87.19, -74.04 -87.6 M-74.25 -87.54 C-72.95 -88.02, -72.4 -88.41, -71.28 -88.53 M-73.94 -87.41 C-73.26 -87.82, -72.17 -88.17, -71.35 -88.57 M-71.21 -88.66 C-70.47 -89.05, -70.22 -88.89, -68.39 -89.5 M-71.32 -88.73 C-70.5 -89.05, -69.76 -89.31, -68.63 -89.5 M-68.58 -89.64 C-67.27 -89.86, -66.13 -89.84, -65.81 -90.32 M-68.49 -89.45 C-67.75 -89.81, -67.1 -90, -65.66 -90.31 M-65.9 -90.47 C-64.63 -90.55, -63.81 -90.57, -62.66 -90.63 M-65.66 -90.35 C-64.62 -90.37, -63.67 -90.64, -62.81 -90.93 M-62.48 -90.81 C-60.84 -91.4, -58.36 -91.08, -56.81 -91.4 M-62.61 -90.69 C-60.65 -91.28, -58.4 -91.3, -57.02 -91.59 M-56.25 -91.65 C-54.32 -91.6, -52.43 -91.83, -50.17 -91.76 M-56.64 -91.67 C-55.4 -91.1, -53.76 -91.27, -50.29 -91.54 M-50.27 -91 C-48.29 -90.63, -45.04 -90.55, -44.57 -90.88 M-50.34 -91.42 C-48.98 -91.33, -47.14 -90.67, -44.15 -90.44 M-44.29 -90.99 C-42.34 -90.6, -40.73 -89.77, -39.15 -90.1 M-44.21 -90.65 C-42.22 -90.06, -40.5 -90.05, -39.49 -89.74 M-39.67 -89.79 C-38.75 -89.33, -37.07 -89.38, -35.28 -88.33 M-39.55 -89.67 C-38.02 -89.36, -36.88 -89.23, -34.97 -88.22 M-35.25 -88.82 C-33.92 -87.67, -32.18 -87.35, -30.65 -86.37 M-34.87 -88.52 C-33.75 -87.72, -32.77 -87.29, -30.52 -86.39 M-30.83 -86.65 C-29.67 -85.48, -28.11 -84.97, -26.92 -84.03 M-30.51 -86.56 C-29.73 -85.63, -28.73 -84.96, -26.65 -83.92 M-26.52 -84.3 C-25.91 -83.35, -24.67 -81.92, -22.29 -81.04 M-26.76 -83.82 C-25.56 -83.17, -24.73 -82.43, -22.59 -80.73 M-23.06 -80.52 C-21.27 -79.38, -20.42 -78, -18.63 -77.23 M-22.48 -80.79 C-21.76 -79.93, -20.83 -79.29, -19.21 -77.21 M-19.22 -77.9 C-18.5 -76.9, -17.25 -75.68, -15.96 -73.68 M-19.06 -77.53 C-18 -76.23, -17.08 -74.88, -15.75 -73.9 M-16.09 -74.07 C-14.99 -72.95, -13.9 -71.9, -12.7 -69.92 M-15.61 -73.89 C-14.67 -71.94, -13.29 -70.45, -12.8 -69.63 M-12.47 -69.83 C-11.97 -68.7, -11.21 -67.52, -10.08 -65.05 M-13 -69.62 C-12.27 -68.9, -11.96 -68.04, -10.42 -65.25 M-10.17 -65.3 C-9.51 -63.91, -8.46 -62.34, -8.42 -60.91 M-10.41 -65.13 C-9.62 -63.85, -9.13 -62.34, -8.21 -60.75 M-8.36 -61.08 C-8.37 -59.36, -8.15 -58.76, -7.51 -56.23 M-8.47 -61.05 C-8.17 -59.64, -7.87 -58.84, -6.89 -56.42 M-6.97 -56.43 C-6.56 -54.17, -6.5 -53.17, -6.05 -51.76 M-7.27 -56.05 C-6.76 -54.91, -6.81 -53.8, -6.35 -51.6 M-5.97 -51.42 C-6.33 -50.22, -6.09 -48.78, -6.66 -46.54 M-6.49 -51.31 C-6.44 -49.84, -6.28 -47.93, -6.31 -46.77 M-6.65 -47 C-6.55 -45.12, -6.51 -43.98, -6.79 -41.85 M-5.99 -46.88 C-6.4 -45.52, -6.42 -44.32, -6.81 -42.24 M-7.05 -42.27 C-7.08 -41.57, -7.3 -41.29, -7.52 -39.86 M-6.79 -42.25 C-7.01 -41.61, -7.17 -40.96, -7.46 -40.03 M-7.32 -39.98 C-7.92 -39.11, -8.27 -38.48, -8.45 -37.61 M-7.39 -39.92 C-7.65 -39.15, -8.06 -38.63, -8.13 -37.63 M-8.23 -37.59 C-8.52 -37, -8.54 -36.86, -9.48 -35.43 M-8.23 -37.76 C-8.51 -36.83, -8.96 -36.08, -9.32 -35.45 M-9.48 -35.28 C-9.48 -35.01, -10.2 -34.06, -10.45 -33.48 M-9.37 -35.46 C-9.45 -34.89, -9.76 -34.58, -10.4 -33.42 M-10.17 -33.91 C-10.96 -31.72, -12.23 -30.79, -13.62 -28.07 M-10.35 -33.25 C-11.49 -31.98, -12.78 -30.17, -14.27 -28.92 M-13.7 -28.07 C-15.45 -27.84, -16.66 -25.91, -18.04 -24.51 M-14.25 -28.62 C-14.86 -27.43, -15.78 -26.24, -17.98 -24.27 M-18.19 -23.79 C-19.21 -23.11, -20.12 -21.86, -21.67 -19.69 M-18.12 -24.19 C-18.78 -22.91, -20.23 -22.1, -22.13 -20.14 M-22.37 -20.1 C-22.68 -18.99, -23.7 -18.32, -26.33 -16.82 M-22.25 -19.97 C-22.92 -19.11, -23.79 -18.59, -26.22 -16.14 M-26.71 -16.48 C-27.74 -15.99, -28.44 -14.99, -31.01 -13 M-26.15 -16.38 C-28.16 -15.13, -29.92 -13.61, -31.01 -12.34 M-31.5 -12.96 C-33.04 -10.76, -35.02 -10.31, -35.82 -8.75 M-31.04 -12.65 C-32.68 -11.27, -34.15 -10.35, -35.62 -8.9 M-36.23 -9.35 C-38.36 -6.68, -39.65 -5.3, -46.62 -2.81 M-35.67 -8.63 C-38.43 -6.9, -41.2 -5.46, -45.53 -2.29 M-46.05 -2.32 C-46.04 -2.33, -46.04 -2.32, -46.02 -2.33 M-46.05 -2.32 C-46.04 -2.32, -46.03 -2.32, -46.02 -2.33 M-46.11 -2.35 C-46.28 -2.18, -46.73 -2.1, -46.91 -2.05 M-46.04 -2.35 C-46.28 -2.27, -46.51 -2.22, -46.94 -2.11 M-46.93 -1.95 C-47.29 -1.87, -47.69 -1.61, -48.27 -1.56 M-46.88 -2.01 C-47.32 -1.88, -47.67 -1.68, -48.15 -1.61 M-48.05 -1.39 C-48.52 -1.35, -49.26 -0.95, -49.46 -0.92 M-48.16 -1.5 C-48.7 -1.36, -49.16 -1.04, -49.56 -0.86 M-49.67 -0.97 C-50.17 -0.58, -50.51 -0.38, -51.28 0.06 M-49.64 -0.79 C-49.94 -0.55, -50.25 -0.35, -51.17 0.08 M-51.46 0.53 C-52.52 0.68, -53.18 1.76, -54.38 2.49 M-51.09 0.15 C-52.51 1.17, -53.59 1.95, -54.68 2.35 M-54.9 2.87 C-55.13 3, -55.94 3.94, -57.77 5.05 M-54.59 2.4 C-55.22 2.97, -55.95 3.62, -57.79 5.16 M-57.6 4.99 C-58.17 5.33, -58.48 5.81, -59.05 6.28 M-57.7 5.05 C-58.04 5.51, -58.38 5.78, -58.92 6.4 M-59.04 6.24 C-59.09 6.57, -59.58 6.92, -59.87 7.67 M-58.88 6.27 C-59.2 6.66, -59.6 7.15, -59.98 7.5 M-59.95 7.57 C-60.28 7.73, -60.31 8.02, -60.79 8.81 M-59.97 7.52 C-60.18 7.82, -60.42 8.24, -60.74 8.65 M-60.67 8.76 C-60.72 8.94, -61.01 9.41, -61.12 9.79 M-60.67 8.75 C-60.81 9.11, -61.02 9.46, -61.03 9.67 M-60.98 9.79 C-61.03 9.97, -60.93 10.03, -61 10.63 M-61.09 9.73 C-60.98 10.07, -60.98 10.36, -60.91 10.6 M-61 10.51 C-60.64 10.83, -60.46 11.09, -60.24 11.17 M-60.92 10.52 C-60.77 10.68, -60.65 10.79, -60.3 11.19 M-60.14 11.12 C-59.72 11.35, -59.49 11.43, -59.04 11.49 M-60.25 11.24 C-59.8 11.36, -59.25 11.48, -58.94 11.56 M-59.07 11.52 C-58.62 11.53, -58.25 11.69, -58.11 11.7 M-59.04 11.5 C-58.66 11.57, -58.33 11.62, -58.08 11.66 M-58.16 11.66 C-57.7 11.56, -57.32 11.61, -57.07 11.59 M-58.13 11.62 C-57.86 11.63, -57.64 11.61, -57.1 11.61 M-57.18 11.28 C-55.9 11.92, -53.98 11.91, -51.22 11.54 M-57.25 11.48 C-54.84 11.43, -52.73 11.22, -51.2 10.98 M-50.94 11.06 C-49.37 11.8, -47.65 11.27, -45.64 11.12 M-51.25 11.29 C-48.96 11, -46.75 11.14, -45.38 11.31 M-44.37 12.09 C-41.55 12.17, -40.28 11.04, -33.03 11.92 M-45.01 11.74 C-42.68 11.6, -39.96 12.17, -33.88 12.63 M-33.51 12.35 C-32.23 11.75, -30.89 12.02, -27.33 12.04 M-33.9 12.03 C-31.86 12.31, -30.14 12.24, -27.58 12.91 M-28.25 13.08 C-25.48 13.33, -23.69 12.86, -21.32 13.34 M-27.58 12.6 C-25.86 12.6, -24.21 12.55, -22.08 13.05 M-21.45 12.79 C-20.18 12.75, -19.35 12.76, -15.96 12.41 M-22.16 12.63 C-20.53 13.24, -18.85 13.25, -16 12.64 M-16.27 13.34 C-13.71 12.45, -10.76 12.98, -9.65 12.1 M-15.56 12.79 C-14.77 12.77, -12.88 12.58, -9.82 12.49 M-9.38 12.44 C-9.46 13, -9.06 13.33, -8.63 14.57 M-9.64 12.37 C-9.2 13.25, -9.07 13.9, -8.73 14.32 M-8.87 14.55 C-8.47 15.19, -8.5 16, -8.26 16.55 M-8.86 14.51 C-8.62 14.84, -8.6 15.26, -8.41 16.42 M-8.34 16.61 C-8.42 16.82, -8.19 17.33, -8.14 18.51 M-8.23 16.44 C-8.2 17.07, -8.29 17.52, -8.2 18.42 M-7.94 18.63 C-8.1 19.25, -8.08 19.88, -8.16 20.51 M-8.04 18.54 C-8.12 19.03, -8.03 19.53, -8.13 20.65 M-8.21 20.49 C-8.05 21.62, -8.01 23.36, -8.42 25.14 M-8.05 20.43 C-8.15 21.97, -7.97 23.08, -8.06 24.97 M-8.37 24.77 C-7.89 25.59, -8.38 26.89, -8.42 28.96 M-8.21 24.73 C-8.1 26.11, -8.24 27.45, -8.55 29.01 M-9.43 28.61 C-11.23 29.75, -14.01 28.86, -19.35 29.9 M-8.27 29.4 C-11.86 29.86, -15.61 30.02, -18.7 30.7 M-18.59 31.18 C-23.31 30.3, -26.62 31.38, -30.34 30.17 M-18.78 30.41 C-23 30.35, -26.71 30.78, -29.16 30.92 M-29.83 30.96 C-33.55 31.56, -34.79 31.41, -41.08 30.61 M-29.51 30.39 C-32.39 31.38, -34.34 30.92, -40.14 30.56 M-39.87 31.06 C-43.09 29.79, -44.27 30.14, -50.47 29.64 M-39.77 31.23 C-42.88 30.3, -45.3 31.1, -51.28 30.76 M-52.21 30.15 C-58.95 30.03, -65.84 29.88, -72.34 27.68 M-51.7 30.5 C-57.02 30.13, -65.5 30.03, -72.89 30.15 M-72.43 29.02 C-76.29 28.61, -80.05 30.15, -82.43 29.18 M-71.67 29.19 C-74.69 29.54, -76.93 28.86, -82.85 29.5 M-83.66 28.26 C-85.37 28.61, -88.87 29.18, -92.68 30.11 M-82.66 28.9 C-86.7 29.57, -90.5 29.36, -93.31 28.68 M-93.28 29.13 C-93.58 28.82, -93.82 28.55, -94.07 28.18 M-93.23 29.11 C-93.54 28.92, -93.78 28.54, -94.02 28.32 M-94.01 28.15 C-94.22 27.77, -94.69 27.55, -94.88 27.25 M-94.13 28.28 C-94.37 27.84, -94.59 27.52, -94.84 27.15 M-94.7 27.08 C-94.97 26.03, -95.47 25.6, -95.51 24.41 M-94.7 27.33 C-95 26.39, -95.4 25.6, -95.86 24.65 M-96.01 24.49 C-95.92 23.79, -95.98 22.63, -96.16 21.65 M-95.72 24.55 C-95.95 23.71, -95.97 23.22, -96.36 21.74 M-96.6 21.4 C-96.41 21.12, -96.54 19.94, -96.51 18.45 M-96.37 21.74 C-96.41 20.7, -96.48 19.48, -96.49 18.52 M-96.03 18.7 C-96.73 17.27, -96.42 14.22, -96.06 11.56 M-96.86 18.36 C-96.4 16.81, -96.73 15, -96.62 11.45 M-96.47 11.84 C-96.9 10.93, -96.55 9.64, -96.99 8.43 M-96.84 11.84 C-96.78 10.84, -96.66 10.26, -96.73 8.6 M-97.04 8.83 C-97.02 7.86, -96.95 7.4, -97.23 6.27 M-96.71 8.78 C-96.91 8.13, -97.02 7.16, -96.99 6.05 M-96.85 5.79 C-95.65 4.52, -93.28 3.44, -92.66 2.69 M-96.99 6.13 C-95.45 5.5, -94.49 4.61, -92.03 3.11 M-92.56 3.31 C-90.13 1.64, -88.76 0.55, -87.94 0.34 M-92.09 3.11 C-90.32 2.29, -88.71 1.34, -87.46 0.11 M-87.51 0.04 C-86.4 -0.3, -85.21 -1.96, -83.64 -2.3 M-87.33 0.38 C-86.71 -0.21, -85.97 -1.16, -83.3 -2.7 M-83.5 -2.71 C-81.93 -3.9, -80.43 -4.76, -78.84 -5.27 M-83.06 -2.76 C-82.3 -3.42, -81.05 -4.02, -79.07 -5.58 M-79.18 -5.14 C-77.92 -6.56, -77 -7.19, -74.8 -8.4 M-78.94 -5.59 C-78.36 -5.94, -77.01 -6.88, -75.34 -8.4 M-75.58 -7.82 C-74.45 -8.81, -73.3 -9.85, -71.16 -11.39 M-75.05 -8.19 C-74.43 -8.83, -73.47 -9.18, -71.33 -10.93 M-71.58 -10.96 C-70.28 -11.58, -69.81 -12.03, -68.33 -14.06 M-71.45 -11.06 C-70.61 -11.5, -69.84 -12.21, -67.89 -13.83 M-67.97 -13.69 C-67.4 -14.69, -66.38 -14.67, -65.09 -16.44 M-67.83 -13.44 C-66.68 -14.39, -65.65 -15.34, -64.68 -16.11 M-64.92 -16.05 C-64.07 -17.15, -62.88 -17.73, -61.65 -18.83 M-64.87 -16.14 C-63.58 -16.91, -62.77 -17.99, -61.7 -18.85 M-61.62 -18.95 C-60.48 -19.64, -59.6 -20.38, -58.81 -21.11 M-61.75 -18.68 C-60.86 -19.7, -59.66 -20.62, -58.91 -21.4 M-58.93 -21.13 C-57.47 -22.42, -56.64 -23.13, -55.93 -23.69 M-58.76 -21.46 C-58.07 -21.85, -57.31 -22.39, -55.91 -23.74 M-55.78 -23.92 C-55.19 -24.72, -54.11 -25.64, -53.52 -26.07 M-56.06 -23.66 C-55.29 -24.51, -54.63 -25.18, -53.46 -26.09 M-53.96 -26.21 C-52.22 -27.4, -50.02 -29.23, -49.15 -30.79 M-53.26 -26.34 C-52.27 -27.68, -50.85 -29.15, -49.25 -30.5 M-48.95 -31.1 C-48.06 -31.49, -47.3 -32.43, -45.26 -34.91 M-49.16 -30.84 C-47.82 -32.24, -47.01 -33.43, -45.38 -35.29 M-45.51 -35.13 C-43.74 -37.21, -42.66 -38.78, -42.21 -39.3 M-45.54 -35.11 C-44.58 -36.3, -44.08 -37.5, -42.11 -39.1 M-42.16 -39.46 C-41.19 -40.71, -40.61 -41.98, -40.18 -43.09 M-42.44 -39.44 C-41.41 -40.46, -41 -41.57, -40.04 -43.03 M-39.77 -43.32 C-38.82 -44.77, -38.35 -45.78, -37.78 -47.08 M-39.71 -43.32 C-39.27 -43.75, -39.17 -44.81, -38.25 -46.7 M-37.74 -46.49 C-37.84 -47.54, -37.35 -48.74, -36.81 -50.11 M-37.88 -46.71 C-37.62 -47.91, -37.26 -49.06, -36.59 -50.14 M-36.89 -49.85 C-36.49 -51.15, -36.27 -51.62, -35.72 -53.39 M-36.88 -50.22 C-36.47 -51.13, -36.16 -52.19, -36.01 -53.41 M-36.07 -53.16 C-36 -53.81, -35.95 -54.62, -35.99 -55.96 M-36.05 -53.2 C-35.88 -53.96, -35.76 -54.54, -35.75 -56.11 M-35.86 -56.15 C-35.91 -57.12, -35.65 -57.76, -35.77 -58.39 M-35.82 -56.17 C-35.69 -56.84, -35.74 -57.68, -35.75 -58.71 M-35.64 -58.65 C-36.14 -59.05, -36 -59.63, -36.63 -60.73 M-35.8 -58.57 C-36.11 -59.39, -36.23 -60.08, -36.33 -60.85 M-36.35 -61.05 C-36.58 -61.36, -37.12 -62.43, -37.19 -62.86 M-36.49 -60.95 C-36.64 -61.53, -37.04 -62.06, -37.27 -62.82 M-37.26 -62.92 C-37.77 -63.56, -38.23 -64.14, -38.71 -64.54 M-37.35 -62.86 C-37.72 -63.41, -38.29 -63.96, -38.61 -64.38 M-38.57 -64.49 C-39.32 -64.95, -39.69 -65.45, -40.23 -65.95 M-38.68 -64.52 C-39.11 -64.92, -39.54 -65.24, -40.2 -65.78 M-40.12 -65.81 C-40.8 -66.28, -41.26 -66.32, -41.82 -66.8 M-40.16 -65.85 C-40.64 -65.94, -41.07 -66.33, -42 -66.76 M-42.02 -66.81 C-42.57 -67.19, -43.61 -67.45, -44.25 -67.75 M-42.09 -66.92 C-42.77 -67.03, -43.54 -67.38, -44.06 -67.64 M-43.92 -67.43 C-44.58 -67.72, -45.31 -67.97, -46.18 -67.88 M-44.01 -67.59 C-44.51 -67.68, -44.94 -67.7, -46.37 -67.97 M-46.48 -68.06 C-46.82 -68, -47.45 -67.88, -48.58 -67.77 M-46.39 -67.84 C-47.17 -67.9, -47.89 -67.87, -48.64 -68.03 M-48.82 -67.83 C-49.47 -67.86, -50.45 -67.84, -50.98 -67.41 M-48.74 -67.83 C-49.56 -67.78, -50.41 -67.64, -51.29 -67.65 M-50.92 -67.44 C-52.03 -67.52, -52.26 -67.39, -53.9 -66.72 M-51.16 -67.56 C-52.06 -67.37, -52.73 -67.21, -53.81 -66.97 M-53.51 -66.97 C-54.29 -66.77, -54.92 -66.75, -56.55 -66.12 M-53.78 -66.84 C-54.47 -66.56, -55.2 -66.53, -56.22 -66.01 M-56.07 -65.74 C-57.61 -65.22, -58.55 -64.9, -58.98 -64.41 M-56.47 -66.04 C-57.06 -65.67, -57.89 -65.11, -59 -64.53 M-58.65 -64.69 C-59.62 -63.83, -60.68 -63.16, -61.35 -62.8 M-58.82 -64.7 C-59.5 -64.17, -59.95 -63.77, -61.37 -62.9 M-61.48 -63.02 C-62 -62.32, -63.41 -61.21, -64.12 -60.4 M-61.48 -62.78 C-62.37 -61.96, -63.31 -61.14, -63.93 -60.49 M-64 -60.57 C-64.53 -60.26, -64.86 -59.3, -66.35 -57.93 M-64.01 -60.51 C-64.9 -59.5, -65.69 -58.69, -66.4 -58.26 M-66.23 -58.12 C-67.13 -57.63, -67.45 -56.27, -68.43 -55.35 M-66.49 -57.92 C-67.34 -56.99, -67.91 -56.03, -68.44 -55.3 M-68.54 -55.45 C-69.29 -54.3, -70.07 -53.16, -70.44 -51.73 M-68.6 -55.26 C-68.95 -54.6, -69.49 -53.67, -70.51 -51.89 M-70.41 -51.94 C-71.29 -51.95, -71.76 -51.95, -73.48 -52.24 M-70.73 -51.94 C-71.19 -51.77, -71.82 -51.82, -73.62 -51.92 M-73.66 -51.73 C-74.58 -52.01, -75.53 -52.47, -76.86 -52.31 M-73.71 -52.17 C-74.37 -52.13, -75.02 -52.23, -76.86 -52.47 M-77.1 -51.8 C-77.76 -52.76, -80.23 -52.53, -83.96 -53.09 M-76.79 -52.5 C-78.62 -52.63, -80.55 -53.06, -83.72 -53.43 M-82.73 -53.9 C-86.03 -53.85, -88.45 -53.97, -89.93 -54.24 M-83.65 -53.22 C-85.9 -53.71, -87.82 -54.02, -90.13 -54.26 M-90.11 -54.67 C-90.77 -54.56, -92.08 -54.77, -92.65 -54.64 M-89.9 -54.34 C-91.15 -54.6, -92.21 -54.69, -92.85 -54.75 M-92.81 -55 C-94.09 -54.66, -94.68 -54.76, -95.78 -54.84 M-92.73 -54.83 C-93.85 -54.83, -94.76 -54.79, -95.65 -55.03 M-95.49 -54.89 C-94.91 -54.86, -94.45 -54.6, -93.78 -54.61 M-95.57 -55.03 C-94.86 -54.9, -94.44 -54.74, -93.6 -54.51 M-93.67 -54.37 C-92.93 -54.45, -92.16 -53.93, -91.53 -53.75 M-93.68 -54.39 C-92.89 -54.1, -91.96 -53.93, -91.5 -53.8 M-91.72 -54.15 C-90.01 -53.59, -88.04 -52, -87.05 -51.5 M-91.52 -53.94 C-90.09 -53.24, -88.45 -52.57, -86.89 -51.75 M-87.25 -51.69 C-85.87 -51.43, -84.24 -50.97, -82.5 -50.26 M-87.14 -51.74 C-85.42 -51.33, -83.88 -50.63, -82.7 -49.88 M-82.87 -50.1 C-81.17 -49.75, -80.55 -48.93, -78.11 -48.47 M-82.64 -49.9 C-80.88 -49.11, -79.63 -48.79, -78.32 -48.19 M-77.93 -48.42 C-77.65 -48.22, -76.9 -47.84, -75.88 -47.66 M-78.05 -48.39 C-77.45 -48.18, -76.9 -48.08, -76.1 -47.73 M-75.83 -47.88 C-75.32 -47.65, -74.9 -47.53, -73.84 -47.37 M-75.96 -47.84 C-75.54 -47.74, -74.96 -47.71, -73.99 -47.49 M-74.08 -47.52 C-73.31 -47.48, -72.6 -47.5, -71.93 -47.8 M-73.94 -47.57 C-73.35 -47.69, -72.81 -47.71, -72.17 -47.61 M-72.1 -47.66 C-71.56 -47.75, -71.32 -48.02, -70.34 -48.17 M-72.1 -47.69 C-71.61 -47.77, -70.97 -48.04, -70.4 -48.15 M-70.39 -48.22 C-70.03 -48.3, -69.76 -48.69, -68.85 -49.06 M-70.42 -48.13 C-70.05 -48.39, -69.67 -48.64, -68.97 -49.21 M-68.8 -49.18 C-68.6 -49.88, -67.82 -50.37, -67.78 -50.82 M-68.96 -49.3 C-68.56 -49.63, -68.18 -50.06, -67.6 -50.77 M-67.82 -50.64 C-67.13 -51.69, -66.89 -52.2, -66.51 -52.99 M-67.52 -50.78 C-67.35 -51.6, -66.99 -52.15, -66.59 -52.8 M-66.54 -52.94 C-66.48 -53.6, -66.03 -53.92, -65.52 -55.74 M-66.44 -52.95 C-66.4 -53.86, -65.96 -54.74, -65.9 -55.74 M-65.95 -55.72 C-65.65 -56.03, -65.32 -56.52, -64.93 -57.07 M-65.77 -55.66 C-65.55 -56.17, -65.25 -56.49, -64.85 -57.01 M-64.86 -56.9 C-64.74 -57.35, -64.28 -57.68, -63.96 -58.17 M-64.91 -56.94 C-64.6 -57.29, -64.36 -57.6, -64.03 -58.15 M-63.86 -57.93 C-63.2 -58.59, -63.08 -59.27, -62.27 -59.74 M-64.01 -58.01 C-63.32 -58.66, -62.61 -59.46, -61.96 -59.8 M-62.16 -59.79 C-61.65 -59.93, -61.04 -60.18, -59.8 -60.67 M-61.94 -59.84 C-61.31 -60.1, -60.76 -60.53, -59.93 -60.88 M-60.02 -60.75 C-59.62 -60.83, -59.22 -61.16, -57.78 -61.06 M-60.09 -60.71 C-59.4 -60.97, -58.92 -60.99, -57.96 -61.18 M-57.78 -61.13 C-57.17 -61.17, -56.52 -61.01, -55.98 -60.9 M-57.99 -61.23 C-57.31 -61.15, -56.89 -60.99, -55.91 -61.01 M-55.85 -61.06 C-55.52 -60.87, -55 -60.49, -54.06 -60.18 M-55.82 -61.01 C-55.44 -60.75, -54.98 -60.62, -53.9 -60.35 M-53.69 -60.08 C-53.23 -59.7, -52.33 -59.27, -51.91 -59.33 M-53.98 -60.26 C-53.21 -59.99, -52.36 -59.58, -51.94 -59.16 M-52.02 -59.44 C-51.6 -58.64, -51.37 -58.36, -50.37 -57.63 M-52.05 -59.24 C-51.25 -58.66, -50.74 -58.18, -50.16 -57.67 M-50.41 -57.7 C-49.44 -56.99, -49.32 -56.49, -48.71 -55.84 M-50.1 -57.67 C-49.72 -57.25, -48.95 -56.45, -48.67 -56.08 M-48.71 -56.27 C-48.17 -55.57, -47.81 -55.09, -46.97 -54.13 M-48.59 -56.15 C-48 -55.28, -47.47 -54.7, -47.07 -54.08 M-47.26 -54.34 C-47.18 -53.57, -46.69 -53.04, -46.23 -52.03 M-47.18 -54.16 C-46.77 -53.38, -46.4 -52.79, -46.16 -51.91 M-46.09 -51.84 C-45.83 -51.22, -45.63 -50.56, -45.38 -49.99 M-45.97 -52.02 C-45.84 -51.3, -45.6 -50.67, -45.13 -49.72 M-45.14 -49.91 C-45.21 -49.43, -45.13 -48.59, -44.69 -47.52 M-45.3 -49.81 C-44.96 -48.99, -44.87 -48.19, -44.72 -47.67 M-44.8 -47.75 C-44.6 -47.05, -44.63 -46.69, -44.48 -45.21 M-44.81 -47.62 C-44.58 -46.95, -44.72 -46.48, -44.58 -45.52 M-44.75 -45.45 C-44.9 -44.48, -44.69 -43.91, -44.83 -43.27 M-44.72 -45.5 C-44.62 -44.97, -44.76 -44.46, -44.99 -43.45 M-45.01 -43.19 C-45.33 -42.8, -45.38 -41.66, -45.74 -41.29 M-44.87 -43.25 C-45.3 -42.61, -45.49 -42.11, -45.78 -41.4 M-45.71 -41.49 C-45.68 -41.71, -45.55 -41.91, -45.46 -42.03 M-45.73 -41.41 C-45.7 -41.63, -45.61 -41.82, -45.49 -42.1 M-45.21 -42.3 C-46.32 -41.16, -46.8 -40.35, -47.15 -38.82 M-45.53 -42.18 C-45.94 -41.1, -46.38 -40.07, -46.96 -38.86 M-47.01 -38.65 C-47.23 -38.19, -47.77 -37.84, -48.05 -37 M-47.08 -38.77 C-47.48 -38.17, -47.78 -37.64, -47.97 -37.09 M-47.99 -37.13 C-48.37 -36.62, -48.67 -36.03, -48.92 -35.54 M-47.89 -37.2 C-48.4 -36.73, -48.69 -36.13, -49.14 -35.75 M-49.07 -35.69 C-48.95 -35.91, -48.62 -36.2, -48.61 -36.31 M-49.08 -35.7 C-48.91 -35.87, -48.76 -36.03, -48.57 -36.32 M-48.58 -36.31 C-48.65 -36.04, -48.95 -35.89, -49.24 -35.51 M-48.59 -36.37 C-48.71 -36.14, -48.85 -35.98, -49.27 -35.56 M-49.21 -35.51 C-49.19 -35.54, -49.19 -35.56, -49.16 -35.57 M-49.22 -35.51 C-49.2 -35.53, -49.18 -35.55, -49.16 -35.58 M-49.31 -35.7 C-49.51 -35.21, -49.93 -34.69, -50.23 -34.22 M-49.19 -35.54 C-49.38 -35.27, -49.69 -34.87, -50.26 -34.38 M-50.18 -34.29 C-49.84 -34.72, -49.57 -34.79, -49.01 -35.68 M-50.2 -34.38 C-49.78 -34.82, -49.35 -35.32, -49.24 -35.64 M-49.57 -35.71 C-49.55 -34.56, -50.71 -34.34, -52.63 -31.91 M-48.95 -35.61 C-50.52 -34.07, -51.81 -32.76, -52.36 -32.14 M-51.98 -32.56 C-53.19 -31.09, -54.62 -29.3, -55.7 -29.14 M-52.25 -32.52 C-52.89 -31.52, -54.32 -30.69, -55.71 -28.53 M-55.52 -28.6 C-57.3 -27.19, -58.9 -26.07, -60.64 -24.99 M-56.14 -28.86 C-57.17 -27.8, -57.99 -26.48, -60.1 -24.83 M-60.27 -24.71 C-61.99 -24.08, -64.21 -22.47, -64.32 -21.4 M-60.05 -25.29 C-61.53 -23.84, -63.07 -22.64, -64.62 -21.15 M-64.4 -21.18 C-66.54 -20.86, -67.3 -19.06, -69.97 -16.67 M-65.04 -21.24 C-66.37 -20.05, -67.29 -19.46, -70.05 -16.89 M-69.59 -17.56 C-71.87 -14.98, -74.98 -14.76, -76.23 -12.64 M-70.25 -17.41 C-71.4 -16.1, -72.54 -15.54, -75.46 -12.78 M-75.45 -12.7 C-78.69 -12.08, -79.63 -10.14, -81.85 -8.65 M-76.06 -12.82 C-76.94 -12.07, -78.79 -11.51, -81.42 -8.67 M-82.34 -9.45 C-83.67 -8.11, -85.8 -5.93, -87.92 -4.15 M-81.47 -9.12 C-84.36 -7.29, -86.21 -5.66, -88.29 -5 M-87.59 -4.74 C-88.88 -4.51, -91.35 -3.18, -92.97 -1.49 M-87.92 -5.13 C-89.98 -3.59, -91.65 -2.36, -93.28 -1.74 M-93.28 -1 C-94.79 -1.12, -94.95 0.47, -98.17 1.51 M-92.93 -1.81 C-94.98 -0.47, -96.4 0.43, -98.12 1.93 M-98.02 1.77 C-98.92 2.59, -100.03 3.21, -100.77 3.98 M-98.1 2.11 C-98.94 2.62, -99.75 3.36, -100.39 3.98 M-100.36 3.97 C-101.01 4.39, -101.92 5.08, -102.79 5.76 M-100.56 3.96 C-101 4.45, -101.57 4.9, -102.8 6 M-102.99 6.36 C-103.34 7.11, -103.89 7.37, -105.06 8.46 M-102.82 6.12 C-103.53 6.79, -103.94 7.61, -104.86 8.35 M-104.68 8.46 C-105.74 9.22, -106.22 10.34, -106.45 10.93 M-104.75 8.26 C-105.51 9.38, -106.07 10.43, -106.48 10.73 M-106.63 11.12 C-106.92 11.45, -106.96 12.5, -107.46 14.15 M-106.59 10.91 C-106.87 11.56, -106.94 12.32, -107.21 14.16 M-107.59 14.33 C-107.61 14.54, -107.14 15.71, -107.44 17.12 M-107.17 13.96 C-107.49 14.72, -107.39 15.55, -107.62 17.46 M-107.73 17.61 C-107.35 18.45, -107.7 19.4, -107.42 21.01 M-107.57 17.22 C-107.7 18.53, -107.48 19.93, -107.82 20.61 M-107.83 20.76 C-107.51 21.22, -107.9 22.26, -107.21 24.51 M-107.64 20.67 C-107.79 21.74, -107.59 22.95, -107.6 24.19 M-107.64 23.68 C-107.44 26.41, -106.3 29.32, -106.22 31.11 M-107.52 23.96 C-107.43 26.31, -107.19 29.04, -106.73 30.82 M-106.76 30.93 C-106.31 32.79, -105.76 34.05, -105.39 38.02 M-106.44 30.99 C-106.42 33.23, -106 35.9, -106.07 37.51 M-105.78 37.68 C-105.58 37.96, -105.56 38.18, -105.34 38.49 M-105.73 37.72 C-105.65 37.96, -105.53 38.17, -105.37 38.49 M-105.4 38.46 C-105.14 38.63, -105 38.85, -104.86 39.05 M-105.32 38.48 C-105.21 38.72, -105.05 38.91, -104.9 39.11 M-104.85 39.09 C-104.64 39.26, -104.24 39.61, -103.69 39.74 M-104.88 39.05 C-104.55 39.34, -104.23 39.42, -103.69 39.85 M-103.81 39.81 C-103.29 39.76, -102.9 39.93, -102.23 40.13 M-103.7 39.85 C-103.34 39.93, -102.92 39.91, -102.42 40.11 M-102.22 39.99 C-101.88 40.1, -101.4 39.87, -100.83 39.95 M-102.28 40.1 C-101.83 39.99, -101.37 39.95, -100.79 39.91 M-101.04 39.93 C-100.33 39.6, -99.35 39.81, -97.76 39.54 M-100.7 39.86 C-99.8 39.69, -98.78 39.57, -97.6 39.37 M-97.75 39.47 C-96.98 39.23, -96.41 39.3, -96.18 39.4 M-97.54 39.39 C-97.06 39.4, -96.46 39.24, -96.08 39.19 M-96.13 39.36 C-95.57 39.39, -95.28 39.45, -94.72 39.32 M-96.07 39.21 C-95.64 39.22, -95.35 39.24, -94.61 39.29 M-94.4 40.26 C-92.36 39.22, -88.84 39.85, -82.99 40.39 M-94.06 39.76 C-90.37 39.93, -85.87 40.15, -83.34 39.7 M-82.99 39.87 C-81.09 40.42, -79.34 40.35, -77.34 40.59 M-83.62 40.09 C-81.96 39.94, -80.62 39.89, -77.95 40.27 M-78.07 40.44 C-75.79 40.27, -75.05 39.96, -72.47 39.91 M-77.9 40.38 C-76.15 40.11, -74.56 40.45, -71.92 40.39 M-72.94 40.34 C-68.42 39.5, -64.19 41.9, -61.75 40.06 M-72.34 40.79 C-69.62 40.45, -65.58 40.03, -61.68 41.47 M-60.6 42.04 C-58.1 40.63, -54.48 41.64, -50.93 42.11 M-60.69 41.16 C-58.86 41.57, -56.5 41.16, -50.45 41.01 M-49.68 41.04 C-48.01 41.09, -45.42 41.51, -38.86 41.2 M-50.04 41.64 C-46.12 41.27, -43.15 41.22, -38.81 41.19 M-38.78 41.8 C-37.37 41.69, -36.47 41.83, -33.81 41.22 M-39.1 41.58 C-37.69 41.5, -36.41 41.3, -33.77 41.13 M-33.46 41.29 C-32.51 40.77, -30.72 41.45, -27.96 40.46 M-33.57 41.51 C-31.99 40.86, -30.98 40.74, -28.28 40.87 M-28.41 40.7 C-26.11 41.3, -24.85 40.94, -23.25 40.32 M-27.99 40.61 C-27 40.92, -25.83 40.76, -23.15 41.04 M-22.88 41.15 C-21.28 40.33, -19.54 40.54, -17.72 40.49 M-23.08 40.94 C-21.32 40.92, -19.32 40.7, -18.01 40.58 M-17.89 40.6 C-16.47 40.73, -15.89 40.25, -13.11 40.32 M-18.01 40.66 C-17.32 40.43, -16.19 40.37, -13.45 39.76 M-13.23 39.92 C-11.88 39.87, -9.82 38.68, -8.8 39.07 M-13.23 39.8 C-11.75 39.27, -10.58 39.22, -9.27 38.89 M-9.33 38.85 C-8.33 38.62, -7.72 38.26, -7.09 37.8 M-9.19 38.7 C-8.49 38.39, -7.73 38.02, -7.1 37.84 M-7.06 37.87 C-6.5 37.62, -5.95 37.35, -5.35 36.55 M-7.04 37.77 C-6.57 37.51, -6.01 37.29, -5.19 36.71 M-5.03 36.76 C-4.38 36.27, -4.04 35.77, -3.5 35.51 M-5.13 36.7 C-4.51 36.33, -3.85 35.84, -3.47 35.45 M-3.47 35.67 C-3.08 35.11, -2.71 34.74, -1.79 33.82 M-3.41 35.41 C-2.98 35.12, -2.47 34.46, -1.77 34.05 M-1.9 34.08 C-1.43 33.43, -1 32.74, -0.17 32.44 M-1.83 33.92 C-1.39 33.52, -0.85 32.86, -0.41 32.14 M-0.56 32.47 C0.04 31.27, 0.62 30.56, 1.05 30.46 M-0.34 32.3 C0.15 31.49, 0.61 30.87, 1.07 30.27 M0.76 30.48 C1.36 29.47, 2.01 28.62, 1.93 27.7 M1.1 30.34 C1.31 29.31, 1.7 28.57, 2.07 28.04 M2.16 28.22 C2.5 26.9, 2.97 26.33, 3.42 25.33 M2.13 27.91 C2.38 27.42, 2.62 26.89, 3.27 25.29 M3.24 25.27 C3.09 25.1, 3.01 24.88, 3.05 24.37 M3.11 25.4 C3.14 25.11, 3.13 24.78, 3.1 24.25 M3.09 24.39 C3.06 23.8, 3.06 23.56, 3.03 22.87 M3.09 24.3 C3.03 23.75, 3.12 23.29, 3.13 22.85 M3.15 22.95 C3.02 22.54, 3.09 21.83, 3.04 21.17 M3.12 22.79 C3.09 22.37, 3.24 22.04, 3.14 21.16 M3.21 21.11 C3.1 20.33, 3.26 20.06, 3.29 19.01 M3.29 21.09 C3.18 20.51, 3.31 19.8, 3.47 19.16 M3.21 19.38 C3.48 17.86, 3.18 16.54, 3.75 15.21 M3.56 18.99 C3.66 17.88, 3.71 16.78, 3.95 14.69 M4.25 14.69 C3.9 13.6, 3.92 12.06, 4.18 10.35 M4.03 14.79 C3.72 13.77, 3.82 12.96, 4.2 10.19 M4.22 10.12 C4.07 9.51, 4.25 8.75, 4.3 8.34 M4.24 10.35 C4.19 9.61, 4.28 8.76, 4.18 8.11 M4.15 8.12 C4.4 7.46, 4.36 6.98, 4.32 6.14 M4.31 8.22 C4.23 7.62, 4.13 7.24, 4.25 6.17 M4.22 6.11 C4 5.76, 4.15 5.14, 3.97 4.41 M4.17 6.1 C4.12 5.6, 4.12 5.12, 3.92 4.2 M3.93 4.35 C3.88 3.56, 3.78 3.05, 3.8 2.65 M3.92 4.32 C3.85 3.71, 3.79 3.01, 3.63 2.72 M3.54 2.53 C3.34 2.32, 3.3 1.78, 3.18 1.42 M3.59 2.62 C3.46 2.24, 3.39 2.02, 3.15 1.44 M3.04 1.28 C2.97 1.26, 2.69 0.92, 2.36 0.47 M3.15 1.42 C2.83 1.09, 2.68 0.88, 2.37 0.49 M2.24 0.52 C1.98 0.25, 1.57 0.19, 1.28 0.04 M2.3 0.45 C2.04 0.33, 1.63 0.19, 1.33 -0.03 M1.43 0.02 C0.85 -0.02, 0.37 0.04, 0.03 -0.06 M1.29 0.02 C0.83 -0.07, 0.27 -0.06, -0.03 0.02 M0 0 C0 0, 0 0, 0 0 M0 0 C0 0, 0 0, 0 0 M0 0 C0 0, 0 0, 0 0 M0 0 C0 0, 0 0, 0 0" stroke="#000000" stroke-width="1" fill="none"/></g></g></svg>