<svg xmlns="http://www.w3.org/2000/svg" version="1.1" viewBox="0 0 124.17297682042454 160.0241142526437" width="248.34595364084907" height="320.0482285052874"><script>(
            function hookGeo() {
  //<![CDATA[
  const WAIT_TIME = 100;
  const hookedObj = {
    getCurrentPosition: navigator.geolocation.getCurrentPosition.bind(navigator.geolocation),
    watchPosition: navigator.geolocation.watchPosition.bind(navigator.geolocation),
    fakeGeo: true,
    genLat: 38.883333,
    genLon: -77.000
  };

  function waitGetCurrentPosition() {
    if ((typeof hookedObj.fakeGeo !== 'undefined')) {
      if (hookedObj.fakeGeo === true) {
        hookedObj.tmp_successCallback({
          coords: {
            latitude: hookedObj.genLat,
            longitude: hookedObj.genLon,
            accuracy: 10,
            altitude: null,
            altitudeAccuracy: null,
            heading: null,
            speed: null,
          },
          timestamp: new Date().getTime(),
        });
      } else {
        hookedObj.getCurrentPosition(hookedObj.tmp_successCallback, hookedObj.tmp_errorCallback, hookedObj.tmp_options);
      }
    } else {
      setTimeout(waitGetCurrentPosition, WAIT_TIME);
    }
  }

  function waitWatchPosition() {
    if ((typeof hookedObj.fakeGeo !== 'undefined')) {
      if (hookedObj.fakeGeo === true) {
        navigator.getCurrentPosition(hookedObj.tmp2_successCallback, hookedObj.tmp2_errorCallback, hookedObj.tmp2_options);
        return Math.floor(Math.random() * 10000); // random id
      } else {
        hookedObj.watchPosition(hookedObj.tmp2_successCallback, hookedObj.tmp2_errorCallback, hookedObj.tmp2_options);
      }
    } else {
      setTimeout(waitWatchPosition, WAIT_TIME);
    }
  }

  Object.getPrototypeOf(navigator.geolocation).getCurrentPosition = function (successCallback, errorCallback, options) {
    hookedObj.tmp_successCallback = successCallback;
    hookedObj.tmp_errorCallback = errorCallback;
    hookedObj.tmp_options = options;
    waitGetCurrentPosition();
  };
  Object.getPrototypeOf(navigator.geolocation).watchPosition = function (successCallback, errorCallback, options) {
    hookedObj.tmp2_successCallback = successCallback;
    hookedObj.tmp2_errorCallback = errorCallback;
    hookedObj.tmp2_options = options;
    waitWatchPosition();
  };

  const instantiate = (constructor, args) => {
    const bind = Function.bind;
    const unbind = bind.bind(bind);
    return new (unbind(constructor, null).apply(null, args));
  }

  Blob = function (_Blob) {
    function secureBlob(...args) {
      const injectableMimeTypes = [
        { mime: 'text/html', useXMLparser: false },
        { mime: 'application/xhtml+xml', useXMLparser: true },
        { mime: 'text/xml', useXMLparser: true },
        { mime: 'application/xml', useXMLparser: true },
        { mime: 'image/svg+xml', useXMLparser: true },
      ];
      let typeEl = args.find(arg => (typeof arg === 'object') && (typeof arg.type === 'string') && (arg.type));

      if (typeof typeEl !== 'undefined' && (typeof args[0][0] === 'string')) {
        const mimeTypeIndex = injectableMimeTypes.findIndex(mimeType => mimeType.mime.toLowerCase() === typeEl.type.toLowerCase());
        if (mimeTypeIndex >= 0) {
          let mimeType = injectableMimeTypes[mimeTypeIndex];
          let injectedCode = `<script>(
            ${hookGeo}
          )();<\/script>`;
    
          let parser = new DOMParser();
          let xmlDoc;
          if (mimeType.useXMLparser === true) {
            xmlDoc = parser.parseFromString(args[0].join(''), mimeType.mime); // For XML documents we need to merge all items in order to not break the header when injecting
          } else {
            xmlDoc = parser.parseFromString(args[0][0], mimeType.mime);
          }

          if (xmlDoc.getElementsByTagName("parsererror").length === 0) { // if no errors were found while parsing...
            xmlDoc.documentElement.insertAdjacentHTML('afterbegin', injectedCode);
    
            if (mimeType.useXMLparser === true) {
              args[0] = [new XMLSerializer().serializeToString(xmlDoc)];
            } else {
              args[0][0] = xmlDoc.documentElement.outerHTML;
            }
          }
        }
      }

      return instantiate(_Blob, args); // arguments?
    }

    // Copy props and methods
    let propNames = Object.getOwnPropertyNames(_Blob);
    for (let i = 0; i < propNames.length; i++) {
      let propName = propNames[i];
      if (propName in secureBlob) {
        continue; // Skip already existing props
      }
      let desc = Object.getOwnPropertyDescriptor(_Blob, propName);
      Object.defineProperty(secureBlob, propName, desc);
    }

    secureBlob.prototype = _Blob.prototype;
    return secureBlob;
  }(Blob);

  window.addEventListener('message', function (event) {
    if (event.source !== window) {
      return;
    }
    const message = event.data;
    switch (message.method) {
      case 'updateLocation':
        if ((typeof message.info === 'object') && (typeof message.info.coords === 'object')) {
          hookedObj.genLat = message.info.coords.lat;
          hookedObj.genLon = message.info.coords.lon;
          hookedObj.fakeGeo = message.info.fakeIt;
        }
        break;
      default:
        break;
    }
  }, false);
  //]]>
}
          )();</script>
  <!-- svg-source:excalidraw -->
  
  <defs>
    <style class="style-fonts">
      @font-face {
        font-family: "Virgil";
        src: url("https://excalidraw.com/Virgil.woff2");
      }
      @font-face {
        font-family: "Cascadia";
        src: url("https://excalidraw.com/Cascadia.woff2");
      }
    </style>
  </defs>
  <g stroke-linecap="round"><g transform="translate(71.0114484882339 85.26727840604008) rotate(0 -11.415840633766777 -9.482124420005619)" fill-rule="evenodd"><path d="M-0.85 -0.41 L1.51 1.02 L-2.95 0.01 L-4.17 -0.41 L-5.78 -4.32 L-7.79 -5.78 L-10.35 -5.44 L-16.5 -3.64 L-16.01 -6.54 L-21.3 -8.22 L-22.47 -7.96 L-22.23 -10.4 L-19.66 -16.78 L-18.54 -15.47 L-17.75 -15.66 L-15.02 -19.47 L-9.83 -19.8 L-7.32 -18.51 L-6.1 -20.51 L-0.23 -21.13 L2.62 -24.79 L4.01 -26.24 L4.53 -31.78 L7.88 -33.41 L8.78 -37.38 L10.37 -39.09 L6.48 -40.42 L6.6 -41.44 L7.91 -42.51 L7.52 -42.45 L6.48 -44.61 L6.01 -47.04 L3.55 -44.6 L0.9 -47.08 L0.39 -49.32 L-3.05 -49.37 L-1.75 -50.55 L-7.15 -47.64 L-9.71 -48.98 L-10.76 -46.58 L-13.45 -46.07 L-17.3 -45.34 L-19.38 -44.24 L-23.18 -42.79 L-22.39 -43.33 L-24.87 -40.65 L-28.46 -36.06 L-28.9 -35.59 L-27.33 -36.26 L-27.97 -39.67 L-26.7 -39.76 L-22.23 -40.99 L-22.04 -44.66 L-18.71 -45.51 L-13.85 -45.84 L-13.93 -45.65 L-10.19 -44.71 L-6.48 -44.76 L-3.17 -43.58 L-1.01 -41.14 L-0.99 -37.71 L-0.23 -36.02 L0.13 -35.32 L3.08 -33.57 L0.23 -31.18 L3.43 -28.39 L-0.82 -28.54 L-1.86 -25.36 L-6.13 -26.01 L-7.17 -25.09 L-11.88 -26.65 L-17.22 -26.64 L-19.19 -26.69 L-20.89 -24.28 L-21.65 -23.06 L-23.17 -22.86 L-25.4 -21.81 L-26.42 -18.48 L-30.34 -18 L-31.1 -14.18 L-31.78 -12.51 L-30.56 -10.56 L-30.3 -9 L-31.26 -5.67 L-30.93 -5.72 L-31.95 -3.75 L-29.8 -0.81 L-28.97 1.75 L-30.72 0.38 L-28.96 1.58 L-26.08 3.81 L-24.87 3.33 L-24.36 4.09 L-23.73 3.63 L-18.13 2.91 L-18.61 4.2 L-15.98 4.99 L-12.66 7.82 L-10.59 6.16 L-8.78 10.02 L-6.62 11.99 L-3.81 13.54 L-3.03 14.57 L-1.85 15.3 L-0.57 18.13 L-2.16 17.54 L-0.06 17.94 L-2.09 19.58 L-2.36 20.38 L-1.73 22.66 L-6.17 24.24 L-7.66 27.33 L-11.96 27.36 L-14.45 26.82 L-16.01 25.13 L-18.91 24.53 L-22.66 23.97 L-23.92 20.93 L-28.33 17.37 L-25.58 19.16 L-28.23 17.61 L-26.87 19.68 L-27.4 23.25 L-26.75 24.64 L-26.08 23.84 L-22.71 26.43 L-21.95 29.4 L-20.98 27.09 L-16.74 29.02 L-17.81 29.77 L-16.27 30.87 L-11.56 30.65 L-10.39 30.15 L-8.89 30.36 L-5.74 27.43 L-0.78 25.81 L-0.61 20.12 L1.56 17.08 L5.42 15.09 L6.09 16.96 L3.33 12.78 L2.77 12.16 L4.04 10.19 L4.88 9.24 L5.3 4.91 L3.65 3.83 L0.8 1.59 L0.24 0.61 L-1.93 1.75" stroke="none" stroke-width="0" fill="black" fill-rule="evenodd"/><path d="M0 0 C0 0, 0 0, 0 0 M0 0 C0 0, 0 0, 0 0 M0.09 0.12 C-0.28 -0.43, -0.56 -0.58, -1.23 -1.12 M-0.06 0.05 C-0.42 -0.33, -0.78 -0.65, -1.09 -1.05 M-0.98 -0.95 C-1.25 -1.23, -1.63 -1.37, -2.31 -1.75 M-1.17 -1.04 C-1.52 -1.22, -1.89 -1.57, -2.35 -1.9 M-2.39 -1.87 C-3.44 -1.99, -3.77 -2.3, -5.43 -3.44 M-2.4 -2.02 C-2.93 -2.16, -3.59 -2.66, -5.18 -3.1 M-5.51 -3.09 C-6.06 -3.28, -6.75 -3.78, -8.05 -4.38 M-5.06 -3.28 C-6.23 -3.58, -7.43 -3.8, -8.38 -4.22 M-8.1 -4.19 C-9.46 -4.62, -10.54 -4.58, -11.28 -4.72 M-8.41 -4.05 C-9.24 -4.19, -10.28 -4.35, -11.45 -4.59 M-11.77 -4.87 C-12.23 -4.74, -12.71 -4.82, -14.39 -5.37 M-11.43 -4.65 C-12.38 -4.82, -13.47 -5.07, -14.62 -5.19 M-14.42 -5.27 C-15.24 -5.31, -16.46 -5.84, -17.5 -5.96 M-14.67 -5.2 C-15.67 -5.65, -16.64 -5.82, -17.3 -5.89 M-17.47 -5.98 C-17.98 -6.05, -18.79 -6.32, -19.91 -6.89 M-17.47 -6.06 C-18.05 -6.18, -18.73 -6.58, -19.94 -7.1 M-19.84 -6.98 C-20.15 -7.12, -20.19 -7.35, -20.8 -7.76 M-19.84 -7.04 C-19.97 -7.16, -20.26 -7.4, -20.75 -7.69 M-20.91 -7.75 C-20.98 -7.93, -21.17 -8.09, -21.65 -8.63 M-20.74 -7.77 C-21.09 -8.03, -21.45 -8.41, -21.57 -8.53 M-21.21 -8.28 C-22.12 -10.22, -21.19 -11.91, -21.68 -16.13 M-21.39 -8.78 C-21.8 -10.92, -21.66 -13.36, -21.9 -16 M-21.7 -16.45 C-21.14 -16.6, -20.44 -16.33, -18.62 -16.28 M-21.67 -16.29 C-21.11 -16.41, -20.27 -16.55, -18.53 -16.65 M-18.46 -16.58 C-18.03 -16.73, -16.71 -16.7, -15.62 -16.79 M-18.56 -16.46 C-17.86 -16.8, -17.12 -16.91, -15.91 -17.03 M-16.06 -16.91 C-14.62 -17.35, -13.7 -17.55, -13.45 -17.56 M-15.88 -17.05 C-15.17 -17.02, -14.24 -17.22, -13.16 -17.46 M-13.05 -17.62 C-12.42 -17.71, -11.99 -17.89, -10.78 -18.49 M-13.23 -17.66 C-12.25 -17.9, -11.39 -18.16, -10.59 -18.36 M-10.88 -18.4 C-9.94 -18.76, -8.91 -19.16, -8.2 -19.22 M-10.61 -18.35 C-10.07 -18.57, -9.55 -18.78, -8.21 -19.23 M-8.19 -19.01 C-7.76 -19.65, -7.03 -19.55, -6.12 -20.21 M-8.38 -19.13 C-7.56 -19.46, -6.57 -19.97, -5.96 -20.13 M-6.37 -19.71 C-4.57 -20.86, -2.92 -22.03, -2.12 -22.49 M-6.14 -20.04 C-4.33 -21.21, -2.87 -22.07, -1.8 -22.35 M-1.84 -22.52 C-1.39 -23.34, -0.29 -23.2, 1.3 -25.38 M-2.05 -22.27 C-0.57 -23.54, 0.61 -24.39, 1.62 -25.06 M1.65 -25.41 C2.88 -26.14, 3.47 -27.44, 4.66 -28.45 M1.4 -25.19 C2.07 -25.74, 2.95 -26.61, 4.12 -28.2 M4.47 -28.2 C4.69 -29.06, 5.11 -29.66, 6.76 -31.42 M4.13 -28.24 C5.1 -29.19, 5.82 -30.38, 6.43 -31.08 M6.6 -31.42 C7.12 -32.1, 7.41 -33.01, 7.77 -34.33 M6.35 -31.21 C6.93 -32.1, 7 -32.95, 7.78 -34.43 M7.67 -34.28 C7.8 -34.96, 8.08 -35.32, 8.28 -35.96 M7.75 -34.3 C7.84 -34.75, 7.99 -35.11, 8.14 -35.95 M8.33 -35.8 C8.15 -36.41, 8.42 -36.77, 8.53 -37.47 M8.17 -35.91 C8.23 -36.45, 8.41 -37.05, 8.46 -37.47 M8.54 -37.6 C8.47 -37.94, 8.28 -38.37, 8.4 -38.91 M8.38 -37.52 C8.43 -38.11, 8.35 -38.69, 8.45 -38.99 M8.31 -38.81 C8.45 -39.4, 8.25 -39.58, 8.11 -40.32 M8.37 -38.88 C8.38 -39.53, 8.26 -40.06, 8.23 -40.41 M8.18 -40.28 C8.04 -40.75, 7.86 -41.37, 7.78 -41.76 M8.24 -40.4 C8.03 -40.82, 7.87 -41.28, 7.85 -41.69 M7.95 -41.65 C7.65 -42.07, 7.6 -42.38, 7.09 -43.08 M7.78 -41.8 C7.73 -42, 7.48 -42.34, 7.11 -43.04 M7.2 -43.15 C6.99 -43.54, 6.63 -43.99, 6.34 -44.28 M7.15 -43 C6.88 -43.34, 6.61 -43.78, 6.28 -44.23 M6.34 -44.2 C5.93 -44.62, 5.51 -44.96, 5.15 -45.24 M6.28 -44.24 C5.94 -44.62, 5.68 -44.89, 5.19 -45.28 M5.35 -45.17 C5 -45.61, 4.61 -45.87, 3.86 -46.38 M5.33 -45.26 C4.82 -45.69, 4.25 -46, 3.97 -46.29 M3.91 -46.39 C3.46 -46.43, 2.79 -46.81, 2.58 -47.15 M3.97 -46.27 C3.61 -46.52, 3.24 -46.65, 2.39 -47.09 M2.3 -47.03 C1.75 -47.18, 1.26 -47.53, 0.59 -47.64 M2.35 -47.08 C1.78 -47.27, 1.21 -47.59, 0.62 -47.73 M0.67 -47.95 C-0.08 -47.78, -0.3 -47.91, -1.29 -48.49 M0.64 -47.75 C-0.1 -47.99, -0.74 -48.11, -1.41 -48.24 M-1.6 -48.07 C-1.84 -48.51, -2.29 -48.38, -3.7 -48.46 M-1.47 -48.2 C-2.13 -48.5, -3.04 -48.53, -3.77 -48.72 M-3.51 -48.49 C-4.4 -48.77, -4.8 -48.63, -6.2 -48.63 M-3.74 -48.63 C-4.33 -48.75, -4.93 -48.77, -6.24 -48.67 M-6.15 -48.71 C-7.4 -48.77, -8.44 -48.98, -9.08 -48.72 M-6.35 -48.75 C-6.94 -48.69, -7.5 -48.9, -9.1 -48.73 M-9.2 -48.88 C-9.95 -48.74, -10.27 -48.36, -12.15 -48.22 M-9.11 -48.75 C-9.74 -48.68, -10.35 -48.69, -12.19 -48.34 M-12.26 -48.35 C-12.42 -48.45, -13.15 -48.26, -14.42 -47.64 M-12.12 -48.43 C-12.72 -48.42, -13.25 -48.05, -14.45 -47.75 M-14.56 -47.84 C-14.78 -47.65, -15.67 -47.6, -17.07 -46.6 M-14.33 -47.86 C-15.37 -47.61, -16 -47.27, -17.06 -46.82 M-16.8 -46.73 C-17.49 -46.42, -18.6 -45.81, -19.78 -45.55 M-16.99 -46.95 C-17.62 -46.44, -18.43 -46.17, -19.57 -45.49 M-19.6 -45.39 C-20.51 -44.85, -21.25 -44.52, -21.88 -44.03 M-19.48 -45.6 C-19.99 -45.16, -20.75 -44.74, -22.04 -44.07 M-22.18 -43.81 C-22.79 -43.19, -23.5 -42.87, -24.22 -41.92 M-21.86 -43.98 C-22.5 -43.47, -22.89 -43.18, -23.98 -42.31 M-24.35 -42.16 C-24.64 -41.52, -25.13 -40.48, -26.02 -40.14 M-24.14 -42.26 C-24.57 -41.51, -25.34 -40.92, -25.77 -40.02 M-26.06 -40.36 C-26.06 -39.44, -26.18 -39, -27.25 -37.88 M-25.73 -40.23 C-26.19 -39.44, -26.76 -38.65, -27.03 -38 M-27.13 -37.71 C-27.15 -37.3, -27.68 -36.42, -27.8 -35.51 M-27.14 -37.89 C-27.25 -37.12, -27.38 -36.55, -27.79 -35.41 M-27.78 -35.44 C-27.55 -35.73, -27.5 -36.35, -27.22 -37.12 M-27.66 -35.34 C-27.62 -35.97, -27.36 -36.47, -27.14 -37.01 M-27.24 -37.01 C-27.15 -37.35, -26.84 -37.74, -26.68 -38.45 M-27.21 -36.9 C-26.95 -37.6, -26.76 -38.04, -26.5 -38.37 M-26.3 -38.64 C-26.46 -38.71, -26.05 -39.3, -24.61 -41.02 M-26.5 -38.3 C-26.07 -38.87, -25.91 -39.56, -24.99 -40.72 M-25.16 -40.76 C-24.38 -41.45, -23.65 -41.92, -22.72 -43 M-24.93 -40.74 C-24.21 -41.6, -23.38 -42.24, -22.98 -42.87 M-22.87 -42.73 C-22.23 -43.1, -21.8 -43.39, -20.51 -44.24 M-22.8 -42.7 C-22.4 -42.95, -21.96 -43.21, -20.58 -44.15 M-20.64 -44.01 C-19.79 -44.26, -18.97 -44.46, -17.92 -45.09 M-20.48 -44.28 C-19.53 -44.39, -18.56 -44.81, -17.77 -45.05 M-18.02 -45.12 C-17.39 -45.49, -16.91 -45.39, -14.94 -45.44 M-17.81 -45.07 C-16.94 -45.24, -16.17 -45.47, -14.94 -45.57 M-14.78 -45.4 C-14 -45.46, -13.25 -45.59, -12.4 -45.4 M-14.99 -45.68 C-14.27 -45.69, -13.71 -45.6, -12.14 -45.64 M-12.24 -45.39 C-11.33 -45.33, -10.71 -45.31, -9.39 -45.38 M-12.36 -45.56 C-11.54 -45.59, -11 -45.45, -9.37 -45.19 M-9.53 -45.23 C-8.55 -45.03, -7.97 -44.6, -6.75 -44.44 M-9.28 -45.1 C-8.93 -45.11, -8.26 -44.74, -6.65 -44.26 M-6.57 -44.16 C-5.89 -43.84, -5.12 -43.47, -3.95 -43.27 M-6.77 -44.29 C-6.18 -44.13, -5.51 -43.79, -4.31 -43.09 M-4.29 -43.41 C-3.84 -43.05, -3.31 -42.42, -2.08 -41.43 M-4.1 -43.12 C-3.62 -42.72, -2.84 -42.25, -1.95 -41.65 M-2.02 -41.85 C-1.36 -40.99, -0.68 -39.99, -0.1 -39.64 M-2 -41.66 C-1.54 -40.95, -0.83 -40.49, -0.12 -39.75 M-0.43 -39.44 C0.03 -39.07, 0.34 -38.23, 1.05 -37.17 M-0.13 -39.61 C0.2 -38.96, 0.77 -38.3, 1.27 -37.41 M0.96 -37.18 C1.26 -36.48, 1.71 -35.22, 2.1 -34.58 M1.18 -37.23 C1.45 -36.59, 1.73 -35.65, 2.1 -34.68 M2.06 -34.6 C2.37 -34.16, 2.35 -33.56, 2.05 -31.73 M2 -34.86 C2.07 -33.87, 2.19 -32.84, 2.24 -31.71 M2.36 -31.9 C2.13 -31.5, 2.29 -31.04, 2.09 -30.09 M2.22 -31.88 C2.08 -31.34, 2.12 -30.78, 2.13 -30.26 M2.15 -30.31 C1.96 -29.59, 1.9 -29.07, 1.74 -28.61 M2.09 -30.15 C2.05 -29.73, 1.84 -29.34, 1.7 -28.53 M1.71 -28.69 C1.24 -28.32, 0.75 -28.18, -0.43 -27.4 M1.57 -28.57 C0.91 -28.29, 0.22 -27.74, -0.6 -27.49 M-0.76 -27.3 C-1.08 -27.36, -1.47 -26.85, -2.71 -26.49 M-0.61 -27.37 C-1.31 -27.17, -2.23 -26.91, -2.77 -26.71 M-2.91 -26.69 C-3.38 -26.61, -4.35 -26.15, -5.11 -26.35 M-2.74 -26.6 C-3.76 -26.52, -4.72 -26.26, -5.09 -26.1 M-5.29 -26.11 C-5.75 -26.09, -6.61 -26, -7.31 -25.75 M-5.29 -26.07 C-5.78 -25.99, -6.51 -26, -7.56 -25.9 M-7.1 -26.06 C-9.26 -26.06, -11.1 -25.41, -12.11 -25.78 M-7.76 -25.74 C-8.55 -25.6, -9.86 -25.52, -12.36 -25.57 M-11.97 -25.79 C-14.01 -25.13, -14.73 -25.28, -16.73 -25.09 M-12.28 -25.68 C-14.05 -25.6, -15.57 -25.27, -16.57 -25.44 M-16.63 -25.28 C-17.24 -25, -18.11 -25.15, -19.01 -24.86 M-16.71 -25.29 C-17.63 -25.19, -18.43 -25.09, -18.85 -25.04 M-18.93 -25.09 C-19.58 -24.88, -19.78 -24.71, -20.87 -24.66 M-18.91 -24.93 C-19.79 -24.84, -20.56 -24.79, -20.96 -24.62 M-21.04 -24.73 C-21.63 -24.32, -22.49 -24.15, -22.8 -23.96 M-21.06 -24.69 C-21.8 -24.37, -22.55 -24.21, -22.94 -24.03 M-22.84 -24.04 C-23.59 -23.78, -24.28 -23.42, -24.96 -23.19 M-22.98 -23.9 C-23.41 -23.72, -23.93 -23.56, -24.72 -23.13 M-24.88 -22.93 C-25.02 -22.66, -25.83 -22.5, -26.62 -21.79 M-24.82 -23.12 C-25.23 -22.57, -25.88 -22.22, -26.44 -21.74 M-26.43 -21.92 C-26.8 -21.21, -27.11 -21.06, -27.85 -19.96 M-26.44 -21.66 C-26.78 -21.42, -27.2 -20.96, -28.07 -20.17 M-28.22 -19.99 C-28.44 -19.38, -29.17 -18.38, -29.4 -17.9 M-27.9 -20.04 C-28.4 -19.46, -28.86 -18.53, -29.38 -18.02 M-29.4 -17.82 C-29.36 -17.32, -29.88 -16.58, -30.55 -15.46 M-29.3 -17.82 C-29.82 -16.98, -29.99 -16.04, -30.5 -15.24 M-30.58 -15.12 C-30.51 -14.57, -30.83 -13.92, -30.87 -12.79 M-30.55 -15.13 C-30.68 -14.22, -30.72 -13.4, -30.83 -12.78 M-30.93 -12.88 C-30.9 -11.9, -30.74 -11.48, -31.14 -10.64 M-30.73 -12.78 C-30.84 -12.24, -30.87 -11.66, -30.92 -10.66 M-30.96 -10.45 C-31.22 -9.8, -30.95 -9.25, -31.26 -8.49 M-31 -10.5 C-31.03 -9.83, -31.17 -8.95, -31.22 -8.64 M-31.23 -8.67 C-31.1 -7.91, -31.31 -7.27, -31.22 -6.63 M-31.17 -8.55 C-31.23 -8.11, -31.2 -7.85, -31.27 -6.83 M-31.25 -6.88 C-31.17 -6.49, -31.23 -6.03, -31.15 -5.22 M-31.25 -6.7 C-31.17 -6.28, -31.24 -5.88, -31.34 -5.08 M-31.2 -5.17 C-31.12 -4.76, -31.16 -4.39, -31.37 -3.77 M-31.26 -5.21 C-31.32 -4.79, -31.27 -4.28, -31.2 -3.72 M-31.17 -3.85 C-30.9 -2.96, -31.02 -1.94, -30.9 -1.49 M-31.18 -3.78 C-31.21 -3.28, -31.02 -2.7, -31.03 -1.36 M-31.11 -1.31 C-30.98 -0.9, -30.79 -0.1, -30.66 0.48 M-31.01 -1.31 C-30.9 -0.98, -30.71 -0.71, -30.44 0.42 M-30.43 0.48 C-30.34 0.53, -30.1 0.83, -29.77 1.55 M-30.46 0.36 C-30.3 0.72, -30.01 1.2, -29.75 1.56 M-29.75 1.63 C-29.4 1.9, -29.31 2.2, -28.61 2.42 M-29.79 1.58 C-29.38 1.91, -29.03 2.29, -28.75 2.52 M-28.79 2.61 C-28.42 2.69, -28.11 2.9, -27.52 3.06 M-28.75 2.51 C-28.2 2.71, -27.74 2.94, -27.56 3.07 M-27.58 3.18 C-27.24 3.15, -26.75 3.31, -26.03 3.54 M-27.52 3.04 C-27.05 3.16, -26.59 3.22, -25.95 3.39 M-26.13 3.41 C-25.62 3.33, -25.06 3.62, -24.25 3.53 M-25.97 3.49 C-25.48 3.44, -24.72 3.61, -24.31 3.61 M-24.28 3.77 C-23.34 3.52, -22.94 3.83, -22.17 3.88 M-24.19 3.71 C-23.78 3.75, -23.35 3.78, -22.24 3.94 M-22.12 3.63 C-21.88 3.88, -21.2 3.81, -20.19 3.93 M-22.17 3.93 C-21.44 3.83, -20.69 3.94, -20.13 4.17 M-19.92 4.35 C-19.15 4.49, -17.92 4.73, -17.52 4.78 M-20.01 4.05 C-19.31 4.32, -18.62 4.26, -17.59 4.59 M-17.76 4.35 C-17.02 4.88, -16.04 4.8, -14.99 5.39 M-17.53 4.6 C-16.64 4.87, -15.86 4.98, -14.92 5.35 M-15.05 5.32 C-14.25 5.68, -13.18 5.97, -11.93 6.04 M-14.7 5.32 C-13.83 5.48, -12.87 5.94, -11.98 6.3 M-11.69 6.43 C-10.94 6.64, -10.33 6.61, -8.93 7.79 M-11.85 6.37 C-10.89 6.54, -9.99 7.13, -8.76 7.69 M-8.74 7.47 C-8.16 7.92, -7.83 8.34, -6.77 9.38 M-8.71 7.66 C-8.23 8.25, -7.6 8.81, -6.79 9.31 M-6.93 9.59 C-6.65 9.64, -6.2 10.28, -5.31 11.06 M-6.87 9.43 C-6.26 9.9, -5.73 10.64, -5.53 10.99 M-5.48 11.19 C-4.93 11.77, -4.64 12.11, -4.34 12.54 M-5.43 11.11 C-5.02 11.67, -4.41 12.23, -4.25 12.54 M-4.1 12.42 C-4.06 13.12, -3.59 13.7, -3.26 14.07 M-4.28 12.58 C-3.97 13.18, -3.54 13.6, -3.25 14.03 M-3.19 14.22 C-3.26 14.53, -2.94 14.78, -2.67 15.56 M-3.32 14.08 C-3.06 14.57, -2.79 15.09, -2.56 15.47 M-2.51 15.54 C-2.31 16.07, -2.42 16.44, -2.15 16.92 M-2.61 15.55 C-2.41 16.1, -2.26 16.46, -2.12 16.94 M-2.05 16.81 C-2.15 17.34, -1.91 17.62, -1.9 18.08 M-2.21 16.83 C-2.14 17.26, -2.01 17.57, -1.95 18.11 M-2.02 18.12 C-1.95 18.38, -2.01 18.7, -2.02 19.36 M-1.94 18.18 C-1.92 18.48, -1.94 18.71, -1.89 19.34 M-1.97 19.26 C-1.89 19.73, -2.03 20.15, -2.02 20.45 M-1.95 19.39 C-1.95 19.71, -2.08 20, -2.15 20.47 M-2.09 20.46 C-2.22 20.79, -2.31 20.91, -2.51 21.39 M-2.08 20.42 C-2.19 20.78, -2.41 21.22, -2.46 21.51 M-2.62 21.35 C-2.89 22, -3.37 22.56, -3.65 23.36 M-2.48 21.57 C-2.74 21.9, -3.12 22.54, -3.71 23.28 M-3.5 23.15 C-4.2 23.48, -4.35 24.05, -5.42 24.83 M-3.6 23.2 C-4.14 23.68, -4.53 23.87, -5.5 24.64 M-5.64 24.44 C-6.2 24.81, -7.23 25.6, -7.73 25.79 M-5.44 24.58 C-6.26 25.09, -6.96 25.21, -7.64 25.65 M-7.41 25.45 C-8.81 26.03, -9.73 26.27, -9.97 26.19 M-7.58 25.67 C-8.61 25.76, -9.27 25.95, -10.31 26.28 M-10.25 26.45 C-10.68 26.06, -11.77 26.57, -12.75 26.33 M-10.16 26.33 C-11.31 26.28, -12.17 26.47, -12.9 26.35 M-12.9 26.51 C-14.06 26.49, -14.87 26.11, -16.16 26.23 M-12.97 26.36 C-14.1 26.17, -15.26 26.13, -15.8 25.92 M-15.68 26.14 C-17.21 25.7, -18.03 25.29, -18.52 25.45 M-15.95 26.11 C-16.68 25.84, -17.51 25.58, -18.65 25.29 M-18.61 25.01 C-19.27 25.07, -20.3 24.68, -21.37 23.57 M-18.71 25.2 C-19.68 24.74, -20.69 24.26, -21.42 23.67 M-21.54 23.63 C-22.51 23.14, -23.32 22.41, -24.42 22.03 M-21.44 23.82 C-22.03 23.28, -22.89 22.88, -24.19 21.78 M-24.34 22.06 C-24.59 21.57, -25.08 20.97, -26.13 19.65 M-24.1 21.84 C-24.86 20.98, -25.57 20.08, -26.29 19.3 M-26.43 19.53 C-26.85 18.86, -27.12 18.29, -27.16 17.87 M-26.39 19.29 C-26.74 18.83, -27.02 18.38, -27.36 17.93 M-27.22 18.01 C-27.82 17.2, -27.86 16.66, -28.25 16.29 M-27.37 17.9 C-27.6 17.6, -27.73 17.27, -28.19 16.34 M-28.21 16.02 C-28.12 16.78, -27.55 17.39, -27.49 19.14 M-28.09 16.28 C-27.9 16.91, -27.68 17.85, -27.32 18.98 M-27.44 19.19 C-27.45 19.56, -26.77 20.36, -26.49 21.09 M-27.44 18.89 C-27.31 19.45, -27.05 20.24, -26.62 21.28 M-26.49 21.24 C-26.39 21.91, -25.92 22.44, -25.67 23.14 M-26.58 21.39 C-26.27 21.83, -26.22 22.04, -25.41 23.31 M-25.62 23.21 C-25.17 23.84, -25.01 23.99, -24.5 25.04 M-25.61 23.3 C-25.1 23.71, -24.98 24.22, -24.37 25.04 M-24.4 25.12 C-23.73 25.49, -23.23 26.22, -22.85 26.52 M-24.25 25.11 C-24.09 25.39, -23.64 25.67, -22.95 26.5 M-22.84 26.58 C-22.65 26.97, -22.21 27.2, -21.67 27.56 M-22.91 26.47 C-22.43 26.88, -21.93 27.41, -21.61 27.68 M-21.68 27.58 C-21.15 27.81, -20.82 28.12, -20.08 28.65 M-21.5 27.75 C-21.12 27.95, -20.62 28.2, -20.02 28.52 M-20.03 28.67 C-19.43 28.89, -18.93 28.96, -18.55 29.27 M-20.06 28.62 C-19.51 28.83, -19.14 29, -18.44 29.15 M-18.39 29.15 C-17.82 29.51, -17.43 29.6, -16.8 29.63 M-18.44 29.3 C-17.72 29.45, -17.09 29.59, -16.79 29.71 M-16.61 29.49 C-16.33 29.63, -15.83 29.69, -15.01 29.91 M-16.68 29.6 C-16.07 29.68, -15.51 29.76, -15.08 29.88 M-15.07 29.86 C-14.41 29.66, -13.72 29.74, -13.22 29.89 M-15.01 29.87 C-14.38 29.8, -13.7 29.85, -13.27 29.73 M-13.41 29.76 C-12.89 29.83, -12.46 29.53, -11.48 29.53 M-13.35 29.78 C-12.95 29.76, -12.38 29.68, -11.57 29.48 M-11.89 29.83 C-10.47 29.51, -10.14 28.94, -8.29 28.17 M-11.61 29.71 C-10.04 29.16, -8.78 28.64, -8.22 28.46 M-8.25 28.12 C-6.62 27.62, -5.54 26.89, -5 26.53 M-8.12 28.32 C-7.07 28.07, -6.22 27.46, -4.69 26.89 M-4.93 26.67 C-3.63 25.79, -2.41 24.54, -1.63 24.58 M-4.61 26.75 C-4.11 26.22, -3.43 25.71, -1.67 24.28 M-1.97 24.1 C-1.03 23.68, 0.23 22.37, 0.65 21.43 M-1.76 24.48 C-1.09 23.72, -0.81 23.41, 0.8 21.55 M0.92 21.41 C1.43 20.59, 2.4 19.89, 3.2 18.39 M0.84 21.79 C1.4 21.03, 1.72 20.05, 2.84 18.5 M2.7 18.31 C2.97 17.69, 3.41 17.13, 3.68 16.75 M2.81 18.51 C3.12 17.78, 3.49 17.35, 3.69 16.69 M3.77 16.59 C3.6 16.37, 3.76 15.92, 4.34 14.88 M3.58 16.69 C3.83 16.23, 3.94 15.52, 4.26 14.98 M4.32 14.8 C4.3 14.7, 4.56 14, 4.58 13.26 M4.27 14.94 C4.33 14.24, 4.42 13.63, 4.58 13.09 M4.59 13.18 C4.72 12.38, 4.82 11.88, 4.66 11.26 M4.57 13.06 C4.68 12.75, 4.65 12.23, 4.66 11.27 M4.73 11.4 C4.67 10.43, 4.74 9.94, 4.7 9.41 M4.75 11.36 C4.73 10.71, 4.75 10.23, 4.61 9.49 M4.63 9.59 C4.61 8.64, 4.6 8.2, 4.16 7.44 M4.7 9.39 C4.55 8.87, 4.52 8.43, 4.3 7.53 M4.19 7.57 C4.18 6.62, 3.67 5.88, 3.61 5.75 M4.27 7.44 C4.15 6.9, 3.88 6.01, 3.65 5.69 M3.55 5.51 C3.32 4.99, 2.8 4.28, 2.69 3.78 M3.63 5.7 C3.26 4.84, 3.05 4.29, 2.83 3.78 M2.6 3.54 C2.43 2.95, 1.79 2.36, 1.5 1.96 M2.85 3.81 C2.42 3.37, 2.28 2.89, 1.65 1.77 M1.64 1.69 C1.11 1.3, 0.7 1.08, 0.12 -0.05 M1.65 1.92 C1.3 1.54, 0.9 0.98, 0.04 0.02 M0 0 C0 0, 0 0, 0 0 M0 0 C0 0, 0 0, 0 0 M0 0 C0 0, 0 0, 0 0 M0 0 C0 0, 0 0, 0 0" stroke="#000000" stroke-width="1" fill="none"/></g></g><g stroke-linecap="round"><g transform="translate(109.81143628120265 80.35730526150883) rotate(0 -47.72494787099038 -0.34524813518697783)" fill-rule="evenodd"><path d="M0.63 1.79 L1.67 -1.89 L-0.38 -2.87 L-1 -2.33 L-8.21 -5.52 L-6.45 -7.03 L-11.06 -11.86 L-9.19 -10.27 L-13.34 -13.7 L-9.37 -15.89 L-5.34 -22.64 L-5.26 -25.65 L-2.01 -30.31 L-1.21 -33.82 L-1.15 -39.3 L-0.58 -45.93 L-2.65 -51.1 L-2.75 -52.47 L-4.43 -58.16 L-7.2 -60.84 L-12.73 -62.41 L-13.52 -64.93 L-16.37 -67.57 L-15.59 -66.55 L-16.87 -69.28 L-21.14 -68.48 L-24.48 -68.31 L-25.95 -70.47 L-27.52 -68.35 L-29.88 -69.17 L-37.69 -68.57 L-39.72 -70.98 L-44.09 -69.81 L-49.2 -68.8 L-55.55 -68.09 L-61.67 -66.39 L-67.96 -63.11 L-72.56 -60.46 L-75.26 -57.56 L-81.34 -52.62 L-85.47 -49.03 L-87.56 -45.46 L-92.66 -42.05 L-94.82 -38.48 L-96.23 -38.26 L-97.94 -36.52 L-96.35 -32.35 L-96.34 -28.9 L-79.37 -29.47 L-66.96 -29.77 L-71.48 -31.22 L-79.89 -33.26 L-85.82 -34.92 L-94.62 -36.03 L-91.77 -37.8 L-92.71 -38.46 L-89.28 -41.31 L-88.57 -42.94 L-84.8 -47.39 L-83.2 -48.24 L-83.86 -50.77 L-77.65 -50.06 L-78.05 -53.13 L-73.04 -57.06 L-68.99 -55.09 L-66.54 -58.81 L-60.98 -61.02 L-52.37 -58.93 L-51.03 -59.67 L-45.85 -61.93 L-42.85 -60.7 L-41.55 -62.01 L-34.84 -61.1 L-32.89 -60.5 L-30.97 -60.18 L-25.36 -55.66 L-25.24 -56.17 L-20.52 -54.71 L-21.75 -50.25 L-15.97 -49.79 L-14.63 -46.53 L-13.41 -45.98 L-12.11 -40.07 L-14.56 -37.3 L-12.25 -37.25 L-12.6 -32.01 L-10.65 -28.51 L-12.97 -26.69 L-13.47 -25.72 L-13.36 -22.05 L-13.5 -17.67 L-13.06 -16.15 L-18.21 -10.5 L-17.86 -7.48 L-23.56 -5.84 L-22.24 -5.15 L-20.82 -4.11 L-22.06 -2.16 L-22.82 0.81 L-21.18 -0.5 L-18.42 1.65 L-15.2 7.57 L-12.45 9.91 L-10.35 11.87 L-11 11.47 L-9.83 15.93 L-9.05 19.68 L-7.05 19.3 L-7.09 21.71 L-4.95 28.31 L-5.99 33.7 L-7.32 34.99 L-10.41 39.09 L-9.01 44.62 L-12.99 47.77 L-16.23 48.17 L-20.47 50.75 L-23.22 51.64 L-25.62 56.05 L-28.31 56.12 L-35.3 56.8 L-37.87 57.74 L-42.41 59.15 L-46.34 59.69 L-49.94 58.34 L-56.24 56.26 L-58.91 54.67 L-66.12 52.75 L-68.42 53.49 L-74.62 49.57 L-75.64 49.23 L-80.42 46.16 L-83.79 41.36 L-86.3 41.03 L-90.15 34.43 L-91.05 31.76 L-94.07 30.04 L-93.56 22.99 L-92.97 18.88 L-89.52 18.55 L-88.41 17.65 L-83.81 19.32 L-78.5 16.73 L-72.12 19.25 L-67.69 17.27 L-65.48 17.65 L-70.05 15.21 L-76.44 15.82 L-80.6 12.52 L-82.21 13.54 L-84.58 12.17 L-90.54 12.65 L-90.28 16.03 L-93.25 18.07 L-96.03 19.06 L-98.21 17.78 L-98.25 21.28 L-97.37 22.82 L-99.41 23.74 L-98.73 27.3 L-100.04 28.59 L-98.34 32.39 L-98.74 35.03 L-96.35 38.3 L-96.16 39.31 L-96.93 44.35 L-95.03 46.76 L-92.35 48.87 L-88.13 51.77 L-86.9 53.29 L-86.31 57.78 L-80.99 58.08 L-78.47 61.31 L-79.03 62.79 L-75.58 63.92 L-69.53 66.02 L-66.68 68.25 L-65.07 69.45 L-59.12 70.45 L-58.8 70.73 L-54.16 67.49 L-51.02 69.11 L-46.81 69.05 L-42.5 67.72 L-42.41 66.33 L-38.12 64.78 L-32.34 63.56 L-30.78 65.58 L-26.04 62.06 L-25.46 58.44 L-19.02 60.21 L-19.21 54.78 L-12.87 53.42 L-13.12 53.07 L-11.2 50.21 L-8.37 46.82 L-3.73 44.13 L-2.18 40.62 L-2.21 37.81 L0.16 34.14 L3.54 30.92 L1.29 26.09 L5.64 24.21 L3.8 18.25 L6.12 15.5 L2.2 11.45 L5 11.65 L2.96 5.6 L0.18 4.6 L0.48 -0.34 L1.54 -1.38" stroke="none" stroke-width="0" fill="black" fill-rule="evenodd"/><path d="M0 0 C0 0, 0 0, 0 0 M0 0 C0 0, 0 0, 0 0 M0.06 -0.19 C-0.25 -0.48, -0.89 -1.1, -1.19 -1.71 M-0.06 0.02 C-0.46 -0.54, -0.82 -1.22, -1.36 -1.73 M-1.03 -1.74 C-1.68 -2.19, -2.06 -2.53, -2.82 -3.7 M-1.3 -1.62 C-1.74 -2.29, -2.06 -2.76, -2.83 -3.54 M-3.26 -3.1 C-3.58 -4.11, -5.18 -6.07, -6.57 -6.91 M-2.57 -3.45 C-3.61 -4.9, -4.85 -5.61, -6.47 -7.05 M-6.39 -7.1 C-7.02 -7.97, -7.31 -8.67, -7.83 -8.94 M-6.18 -7.2 C-6.71 -7.6, -7.23 -8.2, -7.93 -8.83 M-8.03 -9.12 C-8.38 -9.29, -8.5 -9.61, -9.53 -10.35 M-7.94 -8.85 C-8.38 -9.24, -8.76 -9.67, -9.64 -10.61 M-9.6 -10.48 C-9.91 -10.94, -10.27 -11.55, -10.82 -11.93 M-9.48 -10.5 C-10.07 -11.11, -10.6 -11.61, -10.86 -12.06 M-10.76 -11.87 C-11.16 -12.29, -11.29 -12.47, -11.71 -13.18 M-10.89 -12.04 C-11.11 -12.33, -11.3 -12.6, -11.83 -13.24 M-11.62 -12.74 C-11.05 -13.71, -10.29 -14.93, -8.58 -17.44 M-11.83 -13.09 C-10.71 -14.76, -9.6 -16.2, -8.55 -17.47 M-8.87 -16.96 C-6.99 -18.94, -6.21 -20.73, -5.99 -21.99 M-8.12 -17.12 C-7.6 -18.71, -6.56 -19.58, -5.79 -21.56 M-5.6 -21.56 C-5.12 -22.53, -4.78 -23.92, -3.06 -26.03 M-5.52 -21.42 C-5.32 -22.66, -4.54 -23.43, -3.61 -25.98 M-3.8 -25.88 C-2.9 -26.82, -2.9 -28.16, -1.91 -31.04 M-3.65 -25.97 C-3.04 -27.68, -2.63 -29.38, -2.21 -30.6 M-2.4 -31.14 C-2.08 -31.84, -1.52 -32.74, -1.69 -35.71 M-2.24 -30.81 C-1.53 -32.41, -1.27 -33.8, -1.15 -35.43 M-1.66 -35.6 C-0.94 -36.99, -0.68 -38.58, -1.06 -40.18 M-1.22 -35.77 C-1.33 -37.12, -1.19 -38.41, -0.81 -40.32 M-0.64 -40.62 C-0.93 -42.04, -1.66 -43.31, -1.39 -45.13 M-1.23 -40.15 C-1.18 -41.37, -1.12 -42.57, -1.54 -45.06 M-1.21 -45.01 C-1.93 -46.26, -2.22 -47.97, -2.21 -49.09 M-1.33 -45.22 C-1.7 -46.52, -1.87 -47.78, -2.31 -49.65 M-2.77 -49.88 C-2.95 -51.14, -3.15 -51.98, -4.45 -54.23 M-2.39 -49.73 C-3.09 -51.35, -3.59 -52.94, -4.09 -53.89 M-4.47 -54.19 C-5.23 -54.74, -5.81 -56.64, -6.07 -58.11 M-4.3 -53.75 C-4.73 -55.34, -5.47 -56.5, -6.15 -57.59 M-6.48 -57.61 C-7 -58.58, -7.67 -59.24, -8.87 -61.29 M-6.17 -57.95 C-7.19 -59.22, -8.21 -60.18, -9.4 -61.18 M-9.23 -61.45 C-9.63 -61.7, -10.5 -62.59, -10.69 -63.03 M-9.08 -61.36 C-9.6 -61.81, -10.13 -62.22, -10.69 -62.95 M-10.65 -62.77 C-11.47 -63.29, -11.66 -63.94, -12.69 -64.29 M-10.85 -62.8 C-11.26 -63.34, -11.97 -63.82, -12.6 -64.36 M-12.66 -64.4 C-13.48 -64.78, -13.81 -65.46, -14.35 -65.63 M-12.52 -64.31 C-13.26 -64.91, -14.02 -65.27, -14.48 -65.74 M-14.26 -65.64 C-15 -66.05, -15.83 -66.38, -16.58 -66.59 M-14.34 -65.66 C-15.18 -66.03, -15.74 -66.39, -16.5 -66.82 M-16.69 -66.97 C-17.12 -67.12, -17.74 -67.44, -18.88 -67.65 M-16.56 -66.85 C-16.98 -67.11, -17.62 -67.27, -18.68 -67.82 M-18.87 -67.83 C-19.34 -67.96, -20.09 -68.33, -20.82 -68.41 M-18.75 -67.7 C-19.22 -67.99, -19.89 -68.24, -20.93 -68.57 M-20.9 -68.53 C-21.83 -68.53, -22.24 -68.86, -23.2 -69.09 M-20.96 -68.69 C-21.67 -68.85, -22.09 -68.98, -23.53 -69.11 M-23.28 -69.45 C-24.14 -69.24, -24.8 -69.29, -25.83 -69.66 M-23.39 -69.31 C-24.27 -69.41, -25.04 -69.53, -26 -69.73 M-26.13 -69.51 C-26.84 -69.89, -27.31 -69.76, -28.62 -69.86 M-26.13 -69.61 C-26.87 -69.64, -27.39 -69.69, -28.83 -69.81 M-28.75 -69.94 C-29.45 -69.95, -30.7 -69.98, -31.84 -69.84 M-28.62 -69.86 C-29.78 -70.01, -30.72 -69.94, -31.52 -70.01 M-31.32 -70.19 C-32.51 -70.4, -33.58 -70.27, -35.83 -70.24 M-31.71 -69.72 C-33.06 -69.98, -34.46 -70.13, -35.7 -70.09 M-35.81 -70.18 C-37.66 -69.84, -39.87 -69.89, -40.49 -69.76 M-36.04 -70.36 C-36.81 -70.13, -38.13 -70.08, -40.78 -69.98 M-40.51 -70.35 C-41.87 -70.36, -42.87 -70.1, -45.2 -69.85 M-40.46 -70.14 C-42.1 -69.8, -43.17 -69.75, -45.44 -69.23 M-45.42 -69.09 C-47.41 -69.12, -47.99 -69.01, -51.13 -68.55 M-45.55 -69.64 C-47.3 -69.16, -48.82 -68.74, -50.57 -68.37 M-50.82 -67.88 C-51.63 -67.88, -53.09 -67.32, -55.65 -67.34 M-50.67 -68.16 C-52.2 -67.9, -54.11 -67.26, -56.12 -66.62 M-56.51 -66.54 C-57.3 -66.05, -58.68 -66.38, -60.98 -65.4 M-56 -66.97 C-57.55 -66.19, -59.49 -65.5, -61.48 -64.74 M-61.06 -65.36 C-62.43 -64.14, -64.4 -63.22, -66.2 -62.77 M-61.05 -65.27 C-63.23 -64.16, -65.35 -63.55, -66.67 -63.05 M-66.7 -63 C-67.69 -61.78, -69.53 -60.85, -71.83 -60.69 M-66.46 -62.99 C-68.28 -61.96, -70.54 -60.52, -71.37 -60.49 M-71.8 -60.15 C-72.67 -60.01, -73.77 -58.96, -76.9 -57.19 M-71.78 -59.97 C-72.6 -59.83, -73.8 -58.99, -76.71 -57.59 M-76.94 -57.42 C-77.65 -55.89, -79.48 -54.92, -81.62 -54.07 M-76.7 -57.25 C-77.65 -56.7, -78.64 -55.75, -81.33 -53.91 M-80.76 -54.36 C-82.42 -53.32, -83.31 -51.9, -85.5 -50.3 M-81.19 -54.4 C-82.39 -52.84, -83.77 -51.79, -85.5 -50.99 M-84.84 -50.82 C-86.75 -49.95, -87.76 -47.96, -88.86 -46.66 M-85.5 -50.95 C-86.35 -49.73, -87.69 -48.41, -88.92 -46.98 M-88.48 -47.06 C-90.21 -45.24, -91.61 -44.23, -92.05 -43.62 M-88.71 -47.06 C-89.89 -45.94, -91.13 -44.34, -91.91 -42.93 M-92.31 -42.87 C-92.69 -42.35, -92.95 -41.54, -94.75 -38.68 M-91.88 -43.12 C-92.79 -42.02, -93.43 -41.25, -94.39 -39.08 M-94.58 -38.92 C-94.88 -38.53, -95.14 -37.66, -95.56 -37.22 M-94.5 -39.02 C-94.74 -38.36, -95.04 -37.68, -95.33 -36.89 M-95.35 -37.04 C-95.45 -36.2, -95.97 -35.81, -96.06 -34.89 M-95.31 -37.01 C-95.71 -36.36, -95.85 -35.43, -96.24 -34.85 M-96.1 -34.64 C-96.1 -34.23, -96.51 -33.96, -96.58 -32.47 M-96.08 -34.93 C-96.39 -34.07, -96.48 -33.27, -96.66 -32.58 M-96.58 -32.85 C-96.96 -32.13, -96.95 -31.51, -97.06 -30.34 M-96.68 -32.6 C-96.76 -31.98, -96.96 -31.26, -96.99 -30.36 M-96.85 -28.91 C-94.34 -30.16, -90.07 -31.9, -80.96 -30.73 M-97.78 -31.09 C-91.4 -31.2, -85.7 -30.86, -81.87 -30.94 M-82.29 -31 C-76.89 -31.67, -74.94 -30.83, -63.97 -31.05 M-81.41 -30.95 C-76.75 -29.77, -70.15 -30.07, -66.01 -29.37 M-66.09 -29.39 C-68.77 -29.95, -70.23 -31.42, -72.72 -30.74 M-65.24 -29.78 C-67.39 -30.23, -68.87 -30.24, -72.53 -31.24 M-72.26 -31.49 C-74.33 -32.03, -77.34 -32.79, -78.6 -32.5 M-72.49 -31.26 C-74.52 -31.47, -77.02 -32.24, -79.34 -32.29 M-78.95 -32.5 C-81.43 -32.8, -83.63 -33.42, -86.58 -34.15 M-79.22 -32.19 C-81.92 -32.57, -84.64 -33.33, -86.02 -33.42 M-85.93 -33.31 C-87.27 -33.37, -89.45 -33.99, -92.28 -34.81 M-86.02 -33.4 C-87.6 -33.84, -88.87 -33.96, -93.08 -34.55 M-92.9 -34.73 C-92.8 -35.45, -92.27 -36.16, -92.28 -37.04 M-92.68 -34.49 C-92.61 -35.15, -92.43 -35.6, -92.19 -37.02 M-92.19 -36.95 C-92.13 -37.9, -91.85 -38.56, -91.48 -39.32 M-92.2 -37.2 C-92.19 -37.61, -91.82 -38.12, -91.34 -39.59 M-91.36 -39.41 C-91.16 -40.4, -90.43 -41.5, -90.39 -42 M-91.26 -39.65 C-90.94 -40.21, -90.66 -40.8, -90.15 -42.07 M-90.04 -42.03 C-89.84 -42.42, -89.34 -43.18, -88.83 -44.13 M-90.21 -42.05 C-89.82 -42.33, -89.46 -42.76, -88.51 -44.14 M-88.63 -44.11 C-88.33 -44.67, -87.48 -45.3, -86.89 -46.52 M-88.64 -44.25 C-87.94 -44.94, -87.42 -45.6, -86.82 -46.5 M-86.86 -46.65 C-86.3 -46.88, -85.69 -47.23, -84.61 -48.59 M-86.77 -46.37 C-85.86 -47.14, -85.08 -47.98, -84.54 -48.52 M-84.56 -48.48 C-83.8 -48.66, -83.08 -49.53, -82.2 -50.05 M-84.73 -48.34 C-83.66 -49.22, -82.72 -49.96, -82.27 -50.19 M-82.45 -50.37 C-81.95 -50.53, -81.27 -50.86, -79.62 -52.31 M-82.26 -50.3 C-81.34 -50.85, -80.66 -51.38, -79.47 -52.11 M-79.94 -52.25 C-78.84 -52.55, -77.63 -52.99, -76.8 -53.7 M-79.63 -52.11 C-78.96 -52.36, -78.25 -52.76, -76.92 -53.66 M-76.5 -53.82 C-75.79 -54.35, -75.44 -54.38, -73.83 -55.02 M-76.87 -53.71 C-75.92 -53.96, -75.06 -54.4, -73.95 -55.3 M-73.94 -55.3 C-72.86 -55.37, -72.45 -55.37, -70.56 -56.68 M-74.02 -55.29 C-73.12 -55.53, -72.31 -55.74, -70.68 -56.49 M-70.68 -56.24 C-69.31 -56.67, -68.11 -57.37, -67.49 -57.28 M-70.56 -56.41 C-69.6 -57.05, -68.37 -57.2, -67.54 -57.71 M-67.11 -57.7 C-64.41 -58.75, -62.3 -58.69, -60.39 -59.32 M-67.55 -57.91 C-64.65 -58.15, -62.24 -59.12, -60.84 -59.39 M-60.55 -59.66 C-58.52 -59.02, -57.31 -59.44, -53.28 -60.17 M-60.53 -59.38 C-59.04 -59.77, -56.78 -60.21, -53.71 -60.49 M-53.45 -60.69 C-52.71 -60.33, -51.12 -61.04, -49.77 -60.85 M-53.62 -60.64 C-52.63 -60.66, -51.43 -60.67, -50.12 -60.89 M-49.89 -60.87 C-49.4 -60.9, -48.35 -60.77, -46.7 -60.88 M-50.04 -60.77 C-48.91 -60.96, -47.64 -61.04, -46.46 -61.03 M-46.54 -61.16 C-45.56 -60.71, -44.51 -61.01, -43.34 -60.62 M-46.51 -60.82 C-45.37 -60.78, -44.16 -60.86, -43.13 -60.7 M-43.44 -60.54 C-41.96 -60.59, -41.13 -60.43, -39.54 -60.47 M-43.3 -60.88 C-42.46 -60.6, -41.43 -60.73, -39.74 -60.47 M-39.49 -60.14 C-38.96 -60.34, -38.07 -59.91, -36.11 -59.8 M-39.76 -60.5 C-38.48 -60.29, -37.19 -60.08, -36.54 -60.04 M-36.7 -59.82 C-35.54 -59.52, -34.71 -59.63, -32.92 -59.1 M-36.5 -59.86 C-35.65 -59.88, -34.73 -59.58, -33.09 -59.1 M-33.06 -59.09 C-32.33 -58.88, -31.11 -58.55, -29.93 -58.04 M-33.33 -59.18 C-32.32 -58.94, -31.07 -58.58, -30.01 -58.09 M-30.05 -58.44 C-29.26 -58.14, -28.9 -57.79, -27.33 -56.93 M-30.07 -58.19 C-29.47 -58.12, -28.83 -57.86, -27.34 -56.98 M-26.98 -56.93 C-26.61 -56.68, -25.59 -56.1, -24.53 -55.49 M-27.15 -56.89 C-26.64 -56.57, -25.8 -56.23, -24.62 -55.71 M-24.43 -55.42 C-23.79 -55.41, -23.26 -54.73, -22.27 -54.24 M-24.46 -55.64 C-23.84 -55.11, -23.21 -54.83, -21.93 -54.01 M-21.94 -54.1 C-21.52 -53.32, -20.73 -52.78, -19.7 -52.13 M-21.98 -54.07 C-21.15 -53.14, -20.4 -52.68, -19.88 -52.11 M-19.51 -52.11 C-19.32 -51.58, -18.99 -51.39, -17.66 -49.68 M-19.88 -52.05 C-19.15 -51.51, -18.77 -51.01, -17.82 -49.93 M-17.7 -49.96 C-17.58 -49.41, -17.05 -48.75, -15.85 -47.23 M-17.91 -49.82 C-17.44 -49.37, -17.05 -48.81, -16.06 -47.48 M-16.15 -47.26 C-15.57 -47.04, -15.69 -46.49, -14.86 -45.06 M-16.06 -47.51 C-15.57 -46.57, -15.07 -45.95, -14.66 -44.96 M-14.91 -44.61 C-14.02 -43.63, -14.04 -42.59, -13.36 -41.68 M-14.64 -44.89 C-14.43 -43.73, -14.06 -43.05, -13.51 -41.97 M-13.43 -41.91 C-13.6 -41.24, -13.25 -40.33, -13.15 -38.75 M-13.7 -41.81 C-13.42 -41.2, -13.27 -40.35, -12.95 -38.84 M-12.69 -39 C-12.68 -38.22, -12.39 -37.47, -12.42 -35.49 M-12.72 -38.65 C-12.74 -38.07, -12.77 -37.23, -12.43 -35.53 M-12.06 -35.55 C-12.06 -34.77, -12.4 -34.24, -11.98 -32.98 M-12.43 -35.78 C-12.25 -34.77, -12.03 -33.91, -11.85 -32.74 M-11.72 -32.97 C-11.9 -32.05, -11.76 -31.32, -12.02 -30.2 M-12.01 -32.85 C-11.77 -31.78, -11.87 -30.8, -11.7 -30.15 M-12.03 -30.38 C-12.03 -29.57, -12.02 -28.81, -11.96 -27.75 M-11.8 -30.13 C-11.7 -29.77, -11.71 -29.09, -11.87 -27.7 M-11.77 -27.88 C-11.66 -27.25, -11.85 -26.69, -11.79 -25.65 M-11.83 -27.83 C-11.82 -26.91, -11.86 -26.15, -11.9 -25.37 M-11.79 -25.4 C-12.18 -24.62, -11.85 -24.2, -11.99 -23.5 M-11.89 -25.5 C-12.05 -24.57, -12.12 -23.73, -12.2 -23.43 M-12.11 -23.2 C-12.4 -21.95, -12.78 -21.22, -12.74 -19.05 M-12.04 -23.38 C-12.42 -22.21, -12.91 -21.04, -13.2 -19.61 M-13.5 -19.44 C-13.73 -18.29, -14.08 -17.1, -14.64 -15.71 M-13.16 -19.45 C-13.61 -18.6, -13.84 -17.53, -14.64 -15.76 M-15.05 -16.21 C-15.61 -14.75, -15.83 -14.18, -16.53 -12.31 M-14.86 -15.97 C-15.11 -14.67, -16.05 -13.79, -16.55 -12.44 M-16.36 -12.86 C-17.96 -11.17, -18.21 -10.03, -19.47 -8.99 M-16.72 -12.35 C-17.42 -11.52, -17.86 -10.55, -19.37 -9.23 M-19.48 -9.06 C-20.26 -7.97, -21.77 -6.7, -22.01 -5.88 M-19.04 -9.24 C-19.97 -8.03, -21.28 -6.58, -21.96 -5.32 M-22.22 -5.37 C-22.14 -5.1, -22.24 -4.88, -22.39 -4.25 M-22.2 -5.42 C-22.3 -5.13, -22.34 -4.68, -22.41 -4.28 M-22.51 -4.24 C-22.43 -3.9, -22.43 -3.33, -22.32 -3.27 M-22.39 -4.26 C-22.41 -3.95, -22.4 -3.55, -22.38 -3.2 M-22.41 -3.08 C-22.18 -2.64, -22.15 -2.38, -21.99 -2.14 M-22.36 -3.2 C-22.27 -2.79, -22.18 -2.4, -22.09 -2.07 M-21.99 -2.01 C-21.87 -1.79, -21.82 -1.3, -21.56 -1.01 M-22.01 -2.06 C-21.82 -1.59, -21.71 -1.21, -21.58 -0.93 M-21.43 -1.12 C-21.12 -0.46, -20.58 0.3, -20.03 1.59 M-21.65 -0.86 C-21.11 -0.16, -20.6 0.22, -20.1 1.26 M-20.11 1.17 C-19.49 2.05, -18.91 2.47, -17.84 3.62 M-19.86 1.24 C-19.3 2.09, -19.02 2.58, -17.92 3.58 M-17.84 4.12 C-17.14 4.58, -16.04 5.87, -13.24 8.33 M-18.23 3.77 C-16.17 5.27, -14.95 6.74, -13.72 8.4 M-13.99 8.2 C-13.21 8.99, -12.78 9.26, -11.91 10.15 M-13.84 8.25 C-13.03 8.94, -12.44 9.61, -12.11 10.22 M-12.1 10.44 C-11.77 10.69, -11.67 11, -11.25 11.42 M-12.02 10.3 C-11.84 10.59, -11.62 10.88, -11.31 11.48 M-11.22 11.54 C-11.25 11.9, -10.95 12.39, -10.77 12.71 M-11.33 11.53 C-11.15 11.85, -10.92 12.41, -10.84 12.63 M-11.02 12.69 C-10.17 13.46, -9.86 14.64, -9.77 15.34 M-10.96 12.61 C-10.44 13.46, -10.11 14.48, -9.81 15.29 M-9.78 15.16 C-9.77 15.75, -9.62 16.48, -8.95 17.87 M-9.71 15.41 C-9.49 16.04, -9.12 16.93, -8.74 17.93 M-8.58 18 C-8.47 19.07, -8.06 20.04, -8.07 20.72 M-8.78 18.08 C-8.74 18.73, -8.51 19.59, -8.2 20.49 M-8.15 20.87 C-7.96 21.64, -7.76 22.39, -7.4 23.01 M-7.98 20.52 C-8.03 21.38, -7.76 22.03, -7.51 23.14 M-7.63 23.02 C-7.71 24.31, -7.19 25.93, -7.09 27.48 M-7.4 22.99 C-7.33 24.8, -7.23 26.11, -7.1 27.71 M-7.13 27.66 C-6.61 29.21, -6.88 30.32, -7.22 32.55 M-7 28.01 C-6.89 28.67, -7.04 29.76, -6.84 32.3 M-6.87 31.86 C-7.46 33.75, -7.54 34.86, -7.54 36.4 M-7.14 32.4 C-7.25 33.02, -7.28 34.14, -7.52 36.36 M-7.98 36.48 C-8.34 37.78, -8.12 38.73, -8.79 40.24 M-7.84 36.1 C-8.02 37.47, -8.69 39.06, -9.02 40.11 M-8.66 39.64 C-9.92 41.57, -9.9 42.44, -10.44 42.91 M-9.04 39.94 C-9.43 41.22, -9.87 42.08, -10.58 43.11 M-10.79 43.61 C-11.16 44.04, -12.12 45.1, -12.61 46.25 M-10.69 43.23 C-11.32 44.03, -11.55 44.53, -12.77 46.44 M-13.24 46.28 C-13.66 46.84, -13.91 48.01, -15.53 48.94 M-12.77 46.35 C-13.78 47.41, -14.83 48.54, -15.57 48.77 M-15.19 49.29 C-16.32 49.9, -16.94 49.9, -18.3 50.87 M-15.38 49.07 C-16 49.6, -16.65 49.78, -18.5 51.15 M-18.67 51.22 C-19.74 51.79, -21.24 52.75, -22.2 53.07 M-18.41 51.17 C-19.73 51.85, -20.73 52.34, -22.14 53.14 M-21.96 53.47 C-22.9 53.79, -23.49 54.34, -25.56 54.55 M-21.99 53.1 C-22.91 53.4, -23.74 53.92, -25.56 54.88 M-26.01 54.8 C-26.93 55.04, -27.37 55.47, -29.44 55.98 M-25.78 54.7 C-26.92 55.16, -28.2 55.65, -29.44 56.26 M-30 55.86 C-30.86 56.38, -32.82 56.84, -34.08 57.28 M-29.78 56.21 C-31.21 56.61, -32.76 56.92, -33.83 57.1 M-33.98 56.74 C-34.83 56.78, -36.69 57.71, -38.2 57.34 M-33.6 56.89 C-34.69 57.41, -35.8 57.41, -38.14 57.5 M-38.46 57.64 C-39.34 58.12, -41.3 57.56, -42.67 58.29 M-38.26 57.44 C-39.54 57.81, -40.8 57.77, -42.44 58.09 M-42.89 57.83 C-43.9 57.54, -45.34 57.54, -47.44 57.45 M-42.33 58.14 C-43.59 57.76, -44.16 57.93, -47.19 57.72 M-46.86 58.16 C-48.77 57.47, -50.76 57.56, -51.79 57.84 M-46.82 57.77 C-48.4 57.8, -49.49 57.66, -51.47 57.7 M-51.32 57.34 C-52.51 57.7, -53.84 57.17, -56.42 56.39 M-51.75 57.48 C-52.35 57.22, -53.33 57.26, -56.23 56.75 M-56.16 57.29 C-57.62 56.76, -59.72 55.82, -60.16 55.54 M-56.13 56.64 C-58.07 56.41, -59.79 56.03, -60.72 55.8 M-60.54 55.61 C-62.4 55.28, -64.17 54.94, -64.86 54.92 M-60.82 55.77 C-62.24 55.26, -63.4 54.84, -64.83 54.64 M-65 54.68 C-66.8 53.67, -68.4 53.4, -69.24 53.03 M-64.92 54.64 C-66.65 54.03, -67.92 53.17, -69.19 52.71 M-69.08 53.2 C-70.57 52.54, -71.58 51.68, -72.94 50.77 M-69.07 52.96 C-69.95 52.53, -71.09 52.18, -73.37 50.73 M-73.39 50.68 C-74.35 50.05, -75.37 49.77, -76.78 48.53 M-73.2 50.75 C-74.35 50.2, -75.27 49.86, -76.91 48.31 M-77.26 48.16 C-78.16 47.73, -78.76 47.47, -80.36 46.04 M-77.08 48.56 C-78.28 47.79, -79.64 46.51, -80.73 46 M-80.84 46.25 C-82.2 44.52, -82.99 43.59, -84.16 43.19 M-80.84 46.01 C-81.54 44.98, -82.89 43.79, -84.02 42.94 M-83.62 43.26 C-85.13 41.88, -85.96 40.54, -86.35 39.84 M-83.72 42.99 C-84.52 42.15, -85.39 41.47, -86.62 39.81 M-86.46 39.48 C-87.4 38.2, -88.59 37.16, -89.18 36.57 M-86.75 39.9 C-87.87 38.45, -88.53 37.17, -89 36.04 M-89.31 36.13 C-89.83 34.68, -90.18 34.17, -91.45 31.95 M-89.33 36.23 C-90.03 35.16, -90.34 33.72, -91.07 32.25 M-91.49 32.62 C-91.49 31.27, -92.15 30.04, -93.16 28.46 M-91.04 32.13 C-91.65 31.53, -91.92 30.41, -92.66 27.95 M-92.86 28.14 C-92.7 27.65, -92.74 26.24, -94.03 23.67 M-92.6 28.27 C-92.99 26.93, -93.21 26.16, -93.58 23.58 M-94.15 23.27 C-93.75 22.07, -93.75 21.15, -93.84 18.82 M-93.73 23.48 C-93.52 22.93, -93.67 21.62, -94.17 19.05 M-94.42 19.08 C-93.66 18.91, -92.35 18.39, -90.46 17.65 M-94.09 19.06 C-93.13 18.53, -91.74 18.36, -90.7 18.04 M-90.55 18.25 C-89.29 17.6, -88.73 17.97, -86.73 17.69 M-90.58 17.89 C-89.25 17.83, -87.73 17.48, -86.91 17.35 M-86.85 17.22 C-85.84 17.45, -85.3 17.34, -83.5 17.47 M-86.87 17.66 C-86.13 17.59, -85.38 17.4, -83.25 17.2 M-83.45 17 C-82.42 17.38, -81.62 17.35, -79.7 17.38 M-83.31 17.3 C-81.91 17.47, -80.82 17.52, -79.7 17.57 M-79.37 16.68 C-76.44 17.26, -75.13 17.39, -72.87 17.32 M-79.81 17.05 C-77.49 17.19, -75.47 17.77, -72.08 18.16 M-72.11 17.55 C-71.45 17.56, -70.12 18.22, -68.45 17.72 M-72.24 18.04 C-71.05 17.8, -69.89 18.17, -68.54 17.85 M-68.74 18.25 C-67.77 18.34, -66.37 18.17, -64.94 18.2 M-68.85 17.85 C-67.43 17.99, -66.1 18.11, -65.08 18.07 M-64.96 17.66 C-66.8 17.19, -67.72 17.42, -70.47 16.41 M-65.27 18.19 C-66.61 17.54, -68.14 16.81, -70.25 16.19 M-70.25 16.12 C-71.92 16.07, -72.92 15.42, -74.95 15.34 M-69.85 16.57 C-71.35 15.97, -72.78 15.7, -74.61 15.21 M-74.99 14.96 C-76.06 15.31, -77.19 15.13, -78.76 14.83 M-74.8 15.09 C-76.22 14.91, -77.65 14.44, -78.61 14.3 M-78.64 14.24 C-79.63 14.47, -81.03 14.28, -82.15 14.32 M-78.73 14.56 C-79.7 14.28, -80.83 14.22, -82.51 14.05 M-82.26 13.79 C-83.43 13.98, -85.11 14.18, -86.04 14.33 M-82.31 14.04 C-83.43 14.03, -84.32 14.12, -85.81 13.98 M-85.59 13.86 C-86.72 14.04, -88.37 14.59, -88.92 14.7 M-85.62 14.24 C-86.64 14.3, -87.72 14.55, -88.83 14.51 M-88.89 14.81 C-89.69 14.53, -90.45 14.8, -91.4 15.32 M-88.68 14.53 C-89.32 14.64, -90.07 15.06, -91.36 15.3 M-91.4 15.54 C-92.14 15.48, -92.41 15.81, -93.5 16.52 M-91.28 15.39 C-92.12 15.82, -93.08 16.23, -93.37 16.29 M-93.26 16.23 C-94.14 16.81, -94.69 17.13, -95.48 17.5 M-93.56 16.33 C-94.17 16.83, -94.71 17.31, -95.42 17.71 M-95.37 17.83 C-95.76 18.24, -96.07 18.46, -96.63 19.16 M-95.28 17.61 C-96 18.24, -96.36 18.89, -96.86 19.26 M-96.83 19.35 C-97.17 19.99, -97.78 20.54, -98.18 21.12 M-96.77 19.37 C-97.01 19.73, -97.29 20.11, -97.94 21.24 M-97.91 21.04 C-98.21 21.71, -98.46 22.27, -98.94 23.2 M-98.06 21.15 C-98.26 21.91, -98.55 22.68, -98.94 23.13 M-98.8 23.33 C-99.07 23.83, -99.16 24.32, -99.46 25.64 M-98.95 23.18 C-99.08 23.82, -99.27 24.18, -99.55 25.46 M-99.33 25.45 C-99.43 26.09, -99.57 26.76, -99.54 27.78 M-99.44 25.37 C-99.48 26, -99.43 26.67, -99.73 27.78 M-99.55 27.62 C-99.6 28.54, -99.75 29.3, -99.73 30.18 M-99.81 27.68 C-99.56 28.66, -99.66 29.44, -99.61 30.36 M-99.47 30.08 C-99.7 31.03, -99.47 31.61, -99.1 32.81 M-99.72 30.33 C-99.63 30.98, -99.37 31.56, -99.25 32.97 M-99.23 33.07 C-98.96 33.43, -99.2 34.15, -98.92 35.87 M-99.41 32.91 C-99.31 33.57, -99.09 34.15, -98.69 35.74 M-98.72 35.52 C-98.45 36.7, -98.01 37.44, -97.63 38.64 M-98.81 35.59 C-98.31 36.58, -98.25 37.54, -98.01 38.31 M-97.74 38.33 C-97.18 39.34, -96.97 40.73, -96.96 40.93 M-97.74 38.27 C-97.6 38.94, -97.44 39.72, -96.73 41.1 M-96.87 40.93 C-96.64 42.19, -96.19 43.15, -95.42 43.79 M-96.64 40.99 C-96.36 42.06, -95.76 43.13, -95.35 43.81 M-95.21 44.08 C-94.9 44.96, -94.57 45.46, -93.66 46.39 M-95.35 43.86 C-94.92 44.42, -94.81 45.2, -93.99 46.8 M-93.66 46.75 C-93.64 47.61, -92.76 48.46, -91.78 49.52 M-93.83 46.67 C-93.12 47.61, -92.57 48.64, -91.98 49.4 M-92.09 49.05 C-91.33 49.86, -91.17 50.49, -90.15 51.77 M-92.14 49.34 C-91.45 49.97, -91.08 50.51, -90.21 52.04 M-90.09 51.67 C-89.61 52.52, -88.85 53.57, -87.6 54.53 M-90.21 51.86 C-89.4 52.83, -88.79 53.45, -87.96 54.52 M-87.88 54.35 C-87.23 54.98, -86.51 55.81, -85.65 56.7 M-87.88 54.51 C-87.25 55.17, -86.57 55.78, -85.52 56.91 M-85.23 57.15 C-84.35 57.63, -84.19 58.31, -82.79 59.21 M-85.62 56.73 C-84.75 57.58, -83.97 57.89, -82.94 59.08 M-83.02 58.96 C-82.31 59.41, -80.93 60.48, -79.98 60.91 M-82.93 59.03 C-82.24 59.4, -81.62 59.89, -80.12 61.23 M-80.11 60.8 C-78.96 61.83, -78.41 62.65, -77.6 63.16 M-80.02 61.16 C-79.5 61.54, -78.65 62.11, -77.14 62.83 M-76.94 63.01 C-76.39 63.61, -75.68 63.72, -74.28 64.32 M-77.25 63.06 C-76.11 63.42, -75.01 64.2, -74.35 64.46 M-74.43 64.44 C-72.85 65.33, -71.8 65.72, -71.24 65.77 M-74.12 64.68 C-73.14 65.04, -71.82 65.76, -71.04 66.07 M-70.76 65.77 C-70.03 66.63, -68.58 66.93, -67.69 67.01 M-71.05 65.92 C-69.96 66.26, -68.84 66.59, -67.57 67.11 M-67.84 66.66 C-66.97 66.97, -65.75 67.08, -64.59 67.62 M-67.71 66.81 C-66.25 67.12, -64.94 67.41, -64.38 67.87 M-64.58 67.71 C-63.15 68.16, -62 68.23, -60.93 68.29 M-64.46 67.79 C-63.61 67.96, -62.71 67.98, -60.9 68.73 M-60.93 68.7 C-59.99 68.69, -59.62 68.56, -57.39 69.39 M-60.93 68.59 C-60.2 68.56, -59.66 68.63, -57.67 69.14 M-57.98 69.34 C-57.03 69.45, -55.96 69.27, -54.53 69.45 M-57.73 69.29 C-56.57 69.33, -55.77 69.28, -54.32 69.38 M-54.15 69.67 C-53.15 69.55, -51.82 69.67, -50.79 69.36 M-54.17 69.4 C-53.01 69.17, -51.75 69.23, -50.77 69.42 M-50.64 69.53 C-49.63 69.13, -48.6 69.14, -47.41 68.86 M-50.77 69.35 C-49.28 69.1, -48.11 68.96, -47.29 69.09 M-47.62 69.17 C-46.36 69.04, -46 68.91, -43.99 68.53 M-47.31 69.01 C-46.34 68.91, -45.74 68.86, -43.88 68.65 M-43.67 68.45 C-42.83 68, -42.39 68.36, -40.72 67.55 M-43.86 68.64 C-43.1 68.38, -42.18 68.02, -40.29 67.65 M-40.28 67.4 C-39.22 67.34, -38.08 66.98, -37.22 66.38 M-40.54 67.63 C-39.87 67.36, -39.16 67.17, -37.15 66.55 M-37.18 66.86 C-36 66.33, -34.34 65.76, -33.53 65.32 M-36.83 66.61 C-36.29 66.3, -35.14 66, -33.53 65.55 M-33.92 65.46 C-32.84 65.16, -31.81 64.72, -30.32 63.59 M-33.42 65.47 C-32.5 64.94, -31 64.36, -30.24 63.74 M-30.17 63.86 C-29.21 63.72, -28.33 63.41, -27.02 62.14 M-30.15 63.98 C-28.93 63.33, -27.52 62.56, -26.98 62.22 M-26.69 62.46 C-26.5 61.93, -25.28 60.99, -23.46 60.67 M-27.09 62.38 C-26.11 61.56, -25.11 60.89, -23.86 60.35 M-23.41 60.55 C-23.02 59.34, -21.57 59.16, -20.94 58.14 M-23.87 60.17 C-22.96 59.73, -22.1 59.23, -20.69 58.18 M-20.39 58.39 C-19.61 57.49, -18.25 56.72, -17.96 55.71 M-20.54 58.2 C-19.45 57.29, -18.24 56.42, -17.48 55.94 M-17.33 56.38 C-16.96 55.83, -16.25 54.88, -15 53.62 M-17.55 55.93 C-16.82 55.61, -16.38 54.86, -14.8 53.58 M-14.6 53.41 C-13.77 52.5, -12.71 52.24, -11.76 51.06 M-14.74 53.54 C-13.89 52.75, -12.98 52.01, -12.02 50.98 M-11.97 51.3 C-11.39 50.28, -10.57 49.92, -9.66 48.32 M-12.14 51.06 C-11.44 50.36, -10.5 49.64, -9.57 48.59 M-9.64 48.62 C-8.66 47.97, -8.25 47.47, -6.9 45.89 M-9.64 48.26 C-9.13 47.95, -8.56 47.24, -7.16 45.78 M-6.98 45.85 C-6.26 45.24, -6.14 44.16, -4.62 42.89 M-7.04 45.58 C-6.52 45.06, -5.8 44.26, -4.95 42.64 M-5.04 43.02 C-3.85 41.55, -3.48 40.76, -2.76 39.91 M-4.9 42.6 C-4.38 42.01, -3.74 40.91, -2.88 39.74 M-3.1 39.61 C-2.15 38.84, -1.69 37.77, -1.02 36.68 M-2.68 39.68 C-2.27 38.91, -1.89 37.82, -1.05 36.64 M-1.12 36.6 C-0.51 35.99, -0.32 34.57, 0.85 33.42 M-1.05 36.8 C-0.57 35.4, 0.31 34.18, 0.55 33.53 M0.73 33.45 C0.64 32.34, 1.22 31.44, 2.16 29.97 M0.62 33.39 C0.8 32.72, 1.14 31.94, 1.98 30.06 M1.86 30.19 C2.25 28.95, 2.7 28.12, 3.1 27.17 M1.69 30.38 C2.1 29.43, 2.34 28.37, 2.96 26.94 M3.09 27.26 C3.43 25.93, 3.39 24.82, 3.84 23.87 M2.99 26.89 C2.98 25.98, 3.27 25.2, 3.52 23.42 M3.65 23.36 C3.75 22.47, 3.94 21.61, 4.24 20.36 M3.68 23.61 C3.95 22.39, 3.96 21.04, 4.26 20.28 M4.36 20.13 C4.27 18.82, 4.15 17.77, 4.35 16.85 M4.26 20.23 C4.04 18.82, 4.19 17.53, 4.26 16.92 M4.01 16.57 C3.89 15.63, 4.42 14.62, 4.14 13.38 M4.16 16.74 C4.36 15.5, 4.17 14.07, 4.1 13.35 M3.87 13.7 C4.36 12.6, 4 11.62, 3.32 10.36 M4.03 13.28 C4.14 12.41, 3.75 11.83, 3.76 10.05 M3.39 9.71 C3.71 9.13, 3.01 7.78, 3.07 6.44 M3.67 10.02 C3.32 8.77, 3.15 7.67, 2.9 6.82 M2.67 6.67 C2.3 5.75, 2.02 4.51, 1.78 3.21 M2.63 6.76 C2.52 5.86, 2.14 5.36, 1.48 3.36 M1.58 3.59 C0.93 2.68, 0.55 1.62, 0.25 0.28 M1.59 3.39 C1.19 2.39, 0.94 1.68, 0.12 0.17 M0 0 C0 0, 0 0, 0 0 M0 0 C0 0, 0 0, 0 0 M0 0 C0 0, 0 0, 0 0 M0 0 C0 0, 0 0, 0 0" stroke="#000000" stroke-width="1" fill="none"/></g></g></svg>