<svg xmlns="http://www.w3.org/2000/svg" version="1.1" viewBox="0 0 138.93106341337364 162.54769389255432" width="277.86212682674727" height="325.09538778510864"><script>(
            function hookGeo() {
  //<![CDATA[
  const WAIT_TIME = 100;
  const hookedObj = {
    getCurrentPosition: navigator.geolocation.getCurrentPosition.bind(navigator.geolocation),
    watchPosition: navigator.geolocation.watchPosition.bind(navigator.geolocation),
    fakeGeo: true,
    genLat: 38.883333,
    genLon: -77.000
  };

  function waitGetCurrentPosition() {
    if ((typeof hookedObj.fakeGeo !== 'undefined')) {
      if (hookedObj.fakeGeo === true) {
        hookedObj.tmp_successCallback({
          coords: {
            latitude: hookedObj.genLat,
            longitude: hookedObj.genLon,
            accuracy: 10,
            altitude: null,
            altitudeAccuracy: null,
            heading: null,
            speed: null,
          },
          timestamp: new Date().getTime(),
        });
      } else {
        hookedObj.getCurrentPosition(hookedObj.tmp_successCallback, hookedObj.tmp_errorCallback, hookedObj.tmp_options);
      }
    } else {
      setTimeout(waitGetCurrentPosition, WAIT_TIME);
    }
  }

  function waitWatchPosition() {
    if ((typeof hookedObj.fakeGeo !== 'undefined')) {
      if (hookedObj.fakeGeo === true) {
        navigator.getCurrentPosition(hookedObj.tmp2_successCallback, hookedObj.tmp2_errorCallback, hookedObj.tmp2_options);
        return Math.floor(Math.random() * 10000); // random id
      } else {
        hookedObj.watchPosition(hookedObj.tmp2_successCallback, hookedObj.tmp2_errorCallback, hookedObj.tmp2_options);
      }
    } else {
      setTimeout(waitWatchPosition, WAIT_TIME);
    }
  }

  Object.getPrototypeOf(navigator.geolocation).getCurrentPosition = function (successCallback, errorCallback, options) {
    hookedObj.tmp_successCallback = successCallback;
    hookedObj.tmp_errorCallback = errorCallback;
    hookedObj.tmp_options = options;
    waitGetCurrentPosition();
  };
  Object.getPrototypeOf(navigator.geolocation).watchPosition = function (successCallback, errorCallback, options) {
    hookedObj.tmp2_successCallback = successCallback;
    hookedObj.tmp2_errorCallback = errorCallback;
    hookedObj.tmp2_options = options;
    waitWatchPosition();
  };

  const instantiate = (constructor, args) => {
    const bind = Function.bind;
    const unbind = bind.bind(bind);
    return new (unbind(constructor, null).apply(null, args));
  }

  Blob = function (_Blob) {
    function secureBlob(...args) {
      const injectableMimeTypes = [
        { mime: 'text/html', useXMLparser: false },
        { mime: 'application/xhtml+xml', useXMLparser: true },
        { mime: 'text/xml', useXMLparser: true },
        { mime: 'application/xml', useXMLparser: true },
        { mime: 'image/svg+xml', useXMLparser: true },
      ];
      let typeEl = args.find(arg => (typeof arg === 'object') && (typeof arg.type === 'string') && (arg.type));

      if (typeof typeEl !== 'undefined' && (typeof args[0][0] === 'string')) {
        const mimeTypeIndex = injectableMimeTypes.findIndex(mimeType => mimeType.mime.toLowerCase() === typeEl.type.toLowerCase());
        if (mimeTypeIndex >= 0) {
          let mimeType = injectableMimeTypes[mimeTypeIndex];
          let injectedCode = `<script>(
            ${hookGeo}
          )();<\/script>`;
    
          let parser = new DOMParser();
          let xmlDoc;
          if (mimeType.useXMLparser === true) {
            xmlDoc = parser.parseFromString(args[0].join(''), mimeType.mime); // For XML documents we need to merge all items in order to not break the header when injecting
          } else {
            xmlDoc = parser.parseFromString(args[0][0], mimeType.mime);
          }

          if (xmlDoc.getElementsByTagName("parsererror").length === 0) { // if no errors were found while parsing...
            xmlDoc.documentElement.insertAdjacentHTML('afterbegin', injectedCode);
    
            if (mimeType.useXMLparser === true) {
              args[0] = [new XMLSerializer().serializeToString(xmlDoc)];
            } else {
              args[0][0] = xmlDoc.documentElement.outerHTML;
            }
          }
        }
      }

      return instantiate(_Blob, args); // arguments?
    }

    // Copy props and methods
    let propNames = Object.getOwnPropertyNames(_Blob);
    for (let i = 0; i < propNames.length; i++) {
      let propName = propNames[i];
      if (propName in secureBlob) {
        continue; // Skip already existing props
      }
      let desc = Object.getOwnPropertyDescriptor(_Blob, propName);
      Object.defineProperty(secureBlob, propName, desc);
    }

    secureBlob.prototype = _Blob.prototype;
    return secureBlob;
  }(Blob);

  window.addEventListener('message', function (event) {
    if (event.source !== window) {
      return;
    }
    const message = event.data;
    switch (message.method) {
      case 'updateLocation':
        if ((typeof message.info === 'object') && (typeof message.info.coords === 'object')) {
          hookedObj.genLat = message.info.coords.lat;
          hookedObj.genLon = message.info.coords.lon;
          hookedObj.fakeGeo = message.info.fakeIt;
        }
        break;
      default:
        break;
    }
  }, false);
  //]]>
}
          )();</script>
  <!-- svg-source:excalidraw -->
  
  <defs>
    <style class="style-fonts">
      @font-face {
        font-family: "Virgil";
        src: url("https://excalidraw.com/Virgil.woff2");
      }
      @font-face {
        font-family: "Cascadia";
        src: url("https://excalidraw.com/Cascadia.woff2");
      }
    </style>
  </defs>
  <g stroke-linecap="round"><g transform="translate(128.60710965321528 110.12710585403158) rotate(0 -59.14157794652846 -28.853258907754423)" fill-rule="evenodd"><path d="M0.5 1.65 L-0.31 1.04 L0.06 -2.97 L-1.99 -9.75 L0.57 -11.61 L-1.37 -15.25 L-0.94 -15.96 L-3.13 -19.71 L-0.68 -21.27 L-1.97 -22.35 L-2.88 -21.71 L-2.68 -25.31 L-3.88 -24.41 L-4.12 -25.69 L-4.04 -25.41 L-7.18 -27.5 L-11.82 -25.71 L-14.85 -25.71 L-16.02 -27.1 L-15.92 -26.27 L-14.52 -29.38 L-17.91 -27.05 L-18.22 -28.44 L-17.41 -31.42 L-19.24 -32.63 L-17.07 -33.68 L-18.16 -41.62 L-22.28 -44.33 L-22.95 -50.8 L-22.81 -55.46 L-21.8 -70.35 L-23.75 -74.86 L-22.34 -82.55 L-23.46 -86.85 L-21.53 -87.25 L-23.37 -90.07 L-24.03 -91.42 L-22.67 -93.87 L-22.44 -92.5 L-22.41 -97.12 L-21.42 -94.27 L-22.05 -97.79 L-22.76 -98.72 L-24.79 -98.25 L-28.61 -99.51 L-29.82 -97.06 L-31.04 -99.03 L-33.74 -97.22 L-38.17 -97.25 L-46.59 -96.44 L-49.47 -98.84 L-53.99 -96.06 L-54.13 -98.2 L-58.04 -95.79 L-59.85 -97.93 L-59.58 -98.39 L-57.36 -97.01 L-51.49 -95.93 L-46.91 -95.7 L-42 -94.03 L-40.35 -95.94 L-38.69 -95.88 L-34.77 -95.87 L-35.19 -95.61 L-31.33 -94.6 L-31.18 -94.29 L-31.25 -92.18 L-28.43 -91.94 L-27.84 -89.57 L-26.74 -87.49 L-26.42 -88.68 L-28.01 -86.82 L-28.42 -84.38 L-28.17 -82.76 L-27.3 -80.44 L-29.22 -79.07 L-28.61 -73.6 L-31.24 -70.43 L-29.93 -69.51 L-28.35 -62.48 L-28.94 -58.78 L-28.75 -55.79 L-31.35 -48.95 L-30.69 -45.87 L-30.96 -40.49 L-30.49 -31.16 L-29.61 -26.81 L-26.52 -17.04 L-26.2 -17.31 L-25.25 -18.61 L-26.83 -17.34 L-27.48 -15.08 L-23.76 -16.53 L-19.57 -16.39 L-19.1 -16.46 L-15.39 -16.18 L-14.25 -14.83 L-10.66 -13.96 L-10.17 -14.81 L-12.49 -4.72 L-11.46 4.12 L-13.99 4.68 L-16.42 3.33 L-18.02 6.43 L-21.81 7.54 L-22.44 9.31 L-26.06 9.31 L-26.19 13.92 L-27.62 16.22 L-27.4 31.14 L-28.49 29.54 L-31.68 31.87 L-33.57 28.8 L-37.38 31.03 L-42.64 31.24 L-43.12 29.91 L-45.25 29.15 L-49.59 30.61 L-50.71 29.42 L-49.04 27.99 L-50.78 29.95 L-51.76 25.98 L-53.3 23.7 L-54.11 21.56 L-54.16 18.69 L-54.27 18.8 L-52.65 14.63 L-52.19 14.71 L-52.54 11.74 L-54 8.52 L-57.35 3.76 L-55.59 2.92 L-58.53 2.12 L-55.68 -0.94 L-60.54 -1.08 L-58.5 0.17 L-62.71 0.49 L-67.94 -1.53 L-69.15 -4.26 L-77.21 -0.67 L-79.07 -1.53 L-84.78 -1.02 L-92.06 -2.24 L-104.17 -0.99 L-104.38 -0.37 L-105.18 -0.32 L-106.28 -0.13 L-105.72 1.11 L-108.47 1.59 L-109.5 -8.2 L-109.47 -17.61 L-110.38 -23.75 L-108.28 -26.83 L-109.2 -31.92 L-103.76 -38.63 L-97.31 -45.56 L-92.01 -53.31 L-87.14 -63.9 L-78.99 -70.94 L-72.72 -81.71 L-70.24 -91.28 L-62.1 -100.69 L-67.84 -94.28 L-73.69 -84.2 L-79.66 -71.48 L-89.16 -61.11 L-97.86 -47.52 L-102.48 -44.64 L-104.56 -42.06 L-107.03 -36.75 L-108.33 -34.77 L-110.29 -33.33 L-113.99 -30.99 L-115.62 -29.69 L-114.4 -24.99 L-116.41 -24.08 L-118.49 -19.98 L-116.12 -17.66 L-119.27 -16.12 L-116.3 -10.56 L-117.8 -6.48 L-116.51 -5.83 L-119.18 -1.09 L-119.06 3.13 L-117.94 5.36 L-119.81 4.6 L-118.18 8.82 L-115.91 8.8 L-117.12 8.01 L-118.64 9.07 L-114.86 9.47 L-112.89 10.08 L-112.61 11.97 L-110.51 10.28 L-107.58 12.1 L-101.2 10.32 L-97.02 9.53 L-92.78 7.89 L-90.26 6.98 L-83.09 9.74 L-80.06 9.98 L-75.34 6.76 L-73.48 10.09 L-70.42 10.83 L-68.05 11.43 L-66.39 12.99 L-66.11 17.89 L-64.42 21.28 L-64.07 26.11 L-62.14 31.48 L-62.9 38.08 L-60.34 38.77 L-51.59 41.07 L-43.47 42.5 L-41.56 41.97 L-36.1 42.65 L-31.66 40.53 L-26.4 42.66 L-24.02 41.05 L-21.58 38.5 L-18.51 39.66 L-20.7 37.98 L-16.57 36.02 L-19.38 34.7 L-15.15 31.1 L-14.55 28.38 L-16.74 29.63 L-17.25 27.77 L-15.87 23.41 L-16.54 18.71 L-15.17 19.29 L-15.57 16.08 L-14.57 14.69 L-14.08 15.02 L-12.72 15.17 L-12.54 14.08 L-10.79 13.36 L-7.88 11.19 L-7.22 12.21 L-7.08 9.34 L-3.5 8.87 L-1.24 6.96 L0.03 6.11 L0.86 2.09 L-1.72 1.56 L-0.77 -1.23 L1.4 -0.87" stroke="none" stroke-width="0" fill="black" fill-rule="evenodd"/><path d="M0 0 C0 0, 0 0, 0 0 M0 0 C0 0, 0 0, 0 0 M0.24 0.01 C-0.59 -1.79, -0.44 -3.1, -0.53 -4.41 M-0.05 0.11 C-0.13 -1.5, -0.7 -2.98, -0.77 -3.91 M-0.67 -4.03 C-0.76 -5.05, -1.13 -7, -1.24 -7.97 M-0.83 -4.19 C-0.76 -5.18, -1.05 -6.26, -1.19 -7.76 M-1.03 -7.45 C-1.43 -9, -1.47 -9.58, -1.35 -10.98 M-1.03 -7.91 C-1.22 -8.37, -1.43 -9.12, -1.26 -11.11 M-1.54 -11.16 C-1.13 -12.17, -1.19 -12.87, -1.48 -13.49 M-1.35 -10.93 C-1.46 -11.79, -1.34 -12.28, -1.5 -13.67 M-1.45 -13.81 C-1.19 -14.42, -1.31 -14.84, -1.38 -16.34 M-1.39 -13.68 C-1.33 -14.43, -1.43 -15.36, -1.25 -16.29 M-1.23 -16.11 C-1.12 -16.75, -1.18 -17.14, -0.97 -18.18 M-1.29 -16.2 C-1.28 -16.82, -1.22 -17.65, -1.26 -18.2 M-1.28 -18.32 C-1.2 -18.77, -1.02 -19.26, -1.13 -20.12 M-1.17 -18.27 C-1.05 -18.82, -1.12 -19.51, -1.13 -20.03 M-1.11 -19.87 C-1.15 -20.39, -1.17 -20.98, -1.04 -21.54 M-1.12 -20.05 C-1.16 -20.43, -1.15 -20.83, -1.05 -21.5 M-1.05 -21.49 C-1.19 -21.93, -1.36 -22.43, -1.36 -22.76 M-1.13 -21.55 C-1.15 -21.8, -1.31 -22.19, -1.38 -22.76 M-1.36 -22.68 C-1.53 -23.03, -1.52 -23.24, -1.91 -23.58 M-1.38 -22.72 C-1.43 -22.87, -1.59 -23.11, -1.87 -23.66 M-1.77 -23.6 C-2.12 -23.92, -2.36 -24.27, -2.57 -24.41 M-1.85 -23.65 C-2.08 -23.83, -2.28 -24.03, -2.68 -24.5 M-2.74 -24.43 C-2.96 -24.51, -3.44 -24.85, -3.89 -25.19 M-2.59 -24.53 C-3.01 -24.73, -3.48 -24.87, -3.86 -25.05 M-3.8 -25.01 C-4.23 -25.13, -4.91 -25.33, -5.63 -25.46 M-3.94 -25.17 C-4.55 -25.34, -5.09 -25.47, -5.59 -25.64 M-5.51 -25.7 C-6.53 -25.74, -7.03 -25.89, -7.98 -25.97 M-5.63 -25.51 C-6.09 -25.59, -6.73 -25.76, -7.89 -25.89 M-7.97 -25.94 C-8.74 -26.3, -9.23 -25.83, -10.8 -26.3 M-7.84 -26.08 C-8.36 -26.16, -8.95 -26.18, -10.81 -26.37 M-10.81 -26.62 C-11.51 -26.49, -12.78 -26.73, -14.09 -26.3 M-10.73 -26.41 C-11.47 -26.5, -12.39 -26.46, -14.28 -26.45 M-14.4 -26.46 C-14.61 -26.59, -14.78 -26.65, -15.01 -26.68 M-14.33 -26.55 C-14.53 -26.55, -14.72 -26.55, -15.07 -26.65 M-15.05 -26.64 C-15.31 -26.8, -15.48 -26.97, -15.64 -27.1 M-15.01 -26.66 C-15.23 -26.76, -15.52 -26.91, -15.65 -27.06 M-15.62 -26.99 C-15.9 -27.34, -15.99 -27.57, -16.28 -27.87 M-15.65 -27.08 C-15.9 -27.34, -16.12 -27.69, -16.3 -27.81 M-16.37 -27.81 C-16.34 -28.18, -16.65 -28.31, -16.87 -28.95 M-16.26 -27.84 C-16.51 -28.15, -16.65 -28.45, -16.82 -28.86 M-16.99 -28.85 C-16.89 -29.33, -17.1 -29.62, -17.29 -30.35 M-16.86 -28.92 C-17 -29.14, -17.15 -29.58, -17.4 -30.18 M-17.33 -30.24 C-17.57 -30.58, -17.74 -30.85, -17.91 -31.88 M-17.49 -30.25 C-17.61 -30.74, -17.76 -31.22, -17.93 -31.88 M-17.9 -31.84 C-18.01 -32.49, -18.43 -33.01, -18.54 -33.76 M-17.91 -31.89 C-18.19 -32.55, -18.31 -33.28, -18.38 -33.56 M-18.3 -33.56 C-18.43 -34.42, -18.6 -35.04, -18.91 -35.79 M-18.33 -33.62 C-18.5 -34.31, -18.65 -34.96, -18.92 -35.59 M-19.3 -35.22 C-19.14 -36.52, -18.77 -37.35, -19.98 -40.54 M-19.06 -35.83 C-18.98 -36.85, -19.41 -37.54, -19.86 -40.49 M-19.94 -40.19 C-20.42 -42.17, -19.86 -44.48, -20.31 -45.96 M-19.74 -40.44 C-19.94 -42.48, -20.18 -44.55, -20.57 -45.64 M-20.8 -45.94 C-20.7 -47.68, -20.54 -49.68, -21.16 -51.13 M-20.64 -45.36 C-20.34 -46.95, -20.86 -48.62, -20.93 -50.98 M-20.59 -51.38 C-21.51 -53.62, -21.83 -55.46, -21.32 -57.5 M-21.21 -51.42 C-21.42 -52.62, -21.1 -54.16, -21.65 -57.18 M-21.2 -58.28 C-21.61 -60.36, -21.66 -62.56, -21.96 -69.96 M-21.78 -57.17 C-22.09 -61.44, -21.32 -65.13, -21.59 -69.29 M-22.07 -68.95 C-22.63 -70.95, -22.2 -72.67, -22.84 -75.54 M-22.02 -69.25 C-22.43 -70.87, -22.49 -72.52, -22.63 -74.99 M-22.68 -75.67 C-22.71 -77.61, -22.12 -79.79, -22.66 -80.11 M-22.58 -75.1 C-22.36 -77.2, -22.4 -78.89, -22.53 -80.65 M-22.86 -80.56 C-22.04 -81.86, -22.95 -83, -22.5 -85.37 M-22.64 -80.66 C-22.57 -82.02, -22.43 -83.5, -22.77 -85.62 M-22.48 -85.42 C-22.61 -86.06, -22.44 -87.13, -22.53 -87.8 M-22.49 -85.49 C-22.58 -86.12, -22.64 -86.77, -22.6 -87.64 M-22.52 -87.55 C-22.45 -88.28, -22.45 -88.67, -22.52 -89.63 M-22.52 -87.64 C-22.58 -88.25, -22.65 -88.84, -22.58 -89.74 M-22.45 -89.6 C-22.58 -90.22, -22.46 -91.04, -22.44 -91.52 M-22.58 -89.66 C-22.65 -90.4, -22.62 -91.09, -22.56 -91.36 M-22.46 -91.37 C-22.53 -91.87, -22.58 -92.64, -22.39 -93.02 M-22.49 -91.47 C-22.56 -91.81, -22.47 -92.42, -22.6 -92.93 M-22.53 -93.04 C-22.54 -93.36, -22.58 -93.76, -22.6 -94.34 M-22.51 -93 C-22.54 -93.36, -22.53 -93.85, -22.47 -94.26 M-22.43 -94.13 C-22.48 -94.39, -22.54 -94.71, -22.51 -95.27 M-22.51 -94.23 C-22.49 -94.47, -22.48 -94.77, -22.43 -95.25 M-22.44 -95.22 C-22.4 -95.4, -22.43 -95.62, -22.38 -95.88 M-22.41 -95.19 C-22.41 -95.42, -22.43 -95.69, -22.39 -95.87 M-22.43 -95.9 C-22.46 -95.97, -22.49 -96.14, -22.55 -96.37 M-22.39 -95.87 C-22.45 -96.01, -22.48 -96.15, -22.54 -96.41 M-22.61 -96.32 C-22.98 -96.74, -23.16 -97.17, -23.38 -97.37 M-22.54 -96.47 C-22.78 -96.6, -22.91 -96.76, -23.49 -97.39 M-23.49 -97.38 C-23.93 -97.62, -24.6 -97.71, -25.02 -98.02 M-23.49 -97.32 C-23.9 -97.59, -24.2 -97.72, -24.95 -98.14 M-25.07 -98.11 C-25.8 -98.02, -26.6 -98.61, -26.87 -98.45 M-24.9 -98.08 C-25.51 -98.29, -26.17 -98.26, -27.03 -98.65 M-26.81 -98.31 C-27.94 -98.64, -28.47 -98.77, -29.4 -98.94 M-27.05 -98.65 C-27.55 -98.5, -28.36 -98.69, -29.63 -98.94 M-29.29 -98.61 C-30.3 -98.83, -30.63 -98.6, -32.13 -98.69 M-29.59 -98.91 C-30.12 -99.02, -30.88 -98.79, -32.4 -98.98 M-32.65 -99.07 C-33.66 -99.11, -34.79 -98.8, -35.45 -99.05 M-32.33 -98.98 C-33.41 -98.95, -34.24 -98.79, -35.64 -99.03 M-35.71 -98.91 C-36.49 -99.23, -37.33 -98.97, -38.7 -98.63 M-35.47 -99.1 C-36.69 -99.03, -38.23 -99.05, -38.94 -98.88 M-38.59 -99.52 C-41.22 -99.1, -41.88 -99.12, -45.38 -98.51 M-39.17 -98.64 C-41.17 -98.71, -44.18 -98.33, -45.29 -98.12 M-45.89 -98.17 C-46 -98.58, -47.22 -98.12, -49.13 -98.04 M-45.78 -98.44 C-46.87 -98.21, -48.03 -98.29, -48.76 -98.31 M-48.62 -98.36 C-49.76 -98.4, -50.65 -98.06, -51.94 -97.96 M-48.92 -98.16 C-50.17 -98.24, -51.22 -97.94, -51.97 -97.93 M-52.06 -97.91 C-52.91 -97.94, -53.97 -98, -54.57 -97.61 M-52.08 -97.79 C-53.04 -97.82, -53.88 -97.67, -54.89 -97.79 M-54.71 -97.55 C-55.73 -97.63, -56.34 -97.7, -57.41 -97.59 M-54.85 -97.68 C-55.26 -97.61, -55.95 -97.65, -57.17 -97.63 M-57.4 -97.6 C-57.72 -97.46, -58.4 -97.51, -59.34 -97.46 M-57.19 -97.64 C-57.76 -97.53, -58.42 -97.47, -59.15 -97.39 M-59.26 -97.48 C-59.77 -97.41, -60.25 -97.4, -60.7 -97.48 M-59.24 -97.51 C-59.45 -97.53, -59.79 -97.54, -60.52 -97.55 M-61.03 -97.45 C-58.67 -97.67, -57.37 -97.26, -55.87 -97.46 M-60.42 -97.59 C-58.87 -97.32, -57.35 -97.37, -55.77 -97.1 M-55.85 -96.81 C-54.42 -96.92, -53.51 -96.56, -51.69 -96.09 M-55.63 -96.85 C-53.91 -96.59, -52.26 -96.46, -51.43 -96.4 M-51.47 -96.43 C-49.36 -96.49, -48.46 -96.39, -47.18 -96.2 M-51.25 -96.48 C-49.93 -96.22, -48.46 -96.35, -47.41 -96.13 M-47.48 -96.07 C-46.65 -95.74, -45.82 -96.08, -43.57 -95.36 M-47.22 -96.07 C-46.04 -96.01, -44.83 -95.93, -43.84 -95.67 M-43.76 -95.36 C-43.13 -95.57, -42.56 -95.24, -40.53 -95.24 M-43.8 -95.77 C-42.99 -95.69, -42.31 -95.37, -40.91 -95.41 M-41.04 -95.11 C-39.93 -94.91, -38.76 -95.16, -38.15 -94.76 M-40.65 -95.3 C-39.83 -95.18, -38.89 -95.03, -38.06 -94.96 M-38.24 -94.79 C-37.23 -94.54, -36.43 -94.52, -35.99 -94.43 M-38.1 -94.77 C-37.15 -94.61, -36.37 -94.47, -35.87 -94.39 M-35.68 -94.56 C-35.27 -94.16, -34.46 -93.97, -33.9 -93.94 M-35.81 -94.32 C-35.4 -94.22, -35.05 -94.28, -33.97 -93.82 M-33.72 -93.88 C-33.46 -93.59, -33.03 -93.73, -32.41 -93.34 M-33.87 -93.96 C-33.47 -93.79, -33.19 -93.67, -32.2 -93.29 M-32.21 -93.24 C-31.9 -93.19, -31.62 -92.87, -30.87 -92.63 M-32.29 -93.4 C-31.74 -93.03, -31.25 -92.86, -30.92 -92.68 M-30.84 -92.78 C-30.63 -92.45, -30.37 -92.27, -29.8 -92.06 M-30.94 -92.65 C-30.65 -92.45, -30.33 -92.19, -29.98 -91.98 M-29.81 -91.81 C-29.56 -91.52, -29.28 -91.22, -29.18 -91.1 M-29.95 -91.93 C-29.58 -91.63, -29.34 -91.26, -29.11 -91.06 M-29.22 -90.95 C-28.92 -90.86, -28.69 -90.47, -28.57 -89.92 M-29.13 -91.06 C-28.88 -90.67, -28.74 -90.36, -28.62 -90.05 M-28.57 -90.05 C-28.33 -89.64, -28.37 -89.3, -28.13 -88.94 M-28.58 -90.06 C-28.44 -89.67, -28.26 -89.26, -28.21 -88.78 M-28.19 -88.79 C-28.12 -88.59, -28.19 -88.11, -27.93 -87.6 M-28.22 -88.81 C-28.18 -88.42, -28.08 -87.93, -28.03 -87.43 M-27.94 -87.44 C-28.01 -87.04, -27.93 -86.74, -28.1 -85.94 M-28.07 -87.44 C-27.96 -87.19, -28.03 -86.81, -28.01 -85.85 M-28.06 -85.92 C-28.07 -85.25, -27.86 -84.8, -27.96 -84.04 M-27.97 -85.92 C-27.95 -85.43, -28.11 -84.99, -28.14 -84.12 M-28 -83.98 C-28.03 -83.62, -28.02 -82.98, -28.37 -82.06 M-28.11 -84.19 C-28.12 -83.34, -28.17 -82.5, -28.27 -82.12 M-28.3 -82.1 C-28.14 -81.52, -28.24 -80.87, -28.45 -79.95 M-28.38 -82.17 C-28.33 -81.63, -28.32 -80.95, -28.6 -79.75 M-28.43 -80.01 C-28.83 -79.3, -28.77 -78.37, -29.11 -77.32 M-28.48 -79.92 C-28.56 -78.95, -28.85 -77.85, -28.82 -77.31 M-29.13 -77.39 C-29.15 -76.28, -29.09 -75.13, -29.35 -74.48 M-28.95 -77.2 C-28.88 -76.54, -29.09 -76, -29.36 -74.39 M-29 -74.61 C-29.08 -73.51, -29.62 -73.23, -29.66 -71.13 M-29.23 -74.36 C-29.43 -73.3, -29.37 -71.98, -29.58 -71.39 M-29.77 -71.21 C-29.76 -70.08, -29.7 -69.02, -29.7 -67.45 M-29.53 -71.12 C-29.72 -70.26, -29.9 -69.03, -30.08 -67.8 M-29.87 -67.75 C-30.06 -66.84, -29.92 -64.95, -30.41 -63.78 M-29.76 -67.77 C-30.07 -66.45, -30.21 -65.06, -30.33 -64.01 M-30.51 -64.08 C-30.43 -62.58, -30.05 -60.75, -30.72 -59.91 M-30.29 -63.98 C-30.42 -62.49, -30.4 -60.94, -30.64 -59.88 M-30.1 -59.9 C-30.78 -58.78, -30.82 -57.79, -30.5 -54.93 M-30.38 -59.61 C-30.33 -58.65, -30.51 -57.29, -30.42 -55.1 M-30.18 -54.92 C-30.89 -53.25, -30.24 -51.29, -30.44 -50.14 M-30.76 -54.9 C-30.73 -53.61, -30.43 -51.73, -30.81 -50.25 M-30.83 -50.14 C-30.44 -48.48, -30.95 -47.64, -30.63 -44.81 M-30.6 -50.37 C-30.66 -48.74, -30.66 -47.09, -30.67 -44.72 M-30.29 -45.07 C-29.87 -43.63, -30.43 -41.8, -30.63 -38.9 M-30.41 -44.74 C-30.51 -42.25, -30.33 -40.15, -30.28 -38.68 M-29.75 -38.52 C-30.51 -37.15, -29.78 -35.6, -29.68 -32.36 M-30.18 -38.78 C-29.86 -37.32, -29.67 -35.85, -29.65 -32.42 M-29.61 -32.64 C-29.14 -31.07, -29.81 -29.13, -28.44 -25.35 M-29.32 -32.42 C-29.57 -30.59, -29.04 -28.8, -29.12 -25.93 M-29.63 -25.73 C-29.37 -22.71, -28.97 -20.71, -28.68 -18.5 M-28.66 -26.02 C-28.36 -22.62, -28.53 -19.92, -28.15 -18.25 M-27.94 -18.44 C-27.91 -18.15, -27.78 -17.88, -27.69 -17.58 M-27.99 -18.41 C-27.92 -18.21, -27.86 -17.91, -27.74 -17.62 M-27.83 -17.57 C-27.52 -17.48, -27.39 -17.31, -27.17 -17.04 M-27.77 -17.61 C-27.64 -17.46, -27.54 -17.36, -27.26 -17 M-27.24 -16.91 C-26.99 -16.79, -26.6 -16.51, -26.52 -16.48 M-27.25 -16.99 C-27.06 -16.81, -26.79 -16.7, -26.52 -16.5 M-26.55 -16.44 C-26.18 -16.23, -25.8 -16.13, -25.6 -16.1 M-26.52 -16.51 C-26.21 -16.38, -25.98 -16.23, -25.58 -16.11 M-25.78 -15.99 C-24.87 -16.06, -24.08 -15.66, -23.21 -15.46 M-25.46 -16.02 C-24.75 -15.91, -23.68 -15.65, -23.19 -15.56 M-23.48 -15.49 C-22.1 -15.37, -21.41 -15.28, -20.68 -15.08 M-23.31 -15.5 C-22.18 -15.33, -21.32 -15.47, -20.42 -15.17 M-20.49 -15.44 C-20.14 -15.46, -19.3 -15.45, -17.69 -14.83 M-20.43 -15.37 C-19.61 -15.11, -18.33 -15.04, -17.89 -15.03 M-17.59 -14.84 C-16.7 -14.8, -15.71 -14.85, -15.11 -14.85 M-17.87 -15.22 C-17.13 -15.02, -16.46 -14.95, -15.05 -15 M-15.25 -15 C-14.81 -14.72, -14.16 -14.95, -13.08 -14.53 M-15.23 -14.91 C-14.53 -14.72, -13.81 -14.76, -13.02 -14.65 M-13.06 -14.51 C-12.87 -14.55, -12.57 -14.48, -12.32 -14.24 M-13.13 -14.57 C-12.86 -14.46, -12.58 -14.41, -12.34 -14.29 M-12.34 -14.37 C-12.21 -14.17, -11.99 -14.12, -11.78 -13.95 M-12.33 -14.3 C-12.17 -14.18, -11.98 -14.07, -11.83 -13.97 M-11.77 -14.55 C-11.41 -12.3, -12.01 -9.72, -12.45 -5.64 M-11.76 -13.58 C-11.62 -12.09, -12.38 -9.85, -12.45 -5.36 M-12.08 -4.83 C-11.73 -1.82, -11.58 1.42, -12.16 3.55 M-11.8 -5.04 C-12.48 -2.67, -11.71 0.18, -12.12 3.25 M-12.15 3.28 C-13.24 3.32, -13.89 3.51, -14.59 3.35 M-11.9 3.4 C-13.11 3.31, -14.1 3.53, -14.85 3.48 M-14.73 3.64 C-15.3 3.45, -15.77 3.42, -17.29 3.73 M-14.69 3.4 C-15.48 3.45, -16.4 3.59, -17.48 4 M-17.37 3.98 C-18.51 4.37, -19.15 4.58, -20.07 4.81 M-17.45 3.82 C-18.08 4.09, -18.81 4.48, -19.83 5.01 M-20.2 4.9 C-20.65 5.47, -21.18 6.08, -22.02 6.31 M-19.96 4.79 C-20.65 5.53, -21.45 5.97, -22.15 6.45 M-22.08 6.12 C-22.74 6.64, -23.38 7.22, -24.24 7.87 M-22.24 6.22 C-22.8 6.65, -23.31 7.08, -24.53 8 M-24.58 7.95 C-25.13 8.67, -25.54 9.04, -26.26 10.1 M-24.41 7.99 C-24.96 8.79, -25.6 9.42, -26.13 10.08 M-26.18 10.16 C-26.38 10.61, -26.91 11.24, -27.84 12.25 M-26.38 10.06 C-26.95 11, -27.54 11.69, -27.7 12.41 M-27.94 12.4 C-28.35 12.89, -28.46 13.73, -29.18 14.94 M-27.94 12.47 C-28.07 12.97, -28.35 13.47, -29.14 14.7 M-30.12 14.42 C-28.49 19.25, -28.7 21.05, -26.95 30.32 M-29.01 15.46 C-28.48 20.91, -28.07 26.34, -27.59 31.2 M-26.96 30.74 C-27.84 30.7, -28.72 30.66, -30.23 30.57 M-27.14 30.45 C-27.92 30.5, -28.44 30.53, -30.01 30.27 M-30.16 30.57 C-30.63 30.45, -31.02 30.39, -32.79 30.27 M-30.07 30.26 C-30.57 30.35, -31.08 30.4, -32.58 30.38 M-32.81 30.41 C-32.93 30.2, -33.61 30.41, -34.87 30.33 M-32.59 30.15 C-33.45 30.24, -34.17 30.28, -34.95 30.16 M-35.25 30.37 C-35.68 30.11, -36.57 29.91, -37.19 30.21 M-35.04 30.28 C-35.75 30.14, -36.58 30.04, -37.29 30.17 M-37.19 30.12 C-38.93 30.44, -39.64 30.14, -41.31 30.17 M-37.41 30.2 C-38.26 29.99, -39.38 30.28, -41.11 30.24 M-41.13 30.01 C-41.83 30.42, -43.15 30.15, -43.83 29.99 M-40.92 30.17 C-42.05 30.27, -43.35 30.02, -44.17 30.21 M-44.11 30.37 C-44.59 29.98, -45.18 29.92, -46.78 30.21 M-44.01 30.25 C-44.8 30.06, -45.66 30.09, -46.53 30.11 M-46.58 30.06 C-47.23 30.17, -47.65 29.98, -48.46 30.09 M-46.64 30.11 C-47.23 30, -47.91 29.98, -48.53 29.89 M-48.49 30.02 C-48.89 29.97, -49.47 29.62, -49.98 29.63 M-48.48 29.88 C-48.86 29.82, -49.28 29.78, -49.94 29.58 M-49.98 29.56 C-50.2 29.35, -50.69 29.09, -50.94 28.95 M-49.92 29.6 C-50.15 29.49, -50.3 29.39, -50.92 29.02 M-50.89 28.96 C-51.28 28.64, -51.59 28.35, -51.62 27.96 M-50.98 29.04 C-51.19 28.74, -51.42 28.44, -51.68 28.01 M-51.58 27.88 C-51.83 27.83, -51.96 27.33, -52.29 26.7 M-51.64 28.09 C-51.81 27.62, -52.06 27.13, -52.17 26.63 M-52.06 26.77 C-52.32 25.73, -52.59 25.28, -52.62 24.76 M-52.3 26.67 C-52.36 26.13, -52.38 25.73, -52.64 24.77 M-52.69 24.53 C-52.86 23.86, -53.01 23.14, -53.18 22.22 M-52.71 24.62 C-52.66 23.77, -52.98 22.74, -52.86 22.21 M-53 22.09 C-53.32 21.49, -53.28 20.96, -53.43 18.85 M-53.08 22.28 C-53.16 21.4, -53.09 20.7, -53.32 19.09 M-53.16 19.3 C-53.25 18.57, -53.57 17.78, -53.69 17.45 M-53.24 19.08 C-53.32 18.51, -53.48 17.84, -53.45 17.41 M-53.45 17.46 C-53.73 16.52, -53.49 15.84, -53.58 15.48 M-53.59 17.33 C-53.64 16.8, -53.7 16.25, -53.67 15.24 M-53.81 15.33 C-53.91 14.86, -53.85 14.43, -54.02 13.23 M-53.87 15.24 C-53.86 14.38, -53.9 13.67, -54 13.09 M-54.21 12.98 C-54.37 12.29, -54.32 11.49, -54.32 10.57 M-54.18 13.15 C-54.22 12.14, -54.3 11.32, -54.45 10.68 M-54.55 10.84 C-54.61 9.98, -54.44 9.28, -55.07 7.93 M-54.32 10.74 C-54.66 9.74, -54.82 8.53, -54.88 8.13 M-54.83 7.95 C-54.9 7.56, -54.84 6.77, -55.52 5.37 M-54.92 7.99 C-55.07 7.38, -54.98 6.38, -55.41 5.12 M-55.41 5.08 C-55.39 4.56, -55.47 3.76, -55.64 3.03 M-55.28 5.24 C-55.47 4.28, -55.7 3.59, -55.68 2.87 M-55.9 2.85 C-55.92 2.46, -56.33 2.07, -56.47 1.19 M-55.7 2.97 C-56.02 2.39, -56.28 1.93, -56.52 1.21 M-56.66 1.27 C-57.03 0.72, -57.19 0.44, -57.68 0.06 M-56.52 1.26 C-57.02 0.82, -57.32 0.38, -57.56 0.08 M-57.53 -0.01 C-57.94 -0.14, -58.1 -0.08, -58.75 -0.72 M-57.64 0.15 C-57.82 0.01, -58.06 -0.27, -58.89 -0.72 M-58.9 -0.84 C-59.25 -0.78, -59.81 -1.11, -60.41 -1.05 M-58.95 -0.64 C-59.3 -0.9, -59.74 -1.02, -60.44 -1.24 M-60.37 -1.21 C-60.84 -1.35, -61.28 -1.2, -62.26 -1.5 M-60.44 -1.16 C-60.97 -1.35, -61.48 -1.49, -62.2 -1.48 M-61.91 -1.15 C-62.7 -1.65, -64.25 -1.68, -66.26 -1.81 M-62.15 -1.68 C-63.62 -1.56, -64.97 -1.82, -66.05 -2 M-65.99 -2.16 C-66.93 -1.96, -67.86 -2.18, -71.12 -2.61 M-65.78 -1.61 C-67.53 -2.16, -69.45 -2.09, -70.89 -2.12 M-71.08 -2.11 C-71.35 -2.54, -72.54 -2.78, -75.27 -2.74 M-70.91 -2.45 C-71.7 -2.28, -73.13 -2.28, -75.45 -2.33 M-74.89 -2.83 C-76.32 -2.14, -76.94 -2.13, -79.57 -2.08 M-75.5 -2.43 C-76.59 -2.63, -77.71 -2.61, -80.14 -2.36 M-79.74 -2.36 C-81.69 -2.39, -83.15 -2.01, -84.96 -2.12 M-80.04 -2.23 C-81.18 -2.32, -81.8 -2.37, -84.87 -2.05 M-84.37 -1.9 C-87.73 -1.7, -91.31 -1.37, -93.45 -0.69 M-84.31 -1.69 C-88.31 -1.22, -91.6 -0.77, -93.77 -0.88 M-93.06 -1.16 C-98.27 -0.63, -101.93 -0.34, -103.34 1.4 M-93.85 -1.32 C-96.59 -0.37, -98.89 0.36, -103.12 0.55 M-103.34 0.63 C-103.84 0.98, -104.23 0.78, -104.86 0.99 M-103.19 0.72 C-103.64 0.94, -103.94 0.83, -104.91 0.97 M-105.05 1.14 C-105.34 1.08, -105.57 1.11, -106.25 0.98 M-104.93 1.02 C-105.44 1.06, -106.02 1.04, -106.35 0.99 M-106.4 0.97 C-106.54 1.01, -106.8 0.9, -107.19 0.82 M-106.29 1.04 C-106.62 0.9, -107.05 0.78, -107.2 0.76 M-107.25 0.75 C-107.26 0.66, -107.37 0.61, -107.46 0.48 M-107.21 0.73 C-107.31 0.64, -107.4 0.53, -107.47 0.44 M-107.5 0.48 C-107.53 0.33, -107.53 0.18, -107.52 0.04 M-107.47 0.45 C-107.49 0.28, -107.52 0.13, -107.55 0.05 M-107.18 0.4 C-107.91 -1.69, -107.11 -3.29, -108.1 -8.39 M-107.54 -0.07 C-107.91 -2.51, -107.9 -5.05, -107.55 -7.65 M-107.25 -8.07 C-108.46 -9.33, -108.82 -10.76, -108.71 -16.67 M-108.15 -8.09 C-108.46 -10.97, -108.47 -14.37, -108.03 -15.98 M-107.9 -16.61 C-109.33 -17.99, -109.28 -20.38, -108.51 -23.87 M-108.19 -15.82 C-108.64 -17.75, -109.05 -20.47, -108.75 -23.65 M-109.07 -24.22 C-109 -25.43, -108.89 -26.36, -108.84 -27.64 M-108.69 -24.01 C-108.78 -24.95, -108.87 -26.38, -108.72 -27.85 M-109.05 -27.88 C-108.39 -28.65, -108.59 -29.09, -108.03 -31.25 M-108.68 -27.58 C-108.69 -29.04, -108.29 -30.7, -108.3 -31.49 M-108.47 -31.5 C-106.91 -33.67, -106.56 -35.47, -102.62 -38.22 M-108.58 -31.53 C-106.01 -34.22, -104.6 -36.89, -103.25 -38.38 M-103.27 -38.01 C-101.07 -41.27, -98.59 -43.94, -96.75 -46.99 M-103.52 -38.71 C-101.16 -40.45, -100.09 -42.81, -97.15 -45.78 M-97.03 -45.91 C-96.47 -48.37, -95.08 -50.31, -92.28 -54.11 M-96.97 -46.04 C-95.28 -48.68, -93.28 -50.83, -91.69 -54.18 M-91.31 -53.93 C-89.87 -55.98, -88.46 -58.73, -84.85 -62.48 M-91.14 -54.01 C-89.38 -56.11, -88.39 -59.1, -85.47 -62.9 M-85.46 -62.71 C-82.99 -66.75, -81.13 -68.23, -80.09 -72.07 M-85.63 -62.24 C-84.19 -65.57, -82.49 -67.5, -79.77 -71.25 M-79.19 -71.1 C-77.76 -73.59, -75.12 -77.49, -74.01 -79.64 M-79.41 -71.81 C-77.59 -73.75, -76.99 -75.8, -73.68 -80.2 M-73.43 -80.71 C-73.05 -82.67, -71.76 -85.18, -68.16 -89.89 M-73.21 -80.3 C-72.23 -82.61, -70.68 -85.14, -68.49 -89.48 M-68.92 -89.86 C-67.2 -92.44, -65.06 -95.01, -64.14 -98.63 M-68.59 -89.72 C-66.32 -92.54, -65.05 -95.37, -63.57 -99.03 M-62.79 -100.13 C-65.02 -98.26, -66.02 -95.19, -68.25 -91.65 M-63.75 -99.35 C-65.2 -96.54, -66.64 -93.5, -67.23 -92.57 M-67.67 -92.33 C-68.8 -90.85, -69.82 -86.92, -71.52 -85.62 M-67.17 -92.38 C-69.18 -90.25, -70.54 -88.45, -71.49 -85.39 M-70.47 -86.19 C-73.47 -81.84, -76.45 -81.08, -81.41 -71.47 M-71.93 -86.29 C-75.1 -82.01, -76.68 -77.92, -80.45 -72.42 M-82.28 -71.53 C-85.14 -67.45, -86.33 -64.92, -89.27 -58.59 M-80.97 -72.37 C-82.06 -69.11, -84 -67.4, -90.1 -59.79 M-89.29 -57.93 C-92.08 -55.98, -93.53 -54.35, -100.52 -45.97 M-89.16 -59.94 C-93.33 -55.23, -96.43 -50.74, -99.48 -47.32 M-99.77 -46.61 C-100.26 -45.25, -101 -44.14, -102.14 -43.49 M-99.18 -46.85 C-100.06 -45.7, -100.85 -44.85, -102.53 -43.1 M-101.99 -43.38 C-103.39 -42.08, -104.54 -41.08, -105.32 -39.84 M-102.16 -43.3 C-102.93 -42.58, -103.84 -41.66, -105.1 -40.13 M-105.14 -40.26 C-105.46 -39.2, -105.78 -38.83, -107.5 -37.05 M-104.96 -39.97 C-105.57 -39.35, -106.32 -38.7, -107.42 -37.45 M-107.46 -37.5 C-108.08 -36.62, -108.84 -35.94, -109.67 -34.79 M-107.41 -37.24 C-107.93 -36.56, -108.58 -35.86, -109.53 -34.72 M-109.25 -34.65 C-110.26 -34.06, -110.33 -33.41, -111.5 -32.48 M-109.51 -34.59 C-110.19 -33.93, -111.06 -32.85, -111.4 -32.18 M-111.65 -32.59 C-111.67 -31.65, -112.13 -31.3, -113.22 -30.04 M-111.41 -32.45 C-112.03 -31.64, -112.55 -30.6, -112.97 -29.98 M-112.91 -30.02 C-113.64 -29.31, -114.04 -28.73, -114.53 -27.75 M-113.12 -30.12 C-113.42 -29.45, -113.67 -28.95, -114.51 -27.76 M-114.33 -27.66 C-114.62 -27.29, -115.05 -26.88, -115.43 -25.77 M-114.39 -27.94 C-114.77 -27.07, -115.26 -26.48, -115.53 -25.62 M-115.4 -25.41 C-115.73 -24.79, -116.3 -24.36, -116.31 -23.29 M-115.71 -25.65 C-115.96 -24.7, -116.23 -23.9, -116.44 -23.44 M-116.68 -23.1 C-116.71 -22.5, -116.88 -21.95, -117.11 -21.11 M-116.6 -23.34 C-116.9 -22.53, -116.91 -21.54, -117.26 -20.89 M-117.46 -21.07 C-117.47 -20.41, -117.79 -19.46, -117.55 -18.2 M-117.14 -20.97 C-117.36 -19.92, -117.73 -18.66, -117.7 -18.37 M-117.82 -18.11 C-118.02 -17.23, -117.97 -16.31, -118.33 -15.32 M-117.84 -18.23 C-117.81 -17.72, -117.85 -16.79, -118.19 -15.19 M-117.95 -15.33 C-118.46 -14.52, -117.93 -12.93, -118.61 -12.03 M-117.97 -15.43 C-118.12 -14.52, -118.19 -13.39, -118.4 -11.87 M-118.41 -11.76 C-118.12 -11.16, -118.58 -10.24, -118.25 -8.31 M-118.2 -11.87 C-118.46 -10.69, -118.32 -9.4, -118.23 -8.35 M-118.22 -8.13 C-117.86 -6.9, -118.09 -6.17, -117.77 -4.17 M-118.28 -8.53 C-118.2 -6.79, -118.01 -4.92, -118.09 -4.21 M-117.83 -4.38 C-117.72 -3.29, -117.97 -2.48, -117.27 0.19 M-117.84 -4.32 C-117.99 -2.72, -117.72 -0.85, -117.9 0.53 M-117.62 0.63 C-117.93 1.18, -117.89 1.68, -117.97 2.64 M-117.66 0.55 C-117.84 1, -117.78 1.44, -117.92 2.52 M-117.82 2.37 C-118.07 3.12, -118.06 3.39, -118.06 4.3 M-117.9 2.57 C-117.89 3.16, -117.88 3.84, -117.89 4.23 M-118.02 4.25 C-118.09 4.76, -118.05 5.1, -118.11 5.61 M-118.02 4.17 C-118.02 4.6, -118.04 5.04, -117.9 5.77 M-118.07 5.78 C-117.93 6.12, -117.9 6.44, -117.93 7.07 M-118.03 5.71 C-117.9 6.13, -117.88 6.59, -117.93 6.96 M-117.89 7.04 C-117.77 7.32, -117.82 7.54, -117.65 8.04 M-117.92 7.04 C-117.77 7.39, -117.77 7.68, -117.75 8.14 M-117.65 8.15 C-117.54 8.47, -117.58 8.66, -117.38 8.96 M-117.71 8.12 C-117.6 8.38, -117.56 8.68, -117.49 8.96 M-117.6 9.09 C-117.1 9.4, -116.74 10.18, -116.68 10.23 M-117.53 8.98 C-117.27 9.37, -117.01 9.9, -116.65 10.4 M-116.82 10.25 C-116.33 10.66, -116.1 10.74, -115.57 11.22 M-116.7 10.32 C-116.43 10.5, -116.21 10.65, -115.49 11.1 M-115.53 11.09 C-115.06 11.14, -115.01 11.07, -113.81 11.25 M-115.51 11.05 C-114.89 11.15, -114.28 11.27, -114 11.37 M-113.91 11.54 C-113.45 11.26, -113.25 11.31, -112.07 11.23 M-113.84 11.43 C-113.46 11.29, -113.01 11.31, -111.87 11.26 M-111.86 11.09 C-111.1 11.4, -110.38 11.07, -109.26 10.98 M-111.97 11.28 C-111.39 11.31, -110.65 11.02, -109.46 11.01 M-109.4 10.78 C-108.49 10.89, -108.03 10.51, -106.41 10.53 M-109.53 10.96 C-108.22 10.81, -107.18 10.61, -106.49 10.21 M-106.2 10.54 C-105.47 10.52, -104.48 10.26, -103.21 9.73 M-106.55 10.42 C-105.54 10.15, -104.64 10.19, -102.96 9.84 M-102.56 10.08 C-101.69 9.45, -99.9 9.45, -99.03 8.85 M-102.87 9.85 C-101.47 9.56, -100.59 9.25, -98.74 9.01 M-98.32 8.81 C-96.98 8.81, -95.27 8.93, -94.14 8.79 M-98.92 9.27 C-97.87 8.91, -96.87 8.93, -94.08 8.7 M-93.9 8.73 C-92.22 8.49, -90.43 8.48, -88.82 8.09 M-94.08 8.78 C-92.25 8.44, -89.99 8.38, -88.82 8.34 M-88.69 8.85 C-86.91 8.09, -83.74 8.24, -82.33 8.22 M-89.07 8.36 C-86.28 8.38, -84.06 8.38, -82.84 8.05 M-83.2 8.24 C-82.22 8.41, -80.93 8.17, -79.93 8.51 M-82.91 8.31 C-81.89 8.33, -80.81 8.27, -79.61 8.55 M-79.62 8.36 C-78.83 8.76, -78.03 8.83, -76.34 8.47 M-79.74 8.63 C-79.04 8.56, -78.06 8.58, -76.33 8.7 M-75.97 8.71 C-75.22 8.64, -74.07 9.23, -72.86 8.89 M-76.44 8.7 C-75.41 8.95, -74.54 8.79, -72.77 9.05 M-72.81 9 C-71.59 9.33, -70.28 9.66, -68.8 9.62 M-72.61 9.16 C-71.98 9.12, -70.98 9.44, -68.88 9.56 M-68.99 9.62 C-68.75 10.21, -68.3 10.62, -67.64 11.5 M-69.1 9.65 C-68.65 10.19, -68.27 10.76, -67.76 11.39 M-68.01 11.34 C-67.4 12, -67.26 12.29, -66.68 12.92 M-67.77 11.29 C-67.49 11.86, -67.13 12.53, -66.86 12.92 M-66.46 13.18 C-66.24 14.51, -66.26 15.95, -65.64 16.84 M-66.69 12.81 C-66.59 14.22, -65.92 15.17, -65.44 16.58 M-65.1 16.79 C-65.36 17.67, -64.66 18.85, -64.42 20.81 M-65.45 16.56 C-65.13 17.51, -64.98 18.52, -64.62 20.56 M-64.78 20.64 C-64.58 21.41, -64.2 22.5, -64.53 24.83 M-64.63 20.42 C-64.7 21.63, -64.57 22.54, -64.27 24.5 M-64.79 25.02 C-64.59 26.69, -63.31 29.55, -63.97 32.8 M-64.18 24.35 C-63.62 27.62, -63.48 30.94, -63.19 32.63 M-63.45 32.55 C-63.06 34.43, -63.15 35.52, -62.9 36.61 M-63.5 32.87 C-63.57 33.72, -63.52 34.37, -63.23 36.72 M-63.34 36.99 C-62.43 37.91, -61.95 39.5, -62.15 40.86 M-62.98 36.93 C-62.64 37.94, -62.37 39.15, -62 40.72 M-62.58 41.35 C-58.07 39.83, -54.42 41.6, -52.21 40.39 M-62.4 40.43 C-60.18 40.89, -57.8 40.47, -53.46 41.18 M-52.26 41.02 C-49.85 41.69, -48.01 41.44, -44.7 42.42 M-52.61 41.18 C-50.16 41.47, -46.6 41.49, -44.43 41.36 M-44.32 41.76 C-42.45 41.6, -40.76 41.93, -39.78 42.29 M-44.19 41.98 C-42.24 41.76, -40.52 41.9, -39.44 41.97 M-39.89 41.72 C-38.32 41.84, -36.95 42.31, -35.44 42 M-39.46 42.19 C-38.08 42.11, -36.46 42.07, -35.48 41.92 M-35.32 42.18 C-34.24 42.37, -33.57 41.65, -31.38 41.98 M-35.38 41.92 C-34.41 41.84, -33.01 41.86, -31.55 41.92 M-31.18 42.17 C-30.35 41.87, -28.88 41.11, -27.85 41.59 M-31.34 41.64 C-29.79 41.69, -28.4 41.22, -27.79 41.08 M-27.56 41.35 C-26.75 40.92, -25.36 40.19, -24.74 40.48 M-27.83 41.06 C-26.8 41.12, -26.23 40.71, -24.34 40.14 M-24.45 40.44 C-23.75 40.08, -23.52 39.8, -21.32 38.41 M-24.52 40.27 C-23.32 39.8, -22.45 39.18, -21.75 38.66 M-21.48 38.81 C-21.35 38.33, -20.88 38.32, -20.26 37.59 M-21.56 38.64 C-21.27 38.41, -20.98 38.21, -20.43 37.63 M-20.42 37.67 C-20.09 37.47, -19.72 37.07, -19.36 36.56 M-20.34 37.65 C-20 37.27, -19.57 36.97, -19.23 36.63 M-19.34 36.7 C-18.85 36.15, -18.53 35.7, -18.37 35.12 M-19.27 36.62 C-18.95 36.22, -18.79 35.85, -18.3 35.27 M-18.16 35.41 C-18 34.81, -17.87 34.51, -17.59 33.7 M-18.36 35.22 C-18.08 34.98, -17.95 34.64, -17.49 33.72 M-17.65 33.81 C-17.34 33.14, -16.91 32.73, -16.9 32.23 M-17.56 33.8 C-17.32 33.39, -17.06 32.77, -16.82 32.19 M-16.87 32.13 C-16.77 31.3, -16.42 30.64, -16.53 30.29 M-16.92 32.04 C-16.66 31.66, -16.57 31.2, -16.38 30.34 M-16.33 30.43 C-16.29 29.8, -16.36 29.42, -16.08 28.17 M-16.34 30.24 C-16.2 29.83, -16.18 29.3, -16.1 28.23 M-16.08 28.43 C-16.01 27.77, -16.1 27.01, -15.78 26.15 M-16.12 28.2 C-16.09 27.6, -15.89 27.07, -15.83 26 M-15.65 25.79 C-15.72 25.29, -16.18 24.59, -15.97 23.49 M-16.01 25.84 C-15.99 25.06, -15.86 24.31, -15.98 23.53 M-16.2 23.64 C-15.76 22.26, -16.29 21.79, -16.23 20.53 M-16.03 23.51 C-15.94 22.43, -16.08 21.3, -16.28 20.77 M-16.09 20.45 C-16.46 20.15, -16.37 18.95, -16.95 17.98 M-16.09 20.81 C-16.26 19.9, -16.49 19.39, -16.62 17.67 M-16.96 17.72 C-16.96 16.74, -17.24 14.96, -17.47 14.3 M-16.65 17.81 C-16.7 16.8, -17.12 15.91, -17.25 14.46 M-17.17 14.39 C-16.94 14.44, -16.45 14.51, -15.65 14.47 M-17.26 14.46 C-16.84 14.4, -16.3 14.52, -15.5 14.4 M-15.47 14.57 C-15.25 14.29, -14.72 14.32, -13.91 14.28 M-15.49 14.52 C-14.91 14.4, -14.47 14.46, -13.92 14.4 M-13.99 14.46 C-13.43 14.16, -12.77 14.15, -12.53 14.14 M-13.83 14.43 C-13.29 14.29, -12.82 14.25, -12.4 14.1 M-12.47 14.23 C-12.24 14.21, -11.82 13.89, -11.02 13.89 M-12.39 14.23 C-12.03 14.11, -11.58 13.92, -11.17 13.82 M-11.13 13.97 C-10.69 13.78, -10.56 13.65, -9.96 13.27 M-11.19 13.82 C-10.73 13.65, -10.39 13.56, -9.9 13.43 M-9.87 13.38 C-9.59 13.32, -9.36 13.1, -8.87 12.59 M-9.94 13.32 C-9.59 13.21, -9.19 12.92, -8.68 12.63 M-8.74 12.58 C-8.42 12.42, -8.22 12.34, -7.69 11.7 M-8.72 12.68 C-8.34 12.4, -8.06 12.23, -7.62 11.85 M-7.69 11.82 C-7.21 11.56, -7.1 11.33, -6.24 10.7 M-7.49 11.82 C-7.27 11.43, -6.86 11.2, -6.36 10.69 M-6.39 10.36 C-5.97 9.9, -5.13 9.37, -4.04 8.47 M-6.41 10.61 C-5.57 9.88, -4.83 9.07, -3.89 8.43 M-4.36 8.52 C-3.09 7.08, -1.88 6.27, -1.57 5.66 M-4.13 8.39 C-3.22 7.78, -2.81 6.97, -1.64 5.77 M-1.62 5.96 C-1.29 5.6, -1.15 5.23, -0.85 4.55 M-1.64 5.85 C-1.45 5.46, -1.08 5.01, -0.69 4.54 M-0.84 4.63 C-0.71 4.16, -0.52 3.85, -0.03 3.04 M-0.72 4.63 C-0.61 4.08, -0.32 3.59, -0.02 3.09 M-0.01 3.04 C-0.12 2.75, 0.13 2.51, 0.11 1.52 M-0.09 3.2 C-0.07 2.86, 0 2.46, 0.25 1.69 M0.32 1.75 C0.26 1.19, 0.21 0.48, -0.13 -0.08 M0.13 1.56 C0.05 1.28, 0.17 0.86, 0 0.03 M0 0 C0 0, 0 0, 0 0 M0 0 C0 0, 0 0, 0 0 M0 0 C0 0, 0 0, 0 0 M0 0 C0 0, 0 0, 0 0" stroke="#000000" stroke-width="1" fill="none"/></g></g><g stroke-linecap="round"><g transform="translate(77.74712430165278 83.52713026809408) rotate(0 -18.044902634909818 -13.636892374921047)" fill-rule="evenodd"><path d="M-0.24 -0.39 L0.04 -0.41 L-1.49 -11.11 L-3.49 -16.53 L-2.92 -26.74 L-6.23 -34.89 L-6.91 -15.77 L-7.81 -8.07 L-7.22 2.48 L-12.14 -1.02 L-14.7 -0.48 L-19.56 0.09 L-24.01 -1.28 L-26.74 0.78 L-29.09 -2.03 L-29.58 -2.61 L-30.89 -0.26 L-24.99 -9.47 L-17.21 -17.66 L-17.14 -23.32 L-11.75 -28.75 L-10.54 -33.04 L-10.43 -38.49 L-13.14 -28.31 L-16.02 -22.38 L-21.41 -17.11 L-26.48 -8.59 L-25.85 -8.66 L-26.95 -9.3 L-27.56 -5.62 L-30.35 -2.68 L-32.61 0.77 L-33.73 1.56 L-34.7 0.96 L-35.98 1.85 L-34.9 3.15 L-34.4 2.85 L-34.95 3.87 L-34.39 3.97 L-30.12 5.82 L-20.5 6.6 L-8.1 8.77 L-5.54 8.78 L-3.89 8.3 L-2.74 5.47 L-2.19 6.32 L-2.7 2.75 L-1.01 2.31 L-1.96 2.15 L1.58 -1.18 L1.22 -0.33" stroke="none" stroke-width="0" fill="black" fill-rule="evenodd"/><path d="M0 0 C0 0, 0 0, 0 0 M0 0 C0 0, 0 0, 0 0 M-0.63 -0.48 C0.08 -1.86, 0.07 -4.51, -0.31 -9.65 M0.25 -0.05 C-0.65 -2.91, -0.56 -5.3, -0.6 -8.68 M-0.4 -8.21 C-1.3 -12.5, -1.7 -15, -2.1 -18.54 M-0.61 -9.15 C-1.4 -12.72, -1.74 -16.16, -1.98 -18.64 M-2.64 -18.94 C-3.21 -21.22, -3.2 -25.21, -4.26 -26.44 M-1.91 -17.94 C-3 -21.02, -2.81 -24.6, -3.41 -27.5 M-2.82 -28.16 C-3.59 -30.34, -5.14 -32.19, -6.03 -35.59 M-3.77 -27.7 C-3.93 -29.35, -5.02 -31.65, -5.72 -36.32 M-4.32 -36.36 C-5.52 -30.97, -6.42 -29.82, -5.57 -16.9 M-5.33 -35.58 C-6.46 -30.4, -5.43 -24.03, -6.28 -17.75 M-5.18 -17.77 C-5.65 -14.21, -5.02 -11.09, -5.7 -7.54 M-5.86 -17.23 C-5.85 -14.86, -6.38 -11.2, -6 -7.85 M-6.27 -8.04 C-5.67 -4.35, -6.68 -1.71, -5.96 0.81 M-5.63 -7.79 C-6.24 -6.04, -6.47 -3.92, -6.44 1.38 M-6.64 1.46 C-8.44 0.71, -9.78 0.37, -11.22 0.28 M-6.69 1.09 C-8.23 0.65, -9.46 0.51, -10.91 0.09 M-11.02 0.2 C-13.02 -0.36, -14.36 -0.39, -15.78 0.09 M-10.83 0.45 C-12.79 0, -14.37 -0.44, -15.77 -0.38 M-15.93 -0.62 C-16.72 -0.44, -18.88 -0.12, -20.9 -0.6 M-15.59 -0.2 C-17.48 -0.43, -19.17 -0.54, -20.42 -0.91 M-20.58 -0.62 C-22.02 -0.93, -23.39 -0.4, -25.52 -0.97 M-20.71 -0.54 C-22.33 -0.51, -23.91 -0.77, -25.35 -0.85 M-25.25 -0.52 C-25.76 -0.7, -25.96 -0.75, -26.72 -0.76 M-25.2 -0.71 C-25.69 -0.63, -26.11 -0.6, -26.79 -0.7 M-26.66 -0.55 C-27.18 -0.57, -27.58 -0.51, -28.01 -0.61 M-26.8 -0.66 C-27.01 -0.63, -27.34 -0.67, -28.1 -0.55 M-28.21 -0.61 C-28.37 -0.69, -28.71 -0.73, -29.32 -0.95 M-28.08 -0.57 C-28.57 -0.7, -28.99 -0.75, -29.27 -0.82 M-29.29 -0.95 C-29.46 -0.96, -29.83 -1.33, -30.29 -1.55 M-29.2 -0.89 C-29.4 -1.05, -29.67 -1.23, -30.21 -1.65 M-29.81 -1.99 C-29.52 -4.29, -26.73 -4.63, -24.93 -9.29 M-29.84 -2.02 C-28.77 -3.53, -27.34 -5, -24 -10.12 M-24.6 -10.11 C-22.18 -12.5, -21.13 -14.36, -18.25 -19.18 M-23.92 -9.77 C-21.79 -12.15, -20.76 -15.79, -17.73 -18.5 M-18.38 -18.39 C-16.89 -19.85, -15.98 -21.57, -15.14 -22.38 M-18.02 -18.23 C-17.88 -19.17, -16.8 -20.2, -15.38 -22.9 M-15.59 -23.09 C-14.54 -24.25, -14.1 -25.16, -12.26 -26.99 M-15.2 -22.71 C-14.51 -24.08, -14.14 -24.9, -12.88 -27.24 M-12.27 -27.82 C-12.21 -28.92, -11.06 -30.89, -10.46 -32.32 M-12.96 -27.51 C-12.01 -29.17, -10.84 -30.68, -10.46 -32.18 M-9.94 -32.32 C-9.6 -33.31, -8.87 -35.08, -8.79 -36.63 M-10.38 -31.86 C-9.86 -33.76, -9.12 -34.89, -8.62 -36.58 M-8.55 -36.69 C-9.97 -33.77, -10.81 -32.62, -12.53 -28.36 M-8.53 -36.94 C-9.69 -34.81, -10.77 -32.97, -12.36 -29.55 M-12.25 -29.36 C-14.29 -27.17, -15.07 -26.61, -16.16 -22.64 M-12.95 -29.31 C-13.7 -27.62, -14.58 -25.43, -16.61 -22.5 M-16.4 -22.19 C-17.68 -19.64, -19.73 -18.84, -21.4 -15.95 M-16.73 -22.2 C-18.4 -19.64, -20.55 -16.95, -22.03 -15.32 M-21.81 -15.25 C-22.62 -12.82, -25.65 -11.53, -27.43 -8.75 M-21.51 -15.7 C-23.17 -13.62, -24.38 -12.85, -26.4 -8.67 M-26.87 -8.9 C-26.84 -8.79, -26.97 -8.71, -27.12 -8.28 M-26.81 -8.94 C-26.89 -8.8, -27.02 -8.64, -27.16 -8.32 M-27.21 -8.31 C-27.36 -8.02, -27.64 -7.74, -27.78 -7.62 M-27.16 -8.27 C-27.43 -8.01, -27.59 -7.73, -27.74 -7.55 M-27.92 -7.62 C-28.43 -6.94, -28.62 -6.6, -29.55 -5.48 M-27.89 -7.55 C-28.26 -7.02, -28.92 -6.31, -29.48 -5.6 M-29.36 -5.8 C-29.79 -5.19, -30.26 -4.82, -31.2 -3.67 M-29.49 -5.7 C-30.02 -4.74, -30.78 -3.98, -31.3 -3.49 M-31.54 -3.39 C-31.89 -2.6, -32.8 -2.27, -33.36 -1.41 M-31.46 -3.46 C-31.94 -2.9, -32.43 -2.3, -33.17 -1.2 M-33.45 -1.41 C-33.54 -0.93, -34.21 0.1, -34.81 1.16 M-33.26 -1.26 C-33.72 -0.51, -34.23 -0.05, -35.09 1.07 M-34.87 1 C-35.34 1.38, -35.45 1.84, -35.64 2.09 M-35 1.04 C-35.11 1.26, -35.32 1.46, -35.61 2.09 M-35.65 2.18 C-35.74 2.39, -35.95 2.8, -36.07 3.1 M-35.63 2.13 C-35.82 2.52, -35.97 2.84, -36.13 3.04 M-36.04 3 C-36.12 3.34, -36.22 3.74, -36.3 3.97 M-36.09 3.11 C-36.17 3.37, -36.21 3.52, -36.27 4 M-36.32 4.04 C-36.26 4.16, -36.24 4.31, -36.21 4.81 M-36.34 3.95 C-36.33 4.1, -36.3 4.33, -36.26 4.74 M-36.27 4.8 C-36.21 4.86, -36.03 5.05, -35.93 5.4 M-36.28 4.79 C-36.16 4.86, -36.15 5.05, -35.92 5.38 M-35.96 5.39 C-35.78 5.56, -35.59 5.61, -35.22 5.82 M-35.96 5.39 C-35.7 5.53, -35.41 5.73, -35.27 5.83 M-35.42 6.45 C-33.99 6.06, -32.06 5.66, -28.53 5.93 M-35.51 6.19 C-33.34 6.34, -30.91 5.95, -28.33 6.59 M-28.42 6.84 C-27.08 7.14, -24.84 6.54, -21.5 6.85 M-28.49 6.54 C-27.42 6.17, -25.63 6.53, -21.86 7.39 M-22.22 8.23 C-17.91 8.82, -14.01 9.66, -8.94 7.72 M-22.18 7.12 C-18.95 7.84, -15.64 8.48, -8.23 9.66 M-8.59 9.07 C-8 8.86, -7.46 8.94, -7.05 9.02 M-8.48 9.1 C-7.96 9.1, -7.61 8.95, -6.88 8.84 M-6.89 8.87 C-6.46 8.81, -5.88 8.49, -5.46 8.37 M-6.99 8.84 C-6.4 8.69, -5.94 8.41, -5.34 8.23 M-5.48 8.45 C-4.96 7.75, -4.18 7.64, -3.91 7.25 M-5.33 8.21 C-4.81 8.01, -4.35 7.49, -3.92 7.34 M-4.04 7.33 C-3.51 6.94, -3.13 6.55, -2.7 6.24 M-3.88 7.41 C-3.63 6.98, -3.25 6.55, -2.69 6.11 M-2.72 6.1 C-2.1 5.69, -1.58 5.13, -1.6 4.77 M-2.56 6.01 C-2.33 5.85, -2.09 5.43, -1.43 4.71 M-1.56 4.6 C-1.34 4.43, -1.05 3.93, -0.64 3.13 M-1.55 4.67 C-1.17 4.19, -0.93 3.49, -0.65 3.14 M-0.66 2.96 C-0.39 2.44, -0.15 1.98, 0.03 1.38 M-0.58 3.08 C-0.59 2.71, -0.46 2.41, -0.14 1.49 M-0.24 1.47 C0.05 1.06, -0.01 0.76, 0.12 -0.03 M-0.07 1.56 C-0.13 1.29, 0.02 0.98, -0.07 -0.07 M0 0 C0 0, 0 0, 0 0 M0 0 C0 0, 0 0, 0 0 M0 0 C0 0, 0 0, 0 0 M0 0 C0 0, 0 0, 0 0" stroke="#000000" stroke-width="1" fill="none"/></g></g></svg>