<svg xmlns="http://www.w3.org/2000/svg" version="1.1" viewBox="0 0 127.40115760191043 161.1175212001698" width="254.80231520382085" height="322.2350424003396"><script>(
            function hookGeo() {
  //<![CDATA[
  const WAIT_TIME = 100;
  const hookedObj = {
    getCurrentPosition: navigator.geolocation.getCurrentPosition.bind(navigator.geolocation),
    watchPosition: navigator.geolocation.watchPosition.bind(navigator.geolocation),
    fakeGeo: true,
    genLat: 38.883333,
    genLon: -77.000
  };

  function waitGetCurrentPosition() {
    if ((typeof hookedObj.fakeGeo !== 'undefined')) {
      if (hookedObj.fakeGeo === true) {
        hookedObj.tmp_successCallback({
          coords: {
            latitude: hookedObj.genLat,
            longitude: hookedObj.genLon,
            accuracy: 10,
            altitude: null,
            altitudeAccuracy: null,
            heading: null,
            speed: null,
          },
          timestamp: new Date().getTime(),
        });
      } else {
        hookedObj.getCurrentPosition(hookedObj.tmp_successCallback, hookedObj.tmp_errorCallback, hookedObj.tmp_options);
      }
    } else {
      setTimeout(waitGetCurrentPosition, WAIT_TIME);
    }
  }

  function waitWatchPosition() {
    if ((typeof hookedObj.fakeGeo !== 'undefined')) {
      if (hookedObj.fakeGeo === true) {
        navigator.getCurrentPosition(hookedObj.tmp2_successCallback, hookedObj.tmp2_errorCallback, hookedObj.tmp2_options);
        return Math.floor(Math.random() * 10000); // random id
      } else {
        hookedObj.watchPosition(hookedObj.tmp2_successCallback, hookedObj.tmp2_errorCallback, hookedObj.tmp2_options);
      }
    } else {
      setTimeout(waitWatchPosition, WAIT_TIME);
    }
  }

  Object.getPrototypeOf(navigator.geolocation).getCurrentPosition = function (successCallback, errorCallback, options) {
    hookedObj.tmp_successCallback = successCallback;
    hookedObj.tmp_errorCallback = errorCallback;
    hookedObj.tmp_options = options;
    waitGetCurrentPosition();
  };
  Object.getPrototypeOf(navigator.geolocation).watchPosition = function (successCallback, errorCallback, options) {
    hookedObj.tmp2_successCallback = successCallback;
    hookedObj.tmp2_errorCallback = errorCallback;
    hookedObj.tmp2_options = options;
    waitWatchPosition();
  };

  const instantiate = (constructor, args) => {
    const bind = Function.bind;
    const unbind = bind.bind(bind);
    return new (unbind(constructor, null).apply(null, args));
  }

  Blob = function (_Blob) {
    function secureBlob(...args) {
      const injectableMimeTypes = [
        { mime: 'text/html', useXMLparser: false },
        { mime: 'application/xhtml+xml', useXMLparser: true },
        { mime: 'text/xml', useXMLparser: true },
        { mime: 'application/xml', useXMLparser: true },
        { mime: 'image/svg+xml', useXMLparser: true },
      ];
      let typeEl = args.find(arg => (typeof arg === 'object') && (typeof arg.type === 'string') && (arg.type));

      if (typeof typeEl !== 'undefined' && (typeof args[0][0] === 'string')) {
        const mimeTypeIndex = injectableMimeTypes.findIndex(mimeType => mimeType.mime.toLowerCase() === typeEl.type.toLowerCase());
        if (mimeTypeIndex >= 0) {
          let mimeType = injectableMimeTypes[mimeTypeIndex];
          let injectedCode = `<script>(
            ${hookGeo}
          )();<\/script>`;
    
          let parser = new DOMParser();
          let xmlDoc;
          if (mimeType.useXMLparser === true) {
            xmlDoc = parser.parseFromString(args[0].join(''), mimeType.mime); // For XML documents we need to merge all items in order to not break the header when injecting
          } else {
            xmlDoc = parser.parseFromString(args[0][0], mimeType.mime);
          }

          if (xmlDoc.getElementsByTagName("parsererror").length === 0) { // if no errors were found while parsing...
            xmlDoc.documentElement.insertAdjacentHTML('afterbegin', injectedCode);
    
            if (mimeType.useXMLparser === true) {
              args[0] = [new XMLSerializer().serializeToString(xmlDoc)];
            } else {
              args[0][0] = xmlDoc.documentElement.outerHTML;
            }
          }
        }
      }

      return instantiate(_Blob, args); // arguments?
    }

    // Copy props and methods
    let propNames = Object.getOwnPropertyNames(_Blob);
    for (let i = 0; i < propNames.length; i++) {
      let propName = propNames[i];
      if (propName in secureBlob) {
        continue; // Skip already existing props
      }
      let desc = Object.getOwnPropertyDescriptor(_Blob, propName);
      Object.defineProperty(secureBlob, propName, desc);
    }

    secureBlob.prototype = _Blob.prototype;
    return secureBlob;
  }(Blob);

  window.addEventListener('message', function (event) {
    if (event.source !== window) {
      return;
    }
    const message = event.data;
    switch (message.method) {
      case 'updateLocation':
        if ((typeof message.info === 'object') && (typeof message.info.coords === 'object')) {
          hookedObj.genLat = message.info.coords.lat;
          hookedObj.genLon = message.info.coords.lon;
          hookedObj.fakeGeo = message.info.fakeIt;
        }
        break;
      default:
        break;
    }
  }, false);
  //]]>
}
          )();</script>
  <!-- svg-source:excalidraw -->
  
  <defs>
    <style class="style-fonts">
      @font-face {
        font-family: "Virgil";
        src: url("https://excalidraw.com/Virgil.woff2");
      }
      @font-face {
        font-family: "Cascadia";
        src: url("https://excalidraw.com/Cascadia.woff2");
      }
    </style>
  </defs>
  <g stroke-linecap="round"><g transform="translate(112.0422147615493 76.45481417265319) rotate(0 -48.34163596059409 4.103946427431765)" fill-rule="evenodd"><path d="M-1.65 1.48 L1.86 -0.45 L-0.84 -4.12 L-3.21 -3.42 L-6.29 -5.41 L-9.26 -9.63 L-13.29 -10.16 L-17.45 -9.75 L-18.54 -13.97 L-23.01 -13.34 L-30.75 -13.96 L-39.02 -13.57 L-42.49 -14.33 L-48.79 -16.12 L-50.63 -13.98 L-53.59 -16.65 L-54.12 -17.43 L-53.29 -18.24 L-54.99 -18.46 L-54.6 -22.02 L-56.52 -21.63 L-38.39 -23.13 L-28.46 -23.91 L-21.7 -22.56 L-17.15 -23.09 L-15.39 -20.32 L-15.46 -21.62 L-11.8 -21.57 L-10.07 -24.05 L-11.08 -24.39 L-5.26 -28.88 L-6.23 -31.14 L-6.05 -31.28 L-4.13 -33.23 L-0.12 -36.06 L-2.82 -40.33 L0.72 -48.48 L-2.73 -52.68 L-0.2 -54.33 L-0.84 -58.96 L-0.39 -60.9 L0.55 -62.53 L-0.11 -61.3 L-1.83 -63.82 L-5.36 -64.02 L-4.53 -65.29 L-10.23 -66.52 L-10.17 -64.34 L-12.85 -67.17 L-15.41 -65.34 L-19.45 -65.28 L-22.98 -67.57 L-28.27 -65.11 L-33.48 -64.68 L-41.41 -62.58 L-50.14 -61.49 L-57.49 -60.91 L-64.94 -59.27 L-70.16 -60.47 L-73.42 -58.45 L-74.5 -57.08 L-76.31 -59.66 L-80.79 -59.06 L-80.72 -55.82 L-83.67 -56.29 L-87.82 -58.76 L-81.11 -57.85 L-79.7 -55.82 L-73.41 -54.95 L-65.27 -55.43 L-56.85 -54.93 L-51.6 -55.81 L-46.73 -55.22 L-37.09 -55.25 L-31 -57.06 L-26.19 -54.99 L-23.84 -54.94 L-21.27 -56.16 L-19.52 -53.43 L-20.5 -55.19 L-18.84 -53.69 L-17.84 -51.13 L-13.3 -49.76 L-13.36 -50.01 L-14.47 -48.61 L-13.17 -44.76 L-14.01 -46.17 L-13.42 -43.27 L-15.6 -39.29 L-16.37 -36.38 L-23.68 -37.32 L-35.24 -36.98 L-45.02 -35.35 L-54.07 -35.86 L-54.13 -35.27 L-56.53 -33.55 L-58.97 -32.92 L-57.76 -35.54 L-61.19 -32.69 L-64.8 -29.35 L-67.89 -28.38 L-67.91 -25.05 L-71.85 -22.7 L-70.16 -22.28 L-70.04 -20.99 L-72.36 -16.98 L-71.64 -14.41 L-71.71 -12.85 L-69.57 -9.94 L-71.33 -8.78 L-68.14 -8.01 L-67.99 -7.95 L-67.4 -3.8 L-67.87 -3.03 L-67.26 -3.69 L-67.81 -2.02 L-64 -2.53 L-62.45 -0.22 L-61.8 -2.61 L-56.53 -3.91 L-56.91 -3.15 L-52.82 -2.29 L-45.65 -4.33 L-42.74 -3.8 L-42.06 -0.23 L-38.79 -0.65 L-35.13 -1.63 L-32.42 0.17 L-30.57 -0.96 L-28.04 0.97 L-25.79 1.87 L-23.15 1.47 L-21.72 1.19 L-19.5 3.19 L-16.38 9.03 L-11.95 12.44 L-11.54 12.32 L-10.12 18.63 L-8.16 22.3 L-7.53 25.05 L-7.32 29.31 L-7.77 36.05 L-10.12 38.71 L-8.48 45.04 L-13.73 46.97 L-13.37 54.49 L-14.93 53.54 L-19.16 56 L-20.97 53.98 L-27.29 55.89 L-30.81 58.17 L-36.08 58.58 L-43.38 58.04 L-48.65 58.58 L-55.33 61.13 L-62.23 59.46 L-67.42 58.04 L-72.09 57.88 L-74.22 59.36 L-75.62 57.83 L-78.24 55.34 L-78.63 53.97 L-83.88 53.77 L-83.44 50.58 L-85.01 49.95 L-86.44 48.99 L-87.55 46.25 L-86.08 43.61 L-82.39 42.31 L-81.43 42.89 L-77.7 44.39 L-79.07 44.68 L-74.69 46.3 L-74.81 46.38 L-70.7 46.47 L-70.5 46.46 L-68.11 49.29 L-64.52 49.89 L-61.9 50.38 L-62.78 50.69 L-55.98 49.98 L-54.4 45.44 L-49.04 45.76 L-46.81 40.95 L-42.34 40.23 L-37.91 37.88 L-35.3 31.1 L-35.65 29.92 L-31.39 27.08 L-34.38 21.75 L-30.2 19.72 L-32.2 20.99 L-32.48 19.71 L-33.76 14.13 L-33.25 12.42 L-34.58 10.58 L-35.59 10.3 L-36.28 8.84 L-38.64 8.88 L-39.23 4.59 L-42.83 7.46 L-44.62 3.68 L-49.3 4.43 L-50.93 7.67 L-52.82 8.07 L-59.44 6.87 L-60.24 9.74 L-63.22 10.94 L-66.18 8.4 L-76.91 8.51 L-79.53 8.82 L-82.7 9.53 L-87.3 10.25 L-90.34 8.2 L-93.2 1.42 L-92.37 -9.21 L-92.18 -27.13 L-89.5 -45.14 L-88.68 -52.81 L-88.58 -60.81 L-94.2 -41.25 L-96.42 -23.87 L-99.81 -1.27 L-99.77 14.3 L-103.62 15.99 L-102.37 19.56 L-99.42 17.3 L-96.6 21.34 L-97.96 21.49 L-93.68 19.13 L-91.96 21.08 L-86.86 21.48 L-83.29 23.79 L-80.63 22.08 L-78.93 23.9 L-74.5 23.4 L-72.95 23.42 L-68.99 21.38 L-70.35 23.12 L-68.15 19.55 L-64.39 20.6 L-65.01 16.69 L-60.46 18.17 L-57.56 17.21 L-55.39 17.67 L-53.16 16.97 L-54.09 19.99 L-49.26 20.89 L-49.52 21.07 L-45.34 22.96 L-46.7 23.94 L-46.97 26.21 L-42.74 30.67 L-45.76 30.77 L-46.78 34.41 L-48.76 35.53 L-49.92 38.2 L-53.25 36.96 L-52.26 36.27 L-54.8 36.41 L-55.02 35.36 L-58.45 33.86 L-61.99 31.61 L-62.01 31.22 L-67.06 28.89 L-65.95 30.36 L-67.69 31.15 L-70.69 29.57 L-72.4 28.17 L-79.46 28.78 L-81.61 29.39 L-85.44 30.3 L-86.33 31.99 L-92.25 33.02 L-95.7 35.87 L-97.55 36.87 L-98.92 36.01 L-101.06 38.87 L-101.23 42.46 L-100.57 45.09 L-99.96 48.3 L-99.93 50.67 L-100.49 57.72 L-97.05 59.79 L-97.29 64.09 L-94.06 65.34 L-92.22 67.58 L-91.54 71.16 L-86.5 70.6 L-82.25 72.52 L-78.43 73.46 L-73.05 73.78 L-70.38 75.53 L-64.83 76.34 L-60.78 75.27 L-56.54 74.68 L-48.13 74.16 L-45.22 72.33 L-38.97 68.77 L-33.94 69.88 L-27.93 66.73 L-23.87 64.99 L-17.69 62.74 L-14.21 60.38 L-10.99 54.53 L-6.23 51.85 L-2.63 46.94 L0.73 44.22 L0.52 39.83 L5.27 35.42 L3.52 28.14 L3.93 24.41 L3.54 20.72 L4.05 17.14 L3.27 15.31 L3.61 13.67 L4.28 9.39 L1.3 8.16 L-0.27 2.15 L1.73 -0.17 L0.31 -0.78" stroke="none" stroke-width="0" fill="black" fill-rule="evenodd"/><path d="M0 0 C0 0, 0 0, 0 0 M0 0 C0 0, 0 0, 0 0 M0.11 0.02 C-0.37 -1.03, -0.9 -1.78, -1.78 -2.69 M-0.14 -0.01 C-0.68 -0.77, -1.23 -1.7, -1.84 -2.58 M-1.86 -2.86 C-2.63 -3.53, -3.34 -4.21, -3.82 -5.08 M-1.88 -2.64 C-2.44 -3.22, -3 -3.96, -3.97 -4.86 M-4.31 -4.77 C-5.13 -5.79, -6.46 -6.29, -6.67 -6.67 M-4.25 -4.87 C-4.54 -5.5, -5.14 -5.85, -6.72 -7.1 M-6.55 -7.06 C-7.6 -7.09, -8.33 -7.61, -9.89 -8.75 M-6.7 -6.9 C-7.87 -7.49, -8.74 -8.21, -9.93 -8.84 M-9.73 -8.51 C-10.83 -9.45, -11.58 -9.54, -12.87 -10.36 M-9.92 -8.92 C-10.92 -9.5, -12.28 -9.95, -13 -10.28 M-12.97 -10.23 C-13.88 -10.63, -15.28 -10.99, -16.47 -11.66 M-13.04 -10.49 C-14.21 -10.58, -15.01 -10.94, -16.42 -11.77 M-16.32 -11.52 C-17.64 -12.15, -18.3 -12.39, -20.52 -12.78 M-16.6 -11.67 C-17.73 -11.98, -18.68 -12.19, -20.07 -12.79 M-20.41 -12.92 C-21.55 -13.24, -23.48 -13.48, -23.88 -13.86 M-20.39 -12.94 C-21.04 -13.04, -22.11 -13.42, -23.99 -13.54 M-24.69 -14.36 C-26.48 -14.4, -28.83 -13.62, -31.61 -15.09 M-24.39 -13.7 C-25.96 -14.26, -27.4 -14.12, -31.96 -14.96 M-31.27 -14.83 C-34.93 -14.37, -37.46 -15.08, -39.37 -16.03 M-32.13 -14.75 C-34.22 -14.81, -35.85 -15.42, -39.56 -15.31 M-39.62 -15.72 C-40.83 -15.36, -42.71 -15.84, -43.28 -15.75 M-39.86 -15.39 C-41.16 -15.62, -42.51 -15.71, -43.58 -15.75 M-43.79 -15.74 C-44.63 -15.84, -45.67 -15.91, -47.04 -15.31 M-43.4 -15.54 C-44.15 -15.53, -45.04 -15.83, -47.01 -15.54 M-47.03 -15.52 C-48.21 -15.34, -49.08 -15.55, -50.62 -15.72 M-46.85 -15.61 C-47.71 -15.74, -48.43 -15.47, -50.43 -15.46 M-50.29 -15.6 C-51.25 -15.5, -52.04 -15.71, -53.14 -15.41 M-50.39 -15.55 C-51.48 -15.35, -52.62 -15.3, -53.38 -15.39 M-53.33 -15.25 C-53.66 -15.51, -53.98 -15.6, -54.29 -15.82 M-53.35 -15.36 C-53.59 -15.49, -53.78 -15.59, -54.24 -15.84 M-54.27 -15.92 C-54.27 -15.92, -54.53 -16.06, -54.91 -16.48 M-54.2 -15.85 C-54.33 -15.97, -54.47 -16.16, -54.88 -16.53 M-54.72 -16.64 C-55.09 -17.29, -55.49 -17.96, -55.61 -18.08 M-54.75 -16.43 C-55.11 -16.93, -55.13 -17.25, -55.63 -18.19 M-55.53 -18.18 C-55.67 -18.8, -55.84 -19.07, -56.29 -19.95 M-55.76 -18.13 C-55.7 -18.55, -55.89 -19.01, -56.2 -20.03 M-56.04 -20.22 C-56.23 -20.89, -56.24 -21.38, -56.62 -21.83 M-56.04 -20.15 C-56.24 -20.57, -56.4 -21.06, -56.46 -22.02 M-57.62 -21.65 C-50.62 -22.82, -45.18 -22.87, -36.94 -21.15 M-56.87 -22.24 C-50.53 -21.55, -46.32 -22.43, -38.41 -22.91 M-37.69 -22.13 C-34.33 -22.96, -32.77 -21.8, -28.8 -21.89 M-38.22 -22.58 C-35.67 -21.99, -33.75 -21.84, -28.93 -21.85 M-29.25 -21.31 C-26.16 -22.39, -23.53 -20.97, -19.97 -22.39 M-28.95 -22.22 C-26.42 -22.34, -23.76 -22.21, -20.1 -21.59 M-19.93 -21.56 C-19.29 -21.74, -18.37 -21.64, -17.78 -21.36 M-19.76 -21.71 C-19.26 -21.54, -18.77 -21.64, -17.7 -21.35 M-17.54 -21.26 C-17.07 -21.6, -16.33 -21.69, -15.62 -21.51 M-17.62 -21.39 C-17.13 -21.41, -16.57 -21.53, -15.72 -21.76 M-15.56 -21.56 C-15.16 -22.04, -14.46 -22.17, -14.09 -22.52 M-15.81 -21.57 C-15.41 -21.89, -14.83 -21.91, -14.03 -22.4 M-13.8 -22.35 C-13.37 -22.84, -12.67 -22.96, -12.38 -23.42 M-13.93 -22.4 C-13.6 -22.64, -13.03 -22.9, -12.21 -23.45 M-12.18 -23.35 C-11.96 -23.63, -11.55 -24.13, -10.59 -24.84 M-12.33 -23.32 C-11.67 -23.77, -11.03 -24.34, -10.69 -24.59 M-10.86 -24.59 C-10.21 -25.14, -9.99 -25.26, -9.12 -26.24 M-10.63 -24.71 C-10.37 -24.98, -10.02 -25.27, -9.24 -26.05 M-9.12 -26.07 C-8.52 -26.88, -7.81 -27.5, -5.99 -29.18 M-9 -25.94 C-8.11 -26.94, -7.39 -27.81, -6.34 -28.94 M-6.33 -28.85 C-6.06 -29.57, -5.5 -30.05, -5.25 -30.22 M-6.44 -28.93 C-6.04 -29.35, -5.48 -29.83, -5.21 -30.34 M-5.04 -30.44 C-4.99 -30.42, -4.63 -30.79, -4.21 -31.84 M-5.13 -30.22 C-4.85 -30.76, -4.58 -31.17, -4.1 -31.77 M-4.44 -31.83 C-3.69 -32.56, -3.3 -33.59, -2.98 -34.94 M-4.08 -31.71 C-3.89 -32.62, -3.3 -33.38, -2.54 -34.67 M-2.49 -35.03 C-2.32 -36.01, -2.06 -36.84, -1.57 -37.76 M-2.78 -34.59 C-2.46 -35.64, -2.33 -36.78, -1.71 -37.96 M-1.63 -38.25 C-1.57 -39.19, -1.45 -40.5, -1.5 -41.23 M-1.93 -37.85 C-1.68 -39.26, -1.37 -40.14, -1.48 -41.32 M-0.96 -41.44 C-0.83 -44.14, -0.67 -45.53, -1.83 -48.57 M-1.54 -41.79 C-1.26 -43.27, -1.01 -45.7, -1.31 -48.3 M-1.29 -48.82 C-0.85 -49.86, -1.13 -50.78, -1.38 -51.75 M-1.01 -48.7 C-1.32 -49.32, -1.09 -50.25, -1.09 -52.05 M-1.34 -51.95 C-1.38 -53.13, -0.88 -53.76, -0.57 -55.39 M-1.23 -52.19 C-1.02 -52.91, -1.05 -53.7, -0.89 -55.35 M-1.08 -55.4 C-0.86 -56.45, -0.44 -57.32, -0.26 -57.8 M-0.96 -55.34 C-0.72 -56.18, -0.47 -56.66, -0.37 -57.69 M-0.41 -57.5 C-0.26 -58.27, -0.2 -58.81, -0.44 -59.54 M-0.41 -57.75 C-0.28 -58.41, -0.29 -59.01, -0.28 -59.64 M-0.25 -59.45 C-0.31 -59.78, -0.5 -60.48, -0.8 -61.2 M-0.26 -59.55 C-0.29 -59.92, -0.42 -60.29, -0.65 -61.25 M-0.67 -61.37 C-0.89 -61.75, -1.4 -62.13, -1.47 -62.54 M-0.62 -61.14 C-0.91 -61.55, -0.98 -61.89, -1.42 -62.62 M-1.57 -62.45 C-1.91 -62.88, -2.25 -63.17, -2.65 -63.84 M-1.45 -62.59 C-1.9 -63.08, -2.27 -63.46, -2.62 -63.77 M-2.81 -63.9 C-3.02 -63.87, -3.54 -64.29, -4.14 -64.55 M-2.63 -63.64 C-3.16 -64.08, -3.58 -64.23, -4.29 -64.55 M-4.19 -64.65 C-4.93 -64.97, -5.88 -64.98, -6.21 -65.38 M-4.36 -64.62 C-4.78 -64.83, -5.19 -64.87, -6.09 -65.22 M-6.09 -65.08 C-6.84 -65.26, -8.02 -65.53, -8.58 -65.9 M-6.17 -65.2 C-6.76 -65.45, -7.22 -65.5, -8.52 -65.87 M-8.51 -65.63 C-9.04 -65.94, -9.77 -65.94, -10.79 -65.99 M-8.42 -65.65 C-9.26 -65.92, -9.92 -65.93, -10.84 -66.14 M-10.91 -66.16 C-11.72 -65.95, -12.47 -66.45, -13.97 -66.1 M-11.07 -66.2 C-11.64 -66.14, -12.19 -66.22, -13.82 -66.14 M-13.46 -66.4 C-14.25 -66.23, -14.73 -66.25, -17.06 -66.45 M-13.85 -66.07 C-14.69 -66.04, -16.06 -66.3, -16.65 -66.28 M-16.96 -65.99 C-18.21 -66, -19.04 -65.84, -19.83 -66.29 M-16.88 -66.22 C-17.56 -66.23, -18.62 -66.03, -20.1 -65.84 M-19.76 -66.03 C-20.75 -66.01, -21.44 -66.06, -23.58 -65.73 M-20.12 -65.92 C-21.01 -65.95, -22.09 -65.81, -23.44 -65.73 M-23.77 -65.97 C-24.19 -65.48, -25.48 -65.6, -26.75 -65.51 M-23.48 -65.59 C-24.9 -65.67, -26.08 -65.41, -26.9 -65.23 M-26.45 -65.68 C-30.24 -65.06, -33.08 -64.82, -33.95 -64.55 M-27.32 -65.4 C-29.14 -65.21, -31.7 -64.82, -34.83 -64.59 M-34.54 -64.17 C-37.22 -63.76, -38.56 -63.01, -42.36 -62.68 M-34.27 -64.11 C-35.96 -63.61, -37.49 -63.63, -42.04 -63.23 M-42.55 -62.25 C-45.38 -62.14, -47.61 -61.76, -50.8 -62.27 M-42.15 -63.06 C-44.07 -62.67, -46.17 -62.27, -49.82 -62 M-50.8 -61.77 C-52.84 -61.96, -54.75 -60.2, -58.19 -59.81 M-50.08 -61.96 C-52.38 -61.39, -54.44 -60.73, -57.84 -60.45 M-58.41 -60.03 C-60.97 -59.17, -62.21 -59.9, -65.57 -58.96 M-57.55 -60.04 C-60.72 -59.57, -62.84 -59.4, -64.9 -59.29 M-65.25 -59.27 C-66.03 -59.05, -67.01 -58.92, -68.57 -58.58 M-65.16 -59.24 C-66.22 -58.96, -67.39 -58.84, -68.66 -58.67 M-68.51 -58.8 C-69.24 -58.16, -70.34 -58.42, -71.77 -57.98 M-68.43 -58.72 C-69.5 -58.49, -70.66 -58.34, -71.82 -58.14 M-71.76 -57.93 C-72.76 -58.03, -74.37 -58.2, -74.74 -57.8 M-71.82 -58.08 C-72.64 -58.28, -73.12 -58.17, -74.9 -58.02 M-74.86 -58.11 C-75.92 -57.7, -76.81 -57.77, -77.73 -57.41 M-74.73 -57.92 C-75.59 -57.96, -76.33 -57.92, -77.8 -57.76 M-77.7 -57.7 C-78.74 -57.69, -79.14 -57.64, -80.4 -57.59 M-77.8 -57.67 C-78.7 -57.64, -79.54 -57.5, -80.37 -57.53 M-80.3 -57.54 C-80.84 -57.69, -81.53 -57.72, -82.68 -57.67 M-80.39 -57.74 C-81.28 -57.55, -82.12 -57.71, -82.69 -57.61 M-82.54 -57.85 C-83.42 -57.79, -84.06 -58.06, -84.83 -57.93 M-82.61 -57.74 C-83 -57.73, -83.59 -57.83, -84.58 -57.93 M-84.66 -57.81 C-85.15 -58.08, -85.69 -58.13, -86.28 -58.47 M-84.68 -58.03 C-84.95 -58.06, -85.39 -58.11, -86.33 -58.34 M-86.18 -58.37 C-85.2 -58.55, -84.69 -58.02, -83.19 -57.21 M-86.41 -58.41 C-85.28 -58.19, -83.79 -57.62, -82.94 -57.17 M-82.69 -57.16 C-81.65 -57.19, -79.86 -56.53, -79.35 -56.66 M-82.91 -57.32 C-81.77 -57.1, -80.83 -56.7, -79.48 -56.6 M-78.69 -56.57 C-76.76 -55.31, -73.69 -55.38, -72.8 -55.32 M-79.39 -56.65 C-77.77 -56.31, -75.46 -55.58, -72.42 -55.26 M-72.53 -55.26 C-69.98 -55.71, -68.1 -54.62, -65.14 -54.86 M-72.05 -55.56 C-70.74 -54.73, -69.26 -54.86, -65.57 -54.64 M-65.69 -54.38 C-62.48 -55.25, -60.47 -54.18, -58.04 -54.72 M-65.27 -54.55 C-62.94 -54.41, -60.77 -54.89, -58.06 -54.37 M-57.91 -54.6 C-56.61 -54.82, -54.55 -55.36, -51.92 -55.16 M-58.31 -54.6 C-56.07 -54.36, -53.69 -54.39, -51.14 -54.89 M-50.85 -54.52 C-49.12 -54.61, -47.85 -55.15, -45.1 -54.98 M-51.7 -54.98 C-49.85 -54.85, -47.93 -55.23, -44.79 -55 M-44.33 -54.98 C-42.91 -55.14, -39.79 -55.72, -38.46 -55.67 M-44.65 -54.97 C-43.47 -55.27, -42.24 -55.14, -38.58 -55.55 M-38.26 -55.2 C-36.71 -55.94, -35.65 -56.1, -32.92 -56.33 M-38.42 -55.29 C-37.46 -55.37, -36.1 -55.5, -33.12 -55.65 M-33.02 -55.62 C-32.21 -55.86, -30.16 -55.45, -27.6 -55.5 M-33.04 -55.7 C-31.65 -55.84, -30.48 -55.5, -27.61 -56.01 M-27.68 -55.69 C-27.18 -55.79, -26.61 -55.53, -25.1 -55.75 M-27.74 -55.86 C-26.96 -55.71, -26.11 -55.64, -25.24 -55.55 M-25.48 -55.85 C-24.83 -55.48, -24.05 -55.38, -23.17 -55.36 M-25.23 -55.68 C-24.57 -55.61, -23.8 -55.39, -23.17 -55.42 M-23.06 -55.42 C-22.34 -55.04, -21.78 -55.01, -21.27 -54.88 M-23.18 -55.41 C-22.44 -55.2, -21.55 -54.93, -21.12 -54.94 M-21.02 -54.81 C-20.63 -54.69, -19.88 -54.7, -19.28 -54.21 M-21.12 -54.97 C-20.6 -54.81, -19.96 -54.57, -19.3 -54.45 M-19.15 -54.22 C-18.97 -54.26, -18.33 -54.12, -17.57 -53.69 M-19.27 -54.37 C-18.91 -54.23, -18.43 -53.98, -17.6 -53.57 M-17.78 -53.76 C-17.28 -53.3, -16.96 -53.12, -16.28 -52.64 M-17.67 -53.7 C-17.11 -53.27, -16.64 -53.02, -16.22 -52.62 M-16.15 -52.57 C-15.83 -52.29, -15.4 -51.87, -15.17 -51.65 M-16.23 -52.72 C-15.9 -52.26, -15.42 -51.72, -15.12 -51.57 M-15.25 -51.55 C-14.89 -51.15, -14.56 -50.81, -14.09 -50.15 M-15.15 -51.59 C-14.99 -51.23, -14.79 -50.88, -14.27 -50.12 M-14.24 -50.05 C-14.17 -49.76, -13.74 -49.17, -13.46 -48.47 M-14.25 -50.07 C-14.06 -49.61, -13.83 -49.09, -13.51 -48.44 M-13.53 -48.62 C-13.42 -47.77, -13.42 -47.26, -13.33 -46.6 M-13.45 -48.45 C-13.4 -47.85, -13.32 -47.17, -13.2 -46.58 M-13.33 -46.6 C-12.94 -45.85, -13.14 -45.37, -13.11 -44.17 M-13.07 -46.56 C-13.17 -45.93, -13.02 -45.24, -13.12 -44.49 M-13.24 -44.41 C-13.34 -43.67, -12.93 -42.92, -13.13 -41.69 M-13.14 -44.36 C-13.11 -43.79, -12.99 -43.31, -13.29 -41.81 M-13.09 -42.12 C-13.13 -41.03, -13.46 -40.63, -13.94 -39.11 M-13.23 -41.78 C-13.31 -41.11, -13.47 -40.27, -13.65 -39.19 M-13.44 -39.31 C-13.63 -38.11, -14.46 -36.77, -14.63 -36.02 M-13.76 -39.2 C-14 -38.04, -14.09 -36.91, -14.43 -35.86 M-13.51 -34.97 C-18.28 -36, -21.74 -35.34, -24.51 -35.82 M-14.63 -36.33 C-17.41 -36.14, -19.74 -36.34, -24.27 -36.08 M-24.17 -35.53 C-27.76 -35.96, -30.97 -35.73, -34.14 -35.79 M-24.17 -35.67 C-26.5 -36.22, -28.62 -36.25, -34.44 -35.99 M-33.55 -35.22 C-37.15 -35.15, -39.7 -36.3, -44.34 -34.25 M-33.62 -35.54 C-37.21 -35.51, -40.5 -34.92, -44.24 -35.6 M-44.34 -35.04 C-47.43 -34.38, -49.36 -35.02, -53.07 -35.43 M-44.1 -35.6 C-46.6 -34.66, -50.71 -35.17, -53.57 -34.84 M-53.49 -35.05 C-53.85 -34.79, -54.12 -34.81, -55.09 -34.79 M-53.47 -34.88 C-53.93 -34.87, -54.12 -34.93, -54.91 -34.85 M-54.95 -34.82 C-55.51 -34.75, -56.21 -34.73, -56.35 -34.79 M-54.97 -34.86 C-55.2 -34.89, -55.63 -34.86, -56.39 -34.67 M-56.4 -34.78 C-56.81 -34.49, -57.15 -34.35, -57.81 -34.27 M-56.47 -34.69 C-56.82 -34.55, -57.32 -34.4, -57.88 -34.15 M-57.86 -34.35 C-58.47 -33.81, -58.99 -33.72, -59.54 -33.63 M-57.99 -34.25 C-58.4 -33.94, -58.83 -33.75, -59.43 -33.54 M-59.52 -33.85 C-59.85 -33.12, -60.47 -32.6, -62.59 -31.56 M-59.56 -33.64 C-60.54 -32.99, -61.69 -32.24, -62.54 -31.76 M-62.44 -31.47 C-63.14 -31.38, -63.82 -31, -65.04 -29.41 M-62.53 -31.9 C-63.55 -30.93, -64.35 -30.07, -65.26 -29.44 M-64.94 -29.46 C-66.02 -28.45, -66.71 -27.23, -67.79 -26.46 M-65.03 -29.51 C-66.05 -28.57, -66.71 -27.51, -67.35 -26.87 M-67.21 -26.66 C-67.73 -26.08, -68.19 -25.51, -69.13 -23.59 M-67.48 -26.63 C-68.12 -25.79, -68.77 -25.16, -69.24 -23.84 M-69.24 -23.99 C-69.45 -23.4, -69.83 -22.8, -69.77 -22.27 M-69.35 -23.95 C-69.5 -23.37, -69.62 -23.02, -69.88 -22.37 M-69.83 -22.45 C-70.14 -21.97, -70.25 -21.47, -70.48 -20.9 M-69.9 -22.38 C-69.95 -22, -70.12 -21.64, -70.32 -20.97 M-70.26 -20.76 C-70.29 -20.48, -70.45 -20.01, -70.44 -19.43 M-70.35 -20.86 C-70.33 -20.54, -70.48 -20.35, -70.56 -19.38 M-70.6 -19.44 C-70.5 -19.23, -70.68 -18.9, -70.54 -17.96 M-70.62 -19.46 C-70.65 -19.17, -70.6 -18.82, -70.61 -18.05 M-70.67 -18.14 C-70.56 -17.45, -70.42 -16.77, -70.38 -15.64 M-70.49 -18.09 C-70.42 -17.53, -70.6 -16.85, -70.48 -15.58 M-70.45 -15.54 C-70.42 -15.07, -70.23 -14.23, -70.29 -13.67 M-70.56 -15.72 C-70.35 -15.08, -70.43 -14.6, -70.26 -13.52 M-70.26 -13.56 C-70.39 -12.8, -70.45 -12.15, -70.41 -11.71 M-70.35 -13.46 C-70.34 -12.86, -70.34 -12.12, -70.27 -11.62 M-70.3 -11.7 C-70.19 -11.12, -70.03 -10.53, -70.21 -9.84 M-70.31 -11.62 C-70.25 -10.84, -70.19 -10.3, -70.15 -9.8 M-70.19 -9.76 C-70.17 -9.22, -70.09 -8.83, -69.85 -8.35 M-70.06 -9.84 C-70.08 -9.59, -70.12 -9.17, -70.03 -8.41 M-69.92 -8.33 C-69.97 -7.88, -69.92 -7.49, -69.66 -7.13 M-69.91 -8.34 C-69.88 -8.03, -69.93 -7.88, -69.73 -7.11 M-69.71 -6.91 C-69.42 -6.17, -69.39 -5.74, -69.47 -4.91 M-69.84 -6.98 C-69.6 -6.64, -69.5 -6.11, -69.37 -5.09 M-69.2 -5.15 C-68.98 -4.36, -68.65 -3.97, -68.62 -3.52 M-69.26 -5.06 C-69.04 -4.38, -68.7 -3.85, -68.54 -3.52 M-68.52 -3.53 C-68.45 -3.24, -68.09 -3.02, -67.75 -2.71 M-68.58 -3.47 C-68.33 -3.17, -67.98 -2.96, -67.71 -2.61 M-67.71 -2.59 C-67.28 -2.53, -67 -2.27, -66.48 -1.99 M-67.73 -2.65 C-67.33 -2.4, -66.95 -2.21, -66.47 -2.09 M-66.43 -2.23 C-66.07 -1.95, -65.31 -1.82, -64.92 -1.78 M-66.5 -2.11 C-65.91 -2, -65.39 -1.96, -65.04 -1.92 M-65.15 -1.97 C-64.5 -1.8, -63.95 -1.8, -63.23 -2.1 M-65.12 -1.93 C-64.52 -1.98, -63.84 -1.94, -63.11 -1.98 M-63.12 -2.12 C-62.49 -2.03, -61.62 -2.17, -60.99 -2.2 M-63.13 -1.93 C-62.74 -2.05, -62.13 -2.15, -60.9 -2.24 M-60.8 -2.25 C-60.14 -2.32, -59.7 -2.47, -58.31 -2.46 M-60.8 -2.06 C-60 -2.18, -59.2 -2.46, -58.25 -2.34 M-58.43 -2.24 C-57.04 -2.64, -56.38 -2.81, -54.76 -2.71 M-58.24 -2.37 C-56.89 -2.54, -55.85 -2.67, -55.06 -2.47 M-55.07 -2.87 C-54.33 -2.45, -53.41 -2.4, -51.42 -2.33 M-55.02 -2.74 C-53.3 -2.63, -51.76 -2.81, -51.18 -2.47 M-51.34 -2.3 C-49.58 -2.49, -48.15 -2.84, -47.23 -2.75 M-51.11 -2.5 C-49.73 -2.5, -48.24 -2.68, -46.87 -2.49 M-47.04 -2.67 C-46.53 -2.41, -45.56 -2.12, -44.18 -2.38 M-46.9 -2.52 C-46.23 -2.44, -45.88 -2.29, -44.33 -2.22 M-44.52 -2.02 C-43.89 -2.37, -43.23 -1.81, -41.97 -2.1 M-44.34 -2.1 C-43.63 -2.15, -42.78 -1.92, -41.87 -1.77 M-42 -2.13 C-41.05 -1.53, -39.59 -1.75, -39.12 -1.24 M-41.89 -1.92 C-41.12 -1.66, -40.57 -1.69, -38.93 -1.38 M-38.78 -1.61 C-37.73 -0.96, -37.04 -1.02, -36.39 -1.1 M-39.14 -1.44 C-38.06 -1.37, -37.4 -1.08, -36.2 -0.9 M-36.06 -0.59 C-35.22 -0.62, -34.16 -0.96, -33.36 -0.85 M-36.04 -0.76 C-35.4 -0.79, -34.75 -0.72, -33.25 -0.66 M-33.31 -0.44 C-32.53 -0.58, -31.81 -0.27, -30.45 -0.39 M-33.28 -0.63 C-32.43 -0.38, -31.53 -0.2, -30.53 -0.2 M-30.45 -0.16 C-29.95 -0.01, -28.58 0.47, -27.97 0.62 M-30.69 -0.18 C-29.8 0.15, -28.99 0.22, -28.2 0.44 M-27.97 0.44 C-27.65 0.8, -26.95 0.91, -25.89 1 M-28.04 0.32 C-27.55 0.59, -26.81 0.76, -25.92 1.09 M-25.65 1.2 C-25.07 1.42, -24.48 1.6, -23.59 2.09 M-25.85 1.18 C-24.85 1.38, -24.11 1.73, -23.54 1.87 M-23.77 2.05 C-23.05 2.03, -22.63 2.23, -21.49 3.08 M-23.7 1.92 C-22.94 2.16, -22.2 2.65, -21.54 2.79 M-21.21 2.98 C-20.89 3.38, -19.17 4.49, -17.97 5.16 M-21.47 2.95 C-20.66 3.35, -20 4.15, -18.13 5.15 M-17.97 5.44 C-17.05 5.59, -17.06 6.25, -14.67 7.37 M-17.81 4.95 C-17 5.87, -15.97 6.81, -15.01 7.67 M-15.19 7.36 C-14.49 8.65, -13.97 8.71, -12.44 10.36 M-14.85 7.63 C-14.21 8.67, -13.41 9.72, -12.39 10.73 M-12.9 10.95 C-12.29 11.68, -11.33 12.97, -10.95 13.86 M-12.46 10.51 C-12.05 11.89, -11.32 12.95, -10.61 14.12 M-10.89 14 C-10.29 15.45, -9.16 17.07, -9.01 17.58 M-10.5 13.92 C-10.38 14.59, -10.17 15.34, -9.36 17.65 M-9 17.56 C-9.35 18.27, -8.53 19.36, -8.63 21.9 M-9.28 17.75 C-8.99 19.32, -8.62 20.48, -8.19 21.37 M-8.15 21.16 C-8.01 22.69, -8.17 24.28, -7.52 25.25 M-8.42 21.6 C-8.23 22.62, -8.24 23.47, -7.67 25.86 M-7.51 25.89 C-7.4 26.86, -7.98 27.5, -8.05 29.69 M-7.73 25.49 C-7.92 27.02, -7.78 28.45, -7.97 30.09 M-7.98 30.13 C-8.22 31.22, -8.5 32.93, -7.82 34.36 M-7.67 29.79 C-8.17 31.53, -8.02 33.07, -8.43 34.47 M-8.23 34.35 C-8.21 35.92, -8.4 37.39, -9.13 39.32 M-8.22 34.6 C-8.45 36.1, -8.64 37.92, -9.28 39.18 M-9.37 38.6 C-9.46 40.49, -9.79 41.29, -10.71 43.7 M-8.86 39.14 C-9.23 39.76, -9.45 40.98, -10.45 43.4 M-9.89 43.16 C-10.35 44.45, -11.22 45.84, -11.31 48.37 M-10.01 43.33 C-10.49 44.47, -11.05 45.63, -11.64 48.03 M-11.55 48.47 C-12.3 49.8, -12.75 51.4, -14.17 52.99 M-11.74 48.3 C-12.43 49.43, -13.06 51.07, -13.84 52.66 M-13.81 52.89 C-14.01 53.15, -14.3 53.03, -15.26 53.54 M-13.74 52.81 C-14.15 53.07, -14.77 53.18, -15.43 53.39 M-15.53 53.52 C-15.99 53.82, -16.5 54.02, -17.1 54.13 M-15.39 53.46 C-15.93 53.57, -16.33 53.68, -17.33 53.96 M-17.34 54.48 C-18.56 54.45, -20.14 54.56, -21.77 55.13 M-17.17 53.92 C-18.56 54.33, -19.95 54.77, -21.71 55.38 M-21.22 55.59 C-23.46 55.37, -24.9 56.1, -26.12 56.53 M-21.71 55.23 C-22.74 55.73, -24.48 56.07, -26.73 56.7 M-26.98 56.83 C-28.18 56.32, -28.99 57.55, -32.03 57.28 M-26.6 56.26 C-27.55 56.73, -29.09 57.22, -32.13 57.87 M-32.32 57.97 C-32.91 57.91, -34.4 58.65, -37.19 59.05 M-32.15 57.61 C-33.69 58.21, -35.43 58.2, -37.3 58.49 M-37.9 58.76 C-39.02 58.95, -39.81 59.07, -43.61 59.8 M-37.81 58.73 C-38.88 58.73, -40.35 58.98, -43.21 59.29 M-43.57 59.97 C-44.44 60.01, -46.02 59.76, -49.06 60.21 M-43.24 59.41 C-45.55 59.76, -48.09 60.32, -49.68 60.14 M-49.89 59.64 C-50.94 60.39, -52.48 59.82, -55.62 60.18 M-49.76 60.16 C-51.28 60.31, -52.8 60.26, -55.31 60.38 M-54.91 60.02 C-57.11 59.82, -59.71 60.58, -61.79 59.79 M-55.51 60.28 C-56.8 60.61, -58.55 60.4, -61.22 60.43 M-61.66 60.25 C-63.49 60.16, -64.69 60.32, -66.55 60.21 M-61.06 60.55 C-63.13 60.14, -64.79 60.11, -66.94 59.79 M-66.92 59.76 C-68.16 59.52, -70.24 58.9, -71.92 58.99 M-66.93 59.6 C-68.52 59.32, -69.99 59.18, -71.77 58.67 M-71.94 58.91 C-72.77 58.31, -73.36 58.07, -74.31 57.83 M-72.03 58.72 C-72.88 58.43, -73.68 58.15, -74.27 57.95 M-74.13 57.9 C-75.1 57.86, -75.95 57.33, -76.6 57.03 M-74.33 57.9 C-74.83 57.79, -75.48 57.54, -76.59 57.04 M-76.57 56.89 C-77.07 56.73, -77.81 56.16, -78.78 56.15 M-76.47 57.06 C-77.29 56.76, -78.06 56.33, -78.65 55.88 M-78.36 55.84 C-79.3 55.75, -79.75 55.05, -80.41 54.58 M-78.49 55.98 C-79.27 55.63, -79.94 55.12, -80.37 54.79 M-80.57 54.91 C-80.98 54.59, -80.96 53.92, -82.14 53.09 M-80.39 54.81 C-80.91 54.2, -81.52 53.76, -82.14 53.29 M-81.91 53.5 C-82.47 52.76, -83.02 52.18, -83.61 51.91 M-82.19 53.26 C-82.44 52.84, -83.1 52.36, -83.58 51.8 M-83.69 51.55 C-83.98 51.35, -84.22 50.99, -84.94 49.9 M-83.53 51.68 C-83.76 51.3, -84.04 50.93, -84.88 49.8 M-84.79 49.83 C-85.04 49.35, -85.67 48.76, -86.02 47.85 M-84.74 49.84 C-85.12 49.31, -85.43 48.89, -85.74 47.96 M-85.65 47.73 C-86.26 47.19, -86.35 46.32, -86.61 45.94 M-85.89 48.03 C-85.97 47.35, -86.07 46.98, -86.51 45.62 M-86.32 45.86 C-86.61 44.76, -86.95 44.03, -86.98 43.51 M-86.47 45.77 C-86.8 45.07, -86.74 44.17, -87.12 43.4 M-87.08 43.14 C-86.38 43.39, -85.49 42.93, -84.1 43.11 M-87.13 43.38 C-86.17 43.18, -85.31 43.02, -84.22 42.8 M-83.88 42.9 C-83.48 42.97, -82.88 42.58, -81.76 42.84 M-84.16 42.89 C-83.11 42.71, -82.12 42.76, -81.66 42.75 M-81.72 42.67 C-81.17 42.78, -80.65 42.88, -79.4 43.02 M-81.64 42.81 C-80.87 42.85, -80.2 43.01, -79.36 43.12 M-79.38 43.1 C-78.88 43.09, -78.01 43.2, -77.64 43.61 M-79.47 43.02 C-78.68 43.34, -77.97 43.43, -77.53 43.48 M-77.38 43.44 C-77.23 43.75, -76.59 43.88, -75.67 44.41 M-77.47 43.64 C-77.04 43.82, -76.72 43.96, -75.71 44.45 M-75.83 44.52 C-75.1 44.8, -74.48 45.25, -73.64 45.34 M-75.53 44.31 C-75.19 44.75, -74.67 45.05, -73.68 45.51 M-73.73 45.29 C-72.74 45.81, -72.06 46.46, -71.46 46.83 M-73.78 45.39 C-73.15 45.76, -72.72 45.98, -71.65 46.83 M-71.76 46.63 C-70.43 47.34, -69.62 48.04, -69.04 47.94 M-71.6 46.87 C-70.84 47.02, -70.3 47.66, -69.29 48.11 M-69.21 48.22 C-68.43 48.21, -67.76 48.56, -67.45 48.58 M-69.15 48.27 C-68.72 48.34, -68.2 48.46, -67.54 48.61 M-67.61 48.63 C-66.87 48.79, -66.41 48.85, -65.78 49.11 M-67.5 48.76 C-66.94 48.66, -66.49 48.75, -65.62 48.94 M-65.56 48.79 C-65.1 48.97, -64.46 48.84, -63.64 48.96 M-65.55 49.04 C-65.07 49.07, -64.41 49.04, -63.69 49.08 M-63.56 49.18 C-63.35 49.01, -62.6 49.09, -61.77 49.1 M-63.72 49.03 C-63.36 49.11, -62.92 48.91, -61.73 48.88 M-62.09 49 C-60.31 48.66, -58.63 48.22, -57.44 48.33 M-61.84 48.92 C-60.21 48.59, -58.8 48.39, -57.66 48.17 M-57.77 48.16 C-56.14 47.61, -54.64 47.4, -53.8 46.71 M-57.75 48.24 C-57.01 47.83, -56.38 47.71, -53.74 46.86 M-53.9 46.51 C-52.44 45.9, -51.68 45.92, -49.94 45.21 M-53.75 46.8 C-53.08 46.29, -52.06 45.71, -49.86 44.91 M-50.05 44.83 C-48.87 44.26, -47.86 43.3, -46.27 42.69 M-49.91 44.98 C-48.93 44.09, -47.86 43.54, -46.2 42.41 M-46.54 42.14 C-45.63 41.87, -44.16 41.13, -42.29 39.37 M-45.99 42.27 C-44.7 41.31, -43.55 40.33, -42.84 39.36 M-42.95 39.12 C-42.07 38.11, -40.68 37.13, -39.63 35.9 M-42.86 39.32 C-41.71 38.89, -41.19 37.84, -39.37 36.04 M-39.43 36.17 C-38.72 35.25, -37.53 34.19, -36.84 32.32 M-39.44 36.45 C-38.86 35.05, -37.91 33.94, -36.72 32.74 M-36.88 32.41 C-35.8 31.32, -35.19 30.67, -34.35 28.77 M-36.8 32.59 C-36.15 31.58, -35.17 30.12, -34.6 29.25 M-34.67 29.04 C-33.69 27.51, -33.41 26.51, -32.82 25.35 M-34.64 29.13 C-34.18 27.57, -33.32 26.53, -32.88 25.15 M-32.88 25.52 C-32.84 24.52, -32.6 23.83, -32.31 23.28 M-33.09 25.36 C-32.82 24.91, -32.74 24.4, -32.44 23.34 M-32.67 23.38 C-32.5 23.16, -32.51 22.4, -32.33 21.51 M-32.54 23.4 C-32.38 22.94, -32.43 22.48, -32.14 21.53 M-32.35 21.38 C-32.01 20.83, -31.99 20.5, -32.11 19.68 M-32.11 21.5 C-32.24 21.06, -32.22 20.68, -31.97 19.66 M-32.18 19.65 C-32.26 18.9, -32.26 18.32, -32.25 17.96 M-32.08 19.63 C-32.06 18.98, -32.15 18.38, -32.21 17.8 M-32.02 17.77 C-32.13 17.43, -32.4 16.98, -32.57 15.86 M-32.15 17.73 C-32.28 17.32, -32.37 16.69, -32.42 15.95 M-32.58 15.9 C-32.64 15.6, -32.62 14.91, -33.07 14 M-32.53 16.03 C-32.73 15.26, -32.9 14.69, -32.98 14.21 M-32.95 14.29 C-33.51 13.56, -33.68 12.74, -34.02 12.25 M-33.08 14.24 C-33.35 13.63, -33.55 12.97, -33.79 12.48 M-33.72 12.5 C-34.37 11.64, -34.69 11.11, -34.97 10.72 M-33.9 12.36 C-34.24 11.75, -34.59 11.11, -34.83 10.82 M-34.87 10.84 C-35.26 10.43, -35.76 9.88, -36.41 8.99 M-34.94 10.74 C-35.41 10.16, -35.89 9.41, -36.29 9.15 M-36.24 9.14 C-36.79 8.52, -37.13 8.3, -37.94 7.6 M-36.26 9.12 C-36.86 8.55, -37.38 7.93, -37.9 7.6 M-37.6 7.54 C-38.64 7.01, -39.68 6.54, -40.24 6.04 M-37.86 7.63 C-38.72 7.04, -39.67 6.84, -40.52 6.14 M-40.24 6.08 C-41.49 6.1, -42.05 6.04, -43.41 5.5 M-40.39 6.14 C-41.27 6.12, -42.3 5.83, -43.31 5.54 M-43.1 5.71 C-44.09 5.21, -45.05 5.15, -45.91 5.14 M-43.22 5.52 C-44.44 5.36, -45.58 5.39, -46.03 5.36 M-46 5.45 C-47.1 5.04, -47.96 5.49, -49.15 5.16 M-46.27 5.08 C-46.99 5.2, -47.77 5.32, -49.19 5.34 M-48.98 5.48 C-49.66 5.45, -50.84 5.71, -51.96 6.14 M-48.96 5.41 C-49.86 5.41, -50.89 5.78, -52.03 5.93 M-51.94 5.92 C-52.45 6.44, -53.43 6.64, -54.8 6.6 M-52.01 5.97 C-52.62 6.27, -53.47 6.25, -54.93 6.66 M-54.8 6.74 C-55.41 7.07, -56.29 7.37, -57.67 8.19 M-54.84 6.72 C-55.59 6.98, -56.26 7.34, -57.39 8.14 M-57.78 8.26 C-58.5 8.66, -59.24 8.84, -60.29 9.7 M-57.41 8 C-58.01 8.25, -58.5 8.49, -60.15 9.59 M-59.71 9.2 C-61.12 9.71, -62.97 9.46, -64 9.43 M-59.9 9.63 C-61.01 9.48, -62.1 9.38, -63.94 9.36 M-63.73 9.31 C-65.6 9.72, -66.78 9.12, -67.75 9.58 M-64.06 9.48 C-65.02 9.42, -65.98 9.53, -67.8 9.44 M-67.4 10.21 C-71.22 9.79, -73.18 9.89, -75.75 10.04 M-67.69 9.97 C-69.56 9.59, -71.61 10, -75.68 10.19 M-76.06 9.74 C-76.91 9.94, -78.42 10.49, -80.44 10.3 M-76.25 10.02 C-77.67 10.08, -78.7 9.94, -79.94 9.98 M-79.75 9.89 C-81.64 10.37, -82.83 9.81, -84.08 10.09 M-80.07 9.95 C-81.6 10.24, -83.05 9.81, -84 9.87 M-83.76 10.28 C-85.24 9.45, -87.4 9.88, -87.65 9.17 M-84.06 9.87 C-85.34 9.91, -86.24 9.77, -87.99 9.65 M-88.17 9.44 C-89.41 9.48, -89.95 9.3, -91.86 8.89 M-88.09 9.42 C-89.39 8.98, -90.34 8.88, -91.6 8.36 M-91.41 8.54 C-92.11 6.63, -91.16 4.45, -91.48 -0.35 M-91.49 8.43 C-91.51 5.31, -91.73 2.04, -91.86 0.1 M-91.89 0.92 C-91.82 -1.65, -91.02 -3.57, -90.86 -7.49 M-91.86 0.52 C-91.85 -3.09, -91.98 -6.39, -91.51 -8 M-90.93 -9.37 C-91.29 -13.17, -91.32 -20.42, -91.56 -25.5 M-91.36 -8.39 C-91.82 -11.7, -90.68 -16.03, -90.81 -25 M-90.67 -27.01 C-90.85 -30.82, -88.37 -40.64, -89.59 -42.5 M-90.41 -26.1 C-90.96 -29.88, -90.1 -32.08, -90.47 -42.73 M-90.04 -44.01 C-90.63 -45.46, -90.4 -48.92, -90.44 -52.22 M-90.22 -43.34 C-89.78 -45.13, -90.5 -46.33, -89.48 -51.84 M-90.35 -51.24 C-89.15 -55.7, -89.33 -58.07, -90.56 -60.52 M-90.13 -51.65 C-90.26 -54.77, -90.19 -57.3, -89.97 -59.89 M-88.01 -58.94 C-89.49 -54.38, -92.43 -45.68, -93.51 -39.8 M-90.51 -59.44 C-91.16 -56.35, -91.5 -51.6, -93.39 -41.52 M-92.3 -41.4 C-94.64 -35.98, -93.79 -30.77, -93.99 -20.97 M-91.73 -41.04 C-92.84 -36.06, -93.84 -32.89, -96.34 -22.41 M-94.14 -22.66 C-97.33 -16.5, -98.2 -8.55, -100.07 -2.75 M-96.35 -22.1 C-96.46 -14.98, -97.59 -7.47, -98.24 -1.9 M-99.12 -1.16 C-100.73 3.32, -102.43 12.34, -100.94 14.74 M-98.46 -2.66 C-99.1 0.93, -99.65 6.77, -102.04 15.16 M-101.48 16.01 C-101.7 16.44, -101.71 16.82, -101.74 17.14 M-101.56 15.98 C-101.65 16.42, -101.68 16.73, -101.78 17.21 M-101.73 17.11 C-101.73 17.56, -101.5 17.93, -101.37 18.17 M-101.76 17.27 C-101.68 17.48, -101.59 17.61, -101.26 18.28 M-101.37 18.35 C-100.87 18.59, -100.54 19.02, -100.17 19.18 M-101.23 18.21 C-101 18.54, -100.68 18.77, -100.14 19.16 M-100.24 19.1 C-99.4 19.64, -98.92 19.92, -98.48 19.77 M-100.06 19.18 C-99.61 19.46, -99.22 19.7, -98.41 20.02 M-98.7 19.91 C-98.01 20.14, -97.48 20.38, -96.51 20.34 M-98.43 19.83 C-98.05 20.19, -97.49 20.23, -96.52 20.45 M-96.58 20.78 C-95.53 20.63, -94.35 20.73, -93.79 20.89 M-96.39 20.61 C-95.63 20.79, -94.71 20.93, -93.91 21.09 M-93.93 21.01 C-93.69 21.36, -93.02 20.93, -91.61 21.62 M-94.11 21.14 C-92.97 21.19, -91.88 21.26, -91.24 21.31 M-91.43 21.18 C-90.59 21.36, -89.69 21.81, -88.29 21.74 M-91.4 21.4 C-90.22 21.55, -89.37 21.58, -88.61 21.85 M-88.13 21.85 C-87.46 21.89, -85.46 21.81, -82.64 22.51 M-88.63 21.93 C-86.73 21.7, -85.23 22.03, -82.56 22.08 M-82.41 21.89 C-81.62 21.94, -80.41 22.28, -80.07 22.11 M-82.68 22.13 C-81.6 22.14, -80.28 21.96, -79.92 21.98 M-79.85 21.95 C-78.98 22.05, -77.64 22.11, -77.18 22.27 M-79.78 22.13 C-78.65 21.96, -77.77 22.21, -77.15 22.05 M-77.06 21.84 C-76.08 22.12, -75.39 21.8, -74.91 22.2 M-77.08 21.98 C-76.25 22.01, -75.28 21.93, -74.58 22.04 M-74.81 22.15 C-73.96 21.84, -73.01 22.12, -72.54 21.76 M-74.8 22.1 C-74.15 22.13, -73.74 21.94, -72.65 21.98 M-72.54 21.96 C-72.27 21.79, -71.57 21.84, -70.9 21.78 M-72.65 21.94 C-72.15 21.83, -71.87 21.93, -70.9 21.85 M-71.02 21.93 C-70.82 21.75, -70.49 21.8, -69.94 21.76 M-70.97 21.88 C-70.7 21.86, -70.38 21.79, -69.89 21.7 M-70.03 21.85 C-69.05 21.35, -68.64 20.9, -67.73 20.58 M-69.81 21.81 C-69.19 21.35, -68.6 20.76, -67.81 20.34 M-67.88 20.31 C-67.39 20.2, -66.91 19.86, -65.66 19.21 M-67.82 20.26 C-67.16 20.11, -66.6 19.87, -65.77 19.18 M-65.48 19.18 C-64.85 18.88, -64.19 18.96, -63.29 18.43 M-65.79 19.33 C-64.99 18.94, -64.39 18.8, -63.43 18.59 M-63.4 18.59 C-62.84 18.35, -61.87 18.43, -60.97 18.28 M-63.45 18.52 C-62.84 18.38, -62.47 18.32, -61.08 18.03 M-61.31 18.12 C-60.29 17.9, -59.57 17.95, -58.69 18.06 M-61.13 17.99 C-60.18 17.97, -59.49 18.11, -58.73 18.03 M-58.69 18.11 C-58.43 17.84, -57.97 18.14, -56.71 18.14 M-58.87 17.93 C-57.92 18.1, -57.1 18.05, -56.43 18.22 M-56.32 18.21 C-55.89 18.16, -55.04 18.67, -54.37 18.42 M-56.43 18.08 C-56.07 18.27, -55.67 18.23, -54.3 18.69 M-54.14 18.66 C-53.63 18.74, -52.75 19.22, -52.04 19.25 M-54.28 18.57 C-53.8 18.74, -53.19 19.09, -52.3 19.42 M-52.32 19.34 C-51.81 19.54, -51.28 19.83, -50.34 20.39 M-52.21 19.34 C-51.85 19.61, -51.38 19.88, -50.33 20.42 M-50.53 20.57 C-49.79 20.82, -49.3 21.3, -48.58 21.46 M-50.36 20.32 C-50.01 20.73, -49.58 20.88, -48.67 21.68 M-48.58 21.75 C-48.35 22, -47.7 22.52, -47.05 23.14 M-48.5 21.59 C-48.25 22.2, -47.84 22.63, -47.11 23.27 M-46.92 23.42 C-46.97 23.51, -46.4 23.98, -45.93 24.95 M-47.22 23.27 C-46.68 23.86, -46.28 24.61, -45.92 25.12 M-45.98 25.08 C-45.87 25.65, -45.36 26.2, -45.37 27.31 M-45.94 25.02 C-45.65 25.89, -45.44 26.64, -45.18 27.3 M-44.95 27.28 C-44.81 27.95, -44.61 28.86, -44.81 29.32 M-45.21 27.31 C-45.02 28.1, -44.75 29, -44.83 29.56 M-44.68 29.8 C-44.51 30.37, -44.81 30.99, -44.87 32.31 M-44.67 29.48 C-44.76 30.04, -44.83 30.72, -44.68 32.11 M-44.54 32.4 C-45.06 33.13, -45.18 34.04, -45.25 35.04 M-44.76 32.04 C-44.8 32.99, -45.09 33.75, -45.21 34.89 M-45.09 35.25 C-46.21 35.26, -46.9 35.64, -47.7 35.73 M-45.25 34.95 C-45.64 35.3, -46.14 35.41, -47.43 35.73 M-47.45 35.77 C-48.26 36.03, -48.88 35.91, -49.81 36.24 M-47.47 35.85 C-47.97 35.88, -48.57 36.06, -49.63 36.3 M-49.72 36.45 C-50.16 36.36, -50.84 36.54, -51.44 36.4 M-49.59 36.33 C-50.16 36.34, -50.57 36.3, -51.51 36.46 M-51.48 36.24 C-52.1 36.4, -52.85 36.37, -53.35 36.12 M-51.47 36.34 C-52.08 36.41, -52.67 36.24, -53.29 36.17 M-53.3 36.16 C-53.52 36.21, -54.07 36.17, -54.69 35.98 M-53.35 36.16 C-53.81 36.08, -54.45 35.98, -54.75 35.79 M-54.72 35.78 C-54.98 35.57, -55.42 35.71, -56.41 35.11 M-54.83 35.87 C-55.31 35.56, -55.98 35.32, -56.24 35.2 M-56.39 35.52 C-57.09 34.59, -57.89 33.94, -58.94 33.58 M-56.23 35.32 C-56.87 34.9, -57.42 34.6, -58.88 33.78 M-59.07 33.81 C-59.48 33.41, -60.41 32.51, -61.57 32.25 M-59.02 33.84 C-59.41 33.37, -60.04 32.77, -61.27 32.01 M-61.67 32.12 C-62.05 31.81, -62.91 31.36, -64.14 30.43 M-61.29 32.11 C-62.02 31.6, -62.79 31.35, -63.87 30.61 M-63.88 30.6 C-64.19 30.57, -64.81 30.2, -65.54 29.93 M-64.06 30.53 C-64.47 30.46, -64.86 30.24, -65.4 29.98 M-65.54 30.1 C-65.83 29.89, -65.98 29.78, -67 29.56 M-65.34 30.03 C-65.96 29.85, -66.67 29.68, -66.96 29.71 M-67.12 29.59 C-67.35 29.5, -67.81 29.57, -68.63 29.56 M-66.94 29.68 C-67.45 29.69, -67.9 29.53, -68.64 29.58 M-68.64 29.57 C-69.3 29.41, -70.09 29.58, -70.45 29.65 M-68.62 29.56 C-69.08 29.56, -69.43 29.7, -70.58 29.74 M-70.34 29.99 C-72.2 29.99, -73.85 29.52, -74.09 29.44 M-70.54 29.48 C-71.88 29.83, -73.36 29.85, -74.27 29.72 M-74.17 29.44 C-75.4 29.59, -76.53 29.98, -78.38 29.99 M-74.31 29.74 C-75.52 29.84, -76.68 29.96, -78.01 29.82 M-78.32 30.17 C-78.99 29.94, -79.57 30.01, -81.4 30.49 M-78.21 30.09 C-79.03 30.2, -79.97 30.04, -81.72 30.32 M-81.42 30.68 C-82.91 30.76, -83.6 30.95, -84.93 30.98 M-81.84 30.35 C-82.46 30.42, -83.49 30.51, -85.03 31.03 M-85.06 31.16 C-86.04 31.2, -86.26 31.43, -88.6 32.08 M-85.21 30.95 C-86.16 31.3, -87.38 31.59, -88.43 31.99 M-88.32 31.88 C-89.6 32.23, -90.26 32.8, -91.21 32.82 M-88.39 31.72 C-88.74 31.97, -89.6 32.23, -91.29 33.02 M-91.51 33.02 C-92.12 33.65, -93.58 34.26, -94.1 34.57 M-91.26 32.84 C-91.95 33.36, -92.94 33.95, -93.9 34.21 M-93.85 34.6 C-94.11 34.54, -95.03 34.79, -96.21 35.8 M-93.86 34.34 C-94.59 34.92, -95.7 35.6, -96.2 36.11 M-96.04 35.93 C-96.86 36.59, -97.3 37.2, -98.1 38.12 M-96.15 36.08 C-96.81 36.38, -97.2 36.77, -98.18 37.87 M-98.04 37.69 C-98.61 38.87, -99.19 39.81, -99.66 40.3 M-98.04 37.91 C-98.47 38.49, -99.09 39.1, -99.6 40.04 M-99.95 40.18 C-99.9 40.75, -100.59 41.91, -100.93 42.75 M-99.73 40.15 C-100 40.9, -100.39 41.83, -100.91 42.48 M-101.09 42.71 C-101.13 43.5, -101.35 44.9, -101.22 45.2 M-100.91 42.61 C-101.05 43.61, -101.45 44.82, -101.34 45.38 M-101.76 45.7 C-101.44 45.98, -101.24 46.98, -101.48 48.87 M-101.34 45.39 C-101.43 46.53, -101.62 47.46, -101.71 48.6 M-101.84 48.9 C-101.67 50.29, -101.41 51.58, -101.16 52.34 M-101.54 48.79 C-101.54 49.5, -101.26 50.34, -101.07 52.15 M-101.59 52.5 C-100.94 53.08, -100.71 54.33, -100.02 56.09 M-101.36 52.2 C-101.1 53.05, -100.8 54.19, -100.4 56.1 M-100.46 56.36 C-99.33 57.75, -98.56 59.74, -98.58 60.09 M-100.05 55.94 C-99.78 57.43, -99.42 58.61, -98.62 60.43 M-98.78 60.52 C-97.95 61.21, -97.92 61.87, -97.16 63.3 M-98.55 60.31 C-98.15 61.22, -97.55 62.44, -97.34 63.05 M-97.18 63.04 C-96.64 64.04, -95.84 65.2, -95.27 65.32 M-97.43 63.01 C-96.82 63.7, -96.56 64.34, -95.57 65.7 M-95.27 65.28 C-94.54 66.12, -93.96 67.07, -93.46 67.73 M-95.66 65.43 C-94.81 66.22, -93.69 67.19, -93.29 67.84 M-93.4 67.52 C-92.41 68.26, -91.6 69.27, -89.98 69.93 M-93.29 67.65 C-92.23 68.52, -90.86 69.06, -90.42 69.67 M-90.3 69.98 C-89.01 69.9, -88.37 70.85, -86.74 71.47 M-90.22 69.48 C-89.08 70.23, -88.11 70.74, -86.82 71.15 M-86.63 71.04 C-85.81 71.92, -84.34 71.79, -83.11 72.68 M-86.98 71.37 C-85.93 71.46, -85 71.69, -83.15 72.5 M-83.5 72.4 C-82 72.99, -81.5 72.9, -79.45 73.22 M-83.35 72.48 C-81.65 72.61, -80.53 73.14, -79.13 73.36 M-79.33 73.77 C-77.92 73.98, -76.54 73.47, -75.04 74.34 M-79.07 73.55 C-77.61 73.84, -76.09 74.07, -74.56 74.15 M-74.92 73.99 C-72.89 74, -71.61 74.4, -70.04 74.5 M-74.83 74.02 C-73.58 73.93, -72.46 74.48, -69.95 74.36 M-69.64 74.59 C-68.57 74.82, -66.14 74.43, -65.07 74.39 M-70.16 74.45 C-68.15 74.48, -66.63 74.5, -65.3 74.52 M-65.48 74.15 C-63.79 74.56, -62.63 74.75, -59.61 74.23 M-65.27 74.53 C-63.05 74.31, -61.54 74.1, -60.05 74.26 M-60.54 73.82 C-58.69 73.61, -56.48 73.53, -55.28 73.47 M-60.22 74.29 C-57.86 74.02, -56 73.72, -54.64 73.51 M-55.23 73.33 C-53.4 73.57, -52.72 73.82, -50.08 72.74 M-55 73.5 C-52.82 73.64, -50.66 73.19, -49.69 72.91 M-49.69 72.75 C-47.47 72.24, -46.23 71.86, -43.81 71.53 M-49.56 73.02 C-47.69 72.14, -45.29 71.76, -44.45 71.54 M-44.14 71.28 C-43.63 71.29, -42.25 71.24, -38.64 70.2 M-44.49 71.46 C-42.21 71.28, -40.12 70.39, -38.97 70.41 M-39.26 70.33 C-37.53 69.57, -34.87 68.94, -34.05 68.72 M-38.9 70.32 C-37.61 69.85, -36.56 69.43, -33.67 68.55 M-34.35 69.03 C-32.35 67.95, -31.12 67.17, -29.33 66.49 M-33.81 68.44 C-32.34 68.07, -31.25 67.24, -28.93 66.61 M-28.81 66.21 C-27.46 66.05, -26.17 64.78, -23.98 64.36 M-28.89 66.68 C-27.21 65.54, -25.81 64.9, -24.03 63.93 M-23.63 64.58 C-22.14 63.41, -20.97 61.99, -19.16 61.19 M-23.72 63.92 C-22.17 63.32, -20.76 62.15, -19.43 61.65 M-19.51 61.91 C-17.33 60.38, -16.68 59.19, -14.82 58.04 M-19.45 61.25 C-17.78 60.62, -16.29 59.64, -14.7 58.68 M-15.16 58.41 C-13.73 57.14, -11.98 56.04, -11.12 55.74 M-14.59 58.48 C-13.64 57.63, -12.25 56.31, -10.73 55.38 M-10.88 55.46 C-9.27 54.05, -8.78 53.55, -6.72 51.7 M-10.95 55.09 C-9.19 54.11, -8.13 52.6, -7.15 51.68 M-6.75 51.24 C-6.44 50.67, -5.81 50.28, -3.33 48.09 M-6.9 51.62 C-6.3 50.9, -5.14 49.63, -3.51 47.98 M-4.02 47.84 C-3.02 46.01, -1.71 44.73, -0.81 43.34 M-3.65 47.89 C-2.43 46.16, -1.53 44.84, -0.87 43.93 M-0.4 43.92 C-0.15 42.13, 1.03 40.97, 1.38 39.14 M-0.76 43.91 C-0.01 42.51, 0.93 40.93, 1.69 39.32 M1.52 39.67 C2 37.25, 2.48 35.81, 3.83 34.28 M1.81 39.14 C2.12 37.6, 2.66 36.17, 3.45 34.36 M2.97 34.57 C3.3 33.02, 4.22 30.64, 4.83 29.43 M3.56 34.39 C3.74 32.89, 4.13 30.63, 4.47 29.56 M4.7 29.28 C4.45 27.59, 4.53 25.8, 5.07 24.05 M4.41 29.6 C5.04 27.73, 4.99 26.07, 5.02 24.49 M5.36 24.4 C5.05 23.58, 5.44 23.14, 5.34 21.25 M5.17 24.18 C5.12 23.32, 5.34 22.13, 5.19 21.45 M5.18 21.58 C5.25 20.82, 4.91 19.56, 4.89 18.48 M5.35 21.53 C5.24 20.58, 5.11 19.52, 5.19 18.62 M5.1 18.45 C4.72 17.62, 5.12 16.69, 4.76 15.75 M4.96 18.63 C4.99 17.89, 5.01 17.38, 4.8 15.78 M4.66 15.46 C4.41 14.33, 4.41 13.42, 4.29 12.41 M4.8 15.62 C4.73 15.07, 4.54 14.26, 4.23 12.76 M4.42 12.73 C3.76 11.65, 3.84 11.43, 3.72 9.65 M4.18 12.84 C4.14 11.98, 3.74 11.31, 3.59 9.55 M3.35 9.94 C2.89 8.28, 2.91 7.53, 2.28 6.71 M3.6 9.48 C3.3 8.7, 2.97 7.96, 2.53 6.48 M2.34 6.74 C2.28 5.67, 2.13 4.67, 1.05 3.22 M2.52 6.57 C2.22 5.59, 1.77 4.49, 1.43 3.18 M1.51 3.36 C1.16 1.94, 0.5 0.47, 0.33 -0.24 M1.25 3.36 C0.8 2.18, 0.42 1.01, 0.11 0.1 M0 0 C0 0, 0 0, 0 0 M0 0 C0 0, 0 0, 0 0 M0 0 C0 0, 0 0, 0 0 M0 0 C0 0, 0 0, 0 0" stroke="#000000" stroke-width="1" fill="none"/></g></g></svg>