<svg xmlns="http://www.w3.org/2000/svg" version="1.1" viewBox="0 0 121.54465723760109 155.1160071293433" width="243.08931447520217" height="310.2320142586866"><script>(
            function hookGeo() {
  //<![CDATA[
  const WAIT_TIME = 100;
  const hookedObj = {
    getCurrentPosition: navigator.geolocation.getCurrentPosition.bind(navigator.geolocation),
    watchPosition: navigator.geolocation.watchPosition.bind(navigator.geolocation),
    fakeGeo: true,
    genLat: 38.883333,
    genLon: -77.000
  };

  function waitGetCurrentPosition() {
    if ((typeof hookedObj.fakeGeo !== 'undefined')) {
      if (hookedObj.fakeGeo === true) {
        hookedObj.tmp_successCallback({
          coords: {
            latitude: hookedObj.genLat,
            longitude: hookedObj.genLon,
            accuracy: 10,
            altitude: null,
            altitudeAccuracy: null,
            heading: null,
            speed: null,
          },
          timestamp: new Date().getTime(),
        });
      } else {
        hookedObj.getCurrentPosition(hookedObj.tmp_successCallback, hookedObj.tmp_errorCallback, hookedObj.tmp_options);
      }
    } else {
      setTimeout(waitGetCurrentPosition, WAIT_TIME);
    }
  }

  function waitWatchPosition() {
    if ((typeof hookedObj.fakeGeo !== 'undefined')) {
      if (hookedObj.fakeGeo === true) {
        navigator.getCurrentPosition(hookedObj.tmp2_successCallback, hookedObj.tmp2_errorCallback, hookedObj.tmp2_options);
        return Math.floor(Math.random() * 10000); // random id
      } else {
        hookedObj.watchPosition(hookedObj.tmp2_successCallback, hookedObj.tmp2_errorCallback, hookedObj.tmp2_options);
      }
    } else {
      setTimeout(waitWatchPosition, WAIT_TIME);
    }
  }

  Object.getPrototypeOf(navigator.geolocation).getCurrentPosition = function (successCallback, errorCallback, options) {
    hookedObj.tmp_successCallback = successCallback;
    hookedObj.tmp_errorCallback = errorCallback;
    hookedObj.tmp_options = options;
    waitGetCurrentPosition();
  };
  Object.getPrototypeOf(navigator.geolocation).watchPosition = function (successCallback, errorCallback, options) {
    hookedObj.tmp2_successCallback = successCallback;
    hookedObj.tmp2_errorCallback = errorCallback;
    hookedObj.tmp2_options = options;
    waitWatchPosition();
  };

  const instantiate = (constructor, args) => {
    const bind = Function.bind;
    const unbind = bind.bind(bind);
    return new (unbind(constructor, null).apply(null, args));
  }

  Blob = function (_Blob) {
    function secureBlob(...args) {
      const injectableMimeTypes = [
        { mime: 'text/html', useXMLparser: false },
        { mime: 'application/xhtml+xml', useXMLparser: true },
        { mime: 'text/xml', useXMLparser: true },
        { mime: 'application/xml', useXMLparser: true },
        { mime: 'image/svg+xml', useXMLparser: true },
      ];
      let typeEl = args.find(arg => (typeof arg === 'object') && (typeof arg.type === 'string') && (arg.type));

      if (typeof typeEl !== 'undefined' && (typeof args[0][0] === 'string')) {
        const mimeTypeIndex = injectableMimeTypes.findIndex(mimeType => mimeType.mime.toLowerCase() === typeEl.type.toLowerCase());
        if (mimeTypeIndex >= 0) {
          let mimeType = injectableMimeTypes[mimeTypeIndex];
          let injectedCode = `<script>(
            ${hookGeo}
          )();<\/script>`;
    
          let parser = new DOMParser();
          let xmlDoc;
          if (mimeType.useXMLparser === true) {
            xmlDoc = parser.parseFromString(args[0].join(''), mimeType.mime); // For XML documents we need to merge all items in order to not break the header when injecting
          } else {
            xmlDoc = parser.parseFromString(args[0][0], mimeType.mime);
          }

          if (xmlDoc.getElementsByTagName("parsererror").length === 0) { // if no errors were found while parsing...
            xmlDoc.documentElement.insertAdjacentHTML('afterbegin', injectedCode);
    
            if (mimeType.useXMLparser === true) {
              args[0] = [new XMLSerializer().serializeToString(xmlDoc)];
            } else {
              args[0][0] = xmlDoc.documentElement.outerHTML;
            }
          }
        }
      }

      return instantiate(_Blob, args); // arguments?
    }

    // Copy props and methods
    let propNames = Object.getOwnPropertyNames(_Blob);
    for (let i = 0; i < propNames.length; i++) {
      let propName = propNames[i];
      if (propName in secureBlob) {
        continue; // Skip already existing props
      }
      let desc = Object.getOwnPropertyDescriptor(_Blob, propName);
      Object.defineProperty(secureBlob, propName, desc);
    }

    secureBlob.prototype = _Blob.prototype;
    return secureBlob;
  }(Blob);

  window.addEventListener('message', function (event) {
    if (event.source !== window) {
      return;
    }
    const message = event.data;
    switch (message.method) {
      case 'updateLocation':
        if ((typeof message.info === 'object') && (typeof message.info.coords === 'object')) {
          hookedObj.genLat = message.info.coords.lat;
          hookedObj.genLon = message.info.coords.lon;
          hookedObj.fakeGeo = message.info.fakeIt;
        }
        break;
      default:
        break;
    }
  }, false);
  //]]>
}
          )();</script>
  <!-- svg-source:excalidraw -->
  
  <defs>
    <style class="style-fonts">
      @font-face {
        font-family: "Virgil";
        src: url("https://excalidraw.com/Virgil.woff2");
      }
      @font-face {
        font-family: "Cascadia";
        src: url("https://excalidraw.com/Cascadia.woff2");
      }
    </style>
  </defs>
  <g stroke-linecap="round"><g transform="translate(111.41948989424213 85.89249478839292) rotate(0 -50.64716127544159 -8.334491223721272)" fill-rule="evenodd"><path d="M1.94 1.94 L0.69 -1.64 L-1.27 -3.8 L1.2 -4.93 L-2.79 -8.4 L-4.04 -8.28 L-2.18 -13.24 L-6.7 -14.94 L-11.21 -20.26 L-12.67 -19.21 L-15.35 -23.16 L-22.59 -22.87 L-24.77 -26.68 L-31.15 -26.62 L-33.72 -24.52 L-39.11 -26.15 L-40.46 -23.31 L-45.29 -24.02 L-51.37 -22.6 L-54.59 -17.8 L-54.6 -22.49 L-54.01 -27.96 L-54.23 -34.74 L-54.32 -40.28 L-52.68 -41.89 L-49.99 -40.7 L-45.74 -42.01 L-44.55 -40.53 L-40.03 -38.54 L-38.67 -36 L-35.74 -32.69 L-35.75 -31.87 L-33.98 -30.2 L-35.31 -32.81 L-32.09 -31.15 L-32.86 -31.87 L-24.83 -32.17 L-19.53 -36.2 L-2.1 -41.15 L-9.92 -39.67 L-17.26 -36.49 L-23.2 -38.06 L-26.85 -36.12 L-29.09 -36.81 L-27.89 -38 L-29.44 -41.47 L-31.94 -40.95 L-32.22 -42.08 L-34.57 -45.64 L-35.92 -45.97 L-36.19 -49.34 L-41.45 -46.42 L-43.74 -46.45 L-45.03 -47.36 L-48.99 -45.87 L-48.95 -43.65 L-51.74 -45.43 L-57.56 -41.11 L-59.88 -39.9 L-61.28 -36.47 L-61.35 -37 L-64.57 -33.41 L-63.89 -32.38 L-65.6 -28.37 L-64.13 -23.06 L-66.25 -20.33 L-66.92 -12.81 L-65.32 -10.27 L-64.72 -4.31 L-61.72 -10.13 L-57.73 -8.49 L-55.18 -12.95 L-52.03 -14.14 L-49.59 -13.86 L-48.44 -15.23 L-44.28 -12.8 L-39.83 -14.67 L-36.66 -12.63 L-35.13 -12.28 L-34.2 -11.16 L-31.35 -12.86 L-30.43 -9.14 L-25.55 -10.11 L-24.95 -6.26 L-22.86 -6.68 L-19.4 -5.13 L-20.45 -2.18 L-17.51 0.68 L-15.59 2.88 L-13.07 6.68 L-13.58 7.03 L-13.9 9.44 L-11.8 11.86 L-13.93 14.57 L-11.68 18.04 L-13.11 20.79 L-14.73 25.29 L-13.48 27.83 L-14.51 32.39 L-15.13 36.51 L-16.64 37.18 L-19.89 39.8 L-22.24 42.28 L-24.25 43.27 L-25.95 44.33 L-30.8 43.83 L-33.46 46.85 L-39.75 47.03 L-42.49 44.46 L-44.99 46.93 L-49.53 45.36 L-53.2 42.39 L-59.58 42.58 L-62.63 38.29 L-66.59 35.61 L-69.79 36.17 L-72.59 31.04 L-73.23 30.62 L-75.68 26.5 L-77.56 21.32 L-82 18.67 L-85.48 16.98 L-85.77 11.34 L-85.73 7.41 L-89.26 3.3 L-89.11 -0.56 L-90.81 -3.55 L-88.5 -6.99 L-88.83 -12.26 L-90.83 -14.91 L-89.78 -18.82 L-89.09 -22.29 L-88.19 -28.17 L-86.35 -30.02 L-86.64 -34.17 L-83.72 -37.93 L-83.78 -43.63 L-80.38 -44.79 L-78.34 -48.27 L-77.59 -52.33 L-73.08 -56.79 L-73.85 -54.16 L-72.9 -57.59 L-74.54 -55.26 L-73.92 -57.05 L-69.11 -60.23 L-66.46 -62.62 L-66.47 -62.48 L-63.62 -64.62 L-58.29 -66.55 L-53.85 -65.34 L-48.67 -68.95 L-44.09 -69.69 L-38.83 -69.06 L-32.84 -67.85 L-27.25 -64.31 L-20.14 -64.22 L-14.51 -59.08 L-12.24 -57.96 L-11.12 -56.73 L-11.95 -56.66 L-7.9 -53.2 L-8.38 -50.12 L-2.95 -49.6 L-5.15 -46.4 L-0.43 -41.96 L-1.97 -38.53 L-2.59 -37.28 L-0.29 -45.27 L-5.17 -46.72 L-4.13 -52.38 L-7.24 -56.42 L-7.55 -62.57 L-12.99 -66.26 L-14.25 -68.7 L-16.65 -71.06 L-19.99 -72.55 L-22.49 -72.58 L-28.59 -72.85 L-32.88 -75.51 L-35.94 -77.26 L-40.24 -75.48 L-41.99 -74.38 L-47.04 -75.07 L-50.74 -73.75 L-53.82 -71.78 L-58.27 -69.85 L-63.2 -70.06 L-64.72 -66.08 L-67.83 -65.28 L-74.27 -62.81 L-74.44 -59.77 L-79.21 -57.31 L-83.83 -50.78 L-83.83 -47.81 L-86.85 -46.5 L-88.54 -41.49 L-92.43 -38.08 L-93.78 -34.42 L-95.52 -27.58 L-96.01 -24.07 L-97.19 -20.99 L-100.16 -16.95 L-101.09 -13.99 L-99.21 -7.69 L-100.6 -5.36 L-102.09 -0.07 L-99.14 3.16 L-101.36 8.6 L-97 17.36 L-96.7 23.82 L-93.24 25.98 L-93.4 31.26 L-89.84 38.38 L-84.96 43.27 L-82.8 44.93 L-76.91 51.29 L-70.21 53.1 L-66.88 53.8 L-64.22 55.4 L-56.54 56.36 L-51.02 57.43 L-47.62 59.58 L-42.9 57.83 L-37.93 59.14 L-30.17 56.3 L-25.33 53.78 L-21.24 49.62 L-19.74 45.3 L-16.49 45.92 L-14.74 43.7 L-11.56 37.73 L-11.51 38.01 L-10.54 35.36 L-7.84 31.32 L-5.74 27.96 L-5.57 25.81 L-3.54 21.71 L-2.61 18.71 L-0.37 11.9 L-0.92 10.32 L1.27 2.83 L1.46 -0.01 L0.52 0.7" stroke="none" stroke-width="0" fill="black" fill-rule="evenodd"/><path d="M0 0 C0 0, 0 0, 0 0 M0 0 C0 0, 0 0, 0 0 M0.13 -0.17 C0.07 -0.71, -0.1 -1.21, -0.12 -2.21 M-0.01 0.12 C0.02 -0.56, -0.13 -1.32, -0.22 -2.28 M-0.28 -2.46 C-0.44 -3.31, -0.4 -4.22, -0.79 -4.44 M-0.25 -2.34 C-0.36 -3.1, -0.4 -3.59, -0.58 -4.65 M-0.68 -4.58 C-0.98 -4.84, -0.88 -5.29, -1.52 -6.65 M-0.61 -4.67 C-0.86 -5.4, -1.09 -6.17, -1.39 -6.61 M-1.39 -6.49 C-1.59 -6.96, -1.72 -7.49, -2.05 -8.83 M-1.4 -6.63 C-1.52 -7.14, -1.74 -7.55, -2.12 -8.65 M-2.26 -9 C-2.65 -9.67, -3.09 -10.92, -3.85 -12.36 M-2.03 -8.92 C-2.93 -10.17, -3.51 -11.42, -4.06 -12.33 M-3.74 -12.29 C-4.71 -13.08, -5.46 -14.26, -6.83 -15.87 M-4.34 -12.35 C-5.06 -13.54, -5.84 -14.98, -6.82 -15.83 M-6.86 -16.01 C-7.49 -16.84, -8.97 -17.58, -9.88 -18.3 M-6.85 -15.82 C-7.88 -16.78, -8.85 -17.97, -9.62 -18.73 M-9.59 -18.81 C-11.25 -19.56, -12.07 -20.62, -13.51 -21.5 M-9.64 -18.69 C-10.59 -19.49, -11.43 -19.76, -13.33 -21.09 M-13.36 -21.28 C-14.41 -21.24, -15.23 -22.31, -17.54 -22.76 M-13.46 -21.3 C-14.71 -21.8, -16.03 -22.53, -17.1 -23.16 M-17.43 -22.64 C-18.51 -23.31, -18.98 -24.11, -21.36 -24.37 M-17.27 -22.96 C-18.56 -23.76, -20.08 -24.08, -21.03 -24.63 M-20.86 -24.36 C-22.81 -25.24, -23.77 -25.45, -25.13 -26.03 M-21.29 -24.69 C-22.91 -25.14, -24.63 -25.52, -25.34 -25.63 M-25.42 -25.95 C-26.95 -26.28, -28.91 -25.75, -30.07 -25.83 M-25.32 -25.5 C-26.47 -25.98, -27.52 -25.81, -29.63 -26.05 M-29.79 -25.93 C-30.98 -26.29, -33.24 -26.56, -34.4 -26.46 M-29.7 -26.39 C-30.78 -26.09, -32.04 -26.21, -34.16 -26.54 M-34.26 -26.37 C-35.55 -26.63, -36.18 -26.23, -38.03 -25.78 M-34.1 -26.22 C-35.64 -26.11, -37.06 -26.17, -38.3 -26.05 M-38.38 -26.02 C-39.57 -25.53, -40.4 -25.49, -42.76 -24.79 M-38.39 -26.13 C-39.34 -25.92, -40.31 -25.62, -42.63 -25.02 M-42.12 -24.84 C-43.73 -24.58, -44.78 -24.33, -46.64 -23.44 M-42.34 -25.01 C-43.17 -24.96, -44.28 -24.65, -46.11 -23.78 M-46.15 -24.01 C-47.25 -23.55, -48.05 -22.52, -50.21 -21.57 M-46.48 -23.86 C-47.16 -23.18, -48.32 -22.61, -49.92 -21.89 M-49.64 -22 C-50.65 -20.76, -52.08 -20.11, -53.42 -19.13 M-49.73 -21.77 C-51.04 -21.02, -52.28 -19.99, -52.9 -19.5 M-53 -19.6 C-52.8 -20.21, -53.63 -21.42, -53.67 -23.8 M-53.07 -19.33 C-53.42 -20.89, -53.34 -22.8, -53.52 -23.85 M-53.52 -24.31 C-53.69 -25.4, -53.42 -25.96, -54.14 -29.49 M-53.34 -23.95 C-53.72 -25.46, -53.87 -26.84, -54 -28.8 M-53.6 -29.5 C-54.48 -30.12, -54.18 -31.41, -54.64 -34.03 M-53.98 -28.9 C-54.31 -30.73, -54.3 -32.7, -54.42 -34.08 M-54.34 -34.27 C-54.33 -35.09, -54.49 -37.43, -54.54 -38.93 M-54.37 -34.26 C-54.26 -35.53, -54.57 -36.57, -54.43 -38.77 M-54.57 -39.07 C-53.33 -39.35, -53 -39.43, -51.93 -40.19 M-54.33 -38.76 C-53.51 -39.28, -52.91 -39.38, -51.63 -39.84 M-51.74 -40.1 C-50.74 -40.29, -49.8 -40.04, -48.8 -40.29 M-51.76 -39.83 C-50.98 -40.05, -49.98 -40.38, -48.69 -40.48 M-49.02 -40.59 C-48.1 -40.39, -47.16 -40.67, -46.15 -40.3 M-48.94 -40.57 C-47.98 -40.38, -47.54 -40.52, -45.91 -40.51 M-45.91 -40.61 C-44.71 -40.08, -44.18 -40.02, -43.28 -39.72 M-46.06 -40.44 C-45.12 -40.27, -44.41 -40.16, -43.24 -39.79 M-43.24 -39.7 C-42.4 -39.63, -41.46 -39.31, -40.32 -38.38 M-43.13 -39.62 C-42.06 -39.32, -41.18 -38.76, -40.55 -38.63 M-40.45 -38.68 C-40.11 -37.81, -39.18 -37.82, -38.36 -37.03 M-40.62 -38.52 C-39.94 -37.9, -39.22 -37.43, -38.31 -36.73 M-38.14 -36.9 C-37.54 -36.28, -36.88 -35.66, -36.22 -34.58 M-38.04 -36.73 C-37.58 -36.04, -37.03 -35.36, -36.13 -34.45 M-36.37 -34.45 C-35.99 -33.96, -35.78 -33.31, -35.4 -33.06 M-36.31 -34.29 C-35.92 -33.86, -35.77 -33.44, -35.52 -32.96 M-35.5 -32.76 C-35.18 -32.47, -35.19 -32.32, -34.76 -31.3 M-35.45 -32.93 C-35.32 -32.48, -35.03 -32.13, -34.79 -31.26 M-34.78 -31.33 C-34.72 -31.2, -34.69 -31.09, -34.52 -30.83 M-34.82 -31.36 C-34.69 -31.19, -34.59 -31.01, -34.5 -30.82 M-34.49 -30.85 C-34.32 -30.69, -34.12 -30.54, -34.04 -30.51 M-34.51 -30.81 C-34.37 -30.74, -34.16 -30.6, -34.01 -30.49 M-34 -30.49 C-33.77 -30.49, -33.59 -30.38, -32.84 -30.4 M-34.04 -30.56 C-33.57 -30.46, -33.26 -30.4, -32.84 -30.39 M-32.33 -30.81 C-29.34 -30.52, -27.84 -31.95, -25.23 -32.99 M-32.86 -30.12 C-30.93 -30.88, -29.6 -30.96, -25.04 -32.37 M-24.48 -32.78 C-22.4 -32.99, -20.27 -33.39, -18.05 -34.9 M-25.55 -32.3 C-22.07 -33.37, -19.15 -34.21, -17.85 -34.85 M-19.15 -36.21 C-12.4 -37.15, -6.91 -37.72, -3.71 -40.91 M-17.52 -35.24 C-13.12 -36.83, -8.17 -37.45, -1.81 -40.11 M-3.13 -40.33 C-5.08 -39.91, -7.41 -39.45, -9.14 -39.31 M-2.6 -40.16 C-4.94 -39.21, -7.86 -39.08, -9.15 -38.76 M-8.91 -39.07 C-11.21 -38.55, -14.57 -37.65, -15.24 -37.42 M-9.01 -38.94 C-11.44 -38.15, -13.76 -38.15, -15.98 -37.58 M-15.59 -36.81 C-18.49 -37.7, -21.35 -36.54, -22.76 -36.79 M-15.51 -37.26 C-17.59 -36.85, -19.67 -36.96, -22.08 -36.75 M-22.22 -36.44 C-23.62 -36.11, -24.31 -36.2, -25.87 -36.31 M-22.51 -36.48 C-23.37 -36.42, -24.46 -36.29, -25.64 -36.16 M-25.78 -36.09 C-26.69 -35.99, -27.43 -36.41, -28.67 -36.48 M-25.65 -36.34 C-26.31 -36.28, -27.09 -36.3, -28.89 -36.3 M-28.74 -36.12 C-29.05 -37.09, -29.18 -37.7, -29.48 -38.02 M-28.89 -36.32 C-28.99 -36.61, -29.15 -36.98, -29.36 -38.23 M-29.37 -38.25 C-29.76 -38.55, -29.88 -39.31, -30.28 -39.81 M-29.54 -38.25 C-29.78 -38.85, -29.88 -39.48, -30.05 -39.99 M-29.97 -39.77 C-30.46 -40.3, -30.7 -40.97, -30.98 -41.4 M-30.14 -39.94 C-30.22 -40.21, -30.51 -40.65, -30.91 -41.53 M-30.84 -41.55 C-31.1 -41.86, -31.2 -42.18, -31.73 -42.99 M-30.94 -41.54 C-31.14 -41.9, -31.3 -42.37, -31.7 -42.9 M-31.59 -42.7 C-31.83 -43.64, -32.69 -43.72, -33.83 -44.94 M-31.8 -42.93 C-32.2 -43.56, -32.69 -43.97, -33.72 -45.27 M-33.49 -45.19 C-33.92 -45.63, -34.9 -46.24, -35.52 -46.6 M-33.45 -45.04 C-34.34 -45.77, -34.77 -46.26, -35.58 -46.64 M-35.85 -46.68 C-36.07 -46.83, -36.58 -47.46, -38 -47.94 M-35.56 -46.89 C-36.49 -47.14, -37.41 -47.41, -38.05 -47.74 M-37.92 -47.83 C-38.33 -48.02, -39.09 -48.01, -40.39 -48.51 M-37.94 -47.8 C-38.46 -47.85, -38.98 -48, -40.41 -48.29 M-40.19 -48.18 C-41.03 -48.36, -41.61 -48.41, -42.73 -48.46 M-40.48 -48.35 C-41.11 -48.24, -41.89 -48.17, -42.87 -48.27 M-43.14 -48.28 C-43.96 -48.19, -44.34 -48.05, -45.51 -47.62 M-42.88 -48.32 C-43.83 -48.14, -44.82 -48.03, -45.58 -47.69 M-45.77 -47.71 C-46.41 -47.26, -47.41 -47.02, -48.4 -46.62 M-45.5 -47.61 C-46.25 -47.44, -47.06 -47.29, -48.15 -46.96 M-48.43 -46.73 C-49.34 -46.27, -50.35 -46.17, -50.83 -45.46 M-48.06 -46.88 C-48.76 -46.54, -49.49 -46.34, -50.72 -45.63 M-50.87 -45.91 C-51.27 -45.05, -52.14 -44.74, -53.31 -44.02 M-50.8 -45.7 C-51.53 -45.14, -52.33 -44.78, -53.19 -44.13 M-53.55 -43.82 C-53.73 -43.77, -54.84 -43.04, -55.44 -42.19 M-53.37 -44.03 C-54.06 -43.43, -55.06 -42.79, -55.62 -42.19 M-55.54 -42.43 C-56.05 -41.93, -56.92 -41.26, -57.83 -40.54 M-55.71 -42.37 C-56.6 -41.7, -57.43 -40.97, -57.88 -40.39 M-57.66 -40.09 C-58.48 -39.67, -59.34 -38.64, -59.9 -38.08 M-57.88 -40.35 C-58.54 -39.79, -58.96 -39.22, -59.77 -38.18 M-59.68 -38.19 C-60.57 -37.77, -60.87 -36.78, -61.87 -35.86 M-60.03 -38.36 C-60.21 -37.81, -60.75 -37.34, -61.61 -36.07 M-61.73 -35.9 C-62.16 -35.2, -62.8 -34.04, -63.25 -33.55 M-61.64 -36.11 C-61.97 -35.53, -62.52 -34.88, -63.15 -33.66 M-63.42 -33.75 C-63.16 -32.54, -63.91 -31.31, -63.84 -30.24 M-63.24 -33.69 C-63.42 -32.41, -63.87 -31.32, -64.19 -30.52 M-64.08 -30.48 C-64.56 -29.38, -64.56 -28.11, -64.46 -26.96 M-64.2 -30.27 C-64.42 -29.2, -64.64 -27.73, -64.7 -26.96 M-65 -27 C-65.2 -25.96, -65.39 -24.14, -65.45 -23.15 M-64.56 -26.9 C-64.92 -26.01, -64.85 -24.99, -65.07 -23.44 M-64.96 -23.34 C-64.91 -22.1, -65.25 -21.51, -65.76 -19.9 M-65.08 -23.47 C-65.37 -22.07, -65.42 -20.67, -65.58 -19.83 M-64.79 -20.62 C-65.28 -17.76, -66.03 -15.04, -65.08 -13.09 M-65.77 -20.23 C-65.25 -17.88, -65.6 -15.62, -65.11 -12.61 M-65.58 -12.98 C-65.07 -11.4, -65.19 -10.46, -65.19 -9.12 M-65.37 -12.85 C-65.4 -11.84, -65.39 -11.19, -65.04 -9.3 M-65.2 -9.06 C-64.9 -8.62, -65.18 -8.02, -64.83 -5.75 M-65.34 -9.43 C-65.03 -8.18, -64.94 -7.22, -64.79 -5.87 M-64.54 -6.35 C-63.62 -6.55, -62.75 -7.52, -61.97 -8.27 M-64.77 -5.86 C-64.25 -6.42, -63.67 -6.89, -61.66 -8.18 M-61.49 -8.56 C-60.91 -8.49, -60.15 -9.2, -58.56 -10.27 M-61.74 -8.12 C-61.04 -8.89, -60 -9.13, -58.67 -10.06 M-58.94 -10.16 C-57.98 -10.91, -56.91 -11.3, -55.56 -11.3 M-58.75 -9.97 C-58.05 -10.28, -57.21 -10.81, -55.71 -11.66 M-55.48 -11.45 C-54.67 -12.12, -53.57 -12.43, -52.78 -12.58 M-55.79 -11.6 C-54.88 -12.05, -53.94 -12.19, -52.6 -12.7 M-52.85 -12.74 C-51.61 -13.21, -50.96 -13.37, -49.97 -13.55 M-52.7 -12.82 C-51.93 -12.99, -50.92 -13.35, -49.75 -13.55 M-49.61 -13.85 C-49.05 -14.1, -47.95 -14.34, -47.04 -14.2 M-49.81 -13.59 C-49.08 -13.8, -48.42 -13.92, -46.94 -14.39 M-47.09 -14.33 C-45.93 -14.18, -45.43 -14.27, -44.2 -14.36 M-46.77 -14.32 C-46.1 -14.22, -45.5 -14.54, -44.03 -14.66 M-44.09 -14.63 C-43.33 -14.39, -42.09 -14.73, -41.03 -14.49 M-44.09 -14.54 C-43.13 -14.51, -42.03 -14.47, -41.25 -14.5 M-41.23 -14.48 C-39.95 -14.32, -39.33 -14.41, -38.34 -14.49 M-41.16 -14.71 C-40.53 -14.49, -40.06 -14.56, -38.42 -14.39 M-38.26 -14.12 C-37.55 -14.08, -37.05 -13.97, -35.58 -13.93 M-38.56 -14.38 C-37.84 -14.12, -37.33 -14.12, -35.79 -13.9 M-35.92 -13.77 C-35.09 -13.9, -34.7 -13.35, -33.23 -13.15 M-35.87 -13.92 C-35.06 -13.63, -34.43 -13.56, -33.29 -13.19 M-33.41 -13.25 C-32.38 -13.1, -31.67 -12.69, -30.85 -12.29 M-33.36 -13.23 C-32.62 -12.91, -31.76 -12.51, -30.84 -12.26 M-30.74 -12.06 C-30.23 -11.84, -29.59 -11.47, -28.31 -10.82 M-30.7 -12.16 C-30.25 -12.02, -29.75 -11.58, -28.39 -11.07 M-28.37 -11 C-27.57 -10.51, -27.04 -10.28, -25.98 -9.77 M-28.57 -11.05 C-28.05 -10.63, -27.5 -10.46, -26.23 -9.58 M-26.31 -9.65 C-25.47 -9.18, -24.53 -8.44, -24.36 -8.09 M-26.33 -9.61 C-25.88 -9.17, -25.44 -8.86, -24.22 -7.91 M-24.36 -8.04 C-23.44 -7.3, -23 -7.05, -22.21 -6.44 M-24.2 -7.94 C-23.39 -7.19, -22.56 -6.54, -22.12 -6.36 M-22.2 -6.17 C-21.89 -5.83, -21.44 -5.16, -20.33 -4.11 M-22.19 -6.2 C-21.64 -5.47, -21.06 -4.95, -20.42 -4.24 M-20.2 -4.15 C-20.07 -3.78, -19.66 -2.93, -18.67 -2.25 M-20.46 -4.37 C-19.78 -3.73, -19.41 -3.02, -18.76 -2.3 M-19.01 -2.21 C-18 -1.38, -17.63 -0.33, -17.52 0.25 M-18.82 -2.12 C-18.14 -1.36, -17.8 -0.45, -17.35 0.07 M-17.1 0.22 C-16.97 0.52, -16.89 1.24, -16.08 2.46 M-17.26 0.09 C-17.04 0.63, -16.74 0.92, -15.91 2.64 M-15.74 2.32 C-15.91 3.08, -15.59 3.6, -14.81 5.03 M-16.05 2.45 C-15.54 3.38, -15.24 4.23, -14.8 5.01 M-14.94 5.01 C-14.57 5.99, -14.42 6.65, -14.04 7.44 M-14.94 4.97 C-14.53 5.75, -14.37 6.66, -13.97 7.67 M-14.09 7.63 C-13.81 8.73, -13.52 9.78, -13.55 10.67 M-14.04 7.6 C-13.83 8.31, -13.77 9.06, -13.28 10.48 M-13.29 10.57 C-12.96 10.86, -13.27 12.08, -12.72 13.16 M-13.27 10.46 C-13.09 11.33, -13.2 11.83, -12.83 13.41 M-13.02 13.54 C-12.59 14.26, -12.59 15.05, -12.53 16.39 M-12.74 13.43 C-12.93 14.41, -12.71 15.67, -12.72 16.19 M-12.56 16.57 C-12.4 17.18, -12.89 17.82, -12.85 19.08 M-12.78 16.36 C-12.46 17.29, -12.49 18.5, -12.48 19.34 M-12.55 19.38 C-12.88 20.42, -12.64 21.46, -13.17 22.32 M-12.48 19.2 C-12.82 20.2, -12.71 21.33, -12.95 22.32 M-12.85 22.47 C-12.93 23.62, -12.99 24.49, -13.4 25.36 M-12.75 22.29 C-13.05 23.54, -13.18 24.93, -13.27 25.51 M-13.3 25.82 C-13.35 26.24, -13.93 26.85, -14.15 28.49 M-13.38 25.62 C-13.59 26.68, -13.91 27.67, -14.33 28.6 M-13.96 28.77 C-14.3 29.94, -15.05 30.99, -15.07 31.74 M-14.23 28.66 C-14.67 29.71, -14.95 30.58, -15.35 32.02 M-15.34 31.79 C-15.79 32.58, -15.92 33.86, -16.29 35.46 M-15.34 31.9 C-15.41 32.57, -15.97 33.37, -16.5 35.25 M-16.65 35.23 C-17.01 36.52, -17.9 37.52, -18.03 38.04 M-16.63 35.1 C-16.85 36.05, -17.28 36.75, -18.31 38.29 M-18.04 38.36 C-18.44 38.83, -18.96 39.89, -19.85 40.63 M-18.29 38.5 C-18.77 38.85, -18.97 39.55, -19.73 40.74 M-19.7 40.53 C-20.48 41.05, -20.74 41.95, -21.87 42.68 M-19.89 40.81 C-20.22 41, -20.68 41.54, -21.87 42.49 M-22.02 42.43 C-22.73 42.92, -23.66 43.42, -24.56 44.11 M-21.77 42.64 C-22.44 43.01, -22.93 43.06, -24.36 43.95 M-24.06 43.91 C-25.21 44.37, -25.95 44.65, -27.5 45.12 M-24.2 44.07 C-25.52 44.27, -26.5 44.85, -27.32 45 M-27.01 44.68 C-28.24 44.89, -28.76 45.38, -30.73 45.58 M-27.37 44.83 C-28.02 45.08, -28.86 45.15, -30.54 45.5 M-30.45 45.58 C-31.41 45.83, -32.59 45.82, -34.38 46.24 M-30.28 45.56 C-31.62 45.88, -32.53 45.88, -34.07 46.16 M-34.1 45.83 C-34.95 46.23, -36.27 45.79, -38.32 45.87 M-33.88 46.05 C-35.34 46, -36.41 46.02, -38.09 46.11 M-38.23 46.42 C-39.37 46.55, -40.31 45.83, -42.23 46.27 M-38.16 46.04 C-39.71 46.16, -41.1 46.07, -42.54 46.22 M-42.43 46.13 C-43.63 46.17, -45.75 45.72, -46.49 45.35 M-42.61 46.38 C-43.95 45.85, -45.3 45.87, -46.72 45.5 M-47.19 45.76 C-48.65 44.98, -49.65 44.78, -51.37 44.2 M-46.86 45.3 C-48.22 45.26, -49.37 44.78, -50.88 44.35 M-51.29 44.44 C-52.76 43.66, -53.48 43.28, -55.41 43.13 M-50.94 44.62 C-52.35 43.87, -53.18 43.51, -54.89 43.24 M-54.73 43.31 C-56.08 42.24, -57.51 42.3, -59.16 41.09 M-54.86 43.02 C-56.1 42.66, -57.68 41.79, -58.62 41.56 M-58.73 41.54 C-59.61 40.47, -60.9 40.26, -61.99 39.73 M-58.9 41.45 C-59.74 40.72, -60.7 40.26, -62.4 39.26 M-62.69 39.51 C-63.69 38.52, -65.05 37.44, -65.63 37.47 M-62.48 39.58 C-63.12 38.76, -63.99 38.38, -65.85 37.42 M-65.4 37.06 C-66.76 36.49, -68.13 35.63, -68.81 35.13 M-65.83 37.36 C-67.1 36.45, -68.04 35.34, -68.76 34.93 M-69.29 34.97 C-69.57 34.47, -70.05 33.9, -71.54 32.51 M-68.87 34.82 C-69.75 34.13, -70.34 33.56, -71.97 31.96 M-71.89 32.44 C-72.78 31.46, -73.96 29.84, -74.65 29.11 M-72.04 32.01 C-72.47 31.42, -73.13 30.69, -74.59 29.4 M-74.86 29.32 C-75.71 28.01, -76.81 26.84, -77.6 26.37 M-74.75 29.19 C-75.17 28.3, -76.01 27.58, -77.3 26.38 M-77.17 26.07 C-78.27 25, -78.77 24.27, -79.57 22.8 M-77.1 26.31 C-77.92 24.92, -78.94 24.13, -79.6 22.85 M-79.27 22.74 C-80.2 21.55, -80.6 20.74, -81.34 19.4 M-79.49 22.91 C-80.5 21.61, -81.21 20.66, -81.87 19.51 M-81.84 19.74 C-82.36 18.48, -83.32 17.24, -83.17 16.35 M-81.52 19.54 C-82.09 18.19, -82.9 17.4, -83.43 16.04 M-83.59 16.02 C-84.11 14.83, -84.68 14.09, -85.07 12.11 M-83.62 16.04 C-84.11 14.78, -84.59 13.84, -85.41 12.17 M-85.63 12.23 C-85.18 11.78, -85.48 10.35, -87.07 8.88 M-85.11 12.21 C-85.74 11.3, -85.93 10.11, -86.81 8.35 M-86.86 8.13 C-87.14 7.76, -87.62 5.92, -87.89 4.43 M-86.72 8.44 C-87 7.56, -87.49 6.5, -87.76 4.81 M-88.31 4.92 C-87.98 3.13, -88.57 2.51, -89.24 0.89 M-87.78 4.83 C-88.1 3.47, -88.28 2.39, -88.78 0.58 M-88.52 1.05 C-89.26 -0.27, -89.64 -1.52, -89.67 -3.53 M-88.72 0.57 C-89.22 -0.5, -89.44 -1.81, -89.65 -3.36 M-89.59 -3.04 C-89.49 -5.06, -90.1 -6.48, -90.47 -7.32 M-89.54 -3.3 C-89.7 -4.25, -89.84 -5.32, -90.28 -7.49 M-90.02 -7.5 C-90.05 -8.53, -90.07 -10.37, -90.29 -11.49 M-90.24 -7.31 C-90.35 -8.16, -90.15 -9.24, -90.34 -11.46 M-90.82 -11.53 C-90.14 -12.31, -90.25 -13.53, -90.31 -15.65 M-90.52 -11.24 C-90.65 -13.04, -90.57 -14.58, -90.57 -15.45 M-90.77 -15.16 C-90.65 -16.77, -90.54 -18.61, -90.42 -19.77 M-90.61 -15.52 C-90.43 -17.07, -90.59 -18.59, -90.39 -19.46 M-90.07 -19.39 C-89.94 -20.96, -89.97 -22.26, -89.53 -23.44 M-90.15 -19.68 C-90.23 -20.62, -89.95 -21.67, -90.01 -23.5 M-89.75 -23.84 C-89.66 -25.1, -89.26 -25.59, -89.09 -27.69 M-89.86 -23.78 C-89.55 -24.41, -89.42 -25.65, -89.26 -27.7 M-89.49 -27.73 C-88.66 -28.1, -88.83 -29.19, -88.48 -31.82 M-89.17 -27.67 C-89.17 -28.59, -88.82 -29.8, -88.46 -31.64 M-87.96 -31.6 C-88.35 -32.44, -87.41 -33.73, -86.94 -35.2 M-88.33 -31.6 C-87.93 -32.99, -87.47 -34.42, -87.3 -35.31 M-87.12 -35.02 C-86.6 -36.83, -86.04 -38.24, -85.46 -38.95 M-87.22 -35.49 C-87 -36.31, -86.37 -36.98, -85.69 -39.24 M-86 -39.14 C-85.14 -39.71, -85.18 -41.11, -83.8 -42.87 M-85.86 -39.1 C-85.38 -40.1, -84.84 -40.86, -83.8 -42.62 M-84.26 -42.78 C-83.08 -43.56, -82.66 -44.85, -82.41 -46.39 M-84.05 -42.98 C-83.52 -44.12, -82.92 -45.07, -82.18 -46.27 M-82.42 -46.59 C-81.15 -47.4, -81.08 -47.99, -79.47 -49.46 M-82.21 -46.17 C-81.65 -47.35, -80.85 -48.16, -79.74 -49.55 M-79.75 -49.94 C-79.44 -50.53, -78.29 -51.69, -77.62 -52.71 M-79.91 -49.58 C-79.23 -50.69, -78.12 -51.49, -77.51 -52.92 M-76.95 -52.66 C-76.55 -54.05, -75.65 -55.34, -74.55 -55.96 M-77.44 -52.91 C-76.7 -53.51, -76.25 -54.16, -74.61 -56.03 M-74.63 -55.95 C-74.69 -55.88, -74.7 -55.86, -74.8 -55.8 M-74.62 -55.95 C-74.66 -55.91, -74.73 -55.85, -74.81 -55.78 M-74.78 -55.77 C-74.63 -55.89, -74.56 -55.99, -74.32 -56.23 M-74.8 -55.78 C-74.61 -55.94, -74.5 -56.08, -74.38 -56.23 M-74.37 -56.21 C-74.38 -56.2, -74.39 -56.18, -74.41 -56.16 M-74.37 -56.21 C-74.38 -56.19, -74.39 -56.18, -74.4 -56.16 M-74.27 -56.21 C-73.84 -56.69, -72.59 -57.55, -72.55 -58.24 M-74.34 -56.24 C-73.67 -56.94, -72.7 -57.83, -72.2 -58.22 M-72.2 -58.29 C-71.31 -59.02, -71.13 -59.35, -70.12 -59.8 M-72.39 -58.28 C-71.62 -58.82, -70.8 -59.65, -70.22 -60.04 M-70.03 -59.78 C-69.03 -60.77, -68.27 -61.03, -67.77 -61.4 M-70.06 -59.95 C-69.64 -60.44, -69.08 -60.87, -67.75 -61.59 M-67.77 -61.4 C-66.91 -61.82, -66.17 -62.36, -65.43 -63.06 M-67.83 -61.73 C-66.89 -62.27, -66.32 -62.72, -65.25 -63.26 M-65.14 -63.2 C-64.15 -63.94, -63.54 -64.24, -62.84 -64.38 M-65.36 -63.16 C-64.93 -63.36, -64.4 -63.59, -62.76 -64.49 M-62.91 -64.63 C-61.94 -64.84, -60.93 -65.16, -60.3 -65.75 M-62.72 -64.36 C-62.2 -64.68, -61.45 -64.97, -60.25 -65.64 M-60.42 -66.1 C-57.96 -65.75, -56.81 -67.13, -55.11 -67.75 M-59.94 -65.62 C-58.62 -65.85, -57.34 -66.31, -55.03 -67.55 M-54.6 -67.29 C-52.95 -67.16, -50.52 -67.69, -49.04 -68.39 M-54.77 -67.14 C-52.47 -67.87, -50.05 -68.3, -49.42 -68.51 M-49.36 -68.21 C-47.72 -68.34, -46.75 -68.24, -43.91 -68.77 M-49.18 -68.53 C-47.18 -68.59, -44.47 -68.85, -43.54 -68.49 M-42.86 -68.37 C-41.38 -68.7, -39.93 -68.49, -37.28 -68.71 M-43.27 -68.73 C-41.53 -68.25, -39.43 -68.42, -37.68 -68.24 M-37.36 -68.17 C-35.86 -68.53, -35.21 -68.1, -32.11 -67.03 M-37.77 -68.27 C-36.01 -68.12, -34.27 -67.85, -31.84 -67.32 M-31.61 -67.93 C-30.71 -66.68, -29.62 -67.03, -26.76 -65.28 M-31.85 -67.2 C-30.42 -66.84, -28.53 -66.26, -26.44 -65.94 M-26.97 -65.74 C-24.96 -64.78, -23.35 -64.07, -21.21 -63.23 M-26.63 -65.79 C-25 -65.01, -23.5 -64.45, -21.2 -63.54 M-20.95 -63.44 C-19.76 -62.76, -17.93 -61.25, -16.22 -60.26 M-21.29 -63.67 C-19.27 -62.35, -17.51 -61.41, -16.4 -60.63 M-16.56 -60.84 C-15.92 -60.49, -15.39 -60.07, -13.89 -59.31 M-16.47 -60.62 C-15.87 -60.26, -15.37 -59.93, -14.06 -59.05 M-14.2 -58.77 C-13.49 -58.35, -12.6 -57.65, -12.12 -56.96 M-14.12 -58.92 C-13.67 -58.46, -13.07 -58.02, -11.98 -57.29 M-11.94 -57.2 C-11.51 -56.92, -11.07 -55.83, -9.78 -55.29 M-12.03 -57.09 C-11.31 -56.43, -10.61 -55.89, -9.93 -55.28 M-10.16 -55.04 C-9.44 -54.83, -8.87 -54.26, -7.94 -52.93 M-10.01 -55.15 C-9.37 -54.51, -8.59 -53.74, -8.19 -53.28 M-8.32 -52.91 C-7.42 -52.84, -7.36 -52.42, -6.26 -51.02 M-7.97 -53.23 C-7.44 -52.42, -6.98 -51.69, -6.36 -50.89 M-6.26 -50.97 C-6.05 -50.61, -5.8 -49.7, -4.82 -48.74 M-6.25 -50.89 C-6.03 -50.08, -5.41 -49.23, -4.91 -48.53 M-4.97 -48.41 C-4.39 -47.36, -4.08 -46.75, -3.77 -46.28 M-4.8 -48.58 C-4.48 -47.94, -4.24 -47.39, -3.43 -46.15 M-3.38 -45.86 C-3.34 -44.78, -2.95 -44.2, -2.39 -43.16 M-3.53 -46.08 C-3.13 -44.93, -2.55 -44, -2.2 -43.33 M-2.55 -43.16 C-1.96 -42.28, -1.8 -41.28, -1.59 -40.71 M-2.35 -43.42 C-1.97 -42.33, -1.68 -41.62, -1.29 -40.48 M-1.25 -40.63 C-1.15 -39.32, -0.75 -38, -0.58 -37.42 M-1.5 -40.38 C-0.93 -39.38, -0.92 -38.09, -0.66 -37.57 M-1.06 -37.14 C-1.3 -39.54, -1.37 -40.56, -1.75 -43.08 M-0.76 -37.54 C-1.15 -39.19, -1.51 -40.88, -1.9 -43.22 M-1.94 -42.92 C-2.73 -45.75, -3.34 -47.2, -2.77 -48.34 M-1.82 -43.5 C-2.33 -45.16, -2.95 -47.05, -3.46 -48.54 M-3.49 -48.61 C-3.96 -49.84, -4.16 -51.14, -4.89 -53.07 M-3.28 -48.5 C-4.03 -49.89, -4.27 -51.4, -5.03 -53.44 M-5.22 -53.45 C-5.34 -54.95, -6.75 -55.8, -6.75 -57.11 M-5.06 -52.99 C-5.61 -54.19, -6.04 -55.21, -7.38 -57.28 M-7.43 -57.4 C-7.68 -58.73, -8.83 -59.88, -9.85 -61.24 M-7.04 -57.32 C-7.74 -58.19, -8.37 -58.91, -9.45 -61.38 M-9.62 -61.02 C-10.5 -62, -11.21 -63.81, -12.22 -64.52 M-9.61 -61.04 C-10.38 -62.02, -11.05 -63.14, -11.88 -64.4 M-11.78 -64.69 C-12.76 -65.27, -13.43 -66.02, -15.08 -67.21 M-11.94 -64.46 C-12.99 -65.59, -14.02 -66.3, -14.64 -67.19 M-14.47 -67.23 C-15.69 -67.94, -16.7 -69.41, -17.85 -69.88 M-14.68 -67.46 C-16.04 -68.08, -17.26 -69.3, -17.61 -69.7 M-17.57 -70.02 C-18.77 -70.42, -20.05 -71.33, -20.94 -72.01 M-17.79 -69.7 C-18.68 -70.26, -19.66 -70.87, -21.05 -71.71 M-20.61 -71.62 C-21.24 -71.94, -22.58 -72, -24.43 -72.95 M-20.81 -71.85 C-21.6 -72.17, -22.54 -72.43, -24.15 -73.29 M-24.49 -73.25 C-25.46 -73.9, -25.96 -74.02, -27.63 -74.2 M-24.32 -73.09 C-24.94 -73.4, -25.64 -73.6, -27.69 -74.56 M-28.04 -74.39 C-28.5 -74.31, -29.2 -74.35, -31.51 -75.1 M-27.81 -74.21 C-28.53 -74.71, -29.01 -74.77, -31.1 -75.07 M-31.22 -75.13 C-32.13 -75.38, -33.09 -75.22, -34.57 -75.89 M-31.2 -75.18 C-32.46 -75.21, -33.39 -75.39, -34.8 -75.4 M-34.62 -75.56 C-35.96 -75.33, -37.72 -75.61, -38.96 -75.66 M-34.9 -75.6 C-35.98 -75.44, -36.62 -75.45, -38.7 -75.48 M-38.24 -75.89 C-39.51 -75.37, -40.75 -75.05, -42.66 -75.33 M-38.75 -75.61 C-39.48 -75.63, -40.22 -75.32, -42.34 -75.38 M-42.57 -74.99 C-44.05 -74.89, -45.03 -74.49, -46.3 -74.91 M-42.46 -75.24 C-43.72 -74.88, -44.98 -74.71, -46.38 -74.79 M-46.46 -74.41 C-47.32 -74.14, -48.83 -73.93, -49.81 -73.5 M-46.05 -74.57 C-47.19 -74.25, -48.45 -74.14, -50.03 -73.78 M-50.46 -73.88 C-51.4 -73.44, -52.74 -73.07, -54.16 -72.56 M-49.89 -73.44 C-51.02 -73.42, -51.8 -73.17, -53.79 -72.29 M-54.05 -72.08 C-55.07 -71.42, -56.45 -71.67, -57.71 -70.53 M-54.04 -72.44 C-55.11 -71.96, -56.23 -71.28, -57.63 -70.57 M-57.44 -70.91 C-58.73 -69.79, -59.79 -69.9, -61.2 -68.49 M-57.84 -70.54 C-58.96 -70.05, -60.3 -69.29, -61.33 -68.6 M-61.08 -69.03 C-62.83 -67.81, -64.13 -67.12, -64.92 -66.33 M-61.61 -69 C-62.4 -68.01, -63.55 -67.69, -65.05 -66.57 M-65.16 -66.96 C-65.83 -66.42, -66.34 -65.87, -68.93 -64.49 M-65.06 -66.46 C-65.97 -65.93, -66.59 -65.81, -68.93 -64.21 M-68.95 -63.82 C-70.5 -63.55, -71.81 -62.25, -72.45 -61.48 M-68.68 -64.2 C-70.01 -63.32, -70.72 -62.71, -72.31 -61.36 M-71.95 -61.89 C-73.01 -60.5, -74.45 -59.76, -75.93 -58.37 M-72.49 -61.55 C-73.3 -60.68, -73.66 -60.14, -75.51 -58.53 M-76.06 -58.72 C-76.86 -57.6, -77.63 -56.53, -78.7 -55.48 M-75.6 -58.65 C-76.5 -57.82, -77.29 -57.16, -79.1 -55.34 M-78.68 -55.32 C-80.32 -54.14, -81.5 -53.11, -82 -52.48 M-79.03 -55.26 C-80.24 -54.13, -81.22 -52.84, -82.1 -52 M-82.03 -51.82 C-82.65 -51.14, -84.13 -50, -84.72 -48.48 M-82.15 -52.3 C-83.25 -50.83, -84.11 -49.24, -84.78 -48.51 M-85.35 -48.5 C-86.13 -47.47, -87.45 -45.93, -87.39 -44.96 M-85.03 -48.36 C-85.58 -47.45, -86.24 -46.32, -87.39 -44.88 M-87.87 -45.05 C-88.32 -43.58, -89.14 -42.49, -89.74 -40.41 M-87.55 -44.86 C-88.24 -43.7, -88.96 -42.12, -90.2 -40.8 M-90.1 -40.65 C-91.12 -39.79, -91.67 -38.74, -91.91 -36.9 M-90.03 -40.74 C-90.54 -39.97, -91.28 -38.66, -92.22 -36.73 M-92.28 -36.94 C-92.45 -35.07, -93.55 -34.16, -93.88 -32.87 M-92.28 -36.72 C-92.65 -35.59, -93.42 -34.27, -94.02 -32.65 M-93.79 -32.59 C-94.19 -31.36, -94.63 -30.59, -95.79 -27.82 M-94.19 -32.72 C-94.9 -30.84, -95.39 -29.68, -95.96 -28.24 M-96.23 -28.08 C-96.28 -26.55, -96.88 -25.54, -97.23 -23.91 M-95.79 -28.02 C-96.43 -26.98, -96.62 -25.83, -97.29 -23.92 M-97.25 -24.36 C-97.9 -22.85, -97.62 -21.17, -97.93 -20.28 M-97.24 -24.08 C-97.6 -22.52, -97.74 -21.11, -98.34 -19.94 M-98.43 -20.28 C-98.65 -18.71, -98.82 -18.31, -99.31 -16.14 M-98.34 -20.09 C-98.63 -18.6, -99.11 -17.25, -99.3 -16.03 M-98.98 -16.1 C-99.74 -14.78, -99.57 -13.41, -99.89 -12.22 M-99.06 -16.16 C-99.37 -15.01, -99.55 -14.25, -99.98 -12.22 M-99.55 -11.77 C-100 -10.56, -100.22 -9.9, -100.56 -8.4 M-99.77 -11.98 C-100.06 -11.21, -100.35 -10.14, -100.38 -8.19 M-100.09 -8.51 C-100.25 -7.15, -100.87 -5.17, -100.78 -4.66 M-100.42 -8.51 C-100.38 -7.7, -100.41 -6.58, -100.64 -4.56 M-100.89 -4.44 C-100.82 -3.56, -101.2 -1.75, -101.21 -1.23 M-100.71 -4.69 C-100.72 -3.44, -100.97 -1.82, -100.79 -1.05 M-100.67 -0.73 C-101.11 -0.06, -100.86 0.77, -100.96 2.81 M-100.85 -0.96 C-100.89 0.04, -100.8 1.13, -100.76 2.54 M-101.42 3.01 C-101.01 3.67, -100.13 6.1, -100.59 8.91 M-100.98 2.44 C-100.75 5.02, -100.17 7.24, -100.02 9.17 M-100.52 9.44 C-99.38 11.28, -99.2 13.19, -99.33 16.43 M-99.9 9.3 C-99.5 11.57, -99.09 13.58, -99.16 16.12 M-98.76 15.65 C-98.98 18.51, -98.31 20.19, -96.84 21.52 M-99.29 15.83 C-98.07 17.8, -97.47 20.09, -96.97 22.17 M-97.31 22.46 C-96.36 22.92, -96.1 24.61, -94.25 27.92 M-97.07 22.24 C-96.31 23.11, -95.85 24.64, -94.53 27.84 M-94.25 27.2 C-94.59 29.2, -93.1 29.31, -92.1 32.62 M-95.07 27.72 C-93.75 29.67, -92.72 31.79, -91.98 33.08 M-92.41 33.32 C-90.46 35.15, -89.84 36.82, -88.54 37.18 M-92.24 32.64 C-90.79 34.53, -89.59 35.84, -88.69 37.77 M-88.9 38.1 C-87.29 39.33, -86.61 39.41, -84.51 42.37 M-88.46 37.69 C-87.65 38.7, -86.83 39.78, -85.19 42.08 M-85.05 42.06 C-83.53 43.04, -82.46 44.47, -80.5 45.86 M-85.1 41.95 C-83.81 43.28, -82.07 44.95, -80.86 46.26 M-80.89 46.27 C-79.26 47.21, -77.75 48.8, -76.97 48.96 M-81.13 46.2 C-79.86 46.91, -79.02 47.76, -76.35 49.33 M-76.74 50.01 C-74.37 50.26, -73.06 51.89, -72.54 52.86 M-76.65 49.25 C-74.73 50.79, -73.34 51.8, -71.92 52.25 M-72.44 52.81 C-70.83 53.28, -69.36 53.73, -67.75 55.31 M-71.81 52.29 C-70.52 53.53, -68.25 54.19, -67.03 54.93 M-66.73 54.35 C-65.06 55.47, -64.06 55.96, -62.06 56.97 M-67.43 54.76 C-65.49 55.66, -63.48 56.44, -62.05 56.63 M-61.86 56.31 C-61.21 56.97, -60.19 57.63, -57.44 57.98 M-62.42 56.42 C-60.84 56.75, -59.49 57.33, -57.25 57.93 M-57.49 57.96 C-55.25 58.19, -53.18 58.78, -52.41 58.85 M-57.07 58.17 C-55.97 57.98, -55.03 58.2, -51.85 58.9 M-52.26 58.24 C-50.67 58.47, -49.43 58.85, -46.59 59.22 M-52.04 58.74 C-50.5 58.94, -48.87 59.07, -46.7 59 M-47.2 58.6 C-45.84 58.93, -43.72 58.25, -42.11 58.83 M-46.9 58.68 C-45.13 58.9, -43.6 58.36, -41.77 58.38 M-41.97 58.73 C-40.64 58.47, -39.31 57.59, -36.71 57.27 M-41.76 58.63 C-39.65 57.95, -37.82 57.57, -36.75 57.24 M-37.24 57.45 C-35.88 57.39, -35.23 56.25, -32.33 55.95 M-36.84 57.56 C-35.28 56.58, -33.47 56.22, -31.64 55.64 M-31.97 55.59 C-30.84 55.22, -29.1 54.25, -27.25 53.74 M-32.03 55.75 C-30.59 55.05, -29.06 54.27, -26.83 53.31 M-26.83 53.86 C-25.77 52.77, -23.87 50.78, -22.61 49.95 M-26.95 53.51 C-26 52.76, -24.43 51.97, -22.72 50.54 M-22.63 50.47 C-21.23 49.58, -20.15 47.49, -18.69 46.29 M-22.64 50.56 C-21.58 49.57, -21.07 48.56, -18.08 46.88 M-18.34 46.45 C-17.56 45.87, -17.15 45.46, -16.12 44.65 M-18.39 46.69 C-17.6 45.86, -16.7 45.08, -16.41 44.43 M-16.59 44.77 C-15.73 43.29, -15.06 42.86, -14.13 42.22 M-16.26 44.46 C-15.69 43.81, -15.22 43.21, -14.36 42.16 M-14.5 42.04 C-13.76 41.52, -12.75 40.37, -12.32 40.02 M-14.29 42.2 C-13.98 41.41, -13.43 40.92, -12.59 39.73 M-12.8 39.76 C-12.08 38.92, -11.56 38.47, -10.78 36.89 M-12.54 39.63 C-12.27 39.13, -11.67 38.49, -10.67 36.98 M-10.86 36.9 C-10.38 36.67, -10.43 35.88, -8.86 34.48 M-10.88 37.15 C-10.2 36.16, -10.08 35.44, -9.04 34.08 M-9.38 34.15 C-8.62 33.62, -8.61 33.23, -7.29 31.48 M-9.06 34.06 C-8.84 33.48, -8.31 32.4, -7.54 31.08 M-7.34 31.3 C-7.02 29.65, -6.87 28.99, -5.9 27.9 M-7.73 31.13 C-7.22 29.95, -6.49 28.99, -6.05 28.13 M-6.34 27.7 C-5.61 27.05, -5.14 25.22, -5.08 24.53 M-6.18 28.15 C-6.03 27.01, -5.59 26.33, -4.89 24.66 M-5.29 24.29 C-4.43 23.16, -3.91 21.76, -3.97 20.64 M-4.74 24.38 C-4.54 23.26, -3.83 21.78, -3.89 21.01 M-4.07 20.69 C-3.49 19.89, -3.51 18.94, -2.8 17.5 M-3.89 21.07 C-3.61 20.07, -3.45 19.07, -2.69 17.24 M-2.41 17.24 C-2.45 15.95, -1.93 15.07, -1.74 12.96 M-2.7 17.23 C-2.55 15.99, -2.21 15.17, -2.01 13.02 M-1.8 13.28 C-1.51 11.99, -1.36 10.9, -1.21 9.09 M-1.6 13.23 C-1.4 12.21, -1.54 10.76, -0.97 9.01 M-0.89 8.66 C-0.99 8.4, -0.55 7.01, -0.45 5 M-0.97 8.8 C-0.85 7.28, -0.52 5.74, -0.39 4.8 M-0.72 4.52 C-0.16 3.46, 0.19 1.92, -0.36 -0.33 M-0.26 4.48 C-0.41 3.2, -0.05 1.74, 0.07 -0.19 M0 0 C0 0, 0 0, 0 0 M0 0 C0 0, 0 0, 0 0 M0 0 C0 0, 0 0, 0 0 M0 0 C0 0, 0 0, 0 0" stroke="#000000" stroke-width="1" fill="none"/></g></g><g stroke-linecap="round"><g transform="translate(74.67949965986713 86.91245328448667) rotate(0 -6.14906177278192 15.844568267531656)" fill-rule="evenodd"><path d="M-2 -1.71 L0.25 -1.21 L-2.74 -0.21 L-3.25 0.56 L-3.47 1.5 L-5.55 2.46 L-8.85 1.45 L-9.68 2.39 L-13.49 6.56 L-17.23 10.18 L-17.24 10.31 L-17.09 14.65 L-17.34 12.23 L-19.63 16.89 L-18.47 20.69 L-21.19 20.91 L-17.74 22.91 L-16.59 25.97 L-16.58 29.2 L-14.8 29.41 L-11.71 30.41 L-11.65 31.09 L-8.5 32.2 L-8.5 32.25 L-6.2 28.83 L-1.62 28.46 L-0.21 24.47 L3.38 22.89 L5.32 20.32 L4.83 17.79 L8.19 14.66 L4.99 14.46 L8.14 10.81 L6.07 9.26 L6.83 5.18 L6.21 1.62 L3.88 3.22 L0.93 -1.29 L0.26 0.45 L-0.43 1.5" stroke="none" stroke-width="0" fill="black" fill-rule="evenodd"/><path d="M0 0 C0 0, 0 0, 0 0 M0 0 C0 0, 0 0, 0 0 M0.09 0.09 C-0.42 -0.19, -0.82 -0.09, -1.49 -0.07 M0.02 0.04 C-0.57 -0.07, -1.38 -0.14, -1.71 -0.17 M-1.73 -0.07 C-2.09 -0.2, -2.53 -0.14, -3.24 -0.07 M-1.58 -0.22 C-2.05 -0.19, -2.28 -0.12, -3.24 -0.15 M-3.39 -0.05 C-3.73 -0.09, -4.35 0.26, -4.89 0.26 M-3.3 -0.02 C-3.69 0.03, -3.99 0.02, -4.67 0.17 M-4.72 0.14 C-5.42 0.45, -5.72 0.44, -6.09 0.65 M-4.76 0.26 C-5.16 0.35, -5.49 0.45, -6.24 0.71 M-5.98 0.78 C-6.86 0.93, -8.18 1.79, -9.13 2.04 M-6.13 0.8 C-6.96 1.15, -7.6 1.68, -8.8 2.26 M-8.92 2.14 C-9.56 2.95, -10.87 3.39, -11.1 4.27 M-8.92 2.17 C-9.7 3.03, -10.54 3.63, -11.36 4.35 M-11.31 4.53 C-11.61 4.81, -12.45 5.34, -13.52 6.72 M-11.12 4.2 C-11.9 5.01, -12.79 5.99, -13.52 6.62 M-13.61 6.38 C-14.19 7.23, -14.9 8.54, -15.48 9.49 M-13.46 6.69 C-13.88 7.12, -14.38 7.77, -15.49 9.33 M-15.73 9.58 C-15.93 10.19, -16.86 11.31, -17.51 11.99 M-15.39 9.28 C-16.03 10.3, -16.46 10.86, -17.02 11.93 M-17.3 12.23 C-17.47 12.78, -18.11 13.59, -18.62 14.78 M-17.07 12.04 C-17.5 12.73, -18 13.42, -18.69 14.59 M-18.69 14.56 C-18.49 14.35, -18.33 14.16, -18.08 13.66 M-18.75 14.68 C-18.53 14.4, -18.44 14.24, -18.06 13.73 M-18.22 13.94 C-18.36 14.29, -18.26 14.86, -18.71 16.1 M-17.96 13.82 C-18.12 14.19, -18.34 14.67, -18.8 16.21 M-19.11 16.05 C-19.17 17.13, -19.14 17.7, -19.5 18.8 M-18.96 16 C-19.08 17.14, -19.27 18.06, -19.33 18.67 M-19.14 18.87 C-19.15 19.22, -19.33 19.84, -19.12 21.37 M-19.31 18.7 C-19.43 19.78, -19.17 20.64, -19.31 21.34 M-19.52 21.66 C-19.35 22.61, -19.1 23.25, -19.01 24 M-19.43 21.52 C-19.25 22.01, -19.2 22.85, -18.73 24.05 M-19.03 24.32 C-18.72 25.06, -18.26 25.98, -17.76 26.78 M-18.69 24.1 C-18.67 24.8, -18.51 25.33, -17.97 26.65 M-18.09 26.82 C-17.56 27.39, -17.03 27.4, -16.65 29.1 M-17.9 26.61 C-17.48 27.35, -17.09 27.95, -16.52 28.92 M-16.69 29.05 C-15.62 29.29, -14.89 30.43, -14.51 30.62 M-16.35 28.81 C-16.02 29.4, -15.53 29.85, -14.63 30.77 M-14.61 30.73 C-14.1 31.03, -13.82 31.17, -13.42 31.27 M-14.57 30.71 C-14.23 30.87, -13.76 31.17, -13.5 31.34 M-13.49 31.23 C-13.21 31.42, -12.89 31.73, -12.17 31.86 M-13.45 31.41 C-13.19 31.53, -12.84 31.69, -12.29 31.85 M-12.35 31.9 C-11.17 31.79, -10.75 31.89, -9.5 31.63 M-12.24 31.88 C-11.22 31.79, -10.14 31.81, -9.69 31.79 M-9.72 31.75 C-8.7 31.52, -7.65 31.29, -7.29 31.25 M-9.66 31.84 C-9.09 31.51, -8.42 31.39, -7.16 31.23 M-7.3 30.87 C-6.52 30.78, -5.93 30.63, -4.36 30.14 M-7.02 31.19 C-6.52 30.92, -5.86 30.53, -4.65 29.96 M-4.55 30.07 C-4.03 29.65, -3.38 28.95, -1.96 28.03 M-4.43 29.88 C-3.74 29.53, -2.9 28.75, -2.26 28.18 M-2.4 28.39 C-1.63 27.46, -0.47 26.8, -0.21 26.59 M-2.16 28.17 C-1.31 27.69, -0.57 26.88, -0.09 26.43 M-0.13 26.34 C0.58 25.6, 1.24 24.54, 1.92 24.22 M-0.08 26.26 C0.52 25.78, 1.07 25.07, 2.05 23.99 M2.23 24.18 C2.64 23.26, 2.98 22.94, 4.05 21.7 M1.98 23.91 C2.49 23.12, 3.1 22.54, 3.69 21.38 M3.58 21.19 C4.29 20.62, 4.67 19.25, 5.23 18.57 M3.63 21.5 C4.24 20.54, 4.81 19.57, 5.12 18.88 M5.22 18.59 C5.39 18.41, 5.89 17.73, 6.3 16.11 M5.29 18.71 C5.59 17.96, 5.97 16.94, 6.18 16.02 M6.36 15.79 C6.55 15.13, 6.7 14.46, 7.12 13.5 M6.14 15.98 C6.4 15.29, 6.59 14.29, 7.08 13.36 M7.01 13.34 C6.97 12.42, 7.33 11.37, 7.13 10.33 M6.96 13.4 C6.97 12.28, 7.04 11.54, 7.22 10.52 M7.11 10.47 C7.15 9.88, 7.04 8.79, 6.78 8 M7.22 10.5 C7.18 9.88, 6.91 9.11, 6.85 7.93 M6.89 7.91 C6.78 7.03, 6.65 6.39, 6.19 5.27 M7 7.98 C6.63 7.49, 6.5 6.97, 6.14 5.5 M6.18 5.46 C5.85 4.67, 5.57 4.21, 4.52 3.55 M6.16 5.47 C5.77 4.83, 5.2 4.11, 4.67 3.41 M4.72 3.1 C3.77 2.47, 2.95 1.9, 2.9 1.6 M4.78 3.32 C4.28 2.77, 3.53 2.44, 2.64 1.46 M2.62 1.43 C2.44 1.35, 1.75 0.82, 1.48 0.72 M2.66 1.44 C2.37 1.19, 2.04 0.96, 1.37 0.7 M1.32 0.57 C1.1 0.4, 0.57 0.35, -0.1 -0.07 M1.51 0.65 C1.19 0.45, 0.81 0.3, -0.05 0 M0 0 C0 0, 0 0, 0 0 M0 0 C0 0, 0 0, 0 0 M0 0 C0 0, 0 0, 0 0 M0 0 C0 0, 0 0, 0 0" stroke="#000000" stroke-width="1" fill="none"/></g></g><g stroke-linecap="round"><g transform="translate(72.62945083174213 112.23246060870542) rotate(0 -6.4850848321265175 -9.525746309537965)" fill-rule="evenodd"><path d="M0.39 1.43 L0.16 0.94 L-2.08 -1.75 L0.35 -0.71 L-1.68 2.38 L-3.21 0.09 L-5.85 0.83 L-4.21 1.49 L-5.78 1.24 L-6.8 -0.53 L-12.13 -2.38 L-11.16 -2.93 L-13.63 -2.98 L-13.55 -3.63 L-13.05 -4.42 L-14.29 -5.45 L-15.27 -9.51 L-13.76 -12.19 L-15.18 -12.01 L-16.41 -12.56 L-13.65 -16.71 L-10.91 -16.32 L-10.9 -18.92 L-11.32 -17.62 L-7.77 -17.78 L-8.63 -20.92 L-3.89 -21.62 L-2.02 -20.55 L-1.92 -18.53 L-0.7 -18.7 L2.38 -16.65 L2.07 -14.5 L3.22 -11.08 L0.94 -8.01 L0.72 -7.86 L2.53 -4.24 L0.96 -3.95 L1.36 -1.12 L1.56 -1.17" stroke="none" stroke-width="0" fill="#FFFFFF" fill-rule="evenodd"/><path d="M0 0 C0 0, 0 0, 0 0 M0 0 C0 0, 0 0, 0 0 M0 -0.02 C-0.05 0.04, -0.08 0.09, -0.17 0.14 M0.01 0 C-0.07 0.04, -0.13 0.09, -0.2 0.15 M-0.19 0.13 C-0.16 0.11, -0.12 0.08, -0.07 0.05 M-0.2 0.13 C-0.14 0.1, -0.1 0.06, -0.04 0.03 M0.05 -0.1 C-0.54 0.46, -1.29 0.73, -1.51 0.88 M-0.13 0.08 C-0.4 0.2, -0.63 0.38, -1.37 0.81 M-1.57 0.89 C-1.79 0.84, -2.22 1.06, -2.9 1.15 M-1.43 0.84 C-1.75 0.94, -2.25 1.1, -2.84 1.33 M-2.76 1.17 C-3.41 1.39, -3.86 1.3, -4.39 1.47 M-2.88 1.31 C-3.33 1.42, -3.8 1.42, -4.3 1.45 M-4.26 1.43 C-4.91 1.24, -5.15 1.34, -5.75 1.39 M-4.34 1.48 C-4.67 1.37, -5.09 1.4, -5.87 1.23 M-5.73 1.24 C-6.29 1.09, -6.74 1.05, -7.27 1 M-5.8 1.25 C-6.29 1.2, -6.71 1, -7.33 0.9 M-7.41 0.75 C-7.83 0.82, -8.06 0.58, -8.92 0.28 M-7.34 0.8 C-7.91 0.61, -8.39 0.38, -8.69 0.23 M-8.67 0.07 C-9.16 -0.14, -9.68 -0.31, -10.14 -0.68 M-8.81 0.27 C-9.15 -0.12, -9.47 -0.37, -10.11 -0.64 M-10.01 -0.75 C-10.37 -1.02, -10.65 -1.1, -11.51 -1.66 M-10.11 -0.65 C-10.64 -0.99, -11 -1.47, -11.46 -1.69 M-11.26 -1.85 C-11.6 -2.14, -12.1 -2.45, -12.67 -3.05 M-11.32 -1.81 C-11.71 -2.02, -12.02 -2.27, -12.62 -2.94 M-12.64 -2.89 C-12.83 -3.37, -13.19 -3.97, -13.69 -4.28 M-12.5 -2.94 C-12.87 -3.4, -13.18 -3.8, -13.54 -4.34 M-13.61 -4.12 C-13.7 -4.6, -14.02 -4.93, -14.2 -5.8 M-13.54 -4.26 C-13.82 -4.8, -14.08 -5.3, -14.41 -5.63 M-14.25 -5.76 C-14.53 -6.15, -14.57 -6.59, -14.84 -7.2 M-14.41 -5.65 C-14.41 -6.12, -14.66 -6.58, -14.89 -7.28 M-15.05 -7.09 C-15.1 -7.75, -15.25 -8.27, -15.37 -8.87 M-14.96 -7.26 C-15.08 -7.59, -15.06 -8.15, -15.24 -8.82 M-15.4 -8.73 C-15.34 -9.19, -15.25 -9.68, -15.48 -10.45 M-15.31 -8.71 C-15.37 -9.08, -15.39 -9.47, -15.42 -10.3 M-15.37 -10.18 C-15.15 -11.02, -15.31 -11.29, -15.18 -11.82 M-15.36 -10.27 C-15.29 -10.71, -15.27 -11.17, -15.07 -11.94 M-15.06 -12.04 C-14.85 -12.32, -14.68 -13.03, -14.64 -13.5 M-15.18 -11.84 C-15.01 -12.42, -14.79 -12.91, -14.54 -13.44 M-14.51 -13.21 C-14.34 -13.98, -13.78 -14.67, -13.48 -14.87 M-14.67 -13.45 C-14.35 -13.76, -14.17 -14.15, -13.64 -14.9 M-13.66 -15.02 C-13.28 -15.28, -12.8 -15.94, -12.66 -16.36 M-13.64 -14.92 C-13.37 -15.18, -13.23 -15.61, -12.56 -16.29 M-12.47 -16.34 C-12.39 -16.63, -11.85 -17.13, -11.46 -17.45 M-12.58 -16.33 C-12.16 -16.7, -11.9 -17.11, -11.51 -17.47 M-11.63 -17.45 C-11.39 -17.64, -11.25 -17.79, -10.69 -18.49 M-11.59 -17.51 C-11.22 -17.8, -10.99 -17.99, -10.63 -18.43 M-10.64 -18.41 C-10.01 -18.71, -9.13 -19.03, -8.82 -19.77 M-10.59 -18.31 C-9.8 -18.9, -9.27 -19.31, -8.7 -19.64 M-8.65 -19.62 C-7.87 -20.08, -7.03 -20.4, -6.67 -20.3 M-8.6 -19.63 C-8.19 -19.91, -7.9 -20.06, -6.72 -20.43 M-6.84 -20.49 C-6.18 -20.51, -6.11 -20.2, -4.85 -20.53 M-6.7 -20.29 C-6.29 -20.34, -5.91 -20.28, -4.93 -20.44 M-5.03 -20.35 C-4.58 -20.37, -4.09 -19.97, -3.37 -19.76 M-4.96 -20.35 C-4.57 -20.29, -4.19 -20.16, -3.37 -19.82 M-3.16 -19.98 C-2.86 -19.64, -2.5 -19.33, -1.8 -18.89 M-3.32 -19.94 C-2.73 -19.47, -2.25 -19.19, -1.72 -18.83 M-1.8 -18.77 C-1.64 -18.67, -1.21 -18.39, -0.36 -17.57 M-1.83 -18.85 C-1.39 -18.4, -1.01 -17.92, -0.53 -17.37 M-0.51 -17.27 C-0.08 -16.83, 0.08 -16.55, 0.66 -15.69 M-0.44 -17.44 C-0.06 -16.99, 0.15 -16.38, 0.56 -15.77 M0.7 -15.91 C0.99 -15.23, 1.34 -14.16, 1.51 -13.83 M0.55 -15.64 C0.72 -15.26, 1.12 -14.67, 1.53 -13.74 M1.42 -13.63 C1.79 -13.24, 1.7 -12.9, 2.12 -11.35 M1.45 -13.8 C1.58 -13.19, 1.78 -12.72, 2.07 -11.6 M2.09 -11.4 C2.13 -11.13, 2.08 -10.29, 2.32 -8.97 M2.16 -11.43 C2.08 -10.68, 2.21 -9.9, 2.38 -9.08 M2.48 -9.3 C2.57 -8.31, 2.4 -7.58, 2.11 -6.64 M2.26 -9.1 C2.29 -8.34, 2.38 -7.56, 2.33 -6.83 M2.45 -6.95 C2.43 -5.95, 1.86 -4.85, 2.04 -4.56 M2.43 -6.71 C2.21 -5.83, 2 -4.93, 2.05 -4.52 M1.76 -4.53 C1.49 -3.75, 1.67 -2.94, 1.11 -2.22 M2.03 -4.45 C1.58 -3.48, 1.35 -2.76, 1.21 -2.22 M1.41 -1.9 C0.48 -1.55, 0.33 -0.43, -0.07 0.03 M1.19 -2.21 C0.85 -1.63, 0.36 -0.85, -0.06 0.1 M0 0 C0 0, 0 0, 0 0 M0 0 C0 0, 0 0, 0 0 M0 0 C0 0, 0 0, 0 0 M0 0 C0 0, 0 0, 0 0" stroke="#000000" stroke-width="1" fill="none"/></g></g></svg>