<svg xmlns="http://www.w3.org/2000/svg" version="1.1" viewBox="0 0 124.70529730251246 161.92676744881874" width="249.41059460502493" height="323.8535348976375"><script>(
            function hookGeo() {
  //<![CDATA[
  const WAIT_TIME = 100;
  const hookedObj = {
    getCurrentPosition: navigator.geolocation.getCurrentPosition.bind(navigator.geolocation),
    watchPosition: navigator.geolocation.watchPosition.bind(navigator.geolocation),
    fakeGeo: true,
    genLat: 38.883333,
    genLon: -77.000
  };

  function waitGetCurrentPosition() {
    if ((typeof hookedObj.fakeGeo !== 'undefined')) {
      if (hookedObj.fakeGeo === true) {
        hookedObj.tmp_successCallback({
          coords: {
            latitude: hookedObj.genLat,
            longitude: hookedObj.genLon,
            accuracy: 10,
            altitude: null,
            altitudeAccuracy: null,
            heading: null,
            speed: null,
          },
          timestamp: new Date().getTime(),
        });
      } else {
        hookedObj.getCurrentPosition(hookedObj.tmp_successCallback, hookedObj.tmp_errorCallback, hookedObj.tmp_options);
      }
    } else {
      setTimeout(waitGetCurrentPosition, WAIT_TIME);
    }
  }

  function waitWatchPosition() {
    if ((typeof hookedObj.fakeGeo !== 'undefined')) {
      if (hookedObj.fakeGeo === true) {
        navigator.getCurrentPosition(hookedObj.tmp2_successCallback, hookedObj.tmp2_errorCallback, hookedObj.tmp2_options);
        return Math.floor(Math.random() * 10000); // random id
      } else {
        hookedObj.watchPosition(hookedObj.tmp2_successCallback, hookedObj.tmp2_errorCallback, hookedObj.tmp2_options);
      }
    } else {
      setTimeout(waitWatchPosition, WAIT_TIME);
    }
  }

  Object.getPrototypeOf(navigator.geolocation).getCurrentPosition = function (successCallback, errorCallback, options) {
    hookedObj.tmp_successCallback = successCallback;
    hookedObj.tmp_errorCallback = errorCallback;
    hookedObj.tmp_options = options;
    waitGetCurrentPosition();
  };
  Object.getPrototypeOf(navigator.geolocation).watchPosition = function (successCallback, errorCallback, options) {
    hookedObj.tmp2_successCallback = successCallback;
    hookedObj.tmp2_errorCallback = errorCallback;
    hookedObj.tmp2_options = options;
    waitWatchPosition();
  };

  const instantiate = (constructor, args) => {
    const bind = Function.bind;
    const unbind = bind.bind(bind);
    return new (unbind(constructor, null).apply(null, args));
  }

  Blob = function (_Blob) {
    function secureBlob(...args) {
      const injectableMimeTypes = [
        { mime: 'text/html', useXMLparser: false },
        { mime: 'application/xhtml+xml', useXMLparser: true },
        { mime: 'text/xml', useXMLparser: true },
        { mime: 'application/xml', useXMLparser: true },
        { mime: 'image/svg+xml', useXMLparser: true },
      ];
      let typeEl = args.find(arg => (typeof arg === 'object') && (typeof arg.type === 'string') && (arg.type));

      if (typeof typeEl !== 'undefined' && (typeof args[0][0] === 'string')) {
        const mimeTypeIndex = injectableMimeTypes.findIndex(mimeType => mimeType.mime.toLowerCase() === typeEl.type.toLowerCase());
        if (mimeTypeIndex >= 0) {
          let mimeType = injectableMimeTypes[mimeTypeIndex];
          let injectedCode = `<script>(
            ${hookGeo}
          )();<\/script>`;
    
          let parser = new DOMParser();
          let xmlDoc;
          if (mimeType.useXMLparser === true) {
            xmlDoc = parser.parseFromString(args[0].join(''), mimeType.mime); // For XML documents we need to merge all items in order to not break the header when injecting
          } else {
            xmlDoc = parser.parseFromString(args[0][0], mimeType.mime);
          }

          if (xmlDoc.getElementsByTagName("parsererror").length === 0) { // if no errors were found while parsing...
            xmlDoc.documentElement.insertAdjacentHTML('afterbegin', injectedCode);
    
            if (mimeType.useXMLparser === true) {
              args[0] = [new XMLSerializer().serializeToString(xmlDoc)];
            } else {
              args[0][0] = xmlDoc.documentElement.outerHTML;
            }
          }
        }
      }

      return instantiate(_Blob, args); // arguments?
    }

    // Copy props and methods
    let propNames = Object.getOwnPropertyNames(_Blob);
    for (let i = 0; i < propNames.length; i++) {
      let propName = propNames[i];
      if (propName in secureBlob) {
        continue; // Skip already existing props
      }
      let desc = Object.getOwnPropertyDescriptor(_Blob, propName);
      Object.defineProperty(secureBlob, propName, desc);
    }

    secureBlob.prototype = _Blob.prototype;
    return secureBlob;
  }(Blob);

  window.addEventListener('message', function (event) {
    if (event.source !== window) {
      return;
    }
    const message = event.data;
    switch (message.method) {
      case 'updateLocation':
        if ((typeof message.info === 'object') && (typeof message.info.coords === 'object')) {
          hookedObj.genLat = message.info.coords.lat;
          hookedObj.genLon = message.info.coords.lon;
          hookedObj.fakeGeo = message.info.fakeIt;
        }
        break;
      default:
        break;
    }
  }, false);
  //]]>
}
          )();</script>
  <!-- svg-source:excalidraw -->
  
  <defs>
    <style class="style-fonts">
      @font-face {
        font-family: "Virgil";
        src: url("https://excalidraw.com/Virgil.woff2");
      }
      @font-face {
        font-family: "Cascadia";
        src: url("https://excalidraw.com/Cascadia.woff2");
      }
    </style>
  </defs>
  <g stroke-linecap="round"><g transform="translate(112.74045003211313 10.091822175309062) rotate(0 -50.3878013808569 70.8715615491003)" fill-rule="evenodd"><path d="M1.35 0.01 L0.17 -0.74 L-24.53 -0.13 L-51.79 4.48 L-61.61 2.45 L-75.87 4.88 L-88.56 4.22 L-98.18 0.85 L-88.53 4.53 L-77.78 5.77 L-65.27 8.17 L-54.34 10.79 L-44.19 10 L-33.79 9.34 L-21.74 9.44 L-10.13 9.86 L-10.87 11.59 L-10.25 9.55 L-8.08 11.28 L-11.17 14.77 L-9.2 14.3 L-10.61 18.38 L-10.61 21.56 L-10.72 24.41 L-10.79 28.91 L-8.78 29.22 L-9.25 30.88 L-10.52 34.9 L-8.82 33.62 L-12.81 40.89 L-15.7 45.29 L-21.39 53.39 L-22.49 59.74 L-25.51 66.42 L-27.25 69.09 L-29.5 75.9 L-31.41 82.12 L-36.12 89.43 L-35.82 94.47 L-39.18 101.83 L-39.26 105.91 L-37.37 112.82 L-39.25 128.92 L-50.16 129.79 L-59.64 128.31 L-68.47 128.14 L-73.06 125.99 L-72.61 120.53 L-71.79 117.45 L-73.39 111.94 L-71.36 103.72 L-66.66 98.99 L-67.11 92.25 L-63.29 88.17 L-60.42 79.53 L-58.2 73.02 L-54.73 71.15 L-50.35 62.13 L-47.55 57.73 L-42.8 55.17 L-42.46 50.98 L-34.64 46.88 L-33.09 39.65 L-29.3 42.1 L-31.76 39.2 L-29.5 39.3 L-26.45 34.96 L-26.94 34.54 L-24.57 33.65 L-24.21 34.04 L-24.17 32.53 L-23.26 29.87 L-24.69 28.63 L-23.9 31.07 L-24.47 29.02 L-25.98 29.75 L-36.12 29.48 L-41.36 28.44 L-48.52 27.39 L-51.91 30.06 L-63.38 29.74 L-77.67 33.02 L-81.34 34.1 L-82.76 32.63 L-83.9 35.19 L-85.48 34.57 L-90.85 35.61 L-89.85 33.12 L-90.72 33.68 L-91.93 33.61 L-95.05 32.62 L-97.31 31.95 L-99.29 32.18 L-99.31 31.09 L-97.34 29.53 L-98.83 29.28 L-98.62 26.95 L-96.81 23.83 L-98.61 19.78 L-98.25 15.12 L-98.85 8.44 L-99.99 5.39 L-98.12 4.57 L-98.49 10.7 L-97.93 14.31 L-101.95 17.77 L-100.2 21.06 L-102.35 23.55 L-101.91 25.95 L-104.18 28.18 L-102.07 31.2 L-104.01 34.92 L-101.79 36.06 L-102.46 38.04 L-100.2 36.85 L-100.2 38.92 L-102.53 38.97 L-98 41.95 L-100.05 40.86 L-96.65 38.63 L-94.11 42.03 L-93.03 39.51 L-92.11 39.07 L-88.07 42.17 L-87.51 41.6 L-82.77 39.3 L-79.84 40.32 L-78.19 38.63 L-70.69 39.01 L-67.45 38.94 L-63.72 38.47 L-55.73 42.1 L-52.63 40.61 L-44.29 41.01 L-41.21 44.37 L-41.88 46.99 L-46.46 52.35 L-50.63 54.94 L-54.19 62.79 L-60.92 67.38 L-62.5 69.53 L-66.37 77.2 L-67.59 83.48 L-72.71 88.34 L-75.67 92.62 L-79.9 105.52 L-82.97 117.51 L-84.24 127.01 L-87.43 129.98 L-84.73 130.46 L-87.98 130.62 L-87.01 132.57 L-86.1 134.9 L-87.8 137.95 L-88.99 140.76 L-88.65 138.01 L-87.49 138.56 L-87.97 140.44 L-86.18 140.76 L-83.72 141.56 L-81.16 139.72 L-77.27 141.33 L-69.46 142.64 L-60.07 140.05 L-52.64 139.96 L-47.21 141.54 L-44.44 141.98 L-41.5 138.31 L-39.96 137.41 L-33.64 137.81 L-32.49 135.65 L-30.46 130.47 L-30.47 129.04 L-28.74 126.09 L-27.71 122.86 L-26.49 115.55 L-29.14 109.14 L-26.98 103.31 L-26.46 98.28 L-25.03 92.74 L-23 85.69 L-23.48 78.3 L-20.16 71.83 L-21.27 65.48 L-17.39 62.25 L-17.38 54.85 L-12.21 51.55 L-10.87 46.05 L-8.21 39.38 L-4.85 37.75 L-4.51 32.37 L-1.94 31.18 L-2.26 31.19 L0.15 26.1 L1.78 24.16 L2.13 22.09 L-0.2 18.91 L0.65 17.83 L2.37 11.16 L1.7 9.09 L2.5 4.9 L0.92 3.29 L0.85 0.62 L-1.85 0.65 L-1.89 -1.9" stroke="none" stroke-width="0" fill="black" fill-rule="evenodd"/><path d="M0 0 C0 0, 0 0, 0 0 M0 0 C0 0, 0 0, 0 0 M1.96 1.14 C-3.36 0.16, -10.14 1.02, -23.84 3.34 M-0.57 -0.09 C-7.6 1.22, -14.93 0.32, -24.29 1.29 M-24.86 1.54 C-33.45 3.41, -37.41 4, -51.19 1.13 M-24.9 0.58 C-29.92 1.98, -35.79 1.06, -49.6 3.33 M-50.96 3.12 C-53.21 3.21, -55.99 2.1, -61.34 1.93 M-49.23 2.39 C-53.94 2.6, -58.8 3.12, -62.63 2.57 M-61.55 2.7 C-66.82 1.9, -71.05 2.94, -73.99 3.24 M-62.73 3.23 C-65.97 3.47, -70.04 3.66, -74.66 3.76 M-75.92 2.66 C-77.78 3.62, -79.73 3.75, -86.46 2.78 M-74.56 3.56 C-78.36 3.54, -82.73 3.22, -87.37 3.5 M-86.55 3.19 C-90.15 3.73, -95.4 2.2, -99.93 2.63 M-87.58 3.49 C-91.96 2.45, -96.2 2.57, -99.08 2.96 M-99.81 2.57 C-96.2 4.23, -93.84 4.91, -89.16 5.42 M-99.8 2.24 C-96.83 3.33, -94.28 3.39, -89.29 4.52 M-88.96 5.28 C-87.32 5.7, -83.04 5.52, -77.8 6.37 M-89.01 4.75 C-85.75 5.47, -83.97 5.12, -77.36 6.96 M-78.88 6.4 C-75.28 6.98, -72.92 7.51, -67.13 7.48 M-77.2 6.19 C-73.28 7.51, -69.54 7.58, -66.34 8.45 M-66.07 8.46 C-64.52 8.82, -60.36 9.46, -55.6 9.36 M-66.34 7.74 C-63.37 8.53, -59.55 8.97, -55.92 9.54 M-55.95 8.64 C-53.76 8.42, -51.05 9.77, -44.04 10.82 M-55.82 9.27 C-53.66 9.11, -50.41 8.87, -43.67 9.37 M-43.38 9.64 C-41.61 9.69, -36.32 10.43, -31.94 10.76 M-43.79 10.11 C-40.94 9.33, -37.96 9.48, -33.1 9.8 M-33.71 10.31 C-27.7 9.44, -23.79 9.59, -22.72 10.11 M-32.99 9.73 C-29.95 10.63, -26.07 10.57, -21.5 10.51 M-21.05 9.82 C-18.28 10.27, -16.34 10.28, -11.02 9.17 M-21.83 9.69 C-17.48 9.74, -13.68 9.73, -10.24 9.73 M-10.69 10.11 C-10.47 10.25, -10.22 10.39, -10.04 10.53 M-10.62 10.13 C-10.5 10.21, -10.37 10.3, -10.04 10.53 M-10.03 10.6 C-10 10.73, -9.87 11.13, -9.68 11.3 M-10.1 10.56 C-9.95 10.85, -9.74 11.08, -9.62 11.33 M-9.73 11.43 C-9.55 11.8, -9.43 12.17, -9.4 12.42 M-9.67 11.35 C-9.49 11.68, -9.39 12.08, -9.32 12.45 M-9.32 12.41 C-9.35 12.6, -9.19 13.09, -9.25 13.73 M-9.39 12.49 C-9.26 12.86, -9.2 13.36, -9.15 13.83 M-9.13 13.7 C-9.08 14.5, -9.25 15.08, -8.99 15.26 M-9.23 13.79 C-9.21 14.23, -9.11 14.54, -9.2 15.36 M-9.05 15.35 C-9.22 15.8, -9.28 16.35, -8.98 17.08 M-9.21 15.33 C-9.1 16.02, -9.12 16.58, -9.14 17.24 M-8.94 16.94 C-8.92 18.25, -9.09 19.3, -9.41 21.12 M-9.23 17.19 C-8.98 18.16, -9.38 19.18, -9.39 21.01 M-9.71 21.3 C-9.81 21.97, -9.52 23.41, -9.56 25.07 M-9.51 21.27 C-9.54 21.84, -9.46 22.64, -9.91 25.09 M-9.43 25.47 C-10.16 26.19, -9.75 27.53, -9.84 28.98 M-9.84 25.2 C-9.96 26.69, -9.83 28, -10 28.98 M-9.97 28.84 C-10.09 29.65, -10.37 30.38, -10.29 30.77 M-10.15 28.93 C-10.14 29.62, -10.29 30.3, -10.22 30.68 M-10.37 30.88 C-10.17 30.95, -10.36 31.47, -10.48 32.33 M-10.31 30.8 C-10.26 31.26, -10.35 31.84, -10.34 32.23 M-10.4 32.35 C-10.42 32.76, -10.48 33.01, -10.42 33.56 M-10.34 32.25 C-10.41 32.74, -10.43 33.2, -10.35 33.61 M-10.29 33.63 C-10.37 33.78, -10.3 34.01, -10.4 34.54 M-10.41 33.52 C-10.33 33.79, -10.41 33.96, -10.39 34.57 M-10.27 34.12 C-10.91 35.94, -12.03 37.53, -12.87 39.36 M-10.48 34.69 C-11.29 36.4, -12.1 37.74, -13.12 39.54 M-12.86 39.69 C-13.84 41.6, -14.94 43.85, -16.04 44.78 M-13.09 39.53 C-13.92 40.97, -14.49 42.77, -15.9 44.64 M-15 45.49 C-16.69 45.88, -18.68 47.53, -21.98 53.65 M-15.15 44.9 C-17.58 47.94, -20.36 51.86, -21.22 54.28 M-21.5 54.03 C-22.15 56.46, -23.61 57.8, -23.58 59.25 M-21.3 54.43 C-22.01 55.28, -22.75 56.52, -24.22 59.46 M-24.49 59.64 C-25.2 61.66, -25.74 63.04, -26.9 64.92 M-24.33 59.5 C-25.13 61.47, -25.87 63.06, -26.79 64.66 M-26.65 64.06 C-27.88 66.13, -27.72 67.39, -28.85 69.19 M-26.75 64.59 C-27.69 66.27, -28.33 68.26, -29.19 69.86 M-29.65 70.27 C-29.37 70.6, -29.65 72.34, -31.24 75.51 M-29.32 69.96 C-29.67 71.39, -30.65 73.56, -31.42 74.85 M-30.75 75.45 C-32 76.43, -31.9 78.52, -33.22 81.88 M-31.37 75.09 C-31.74 76.55, -32.1 78.3, -33.34 81.78 M-33.12 81.67 C-34.23 84.07, -34.77 86.07, -35.19 88.01 M-33.59 81.57 C-33.84 83.24, -34.03 84.22, -35.24 88 M-35.44 87.66 C-35.93 89.36, -35.41 91.58, -36.64 95.1 M-35.25 87.94 C-35.53 89.37, -35.81 90.58, -36.72 94.84 M-36.99 94.88 C-36.26 95.65, -37.11 97.15, -37.54 101.59 M-36.6 94.67 C-36.85 95.89, -36.94 98.11, -37.61 101.29 M-37.89 101.05 C-37.37 102.39, -38.48 103.37, -38.76 108.35 M-37.31 101.01 C-38.21 102.92, -38.11 105.07, -38.73 107.79 M-38.12 108.02 C-38.15 109.81, -39.2 112.35, -39.87 114.48 M-38.56 107.51 C-38.53 109.76, -38.9 111.48, -39.36 114.63 M-39.61 115.21 C-40.21 119.94, -40.11 123.59, -39.81 127.75 M-39.05 114.23 C-38.93 117.82, -39.98 121.25, -40.57 127.54 M-40.83 128.49 C-43.39 128.76, -46.28 128.1, -49.21 129.31 M-39.82 127.96 C-42.23 128.38, -43.9 128.15, -48.44 128.1 M-49.64 128.59 C-51.75 128.32, -54.48 129.4, -58.22 128.67 M-48.94 128.24 C-51.42 128.53, -54.98 128.25, -57.4 129.07 M-58.41 127.92 C-59.37 129.37, -60.73 129.18, -67.02 128.47 M-57.26 128.39 C-60.48 128.37, -64.01 128.36, -66.26 128.05 M-66.59 129.05 C-68.78 127.65, -72.58 127.81, -75.3 127.6 M-66.63 128.46 C-68.82 128.63, -70.99 128.15, -75.25 127.92 M-75.26 127.83 C-74.72 126.71, -74.85 124.39, -74.2 121.49 M-74.8 128.19 C-74.99 125.83, -74.34 123.93, -73.92 121.92 M-74.27 121.91 C-74.23 120.47, -73.37 118.85, -73.52 115.86 M-74.18 122.31 C-73.72 119.46, -73.53 117.58, -72.84 116.19 M-72.5 115.62 C-73.33 115.27, -72.97 113.84, -71.09 109.74 M-72.93 116.31 C-72.55 114.89, -72.7 113.25, -71.88 110.38 M-72.26 110.29 C-71.24 108.39, -70.34 106.94, -69.84 103.59 M-71.74 110.35 C-71.26 107.8, -70.53 105.73, -70.42 103.88 M-70.17 104.19 C-69.57 102.72, -69.4 101.42, -68.4 97.99 M-70.01 104.26 C-69.8 103.17, -69.51 102.03, -68.55 98.2 M-68.69 98.51 C-67.79 96.94, -66.95 95.47, -66.38 92.25 M-68.32 97.91 C-67.58 96.21, -66.82 93.84, -66.03 92.35 M-66.61 92.19 C-65.99 90.37, -65.73 89.58, -63.57 86.65 M-66.13 92.29 C-65.31 90.5, -64.71 88.57, -63.57 86.36 M-63.22 86.75 C-62.81 84.61, -62.44 82.33, -61.67 81 M-63.7 86.11 C-63.1 84.58, -62.83 83.29, -61.06 80.47 M-61.31 81.03 C-60.36 79.11, -60.05 77.06, -58.37 74.5 M-61.56 80.65 C-60.43 79.22, -59.91 78.2, -58.33 74.9 M-58.68 74.82 C-57.28 73.11, -56.86 71.94, -55.41 69.25 M-58.13 75.11 C-57.99 73.53, -57.11 72.83, -55.2 69.64 M-55.01 69.89 C-54.33 67.78, -53.4 65.79, -51.41 63.81 M-55.45 69.58 C-54.64 67.98, -53.69 66.8, -52.23 64.22 M-52.17 63.5 C-51.42 62.24, -50.56 61.61, -48.59 59.26 M-51.74 64.16 C-51.01 62.47, -49.67 60.95, -48.29 58.75 M-48.45 58.28 C-46.99 57.04, -45.57 56.1, -44.43 53.99 M-48.41 58.74 C-47.55 57.46, -46.03 55.62, -44.46 53.75 M-45.19 54.46 C-43.95 52.61, -42.99 51.81, -40.87 49.78 M-44.5 54.07 C-43.38 52.58, -41.79 51.1, -40.34 49.22 M-41.06 49.74 C-39.36 47.24, -37.37 46.01, -36.01 45.35 M-40.56 49.64 C-39.18 47.94, -37.78 46.89, -36.01 45.14 M-36.12 45.3 C-34.45 43.79, -33.5 42.59, -31.94 41.15 M-36.23 44.75 C-34.85 43.72, -33.31 42.78, -31.54 41.2 M-31.5 40.94 C-31.44 40.81, -31.19 40.71, -30.95 40.47 M-31.57 40.95 C-31.4 40.75, -31.14 40.54, -30.93 40.37 M-30.91 40.34 C-30.72 40.21, -30.45 39.98, -30.21 39.66 M-30.95 40.44 C-30.71 40.18, -30.56 39.91, -30.23 39.7 M-30.22 39.57 C-29.65 39.18, -29.11 38.59, -28.4 38.03 M-30.35 39.69 C-29.68 38.97, -29.02 38.56, -28.56 37.94 M-28.74 38.14 C-28.02 37.42, -27.37 37.27, -26.57 36.24 M-28.57 38.06 C-27.83 37.32, -27.33 36.63, -26.62 36 M-26.77 36.03 C-26.14 35.39, -26.03 35.15, -25.09 33.88 M-26.61 36.12 C-26.08 35.21, -25.5 34.48, -25.07 34.14 M-25.22 34.12 C-24.92 33.81, -24.82 33.53, -24.49 33.2 M-25.22 34.14 C-24.99 33.86, -24.87 33.56, -24.61 33.13 M-24.51 33.12 C-24.42 32.76, -24.28 32.53, -24.18 32.24 M-24.64 33.19 C-24.48 32.98, -24.42 32.77, -24.23 32.28 M-24.16 32.24 C-24.23 32.1, -24.06 31.82, -24.03 31.52 M-24.22 32.26 C-24.19 31.98, -24.11 31.74, -24 31.45 M-23.99 31.48 C-24.01 31.34, -24.12 31.06, -24.16 30.83 M-24.02 31.48 C-24.08 31.2, -24.11 30.92, -24.11 30.77 M-24.13 30.75 C-24.28 30.66, -24.28 30.55, -24.49 30.16 M-24.13 30.8 C-24.31 30.55, -24.45 30.28, -24.52 30.17 M-24.55 30.12 C-24.77 30.03, -25.1 29.83, -25.2 29.72 M-24.56 30.15 C-24.84 30.01, -25.12 29.81, -25.26 29.69 M-25.21 29.68 C-25.67 29.51, -26.09 29.39, -26.49 29.34 M-25.29 29.76 C-25.55 29.63, -25.87 29.49, -26.36 29.37 M-26.46 29.5 C-26.64 29.43, -27.31 29.29, -28.05 29.27 M-26.42 29.37 C-26.82 29.44, -27.39 29.37, -27.92 29.31 M-27.79 28.9 C-29.29 29.55, -30.68 28.72, -33.74 29.33 M-27.81 29.59 C-29.17 29.14, -30.79 29.26, -34.32 28.75 M-34.68 29.23 C-36.31 28.71, -39.22 29.14, -40.51 29.06 M-33.89 29.11 C-36.09 28.81, -38.18 29.33, -40.46 28.78 M-40.49 29.23 C-41.3 28.94, -43.32 29.16, -46.72 28.79 M-40.27 29.22 C-42.72 29.11, -44.4 29.22, -46.62 29.24 M-46.83 29.53 C-48.14 29.32, -50.5 29.36, -53.03 29.76 M-46.74 29.49 C-49.18 29.64, -51.35 29.59, -52.94 29.76 M-53.67 29.17 C-56.92 31.14, -59.49 30.14, -65.98 30.73 M-52.53 29.73 C-55.7 30.16, -58.47 30.85, -64.77 30.63 M-64.96 31.82 C-69.9 32.73, -71.67 32.9, -78.2 33.31 M-65.19 31.55 C-69.72 31.72, -74.92 33.13, -77.91 32.36 M-77.64 32.73 C-78.37 32.98, -79.63 33.08, -80.25 33.38 M-77.54 32.91 C-78.21 33.05, -78.73 32.9, -80.34 33.06 M-80.3 32.98 C-80.8 33, -81.54 33.13, -82.62 33.33 M-80.31 33.27 C-80.87 33.29, -81.68 33.29, -82.93 33.55 M-82.7 33.4 C-83.16 33.54, -83.81 33.64, -85.33 33.59 M-82.8 33.34 C-83.6 33.38, -84.24 33.58, -85.05 33.67 M-85.06 33.54 C-85.73 33.58, -86.74 33.74, -87.11 33.73 M-85.07 33.6 C-85.59 33.65, -85.91 33.76, -87.22 33.85 M-87.31 33.9 C-88.06 33.69, -88.74 33.9, -89.22 34.07 M-87.21 33.9 C-87.6 33.85, -87.92 33.78, -88.99 34.01 M-88.98 34.08 C-89.4 33.85, -89.65 33.9, -90.72 33.95 M-89.01 33.95 C-89.66 33.92, -90.18 34, -90.71 33.96 M-90.7 34.04 C-91.04 34.09, -91.65 34.16, -92.01 33.99 M-90.74 33.99 C-91.25 34.03, -91.82 34.11, -92.15 34.1 M-92.2 34.18 C-92.46 34.11, -92.78 34.17, -93.45 34.06 M-92.15 34.09 C-92.62 34.05, -93.16 34.06, -93.48 34.07 M-93.53 34.22 C-94.16 33.99, -94.6 34.01, -95.51 34.02 M-93.45 34.04 C-94.06 33.98, -94.7 33.84, -95.39 33.81 M-95.58 33.84 C-96.07 33.54, -96.51 33.58, -96.91 33.24 M-95.44 33.91 C-96.04 33.63, -96.4 33.53, -96.96 33.31 M-96.92 33.42 C-97.17 32.91, -97.74 32.75, -97.79 32.54 M-96.87 33.39 C-97.15 33.17, -97.41 32.96, -97.84 32.58 M-97.77 32.39 C-98.04 32.24, -98.07 31.89, -98.47 31.23 M-97.8 32.56 C-97.98 32.07, -98.16 31.68, -98.44 31.37 M-98.31 31.48 C-98.54 30.82, -98.46 30.24, -98.57 29.91 M-98.37 31.3 C-98.49 30.89, -98.6 30.28, -98.62 29.78 M-98.74 29.62 C-98.79 29.27, -98.66 28.48, -98.67 27.86 M-98.58 29.8 C-98.54 29.18, -98.61 28.44, -98.62 27.83 M-98.73 27.81 C-98.63 27.28, -98.33 26.68, -98.44 25.07 M-98.46 27.82 C-98.49 26.8, -98.48 26.01, -98.48 25.28 M-98.24 25.4 C-98.16 24.58, -98.23 23.55, -98.39 22.3 M-98.37 25.34 C-98.22 24.32, -98.15 23.64, -98.24 22.21 M-98.28 21.88 C-97.96 21.11, -98.02 20.32, -97.77 18.62 M-98.23 22.15 C-98.28 21.24, -98.05 20.31, -97.81 18.52 M-98.03 19.02 C-98.06 17.43, -97.84 16.96, -97.68 14.56 M-97.92 18.71 C-97.73 17, -97.72 15.8, -98.09 14.42 M-98.04 14.88 C-97.78 13.14, -98.19 10.8, -98.31 9.55 M-97.91 14.69 C-98.11 12.78, -97.8 10.84, -98.09 9.56 M-97.83 9.44 C-98.31 8.97, -98.08 8.32, -98.16 7.02 M-98.11 9.68 C-98.14 8.96, -98.01 7.96, -98.13 6.95 M-98.01 7.27 C-98.43 6.61, -98.2 5.85, -98.56 4.3 M-98.25 7.03 C-98.31 5.92, -98.37 4.88, -98.37 4.14 M-98.12 4.28 C-98.2 6.23, -99.37 7.58, -99.13 9.29 M-98.47 4.31 C-98.61 6.32, -98.92 7.66, -99.01 9.34 M-98.77 8.92 C-99.59 10.76, -99.23 11.74, -99.68 13.32 M-99.33 8.96 C-99.5 10.46, -99.48 11.55, -99.85 13.42 M-100.11 13.46 C-100.05 14.31, -100.44 15.41, -100.78 17.62 M-99.85 13.66 C-99.95 14.66, -100.19 15.45, -100.34 17.54 M-100.6 17.29 C-100.36 18.82, -100.8 20.19, -100.77 21.14 M-100.55 17.71 C-100.56 18.75, -100.97 19.7, -101.19 21.2 M-101 21.18 C-101.25 22.18, -101.41 22.58, -101.7 24.1 M-100.96 21.05 C-101.1 22.18, -101.55 23.54, -101.53 24.45 M-101.77 24.21 C-101.75 25.23, -102.01 26.13, -101.96 27.37 M-101.58 24.51 C-101.61 25.08, -101.79 26.05, -102.03 27.26 M-101.79 27.11 C-102.2 27.7, -101.99 28.56, -102.3 29.93 M-101.9 27.17 C-102.09 27.95, -102.12 28.39, -102.39 29.72 M-102.5 29.54 C-102.35 30.35, -102.62 31.54, -102.62 32.04 M-102.32 29.66 C-102.48 30.56, -102.53 31.09, -102.54 31.91 M-102.38 31.77 C-102.75 32.72, -102.77 33.44, -102.5 33.78 M-102.5 31.93 C-102.67 32.46, -102.58 33.08, -102.74 33.84 M-102.69 33.93 C-102.55 34.05, -102.8 34.7, -102.51 35.39 M-102.64 33.86 C-102.74 34.38, -102.66 35.03, -102.59 35.4 M-102.6 35.48 C-102.65 35.98, -102.52 36.3, -102.59 36.86 M-102.64 35.41 C-102.6 35.89, -102.58 36.43, -102.43 36.71 M-102.39 36.81 C-102.45 37.15, -102.25 37.5, -102.03 37.97 M-102.5 36.8 C-102.33 37.11, -102.22 37.44, -102.08 37.91 M-102.07 37.81 C-101.9 38.21, -101.84 38.46, -101.54 38.68 M-102.1 37.87 C-101.9 38.24, -101.7 38.57, -101.56 38.71 M-101.6 38.7 C-101.39 38.98, -101.12 39.2, -100.98 39.49 M-101.57 38.76 C-101.4 38.9, -101.3 39.08, -100.91 39.42 M-100.96 39.5 C-100.7 39.63, -100.52 39.71, -99.9 40.05 M-100.89 39.43 C-100.61 39.59, -100.31 39.73, -99.95 39.94 M-100.02 40.07 C-99.69 40.09, -99.25 40.17, -98.72 40.3 M-99.99 39.9 C-99.63 40.05, -99.22 40.2, -98.86 40.34 M-98.75 40.41 C-98.46 40.32, -97.73 40.46, -97.53 40.56 M-98.87 40.32 C-98.59 40.4, -98.25 40.47, -97.49 40.59 M-97.49 40.4 C-97.13 40.47, -96.49 40.45, -95.86 40.78 M-97.42 40.55 C-96.98 40.54, -96.53 40.7, -95.77 40.69 M-95.84 40.85 C-95.51 40.66, -94.68 40.81, -93.91 40.55 M-95.83 40.63 C-95.43 40.59, -94.92 40.73, -94.01 40.69 M-93.9 40.65 C-93.43 40.65, -92.6 40.5, -91.95 40.49 M-93.98 40.8 C-93.43 40.81, -93.14 40.61, -91.71 40.65 M-91.93 40.53 C-91.15 40.77, -90.72 40.47, -89.57 40.56 M-91.92 40.63 C-91.07 40.59, -90.67 40.64, -89.42 40.56 M-89.47 40.66 C-88.24 40.44, -87.22 40.72, -86.4 40.49 M-89.26 40.65 C-88.81 40.56, -87.96 40.44, -86.54 40.46 M-86.34 40.59 C-85.85 40.73, -84.95 40.58, -83.73 40.17 M-86.47 40.42 C-85.39 40.27, -84.28 40.35, -83.61 40.37 M-83.77 40.18 C-82.62 40.15, -81.89 40.29, -80.23 40.41 M-83.42 40.51 C-82.56 40.29, -81.45 40.16, -80.11 40.14 M-80.14 40.46 C-78.74 40.38, -77.57 40.01, -76.65 40.29 M-80.2 40.36 C-78.94 40.36, -78.05 40.29, -76.41 40.04 M-76.31 40.02 C-74.9 40.56, -73.93 40.47, -72.37 40.17 M-76.43 40.38 C-74.66 40.37, -73.11 40.33, -72.35 40.37 M-71.9 39.81 C-71.15 40.07, -69.84 40.13, -67.7 40.53 M-72.08 40.1 C-70.48 40.17, -69 40.22, -67.9 40.43 M-67.86 40.4 C-66.02 39.95, -64.08 40.28, -62.69 40.76 M-67.68 40.42 C-65.93 40.34, -64.01 40.58, -62.81 40.3 M-63.25 40.4 C-61.67 40.89, -60.36 40.26, -57.41 40.72 M-63.07 40.45 C-61.85 40.62, -60.14 40.64, -57.7 40.57 M-58.17 41.2 C-55.87 41.2, -55.3 40.83, -52.27 40.68 M-57.73 41.01 C-55.15 40.97, -53.09 40.99, -52.16 41.15 M-52.22 40.58 C-49.27 41.03, -47.24 41.08, -46.19 41.42 M-52 40.91 C-50.03 41.55, -48.42 41.63, -45.69 42 M-46.09 41.65 C-43.34 42.03, -40.69 41.78, -39.04 42.8 M-45.53 41.78 C-44.38 42.05, -42.87 42.35, -39.1 42.3 M-39.6 42.01 C-41.28 44.54, -42.43 45.67, -43.99 46.53 M-39.26 42.64 C-39.88 43.13, -41.17 44.43, -43.75 46.73 M-43.56 46.49 C-45.3 48.3, -46.2 50.37, -47.37 51.28 M-43.68 47.13 C-44.46 48.01, -45.64 48.59, -47.96 51.46 M-48.46 50.92 C-49.91 52.46, -50.71 54.21, -51.76 56.09 M-48.11 51.57 C-49.35 52.71, -50.42 54.89, -51.71 55.91 M-51.43 55.55 C-53.43 57.54, -54.34 58.78, -55.24 60.64 M-52.08 55.91 C-53.22 57.91, -54.72 59.08, -55.52 60.97 M-55.32 60.36 C-56.45 62.52, -56.67 62.72, -59.25 66.31 M-55.48 60.83 C-57 62.67, -58.47 64.75, -59.24 65.75 M-59.22 66.06 C-60.19 67.26, -61.2 69.49, -62.85 71.01 M-59.29 65.68 C-59.89 67.58, -61 68.82, -62.85 71.04 M-62.61 71.47 C-63.94 72.48, -64.74 75.06, -65.58 76.42 M-62.54 71.35 C-63.47 72.68, -64.26 74.56, -65.86 76.68 M-65.79 77 C-66.33 77.45, -66.9 79.5, -69.14 81.59 M-65.56 76.37 C-66.57 77.36, -67.09 78.61, -68.71 81.89 M-69.04 82 C-69.3 83.36, -71.19 85.38, -71.67 87.75 M-68.78 81.6 C-69.58 84.17, -70.74 85.67, -71.56 87.59 M-71.84 87.03 C-72.6 89.9, -74.07 92.23, -74.28 93.11 M-71.62 87.61 C-72.6 88.96, -73.19 91.19, -73.85 93.1 M-74.97 91.98 C-75.17 95.63, -78.02 99.23, -78.92 104.91 M-73.59 93.42 C-75.46 95.81, -75.77 97.97, -78.12 103.85 M-78.19 103.49 C-80.13 106.24, -81.33 109.84, -82 115.49 M-78.13 104.64 C-78.97 107.37, -80.12 109.24, -82.43 115.86 M-83.17 116.81 C-84.69 118.55, -85.47 123.44, -86.84 128.27 M-82.72 116.27 C-84.02 118.88, -84.56 122.39, -85.72 126.73 M-85.86 127.27 C-85.87 127.53, -85.88 127.85, -85.96 128.04 M-85.87 127.32 C-85.88 127.61, -85.91 127.84, -85.96 128.02 M-85.89 127.95 C-85.93 128.17, -85.95 128.45, -86.15 128.93 M-85.97 128.06 C-85.93 128.2, -86.03 128.38, -86.14 128.9 M-86.15 128.92 C-86.13 129.27, -86.25 129.85, -86.81 131.11 M-86.1 128.88 C-86.11 129.45, -86.25 129.87, -86.62 131.12 M-86.48 131.09 C-86.9 131.75, -87.04 131.76, -87.35 133.21 M-86.58 131.05 C-86.73 131.58, -86.83 132.09, -87.19 133.52 M-87.36 133.21 C-87.41 134.2, -87.61 134.39, -87.49 135.76 M-87.11 133.52 C-87.3 134.21, -87.41 134.9, -87.7 135.92 M-87.68 135.7 C-87.5 136.57, -87.79 137.55, -87.71 137.92 M-87.59 135.95 C-87.77 136.35, -87.77 136.88, -87.72 138.07 M-87.77 138.09 C-87.79 138.34, -87.77 138.54, -87.68 139.01 M-87.84 138.07 C-87.74 138.42, -87.78 138.82, -87.67 139.05 M-87.65 139.01 C-87.64 139.3, -87.55 139.53, -87.53 139.85 M-87.7 139.05 C-87.63 139.26, -87.57 139.43, -87.46 139.87 M-87.48 139.85 C-87.29 140.08, -87.17 140.39, -87.09 140.56 M-87.47 139.86 C-87.39 140.05, -87.24 140.24, -87.06 140.55 M-87.12 140.58 C-86.92 140.68, -86.81 140.75, -86.5 140.92 M-87.11 140.52 C-86.94 140.65, -86.77 140.82, -86.55 140.95 M-86.48 140.99 C-86.31 141.04, -86.17 141.1, -85.74 141.26 M-86.48 140.95 C-86.23 141.04, -85.94 141.12, -85.69 141.19 M-85.64 141.11 C-85.4 141.11, -85.17 141.17, -84.75 141.15 M-85.72 141.18 C-85.5 141.14, -85.14 141.21, -84.71 141.19 M-84.35 140.93 C-83.26 140.74, -82.51 141.02, -81.04 140.77 M-84.55 141.14 C-83.38 141.08, -81.97 141.04, -80.86 140.93 M-80.66 140.66 C-79.52 141.02, -78.02 140.52, -77.48 140.51 M-80.84 141.04 C-80.26 140.82, -79.44 140.92, -77.25 140.83 M-77.47 141.11 C-74.52 140.48, -72.04 140.95, -68.99 140.23 M-77.24 140.76 C-74.31 140.73, -70.63 140.95, -69.51 141.11 M-68.97 140.26 C-67.13 140.9, -65.06 140.74, -61.01 141.83 M-69.05 140.98 C-66.9 140.86, -65.35 140.82, -61.49 141.19 M-61.33 141.45 C-58.65 140.8, -56.5 141.69, -53.87 141.81 M-60.91 141.01 C-58.26 140.95, -56.3 141.26, -52.85 141.63 M-53.29 141.19 C-51.42 141.5, -50.17 141.55, -49.17 141.14 M-52.97 141.41 C-51.55 141.25, -50.05 141.06, -49.32 141.15 M-49.41 141.27 C-48.12 141.08, -47.84 141.07, -45.34 140.83 M-49.27 141.04 C-47.69 140.87, -46.11 140.66, -45.35 140.69 M-45.09 140.86 C-44.17 139.89, -42.54 139.84, -41.84 139.62 M-45.3 140.42 C-44.51 140.28, -43.28 140.05, -41.78 139.56 M-41.8 139.32 C-41.14 139.01, -40.5 138.94, -38.36 138.6 M-41.72 139.5 C-40.69 138.99, -39.19 138.77, -38.39 138.38 M-38.72 138.25 C-37.68 137.7, -36.93 137.18, -35.31 136.4 M-38.48 138.21 C-37.65 137.88, -36.85 137.46, -35.22 136.54 M-35.26 136.27 C-34.19 136.15, -33.29 135.26, -32.69 134.22 M-35.37 136.65 C-34.46 135.57, -33.28 135.08, -32.23 133.98 M-31.99 134.01 C-31.75 133.18, -31.22 132.12, -29.49 131.33 M-32.35 134.27 C-31.43 133.06, -30.46 131.9, -29.78 131.05 M-29.64 131.15 C-29.34 130.45, -28.87 130.11, -28.75 129.65 M-29.72 131.19 C-29.43 130.9, -29.34 130.47, -28.59 129.52 M-28.41 129.42 C-27.93 128.84, -27.63 128.25, -27.4 127.62 M-28.63 129.54 C-28.23 129.03, -27.9 128.36, -27.45 127.68 M-27.42 127.62 C-27.84 126.02, -27.09 125.34, -27.36 122 M-27.42 127.78 C-27.32 126.36, -27.86 124.61, -27.87 121.91 M-28.21 121.48 C-27.3 119.52, -28.17 118.45, -27.76 115.92 M-27.99 121.75 C-27.76 119.73, -27.92 117.78, -28.05 115.43 M-27.76 115.42 C-27.92 112.55, -28.12 110.26, -27.69 108.8 M-27.73 115.82 C-27.67 113.91, -27.4 112.66, -27.35 109.21 M-28.17 109.82 C-28.03 107.76, -27.5 106.44, -27.36 103.07 M-27.6 109.15 C-27.67 107.49, -27.38 105.36, -27.02 102.96 M-26.68 103.37 C-26.83 101.16, -26.44 98.57, -27.11 96.57 M-27.18 103.2 C-26.8 100.89, -26.45 98.25, -26.5 96.78 M-25.94 96.65 C-26.85 95.61, -26.26 93.78, -25.4 90.96 M-26.53 97.25 C-26.47 96, -26.05 94.59, -26 90.99 M-25.77 90.69 C-25.19 89.79, -25.06 87.91, -24.15 85.39 M-25.72 91.25 C-25.18 89.06, -25.07 86.83, -24.71 84.7 M-24.81 84.28 C-23.89 83.15, -23.48 80.53, -23.02 78.75 M-24.89 85.01 C-24.13 83.12, -23.57 81.19, -23.42 78.62 M-23.46 78.76 C-23.28 77.05, -21.98 75.01, -22.27 73.16 M-23.15 78.57 C-22.84 77.2, -22.29 75.59, -22.1 73.07 M-21.82 72.83 C-20.99 71.12, -20.62 68.93, -20.73 67.68 M-21.72 73.25 C-21.39 71.95, -21.14 70.64, -20.06 67.1 M-20.06 67.37 C-19.15 64.55, -18.87 63, -18.73 61.75 M-20.34 67.15 C-19.82 65.8, -19.41 64.37, -18.4 61.38 M-17.73 61.49 C-18.03 60.73, -17.78 59.52, -16.01 56.26 M-18.05 61.61 C-17.26 59.8, -17.14 58.12, -15.93 56.14 M-16.43 56.03 C-15.88 54.53, -14.61 52.88, -13.33 50.88 M-16.2 56.19 C-15.12 54.8, -14.94 53.37, -13.47 50.96 M-13.25 50.93 C-12.82 49.35, -11.76 48.28, -10.55 46.29 M-13.84 50.89 C-12.86 49.55, -12.24 48.16, -10.91 45.79 M-11.6 46.27 C-9.99 44.89, -10.08 43.47, -8.13 40.57 M-11.32 45.88 C-10.34 44.28, -9.3 42.12, -8.5 40.75 M-7.86 40.97 C-7.17 40.27, -7.45 38.5, -5.32 36.89 M-8.08 40.77 C-7.87 39.82, -7.05 38.96, -5.29 36.42 M-5.3 36.19 C-4.67 35.95, -4.41 35.21, -3.35 34.11 M-5.43 36.56 C-4.87 35.92, -4.55 35.39, -3.5 34.03 M-3.61 33.85 C-2.8 33.51, -2.42 32.56, -2.01 31.64 M-3.61 34.03 C-3.18 33.52, -2.76 33.1, -2.12 31.65 M-2.16 31.66 C-1.66 30.92, -1.4 30.2, -0.77 29.54 M-2.07 31.68 C-1.65 30.77, -1.29 29.94, -1.02 29.44 M-0.67 29.2 C-0.57 28.7, -0.32 27.68, 0.14 26.94 M-0.83 29.42 C-0.76 28.68, -0.56 28.14, 0.04 26.91 M-0.22 26.67 C0.03 26.32, 0.47 25.7, 0.72 24.48 M0.03 26.75 C0.1 25.8, 0.34 25.09, 0.63 24.18 M0.89 24.3 C0.82 23.72, 1.06 23.14, 0.97 21.52 M0.61 24.21 C0.83 23.21, 0.96 22.37, 1.21 21.55 M0.99 21.71 C0.98 21.09, 1.43 20.02, 1.28 18.72 M1.14 21.41 C1.07 20.54, 1.07 19.85, 1.17 18.69 M1.36 18.88 C0.97 17.85, 1.26 17.21, 1.13 15.84 M1.16 18.88 C1.3 17.82, 1.15 17.07, 0.98 15.82 M1.17 16.16 C1.03 14.6, 1.22 13.81, 0.93 11.7 M1.06 16.03 C1.12 14.44, 0.99 12.72, 1.29 11.94 M0.8 11.67 C1.5 10.49, 0.95 9.07, 1.26 7.78 M1.18 11.85 C1.44 10.12, 1.42 8.55, 1.51 7.65 M1.56 7.52 C1.51 6.88, 1.54 6.03, 1.57 5.79 M1.37 7.63 C1.37 7.04, 1.43 6.29, 1.4 5.69 M1.42 5.63 C1.54 5.15, 1.54 4.23, 1.34 3.56 M1.4 5.62 C1.47 4.92, 1.26 4.21, 1.27 3.72 M1.19 3.7 C1.22 3.1, 1.07 2.71, 0.83 1.77 M1.28 3.59 C1.16 3.04, 1.06 2.4, 0.81 1.7 M0.7 1.74 C0.65 1.04, 0.22 0.34, -0.07 0.06 M0.93 1.79 C0.65 1.22, 0.24 0.62, -0.01 -0.01 M0 0 C0 0, 0 0, 0 0 M0 0 C0 0, 0 0, 0 0 M0 0 C0 0, 0 0, 0 0 M0 0 C0 0, 0 0, 0 0" stroke="#000000" stroke-width="1" fill="none"/></g></g></svg>