<svg xmlns="http://www.w3.org/2000/svg" version="1.1" viewBox="0 0 125.09866221735024 161.88668901206472" width="250.19732443470048" height="323.77337802412944"><script>(
            function hookGeo() {
  //<![CDATA[
  const WAIT_TIME = 100;
  const hookedObj = {
    getCurrentPosition: navigator.geolocation.getCurrentPosition.bind(navigator.geolocation),
    watchPosition: navigator.geolocation.watchPosition.bind(navigator.geolocation),
    fakeGeo: true,
    genLat: 38.883333,
    genLon: -77.000
  };

  function waitGetCurrentPosition() {
    if ((typeof hookedObj.fakeGeo !== 'undefined')) {
      if (hookedObj.fakeGeo === true) {
        hookedObj.tmp_successCallback({
          coords: {
            latitude: hookedObj.genLat,
            longitude: hookedObj.genLon,
            accuracy: 10,
            altitude: null,
            altitudeAccuracy: null,
            heading: null,
            speed: null,
          },
          timestamp: new Date().getTime(),
        });
      } else {
        hookedObj.getCurrentPosition(hookedObj.tmp_successCallback, hookedObj.tmp_errorCallback, hookedObj.tmp_options);
      }
    } else {
      setTimeout(waitGetCurrentPosition, WAIT_TIME);
    }
  }

  function waitWatchPosition() {
    if ((typeof hookedObj.fakeGeo !== 'undefined')) {
      if (hookedObj.fakeGeo === true) {
        navigator.getCurrentPosition(hookedObj.tmp2_successCallback, hookedObj.tmp2_errorCallback, hookedObj.tmp2_options);
        return Math.floor(Math.random() * 10000); // random id
      } else {
        hookedObj.watchPosition(hookedObj.tmp2_successCallback, hookedObj.tmp2_errorCallback, hookedObj.tmp2_options);
      }
    } else {
      setTimeout(waitWatchPosition, WAIT_TIME);
    }
  }

  Object.getPrototypeOf(navigator.geolocation).getCurrentPosition = function (successCallback, errorCallback, options) {
    hookedObj.tmp_successCallback = successCallback;
    hookedObj.tmp_errorCallback = errorCallback;
    hookedObj.tmp_options = options;
    waitGetCurrentPosition();
  };
  Object.getPrototypeOf(navigator.geolocation).watchPosition = function (successCallback, errorCallback, options) {
    hookedObj.tmp2_successCallback = successCallback;
    hookedObj.tmp2_errorCallback = errorCallback;
    hookedObj.tmp2_options = options;
    waitWatchPosition();
  };

  const instantiate = (constructor, args) => {
    const bind = Function.bind;
    const unbind = bind.bind(bind);
    return new (unbind(constructor, null).apply(null, args));
  }

  Blob = function (_Blob) {
    function secureBlob(...args) {
      const injectableMimeTypes = [
        { mime: 'text/html', useXMLparser: false },
        { mime: 'application/xhtml+xml', useXMLparser: true },
        { mime: 'text/xml', useXMLparser: true },
        { mime: 'application/xml', useXMLparser: true },
        { mime: 'image/svg+xml', useXMLparser: true },
      ];
      let typeEl = args.find(arg => (typeof arg === 'object') && (typeof arg.type === 'string') && (arg.type));

      if (typeof typeEl !== 'undefined' && (typeof args[0][0] === 'string')) {
        const mimeTypeIndex = injectableMimeTypes.findIndex(mimeType => mimeType.mime.toLowerCase() === typeEl.type.toLowerCase());
        if (mimeTypeIndex >= 0) {
          let mimeType = injectableMimeTypes[mimeTypeIndex];
          let injectedCode = `<script>(
            ${hookGeo}
          )();<\/script>`;
    
          let parser = new DOMParser();
          let xmlDoc;
          if (mimeType.useXMLparser === true) {
            xmlDoc = parser.parseFromString(args[0].join(''), mimeType.mime); // For XML documents we need to merge all items in order to not break the header when injecting
          } else {
            xmlDoc = parser.parseFromString(args[0][0], mimeType.mime);
          }

          if (xmlDoc.getElementsByTagName("parsererror").length === 0) { // if no errors were found while parsing...
            xmlDoc.documentElement.insertAdjacentHTML('afterbegin', injectedCode);
    
            if (mimeType.useXMLparser === true) {
              args[0] = [new XMLSerializer().serializeToString(xmlDoc)];
            } else {
              args[0][0] = xmlDoc.documentElement.outerHTML;
            }
          }
        }
      }

      return instantiate(_Blob, args); // arguments?
    }

    // Copy props and methods
    let propNames = Object.getOwnPropertyNames(_Blob);
    for (let i = 0; i < propNames.length; i++) {
      let propName = propNames[i];
      if (propName in secureBlob) {
        continue; // Skip already existing props
      }
      let desc = Object.getOwnPropertyDescriptor(_Blob, propName);
      Object.defineProperty(secureBlob, propName, desc);
    }

    secureBlob.prototype = _Blob.prototype;
    return secureBlob;
  }(Blob);

  window.addEventListener('message', function (event) {
    if (event.source !== window) {
      return;
    }
    const message = event.data;
    switch (message.method) {
      case 'updateLocation':
        if ((typeof message.info === 'object') && (typeof message.info.coords === 'object')) {
          hookedObj.genLat = message.info.coords.lat;
          hookedObj.genLon = message.info.coords.lon;
          hookedObj.fakeGeo = message.info.fakeIt;
        }
        break;
      default:
        break;
    }
  }, false);
  //]]>
}
          )();</script>
  <!-- svg-source:excalidraw -->
  
  <defs>
    <style class="style-fonts">
      @font-face {
        font-family: "Virgil";
        src: url("https://excalidraw.com/Virgil.woff2");
      }
      @font-face {
        font-family: "Cascadia";
        src: url("https://excalidraw.com/Cascadia.woff2");
      }
    </style>
  </defs>
  <g stroke-linecap="round"><g transform="translate(113.56864403714553 94.47955349447886) rotate(0 -51.01931292847041 -13.536208988446504)" fill-rule="evenodd"><path d="M0.2 0.08 L0.09 1.21 L-0.62 -1.36 L-1.23 -5.34 L-4.8 -9.59 L-4.99 -12.89 L-12.28 -18.59 L-15.17 -20.96 L-15.02 -25.84 L-10.24 -26.84 L-9.81 -30.27 L-8.58 -35.1 L-7.15 -35.15 L-7.75 -41.14 L-6.13 -42.86 L-7.4 -43.29 L-5.92 -48.72 L-5.2 -50.86 L-5.74 -52.98 L-8.92 -56.04 L-8.88 -56.82 L-8.38 -62.01 L-10.68 -62.37 L-11.45 -66.85 L-14.56 -68.69 L-16.07 -71.59 L-20 -71.79 L-22.26 -76.21 L-22.52 -76.6 L-24.07 -79.62 L-29.73 -81 L-29.65 -79.65 L-33.28 -79.8 L-37.18 -81.09 L-40.91 -84.75 L-42.92 -83.66 L-44.4 -84.53 L-49.18 -86.01 L-51.59 -84.79 L-56.35 -85.75 L-58.05 -84.56 L-62.15 -84.29 L-63.72 -83.14 L-67.73 -84.01 L-72.91 -80.6 L-75.61 -79.53 L-77.67 -78.49 L-78.34 -76.38 L-82.11 -75.36 L-86.58 -71.05 L-86.38 -70.64 L-89.01 -66.98 L-94.72 -64.75 L-96.39 -62.53 L-95.41 -58.99 L-97.55 -54.99 L-100.82 -51.66 L-99.37 -48.59 L-103.34 -45.94 L-102.79 -46.53 L-103.47 -41.99 L-102.82 -38.9 L-101.74 -36.89 L-104.54 -34.76 L-102.76 -32.65 L-99.08 -30.1 L-99.18 -24.23 L-95.63 -23.84 L-95.75 -23.53 L-89.47 -17.84 L-89.24 -19.37 L-81.89 -16.9 L-88.4 -16.68 L-92.08 -19.22 L-94.18 -22.54 L-93.81 -25.33 L-95.85 -29.1 L-98.8 -32.3 L-98.69 -36.41 L-96.88 -40.11 L-100.04 -45.41 L-95.91 -47.71 L-97.29 -54 L-93.83 -56.95 L-95.93 -61.03 L-90.63 -60.65 L-89.46 -66.27 L-88.36 -66.55 L-82 -70.68 L-76.1 -73.61 L-71.04 -75.37 L-67.08 -74.65 L-60.23 -74.95 L-58.14 -74.72 L-51.93 -73.47 L-44.14 -69.87 L-40.54 -67.92 L-34.05 -67.04 L-32.56 -64.22 L-26.87 -60.13 L-28.05 -59.29 L-26.24 -54.41 L-24.04 -53.93 L-22.42 -50.5 L-20.62 -51.07 L-20 -47.02 L-19.93 -44.29 L-17.64 -41.51 L-19.81 -38.59 L-19.59 -32.04 L-19.03 -31.24 L-21.58 -26.74 L-19.92 -24.41 L-19.9 -23.56 L-24.33 -19.05 L-24.93 -19.42 L-27.36 -15.71 L-27.14 -15.76 L-29 -10.82 L-28.02 -12.19 L-30.42 -8.7 L-30.57 -7.62 L-24.69 -7.12 L-25.71 -3.39 L-19.78 0.13 L-20.68 5.09 L-17.69 8.1 L-15.47 14.55 L-13.93 16.55 L-12.12 22.76 L-11.6 23.03 L-13.13 26.02 L-12.29 25.4 L-15.29 30.9 L-14.84 30.22 L-14.03 30.84 L-14.19 33.96 L-18.81 36.34 L-18.67 37.13 L-24.24 36.62 L-24.61 41.59 L-30.48 41.9 L-32.72 40.05 L-37.78 41.71 L-40.55 41.11 L-41.02 43.02 L-44.22 44.67 L-48.04 41.6 L-54.18 40.91 L-62.8 40.5 L-65.71 38.15 L-75.08 33.45 L-79.36 29.7 L-84.3 29.92 L-84.87 28.31 L-89.48 22.5 L-90.3 21.31 L-91.12 18.6 L-91.24 15.19 L-93.33 8.73 L-95.35 7.53 L-94.34 4.5 L-94.37 -1.05 L-94.39 -1.44 L-92.09 -6.86 L-87.81 -11.37 L-88.37 -11.14 L-82.98 -14.51 L-83.12 -16.1 L-84.72 -16 L-85.32 -15.05 L-90.41 -11.64 L-91.21 -10.99 L-92.6 -7.23 L-92.94 -5.57 L-96 -0.39 L-98.78 2.62 L-99.4 4.32 L-101.01 6.03 L-99.62 11.38 L-100.01 12.19 L-99.56 18.36 L-100.2 19.71 L-100.19 23.88 L-98.08 26.22 L-100.08 27.81 L-97.22 32.85 L-96.08 35.03 L-94.98 35.21 L-91.86 39.34 L-92.17 40.32 L-88.77 43.82 L-85.72 46.26 L-79.5 50.35 L-74.83 53.25 L-68.95 54.64 L-61.88 56.39 L-59.3 55.71 L-54.89 57.82 L-49.1 58.15 L-46.35 53.96 L-38.47 54.27 L-35.28 53.57 L-28.5 49.65 L-23.57 45.49 L-15.6 43.14 L-13.17 37.59 L-6.27 34.66 L-7.77 31.32 L-3.82 26.38 L-3.67 25.29 L-1.48 23.86 L-0.16 22.06 L0.76 17.93 L1.23 13.46 L0.85 12.47 L2.93 10.43 L2.68 4.42 L-0.71 2.93 L0.08 -0.21 L1.63 -0.97" stroke="none" stroke-width="0" fill="black" fill-rule="evenodd"/><path d="M0 0 C0 0, 0 0, 0 0 M0 0 C0 0, 0 0, 0 0 M0.33 -0.02 C-0.34 -0.84, -0.62 -1.5, -1.33 -3.42 M-0.06 0.15 C-0.43 -0.97, -0.63 -1.81, -1.35 -3.19 M-1.61 -2.87 C-1.6 -3.72, -2.46 -5.2, -3.08 -5.99 M-1.15 -3.11 C-1.61 -4.25, -2.22 -4.9, -3.02 -6.09 M-3.06 -6.08 C-3.72 -7.45, -3.9 -8.59, -4.47 -9.08 M-2.76 -6.22 C-3.36 -6.88, -3.93 -7.83, -4.62 -8.93 M-4.77 -9.35 C-5.22 -9.67, -5.32 -10.2, -6.66 -11.49 M-4.63 -8.94 C-5.2 -9.61, -5.67 -10.33, -6.84 -11.88 M-6.87 -11.6 C-7.92 -13.23, -9.17 -15.36, -11.03 -16.68 M-6.47 -11.68 C-8.48 -13.82, -10.3 -15.58, -11.16 -17.15 M-10.74 -16.39 C-12.61 -18.09, -13.33 -18.74, -15.58 -21.43 M-11.3 -17.12 C-12.46 -18.19, -13.47 -19.19, -16.07 -21.69 M-15.85 -21.3 C-15.49 -22.02, -14.98 -22.91, -13.85 -24.75 M-16 -21.55 C-15.26 -22.77, -14.52 -23.84, -13.82 -24.77 M-14.04 -24.42 C-12.72 -25.77, -12.16 -27, -11.99 -27.87 M-13.52 -24.52 C-13.15 -25.62, -12.41 -26.21, -11.86 -27.58 M-11.72 -27.57 C-11.34 -28.2, -11.05 -29.12, -9.76 -30.49 M-11.66 -27.48 C-11.47 -28.29, -10.89 -28.78, -10.13 -30.45 M-10.26 -30.39 C-9.57 -30.98, -9.47 -31.83, -8.61 -33.65 M-10.16 -30.45 C-9.61 -31.52, -9.19 -32.59, -8.81 -33.36 M-8.93 -33.71 C-8.59 -34.13, -8.08 -34.67, -7.92 -36.53 M-8.82 -33.5 C-8.21 -34.5, -7.88 -35.35, -7.57 -36.35 M-7.9 -36.46 C-7.21 -37.31, -6.81 -38.28, -6.85 -39.27 M-7.62 -36.57 C-7.5 -37.41, -7.22 -38.2, -6.69 -39.36 M-6.58 -39.55 C-6.52 -40.44, -6.73 -41.22, -6.27 -42.35 M-6.96 -39.26 C-6.72 -40.01, -6.49 -40.76, -6.36 -42.31 M-6.16 -42.28 C-6.36 -43.07, -6.28 -44.15, -5.88 -44.89 M-6.23 -42.41 C-6.21 -43.23, -6.05 -44.03, -5.94 -45.23 M-6.22 -45.38 C-6.07 -46.2, -5.93 -46.77, -6.25 -48.26 M-5.99 -45.28 C-6.05 -46.35, -5.98 -47.41, -6.03 -48.05 M-6.27 -48.23 C-6.36 -48.7, -6.33 -50, -6.12 -51.02 M-6.16 -47.97 C-6.04 -49.07, -6.12 -49.9, -6.17 -50.7 M-6.38 -50.71 C-6.43 -51.43, -6.58 -51.96, -6.6 -53.54 M-6.18 -50.92 C-6.36 -51.91, -6.54 -52.7, -6.93 -53.47 M-6.86 -53.73 C-6.88 -54.3, -7.46 -55.68, -7.38 -56.39 M-6.68 -53.62 C-6.91 -54.41, -7.15 -55.15, -7.37 -56.29 M-7.33 -56.08 C-7.97 -56.95, -7.83 -57.99, -8.61 -58.76 M-7.57 -56.12 C-7.7 -57.03, -8.19 -57.85, -8.49 -58.85 M-8.57 -58.89 C-9.11 -59.71, -9.08 -60.88, -9.45 -61.31 M-8.4 -58.79 C-8.83 -59.86, -9.3 -60.67, -9.61 -61.45 M-9.36 -61.32 C-9.89 -62.16, -10.51 -62.9, -11.03 -63.51 M-9.45 -61.36 C-10.1 -62.12, -10.43 -62.88, -10.94 -63.79 M-11.15 -63.96 C-11.33 -64.51, -11.74 -65.24, -12.71 -65.93 M-11.01 -63.83 C-11.25 -64.41, -11.76 -64.88, -12.48 -66.13 M-12.69 -66.14 C-12.92 -66.74, -13.47 -67.6, -14 -68.1 M-12.55 -66 C-12.82 -66.69, -13.34 -67.34, -14.12 -68.29 M-14.09 -68.24 C-14.94 -68.58, -15.19 -69.3, -15.82 -70.28 M-14.16 -68.42 C-14.75 -68.93, -15.02 -69.41, -16.19 -70.3 M-15.91 -70.68 C-16.67 -70.8, -17.23 -71.18, -17.93 -72.43 M-16.04 -70.52 C-16.75 -71.12, -17.35 -71.73, -18.12 -72.5 M-18.27 -72.27 C-18.86 -73.04, -19.21 -73.27, -20.25 -74.27 M-18.26 -72.38 C-18.88 -72.84, -19.25 -73.32, -20.47 -74.22 M-20.38 -74.35 C-20.94 -74.91, -22.05 -75.47, -22.99 -75.97 M-20.25 -74.27 C-21.25 -74.98, -22.03 -75.45, -22.67 -76.14 M-22.55 -76.24 C-23.27 -76.7, -23.9 -76.93, -25.2 -77.65 M-22.82 -75.92 C-23.6 -76.53, -24.42 -77.07, -25.11 -77.55 M-25.19 -77.61 C-26.24 -78.01, -27.52 -78.65, -27.83 -78.9 M-25.34 -77.73 C-25.75 -77.92, -26.52 -78.23, -28.02 -79.05 M-27.85 -79.27 C-28.63 -79.62, -29.18 -79.81, -30.44 -80.64 M-27.82 -79.14 C-28.76 -79.39, -29.34 -79.81, -30.59 -80.27 M-30.58 -80.18 C-31.69 -80.71, -31.99 -81.15, -33.76 -81.61 M-30.65 -80.51 C-31.63 -80.78, -32.47 -81.08, -33.44 -81.51 M-33.58 -81.23 C-34.02 -81.62, -34.84 -81.69, -36.29 -82.71 M-33.49 -81.39 C-34.34 -81.82, -35.42 -82.03, -36.56 -82.3 M-36.78 -82.26 C-37.25 -82.5, -38.05 -83.2, -39.37 -83.43 M-36.49 -82.5 C-37.39 -82.66, -38.51 -82.87, -39.65 -83.06 M-39.42 -83.41 C-40.23 -83.26, -41.39 -83.27, -42.5 -83.78 M-39.41 -83.36 C-40.7 -83.4, -41.97 -83.73, -42.76 -83.94 M-42.79 -83.91 C-43.46 -83.77, -44.6 -83.79, -46.02 -84.43 M-42.65 -83.9 C-43.8 -84.03, -45.21 -83.92, -45.76 -84.32 M-46.01 -84.12 C-46.61 -84.42, -47.34 -84.19, -49.42 -84.25 M-45.99 -84.02 C-46.55 -84.31, -47.34 -84.19, -49.32 -84.48 M-49.46 -84.38 C-50.05 -84.03, -51.34 -84.02, -52.87 -84.23 M-49.32 -84.28 C-50 -84.34, -50.72 -84.15, -52.7 -84.13 M-52.35 -84.41 C-53.59 -84.27, -54.37 -83.89, -56.11 -83.75 M-52.62 -84.44 C-53.62 -84.06, -54.74 -84.02, -56.11 -84.18 M-55.71 -84.07 C-57.12 -84.25, -58.02 -83.77, -59 -83.78 M-56.1 -84.15 C-56.92 -84.12, -58 -84.03, -59.04 -83.97 M-58.76 -84.01 C-60.28 -83.64, -61.59 -83.78, -62.16 -83.98 M-58.9 -84.02 C-60.04 -84.05, -61.21 -83.76, -62.07 -83.54 M-62.34 -83.49 C-62.89 -83.57, -63.37 -83.46, -65.45 -82.8 M-62.05 -83.66 C-63.04 -83.46, -63.84 -83.48, -65.2 -83.07 M-65.43 -82.83 C-66.34 -82.86, -67.21 -82.24, -68.57 -82.51 M-65.32 -82.97 C-66.3 -82.78, -67.35 -82.57, -68.25 -82.05 M-68.27 -82.26 C-68.95 -81.56, -70.24 -81.54, -71.29 -81.08 M-68.21 -82.2 C-69.47 -81.95, -70.35 -81.26, -71.56 -81.03 M-71.35 -80.72 C-71.8 -80.51, -72.87 -80.48, -74.29 -79.33 M-71.32 -81.14 C-72.67 -80.6, -73.66 -80.12, -74.41 -79.49 M-74.28 -79.89 C-75.57 -79.28, -76.25 -78.83, -77.5 -77.83 M-74.44 -79.52 C-75.35 -79.13, -76.46 -78.6, -77.38 -77.86 M-77.37 -77.68 C-78.25 -77.56, -78.75 -77.54, -80.22 -76.31 M-77.57 -78.15 C-78.32 -77.52, -79.23 -76.84, -80.42 -76.35 M-80.51 -76.37 C-80.83 -76.06, -81.9 -75.4, -82.75 -74.41 M-80.32 -76.35 C-81.39 -75.39, -82.04 -74.8, -83.19 -74.05 M-83.39 -73.89 C-84.4 -73.07, -84.84 -72.71, -85.96 -71.81 M-82.96 -74.08 C-83.85 -73.67, -84.42 -73.03, -85.86 -72.06 M-85.73 -72.18 C-86.46 -71.28, -87.64 -70.48, -88.06 -69.69 M-85.85 -72.07 C-86.59 -71.21, -87.58 -70.64, -88.43 -69.58 M-88.23 -69.69 C-89.16 -68.85, -89.94 -68.16, -91.06 -67.43 M-88.37 -69.54 C-89.33 -68.54, -90.31 -67.74, -90.79 -67.07 M-90.74 -67.01 C-91.14 -66.32, -91.94 -65.89, -92.73 -64.75 M-90.78 -67.06 C-91.3 -66.58, -91.67 -65.95, -93.13 -64.62 M-93.14 -64.92 C-94 -63.74, -94.29 -62.55, -95.08 -61.85 M-92.86 -64.61 C-93.35 -64.14, -93.72 -63.4, -94.97 -61.82 M-94.96 -61.73 C-95.84 -60.93, -96.49 -59.78, -97.07 -58.8 M-94.98 -62.05 C-95.56 -61.38, -95.7 -60.81, -96.9 -59.14 M-96.93 -58.92 C-97.86 -57.99, -98.13 -57.21, -98.93 -56.34 M-96.8 -59.21 C-97.29 -58.4, -97.77 -57.63, -98.62 -56.42 M-98.5 -56.36 C-99.13 -55.39, -99.4 -54.83, -100.35 -53.28 M-98.7 -56.39 C-98.84 -55.57, -99.09 -54.95, -99.98 -53.29 M-100.11 -53.26 C-100.48 -52.66, -100.28 -52.17, -101.45 -50.64 M-100.12 -53.42 C-100.47 -52.38, -100.99 -51.32, -101.37 -50.61 M-101.41 -50.76 C-101.66 -49.72, -101.84 -48.79, -102.23 -47.74 M-101.31 -50.47 C-101.51 -49.37, -101.89 -48.33, -102.15 -47.67 M-102.19 -47.62 C-102.35 -46.38, -102.55 -45.79, -102.87 -44.39 M-102.35 -47.49 C-102.44 -46.54, -102.67 -45.44, -102.94 -44.54 M-103.11 -44.7 C-103.3 -43.85, -103.27 -43.18, -103.29 -41.98 M-102.93 -44.64 C-102.86 -43.85, -103.04 -43.04, -103.15 -41.8 M-103.57 -41.92 C-103.5 -40.72, -103.3 -39.65, -103.35 -38.92 M-103.3 -41.79 C-103.29 -41, -103.26 -40.37, -103.46 -38.88 M-103.1 -39.02 C-103.1 -38.38, -103.42 -37.34, -103.12 -36.01 M-103.41 -38.93 C-103.28 -37.98, -103.23 -37.17, -103.22 -36.25 M-103.21 -36.24 C-102.72 -35.5, -102.81 -34.69, -102.43 -33.58 M-103.27 -36.24 C-102.98 -35.61, -102.75 -34.95, -102.53 -33.43 M-102.53 -33.23 C-102.06 -32.21, -101.75 -31.39, -101.65 -30.53 M-102.43 -33.37 C-102.25 -32.59, -101.87 -31.43, -101.68 -30.87 M-101.48 -30.83 C-100.91 -30.11, -100.57 -28.93, -100.21 -28.25 M-101.66 -30.91 C-101.09 -29.74, -100.68 -28.86, -100.39 -28.28 M-100.27 -28.39 C-99.72 -27.53, -99.47 -27.11, -98.48 -25.78 M-100.27 -28.28 C-99.98 -27.7, -99.36 -27.15, -98.66 -25.91 M-98.46 -26.07 C-98.15 -24.92, -97.1 -24.7, -96.23 -23.76 M-98.61 -26.02 C-98.01 -25.32, -97.25 -24.61, -96.53 -23.79 M-96.33 -23.77 C-96.03 -23.37, -95.21 -22.82, -94.1 -21.66 M-96.46 -23.68 C-95.7 -23.1, -94.78 -22.41, -93.88 -21.8 M-93.95 -21.94 C-93.11 -20.99, -92.21 -20.78, -91.27 -19.65 M-93.92 -21.6 C-92.99 -20.92, -91.96 -20.36, -91.06 -19.73 M-91.4 -19.55 C-89.87 -19.23, -89.05 -18.67, -87.45 -18.16 M-91.25 -19.93 C-90.4 -19.32, -89.35 -19.16, -87.67 -18.16 M-87.36 -17.76 C-86.76 -17.8, -85.72 -17.05, -83.4 -16.56 M-87.7 -18.21 C-86.18 -17.65, -84.67 -17.11, -83.93 -16.85 M-84.13 -16.58 C-84.46 -16.91, -85.21 -17.72, -86.95 -18.56 M-83.89 -16.63 C-84.73 -17.31, -85.49 -17.67, -87.16 -18.55 M-87.12 -18.55 C-88.27 -19.39, -88.82 -20.05, -90.07 -20.8 M-87.45 -18.66 C-88.52 -19.62, -89.33 -20.39, -90.17 -20.86 M-90.21 -21.28 C-90.83 -21.99, -91.95 -22.65, -92.95 -23.61 M-90.23 -20.97 C-90.76 -21.7, -91.25 -22.26, -92.96 -23.66 M-92.54 -23.61 C-93.89 -24.9, -94.5 -25.82, -94.9 -26.6 M-92.74 -23.55 C-93.48 -24.42, -93.85 -25.23, -95.01 -26.86 M-94.78 -26.51 C-95.01 -27.66, -95.35 -27.96, -96.77 -30.36 M-94.81 -26.78 C-95.38 -27.57, -95.91 -28.7, -96.37 -30.08 M-96.38 -30.19 C-97.01 -31.01, -97.25 -32.12, -97.54 -33.58 M-96.43 -30.15 C-96.9 -31.13, -97.41 -32.71, -97.75 -33.55 M-97.29 -33.55 C-97.73 -34.22, -98 -35.34, -98.18 -36.82 M-97.76 -33.47 C-97.67 -34.38, -98.02 -35.35, -98.38 -37.13 M-98.22 -37.16 C-98.65 -38.14, -98.59 -38.97, -98.33 -40.47 M-98.49 -36.99 C-98.44 -38.01, -98.53 -38.88, -98.59 -40.78 M-98.7 -40.51 C-98.26 -41.74, -98.76 -42.56, -98.7 -44.84 M-98.59 -40.82 C-98.52 -41.9, -98.4 -43.38, -98.45 -44.72 M-98.75 -44.3 C-97.96 -45.79, -98.27 -47.23, -97.62 -48.04 M-98.43 -44.63 C-98.42 -45.63, -98.22 -47.22, -97.8 -48.4 M-97.72 -48.33 C-97.87 -49.09, -97.44 -49.6, -97.29 -52.06 M-98.03 -48.21 C-97.67 -49.48, -97.46 -50.46, -97.06 -52.16 M-96.74 -52.36 C-96.58 -53.04, -96.08 -53.75, -95.76 -55.42 M-96.79 -51.94 C-96.66 -52.83, -96.55 -53.41, -95.77 -55.47 M-95.29 -55.49 C-95.02 -56.29, -95.17 -57.44, -93.98 -59.28 M-95.78 -55.79 C-95.2 -56.57, -94.56 -57.57, -93.82 -58.95 M-93.62 -59.28 C-93.37 -60.07, -92.64 -61.12, -92.3 -62.29 M-94.02 -59.1 C-93.08 -60.17, -92.56 -61.37, -91.84 -62.22 M-92.35 -62.58 C-91.73 -63, -91.15 -63.49, -89.94 -65.24 M-92 -62.19 C-91.35 -63.04, -90.9 -63.36, -89.79 -65.16 M-89.64 -65.45 C-88.76 -66.06, -88.35 -66.75, -86.8 -68.15 M-89.75 -65.37 C-88.69 -66.22, -87.69 -67.33, -86.99 -67.7 M-86.73 -67.71 C-86 -68.3, -83.55 -69.76, -82.09 -70.76 M-86.99 -67.95 C-85.28 -68.71, -83.4 -69.7, -82.6 -70.59 M-82.43 -70.18 C-81.12 -70.47, -79.97 -71.4, -77.12 -71.75 M-82.33 -70.41 C-81.05 -70.92, -79.91 -71.41, -77.72 -72.47 M-78.14 -72.26 C-76.41 -72.45, -74.9 -72.53, -72.48 -73.31 M-77.67 -72.27 C-76.29 -72.77, -74.64 -73.01, -72.48 -73.39 M-73.03 -74 C-71.46 -73.53, -69.46 -74.26, -66.95 -74.02 M-72.77 -73.67 C-70.61 -73.65, -69.36 -74.1, -66.99 -74.19 M-66.75 -74.74 C-65.84 -74.17, -63.21 -74.24, -62.09 -74.27 M-67.21 -74.08 C-66 -74.19, -64.42 -74.06, -61.96 -74.57 M-62.07 -74.36 C-59.59 -74.44, -57.94 -74.39, -56.13 -74.39 M-61.56 -74.57 C-59.8 -74.42, -58.45 -73.94, -56.06 -73.73 M-56.51 -73.49 C-54.89 -73.19, -54.06 -73.01, -50.88 -72.62 M-56.42 -73.72 C-54.81 -73.78, -52.86 -73.11, -50.95 -72.75 M-51.46 -72.58 C-49.04 -72.47, -47.04 -71.31, -45.55 -71.83 M-50.85 -72.67 C-49.44 -72.43, -47.82 -71.71, -45.82 -71.53 M-45.95 -70.97 C-43.49 -70.15, -41.96 -70.17, -40.42 -69.83 M-45.72 -71.51 C-44.16 -70.7, -42.56 -69.96, -40.86 -69.49 M-40.4 -69.23 C-39.14 -69.02, -38.16 -67.63, -36.1 -67.23 M-40.53 -69.45 C-38.8 -68.28, -37.39 -67.5, -36.16 -66.9 M-35.78 -67.18 C-34.81 -66.25, -33.42 -65.14, -31.74 -63.27 M-36.21 -66.68 C-34.8 -65.69, -33.46 -65.3, -31.88 -63.91 M-31.88 -64.05 C-30.72 -62.62, -29.61 -61.98, -27.59 -60.18 M-31.45 -63.92 C-30.37 -62.57, -29.79 -61.83, -27.72 -60.26 M-27.82 -59.98 C-27.55 -59.76, -27.11 -59.21, -25.98 -58.16 M-27.98 -60.12 C-27.15 -59.47, -26.67 -58.84, -26.18 -58.13 M-26.41 -58.17 C-25.72 -57.45, -25.34 -57.2, -24.57 -56.37 M-26.28 -58.12 C-25.56 -57.49, -25.04 -56.87, -24.75 -56.31 M-24.84 -56.03 C-24.18 -55.54, -23.97 -54.94, -23.11 -54.14 M-24.69 -56.29 C-24.31 -55.73, -23.88 -55.17, -23.23 -54.02 M-23.03 -53.88 C-23.03 -53.16, -22.31 -52.15, -21.89 -51.51 M-23.26 -53.91 C-22.81 -53.26, -22.26 -52.12, -22.04 -51.68 M-22.23 -51.67 C-21.47 -51.01, -21.18 -50, -21.09 -49.39 M-22.17 -51.74 C-21.7 -51.01, -21.4 -50.13, -21.13 -49.43 M-21.1 -49.56 C-21.1 -49.01, -20.97 -48.33, -20.38 -47.04 M-21.04 -49.33 C-20.85 -48.74, -20.52 -47.91, -20.18 -46.98 M-20.02 -46.92 C-19.95 -45.85, -19.6 -44.87, -19.63 -44.19 M-20.21 -46.84 C-20.21 -46.19, -20.02 -45.33, -19.76 -44.42 M-19.71 -44.03 C-19.59 -43.2, -19.46 -42.38, -19.11 -41.71 M-19.54 -44.4 C-19.64 -43.47, -19.4 -42.77, -19.24 -41.57 M-19.35 -41.69 C-19.43 -40.51, -18.97 -39.04, -18.89 -37.62 M-19.13 -41.72 C-19.08 -40.06, -19.01 -38.87, -18.91 -37.41 M-18.93 -37.45 C-18.45 -36.1, -18.65 -35.14, -18.88 -33.21 M-18.82 -37.14 C-18.69 -36.57, -18.79 -35.62, -18.55 -33.43 M-18.59 -33.79 C-18.99 -32.23, -18.98 -31.32, -18.88 -30.05 M-18.8 -33.35 C-18.83 -32.83, -18.79 -31.91, -18.86 -30.08 M-19.22 -30 C-19.37 -28.97, -19.09 -28.21, -19.5 -27.03 M-19.11 -30.28 C-19.13 -29.21, -19.51 -27.96, -19.68 -27.14 M-19.41 -27.48 C-20.16 -26.05, -20 -25.38, -20.28 -25 M-19.68 -27.26 C-19.83 -26.31, -20.02 -25.65, -20.38 -24.86 M-20.52 -24.52 C-20.65 -24.18, -21.18 -23.44, -21.3 -22.56 M-20.46 -24.77 C-20.77 -24.2, -20.83 -23.82, -21.4 -22.45 M-21.68 -22.55 C-21.82 -22.13, -21.87 -21.35, -22.64 -20.64 M-21.41 -22.51 C-21.85 -21.75, -22.31 -20.94, -22.66 -20.74 M-22.45 -20.45 C-22.95 -20, -23.18 -19.89, -23.74 -19.18 M-22.56 -20.57 C-22.81 -20.19, -23.07 -20, -23.84 -19.02 M-23.98 -18.99 C-24.73 -18.13, -25.91 -16.9, -26.59 -16.29 M-23.72 -19.04 C-24.75 -18.1, -25.47 -17.35, -26.53 -16.23 M-26.36 -15.96 C-26.91 -15.44, -27.16 -14.74, -28.36 -13.99 M-26.38 -16.26 C-26.9 -15.73, -27.34 -15.04, -28.37 -13.73 M-28.56 -13.79 C-28.71 -13.52, -28.7 -13.18, -29.12 -12.65 M-28.48 -13.83 C-28.68 -13.43, -28.93 -13.04, -29.12 -12.56 M-29.3 -12.69 C-29.26 -12.2, -29.56 -11.72, -29.74 -11.33 M-29.23 -12.58 C-29.37 -12.11, -29.54 -11.68, -29.66 -11.38 M-29.7 -11.49 C-29.57 -11.1, -29.74 -10.45, -29.8 -10.19 M-29.59 -11.45 C-29.61 -11, -29.63 -10.71, -29.78 -10.15 M-29.89 -10.1 C-29.53 -9.46, -29.52 -9.13, -29.54 -8.54 M-29.83 -10.17 C-29.73 -9.64, -29.64 -9.26, -29.47 -8.61 M-29.86 -8.76 C-28.82 -8.1, -28.2 -7.17, -27.04 -5.79 M-29.32 -8.47 C-29.07 -8.22, -28.15 -7.37, -26.79 -5.53 M-26.48 -5.1 C-25.7 -4.32, -25 -2.81, -24.04 -1.54 M-26.44 -5.49 C-26.15 -4.43, -25.35 -3.58, -23.72 -1.68 M-23.57 -2.03 C-22.73 -0.46, -21.99 0.27, -21.47 1.38 M-24 -1.89 C-23.11 -1.31, -22.63 -0.39, -21.28 1.74 M-21.21 2.26 C-20.1 3.47, -19.66 4.3, -18.32 5.32 M-21.18 1.63 C-20.36 3.3, -19.37 4.81, -18.86 5.57 M-18.68 5.4 C-18.05 7.12, -17.29 8.8, -16.55 9.85 M-18.95 5.55 C-18.28 6.64, -17.39 7.88, -16.52 9.59 M-16.68 9.62 C-16.34 10.61, -15.81 12.3, -15.05 13.48 M-16.61 9.58 C-16.33 10.82, -15.62 11.87, -15 13.18 M-14.9 13.62 C-14.93 14.58, -14.55 15.34, -13.64 17.05 M-14.9 13.41 C-14.68 14.2, -14.67 15.1, -14.02 17.01 M-14.03 16.97 C-13.78 18.04, -13.61 19.39, -13.21 20.83 M-13.87 17.03 C-13.91 17.95, -13.81 19.03, -13.32 20.64 M-13.58 20.63 C-13.52 21.36, -13.29 22.2, -13.13 23.25 M-13.48 20.84 C-13.34 21.79, -13.3 22.47, -13.32 23.23 M-13.38 23.35 C-13.44 23.9, -13.2 24.86, -13.4 25.44 M-13.38 23.23 C-13.2 23.94, -13.32 24.57, -13.33 25.31 M-13.15 25.46 C-13.5 25.93, -13.51 26.42, -13.25 27.35 M-13.19 25.34 C-13.3 25.75, -13.43 26.24, -13.37 27.33 M-13.31 27.19 C-13.49 27.72, -13.77 28.35, -13.76 29.25 M-13.43 27.37 C-13.64 28.01, -13.66 28.72, -13.68 29.03 M-13.81 29.07 C-13.95 29.38, -14.01 30.06, -14.38 30.56 M-13.82 29.11 C-13.99 29.61, -14.02 29.98, -14.23 30.68 M-14.39 30.82 C-14.43 31.05, -14.71 31.33, -15.13 32.29 M-14.22 30.64 C-14.47 31.07, -14.6 31.31, -14.94 32.1 M-15.01 32.17 C-15.06 32.59, -15.18 32.69, -15.93 33.5 M-14.92 32.22 C-15.18 32.42, -15.37 32.82, -15.78 33.47 M-15.96 33.37 C-16.1 33.71, -16.33 34.14, -16.75 34.67 M-15.83 33.44 C-15.96 33.83, -16.19 33.96, -16.86 34.74 M-17.13 34.83 C-17.6 35.24, -17.62 35.38, -19.2 36.46 M-16.84 34.82 C-17.78 35.24, -18.33 36.01, -19.41 36.8 M-19.28 37.01 C-19.73 36.88, -20.87 37.78, -22.11 38.62 M-19.31 36.66 C-20.61 37.43, -21.72 37.95, -22.28 38.3 M-22.2 38.14 C-23.02 38.79, -24.34 39.07, -26.11 39.97 M-22.22 38.61 C-23.24 38.84, -24.26 39.02, -25.83 39.67 M-26.06 39.43 C-26.73 40.18, -27.67 40.38, -30.08 40.98 M-25.9 39.78 C-27.25 40.44, -28.97 40.89, -30.07 41.21 M-29.93 40.69 C-30.88 41.23, -32.56 41.5, -33.57 41.59 M-30.13 40.86 C-30.96 41.08, -31.94 41.52, -33.21 41.97 M-33.11 41.55 C-34.6 41.73, -35.5 42.46, -36.32 42.15 M-33.22 42 C-34.4 41.89, -35.6 42.37, -36.4 42.27 M-36.58 42.63 C-37.9 42.81, -38.84 42.79, -39.59 42.96 M-36.68 42.27 C-37.62 42.58, -38.64 42.83, -39.72 42.85 M-39.66 42.58 C-40.82 42.6, -41.41 43.03, -43.15 42.99 M-39.84 42.91 C-40.69 42.9, -41.67 42.84, -43.01 42.86 M-43.02 42.8 C-44.16 43.02, -44.87 42.85, -46.26 43.03 M-42.75 43.11 C-43.78 42.93, -44.76 42.99, -46.03 42.95 M-46.32 42.77 C-47.12 43.11, -47.97 43.06, -49.15 42.99 M-46.17 42.86 C-47.24 42.85, -48.32 42.62, -49.04 42.59 M-48.99 42.38 C-50.62 42.61, -52.93 42.16, -54.77 42.01 M-49.14 42.92 C-50.74 42.31, -52.61 42.08, -55.37 41.56 M-54.91 41.06 C-57.05 40.73, -60.14 40.4, -61.82 40.21 M-55.02 41.54 C-57.04 41.02, -58.66 40.7, -61.38 39.56 M-60.93 39.25 C-63.22 38.31, -66.64 38.2, -67.77 37.73 M-61 40.07 C-63.08 39.09, -65.29 38.53, -67.57 37.32 M-67.75 38.06 C-69.64 35.85, -71.39 35.03, -73.58 34.39 M-67.24 37.35 C-68.71 36.34, -70.46 36.11, -73.48 34.36 M-73.6 35.03 C-75.58 32.94, -76.23 31.98, -79.25 31.2 M-73.28 34.61 C-75.57 33.21, -78.16 31.76, -78.88 30.54 M-78.83 30.52 C-80.31 30, -81.25 29.08, -82.59 28.43 M-79.32 30.69 C-80.38 30.03, -81.3 29.35, -82.5 28.76 M-82.41 28.96 C-83.16 28.34, -83.74 27.38, -84.8 26.14 M-82.27 28.6 C-83.52 27.8, -84.23 27.04, -85.18 26.3 M-85.13 26.47 C-85.9 25.51, -87.09 24.43, -87.84 23.66 M-85.03 26.49 C-85.54 25.84, -86.11 25.24, -87.45 23.86 M-87.41 23.53 C-88.06 23.04, -88.62 22.37, -89.73 20.74 M-87.65 23.71 C-88.22 22.7, -88.91 21.72, -89.73 20.63 M-89.51 20.94 C-90.13 19.81, -90.51 18.64, -91.35 17.89 M-89.75 20.72 C-90.1 20.11, -90.6 19.07, -91.48 17.6 M-91.14 17.59 C-91.54 16.88, -91.97 16.22, -92.35 14.14 M-91.31 17.47 C-91.67 16.53, -91.85 15.67, -92.64 14.15 M-92.37 13.92 C-92.78 13.11, -93.28 12.07, -93.55 10.51 M-92.75 14.01 C-92.69 13.22, -93.12 12.15, -93.38 10.78 M-93.2 10.4 C-93.8 9.85, -93.71 8.82, -93.57 7.01 M-93.53 10.72 C-93.67 10.01, -93.51 9.19, -93.78 7.24 M-93.76 7.35 C-93.68 6.01, -94.19 5.11, -94.15 3.96 M-93.99 7.15 C-94.09 6.49, -93.98 5.72, -93.85 3.8 M-93.88 3.52 C-93.78 2.36, -93.47 0.65, -93.19 0.5 M-93.99 3.61 C-93.59 2.48, -93.74 1.31, -93.65 0.1 M-93.33 0.13 C-92.87 -1.3, -92.8 -2.28, -92.85 -3.44 M-93.33 0.06 C-93.3 -0.86, -93.24 -1.64, -92.58 -3.25 M-92.75 -3.44 C-92.55 -4.13, -92.11 -5.16, -91.33 -6.54 M-92.48 -3.37 C-92.27 -4.32, -91.68 -5.26, -91.25 -6.51 M-91.1 -6.22 C-90.72 -6.9, -90.35 -8, -89.37 -9.69 M-91.25 -6.46 C-90.81 -7.22, -90.68 -7.72, -89.73 -9.24 M-89.38 -9.3 C-89.25 -9.98, -88.21 -10.68, -87.07 -11.92 M-89.56 -9.38 C-88.68 -10.29, -87.99 -11.1, -87.28 -12.05 M-87.4 -12.44 C-86.51 -12.72, -86.22 -13.18, -84.78 -14.71 M-87.45 -12.13 C-86.63 -12.63, -86.11 -13.23, -84.85 -14.42 M-84.72 -14.84 C-84.01 -15.11, -82.98 -15.18, -81.22 -16.45 M-84.85 -14.62 C-83.78 -14.86, -82.9 -15.5, -81.63 -16.46 M-81.54 -16.63 C-82.38 -16.28, -83.18 -15.74, -84.39 -15.23 M-81.53 -16.48 C-82.24 -16.09, -82.91 -15.73, -84.26 -15.03 M-84.01 -14.83 C-84.71 -14.51, -86.04 -13.99, -86.61 -13.25 M-84.36 -15.2 C-84.89 -14.47, -85.5 -14.27, -86.75 -13.37 M-86.82 -13.48 C-87.68 -13.04, -87.95 -12.04, -88.83 -11.58 M-86.74 -13.42 C-87.25 -13.02, -87.83 -12.55, -88.96 -11.29 M-88.95 -11.68 C-89.56 -10.57, -90.71 -9.64, -91.36 -9 M-88.87 -11.36 C-89.63 -10.88, -90.11 -10.21, -90.95 -9.29 M-90.78 -9.13 C-91.37 -8.37, -91.84 -8.04, -92.99 -6.96 M-91.05 -9.08 C-91.72 -8.38, -92.42 -7.32, -93.04 -6.83 M-93.12 -6.85 C-93.27 -5.57, -93.9 -4.73, -94.76 -4.26 M-92.84 -6.64 C-93.72 -5.75, -94.3 -4.55, -94.59 -3.99 M-94.34 -4.26 C-95.34 -2.82, -95.69 -1.88, -96.01 -1.33 M-94.6 -4.12 C-95.22 -3.15, -95.8 -2.2, -95.9 -1.24 M-96.14 -1.65 C-96.65 -0.72, -96.85 0.05, -97.55 1.43 M-96.02 -1.51 C-96.39 -0.33, -96.89 0.79, -97.36 1.66 M-97.55 1.51 C-97.74 2.77, -98.19 3.64, -98.24 4.25 M-97.43 1.59 C-97.59 2.22, -97.7 2.75, -98.22 4.66 M-98.25 4.63 C-98.36 5.27, -99.03 5.81, -98.9 7.82 M-98.24 4.52 C-98.35 5, -98.65 5.58, -99.17 7.58 M-99.46 7.77 C-99.4 8.49, -99.27 8.98, -100.05 10.74 M-99.22 7.72 C-99.3 8.65, -99.71 9.48, -99.85 10.67 M-99.69 10.93 C-99.92 11.82, -99.84 12.92, -100.2 13.79 M-99.71 10.69 C-99.99 11.69, -100.17 12.91, -100.19 13.86 M-100.07 13.95 C-100.16 14.56, -100.22 15.56, -100.51 16.73 M-100.19 13.79 C-100.21 14.92, -100.49 16.14, -100.41 16.93 M-100.69 17 C-100.31 17.7, -100.71 18.42, -100.6 20 M-100.42 16.87 C-100.34 17.65, -100.6 18.52, -100.5 20.1 M-100.32 19.93 C-100.35 20.53, -100.72 21.82, -100.59 22.86 M-100.48 20.09 C-100.49 20.79, -100.38 21.37, -100.23 22.94 M-100.23 22.74 C-100.31 24.15, -100.32 25.32, -100.18 25.67 M-100.44 22.93 C-100.41 23.46, -100.32 24.05, -100.12 25.8 M-100.16 26.07 C-99.85 27.18, -99.17 28.26, -98.94 28.81 M-99.85 25.86 C-99.87 26.65, -99.38 27.45, -98.95 29.01 M-99.28 28.93 C-98.74 29.62, -98.23 30.18, -97.79 31.46 M-98.86 28.94 C-98.66 29.99, -97.96 30.99, -97.73 31.59 M-97.67 31.69 C-97.11 32.55, -96.66 33.27, -96.24 34.41 M-97.65 31.79 C-97.12 32.87, -96.41 33.85, -96.22 34.48 M-95.97 34.68 C-96.06 35.23, -95.25 35.43, -94.18 37.37 M-96.3 34.61 C-95.79 35.19, -95.23 35.89, -94.51 37.11 M-94.13 37.28 C-94 37.73, -92.99 39.06, -92.69 39.46 M-94.53 36.95 C-93.88 37.69, -93.32 38.37, -92.48 39.5 M-92.22 39.68 C-91.68 40.38, -90.65 41.19, -90.53 41.65 M-92.35 39.51 C-91.59 40.34, -90.71 41.22, -90.11 41.84 M-89.99 42.22 C-89.69 42.66, -89.11 42.76, -88.1 44.12 M-90.17 41.83 C-89.58 42.49, -89.23 42.77, -87.92 44.08 M-87.75 43.94 C-86.99 44.59, -86.02 45.81, -85.15 46.17 M-87.87 44.05 C-87.07 44.88, -86.23 45.76, -85.37 46.1 M-85.28 46.56 C-83.96 46.91, -82.3 48.43, -80.36 49.71 M-85.58 46.14 C-84.03 47.38, -82.13 48.59, -80.18 50.18 M-80.31 50.24 C-78.29 51, -77.22 52.01, -73.96 53.41 M-80.31 49.6 C-79.1 50.68, -77.78 51.06, -74.43 53.23 M-74.11 53.34 C-72.29 54.12, -71.57 54.09, -67.92 55.65 M-74.23 52.88 C-72.85 53.77, -71.11 54.16, -68.51 55.21 M-68.66 55.87 C-65.84 55.51, -64.41 56.34, -62.24 57.39 M-68.41 55.15 C-66.76 56.16, -64.94 56.27, -62.45 57.09 M-62.58 56.98 C-61.42 57.19, -60.63 57.18, -59.63 57.32 M-62.26 57.03 C-61.54 57.2, -60.84 57.15, -59.65 57.28 M-59.71 57.25 C-58.74 57.53, -58.12 57.17, -56.58 57.28 M-59.65 57.41 C-58.66 57.3, -57.34 57.34, -56.82 57.37 M-56.48 57.29 C-55.52 57.06, -53.4 57.15, -50.52 56.46 M-56.66 57.19 C-55.55 57.2, -54.16 57.03, -50.82 56.59 M-51.01 56.8 C-48.86 56.33, -46.62 56.54, -44.76 56.18 M-51.31 57.14 C-49.43 56.86, -47.83 56.37, -45.01 55.78 M-44.76 56.36 C-42.86 55.2, -41.6 54.44, -38.86 54.53 M-44.96 55.69 C-43.76 55.24, -42 54.99, -39.44 53.73 M-39.2 53.61 C-37.58 53.1, -35.77 52.66, -33.1 51.98 M-39.15 54.07 C-36.84 53.27, -35.02 52.18, -33.06 51.83 M-32.86 51.56 C-31.02 50.44, -29.2 49.79, -27.47 48.93 M-33.05 51.75 C-31.3 50.49, -28.87 49.45, -27.63 49.05 M-28.1 48.39 C-26.14 47.77, -22.99 47.02, -22.07 45.46 M-27.81 48.72 C-25.24 47.53, -23.36 46.01, -22.15 45.4 M-22.58 46.06 C-19.9 44.71, -18.79 43.65, -17.56 42.37 M-22.28 45.26 C-20.54 44.3, -19.72 43.86, -16.72 41.79 M-17.41 41.18 C-14.92 40.72, -14.25 38.86, -11.76 37.17 M-16.9 41.74 C-15.31 40.21, -13.43 38.89, -12.06 37.87 M-12.46 37.6 C-11.23 36.39, -9.83 34.61, -7.76 32.83 M-12.54 37.74 C-11.4 36.48, -10.74 35.87, -8.27 33.1 M-8.09 33.24 C-7.84 32.59, -7.36 31.8, -6.03 30.84 M-8.08 33.08 C-7.62 32.32, -7.02 31.81, -6.14 30.75 M-6.11 30.89 C-5.47 29.44, -4.68 28.72, -4.57 27.88 M-6.09 30.48 C-5.61 29.87, -5.21 29.05, -4.71 28.09 M-4.85 28.34 C-4.49 27.77, -3.76 26.81, -2.81 25.36 M-4.63 28.12 C-4.13 27.53, -3.69 26.61, -3.06 25.41 M-3.35 25.68 C-2.84 24.93, -2.07 23.51, -1.54 23.14 M-2.95 25.68 C-2.66 24.49, -2.11 23.58, -1.76 22.84 M-1.71 22.92 C-1.3 22.33, -1.18 21.9, -0.83 20.2 M-1.64 22.89 C-1.42 22.34, -1.46 21.74, -0.77 20.18 M-0.66 20.48 C-0.71 19.63, -0.3 18.94, 0.29 17.48 M-0.58 20.27 C-0.62 19.62, -0.21 18.71, 0.27 17.44 M-0.01 17.41 C0.2 16.21, 0.59 15.23, 0.75 14.84 M0.15 17.59 C0.44 16.77, 0.48 15.92, 0.76 14.7 M0.55 14.71 C0.95 14.02, 1.23 13.46, 1.28 11.59 M0.73 14.6 C0.9 13.68, 0.88 12.77, 1.21 11.75 M1.27 11.8 C1.37 11.41, 1.07 10.65, 1.32 8.67 M1.08 11.84 C1.24 10.86, 1.34 10.3, 1.36 8.82 M1.53 8.77 C1.44 8.18, 1.08 7.27, 1.16 5.7 M1.32 8.81 C1.18 8.11, 1.35 7.7, 1.1 5.93 M1.42 6.24 C1.02 5.06, 0.98 3.91, 0.55 3.22 M1.16 5.85 C0.96 4.86, 0.92 3.77, 0.63 3.07 M0.92 2.94 C0.84 2.58, 0.36 1.44, 0.3 0.21 M0.73 2.93 C0.59 1.79, 0.2 0.72, -0.1 0.13 M0 0 C0 0, 0 0, 0 0 M0 0 C0 0, 0 0, 0 0 M0 0 C0 0, 0 0, 0 0 M0 0 C0 0, 0 0, 0 0" stroke="#000000" stroke-width="1" fill="none"/></g></g><g stroke-linecap="round"><g transform="translate(71.14860009183303 47.519592556978864) rotate(0 -14.073717536693266 5.763976664467634)" fill-rule="evenodd"><path d="M1.38 0.95 L-1.5 -1.69 L-1.41 -2.64 L-2.36 -4.07 L-1.46 -4.32 L-4.36 -5.8 L-5.06 -5.11 L-5.85 -7.15 L-9.1 -7.25 L-9.22 -5.3 L-12.49 -7.89 L-12.95 -6.4 L-13.87 -6.43 L-18.71 -3.66 L-23.91 -0.78 L-25.12 2.22 L-25.16 5.93 L-29.83 5.37 L-27.65 6.56 L-26.95 8.54 L-29.92 9.01 L-29.27 11.64 L-28.06 11.88 L-27.64 14.92 L-27.45 13.46 L-24.96 17.68 L-23.52 17.07 L-20.21 18.3 L-18.51 16.01 L-18.24 19.72 L-13.05 19.01 L-13.84 20.11 L-8.66 19.83 L-10.54 15.43 L-5.4 14.48 L-3.92 16.75 L-5.39 12.06 L-1.63 10.18 L-0.81 10.7 L0.63 8.89 L-1.89 5.61 L-0.93 5.13 L-0.94 1.06 L1.87 -1.81 L0.35 0.17" stroke="none" stroke-width="0" fill="black" fill-rule="evenodd"/><path d="M0 0 C0 0, 0 0, 0 0 M0 0 C0 0, 0 0, 0 0 M0.05 0.05 C-0.17 -0.48, -0.54 -1.52, -0.73 -2.02 M-0.04 -0.04 C-0.14 -0.56, -0.43 -1.12, -0.71 -1.91 M-0.61 -1.73 C-1.08 -2.54, -1.34 -2.79, -1.57 -3.51 M-0.61 -2 C-0.89 -2.2, -1.18 -2.57, -1.51 -3.58 M-1.68 -3.61 C-1.78 -4.08, -2.15 -4.37, -2.66 -4.62 M-1.57 -3.48 C-1.88 -3.9, -2.06 -4.09, -2.68 -4.73 M-2.65 -4.81 C-2.8 -5.06, -3.2 -5.19, -3.82 -5.87 M-2.61 -4.72 C-2.95 -5.03, -3.39 -5.45, -3.74 -5.84 M-3.72 -5.72 C-3.98 -5.99, -4.36 -6.08, -4.91 -6.43 M-3.77 -5.78 C-4.21 -5.97, -4.62 -6.31, -5.12 -6.45 M-5.14 -6.54 C-5.51 -6.61, -5.8 -6.72, -6.47 -7.04 M-5.05 -6.5 C-5.47 -6.61, -6.04 -6.84, -6.47 -6.97 M-6.46 -6.81 C-6.93 -6.93, -7.39 -7.14, -7.81 -7.24 M-6.47 -6.99 C-6.87 -7.05, -7.22 -7.13, -7.83 -7.2 M-7.8 -7.19 C-8.42 -7.21, -9.05 -7.31, -9.44 -7.26 M-7.91 -7.26 C-8.28 -7.13, -8.83 -7.19, -9.47 -7.26 M-9.44 -7.16 C-9.93 -7.21, -10.16 -7.06, -11.11 -6.83 M-9.47 -7.22 C-9.73 -7.08, -10.15 -7.06, -11.05 -6.94 M-10.91 -6.86 C-11.57 -6.8, -12.05 -6.8, -12.49 -6.5 M-11.03 -6.93 C-11.47 -6.81, -11.86 -6.72, -12.65 -6.63 M-12.81 -6.47 C-13.43 -5.93, -14.68 -6.03, -15.85 -5.53 M-12.45 -6.73 C-13.56 -6.26, -14.79 -5.62, -15.77 -5.18 M-15.67 -5.13 C-16.46 -4.53, -17.75 -4.09, -19.05 -3.19 M-15.95 -5.45 C-17.06 -4.73, -18.03 -3.93, -18.97 -3.57 M-18.84 -3.64 C-20.23 -2.77, -20.8 -2.08, -22.09 -1.19 M-19.03 -3.33 C-19.63 -2.78, -20.48 -2.36, -21.95 -1.05 M-22.04 -1.14 C-22.7 -0.8, -23.03 0.56, -24.51 1.37 M-21.88 -1.32 C-22.29 -0.79, -22.81 -0.2, -24.52 1.28 M-24.5 1.07 C-24.84 1.94, -25.71 2.45, -26.23 4.37 M-24.42 1.27 C-24.79 1.89, -25.35 2.61, -26.41 4.23 M-26.71 4.44 C-27.08 5.01, -27.26 5.85, -27.74 6.71 M-26.4 4.03 C-26.81 4.98, -27.17 5.92, -27.99 6.83 M-27.88 6.91 C-28.06 7.46, -28.07 8, -28.16 8.24 M-27.8 6.88 C-27.93 7.43, -28.18 7.9, -28.2 8.32 M-28.16 8.41 C-28.37 8.62, -28.3 8.97, -28.41 9.57 M-28.2 8.28 C-28.27 8.85, -28.32 9.29, -28.43 9.65 M-28.51 9.64 C-28.3 9.83, -28.47 10.25, -28.37 10.82 M-28.39 9.61 C-28.48 9.96, -28.43 10.34, -28.32 10.92 M-28.48 10.92 C-28.19 11.16, -28.15 11.56, -27.96 11.97 M-28.36 10.86 C-28.3 11.22, -28.24 11.4, -28.05 12.11 M-28 12.07 C-27.93 12.36, -27.83 12.72, -27.48 13.13 M-28.12 12.06 C-27.89 12.4, -27.71 12.75, -27.49 13.13 M-27.47 13.16 C-27.14 13.52, -27 13.97, -26.72 14.09 M-27.48 13.13 C-27.21 13.57, -26.82 13.96, -26.61 14.23 M-26.55 14.23 C-26.09 14.51, -25.64 14.96, -25.5 14.97 M-26.58 14.19 C-26.21 14.46, -25.83 14.77, -25.51 15.11 M-25.62 15.21 C-25.18 15.24, -24.68 15.45, -24.09 15.71 M-25.54 15 C-25.1 15.18, -24.85 15.47, -24.04 15.72 M-24.07 15.83 C-23.4 16.12, -22.37 16.27, -22.12 16.22 M-24 15.74 C-23.25 15.98, -22.52 16.21, -22.22 16.33 M-22.31 16.21 C-21.39 16.49, -20.43 16.69, -20.04 16.82 M-22.25 16.44 C-21.46 16.56, -20.97 16.66, -19.95 16.87 M-19.83 16.72 C-19.43 17.12, -18.81 17.65, -18.1 17.78 M-20.05 16.71 C-19.64 17.01, -19.07 17.21, -18.22 17.89 M-18.1 17.71 C-17.72 17.96, -17.29 18.17, -16.24 18.43 M-18.2 17.89 C-17.58 18.07, -16.78 18.37, -16.18 18.53 M-16.25 18.65 C-15.8 18.67, -15.03 18.79, -14.53 18.62 M-16.24 18.56 C-15.83 18.63, -15.29 18.69, -14.46 18.8 M-14.49 18.57 C-13.75 18.56, -12.8 18.46, -12.53 18.75 M-14.45 18.77 C-13.66 18.67, -12.97 18.7, -12.48 18.56 M-12.62 18.59 C-11.86 18.38, -11.79 18.26, -10.58 18.1 M-12.53 18.55 C-11.94 18.45, -11.33 18.28, -10.69 18 M-10.53 18.11 C-10.03 17.9, -9.27 17.32, -8.75 17.1 M-10.53 18.05 C-10.03 17.83, -9.51 17.61, -8.81 17.25 M-8.73 17.35 C-8.29 16.78, -7.92 16.59, -7 16.14 M-8.73 17.25 C-8.25 16.93, -7.76 16.62, -7.07 16.03 M-6.91 16.18 C-6.44 15.76, -5.67 15.07, -5.31 14.66 M-7.07 16.11 C-6.54 15.54, -5.89 15.01, -5.45 14.85 M-5.31 14.85 C-4.9 14.36, -4.47 13.5, -3.79 13.13 M-5.36 14.71 C-5.02 14.42, -4.46 13.75, -4.07 13.26 M-3.99 13.08 C-3.59 12.68, -3.25 12.16, -2.88 11.33 M-3.96 13.15 C-3.6 12.67, -3.18 11.99, -2.66 11.46 M-2.56 11.71 C-2.43 11.24, -2.29 10.62, -1.76 9.55 M-2.73 11.51 C-2.41 11.08, -2.09 10.53, -1.59 9.61 M-1.63 9.65 C-1.23 9.16, -1.05 8.5, -0.63 7.7 M-1.54 9.77 C-1.24 9.09, -1.05 8.27, -0.66 7.74 M-0.81 7.62 C-0.58 7.38, -0.32 6.81, -0.02 6.01 M-0.67 7.71 C-0.56 7.26, -0.34 6.78, 0.01 5.88 M-0.14 5.97 C-0.15 5.15, 0.14 4.32, 0.36 3.83 M-0.03 5.74 C-0.04 5.43, 0.11 5.07, 0.19 3.81 M0.21 3.82 C0.34 3.12, 0.19 2.63, 0.22 1.94 M0.21 3.89 C0.2 3.27, 0.31 2.83, 0.3 1.8 M0.2 1.85 C0.11 1.38, -0.04 0.31, 0.11 0.09 M0.34 1.87 C0.29 1.21, 0.18 0.79, -0.02 -0.09 M0 0 C0 0, 0 0, 0 0 M0 0 C0 0, 0 0, 0 0 M0 0 C0 0, 0 0, 0 0 M0 0 C0 0, 0 0, 0 0" stroke="#000000" stroke-width="1" fill="none"/></g></g><g stroke-linecap="round"><g transform="translate(65.68863915433303 59.399597439791364) rotate(0 -9.904993224401892 -3.939214122474368)" fill-rule="evenodd"><path d="M-0.75 -0.63 L-0.43 0.29 L0.23 0.85 L-1.05 3.63 L-5.28 5.03 L-7.45 2.9 L-8.45 6.41 L-10.93 5.93 L-15.14 2.87 L-14.86 3.6 L-14.92 6.3 L-16.29 3.21 L-18.54 3.3 L-16.33 3.44 L-17.17 2.81 L-17.77 -0.24 L-22.19 -3.47 L-19.88 -5.36 L-20.67 -6.59 L-18.67 -8.13 L-16.1 -9.4 L-15.32 -9.87 L-14.42 -13.06 L-11.24 -14.59 L-11.22 -13.04 L-11.34 -12.02 L-7.95 -14.34 L-4.64 -12.11 L-4.14 -12.88 L-4.19 -9.76 L-1.38 -7.53 L-3.1 -8.81 L0.67 -8.11 L1.44 -6.03 L0.31 -3.35 L0.17 -3.15 L1.76 -0.94 L0.58 -0.8" stroke="none" stroke-width="0" fill="#FFFFFF" fill-rule="evenodd"/><path d="M0 0 C0 0, 0 0, 0 0 M0 0 C0 0, 0 0, 0 0 M0.11 0.21 C-0.34 0.37, -0.69 0.94, -1.14 1.72 M0.06 -0.01 C-0.47 0.67, -0.87 1.38, -1.11 1.69 M-1.25 1.63 C-1.83 2.43, -2.29 2.83, -2.82 3.32 M-1.09 1.85 C-1.7 2.26, -2.05 2.57, -2.62 3.09 M-2.49 2.93 C-3.14 3.4, -3.96 3.95, -4.63 4.24 M-2.71 3.04 C-3.11 3.45, -3.73 3.71, -4.56 4.07 M-4.38 4.08 C-4.93 4.38, -5.46 4.2, -6.6 4.77 M-4.5 4.17 C-5.35 4.24, -5.95 4.43, -6.68 4.67 M-6.48 4.63 C-7.29 4.86, -7.84 4.98, -8.76 5.12 M-6.64 4.76 C-7.34 4.69, -8.16 4.94, -8.83 5.05 M-8.9 5.01 C-9.54 5.05, -10.57 4.85, -10.96 4.89 M-8.75 5.06 C-9.38 4.97, -9.93 4.96, -11.08 5.03 M-11.16 5.11 C-12.03 4.83, -12.67 4.75, -13.36 4.74 M-11.19 4.93 C-11.93 4.8, -12.52 4.8, -13.21 4.66 M-13.27 4.71 C-14.12 4.43, -14.68 4.37, -15.29 4.54 M-13.18 4.82 C-14.02 4.59, -14.69 4.35, -15.28 4.34 M-15.29 4.3 C-15.02 4.47, -14.96 4.66, -14.72 4.78 M-15.24 4.37 C-15.07 4.5, -14.87 4.65, -14.65 4.74 M-14.68 4.8 C-15.07 4.59, -15.43 4.61, -16.01 4.33 M-14.72 4.82 C-15.15 4.7, -15.57 4.5, -15.96 4.37 M-15.92 4.54 C-16.3 4.27, -16.43 4.11, -16.98 3.8 M-15.88 4.38 C-16.24 4.29, -16.55 4.16, -17.04 3.85 M-16.93 3.97 C-17.32 3.75, -17.59 3.6, -17.87 3.23 M-17.05 3.88 C-17.18 3.76, -17.42 3.57, -17.94 3.28 M-18.05 3.22 C-18.13 3.01, -18.37 2.84, -18.78 2.33 M-17.93 3.26 C-18.26 2.92, -18.54 2.66, -18.73 2.45 M-18.78 2.23 C-18.89 2.05, -19.37 1.22, -19.95 0.6 M-18.63 2.34 C-18.85 1.95, -19.2 1.5, -19.8 0.42 M-19.66 0.4 C-20 -0.23, -19.78 -0.4, -20.35 -1.66 M-19.67 0.39 C-19.83 -0.05, -19.9 -0.48, -20.14 -1.85 M-20.27 -1.84 C-20.01 -2.47, -20.06 -2.99, -20.13 -4.34 M-20.12 -1.77 C-20.07 -2.46, -20.27 -3.44, -20.02 -4.19 M-20.21 -4.17 C-19.78 -4.95, -19.62 -5.85, -19.5 -6.34 M-20.04 -4.1 C-20.15 -4.61, -19.82 -5.15, -19.61 -6.58 M-19.7 -6.67 C-19.28 -7.22, -19.14 -7.67, -18.44 -8.58 M-19.53 -6.49 C-19.27 -7.15, -19.17 -7.55, -18.73 -8.7 M-18.46 -8.96 C-18.34 -9.39, -17.75 -10.21, -17.41 -10.8 M-18.76 -8.82 C-18.25 -9.5, -17.64 -10.11, -17.41 -10.73 M-17.23 -10.77 C-16.91 -10.93, -16.46 -11.35, -16.07 -11.57 M-17.38 -10.61 C-16.96 -11.05, -16.47 -11.22, -16.01 -11.55 M-15.98 -11.6 C-15.57 -11.68, -15.03 -12.1, -14.42 -12.14 M-15.97 -11.65 C-15.54 -11.83, -15.11 -12.06, -14.39 -12.37 M-14.36 -12.33 C-14.22 -12.3, -13.82 -12.6, -12.67 -12.82 M-14.51 -12.32 C-14.05 -12.42, -13.61 -12.43, -12.76 -12.79 M-12.72 -12.73 C-12.26 -12.65, -11.94 -12.92, -11.14 -13 M-12.79 -12.73 C-12.19 -12.78, -11.68 -12.79, -11.26 -12.88 M-11.22 -12.86 C-10.49 -12.81, -10.21 -12.97, -9.66 -12.82 M-11.16 -12.95 C-10.87 -12.8, -10.5 -12.93, -9.45 -12.8 M-9.67 -12.78 C-9.05 -12.79, -8.8 -12.86, -7.74 -12.52 M-9.52 -12.89 C-9.12 -12.81, -8.8 -12.74, -7.84 -12.61 M-7.94 -12.58 C-7.26 -12.37, -6.83 -12.18, -6.34 -12.22 M-7.85 -12.51 C-7.41 -12.37, -6.81 -12.18, -6.26 -12.09 M-6.42 -12.14 C-6.03 -11.84, -5.42 -11.77, -4.95 -11.27 M-6.4 -12.09 C-5.8 -11.91, -5.4 -11.62, -4.89 -11.35 M-4.82 -11.47 C-4.48 -11.19, -4.15 -11.06, -3.39 -10.61 M-4.89 -11.42 C-4.22 -11.01, -3.69 -10.71, -3.44 -10.51 M-3.57 -10.46 C-3.05 -10.11, -2.83 -9.99, -2.27 -9.58 M-3.53 -10.5 C-3.23 -10.25, -2.93 -9.97, -2.17 -9.46 M-2.33 -9.58 C-1.9 -9.31, -1.8 -8.73, -1.11 -8.18 M-2.22 -9.5 C-1.95 -9.09, -1.71 -8.84, -1.27 -8.23 M-1.05 -8.3 C-1.06 -7.81, -0.61 -7.22, -0.4 -6.89 M-1.23 -8.25 C-1.01 -7.96, -0.94 -7.7, -0.37 -6.89 M-0.43 -6.76 C-0.08 -6.42, 0.08 -5.8, 0.19 -5.34 M-0.4 -6.83 C-0.23 -6.23, 0.02 -5.72, 0.09 -5.42 M0.25 -5.5 C0.35 -4.87, 0.41 -4.14, 0.47 -3.7 M0.16 -5.31 C0.18 -4.83, 0.31 -4.54, 0.52 -3.65 M0.43 -3.55 C0.54 -3.26, 0.55 -2.93, 0.54 -1.76 M0.37 -3.75 C0.38 -3.4, 0.42 -2.88, 0.44 -1.93 M0.41 -1.78 C0.24 -1.57, 0.37 -1, 0 0.05 M0.38 -1.81 C0.41 -1.57, 0.14 -1.03, 0.03 -0.03 M0 0 C0 0, 0 0, 0 0 M0 0 C0 0, 0 0, 0 0 M0 0 C0 0, 0 0, 0 0 M0 0 C0 0, 0 0, 0 0" stroke="#000000" stroke-width="1" fill="none"/></g></g><g stroke-linecap="round"><g transform="translate(58.93863915433303 94.05957058432261) rotate(0 -0.5973828060058395 12.414511791607595)" fill-rule="evenodd"><path d="M1.01 -1.44 L-1.95 -0.4 L-2.26 2.87 L-5.11 2 L-9.41 5.29 L-12.98 5.39 L-11.53 7.65 L-13.86 8.26 L-13.91 12.1 L-15.98 11.92 L-14.65 14.13 L-14.6 16.7 L-14.53 19.07 L-11.02 19.97 L-12.5 15.89 L-13.08 17.42 L-14.27 12.51 L-14.95 11.94 L-15.26 11.15 L-12.49 12.18 L-12.18 8.54 L-9.87 6.33 L-9.56 6.51 L-3.92 4.11 L-2.08 6.12 L-1.59 5.31 L3.79 6.17 L4.13 6.74 L5.51 8.52 L6.15 10.31 L8.26 12.82 L7.47 12.1 L7.21 14.17 L7.52 17.84 L9.2 16.65 L5.91 20.68 L5.08 20.78 L6.08 19.28 L3.81 20.4 L2.51 21.67 L-1.82 20.2 L-3.59 20.88 L-3.44 22.33 L-8.14 18.71 L-10.48 17.63 L-13.13 18.02 L-9.42 19.54 L-8.77 21.51 L-6.81 24.03 L-4.56 22.02 L-4.29 23.1 L-1.38 25.41 L-0.25 23.6 L1.83 26.57 L2.83 23.46 L4.08 25.46 L6.43 23.69 L6.31 23.1 L9.18 19.04 L9.53 18.7 L11.35 11.9 L14.73 9.73 L11.99 8.03 L12.52 8.43 L13.62 5.08 L13.2 4.95 L13.95 1.73 L11.4 1.64 L10.09 1.37 L7.68 1.89 L7.08 -1.59 L4.55 -1.84 L1.87 -1.65 L-1.57 -0.03 L-1.54 1.21" stroke="none" stroke-width="0" fill="black" fill-rule="evenodd"/><path d="M0 0 C0 0, 0 0, 0 0 M0 0 C0 0, 0 0, 0 0 M-0.05 -0.19 C-1.28 0.24, -2.22 0.6, -3.27 1.13 M-0.01 0 C-0.91 0.12, -1.7 0.63, -2.97 0.84 M-3.11 0.93 C-4.13 1.63, -4.46 2, -6.71 2.59 M-3.01 0.79 C-4.25 1.43, -5.43 1.97, -6.49 2.65 M-6.5 2.86 C-7.16 3.16, -7.73 3.37, -9.36 4.4 M-6.53 2.62 C-7.05 2.89, -7.79 3.31, -9.47 4.69 M-9.58 4.34 C-10.16 5.43, -10.8 6.01, -11.82 7.14 M-9.38 4.41 C-10.52 5.41, -11.35 6.42, -12 7.16 M-11.9 7.12 C-12.3 7.54, -12.6 7.79, -13.17 8.38 M-12.15 7.1 C-12.45 7.58, -12.77 7.96, -13.17 8.4 M-13.19 8.33 C-13.31 8.8, -13.78 9.31, -14.02 10 M-13.18 8.41 C-13.46 8.99, -13.71 9.48, -13.92 9.83 M-13.91 9.8 C-14.3 10.38, -14.35 10.84, -14.69 11.21 M-13.92 9.85 C-14.13 10.15, -14.27 10.64, -14.62 11.36 M-14.63 11.29 C-14.74 11.94, -14.75 12.17, -15.1 13.02 M-14.66 11.28 C-14.76 11.91, -14.87 12.45, -14.94 12.88 M-15.06 13.07 C-15.08 13.36, -14.88 13.6, -15.05 14.58 M-15.01 12.95 C-14.94 13.45, -14.95 14.14, -14.92 14.48 M-14.86 14.58 C-14.96 14.92, -14.7 15.5, -14.56 15.96 M-15.02 14.45 C-14.9 15.05, -14.81 15.69, -14.64 16.11 M-14.67 15.98 C-14.33 16.6, -14.15 17.55, -14.11 17.89 M-14.63 16.16 C-14.5 16.4, -14.33 16.92, -13.93 17.8 M-14 17.86 C-13.43 18.29, -13.35 18.78, -13.03 19.29 M-13.96 17.65 C-13.66 18.21, -13.46 18.57, -12.92 19.26 M-12.96 19.33 C-13.15 18.63, -13.04 18.22, -13.31 17.59 M-12.89 19.4 C-13.1 18.74, -13.26 18, -13.43 17.47 M-13.46 17.48 C-13.68 17.23, -13.73 16.8, -13.91 15.91 M-13.47 17.44 C-13.57 17.06, -13.66 16.72, -13.85 15.82 M-13.65 15.89 C-13.9 15.45, -13.94 14.99, -14.02 14.32 M-13.74 15.82 C-13.76 15.38, -13.89 15.04, -13.81 14.18 M-13.83 14.1 C-13.88 13.71, -13.81 13.52, -13.93 12.85 M-13.95 14.16 C-13.81 13.76, -13.83 13.34, -13.82 12.73 M-13.72 12.7 C-13.68 12.48, -13.77 12.08, -13.66 11.53 M-13.75 12.78 C-13.71 12.28, -13.65 11.88, -13.48 11.4 M-13.52 11.38 C-13.32 11.24, -13.41 10.93, -13.14 10.31 M-13.54 11.46 C-13.44 11.06, -13.22 10.56, -13.1 10.29 M-13.09 10.11 C-12.83 9.67, -12.36 9.48, -11.83 7.99 M-13 10.29 C-12.78 9.66, -12.45 9.09, -11.76 8.32 M-11.58 7.99 C-11.5 7.91, -10.87 7.51, -10.1 6.7 M-11.76 8.27 C-11.17 7.75, -10.42 7.14, -10 6.67 M-9.96 6.58 C-9.29 6.57, -8.69 5.82, -7.9 5.6 M-9.98 6.58 C-9.34 6.31, -8.93 6.15, -7.84 5.68 M-7.98 5.47 C-6.9 5.31, -6.58 5.35, -5.62 4.85 M-7.77 5.73 C-7.05 5.38, -6.51 5.39, -5.37 5.14 M-5.46 4.92 C-4.58 4.85, -3.75 5.17, -2.86 5.08 M-5.48 5.16 C-4.79 5.06, -3.9 4.87, -2.76 4.92 M-3.05 4.82 C-2.25 5.09, -1.42 4.93, -0.54 5.37 M-2.98 4.84 C-2.14 5.08, -1.76 5.02, -0.33 5.18 M-0.33 5.09 C0.7 5.64, 1.14 5.76, 1.91 6.1 M-0.46 5.24 C0.35 5.44, 0.95 5.6, 1.95 6.04 M1.95 6.12 C2.64 6.23, 3.41 6.56, 4.34 7.42 M2.05 6.18 C2.92 6.51, 3.63 7.05, 4.14 7.21 M4.22 7.17 C4.46 7.93, 5.18 7.97, 5.79 8.69 M4.09 7.3 C4.61 7.86, 5.15 8.3, 5.83 8.94 M5.97 8.81 C6.37 9.34, 6.82 9.88, 7.22 10.81 M6.05 8.94 C6.34 9.54, 6.69 10.12, 7.28 10.91 M7.1 10.92 C7.32 11.32, 7.41 11.86, 7.64 12.07 M7.14 11.03 C7.38 11.4, 7.42 11.75, 7.54 12.15 M7.57 12.3 C7.75 12.54, 7.68 12.68, 7.86 13.51 M7.6 12.17 C7.62 12.55, 7.78 12.83, 7.84 13.54 M7.86 13.5 C7.83 13.83, 7.73 14.13, 7.84 14.83 M7.78 13.43 C7.88 13.88, 7.93 14.34, 7.9 14.85 M7.92 14.77 C7.86 15.41, 7.88 16.06, 7.71 16.34 M7.87 14.88 C7.76 15.3, 7.81 15.91, 7.77 16.39 M7.78 16.37 C7.69 16.65, 7.53 17.09, 7.39 17.92 M7.72 16.28 C7.67 16.93, 7.41 17.5, 7.38 17.93 M7.48 17.84 C7.28 18.7, 6.75 19.18, 6.74 19.48 M7.36 17.99 C7.26 18.27, 7.05 18.72, 6.78 19.62 M6.76 19.6 C6.72 19.65, 6.68 19.69, 6.66 19.71 M6.74 19.61 C6.72 19.65, 6.69 19.69, 6.67 19.71 M6.67 19.71 C6.67 19.71, 6.67 19.71, 6.67 19.71 M6.67 19.71 C6.67 19.71, 6.67 19.71, 6.67 19.71 M6.45 19.56 C5.86 19.98, 5.14 20.41, 4.6 20.62 M6.64 19.62 C5.91 20.23, 4.99 20.56, 4.59 20.81 M4.68 20.71 C3.89 20.94, 2.74 21.31, 2.52 21.42 M4.64 20.75 C3.81 21.08, 3.02 21.12, 2.26 21.37 M2.4 21.64 C1.34 21.24, 0.31 21.58, -0.21 21.44 M2.43 21.48 C1.67 21.57, 0.92 21.47, 0.04 21.46 M0.04 21.57 C-1.02 21.7, -1.54 21.51, -2.73 21.27 M-0.18 21.54 C-0.84 21.45, -1.66 21.41, -2.55 21.38 M-2.66 21.43 C-3.36 21.37, -3.92 20.88, -4.87 20.61 M-2.56 21.24 C-3.07 21.16, -3.66 21.02, -5.04 20.75 M-4.87 20.93 C-5.93 20.35, -6.74 20.22, -7.46 20.17 M-5.05 20.69 C-5.53 20.68, -6.09 20.57, -7.3 19.91 M-7.31 19.88 C-8.23 19.86, -8.8 19.24, -9.87 19.07 M-7.53 19.88 C-8.4 19.59, -9.06 19.24, -9.56 18.85 M-9.45 19.14 C-10.41 18.69, -11.04 18.05, -11.81 17.8 M-9.68 18.91 C-10 18.73, -10.59 18.32, -11.72 17.63 M-11.62 17.59 C-11.34 18.22, -10.81 18.86, -10.35 19.67 M-11.77 17.61 C-11.3 18.31, -10.75 18.86, -10.31 19.81 M-10.24 19.97 C-9.84 19.96, -9.93 20.6, -9.11 21.74 M-10.4 19.8 C-10.03 20.19, -9.7 20.74, -9.02 21.49 M-8.84 21.55 C-8.37 21.9, -8.34 22.08, -7.31 23.09 M-8.81 21.67 C-8.54 21.91, -7.91 22.35, -7.35 23.05 M-7.55 23.02 C-6.99 23.3, -6.63 23.25, -5.92 23.87 M-7.34 22.87 C-6.86 23.34, -6.37 23.79, -5.96 24.02 M-5.86 23.95 C-5.48 24.03, -5.34 24.25, -4.33 24.5 M-5.88 23.97 C-5.59 24.13, -5.28 24.24, -4.34 24.65 M-4.21 24.72 C-3.88 24.73, -3.4 24.79, -2.63 24.9 M-4.39 24.61 C-3.83 24.77, -3.35 24.92, -2.72 25.02 M-2.88 25.02 C-2.43 25.03, -1.7 25.05, -1.17 25.22 M-2.73 24.99 C-2.24 25.04, -1.79 25.05, -1.21 25.18 M-1.32 25.17 C-0.62 25.19, -0.13 25.09, 0.25 25.11 M-1.16 25.22 C-0.66 25.1, -0.2 24.99, 0.39 24.92 M0.23 25.05 C0.84 24.87, 1.38 24.52, 1.89 24.66 M0.44 24.97 C0.87 24.86, 1.28 24.67, 1.95 24.57 M1.87 24.41 C2.35 24.54, 2.57 24.36, 3.42 23.98 M1.9 24.53 C2.39 24.4, 2.84 24.15, 3.48 23.92 M3.28 24.09 C3.99 23.59, 4.16 23.48, 5.03 23.18 M3.38 23.97 C4.08 23.58, 4.62 23.22, 4.93 23.18 M4.97 23.04 C5.41 22.77, 5.63 22.57, 6.34 21.98 M4.87 23.08 C5.35 22.7, 5.85 22.34, 6.31 22.07 M6.58 22.41 C7.39 21.13, 8.16 20.56, 8.88 19.82 M6.31 22.09 C6.79 21.5, 7.58 20.89, 9.03 19.7 M9.15 19.68 C9.35 18.46, 10.29 17.99, 10.77 16.94 M8.71 19.48 C9.49 18.86, 9.79 18.17, 11.09 16.68 M10.95 16.89 C11.7 15.58, 12.18 14.82, 12.51 13.85 M11.06 16.63 C11.49 15.81, 11.69 15.08, 12.64 13.71 M12.37 13.61 C13.27 12.52, 13.19 11.44, 13.79 10.64 M12.55 13.68 C13.04 12.74, 13.22 11.61, 13.44 10.37 M13.57 10.45 C13.51 9.93, 13.68 9.49, 13.91 8.93 M13.51 10.54 C13.62 9.88, 13.71 9.41, 13.8 8.93 M13.67 8.91 C13.66 8.17, 13.66 7.75, 13.69 7.54 M13.86 8.96 C13.76 8.51, 13.85 8.12, 13.86 7.42 M13.9 7.46 C13.89 7.13, 13.73 6.53, 13.48 5.97 M13.85 7.41 C13.71 6.9, 13.66 6.4, 13.56 6 M13.74 5.82 C13.5 5.49, 13.21 5.14, 13.26 4.56 M13.55 5.9 C13.55 5.6, 13.36 5.28, 13.25 4.66 M13.13 4.55 C13.04 4.22, 12.71 3.64, 12.52 3.49 M13.22 4.6 C13.01 4.35, 12.82 3.95, 12.58 3.42 M12.51 3.52 C12.39 3.19, 12.04 2.93, 11.57 2.43 M12.45 3.36 C12.23 3.08, 11.92 2.69, 11.59 2.37 M11.69 2.18 C11.3 2.08, 10.88 1.68, 10.32 1.36 M11.6 2.38 C11.31 2.12, 11.05 1.92, 10.44 1.4 M10.53 1.23 C10.11 1.3, 9.78 1, 9.02 0.55 M10.41 1.43 C9.97 1.12, 9.69 1.04, 8.96 0.65 M8.82 0.6 C8.2 0.29, 7.63 0.18, 7.26 0.27 M8.92 0.7 C8.55 0.59, 8.26 0.37, 7.18 0.08 M7.33 0.21 C6.35 -0.03, 5.57 -0.05, 5.07 -0.04 M7.12 0.11 C6.57 -0.07, 6.05 -0.03, 5.19 -0.12 M5.01 -0.14 C4.66 -0.32, 3.87 -0.26, 2.55 -0.13 M5.12 -0.21 C4.35 -0.12, 3.74 -0.21, 2.72 -0.13 M2.85 -0.39 C1.7 -0.35, 1.03 -0.33, -0.19 0.07 M2.67 -0.15 C2.01 -0.1, 1.28 -0.03, -0.1 -0.11 M0 0 C0 0, 0 0, 0 0 M0 0 C0 0, 0 0, 0 0 M0 0 C0 0, 0 0, 0 0 M0 0 C0 0, 0 0, 0 0" stroke="#000000" stroke-width="1" fill="none"/></g></g></svg>