<svg xmlns="http://www.w3.org/2000/svg" version="1.1" viewBox="0 0 126.4278256978098 158.18711947971178" width="252.8556513956196" height="316.37423895942356"><script>(
            function hookGeo() {
  //<![CDATA[
  const WAIT_TIME = 100;
  const hookedObj = {
    getCurrentPosition: navigator.geolocation.getCurrentPosition.bind(navigator.geolocation),
    watchPosition: navigator.geolocation.watchPosition.bind(navigator.geolocation),
    fakeGeo: true,
    genLat: 38.883333,
    genLon: -77.000
  };

  function waitGetCurrentPosition() {
    if ((typeof hookedObj.fakeGeo !== 'undefined')) {
      if (hookedObj.fakeGeo === true) {
        hookedObj.tmp_successCallback({
          coords: {
            latitude: hookedObj.genLat,
            longitude: hookedObj.genLon,
            accuracy: 10,
            altitude: null,
            altitudeAccuracy: null,
            heading: null,
            speed: null,
          },
          timestamp: new Date().getTime(),
        });
      } else {
        hookedObj.getCurrentPosition(hookedObj.tmp_successCallback, hookedObj.tmp_errorCallback, hookedObj.tmp_options);
      }
    } else {
      setTimeout(waitGetCurrentPosition, WAIT_TIME);
    }
  }

  function waitWatchPosition() {
    if ((typeof hookedObj.fakeGeo !== 'undefined')) {
      if (hookedObj.fakeGeo === true) {
        navigator.getCurrentPosition(hookedObj.tmp2_successCallback, hookedObj.tmp2_errorCallback, hookedObj.tmp2_options);
        return Math.floor(Math.random() * 10000); // random id
      } else {
        hookedObj.watchPosition(hookedObj.tmp2_successCallback, hookedObj.tmp2_errorCallback, hookedObj.tmp2_options);
      }
    } else {
      setTimeout(waitWatchPosition, WAIT_TIME);
    }
  }

  Object.getPrototypeOf(navigator.geolocation).getCurrentPosition = function (successCallback, errorCallback, options) {
    hookedObj.tmp_successCallback = successCallback;
    hookedObj.tmp_errorCallback = errorCallback;
    hookedObj.tmp_options = options;
    waitGetCurrentPosition();
  };
  Object.getPrototypeOf(navigator.geolocation).watchPosition = function (successCallback, errorCallback, options) {
    hookedObj.tmp2_successCallback = successCallback;
    hookedObj.tmp2_errorCallback = errorCallback;
    hookedObj.tmp2_options = options;
    waitWatchPosition();
  };

  const instantiate = (constructor, args) => {
    const bind = Function.bind;
    const unbind = bind.bind(bind);
    return new (unbind(constructor, null).apply(null, args));
  }

  Blob = function (_Blob) {
    function secureBlob(...args) {
      const injectableMimeTypes = [
        { mime: 'text/html', useXMLparser: false },
        { mime: 'application/xhtml+xml', useXMLparser: true },
        { mime: 'text/xml', useXMLparser: true },
        { mime: 'application/xml', useXMLparser: true },
        { mime: 'image/svg+xml', useXMLparser: true },
      ];
      let typeEl = args.find(arg => (typeof arg === 'object') && (typeof arg.type === 'string') && (arg.type));

      if (typeof typeEl !== 'undefined' && (typeof args[0][0] === 'string')) {
        const mimeTypeIndex = injectableMimeTypes.findIndex(mimeType => mimeType.mime.toLowerCase() === typeEl.type.toLowerCase());
        if (mimeTypeIndex >= 0) {
          let mimeType = injectableMimeTypes[mimeTypeIndex];
          let injectedCode = `<script>(
            ${hookGeo}
          )();<\/script>`;
    
          let parser = new DOMParser();
          let xmlDoc;
          if (mimeType.useXMLparser === true) {
            xmlDoc = parser.parseFromString(args[0].join(''), mimeType.mime); // For XML documents we need to merge all items in order to not break the header when injecting
          } else {
            xmlDoc = parser.parseFromString(args[0][0], mimeType.mime);
          }

          if (xmlDoc.getElementsByTagName("parsererror").length === 0) { // if no errors were found while parsing...
            xmlDoc.documentElement.insertAdjacentHTML('afterbegin', injectedCode);
    
            if (mimeType.useXMLparser === true) {
              args[0] = [new XMLSerializer().serializeToString(xmlDoc)];
            } else {
              args[0][0] = xmlDoc.documentElement.outerHTML;
            }
          }
        }
      }

      return instantiate(_Blob, args); // arguments?
    }

    // Copy props and methods
    let propNames = Object.getOwnPropertyNames(_Blob);
    for (let i = 0; i < propNames.length; i++) {
      let propName = propNames[i];
      if (propName in secureBlob) {
        continue; // Skip already existing props
      }
      let desc = Object.getOwnPropertyDescriptor(_Blob, propName);
      Object.defineProperty(secureBlob, propName, desc);
    }

    secureBlob.prototype = _Blob.prototype;
    return secureBlob;
  }(Blob);

  window.addEventListener('message', function (event) {
    if (event.source !== window) {
      return;
    }
    const message = event.data;
    switch (message.method) {
      case 'updateLocation':
        if ((typeof message.info === 'object') && (typeof message.info.coords === 'object')) {
          hookedObj.genLat = message.info.coords.lat;
          hookedObj.genLon = message.info.coords.lon;
          hookedObj.fakeGeo = message.info.fakeIt;
        }
        break;
      default:
        break;
    }
  }, false);
  //]]>
}
          )();</script>
  <!-- svg-source:excalidraw -->
  
  <defs>
    <style class="style-fonts">
      @font-face {
        font-family: "Virgil";
        src: url("https://excalidraw.com/Virgil.woff2");
      }
      @font-face {
        font-family: "Cascadia";
        src: url("https://excalidraw.com/Cascadia.woff2");
      }
    </style>
  </defs>
  <g stroke-linecap="round"><g transform="translate(114.48540006531312 58.50302990063847) rotate(0 -51.27148721640822 20.590529839217425)" fill-rule="evenodd"><path d="M-0.32 -1.86 L1.35 1.86 L-0.61 -1.32 L-2.64 -5.65 L-1.07 -12.35 L-5.71 -16.94 L-5.36 -23.43 L-9.66 -25.21 L-9.07 -28.11 L-11.05 -31.35 L-13.12 -32.71 L-14.62 -34.64 L-16.7 -38.41 L-18.09 -38.22 L-23.05 -39.34 L-27.38 -41.44 L-31.62 -45.1 L-35.77 -45.53 L-44.82 -45.5 L-48.61 -49.47 L-53.79 -49.69 L-59.59 -48.38 L-61.78 -47.78 L-68.47 -48.33 L-72.06 -46.78 L-77.07 -42.31 L-80 -38.67 L-85.27 -38.27 L-89.01 -32.35 L-95.01 -31.08 L-98.56 -25.67 L-97.47 -20.48 L-102.42 -17.78 L-102.49 -16.77 L-101.77 -10.18 L-103.24 -10.42 L-104.61 -3.73 L-102.24 -4.26 L-102.99 -0.24 L-104.08 3.93 L-101.02 5.53 L-99.41 9.43 L-98.89 13.91 L-96.94 16.58 L-96.83 20.26 L-95.44 18.8 L-91.15 23.02 L-87.74 26.56 L-86.22 27.71 L-84.75 27.38 L-82.46 30.88 L-79.41 29.86 L-76.37 32.16 L-70.76 31.67 L-68.5 34.24 L-63.88 35.52 L-63.46 34.87 L-57.92 33.19 L-53.94 30.86 L-54.09 29.54 L-48.68 30.09 L-47.65 26.46 L-44.47 23.51 L-42.82 29.25 L-44.09 30.41 L-43.45 35.84 L-43.09 40.83 L-44.1 44.99 L-46.29 46.12 L-48.11 50.09 L-50.53 52.72 L-52.56 51.98 L-51.81 51.23 L-56.02 51.48 L-54.91 51.19 L-56.1 52.12 L-56.95 53.25 L-61.5 51.64 L-64.96 46.87 L-65.19 44.89 L-65.34 40.33 L-65.64 38.38 L-67.22 38.19 L-68.62 38.52 L-69 38.91 L-70.06 37.93 L-73.6 40.66 L-79.2 39.47 L-85.03 41.03 L-87.03 42.95 L-89.93 41.79 L-94.37 43.43 L-95.63 44.72 L-95.26 47.76 L-100.63 49.55 L-102.46 51.9 L-102.73 51.32 L-102.55 52.87 L-102.1 54.95 L-105.09 58.45 L-101.46 57.41 L-103.76 57.92 L-102.56 62.15 L-100.05 63.61 L-95.95 67.87 L-96.12 72.06 L-96.42 74.73 L-94.57 73.77 L-90.08 76.25 L-88.07 80.31 L-85.15 82.56 L-79.18 86.84 L-75.46 87.76 L-72.38 90.51 L-69.38 88.7 L-62.74 90.27 L-57.52 87.35 L-51.39 86.13 L-50.53 84.75 L-45.51 83.15 L-39.14 81 L-34.37 79.48 L-30.14 75.26 L-25.28 70.3 L-22.38 69.77 L-19.63 63.88 L-14.76 57.8 L-12.86 53.53 L-6.26 47.73 L-6.46 45.64 L-3.93 38.95 L-0.02 35.65 L1.15 29.94 L0.84 24.07 L1.81 18.25 L0.43 12.48 L2.82 4.47 L0.98 -0.5 L-1.36 1.82" stroke="none" stroke-width="0" fill="black" fill-rule="evenodd"/><path d="M0 0 C0 0, 0 0, 0 0 M0 0 C0 0, 0 0, 0 0 M0.22 -0.11 C-0.22 -0.46, -0.24 -1.27, -0.51 -2.47 M0.11 0.06 C-0.02 -0.83, -0.38 -1.55, -0.4 -2.46 M-0.39 -2.2 C-0.87 -3.18, -0.6 -4.25, -0.9 -4.94 M-0.43 -2.55 C-0.69 -2.91, -0.84 -3.5, -1.04 -5.17 M-1.24 -5.06 C-1.4 -7.66, -2.63 -9.46, -2.06 -11.39 M-1.3 -5.21 C-1.54 -7.01, -2.01 -9.27, -2.15 -10.97 M-2.08 -10.91 C-2.38 -12.13, -2.81 -14.27, -4.65 -16.72 M-2.31 -10.77 C-2.61 -11.94, -3.2 -13.36, -4.08 -16.61 M-4.03 -16.93 C-5.1 -19.1, -5.4 -21.03, -7 -23.59 M-3.94 -17.12 C-5.11 -19.14, -5.78 -21, -6.37 -23.05 M-6.71 -22.98 C-6.87 -23.42, -6.92 -24.48, -7.88 -26.06 M-6.33 -22.99 C-6.71 -23.84, -7.16 -24.67, -7.92 -25.8 M-7.68 -26.07 C-8.38 -26.94, -8.81 -27.59, -9.68 -28.42 M-7.77 -25.8 C-8.3 -26.71, -8.76 -27.62, -9.52 -28.72 M-9.25 -28.78 C-10.1 -29.14, -10.06 -30.29, -11.11 -31.57 M-9.38 -28.73 C-9.68 -29.31, -10.12 -29.64, -11.05 -31.48 M-10.93 -31.57 C-11.92 -32.19, -12.31 -33.49, -12.82 -34.05 M-11 -31.29 C-11.62 -32.27, -12.34 -33.08, -13.02 -33.73 M-12.8 -33.94 C-13.45 -34.91, -14.11 -35.67, -14.76 -36.22 M-13.05 -33.93 C-13.4 -34.41, -13.83 -35.15, -15.04 -36.09 M-15.03 -35.82 C-15.76 -36.28, -16.23 -36.95, -17.08 -37.92 M-15 -36.01 C-15.76 -36.71, -16.58 -37.59, -17.2 -38.08 M-17.5 -38.23 C-18.41 -38.75, -19.23 -39.03, -19.67 -39.69 M-17.34 -38 C-17.9 -38.55, -18.41 -38.79, -19.74 -39.79 M-19.46 -39.79 C-20.29 -40, -21.12 -40.64, -22.42 -41.1 M-19.7 -39.77 C-20.66 -40.24, -21.78 -40.58, -22.23 -41.06 M-22.84 -40.95 C-24.27 -41.25, -25.68 -41.85, -27.67 -43.41 M-22.58 -41.08 C-23.78 -41.46, -24.75 -42.24, -27.67 -43.01 M-27.84 -43.12 C-29.71 -43.48, -31.56 -44.4, -32.7 -44.8 M-27.65 -43.41 C-28.94 -43.96, -31.03 -44.31, -32.75 -44.91 M-32.37 -44.73 C-34.15 -45.05, -34.9 -45.2, -37.28 -46.92 M-32.45 -45.06 C-33.78 -45.45, -34.91 -45.5, -37.69 -46.28 M-38.13 -46.06 C-39.47 -46.3, -40.07 -47.45, -42.58 -47.08 M-37.87 -46.26 C-39.14 -46.91, -41.18 -47.01, -43.01 -47.44 M-43.17 -47.11 C-44.31 -47.32, -45.26 -47.28, -48.31 -48.11 M-42.72 -47.64 C-44.53 -47.43, -46.5 -48.03, -47.94 -48.09 M-47.65 -47.82 C-49.34 -48.66, -50.73 -48.45, -53.24 -47.9 M-48.06 -48.31 C-49.67 -47.98, -51.61 -48.16, -53.07 -48.1 M-53.01 -48.21 C-54.37 -48.24, -54.77 -48.34, -58.58 -47.97 M-53.08 -48.19 C-54.88 -48.24, -56.6 -48.23, -57.9 -48.09 M-58.24 -48.5 C-59.56 -47.97, -60.84 -47.76, -63.2 -47.42 M-58.31 -48.07 C-59.24 -47.91, -60.32 -48.09, -62.94 -47.63 M-63.33 -47.36 C-64.62 -47.66, -65.43 -47.03, -68.06 -46.17 M-63.12 -47.33 C-64.81 -46.92, -66.73 -46.51, -67.73 -46.43 M-67.6 -45.98 C-69.02 -45.74, -70.26 -45.38, -72.53 -45.09 M-67.85 -46.61 C-69.49 -45.81, -71.46 -44.93, -72.49 -44.98 M-72.99 -45.23 C-74.13 -44.13, -75.2 -44.13, -76.69 -43.17 M-72.83 -44.94 C-73.56 -44.54, -74.51 -43.7, -77.17 -42.75 M-77.46 -42.9 C-78.37 -42.14, -79.31 -41.53, -81.76 -40.65 M-77.03 -42.97 C-78.49 -42.19, -79.5 -41.35, -81.5 -40.35 M-81.31 -40.74 C-82.52 -39.05, -83.8 -38.71, -85.36 -37.19 M-81.57 -40.11 C-83.21 -39.24, -84.87 -38.12, -85.62 -37.2 M-85.54 -37.69 C-87.02 -36.86, -87.71 -35.2, -89.94 -34.08 M-85.86 -37.2 C-87.18 -36.11, -88.28 -34.99, -89.62 -33.69 M-89.12 -34.03 C-90.47 -33.17, -91.5 -31.25, -92.94 -29.19 M-89.59 -33.7 C-90.55 -32.68, -91.75 -31.2, -93.11 -29.91 M-93.6 -29.46 C-93.92 -29.15, -94.68 -28.09, -96.5 -25.65 M-93.45 -29.86 C-94.72 -28.2, -95.86 -26.23, -96.92 -25.2 M-96.8 -25.42 C-97.44 -23.77, -98.5 -22.5, -98.62 -21.96 M-96.55 -25.25 C-97.3 -24.03, -98 -23.51, -98.98 -21.89 M-99.23 -22.14 C-99.61 -20.96, -100.06 -19.69, -100.75 -18.99 M-98.75 -21.85 C-99.29 -21.18, -99.65 -20.25, -100.89 -18.64 M-100.48 -18.42 C-101.11 -17.91, -101.24 -17.33, -101.83 -15.47 M-100.63 -18.63 C-101.11 -17.54, -101.84 -16.49, -102.27 -15.36 M-102.27 -15.21 C-102.4 -14.42, -102.63 -13.61, -102.86 -12.15 M-102.25 -15.29 C-102.29 -14.71, -102.43 -13.9, -103.18 -12.01 M-103.49 -12.15 C-103.34 -11.56, -103.75 -10.66, -104.18 -8.84 M-103.25 -12.02 C-103.35 -10.9, -103.55 -9.76, -103.99 -8.69 M-104.1 -8.57 C-104.13 -8.07, -103.7 -6.88, -104.49 -5.88 M-103.83 -8.85 C-104.06 -7.82, -104.03 -6.83, -104.12 -5.73 M-103.89 -5.52 C-104.39 -5.1, -104.1 -4.43, -104.44 -2.3 M-104.19 -5.48 C-104.03 -4.83, -104.03 -4.17, -104.12 -2.47 M-104.05 -2.51 C-104.1 -1.81, -103.67 -1.1, -103.52 0.8 M-104.2 -2.37 C-104.09 -1.59, -103.87 -0.97, -103.68 0.92 M-104.09 0.95 C-103.39 1.74, -103.31 2.23, -103.47 4.09 M-103.83 0.79 C-103.76 1.66, -103.34 2.55, -103.04 4.06 M-103.44 4.07 C-103 5.09, -102.45 6.48, -102.14 7.3 M-103.17 3.97 C-102.69 4.99, -102.49 6.24, -102.39 7.16 M-102.24 7.21 C-102.15 7.85, -101.44 8.99, -100.74 9.77 M-102.14 7.04 C-101.91 7.94, -101.59 8.62, -100.91 10 M-100.98 9.84 C-100.4 10.75, -100.28 12.05, -99.58 12.91 M-100.92 9.98 C-100.76 10.6, -100.27 11.17, -99.76 13.04 M-99.39 13.06 C-99.07 14.15, -98.71 15.06, -97.64 15.62 M-99.64 13.07 C-99.11 13.4, -98.92 14.12, -97.95 15.77 M-97.96 15.57 C-97.72 16.56, -96.65 16.76, -96.02 18.02 M-97.77 15.83 C-97.41 16.17, -97.12 16.91, -95.88 18.46 M-96.24 18.14 C-95.39 19.46, -94.69 20.3, -93.64 20.73 M-96.15 18.18 C-95.46 18.96, -94.86 19.69, -93.84 20.82 M-93.7 20.88 C-93.34 21.21, -92.7 22.06, -91.34 22.84 M-93.77 20.69 C-93.33 21.35, -92.93 21.98, -91.7 23.15 M-91.9 23.18 C-91.01 24.12, -90 24.41, -89.49 25.01 M-91.72 23.14 C-91.13 23.56, -90.37 24.43, -89.3 25.26 M-89.49 24.88 C-88.23 25.97, -87.63 26.09, -86.34 27.44 M-89.05 25.07 C-88.07 26.13, -87.3 26.62, -86.5 27.02 M-86.4 26.83 C-85.68 27.49, -84.51 28.06, -83.97 29.14 M-86.67 27.27 C-86.1 27.55, -85.58 27.96, -83.86 28.87 M-83.99 28.81 C-83 28.95, -82.51 29.47, -80.86 30.39 M-83.86 28.8 C-83.01 29.22, -82.23 29.53, -81.1 30.45 M-80.77 30.13 C-79.72 30.45, -79 31.03, -77.81 31.37 M-80.9 30.38 C-80.18 30.56, -79.59 31.01, -78.1 31.44 M-77.8 31.43 C-77.12 32, -76.19 31.83, -75.05 32.69 M-78.17 31.42 C-77.35 31.87, -76.52 32.01, -74.95 32.41 M-75.03 32.67 C-74.26 33.03, -72.99 33.12, -71.72 33.36 M-74.9 32.44 C-73.71 32.71, -72.36 33.03, -71.7 33.09 M-72.15 32.99 C-70.84 33.59, -69.73 33.58, -68.73 33.89 M-71.76 33.1 C-70.88 33.39, -70.08 33.34, -68.71 33.6 M-68.87 33.86 C-68.07 33.77, -67.33 33.66, -65.75 33.65 M-68.73 33.6 C-67.78 33.67, -67.03 33.57, -65.42 33.62 M-65.7 33.84 C-63.97 33.88, -62.62 33.79, -62.04 33.33 M-65.41 33.7 C-64.3 33.87, -63.24 33.55, -62.33 33.64 M-62.32 33.59 C-61.33 33.23, -60.31 33.09, -59.3 32.9 M-62.4 33.5 C-61.35 33.4, -60.37 33.29, -59.13 33.16 M-59.01 33.25 C-57.76 32.86, -56.66 32.51, -56.06 32.16 M-59.06 33.09 C-57.89 32.82, -57.09 32.52, -55.67 32.29 M-55.67 32.24 C-55.04 31.94, -54.1 31.32, -52.39 30.61 M-55.85 31.99 C-55.08 31.82, -54.4 31.67, -52.77 30.88 M-52.64 31.24 C-51.69 30.56, -50.7 30.17, -49.61 29.41 M-52.73 30.8 C-51.94 30.63, -51.21 30.25, -49.51 29.14 M-49.61 29.32 C-48.41 28.88, -47.61 27.9, -46.38 27.12 M-49.57 29.4 C-48.7 28.5, -47.56 28, -46.36 27.23 M-46.5 27.32 C-45.27 26.6, -44.46 25.65, -43.81 24.47 M-46.51 27.43 C-45.24 26.35, -43.94 25.47, -43.56 24.65 M-43.74 24.88 C-43.72 26.15, -43.54 26.94, -43.48 28.57 M-43.32 24.88 C-43.33 26.07, -43.45 27.24, -43.24 28.36 M-43.31 28.16 C-43.77 29.52, -43.28 30.6, -43.86 32.14 M-43.43 28.42 C-43.63 29.47, -43.53 30.58, -43.63 32.11 M-43.98 32.07 C-43.55 32.54, -43.93 33.26, -44.13 35.38 M-43.72 32.11 C-43.56 32.85, -43.71 33.64, -44.07 35.64 M-44.12 35.51 C-44.34 36.94, -44.7 37.55, -44.9 39.66 M-44.25 35.58 C-44.22 36.84, -44.77 38.01, -44.96 39.49 M-45.17 39.47 C-45.39 41.26, -45.62 42.37, -46.15 42.81 M-44.97 39.51 C-45.23 40.63, -45.41 41.34, -45.95 43.29 M-45.88 43.08 C-46.45 43.88, -46.82 44.99, -47.52 46.59 M-46.09 43.2 C-46.4 44.59, -47.07 45.79, -47.13 46.76 M-47.09 46.55 C-47.37 47.09, -47.93 47.94, -48.57 49.72 M-47.09 46.72 C-47.73 47.74, -48.23 48.94, -48.71 49.63 M-48.92 49.56 C-49.07 50.74, -49.92 51.18, -50.46 52.34 M-48.55 49.69 C-49.34 50.66, -49.82 51.83, -50.36 52.54 M-50.48 52.47 C-51.02 52.71, -51.56 52.64, -52.15 52.81 M-50.4 52.46 C-50.85 52.61, -51.4 52.78, -52.01 52.88 M-51.98 52.88 C-52.63 53.04, -53.01 53.17, -53.49 53.14 M-52.01 52.91 C-52.47 53.05, -52.89 53.1, -53.53 53.17 M-53.57 53 C-54.02 53.16, -54.35 53.24, -54.91 53.04 M-53.62 53.17 C-54.15 53.07, -54.66 53.1, -55 53.04 M-55 53.18 C-55.52 53.14, -55.9 52.89, -56.36 52.9 M-55 53.04 C-55.42 53, -55.76 52.98, -56.37 52.81 M-56.27 52.78 C-56.69 52.78, -57.08 52.53, -57.79 52.25 M-56.36 52.89 C-56.86 52.74, -57.21 52.49, -57.76 52.36 M-57.73 52.37 C-58.07 52.09, -58.65 52.04, -58.97 51.72 M-57.73 52.34 C-57.95 52.22, -58.23 52.11, -58.93 51.76 M-59.14 51.81 C-59.55 50.96, -60.88 50.15, -61.22 49.67 M-58.94 51.73 C-59.54 51.19, -60.3 50.77, -61 49.85 M-61.1 50.17 C-61.74 49.12, -62.47 48.28, -63.04 47.47 M-61.13 49.81 C-61.66 49.26, -62.12 48.82, -62.84 47.53 M-62.82 47.54 C-63.46 46.82, -63.85 46.29, -64.49 44.75 M-62.86 47.74 C-63.38 46.92, -63.75 46.32, -64.64 45.04 M-64.54 45.11 C-64.79 44.26, -65.67 43.12, -66 42.46 M-64.42 45.14 C-64.87 44.04, -65.28 43.36, -65.65 42.3 M-65.85 42.04 C-65.77 41.25, -66.58 40.77, -66.78 39.25 M-65.76 42.19 C-65.98 41.58, -66.11 40.73, -66.68 39.46 M-66.6 39.5 C-66.89 39.18, -67.01 38.87, -67.18 38.38 M-66.72 39.53 C-66.82 39.25, -66.94 38.88, -67.07 38.43 M-67.07 38.48 C-67.21 38.33, -67.26 38.23, -67.43 38.09 M-67.09 38.49 C-67.21 38.32, -67.36 38.22, -67.48 38.11 M-67.52 38.1 C-67.63 38.1, -67.81 38.07, -67.99 37.98 M-67.48 38.11 C-67.65 38.08, -67.84 38, -68.02 38 M-68.13 38.27 C-68.97 38.11, -70 38.64, -70.9 38.46 M-68.15 37.84 C-68.72 37.96, -69.31 38.13, -70.97 38.48 M-70.86 38.85 C-72.1 38.95, -72.51 38.64, -73.97 39 M-71.06 38.7 C-72.08 38.77, -73.14 39.04, -74.17 39.25 M-74.61 38.99 C-76.43 39.32, -79.11 39.64, -79.98 40.26 M-73.96 38.82 C-75.72 39.77, -78.02 39.98, -80.69 40.41 M-80.58 39.94 C-81.08 40.21, -81.82 40.21, -83.99 40.58 M-80.38 40.11 C-81.14 40.22, -82.12 40.57, -83.52 40.66 M-83.76 40.71 C-84.63 40.61, -85.47 41.03, -87.18 41.35 M-83.68 40.62 C-84.39 40.8, -85.09 41.03, -86.81 41.38 M-86.92 41.35 C-87.98 41.93, -88.69 42.01, -89.85 42.36 M-87.02 41.28 C-87.52 41.63, -88.39 41.91, -89.95 42.43 M-90.2 42.71 C-90.84 42.62, -92.15 43.5, -93 43.84 M-90.16 42.26 C-90.84 42.9, -91.72 43.09, -93 43.61 M-92.91 43.58 C-93.59 44.31, -94.1 44.6, -94.98 45.32 M-93.03 43.72 C-93.75 44.14, -94.42 44.78, -94.88 45.16 M-95 45.32 C-95.74 45.58, -96.21 46.66, -96.63 46.48 M-94.68 45.21 C-95.33 45.71, -96.03 46.26, -96.71 46.77 M-96.61 46.49 C-97.69 47.24, -98 47.86, -98.67 48.78 M-96.7 46.69 C-97.31 47.05, -97.64 47.56, -98.93 48.52 M-98.6 48.37 C-99.4 48.98, -99.76 49.61, -100.84 50.64 M-98.72 48.58 C-99.13 48.92, -99.77 49.45, -100.81 50.45 M-100.82 50.29 C-101.22 51.02, -101.73 51.82, -102.33 52.47 M-100.66 50.43 C-101.31 51.04, -101.69 51.83, -102.28 52.53 M-102.29 52.59 C-102.32 52.99, -102.74 53.64, -103.19 54.51 M-102.26 52.46 C-102.51 53.08, -102.68 53.58, -102.97 54.55 M-103.03 54.6 C-103.02 54.97, -103.25 55.08, -103.32 55.62 M-103.1 54.59 C-103.08 54.93, -103.14 55.24, -103.23 55.68 M-103.32 55.79 C-103.15 55.94, -103.24 56.48, -103.2 56.79 M-103.19 55.66 C-103.23 55.96, -103.21 56.34, -103.15 56.85 M-103.12 56.91 C-103.07 57.1, -103.06 57.48, -102.75 57.91 M-103.15 56.83 C-103.01 57.25, -102.96 57.68, -102.9 57.99 M-102.73 58.05 C-102.71 58.28, -102.7 58.39, -102.39 59.09 M-102.82 57.97 C-102.62 58.35, -102.41 58.84, -102.3 59.08 M-102.52 59.1 C-102.18 60.17, -101.81 60.97, -100.85 62.72 M-102.16 58.95 C-101.77 60.3, -101.19 61.63, -100.71 62.55 M-100.55 62.38 C-100.79 63.46, -99.73 64.27, -99.21 65.78 M-100.83 62.51 C-100.47 63.62, -99.87 64.73, -99.43 65.54 M-99.38 65.55 C-99.37 66.03, -98.97 66.57, -98.02 67.99 M-99.53 65.34 C-99.16 65.97, -98.7 66.68, -97.96 68.3 M-97.76 68.28 C-97.65 69.24, -96.98 70.01, -96.47 71.26 M-97.89 68.35 C-97.46 69.1, -97.06 69.69, -96.19 70.96 M-96.14 70.7 C-95.97 71.33, -95.34 71.94, -94.84 73.73 M-96.1 70.91 C-95.71 71.67, -95.32 72.59, -94.61 73.39 M-94.78 73.2 C-93.77 74.26, -93.22 75.06, -92.74 75.63 M-94.58 73.34 C-94.19 73.97, -93.7 74.42, -92.89 75.72 M-92.93 75.74 C-92 76.21, -91.68 76.69, -91.12 77.64 M-92.84 75.8 C-92 76.52, -91.29 77.23, -90.84 77.68 M-90.75 77.82 C-90.46 78.36, -89.63 79.38, -88.97 79.69 M-91.07 77.71 C-90.44 78.17, -90.05 78.66, -89 79.61 M-88.64 79.45 C-88.33 80.81, -86.74 82.05, -84.87 83.18 M-88.91 79.5 C-87.33 81.25, -85.97 82.37, -84.89 83.12 M-85.51 83.13 C-83.98 83.55, -81.91 84.51, -80.52 85.88 M-85.28 82.71 C-83.64 83.86, -82.7 84.51, -81.15 85.55 M-80.94 85.52 C-78.97 86.49, -78.04 86.95, -77.02 87.17 M-80.7 85.53 C-79.47 85.92, -77.85 86.93, -76.58 87.22 M-76.7 86.96 C-75 88.05, -74.05 88.43, -71.68 88.44 M-76.57 87.31 C-75 88.08, -73.06 88.34, -72.07 88.85 M-71.9 88.99 C-70.75 89.14, -69.35 88.82, -67.86 89.13 M-71.86 88.64 C-70.24 88.95, -69 89.2, -67.7 89.06 M-67.13 89.68 C-65.45 89.68, -64.62 89.45, -62.97 89.49 M-67.49 89.25 C-66.1 89.07, -64.48 89.16, -62.88 89.33 M-62.94 89 C-61.01 88.89, -59.52 88.45, -58.18 88.53 M-62.64 89.29 C-61.58 89.35, -60.37 89.12, -58.23 88.69 M-58.27 88.76 C-57.04 88.7, -55.29 88.36, -53.13 87.6 M-58.08 88.67 C-56.93 88.79, -55.63 88.38, -53.39 87.79 M-53.58 87.69 C-52.06 87.2, -50.58 87.32, -48.17 86.55 M-53.47 87.9 C-51.68 87.13, -49.91 86.5, -48.45 86.4 M-48.29 86.06 C-46.99 85.58, -45.93 85.04, -43.72 84.38 M-48.76 86.43 C-47.48 85.64, -45.73 85.02, -44.06 84.11 M-44.22 84.64 C-41.74 83.79, -40.5 82.28, -39.62 82.16 M-43.89 84.44 C-42.32 83.58, -41.31 82.67, -39.04 81.75 M-39.76 81.36 C-37.6 80.64, -36.5 80.19, -34.34 78.78 M-39.31 81.68 C-37.97 80.67, -36.48 79.67, -34.97 78.64 M-34.22 78.49 C-34.01 78.42, -32.35 76.65, -30.73 76.01 M-34.55 78.85 C-33.76 77.83, -32.52 77.14, -30.1 75.53 M-30.61 75.15 C-29.39 74.56, -28.66 74.42, -25.61 71.96 M-30.4 75.86 C-29 74.9, -28.11 73.6, -26.3 71.77 M-26.14 72.42 C-25.05 70.87, -23.12 68.92, -22.16 68.48 M-25.76 72.13 C-24.32 70.35, -23.12 69.3, -22.14 68.36 M-22.44 67.66 C-20.49 66.14, -18.95 64.57, -18.15 64.39 M-22.1 68.04 C-21.06 67.03, -20.06 66.24, -17.84 63.92 M-18.21 63.3 C-17.26 62.3, -15.94 61.05, -14.09 59.71 M-17.99 63.69 C-17.22 62.32, -15.95 61.2, -14.38 59.47 M-14.09 58.81 C-13.43 58, -13.3 57.01, -11.45 54.45 M-14.28 59.22 C-13.27 57.77, -12.43 56.58, -11.24 54.37 M-10.8 55.02 C-10.13 53, -9.12 51.72, -8.42 49.51 M-11.3 54.62 C-10.09 52.77, -8.7 51.05, -8.2 49.47 M-8.38 49.35 C-7.29 47.37, -5.73 46.28, -6.07 44.25 M-8.44 49.56 C-7.55 48.31, -6.51 46.93, -5.44 44.68 M-5.42 44.86 C-4.26 42.91, -4.33 40.74, -2.99 39.71 M-5.31 44.3 C-5.15 43.37, -4.46 41.83, -3.09 39.29 M-2.94 39.71 C-2.6 37.76, -2.69 36.29, -1.43 33.86 M-3.04 38.95 C-2.94 37.88, -2.74 37.2, -1.26 33.55 M-1.28 33.84 C-1.26 31.84, -0.66 31.18, 0.34 28.34 M-1.5 33.84 C-1.15 32.15, -0.69 30.93, 0.39 28.43 M0.58 27.73 C0.71 26.88, 1.17 25.61, 0.76 22.48 M0.1 28.16 C0.14 26.85, 0.78 25.14, 0.9 22.58 M1.28 22.1 C1.66 20.67, 1.09 18.58, 1.46 16.62 M1.34 22.64 C1.31 21.07, 1.3 19.55, 1.86 16.71 M1.16 16.69 C1.92 15.13, 1.39 13.71, 1.12 10.74 M1.66 17.08 C1.96 15.36, 1.66 13.08, 1.66 11.08 M1.94 11.17 C0.94 9.46, 1.44 8.13, 0.84 5.43 M1.42 11.27 C1.4 10.14, 1.49 9.03, 1.06 5.34 M0.61 6.12 C1.34 4.65, 0.26 2.76, 0.28 -0.52 M1.24 5.36 C0.87 3.7, 0.19 1.48, -0.27 0.05 M0 0 C0 0, 0 0, 0 0 M0 0 C0 0, 0 0, 0 0 M0 0 C0 0, 0 0, 0 0 M0 0 C0 0, 0 0, 0 0" stroke="#000000" stroke-width="1" fill="none"/></g></g><g stroke-linecap="round"><g transform="translate(100.24540983093812 95.79300792798222) rotate(0 -39.66005182555841 -18.04042470935525)" fill-rule="evenodd"><path d="M1.31 -1.31 L1.65 1.98 L0.9 5.35 L-2.72 7.91 L-1.81 13.55 L-2.95 15.62 L-6.61 22.79 L-7.02 24.91 L-12.03 26.89 L-10.99 30.62 L-12.29 29.66 L-19.31 30.74 L-23.83 35.3 L-27.99 35.66 L-30.82 38.45 L-36.08 38.47 L-40.2 36.62 L-44.09 37.72 L-49.03 36.41 L-52.57 35.02 L-56.39 33.45 L-58.16 35.05 L-59.43 32.48 L-65.53 25.57 L-65.39 23.25 L-71.45 17.37 L-71.54 12.61 L-69.07 13.26 L-62.37 11.04 L-63.44 12.32 L-61.06 15.55 L-58.05 17.66 L-59.91 19.63 L-54.59 20.41 L-56.47 22.73 L-54.14 23.05 L-50.34 25.37 L-49.82 23.14 L-47.19 25.13 L-46.83 25.29 L-42.74 24.65 L-42.43 21.16 L-42.79 19.63 L-36.37 20.23 L-36.23 15.84 L-30.72 11.02 L-29.07 8.68 L-29.28 3.9 L-25.93 1.83 L-26.16 -4.44 L-25.11 -5.8 L-26.2 -9.97 L-29.23 -8.89 L-30 -11.05 L-26.36 -14.49 L-28.95 -14.64 L-30.83 -14.36 L-30.38 -12.44 L-32.86 -11.04 L-32.72 -11.02 L-38.25 -8.3 L-40.77 -8.33 L-42.48 -8.24 L-44.33 -6.98 L-45.89 -7.45 L-49.24 -6.56 L-54.84 -9.46 L-57.41 -11.56 L-57.78 -12.74 L-58.81 -11.42 L-61.21 -14.71 L-63.47 -16.53 L-65.7 -19.72 L-69.51 -22.19 L-71.56 -25.47 L-73.99 -29.84 L-78.12 -35.01 L-78.24 -40.27 L-81.27 -43.73 L-80.09 -49.1 L-79.34 -51.19 L-80.16 -52.87 L-80.08 -55.22 L-76.88 -59.6 L-76.45 -61.8 L-76.71 -62.21 L-75.38 -68 L-73.83 -66.64 L-69.28 -68.94 L-66.49 -70.77 L-65.57 -71.19 L-61.9 -74.57 L-57.98 -72.71 L-55.31 -74.96 L-50.29 -74.36 L-46.04 -73.77 L-40.35 -71.97 L-37.47 -73.8 L-32.07 -72.29 L-29.05 -70.78 L-27.44 -69.02 L-24.28 -65.35 L-17.67 -66.32 L-17.07 -61.91 L-12.7 -58.91 L-12.3 -55.17 L-8.98 -49.73 L-5.09 -44.92 L-4.13 -40.53 L-2.59 -35.88 L-1.84 -32 L-0.02 -25.71 L0.12 -23.78 L-0.67 -17.02 L1.96 -14.44 L0.11 -9.35 L1.77 -5.48 L-1.09 0.84 L-0.06 -1.21" stroke="none" stroke-width="0" fill="#FFFFFF" fill-rule="evenodd"/><path d="M0 0 C0 0, 0 0, 0 0 M0 0 C0 0, 0 0, 0 0 M-0.21 0.27 C-0.23 1.14, -0.52 2.55, -0.9 4.9 M0.24 -0.17 C-0.34 0.86, -0.21 2.03, -0.91 4.66 M-1.34 4.96 C-1.04 6.22, -1.56 8.66, -2.44 9.49 M-1.06 5.04 C-1.39 6.09, -1.48 6.96, -1.79 9.22 M-1.93 9.14 C-2.94 11.02, -2.78 12, -3.07 13.34 M-2.06 9.49 C-2.44 10.5, -2.62 11.54, -3.49 13.53 M-3.06 13.61 C-3.56 14.42, -4.65 16.2, -5.24 17.15 M-3.27 13.64 C-3.82 14.6, -4.11 15.82, -4.79 17.45 M-4.95 17.29 C-5.26 18.69, -6.42 19.63, -6.35 21.01 M-4.94 17.32 C-5.44 18.8, -6 19.93, -6.68 21.11 M-6.61 21.32 C-6.78 21.78, -7.59 22.55, -8.5 24.43 M-6.38 20.93 C-7.06 22.06, -7.87 23.4, -8.5 24.31 M-8.6 24.04 C-9.2 25.08, -9.94 26.62, -10.5 27.79 M-8.43 24.4 C-8.86 24.92, -9.39 25.7, -10.51 27.6 M-10.78 27.9 C-11.06 28.57, -12.16 29.84, -12.93 30.63 M-10.4 27.55 C-11.16 28.71, -11.69 29.34, -12.37 30.56 M-12.57 30.72 C-12.52 30.66, -12.49 30.62, -12.45 30.6 M-12.55 30.71 C-12.53 30.68, -12.52 30.66, -12.46 30.59 M-12.1 30.12 C-13.16 30.65, -14.43 31.3, -17.76 32.46 M-12.37 30.63 C-13.34 30.75, -14.82 31.49, -17.69 32.77 M-17.91 33.14 C-18.85 33.21, -19.3 33.7, -21.97 34.42 M-17.39 32.89 C-18.34 33.02, -19.4 33.38, -22.16 34.64 M-22.74 34.33 C-23.96 35.3, -25.04 35.37, -27.3 36.05 M-22.47 34.24 C-24.14 35.07, -25.93 35.49, -26.98 35.8 M-26.67 36.16 C-27.65 36.01, -28.89 36.34, -31.11 36.96 M-26.95 35.87 C-28.73 36.48, -29.86 36.72, -31.43 36.9 M-31.76 37.42 C-33.22 37.73, -34.58 37.53, -35.96 37.69 M-31.61 37.2 C-32.5 37.15, -33.63 37.65, -35.51 37.77 M-35.98 38.19 C-37.38 38.14, -38.58 38.37, -39.54 38.53 M-35.46 37.85 C-36.63 38.11, -37.63 38.15, -39.86 38.32 M-40.04 38.57 C-40.6 38.71, -41.16 37.99, -43.89 38.66 M-39.75 38.26 C-40.79 38.45, -41.85 38.43, -43.7 38.39 M-43.94 38.57 C-44.87 37.78, -46.31 38.25, -47.26 37.79 M-43.45 38.22 C-44.73 38.29, -45.78 38.1, -47.43 38 M-47.45 38.04 C-48.53 37.84, -50.3 37.13, -50.82 36.64 M-47.33 38 C-48.81 37.35, -49.93 37.12, -51.05 36.85 M-51.02 36.52 C-51.98 36.36, -52.8 36.46, -54.25 35.29 M-50.91 37.04 C-51.92 36.55, -52.69 36.25, -54.59 35.26 M-54.6 35.4 C-55.21 34.62, -56.97 34.15, -57.54 33.11 M-54.43 35.36 C-55.66 34.55, -56.79 33.85, -57.83 33.35 M-57.88 33.28 C-59.16 32.24, -60.4 31.25, -61.3 30.93 M-57.78 33.42 C-58.47 32.58, -59.03 32.04, -61.1 30.9 M-61.35 30.32 C-61.8 29.88, -62.59 29.31, -63.72 27.83 M-60.88 30.85 C-61.65 30.16, -62.15 29.24, -64.2 27.52 M-64.03 27.72 C-64.87 26.79, -65.45 25.31, -66.68 23.1 M-63.83 27.4 C-65.03 26.35, -65.97 24.64, -67.21 23.36 M-67.46 23.73 C-68.3 21.67, -68.41 20.15, -70.44 19.49 M-67.02 23.32 C-67.99 22.08, -69.15 20.25, -70.22 19.21 M-70.3 19.03 C-71.18 17.31, -72.16 14.94, -73.05 14.08 M-70.21 18.89 C-70.79 17.69, -71.48 16.07, -72.8 13.62 M-72.51 13.94 C-71.38 13.13, -70.37 13.27, -67.52 12.89 M-72.92 13.51 C-71.49 13.09, -69.9 13.03, -68.1 12.37 M-68.26 12.09 C-66.29 12.35, -64.85 11.39, -63.46 11.01 M-68.19 12.57 C-66.45 12.15, -64.75 11.73, -63.64 11.48 M-63.5 11.15 C-63.23 12.33, -62.69 13.01, -62.24 14.17 M-63.42 11.27 C-63.06 12.27, -62.62 12.98, -62.36 14.09 M-62.18 13.87 C-61.86 14.42, -61.55 14.97, -60.74 16.71 M-62.39 14.04 C-61.95 14.95, -61.55 15.55, -60.78 16.57 M-60.85 16.55 C-60.48 17.27, -59.73 17.86, -59.51 18.33 M-60.89 16.61 C-60.47 17.04, -60.01 17.8, -59.43 18.5 M-59.52 18.46 C-59.02 19.1, -58.6 19.3, -58.06 20.27 M-59.43 18.48 C-58.94 19.03, -58.69 19.46, -58 20.21 M-57.96 20.19 C-57.34 20.48, -56.76 20.98, -56.29 21.38 M-57.87 20.25 C-57.7 20.52, -57.35 20.77, -56.33 21.57 M-56.3 21.54 C-55.78 21.71, -55.21 22.13, -54.86 22.79 M-56.31 21.55 C-55.72 21.95, -55.24 22.31, -54.75 22.68 M-54.71 22.46 C-54.21 22.8, -53.6 23.18, -52.88 23.46 M-54.66 22.61 C-54.18 22.77, -53.87 23.08, -53.05 23.36 M-53.11 23.33 C-52.28 23.67, -52.07 23.48, -51.24 23.89 M-53.07 23.34 C-52.53 23.43, -52.05 23.53, -51.37 23.86 M-51.42 23.72 C-50.82 23.77, -50.57 23.95, -49.65 23.97 M-51.21 23.81 C-50.82 23.79, -50.49 23.84, -49.6 24.04 M-49.56 23.91 C-48.96 23.89, -48.57 23.99, -47.92 24.1 M-49.56 24.06 C-48.85 23.99, -48.21 24.04, -47.82 24.04 M-47.66 24.01 C-47.25 23.76, -47.05 23.88, -46.1 23.69 M-47.85 23.97 C-47.05 23.91, -46.4 23.81, -45.95 23.68 M-46.14 23.62 C-45.68 23.61, -45.27 23.63, -44.18 23.26 M-45.96 23.63 C-45.36 23.52, -44.77 23.36, -44.29 23.13 M-44.43 23.14 C-43.56 23, -42.79 22.47, -42.62 22.59 M-44.3 23.22 C-43.9 22.98, -43.4 22.83, -42.55 22.45 M-42.46 22.33 C-42.08 22.22, -41.35 21.82, -41.06 21.7 M-42.59 22.44 C-42.08 22.2, -41.85 22.1, -40.84 21.58 M-40.95 21.86 C-40.41 21.18, -38.89 20.23, -38.05 19.24 M-40.7 21.44 C-39.84 20.86, -38.83 20.1, -37.74 19.09 M-38.01 19.45 C-36.13 17.69, -35.39 16.53, -35.05 15.85 M-37.49 19.07 C-36.74 18.3, -35.6 17.44, -34.5 16.07 M-34.93 16.44 C-34.15 15.03, -32.44 13.65, -32.13 12.99 M-34.77 16.11 C-33.85 14.93, -32.73 13.83, -32.16 12.68 M-32.13 12.41 C-31.48 11.55, -30.4 10, -30.13 8.7 M-32.06 12.66 C-31.68 11.53, -30.86 10.37, -29.78 8.97 M-30.32 9.11 C-29.81 7.58, -29.66 6.81, -28.39 4.44 M-30.15 8.59 C-29.63 7.99, -29.29 6.87, -28.32 4.74 M-28.02 4.87 C-27.91 3.04, -27.34 2.55, -26.88 -0.2 M-28.12 4.79 C-28.27 3.53, -27.78 2.59, -27.19 0.3 M-27.32 -0.08 C-26.9 -1.71, -27.26 -2.64, -27.37 -4.18 M-27.41 0.29 C-27.37 -1.02, -27.09 -2.51, -27 -4.13 M-26.96 -4.48 C-27.21 -4.96, -26.94 -5.31, -27.13 -6.47 M-26.97 -4.28 C-27.05 -5.08, -27.14 -5.59, -27.07 -6.44 M-26.92 -6.67 C-27.21 -7.14, -27.17 -7.76, -27.61 -8.55 M-27.04 -6.51 C-27.22 -7.04, -27.38 -7.84, -27.48 -8.76 M-27.43 -8.55 C-27.55 -9.43, -27.83 -9.69, -28.18 -10.83 M-27.49 -8.61 C-27.53 -9.22, -27.71 -9.84, -28.01 -10.79 M-28.23 -10.61 C-28.31 -11.47, -28.52 -12.27, -28.61 -12.77 M-28.02 -10.88 C-28.22 -11.55, -28.45 -12.29, -28.77 -12.99 M-28.86 -12.83 C-28.58 -13.2, -28.29 -13.45, -28.04 -13.74 M-28.82 -12.9 C-28.63 -13.24, -28.36 -13.48, -28.09 -13.81 M-28.05 -13.79 C-28.34 -13.52, -28.75 -13.24, -28.9 -13 M-28 -13.83 C-28.32 -13.61, -28.56 -13.33, -28.79 -12.95 M-28.75 -12.92 C-28.82 -13.25, -28.97 -13.75, -29.22 -14.21 M-28.83 -12.92 C-29.01 -13.41, -29.15 -13.73, -29.32 -14.28 M-29.27 -14.44 C-29.17 -14, -29.39 -13.53, -29.23 -12.8 M-29.3 -14.35 C-29.24 -13.91, -29.31 -13.42, -29.12 -12.62 M-29.17 -12.51 C-30.04 -12.03, -30.88 -11.7, -31.86 -11.25 M-29.03 -12.62 C-30.03 -12.1, -30.73 -11.45, -31.84 -11.01 M-32.05 -10.81 C-32.66 -10.72, -32.8 -10.61, -34.83 -9.36 M-31.78 -11.03 C-32.37 -10.66, -33.21 -10.37, -34.49 -9.55 M-34.62 -9.44 C-35.42 -9.01, -36.16 -8.89, -37.48 -8.41 M-34.51 -9.56 C-35.01 -9.4, -35.65 -9.3, -37.25 -8.46 M-37.06 -8.46 C-37.91 -8.56, -38.8 -8.3, -39.89 -7.81 M-37.34 -8.68 C-38.27 -8.31, -39.33 -8.06, -39.94 -8.06 M-39.72 -7.91 C-40.47 -8, -41.65 -7.98, -42.37 -7.76 M-39.9 -7.91 C-40.53 -7.76, -41.48 -7.83, -42.59 -7.72 M-42.79 -7.35 C-43.2 -7.53, -43.72 -7.35, -45.1 -7.69 M-42.51 -7.57 C-43.43 -7.59, -44.12 -7.49, -45.19 -7.44 M-45.47 -7.56 C-46.1 -7.79, -47.47 -7.63, -47.85 -7.94 M-45.34 -7.51 C-46.13 -7.59, -47.06 -7.61, -48 -7.8 M-47.73 -7.93 C-48.63 -8.1, -49.27 -8.35, -50.68 -8.19 M-47.74 -7.76 C-48.59 -7.91, -49.43 -8.2, -50.52 -8.27 M-50.46 -8.18 C-51.43 -8.69, -52.15 -8.81, -53.05 -9.19 M-50.34 -8.32 C-51.47 -8.54, -52.27 -8.96, -52.87 -9.1 M-53.04 -8.93 C-53.7 -9.48, -54.68 -10.07, -55.58 -10.19 M-53.01 -9.03 C-53.86 -9.57, -54.78 -9.84, -55.57 -10.14 M-55.64 -10.23 C-56.55 -10.41, -57.36 -11.11, -57.62 -11.62 M-55.42 -10.16 C-56.3 -10.68, -56.93 -10.91, -58 -11.44 M-57.76 -11.62 C-58.79 -11.99, -59.42 -12.54, -60.04 -13.13 M-57.85 -11.46 C-58.32 -11.69, -58.87 -12.17, -60.24 -13.07 M-60.09 -12.71 C-60.87 -13.32, -61.14 -13.73, -62.28 -14.65 M-60.22 -13 C-60.95 -13.45, -61.84 -14.11, -62.39 -14.67 M-62.52 -14.44 C-63.09 -15.36, -63.84 -15.84, -64.61 -16.58 M-62.35 -14.54 C-62.94 -14.89, -63.34 -15.48, -64.58 -16.36 M-64.81 -16.37 C-65.13 -16.78, -65.48 -17.49, -66.71 -18.69 M-64.6 -16.37 C-65.31 -17.1, -65.96 -17.85, -66.73 -18.62 M-66.85 -18.45 C-67.24 -18.78, -67.3 -19.65, -68.41 -20.8 M-66.76 -18.63 C-67.37 -19.27, -67.88 -20.11, -68.61 -20.59 M-69.06 -20.27 C-70.28 -22.69, -70.91 -23.83, -72.3 -25.14 M-68.71 -20.89 C-69.99 -22.58, -71.22 -24.58, -72.14 -25.65 M-71.78 -25.22 C-73.03 -27.67, -74.7 -29.86, -74.85 -31.02 M-72.25 -25.25 C-72.96 -27.42, -74.39 -29.04, -74.88 -30.36 M-74.79 -30.92 C-76.32 -32.16, -76.88 -34.59, -77.78 -35.93 M-74.96 -30.7 C-75.74 -32.42, -76.61 -34.16, -77.02 -36.04 M-76.82 -36.25 C-78.3 -38.43, -78.59 -40.56, -78.96 -41.62 M-77.28 -36.19 C-78.17 -38.26, -78.33 -40.77, -78.76 -41.63 M-78.87 -41.81 C-79.08 -42.54, -79.18 -43.32, -79.48 -44.57 M-78.93 -41.85 C-79.06 -42.65, -79.08 -43.8, -79.44 -44.58 M-79.45 -44.78 C-79.52 -45.27, -79.49 -46.18, -79.88 -47.67 M-79.44 -44.75 C-79.55 -45.54, -79.67 -46.21, -79.61 -47.54 M-79.53 -47.33 C-79.98 -48.39, -79.95 -49.07, -79.71 -50.23 M-79.62 -47.6 C-79.67 -48.04, -79.63 -48.74, -79.76 -50.29 M-79.49 -50.54 C-79.96 -51.09, -79.77 -52.39, -79.75 -53.35 M-79.76 -50.34 C-79.61 -51.47, -79.68 -52.38, -79.65 -53.17 M-79.86 -53.25 C-79.78 -53.95, -79.66 -54.7, -79.25 -56.15 M-79.71 -53.06 C-79.52 -54.2, -79.26 -55.28, -79.26 -55.84 M-79.27 -56.15 C-78.74 -57.17, -78.56 -58.21, -78.47 -58.67 M-79.18 -56.06 C-79.04 -57.01, -78.85 -58.1, -78.6 -58.74 M-78.57 -58.45 C-78.31 -59.01, -78.06 -59.9, -77.68 -61.38 M-78.66 -58.58 C-78.33 -59.8, -77.94 -60.63, -77.69 -61.3 M-77.68 -61.33 C-77.35 -61.79, -77.06 -62.85, -76.82 -63.65 M-77.77 -61.38 C-77.43 -61.87, -77.3 -62.4, -76.66 -63.65 M-76.89 -63.61 C-76.04 -64.8, -75.74 -65.41, -75.06 -66.12 M-76.71 -63.81 C-76.27 -64.49, -75.89 -65.2, -75.11 -66.35 M-75.26 -66.4 C-74.99 -66.92, -74.03 -67.3, -73.22 -68.55 M-75.09 -66.2 C-74.6 -66.97, -73.96 -67.69, -73.31 -68.64 M-73.1 -68.56 C-72.4 -69.2, -72.1 -69.67, -70.88 -70.13 M-73.09 -68.57 C-72.46 -68.96, -71.56 -69.69, -70.79 -70.35 M-70.8 -70.67 C-69.71 -71, -69.04 -71.51, -68.1 -71.61 M-70.71 -70.41 C-70.04 -70.66, -69.54 -71.02, -67.97 -71.89 M-68.18 -71.61 C-67.12 -72.13, -65.94 -72.56, -64.99 -73.02 M-67.87 -71.85 C-67.37 -71.99, -66.55 -72.28, -64.67 -72.86 M-64.56 -73.22 C-64.16 -72.92, -63.29 -73.22, -61.29 -73.59 M-64.7 -72.91 C-63.37 -73.39, -62.04 -73.7, -61.13 -73.7 M-61.14 -73.69 C-59.81 -74.21, -59.4 -73.79, -57.29 -74.69 M-61.37 -73.95 C-60.5 -73.89, -59.6 -74.04, -57.36 -74.2 M-57.83 -74.64 C-55.87 -74.08, -54.38 -74.91, -53.47 -74.19 M-57.35 -74.3 C-56.33 -74.4, -55.39 -74.42, -53.61 -74.64 M-54.02 -74.64 C-52.45 -74.5, -51.33 -74.07, -49.94 -74.74 M-53.74 -74.65 C-52.72 -74.46, -52.19 -74.48, -49.61 -74.38 M-49.65 -74.69 C-47.94 -74.52, -47.21 -73.87, -45.86 -73.99 M-49.49 -74.5 C-48.77 -74.3, -47.81 -74.25, -45.42 -73.98 M-45.56 -74.4 C-44.28 -74.18, -43.51 -73.69, -41.32 -73.27 M-45.78 -74.27 C-44.12 -73.94, -42.92 -73.54, -41.5 -73.35 M-41.33 -73.72 C-40.16 -73.48, -38.9 -73.03, -37.67 -73.02 M-41.67 -73.38 C-40.21 -73.22, -38.66 -72.96, -37.61 -72.71 M-37.18 -72.28 C-37.01 -72.67, -36.15 -72.39, -33.7 -71.16 M-37.42 -72.52 C-36.48 -72.21, -35.48 -72.07, -33.6 -71.46 M-33.41 -71.9 C-32.34 -70.75, -30.81 -70.57, -30.05 -69.86 M-33.71 -71.63 C-32.47 -70.89, -31.11 -70.47, -29.94 -70.02 M-29.9 -70.29 C-29.34 -69.8, -27.94 -69.63, -26.15 -69 M-29.73 -70.15 C-29.18 -69.78, -28.52 -69.39, -26.56 -68.65 M-26.38 -68.45 C-25.94 -68.5, -25.21 -67.87, -22.99 -66.59 M-26.38 -68.69 C-25.64 -68.1, -25.03 -67.9, -23.29 -66.89 M-23.54 -66.6 C-22.54 -66, -21.16 -65.12, -19.25 -64.42 M-23.24 -66.85 C-21.67 -65.71, -20.06 -64.7, -19.56 -64.39 M-19.98 -64.21 C-18.08 -63.39, -17.12 -62.18, -15.87 -61.79 M-19.71 -64.39 C-18.84 -63.79, -17.92 -62.95, -16.41 -61.74 M-16.61 -61.64 C-15.83 -61, -15.06 -60.48, -13.61 -58.39 M-16.36 -61.76 C-15.38 -60.7, -14.69 -59.65, -13.32 -58.17 M-13.66 -58.02 C-12.51 -56.81, -11.91 -55.46, -10.87 -54.95 M-13.28 -58.11 C-12.3 -56.82, -11.18 -55.41, -10.8 -54.43 M-10.94 -54.98 C-9.85 -53.62, -9.6 -51.44, -8.36 -50.58 M-10.68 -54.7 C-10.23 -53.35, -9.49 -52.43, -8.29 -50.77 M-8.13 -50.52 C-7.52 -48.85, -6.88 -47.42, -6.79 -46.61 M-8.47 -50.56 C-7.77 -49.46, -7.51 -48.16, -6.48 -46.13 M-6.04 -46.45 C-5.82 -45.04, -5.57 -43.36, -4.38 -42.07 M-6.29 -46.29 C-5.86 -45.3, -5.43 -44.21, -4.6 -41.97 M-5.13 -42.06 C-4.48 -40.22, -3.84 -39.3, -3.74 -37.62 M-4.58 -41.89 C-4.23 -40.21, -3.81 -38.89, -3.35 -37.36 M-3.81 -37.07 C-3.15 -35.73, -2.59 -34.74, -1.74 -32.8 M-3.2 -36.94 C-3.13 -36.05, -2.65 -34.9, -2.06 -32.38 M-2.64 -32.75 C-1.92 -31.71, -1.49 -29.96, -1.38 -27.17 M-1.99 -32.18 C-1.96 -30.49, -1.84 -28.81, -1.22 -27.4 M-0.82 -27.21 C-1.23 -26.31, -1.47 -25.62, -0.48 -22.44 M-1.32 -27.77 C-0.91 -26.1, -0.92 -25.18, -0.6 -22.7 M-0.46 -22.42 C-0.83 -21.1, 0.04 -20.24, 0.16 -17.66 M-0.72 -22.48 C-0.3 -21.71, -0.42 -20.51, -0.27 -17.7 M0.02 -17.49 C0.38 -16.31, -0.32 -14.68, 0.38 -13.37 M0.07 -17.72 C-0.16 -15.86, -0.11 -14.4, 0.22 -13.08 M0.56 -12.71 C-0.11 -11.22, 0.09 -9.49, 0.27 -8.77 M0.08 -13.35 C0.28 -12.02, 0.12 -10.59, 0.41 -8.49 M0.27 -8.72 C-0.02 -7.25, 0.1 -5.4, -0.09 -3.9 M0.34 -8.39 C0.44 -7.18, 0.1 -6.01, 0.22 -4.18 M-0.2 -3.96 C-0.06 -2.78, 0.23 -1.91, -0.15 0.39 M0.12 -3.96 C0.12 -3.2, 0.06 -2.36, -0.06 -0.19 M0 0 C0 0, 0 0, 0 0 M0 0 C0 0, 0 0, 0 0 M0 0 C0 0, 0 0, 0 0 M0 0 C0 0, 0 0, 0 0" stroke="#000000" stroke-width="1" fill="none"/></g></g><g stroke-linecap="round"><g transform="translate(65.69536100281312 59.63303478345097) rotate(0 -7.941474801451363 -7.556051113535034)" fill-rule="evenodd"><path d="M-0.37 1.89 L1.87 -1.96 L-3.55 1.58 L-2.84 1.2 L-5.07 1.96 L-8.59 1.6 L-8.85 0.42 L-10.32 -0.83 L-14.35 0.91 L-15.03 0.91 L-15.1 -3.53 L-17.79 -3.13 L-18.71 -6.82 L-17.72 -7.82 L-18.82 -9.8 L-18.01 -8.99 L-15.16 -12.28 L-13.91 -15.38 L-13.59 -17.03 L-13.41 -16.4 L-11.59 -16.45 L-9.61 -17.45 L-8.09 -15.11 L-6.63 -14.69 L-3.73 -17.14 L-0.63 -13.22 L-1.2 -13.62 L0.17 -11.08 L2.74 -10.54 L3.48 -7.24 L1.27 -4.86 L0.95 -5.62 L1.5 -0.44 L0.16 0.94 L-1.88 -1.89" stroke="none" stroke-width="0" fill="#FFFFFF" fill-rule="evenodd"/><path d="M0 0 C0 0, 0 0, 0 0 M0 0 C0 0, 0 0, 0 0 M-0.04 -0.01 C-0.59 0.4, -1.36 0.94, -1.56 1.28 M0.05 0 C-0.4 0.17, -0.69 0.53, -1.56 1 M-1.58 1.22 C-2.4 1.36, -2.9 1.57, -3.55 1.65 M-1.67 1.06 C-2.24 1.32, -2.95 1.59, -3.42 1.8 M-3.33 1.62 C-3.78 1.8, -4.41 1.77, -5.33 2.07 M-3.36 1.75 C-4.16 1.91, -4.75 2.07, -5.28 2.17 M-5.42 2.16 C-6.05 1.98, -6.54 2.12, -7.1 2.15 M-5.25 2.19 C-5.92 2.13, -6.57 2.12, -7.16 2.07 M-7.31 1.9 C-7.57 2, -8.07 2.04, -9.14 1.69 M-7.12 2.06 C-7.71 2.06, -8.21 1.85, -9.02 1.75 M-9.03 1.66 C-9.74 1.54, -10.32 1.47, -10.85 1.34 M-9.05 1.81 C-9.53 1.55, -9.97 1.48, -10.87 1.11 M-10.99 1.33 C-11.19 1.05, -11.68 0.89, -12.4 0.29 M-10.9 1.15 C-11.36 0.88, -11.72 0.68, -12.53 0.21 M-12.53 0.18 C-13.28 -0.15, -13.67 -0.51, -14.08 -0.74 M-12.5 0.24 C-12.81 -0.04, -13.27 -0.19, -14.12 -0.8 M-13.98 -0.89 C-14.45 -1.15, -15.14 -1.59, -15.3 -1.88 M-14.1 -0.7 C-14.4 -1.17, -14.89 -1.44, -15.43 -1.96 M-15.27 -2.1 C-15.74 -2.4, -16.03 -2.77, -16.62 -3.37 M-15.43 -2.02 C-15.83 -2.44, -16.2 -2.93, -16.44 -3.51 M-16.42 -3.36 C-16.71 -4.05, -17.33 -4.66, -17.26 -4.89 M-16.49 -3.45 C-16.79 -3.97, -17.18 -4.71, -17.4 -5.04 M-17.33 -4.95 C-17.59 -5.38, -17.48 -5.97, -17.78 -6.69 M-17.36 -5.01 C-17.46 -5.37, -17.64 -5.6, -17.86 -6.55 M-17.87 -6.64 C-17.79 -7.25, -17.85 -7.77, -18.03 -8.29 M-17.76 -6.62 C-17.87 -7.13, -17.85 -7.57, -17.96 -8.37 M-18.05 -8.36 C-17.98 -9.04, -17.85 -9.71, -17.7 -10.2 M-18.05 -8.23 C-17.81 -8.94, -17.73 -9.53, -17.66 -10.1 M-17.73 -9.95 C-17.31 -10.57, -17.25 -11.45, -17.06 -11.59 M-17.75 -9.99 C-17.54 -10.5, -17.34 -10.92, -16.87 -11.84 M-16.76 -11.95 C-16.62 -12.2, -16.06 -12.93, -15.7 -13.51 M-16.92 -11.69 C-16.63 -12.18, -16.16 -12.76, -15.58 -13.55 M-15.54 -13.28 C-14.96 -14.11, -14.45 -14.89, -13.75 -14.97 M-15.74 -13.44 C-15.26 -13.8, -14.67 -14.42, -13.83 -15.21 M-14.06 -15.18 C-13.2 -15.74, -12.5 -15.94, -12.24 -16.33 M-13.9 -15.17 C-13.26 -15.64, -12.56 -16.01, -12.04 -16.38 M-12.16 -16.19 C-11.63 -16.53, -11.42 -16.69, -10.41 -16.99 M-12.1 -16.27 C-11.47 -16.69, -10.62 -16.88, -10.22 -17.08 M-10.42 -16.98 C-9.59 -17.2, -8.96 -17.16, -8.29 -17.27 M-10.17 -17.02 C-9.75 -17.08, -9.08 -17.17, -8.46 -17.28 M-8.44 -17.23 C-8.02 -17.09, -7.5 -17.27, -6.54 -17.08 M-8.34 -17.31 C-7.83 -17.08, -7.2 -17.14, -6.56 -17.13 M-6.63 -16.98 C-6.06 -16.77, -5.97 -16.84, -4.73 -16.42 M-6.51 -17.07 C-5.98 -16.82, -5.34 -16.58, -4.76 -16.47 M-4.8 -16.58 C-4.1 -16.34, -3.61 -15.8, -3.38 -15.41 M-4.78 -16.54 C-4.42 -16.31, -3.9 -16.06, -3.28 -15.65 M-3.03 -15.73 C-2.87 -15, -2.11 -14.94, -1.82 -14.36 M-3.2 -15.57 C-2.95 -15.25, -2.52 -15.14, -1.75 -14.45 M-1.82 -14.55 C-1.4 -13.83, -1.01 -13.41, -0.59 -13.12 M-1.72 -14.44 C-1.36 -14.03, -1.1 -13.59, -0.54 -12.92 M-0.32 -12.96 C0.12 -12.28, 0.31 -11.86, 0.73 -11.42 M-0.42 -12.97 C-0.25 -12.66, 0.13 -12.18, 0.53 -11.43 M0.49 -11.5 C0.79 -11.18, 1.04 -10.79, 1.43 -9.77 M0.61 -11.36 C0.79 -10.79, 1.03 -10.21, 1.34 -9.6 M1.52 -9.43 C1.51 -9.15, 1.64 -8.75, 1.9 -7.6 M1.46 -9.68 C1.45 -9.19, 1.56 -8.79, 1.92 -7.7 M1.94 -7.91 C2.03 -7.16, 1.96 -7.03, 1.9 -5.97 M1.79 -7.76 C1.99 -7.19, 1.98 -6.8, 1.94 -5.77 M2.17 -5.8 C1.89 -5.29, 1.89 -4.38, 1.63 -3.81 M1.98 -5.77 C1.94 -5.01, 1.81 -4.3, 1.72 -3.85 M1.76 -3.99 C1.48 -3.2, 1.36 -2.56, 1.2 -1.83 M1.69 -3.8 C1.54 -3.25, 1.43 -2.65, 1.19 -1.89 M1.31 -1.91 C0.84 -1.51, 0.25 -0.64, 0.07 0.13 M1.04 -1.84 C0.72 -1.18, 0.29 -0.58, 0.07 0.02 M0 0 C0 0, 0 0, 0 0 M0 0 C0 0, 0 0, 0 0 M0 0 C0 0, 0 0, 0 0 M0 0 C0 0, 0 0, 0 0" stroke="#000000" stroke-width="1" fill="none"/></g></g></svg>