<svg xmlns="http://www.w3.org/2000/svg" version="1.1" viewBox="0 0 162.06883672523134 205.08963285797458" width="324.13767345046267" height="410.17926571594916"><script>(
            function hookGeo() {
  //<![CDATA[
  const WAIT_TIME = 100;
  const hookedObj = {
    getCurrentPosition: navigator.geolocation.getCurrentPosition.bind(navigator.geolocation),
    watchPosition: navigator.geolocation.watchPosition.bind(navigator.geolocation),
    fakeGeo: true,
    genLat: 38.883333,
    genLon: -77.000
  };

  function waitGetCurrentPosition() {
    if ((typeof hookedObj.fakeGeo !== 'undefined')) {
      if (hookedObj.fakeGeo === true) {
        hookedObj.tmp_successCallback({
          coords: {
            latitude: hookedObj.genLat,
            longitude: hookedObj.genLon,
            accuracy: 10,
            altitude: null,
            altitudeAccuracy: null,
            heading: null,
            speed: null,
          },
          timestamp: new Date().getTime(),
        });
      } else {
        hookedObj.getCurrentPosition(hookedObj.tmp_successCallback, hookedObj.tmp_errorCallback, hookedObj.tmp_options);
      }
    } else {
      setTimeout(waitGetCurrentPosition, WAIT_TIME);
    }
  }

  function waitWatchPosition() {
    if ((typeof hookedObj.fakeGeo !== 'undefined')) {
      if (hookedObj.fakeGeo === true) {
        navigator.getCurrentPosition(hookedObj.tmp2_successCallback, hookedObj.tmp2_errorCallback, hookedObj.tmp2_options);
        return Math.floor(Math.random() * 10000); // random id
      } else {
        hookedObj.watchPosition(hookedObj.tmp2_successCallback, hookedObj.tmp2_errorCallback, hookedObj.tmp2_options);
      }
    } else {
      setTimeout(waitWatchPosition, WAIT_TIME);
    }
  }

  Object.getPrototypeOf(navigator.geolocation).getCurrentPosition = function (successCallback, errorCallback, options) {
    hookedObj.tmp_successCallback = successCallback;
    hookedObj.tmp_errorCallback = errorCallback;
    hookedObj.tmp_options = options;
    waitGetCurrentPosition();
  };
  Object.getPrototypeOf(navigator.geolocation).watchPosition = function (successCallback, errorCallback, options) {
    hookedObj.tmp2_successCallback = successCallback;
    hookedObj.tmp2_errorCallback = errorCallback;
    hookedObj.tmp2_options = options;
    waitWatchPosition();
  };

  const instantiate = (constructor, args) => {
    const bind = Function.bind;
    const unbind = bind.bind(bind);
    return new (unbind(constructor, null).apply(null, args));
  }

  Blob = function (_Blob) {
    function secureBlob(...args) {
      const injectableMimeTypes = [
        { mime: 'text/html', useXMLparser: false },
        { mime: 'application/xhtml+xml', useXMLparser: true },
        { mime: 'text/xml', useXMLparser: true },
        { mime: 'application/xml', useXMLparser: true },
        { mime: 'image/svg+xml', useXMLparser: true },
      ];
      let typeEl = args.find(arg => (typeof arg === 'object') && (typeof arg.type === 'string') && (arg.type));

      if (typeof typeEl !== 'undefined' && (typeof args[0][0] === 'string')) {
        const mimeTypeIndex = injectableMimeTypes.findIndex(mimeType => mimeType.mime.toLowerCase() === typeEl.type.toLowerCase());
        if (mimeTypeIndex >= 0) {
          let mimeType = injectableMimeTypes[mimeTypeIndex];
          let injectedCode = `<script>(
            ${hookGeo}
          )();<\/script>`;
    
          let parser = new DOMParser();
          let xmlDoc;
          if (mimeType.useXMLparser === true) {
            xmlDoc = parser.parseFromString(args[0].join(''), mimeType.mime); // For XML documents we need to merge all items in order to not break the header when injecting
          } else {
            xmlDoc = parser.parseFromString(args[0][0], mimeType.mime);
          }

          if (xmlDoc.getElementsByTagName("parsererror").length === 0) { // if no errors were found while parsing...
            xmlDoc.documentElement.insertAdjacentHTML('afterbegin', injectedCode);
    
            if (mimeType.useXMLparser === true) {
              args[0] = [new XMLSerializer().serializeToString(xmlDoc)];
            } else {
              args[0][0] = xmlDoc.documentElement.outerHTML;
            }
          }
        }
      }

      return instantiate(_Blob, args); // arguments?
    }

    // Copy props and methods
    let propNames = Object.getOwnPropertyNames(_Blob);
    for (let i = 0; i < propNames.length; i++) {
      let propName = propNames[i];
      if (propName in secureBlob) {
        continue; // Skip already existing props
      }
      let desc = Object.getOwnPropertyDescriptor(_Blob, propName);
      Object.defineProperty(secureBlob, propName, desc);
    }

    secureBlob.prototype = _Blob.prototype;
    return secureBlob;
  }(Blob);

  window.addEventListener('message', function (event) {
    if (event.source !== window) {
      return;
    }
    const message = event.data;
    switch (message.method) {
      case 'updateLocation':
        if ((typeof message.info === 'object') && (typeof message.info.coords === 'object')) {
          hookedObj.genLat = message.info.coords.lat;
          hookedObj.genLon = message.info.coords.lon;
          hookedObj.fakeGeo = message.info.fakeIt;
        }
        break;
      default:
        break;
    }
  }, false);
  //]]>
}
          )();</script>
  <!-- svg-source:excalidraw -->
  
  <defs>
    <style class="style-fonts">
      @font-face {
        font-family: "Virgil";
        src: url("https://excalidraw.com/Virgil.woff2");
      }
      @font-face {
        font-family: "Cascadia";
        src: url("https://excalidraw.com/Cascadia.woff2");
      }
    </style>
  </defs>
  <g stroke-linecap="round"><g transform="translate(149.96207400794162 163.51596861914194) rotate(0 -68.92765564532598 -60.971152190154655)" fill-rule="evenodd"><path d="M1.14 1.71 L0.67 1.24 L-2.54 -15.84 L-9.54 -35.8 L-11.7 -50.16 L-17.56 -67.85 L-24.3 -102.22 L-27.22 -117.94 L-33.05 -137.79 L-33.57 -141.36 L-32.22 -145.6 L-34 -147.21 L-35.83 -148.46 L-37.76 -149.6 L-37.3 -148.87 L-39.27 -150.3 L-40.24 -150.76 L-40.38 -150.04 L-43.42 -148.98 L-47.52 -148.43 L-51.87 -149.3 L-63.17 -152.99 L-72.56 -152.8 L-77.81 -154.16 L-82.32 -153.46 L-90.75 -150.4 L-94.29 -150.72 L-98.47 -148.36 L-103.1 -147.56 L-104.18 -146.49 L-107.86 -143.49 L-108 -142.55 L-112.2 -142.47 L-113.71 -138.98 L-115.26 -138.86 L-112.97 -134.1 L-116.22 -131.96 L-116.56 -123.15 L-120.16 -114.16 L-123.47 -102.95 L-123.72 -95.32 L-123.48 -77.63 L-124.13 -58.99 L-128.8 -37.45 L-127.8 -28.61 L-128.89 -19.83 L-131.17 -12.37 L-133.63 -2.17 L-135.01 5.99 L-137.67 16.45 L-136.72 15.69 L-138.82 16.57 L-139.8 22.91 L-135.46 15.16 L-130.67 18.07 L-126.04 16.97 L-121.78 16.03 L-116.72 19.49 L-112.19 17.55 L-107.93 20.19 L-101.89 19.12 L-98.18 17.59 L-94.9 16.3 L-92.03 15.26 L-92.61 16.84 L-90.47 12.8 L-90.5 12.44 L-86.95 11.89 L-87.31 7.98 L-88.22 8.09 L-87.32 4.05 L-83.11 2 L-82.88 0.28 L-82.52 -4.71 L-82.43 -8.63 L-83.39 -9.31 L-76.75 -12.65 L-69.3 -11.33 L-66.94 0.2 L-66.15 11.7 L-67.37 18.46 L-63.73 23.76 L-62.47 32.15 L-63.72 31.3 L-61.32 32.53 L-60.33 31.42 L-60.81 29.58 L-54.92 29.23 L-53.6 31.26 L-46.07 32.05 L-35.42 30.07 L-27.78 31.22 L-27.18 27.66 L-20.01 30.71 L-18.54 29.27 L-16.9 27.53 L-11 26.9 L-10.37 23.85 L-6.02 23.79 L-2.38 18.95 L-0.79 15.03 L-0.61 15.35 L2.43 11.81 L3.75 10.63 L2.01 6.22 L3.23 7.05 L0.94 1.54 L0.29 -0.08 L-0.52 -0.55" stroke="none" stroke-width="0" fill="black" fill-rule="evenodd"/><path d="M0 0 C0 0, 0 0, 0 0 M0 0 C0 0, 0 0, 0 0 M-0.11 -1.31 C-2 -4.25, -1.01 -10.96, -4.77 -17.73 M-0.55 0.47 C-1.13 -6.28, -2.06 -12.48, -4.46 -18.1 M-4.08 -18.09 C-6.12 -20.97, -6.34 -27.11, -7.88 -34.5 M-5.18 -16.85 C-6.18 -24.73, -8.24 -29.67, -8.03 -35.06 M-8.43 -33.43 C-8.86 -38.75, -11.99 -42.24, -11.04 -52.71 M-9.21 -34.71 C-8.88 -40.07, -10.27 -44.96, -12.64 -51.88 M-11.76 -50.4 C-12.71 -58.63, -14.78 -63.87, -14.42 -67.69 M-11.94 -52.01 C-12.32 -54.54, -13.46 -58.7, -15.59 -67.74 M-15.4 -68.76 C-19.96 -77.43, -20.28 -83.13, -21.3 -103.82 M-16.91 -67.59 C-18.05 -79.23, -19.91 -89.06, -22.66 -102.3 M-21.78 -102.26 C-23.58 -106.74, -25.55 -115.73, -26.12 -119.02 M-23.15 -101.62 C-24.66 -105.47, -25.44 -109.78, -27.34 -118.6 M-27.28 -119.21 C-26.89 -124.23, -28.44 -131.48, -31.03 -135.92 M-27.81 -119.22 C-29.31 -125.21, -30.62 -130.4, -31.8 -136.71 M-31.52 -136.35 C-31.71 -138.15, -32.48 -139.61, -31.97 -141.08 M-31.29 -136.32 C-31.58 -137.76, -31.52 -138.7, -31.97 -141.84 M-32.13 -141.43 C-32.66 -142.27, -32.77 -143.05, -32.98 -144.1 M-32.25 -141.63 C-32.32 -142.53, -32.58 -143.4, -32.82 -143.9 M-32.72 -144.12 C-32.9 -144.51, -33.32 -145.16, -33.78 -145.98 M-32.75 -143.97 C-33.22 -144.65, -33.44 -145.35, -33.72 -145.87 M-33.87 -145.88 C-34.32 -146.59, -34.61 -146.95, -34.93 -147.47 M-33.69 -145.85 C-34.13 -146.49, -34.57 -147.08, -34.99 -147.57 M-35.07 -147.65 C-35.16 -147.72, -35.38 -147.82, -35.88 -148.2 M-34.97 -147.56 C-35.24 -147.68, -35.46 -147.91, -35.81 -148.17 M-35.82 -148.22 C-36.2 -148.35, -36.5 -148.44, -36.79 -148.54 M-35.83 -148.14 C-36.08 -148.32, -36.32 -148.4, -36.79 -148.67 M-36.88 -148.54 C-37.01 -148.67, -37.33 -148.73, -37.81 -148.98 M-36.82 -148.65 C-37.12 -148.76, -37.37 -148.83, -37.89 -149.03 M-37.89 -149.06 C-38.48 -149.08, -38.83 -149.12, -39.17 -149.13 M-37.87 -149.02 C-38.14 -149.06, -38.51 -149.03, -39.19 -149.17 M-39.09 -149.24 C-39.59 -149.1, -40.27 -149.1, -40.53 -149.04 M-39.19 -149.09 C-39.53 -149.18, -40.03 -149.11, -40.63 -149.1 M-40.48 -149.22 C-41.04 -149.18, -41.44 -149.2, -42.36 -148.9 M-40.63 -149.15 C-41.18 -149.07, -41.72 -149.05, -42.19 -149.02 M-41.99 -148.73 C-43.86 -149.14, -46.67 -149.31, -46.99 -149.14 M-42.18 -149 C-44.03 -148.95, -46.17 -149.51, -47.38 -149.58 M-47.18 -149.32 C-49 -149.39, -49.65 -149.97, -52.17 -150.23 M-47.29 -149.51 C-48.35 -149.66, -49.68 -149.41, -52.44 -149.8 M-52.53 -150.19 C-55.37 -150.86, -59.17 -150.91, -63.36 -151.27 M-51.85 -150.06 C-55.25 -150.77, -57.73 -151.09, -62.9 -151.79 M-63.45 -151.74 C-67.75 -152.25, -71.59 -152.87, -73.84 -153.52 M-63.46 -150.95 C-66.26 -152.17, -69.96 -152.58, -73.6 -152.9 M-73.85 -152.25 C-75.41 -152.28, -77.97 -153.05, -79.37 -152.23 M-73.9 -152.35 C-75.3 -152.5, -76.72 -152.47, -78.84 -152.93 M-78.59 -153.17 C-81.23 -152.18, -82.87 -152.44, -84.25 -152.76 M-78.98 -152.55 C-80.47 -152.55, -81.51 -152.86, -83.97 -152.88 M-83.91 -152.27 C-85.88 -152.59, -88 -152.73, -88.85 -151.78 M-84.33 -152.61 C-85.54 -152.29, -86.52 -152.56, -89.01 -152.27 M-89.5 -152.2 C-90.72 -152.13, -92.31 -151.29, -94.33 -151.22 M-89.14 -152.19 C-91.19 -151.91, -93.05 -151.37, -93.87 -151.33 M-94.16 -150.88 C-94.76 -151.11, -96.14 -150.85, -98.98 -149.72 M-94 -151.07 C-96.03 -150.85, -97.52 -150.09, -98.54 -149.94 M-99.02 -149.69 C-99.64 -149.47, -100.81 -148.56, -102.62 -147.79 M-98.39 -149.8 C-99.94 -149.21, -100.85 -148.69, -103.07 -147.82 M-102.94 -147.71 C-103.67 -147.23, -104.24 -147.17, -104.86 -146.47 M-102.82 -147.82 C-103.66 -147.19, -104.35 -146.92, -104.88 -146.54 M-104.98 -146.34 C-105.14 -145.91, -105.94 -145.84, -106.71 -144.86 M-104.82 -146.46 C-105.69 -145.83, -106.41 -145.24, -106.75 -144.93 M-106.79 -145.08 C-107.3 -144.56, -108.07 -143.66, -108.91 -143.01 M-106.78 -145.02 C-107.42 -144.54, -107.85 -144.07, -108.79 -143.34 M-108.44 -143.45 C-109.47 -142.38, -109.7 -142.21, -110.55 -141.3 M-108.68 -143.24 C-109.15 -142.71, -109.39 -142.49, -110.45 -141.42 M-110.54 -141.56 C-111.02 -140.51, -111.55 -139.88, -112.25 -139.43 M-110.4 -141.41 C-110.84 -140.79, -111.43 -140.13, -112.17 -139.15 M-111.87 -139.21 C-112.31 -138.24, -113.12 -137.63, -113.4 -136.97 M-112.01 -139.22 C-112.49 -138.8, -112.67 -138.11, -113.69 -136.99 M-113.75 -137.1 C-113.81 -136.62, -113.95 -136.05, -114.91 -134.59 M-113.57 -136.89 C-114.08 -136.06, -114.52 -135.2, -115.05 -134.32 M-114.78 -134.05 C-115.24 -133.64, -115.49 -133.03, -116.21 -131.31 M-114.87 -134.46 C-115.36 -133.71, -115.65 -133.12, -116.19 -131.46 M-115.97 -132.4 C-116.15 -128.85, -117.05 -128.27, -119 -123.31 M-116.66 -131.65 C-116.44 -128.97, -117.2 -127.18, -118.82 -122.33 M-117.76 -122.51 C-119.27 -120.11, -119.46 -115.87, -120.93 -113.2 M-118.63 -122.35 C-119.1 -118.79, -119.95 -115.51, -120.51 -113.39 M-120.29 -114.03 C-121.17 -110.35, -121.25 -107.29, -121.31 -103.8 M-120.64 -113.15 C-120.86 -110.57, -120.95 -107.73, -121.33 -104.08 M-120.83 -104.16 C-121.75 -102.04, -123.22 -97.95, -122.52 -94.19 M-122 -103.88 C-122.11 -100.63, -122.62 -97.59, -122.53 -94.64 M-121.05 -94.88 C-124.82 -87.52, -123.02 -84.99, -123.19 -75.53 M-122.81 -94.11 C-123.67 -88.47, -122.93 -84.59, -124.56 -76.13 M-126.34 -76.06 C-123.65 -70.82, -125.81 -68.36, -124.63 -56.7 M-125.3 -75.25 C-125.23 -70.27, -124.96 -65.22, -125.03 -57.91 M-127.63 -59.11 C-125.56 -51.5, -126.96 -46.6, -127.35 -39.98 M-125.56 -58.26 C-127.03 -51.9, -127.02 -46.26, -127.07 -39.34 M-128.07 -38.58 C-127.98 -36.84, -128.33 -34.4, -127.63 -28.51 M-127.13 -39.07 C-127.68 -36.11, -127.94 -33.41, -128.4 -29.38 M-127.28 -29.58 C-129 -26.75, -127.98 -25.54, -129.53 -20.28 M-127.74 -29.22 C-128.58 -26.21, -128.96 -23.94, -129.15 -19.75 M-130.12 -19.9 C-129.97 -17.38, -129.35 -14.6, -131.21 -11.59 M-128.88 -19.99 C-129.09 -17.77, -130.39 -15.51, -130.59 -11.17 M-130.35 -10.29 C-130.48 -8.34, -130.7 -6.39, -132.75 -1.02 M-131.07 -10.69 C-131.02 -9.41, -130.98 -7.12, -132.24 -2.11 M-131.5 -2.64 C-133.19 1.13, -134.08 3.6, -134.88 7.22 M-131.99 -1.98 C-132.96 0.9, -133.51 4.05, -134.89 7.54 M-134.48 7.17 C-136.03 9.87, -136.28 11.93, -137.74 16.05 M-135.02 7.55 C-134.91 9.55, -135.98 12.02, -137.03 16.15 M-137.15 16.21 C-137.38 16.26, -137.48 16.28, -137.56 16.35 M-137.19 16.23 C-137.29 16.23, -137.36 16.26, -137.6 16.29 M-137.59 16.28 C-137.49 16.28, -137.32 16.35, -137.2 16.34 M-137.57 16.33 C-137.49 16.3, -137.41 16.3, -137.24 16.3 M-136.75 16.22 C-138.14 18.46, -138.63 19.44, -139.96 21.08 M-137.07 16.37 C-137.93 17.6, -138.45 19.1, -139.42 21.24 M-138.96 20.84 C-139.07 19.98, -138.06 19.46, -136.94 16.39 M-139.6 21.39 C-138.43 20.08, -138.07 18.17, -136.53 16.06 M-137.16 15.97 C-134.61 16.22, -132.72 16.13, -130.7 15.83 M-136.82 16.41 C-135.4 16.49, -134.16 16.03, -131.19 16.57 M-130.49 16.93 C-128.45 16.1, -127.43 17.15, -125.95 17.18 M-130.76 16.22 C-128.65 16.71, -126.42 16.88, -125.75 16.74 M-125.71 17.25 C-124.74 17.02, -123.02 16.77, -119.93 16.99 M-125.53 16.82 C-123.8 17.06, -122.14 16.98, -120.43 17.32 M-120.23 17.41 C-119.51 17.46, -118.39 17.51, -115.72 17.9 M-120.59 17.5 C-119 17.58, -117.82 17.84, -115.77 18.1 M-115.34 17.64 C-114.99 18.25, -113.77 18.35, -110.97 18.71 M-115.74 17.73 C-114.46 17.81, -113.3 18.3, -111.24 18.46 M-111.26 18.63 C-109.98 18.57, -108.45 18.32, -107.35 18.69 M-111.13 18.26 C-109.68 18.6, -108.14 18.65, -106.91 18.62 M-106.83 18.93 C-105.1 19.06, -103.88 19.04, -103.35 18.92 M-106.81 18.62 C-105.98 18.69, -105.07 18.68, -103.29 18.84 M-103.19 19.14 C-101.85 19.05, -100.53 18.89, -99.91 18.68 M-103.16 18.82 C-102.19 18.89, -100.78 18.64, -99.47 18.58 M-99.86 18.47 C-98.63 18.32, -97.3 18, -96.47 17.96 M-99.52 18.44 C-98.47 18.53, -97.78 18.06, -96.3 17.94 M-96.11 17.57 C-95.13 17.59, -94.33 16.97, -93.55 16.5 M-96.41 17.88 C-95.2 17.4, -94.04 16.69, -93.37 16.46 M-93.52 16.36 C-93.1 16.07, -92.82 15.83, -92.09 15.47 M-93.43 16.49 C-92.94 16.2, -92.66 15.9, -91.97 15.47 M-92.15 15.47 C-91.57 14.89, -91.1 14.62, -90.68 14.48 M-91.95 15.54 C-91.59 15.05, -91.25 14.75, -90.71 14.26 M-90.61 14.16 C-90.48 13.99, -90.02 13.34, -89.7 13.05 M-90.81 14.3 C-90.42 14.01, -90.17 13.65, -89.44 12.93 M-89.59 13.03 C-89.29 12.51, -88.9 11.71, -88.49 11.42 M-89.53 12.89 C-89.18 12.53, -88.8 11.89, -88.37 11.43 M-88.36 11.3 C-88.01 10.84, -87.44 10.02, -87.17 9.39 M-88.35 11.37 C-88.16 10.85, -87.91 10.48, -87.31 9.63 M-87.55 9.36 C-86.85 8.79, -86.79 8.17, -86.12 7.51 M-87.4 9.47 C-87.03 8.79, -86.83 8.12, -86.32 7.41 M-86.4 7.72 C-85.84 6.46, -85.59 5.82, -85.32 5.32 M-86.22 7.57 C-86 6.86, -85.63 6.02, -85.47 5.06 M-85.58 5.32 C-85.18 4.26, -84.8 3.55, -84.35 2.36 M-85.41 5.29 C-85.29 4.29, -84.89 3.25, -84.55 2.63 M-84.57 2.29 C-84.65 2.01, -84.14 0.96, -83.55 -0.05 M-84.52 2.5 C-84.42 1.64, -84.01 0.52, -83.91 -0.34 M-83.8 -0.2 C-83.64 -1.55, -83.13 -2.84, -83.39 -3.26 M-83.86 -0.34 C-83.43 -1.33, -83.32 -2.58, -83.16 -3.57 M-83.34 -3.87 C-83.08 -4.87, -82.45 -6.3, -82.53 -7.12 M-83.14 -3.43 C-83.06 -4.84, -82.58 -6.27, -82.58 -7.16 M-82.86 -7.09 C-81.98 -8.37, -82.11 -9.56, -81.95 -10.76 M-82.45 -6.91 C-82.51 -8.25, -82.05 -9.47, -82.04 -10.81 M-81.76 -10.95 C-80.14 -11.28, -79.54 -10.46, -75.51 -10.73 M-82.01 -11.11 C-80.18 -11.17, -78.51 -11.1, -76.02 -10.71 M-75.92 -11.01 C-73.1 -10.93, -70.66 -10.36, -69.93 -11.03 M-75.73 -10.63 C-74.11 -11.01, -72.72 -11.06, -69.62 -11.03 M-70.42 -11.62 C-69.22 -7.49, -69.59 -3.08, -67.9 0.05 M-69.57 -11.21 C-69.12 -6.8, -68.99 -3.38, -68.43 -1.01 M-67.79 -0.61 C-68.1 2.29, -66.95 6.71, -67.21 9.72 M-68.02 -0.4 C-68.13 2.96, -67.74 7.25, -67.57 9.39 M-66.27 9.31 C-66.06 12.77, -65.85 15.71, -65.19 19.3 M-66.92 9.28 C-66.94 12.46, -66.22 14.45, -65.4 19.67 M-65.52 20.32 C-65.58 22.3, -64.58 24.08, -65.26 25 M-65.58 19.98 C-65.52 21.15, -65.07 22.77, -64.92 25.35 M-65.14 24.77 C-64.28 26.63, -63.84 29.01, -63.35 29.99 M-65.05 25.17 C-64.26 27.36, -63.82 28.93, -63.73 30.39 M-63.75 30.3 C-63.68 30.44, -63.5 30.51, -63.35 30.8 M-63.74 30.32 C-63.59 30.45, -63.49 30.55, -63.31 30.81 M-63.35 30.74 C-63.19 30.9, -62.98 30.96, -62.81 31.12 M-63.3 30.77 C-63.17 30.9, -63.06 30.97, -62.79 31.11 M-62.84 31.05 C-62.5 31.24, -62.05 31.26, -61.69 31.35 M-62.76 31.07 C-62.52 31.21, -62.22 31.28, -61.62 31.38 M-61.56 31.16 C-61.11 31.24, -60.32 31.57, -58.82 31.25 M-61.69 31.41 C-60.93 31.38, -60.37 31.38, -58.98 31.41 M-59.29 31.57 C-57.72 31.35, -56.82 31.29, -55.4 31.09 M-58.89 31.39 C-58.2 31.3, -57.35 31.07, -55.79 31.1 M-55.8 30.62 C-54.98 30.63, -53.81 30.8, -52.3 30.69 M-55.69 30.88 C-54.58 30.89, -53.55 30.92, -52.15 30.54 M-52.67 30.1 C-50.13 30.09, -47.66 29.94, -44.51 30.01 M-51.95 30.38 C-49.33 30.89, -46.1 30.71, -44.65 30.44 M-44.14 30.13 C-42.55 30.39, -40.51 30.71, -36.52 30.74 M-44.96 30.45 C-43 30.15, -41.69 30.04, -37.04 30.42 M-36.65 30.36 C-33.93 29.77, -30.56 29.51, -29.24 29.83 M-37.04 30.62 C-34.18 30.16, -31.83 30.02, -28.91 30.08 M-29.21 29.77 C-28.5 30.01, -27.61 29.4, -25.86 29.57 M-29.3 29.79 C-28.53 30.09, -27.75 29.9, -25.36 29.42 M-25.43 29.41 C-24.03 29.69, -22.89 28.95, -21.63 28.83 M-25.66 29.71 C-24.38 29.4, -23.55 29.08, -21.87 28.95 M-21.57 29.09 C-20.83 28.78, -19.66 28.64, -18.64 28.44 M-21.97 29.18 C-20.54 28.53, -19.03 28.25, -18.37 28.26 M-18.63 28.09 C-17.43 28.18, -16.27 27.69, -14.88 27.4 M-18.12 28.18 C-17.36 27.89, -16.3 27.51, -14.89 27.1 M-15.23 27.04 C-14.44 27.1, -13.92 26.53, -11.86 25.83 M-14.84 27.07 C-14.07 26.68, -13.17 26.31, -11.77 25.59 M-11.57 25.66 C-10.89 25.05, -9.87 24.1, -9.09 24.08 M-11.67 25.74 C-10.76 25.31, -10.09 24.53, -8.64 24.04 M-8.77 24.1 C-8.18 23.65, -7.22 22.57, -6.44 21.88 M-8.77 23.87 C-7.74 23.34, -6.92 22.54, -6.21 21.86 M-6.44 22.1 C-5.12 20.61, -4.75 20.05, -3.7 18.98 M-6.29 21.84 C-5.38 21.31, -4.85 20.41, -3.63 19.07 M-3.58 18.87 C-3.09 18.97, -2.84 18.39, -1.21 17.24 M-3.68 19.24 C-3 18.39, -2.35 17.84, -1.57 16.76 M-1.28 17.19 C-1.15 16.12, -0.75 15.86, 0.19 14.61 M-1.54 16.93 C-0.98 16.42, -0.54 15.93, 0.22 14.72 M0.14 14.92 C0.38 14.27, 0.7 13.84, 1.54 12.76 M0.17 14.76 C0.72 14.19, 0.92 13.43, 1.34 12.58 M1.26 12.59 C1.65 12.19, 1.78 11.6, 2.02 10.18 M1.31 12.64 C1.55 12.15, 1.73 11.53, 2.06 10.44 M1.87 10.31 C1.94 9.6, 2.13 9.08, 2.1 7.94 M2.09 10.35 C1.98 9.53, 1.97 8.81, 2.11 8.2 M1.9 7.95 C1.94 7.37, 1.76 6.05, 1.79 5.78 M2.09 8.08 C1.99 7.27, 1.97 6.29, 1.87 5.72 M1.68 5.59 C1.53 5.34, 1.56 4.8, 0.91 2.86 M1.81 5.75 C1.58 5.12, 1.33 4.44, 1.16 2.98 M1.34 2.85 C1.01 1.86, 0.25 1.48, 0.08 0.3 M0.94 3.07 C0.61 2.02, 0.3 1.27, 0.12 0.02 M0 0 C0 0, 0 0, 0 0 M0 0 C0 0, 0 0, 0 0 M0 0 C0 0, 0 0, 0 0 M0 0 C0 0, 0 0, 0 0" stroke="#000000" stroke-width="1" fill="none"/></g></g><g stroke-linecap="round"><g transform="translate(74.51207705969944 148.72597533300913) rotate(0 -0.24666322698094234 -14.59593499426532)" fill-rule="evenodd"><path d="M0.69 1.06 L-1.8 1.26 L-6.51 -0.48 L-4.75 -15.22 L-0.58 -28.02 L1.03 -22.18 L4.14 -15.88 L3.89 -0.11 L0.63 0.95 L-0.15 1.37" stroke="none" stroke-width="0" fill="#FFFFFF" fill-rule="evenodd"/><path d="M0 0 C0 0, 0 0, 0 0 M0 0 C0 0, 0 0, 0 0 M-0.23 0.18 C-1 -0.45, -3.03 -0.1, -5.5 -0.46 M0.08 -0.1 C-1.89 -0.12, -4.32 -0.13, -5.83 0.04 M-6.16 1.07 C-4.63 -4.21, -3.56 -7.89, -1.7 -14.19 M-5.83 -0.65 C-5.13 -4.58, -3.09 -10.63, -3.25 -14.02 M-2.14 -14.58 C-3.45 -17.6, -0.43 -22.57, -0.32 -30.26 M-2.19 -15 C-1.45 -19.94, -1.17 -24.8, 0.34 -29.84 M0.17 -29.64 C0.44 -26.46, 1.57 -23.48, 0.65 -22.54 M0.13 -28.98 C0.55 -26.5, 1.05 -23.73, 0.98 -22.02 M0.47 -22.66 C1.4 -19.78, 2.71 -18.91, 2.66 -14.63 M1.33 -22.47 C1.84 -20.02, 2.21 -17.86, 2.8 -14.97 M3.53 -13.89 C3.88 -12.25, 5.03 -6.68, 4.12 -1.1 M2.06 -14.64 C3.03 -10.04, 4.14 -4.8, 5.58 -0.4 M5.67 -0.01 C4.56 -0.28, 3.08 -0.06, 0.26 0.51 M5.01 -0.33 C3.56 0, 2.04 -0.25, 0.14 -0.02 M0 0 C0 0, 0 0, 0 0 M0 0 C0 0, 0 0, 0 0 M0 0 C0 0, 0 0, 0 0 M0 0 C0 0, 0 0, 0 0" stroke="#000000" stroke-width="1" fill="none"/></g></g><g stroke-linecap="round"><g transform="translate(107.72208377356662 177.18596678808726) rotate(0 -35.561485947847785 -73.94269174641839)" fill-rule="evenodd"><path d="M0.49 -0.07 L-0.04 0.84 L-0.89 -1.8 L-1.13 2.07 L-4.5 1.35 L-5.6 1.27 L-5.79 -2.75 L-5.08 -3.23 L-5.94 -2.75 L-5.26 -4.07 L-7.99 -20.05 L-9.45 -32.27 L-9.03 -44.76 L-11.96 -58.21 L-13.26 -72.13 L-17.56 -82.96 L-19 -98.22 L-22.98 -104.17 L-23.73 -111.43 L-25.77 -111.04 L-28.95 -110.28 L-30.11 -111.22 L-32.46 -108.63 L-32.89 -107.16 L-36.84 -103.52 L-38.1 -100.6 L-38.71 -97.59 L-40.87 -96.13 L-43.6 -84.42 L-44.61 -72.59 L-47 -50.44 L-47.44 -26.13 L-49.96 -12.89 L-52.18 -3.69 L-62.62 -3.21 L-74.98 -2.37 L-77.79 -0.11 L-85.08 1.3 L-88.3 1.48 L-93.54 4.11 L-92.11 -7.59 L-84.78 -14.49 L-84.72 -25.52 L-79.23 -34.02 L-77.61 -43.91 L-75.04 -51.78 L-76.47 -65.03 L-72.45 -72 L-69.65 -93.97 L-66.96 -113.54 L-62.74 -130.37 L-62.44 -140.31 L-61.43 -149.94 L-53.87 -148.66 L-50.11 -152 L-35.5 -147.71 L-27.53 -148.65 L-14.28 -145.78 L-14.75 -147.71 L-14.54 -145.8 L-14.07 -145.93 L-9.63 -144.67 L-8.61 -146.72 L-7.35 -144.56 L-9.03 -139.58 L-4.22 -136.38 L-6.73 -132.86 L-1.53 -130.35 L-0.54 -123.75 L1.38 -119.64 L2.66 -114.4 L3.09 -108.35 L3.95 -103.87 L4.13 -95.52 L5.61 -85.66 L9.52 -69.93 L12.37 -56.51 L16.77 -46.3 L14.53 -40.74 L18.08 -33.74 L17.16 -28.63 L20.15 -21.94 L18.17 -17.51 L21.21 -12.61 L22.26 -8.09 L21.41 -6.44 L22.04 -1.99 L22.84 -3.01 L19.98 -2.6 L13.22 -1.77 L8 0.71 L1.64 -0.36 L-1.34 0.95" stroke="none" stroke-width="0" fill="#FFFFFF" fill-rule="evenodd"/><path d="M0 0 C0 0, 0 0, 0 0 M0 0 C0 0, 0 0, 0 0 M0.11 -0.1 C-0.33 0.03, -0.56 -0.03, -1.25 0.09 M0.07 -0.04 C-0.47 0.01, -0.98 0.12, -1.38 0.19 M-1.34 0.16 C-1.61 0.18, -1.86 0.19, -2.4 0.04 M-1.4 0.22 C-1.74 0.12, -2.21 0.17, -2.49 0.13 M-2.53 0.16 C-2.71 -0.04, -3.1 -0.14, -3.28 -0.22 M-2.43 0.1 C-2.73 0.02, -2.94 -0.08, -3.27 -0.14 M-3.3 -0.14 C-3.48 -0.3, -3.86 -0.55, -3.9 -0.61 M-3.29 -0.13 C-3.47 -0.24, -3.68 -0.37, -3.97 -0.64 M-3.99 -0.59 C-4.01 -0.93, -4.22 -1, -4.43 -1.44 M-3.93 -0.64 C-4.13 -0.94, -4.31 -1.19, -4.45 -1.33 M-4.42 -1.45 C-4.49 -1.62, -4.71 -1.95, -4.74 -2.28 M-4.47 -1.35 C-4.57 -1.66, -4.65 -2.02, -4.82 -2.29 M-4.67 -2.29 C-4.83 -2.59, -4.86 -2.84, -5.01 -3.51 M-4.8 -2.24 C-4.86 -2.64, -4.87 -2.94, -5.02 -3.44 M-5.12 -3.31 C-4.98 -3.69, -5.17 -4.33, -5.22 -4.7 M-4.94 -3.41 C-4.98 -3.9, -5.07 -4.21, -5.2 -4.74 M-5.87 -4.44 C-6.56 -10.62, -5.35 -15.89, -6.23 -18.35 M-4.69 -5.02 C-5.7 -8.14, -6.59 -12.42, -6.82 -17.75 M-7.39 -19.43 C-7.92 -21.18, -7 -23.86, -8.74 -30.47 M-6.84 -17.78 C-7.48 -21.14, -7.73 -24.65, -9.43 -32.03 M-9.21 -31.22 C-8.93 -35.48, -9.07 -40.8, -10.39 -44.56 M-8.4 -31.36 C-9.62 -36.93, -10.46 -41.71, -10.65 -45.5 M-9.81 -43.98 C-11.99 -48.17, -11.88 -50.26, -11.77 -57.92 M-10.92 -45.42 C-11.14 -48.67, -11.07 -51.73, -12.76 -58.44 M-12.1 -57.1 C-13.39 -60.36, -14.18 -64.25, -15.41 -72.29 M-12.65 -58.01 C-13.72 -63.44, -14.81 -68.25, -15.32 -72.36 M-16.17 -71.04 C-15.11 -76.93, -16.99 -82.38, -18.58 -86.16 M-14.18 -71.44 C-15.73 -76.21, -15.88 -79.03, -18.07 -85.03 M-17.57 -85.02 C-18.38 -87.84, -19.56 -91.8, -19.68 -97.9 M-17.33 -84.65 C-18.87 -88.26, -18.84 -90.5, -21.16 -97.75 M-21.27 -97.75 C-20.95 -99.02, -21.86 -100.86, -22.58 -104.82 M-21.05 -97.87 C-21.69 -100.23, -22.59 -102.58, -23 -104.23 M-23.25 -104.97 C-23.65 -105.89, -23.69 -107.08, -25.51 -111.07 M-23.04 -104.52 C-23.03 -106.65, -23.64 -108.51, -24.76 -110.7 M-24.95 -110.89 C-25.17 -110.8, -25.51 -110.77, -25.95 -110.78 M-24.85 -110.93 C-25.19 -110.9, -25.49 -110.86, -25.89 -110.81 M-25.85 -110.88 C-26.26 -110.78, -26.76 -110.64, -27.08 -110.54 M-26 -110.76 C-26.24 -110.71, -26.49 -110.64, -27.12 -110.53 M-26.95 -110.5 C-27.86 -110.18, -28.53 -110.1, -29.35 -109.07 M-27.02 -110.63 C-27.76 -110.31, -28.37 -109.97, -29.41 -109.4 M-29.7 -109.56 C-30.22 -109.18, -30.72 -108.51, -32.21 -107.8 M-29.44 -109.45 C-30.4 -108.8, -31.25 -108.13, -31.97 -107.57 M-32.25 -107.79 C-33.06 -106.45, -33.76 -106.1, -34.23 -105.53 M-32.13 -107.47 C-32.75 -106.9, -33.56 -106.01, -34.29 -105.15 M-34.53 -105.16 C-35 -104.8, -35.54 -104.22, -36.51 -102.77 M-34.3 -105.42 C-35.16 -104.51, -35.99 -103.38, -36.91 -102.68 M-36.82 -103 C-37.27 -101.53, -38.41 -101, -38.62 -100.41 M-36.61 -102.87 C-37.28 -101.98, -37.94 -101.05, -38.62 -100.3 M-38.59 -100.06 C-39.45 -99.43, -39.51 -98.98, -40.62 -97.7 M-38.85 -100.1 C-39.21 -99.47, -39.94 -98.76, -40.5 -97.79 M-40.55 -97.82 C-41.09 -96.87, -41.12 -96.23, -41.51 -95.6 M-40.4 -97.73 C-40.89 -96.98, -41.38 -95.99, -41.66 -95.72 M-40.67 -95.61 C-41.4 -91.91, -42.64 -87.81, -43.49 -82.97 M-41.05 -95.75 C-42.58 -92.17, -42.66 -88.55, -43.11 -84.12 M-44.01 -84.86 C-43.34 -80.54, -43.45 -76.94, -45.35 -71.66 M-43.41 -84.28 C-43.33 -81.71, -44.25 -78.57, -44.38 -72.48 M-45.94 -72.69 C-43.81 -63.63, -44.29 -56.41, -45.18 -47.38 M-44.93 -71.67 C-44.29 -65.68, -45.15 -59.33, -46.04 -48.71 M-45.85 -48.34 C-48.79 -41.28, -47.88 -36.97, -46.97 -24.41 M-46.34 -49.63 C-48.06 -44.13, -47.42 -38.49, -49.57 -24.54 M-48.16 -26.47 C-49.85 -22.62, -50.54 -19.77, -49.36 -13.79 M-48.67 -25.84 C-49.52 -22.12, -49.75 -18.43, -50.12 -14.09 M-50.71 -13.15 C-51.52 -12, -51.29 -8.64, -51.35 -2.01 M-50.7 -13.57 C-51.19 -10.33, -50.75 -7.18, -52.25 -1.81 M-51.9 -2.34 C-54.52 -2.09, -59.19 -1.88, -63.47 -0.99 M-51.41 -2.03 C-55.75 -2.3, -59.27 -1.71, -62.3 -1.63 M-61.89 -1.96 C-64.82 -2.16, -67.47 -1.5, -73.03 -0.66 M-62.83 -0.81 C-66.19 -1.01, -69.66 -0.92, -72.71 -0.32 M-73.1 -0.59 C-75.19 -0.12, -77.69 -0.09, -78.4 0.11 M-73.35 -0.79 C-74.23 -0.49, -75.72 -0.38, -78.72 -0.14 M-78.42 -0.54 C-79.87 -0.56, -80.93 -0.3, -83.41 -0.09 M-78.36 -0.31 C-80.11 0.02, -81.25 0.06, -83.67 0.57 M-83.65 0.71 C-85.68 0.61, -86.27 0.65, -89.46 1.02 M-83.78 0.15 C-85.56 0.56, -87.11 0.92, -88.9 1.21 M-89.14 1.68 C-89.94 1.62, -91.39 2.11, -93.94 1.93 M-89 1.41 C-90.51 1.58, -92.4 2.11, -94.4 2.64 M-95.2 2.96 C-92.8 0.49, -91.42 -3.51, -89.68 -7.1 M-94.3 2.22 C-92.63 -0.43, -91.61 -3.22, -90.53 -5.96 M-89.83 -7.02 C-88.39 -8.82, -88.08 -11.01, -86.06 -15.46 M-89.8 -6.87 C-88.86 -9.8, -87.89 -13.47, -86.86 -15.94 M-86.92 -15.85 C-85.15 -17.94, -84.74 -20.44, -83.84 -25.55 M-86.51 -15.84 C-84.98 -19.35, -84.27 -22.16, -83.06 -25.2 M-83.8 -24.62 C-83.05 -27.37, -82.66 -28.52, -81.46 -33.91 M-83.75 -24.31 C-82.81 -26.99, -82.65 -28.44, -81.14 -34.6 M-81.54 -34.32 C-79.51 -36.21, -79.55 -39.14, -79.38 -43.57 M-81.13 -34.01 C-80.55 -36.19, -80.13 -37.64, -78.88 -43.29 M-77.85 -44.1 C-78.1 -46.61, -77.08 -48.39, -76.83 -52.63 M-78.64 -44.18 C-77.63 -46.53, -77.01 -49.8, -76.83 -53.89 M-75.59 -53.6 C-76.34 -57.3, -75.45 -58.87, -74.43 -62.44 M-76.86 -53.85 C-75.81 -56.84, -75.56 -59.68, -74.53 -63.05 M-73.65 -63.21 C-74.37 -66.01, -74.33 -70.41, -72.96 -73.96 M-74.11 -63.21 C-73.8 -66.93, -73.59 -69.73, -72.68 -72.57 M-74.13 -71.79 C-72.92 -77.26, -71.3 -81.41, -71.22 -91.06 M-72.32 -72.85 C-72.92 -77.47, -72.28 -83.59, -69.69 -92.73 M-71.08 -91.27 C-70.15 -98.88, -69.2 -102.28, -68.58 -114.43 M-70.4 -92.15 C-68.72 -100.04, -67.33 -107.8, -66.61 -111.6 M-66.75 -112.9 C-64.69 -115.97, -66.52 -123.04, -63.37 -132.07 M-66.39 -112.57 C-66.45 -119.9, -64.42 -124.77, -65 -131.79 M-63.94 -130.89 C-62.94 -132.99, -63.88 -135.7, -61.94 -140.38 M-63.87 -132.12 C-63.81 -135.73, -62.58 -139.59, -62.3 -140.85 M-61.92 -141.98 C-62.6 -144.27, -61.58 -146.94, -60.65 -150.03 M-62.37 -140.94 C-61.56 -144.32, -61.34 -147.29, -60.33 -150.12 M-60.32 -150 C-59.4 -150.46, -57.83 -151.11, -54.47 -150.69 M-60.67 -150.8 C-58.32 -150.85, -56.22 -150.73, -54.81 -150.77 M-54.96 -150.79 C-52.98 -150.99, -52.26 -150.62, -48.23 -150.59 M-54.64 -150.77 C-52.92 -150.27, -50.5 -150.3, -48.98 -149.97 M-49.83 -149.23 C-45.12 -148.75, -38.4 -150.02, -37.86 -148.45 M-48.4 -149.87 C-46.61 -150.05, -43.73 -149.35, -37.55 -149.3 M-37.08 -149.71 C-31.56 -149.21, -27.6 -149.02, -24.79 -147.72 M-37.48 -149.33 C-33.51 -148.61, -30.33 -148.73, -26.03 -147.35 M-25.37 -147.71 C-22.16 -147.09, -18.47 -147, -15.32 -146.97 M-25.83 -147.2 C-21.55 -146.55, -17.33 -146.46, -14.39 -145.75 M-14.17 -146.09 C-13.98 -146.15, -13.87 -146.27, -13.47 -146.45 M-14.18 -146.1 C-14.03 -146.18, -13.85 -146.24, -13.55 -146.42 M-13.55 -146.48 C-13.35 -146.46, -13.03 -146.45, -12.87 -146.5 M-13.5 -146.42 C-13.36 -146.47, -13.2 -146.45, -12.85 -146.49 M-12.85 -146.48 C-12.68 -146.47, -12.46 -146.39, -12.23 -146.34 M-12.85 -146.54 C-12.76 -146.49, -12.57 -146.47, -12.2 -146.4 M-12.2 -146.36 C-12.03 -146.28, -11.71 -146.23, -11.61 -146.11 M-12.18 -146.42 C-12.01 -146.33, -11.85 -146.24, -11.54 -146.13 M-11.48 -146.15 C-11.27 -145.72, -10.86 -145.53, -10.36 -144.89 M-11.59 -146.16 C-11.24 -145.81, -10.94 -145.56, -10.16 -144.89 M-10.24 -144.85 C-10.01 -144.49, -9.36 -144.2, -8.98 -143.21 M-10.25 -144.97 C-9.75 -144.31, -9.37 -143.64, -8.92 -143.19 M-8.98 -143.36 C-8.63 -142.43, -8.22 -141.62, -7.49 -140.77 M-8.89 -143.09 C-8.22 -142.15, -7.73 -141.27, -7.42 -140.7 M-7.44 -140.67 C-6.97 -139.31, -6.56 -138.69, -6.08 -137.21 M-7.63 -140.52 C-6.92 -139.51, -6.36 -138.34, -6.16 -137.37 M-6.39 -137.57 C-6.23 -136.49, -5.78 -135.64, -4.73 -134.15 M-6.15 -137.5 C-5.52 -136.5, -5.21 -135.48, -4.55 -133.9 M-5.16 -134.09 C-4.54 -132.33, -3.73 -130.76, -3.32 -129.7 M-4.75 -133.9 C-4.39 -132.75, -4 -131.83, -3.49 -129.64 M-2.88 -129.88 C-2.63 -128.83, -2.91 -127.08, -1.95 -124.87 M-3.42 -129.72 C-2.92 -128.12, -2.53 -126.78, -2.12 -125.28 M-2.11 -125.28 C-1.13 -123.91, -1.24 -122.38, -0.35 -120.35 M-2.24 -125.28 C-1.62 -124.12, -1.13 -122.88, -0.54 -120.07 M-0.53 -119.65 C0.21 -117.56, 0.63 -115.86, 0.73 -114.08 M-0.34 -119.94 C-0.16 -118.31, 0.42 -115.92, 0.66 -114.76 M1.07 -114.69 C1.79 -113, 2.01 -110.38, 2.36 -108.81 M0.7 -114.86 C1.35 -112.21, 1.67 -110.18, 1.99 -108.87 M2.23 -109.1 C2.93 -107.06, 2.99 -105.97, 3.81 -102.61 M2.25 -108.86 C2.29 -107.37, 3.01 -105.95, 3.43 -102.88 M3.84 -103.2 C3.45 -100.28, 4.6 -99.28, 5.45 -96.8 M3.53 -103.11 C3.91 -101.17, 4.59 -99.21, 4.83 -96.88 M5.66 -96.97 C5.31 -94.38, 7.09 -91.24, 7.12 -83.83 M5.13 -96.58 C5.48 -92.56, 6.5 -88.15, 8.02 -84.39 M7.71 -84.91 C8.46 -79.56, 9.38 -77.01, 9.22 -70.07 M7.82 -83.6 C8.11 -78.73, 8.83 -74.38, 10.03 -70.4 M8.81 -69.78 C11.49 -66.6, 11.59 -62.52, 13.17 -57.62 M9.36 -71.1 C10.13 -67.36, 11.66 -65.14, 12.4 -57.62 M13.38 -56.35 C12.65 -54.26, 13.25 -49.71, 15.95 -44.42 M12.32 -57.75 C13.5 -53.04, 14.64 -48.35, 14.29 -45.33 M14.24 -44.7 C15.26 -43.04, 15.66 -42.14, 16.43 -38.69 M14.61 -44.77 C14.98 -43.58, 15.47 -41.85, 16.11 -38.69 M16.17 -38.67 C16.12 -37.11, 16.99 -35.28, 17.36 -32.74 M15.66 -38.84 C15.94 -37.04, 16.66 -35, 17.21 -32.83 M17.15 -33.46 C17.5 -32.06, 17.08 -30.59, 17.86 -27.41 M17.11 -33 C17.3 -32.14, 17.57 -30.98, 17.84 -27.49 M18.45 -27.42 C17.83 -26.04, 18.31 -24.11, 19 -22.26 M18.17 -27.34 C18.1 -26.12, 18.58 -24.84, 18.85 -22.63 M19.16 -22.16 C19.53 -21.73, 19.72 -20.18, 19.55 -18.2 M19.11 -22.51 C19.25 -21.05, 19.4 -20.02, 20.09 -17.82 M20.06 -17.95 C19.92 -16.35, 20.33 -15.09, 20.92 -13.58 M20 -17.91 C20.34 -15.98, 20.55 -14.77, 20.66 -13.54 M21.16 -13.53 C21.02 -12.63, 21.07 -12.18, 21.79 -9.39 M20.67 -13.45 C21.18 -12.49, 21.22 -11.6, 21.58 -9.72 M21.73 -9.74 C21.57 -8.99, 21.88 -8.11, 22.65 -6.13 M21.49 -9.59 C21.74 -8.95, 21.91 -8.18, 22.41 -6.42 M22.34 -6.22 C22.74 -5.97, 22.52 -5.43, 22.95 -3.99 M22.41 -6.44 C22.69 -5.52, 22.97 -4.89, 23.13 -3.9 M22.96 -3.64 C23.54 -2.96, 23.5 -2.25, 23.95 -1.63 M23.14 -3.83 C23.27 -3.04, 23.5 -2.57, 23.85 -1.83 M24.07 -1.79 C22.39 -1.71, 21.58 -1.21, 17.85 -1.33 M23.62 -1.62 C22.31 -1.89, 20.78 -1.74, 18.19 -1.47 M18.65 -1.78 C17.2 -1.56, 16.25 -1.32, 12.48 -0.51 M18.59 -1.14 C17.11 -1.15, 15.61 -0.75, 12.46 -0.59 M13.22 -0.6 C11.44 -0.38, 8.96 -0.71, 6.59 -0.76 M12.44 -1.09 C10.79 -0.65, 9.23 -0.49, 6.85 -0.23 M7.22 -0.79 C4.62 -0.41, 2.85 -0.44, -0.56 -0.06 M6.52 -0.49 C4.44 -0.15, 1.57 -0.02, 0.23 0.06 M0 0 C0 0, 0 0, 0 0 M0 0 C0 0, 0 0, 0 0 M0 0 C0 0, 0 0, 0 0 M0 0 C0 0, 0 0, 0 0" stroke="#000000" stroke-width="1" fill="none"/></g></g></svg>