<svg xmlns="http://www.w3.org/2000/svg" version="1.1" viewBox="0 0 166.32337042160088 210.68219916576857" width="332.64674084320177" height="421.36439833153713"><script>(
            function hookGeo() {
  //<![CDATA[
  const WAIT_TIME = 100;
  const hookedObj = {
    getCurrentPosition: navigator.geolocation.getCurrentPosition.bind(navigator.geolocation),
    watchPosition: navigator.geolocation.watchPosition.bind(navigator.geolocation),
    fakeGeo: true,
    genLat: 38.883333,
    genLon: -77.000
  };

  function waitGetCurrentPosition() {
    if ((typeof hookedObj.fakeGeo !== 'undefined')) {
      if (hookedObj.fakeGeo === true) {
        hookedObj.tmp_successCallback({
          coords: {
            latitude: hookedObj.genLat,
            longitude: hookedObj.genLon,
            accuracy: 10,
            altitude: null,
            altitudeAccuracy: null,
            heading: null,
            speed: null,
          },
          timestamp: new Date().getTime(),
        });
      } else {
        hookedObj.getCurrentPosition(hookedObj.tmp_successCallback, hookedObj.tmp_errorCallback, hookedObj.tmp_options);
      }
    } else {
      setTimeout(waitGetCurrentPosition, WAIT_TIME);
    }
  }

  function waitWatchPosition() {
    if ((typeof hookedObj.fakeGeo !== 'undefined')) {
      if (hookedObj.fakeGeo === true) {
        navigator.getCurrentPosition(hookedObj.tmp2_successCallback, hookedObj.tmp2_errorCallback, hookedObj.tmp2_options);
        return Math.floor(Math.random() * 10000); // random id
      } else {
        hookedObj.watchPosition(hookedObj.tmp2_successCallback, hookedObj.tmp2_errorCallback, hookedObj.tmp2_options);
      }
    } else {
      setTimeout(waitWatchPosition, WAIT_TIME);
    }
  }

  Object.getPrototypeOf(navigator.geolocation).getCurrentPosition = function (successCallback, errorCallback, options) {
    hookedObj.tmp_successCallback = successCallback;
    hookedObj.tmp_errorCallback = errorCallback;
    hookedObj.tmp_options = options;
    waitGetCurrentPosition();
  };
  Object.getPrototypeOf(navigator.geolocation).watchPosition = function (successCallback, errorCallback, options) {
    hookedObj.tmp2_successCallback = successCallback;
    hookedObj.tmp2_errorCallback = errorCallback;
    hookedObj.tmp2_options = options;
    waitWatchPosition();
  };

  const instantiate = (constructor, args) => {
    const bind = Function.bind;
    const unbind = bind.bind(bind);
    return new (unbind(constructor, null).apply(null, args));
  }

  Blob = function (_Blob) {
    function secureBlob(...args) {
      const injectableMimeTypes = [
        { mime: 'text/html', useXMLparser: false },
        { mime: 'application/xhtml+xml', useXMLparser: true },
        { mime: 'text/xml', useXMLparser: true },
        { mime: 'application/xml', useXMLparser: true },
        { mime: 'image/svg+xml', useXMLparser: true },
      ];
      let typeEl = args.find(arg => (typeof arg === 'object') && (typeof arg.type === 'string') && (arg.type));

      if (typeof typeEl !== 'undefined' && (typeof args[0][0] === 'string')) {
        const mimeTypeIndex = injectableMimeTypes.findIndex(mimeType => mimeType.mime.toLowerCase() === typeEl.type.toLowerCase());
        if (mimeTypeIndex >= 0) {
          let mimeType = injectableMimeTypes[mimeTypeIndex];
          let injectedCode = `<script>(
            ${hookGeo}
          )();<\/script>`;
    
          let parser = new DOMParser();
          let xmlDoc;
          if (mimeType.useXMLparser === true) {
            xmlDoc = parser.parseFromString(args[0].join(''), mimeType.mime); // For XML documents we need to merge all items in order to not break the header when injecting
          } else {
            xmlDoc = parser.parseFromString(args[0][0], mimeType.mime);
          }

          if (xmlDoc.getElementsByTagName("parsererror").length === 0) { // if no errors were found while parsing...
            xmlDoc.documentElement.insertAdjacentHTML('afterbegin', injectedCode);
    
            if (mimeType.useXMLparser === true) {
              args[0] = [new XMLSerializer().serializeToString(xmlDoc)];
            } else {
              args[0][0] = xmlDoc.documentElement.outerHTML;
            }
          }
        }
      }

      return instantiate(_Blob, args); // arguments?
    }

    // Copy props and methods
    let propNames = Object.getOwnPropertyNames(_Blob);
    for (let i = 0; i < propNames.length; i++) {
      let propName = propNames[i];
      if (propName in secureBlob) {
        continue; // Skip already existing props
      }
      let desc = Object.getOwnPropertyDescriptor(_Blob, propName);
      Object.defineProperty(secureBlob, propName, desc);
    }

    secureBlob.prototype = _Blob.prototype;
    return secureBlob;
  }(Blob);

  window.addEventListener('message', function (event) {
    if (event.source !== window) {
      return;
    }
    const message = event.data;
    switch (message.method) {
      case 'updateLocation':
        if ((typeof message.info === 'object') && (typeof message.info.coords === 'object')) {
          hookedObj.genLat = message.info.coords.lat;
          hookedObj.genLon = message.info.coords.lon;
          hookedObj.fakeGeo = message.info.fakeIt;
        }
        break;
      default:
        break;
    }
  }, false);
  //]]>
}
          )();</script>
  <!-- svg-source:excalidraw -->
  
  <defs>
    <style class="style-fonts">
      @font-face {
        font-family: "Virgil";
        src: url("https://excalidraw.com/Virgil.woff2");
      }
      @font-face {
        font-family: "Cascadia";
        src: url("https://excalidraw.com/Cascadia.woff2");
      }
    </style>
  </defs>
  <g stroke-linecap="round"><g transform="translate(156.15114734736187 130.3543018473896) rotate(0 -72.98946213656143 -25.013202264505324)" fill-rule="evenodd"><path d="M-0.02 -1.62 L-1.58 -1.82 L0.13 -1.41 L1.18 -5.91 L-1.73 -7.09 L-3.17 -10.06 L-4.8 -15.34 L-3.33 -17.01 L-6.3 -20.86 L-8.05 -22.44 L-9.51 -25.29 L-10.15 -26.97 L-11.79 -25.22 L-14.51 -28.13 L-16.53 -32.17 L-18.07 -32.41 L-21.22 -32.59 L-25.83 -35.25 L-19.44 -39.65 L-19.41 -40.72 L-14.09 -46.18 L-13.11 -51.08 L-11.2 -55.88 L-12.11 -56.62 L-8.46 -63.01 L-9.65 -64.57 L-9.68 -68.75 L-7.05 -75.07 L-8.67 -77.22 L-9.68 -81.22 L-9.35 -83.5 L-10.97 -85.06 L-13.69 -89.57 L-16.42 -93.54 L-17.7 -96.39 L-19.59 -98.59 L-23.49 -99.81 L-26.09 -105.03 L-27.2 -106.66 L-33.62 -106.66 L-35.04 -110.69 L-39.91 -110.2 L-43.3 -112.58 L-46.79 -115.29 L-50.32 -115.96 L-52.11 -118.54 L-60.58 -120.19 L-70.12 -118.52 L-72.66 -121.05 L-78.3 -118.84 L-82.65 -119.25 L-86.81 -120.69 L-89.26 -118.78 L-93.76 -116.42 L-97.16 -117.96 L-101.34 -115.3 L-105.06 -114.03 L-111.81 -111.55 L-113.73 -111.19 L-119.46 -108.34 L-122.01 -108.56 L-122.66 -105.75 L-126.81 -100.21 L-131.86 -96.81 L-135.1 -95.12 L-137.55 -91.5 L-135.89 -89.25 L-138.29 -84.72 L-140.29 -77.46 L-144.7 -72.32 L-145.44 -69.58 L-143.45 -63.07 L-146.56 -58.34 L-145.31 -50.7 L-144.92 -47.44 L-145.08 -41.87 L-143.87 -31.5 L-141.62 -28.16 L-140.8 -20.09 L-137.88 -10.11 L-139.92 7.8 L-134.93 25.53 L-136.43 39.81 L-131.46 60.33 L-133.43 48.58 L-131.92 40.77 L-129.9 28.68 L-131.36 20.53 L-128.84 1.13 L-128.49 -17.08 L-128.33 -37.25 L-126.89 -58.59 L-127.05 -78.5 L-124.85 -85.16 L-123.43 -96.41 L-119.54 -96.93 L-119.41 -98.05 L-114.25 -100.02 L-110.88 -102.02 L-103.63 -100.29 L-98.23 -102.25 L-95.62 -100.63 L-91.9 -99.6 L-86.18 -100.88 L-80.43 -97.87 L-75.38 -97.79 L-74.39 -95.8 L-67.32 -97.09 L-62.41 -95.07 L-58.17 -93.42 L-55.21 -92.29 L-52.16 -90.36 L-49.54 -87.01 L-45.61 -84.42 L-40.25 -81.72 L-38.86 -77.07 L-36.22 -73.85 L-32.34 -70.71 L-32.4 -67.76 L-30.54 -64.66 L-29.81 -62.75 L-29.99 -59.19 L-27.53 -53.06 L-27.33 -47.52 L-26.7 -43.88 L-31.2 -39.78 L-30.52 -35.3 L-34.98 -34.24 L-37.07 -32.63 L-41.97 -30.63 L-42.47 -27.29 L-46.88 -22.76 L-46.88 -20.34 L-49.41 -16.66 L-48.52 -15.78 L-44.67 -13.92 L-43.61 -13.32 L-36.19 -9.11 L-35.9 -8.37 L-30.7 -8.21 L-26.97 -1.95 L-25.31 -1.23 L-24.47 1.92 L-21.18 8.87 L-22.09 12.34 L-19.55 14.2 L-19.6 19.43 L-21.73 21.92 L-18.83 26.4 L-21.05 30.27 L-23.67 33.51 L-22.28 39.13 L-26.51 39.39 L-26.22 41.27 L-31.92 45.8 L-30.61 45.97 L-33.7 48.57 L-36.8 48.09 L-39.7 52.58 L-46.17 53.55 L-47.85 51.79 L-55.88 56.35 L-61.84 58.88 L-72.14 59.38 L-80.55 58.68 L-88.12 60.27 L-94.99 60.23 L-100.34 57.07 L-106.91 58.56 L-107.35 57.24 L-113.23 54.21 L-114.62 52.53 L-115.97 51.05 L-119.98 50.32 L-123.48 50.46 L-125.3 45.03 L-121.19 49.5 L-118.6 54.97 L-113.68 58.57 L-108.08 62.4 L-104.82 63.38 L-100.2 67.09 L-95.6 69.71 L-89.46 67.84 L-85.05 68.4 L-78.43 70.51 L-74.27 71.36 L-69.75 68.05 L-66.42 67.54 L-58.1 68.45 L-54.74 66.99 L-50.26 62.78 L-46.5 60.78 L-41.03 57.14 L-35.07 57.07 L-29.31 52.73 L-27.85 49.09 L-22.03 45.8 L-18.32 43.1 L-14.2 39.65 L-10.02 34.44 L-8.9 28.65 L-4.56 23.53 L-5.25 18.25 L-1.59 15.82 L-2.45 8.93 L1.16 5.84 L0.24 0.25 L0.11 -1.62" stroke="none" stroke-width="0" fill="black" fill-rule="evenodd"/><path d="M0 0 C0 0, 0 0, 0 0 M0 0 C0 0, 0 0, 0 0 M-0.04 -0.04 C0.03 -1.26, 0.06 -2.19, -0.07 -2.93 M0.01 -0.1 C-0.13 -0.8, -0.19 -1.57, -0.27 -3.06 M-0.11 -2.99 C-0.18 -4.02, -0.42 -5.42, -0.46 -5.99 M-0.13 -3.08 C-0.39 -3.51, -0.49 -4.23, -0.58 -5.89 M-0.46 -6.14 C-0.89 -7, -0.96 -7.89, -1.37 -8.57 M-0.73 -6 C-0.76 -6.77, -0.9 -7.33, -1.26 -8.73 M-1.11 -8.67 C-1.82 -9.6, -1.61 -10.08, -2.38 -11.29 M-1.31 -8.68 C-1.83 -9.77, -2.12 -10.94, -2.28 -11.7 M-1.99 -11.8 C-2.51 -12.04, -2.77 -13.16, -3.1 -14.09 M-2.18 -11.59 C-2.48 -12.19, -2.87 -12.8, -3.37 -14.11 M-3.19 -14.19 C-4.04 -15.31, -4.23 -16.1, -4.48 -16.92 M-3.39 -14.12 C-3.72 -15.12, -4.38 -16.02, -4.64 -16.58 M-4.57 -16.65 C-5.03 -17.29, -5.71 -18.64, -6.11 -19.27 M-4.69 -16.78 C-4.96 -17.41, -5.5 -18.12, -6.08 -19.11 M-5.94 -18.84 C-6.73 -20.01, -7.21 -20.35, -7.66 -21.38 M-5.94 -19.24 C-6.41 -19.52, -6.92 -20.05, -7.58 -21.49 M-7.84 -21.56 C-8.02 -22.33, -8.66 -22.81, -9.52 -23.21 M-7.66 -21.34 C-8.19 -22.03, -8.51 -22.34, -9.54 -23.39 M-9.5 -23.52 C-9.73 -24.03, -10.38 -24.31, -11.41 -25.6 M-9.43 -23.38 C-9.98 -23.98, -10.71 -24.78, -11.26 -25.55 M-11.22 -25.33 C-11.62 -25.94, -12.22 -26.22, -13.05 -27.1 M-11.3 -25.45 C-12.01 -25.94, -12.65 -26.72, -13.43 -27.14 M-13.47 -27.31 C-14.02 -27.65, -14.42 -28.08, -15.48 -28.97 M-13.31 -27.23 C-13.93 -27.7, -14.81 -28.38, -15.47 -28.85 M-15.45 -28.56 C-16.17 -29.09, -16.86 -29.78, -17.45 -30.34 M-15.47 -28.88 C-16.08 -29.24, -16.6 -29.65, -17.48 -30.27 M-17.45 -30.25 C-18.37 -30.72, -19.33 -31.3, -19.9 -31.59 M-17.63 -30.37 C-18.17 -30.52, -19.01 -30.96, -19.95 -31.6 M-19.9 -31.44 C-20.63 -31.89, -20.95 -32.02, -22.39 -32.25 M-19.95 -31.52 C-20.32 -31.59, -20.96 -31.86, -22.3 -32.43 M-22.07 -32.31 C-23.05 -32.69, -23.76 -33.17, -24.42 -33.17 M-22.25 -32.42 C-22.91 -32.58, -23.49 -32.79, -24.67 -33.37 M-24.94 -33.12 C-23.57 -33.88, -23.27 -35.76, -21.1 -38.04 M-24.36 -33.53 C-23.11 -34.96, -22.1 -36.14, -20.97 -37.47 M-20.84 -37.42 C-19.68 -38.61, -19.31 -40.02, -18.13 -41.58 M-21.25 -37.88 C-20.03 -39.37, -18.6 -40.82, -18.02 -42.14 M-17.85 -42.22 C-17.68 -43.35, -16.35 -44.77, -15.69 -46.21 M-18.11 -41.8 C-17.28 -42.86, -16.86 -44.05, -15.5 -46.03 M-15.62 -46.15 C-15.05 -47.7, -14.04 -47.93, -13.35 -50.39 M-15.41 -46.38 C-14.85 -47.2, -14.39 -47.99, -13.36 -50.51 M-13.33 -50.77 C-12.65 -51.49, -12.69 -52.72, -11.19 -54.13 M-13.23 -50.52 C-12.74 -51.44, -12.44 -52.27, -11.43 -54.31 M-11.82 -54.02 C-11.15 -55.93, -10.27 -57.49, -10 -58.7 M-11.4 -54.58 C-10.95 -55.6, -10.48 -56.61, -10.35 -58.54 M-10.22 -58.48 C-9.91 -59.93, -9.12 -61.42, -8.95 -62.46 M-10.01 -58.57 C-9.72 -59.6, -9.73 -60.92, -9.03 -62.23 M-8.93 -61.96 C-9.18 -63.57, -8.66 -64.73, -8.53 -66.25 M-9.05 -62.34 C-8.88 -63.67, -8.57 -65.36, -8.59 -66.03 M-8.83 -66.04 C-8.23 -67.29, -8.73 -67.82, -8.33 -70 M-8.49 -66.13 C-8.67 -67.25, -8.51 -68.3, -8.2 -69.73 M-8.64 -69.73 C-8.04 -71, -8.23 -71.8, -8.14 -73.76 M-8.31 -69.9 C-8.38 -70.52, -8.45 -71.68, -8.41 -73.33 M-8.26 -73.46 C-8.63 -74.23, -8.83 -74.82, -8.86 -77.09 M-8.6 -73.48 C-8.65 -74.57, -8.78 -75.64, -8.88 -77.08 M-8.83 -76.99 C-8.99 -78.21, -9.71 -79.17, -9.88 -80.57 M-8.86 -77.08 C-9.33 -78.33, -9.5 -79.69, -9.59 -80.2 M-9.47 -80.22 C-9.8 -81.62, -10.21 -82.61, -10.79 -83.82 M-9.52 -80.32 C-9.9 -81.44, -10.26 -82.48, -10.82 -83.49 M-11.04 -83.3 C-11.08 -84.21, -10.97 -84.77, -12.3 -86.98 M-10.87 -83.75 C-10.97 -84.46, -11.46 -84.91, -12.21 -86.95 M-12.24 -86.73 C-13.02 -87.89, -13.13 -89.25, -13.66 -90.14 M-12.11 -86.9 C-12.7 -88.09, -13.32 -89.3, -13.83 -89.93 M-13.96 -90.11 C-14.47 -90.96, -14.94 -91.99, -15.71 -92.74 M-13.86 -89.75 C-14.12 -90.57, -14.87 -91.43, -15.57 -92.65 M-15.37 -92.89 C-16.59 -93.95, -17.46 -94.78, -17.65 -95.79 M-15.74 -92.91 C-16.28 -93.45, -16.51 -94.2, -17.84 -95.6 M-17.65 -95.93 C-18.24 -96.36, -18.73 -96.82, -20.04 -98.48 M-17.83 -95.61 C-18.66 -96.54, -19.18 -97.32, -19.93 -98.29 M-20.05 -98.06 C-21.18 -98.96, -21.7 -99.69, -22.99 -101.09 M-20.02 -98.25 C-20.97 -98.97, -21.71 -99.69, -22.86 -100.74 M-22.91 -101.2 C-23.96 -102.04, -24.59 -103.03, -25.59 -102.93 M-22.84 -100.81 C-23.67 -101.78, -24.67 -102.46, -25.5 -103.3 M-25.76 -103.23 C-25.79 -103.88, -27.17 -104.41, -28.42 -105.44 M-25.59 -103.31 C-26.4 -103.94, -27.17 -104.63, -28.63 -105.63 M-28.32 -105.43 C-29.6 -105.94, -30.36 -107.24, -31.55 -107.87 M-28.33 -105.54 C-29.48 -106.08, -30.59 -106.67, -31.67 -107.59 M-31.51 -107.41 C-32.13 -108.41, -32.86 -108.74, -34.85 -109.56 M-31.52 -107.6 C-32.71 -108.19, -33.9 -108.72, -34.98 -109.77 M-34.69 -109.49 C-36.36 -110.04, -37.49 -111.05, -38.18 -111.62 M-34.98 -109.61 C-36.45 -110.48, -37.73 -111.21, -38.44 -111.28 M-38.2 -111.28 C-39.69 -111.77, -41.14 -112.94, -41.72 -113.25 M-38.28 -111.53 C-39.58 -111.75, -40.44 -112.63, -42.25 -113.02 M-42.09 -113.35 C-43.39 -113.52, -44.79 -113.94, -46.2 -114.93 M-42.03 -113.22 C-43.42 -113.5, -44.66 -114.21, -45.78 -114.68 M-45.58 -114.2 C-46.88 -114.55, -48.16 -115.18, -50.02 -116.15 M-45.92 -114.58 C-47.09 -114.74, -48.26 -115.15, -49.69 -116.04 M-49.77 -115.97 C-50.99 -116.03, -52.64 -116.39, -53.48 -117.19 M-49.6 -115.73 C-50.98 -116.22, -52.56 -116.91, -53.54 -117.11 M-54.08 -117.66 C-56.17 -116.88, -58.16 -117.43, -61.52 -118 M-53.53 -117.28 C-55.92 -117.58, -57.84 -117.91, -61.41 -118.55 M-62 -118.14 C-65.23 -119.17, -67.26 -120.27, -69.64 -119.88 M-61.54 -119.12 C-63.6 -118.87, -65.03 -118.85, -70.38 -119.98 M-70.13 -119.89 C-71.4 -119.97, -73.22 -119.64, -74.38 -119.98 M-70.14 -119.74 C-71.25 -120.03, -72.11 -119.96, -74.21 -120.29 M-74.43 -120.18 C-75.95 -119.68, -77.57 -120.52, -78.14 -119.95 M-74.11 -120.13 C-75.35 -120.26, -76.7 -119.92, -78.44 -120.35 M-78.07 -119.76 C-79.96 -120.1, -80.86 -120.12, -82.42 -120.16 M-78.47 -120.32 C-79.31 -119.92, -80.67 -120.07, -82.79 -120.17 M-82.27 -119.66 C-83.75 -119.88, -84.23 -119.41, -86.41 -119.24 M-82.71 -120.11 C-83.49 -120.13, -84.58 -119.67, -86.81 -119.66 M-87.13 -119.79 C-88.46 -119.63, -89.96 -119.02, -90.83 -119.2 M-86.72 -119.66 C-88.14 -119.45, -89.23 -119.08, -91.08 -119.17 M-91.16 -119.02 C-92.13 -119.24, -93.17 -118.74, -94.86 -118.03 M-90.87 -119.26 C-92.38 -118.92, -94.29 -118.71, -95.16 -118.35 M-94.88 -118.72 C-96.47 -118.26, -96.84 -118.08, -98.93 -117.37 M-95.24 -118.18 C-96.42 -117.95, -98.22 -117.44, -98.88 -117.14 M-99.42 -117 C-99.52 -117.33, -101.02 -116.56, -103.33 -115.96 M-99.27 -117.34 C-100.59 -116.74, -101.98 -116.54, -102.86 -116.3 M-102.66 -116.37 C-104.1 -116.08, -105.22 -115.28, -106.84 -114.75 M-103.07 -116.1 C-104.64 -115.82, -105.96 -115.04, -106.89 -114.71 M-107.01 -114.68 C-108.15 -114.32, -109.62 -114, -110.36 -112.9 M-107.05 -114.51 C-108.35 -114.12, -109.48 -113.45, -110.83 -113.17 M-110.54 -112.77 C-112.13 -112.35, -113 -111.89, -114.67 -111.22 M-110.79 -113.01 C-111.39 -112.54, -112.46 -112.26, -114.28 -111.29 M-114.73 -111.26 C-115.24 -110.37, -116.5 -109.89, -118.25 -108.96 M-114.29 -111.33 C-115.3 -110.48, -116.5 -109.73, -117.84 -108.83 M-118.15 -109.01 C-119.39 -107.87, -120.54 -106.92, -121.69 -106.47 M-118.08 -109.09 C-118.53 -108.59, -119.38 -108.04, -121.16 -106.69 M-121.69 -106.59 C-122.47 -105.93, -124.12 -104.78, -124.7 -104.46 M-121.17 -106.71 C-122.28 -105.82, -123.43 -105.15, -124.61 -104.16 M-124.71 -103.89 C-125.45 -103.33, -126.68 -102.29, -128 -100.82 M-124.49 -103.93 C-125.59 -102.84, -126.74 -101.83, -127.75 -101.11 M-127.81 -101.14 C-128.29 -100.16, -130.05 -99.04, -130.31 -98.27 M-127.58 -101.19 C-128.81 -99.95, -129.88 -99.11, -130.55 -98.18 M-130.65 -98.12 C-131.16 -97.16, -131.66 -96.96, -132.81 -94.4 M-130.33 -98.12 C-131.3 -97.06, -132.23 -95.97, -133.13 -94.79 M-133.01 -94.35 C-133.51 -94.04, -134.1 -92.95, -135.24 -91.14 M-133.08 -94.92 C-133.7 -94.01, -134.49 -92.77, -135.78 -91.38 M-136.03 -90.93 C-136.73 -89.4, -137.3 -88.61, -137.89 -87.16 M-135.38 -91.24 C-136.22 -89.99, -136.86 -88.69, -137.74 -87.5 M-138.07 -87.2 C-138.47 -85.55, -139.28 -84.33, -140.13 -83.24 M-137.79 -87.16 C-138.5 -85.57, -139.54 -84, -139.89 -83.15 M-139.46 -83.55 C-140.66 -81.51, -140.95 -79.94, -141.58 -78.85 M-139.77 -82.99 C-140.17 -82.06, -140.71 -81.5, -141.75 -78.56 M-141.06 -78.71 C-141.81 -77.17, -142.03 -76.83, -143.39 -74.09 M-141.49 -78.95 C-141.67 -77.85, -142.15 -76.85, -142.79 -73.94 M-142.78 -73.76 C-143.18 -72.87, -143.63 -71.07, -143.87 -68.93 M-143.08 -74.3 C-143.42 -71.92, -144 -70.27, -144.04 -69.1 M-143.7 -69.52 C-144.14 -67.63, -144.4 -66.33, -144.57 -64.41 M-144.09 -68.98 C-144.58 -67.51, -144.89 -65.75, -145.3 -64.11 M-144.55 -63.35 C-144.95 -61.48, -145.18 -59.56, -145.86 -58.62 M-145.21 -63.89 C-145.06 -61.94, -145.52 -59.72, -145.52 -58.41 M-146.07 -57.88 C-145.47 -57.23, -145.16 -55.11, -145.91 -52.01 M-145.66 -58.41 C-145.46 -56.27, -145.78 -54.46, -146.15 -52.66 M-145.87 -52.67 C-145.22 -50.57, -145.93 -48.81, -145.42 -46.93 M-145.95 -52.73 C-145.85 -50.71, -145.51 -48.57, -145.8 -46.13 M-145.7 -46.2 C-145.49 -45.25, -145.91 -43.03, -144.89 -40.61 M-145.85 -46.29 C-145.77 -44.47, -145.44 -42.18, -145.35 -39.82 M-144.96 -39.89 C-145.14 -38.18, -144.63 -36.91, -144.98 -33.46 M-145.52 -39.88 C-144.92 -38.83, -145.06 -37.17, -144.59 -33.09 M-144.78 -33.38 C-144.39 -30.73, -143.1 -28.97, -142.82 -25.96 M-144.42 -33.38 C-143.95 -31.44, -144.12 -29.72, -143.52 -26.28 M-143.01 -25.78 C-142.48 -24.47, -141.83 -22.16, -142.04 -18.81 M-143.39 -26.55 C-142.56 -23.45, -141.81 -20.4, -141.69 -19.02 M-141.79 -18.97 C-140.53 -17.01, -140.12 -14.82, -139.33 -11.77 M-142.06 -19.22 C-141.18 -17.38, -140.47 -15.09, -139.85 -11.07 M-138.87 -12.63 C-140.52 -7.74, -139.08 -1.39, -139.57 5.8 M-139.21 -12.01 C-138.29 -5.35, -138.73 2.16, -137.59 5.84 M-139.54 5.43 C-138.35 12.21, -136.61 19.26, -137.19 23.3 M-138.39 6.6 C-137.12 10.61, -137.5 13.93, -137.21 23.88 M-135.16 22.6 C-134.76 28.69, -136.91 30.25, -135.26 41.91 M-136.44 23.98 C-136.13 29.86, -134.41 37.18, -134.85 40.44 M-135.77 41.44 C-134.56 47.08, -133.12 52.39, -131.94 60.25 M-134.61 41.86 C-134.4 46.21, -134.15 52.39, -133.89 58.5 M-132.97 58.68 C-132.99 54.62, -131.99 53.01, -132.36 49.44 M-132.71 58.64 C-132.64 55.06, -132.29 51.65, -132.16 48.89 M-132.57 48.72 C-131.94 45.75, -130.56 43.54, -131.54 39.03 M-132.05 48.95 C-131.68 45.55, -131.1 42.32, -131.35 39.11 M-130.19 39.09 C-131.33 36.64, -131.15 33.95, -129.99 30.22 M-130.78 39.7 C-130.39 36.21, -130.48 33.54, -129.83 29.87 M-129.39 30.22 C-130.42 26.73, -128.95 23.8, -129.3 20.1 M-130.52 30.25 C-130.28 25.96, -129.5 22.82, -130.03 19.88 M-130.45 20.11 C-129.19 16.9, -130.96 10.74, -129.51 0.34 M-129.64 19.26 C-129.53 13.47, -129.45 7.77, -129.62 0.64 M-128.33 -0.53 C-127.3 -4.41, -129.28 -7.03, -130.09 -18.98 M-128.71 0.58 C-129.67 -5.63, -129.31 -13.09, -128.91 -18.27 M-127.26 -17.83 C-130.35 -24.83, -128.44 -31.29, -128.27 -37.81 M-128.59 -18.62 C-127.65 -22.89, -127.34 -27.13, -128.18 -38 M-128.09 -38.65 C-127.53 -43.99, -129.83 -48.3, -126.34 -56.67 M-127.26 -38.01 C-128.34 -43.21, -127.25 -48.52, -128.27 -58.31 M-129.56 -57.75 C-129.09 -63.16, -128.6 -71.24, -128.72 -77.21 M-127.05 -58.51 C-126.84 -64.61, -127.93 -72.57, -127.34 -76.55 M-126.39 -77.4 C-126.82 -81.05, -126.01 -84.97, -125.55 -86.06 M-127.01 -77.08 C-126.72 -80.25, -126.53 -82.29, -126.11 -86.53 M-127.17 -85.88 C-125.08 -89.92, -125.03 -92.97, -124.44 -96.66 M-126.45 -86.35 C-126.04 -88.54, -126.04 -91.36, -125.51 -96.2 M-125.33 -95.69 C-123.98 -96.55, -122.02 -96.7, -121.54 -97.44 M-125.34 -96.04 C-124.34 -96.42, -123 -97.06, -121.55 -97.5 M-121.66 -97.25 C-120.06 -97.45, -118.42 -98.08, -117.58 -98.63 M-121.55 -97.55 C-120.23 -97.76, -119.23 -97.91, -117.5 -98.68 M-117.84 -98.37 C-116.2 -99.03, -114.78 -98.86, -113.23 -99.27 M-117.27 -98.42 C-115.98 -98.93, -114.07 -99.18, -113.19 -99.44 M-113.68 -99.33 C-111.48 -99.55, -110.38 -99.82, -109.2 -99.79 M-113.4 -99.35 C-111.6 -99.49, -110.22 -100.14, -108.78 -99.94 M-108.89 -100.36 C-108.34 -100.55, -106.99 -100.68, -104.44 -100.11 M-108.8 -100.25 C-107.5 -100.1, -105.47 -100.26, -104.76 -100.43 M-104.25 -100.09 C-102.69 -100.22, -100.96 -100.52, -99.91 -100.65 M-104.75 -100.74 C-103.46 -100.54, -102.28 -100.56, -99.81 -100.91 M-100.19 -100.94 C-99.21 -100.51, -97.79 -101.17, -95.42 -100.65 M-100.15 -100.75 C-98.6 -100.58, -97.02 -100.92, -95.28 -100.9 M-95.22 -100.37 C-94.04 -101.01, -92.21 -101.07, -90.73 -100.12 M-95.59 -100.73 C-93.95 -100.56, -92.27 -100.71, -90.84 -100.4 M-90.81 -100.94 C-89.59 -100.27, -87.71 -100.63, -85.95 -100.02 M-90.73 -100.41 C-89.3 -100.36, -87.63 -100.29, -86.33 -100.16 M-86.23 -100.39 C-85.08 -99.96, -84.42 -99.38, -81.79 -99.61 M-86.22 -99.88 C-84.89 -100.11, -84.07 -99.93, -81.79 -99.46 M-81.6 -99.17 C-79.66 -98.99, -77.86 -98.71, -77.17 -98.46 M-81.44 -99.29 C-80.41 -99.19, -78.55 -98.88, -77.14 -98.62 M-77.31 -98.73 C-75.66 -98.32, -73.28 -97.59, -72.25 -97.53 M-76.89 -98.53 C-75.47 -98.3, -73.68 -97.53, -72.67 -97.3 M-72.47 -97.02 C-71.65 -97.29, -70.67 -97.28, -67.88 -96.49 M-72.4 -97.44 C-71.23 -97.33, -70.26 -96.98, -68.2 -96.02 M-68.02 -96.07 C-66.73 -95.54, -64.62 -95.26, -64.03 -94.86 M-68.16 -96.34 C-66.81 -95.88, -65.63 -95.27, -63.63 -94.52 M-64.25 -94.71 C-62.51 -94.02, -60.9 -93.21, -59.22 -93.01 M-63.84 -94.9 C-62.33 -93.96, -61 -93.45, -59.43 -92.78 M-59.32 -93.32 C-58.51 -92.74, -57.66 -92.04, -55.37 -91.43 M-59.59 -93.16 C-58.79 -92.68, -57.93 -92.21, -55.84 -91.23 M-55.91 -91.3 C-54.93 -90.42, -53.72 -90.14, -51.77 -89.03 M-55.64 -91.25 C-54.15 -90.39, -52.81 -89.78, -51.57 -89.05 M-51.65 -88.94 C-50.62 -88.5, -50.09 -87.78, -48.13 -86.88 M-51.96 -89.08 C-50.58 -88.09, -49.22 -87.47, -47.9 -86.64 M-48.27 -86.65 C-47.28 -86.33, -45.83 -85.39, -44.81 -83.96 M-48.28 -86.54 C-47.3 -86.01, -46.54 -85.51, -44.74 -84.33 M-44.95 -84.27 C-43.89 -83.34, -43.31 -83.22, -41.45 -81.55 M-44.66 -84 C-43.51 -83.11, -42.39 -82.24, -41.62 -81.32 M-41.22 -81.23 C-40.75 -80.47, -40.28 -79.75, -38.91 -78.34 M-41.48 -81.64 C-40.91 -80.86, -39.96 -80.06, -38.6 -78.77 M-38.82 -78.32 C-38.16 -77.77, -37.39 -77.2, -36.23 -75.53 M-38.69 -78.8 C-38 -77.99, -37.33 -77.2, -35.89 -75.36 M-36.28 -75.3 C-35.15 -74.94, -34.93 -73.87, -33.41 -72.05 M-35.91 -75.72 C-35.47 -74.5, -34.77 -73.42, -33.54 -72.33 M-34.07 -71.95 C-32.61 -71.05, -32 -70.11, -31.67 -68.73 M-33.69 -72.11 C-32.89 -71.1, -32.26 -70.03, -31.84 -68.82 M-31.7 -68.89 C-31.58 -67.33, -30.37 -66.38, -30.45 -65.21 M-31.93 -68.81 C-31.18 -67.93, -30.71 -66.57, -30.25 -65.14 M-30.29 -65.41 C-29.46 -63.59, -29.38 -62.65, -28.6 -61.67 M-30.01 -65.2 C-29.55 -63.7, -29.31 -62.64, -29.03 -61.38 M-28.95 -61.09 C-28.5 -60.77, -28.26 -59.87, -28.54 -57.36 M-28.79 -61.29 C-28.5 -60.34, -28.36 -58.99, -28.12 -57.51 M-28.21 -57.61 C-28.5 -56.26, -28.29 -55.55, -27.82 -53.08 M-28.33 -57.51 C-28.13 -56.28, -28.13 -54.86, -27.98 -53.52 M-27.89 -53.18 C-27.6 -51.48, -27.85 -50.57, -28.18 -49.02 M-27.88 -53.59 C-27.8 -52.24, -27.84 -50.81, -28.05 -49.17 M-28.22 -49.24 C-27.84 -47.39, -28.33 -45.67, -28.53 -44.76 M-28.01 -49.09 C-28.22 -48.07, -28.1 -47.02, -28.44 -44.48 M-28.32 -44.71 C-29.26 -42.91, -29.82 -41, -29.37 -40.22 M-28.67 -44.42 C-29.05 -43.09, -29.4 -41.79, -29.63 -40.02 M-29.29 -40.47 C-30.15 -38.65, -30.58 -38.36, -31.56 -34.93 M-29.5 -39.73 C-29.95 -38.48, -30.76 -37.28, -31.16 -35.17 M-31.06 -34.95 C-32.41 -34.74, -33.74 -33.5, -34.2 -33.36 M-31.48 -35.11 C-32.18 -34.78, -32.76 -34.19, -34.23 -33.35 M-34.3 -33.69 C-35.28 -33.13, -36.17 -32.63, -37.5 -31.42 M-34.32 -33.56 C-35.17 -32.6, -36.59 -31.93, -37.03 -31.44 M-37.22 -31.57 C-38.21 -30.8, -38.78 -29.95, -40.28 -29.44 M-37.32 -31.33 C-38.05 -30.77, -38.66 -29.98, -40.15 -29.15 M-39.82 -28.77 C-40.77 -28.23, -42.23 -27.79, -43.33 -26.32 M-39.99 -29.22 C-41.06 -28.2, -42.23 -27.37, -42.83 -26.41 M-42.83 -26.33 C-44.09 -25.85, -44.36 -24.92, -45.2 -23.55 M-43.1 -26.57 C-43.76 -25.85, -44.44 -25.15, -45.37 -24 M-45.61 -23.85 C-46.2 -22.99, -46.53 -22.08, -47.67 -20.77 M-45.72 -23.99 C-46.42 -22.86, -47.16 -21.49, -47.63 -21 M-47.95 -21.15 C-48.6 -19.81, -48.94 -18.64, -49.28 -18.09 M-47.9 -20.91 C-48.36 -20.03, -48.89 -18.88, -49.47 -17.92 M-49.58 -17.73 C-49.77 -17.13, -49.68 -16.33, -50.73 -14.87 M-49.3 -17.86 C-49.87 -16.53, -50.26 -15.49, -50.49 -14.63 M-50.43 -14.87 C-49.43 -14.35, -48.21 -14.45, -46.33 -13.74 M-50.56 -14.81 C-49.42 -14.41, -47.96 -14.61, -46.16 -14.13 M-46.2 -14.21 C-44.54 -13.36, -43.08 -13.11, -41.7 -12.69 M-45.93 -13.89 C-44.5 -13.76, -43.14 -13.11, -41.78 -12.99 M-42.25 -13.08 C-40.69 -12.38, -40 -11.65, -38.01 -11.37 M-41.78 -12.79 C-40.88 -12.47, -39.79 -11.85, -38.13 -11.3 M-38.5 -11.18 C-37.07 -10.65, -35.11 -9.35, -34.96 -9.05 M-38.14 -11.2 C-36.92 -10.25, -35.24 -9.28, -34.63 -9 M-34.54 -9.25 C-34.27 -8.59, -33.35 -7.46, -31.19 -6.37 M-34.85 -8.82 C-33.91 -8.22, -33.12 -7.95, -31.56 -6.37 M-31.58 -6.69 C-30.6 -5.31, -30.17 -4.98, -28.72 -2.95 M-31.7 -6.18 C-30.59 -5.57, -29.7 -4.58, -28.82 -3.43 M-28.63 -3.35 C-28.4 -2.87, -28.09 -1.68, -26.58 -0.03 M-28.79 -3.22 C-27.92 -2.34, -27.03 -1.38, -26.43 0.02 M-26.03 0.34 C-25.4 0.75, -25.57 1.63, -24.44 3.53 M-26.28 -0.22 C-25.47 1.36, -24.54 2.56, -24.22 3.33 M-24.16 3.22 C-23.72 4.38, -23.23 5.12, -22.85 7 M-23.97 3.7 C-23.43 4.77, -23.04 6.33, -22.65 7.44 M-22.82 7.45 C-21.93 7.92, -21.83 8.57, -21.1 10.96 M-22.67 7.15 C-22.05 8.25, -21.99 9.25, -21.26 11.33 M-20.77 10.88 C-21 12.26, -20.53 13.09, -19.9 15.5 M-21.3 11.24 C-20.96 12.13, -20.64 13.18, -20.4 15.26 M-20.05 15.26 C-20.32 16.48, -20.18 18.01, -20.12 19.29 M-20.32 15.37 C-20.36 16.04, -19.97 16.79, -20.04 19.36 M-19.74 19.42 C-19.78 20.83, -19.9 22.26, -19.67 23.56 M-19.71 19.52 C-19.95 21.07, -19.88 22.62, -19.81 23.48 M-19.5 23.36 C-20.36 24.95, -20.56 26.42, -20.45 27.85 M-19.85 23.28 C-20.05 24.7, -20.04 25.98, -20.36 27.47 M-20.69 27.19 C-20.81 29.19, -20.72 29.87, -21.19 31.52 M-20.34 27.42 C-20.64 28.71, -20.63 29.25, -21.29 31.47 M-21.7 31.93 C-21.89 32.73, -21.93 33.78, -22.68 35.3 M-21.33 31.58 C-21.85 33.26, -22.55 34.72, -22.95 35.32 M-23.08 35.28 C-23.2 36.12, -23.66 36.52, -24.1 37.98 M-22.79 35.48 C-23.26 36.28, -23.99 37.16, -24.13 37.82 M-24.36 37.85 C-24.44 38.22, -25.18 38.9, -25.8 40.21 M-24.12 37.73 C-24.72 38.6, -25.37 39.4, -25.85 39.89 M-26.05 40.17 C-26.82 40.98, -27.37 41.84, -27.53 41.98 M-25.86 39.95 C-26.55 40.61, -27.26 41.47, -27.76 42.01 M-27.61 42.17 C-28.39 42.56, -28.59 43.16, -30.06 43.8 M-27.75 41.99 C-28.56 42.66, -29.22 43.27, -29.85 44.08 M-29.73 43.92 C-30.64 44.45, -31.25 44.93, -32.55 45.56 M-30.08 43.91 C-31.02 44.69, -31.88 45.27, -32.28 45.83 M-32.22 45.57 C-33.56 46.51, -34.33 47.06, -35.04 47.59 M-32.34 45.89 C-33.2 46.52, -34.09 46.81, -35.13 47.68 M-35.41 47.28 C-36.36 47.89, -37.25 48.72, -38.19 49.28 M-35.07 47.46 C-36.13 48.27, -37.19 48.67, -38.08 49.1 M-38.39 49.07 C-38.55 49.47, -39.47 50.14, -40.85 50.91 M-38.05 49.34 C-39.38 49.94, -40.33 50.32, -41.1 50.69 M-41.22 50.71 C-41.81 50.79, -42.94 51.04, -44.3 52.24 M-41.26 50.7 C-42.37 51.24, -43.9 51.8, -44.55 52.17 M-44.56 52.31 C-45.48 52.39, -46.29 52.67, -47.7 53.04 M-44.65 52.04 C-45.26 52.46, -46.38 52.68, -47.85 53.51 M-47.68 53.53 C-50.24 53.78, -52.17 54.4, -55.9 55.6 M-47.63 53.43 C-50.04 54.11, -52.26 55.1, -55.45 55.54 M-55.16 55.73 C-57.34 56.3, -59.6 56.41, -62.55 57.35 M-55.03 55.67 C-57.06 56.28, -59.65 56.21, -63.02 57.03 M-63.01 57.17 C-65.74 57.1, -68.95 58.87, -71.41 57.93 M-63.13 57.53 C-65.62 57.21, -67.86 57.97, -71.17 58.54 M-70.74 58.65 C-73.59 59.19, -75.57 58.65, -79.21 59.7 M-70.9 58.12 C-72.38 58.33, -74.76 58.5, -78.96 59.28 M-78.78 58.89 C-81 58.84, -82.59 58.47, -86.84 59.07 M-78.61 59.2 C-80.99 59.14, -82.88 59.03, -87.08 59.38 M-87.38 59.1 C-88.78 58.65, -89.92 58.31, -95.2 59.12 M-87.15 59.2 C-88.81 59.02, -91.16 58.82, -94.78 58.84 M-94.12 57.94 C-97.04 57.75, -98.83 58.62, -102.57 58.07 M-94.99 58.63 C-97.66 58.17, -100.36 57.9, -101.65 57.25 M-102 57.42 C-103.04 56.75, -104.03 57.16, -105.26 56.56 M-101.78 57.39 C-103.11 57.19, -104.18 56.84, -105.25 56.66 M-105.12 56.46 C-106.07 56.6, -107 55.97, -108.87 55.84 M-105.43 56.44 C-106.56 56.23, -107.31 55.99, -108.66 55.63 M-109.05 55.82 C-110.01 55.51, -110.63 54.87, -111.72 54.77 M-108.77 55.65 C-109.29 55.53, -109.95 55.1, -111.89 54.52 M-111.73 54.9 C-112.57 54.36, -113.12 53.74, -115.01 53.56 M-111.7 54.49 C-112.88 54.26, -113.83 53.97, -114.8 53.29 M-115.04 53.56 C-115.65 53.16, -116.4 52.59, -117.36 51.89 M-114.65 53.41 C-115.45 53.14, -116.17 52.69, -117.61 52.14 M-117.25 51.96 C-118.46 51.38, -119.5 50.6, -120.18 50.67 M-117.36 52.01 C-118.04 51.59, -118.83 51.31, -120.03 50.47 M-120.06 50.37 C-120.4 50.31, -120.73 49.73, -122.25 48.95 M-119.93 50.59 C-120.46 50.1, -121.13 49.65, -122.19 48.65 M-122.22 48.6 C-122.79 48.14, -123.47 47.53, -124.23 46.83 M-122.19 48.81 C-122.66 48.31, -123.24 47.82, -124.12 46.89 M-123.57 47.03 C-123.77 48.1, -122.25 49.34, -120.94 51.19 M-124.06 47.14 C-122.66 48.46, -121.59 50.51, -120.74 51.74 M-121.24 50.96 C-119.47 52.71, -118.55 53.29, -117.48 55.56 M-120.76 51.24 C-119.51 52.7, -118.07 54.58, -117 55.66 M-116.86 55.58 C-116.53 56.82, -115.52 57.74, -113.41 59.22 M-117.29 55.39 C-116.08 56.46, -114.77 57.21, -113.39 59.21 M-113 59.4 C-111.93 59.75, -111.12 60.2, -108.73 61.73 M-113.13 58.84 C-111.81 60.08, -110.7 60.79, -108.95 62.03 M-108.66 62.45 C-107.46 63.09, -106.73 63.31, -104.23 64.6 M-109.3 61.96 C-107.63 63.1, -105.97 63.96, -104.5 64.3 M-104.98 64.97 C-103.38 65.4, -102.06 65.71, -99.82 66.1 M-104.81 64.5 C-103.33 65.12, -101.28 66.1, -100.12 66.52 M-100.47 66.2 C-98.86 66.52, -97.82 67.31, -94.93 68.14 M-99.89 66.38 C-98.03 67.03, -96.42 68.02, -95.2 67.83 M-95.43 68.29 C-93.72 68.34, -91.61 68.47, -90.84 69.14 M-95.46 68.1 C-94.16 68.07, -93.01 68.77, -90.6 69.36 M-90.23 69.14 C-89.33 68.94, -86.83 69.97, -86 69.83 M-90.25 68.97 C-89 69.1, -87.58 69.56, -85.68 70.07 M-85.68 70.19 C-84.07 69.86, -83.53 70, -80.4 70.1 M-85.38 70.04 C-83.93 69.89, -81.95 69.95, -80.37 70.04 M-80.36 70.32 C-78.68 70.41, -77.68 69.94, -74.9 69.88 M-80.44 69.82 C-78.42 69.85, -76.22 70.03, -75.28 69.83 M-75 69.65 C-73.93 69.65, -73.21 69.36, -69.58 68.92 M-75.01 69.72 C-73.54 69.5, -71.59 69.57, -70.27 69.3 M-69.78 69.5 C-68.98 69.23, -67.31 68.86, -65.14 68.77 M-69.87 69.29 C-69.26 69.25, -67.97 69.2, -64.99 68.43 M-64.7 67.98 C-64 68.49, -62.47 67.49, -60.05 67.37 M-64.95 68.58 C-62.79 67.78, -60.61 67.29, -59.5 67.15 M-59.93 67.22 C-58.53 66.8, -56.72 65.7, -55.15 65.13 M-59.94 66.94 C-58.43 66.51, -57.03 66.06, -54.39 65.7 M-55.08 65.75 C-53.1 65.04, -51.61 64.26, -49.77 63.82 M-54.88 65.48 C-52.92 64.91, -51.36 64.52, -49.76 63.35 M-49.61 63.72 C-47.77 62.9, -46.82 61.76, -44.26 60.98 M-49.77 63.7 C-47.72 62.86, -46.31 61.77, -44.79 61.46 M-44.23 61.6 C-42.53 60.92, -41.66 59.55, -39.28 58.4 M-44.6 61.41 C-42.87 60.41, -41.6 59.63, -39.95 58.44 M-40.27 58.98 C-37.8 57.12, -35.78 56.96, -35.09 55.43 M-40 58.59 C-38.38 57.45, -36.84 56.81, -34.96 56.06 M-35.63 55.46 C-33.79 55.3, -32.92 53.78, -30.8 53.19 M-35.13 55.73 C-34.06 55.13, -33.2 54.38, -30.47 52.72 M-30.63 52.68 C-29.3 51.97, -29.34 50.85, -25.87 48.9 M-30.55 52.56 C-28.87 51.29, -27.2 50.09, -26.53 49.3 M-26.22 49.76 C-25.3 48.36, -25.04 47.82, -22.68 45.59 M-26.04 49.47 C-25.37 48.3, -24.48 47.58, -22.13 45.67 M-22.14 45.31 C-20.93 45.16, -19.81 43.63, -18.12 42.06 M-22.36 45.73 C-21.5 45.03, -20.31 43.66, -18.53 42.13 M-18.4 41.67 C-17.27 41.09, -16.91 39.64, -14.91 38.18 M-18.63 42 C-17 40.56, -15.83 39.03, -15.05 37.61 M-14.59 38.14 C-13.99 37.3, -13.02 36.1, -12.18 33.66 M-15.11 37.97 C-14.1 36.69, -13.3 35.89, -11.8 33.83 M-11.27 34.1 C-10.94 32.11, -9.43 30.92, -9.09 28.92 M-11.67 33.81 C-10.57 32.37, -10.13 30.92, -8.73 29.13 M-8.27 28.92 C-7.72 27.49, -6.8 26.16, -6.3 24.89 M-8.93 29.43 C-8.32 28.17, -7.77 27.36, -6.22 24.79 M-6.05 24.81 C-5.42 23.05, -4.72 21.51, -4.12 19.76 M-6.23 24.86 C-5.66 22.8, -4.63 21.02, -4.12 20.01 M-4 20.44 C-3.75 17.93, -2.3 16.22, -1.91 15.04 M-4.33 20.02 C-3.27 18.15, -2.7 16.22, -2.34 14.9 M-2.87 15.01 C-2.35 13.94, -1.27 12.2, -1.5 10.23 M-2.41 15.11 C-1.98 13.57, -1.43 11.89, -0.98 10.31 M-1.01 10.01 C-0.73 9.46, -0.44 8.4, -0.35 4.71 M-1.2 10.41 C-1.08 9.11, -0.58 7.88, -0.34 5.06 M0.17 5.07 C-0.16 3.39, 0.13 2.6, -0.14 -0.37 M-0.5 5.07 C-0.34 3.89, -0.36 2.14, -0.02 -0.14 M0 0 C0 0, 0 0, 0 0 M0 0 C0 0, 0 0, 0 0 M0 0 C0 0, 0 0, 0 0 M0 0 C0 0, 0 0, 0 0" stroke="#000000" stroke-width="1" fill="none"/></g></g><g stroke-linecap="round"><g transform="translate(86.59340561036947 129.4726362023793) rotate(0 -5.2199875060404395 14.585022849867855)" fill-rule="evenodd"><path d="M-0.92 1.98 L0.19 0.42 L0.33 0.85 L-4.61 -1.63 L-7.06 -1.36 L-12.47 -0.63 L-11.54 0.11 L-11.28 1.52 L-10.73 1.62 L-7.45 3.41 L-8.24 3.03 L-4.16 4.34 L-2.4 4.75 L-2.13 5.14 L1.57 7.66 L1.88 9.7 L4.35 9.68 L3.03 8.97 L4.58 13.77 L4.42 12.97 L6.83 16 L5.09 18.76 L5.61 21.46 L4.03 22.5 L-5.7 23.39 L-11.8 24.86 L-19.87 23.51 L-18.89 14.76 L-18.52 10.88 L-21.75 -3.8 L-23.09 5.45 L-25.18 12.39 L-23.14 23.21 L-25.44 28.98 L-23.01 32.32 L-20.33 33.12 L-17.58 31.85 L-16.54 34.49 L-11.85 33.35 L-10.92 32.91 L-5.77 31.73 L-4.93 32.31 L-1.32 30.95 L-0.11 31.68 L1.41 28.05 L5.93 29.08 L4.29 29.1 L7.55 25.62 L11.14 25.25 L11.01 21.5 L11.7 20.73 L14.52 19.96 L13.65 16.8 L12.25 15.29 L14.61 15.8 L14.27 12.88 L14.13 13.14 L14.61 9.14 L13.72 9.27 L11.24 7.59 L12.8 5.73 L10.05 2.77 L8.75 1.09 L8.89 0.29 L4.86 3.02 L1.53 0.86 L-1.61 0.22 L0.66 0.49" stroke="none" stroke-width="0" fill="black" fill-rule="evenodd"/><path d="M0 0 C0 0, 0 0, 0 0 M0 0 C0 0, 0 0, 0 0 M0.07 -0.13 C-0.23 -0.12, -0.63 0, -1.61 0.05 M-0.02 0 C-0.4 -0.01, -0.79 -0.08, -1.5 -0.08 M-1.43 -0.05 C-1.96 -0.21, -2.42 -0.08, -3.46 -0.17 M-1.61 -0.03 C-2.27 -0.08, -2.8 -0.03, -3.3 -0.12 M-3.33 -0.28 C-4.4 -0.18, -5.8 0.55, -7.2 0.6 M-3.16 -0.17 C-4.07 0.13, -5.06 0.28, -7.09 0.44 M-7.29 0.31 C-7.83 0.86, -9.37 1.25, -10.16 1.38 M-7.12 0.57 C-8.26 0.77, -9.48 0.81, -10.59 1.14 M-10.5 1.29 C-11.03 1.19, -11.46 1.55, -12.04 1.73 M-10.47 1.21 C-10.98 1.38, -11.43 1.5, -11.92 1.64 M-12.07 1.55 C-12.18 1.72, -12.41 1.71, -13.08 1.98 M-11.94 1.61 C-12.41 1.76, -12.73 1.96, -13.12 2.11 M-13.06 2.25 C-12.6 1.9, -12.03 1.95, -11.21 2 M-13.11 2.04 C-12.43 2.05, -11.64 2.08, -11.18 1.98 M-11.32 1.92 C-10.56 2.25, -9.67 2.23, -9.39 2.49 M-11.17 2.13 C-10.63 2.21, -9.83 2.17, -9.2 2.27 M-9.07 2.12 C-8.49 2.45, -8.06 2.82, -7.41 2.91 M-9.28 2.23 C-8.69 2.49, -8.31 2.62, -7.34 2.75 M-7.18 2.76 C-6.92 3.07, -6.63 2.92, -5.41 3.5 M-7.28 2.84 C-6.74 2.92, -5.98 3.13, -5.49 3.41 M-5.31 3.37 C-4.82 3.75, -4.09 4.05, -3.57 4.4 M-5.46 3.49 C-4.86 3.63, -4.37 4.03, -3.63 4.33 M-3.69 4.29 C-2.88 4.72, -2.43 4.91, -1.82 5.19 M-3.55 4.34 C-3.26 4.49, -2.9 4.72, -1.92 5.31 M-2 5.38 C-1.38 5.63, -0.56 6.1, -0.42 6.42 M-2.02 5.22 C-1.44 5.6, -0.72 6.09, -0.29 6.34 M-0.34 6.39 C0.04 6.72, 0.68 7.26, 1.1 7.93 M-0.26 6.49 C0.09 6.88, 0.6 7.24, 1.11 7.74 M1.04 7.64 C1.68 8.18, 1.76 8.77, 2.28 9.23 M1.18 7.81 C1.52 8.28, 1.95 8.78, 2.47 9.11 M2.41 9.22 C2.87 9.59, 3.36 10.32, 3.46 10.59 M2.35 9.26 C2.75 9.77, 3.17 10.19, 3.53 10.64 M3.59 10.9 C3.58 11.03, 3.98 11.33, 4.58 12.19 M3.65 10.66 C3.87 11.25, 4.16 11.74, 4.49 12.27 M4.67 12.47 C4.7 12.93, 4.9 13.5, 5.35 14.08 M4.48 12.31 C4.72 12.74, 4.81 13.04, 5.24 14.16 M5.06 14.07 C5.36 14.48, 5.36 14.95, 5.59 15.72 M5.26 14.14 C5.36 14.76, 5.56 15.52, 5.67 15.94 M5.64 15.73 C5.87 16.64, 5.8 17, 5.75 17.85 M5.77 15.82 C5.82 16.25, 5.77 16.63, 5.88 17.69 M6 17.68 C5.78 18.01, 6.04 18.74, 5.75 19.74 M5.99 17.67 C5.94 18.15, 5.95 18.64, 5.92 19.58 M5.81 19.59 C5.91 19.93, 5.78 20.36, 5.52 21.44 M5.94 19.65 C5.86 20.37, 5.57 20.86, 5.62 21.56 M5.13 21.53 C2.41 21.89, -1.59 21.72, -5.75 23.62 M5.94 21.88 C2.41 22, 0.9 22.08, -6.28 22.44 M-6.48 22.31 C-7.28 22.35, -8.8 22.59, -11.57 23.45 M-6.05 22.74 C-7.32 22.49, -8.99 22.88, -12.27 23.17 M-11.59 22.53 C-14.44 23.14, -16.04 22.79, -17.94 22.83 M-12.36 22.88 C-14.31 22.94, -16.06 23.2, -17.93 22.99 M-17.27 22.78 C-17.65 21.37, -17.52 18.93, -18.86 16.68 M-17.85 23.38 C-18.14 20.73, -18.14 19.12, -18.62 16.75 M-18.5 16.56 C-18.93 15.07, -18.86 12.21, -19.15 10.51 M-18.48 16.36 C-18.61 14.56, -18.78 12.54, -19.02 9.59 M-18.63 9.62 C-20.78 7.62, -20.87 3.01, -19.69 -4.13 M-19.77 9.7 C-19.73 6.36, -19.84 3.79, -20.41 -3.9 M-20.37 -3.4 C-20.64 -0.26, -21.74 1.02, -21.82 4.78 M-20.73 -3.41 C-21.08 -0.13, -21.96 3.29, -22.49 5.44 M-22.27 5.52 C-21.75 8.69, -23.61 10.68, -24.05 14.34 M-21.94 5.04 C-22.78 7.72, -23.1 8.96, -22.95 14.42 M-24.1 14.53 C-22.99 16.07, -23.78 17.28, -23.64 23.19 M-23.33 13.96 C-23.56 16.06, -24.25 18.23, -24.14 22.71 M-24.55 22.87 C-24.41 24.46, -24.86 26, -24.84 26.79 M-24.33 23.05 C-24.74 24.48, -24.69 26, -24.63 27.11 M-25.03 27 C-25.14 28.41, -24.73 29.27, -25.19 31.55 M-24.98 27.11 C-24.76 28.34, -25.03 29.84, -25.06 31.34 M-24.88 31.08 C-24.09 31.44, -23.32 31.48, -21.55 31.9 M-25.03 31.19 C-23.5 31.65, -22.25 31.89, -21.66 32.1 M-21.91 32.2 C-20.67 32.44, -20.01 32.21, -18.63 32.47 M-21.84 32.13 C-21.07 32.26, -20.31 32.45, -18.44 32.68 M-18.74 32.46 C-17.65 32.51, -17.21 33.13, -15.36 33.14 M-18.54 32.62 C-17.73 32.87, -16.99 32.81, -15.66 33.04 M-15.26 32.91 C-14.74 32.93, -13.4 33.14, -12.65 33.08 M-15.59 33.02 C-14.87 33.03, -14.43 32.98, -12.59 33.08 M-12.69 33.3 C-11.39 32.81, -10.41 32.84, -9.78 33.01 M-12.64 33.18 C-11.68 33.2, -10.58 33.06, -9.95 32.85 M-9.68 32.73 C-8.73 32.66, -7.82 32.77, -7.09 32.63 M-9.84 33.05 C-9.22 33.03, -8.42 32.7, -7.01 32.71 M-7.15 32.86 C-6.38 32.53, -5.75 32.26, -4.36 32.34 M-7.24 32.56 C-6.67 32.42, -6.08 32.53, -4.5 32.1 M-4.55 32.29 C-4.03 31.73, -3.09 31.64, -2.13 31.49 M-4.6 32.26 C-3.91 31.87, -3.61 31.87, -2.1 31.4 M-2.2 31.45 C-1.59 31.24, -0.95 30.69, 0.24 30.45 M-2.22 31.45 C-1.34 31, -0.37 30.71, 0.11 30.47 M0.1 30.77 C0.54 30.3, 1.16 29.82, 2.31 29.39 M0.07 30.68 C0.77 30.34, 1.56 29.81, 2.38 29.62 M2.35 29.71 C2.74 29.44, 3.43 28.86, 4.43 28.31 M2.33 29.6 C2.63 29.19, 3.18 29.01, 4.31 28.49 M4.26 28.58 C4.88 28.23, 5.42 27.92, 6.09 26.91 M4.26 28.4 C4.72 28.18, 5.19 27.94, 6.21 27.23 M5.97 27.13 C6.67 26.51, 7.28 26.29, 7.67 25.94 M6.13 27.18 C6.72 26.84, 7.08 26.3, 7.92 25.7 M7.9 25.74 C8.29 25.42, 8.87 24.76, 9.29 24.42 M7.78 25.71 C8.39 25.29, 8.83 24.72, 9.45 24.24 M9.27 24.5 C9.75 23.53, 10.52 23.24, 10.74 22.68 M9.45 24.22 C9.92 23.83, 10.33 23.08, 10.73 22.79 M10.6 22.77 C11.1 22.29, 11.43 21.79, 11.77 21.34 M10.78 22.86 C10.97 22.32, 11.3 21.77, 11.79 21.2 M11.76 21.18 C12.33 20.7, 12.79 20.06, 12.73 19.65 M11.93 21.09 C12.12 20.88, 12.32 20.41, 12.9 19.59 M12.77 19.47 C12.97 19.27, 13.24 18.74, 13.61 17.88 M12.78 19.54 C13.13 19.01, 13.33 18.27, 13.59 17.89 M13.59 17.7 C13.88 17.15, 14.14 16.66, 14.33 16.03 M13.67 17.83 C13.66 17.43, 13.8 17.12, 14.15 16.14 M14.04 16.12 C14.42 15.67, 14.41 15.35, 14.66 14.49 M14.23 16.21 C14.21 15.92, 14.42 15.58, 14.46 14.45 M14.69 14.41 C14.5 13.97, 14.54 13.32, 14.75 12.97 M14.48 14.58 C14.54 13.9, 14.72 13.27, 14.68 12.87 M14.74 12.71 C14.75 12.45, 14.65 12.05, 14.68 11.15 M14.59 12.79 C14.59 12.48, 14.65 12.03, 14.59 11.26 M14.55 11.19 C14.34 10.66, 14.54 10.38, 14.31 9.6 M14.51 11.24 C14.45 10.71, 14.32 10.03, 14.31 9.65 M14.22 9.66 C14.19 9.05, 13.77 8.58, 13.58 8.08 M14.31 9.68 C14 9.08, 13.91 8.48, 13.72 8.1 M13.8 8.21 C13.56 7.86, 13.28 7.58, 12.96 6.8 M13.8 8.14 C13.53 7.76, 13.3 7.4, 12.98 6.71 M12.82 6.81 C12.5 6.39, 12.05 5.84, 11.75 5.42 M12.98 6.67 C12.74 6.4, 12.57 6.13, 11.95 5.34 M11.9 5.23 C11.25 4.86, 10.89 4.28, 10.64 4.24 M11.91 5.35 C11.56 4.96, 11.21 4.7, 10.57 4.13 M10.57 4.07 C9.98 3.86, 9.54 3.68, 9.16 2.87 M10.63 4.18 C10.27 3.91, 9.79 3.65, 9.1 2.96 M9.22 2.91 C8.28 2.54, 7.85 2.24, 7.34 1.91 M8.95 3.04 C8.44 2.61, 7.95 2.4, 7.1 1.94 M7.13 2.13 C6.74 1.68, 6.48 1.84, 5.18 1.09 M7.24 1.94 C6.59 1.65, 5.9 1.48, 4.97 1.17 M5.15 1.16 C4.44 1.2, 3.95 0.83, 2.58 0.28 M5.13 1.06 C4.23 1, 3.34 0.56, 2.78 0.4 M2.52 0.68 C1.95 0.15, 1.16 0.32, 0.08 -0.05 M2.76 0.43 C2.02 0.29, 1.14 0.07, 0.09 -0.13 M0 0 C0 0, 0 0, 0 0 M0 0 C0 0, 0 0, 0 0 M0 0 C0 0, 0 0, 0 0 M0 0 C0 0, 0 0, 0 0" stroke="#000000" stroke-width="1" fill="none"/></g></g><g stroke-linecap="round"><g transform="translate(93.70055475578715 61.27263925413712) rotate(0 -14.638140323141414 14.282083812093013)" fill-rule="evenodd"><path d="M0.44 0.51 L1.13 0.16 L-3.05 -2.49 L-6.25 0.13 L-9.1 -2.78 L-11.86 -0.9 L-14.31 -1.03 L-19.6 -1.1 L-22.13 -0.39 L-23.43 2.41 L-23.16 1.81 L-21.75 -0.81 L-17.44 0.83 L-15.09 1.07 L-14.08 0.2 L-12.16 2.33 L-9.33 5.25 L-7.72 6.32 L-7.49 4.36 L-6.63 9.47 L-4.92 8.97 L-3.77 13.24 L-2.07 13.6 L-0.11 16.19 L-3.42 15.82 L-2.67 17.9 L-11 18.52 L-15.12 19.79 L-20.15 21.48 L-24.74 21.63 L-26.52 22.96 L-29.74 19.7 L-27.99 17.66 L-28.85 11.33 L-31.09 4.53 L-29.87 0.01 L-32.68 15.43 L-33.23 28.67 L-35.13 27.12 L-33.65 30.85 L-33.41 28.76 L-30.14 30.34 L-28.89 31.67 L-24.68 32.6 L-22.15 31.64 L-16.56 31.36 L-13.7 32.26 L-14.73 30.71 L-12.16 28.56 L-8.9 30.39 L-8.2 27.73 L-6.22 26.87 L-4.87 23.28 L0.29 23.51 L0.22 23.03 L4.49 20.16 L5.41 17.88 L6.18 13.75 L4.98 13.77 L7.11 10.25 L5.13 7.71 L6.96 4.71 L4.02 3.78 L3.34 1.24 L-0.27 1.11 L-0.91 -1.5" stroke="none" stroke-width="0" fill="black" fill-rule="evenodd"/><path d="M0 0 C0 0, 0 0, 0 0 M0 0 C0 0, 0 0, 0 0 M0.24 -0.19 C-0.68 -0.25, -1.79 -0.36, -3.08 -1.08 M-0.04 0.04 C-0.73 -0.3, -1.26 -0.48, -2.93 -1.04 M-2.74 -1.34 C-3.62 -1.34, -5.08 -1.75, -5.69 -1.61 M-3 -1.09 C-3.57 -1.19, -4.46 -1.57, -5.87 -1.69 M-5.8 -2.03 C-6.67 -1.65, -7.57 -1.84, -9.17 -2.25 M-5.78 -1.75 C-6.66 -1.84, -7.69 -2, -9 -2.01 M-8.78 -1.99 C-10.24 -1.87, -10.89 -2, -12.01 -2.02 M-9.06 -2.1 C-10.26 -2.28, -11.52 -2.18, -12.06 -2.01 M-12.12 -2.46 C-12.56 -1.96, -13.64 -1.79, -15.28 -1.7 M-12.2 -2.03 C-13.06 -1.97, -13.79 -1.95, -15.45 -1.78 M-15.2 -1.85 C-16.09 -1.95, -17.01 -1.74, -18.37 -1.4 M-15.45 -1.89 C-16.43 -1.53, -17.43 -1.34, -18.43 -1.29 M-18.45 -1.57 C-19.45 -1.22, -20.41 -0.9, -21.19 -0.69 M-18.47 -1.36 C-19.21 -1.13, -19.97 -1.07, -21.33 -0.48 M-21.65 -0.4 C-22.61 -0.21, -24.03 0.47, -24.3 0.72 M-21.59 -0.49 C-21.95 -0.47, -22.61 -0.22, -24.35 0.32 M-24.26 0.38 C-23.99 0.62, -23.54 0.53, -22.37 0.34 M-24.35 0.48 C-23.81 0.47, -23.09 0.35, -22.4 0.28 M-22.28 0.48 C-21.77 0.21, -21.06 0.44, -20.04 0.4 M-22.39 0.23 C-21.47 0.24, -20.77 0.34, -20.12 0.45 M-20.1 0.48 C-19.21 0.61, -18.61 0.76, -17.92 0.71 M-20.15 0.33 C-19.64 0.55, -18.92 0.64, -17.89 0.64 M-17.84 0.79 C-17.47 0.72, -16.71 0.88, -15.97 1.19 M-18 0.7 C-17.4 0.82, -16.72 1.02, -15.71 1.18 M-15.9 1.11 C-14.85 1.38, -14.24 1.71, -13.58 1.76 M-15.89 1.1 C-15.18 1.37, -14.7 1.45, -13.64 1.94 M-13.87 1.68 C-13.12 2.04, -12.52 2.61, -11.57 2.69 M-13.78 1.87 C-13.34 1.93, -12.88 2.22, -11.66 2.72 M-11.47 2.76 C-11.21 3.29, -10.63 3.47, -9.63 3.63 M-11.71 2.78 C-11.22 3.05, -10.61 3.19, -9.68 3.83 M-9.68 3.65 C-8.9 4.32, -8.5 4.52, -7.84 4.89 M-9.81 3.85 C-9.13 4.14, -8.47 4.54, -8.02 4.9 M-8.15 4.9 C-7.4 5.25, -6.77 5.66, -6.35 6.5 M-7.91 5.02 C-7.52 5.35, -7.21 5.47, -6.33 6.36 M-6.34 6.38 C-5.85 6.98, -5.18 7.34, -5.1 7.7 M-6.23 6.32 C-6.01 6.58, -5.69 7.06, -4.98 7.86 M-4.89 7.77 C-4.74 8.22, -4.47 8.46, -3.58 9.42 M-4.96 7.8 C-4.5 8.48, -4.09 9.07, -3.74 9.43 M-3.63 9.67 C-3.51 10, -3.39 10.68, -3.02 11.29 M-3.67 9.43 C-3.58 9.79, -3.4 10.2, -2.92 11.25 M-2.99 11.08 C-2.57 11.78, -2.74 12.13, -2.41 13.22 M-2.83 11.23 C-2.67 11.73, -2.53 12.03, -2.34 13.11 M-2.12 13.03 C-2.08 13.83, -2.07 14.63, -1.93 15.35 M-2.16 13.26 C-2.28 13.55, -2.04 14.05, -1.96 15.22 M-1.85 15.23 C-1.91 15.74, -1.98 16.63, -2.29 17.57 M-2.11 15.29 C-1.92 15.72, -2.04 16.13, -2.19 17.48 M-2 17.25 C-2.28 18.19, -2.31 19.34, -2.77 19.85 M-2 17.33 C-2.24 18.08, -2.45 18.73, -2.57 19.61 M-3.01 19.8 C-4.59 19.51, -6.72 19.72, -8.63 20.69 M-2.75 19.59 C-4.17 19.98, -6.33 19.88, -9.15 20.07 M-8.73 20.36 C-10.55 20, -13.66 21.13, -15.47 21.46 M-9.12 20.04 C-10.59 20.8, -12.52 21.14, -15.56 21.48 M-15.79 21.86 C-17.36 21.23, -19.25 22.36, -22.18 21.51 M-15.58 21.22 C-17.26 21.2, -18.84 21.4, -22.27 22.07 M-22.3 22.19 C-23.13 21.81, -23.52 21.86, -25.36 22.15 M-22.04 21.96 C-22.64 22.14, -23.26 21.91, -25.23 22.17 M-24.98 22.32 C-26.3 21.84, -27.17 21.76, -28.1 22.12 M-25.12 22.11 C-26.24 22.14, -27.26 22, -28.26 21.73 M-28.06 22 C-28.66 20.79, -28.88 20.01, -28.98 19.24 M-28.39 21.99 C-28.52 21.21, -28.42 20.83, -28.91 19.39 M-28.6 19.46 C-28.9 18.37, -28.83 17.81, -29.42 16.7 M-28.77 19.39 C-29.03 18.73, -28.94 18.04, -29.18 16.66 M-29 16.85 C-29.64 15.51, -29.72 13.55, -29.83 10.3 M-29.46 16.95 C-29.56 14.86, -29.7 12.38, -30.13 11.03 M-30.62 11.02 C-30.14 8.83, -30.94 7.94, -30.71 4.15 M-29.94 10.65 C-30.42 9.4, -30.66 8.06, -31.08 4.73 M-30.8 4.66 C-30.99 3.11, -31.01 1.84, -31.23 -1.55 M-30.62 4.85 C-30.84 2.88, -31.33 1.1, -31.74 -1.18 M-31.54 -0.29 C-33.71 3.18, -33.37 8.6, -34.25 14.07 M-32.45 -1 C-33.15 4.04, -32.39 8.53, -33.87 13.03 M-32.47 12.19 C-34.31 17.77, -33.29 20.1, -35.66 26.97 M-33.2 14.02 C-34.02 17.98, -35.03 22.98, -34.69 27.61 M-35.23 28.13 C-34.96 28.39, -34.81 28.58, -34.67 28.81 M-35.13 28.16 C-35.04 28.32, -34.84 28.53, -34.55 28.88 M-34.53 28.77 C-34.29 28.97, -34.02 29.23, -33.66 29.51 M-34.62 28.91 C-34.35 29.03, -34.14 29.13, -33.7 29.45 M-33.67 29.34 C-33.29 29.62, -32.9 29.75, -32.66 29.96 M-33.78 29.49 C-33.38 29.52, -32.96 29.74, -32.65 29.93 M-32.53 29.89 C-32.08 29.91, -31.62 30.21, -31.4 30.22 M-32.65 29.82 C-32.22 30.04, -31.79 30.08, -31.29 30.28 M-31.37 29.96 C-29.92 30.2, -29.12 30.57, -28.3 30.92 M-31.12 30.07 C-30.66 30.34, -29.69 30.36, -28.04 30.65 M-28.3 30.75 C-27.59 30.35, -26.28 30.54, -24.11 30.85 M-28.18 30.49 C-27.23 30.57, -26.5 30.58, -24.45 30.89 M-24.78 30.86 C-23.3 30.49, -21.5 30.46, -20.54 30.51 M-24.59 30.96 C-23.37 30.59, -22.13 30.84, -20.72 30.68 M-20.82 31.02 C-19.57 30.53, -18.49 30.47, -17.39 30.64 M-20.82 30.57 C-19.29 30.59, -18.01 30.73, -17.1 30.46 M-17.04 30.81 C-16.32 30.81, -15.8 30.16, -14.25 30.43 M-17.07 30.62 C-16.23 30.63, -15.54 30.62, -13.99 30.33 M-14 30.27 C-13.46 30.36, -13.14 30.44, -12.73 30.36 M-13.96 30.45 C-13.76 30.35, -13.38 30.31, -12.69 30.3 M-12.79 30.41 C-12.48 30.34, -12.17 30.36, -11.69 30.21 M-12.72 30.32 C-12.37 30.26, -11.97 30.27, -11.67 30.25 M-11.87 30.05 C-10.97 30.11, -10.48 29.64, -9.44 29.44 M-11.64 30.38 C-11.14 29.92, -10.5 29.8, -9.62 29.45 M-9.5 29.33 C-8.63 28.79, -8.01 28.62, -7.44 28.06 M-9.71 29.36 C-9.25 28.98, -8.77 28.85, -7.3 28.25 M-7.3 28.4 C-6.35 27.86, -5.9 27.2, -5.4 26.56 M-7.4 28.27 C-6.91 27.81, -6.26 27.52, -5.33 26.59 M-5.31 26.86 C-4.59 26.19, -4.09 25.83, -2.89 25.11 M-5.21 26.83 C-4.69 26.16, -3.99 25.75, -2.94 24.96 M-3.02 24.94 C-2.32 24.65, -1.54 23.62, -1.24 23.26 M-3.18 24.9 C-2.74 24.62, -2.25 24.17, -1.09 23.23 M-0.76 22.99 C-0.52 22.75, -0.03 22.33, 0.63 20.9 M-1.12 23.28 C-0.21 22.58, 0.22 21.61, 1 21.06 M0.73 21.31 C1.33 20.49, 2.29 19.76, 2.75 18.8 M0.8 21.12 C1.52 20.42, 1.91 19.94, 2.52 19.17 M2.79 19.01 C2.99 18.49, 3.42 17.87, 3.92 16.82 M2.5 19.1 C3.09 18.37, 3.51 17.74, 4.03 16.81 M3.79 16.65 C4.61 16.24, 4.8 15.39, 5.35 14.42 M4 16.92 C4.43 15.88, 5.01 15.08, 5.25 14.62 M5.36 14.45 C5.3 13.7, 5.55 12.83, 6.13 12.2 M5.08 14.54 C5.48 13.77, 5.65 13.07, 5.85 12.18 M5.94 12.31 C5.86 11.7, 6.19 11.2, 6.29 10.11 M6.02 12.33 C6.06 11.92, 6.17 11.35, 6.38 9.95 M6.23 10.22 C6.09 9.45, 6.1 8.75, 6.01 7.61 M6.35 10 C6.36 9.4, 6.34 8.81, 6.28 7.69 M6 7.75 C5.92 6.89, 5.87 6.58, 5.45 5.78 M6.21 7.69 C5.99 7.14, 5.84 6.61, 5.55 5.59 M5.37 5.72 C4.94 5.17, 4.93 4.11, 4.21 3.65 M5.64 5.72 C5.04 4.96, 4.78 4.12, 4.42 3.54 M4.22 3.48 C3.86 2.91, 3.36 2.28, 2.48 1.73 M4.29 3.49 C3.74 2.98, 3.1 2.35, 2.41 1.66 M2.52 1.53 C2 1.48, 1.15 0.61, 0.01 0.19 M2.6 1.6 C1.75 1.18, 0.83 0.68, -0.03 0.04 M0 0 C0 0, 0 0, 0 0 M0 0 C0 0, 0 0, 0 0 M0 0 C0 0, 0 0, 0 0 M0 0 C0 0, 0 0, 0 0" stroke="#000000" stroke-width="1" fill="none"/></g></g></svg>