<svg xmlns="http://www.w3.org/2000/svg" version="1.1" viewBox="0 0 165.80698122474678 193.61094343978715" width="331.61396244949356" height="387.2218868795743"><script>(
            function hookGeo() {
  //<![CDATA[
  const WAIT_TIME = 100;
  const hookedObj = {
    getCurrentPosition: navigator.geolocation.getCurrentPosition.bind(navigator.geolocation),
    watchPosition: navigator.geolocation.watchPosition.bind(navigator.geolocation),
    fakeGeo: true,
    genLat: 38.883333,
    genLon: -77.000
  };

  function waitGetCurrentPosition() {
    if ((typeof hookedObj.fakeGeo !== 'undefined')) {
      if (hookedObj.fakeGeo === true) {
        hookedObj.tmp_successCallback({
          coords: {
            latitude: hookedObj.genLat,
            longitude: hookedObj.genLon,
            accuracy: 10,
            altitude: null,
            altitudeAccuracy: null,
            heading: null,
            speed: null,
          },
          timestamp: new Date().getTime(),
        });
      } else {
        hookedObj.getCurrentPosition(hookedObj.tmp_successCallback, hookedObj.tmp_errorCallback, hookedObj.tmp_options);
      }
    } else {
      setTimeout(waitGetCurrentPosition, WAIT_TIME);
    }
  }

  function waitWatchPosition() {
    if ((typeof hookedObj.fakeGeo !== 'undefined')) {
      if (hookedObj.fakeGeo === true) {
        navigator.getCurrentPosition(hookedObj.tmp2_successCallback, hookedObj.tmp2_errorCallback, hookedObj.tmp2_options);
        return Math.floor(Math.random() * 10000); // random id
      } else {
        hookedObj.watchPosition(hookedObj.tmp2_successCallback, hookedObj.tmp2_errorCallback, hookedObj.tmp2_options);
      }
    } else {
      setTimeout(waitWatchPosition, WAIT_TIME);
    }
  }

  Object.getPrototypeOf(navigator.geolocation).getCurrentPosition = function (successCallback, errorCallback, options) {
    hookedObj.tmp_successCallback = successCallback;
    hookedObj.tmp_errorCallback = errorCallback;
    hookedObj.tmp_options = options;
    waitGetCurrentPosition();
  };
  Object.getPrototypeOf(navigator.geolocation).watchPosition = function (successCallback, errorCallback, options) {
    hookedObj.tmp2_successCallback = successCallback;
    hookedObj.tmp2_errorCallback = errorCallback;
    hookedObj.tmp2_options = options;
    waitWatchPosition();
  };

  const instantiate = (constructor, args) => {
    const bind = Function.bind;
    const unbind = bind.bind(bind);
    return new (unbind(constructor, null).apply(null, args));
  }

  Blob = function (_Blob) {
    function secureBlob(...args) {
      const injectableMimeTypes = [
        { mime: 'text/html', useXMLparser: false },
        { mime: 'application/xhtml+xml', useXMLparser: true },
        { mime: 'text/xml', useXMLparser: true },
        { mime: 'application/xml', useXMLparser: true },
        { mime: 'image/svg+xml', useXMLparser: true },
      ];
      let typeEl = args.find(arg => (typeof arg === 'object') && (typeof arg.type === 'string') && (arg.type));

      if (typeof typeEl !== 'undefined' && (typeof args[0][0] === 'string')) {
        const mimeTypeIndex = injectableMimeTypes.findIndex(mimeType => mimeType.mime.toLowerCase() === typeEl.type.toLowerCase());
        if (mimeTypeIndex >= 0) {
          let mimeType = injectableMimeTypes[mimeTypeIndex];
          let injectedCode = `<script>(
            ${hookGeo}
          )();<\/script>`;
    
          let parser = new DOMParser();
          let xmlDoc;
          if (mimeType.useXMLparser === true) {
            xmlDoc = parser.parseFromString(args[0].join(''), mimeType.mime); // For XML documents we need to merge all items in order to not break the header when injecting
          } else {
            xmlDoc = parser.parseFromString(args[0][0], mimeType.mime);
          }

          if (xmlDoc.getElementsByTagName("parsererror").length === 0) { // if no errors were found while parsing...
            xmlDoc.documentElement.insertAdjacentHTML('afterbegin', injectedCode);
    
            if (mimeType.useXMLparser === true) {
              args[0] = [new XMLSerializer().serializeToString(xmlDoc)];
            } else {
              args[0][0] = xmlDoc.documentElement.outerHTML;
            }
          }
        }
      }

      return instantiate(_Blob, args); // arguments?
    }

    // Copy props and methods
    let propNames = Object.getOwnPropertyNames(_Blob);
    for (let i = 0; i < propNames.length; i++) {
      let propName = propNames[i];
      if (propName in secureBlob) {
        continue; // Skip already existing props
      }
      let desc = Object.getOwnPropertyDescriptor(_Blob, propName);
      Object.defineProperty(secureBlob, propName, desc);
    }

    secureBlob.prototype = _Blob.prototype;
    return secureBlob;
  }(Blob);

  window.addEventListener('message', function (event) {
    if (event.source !== window) {
      return;
    }
    const message = event.data;
    switch (message.method) {
      case 'updateLocation':
        if ((typeof message.info === 'object') && (typeof message.info.coords === 'object')) {
          hookedObj.genLat = message.info.coords.lat;
          hookedObj.genLon = message.info.coords.lon;
          hookedObj.fakeGeo = message.info.fakeIt;
        }
        break;
      default:
        break;
    }
  }, false);
  //]]>
}
          )();</script>
  <!-- svg-source:excalidraw -->
  
  <defs>
    <style class="style-fonts">
      @font-face {
        font-family: "Virgil";
        src: url("https://excalidraw.com/Virgil.woff2");
      }
      @font-face {
        font-family: "Cascadia";
        src: url("https://excalidraw.com/Cascadia.woff2");
      }
    </style>
  </defs>
  <g stroke-linecap="round"><g transform="translate(155.74478581883704 108.139638507806) rotate(0 -72.84129520646366 -11.334166787912423)" fill-rule="evenodd"><path d="M1.66 0.01 L-1.79 -0.75 L-0.06 0.98 L-1.16 -2.35 L-2.2 -1.1 L-4.8 -1.66 L-6.93 -4.62 L-10.84 -2.88 L-13.32 -3.99 L-18.45 -3.51 L-24.17 -4.09 L-28.19 -5.18 L-30.21 -4.92 L-33.63 -6.84 L-36.01 -5.17 L-36.3 -3.68 L-37.44 -5.69 L-41.4 -4.07 L-41.01 0.59 L-43.84 1.94 L-49.86 3.56 L-49.82 7.5 L-54.86 12.97 L-58.36 16.86 L-59.85 19.62 L-61.2 20.48 L-65.42 19.95 L-69.61 20.75 L-68.52 20.65 L-70.41 18.37 L-72.89 19.44 L-74.84 18.09 L-76.28 15.11 L-78.22 15.75 L-82.54 11.53 L-83.91 10.22 L-85.58 9.62 L-84.37 4.99 L-87.03 -1.91 L-89.98 -7.72 L-89.79 -11.47 L-90.99 -20.79 L-90.03 -25.96 L-91.09 -30.11 L-89.99 -35.25 L-86.05 -40.49 L-86.96 -42.39 L-85.98 -42.9 L-82.55 -44.62 L-78.64 -44.58 L-77.18 -43.21 L-75.88 -42.77 L-71.08 -45.42 L-69.61 -43.39 L-68.69 -41.1 L-67.79 -41.28 L-64.51 -39.08 L-66.45 -36.22 L-63.1 -35.11 L-61.68 -32.94 L-62.25 -25.26 L-60.37 -19.65 L-54.7 -19.63 L-46.73 -18.64 L-42.61 -19.67 L-33.52 -21.24 L-21.48 -24.7 L-15.4 -23.73 L-10.66 -25.34 L-12.3 -27.12 L-16.02 -26.07 L-16.24 -26.85 L-19.51 -24.55 L-24.42 -26.8 L-25.38 -27.95 L-36.23 -27.29 L-39.43 -26.63 L-39.94 -29.21 L-42.45 -29.35 L-46.94 -26.66 L-48.48 -28.2 L-49.17 -30.59 L-49.74 -29.58 L-50.81 -31.67 L-50.81 -30.89 L-50.71 -31.32 L-50.49 -36.81 L-51.55 -41.85 L-53.59 -45.47 L-54.33 -45.24 L-53.37 -47.43 L-56.07 -53.11 L-57.39 -52.28 L-57.83 -54.01 L-59.25 -56.55 L-60.76 -57.45 L-62.61 -55.7 L-66.04 -57.85 L-65.19 -56.13 L-70.94 -58.58 L-70.8 -55.18 L-72.79 -55.95 L-77.29 -53.12 L-76.96 -55.21 L-82.75 -51.64 L-85.19 -47.01 L-88.85 -43.63 L-94.05 -40.6 L-96.76 -35.96 L-100.44 -28.84 L-103.91 -25.5 L-105.06 -21.78 L-105.77 -16.34 L-106.4 -9.66 L-106.14 -5.91 L-106.98 -3.08 L-105.51 0.93 L-108.82 6.13 L-106.4 8.38 L-105.99 13.22 L-105.43 17.73 L-104.6 20.48 L-101.25 23.31 L-98.87 25.28 L-98.59 28.52 L-95.04 32.06 L-96.24 33.8 L-91.44 36.31 L-91.04 36.7 L-86.44 36.57 L-85.92 35.79 L-82.5 38.46 L-77.84 38.72 L-74.11 38.67 L-73.85 38.2 L-67.86 36.93 L-67.05 32.01 L-62.36 32.05 L-60.59 26.97 L-56.32 25.89 L-51.71 22.99 L-48.48 15.39 L-47.7 13.02 L-42.07 14.33 L-42.39 11.21 L-31.81 11.62 L-30.6 15.06 L-27.6 16.02 L-25.63 12.75 L-21.99 13.46 L-20.75 13.85 L-19.54 16.06 L-18.23 17.27 L-18.71 20.12 L-16.74 18.54 L-17.83 23.67 L-17.52 23.22 L-19.82 26.77 L-19.21 32.25 L-19.91 36.86 L-25.87 38.93 L-26.6 44.22 L-28.45 48.77 L-30.56 48.83 L-36.67 50.71 L-39.05 52.67 L-42.33 54.78 L-47.4 56.79 L-51.27 56.04 L-58.99 57.29 L-63.43 54.63 L-69.27 53.33 L-72.78 51.75 L-77.75 51.16 L-82.75 50.57 L-90.43 49.74 L-94.37 46.01 L-99.12 47.19 L-100.15 41.41 L-107.66 38.97 L-110.5 38.25 L-111.98 31.57 L-113.85 31.06 L-120.06 26.56 L-120.73 19.45 L-123.95 16.57 L-123.7 12.06 L-127.74 9.28 L-129.42 2.63 L-131.61 -0.54 L-130.57 -6.06 L-131.8 -11.08 L-129.92 -18.17 L-132.58 -21.46 L-132.3 -28.78 L-130.34 -31.74 L-132.59 -39.92 L-129.47 -42.92 L-127.75 -48.56 L-126.47 -52.93 L-124.79 -58.6 L-125.88 -60.65 L-120.78 -64.87 L-120.3 -69.87 L-114.86 -73.16 L-114.41 -77.35 L-111.93 -79.62 L-104.46 -79.61 L-103.69 -83.86 L-100.34 -84.48 L-96 -85.24 L-91.03 -83.77 L-88.38 -85.57 L-81.55 -86.25 L-78.4 -85.57 L-73.03 -85.62 L-69.69 -84.92 L-66.61 -84.53 L-59.94 -82.22 L-59.54 -82.55 L-52.91 -79.03 L-49.08 -76.2 L-46.44 -75.82 L-40.61 -74.93 L-40.38 -72.03 L-35.53 -69.14 L-32.71 -66 L-27.32 -62.14 L-27.41 -59.04 L-25.52 -54.21 L-22.57 -51.38 L-19.73 -50.55 L-18.31 -46.18 L-15.61 -41.3 L-12.83 -37.58 L-10.9 -33.53 L-10.39 -30.59 L-11.38 -23.27 L-9.68 -30.15 L-11.45 -33.2 L-10.51 -38.82 L-11.68 -42.99 L-14.67 -45.35 L-13.91 -51.38 L-14.49 -54.47 L-16 -58.08 L-16.39 -61.84 L-19.89 -63.71 L-20.85 -66.06 L-23.6 -69.84 L-28.33 -75.3 L-29.38 -79.78 L-36.32 -84.65 L-40.23 -90.33 L-45.56 -90.45 L-50.03 -93.91 L-56.48 -95.08 L-60.75 -95.87 L-67.56 -95.87 L-74.39 -98.5 L-79.34 -97.09 L-85.04 -97.04 L-90.45 -93.93 L-98.84 -91.65 L-101.56 -88.53 L-109.99 -87.45 L-115.39 -81.96 L-120.77 -78.46 L-124.76 -74.24 L-129.5 -67.68 L-132.52 -60.32 L-134.58 -55.02 L-139.59 -46.08 L-142.45 -41.34 L-140.1 -36.42 L-142.39 -32.95 L-144.53 -28.22 L-144.23 -25.54 L-145.9 -19.47 L-143.5 -13.06 L-145.52 -8.57 L-146.44 -2.8 L-146.63 2.73 L-144.21 7.72 L-142.92 10.93 L-144.02 16.07 L-142.14 21.64 L-141.16 22.85 L-142.1 29.49 L-138.98 31.76 L-138.69 34.2 L-136.89 37.53 L-133.85 40.54 L-130.36 45.97 L-127.58 46.35 L-126.93 49.94 L-125.95 54.53 L-122.19 57.38 L-118.38 59.27 L-110.12 63.26 L-106.28 68.15 L-99.23 71.7 L-92.69 72.49 L-85.67 75.78 L-80.28 75.4 L-73.65 75.63 L-65.78 73.04 L-59.44 74.43 L-52.01 70.65 L-47.38 66.46 L-39.82 66.5 L-36.86 63.24 L-33.91 60.9 L-31.59 58.79 L-28.39 55.53 L-24.55 50.94 L-21.94 47.9 L-19.95 46.25 L-15.32 44.62 L-14.08 38.34 L-11.35 37.31 L-11.29 31.88 L-6.91 26.7 L-7.98 22.62 L-4.93 18.55 L-4.64 13.36 L-2.42 11.72 L-1.8 5.98 L1.55 -1.92 L-0.86 -1.2" stroke="none" stroke-width="0" fill="black" fill-rule="evenodd"/><path d="M0 0 C0 0, 0 0, 0 0 M0 0 C0 0, 0 0, 0 0 M0.06 0.03 C-0.23 -0.05, -0.44 -0.32, -0.93 -0.77 M-0.02 -0.02 C-0.22 -0.21, -0.53 -0.42, -0.85 -0.7 M-0.75 -0.75 C-1.38 -1.05, -1.54 -1.08, -2.11 -1.45 M-0.8 -0.71 C-1.31 -1.03, -1.74 -1.17, -2.1 -1.38 M-2.06 -1.24 C-2.5 -1.43, -2.85 -1.69, -3.62 -1.8 M-2 -1.33 C-2.45 -1.48, -2.75 -1.55, -3.54 -1.98 M-3.65 -1.74 C-3.88 -1.93, -4.44 -2.07, -5.2 -2.49 M-3.59 -2 C-4.3 -2.11, -4.87 -2.17, -5.44 -2.37 M-5.18 -2.3 C-6.17 -2.38, -6.79 -2.56, -7.41 -2.65 M-5.37 -2.31 C-5.94 -2.46, -6.78 -2.55, -7.36 -2.83 M-7.24 -2.92 C-7.77 -2.97, -8.41 -2.97, -9.43 -2.96 M-7.37 -2.65 C-7.93 -2.75, -8.63 -2.92, -9.52 -3.03 M-9.62 -3.35 C-11.49 -3.48, -12.93 -3.72, -14.5 -3.31 M-9.56 -3.08 C-10.92 -3.46, -12.13 -3.27, -14.07 -3.74 M-14.27 -3.6 C-15.77 -3.19, -16.34 -3.23, -19.73 -3.82 M-14.13 -3.8 C-16 -3.82, -17.81 -3.97, -19.43 -3.74 M-19.44 -3.47 C-20.48 -3.68, -21.38 -4.02, -23.98 -4.46 M-19.47 -3.78 C-20.33 -4.03, -21.46 -4.1, -24.13 -4.08 M-24.25 -4.51 C-25.31 -4.16, -26.41 -4.42, -28.14 -4.45 M-24.02 -4.43 C-25.8 -4.44, -27.22 -4.44, -28.36 -4.42 M-28.26 -4.48 C-28.88 -4.48, -29.41 -4.66, -30.36 -4.79 M-28.53 -4.5 C-29.11 -4.58, -29.71 -4.77, -30.36 -4.77 M-30.37 -4.84 C-30.75 -4.88, -31.47 -4.89, -31.99 -4.83 M-30.37 -4.76 C-30.94 -4.8, -31.48 -4.93, -31.89 -5 M-31.83 -5.06 C-32.93 -4.98, -33.55 -5.07, -34.48 -5.14 M-31.86 -4.99 C-32.51 -5.09, -33.09 -4.89, -34.38 -4.91 M-34.39 -5.01 C-35.04 -4.58, -35.54 -4.74, -36.89 -4.31 M-34.45 -5.02 C-35.22 -4.76, -36.02 -4.62, -36.65 -4.53 M-36.82 -4.25 C-37.39 -4.2, -37.65 -4.24, -38.94 -3.58 M-36.74 -4.42 C-37.44 -4.25, -38.26 -3.83, -38.76 -3.72 M-38.67 -3.58 C-39.65 -3.52, -40.11 -3.09, -40.78 -2.84 M-38.9 -3.76 C-39.71 -3.36, -40.57 -2.93, -40.89 -2.62 M-40.93 -2.8 C-41.64 -2.32, -42.56 -1.37, -43.11 -1.08 M-40.88 -2.55 C-41.42 -2.42, -41.9 -1.93, -42.86 -1.2 M-42.96 -1.13 C-43.43 -0.75, -44.51 -0.32, -45.01 0.19 M-42.91 -1.39 C-43.36 -0.82, -43.94 -0.47, -44.88 0.14 M-45.07 0.22 C-46.15 0.85, -46.46 2.25, -48.03 4.13 M-44.87 0.41 C-46.17 1.66, -47.32 2.73, -48.34 3.81 M-48.44 3.83 C-49.51 5.07, -50.14 5.76, -52.02 8.39 M-48.45 3.7 C-49.19 4.65, -49.97 5.7, -51.85 8.12 M-51.21 8.34 C-52.76 9.36, -53.58 10.35, -54.99 12.68 M-51.49 8.13 C-52.11 8.76, -53.09 9.71, -54.32 12.24 M-54.37 11.96 C-55.28 13.04, -55.83 14.81, -57.72 16.85 M-54.79 12.15 C-55.11 13.53, -56.05 14.79, -57.36 16.46 M-57.03 16.34 C-57.85 18.07, -59.17 19.14, -60.27 20.69 M-57.13 16.6 C-58.26 17.83, -59.29 19.39, -59.67 20.26 M-59.82 20.26 C-60.31 20.69, -61.43 20.79, -62.71 21.01 M-59.86 20.42 C-60.91 20.61, -61.73 20.6, -62.62 20.98 M-62.62 20.72 C-63.24 20.76, -63.62 21.08, -65.31 20.77 M-62.52 20.91 C-63.35 20.83, -64.04 20.82, -65.24 21.13 M-65.04 20.78 C-66.04 21.05, -66.47 20.99, -67.88 20.86 M-65.23 21.07 C-66.28 21.03, -67.15 20.93, -67.77 20.84 M-67.73 20.74 C-68.47 20.96, -69.28 20.4, -70.18 20.36 M-67.74 20.75 C-68.31 20.63, -69.1 20.62, -70.12 20.44 M-70.25 20.23 C-70.5 20.06, -71.47 20.03, -72.51 19.45 M-70.06 20.48 C-70.62 20.08, -71.35 20.03, -72.27 19.73 M-72.36 19.52 C-72.86 19.23, -73.4 19.25, -74.37 18.77 M-72.38 19.74 C-73.03 19.4, -73.5 18.96, -74.28 18.62 M-74.54 18.53 C-75.2 18.3, -75.83 17.64, -76.48 17.47 M-74.48 18.55 C-74.74 18.43, -75.42 17.99, -76.3 17.3 M-76.29 17.21 C-76.74 16.97, -77.71 16.32, -78.24 15.94 M-76.41 17.35 C-76.71 16.95, -77.19 16.53, -78.2 15.88 M-78.21 15.96 C-78.66 15.23, -79.02 14.7, -79.63 14.35 M-78.11 16.02 C-78.67 15.28, -79.39 14.72, -79.82 14.15 M-79.74 14.11 C-80.37 13.92, -80.54 13.01, -81.47 12.1 M-79.87 14.24 C-80.36 13.73, -80.79 13.12, -81.44 12.35 M-81.29 12.21 C-81.59 11.67, -81.84 11.13, -82.72 10.09 M-81.22 12.35 C-81.73 11.78, -82.14 11.19, -82.65 10.19 M-82.95 10.11 C-83.22 9.37, -83.75 8.88, -83.94 7.83 M-82.86 10.35 C-83.04 9.56, -83.64 8.73, -84.13 7.99 M-84.17 8.53 C-84.21 7.15, -85.23 5.38, -86.08 3.35 M-84.04 8 C-84.81 6.82, -85.04 5.26, -86.17 3.48 M-86.11 3.33 C-86.61 1.75, -87.51 0.08, -88.03 -2.16 M-86.42 3.06 C-86.62 1.55, -86.99 0.12, -87.8 -2.1 M-87.73 -2.4 C-88.23 -4.06, -88.37 -5.72, -89.13 -7.61 M-87.9 -1.98 C-88.48 -4.23, -88.49 -5.78, -88.88 -7.44 M-88.88 -7.53 C-89.12 -8.83, -89.58 -9.6, -89.65 -13.34 M-89.07 -7.84 C-88.99 -9.45, -89.68 -11.32, -89.68 -13.31 M-89.38 -13.6 C-89.43 -14.98, -90.52 -17.61, -90.05 -19.42 M-89.76 -13.1 C-89.64 -14.65, -89.96 -15.64, -89.92 -18.97 M-89.53 -19.26 C-89.91 -20.87, -90.27 -22.57, -90.16 -24.67 M-90.28 -18.93 C-89.91 -21.27, -89.88 -23.41, -90.01 -24.64 M-90.34 -25.06 C-89.42 -26.46, -88.94 -27.75, -89.58 -30.2 M-89.8 -24.73 C-89.69 -26.43, -89.42 -27.76, -88.94 -29.93 M-89.64 -30.19 C-88.72 -32.09, -88.15 -33.95, -88.16 -35.12 M-89.24 -30.06 C-88.57 -31.66, -88.38 -33.83, -88.16 -34.71 M-87.99 -34.92 C-87.33 -36.54, -87.41 -37.85, -86.29 -39.04 M-88.06 -34.83 C-87.58 -36.06, -87.07 -37.87, -86.79 -39.14 M-86.58 -38.87 C-86.36 -40.02, -86.12 -40.51, -85.85 -41.1 M-86.55 -39.01 C-86.32 -39.55, -86.09 -40.26, -85.64 -41.09 M-85.64 -40.99 C-85.6 -41.33, -85.13 -41.94, -84.88 -42.78 M-85.82 -41.01 C-85.34 -41.64, -85 -42.2, -84.74 -42.69 M-84.86 -42.63 C-84.06 -42.85, -83.1 -43.5, -81.86 -43.91 M-84.75 -42.84 C-83.97 -43.03, -83.29 -43.27, -82.05 -43.75 M-81.87 -43.55 C-80.98 -43.97, -79.83 -43.97, -79.52 -44.01 M-82.06 -43.8 C-81.46 -43.78, -80.96 -43.82, -79.36 -44.28 M-79.38 -44.29 C-78.87 -44.03, -78.05 -44.36, -77.29 -44.17 M-79.59 -44.3 C-78.63 -44.22, -77.48 -44.2, -76.99 -44.38 M-76.89 -44.1 C-76.54 -44.13, -75.89 -44.3, -74.97 -43.92 M-77.1 -44.32 C-76.54 -44.22, -76.24 -44.32, -74.89 -44.09 M-74.8 -44.11 C-74.31 -43.9, -73.61 -43.67, -72.78 -43.55 M-74.93 -44.09 C-74.25 -43.87, -73.5 -43.76, -72.75 -43.43 M-72.68 -43.28 C-72.18 -43.44, -72.16 -42.97, -71.02 -42.31 M-72.83 -43.44 C-72.33 -43.24, -71.87 -42.9, -70.94 -42.55 M-70.75 -42.5 C-70.2 -42.18, -70.12 -42.04, -68.91 -41.07 M-70.72 -42.37 C-70.37 -42.19, -69.63 -41.79, -68.96 -41.11 M-69.19 -41.13 C-68.56 -40.73, -68.17 -40.73, -67.42 -39.82 M-68.93 -41.32 C-68.43 -40.64, -67.91 -39.99, -67.46 -39.64 M-67.35 -39.72 C-66.95 -39.44, -66.88 -38.98, -65.88 -38.14 M-67.37 -39.7 C-67.1 -39.3, -66.81 -38.99, -65.89 -37.93 M-65.69 -37.84 C-65.49 -37.45, -65.03 -36.97, -64.33 -36.13 M-65.96 -37.99 C-65.43 -37.32, -65.02 -36.66, -64.46 -35.95 M-64.71 -35.96 C-64.37 -35.34, -63.61 -34.68, -63.28 -33.61 M-64.47 -36 C-64.15 -35.24, -63.86 -34.55, -63.35 -33.67 M-63.52 -33.69 C-62.89 -32.74, -62.61 -31.99, -62.45 -31.14 M-63.27 -33.6 C-62.89 -32.99, -62.58 -32.38, -62.22 -31.46 M-62.74 -31.11 C-62 -29.27, -61.44 -28.05, -60.6 -25.93 M-62.04 -31.39 C-61.53 -29.98, -61.08 -28.84, -60.39 -26.25 M-60.68 -26.8 C-60.03 -24.54, -60.23 -23.34, -59.28 -20.68 M-60.56 -26.39 C-60.09 -24.51, -59.75 -23.05, -59.07 -20.88 M-59.76 -20.29 C-57.1 -21.04, -56.29 -20.42, -52.93 -19.96 M-59.41 -20.7 C-56.66 -20.71, -54.5 -20.58, -53.28 -19.96 M-53.13 -20.44 C-51.32 -20.46, -50.27 -20.2, -47.3 -20.65 M-53.47 -20.32 C-51.42 -20.34, -49.28 -20.34, -47.4 -20.33 M-46.94 -19.73 C-44.95 -20.57, -43.03 -20.21, -41.36 -20.47 M-47.39 -20.27 C-46.13 -20.31, -44.35 -20.39, -41.09 -20.67 M-40.89 -20.7 C-39.83 -21.58, -37.48 -21.17, -35.73 -21.33 M-41.64 -21.05 C-39.79 -21.21, -38.73 -21.47, -35.17 -21.78 M-35.51 -21.21 C-30.49 -22.54, -26.41 -21.95, -23.59 -23.15 M-35.1 -22.15 C-31.83 -22.73, -29.47 -23.04, -23.12 -23.66 M-23.67 -23.91 C-20.54 -24.23, -19.19 -24.5, -16.9 -24.61 M-23.36 -23.79 C-21.06 -23.9, -19.29 -24.35, -17.53 -25.1 M-17.32 -25.03 C-15.86 -25.39, -13.56 -25.42, -10.96 -25.78 M-17.54 -24.67 C-15.29 -25.27, -13.08 -25.24, -11.37 -25.78 M-11.51 -25.84 C-12.06 -26.05, -12.59 -25.96, -12.86 -25.89 M-11.34 -25.8 C-11.8 -25.88, -12.1 -25.91, -12.71 -26 M-12.63 -25.94 C-13.13 -25.84, -13.86 -26.12, -14.92 -26.13 M-12.7 -26.01 C-13.53 -26.02, -14.24 -26.03, -14.82 -26.1 M-14.51 -26.39 C-15.52 -26.22, -16.61 -26.11, -17.15 -26.33 M-14.86 -26.25 C-15.37 -26.14, -16.2 -26.07, -17.16 -26.16 M-17.4 -26.38 C-18.15 -26.13, -19.42 -26.43, -20.25 -26.1 M-17.22 -26.27 C-18.05 -26.16, -18.85 -26.37, -20.12 -26.25 M-20.26 -26.01 C-20.76 -26.27, -21.8 -26.36, -23.6 -26.09 M-20.4 -26.37 C-21.29 -26.24, -22.38 -26.36, -23.56 -26.21 M-23.32 -26.66 C-24.48 -26.24, -25.68 -26.52, -27.26 -26.5 M-23.54 -26.21 C-24.35 -26.38, -25.11 -26.41, -26.97 -26.41 M-26.54 -27.13 C-28.6 -26.11, -30.24 -26.73, -33.98 -27.15 M-27.06 -26.25 C-29.19 -26.83, -30.65 -26.39, -34.2 -26.72 M-34.52 -26.83 C-35.76 -27.17, -36.89 -27.12, -37.65 -26.68 M-34.32 -26.64 C-35.06 -26.68, -35.66 -26.93, -37.81 -27.06 M-37.57 -26.84 C-39.13 -27.16, -40.39 -27.14, -41.18 -27.09 M-37.89 -26.99 C-38.78 -27.25, -39.62 -27.13, -40.99 -27.21 M-41.25 -27.26 C-41.68 -27.58, -42.68 -27.62, -44.33 -27.62 M-41.1 -27.34 C-42.08 -27.35, -42.84 -27.57, -44.11 -27.62 M-43.99 -27.9 C-45.09 -28.09, -45.73 -28.32, -46.88 -28.23 M-44.16 -27.66 C-44.79 -27.81, -45.49 -27.93, -46.79 -28.4 M-46.89 -28.34 C-47.01 -28.32, -47.62 -28.49, -48.93 -28.82 M-46.65 -28.33 C-47.1 -28.34, -47.59 -28.69, -48.8 -29.05 M-48.83 -29.02 C-49.27 -29.1, -49.44 -29.55, -50.11 -29.76 M-48.83 -28.96 C-49.28 -29.24, -49.65 -29.49, -50.24 -29.77 M-50.2 -29.8 C-50.28 -29.96, -50.52 -30.17, -50.61 -30.35 M-50.19 -29.86 C-50.28 -29.92, -50.4 -30.06, -50.63 -30.32 M-50.6 -30.26 C-50.69 -30.45, -50.84 -30.62, -50.84 -30.86 M-50.66 -30.32 C-50.68 -30.4, -50.75 -30.54, -50.88 -30.85 M-50.91 -30.83 C-50.86 -31.01, -50.9 -31.04, -50.92 -31.43 M-50.9 -30.86 C-50.89 -31, -50.91 -31.19, -50.93 -31.44 M-50.97 -31.46 C-50.84 -31.67, -50.79 -31.82, -50.75 -32.09 M-50.95 -31.45 C-50.89 -31.61, -50.8 -31.76, -50.75 -32.08 M-50.66 -31.86 C-50.84 -33.14, -50.85 -34.14, -50.75 -36.04 M-50.59 -32.02 C-50.69 -33.09, -50.68 -33.62, -50.88 -36.45 M-50.87 -36.33 C-50.97 -37.54, -51.43 -39.15, -51.06 -40.4 M-51.15 -36.42 C-51.22 -37.04, -51.19 -38.04, -51.43 -40.13 M-51.55 -40.22 C-51.65 -41.65, -51.68 -42.71, -52.39 -43.67 M-51.57 -40.16 C-51.7 -40.8, -51.86 -41.6, -52.19 -43.43 M-52.34 -43.59 C-52.08 -44.04, -52.38 -45.09, -52.95 -46.81 M-52.16 -43.48 C-52.43 -44.6, -52.69 -45.85, -52.85 -46.71 M-52.94 -46.5 C-53.43 -47.46, -53.77 -48.06, -53.89 -48.98 M-52.93 -46.53 C-53.36 -47.29, -53.72 -48.28, -53.97 -49.12 M-53.77 -49.04 C-54.32 -49.79, -54.63 -50.08, -55.06 -51.47 M-54.02 -49.25 C-54.3 -50.03, -54.85 -50.76, -55.14 -51.52 M-55.35 -51.43 C-55.39 -52.1, -56.01 -52.58, -56.66 -53.13 M-55.18 -51.35 C-55.51 -52.08, -56.16 -52.69, -56.52 -53.28 M-56.32 -53.16 C-56.84 -53.78, -57.39 -54.07, -57.99 -54.81 M-56.44 -53.26 C-56.76 -53.51, -57.03 -53.96, -57.87 -54.67 M-57.75 -54.9 C-58.47 -55.1, -58.81 -55.44, -59.47 -55.96 M-57.97 -54.81 C-58.39 -55.17, -58.97 -55.57, -59.46 -55.97 M-59.56 -55.97 C-60.03 -56.08, -60.62 -56.43, -61.27 -56.98 M-59.56 -56 C-59.99 -56.32, -60.61 -56.53, -61.22 -56.82 M-61.3 -56.85 C-61.99 -57.03, -62.68 -57.26, -63.21 -57.22 M-61.26 -56.87 C-61.74 -57.03, -62.31 -57.17, -63.03 -57.35 M-63.04 -57.29 C-63.35 -57.59, -64.07 -57.29, -64.88 -57.73 M-63.03 -57.36 C-63.5 -57.34, -64.15 -57.58, -64.95 -57.56 M-65.08 -57.48 C-65.46 -57.61, -66.13 -57.71, -66.89 -57.53 M-64.89 -57.55 C-65.84 -57.68, -66.53 -57.6, -67.01 -57.66 M-66.9 -57.4 C-67.25 -57.39, -68.02 -57.34, -69.15 -57.48 M-67.06 -57.55 C-67.57 -57.53, -68.31 -57.33, -68.9 -57.3 M-68.94 -57.27 C-69.93 -57.18, -70.53 -57.1, -71.3 -56.85 M-68.89 -57.4 C-69.78 -57.24, -70.35 -57, -71.15 -56.86 M-71.08 -56.75 C-71.77 -56.48, -72.46 -56.39, -73.24 -56.17 M-71.01 -56.88 C-71.91 -56.58, -72.69 -56.16, -73.15 -56.07 M-73.17 -55.84 C-73.59 -55.86, -74.38 -55.74, -75.39 -55.24 M-73.23 -55.99 C-73.91 -55.68, -74.68 -55.4, -75.52 -55.17 M-75.25 -55.04 C-75.95 -54.58, -76.96 -54.19, -77.47 -54.05 M-75.45 -55.12 C-76.17 -54.7, -76.78 -54.41, -77.68 -53.84 M-77.75 -54.12 C-79.09 -53.48, -79.97 -52.13, -81.51 -50.58 M-77.75 -53.95 C-78.35 -53.4, -79.71 -52.63, -81.83 -50.89 M-82.06 -50.92 C-83.17 -49.39, -85.08 -48.31, -85.93 -48.05 M-82.03 -51.11 C-82.83 -50.04, -83.94 -49.34, -86.36 -47.67 M-85.83 -47.58 C-86.87 -46.8, -88.14 -44.84, -90.32 -43.66 M-86.36 -47.3 C-87.51 -46.74, -88.11 -45.48, -90.08 -43.44 M-90 -43.88 C-91.52 -42.61, -91.92 -40.55, -94.11 -38.79 M-90.4 -43.29 C-91 -42.75, -91.86 -41.49, -94.11 -39.17 M-94.41 -39.29 C-95.35 -37.71, -96.76 -36.08, -98.04 -34.02 M-93.9 -38.86 C-94.91 -37.7, -95.55 -37.18, -97.63 -34.35 M-97.06 -34.42 C-98.39 -32.6, -98.99 -31.1, -101.14 -29.2 M-97.33 -34.13 C-98.87 -32.64, -99.79 -30.4, -100.8 -29.43 M-100.26 -29.96 C-101.56 -28.69, -101.69 -26.96, -103.42 -24.72 M-100.84 -29.72 C-101.23 -28.41, -101.91 -27.4, -103.11 -24.86 M-102.97 -24.71 C-103.21 -23.1, -103.74 -21.85, -104.83 -19.79 M-102.74 -24.74 C-103.54 -23.14, -103.8 -21.99, -104.42 -19.89 M-104.45 -20.3 C-104.43 -18.59, -104.94 -17.86, -105.86 -15.93 M-104.21 -20.03 C-104.84 -18.71, -104.98 -17.33, -105.59 -15.65 M-105.73 -15.31 C-106.11 -14.23, -106.31 -14.04, -106.19 -11.02 M-105.66 -15.71 C-106.02 -14.09, -106.22 -12.69, -106.51 -11.06 M-106.4 -11.16 C-106.3 -9.34, -107.11 -8.05, -106.65 -6.85 M-106.58 -10.91 C-106.78 -9.84, -106.94 -8.24, -106.88 -6.7 M-107.34 -6.44 C-107.39 -5.27, -106.95 -3.52, -107.62 -2.68 M-107.02 -6.9 C-107.26 -5.5, -107.34 -4.51, -107.14 -2.53 M-107.54 -2.45 C-107.61 -1.32, -106.96 0.21, -107.68 1.75 M-107.2 -2.27 C-107.44 -1.47, -107.16 -0.29, -107.17 1.86 M-107.02 1.92 C-107.21 2.42, -107.5 4.05, -107.38 5.37 M-107.14 1.64 C-107.09 3.1, -107.32 4.1, -106.86 5.84 M-106.96 5.81 C-106.64 6.47, -106.75 7.9, -106.14 9.77 M-107.13 5.72 C-106.78 6.7, -106.56 7.9, -106.54 9.33 M-106.8 9.56 C-106.24 10.78, -106.05 11.91, -105.65 13.39 M-106.61 9.63 C-106.25 10.18, -106.15 11.17, -105.85 13.34 M-105.44 13.01 C-105.14 14.74, -104.85 16.22, -104.66 16.96 M-105.83 13.28 C-105.49 14.7, -104.84 15.9, -104.62 16.77 M-105.09 16.81 C-104.41 17.71, -103.94 18.52, -103.26 20.27 M-104.73 16.68 C-104.59 17.38, -104.23 18.18, -103.63 19.78 M-103.56 20.19 C-103.02 21.32, -102.7 21.89, -102.16 22.87 M-103.69 19.84 C-103.17 20.71, -102.8 21.46, -102.1 23.12 M-102.33 23.05 C-101.59 24.06, -101.06 25.16, -100.88 25.97 M-102.23 22.94 C-101.6 23.58, -101.34 24.37, -100.63 25.98 M-100.53 25.73 C-100.33 26.37, -99.69 27.25, -98.78 28.28 M-100.47 25.92 C-99.85 26.52, -99.43 27.63, -98.81 28.32 M-98.56 28.24 C-98.2 28.82, -97.41 29.7, -96.55 30.58 M-98.72 28.36 C-98.21 29.13, -97.47 30.16, -96.95 30.66 M-96.92 30.83 C-96.02 31.63, -95.43 32.42, -94.37 32.96 M-96.69 30.69 C-95.97 31.22, -95.42 32.14, -94.56 32.73 M-94.68 32.72 C-94.3 32.79, -93.93 33.21, -92.25 34.25 M-94.69 32.73 C-94.04 33.04, -93.38 33.61, -92.49 34.3 M-92.64 34.34 C-91.6 34.94, -91.06 34.82, -90.19 36.02 M-92.27 34.32 C-91.76 34.86, -90.91 35.18, -90.01 35.66 M-90.05 35.51 C-89.26 36.31, -88.59 36.13, -87.34 36.67 M-89.95 35.72 C-89.15 36.14, -88.51 36.47, -87.25 36.93 M-87.63 37.01 C-86.39 36.85, -85.75 37.47, -84.89 37.64 M-87.26 36.94 C-86.51 37.03, -85.63 37.29, -84.57 37.43 M-84.4 37.76 C-84.08 37.6, -83.54 37.48, -81.85 37.68 M-84.53 37.42 C-83.86 37.64, -82.98 37.7, -81.84 37.8 M-81.8 38.02 C-80.58 37.52, -79.88 37.49, -79.14 37.79 M-81.76 37.84 C-81.08 37.8, -80.41 37.7, -79.01 37.67 M-78.82 37.66 C-77.79 37.71, -76.75 37.17, -75.8 37.25 M-78.98 37.8 C-78.34 37.74, -77.48 37.51, -75.84 37.27 M-76.21 37.21 C-74.73 37.29, -73.89 37.02, -72.69 36.29 M-75.98 37.44 C-74.87 36.94, -73.58 36.64, -72.9 36.45 M-73.06 36.69 C-71.87 36.09, -70.71 35.3, -69.78 34.92 M-72.93 36.4 C-71.64 35.9, -70.65 35.41, -69.76 35.17 M-69.47 35.24 C-68.31 34.5, -67.29 34.02, -66.17 33.46 M-69.54 34.98 C-68.93 34.58, -67.99 34.09, -66.6 33.4 M-66.35 33.07 C-65.51 32.33, -64.35 32.33, -63.12 30.97 M-66.46 33.13 C-65.56 32.92, -64.81 32.1, -63.28 30.96 M-63.53 30.92 C-62.15 30.83, -61.83 29.97, -60.15 28.02 M-63.2 30.98 C-62.52 30.42, -61.48 29.55, -60.14 28.21 M-59.58 28.25 C-59.55 27.55, -57.99 26.35, -56.44 25.3 M-60 28.24 C-58.8 27.1, -57.54 25.91, -56.86 25.18 M-56.65 25.55 C-55.49 23.61, -54.27 22.17, -53.03 21.58 M-56.78 24.96 C-56.16 24.14, -55.04 23.52, -53.32 21.22 M-53.75 21.34 C-52.33 20.72, -52.12 18.99, -49.72 16.94 M-53.56 21.4 C-52.65 20.22, -51.65 19.35, -49.72 17.28 M-50.37 17.06 C-48.51 16.02, -47.76 14.2, -47.18 12.1 M-50.06 16.78 C-49.13 15.21, -48.09 13.92, -46.84 12.26 M-46.91 12 C-45.58 12.27, -45.13 12.7, -43.44 12.76 M-46.76 12.31 C-46.04 12.14, -45.14 12.25, -43.65 12.69 M-43.64 12.4 C-43.08 12.66, -41.87 12.46, -40.73 13.06 M-43.77 12.68 C-42.87 12.68, -41.62 12.93, -40.65 12.9 M-39.86 13.31 C-38.38 12.98, -36.1 12.84, -33.69 13.42 M-40.68 12.91 C-38.92 13.2, -37.67 13.41, -33.79 13.29 M-33.99 13.38 C-33.17 13.73, -31.6 13.56, -30.26 13.45 M-33.92 13.43 C-32.79 13.5, -32.12 13.67, -30.43 13.78 M-30.27 13.79 C-29.27 13.93, -28.6 14.21, -27.03 13.99 M-30.38 13.72 C-29.08 13.91, -28.16 14.14, -27.32 13.99 M-27.31 14.29 C-26.54 14.16, -26.01 14.45, -24.63 14.59 M-27.24 14.02 C-26.27 14.33, -25.5 14.28, -24.48 14.53 M-24.22 14.53 C-23.56 15.02, -22.17 15.14, -21.98 15.14 M-24.29 14.5 C-23.39 14.84, -22.24 14.99, -21.66 15.16 M-21.69 15.13 C-21 15.22, -20.77 15.56, -20.02 15.82 M-21.81 15.13 C-21.19 15.4, -20.54 15.47, -20.08 15.67 M-19.97 15.8 C-19.49 15.88, -19.11 16.33, -18.85 16.62 M-19.98 15.71 C-19.79 15.85, -19.51 16.02, -18.84 16.52 M-18.85 16.6 C-18.6 16.89, -18.39 17.13, -18.24 17.58 M-18.87 16.46 C-18.6 16.76, -18.47 17.11, -18.16 17.49 M-18.11 17.52 C-18 17.9, -18.07 18.46, -17.97 18.84 M-18.21 17.54 C-18.19 17.82, -18.13 18.09, -17.93 18.79 M-18 18.71 C-17.94 19.25, -17.88 19.72, -18.07 20.12 M-17.91 18.85 C-18.05 19.25, -18.06 19.67, -18.04 20.18 M-18.08 20.07 C-18 20.82, -18.25 21.09, -18.38 21.59 M-17.95 20.2 C-18.1 20.69, -18.25 21.13, -18.36 21.65 M-18.2 21.71 C-18.64 23.04, -18.64 23.98, -19.01 24.71 M-18.29 21.8 C-18.58 22.8, -18.78 23.99, -19.22 24.64 M-19.18 24.81 C-19.12 25.43, -19.38 26.16, -19.87 27.64 M-19.09 24.64 C-19.42 25.81, -19.36 26.87, -19.68 27.79 M-19.34 27.85 C-19.54 28.4, -19.75 29.2, -20.08 30.31 M-19.54 27.67 C-19.92 28.83, -20.15 29.69, -20.28 30.54 M-19.99 30.65 C-20.21 31.22, -21.18 32.57, -22 35.9 M-20.37 30.55 C-20.74 31.9, -21.1 33.35, -21.76 35.64 M-21.56 35.11 C-22.52 36.94, -23.34 37.44, -24.16 40.48 M-21.77 35.74 C-22.65 36.97, -23.12 38.43, -23.89 39.91 M-24.32 40.08 C-24.56 41.43, -25.1 42.58, -26.32 44.19 M-24.05 40.05 C-24.7 41.35, -25.47 42.42, -26.32 43.94 M-26.13 44.02 C-27.46 44.93, -28.3 46.47, -29.04 47.59 M-26.39 43.84 C-27.26 45.23, -28.33 46.37, -29.18 47.31 M-29.42 47.04 C-29.96 47.68, -30.66 48.38, -32 49.62 M-29.3 47.36 C-29.86 47.98, -30.58 48.55, -32.25 50 M-32.46 50.41 C-33.93 50.87, -35.14 51.74, -36.05 52.66 M-32.33 50.19 C-33.46 50.73, -34.37 51.27, -35.83 52.17 M-35.78 52.3 C-37.13 52.34, -38.47 53.62, -39.36 53.97 M-35.91 52.46 C-37.34 53.04, -38.79 53.41, -39.59 53.98 M-39.94 54.35 C-40.8 54.09, -41.88 54.4, -43.49 55.6 M-39.71 54.19 C-41.13 54.5, -42.33 55, -43.87 55.07 M-44.09 55.65 C-44.31 55.18, -45.86 55.2, -47.9 55.88 M-43.54 55.15 C-45.1 55.55, -46.76 55.77, -48.06 56.08 M-47.89 55.95 C-49.03 55.88, -50.07 56.64, -52.66 56.02 M-47.87 56.09 C-49.82 56.21, -51.16 56.41, -52.81 56.37 M-52.92 56.56 C-54.47 56.73, -56.49 56.21, -58.04 55.8 M-52.63 56.28 C-53.93 56.24, -55.35 56.05, -57.47 56.02 M-57.37 56.51 C-59.83 56.54, -61.66 55.74, -62.75 56.07 M-57.64 56.12 C-59.54 56.23, -61.11 55.97, -62.4 55.78 M-63.03 56.08 C-64.21 55.75, -66.11 55.68, -68.28 54.56 M-62.67 55.62 C-64.24 55.7, -66.02 55.02, -67.74 54.97 M-67.67 54.7 C-70.15 54.59, -72.03 54.47, -73.24 53.95 M-68.13 55.16 C-69.78 54.42, -72.41 54.19, -73.38 53.67 M-73.77 54.1 C-75.37 52.94, -76.79 53.19, -78.87 52.32 M-73.47 53.7 C-75.13 53.24, -76.73 52.72, -79.02 52.17 M-79.06 52.46 C-81.22 51.32, -83.26 51.5, -83.55 51.29 M-78.95 51.9 C-80.78 51.76, -82.69 51.39, -84.22 51.1 M-84.25 51.02 C-85.6 50.7, -86.65 50.33, -88.72 49.87 M-84.04 51.14 C-85.83 50.86, -87.09 50.45, -88.87 49.49 M-89.07 49.47 C-89.96 48.74, -92.23 48.69, -93.11 48.25 M-88.89 49.96 C-90 49.25, -90.97 48.74, -93.77 48.06 M-93.84 47.94 C-94.69 47.1, -96.55 46.47, -98.3 45.63 M-93.41 48.03 C-94.55 47.5, -95.63 47.11, -97.85 45.48 M-98.06 45.88 C-99.5 45.21, -100.73 43.56, -102.19 43.07 M-98.04 45.87 C-99.27 45.1, -100.39 44.18, -101.8 43.2 M-101.66 42.85 C-102.99 42.31, -103.95 41.55, -106.13 40.33 M-101.87 43.14 C-103.3 41.94, -104.71 41.26, -105.6 40.35 M-105.37 40.3 C-106.85 39.33, -108.05 37.4, -109.46 36.75 M-105.64 40.01 C-107.29 39.15, -108.75 37.52, -109.16 36.98 M-109.1 36.56 C-110.37 35.69, -111.76 34.16, -112.7 33.02 M-109.39 36.98 C-110.35 35.98, -111.41 34.93, -112.85 33.41 M-112.26 33.52 C-112.8 32.74, -114.32 32.32, -116 30.03 M-112.53 33.22 C-113.25 32.36, -114.17 31.6, -115.63 29.59 M-116.08 29.64 C-116.9 28.1, -117.06 27.25, -118.47 25.88 M-115.85 29.85 C-116.31 28.9, -116.86 28.1, -118.55 25.4 M-119.03 25.63 C-119.17 25.01, -119.62 24.26, -121.43 21.45 M-118.71 25.87 C-119.22 24.54, -119.41 23.8, -120.88 21.49 M-121.05 21.41 C-121.44 19.88, -121.91 18.9, -122.9 16.46 M-121.02 21.35 C-121.87 20.06, -122.27 18.59, -123.21 17.12 M-122.96 16.9 C-123.62 15.46, -124.83 13.32, -125.81 12.2 M-123.34 16.85 C-124.08 15.94, -124.21 14.8, -125.46 12.44 M-124.84 11.89 C-125.6 11.14, -126.32 10.12, -127.43 7.44 M-125.51 12.26 C-125.79 11.08, -126.05 10.35, -127.01 7.36 M-127.31 7.88 C-128.06 6.1, -128.17 4.71, -128.68 2.23 M-127.17 7.55 C-127.64 6.08, -128.11 4.38, -128.78 2.39 M-128.88 2.88 C-128.51 0.85, -129.05 -1.26, -129.47 -2.21 M-128.35 2.67 C-128.87 1.39, -129.48 -0.16, -129.75 -2.58 M-130.31 -2.7 C-130.16 -4.35, -130.55 -6.11, -131.1 -7.75 M-129.58 -2.15 C-130.02 -3.72, -130.07 -5.03, -130.63 -7.4 M-130.96 -7.14 C-130.91 -8.63, -131.31 -11.29, -131.47 -12.32 M-130.95 -7.59 C-131.03 -9.26, -131.15 -10.65, -131.37 -12.38 M-131.14 -12.8 C-131.41 -13.69, -131.43 -16.11, -131.57 -17.29 M-131.63 -12.34 C-131.56 -14.27, -131.77 -15.89, -131.74 -17.43 M-131.44 -17.95 C-131.86 -19.49, -131.76 -21.67, -131.78 -22.46 M-132.06 -17.92 C-131.72 -19.07, -131.81 -21.02, -131.93 -22.75 M-132.07 -23.21 C-131.94 -24.4, -131.57 -25.54, -132.15 -28.3 M-131.95 -22.62 C-132.03 -23.72, -131.84 -25.29, -132.16 -27.97 M-132.18 -27.52 C-132.23 -30.29, -132.07 -31.89, -131.81 -33 M-131.87 -27.96 C-132.11 -29.27, -131.68 -30.9, -131.65 -32.86 M-131.25 -33.46 C-131.06 -34.31, -131.38 -35.94, -131.3 -37.81 M-131.86 -33.08 C-131.79 -34.04, -131.15 -35.39, -130.83 -37.98 M-131.45 -38.2 C-131.1 -39.16, -130.79 -40.19, -129.91 -43.02 M-130.94 -38.12 C-130.9 -39.08, -130.77 -40.26, -130.35 -42.87 M-129.89 -42.85 C-130.01 -44.81, -129.57 -46.94, -129.01 -48.22 M-130.27 -42.78 C-129.82 -44.84, -129.13 -46.76, -129.12 -47.7 M-129.05 -47.51 C-128.1 -49.73, -128.11 -51.45, -127.42 -52.41 M-129.17 -48.03 C-128.59 -49.71, -127.8 -51.23, -127.49 -52.45 M-128.09 -52.44 C-127.17 -54.74, -126.76 -56.48, -125.75 -57.16 M-127.75 -52.3 C-127.07 -53.65, -126.56 -54.74, -125.74 -57.08 M-126.24 -57.26 C-125.45 -58.22, -124.98 -59.54, -123.7 -60.84 M-125.91 -57.06 C-125.18 -58.44, -124.54 -59.43, -124.17 -61.25 M-124.07 -61.09 C-123.83 -62.63, -123.1 -63.96, -121.46 -65.54 M-124 -61.18 C-123.36 -62.52, -122.97 -63.31, -121.77 -65.37 M-121.84 -65.57 C-120.69 -66.16, -120.47 -67.67, -119.04 -69.61 M-121.83 -65.36 C-120.95 -66.55, -120.45 -67.57, -119.17 -69.4 M-118.95 -69.33 C-118.27 -70.21, -117.55 -71.53, -116.55 -72.57 M-119.33 -69.46 C-118.54 -70.38, -117.51 -71.99, -116.72 -72.98 M-116.99 -72.82 C-115.73 -73.62, -114.97 -74.98, -113.69 -76.07 M-116.54 -72.75 C-116.07 -73.73, -115.07 -74.62, -113.75 -76.09 M-113.71 -76.54 C-112.7 -77.44, -110.69 -78.14, -109.72 -78.94 M-113.7 -76.25 C-112.53 -76.87, -111.09 -77.63, -110.15 -78.59 M-110.24 -78.94 C-109.37 -78.88, -108.41 -80, -106.54 -80.84 M-110.14 -78.75 C-108.79 -79.32, -107.68 -80.09, -106.53 -80.73 M-106.19 -80.81 C-105.67 -81.16, -104.16 -81.44, -102.63 -82.55 M-106.29 -80.87 C-105.65 -80.98, -104.82 -81.48, -102.73 -82.54 M-102.27 -82.06 C-101.31 -82.57, -100.09 -83.67, -98.93 -83.93 M-102.51 -82.29 C-101.55 -83.06, -100.59 -83.48, -98.73 -83.71 M-98.42 -84.06 C-96.9 -84.58, -95.88 -84.44, -94.87 -84.99 M-98.78 -84.06 C-97.81 -84.24, -96.93 -84.1, -94.71 -84.87 M-95 -84.74 C-93.39 -85.5, -92.34 -85.18, -91.18 -85.98 M-94.79 -85.02 C-93.31 -85.37, -92.09 -85.31, -90.7 -85.78 M-90.55 -85.41 C-90.1 -85.74, -88.82 -85.9, -86.87 -85.87 M-90.77 -85.67 C-89.61 -85.95, -88.26 -86.09, -86.63 -86.18 M-87.05 -85.89 C-85.85 -86.58, -84.34 -86.23, -82.79 -86.6 M-86.79 -86.22 C-85.27 -86.22, -83.56 -86.42, -82.45 -86.44 M-82.76 -86.28 C-81.08 -86.3, -79.98 -86.25, -78.64 -85.81 M-82.36 -86.36 C-81.08 -86.2, -79.76 -86.18, -78.53 -86 M-78.27 -86.3 C-77.43 -85.59, -76.01 -85.68, -74.05 -86.02 M-78.62 -86.19 C-76.7 -86.19, -75.22 -86, -74.14 -85.59 M-74.36 -85.39 C-73.2 -85.75, -72.47 -85.29, -69.74 -84.85 M-74.2 -85.54 C-73.06 -85.71, -72.11 -85.46, -69.93 -84.91 M-69.73 -85.36 C-69.56 -84.52, -68.09 -85, -66.1 -84.29 M-70.31 -84.99 C-68.61 -84.61, -67.1 -84.13, -66.02 -83.97 M-66.33 -83.79 C-64.32 -83.25, -63.29 -82.83, -61.82 -83.28 M-66.21 -84.28 C-64.59 -83.65, -63.17 -83.45, -61.93 -82.86 M-62.09 -82.61 C-60.58 -82.15, -59.75 -82.54, -57.53 -81.24 M-61.76 -82.92 C-60.84 -82.63, -59.9 -82.28, -58.04 -81.46 M-57.94 -81.48 C-56.55 -81.07, -55.51 -80.3, -53.58 -79.88 M-57.98 -81.56 C-56.67 -81.02, -55.03 -80.2, -53.85 -79.57 M-53.88 -79.56 C-52.41 -79.13, -51.03 -78.19, -50.32 -78.24 M-54.07 -79.62 C-52.96 -79.24, -52.19 -78.74, -49.83 -77.95 M-50.14 -77.41 C-48.2 -77.29, -47.12 -76.06, -46.67 -75.35 M-50.07 -78.01 C-48.5 -76.86, -47.34 -76.13, -46.17 -75.83 M-46.59 -75.38 C-45.35 -74.89, -44.23 -74.41, -43 -72.99 M-46.09 -75.8 C-45.12 -74.66, -43.36 -73.99, -42.42 -73.3 M-42.18 -73.77 C-40.99 -72.49, -40.36 -71.74, -38.86 -70.64 M-42.75 -73.43 C-41.36 -72.32, -39.91 -71.3, -38.85 -70.92 M-38.69 -71.19 C-38.32 -70.27, -37.65 -69.36, -35.82 -68.19 M-39.16 -71.09 C-38.09 -70.34, -37.2 -69.39, -35.67 -68.24 M-35.86 -68.21 C-34.35 -67.23, -32.98 -65.95, -32.65 -65.22 M-35.51 -68.03 C-34.81 -67.68, -34.27 -66.97, -32.19 -65.17 M-32.53 -65.73 C-31.54 -64.68, -30.87 -63.51, -29.01 -62 M-32.35 -65.31 C-31.45 -64.27, -30.46 -63.29, -29.11 -62.19 M-29.53 -62.52 C-28.81 -61.19, -27.44 -60.71, -26.66 -58.77 M-29.27 -62.45 C-28.26 -61.07, -27.44 -60.33, -26.37 -59.15 M-26.54 -58.85 C-25.74 -58.09, -24.98 -57.84, -23.66 -55.84 M-26.36 -58.94 C-25.18 -57.83, -24.26 -56.45, -23.69 -55.87 M-24.1 -55.7 C-23.28 -54.75, -23.07 -54.68, -21.62 -52.06 M-23.77 -55.6 C-23 -54.77, -22.04 -53.42, -21.05 -52.32 M-21.32 -52.36 C-20.93 -50.99, -20 -50.12, -19.09 -48.35 M-21.37 -52.23 C-20.66 -51.17, -19.89 -50.17, -18.75 -48.69 M-18.76 -48.27 C-18.49 -47.01, -17.54 -46.45, -16.99 -45.24 M-18.85 -48.54 C-18.47 -47.5, -17.65 -46.48, -17.07 -44.79 M-17.01 -44.84 C-16.46 -43.49, -16.08 -43.03, -15.49 -41.37 M-17.01 -44.78 C-16.47 -44.16, -16.39 -43.55, -15.04 -40.93 M-15.25 -41.36 C-14.49 -40.65, -14.21 -39.69, -13.49 -36.98 M-15.33 -41.01 C-14.68 -39.62, -13.92 -38.16, -13.9 -37.3 M-14.15 -36.83 C-13.53 -36.01, -13.19 -33.72, -12.22 -33.17 M-13.68 -37.25 C-13.31 -36.38, -13.03 -35.44, -12.54 -33.25 M-12.73 -33.41 C-12.35 -31.33, -11.59 -30.08, -11.38 -28.71 M-12.44 -33.2 C-12.51 -32.14, -12.23 -30.68, -11.75 -29.11 M-12.03 -29.06 C-11.51 -28, -11.33 -26.42, -11.09 -25.18 M-11.68 -29.23 C-11.77 -28.09, -11.37 -27.14, -10.95 -25.07 M-11.21 -25.19 C-11.06 -25.67, -11.67 -26.95, -10.82 -29.29 M-11.24 -24.84 C-10.9 -26.4, -11.39 -27.6, -11.08 -29.87 M-11.54 -29.77 C-11 -30.6, -11.48 -31.21, -11.1 -33.84 M-11.11 -29.89 C-11.51 -30.8, -11.49 -32.39, -11.44 -34.38 M-11.19 -34.09 C-11.65 -36.32, -12.31 -37.28, -11.62 -38.7 M-11.68 -34.3 C-11.81 -35.93, -11.68 -37.24, -11.82 -38.42 M-12.17 -38.94 C-12.08 -39.77, -12.28 -42, -12.84 -42.88 M-11.99 -38.41 C-12.33 -39.79, -12.36 -40.64, -12.63 -42.72 M-13.06 -43.14 C-12.88 -44.42, -13.07 -46, -13.69 -47.26 M-12.46 -43.04 C-13.04 -44.31, -13.07 -45.99, -13.6 -46.86 M-13.77 -47.18 C-13.73 -47.99, -14.3 -48.97, -14.47 -50.47 M-13.58 -46.79 C-13.76 -47.81, -14.05 -48.83, -14.35 -50.73 M-14.09 -50.74 C-14.73 -51.93, -14.84 -52.76, -15.39 -54.75 M-14.36 -50.75 C-14.71 -51.9, -14.86 -52.67, -15.65 -54.7 M-15.45 -54.45 C-15.68 -55.57, -16.02 -56.5, -16.82 -58.03 M-15.27 -54.49 C-15.6 -55.38, -16.23 -56.63, -16.61 -58.1 M-16.54 -58.4 C-17 -58.57, -17.01 -59.68, -18.04 -61.21 M-16.61 -58.28 C-17.23 -59.45, -17.66 -60.64, -17.99 -61.38 M-18.25 -61.6 C-18.42 -62.32, -18.75 -63.42, -19.8 -65.06 M-17.89 -61.63 C-18.55 -62.54, -18.82 -63.58, -19.47 -64.96 M-19.39 -65.05 C-19.88 -65.74, -20.16 -66.34, -20.89 -68.23 M-19.37 -64.94 C-20.03 -65.45, -20.19 -66.29, -21.26 -68.01 M-21.31 -68.15 C-21.91 -68.58, -22.37 -69.53, -22.65 -71.03 M-21.01 -67.78 C-21.62 -69, -22.19 -69.89, -22.73 -70.72 M-23.41 -71.2 C-24.91 -72.37, -26.05 -75.65, -27.22 -76.93 M-22.86 -70.72 C-24.37 -72.89, -25.26 -74.06, -26.36 -76.3 M-26.98 -76.74 C-27.79 -77.27, -28.05 -78.74, -30.91 -80.46 M-26.9 -76.41 C-28.56 -77.9, -30.12 -79.78, -30.85 -80.92 M-31.3 -81.4 C-32.86 -82.74, -33.74 -83.61, -35.93 -85.71 M-30.94 -80.97 C-31.99 -81.93, -33.31 -83.12, -35.3 -85.1 M-35.62 -85.27 C-37.12 -86.05, -37.87 -87.68, -40.76 -88.73 M-35.66 -85.13 C-36.71 -86.39, -37.92 -86.99, -40.36 -88.94 M-40.79 -89.17 C-42.12 -90.11, -44 -91.38, -45.65 -91.89 M-40.48 -88.58 C-42.23 -89.64, -43.79 -90.85, -45.63 -91.67 M-45.89 -92.39 C-47.28 -93.3, -49.62 -94.03, -50.4 -94.09 M-45.48 -92.11 C-46.97 -92.61, -48.03 -92.94, -51.04 -94.26 M-51.19 -94.18 C-51.68 -94.6, -54.02 -94.71, -56.07 -95.82 M-50.9 -94.22 C-52.46 -94.79, -53.58 -94.79, -56.34 -95.98 M-56.06 -96.25 C-58.2 -96.58, -61.23 -97.46, -61.76 -96.96 M-56.63 -96.03 C-57.97 -96.37, -59.95 -96.57, -62.34 -97.07 M-61.82 -97.03 C-64.39 -97.46, -66.38 -97.17, -68.62 -98.14 M-62.34 -97.39 C-63.76 -97.36, -64.72 -97.58, -68.08 -97.69 M-68.54 -97.76 C-70.68 -97.82, -72.7 -97.69, -74.33 -97.41 M-68.09 -97.63 C-70.03 -97.69, -71.38 -98.08, -73.85 -97.56 M-74.33 -98.01 C-76.02 -97.59, -78.96 -97.55, -80.6 -97.48 M-73.91 -97.57 C-76.1 -97.56, -78.23 -97.65, -80.16 -97.35 M-80.41 -96.93 C-81.66 -97.42, -82.95 -96.85, -86.45 -96.45 M-79.86 -97.35 C-81.86 -96.81, -83.44 -96.46, -85.95 -95.91 M-85.61 -95.96 C-87.78 -94.85, -89.85 -94.8, -92.23 -93.91 M-86.11 -96.01 C-88.04 -95.56, -90.35 -94.55, -91.74 -94.63 M-91.62 -94.11 C-93.73 -93.4, -95.66 -93.5, -97.56 -92.42 M-91.83 -94.12 C-93.56 -93.9, -95.43 -93.31, -97.95 -92.29 M-97.31 -91.82 C-99.45 -90.89, -100.18 -90.17, -103.09 -89.11 M-97.74 -92.18 C-99.95 -91.18, -101.18 -90.56, -103.69 -89.44 M-102.79 -90.01 C-105.47 -87.59, -108.36 -87.35, -108.32 -85.73 M-103.12 -89.6 C-105.45 -88.49, -107.08 -87.29, -108.71 -86.25 M-108.68 -86.34 C-110.23 -85.18, -112.66 -83.64, -114.69 -82.68 M-109.03 -86.12 C-110.6 -84.85, -112.07 -83.56, -114.23 -82.01 M-113.95 -81.83 C-115.58 -81.85, -116.71 -79.84, -119.49 -77.82 M-113.96 -82.03 C-115.08 -81.49, -115.99 -80.39, -119.13 -77.95 M-118.92 -77.32 C-120.67 -75.74, -122.5 -74.84, -124.07 -73.18 M-119.08 -77.85 C-120.25 -76.53, -120.73 -75.55, -123.95 -72.91 M-123.11 -72.23 C-126.01 -71.08, -127.73 -68.79, -127.84 -67.28 M-123.81 -72.46 C-125.03 -70.72, -126.82 -69.06, -128.4 -67.51 M-128.52 -67.54 C-129.16 -65.67, -130.92 -63.7, -131.32 -60.69 M-127.82 -67.42 C-129.55 -65.53, -130.61 -63.06, -132.02 -61.02 M-131.6 -61.8 C-132.8 -59.11, -134.38 -56.59, -135.41 -55.01 M-131.93 -61.01 C-132.93 -59.15, -134.42 -56.31, -135.09 -55.1 M-135.14 -55.52 C-136.54 -52.41, -137.4 -49.61, -138.87 -47.22 M-135.4 -54.8 C-136.14 -51.77, -137.87 -49.26, -138.05 -47.6 M-138.79 -47.03 C-139.6 -46.45, -138.78 -45.16, -140.09 -40.18 M-138.08 -47.43 C-138.77 -45.19, -139.67 -43.21, -140.86 -40.07 M-140.77 -40.38 C-141.09 -38.91, -141.68 -37.88, -141.75 -36.4 M-140.77 -40.1 C-140.96 -39.12, -141.18 -38.46, -142.02 -36.26 M-142.01 -36.31 C-142.08 -35.26, -141.97 -33.94, -142.86 -31.84 M-141.83 -36.07 C-142.17 -34.96, -142.48 -33.44, -142.67 -32.01 M-142.9 -31.93 C-142.67 -30.41, -142.95 -29.14, -143.54 -28.02 M-142.51 -32.25 C-142.85 -31.42, -142.95 -30.25, -143.56 -27.95 M-143.69 -27.97 C-143.22 -26.38, -144.19 -24.61, -143.72 -23.61 M-143.31 -27.99 C-143.68 -26.34, -144.04 -24.44, -143.77 -23.58 M-144.26 -23.75 C-143.69 -21.71, -144.39 -20.31, -145.18 -17.69 M-143.7 -23.8 C-144.36 -22.43, -144.43 -20.92, -144.41 -18.16 M-144.41 -17.94 C-145.33 -16.42, -145.36 -15.01, -145 -12.71 M-144.41 -18.27 C-144.74 -16.96, -144.91 -16.31, -145.4 -12.8 M-144.73 -13.22 C-145.64 -11.4, -145.38 -9.34, -145.07 -7.78 M-144.9 -12.94 C-145.43 -11.71, -145.27 -10.53, -145.44 -8.07 M-145.57 -7.72 C-145.33 -5.96, -145.33 -4.12, -145.74 -3.31 M-145.63 -7.93 C-145.49 -6.64, -145.47 -5.02, -145.21 -2.93 M-145.17 -2.68 C-145.02 -0.91, -145.24 0.84, -145.37 1.87 M-145.24 -2.89 C-145.47 -1.74, -145.16 -0.62, -145.19 2.03 M-144.99 1.61 C-145.46 3.18, -145.36 4.32, -144.66 6.42 M-145.1 1.82 C-145 2.93, -145.29 3.87, -144.81 6.53 M-145.03 6.47 C-144.89 8.44, -144.25 8.93, -143.92 11.23 M-144.89 6.45 C-144.99 7.71, -144.47 8.81, -144.5 11.29 M-144.3 10.86 C-143.73 12.82, -143.66 14.84, -143.45 15.44 M-144.24 11.19 C-144.16 12.38, -144.01 13.95, -143.41 15.54 M-143.88 15.93 C-143.45 17.31, -142.94 18.85, -142.91 20.02 M-143.68 15.59 C-143.11 17.05, -142.78 18.63, -142.67 19.66 M-142.7 19.55 C-142.44 21.03, -141.74 22.81, -141.77 23.97 M-142.86 19.74 C-142.44 21.36, -142.13 22.84, -141.38 24.05 M-141.38 23.96 C-140.91 25.39, -140.81 26.1, -140.38 27.8 M-141.6 24.12 C-141.28 25.24, -140.82 26.36, -140.26 27.74 M-139.92 27.92 C-140.03 28.64, -139.22 30.29, -138.56 31.57 M-140.29 27.72 C-139.75 28.87, -139.52 29.72, -138.69 31.64 M-138.81 31.69 C-138.14 33.16, -137.39 33.82, -137.5 35.6 M-138.74 31.71 C-138.4 33.1, -137.71 34.57, -137.28 35.44 M-136.92 35.18 C-136.67 36.32, -136.83 36.82, -135.23 38.82 M-137.45 35.15 C-136.54 36.68, -136.07 38.15, -135.47 38.75 M-135.73 38.7 C-135.27 40.27, -133.91 41.43, -133.31 41.77 M-135.7 38.87 C-134.8 39.78, -134.42 41.09, -133.64 42.12 M-133.36 41.96 C-132.98 43.62, -131.88 44.8, -131.49 45.65 M-133.56 42.22 C-133.1 43.14, -132.31 43.95, -131.54 45.35 M-131.75 45.56 C-131.09 45.69, -130.56 46.83, -129.6 48.39 M-131.58 45.26 C-130.97 46.08, -130.22 47.22, -129.55 48.51 M-129.32 48.59 C-129.08 49.23, -128.3 50.02, -127.08 51.43 M-129.28 48.21 C-128.67 49.43, -127.85 50.35, -127.21 51.08 M-127.25 51.51 C-126.39 51.8, -125.93 53.14, -124.68 54.24 M-127.15 51.34 C-126.52 51.99, -125.92 52.55, -124.77 54.01 M-124.52 53.79 C-123.76 54.93, -123.02 55.81, -122.49 56.5 M-124.81 53.74 C-124.03 54.9, -123.17 55.48, -122.15 56.33 M-122.83 56.96 C-120.5 57.59, -119.33 58.79, -116.62 60.8 M-122.05 56.47 C-120.94 57.67, -119.81 58.91, -117.02 61.33 M-117.08 61.31 C-115.52 63.06, -112.49 63.83, -110.83 65.49 M-116.64 61.02 C-115 62.32, -112.76 64.06, -111.06 65.12 M-111.91 64.5 C-109.65 65.7, -108.22 66.84, -104.72 68.41 M-110.96 65.06 C-109.22 65.97, -107.23 66.91, -105.53 68.47 M-104.84 68.47 C-103.78 69.79, -102.54 69.75, -98.44 71.02 M-105.19 68.72 C-103.46 69.26, -102.32 69.85, -98.84 71.13 M-98.56 70.85 C-97.18 71.52, -94.18 72.2, -91.9 72.7 M-99.15 70.81 C-96.46 71.54, -94.65 72.26, -92.74 73.47 M-93.09 73.02 C-90.98 73.8, -88.2 73.89, -85.28 74.62 M-92.37 73.34 C-89.92 73.47, -87.62 74.36, -85.59 74.27 M-86.38 74.44 C-83.65 74.66, -82.37 75.13, -79.46 75.47 M-85.62 74.53 C-83.82 74.75, -81.43 74.96, -79.25 75.22 M-78.78 75.13 C-76.92 74.73, -75.86 75.16, -72.46 75.33 M-78.91 75.31 C-77.65 74.99, -75.98 75.39, -72.43 75.24 M-72.16 75.47 C-69.76 74.42, -67.59 75.06, -65.28 74.08 M-72.31 75.03 C-70.16 74.89, -67.65 74.42, -65.49 74.35 M-64.97 74.62 C-63.14 73.31, -61.16 73.24, -58.36 72.55 M-65.36 74.68 C-63.51 73.99, -61.44 73.91, -58.58 73.42 M-58.1 73.05 C-56.58 71.92, -53.48 70.81, -51.99 70.97 M-58.56 73.16 C-56.83 72.63, -55.47 72.44, -51.71 71.18 M-52.72 70.94 C-50.21 70.21, -47.96 69.73, -45.44 68.73 M-52.11 71.22 C-49.9 69.92, -47.88 69.41, -45.54 68.14 M-45.02 67.99 C-44.1 67.76, -41.59 66.23, -38.76 64.08 M-45.3 68.42 C-43.76 67.07, -41.9 66.11, -39.43 64.99 M-39.36 64.65 C-38.44 64.37, -36.89 63.54, -36.27 63.03 M-39.32 64.88 C-38.23 64.12, -37.34 63.66, -36 62.54 M-36.48 62.49 C-35.24 61.91, -34.02 60.86, -32.87 60.34 M-36.04 62.59 C-35.17 62.03, -34.21 61.39, -33.02 60.42 M-33.33 60.53 C-32.06 60, -31.22 58.67, -30.16 58.22 M-33.11 60.65 C-31.94 59.66, -30.99 58.81, -30.11 57.97 M-30.43 57.87 C-29.45 57.04, -27.69 55.88, -27.27 55.3 M-30.29 58.02 C-29.56 57.4, -28.6 56.54, -27.28 55.74 M-27.75 55.73 C-26.72 54.63, -25.9 54.18, -24.32 52.79 M-27.48 55.75 C-26.55 54.5, -25.51 53.58, -24.48 52.92 M-24.89 52.86 C-24.43 52.4, -23.58 51.44, -21.92 49.86 M-24.46 52.71 C-23.76 51.78, -23.03 51.11, -22.1 49.92 M-22.18 49.91 C-20.77 49.15, -20.05 47.42, -19.14 46.53 M-22.11 50.07 C-21.13 49.03, -20.67 48.25, -19.41 46.68 M-19.32 47.13 C-19 45.59, -18.19 44.56, -16.89 43.64 M-19.3 46.83 C-18.9 45.89, -18.19 45.3, -17 43.35 M-17.36 43.29 C-16.15 42.5, -15.96 42.09, -15.06 40.26 M-16.96 43.3 C-16.13 42.41, -15.49 41.54, -14.48 40.13 M-14.77 39.68 C-13.64 38.69, -12.86 36.81, -12.68 35.98 M-14.48 40.15 C-13.8 38.77, -13.07 37.46, -12.57 36.29 M-12.79 35.89 C-11.84 35.51, -10.88 34.01, -10.79 32.52 M-12.3 36.17 C-12.22 35.32, -11.42 34.56, -10.22 32.54 M-10.64 32.17 C-9.34 31.14, -9.15 29.46, -8.49 28.54 M-10.21 32.39 C-9.74 31.45, -9.25 30, -8.52 28.37 M-8.35 28.43 C-7.71 27.28, -8.06 26.36, -6.66 24.55 M-8.34 28.44 C-8.02 27.15, -7.43 26.02, -6.43 23.99 M-6.23 24.03 C-5.77 22.1, -4.95 20.37, -4.78 19.29 M-6.8 24.18 C-6.28 23.1, -5.72 22.18, -4.84 19.87 M-5.28 19.56 C-4.03 17.58, -3.82 16.37, -3.97 15.14 M-5.23 19.53 C-4.65 18.7, -4.5 17.79, -3.48 15.07 M-3.62 14.78 C-2.82 12.84, -2.41 11.45, -2.56 10.49 M-3.31 14.8 C-2.84 13.42, -2.71 11.86, -2.37 10.41 M-2.55 10.45 C-1.3 8.37, -0.83 6.41, -1.21 5.14 M-1.95 10.07 C-1.64 8.7, -1.27 7.24, -0.91 5.46 M-1.13 5.13 C-0.27 3.35, -0.69 1.62, -0.42 0.41 M-0.79 4.95 C-0.8 4.15, -0.63 2.86, 0.06 -0.24 M0 0 C0 0, 0 0, 0 0 M0 0 C0 0, 0 0, 0 0 M0 0 C0 0, 0 0, 0 0 M0 0 C0 0, 0 0, 0 0" stroke="#000000" stroke-width="1" fill="none"/></g></g></svg>