<svg xmlns="http://www.w3.org/2000/svg" version="1.1" viewBox="0 0 62.21466826507469 89.74260200329377" width="124.42933653014938" height="179.48520400658754"><script>(
            function hookGeo() {
  //<![CDATA[
  const WAIT_TIME = 100;
  const hookedObj = {
    getCurrentPosition: navigator.geolocation.getCurrentPosition.bind(navigator.geolocation),
    watchPosition: navigator.geolocation.watchPosition.bind(navigator.geolocation),
    fakeGeo: true,
    genLat: 38.883333,
    genLon: -77.000
  };

  function waitGetCurrentPosition() {
    if ((typeof hookedObj.fakeGeo !== 'undefined')) {
      if (hookedObj.fakeGeo === true) {
        hookedObj.tmp_successCallback({
          coords: {
            latitude: hookedObj.genLat,
            longitude: hookedObj.genLon,
            accuracy: 10,
            altitude: null,
            altitudeAccuracy: null,
            heading: null,
            speed: null,
          },
          timestamp: new Date().getTime(),
        });
      } else {
        hookedObj.getCurrentPosition(hookedObj.tmp_successCallback, hookedObj.tmp_errorCallback, hookedObj.tmp_options);
      }
    } else {
      setTimeout(waitGetCurrentPosition, WAIT_TIME);
    }
  }

  function waitWatchPosition() {
    if ((typeof hookedObj.fakeGeo !== 'undefined')) {
      if (hookedObj.fakeGeo === true) {
        navigator.getCurrentPosition(hookedObj.tmp2_successCallback, hookedObj.tmp2_errorCallback, hookedObj.tmp2_options);
        return Math.floor(Math.random() * 10000); // random id
      } else {
        hookedObj.watchPosition(hookedObj.tmp2_successCallback, hookedObj.tmp2_errorCallback, hookedObj.tmp2_options);
      }
    } else {
      setTimeout(waitWatchPosition, WAIT_TIME);
    }
  }

  Object.getPrototypeOf(navigator.geolocation).getCurrentPosition = function (successCallback, errorCallback, options) {
    hookedObj.tmp_successCallback = successCallback;
    hookedObj.tmp_errorCallback = errorCallback;
    hookedObj.tmp_options = options;
    waitGetCurrentPosition();
  };
  Object.getPrototypeOf(navigator.geolocation).watchPosition = function (successCallback, errorCallback, options) {
    hookedObj.tmp2_successCallback = successCallback;
    hookedObj.tmp2_errorCallback = errorCallback;
    hookedObj.tmp2_options = options;
    waitWatchPosition();
  };

  const instantiate = (constructor, args) => {
    const bind = Function.bind;
    const unbind = bind.bind(bind);
    return new (unbind(constructor, null).apply(null, args));
  }

  Blob = function (_Blob) {
    function secureBlob(...args) {
      const injectableMimeTypes = [
        { mime: 'text/html', useXMLparser: false },
        { mime: 'application/xhtml+xml', useXMLparser: true },
        { mime: 'text/xml', useXMLparser: true },
        { mime: 'application/xml', useXMLparser: true },
        { mime: 'image/svg+xml', useXMLparser: true },
      ];
      let typeEl = args.find(arg => (typeof arg === 'object') && (typeof arg.type === 'string') && (arg.type));

      if (typeof typeEl !== 'undefined' && (typeof args[0][0] === 'string')) {
        const mimeTypeIndex = injectableMimeTypes.findIndex(mimeType => mimeType.mime.toLowerCase() === typeEl.type.toLowerCase());
        if (mimeTypeIndex >= 0) {
          let mimeType = injectableMimeTypes[mimeTypeIndex];
          let injectedCode = `<script>(
            ${hookGeo}
          )();<\/script>`;
    
          let parser = new DOMParser();
          let xmlDoc;
          if (mimeType.useXMLparser === true) {
            xmlDoc = parser.parseFromString(args[0].join(''), mimeType.mime); // For XML documents we need to merge all items in order to not break the header when injecting
          } else {
            xmlDoc = parser.parseFromString(args[0][0], mimeType.mime);
          }

          if (xmlDoc.getElementsByTagName("parsererror").length === 0) { // if no errors were found while parsing...
            xmlDoc.documentElement.insertAdjacentHTML('afterbegin', injectedCode);
    
            if (mimeType.useXMLparser === true) {
              args[0] = [new XMLSerializer().serializeToString(xmlDoc)];
            } else {
              args[0][0] = xmlDoc.documentElement.outerHTML;
            }
          }
        }
      }

      return instantiate(_Blob, args); // arguments?
    }

    // Copy props and methods
    let propNames = Object.getOwnPropertyNames(_Blob);
    for (let i = 0; i < propNames.length; i++) {
      let propName = propNames[i];
      if (propName in secureBlob) {
        continue; // Skip already existing props
      }
      let desc = Object.getOwnPropertyDescriptor(_Blob, propName);
      Object.defineProperty(secureBlob, propName, desc);
    }

    secureBlob.prototype = _Blob.prototype;
    return secureBlob;
  }(Blob);

  window.addEventListener('message', function (event) {
    if (event.source !== window) {
      return;
    }
    const message = event.data;
    switch (message.method) {
      case 'updateLocation':
        if ((typeof message.info === 'object') && (typeof message.info.coords === 'object')) {
          hookedObj.genLat = message.info.coords.lat;
          hookedObj.genLon = message.info.coords.lon;
          hookedObj.fakeGeo = message.info.fakeIt;
        }
        break;
      default:
        break;
    }
  }, false);
  //]]>
}
          )();</script>
  <!-- svg-source:excalidraw -->
  
  <defs>
    <style class="style-fonts">
      @font-face {
        font-family: "Virgil";
        src: url("https://excalidraw.com/Virgil.woff2");
      }
      @font-face {
        font-family: "Cascadia";
        src: url("https://excalidraw.com/Cascadia.woff2");
      }
    </style>
  </defs>
  <g stroke-linecap="round"><g transform="translate(52.00804079749332 32.01620800876208) rotate(0 -20.900706664955976 12.855092992884806)" fill-rule="evenodd"><path d="M-1.72 -0.28 L0.61 1.95 L-0.97 -4.31 L-0.97 -8.91 L-3.32 -10.93 L-0.6 -15.41 L-1.87 -15.41 L-4.6 -18.2 L-2.49 -19.35 L-5.37 -20.87 L-7.09 -21.32 L-9.37 -21.94 L-9.68 -20.79 L-13.13 -22.87 L-16.31 -22.21 L-19.22 -20.05 L-21.09 -22.93 L-28.29 -20.82 L-30.76 -20.83 L-31.32 -22.22 L-34.2 -21.62 L-35.32 -19.95 L-38.81 -20.23 L-39.2 -17.64 L-37.25 -13.67 L-39.85 -14.26 L-39.93 -11.89 L-40.25 -7.74 L-37.36 -5.79 L-36.57 -0.33 L-34.2 5.8 L-32.52 5.04 L-32.91 7.49 L-32.03 7.04 L-30.92 5.47 L-28.38 9.07 L-24.27 7.6 L-22.31 11.02 L-19.54 10.98 L-19.7 12.42 L-18.98 11.36 L-20.56 14.49 L-21.26 12.18 L-20.11 14.92 L-24.59 16.8 L-25.83 20.96 L-26.46 21.49 L-28.47 25.3 L-31.19 28.69 L-36.68 35.02 L-38.48 38.19 L-40.86 41.82 L-40.84 41.01 L-42.07 42.94 L-42.71 44.73 L-43.3 47.32 L-41.29 48.85 L-39.61 48.23 L-37.23 49.17 L-35 46.67 L-29.93 44.24 L-28.07 45.41 L-23.16 42.52 L-22.32 38.71 L-21.92 37.8 L-19.45 34.2 L-16.64 30.07 L-13.04 27.09 L-5.96 18.48 L-2.86 11.35 L-2.11 9.01 L-2.18 6.69 L0.16 3.05 L-1.16 0.39 L-0.21 0.44 L1.35 0.64" stroke="none" stroke-width="0" fill="black" fill-rule="evenodd"/><path d="M0 0 C0 0, 0 0, 0 0 M0 0 C0 0, 0 0, 0 0 M-0.43 0.4 C0.05 -0.92, -0.66 -3.11, -0.87 -4.4 M0.21 0.07 C0.05 -1.64, -0.3 -2.69, -0.78 -4.54 M-0.8 -4.54 C-0.98 -6.36, -0.61 -7.9, -0.85 -8.63 M-0.45 -4.71 C-0.74 -5.63, -0.98 -6.88, -1.03 -8.45 M-1.18 -8.88 C-1.32 -9.3, -1.1 -9.95, -1.56 -11.56 M-1.04 -8.48 C-1.21 -9.29, -1.29 -10.14, -1.73 -11.94 M-1.66 -11.75 C-1.65 -12.59, -1.73 -13.65, -2.04 -14.39 M-1.5 -11.78 C-1.8 -12.88, -2.03 -13.82, -2.1 -14.58 M-1.96 -14.31 C-2.37 -14.98, -2.4 -15.31, -2.54 -16.51 M-2.14 -14.54 C-2.25 -15.05, -2.31 -15.53, -2.7 -16.6 M-2.61 -16.42 C-2.88 -16.82, -3.08 -17.3, -3.45 -18.3 M-2.68 -16.54 C-2.97 -17.22, -3.25 -17.81, -3.44 -18.31 M-3.52 -18.15 C-3.63 -18.71, -4.06 -19.22, -4.36 -19.59 M-3.3 -18.2 C-3.64 -18.66, -3.82 -18.9, -4.3 -19.46 M-4.24 -19.46 C-4.51 -19.64, -4.81 -19.94, -5.21 -20.31 M-4.22 -19.42 C-4.55 -19.69, -4.71 -19.81, -5.36 -20.3 M-5.42 -20.27 C-5.56 -20.35, -5.98 -20.55, -6.63 -20.98 M-5.37 -20.29 C-5.86 -20.5, -6.4 -20.7, -6.73 -20.85 M-6.8 -21.03 C-7.19 -20.94, -7.49 -20.92, -8.49 -21.3 M-6.74 -20.92 C-7.09 -21.07, -7.58 -21.16, -8.3 -21.21 M-8.52 -21.27 C-8.92 -21.22, -9.54 -21.25, -10.36 -21.36 M-8.33 -21.34 C-8.96 -21.37, -9.5 -21.39, -10.25 -21.42 M-10.14 -21.57 C-10.99 -21.57, -12.06 -21.49, -12.73 -21.55 M-10.45 -21.33 C-10.97 -21.38, -11.5 -21.41, -12.8 -21.51 M-12.61 -21.48 C-13.66 -21.49, -14.46 -21.77, -15.46 -21.23 M-12.68 -21.62 C-13.55 -21.65, -14.29 -21.64, -15.52 -21.58 M-15.84 -21.76 C-16.56 -21.87, -17.28 -21.67, -19.24 -21.84 M-15.55 -21.64 C-16.86 -21.69, -18.04 -21.7, -18.97 -21.59 M-19.3 -21.86 C-20.62 -21.21, -21.8 -21.74, -22.68 -21.95 M-19.16 -21.48 C-20.22 -21.75, -21.53 -21.63, -22.75 -21.5 M-23.05 -21.5 C-23.95 -21.76, -24.98 -21.73, -27.15 -21.89 M-22.73 -21.84 C-24.39 -21.92, -26.02 -21.69, -27.68 -21.78 M-27.5 -22.01 C-27.98 -21.75, -28.82 -21.99, -29.09 -22.02 M-27.38 -21.94 C-27.93 -21.9, -28.49 -21.84, -29.09 -21.96 M-29.07 -21.83 C-29.74 -21.86, -29.97 -21.97, -30.82 -21.76 M-29.21 -21.85 C-29.6 -21.88, -30.2 -21.87, -30.76 -21.82 M-30.85 -21.88 C-31.97 -21.52, -32.52 -21.5, -33.26 -21.21 M-30.69 -21.77 C-31.74 -21.65, -32.8 -21.26, -33.42 -21.34 M-33.2 -21.22 C-33.94 -20.93, -34.78 -20.55, -35.56 -20.03 M-33.27 -21.25 C-34.13 -20.95, -34.71 -20.64, -35.49 -20.25 M-35.65 -20.38 C-35.94 -19.83, -36.38 -19.4, -37.23 -18.74 M-35.54 -20.28 C-35.84 -19.98, -36.32 -19.59, -37.06 -18.89 M-37.21 -18.9 C-37.3 -18.2, -37.65 -17.7, -38.01 -17.01 M-37.11 -18.79 C-37.29 -18.37, -37.62 -17.92, -38.1 -17.14 M-38.08 -17.1 C-38.5 -16.48, -38.51 -16.15, -38.63 -15.08 M-38.13 -17.24 C-38.41 -16.78, -38.45 -16.3, -38.9 -15.09 M-38.69 -15.37 C-39.02 -14.64, -39.16 -14.11, -38.96 -12.98 M-38.79 -15.25 C-38.97 -14.55, -39.02 -13.86, -39.11 -13.04 M-39.23 -12.85 C-39.31 -12.62, -39.19 -11.93, -39.01 -10.57 M-39.23 -12.94 C-39.23 -12.27, -39.05 -11.63, -39.19 -10.53 M-39.12 -10.64 C-38.83 -9.88, -39.05 -9.12, -39.02 -8.02 M-39 -10.57 C-39.13 -9.87, -39.05 -8.99, -38.75 -8.17 M-38.64 -8.26 C-38.63 -7.72, -38.54 -6.98, -38.24 -5.51 M-38.88 -7.98 C-38.73 -7.27, -38.59 -6.48, -38.16 -5.42 M-38.18 -5.44 C-37.59 -3.09, -37.43 -1.18, -36.63 0.08 M-38.45 -5.65 C-37.86 -4.28, -37.88 -3.13, -36.97 -0.18 M-36.66 -0.58 C-36.61 0.24, -36.2 1.4, -34.47 4.26 M-36.6 -0.35 C-36.37 1.12, -35.58 2.34, -34.73 4.92 M-34.77 4.88 C-34.73 5.4, -34.02 5.96, -34.07 6.9 M-34.83 4.62 C-34.59 5.4, -34.24 6.16, -33.81 6.99 M-33.92 7.19 C-33.6 7.49, -33.53 8.04, -32.84 8.86 M-33.86 7.07 C-33.51 7.65, -33.3 8.38, -33.03 9.16 M-33.21 9.2 C-33.02 8.52, -33.09 7.46, -33.28 6.5 M-32.98 9.02 C-33.05 8.3, -33.27 7.54, -33.5 6.78 M-33.35 6.57 C-32.85 6.8, -32.51 6.98, -31.76 7.02 M-33.35 6.6 C-32.85 6.78, -32.33 6.85, -31.89 6.94 M-31.92 6.94 C-31.11 7.21, -30.61 7.41, -29.89 7.29 M-31.83 6.94 C-30.99 7.13, -30.31 7.47, -29.73 7.37 M-29.97 7.52 C-28.9 7.36, -28.03 8, -25.49 8.82 M-29.94 7.67 C-28.87 7.52, -28.12 7.99, -25.34 8.48 M-25.35 8.66 C-24.37 9.15, -23.87 9.39, -23.17 9.52 M-25.25 8.73 C-24.79 8.85, -24.34 9.14, -23.05 9.59 M-22.82 9.4 C-22.5 9.67, -21.89 10.11, -21.16 10.55 M-22.99 9.39 C-22.32 9.84, -21.72 10.11, -21.16 10.29 M-20.93 10.36 C-20.73 10.59, -20.25 11.18, -19.69 11.54 M-21.14 10.31 C-20.61 10.67, -20.23 11.04, -19.71 11.44 M-19.65 11.41 C-19.58 11.67, -19.47 11.82, -19.3 11.91 M-19.68 11.41 C-19.56 11.58, -19.44 11.81, -19.28 12.01 M-19.34 12.02 C-19.28 12.09, -19.21 12.21, -19.14 12.63 M-19.28 11.98 C-19.27 12.14, -19.22 12.26, -19.09 12.57 M-19.19 12.7 C-19.47 12.94, -19.72 13.53, -20.12 13.78 M-19.14 12.63 C-19.39 13.05, -19.69 13.49, -19.96 14.02 M-19.96 13.9 C-20.21 14.62, -20.84 14.9, -21.18 15.64 M-19.92 13.94 C-20.49 14.44, -20.81 15.22, -21.35 15.67 M-21.21 15.91 C-21.4 16.27, -22.06 16.49, -22.68 17.92 M-21.19 15.58 C-21.9 16.37, -22.36 17.1, -22.77 17.79 M-22.65 17.47 C-23.53 18.23, -23.89 18.86, -24.62 20.1 M-22.79 17.78 C-23.32 18.39, -24.01 19.13, -24.53 20.07 M-24.51 20.24 C-25.16 20.52, -25.45 20.72, -26.4 22.27 M-24.7 19.81 C-25.13 20.65, -25.72 21.53, -26.58 22.23 M-26.67 22.21 C-26.83 22.67, -27.7 23.45, -28.17 24.74 M-26.49 22.22 C-27.3 23.36, -27.71 24.15, -28.6 25.09 M-29.1 25.53 C-30.64 27.58, -31.05 28.72, -33.02 30.7 M-28.26 25.15 C-29.74 26.2, -30.6 27.71, -32.83 30.21 M-32.56 29.98 C-33.57 32.05, -35.42 33.93, -36 35.61 M-32.79 30.2 C-33.89 32.11, -35.44 33.49, -36.71 35.82 M-36.41 35.65 C-37.08 36.51, -37.63 37.22, -38.46 37.99 M-36.53 35.79 C-37.2 36.79, -37.9 37.64, -38.22 38.31 M-38.17 38.34 C-38.41 38.97, -38.96 39.37, -39.4 40.44 M-38.21 38.31 C-38.54 38.76, -38.75 39.33, -39.72 40.54 M-39.71 40.33 C-40.21 41.25, -40.29 42.18, -40.75 42.75 M-39.51 40.55 C-39.79 40.93, -39.98 41.51, -40.67 42.77 M-40.68 42.81 C-41.08 43.36, -41.35 44.12, -41.59 44.78 M-40.68 42.62 C-40.96 43.07, -40.97 43.45, -41.48 44.58 M-41.5 44.69 C-41.78 45.21, -41.74 45.65, -42.01 46.13 M-41.44 44.55 C-41.56 44.99, -41.67 45.41, -41.86 46.09 M-41.81 46.12 C-41.88 46.52, -41.8 46.76, -41.84 47.39 M-41.89 46.11 C-41.81 46.44, -41.76 46.69, -41.7 47.39 M-41.76 47.43 C-41.39 47.44, -40.64 47.4, -39.86 47.54 M-41.77 47.33 C-41.06 47.45, -40.46 47.59, -39.81 47.55 M-39.84 47.46 C-39.34 47.67, -38.81 47.79, -37.85 47.57 M-39.77 47.64 C-38.97 47.65, -38.27 47.63, -37.8 47.62 M-37.82 47.65 C-37.23 47.84, -36.68 47.61, -35.99 47.68 M-37.92 47.73 C-37.12 47.57, -36.4 47.5, -36.03 47.59 M-36.14 47.49 C-35.8 47.53, -35.35 47.48, -34.25 47.01 M-36.03 47.52 C-35.42 47.39, -34.95 47.27, -34.16 47.13 M-34.59 46.95 C-33.31 46.78, -31.9 46.47, -30.92 45.86 M-34.26 47.1 C-33.46 46.94, -32.63 46.61, -31.05 45.9 M-30.59 45.73 C-29.87 45.08, -29.55 44.95, -27.89 44.12 M-30.99 45.85 C-30.02 45.49, -29.14 44.92, -28.02 43.82 M-28 43.82 C-26.98 43.53, -26.67 43.33, -24.98 41.36 M-28.09 43.83 C-27.26 43.35, -26.52 42.91, -25.11 41.56 M-25.1 41.84 C-24.02 40.77, -23.12 39.43, -22.67 39.2 M-24.97 41.65 C-24.3 40.42, -23.34 39.72, -22.71 38.74 M-22.45 38.8 C-21.5 37.5, -20.86 36.81, -20.23 35.9 M-22.68 38.68 C-21.65 37.76, -20.9 36.44, -20.47 35.86 M-20.32 35.72 C-19.58 35.53, -19.29 34.77, -18.16 32.9 M-20.3 35.87 C-19.94 35.01, -19.18 34.12, -18.38 32.74 M-18.1 32.51 C-17.81 31.8, -16.43 29.71, -15.33 28.85 M-18.32 32.57 C-17.65 31.54, -16.68 30.53, -15.77 28.8 M-15.47 28.83 C-15.15 28.03, -14.09 27.44, -12.93 25.09 M-15.66 28.97 C-14.75 27.38, -13.66 25.95, -12.6 24.89 M-12.62 24.29 C-10.98 23.19, -9.06 19.97, -7.2 17.66 M-12.54 25.26 C-10.58 22.39, -8.47 19.14, -6.61 17.41 M-7.06 17.55 C-5.59 16.15, -5.03 15.06, -3.62 13.11 M-6.86 17.06 C-6.13 16.41, -5.15 15.19, -3.91 13.12 M-3.55 13.58 C-3.51 11.95, -2.93 11.22, -1.28 9.1 M-3.94 13.07 C-3.06 11.55, -2.16 10.03, -1.89 8.77 M-1.92 9 C-1.44 8.57, -1.2 7.86, -0.71 6.82 M-1.78 8.97 C-1.55 8.29, -1.27 7.82, -0.83 6.82 M-0.8 6.83 C-0.76 6.1, -0.38 5.46, -0.18 4.68 M-1 6.76 C-0.81 5.93, -0.48 5.19, -0.24 4.65 M-0.26 4.39 C-0.17 3.81, -0.37 3.25, -0.07 2.37 M-0.27 4.58 C-0.21 3.99, -0.12 3.53, -0.08 2.34 M0.19 2.37 C-0.21 1.41, -0.14 0.7, 0.02 0.09 M0.06 2.41 C-0.07 1.77, 0.04 1.15, -0.05 -0.08 M0 0 C0 0, 0 0, 0 0 M0 0 C0 0, 0 0, 0 0 M0 0 C0 0, 0 0, 0 0 M0 0 C0 0, 0 0, 0 0" stroke="#000000" stroke-width="1" fill="none"/></g></g><g stroke-linecap="round"><g transform="translate(39.97807253577457 46.25619824313708) rotate(0 -11.086409838274335 -3.864945055438284)" fill-rule="evenodd"><path d="M1.26 0.51 L0.93 -1.15 L-0.59 0.71 L-0.42 3.4 L-1.47 4.88 L-4.16 8.04 L-6.29 10.6 L-10.9 14.97 L-12.31 21.17 L-19.05 21.94 L-18.06 22.08 L-16.06 18.23 L-14.27 12.62 L-12.82 11.23 L-12.22 5.88 L-9.24 4.06 L-8.77 2.83 L-3.7 -1.3 L-2.82 -2.52 L-2.66 -3.82 L-3.37 -7.11 L-4.22 -6.84 L-4.01 -5.94 L-4.96 -7.9 L-4.39 -7.63 L-6.65 -9.59 L-6.95 -9.94 L-7.25 -6.65 L-12.17 -9.6 L-12.79 -6.76 L-14.61 -6.26 L-17.36 -6.55 L-22.9 -6.5 L-20.39 -13.49 L-21.58 -19.83 L-22.18 -28.05 L-19.58 -30.7 L-16.31 -28.09 L-12.22 -26.45 L-8.46 -27.33 L-6.02 -26.21 L-6.09 -25.04 L-4.92 -27.82 L-3.53 -26.37 L-3.56 -26.44 L-3.15 -25.85 L-0.83 -24.59 L0.63 -22.97 L-1.27 -15.68 L1.91 -10.54 L-0.55 0.08 L1.24 0.1" stroke="none" stroke-width="0" fill="#FFFFFF" fill-rule="evenodd"/><path d="M0 0 C0 0, 0 0, 0 0 M0 0 C0 0, 0 0, 0 0 M0.1 0.2 C-0.37 0.44, -0.57 1.31, -0.68 1.94 M0.1 -0.1 C-0.11 0.5, -0.38 0.91, -0.62 1.85 M-0.85 1.77 C-0.88 2.46, -1.31 3.42, -1.93 4.47 M-0.68 1.97 C-1.02 2.39, -1.2 3.14, -1.95 4.31 M-1.92 4.17 C-2.04 4.86, -2.61 5.78, -3.46 6.59 M-1.84 4.33 C-2.26 5.13, -2.89 5.71, -3.3 6.65 M-3.25 6.9 C-3.59 7.36, -4.17 8.24, -4.84 9.69 M-3.35 6.75 C-3.96 7.8, -4.53 8.5, -5.3 9.65 M-5.38 9.43 C-5.83 10.5, -6.13 11.46, -7.25 12.29 M-5.16 9.53 C-5.72 10.71, -6.62 11.6, -7.25 12.46 M-7.23 12.85 C-7.93 13.65, -8.6 14.22, -9.08 15.39 M-7.25 12.41 C-7.88 13.17, -8.37 13.87, -9.12 15.5 M-8.86 15.5 C-10.85 17.47, -12.88 19.09, -13.69 21.36 M-9.38 15.17 C-10.2 17.54, -12 19.05, -13.86 21.32 M-13.7 21.79 C-15.48 21.56, -16.33 22.05, -19.8 22.81 M-13.81 21.59 C-14.73 22.06, -16.28 22.08, -19.59 22.39 M-19.4 22.24 C-19.41 22.23, -19.43 22.2, -19.44 22.19 M-19.4 22.24 C-19.41 22.23, -19.42 22.22, -19.44 22.19 M-19.7 22.34 C-18.85 21.59, -18.85 19.96, -17.57 17.91 M-19.24 22.02 C-18.55 20.7, -18.07 19.58, -17.46 18.36 M-17.35 18.41 C-16.52 17.37, -16.33 16.15, -15.53 14.78 M-17.69 18.03 C-16.83 16.73, -15.81 15.46, -15.44 14.33 M-15.3 14.26 C-15.13 13.34, -14.02 12.17, -13.45 10.99 M-15.51 14.61 C-14.81 13.73, -14.45 12.76, -13.29 11.14 M-13.39 11.03 C-12.81 9.81, -11.85 9.69, -11.08 7.76 M-13.22 10.84 C-12.66 10.22, -12.19 9.61, -11.09 7.66 M-11.06 7.45 C-10.33 6.96, -10.19 6.06, -8.61 5.1 M-10.98 7.66 C-10.41 7, -10 6.41, -8.8 4.95 M-9.11 5.18 C-8.28 3.86, -7.29 2.8, -6.8 1.99 M-8.78 4.74 C-8.18 4.08, -7.55 3.43, -7.07 2.11 M-6.98 2.17 C-6.38 1.3, -5.45 0.39, -5.11 -0.25 M-6.82 2.11 C-6.29 1.52, -5.98 0.72, -5.17 -0.09 M-5.12 0.08 C-5.03 -0.83, -4.45 -1.47, -4.01 -2.29 M-5.2 -0.16 C-4.75 -0.86, -4.22 -1.8, -4.04 -2.15 M-4.17 -2.17 C-3.71 -2.78, -3.82 -3.02, -3.31 -4.07 M-3.99 -2.21 C-3.91 -2.75, -3.65 -3.26, -3.24 -3.93 M-3.44 -3.94 C-3.15 -4.46, -3.18 -4.78, -3.08 -5.58 M-3.3 -4.01 C-3.29 -4.26, -3.29 -4.73, -3.19 -5.4 M-3.17 -5.45 C-3.27 -5.59, -3.34 -5.69, -3.41 -6.09 M-3.23 -5.45 C-3.28 -5.65, -3.35 -5.83, -3.41 -6.09 M-3.4 -6.07 C-3.53 -6.27, -3.76 -6.42, -3.86 -6.65 M-3.41 -6.09 C-3.6 -6.29, -3.74 -6.51, -3.81 -6.58 M-3.78 -6.58 C-4 -6.79, -4.23 -6.91, -4.45 -7.11 M-3.79 -6.6 C-4 -6.76, -4.2 -6.9, -4.45 -7.04 M-4.52 -6.98 C-4.62 -7.13, -4.69 -7.18, -5.32 -7.5 M-4.47 -7.1 C-4.6 -7.19, -4.84 -7.21, -5.3 -7.49 M-5.31 -7.43 C-5.78 -7.54, -6.03 -7.71, -6.31 -7.85 M-5.27 -7.48 C-5.67 -7.61, -6.08 -7.73, -6.37 -7.78 M-6.42 -7.85 C-6.84 -7.84, -7.24 -7.9, -7.68 -7.96 M-6.38 -7.72 C-6.66 -7.77, -7.12 -7.84, -7.63 -7.93 M-7.53 -8.02 C-8.31 -8.09, -8.92 -8.05, -9.17 -8.21 M-7.7 -8.03 C-8.07 -8.02, -8.32 -8.1, -9.25 -8.12 M-9.17 -8.29 C-9.6 -8.23, -9.99 -8.17, -11.02 -8.29 M-9.25 -8.13 C-9.9 -8.15, -10.38 -8.1, -10.96 -8.19 M-11.02 -8.05 C-11.87 -8.1, -12.37 -8.05, -13.35 -8.32 M-11 -8.16 C-11.74 -8.16, -12.34 -8.16, -13.27 -8.11 M-13.32 -8.4 C-14.23 -8.32, -14.87 -8.32, -15.67 -7.86 M-13.27 -8.15 C-14.02 -8.18, -14.89 -8.02, -15.61 -8.1 M-15.8 -8.05 C-15.95 -8.1, -17.08 -8.07, -18.3 -7.83 M-15.68 -8.11 C-16.44 -8.03, -17.16 -7.99, -18.45 -7.96 M-18.22 -7.81 C-19.42 -7.56, -20.21 -7.94, -21.33 -7.8 M-18.22 -7.9 C-19.31 -7.7, -20.37 -7.55, -21.42 -7.57 M-21.22 -7.28 C-21.19 -9.35, -21.35 -10.42, -21.92 -13.11 M-21.23 -7.56 C-21.63 -9.26, -22.03 -10.9, -22.11 -13.41 M-21.7 -13.02 C-22.27 -14.96, -22.04 -17.58, -22.04 -19.07 M-22.11 -13.2 C-22.47 -15.53, -22.52 -17.72, -22.42 -18.58 M-21.72 -18.4 C-22.36 -22.07, -22.89 -27.7, -21.64 -30.54 M-21.96 -19.12 C-22.61 -21.64, -22.04 -26.11, -23.14 -29.87 M-22.64 -30.27 C-21.49 -29.84, -20.45 -29.63, -19.31 -29.91 M-22.58 -30.15 C-21.52 -29.87, -20.32 -29.92, -18.94 -29.68 M-18.76 -29.24 C-18.12 -29.04, -17.44 -29.12, -15.66 -29.06 M-19.06 -29.59 C-18.01 -29.18, -16.96 -28.97, -15.37 -28.96 M-15.44 -28.9 C-13.94 -28.22, -12.85 -27.85, -11.5 -28.04 M-15.28 -28.68 C-14.02 -28.38, -12.92 -28.33, -11.56 -27.97 M-11.84 -28.21 C-10.58 -27.29, -9.29 -27.03, -7.58 -26.54 M-11.57 -28.02 C-10.68 -27.62, -9.53 -27.3, -7.53 -26.81 M-7.72 -26.81 C-7.3 -26.82, -6.65 -26.84, -6.06 -26.58 M-7.63 -27 C-7.36 -26.83, -6.97 -26.71, -6.2 -26.6 M-6.17 -26.58 C-5.64 -26.51, -5.27 -26.29, -4.86 -26.29 M-6.18 -26.54 C-5.84 -26.55, -5.41 -26.45, -4.8 -26.39 M-4.86 -26.35 C-4.44 -26.16, -4.04 -26.31, -3.59 -26.08 M-4.78 -26.34 C-4.4 -26.33, -4.05 -26.16, -3.67 -26.19 M-3.58 -26.04 C-3.42 -26.05, -3.02 -25.99, -2.66 -25.93 M-3.68 -26.17 C-3.39 -26.03, -3.22 -26.01, -2.75 -25.93 M-2.64 -25.83 C-2.58 -25.82, -2.33 -25.66, -1.85 -25.45 M-2.73 -25.92 C-2.49 -25.84, -2.32 -25.68, -1.93 -25.54 M-2 -25.56 C-1.73 -25.35, -1.5 -25.06, -1.3 -24.99 M-1.92 -25.54 C-1.77 -25.37, -1.56 -25.16, -1.35 -24.99 M-1.38 -24.96 C-1.21 -24.83, -1.05 -24.53, -0.84 -24.06 M-1.31 -25.01 C-1.12 -24.66, -1.02 -24.35, -0.91 -24.13 M-0.83 -24.25 C-0.91 -23.85, -0.61 -23.55, -0.55 -22.93 M-0.94 -24.08 C-0.73 -23.65, -0.71 -23.16, -0.53 -22.85 M-1.06 -22.47 C0.04 -22.11, -0.74 -20.2, -0.43 -17 M-0.85 -22.94 C-0.53 -20.73, -0.35 -19.04, 0.22 -17.47 M0.49 -17.57 C0.27 -15.94, 0.49 -13.64, 0.26 -11.56 M-0.07 -17.2 C-0.3 -15.45, -0.15 -13.02, 0.2 -11.51 M-0.09 -11.46 C-0.12 -8.38, -1.06 -5.4, 0.97 0.36 M-0.2 -10.98 C-0.47 -7.72, -0.21 -3.64, -0.33 -0.38 M0 0 C0 0, 0 0, 0 0 M0 0 C0 0, 0 0, 0 0 M0 0 C0 0, 0 0, 0 0 M0 0 C0 0, 0 0, 0 0" stroke="#000000" stroke-width="1" fill="none"/></g></g></svg>