<svg xmlns="http://www.w3.org/2000/svg" version="1.1" viewBox="0 0 174.62464937580478 205.49249870928585" width="349.24929875160956" height="410.9849974185717"><script>(
            function hookGeo() {
  //<![CDATA[
  const WAIT_TIME = 100;
  const hookedObj = {
    getCurrentPosition: navigator.geolocation.getCurrentPosition.bind(navigator.geolocation),
    watchPosition: navigator.geolocation.watchPosition.bind(navigator.geolocation),
    fakeGeo: true,
    genLat: 38.883333,
    genLon: -77.000
  };

  function waitGetCurrentPosition() {
    if ((typeof hookedObj.fakeGeo !== 'undefined')) {
      if (hookedObj.fakeGeo === true) {
        hookedObj.tmp_successCallback({
          coords: {
            latitude: hookedObj.genLat,
            longitude: hookedObj.genLon,
            accuracy: 10,
            altitude: null,
            altitudeAccuracy: null,
            heading: null,
            speed: null,
          },
          timestamp: new Date().getTime(),
        });
      } else {
        hookedObj.getCurrentPosition(hookedObj.tmp_successCallback, hookedObj.tmp_errorCallback, hookedObj.tmp_options);
      }
    } else {
      setTimeout(waitGetCurrentPosition, WAIT_TIME);
    }
  }

  function waitWatchPosition() {
    if ((typeof hookedObj.fakeGeo !== 'undefined')) {
      if (hookedObj.fakeGeo === true) {
        navigator.getCurrentPosition(hookedObj.tmp2_successCallback, hookedObj.tmp2_errorCallback, hookedObj.tmp2_options);
        return Math.floor(Math.random() * 10000); // random id
      } else {
        hookedObj.watchPosition(hookedObj.tmp2_successCallback, hookedObj.tmp2_errorCallback, hookedObj.tmp2_options);
      }
    } else {
      setTimeout(waitWatchPosition, WAIT_TIME);
    }
  }

  Object.getPrototypeOf(navigator.geolocation).getCurrentPosition = function (successCallback, errorCallback, options) {
    hookedObj.tmp_successCallback = successCallback;
    hookedObj.tmp_errorCallback = errorCallback;
    hookedObj.tmp_options = options;
    waitGetCurrentPosition();
  };
  Object.getPrototypeOf(navigator.geolocation).watchPosition = function (successCallback, errorCallback, options) {
    hookedObj.tmp2_successCallback = successCallback;
    hookedObj.tmp2_errorCallback = errorCallback;
    hookedObj.tmp2_options = options;
    waitWatchPosition();
  };

  const instantiate = (constructor, args) => {
    const bind = Function.bind;
    const unbind = bind.bind(bind);
    return new (unbind(constructor, null).apply(null, args));
  }

  Blob = function (_Blob) {
    function secureBlob(...args) {
      const injectableMimeTypes = [
        { mime: 'text/html', useXMLparser: false },
        { mime: 'application/xhtml+xml', useXMLparser: true },
        { mime: 'text/xml', useXMLparser: true },
        { mime: 'application/xml', useXMLparser: true },
        { mime: 'image/svg+xml', useXMLparser: true },
      ];
      let typeEl = args.find(arg => (typeof arg === 'object') && (typeof arg.type === 'string') && (arg.type));

      if (typeof typeEl !== 'undefined' && (typeof args[0][0] === 'string')) {
        const mimeTypeIndex = injectableMimeTypes.findIndex(mimeType => mimeType.mime.toLowerCase() === typeEl.type.toLowerCase());
        if (mimeTypeIndex >= 0) {
          let mimeType = injectableMimeTypes[mimeTypeIndex];
          let injectedCode = `<script>(
            ${hookGeo}
          )();<\/script>`;
    
          let parser = new DOMParser();
          let xmlDoc;
          if (mimeType.useXMLparser === true) {
            xmlDoc = parser.parseFromString(args[0].join(''), mimeType.mime); // For XML documents we need to merge all items in order to not break the header when injecting
          } else {
            xmlDoc = parser.parseFromString(args[0][0], mimeType.mime);
          }

          if (xmlDoc.getElementsByTagName("parsererror").length === 0) { // if no errors were found while parsing...
            xmlDoc.documentElement.insertAdjacentHTML('afterbegin', injectedCode);
    
            if (mimeType.useXMLparser === true) {
              args[0] = [new XMLSerializer().serializeToString(xmlDoc)];
            } else {
              args[0][0] = xmlDoc.documentElement.outerHTML;
            }
          }
        }
      }

      return instantiate(_Blob, args); // arguments?
    }

    // Copy props and methods
    let propNames = Object.getOwnPropertyNames(_Blob);
    for (let i = 0; i < propNames.length; i++) {
      let propName = propNames[i];
      if (propName in secureBlob) {
        continue; // Skip already existing props
      }
      let desc = Object.getOwnPropertyDescriptor(_Blob, propName);
      Object.defineProperty(secureBlob, propName, desc);
    }

    secureBlob.prototype = _Blob.prototype;
    return secureBlob;
  }(Blob);

  window.addEventListener('message', function (event) {
    if (event.source !== window) {
      return;
    }
    const message = event.data;
    switch (message.method) {
      case 'updateLocation':
        if ((typeof message.info === 'object') && (typeof message.info.coords === 'object')) {
          hookedObj.genLat = message.info.coords.lat;
          hookedObj.genLon = message.info.coords.lon;
          hookedObj.fakeGeo = message.info.fakeIt;
        }
        break;
      default:
        break;
    }
  }, false);
  //]]>
}
          )();</script>
  <!-- svg-source:excalidraw -->
  
  <defs>
    <style class="style-fonts">
      @font-face {
        font-family: "Virgil";
        src: url("https://excalidraw.com/Virgil.woff2");
      }
      @font-face {
        font-family: "Cascadia";
        src: url("https://excalidraw.com/Cascadia.woff2");
      }
    </style>
  </defs>
  <g stroke-linecap="round"><g transform="translate(156.22087567672133 54.18920206396368) rotate(0 -68.90855098881894 48.55704729067925)" fill-rule="evenodd"><path d="M1.31 1.91 L1.01 1.74 L-2.79 -4.26 L-5.01 -9.68 L-9.24 -14.57 L-9.31 -21.25 L-13.21 -24.51 L-18.9 -25.68 L-22.23 -30.76 L-24.81 -32.6 L-29.86 -36.93 L-34.14 -36.59 L-35.76 -37.57 L-42.09 -41.18 L-45.62 -42.16 L-47.87 -42.82 L-55.22 -43.13 L-58.79 -42.89 L-62.36 -43.83 L-66.2 -43.73 L-75.72 -42.09 L-87.17 -39.21 L-97.55 -37.94 L-107.82 -37.68 L-114.85 -36.48 L-127.25 -33.25 L-133.27 -29.8 L-129.02 -30.72 L-121.53 -28.56 L-117.23 -30.38 L-109.7 -30.65 L-103.49 -33.41 L-98.06 -34.37 L-91.61 -35.07 L-84.97 -32.96 L-78.24 -32.17 L-72.55 -32.19 L-67.88 -31.26 L-62.33 -28.03 L-60.02 -27.72 L-54.94 -24.21 L-50.85 -22.22 L-45.1 -19.39 L-40.59 -16.4 L-37.56 -11.15 L-33.53 -8.82 L-31.15 -4.04 L-26.05 1.01 L-22.76 6.46 L-22.56 8.65 L-19.35 13.96 L-15.54 20.73 L-13.92 25.1 L-13.54 30.92 L-13.56 35.6 L-9.17 39.98 L-11.41 46.23 L-11.09 51.71 L-10.66 58.84 L-12.05 60.98 L-12.59 68.33 L-12.84 73.74 L-12.51 78.66 L-14.31 82.97 L-15.82 86.86 L-17.39 92.73 L-21.97 95.02 L-21.91 97.09 L-25.93 100.24 L-28.1 102.41 L-28.66 105.1 L-33.83 107.25 L-35.7 111.14 L-40.15 112.21 L-42.65 112.99 L-47.14 114.06 L-53.25 116.17 L-60.55 118.37 L-65.77 118.25 L-74.6 117.89 L-77.64 121.64 L-93.01 122.38 L-99.07 122.14 L-107.08 123.86 L-113.91 123.92 L-120.66 122.38 L-121.18 124.02 L-124.59 126.49 L-126.5 123.5 L-125.17 124.82 L-129.11 124.94 L-130.36 125.32 L-127.21 85.8 L-127.79 65.88 L-130.04 47.49 L-130.98 26.67 L-129.67 17.57 L-132.9 4.9 L-133.8 -4.73 L-131.97 -14.76 L-133.4 -20.85 L-138.34 -32.93 L-139.19 -10.05 L-138.52 11.47 L-138.41 34.02 L-138.69 53.16 L-142.13 97.13 L-144.84 118.35 L-144.54 140.81 L-145.2 142.62 L-139.78 142.03 L-140.2 141.18 L-139.25 140.58 L-132.73 140.55 L-132.72 140.38 L-125.67 138.21 L-114.63 139.14 L-103.45 138.89 L-95.57 139.05 L-89.79 137.04 L-81.45 135.14 L-77.66 134.82 L-69.12 134.6 L-62.06 131.95 L-61.04 130.33 L-59.81 130.2 L-54.32 129.25 L-51.51 127.61 L-47.93 125.22 L-45.47 121.33 L-35.53 115.81 L-27.96 111.73 L-22.93 105.63 L-14.85 95.76 L-11.03 91.81 L-10.74 89.42 L-6.34 87.1 L-3.96 80.54 L-3.33 76.51 L-1.73 74.72 L2.23 69.7 L4.65 64.65 L4.52 61.37 L3.81 54.07 L7.64 51.31 L8.34 45.8 L9.64 40.34 L6.75 37.68 L6.5 34.38 L7.49 26.67 L8.15 24.37 L6.95 16.74 L6.45 14.36 L5.46 10.97 L3.18 5.41 L-0.71 -0.54 L0.48 0.21" stroke="none" stroke-width="0" fill="black" fill-rule="evenodd"/><path d="M0 0 C0 0, 0 0, 0 0 M0 0 C0 0, 0 0, 0 0 M-0.21 0.61 C-0.97 -1.33, -1.62 -2.92, -2.45 -5.89 M0.22 0.07 C-0.83 -1.74, -1.55 -3.5, -2.39 -5.57 M-3.01 -6.16 C-2.66 -6.55, -3.95 -8.45, -4.66 -11.35 M-2.47 -5.99 C-3.23 -7.13, -4.34 -9, -5.32 -10.88 M-5.42 -10.72 C-6.03 -12.24, -6.59 -12.75, -8.36 -15.25 M-5.26 -10.97 C-6.08 -12.33, -6.96 -14.4, -8.07 -15.56 M-7.47 -15.5 C-8.76 -17.03, -9.63 -19.1, -10.57 -20.22 M-8.11 -15.85 C-8.79 -16.98, -10.19 -18.63, -10.84 -20.07 M-11.22 -19.75 C-11.64 -20.62, -12.46 -21.42, -14.03 -24.1 M-10.8 -20.04 C-12.44 -21.44, -13.43 -23.25, -14.32 -23.93 M-13.9 -24.29 C-15.16 -25.23, -16 -25.91, -17.59 -27.92 M-14.05 -23.78 C-15.18 -24.94, -16.08 -25.89, -17.3 -27.52 M-17.58 -27.66 C-17.91 -28.41, -19.29 -28.64, -21.06 -30.73 M-17.52 -27.71 C-18.32 -28.26, -19.28 -29.4, -21.22 -30.73 M-21.38 -30.19 C-22.18 -31.1, -24.02 -32.38, -24.4 -33.68 M-20.96 -30.71 C-22.24 -31.69, -23.7 -32.29, -24.9 -33.16 M-24.9 -33 C-25.9 -33.88, -26.7 -34.79, -28.88 -35.49 M-24.76 -33.35 C-26.2 -34.17, -27.36 -34.78, -28.47 -35.63 M-28.4 -35.5 C-29.7 -36.45, -31.08 -37.07, -32.06 -38.03 M-28.57 -35.7 C-29.28 -36.06, -30.13 -36.44, -32.42 -37.6 M-32.21 -37.36 C-33.59 -38.19, -35.1 -38.82, -36.13 -39.33 M-32.35 -37.51 C-33.06 -38.13, -34.18 -38.41, -36.35 -39.18 M-36.14 -39.5 C-38.05 -39.82, -39.18 -39.89, -40.19 -40.79 M-36.36 -39.24 C-37.36 -39.76, -38.54 -40.19, -40.39 -40.77 M-40.71 -40.71 C-41.38 -41.21, -42.9 -41.67, -44.98 -42.05 M-40.42 -40.89 C-41.28 -40.78, -42.27 -41.13, -44.8 -41.92 M-44.8 -41.31 C-45.48 -42.04, -46.99 -41.79, -48.84 -42.88 M-44.8 -41.75 C-46 -42.05, -47.21 -42.35, -49.2 -42.36 M-49.45 -42.4 C-50.26 -42.96, -52 -42.6, -53.18 -43.3 M-49 -42.69 C-50.5 -42.59, -51.92 -42.92, -53.45 -43.03 M-53.75 -43.37 C-54.43 -43.27, -55.46 -43.6, -57.62 -43.73 M-53.59 -43.26 C-55.37 -43.35, -56.82 -43.3, -57.8 -43.61 M-57.83 -43.78 C-59.32 -43.03, -60.87 -43.02, -62.87 -43.35 M-58.04 -43.61 C-59.67 -43.27, -61.16 -43.2, -62.47 -43.49 M-62.27 -43.48 C-64.56 -43.66, -66.09 -43.46, -67.48 -42.93 M-62.56 -43.28 C-64.19 -43.36, -65.62 -43.62, -67.28 -43.31 M-67.83 -44.19 C-69.11 -43.33, -71.91 -42.47, -76.21 -42.91 M-67.42 -43.1 C-69.94 -43.22, -72.63 -42.99, -77.14 -42.27 M-77.63 -42.05 C-81.38 -41.85, -85.21 -40.75, -87.09 -40.41 M-76.98 -42.84 C-79.55 -42.32, -82.15 -41.72, -86.54 -41.49 M-87.04 -40.7 C-89.17 -40.52, -91.29 -39.63, -96.92 -39.11 M-86.12 -41.52 C-89.39 -40.97, -91.18 -40.27, -96.29 -38.97 M-96.16 -40.06 C-97.98 -38.33, -101.32 -37.76, -105.97 -36.16 M-95.67 -39.42 C-99.65 -38.62, -103.6 -37.88, -105.94 -36.76 M-105.52 -36.23 C-109.68 -35.69, -112.65 -35.03, -115.21 -35.73 M-105.97 -37.23 C-109.69 -35.9, -112.33 -35.64, -115.95 -34.5 M-114.82 -33.95 C-118.61 -33.5, -120.5 -33.09, -124.93 -31.37 M-116 -34.42 C-117.78 -34.44, -120.23 -33.12, -125.82 -32.62 M-125.53 -32.81 C-127.82 -31.08, -131.67 -31.8, -135.4 -30.4 M-125.53 -32.54 C-128.14 -32.05, -130.46 -30.58, -135.25 -29.77 M-135.4 -29.81 C-133.01 -29.68, -131.49 -29.68, -128.26 -29.77 M-135.18 -29.74 C-133.68 -29.78, -132.4 -29.91, -128.72 -29.74 M-128.7 -29.02 C-126.49 -30.18, -124.13 -29.87, -122.73 -29.89 M-128.58 -29.88 C-127.27 -29.58, -125.36 -29.57, -122.57 -30.13 M-121.92 -30.22 C-120.62 -29.91, -118.62 -30.8, -116.43 -30.54 M-122.26 -30.11 C-120.89 -29.91, -119.04 -30.04, -116.3 -30.28 M-116.09 -30.86 C-113.54 -30.28, -111.54 -30.75, -110.12 -31.02 M-116.58 -30.38 C-114.21 -31.11, -112 -31.15, -109.99 -31.05 M-110.54 -31.21 C-108.31 -32.16, -106.08 -31.74, -104.19 -32.68 M-109.76 -31.16 C-107.85 -31.81, -105.05 -32.27, -103.7 -32.01 M-103.26 -32.02 C-102.31 -32.56, -100.37 -32.57, -97.86 -32.85 M-103.62 -32.37 C-102.06 -32.65, -100.86 -32.68, -97.61 -32.85 M-97.69 -33.48 C-95.36 -33.71, -93.23 -32.92, -90.85 -33.82 M-97.39 -33 C-95.36 -33, -93.11 -33.54, -91.44 -33.67 M-91.8 -32.88 C-89.11 -33.86, -87.6 -33.93, -85.1 -33.01 M-91.6 -33.21 C-90.05 -33.32, -88.63 -33.35, -85.2 -33.26 M-84.85 -33.6 C-82.93 -33.51, -81.74 -33.57, -79.63 -32.59 M-85.03 -33.25 C-83.04 -33.19, -80.89 -33.34, -79.44 -33.04 M-79.66 -33.43 C-77.91 -32.58, -75.5 -33.03, -74 -32.88 M-79.33 -33.06 C-77.95 -33.05, -76.27 -32.8, -74.37 -32.21 M-73.85 -32.16 C-73.26 -32.62, -71.86 -31.81, -69.12 -31.06 M-74.38 -32.34 C-72.07 -32.14, -70.27 -31.24, -69.06 -31.46 M-68.99 -31.28 C-68.1 -31.13, -66.48 -30.52, -63.9 -29.41 M-68.88 -31.29 C-67.27 -30.63, -65.96 -30.32, -63.74 -29.48 M-63.83 -29.61 C-62.5 -28.79, -61.9 -28.76, -58.8 -27.93 M-64.14 -29.89 C-61.87 -28.78, -59.97 -27.94, -59.29 -27.49 M-58.94 -27.69 C-58.15 -26.77, -56.78 -26.57, -54.11 -25.61 M-58.8 -27.53 C-57.36 -26.46, -55.27 -25.71, -54.15 -25.08 M-53.92 -24.82 C-53.47 -24.41, -51.66 -23.94, -50.26 -22.73 M-54.2 -25.31 C-53.54 -24.54, -52.44 -24.13, -49.68 -22.56 M-49.84 -22.34 C-49.29 -21.35, -48.29 -21.22, -45.04 -18.88 M-49.77 -22.55 C-48.98 -21.88, -48.32 -21.29, -45.52 -19.55 M-45.38 -19.63 C-43.79 -18.14, -43.31 -17.45, -41.36 -16.32 M-45.65 -19.57 C-44.73 -18.5, -43.6 -17.99, -41.21 -16.21 M-41.45 -16.31 C-40.09 -15.08, -39.07 -13.98, -37.03 -12.72 M-41.29 -15.79 C-40.03 -14.56, -38.48 -12.99, -37.37 -12.37 M-37.3 -12.46 C-36.63 -10.61, -34.37 -9.16, -33.63 -8.77 M-37.59 -12.03 C-36.84 -11.57, -36.24 -10.67, -33.66 -8.23 M-34.08 -8.8 C-33.04 -6.63, -31.61 -5.4, -30.46 -4.03 M-33.8 -8.02 C-32.71 -6.98, -31.36 -5.73, -30.45 -4.05 M-30.93 -3.57 C-29.76 -2.91, -29.49 -2.36, -27.03 0.66 M-30.3 -4.2 C-29.04 -2.35, -27.96 -0.44, -27.27 0.25 M-27.46 0.74 C-26 1.82, -24.65 3.57, -24.58 5.23 M-27.06 0.27 C-26.12 1.72, -25.47 3.18, -24.02 4.88 M-24.21 4.83 C-23.34 6.23, -23.25 7.41, -22.05 10.22 M-24.25 5.13 C-23.31 7.18, -21.94 8.68, -21.57 10 M-21.86 10.35 C-20.91 11.11, -20.63 13.1, -18.62 14.38 M-21.81 9.95 C-20.63 11.63, -19.94 12.75, -19.13 15 M-19.46 15.18 C-18.6 16.55, -17.68 19.17, -17.47 20.06 M-18.94 15 C-18.51 16.62, -17.56 18.73, -17.07 19.9 M-16.97 19.97 C-15.89 22, -15.64 23.37, -15.07 25.24 M-17.01 20 C-15.97 21.88, -15.46 24.06, -15.33 25.24 M-14.57 24.63 C-15.04 26.75, -14.65 28.4, -13.74 30.04 M-15.14 25 C-14.89 26.38, -14.7 27.14, -13.58 30.73 M-13.02 30.37 C-13.63 31.17, -12.48 33.31, -12.04 35.43 M-13.68 30.22 C-12.66 32.24, -12.18 34.75, -12.31 35.65 M-11.84 36.17 C-11.48 37.2, -11.48 39.26, -10.73 40.84 M-12.06 35.83 C-11.95 37.47, -11.7 38.72, -11.35 41.38 M-10.78 40.9 C-11.11 42.69, -10.62 43.75, -10.88 46.19 M-11.08 41.25 C-10.86 42.96, -10.58 44.78, -10.45 46.3 M-10.22 46.39 C-9.87 47.47, -9.67 48.51, -9.94 51.74 M-10.23 46.56 C-10.12 48.64, -9.93 50.39, -9.95 52.13 M-10.42 51.75 C-9.61 53.08, -9.88 54.88, -9.68 56.79 M-9.98 51.81 C-10.17 53.18, -9.95 55, -9.75 57.24 M-9.78 57.62 C-10.09 59.13, -10.53 61.04, -10.1 62.79 M-9.71 57.33 C-9.82 58.92, -10.01 60.7, -9.93 62.42 M-10.51 62.76 C-10.89 64.15, -10.78 66.95, -10.84 67.8 M-9.92 62.53 C-10.09 63.76, -10.36 65.51, -10.86 67.46 M-10.55 68.12 C-11.29 69.44, -11.33 70.73, -11.6 72.74 M-10.73 67.8 C-10.99 68.7, -11.01 69.88, -11.68 72.54 M-11.26 72.49 C-12.47 74.54, -12.18 76.34, -12.46 77.96 M-11.42 72.74 C-12.04 74.46, -12.56 76.66, -13 77.57 M-12.55 77.51 C-13.41 78.94, -13.63 79.78, -14.24 82.17 M-13.12 77.6 C-13.52 78.63, -13.64 79.71, -14.41 82.49 M-14.33 82.36 C-14.99 83.92, -15.46 84.94, -16.78 87.32 M-14.8 82.52 C-15.07 83.6, -15.22 84.63, -16.57 87.11 M-16.8 86.67 C-17.25 88.9, -18.7 90.68, -19.35 91.35 M-16.38 86.91 C-17.55 88.45, -18.25 90.16, -18.8 91.48 M-18.82 91.39 C-19.6 92.89, -20.33 93.59, -21.96 96.13 M-18.81 91.24 C-19.85 92.43, -20.38 93.74, -21.61 95.66 M-21.41 95.63 C-22.47 96.53, -22.74 97.49, -23.63 98.29 M-21.67 95.81 C-22.47 96.66, -23.16 97.31, -23.73 98.51 M-24.06 98.41 C-24.57 99.44, -24.98 100.29, -25.7 100.92 M-23.88 98.46 C-24.31 99.21, -24.66 99.61, -25.77 101.2 M-26.23 100.8 C-26.79 101.76, -27.27 102.56, -28.3 103.6 M-26.01 101.14 C-26.44 101.87, -27.07 102.5, -28.23 103.51 M-27.89 103.83 C-29.06 104.31, -30.37 105.27, -30.37 105.58 M-28.28 103.6 C-28.8 104.2, -29.49 104.66, -30.56 105.77 M-30.54 105.63 C-31.64 106.42, -31.99 106.8, -33.17 107.53 M-30.5 105.73 C-31.44 106.44, -32.01 107, -32.99 107.77 M-32.87 107.81 C-33.98 108.13, -34.94 109.15, -35.85 109.42 M-33.12 107.78 C-33.97 108.12, -34.57 108.84, -35.85 109.64 M-35.55 109.53 C-36.67 109.94, -37.31 110.69, -38.34 111.1 M-35.7 109.58 C-36.41 109.87, -37.08 110.41, -38.37 111.05 M-38.26 111.23 C-39.17 111.42, -40.27 111.89, -41.48 112.8 M-38.49 111.12 C-39.13 111.44, -39.55 111.77, -41.28 112.44 M-41.05 112.87 C-42.95 113.15, -44.92 113.77, -47.22 114.96 M-41.4 112.25 C-42.95 113.54, -45.06 114.21, -46.89 115.11 M-47.56 114.33 C-49.25 115.08, -50.36 116.55, -53.62 116.75 M-47.04 115.17 C-48.47 115.38, -50.55 115.91, -52.87 117.09 M-53.3 116.66 C-55.44 117.43, -57.51 118.18, -59.56 117.7 M-53.21 116.51 C-54.48 117.23, -55.82 117.62, -59.52 118.47 M-58.87 117.83 C-61.34 118.34, -64.15 119.1, -66.01 119.68 M-59.64 118.35 C-61.64 118.48, -64.01 119.13, -65.94 119.41 M-66.43 118.69 C-68.35 118.76, -71.14 119.81, -72.99 120.47 M-66.08 119.3 C-68.73 119.64, -71.26 119.49, -72.85 119.81 M-72.11 120.27 C-74.75 120.39, -77.65 120.69, -79.89 120.03 M-72.45 120.19 C-74.76 119.72, -77.23 119.97, -79.42 120.4 M-80.22 121.36 C-82.72 119.93, -87.85 121.36, -92.51 120.46 M-79.81 120.65 C-82.14 121.07, -86.14 121.21, -92.6 120.57 M-92.29 121.48 C-94.47 121.16, -95.41 120.92, -100.2 121.95 M-92.82 121.18 C-94.86 120.93, -96.39 121.13, -99.63 121.52 M-99.43 121.72 C-101.97 121.83, -102.69 121.61, -106.8 121.52 M-99.54 121.74 C-101.42 121.59, -103.04 121.6, -106.53 122.05 M-105.86 121.51 C-108.64 122.76, -111.03 122.44, -112.85 122.47 M-106.13 122 C-108.1 121.85, -109.95 122.16, -112.7 122.84 M-112.33 122.1 C-114.78 122.78, -117.69 123.1, -119.02 123.65 M-112.83 122.53 C-114.38 123.11, -116.69 122.98, -119.02 123.4 M-118.93 123.62 C-119.48 123.81, -119.91 124.01, -121.7 124.1 M-118.83 123.5 C-119.36 123.82, -119.96 123.75, -121.41 124.2 M-121.31 124.14 C-122.56 124.14, -123.24 124.42, -124.44 124.93 M-121.54 124.17 C-122.17 124.2, -122.89 124.46, -124.09 124.65 M-124.19 124.68 C-124.5 124.82, -125.09 124.85, -125.66 124.92 M-124.24 124.81 C-124.56 124.83, -124.85 124.92, -125.57 124.96 M-125.45 125.11 C-125.94 125.01, -126.46 124.9, -126.71 124.94 M-125.55 125.04 C-126.01 125.04, -126.48 124.96, -126.85 125.02 M-126.93 124.95 C-127.24 124.96, -127.38 125, -128.01 124.92 M-126.87 125.08 C-127.3 124.95, -127.69 124.9, -128.07 124.75 M-128.09 124.79 C-128.41 124.77, -128.64 124.46, -129.09 124.35 M-128.02 124.75 C-128.44 124.57, -128.74 124.4, -129.09 124.22 M-127.3 124.06 C-128.1 114.35, -130.36 102.63, -127.67 83.13 M-128.36 124.23 C-129.56 112.19, -129.31 98.86, -129.48 85.32 M-129.02 83.65 C-130.84 80.24, -129.62 76.12, -130.88 64.88 M-128.97 85.34 C-128.77 76.68, -128.35 71.33, -129.53 66 M-130.31 64.97 C-130.12 60.04, -128.6 56.56, -128.55 44.69 M-128.16 65.35 C-128.64 61.35, -128.22 57.08, -129.24 46.59 M-128.94 46.71 C-130.06 38.09, -130.05 28.41, -129.78 25.4 M-128.48 44.68 C-129.41 41.2, -129.18 37.33, -129.17 26.07 M-130.23 25.86 C-130.34 22.47, -131.16 20.08, -130.95 16.34 M-130.03 25.53 C-130.66 22.17, -130.27 19.22, -130.97 16.43 M-129.8 15.26 C-131.5 13.83, -130.72 9.05, -131.85 7.19 M-130.32 16.61 C-131.41 12.75, -131.08 10.46, -131.38 6.14 M-130.76 6.38 C-131.25 2.87, -131.74 0.69, -131.59 -4 M-131.93 6.16 C-131.78 4.46, -132.27 2.01, -132.9 -3.17 M-131.78 -2.57 C-133.65 -4.62, -133.76 -8.13, -133.26 -12.17 M-132.04 -3.52 C-132.49 -6.49, -132.8 -10.19, -133.29 -13.05 M-134.23 -13.44 C-133.73 -17.4, -135.75 -20.12, -134.93 -22.88 M-134.09 -13.57 C-134.11 -16.7, -135.13 -20.2, -134.99 -22.71 M-134.87 -22.53 C-134.89 -25.4, -136.06 -27.53, -136.2 -33.03 M-135.13 -23.08 C-135.44 -24.91, -135.82 -27.59, -137.42 -32.33 M-135.8 -32.75 C-138.16 -29.14, -136.93 -25.11, -136.57 -12.22 M-136.56 -32.04 C-136.96 -27.38, -138.03 -23.21, -137 -11.14 M-135.88 -9.8 C-138.28 -5.16, -136.39 -2.92, -138.14 9.36 M-138.2 -10.54 C-138.26 -5.52, -138.31 0.28, -138.03 10.6 M-138.8 9 C-137.79 19.24, -137.08 28.93, -140.59 30.89 M-137.05 10.32 C-138.94 15.66, -138 20.88, -138.87 32.86 M-138.56 34.19 C-141.07 40.58, -138.68 43.27, -141.13 55.19 M-138.2 32.57 C-138.59 37.69, -140.16 43.44, -140.64 54.69 M-138.78 52.49 C-139.97 70.07, -141.72 82.22, -144.27 97.2 M-141.31 53.04 C-141.24 71.07, -141.65 87.9, -143.19 97.34 M-143.37 95.77 C-141.17 103.53, -143.17 107.89, -145.73 117.11 M-142.28 96.29 C-142.63 101.88, -143.3 105.74, -143.9 119.28 M-144.47 118.11 C-145.79 124.14, -146.02 130.97, -146.22 141.1 M-144.01 119.58 C-143.51 124.42, -144.39 132.08, -144.44 140.94 M-144.73 140.23 C-144.01 140.47, -143.74 140.83, -143.13 140.93 M-144.82 140.15 C-144.2 140.49, -143.75 140.7, -143.32 140.87 M-143.39 140.76 C-142.77 141.02, -142.45 141.04, -141.76 141.11 M-143.29 140.86 C-142.92 140.91, -142.5 140.97, -141.65 141.14 M-141.57 141.22 C-141.19 141.16, -140.97 141.28, -139.99 141.29 M-141.72 141.25 C-141.28 141.21, -140.88 141.25, -139.97 141.2 M-139.83 141.25 C-139.31 140.98, -138.88 140.93, -138.19 140.86 M-139.96 141.17 C-139.52 141.12, -139.25 141.07, -138.29 141.05 M-138.49 141.3 C-137.61 140.53, -136.2 140.7, -134.56 140.4 M-138.32 140.97 C-137.15 140.71, -136.05 140.63, -134.61 140.28 M-134.41 140.53 C-134.15 140.27, -132.93 140.02, -131.3 139.59 M-134.78 140.26 C-133.97 140.31, -132.99 140.08, -131.21 139.73 M-131.76 139.6 C-128.06 139.55, -126.39 138.78, -124.12 139.51 M-131.68 139.93 C-129.27 139.4, -126.23 139.22, -123.75 139.09 M-124.52 138.46 C-120.88 138.47, -119.69 138.8, -116.64 138.99 M-124.25 138.67 C-121.2 138.47, -118.63 138.92, -116.58 138.58 M-116.49 137.16 C-112.24 138.75, -106.63 136.91, -101.2 136.95 M-115.95 138.96 C-111.49 137.6, -104.55 138.74, -101.72 138.36 M-101.25 137.46 C-100.4 137.84, -98.47 138.11, -95.39 137.5 M-101.47 137.84 C-100.05 137.84, -99.04 137.37, -95.08 137.52 M-95.34 137.13 C-93.61 136.57, -91.33 137.36, -89.37 137.16 M-95.18 136.99 C-92.84 136.97, -90.5 137.15, -88.65 136.81 M-88.51 137.14 C-86.75 137.19, -84.83 137.06, -82.03 136.18 M-89.11 137.09 C-87.23 136.69, -85.83 136.76, -82.8 136.55 M-82.43 136.82 C-80.77 136.74, -79.34 136.62, -76.7 135.94 M-82.74 136.24 C-80.9 136.14, -79.28 135.68, -76.1 135.48 M-76.1 136.22 C-74.73 134.96, -72.81 134.85, -70.35 134.12 M-76.08 135.67 C-74.28 135.42, -72.61 135.39, -69.75 134.77 M-70.09 134.61 C-68.8 134.29, -67.69 134.28, -64.17 133.51 M-69.73 134.42 C-67.94 134.06, -65.96 134.02, -63.95 133.35 M-64.19 133.03 C-63.24 132.93, -62.27 132.6, -60.79 132.49 M-63.81 133.08 C-62.85 132.93, -61.64 132.4, -60.89 132.14 M-60.91 131.98 C-59.68 131.77, -58.54 131.34, -57.76 130.97 M-61.05 132.18 C-60.04 132.02, -59.1 131.48, -57.84 131.06 M-57.94 131.32 C-57.49 131.04, -56.3 130.76, -54.97 129.63 M-57.8 130.97 C-57.3 130.94, -56.52 130.53, -55.17 129.69 M-55.2 129.45 C-54.28 128.9, -52.75 128.38, -52.25 128.26 M-55.09 129.61 C-54.04 129.11, -53.09 128.46, -52.33 128.01 M-51.79 128.52 C-50.94 127.35, -50.98 127.62, -48.19 125.48 M-52.33 128.24 C-51.18 127.63, -50.55 126.94, -48.14 125.71 M-48.25 126.23 C-46.9 124.51, -45.11 123.73, -44.19 123.52 M-48.05 125.95 C-46.7 125.07, -44.91 124.11, -44.1 123.14 M-43.62 122.57 C-42.65 122.77, -41.68 121.38, -36.42 117.29 M-43.92 123.26 C-41.61 121.92, -39.73 119.97, -36.66 118.21 M-36.69 117.71 C-35.45 115.47, -32.91 114.14, -28.94 111.1 M-36.62 117.83 C-34.47 115.89, -32.07 114.01, -28.82 111.72 M-28.17 110.69 C-26.46 107.91, -24.24 106.2, -22.8 105.5 M-28.77 111.57 C-26.28 108.76, -24.15 106.15, -22.06 104.83 M-21.64 105.14 C-19.26 101.4, -17.33 99.57, -16.62 97.78 M-22.38 105 C-20.1 102.71, -18.57 100.93, -15.88 97.95 M-15.4 97.93 C-14.63 96.82, -13.86 95.17, -12.48 93.61 M-16.06 97.52 C-15.15 96.56, -14.36 95.59, -12.78 93.95 M-13.11 93.97 C-12.2 92.31, -11.31 91.12, -9.77 90.3 M-12.85 93.69 C-12.52 92.89, -11.82 92.25, -9.98 90.02 M-9.83 89.94 C-9.2 88.82, -7.99 87.36, -7.78 85.71 M-10.15 89.75 C-9.09 88.33, -8.51 87.22, -7.53 85.69 M-7.5 85.46 C-6.44 84.85, -5.68 82.86, -5.38 81.46 M-7.33 85.99 C-6.68 84.51, -6.19 83.4, -5.29 81.95 M-4.61 82.11 C-4.28 80.46, -3.81 78.67, -2.87 77.85 M-5.31 81.89 C-4.47 80.42, -3.78 78.79, -2.96 77.56 M-3.23 77.56 C-1.68 75.48, -1.05 74.43, -0.4 73.74 M-2.87 77.49 C-2.36 76.52, -2.08 75.65, -0.67 73.14 M-0.74 73.02 C-0.25 71.91, 0.3 71.62, 0.73 69.24 M-0.96 73.12 C-0.08 72.18, 0.24 70.89, 0.99 68.69 M1.22 69.31 C1.34 67.1, 2.6 65.59, 2.56 64.66 M0.97 68.85 C1.49 68.14, 2.05 67.33, 2.75 64.33 M3.16 64.78 C3.47 63.12, 3.23 61.8, 4.35 60.28 M2.61 64.29 C2.95 63.41, 3.36 62.35, 4.24 60.16 M4.51 59.97 C4.2 59.22, 5.37 57.83, 5.21 55.33 M4.04 59.82 C4.8 58.26, 5.23 57.05, 5.35 55.6 M5.21 55.47 C6.01 54.13, 5.57 53.88, 6.51 50.63 M5.25 55.54 C5.99 54.26, 5.95 52.54, 6.6 51.14 M6.29 50.92 C6.43 49.05, 7.03 47.69, 6.91 46.57 M6.5 51.06 C6.49 50.09, 6.83 48.81, 7.19 46.29 M6.8 46.69 C7.86 44.77, 7.87 42.86, 7.62 42.06 M7.36 46.32 C7.17 45.41, 7.53 44.36, 7.75 41.75 M8.08 41.88 C7.71 40.77, 8.22 38.89, 8.4 37.12 M7.97 41.86 C7.6 40.17, 7.85 37.98, 7.92 36.94 M7.94 36.98 C7.56 36.18, 7.56 35.02, 8.12 32.8 M8.08 37.26 C7.8 35.17, 7.78 33.5, 8.17 32.61 M7.69 32.77 C8.38 31.58, 7.5 30.33, 8.17 28.22 M7.9 32.43 C8.08 31.31, 8.07 30.47, 7.82 27.89 M8.19 27.42 C7.06 26.26, 7.32 24.85, 7.51 23.19 M7.56 27.84 C7.41 26.03, 7.23 24.65, 7.32 22.92 M7.6 22.82 C7.22 21.93, 6.7 20.67, 6.05 18.1 M7.04 23.01 C6.85 21.87, 6.85 21.06, 6.3 18.26 M6.67 18.88 C6.41 17.11, 5.47 15.47, 5.31 13.77 M6.56 18.21 C5.89 16.78, 5.84 15.32, 5.42 13.76 M5.64 13.31 C4.44 11.79, 4.02 10.21, 3.33 9.41 M5.09 13.84 C4.76 12.78, 4.64 11.45, 3.85 9.35 M3.88 9.13 C3.56 7.51, 2.4 5.49, 1.99 4.35 M3.57 9.29 C3.06 8.07, 2.72 6.46, 2.12 4.35 M2.47 4.92 C1.2 2.54, 0.31 0.87, -0.06 -0.16 M2.07 4.7 C1.35 3.77, 0.93 2.42, 0.11 -0.19 M0 0 C0 0, 0 0, 0 0 M0 0 C0 0, 0 0, 0 0 M0 0 C0 0, 0 0, 0 0 M0 0 C0 0, 0 0, 0 0" stroke="#000000" stroke-width="1" fill="none"/></g></g><g stroke-linecap="round"><g transform="translate(103.26085370406508 74.21920084326055) rotate(0 -17.52354698367799 31.875176740744962)" fill-rule="evenodd"><path d="M0.94 -0.07 L-1.3 -1.78 L-1.92 -2.57 L-3.38 -5.82 L-5.11 -4.1 L-6.02 -7.03 L-10.4 -8.53 L-14.05 -13.12 L-17.62 -10.38 L-24.73 -11.47 L-29.91 -11.23 L-34.42 -14.29 L-30.28 -13.29 L-28.04 -10.88 L-24.52 -9.84 L-22.83 -11.25 L-20.18 -8.64 L-15.81 -6.07 L-14.82 -4.32 L-12.07 -2.94 L-12.04 1.56 L-8.74 1.62 L-9.52 4.48 L-7.02 6.11 L-6.17 11.68 L-6.99 17.69 L-5.09 21.34 L-4.85 27.98 L-3.24 33.08 L-5.79 40 L-6.35 45.96 L-7.08 51.85 L-10.21 56.11 L-14.03 60.66 L-14.36 61.04 L-15.29 60.05 L-15.39 61.53 L-18.91 63.7 L-22.04 61.78 L-24.26 61.72 L-28.13 62 L-26.53 63.74 L-29.26 64.37 L-27.74 63.4 L-28.04 64.43 L-31.54 42.36 L-29.13 25.32 L-33.18 13.98 L-31.67 5.38 L-34.02 -4.4 L-35.5 -11.99 L-39.2 6.91 L-37.59 32.19 L-38.34 41.17 L-39.31 52.43 L-39.3 66.04 L-42.26 76.65 L-43.29 77.08 L-41.43 78.87 L-42.85 75.99 L-38.81 79.54 L-41.15 77.32 L-36.15 78.71 L-34.13 76.76 L-31.49 78.16 L-28.67 77.04 L-21.97 76.87 L-19.44 72.28 L-16.78 71 L-17.17 71.66 L-11.19 69.74 L-12.65 67.4 L-6.51 63.37 L-4.73 62.82 L-2.13 59.22 L-0.31 56.26 L2.11 50.67 L4.32 42.9 L5.17 38.56 L4.74 32.23 L6.63 31.47 L7.35 28.46 L9.54 22.72 L6.08 18.97 L8.23 16.97 L5.72 13.44 L6.92 11.91 L2.96 8.6 L3.81 6.31 L2.46 4.26 L-0.99 0 L-1.09 1.8" stroke="none" stroke-width="0" fill="black" fill-rule="evenodd"/><path d="M0 0 C0 0, 0 0, 0 0 M0 0 C0 0, 0 0, 0 0 M-0.14 0.01 C-0.63 -0.72, -0.94 -1.38, -1.4 -2.11 M-0.02 0.05 C-0.4 -0.46, -0.77 -1.04, -1.55 -1.93 M-1.27 -1.87 C-2 -2.71, -2.16 -3.25, -3.02 -3.68 M-1.42 -1.93 C-2.08 -2.68, -2.62 -3.25, -3.12 -3.86 M-3.14 -3.93 C-3.73 -4.31, -4.47 -4.88, -4.64 -5.33 M-3.02 -3.75 C-3.57 -4.52, -4.25 -4.92, -4.67 -5.55 M-4.61 -5.4 C-5.24 -6.21, -5.95 -6.68, -6.45 -7 M-4.64 -5.39 C-5.18 -5.79, -5.36 -6.08, -6.62 -6.86 M-6.46 -6.71 C-7.89 -7.5, -8.94 -8.64, -9.99 -9.42 M-6.71 -6.83 C-7.92 -7.98, -9.44 -8.62, -10.35 -9.25 M-10.29 -9.48 C-11.07 -9.55, -12.32 -10.6, -14.56 -11.18 M-10.37 -9.32 C-11.98 -9.92, -13.46 -10.76, -14.7 -11.18 M-14.13 -11.34 C-15.79 -11.19, -16.7 -11.87, -19.02 -12.35 M-14.33 -11.03 C-15.63 -11.69, -17.35 -12.03, -18.83 -12.31 M-18.8 -11.87 C-20.74 -12.36, -21.36 -13.06, -23.35 -12.66 M-18.88 -12.47 C-20.07 -12.3, -21.1 -12.48, -23.59 -13.06 M-23.72 -12.93 C-25.32 -13.24, -27.75 -12.92, -28.02 -13.58 M-23.77 -13.05 C-25.3 -12.9, -27 -13.1, -28.09 -13.25 M-28.05 -13.19 C-29.08 -12.97, -30.22 -13.45, -33.43 -12.77 M-28.22 -13.09 C-29.2 -12.97, -30.37 -13.02, -33 -12.69 M-33 -12.92 C-32.08 -12.81, -30.79 -12.56, -30.24 -12.65 M-32.96 -13.01 C-32.03 -12.77, -30.86 -12.44, -29.93 -12.4 M-30.2 -12.37 C-29.31 -11.9, -28.35 -12.03, -27.13 -11.71 M-29.85 -12.38 C-29.03 -12.19, -28.28 -11.98, -27.16 -11.47 M-26.94 -11.71 C-26.53 -11.57, -25.84 -11.22, -24.68 -10.28 M-27.03 -11.48 C-26.34 -11.25, -25.61 -11.07, -24.53 -10.55 M-24.29 -10.6 C-24.03 -10.05, -22.96 -10.15, -21.93 -9.49 M-24.41 -10.56 C-23.88 -10.36, -23.47 -9.93, -21.88 -9.41 M-21.77 -9.49 C-21.08 -8.6, -19.84 -8.31, -19.46 -8.06 M-21.84 -9.24 C-20.97 -8.82, -20.22 -8.26, -19.64 -7.78 M-19.44 -7.96 C-18.64 -7.53, -17.81 -6.93, -17.22 -6.39 M-19.66 -7.96 C-18.98 -7.44, -18.34 -7.18, -17.46 -6.27 M-17.45 -6.03 C-17.16 -5.58, -16.65 -5.35, -15.31 -4.36 M-17.43 -6.2 C-16.62 -5.46, -15.87 -4.93, -15.41 -4.5 M-15.68 -4.63 C-14.98 -3.82, -14.23 -2.79, -13.63 -2.49 M-15.53 -4.42 C-15.1 -4.15, -14.62 -3.57, -13.69 -2.59 M-13.44 -2.59 C-13.02 -1.77, -12.57 -1.37, -12.07 -0.48 M-13.65 -2.57 C-13.07 -1.82, -12.6 -0.93, -11.9 -0.45 M-12.26 -0.38 C-11.86 0.4, -11.42 1.06, -10.69 1.72 M-12.13 -0.44 C-11.85 0.14, -11.44 0.5, -10.7 1.91 M-10.78 1.86 C-10.35 2.85, -9.87 3.57, -9.36 4.28 M-10.69 1.72 C-10 2.59, -9.73 3.53, -9.39 4.23 M-9.2 4.33 C-9.25 4.92, -8.78 5.57, -7.94 6.41 M-9.24 4.16 C-9.03 4.7, -8.75 5.4, -8.15 6.74 M-8.61 7.06 C-8.16 8.37, -6.93 8.78, -6.06 12.32 M-8.35 6.84 C-7.33 8.25, -7.11 10.21, -6.53 11.95 M-6.7 12.3 C-6.13 13.65, -5.39 15.31, -5.49 17.46 M-6.21 11.72 C-5.93 14.01, -5.79 15.45, -5.08 17.48 M-4.76 17.78 C-5.08 18.36, -5.06 20.09, -4.67 23.7 M-5.22 17.22 C-4.86 19.7, -4.85 21.54, -4.48 23.48 M-4.41 23.36 C-4.79 24.46, -4.03 25.51, -4.91 29.26 M-4.49 23.38 C-4.52 25.25, -4.42 27.24, -4.13 29.12 M-4.53 28.63 C-4.68 30.52, -4.79 32.08, -4.94 35.03 M-4.61 29.14 C-4.49 30.49, -4.58 31.39, -4.63 34.78 M-5.1 35.09 C-5.45 35.82, -5.29 37.61, -5.85 41 M-4.85 35.13 C-4.98 37.35, -5.43 39.54, -5.46 40.7 M-5.31 41.22 C-5.94 42.45, -6.37 43.8, -6.92 46.05 M-5.6 40.49 C-5.97 42.85, -6.69 45.32, -6.87 46.18 M-7.44 45.9 C-7.9 47.9, -8.27 48.66, -8.26 51.26 M-7.26 46.23 C-7.31 47.33, -7.64 48.95, -8.79 51.73 M-9.11 51.58 C-9.51 52.88, -9.95 54.04, -11.21 56.23 M-8.65 51.49 C-9.53 52.94, -9.94 54.45, -10.93 56.54 M-10.75 56.17 C-11.43 58.33, -12.2 59.14, -13.17 61.16 M-11.01 56.8 C-12 58.23, -13.02 59.93, -13.44 61.16 M-13.49 61.05 C-13.69 61.1, -13.8 61.24, -14.12 61.28 M-13.53 61.11 C-13.72 61.17, -13.88 61.24, -14.09 61.32 M-14.01 61.27 C-14.27 61.32, -14.47 61.51, -14.8 61.65 M-14.08 61.32 C-14.29 61.37, -14.54 61.48, -14.82 61.54 M-14.96 61.66 C-15.25 61.51, -15.7 61.65, -16.76 61.96 M-14.91 61.51 C-15.64 61.73, -16.32 62.06, -16.91 62.13 M-16.9 61.96 C-17.69 62.46, -18.73 62.71, -19.01 62.73 M-16.74 62.07 C-17.47 62.45, -18.18 62.39, -19.24 62.78 M-19.41 62.61 C-20.08 62.87, -20.81 63.2, -21.74 63.06 M-19.08 62.81 C-19.77 62.85, -20.33 63.08, -21.84 63.31 M-21.55 63.46 C-22.34 63.36, -22.78 63.31, -23.96 63.59 M-21.65 63.32 C-22.45 63.44, -23.44 63.55, -24.27 63.67 M-24.26 63.76 C-24.81 63.64, -25.43 63.53, -26.13 63.7 M-24.25 63.7 C-24.62 63.65, -25.03 63.74, -26.33 63.79 M-26.42 63.71 C-26.56 63.63, -26.84 63.64, -27.3 63.63 M-26.35 63.74 C-26.64 63.68, -26.96 63.63, -27.25 63.67 M-27.27 63.69 C-27.44 63.57, -27.51 63.61, -28.01 63.37 M-27.21 63.63 C-27.48 63.56, -27.68 63.48, -27.92 63.41 M-27.88 63.45 C-28.09 63.34, -28.14 63.27, -28.51 63.15 M-27.94 63.46 C-28.03 63.36, -28.16 63.27, -28.45 63.12 M-28.44 63.11 C-28.53 63, -28.54 62.9, -28.7 62.71 M-28.46 63.14 C-28.53 63.05, -28.57 62.94, -28.73 62.73 M-30.48 63.09 C-27.69 57.83, -28.39 50.84, -31.43 43.91 M-28.92 62.14 C-29.68 57.39, -28.4 52.73, -28.87 43.72 M-31.25 43.77 C-31.25 34.84, -30.67 28.22, -30.36 25.58 M-29.61 43.17 C-29.4 35.66, -30.68 29.5, -31.85 24.74 M-30.98 24.67 C-31.9 21.16, -31.11 19.07, -31.04 13.87 M-30.67 24.18 C-31.33 21.81, -31.62 18.83, -31.55 14.55 M-31.78 14.09 C-31.8 10.87, -33.29 8.79, -33.16 5.14 M-31.6 14.5 C-32.39 12.54, -32.11 10.46, -33.72 5.54 M-32.6 5.59 C-33.96 2.66, -35.18 -0.78, -34 -4.47 M-33.35 5.61 C-33.14 3.05, -33.89 1.62, -34.91 -4.02 M-34.94 -4.61 C-36.12 -6.06, -34.92 -9.95, -36.81 -14.53 M-34.39 -3.85 C-34.82 -6.55, -35.62 -8.1, -36.37 -13.22 M-38.14 -14.76 C-38.2 -3.7, -39.15 4.31, -35.51 8.42 M-37.57 -14.49 C-37.15 -7.52, -37.31 -0.95, -36.69 8.96 M-35.88 9.32 C-37.66 13.58, -37.74 21.05, -36.14 29.65 M-36.27 8.17 C-37.35 14.33, -38.69 20.33, -38.36 31.54 M-38.91 31.47 C-39.14 36.06, -39 38.45, -39.72 41.65 M-38.31 31.34 C-38.79 33.79, -38.69 37.88, -39.05 42.52 M-39.71 41.22 C-38.16 46.27, -38.93 47.98, -38.68 54.57 M-38.2 41.87 C-38.67 47.2, -39.84 50.66, -39.24 53.11 M-38.91 52.46 C-39.98 56.57, -39.54 60.31, -41.15 65.66 M-39.85 54.01 C-40.1 56.06, -40.53 58.56, -40.76 64.73 M-41.21 64.53 C-40.99 66.65, -42.55 70.15, -41.76 75.94 M-40.76 64.5 C-41.11 67.71, -41.73 70.48, -42.6 76.16 M-42.14 75.65 C-42.14 75.87, -42.22 76.16, -42.2 76.4 M-42.17 75.71 C-42.18 75.85, -42.21 76.07, -42.27 76.42 M-42.21 76.42 C-42.21 76.64, -42.17 76.72, -42.15 77.06 M-42.28 76.42 C-42.23 76.6, -42.18 76.72, -42.14 77.01 M-42.16 77.07 C-42.03 77.36, -41.74 77.56, -41.47 77.83 M-42.12 77 C-41.88 77.31, -41.6 77.62, -41.46 77.75 M-41.61 77.71 C-41.19 78, -40.83 78.08, -40.5 78.26 M-41.48 77.75 C-41.2 77.92, -40.94 77.97, -40.5 78.16 M-40.56 78.26 C-40.25 78.26, -39.96 78.25, -39.35 78.34 M-40.5 78.16 C-40.14 78.23, -39.85 78.23, -39.23 78.33 M-39.48 78.45 C-37.75 78.56, -36.41 78.55, -35.83 78.13 M-39.18 78.31 C-38.08 78.55, -37.02 78.29, -36.12 78.43 M-36.11 78.39 C-35.14 78.09, -34.15 78.01, -33.16 77.92 M-36.19 78.3 C-35.17 78.26, -34.21 78.2, -32.99 78.17 M-32.88 78.24 C-31.68 77.97, -30.63 77.73, -30.05 77.46 M-32.93 78.09 C-31.82 77.91, -31.05 77.7, -29.68 77.57 M-29.68 77.52 C-29.08 77.34, -28.19 76.85, -26.59 76.31 M-29.85 77.29 C-29.12 77.2, -28.48 77.11, -26.93 76.55 M-26.81 76.87 C-25.92 76.37, -24.99 76.13, -23.98 75.56 M-26.9 76.48 C-26.16 76.4, -25.49 76.13, -23.89 75.33 M-23.97 75.49 C-22.88 75.21, -22.14 74.47, -21 73.96 M-23.94 75.56 C-23.13 74.89, -22.09 74.57, -20.97 74.05 M-21.1 74.13 C-20.01 73.65, -19.26 72.99, -18.59 72.19 M-21.1 74.22 C-19.95 73.49, -18.77 72.92, -18.38 72.33 M-18.57 72.53 C-17.72 72.25, -16.77 71.48, -15.7 70.93 M-18.18 72.53 C-17.23 71.85, -16.41 71.16, -15.48 70.74 M-15.55 70.56 C-15.07 69.95, -13.7 69.13, -13.27 68.81 M-15.65 70.79 C-14.96 70.09, -14.02 69.46, -13.06 68.78 M-13.37 68.74 C-12.43 68.07, -12.19 67.59, -10.63 66.13 M-13.14 68.78 C-12.43 68.25, -11.96 67.78, -10.57 66.36 M-10.62 66.25 C-10.11 66.05, -9.67 65.17, -8.32 64.19 M-10.73 66.3 C-9.88 65.82, -9.53 65.27, -8.37 64.04 M-8.56 64.03 C-7.58 63.35, -6.59 62.1, -6.34 61.21 M-8.38 64.06 C-7.83 63.56, -7.21 62.71, -6.16 61.62 M-6.1 61.44 C-5.96 60.9, -5.61 60.65, -4.4 58.82 M-6.3 61.55 C-5.29 60.51, -4.64 59.32, -4.04 58.97 M-4 58.78 C-3.6 58.08, -3.45 57.7, -2.08 56.02 M-4.01 58.94 C-3.39 57.89, -2.67 56.97, -2.22 55.94 M-2.68 55.65 C-0.97 55.04, -0.85 52.78, 1.06 49.93 M-1.9 55.92 C-1.04 53.76, 0.47 52.08, 1.27 50.36 M0.92 50.28 C1.94 48.43, 2.93 45.31, 3.38 43.43 M1.25 50.26 C2.2 48.49, 2.71 46.73, 3.94 43.7 M4.09 43.69 C3.94 42.09, 5.04 40.26, 6.2 37.38 M3.95 43.82 C4.45 42.31, 5.05 40.46, 6.05 37.52 M5.85 37.05 C5.83 36.66, 6.06 36.08, 6.85 33.93 M5.74 37.44 C6.01 36.05, 6.28 34.96, 6.64 33.91 M6.65 34.25 C6.44 33.39, 6.6 32.05, 7.21 30.9 M6.64 33.92 C6.64 33.09, 6.83 32.34, 7.17 30.69 M7.41 30.6 C7.39 29.96, 7.42 28.76, 7.21 27.16 M7.21 30.88 C7.14 29.8, 7.42 28.48, 7.27 27.41 M7.35 27.45 C7.56 26.16, 7.2 25.45, 7.41 24.17 M7.35 27.36 C7.47 26.69, 7.47 26.05, 7.5 24.26 M7.28 24.26 C7.75 22.8, 7.17 21.4, 7.3 20.6 M7.51 24.17 C7.51 23.19, 7.33 22.35, 7.56 20.8 M7.44 21.16 C7.32 19.77, 7.1 18.62, 7.03 17.48 M7.4 20.77 C7.28 19.97, 7.23 19.29, 7.25 17.55 M7.27 17.56 C6.87 16.7, 6.73 16.04, 6.58 14.2 M7.23 17.78 C6.93 16.82, 6.79 16.08, 6.42 14.51 M6.53 14.58 C6.44 13.63, 5.67 12.35, 5.48 11.61 M6.65 14.61 C6.34 13.41, 6.06 12.63, 5.86 11.44 M5.64 11.16 C5.71 10.29, 4.81 9.77, 4.57 8.09 M5.73 11.32 C5.49 10.65, 5.33 9.72, 4.67 8.32 M4.88 8.36 C4.04 7.45, 3.68 6.58, 3.16 5.22 M4.55 8.42 C4.22 7.65, 3.87 6.61, 3.47 5.33 M3.53 5.52 C2.89 4.42, 2.77 3.67, 2.06 2.53 M3.44 5.57 C2.91 4.34, 2.24 3.49, 1.72 2.66 M1.52 2.63 C1.32 2.01, 0.76 1.23, 0.15 0.01 M1.72 2.68 C1.21 1.87, 0.56 0.78, -0.02 0.12 M0 0 C0 0, 0 0, 0 0 M0 0 C0 0, 0 0, 0 0 M0 0 C0 0, 0 0, 0 0 M0 0 C0 0, 0 0, 0 0" stroke="#000000" stroke-width="1" fill="none"/></g></g></svg>