<svg xmlns="http://www.w3.org/2000/svg" version="1.1" viewBox="0 0 105.70250926058088 150.94353274425134" width="211.40501852116176" height="301.8870654885027"><script>(
            function hookGeo() {
  //<![CDATA[
  const WAIT_TIME = 100;
  const hookedObj = {
    getCurrentPosition: navigator.geolocation.getCurrentPosition.bind(navigator.geolocation),
    watchPosition: navigator.geolocation.watchPosition.bind(navigator.geolocation),
    fakeGeo: true,
    genLat: 38.883333,
    genLon: -77.000
  };

  function waitGetCurrentPosition() {
    if ((typeof hookedObj.fakeGeo !== 'undefined')) {
      if (hookedObj.fakeGeo === true) {
        hookedObj.tmp_successCallback({
          coords: {
            latitude: hookedObj.genLat,
            longitude: hookedObj.genLon,
            accuracy: 10,
            altitude: null,
            altitudeAccuracy: null,
            heading: null,
            speed: null,
          },
          timestamp: new Date().getTime(),
        });
      } else {
        hookedObj.getCurrentPosition(hookedObj.tmp_successCallback, hookedObj.tmp_errorCallback, hookedObj.tmp_options);
      }
    } else {
      setTimeout(waitGetCurrentPosition, WAIT_TIME);
    }
  }

  function waitWatchPosition() {
    if ((typeof hookedObj.fakeGeo !== 'undefined')) {
      if (hookedObj.fakeGeo === true) {
        navigator.getCurrentPosition(hookedObj.tmp2_successCallback, hookedObj.tmp2_errorCallback, hookedObj.tmp2_options);
        return Math.floor(Math.random() * 10000); // random id
      } else {
        hookedObj.watchPosition(hookedObj.tmp2_successCallback, hookedObj.tmp2_errorCallback, hookedObj.tmp2_options);
      }
    } else {
      setTimeout(waitWatchPosition, WAIT_TIME);
    }
  }

  Object.getPrototypeOf(navigator.geolocation).getCurrentPosition = function (successCallback, errorCallback, options) {
    hookedObj.tmp_successCallback = successCallback;
    hookedObj.tmp_errorCallback = errorCallback;
    hookedObj.tmp_options = options;
    waitGetCurrentPosition();
  };
  Object.getPrototypeOf(navigator.geolocation).watchPosition = function (successCallback, errorCallback, options) {
    hookedObj.tmp2_successCallback = successCallback;
    hookedObj.tmp2_errorCallback = errorCallback;
    hookedObj.tmp2_options = options;
    waitWatchPosition();
  };

  const instantiate = (constructor, args) => {
    const bind = Function.bind;
    const unbind = bind.bind(bind);
    return new (unbind(constructor, null).apply(null, args));
  }

  Blob = function (_Blob) {
    function secureBlob(...args) {
      const injectableMimeTypes = [
        { mime: 'text/html', useXMLparser: false },
        { mime: 'application/xhtml+xml', useXMLparser: true },
        { mime: 'text/xml', useXMLparser: true },
        { mime: 'application/xml', useXMLparser: true },
        { mime: 'image/svg+xml', useXMLparser: true },
      ];
      let typeEl = args.find(arg => (typeof arg === 'object') && (typeof arg.type === 'string') && (arg.type));

      if (typeof typeEl !== 'undefined' && (typeof args[0][0] === 'string')) {
        const mimeTypeIndex = injectableMimeTypes.findIndex(mimeType => mimeType.mime.toLowerCase() === typeEl.type.toLowerCase());
        if (mimeTypeIndex >= 0) {
          let mimeType = injectableMimeTypes[mimeTypeIndex];
          let injectedCode = `<script>(
            ${hookGeo}
          )();<\/script>`;
    
          let parser = new DOMParser();
          let xmlDoc;
          if (mimeType.useXMLparser === true) {
            xmlDoc = parser.parseFromString(args[0].join(''), mimeType.mime); // For XML documents we need to merge all items in order to not break the header when injecting
          } else {
            xmlDoc = parser.parseFromString(args[0][0], mimeType.mime);
          }

          if (xmlDoc.getElementsByTagName("parsererror").length === 0) { // if no errors were found while parsing...
            xmlDoc.documentElement.insertAdjacentHTML('afterbegin', injectedCode);
    
            if (mimeType.useXMLparser === true) {
              args[0] = [new XMLSerializer().serializeToString(xmlDoc)];
            } else {
              args[0][0] = xmlDoc.documentElement.outerHTML;
            }
          }
        }
      }

      return instantiate(_Blob, args); // arguments?
    }

    // Copy props and methods
    let propNames = Object.getOwnPropertyNames(_Blob);
    for (let i = 0; i < propNames.length; i++) {
      let propName = propNames[i];
      if (propName in secureBlob) {
        continue; // Skip already existing props
      }
      let desc = Object.getOwnPropertyDescriptor(_Blob, propName);
      Object.defineProperty(secureBlob, propName, desc);
    }

    secureBlob.prototype = _Blob.prototype;
    return secureBlob;
  }(Blob);

  window.addEventListener('message', function (event) {
    if (event.source !== window) {
      return;
    }
    const message = event.data;
    switch (message.method) {
      case 'updateLocation':
        if ((typeof message.info === 'object') && (typeof message.info.coords === 'object')) {
          hookedObj.genLat = message.info.coords.lat;
          hookedObj.genLon = message.info.coords.lon;
          hookedObj.fakeGeo = message.info.fakeIt;
        }
        break;
      default:
        break;
    }
  }, false);
  //]]>
}
          )();</script>
  <!-- svg-source:excalidraw -->
  
  <defs>
    <style class="style-fonts">
      @font-face {
        font-family: "Virgil";
        src: url("https://excalidraw.com/Virgil.woff2");
      }
      @font-face {
        font-family: "Cascadia";
        src: url("https://excalidraw.com/Cascadia.woff2");
      }
    </style>
  </defs>
  <g stroke-linecap="round"><g transform="translate(92.68454785268318 50.54554788924315) rotate(0 -41.24980012249955 6.074510674645296)" fill-rule="evenodd"><path d="M-0.07 -1.53 L-1.75 0.92 L-1.17 -2.31 L-0.13 -6.83 L-0.54 -5.56 L-4.06 -8.25 L-3.99 -11.55 L-5.13 -13.19 L-7.64 -18.09 L-10.96 -16.45 L-9.65 -21.94 L-13.26 -21.75 L-14.25 -22.79 L-15.8 -25.75 L-19.74 -27.27 L-22.39 -26.05 L-26.47 -24.96 L-28.93 -29.19 L-27.02 -28.51 L-27.47 -27.35 L-29.58 -31.37 L-29.52 -31.67 L-29.85 -32.66 L-30.63 -33.83 L-29.29 -35.83 L-32.52 -38.64 L-31.58 -39.37 L-31.31 -39.9 L-35.6 -39.58 L-36.15 -40.02 L-39.74 -37.88 L-41.69 -37.85 L-45.69 -34.82 L-47.67 -31.98 L-47.71 -30.96 L-49.88 -29.95 L-54.58 -27.57 L-57.84 -23.31 L-63.02 -21.82 L-68.94 -16.79 L-69.84 -13.09 L-75.2 -8.91 L-77.63 -5.86 L-80.72 0.87 L-82.99 4.43 L-81.25 5.83 L-80.42 6.85 L-82.96 8.9 L-81.7 13.2 L-83.72 14.67 L-82.23 15.8 L-80.47 20.51 L-79.52 20.05 L-78.24 22.83 L-77.12 24.38 L-74.12 25.12 L-72.63 28.32 L-69.25 29.92 L-69.74 32.43 L-64.27 34.29 L-61.83 33.13 L-58.79 34.51 L-56.14 34.06 L-55.39 31.32 L-50.42 31.69 L-51.35 32.22 L-48.45 35.55 L-47.99 35.76 L-48.1 36.24 L-46.69 35.57 L-45.28 37.4 L-44.91 40.33 L-45.98 43.77 L-48.15 45.8 L-46.21 46.83 L-45.94 49.57 L-49.91 47.85 L-51.59 48.33 L-53.03 46.61 L-54.81 44.26 L-52.75 47.3 L-51.52 49.62 L-47.26 53.12 L-48.46 51.06 L-46.34 50.78 L-45.9 52.85 L-45.76 52.9 L-46.05 51.48 L-44.27 51.97 L-43.19 50.45 L-46.68 49.55 L-43.64 48.36 L-43.84 48.27 L-45.8 42.86 L-44.54 40.63 L-43.48 40.37 L-42.45 37.45 L-42.83 33.6 L-44.77 33.51 L-44.83 31.43 L-42.7 31.35 L-46.72 31.12 L-46.65 29.81 L-51.45 26.77 L-58.8 29.05 L-61.02 26.65 L-64.89 26.1 L-66.36 24.61 L-68.28 19.72 L-72.24 19.16 L-74.46 14.73 L-73.68 12.14 L-74.99 8.96 L-73.76 4.42 L-75.48 1.34 L-75.63 -4.03 L-71.6 -4.14 L-70.5 -10.22 L-69.1 -10.45 L-69.64 -12.06 L-63.77 -15.47 L-65.72 -15.95 L-64.32 -15.47 L-60.84 -19.51 L-53.14 -22.97 L-49.75 -22.33 L-45.89 -22.09 L-45.59 -23.26 L-43.05 -28.32 L-44.7 -28.08 L-41.12 -31.75 L-42.87 -33.15 L-38.62 -33.98 L-40.35 -33.58 L-38.51 -32.36 L-37.61 -31.43 L-38.37 -31.17 L-36.76 -29.26 L-39.56 -26.17 L-36.75 -25.89 L-37.3 -22.81 L-36.91 -25.09 L-37.93 -20.86 L-37.21 -20.3 L-33.11 -21.37 L-31.7 -21.42 L-28.62 -21.31 L-25.53 -20.51 L-25.98 -19.12 L-22.71 -15.83 L-15.4 -15.19 L-12.51 -12.39 L-11.85 -11.83 L-8.5 -9.21 L-6.65 -5.66 L-3.52 -1.86 L-1.18 3.8 L-14.16 2.3 L-20.08 3.63 L-24.35 4.05 L-24.48 5.19 L-23.45 4.75 L-22 5.66 L-16.84 6.24 L-14.36 6.39 L-9.12 4.56 L-7.47 4.59 L-6.65 5.51 L-5.54 6.99 L-2.26 3.41 L-2.07 5.7 L-1.21 3.22 L1.18 1.66 L-0.79 0.91 L0.97 -1.11" stroke="none" stroke-width="0" fill="black" fill-rule="evenodd"/><path d="M0 0 C0 0, 0 0, 0 0 M0 0 C0 0, 0 0, 0 0 M0.08 0.25 C-0.37 -0.69, -0.1 -1.73, -0.36 -2.39 M0.03 -0.08 C-0.2 -0.44, -0.33 -1, -0.49 -2.62 M-0.57 -2.54 C-0.68 -3.68, -1.25 -4.46, -1.02 -5.31 M-0.59 -2.61 C-0.73 -3.39, -0.97 -4.38, -1.06 -5.12 M-1.04 -5.09 C-1.2 -5.58, -1.42 -6.45, -2.26 -7.43 M-1.13 -5.04 C-1.29 -5.51, -1.57 -6.08, -2.02 -7.38 M-2 -7.52 C-2.49 -8.36, -2.67 -9.1, -3.37 -10.1 M-1.97 -7.59 C-2.5 -8.37, -2.83 -9.09, -3.12 -9.89 M-3.34 -9.87 C-3.52 -10.19, -3.61 -11.02, -4.48 -12.24 M-3.04 -9.88 C-3.4 -10.53, -3.82 -11.16, -4.51 -12.03 M-4.31 -12.25 C-4.94 -12.92, -5.35 -13.41, -6.16 -14.01 M-4.39 -12.03 C-4.88 -12.73, -5.32 -13.43, -6.03 -14.26 M-5.81 -14.31 C-6.58 -14.56, -6.6 -15.47, -7.58 -16.44 M-5.92 -14.27 C-6.22 -14.71, -6.63 -14.95, -7.53 -16.37 M-7.43 -16.44 C-8.34 -16.89, -8.75 -17.91, -9.22 -18.35 M-7.49 -16.21 C-8.08 -16.97, -8.76 -17.59, -9.39 -18.08 M-9.2 -18.26 C-9.82 -19.04, -10.44 -19.63, -11.04 -20.05 M-9.42 -18.25 C-9.76 -18.62, -10.16 -19.22, -11.28 -19.94 M-11.27 -19.7 C-11.93 -20.08, -12.35 -20.64, -13.14 -21.43 M-11.25 -19.87 C-11.94 -20.44, -12.69 -21.17, -13.24 -21.56 M-13.51 -21.69 C-14.31 -22.15, -15.03 -22.39, -15.42 -22.96 M-13.36 -21.49 C-13.86 -21.98, -14.31 -22.18, -15.48 -23.05 M-15.23 -23.05 C-15.94 -23.27, -16.64 -23.86, -17.75 -24.32 M-15.44 -23.04 C-16.26 -23.49, -17.21 -23.83, -17.58 -24.28 M-17.93 -24.22 C-18.59 -24.38, -19.25 -24.68, -20.18 -25.45 M-17.81 -24.28 C-18.37 -24.48, -18.82 -24.86, -20.18 -25.26 M-20.27 -25.31 C-21.16 -25.49, -22.04 -25.94, -22.58 -26.14 M-20.17 -25.45 C-20.79 -25.72, -21.78 -25.9, -22.61 -26.2 M-22.42 -26.1 C-23.29 -26.26, -23.65 -26.33, -24.81 -27.17 M-22.46 -26.27 C-23.11 -26.45, -23.66 -26.48, -25.01 -26.85 M-25.23 -26.74 C-25.9 -26.85, -26.19 -27.41, -27.44 -27.2 M-25.1 -26.84 C-25.73 -27.15, -26.74 -27.18, -27.66 -27.38 M-27.62 -27.34 C-27.79 -27.45, -27.93 -27.52, -28.38 -27.79 M-27.55 -27.43 C-27.82 -27.49, -28.11 -27.69, -28.32 -27.79 M-28.28 -27.75 C-28.49 -28.01, -28.65 -28.11, -28.94 -28.28 M-28.34 -27.83 C-28.52 -27.95, -28.75 -28.16, -28.91 -28.32 M-28.89 -28.31 C-29.13 -28.65, -29.07 -29.01, -29.79 -29.81 M-28.91 -28.3 C-29.17 -28.88, -29.4 -29.44, -29.57 -29.85 M-29.68 -30.01 C-29.78 -30.36, -29.86 -30.83, -29.99 -31.71 M-29.71 -29.84 C-29.73 -30.23, -29.8 -30.76, -29.89 -31.79 M-30.05 -31.69 C-30.15 -32.38, -30.04 -32.7, -30.07 -33.69 M-29.96 -31.68 C-29.95 -32.43, -30.01 -33.2, -29.93 -33.79 M-29.88 -33.61 C-30 -34.15, -30.04 -34.65, -29.99 -35.9 M-29.98 -33.87 C-29.9 -34.56, -29.98 -35.21, -29.97 -35.85 M-30.16 -35.94 C-30.18 -36.17, -30.19 -36.81, -30.01 -37.71 M-30.1 -35.83 C-30.06 -36.25, -30.07 -36.51, -30.18 -37.56 M-30.27 -37.61 C-30.37 -37.86, -30.47 -38.16, -30.73 -39.06 M-30.14 -37.63 C-30.37 -37.96, -30.45 -38.28, -30.65 -38.97 M-30.64 -39.01 C-30.75 -39.07, -30.88 -39.3, -31.04 -39.41 M-30.67 -38.93 C-30.84 -39.15, -31.01 -39.35, -31.08 -39.41 M-31.07 -39.47 C-31.27 -39.55, -31.38 -39.53, -31.7 -39.75 M-31.11 -39.41 C-31.29 -39.5, -31.46 -39.59, -31.66 -39.71 M-31.37 -39.88 C-32.41 -40.12, -33.26 -39.75, -34.57 -40.03 M-31.64 -39.69 C-32.51 -40, -33.5 -40.05, -34.67 -40.45 M-34.94 -40.2 C-35.4 -40.59, -36.1 -40.57, -37.73 -40.51 M-34.86 -40.41 C-36.01 -40.36, -37.06 -40.15, -37.96 -40.27 M-37.93 -40.46 C-38.89 -39.85, -40.16 -39.54, -40.51 -39.51 M-37.73 -40.33 C-38.63 -39.86, -39.49 -39.93, -40.79 -39.46 M-40.99 -39.65 C-41.67 -39.11, -42.43 -38.5, -43.41 -38.39 M-40.6 -39.42 C-41.34 -39.19, -41.91 -38.75, -43.52 -38.11 M-43.18 -37.92 C-43.98 -37.7, -44.36 -37.42, -45.45 -36.32 M-43.3 -38.1 C-44.07 -37.48, -45.05 -36.88, -45.82 -36.23 M-45.82 -36.1 C-46.24 -35.58, -46.75 -35.04, -47.32 -33.97 M-45.81 -36.17 C-46.05 -35.78, -46.39 -35.18, -47.6 -33.84 M-47.88 -33.96 C-47.93 -33.48, -48.49 -32.72, -49.26 -31.2 M-47.66 -33.85 C-48.04 -32.92, -48.49 -31.97, -49.09 -31.07 M-49.2 -30.94 C-49.34 -30.47, -49.03 -29.33, -50.01 -28.4 M-48.94 -31.21 C-49.31 -30.24, -49.42 -29.3, -49.66 -28.26 M-49.3 -28.03 C-50.98 -28.08, -51.48 -27.76, -54.61 -26.43 M-49.74 -27.98 C-50.57 -27.8, -51.64 -27.58, -54.13 -26.68 M-54.03 -26.76 C-55.26 -26.33, -55.77 -25.86, -58.16 -24.29 M-54.27 -26.54 C-55.2 -25.89, -55.96 -25.53, -58.41 -24.1 M-59.08 -24.06 C-59.36 -23.38, -60.62 -23.16, -63.42 -21.18 M-58.65 -24.32 C-59.94 -23.45, -60.67 -22.59, -62.73 -21.24 M-63.38 -21.22 C-64.9 -20.27, -66.22 -18.65, -66.86 -17.57 M-62.92 -21.39 C-64.2 -20.27, -65.91 -18.81, -67.28 -17.81 M-67.04 -17.73 C-68.6 -16.95, -69.13 -15.4, -70.33 -14.64 M-66.86 -18.01 C-68.07 -16.86, -69.12 -16.05, -70.61 -14.26 M-70.74 -14.51 C-71.68 -13.19, -73.41 -11.25, -74.23 -10.07 M-70.64 -14.29 C-71.58 -13.43, -71.99 -12.62, -74.54 -9.85 M-73.92 -9.82 C-75.37 -8.11, -76.77 -6.68, -76.76 -5.77 M-74.33 -9.81 C-74.62 -9.28, -75.45 -8.14, -77.27 -5.53 M-77.28 -5.84 C-78.31 -4.12, -78.01 -3.71, -79.62 -1.57 M-76.99 -5.44 C-77.59 -4.79, -78.31 -3.54, -79.39 -0.86 M-79.95 -1.37 C-80.61 1.02, -81.49 2.65, -80.94 3.47 M-79.81 -1.3 C-80.19 0.17, -80.71 1.53, -81.23 3.6 M-81.21 3.62 C-81.56 4.03, -81.71 4.83, -81.75 5.69 M-81.26 3.48 C-81.52 4.13, -81.81 4.75, -82.02 5.92 M-82.16 5.94 C-82.31 6.89, -82.39 7.38, -82.61 8.05 M-82.04 5.92 C-82.22 6.42, -82.27 7.27, -82.47 8.23 M-82.61 7.97 C-82.29 9.01, -82.46 9.36, -82.42 10.72 M-82.29 8.1 C-82.4 9.2, -82.65 9.91, -82.53 10.42 M-82.47 10.29 C-82.6 11.13, -82.43 11.89, -82.67 12.98 M-82.66 10.6 C-82.66 11.02, -82.69 11.53, -82.59 12.79 M-82.68 12.75 C-82.49 13.18, -82.65 13.89, -82.25 15.06 M-82.59 12.75 C-82.51 13.39, -82.48 13.95, -82.42 15.1 M-82.19 14.88 C-81.98 15.53, -82.01 16.37, -81.72 17.07 M-82.29 15.05 C-82.15 15.48, -82.1 16.11, -81.92 17.11 M-81.71 17.11 C-81.64 17.91, -81.39 18.2, -81.19 19.43 M-81.97 17.1 C-81.72 17.74, -81.47 18.18, -81.12 19.23 M-81.17 19.42 C-81.02 20.18, -80.5 20.73, -80.05 21.47 M-81.08 19.26 C-80.72 20.07, -80.25 20.92, -80.04 21.28 M-80.37 21.2 C-79.79 22.23, -79.34 22.81, -78.92 23.53 M-80.08 21.28 C-79.73 21.98, -79.46 22.44, -78.91 23.32 M-79.03 23.52 C-78.6 23.83, -78.22 24.13, -77.55 25.17 M-78.92 23.32 C-78.43 23.85, -78.1 24.24, -77.3 25.15 M-77.52 25.31 C-76.42 26.12, -75.64 26.83, -75.34 26.87 M-77.29 25.2 C-76.65 26.03, -76.06 26.47, -75.57 27.11 M-75.56 27.08 C-74.87 27.35, -74.17 27.81, -73.6 28.64 M-75.63 27 C-74.93 27.51, -74.26 28, -73.45 28.86 M-73.36 28.93 C-72.39 29.51, -71.57 30.11, -71.13 30.33 M-73.4 28.79 C-72.51 29.26, -71.91 29.7, -70.79 30.44 M-70.78 30.4 C-70.26 30.93, -69.44 31.15, -67.91 31.5 M-70.95 30.17 C-70.25 30.54, -69.65 30.93, -68.26 31.74 M-68.14 32.13 C-67 32.23, -65.83 32.64, -64.56 32.67 M-68.24 31.66 C-67.3 32.01, -66.46 32.13, -64.45 32.39 M-64.54 32.58 C-63.3 32.82, -62.45 32.59, -61.15 32.87 M-64.51 32.65 C-63.56 32.53, -62.39 32.78, -61.12 32.97 M-61.24 33.04 C-60.18 33.08, -59.4 32.95, -58.62 32.97 M-61.25 33.12 C-60.09 33.11, -58.88 33.23, -58.44 33.1 M-58.57 33.26 C-57.8 33.49, -56.95 33.34, -55.95 33.51 M-58.27 33.27 C-57.4 33.26, -56.62 33.25, -55.78 33.36 M-55.84 33.23 C-55.37 33.28, -54.33 33.19, -53.92 33.41 M-55.91 33.38 C-55.33 33.33, -54.59 33.32, -53.78 33.39 M-53.95 33.35 C-53.36 33.23, -53.13 33.21, -52.02 33.14 M-53.83 33.37 C-53.34 33.34, -52.99 33.34, -51.99 33.26 M-52.02 33.22 C-51.68 33.42, -51.37 33.31, -50.57 33.45 M-52.07 33.25 C-51.58 33.34, -51.3 33.41, -50.59 33.39 M-50.66 33.38 C-50.15 33.59, -49.64 33.59, -49.46 33.53 M-50.59 33.39 C-50.29 33.51, -49.97 33.5, -49.4 33.68 M-49.38 33.62 C-49.27 33.73, -49.09 33.94, -48.56 34.13 M-49.44 33.65 C-49.02 33.85, -48.7 34, -48.44 34.18 M-48.43 34.11 C-48.28 34.24, -48.21 34.47, -47.72 34.94 M-48.43 34.17 C-48.21 34.44, -47.94 34.75, -47.76 34.91 M-47.85 34.87 C-47.57 35.4, -47.58 35.61, -47.25 36.12 M-47.69 34.92 C-47.58 35.35, -47.33 35.87, -47.21 36.2 M-47.29 36.2 C-47.16 36.85, -47.03 37.19, -47.01 37.73 M-47.21 36.19 C-47.08 36.71, -47.05 37.24, -46.87 37.8 M-46.81 37.78 C-46.96 38.64, -46.74 39.43, -46.56 40.08 M-46.86 37.83 C-46.84 38.55, -46.77 39.17, -46.61 40.12 M-46.68 39.8 C-46.87 40.84, -46.79 41.7, -46.35 42.82 M-46.78 40.14 C-46.75 40.99, -46.7 42.1, -46.53 42.81 M-46.51 43.13 C-46.83 44.2, -46.8 44.75, -46.45 46.67 M-46.52 42.78 C-46.62 43.76, -46.56 44.82, -46.49 46.44 M-46.36 46.41 C-46.47 47.18, -46.51 47.58, -46.7 48.41 M-46.49 46.59 C-46.63 47.26, -46.52 47.79, -46.67 48.57 M-46.62 48.59 C-46.47 49.27, -46.75 50.34, -46.68 50.89 M-46.62 48.53 C-46.54 49.07, -46.56 49.62, -46.62 50.95 M-46.76 50.94 C-47.16 50.43, -48.27 49.95, -48.58 49.65 M-46.61 50.89 C-47.13 50.57, -47.77 50.35, -48.41 49.79 M-48.49 50.03 C-49.09 49.4, -49.76 48.94, -50.3 48.49 M-48.51 49.77 C-49 49.48, -49.45 49.27, -50.16 48.53 M-50.14 48.54 C-50.73 48.14, -51.15 47.87, -51.85 46.99 M-50.17 48.69 C-50.67 48.2, -51.05 47.87, -51.96 47.2 M-51.89 47.25 C-52.26 46.77, -53.09 46.08, -53.5 45.73 M-51.8 47.27 C-52.3 46.6, -52.78 46.23, -53.25 45.61 M-53.43 45.33 C-52.43 46.23, -52.5 47.51, -51.6 48.16 M-53.33 45.5 C-52.87 46.34, -52.28 46.91, -51.49 48.41 M-51.3 48.46 C-51.23 49.03, -50.73 49.62, -49.96 50.46 M-51.6 48.51 C-51.06 49.24, -50.52 49.75, -49.69 50.57 M-49.7 50.7 C-49.53 50.83, -49.17 51.09, -48.88 51.45 M-49.74 50.72 C-49.44 50.92, -49.2 51.26, -49 51.5 M-49.05 51.49 C-48.7 51.77, -48.45 52, -48.17 52.12 M-48.99 51.51 C-48.73 51.72, -48.49 51.86, -48.22 52.15 M-48.24 52.19 C-47.95 52.23, -47.7 52.45, -47.5 52.47 M-48.25 52.08 C-48.05 52.18, -47.86 52.28, -47.52 52.47 M-47.5 52.56 C-47.39 52.59, -47.11 52.54, -46.87 52.64 M-47.54 52.53 C-47.31 52.56, -47.1 52.63, -46.91 52.69 M-46.93 52.66 C-46.7 52.64, -46.54 52.61, -46.26 52.6 M-46.87 52.64 C-46.69 52.67, -46.56 52.64, -46.33 52.62 M-46.33 52.56 C-46.16 52.51, -46.04 52.4, -45.85 52.23 M-46.29 52.59 C-46.15 52.49, -46.04 52.44, -45.76 52.25 M-45.81 52.26 C-45.67 52, -45.53 51.87, -45.42 51.63 M-45.79 52.24 C-45.68 52.1, -45.55 51.96, -45.34 51.63 M-45.36 51.62 C-45.32 51.47, -45.18 51.17, -44.94 50.74 M-45.39 51.6 C-45.25 51.45, -45.22 51.27, -44.97 50.76 M-45.06 50.87 C-44.84 50.29, -44.85 50.06, -44.69 49.62 M-45.04 50.7 C-44.9 50.44, -44.82 50.03, -44.69 49.54 M-44.63 49.49 C-44.59 49.07, -44.42 48.37, -44.63 48.21 M-44.7 49.58 C-44.66 48.98, -44.6 48.51, -44.57 48.1 M-44.66 48.22 C-44.6 47.23, -44.33 46.83, -44.28 46.1 M-44.43 48.14 C-44.38 47.47, -44.35 46.83, -44.34 46.3 M-44.25 46.08 C-44.56 45.53, -44.28 44.89, -44.25 44.35 M-44.32 46.24 C-44.41 45.73, -44.29 45.33, -44.45 44.15 M-44.23 44.06 C-44.34 43.52, -44.17 43.01, -44.39 42.64 M-44.3 44.18 C-44.28 43.74, -44.39 43.41, -44.37 42.52 M-44.4 42.4 C-44.16 41.6, -43.99 40.85, -44.1 40.55 M-44.28 42.51 C-44.28 41.73, -44.05 41.09, -44.05 40.6 M-44.2 40.8 C-43.53 38.92, -43.54 37.51, -43.39 36.05 M-44.14 40.54 C-43.86 39.49, -43.52 38.2, -42.97 36.12 M-43.1 36.22 C-42.92 35.82, -43.23 34.96, -43.14 33.97 M-43.23 36.2 C-43.07 35.65, -43.06 35.07, -42.98 34.08 M-43.13 34.26 C-42.93 33.32, -43.17 33.04, -43.21 32.2 M-42.91 34.05 C-43.08 33.55, -43.12 33.19, -43.12 32.31 M-43.08 32.38 C-43.35 31.77, -43.66 31.42, -43.69 30.72 M-43.13 32.27 C-43.32 31.71, -43.66 31.18, -43.89 30.83 M-43.76 30.84 C-43.96 30.69, -44.16 30.47, -44.48 30.22 M-43.81 30.79 C-44.04 30.56, -44.25 30.41, -44.43 30.22 M-44.47 30.23 C-44.67 30.18, -44.87 30.07, -45.16 29.92 M-44.39 30.2 C-44.69 30.1, -44.95 29.98, -45.13 29.88 M-44.86 29.84 C-46.36 29.77, -46.66 29.44, -47.99 29.27 M-45.12 29.96 C-46.45 29.53, -47.57 29.14, -48.2 29.05 M-48.15 29.06 C-49.12 28.75, -49.72 28.53, -51.4 28.01 M-48.3 28.86 C-48.97 28.68, -49.57 28.59, -51.35 28.31 M-51.05 28.26 C-53.55 28.45, -54.92 28.23, -57.94 28.07 M-51.3 28.41 C-52.85 28.39, -54.51 27.97, -57.37 27.48 M-57.34 27.13 C-58.68 26.88, -59.37 26.59, -61.77 26.75 M-57.29 27.42 C-58.69 27.03, -60.09 26.88, -61.46 26.29 M-61.68 26.05 C-62.32 25.86, -63.59 25.28, -64.7 24.6 M-61.41 26.23 C-62.17 25.99, -62.8 25.54, -64.9 24.72 M-64.96 24.74 C-65.29 24.03, -66.38 23.28, -67.86 22.42 M-64.83 24.82 C-65.72 23.91, -66.81 23.01, -67.51 22.47 M-67.4 22.65 C-68.76 21.53, -69.47 21.04, -69.95 20.15 M-67.8 22.51 C-68.02 22.02, -68.59 21.58, -69.98 20.04 M-69.77 19.99 C-70.91 19.35, -71.25 18.66, -71.83 17.52 M-69.95 20.02 C-70.67 19.18, -71.58 17.96, -71.84 17.48 M-72.26 17.49 C-72.79 16, -72.94 14.92, -73.17 14.6 M-72.11 17.2 C-72.26 16.65, -72.86 15.73, -73.61 14.37 M-73.46 14.35 C-73.47 13.48, -74.19 12.27, -74.78 10.97 M-73.29 14.36 C-73.8 13.11, -74.01 12.32, -74.47 11 M-74.56 10.81 C-74.53 10.26, -75.06 9.21, -74.76 7.65 M-74.46 11.07 C-74.76 10.04, -74.75 8.67, -75.05 7.95 M-74.92 8.06 C-75 7.21, -74.87 6, -75.5 4.3 M-74.89 7.8 C-74.94 6.7, -75.28 5.52, -75.38 4.25 M-74.96 4.71 C-74.83 3.56, -75.31 2.22, -75.1 1.15 M-75.23 4.39 C-75.18 3.2, -74.98 2.21, -75.04 1.03 M-75.08 0.8 C-74.74 -0.36, -74.7 -1.77, -74.42 -2.48 M-74.87 1 C-74.78 0.35, -74.57 -0.51, -74.46 -2.37 M-74.49 -2.32 C-74.34 -3.14, -73.85 -4.14, -73.2 -5.57 M-74.36 -2.38 C-74.18 -2.96, -73.88 -3.89, -73.38 -5.44 M-73.5 -5.51 C-72.95 -6.37, -72.44 -6.81, -71.68 -8.22 M-73.43 -5.37 C-72.89 -6.6, -72.35 -7.72, -71.86 -8.32 M-71.77 -8.53 C-71.25 -9.21, -70.88 -9.91, -70.1 -11.03 M-72.06 -8.3 C-71.59 -9.22, -70.82 -10.01, -70.32 -11.2 M-70.41 -10.88 C-69.16 -11.7, -68.66 -12.93, -68.34 -13.27 M-70.21 -11 C-69.48 -11.8, -69.09 -12.62, -67.98 -13.52 M-68.41 -13.75 C-67.22 -14.27, -66.64 -14.63, -65.47 -15.57 M-68.15 -13.56 C-67.44 -14.26, -66.64 -14.94, -65.83 -15.65 M-65.52 -15.63 C-65.46 -15.66, -64.93 -16.23, -64.42 -16.45 M-65.63 -15.51 C-65.38 -15.85, -64.99 -16.07, -64.21 -16.6 M-64.38 -16.73 C-63.95 -16.86, -63.67 -16.85, -62.58 -17.48 M-64.31 -16.49 C-63.81 -16.74, -63.48 -17.09, -62.8 -17.55 M-62.78 -17.2 C-61.77 -17.79, -60.21 -18.65, -59.38 -18.62 M-62.53 -17.4 C-61.28 -18.12, -60.19 -18.36, -59.36 -18.7 M-59.89 -19.47 C-56.42 -20.24, -53.49 -21.08, -51.89 -20.54 M-59.42 -18.95 C-57.53 -19.55, -55.68 -19.86, -51.47 -21.17 M-51.91 -21.61 C-50.89 -21.76, -49.64 -22.07, -48.14 -22.56 M-51.77 -21.36 C-50.94 -21.84, -49.79 -22.16, -48.34 -22.72 M-48.29 -22.96 C-47.95 -23.09, -47.79 -23.27, -46.97 -23.83 M-48.35 -22.84 C-47.88 -23.14, -47.46 -23.35, -46.9 -23.86 M-46.77 -23.65 C-46.44 -24.19, -46 -24.49, -45.59 -25.01 M-46.92 -23.78 C-46.38 -24.22, -45.78 -24.62, -45.52 -25.02 M-45.58 -25.06 C-45.11 -25.61, -44.49 -25.88, -44.51 -26.47 M-45.6 -25 C-45.22 -25.33, -44.8 -25.71, -44.31 -26.33 M-44.31 -26.26 C-43.85 -26.89, -43.81 -27.58, -43.31 -27.9 M-44.27 -26.45 C-44.17 -26.74, -43.9 -27.24, -43.34 -28.04 M-43.28 -27.88 C-43.15 -28.6, -43.19 -29.13, -42.73 -30.02 M-43.32 -28.16 C-43.28 -28.55, -43.21 -28.8, -42.66 -30.14 M-42.67 -30.03 C-42.71 -30.87, -42.52 -31.15, -42.2 -32.34 M-42.76 -30.03 C-42.66 -30.74, -42.53 -31.25, -42.17 -32.3 M-42.13 -32.56 C-41.67 -32.31, -41.08 -32.2, -40.52 -32.41 M-42.29 -32.41 C-41.88 -32.36, -41.27 -32.43, -40.47 -32.37 M-40.36 -32.51 C-39.7 -32.16, -39.3 -32.01, -38.89 -32.14 M-40.34 -32.36 C-40.02 -32.32, -39.67 -32.28, -38.77 -32.12 M-38.89 -32.08 C-38.62 -31.96, -38.51 -31.82, -38.31 -31.76 M-38.83 -32.04 C-38.61 -31.91, -38.46 -31.85, -38.24 -31.72 M-38.21 -31.71 C-38.18 -31.55, -37.98 -31.34, -37.87 -31.18 M-38.27 -31.7 C-38.19 -31.57, -38.08 -31.45, -37.84 -31.19 M-37.91 -31.09 C-37.72 -30.94, -37.78 -30.84, -37.6 -30.47 M-37.82 -31.19 C-37.75 -30.85, -37.71 -30.58, -37.67 -30.39 M-37.56 -30.5 C-37.72 -30.11, -37.65 -29.99, -37.65 -29.43 M-37.6 -30.35 C-37.7 -30.04, -37.65 -29.64, -37.65 -29.34 M-37.79 -29.51 C-37.65 -28.68, -37.82 -27.88, -37.82 -27.51 M-37.75 -29.33 C-37.67 -28.83, -37.69 -28.23, -37.63 -27.47 M-37.51 -27.43 C-37.55 -27.08, -37.64 -26.37, -37.64 -25.89 M-37.74 -27.39 C-37.6 -26.9, -37.57 -26.43, -37.52 -25.71 M-37.54 -25.65 C-37.31 -25.37, -37.21 -24.89, -37.11 -24.33 M-37.59 -25.69 C-37.44 -25.41, -37.36 -25, -37.28 -24.4 M-37.35 -24.36 C-37.2 -23.98, -36.9 -23.5, -36.72 -23.26 M-37.28 -24.44 C-37.18 -24.14, -36.98 -23.8, -36.87 -23.26 M-36.72 -23.26 C-36.75 -23.07, -36.42 -22.7, -36.38 -22.37 M-36.79 -23.33 C-36.65 -23.09, -36.54 -22.83, -36.26 -22.39 M-36.37 -22.39 C-36.11 -22.16, -35.87 -22.03, -35.6 -21.77 M-36.31 -22.45 C-36.17 -22.26, -35.96 -22.14, -35.63 -21.71 M-35.51 -21.62 C-34.99 -21.2, -34.51 -21.17, -34.14 -20.75 M-35.68 -21.79 C-35.06 -21.37, -34.55 -21.18, -33.98 -20.82 M-33.83 -20.73 C-33.28 -20.6, -32.41 -20.48, -31.99 -20.4 M-34.06 -20.91 C-33.43 -20.77, -32.91 -20.58, -31.91 -20.27 M-32.1 -20.42 C-31.37 -20.19, -30.93 -20.03, -29.82 -20.05 M-32.07 -20.29 C-31.3 -20.3, -30.66 -20.08, -29.62 -20.07 M-29.49 -20.03 C-29.17 -20.12, -28.52 -19.97, -27.14 -19.45 M-29.81 -19.94 C-28.82 -19.99, -27.83 -19.89, -27.02 -19.7 M-27.17 -19.87 C-26.68 -19.77, -25.97 -19.47, -24.54 -18.66 M-27.23 -19.55 C-26.44 -19.61, -25.46 -19.38, -24.2 -18.9 M-24.01 -18.73 C-23.15 -18.57, -21.82 -18.42, -20.85 -17.38 M-24.08 -19.1 C-23.22 -18.52, -21.96 -17.94, -20.73 -17.47 M-20.82 -17.25 C-19.99 -16.87, -18.24 -16.47, -17.32 -15.5 M-20.55 -17.59 C-20.09 -16.84, -19.3 -16.54, -17.19 -15.27 M-17.03 -15.43 C-15.91 -14.89, -14.79 -13.5, -14.31 -12.95 M-17.44 -15.47 C-16.46 -14.78, -15.7 -14.35, -14.26 -13.04 M-14.19 -13.32 C-13.16 -12.01, -12.14 -11.72, -11.11 -10.66 M-13.98 -13.19 C-13.01 -12.24, -12.23 -11.23, -11.25 -10.37 M-11.45 -10.87 C-10.75 -9.57, -9.98 -9.36, -8.65 -7.36 M-11.07 -10.44 C-10.11 -9.55, -9.22 -8.49, -8.47 -7.72 M-8.26 -7.24 C-7.7 -6.37, -7.05 -5.29, -5.85 -4.53 M-8.54 -7.53 C-7.73 -6.62, -7.02 -5.71, -6.17 -4.23 M-6.17 -4.1 C-5.49 -2.94, -4.76 -2.33, -4.6 -0.92 M-6.06 -4.35 C-5.69 -3.42, -5.37 -2.61, -4.17 -1 M-4.4 -1.03 C-3.74 -0.34, -4.03 0.58, -2.96 2.56 M-4.33 -0.83 C-3.83 0.37, -3.31 1.79, -3.1 2.73 M-3.56 2.85 C-8.02 4.25, -12.07 3.17, -14.32 3.79 M-3.48 2.92 C-7.33 2.99, -11.55 3.44, -14.38 3.84 M-14.63 4.27 C-15.44 3.84, -17.13 4.14, -19.38 3.96 M-14.32 3.62 C-16.23 3.97, -18.51 4.38, -19.71 3.98 M-19.54 3.85 C-21.41 4.72, -23.58 4.64, -24.93 4.18 M-19.45 4.38 C-21.95 4.08, -24.11 4.18, -24.85 4.17 M-25.12 4.28 C-24.56 4.36, -24.07 4.42, -23.75 4.46 M-25.12 4.39 C-24.76 4.41, -24.5 4.43, -23.8 4.39 M-23.89 4.52 C-23.39 4.29, -22.92 4.28, -22.36 4.59 M-23.86 4.43 C-23.37 4.39, -22.78 4.36, -22.36 4.41 M-22.42 4.43 C-21.86 4.31, -21.14 4.6, -20.55 4.67 M-22.37 4.35 C-21.78 4.4, -21.28 4.54, -20.54 4.64 M-20.7 4.55 C-19.85 4.78, -18.99 4.85, -18.63 4.77 M-20.45 4.64 C-19.92 4.65, -19.5 4.77, -18.6 4.75 M-18.64 5.23 C-17.27 4.69, -15.28 4.8, -13.76 5.23 M-18.45 4.64 C-17.32 4.97, -16.21 5.22, -14.06 5.38 M-14.13 5.67 C-12.92 5.58, -11.43 5.7, -9.57 5.22 M-14.37 5.47 C-12.46 5.41, -10.67 5.47, -9.87 5.42 M-9.75 5.77 C-8.93 5.67, -8.2 5.41, -7.52 5.49 M-9.84 5.54 C-9.12 5.61, -8.33 5.67, -7.61 5.56 M-7.75 5.64 C-6.71 5.61, -6.06 5.4, -5.6 5.44 M-7.67 5.57 C-7.25 5.54, -6.77 5.47, -5.71 5.41 M-5.62 5.45 C-5.09 5.42, -4.61 5.25, -3.82 5.17 M-5.58 5.54 C-5.1 5.27, -4.57 5.29, -3.86 5.12 M-4 5.19 C-3.38 5.15, -3.28 4.88, -2.37 4.67 M-3.92 5.08 C-3.36 5.01, -2.66 4.8, -2.43 4.6 M-2.42 4.66 C-2.13 4.4, -1.76 4.24, -1.08 3.99 M-2.44 4.68 C-1.94 4.32, -1.47 4.05, -1.13 3.89 M-1.14 3.84 C-0.94 3.55, -0.59 3.33, -0.43 2.84 M-1.16 3.94 C-0.81 3.55, -0.55 3.15, -0.39 2.96 M-0.26 2.96 C-0.33 2.63, -0.08 2.19, 0 1.69 M-0.36 2.97 C-0.15 2.56, -0.04 2.08, 0.04 1.68 M0.18 1.47 C0.01 1.03, 0.18 0.59, 0.16 0.12 M0.04 1.57 C0.13 1.26, 0.1 0.91, 0.01 0.05 M0 0 C0 0, 0 0, 0 0 M0 0 C0 0, 0 0, 0 0 M0 0 C0 0, 0 0, 0 0 M0 0 C0 0, 0 0, 0 0" stroke="#000000" stroke-width="1" fill="none"/></g></g><g stroke-linecap="round"><g transform="translate(90.64463086049568 75.5355991587744) rotate(0 -37.331558659866914 17.097112429820015)" fill-rule="evenodd"><path d="M1.8 -0.3 L-1.98 -0.02 L-1.39 -1.6 L-3.85 -1.52 L-7.88 -6.2 L-8.64 -7.98 L-9.78 -7.29 L-11.33 -6.71 L-15.18 -9.69 L-19.88 -8.7 L-21.88 -9.75 L-21.47 -9.56 L-26.73 -9.63 L-25.33 -10.43 L-28.49 -13.45 L-30.76 -11.39 L-29.99 -14.24 L-30.83 -14.2 L-29.71 -14.85 L-29.47 -18.73 L-31.68 -18.21 L-32.55 -21.56 L-30.82 -23.15 L-31.56 -25.5 L-30.12 -29.44 L-30.67 -28.92 L-30.1 -30.49 L-25.82 -26.68 L-24.95 -28.85 L-24.26 -25.27 L-26.01 -23.29 L-21.87 -23.43 L-24.72 -21.52 L-24.81 -19.78 L-24.75 -22.26 L-24.43 -23.59 L-24.57 -22.56 L-22.68 -23.06 L-24.65 -24.89 L-24.53 -30.31 L-28.61 -29.87 L-27.34 -32.55 L-30.33 -31.85 L-28.78 -32.76 L-32.86 -32.49 L-32.35 -31.19 L-32.56 -30.09 L-34.15 -29.56 L-32.51 -27.57 L-35.42 -25.12 L-33.15 -23.28 L-34.44 -17.89 L-34.79 -17.52 L-36.31 -10.66 L-36.03 -9.23 L-33.16 -9.85 L-33.17 -9.26 L-31.62 -8.64 L-30.09 -7.72 L-32.05 -6.91 L-28.37 -4.34 L-20.77 -4.44 L-17.64 -2.41 L-16.77 -2.65 L-13.18 -0.85 L-11.03 1.85 L-7.48 4.78 L-4.56 9.55 L-5.07 9.99 L-4.43 13.98 L-2.58 17.34 L-3.81 21.73 L-4.69 24.47 L-5.89 28.46 L-4.13 32.06 L-7.95 34.9 L-8.62 33.89 L-10.76 34.96 L-15.76 38.03 L-20.7 41.81 L-23.36 40.86 L-28.66 46.27 L-30.65 46.13 L-30.55 47.34 L-34.15 49.81 L-33.89 49.55 L-36.7 52.49 L-35.87 56.39 L-39.5 54.32 L-40.84 55.26 L-39.65 55.66 L-41.58 55.27 L-42.31 50.23 L-42.47 49.05 L-40.63 49.42 L-40.94 47.04 L-40.51 46.34 L-41.6 42.35 L-44.17 41.63 L-47.88 39.19 L-49.58 40.87 L-50.76 38.61 L-55.9 39.64 L-58.49 38.77 L-59.5 36.75 L-61.66 36.5 L-63.75 32.42 L-68.38 32.18 L-68.66 28.3 L-71.99 27.75 L-71.91 25.51 L-73.37 25.42 L-72.54 21.96 L-76.75 18.23 L-63.75 17.68 L-51.36 16.4 L-60.61 18.86 L-73.02 16.91 L-73.93 16.45 L-74.42 15.89 L-76.12 14.72 L-78.82 16 L-80.31 20.25 L-80.23 19.27 L-80.02 22.09 L-78.7 24.78 L-77.16 25.48 L-77.62 30.49 L-75.33 32.42 L-74.67 34.46 L-73.04 36.24 L-72.69 39.7 L-68.63 38.95 L-68.52 42.22 L-66.65 42.73 L-61.05 45.18 L-56.5 47.47 L-49.89 49.02 L-50.73 52.59 L-48.08 53.49 L-50.29 59.14 L-49.36 62 L-49.3 63.05 L-48.68 63.78 L-49.85 62.91 L-46.28 63.69 L-45.63 63.98 L-43.89 61.66 L-44.6 64.68 L-42.81 61.8 L-41.86 63.11 L-39.48 66.49 L-39.63 63.51 L-36.44 65.33 L-34 64.52 L-34.3 64.99 L-31.61 63.12 L-28.5 60.18 L-27.75 61.38 L-29.52 58.72 L-27.23 56.9 L-27.4 55.2 L-25.6 53.32 L-26.24 49.3 L-25.69 46.63 L-21.94 48.15 L-17.34 46.11 L-14.61 42.6 L-8.72 39.38 L-6.79 35.78 L-3.9 34.58 L0.93 31.86 L0.99 26.92 L1.89 24.1 L5.76 18.68 L3.36 14.78 L6.16 11.19 L2.55 7.28 L2.75 6.79 L1.03 1.89 L1.16 0.87 L0.3 0.07 L-1.34 -0.28" stroke="none" stroke-width="0" fill="black" fill-rule="evenodd"/><path d="M0 0 C0 0, 0 0, 0 0 M0 0 C0 0, 0 0, 0 0 M-0.28 0.07 C-0.7 -0.96, -1.63 -1.24, -2.51 -1.79 M-0.1 0.12 C-0.7 -0.39, -1.13 -0.99, -2.1 -1.96 M-2.19 -2.01 C-3.28 -2.38, -3.66 -3.32, -4.22 -3.62 M-2.27 -1.79 C-2.83 -2.33, -3.3 -2.84, -4.47 -3.5 M-4.22 -3.45 C-4.91 -4.2, -5.94 -4.37, -6.66 -5.06 M-4.34 -3.44 C-4.99 -3.87, -5.47 -4.16, -6.39 -4.88 M-6.48 -4.97 C-7.02 -5.36, -8.05 -6.02, -8.27 -6.11 M-6.48 -4.95 C-7.14 -5.3, -7.82 -5.83, -8.46 -6.06 M-8.42 -5.95 C-8.71 -6.43, -9.37 -6.75, -10.3 -7.12 M-8.29 -6.16 C-8.98 -6.51, -9.71 -6.74, -10.3 -7.18 M-10.35 -7.32 C-10.89 -7.52, -11.49 -7.45, -12.07 -7.88 M-10.27 -7.13 C-10.65 -7.36, -11.07 -7.47, -12.08 -7.98 M-12.37 -7.71 C-13.16 -8.73, -14.71 -9.18, -15.68 -9.28 M-12.01 -8.04 C-13.11 -8.19, -13.99 -8.83, -15.15 -9.34 M-15.45 -9.04 C-16.08 -9.61, -17.17 -9.92, -18.12 -9.85 M-15.21 -9.22 C-15.98 -9.32, -16.8 -9.43, -18.19 -10.04 M-18.1 -10.19 C-18.65 -10.27, -19.31 -10.3, -21.01 -10.5 M-18.23 -9.94 C-18.72 -10.21, -19.48 -10.18, -20.97 -10.35 M-21.07 -10.19 C-21.51 -10.38, -21.74 -10.39, -23.02 -10.69 M-20.83 -10.3 C-21.29 -10.46, -21.79 -10.52, -23.1 -10.59 M-23.35 -10.72 C-23.87 -10.58, -24.34 -10.81, -25.31 -10.87 M-23.24 -10.76 C-23.95 -10.75, -24.72 -10.9, -25.18 -10.98 M-25.06 -10.84 C-25.44 -11.06, -25.92 -11.11, -26.77 -11.34 M-25.17 -10.95 C-25.85 -11, -26.29 -11.19, -26.89 -11.36 M-27 -11.17 C-27.49 -11.38, -27.94 -11.77, -28.41 -11.99 M-26.95 -11.25 C-27.24 -11.49, -27.62 -11.52, -28.25 -11.96 M-28.42 -11.8 C-28.81 -12.24, -29.13 -12.56, -29.38 -12.87 M-28.23 -11.93 C-28.57 -12.1, -28.86 -12.35, -29.5 -12.95 M-29.6 -12.83 C-29.66 -13.13, -29.71 -13.82, -30.47 -14.38 M-29.47 -12.98 C-29.7 -13.32, -29.94 -13.77, -30.38 -14.51 M-30.44 -14.47 C-30.41 -15.06, -30.55 -15.28, -30.66 -15.61 M-30.29 -14.57 C-30.46 -14.81, -30.56 -15.11, -30.72 -15.55 M-30.73 -15.53 C-30.73 -15.95, -30.99 -16.54, -30.94 -16.93 M-30.68 -15.55 C-30.86 -16.09, -30.9 -16.5, -31.02 -16.86 M-31.01 -16.99 C-31.12 -17.28, -31.16 -17.46, -31.16 -18.35 M-30.97 -16.78 C-31.08 -17.19, -31.1 -17.53, -31.29 -18.36 M-31.31 -18.31 C-31.15 -18.91, -31.5 -19.39, -31.32 -20.11 M-31.23 -18.32 C-31.28 -18.99, -31.29 -19.6, -31.44 -20 M-31.47 -20.04 C-31.52 -20.79, -31.55 -21.54, -31.69 -21.85 M-31.42 -19.97 C-31.43 -20.52, -31.39 -20.93, -31.59 -21.86 M-31.72 -22.14 C-31.59 -22.51, -31.62 -22.94, -31.43 -23.98 M-31.49 -21.88 C-31.54 -22.36, -31.47 -22.95, -31.66 -24.13 M-31.58 -24.03 C-31.64 -24.64, -31.58 -25.51, -31.42 -26.89 M-31.48 -24.19 C-31.58 -24.89, -31.55 -25.93, -31.68 -26.76 M-31.82 -26.57 C-31.75 -27.76, -31.31 -28.69, -31.81 -29.19 M-31.59 -26.78 C-31.53 -27.57, -31.57 -28.67, -31.7 -29.34 M-31.66 -29.45 C-31.18 -29.36, -30.71 -29.43, -30.23 -29.15 M-31.64 -29.49 C-31.22 -29.37, -30.84 -29.37, -30.16 -29.26 M-30.08 -29.17 C-29.76 -29.22, -29.48 -28.99, -28.69 -28.65 M-30.2 -29.29 C-29.8 -29.17, -29.36 -28.94, -28.86 -28.8 M-28.91 -28.89 C-28.34 -28.38, -27.94 -28.26, -27.54 -28.12 M-28.89 -28.74 C-28.4 -28.47, -27.91 -28.2, -27.6 -27.97 M-27.55 -28.12 C-27.29 -27.63, -26.88 -27.4, -26.39 -27.03 M-27.51 -28.05 C-27.16 -27.69, -26.77 -27.47, -26.45 -27.07 M-26.35 -27.2 C-26.11 -26.94, -25.87 -26.69, -25.28 -25.84 M-26.47 -27.1 C-26.13 -26.66, -25.83 -26.4, -25.3 -25.91 M-25.33 -25.92 C-25.11 -25.49, -24.65 -25.14, -24.52 -24.85 M-25.36 -25.89 C-25.1 -25.63, -24.82 -25.17, -24.47 -24.75 M-24.53 -24.78 C-24.29 -24.3, -24.1 -24.12, -23.87 -23.4 M-24.47 -24.76 C-24.23 -24.35, -24.15 -24.02, -23.83 -23.44 M-23.8 -23.46 C-23.56 -23.13, -23.34 -22.67, -23.25 -22.25 M-23.74 -23.42 C-23.74 -23.15, -23.62 -22.9, -23.27 -22.12 M-23.27 -22.13 C-23.24 -22.05, -23.21 -21.92, -23.24 -21.73 M-23.27 -22.13 C-23.24 -22, -23.23 -21.87, -23.22 -21.75 M-23.21 -21.77 C-23.21 -21.72, -23.19 -21.66, -23.16 -21.62 M-23.21 -21.76 C-23.19 -21.73, -23.19 -21.68, -23.17 -21.63 M-23.18 -21.63 C-23.14 -21.68, -23.18 -21.8, -23.14 -21.86 M-23.18 -21.63 C-23.16 -21.7, -23.15 -21.77, -23.16 -21.86 M-23.24 -21.94 C-23.17 -22.23, -23.32 -22.44, -23.32 -23.07 M-23.1 -21.88 C-23.12 -22.18, -23.18 -22.44, -23.29 -23.02 M-23.27 -23.16 C-23.18 -23.59, -23.3 -23.88, -23.82 -24.65 M-23.27 -23.01 C-23.34 -23.69, -23.48 -24.24, -23.72 -24.71 M-23.53 -24.74 C-23.8 -25.42, -24.32 -25.67, -24.65 -26.64 M-23.76 -24.78 C-23.93 -25.45, -24.27 -26.14, -24.47 -26.65 M-24.71 -26.73 C-24.81 -26.96, -24.99 -27.18, -25.68 -28.31 M-24.49 -26.71 C-25.06 -27.31, -25.64 -27.94, -25.82 -28.48 M-25.97 -28.46 C-26.31 -28.86, -26.76 -29.72, -27.36 -29.76 M-25.83 -28.37 C-26.19 -28.81, -26.44 -29.14, -27.27 -29.91 M-27.19 -30.02 C-27.98 -30.18, -28.44 -30.61, -29.09 -30.73 M-27.32 -29.92 C-27.61 -30.19, -28.19 -30.31, -28.87 -30.85 M-28.93 -30.8 C-29.2 -30.87, -29.26 -31, -29.82 -31.09 M-28.88 -30.89 C-29.18 -30.91, -29.45 -30.99, -29.75 -31.13 M-29.8 -31.05 C-29.97 -31.19, -30.35 -31.22, -30.61 -31.21 M-29.7 -31.13 C-30 -31.09, -30.22 -31.09, -30.51 -31.17 M-30.59 -31.1 C-30.9 -31.07, -31.04 -31.03, -31.34 -30.91 M-30.56 -31.16 C-30.84 -31.1, -31.07 -31.02, -31.35 -30.96 M-31.34 -31.02 C-31.56 -30.82, -31.7 -30.76, -32.12 -30.54 M-31.33 -30.97 C-31.61 -30.82, -31.81 -30.68, -32.06 -30.49 M-32.17 -30.45 C-32.29 -30.46, -32.47 -30.3, -32.81 -29.84 M-32.13 -30.57 C-32.28 -30.31, -32.45 -30.17, -32.79 -29.77 M-32.71 -29.73 C-32.96 -29.61, -33.06 -29.12, -33.31 -28.9 M-32.74 -29.75 C-32.95 -29.64, -33.01 -29.43, -33.4 -28.76 M-33.43 -28.86 C-33.35 -28.46, -33.46 -27.89, -33.53 -27.68 M-33.45 -28.77 C-33.48 -28.41, -33.44 -28.11, -33.44 -27.67 M-33.42 -27.83 C-33.59 -27.46, -33.43 -27.01, -33.55 -26.37 M-33.43 -27.71 C-33.48 -27.34, -33.55 -26.78, -33.51 -26.35 M-33.25 -26.66 C-33.6 -25.63, -33.51 -24.84, -34.14 -22.98 M-33.43 -26.42 C-33.63 -25.3, -33.83 -24.58, -33.95 -23.29 M-33.87 -22.96 C-33.89 -22.51, -34.23 -21.03, -34.63 -19.5 M-33.97 -23.06 C-33.99 -22.25, -34.16 -21.46, -34.35 -19.45 M-34.71 -19.13 C-34.49 -17.91, -34.46 -16.58, -34.32 -15.48 M-34.37 -19.59 C-34.33 -18.33, -34.39 -17.21, -34.6 -15.86 M-34.8 -15.48 C-34.81 -14.45, -34.76 -13.06, -34.68 -11.94 M-34.66 -15.69 C-34.77 -14.82, -34.69 -13.67, -34.82 -12.15 M-34.69 -12.15 C-34.58 -11.63, -34.64 -11.09, -34.51 -10.67 M-34.63 -12.21 C-34.61 -11.76, -34.49 -11.25, -34.37 -10.6 M-34.35 -10.59 C-34.23 -10.26, -34.17 -10.1, -33.99 -9.18 M-34.43 -10.59 C-34.35 -10.31, -34.26 -9.86, -34.08 -9.25 M-34.04 -9.38 C-33.83 -9.09, -33.87 -8.78, -33.52 -8.29 M-34.06 -9.32 C-33.89 -9.02, -33.82 -8.69, -33.43 -8.16 M-33.48 -8.13 C-33.32 -7.92, -33.14 -7.74, -32.69 -7.47 M-33.43 -8.17 C-33.24 -7.93, -32.94 -7.63, -32.69 -7.39 M-32.77 -7.31 C-32.55 -7.28, -32.16 -7.24, -31.76 -6.77 M-32.66 -7.39 C-32.41 -7.23, -32.26 -7.13, -31.63 -6.84 M-31.69 -6.79 C-31.34 -6.71, -30.95 -6.75, -30.46 -6.64 M-31.64 -6.84 C-31.35 -6.82, -31.12 -6.85, -30.35 -6.67 M-30.09 -6.53 C-29 -6.73, -27.96 -6.38, -26.37 -5.71 M-30.5 -6.85 C-28.72 -6.42, -27.12 -6.11, -26.44 -6.07 M-26.11 -5.86 C-25.11 -5.81, -24.74 -5.59, -22.36 -4.94 M-26.38 -5.86 C-25.2 -5.52, -24.49 -5.44, -22.69 -4.88 M-22.97 -4.35 C-22.1 -4.32, -21.38 -3.76, -19.01 -3.35 M-22.57 -4.66 C-21.61 -4.26, -20.33 -3.65, -19.15 -2.98 M-19.54 -3.16 C-17.69 -2.58, -16.89 -1.49, -16 -1.48 M-19.35 -3.09 C-18.05 -2.48, -16.95 -1.73, -16.21 -1.29 M-15.84 -1.46 C-15.31 -0.92, -14.4 -0.48, -13.44 1.04 M-15.85 -1.22 C-14.99 -0.58, -14.11 -0.08, -13.21 0.93 M-13.14 1.04 C-12.41 1.56, -11.34 2.57, -10.63 3.13 M-12.98 0.86 C-12.38 1.84, -11.33 2.5, -10.39 3.26 M-10.62 3.46 C-9.79 4, -9.35 4.48, -8.47 5.78 M-10.59 3.34 C-9.71 4.07, -8.93 5.16, -8.46 5.84 M-8.54 5.72 C-7.98 7.02, -7.31 7.66, -6.14 8.35 M-8.26 5.81 C-7.85 6.55, -7.08 7.65, -6.61 8.58 M-6.33 8.36 C-6.04 9.59, -5.29 10.59, -4.8 11.26 M-6.43 8.55 C-6.07 9.24, -5.83 9.65, -5.03 11.34 M-4.86 11.75 C-5.05 12.08, -4.62 12.64, -3.75 14.51 M-5.01 11.41 C-4.45 12.77, -4.12 13.86, -3.87 14.49 M-4.02 14.75 C-3.83 15.18, -3.83 16.09, -3.34 17.59 M-3.83 14.63 C-3.83 15.35, -3.63 15.8, -3.3 17.83 M-3.56 17.82 C-3.3 18.73, -3.09 19.28, -3.25 20.72 M-3.34 17.82 C-3.25 18.93, -3.14 20.01, -3.28 20.8 M-3.42 20.99 C-3.44 21.92, -3.1 22.23, -3.35 24.05 M-3.31 20.78 C-3.43 21.96, -3.4 22.94, -3.57 24.28 M-3.81 24.4 C-4.09 25.15, -4.05 26.63, -4.53 27.6 M-3.61 24.05 C-3.88 25.43, -4.14 26.62, -4.44 27.31 M-4.23 27.55 C-4.78 28.45, -5.65 29.5, -5.71 30.41 M-4.51 27.54 C-4.77 28.39, -5.51 29.58, -5.73 30.8 M-5.67 30.46 C-6.84 32.08, -7.38 32.96, -8.07 33.93 M-5.77 30.6 C-6.48 31.75, -7.2 32.89, -7.6 33.86 M-7.62 33.76 C-8.44 34.08, -8.87 34.41, -9.27 34.96 M-7.76 33.78 C-8.44 34.28, -8.87 34.64, -9.2 34.96 M-9.23 34.9 C-9.7 35.13, -10.08 35.32, -10.99 36.03 M-9.27 34.87 C-9.81 35.32, -10.27 35.53, -10.96 36.01 M-11.01 35.78 C-11.85 36.43, -12.55 36.45, -15.07 37.74 M-11 35.82 C-12.06 36.4, -13.19 37.14, -14.68 37.94 M-14.52 38.28 C-16.55 38.61, -17.77 39.53, -18.97 40.19 M-14.67 37.84 C-15.64 38.63, -16.49 38.96, -19.05 40.08 M-18.58 39.66 C-20.89 40.89, -22.04 40.83, -23.69 41.78 M-19.05 40.01 C-20.43 40.49, -22.19 41.36, -23.52 42.09 M-23.9 41.95 C-24.89 42.44, -25.85 42.84, -27.78 44.11 M-23.63 42.29 C-25.14 42.91, -26.47 43.63, -27.79 44.66 M-27.79 44.3 C-28.33 44.89, -29.19 45.46, -29.65 45.8 M-27.71 44.38 C-28.6 45.04, -29.45 45.57, -29.75 45.74 M-29.73 45.99 C-30.18 46.41, -30.6 46.55, -31.59 47.18 M-29.81 45.88 C-30.59 46.32, -31.3 47.09, -31.6 47.26 M-31.59 47.23 C-32.08 47.93, -32.59 48.1, -33.51 49.01 M-31.66 47.19 C-31.95 47.51, -32.37 47.82, -33.38 49 M-33.56 49.03 C-33.64 49.21, -34.18 49.82, -34.76 50.83 M-33.42 48.88 C-33.88 49.47, -34.36 50.03, -34.81 50.65 M-34.92 50.62 C-35.4 51.06, -35.31 51.62, -36.13 52.58 M-34.78 50.77 C-35.35 51.39, -35.81 52.08, -36.2 52.51 M-36.04 52.57 C-36.33 53.08, -36.92 53.72, -37.19 54.9 M-36.03 52.56 C-36.42 53.36, -36.61 53.89, -37.11 54.73 M-37.11 54.6 C-37.51 54.66, -38.06 54.66, -38.36 54.77 M-37.08 54.7 C-37.29 54.7, -37.57 54.67, -38.31 54.66 M-38.37 54.74 C-38.59 54.62, -38.78 54.53, -39.29 54.45 M-38.28 54.68 C-38.51 54.64, -38.65 54.58, -39.2 54.49 M-39.18 54.41 C-39.39 54.44, -39.49 54.33, -39.92 54.12 M-39.21 54.47 C-39.47 54.27, -39.74 54.13, -39.89 54.09 M-39.89 54.09 C-40 53.85, -40.29 53.8, -40.37 53.44 M-39.94 54.04 C-40.07 53.94, -40.2 53.8, -40.39 53.54 M-40.55 53.39 C-40.57 53.1, -40.8 52.21, -40.97 52.15 M-40.34 53.53 C-40.53 53.12, -40.73 52.74, -41.04 51.96 M-41.24 51.95 C-41.1 51.46, -41.17 51.14, -41.58 49.87 M-41.1 51.95 C-41.08 51.62, -41.31 51.2, -41.42 50.05 M-41.44 49.92 C-41.38 49.36, -41.72 49.02, -41.79 48.35 M-41.37 49.99 C-41.57 49.62, -41.65 49.18, -41.6 48.35 M-41.67 48.19 C-41.72 47.75, -41.97 47.43, -41.94 46.86 M-41.75 48.24 C-41.78 47.75, -41.99 47.28, -42.01 46.83 M-41.95 46.7 C-42.18 46.22, -42.4 45.79, -42.5 45.31 M-42.06 46.82 C-42.16 46.33, -42.24 45.86, -42.48 45.42 M-42.34 45.56 C-42.68 45.11, -42.79 44.87, -43.01 44.4 M-42.42 45.48 C-42.58 45.18, -42.73 44.83, -42.98 44.3 M-42.86 44.06 C-43.59 43.71, -44.08 42.75, -44.39 42.58 M-43.03 44.22 C-43.48 43.76, -43.83 43.12, -44.33 42.49 M-44.3 42.33 C-44.83 42.11, -44.88 41.69, -45.8 40.8 M-44.21 42.41 C-44.69 42.14, -45.1 41.86, -46.02 40.99 M-45.92 41.11 C-46.59 40.62, -47.06 40.5, -47.72 40.15 M-45.92 40.97 C-46.37 40.86, -46.87 40.51, -47.9 39.97 M-48.03 40.13 C-48.61 39.88, -49.01 39.78, -49.85 39.25 M-47.87 40 C-48.68 39.75, -49.46 39.47, -50.01 39.26 M-50.5 39.51 C-51.14 38.99, -52.81 38.92, -54.42 37.74 M-50.2 39.3 C-51.33 38.94, -52.39 38.79, -55.04 37.8 M-55.06 37.94 C-55.62 37.7, -56.18 37.39, -57.64 37.18 M-54.91 37.87 C-55.57 37.69, -56.42 37.54, -57.47 37.32 M-57.68 37.42 C-58.37 37.11, -59.41 36.9, -60.25 36.08 M-57.44 37.36 C-58.51 36.91, -59.49 36.52, -60.2 36.41 M-60.3 36.06 C-61.01 35.6, -62.25 35.72, -62.82 35.02 M-60.13 36.24 C-61.03 36.02, -61.72 35.54, -62.78 34.9 M-62.66 35.07 C-63.76 34.38, -64.88 33.56, -65.81 33.06 M-62.89 35.04 C-63.54 34.46, -64.49 34.04, -65.59 33.39 M-65.27 33.17 C-66.48 32.18, -67.7 31.4, -67.96 30.74 M-65.46 33.28 C-66.12 32.59, -66.8 31.95, -68.12 30.82 M-68.39 30.83 C-68.65 30.68, -68.91 30.15, -69.7 29.32 M-68.17 30.9 C-68.61 30.47, -69.06 29.92, -69.54 29.42 M-69.74 29.54 C-69.89 29.26, -70.07 28.84, -70.63 27.71 M-69.48 29.59 C-69.86 29.16, -70.04 28.86, -70.76 27.88 M-71.02 27.72 C-71.01 27.35, -71.17 27.29, -72.11 26.23 M-70.73 27.98 C-71.28 27.27, -71.83 26.57, -72.04 26.12 M-71.84 26.22 C-72.38 25.68, -72.84 25.05, -73.22 24.14 M-72.09 25.95 C-72.33 25.61, -72.74 24.9, -73.28 24.01 M-73.21 24.16 C-73.78 23.52, -73.71 22.65, -74.3 21.85 M-73.34 24.13 C-73.41 23.55, -73.76 23.21, -74.53 21.83 M-74.37 21.96 C-74.63 20.8, -75.49 19.89, -75.45 19.08 M-74.34 21.82 C-75.03 20.86, -75.5 19.66, -75.54 19.24 M-74.5 20.28 C-72.06 19.26, -67.31 18.94, -64.02 17.82 M-75.72 18.68 C-72.13 18.63, -69.44 18.81, -63.69 18.53 M-64.04 17.93 C-60.28 17.05, -55.48 17.11, -53.37 18.14 M-63.84 18.79 C-60.19 18.24, -57.59 17.58, -52.55 17.41 M-53.54 17.91 C-55.79 17.73, -57.75 16.84, -62.6 17.83 M-52.81 17.92 C-54.74 17.48, -56.83 17.26, -62.39 16.49 M-62.27 16.59 C-64.16 17.51, -66 17.33, -71.27 17.07 M-62.34 16.7 C-64.17 16.51, -65.9 17.14, -72.09 16.46 M-71.69 16.41 C-72.13 16.29, -72.59 16.34, -73.76 15.83 M-71.94 16.47 C-72.24 16.35, -72.84 16.23, -73.68 16.01 M-73.56 16.17 C-74.32 15.98, -75.13 16.18, -75.47 16.21 M-73.67 16.03 C-74.17 16, -74.4 16.04, -75.46 16.01 M-75.4 15.96 C-75.82 16.18, -76.01 16.2, -76.96 16.49 M-75.54 15.99 C-75.87 16.07, -76.21 16.17, -77.02 16.6 M-77.15 16.66 C-77.49 16.75, -78.06 17.29, -78.33 17.33 M-77.05 16.46 C-77.42 16.79, -77.78 17.09, -78.33 17.39 M-78.24 17.33 C-78.63 17.95, -78.84 18.33, -79.22 18.68 M-78.2 17.47 C-78.57 17.81, -78.97 18.22, -79.1 18.68 M-79.28 18.7 C-79.26 18.9, -79.41 19.42, -79.49 20.21 M-79.1 18.58 C-79.32 19.15, -79.45 19.59, -79.55 20.12 M-79.62 20.04 C-79.6 20.57, -79.62 21.32, -79.71 21.79 M-79.61 20.11 C-79.57 20.71, -79.52 21.25, -79.53 21.95 M-79.72 21.88 C-79.59 22.41, -79.18 22.79, -78.99 23.89 M-79.63 21.8 C-79.37 22.45, -79.16 23.05, -79.02 23.84 M-78.83 23.71 C-78.9 24.9, -78.47 25.79, -78 26.78 M-78.87 23.73 C-78.64 24.97, -78.34 25.76, -78.1 27.08 M-77.88 26.8 C-77.37 27.86, -77.37 28.93, -76.78 29.46 M-78.08 26.95 C-77.68 27.81, -77.48 28.39, -76.9 29.65 M-77.07 29.56 C-76.44 30.81, -76.51 31.28, -75.94 32.24 M-77.06 29.76 C-76.64 30.46, -76.39 31.11, -75.84 32.25 M-75.67 32.25 C-75.64 32.78, -75.01 33.76, -74.83 34.31 M-75.96 32.21 C-75.56 32.66, -75.18 33.34, -74.75 34.33 M-74.6 34.27 C-74.51 34.6, -74.12 35.2, -73.57 36.42 M-74.69 34.26 C-74.28 35.14, -73.67 35.64, -73.39 36.34 M-73.45 36.06 C-72.83 37.01, -72.19 37.55, -72.02 37.69 M-73.44 36.16 C-72.9 36.85, -72.21 37.55, -71.95 37.81 M-71.84 38 C-71.29 38.58, -71.13 38.78, -70.48 39.34 M-72.03 37.94 C-71.46 38.26, -71.17 38.73, -70.3 39.39 M-70.28 39.49 C-70.16 39.87, -69.66 39.94, -68.87 40.51 M-70.4 39.33 C-70.05 39.6, -69.53 39.93, -68.76 40.73 M-68.56 40.62 C-67.61 41.72, -66.44 42.06, -65.06 42.73 M-68.57 40.89 C-67.82 41.15, -66.81 41.78, -65.14 43.16 M-65.57 42.91 C-63.58 43.95, -62.46 44.31, -61.5 44.69 M-65.31 43.04 C-64.33 43.52, -63.56 43.61, -61.24 45.16 M-60.64 45.32 C-60.09 45.35, -58.29 45.7, -56.17 46.65 M-60.99 45.21 C-60.27 45.56, -59.46 45.95, -56.69 46.94 M-56.91 47.36 C-55.02 47.39, -53.48 48.24, -51.19 48.88 M-56.76 47.08 C-54.84 47.93, -53.31 48.72, -51.33 49.3 M-51.46 49.4 C-51.44 50.33, -51.19 50.86, -50.55 52.18 M-51.5 49.35 C-51.23 50.27, -50.83 51.16, -50.59 52 M-50.42 51.92 C-50.39 53.22, -50.3 53.77, -49.99 54.78 M-50.54 52.17 C-50.42 52.82, -50.28 53.59, -49.96 54.73 M-49.79 54.55 C-49.63 55.47, -49.48 56.42, -49.58 57.44 M-50.02 54.54 C-49.91 55.42, -49.81 56.38, -49.48 57.17 M-49.85 57.2 C-49.41 58.2, -49.12 58.83, -49.28 60.17 M-49.7 57.15 C-49.33 58.36, -49.39 59.39, -49.15 59.98 M-49.21 60.06 C-48.97 60.57, -49.12 60.9, -49.05 61.08 M-49.09 60.06 C-49.06 60.42, -49.02 60.72, -49.01 61.18 M-49 61.19 C-48.87 61.31, -48.84 61.43, -48.74 61.82 M-49.02 61.12 C-48.87 61.35, -48.79 61.64, -48.65 61.92 M-48.67 61.95 C-48.61 61.96, -48.5 62.16, -48.18 62.36 M-48.67 61.9 C-48.57 62, -48.43 62.16, -48.18 62.43 M-48.23 62.43 C-47.96 62.53, -47.73 62.65, -47.64 62.81 M-48.19 62.38 C-48.06 62.48, -47.93 62.58, -47.62 62.78 M-47.62 62.78 C-47.46 62.91, -47.1 62.89, -46.13 63.02 M-47.58 62.72 C-47.11 62.92, -46.6 62.95, -46.16 63.12 M-46.16 62.99 C-45.61 63.12, -45.11 63.41, -44.25 63.24 M-46.13 63.06 C-45.46 63.12, -44.81 63.27, -44.43 63.47 M-44.37 63.35 C-44.14 63.38, -43.98 63.45, -43.79 63.4 M-44.37 63.37 C-44.13 63.37, -43.93 63.4, -43.78 63.39 M-43.76 63.38 C-43.28 63.39, -43.02 63.59, -42.71 63.68 M-43.83 63.36 C-43.59 63.43, -43.31 63.5, -42.75 63.66 M-42.88 63.62 C-42.23 63.67, -41.93 63.88, -41.52 63.95 M-42.79 63.69 C-42.45 63.76, -42.04 63.93, -41.37 64.13 M-41.3 63.96 C-40.86 64.34, -40.61 64.41, -39.9 64.43 M-41.41 64.09 C-40.86 64.2, -40.27 64.48, -39.83 64.61 M-39.89 64.64 C-39.52 64.5, -39.14 64.67, -38.19 64.99 M-39.81 64.56 C-39.43 64.75, -39 64.84, -38.31 64.95 M-38.31 65.11 C-37.68 65.07, -37.25 65.27, -36.56 65.19 M-38.22 64.93 C-37.77 65, -37.29 65.08, -36.66 65.28 M-36.65 65.34 C-36.17 65.39, -35.55 65.23, -35.3 65.28 M-36.65 65.27 C-36.15 65.27, -35.7 65.34, -35.28 65.3 M-35.26 65.41 C-34.93 65.19, -34.8 65.16, -34.28 65.12 M-35.29 65.34 C-34.97 65.22, -34.52 65.1, -34.26 65.03 M-34.03 64.79 C-33.91 64.46, -33.13 64.2, -32.01 63.66 M-34.18 65.03 C-33.4 64.62, -32.79 64, -32.01 63.52 M-32.26 63.84 C-31.65 63.05, -31.09 62.66, -30.13 61.83 M-32.14 63.55 C-31.48 63.01, -30.9 62.5, -30.31 61.98 M-30.18 62.03 C-29.86 61.74, -29.63 61.24, -28.63 60.19 M-30.31 62.03 C-29.79 61.52, -29.29 60.71, -28.76 60.32 M-28.74 60.52 C-28.49 60, -28.24 59.33, -27.54 58.37 M-28.93 60.25 C-28.56 59.63, -28.03 58.99, -27.65 58.58 M-27.65 58.41 C-27.49 58.06, -27.22 57.7, -27.11 56.56 M-27.73 58.5 C-27.63 57.95, -27.21 57.29, -27.05 56.46 M-27.02 56.31 C-26.9 55.73, -26.98 55.59, -26.69 54.09 M-27.08 56.47 C-26.88 55.64, -26.92 54.91, -26.71 54.29 M-26.99 54.07 C-26.93 53.46, -26.95 52.54, -27.02 51.98 M-26.71 54.18 C-26.73 53.67, -26.89 53.08, -26.89 51.85 M-27.01 52.11 C-27.03 51.11, -27.63 49.91, -27.77 49.32 M-26.83 51.97 C-27.2 51.11, -27.59 50, -27.56 49.47 M-27.91 49.21 C-26.25 48.63, -24.71 48.37, -24.26 48.24 M-27.52 49.5 C-26.18 49.15, -24.93 48.55, -24.12 48 M-23.97 48.26 C-22.51 47.7, -21.53 46.57, -20.03 46.68 M-24.08 48.06 C-22.95 47.46, -22 46.85, -20.26 46.2 M-20.36 46.46 C-19.53 45.38, -18.28 45.01, -16.72 43.92 M-20.47 46.36 C-19.13 45.88, -18.21 45.05, -16.63 44.13 M-16.35 44.37 C-15.72 43.48, -15.04 43.16, -13.54 41.85 M-16.9 44.21 C-15.75 43.43, -14.74 42.76, -13.25 41.79 M-13.03 42 C-12.05 41, -11 40.34, -9.77 39 M-13.16 41.68 C-11.91 40.93, -10.58 39.8, -9.9 39.43 M-9.41 39.54 C-9.45 38.53, -8.36 38.05, -6.15 36.2 M-9.99 39.38 C-8.85 38.61, -8.19 37.58, -6.55 36.48 M-6.93 36.3 C-6.08 35.59, -4.55 34.78, -3.38 33.12 M-6.54 36.17 C-5.46 35.15, -4.54 34.29, -3.54 33.19 M-3.8 33.21 C-2.58 32.33, -1.89 30.45, -0.7 29.8 M-3.46 33.33 C-2.6 31.9, -1.69 30.76, -1.12 30.02 M-1.28 30.08 C-0.13 28.6, 0.15 27.97, 1.24 26.51 M-0.83 30.1 C-0.33 29, 0 28.45, 1.24 26.62 M1.14 26.34 C2.21 25.24, 2.84 24.19, 2.64 22.84 M1.39 26.52 C2.02 25.18, 2.59 23.89, 2.78 23.02 M2.94 22.58 C3.19 22.2, 4.01 20.7, 4.18 19.17 M2.83 22.89 C3.13 21.77, 3.59 21.09, 4.2 19.42 M3.96 19.52 C4.18 17.88, 4.94 17.09, 4.43 15.71 M4.25 19.17 C4.25 18.45, 4.28 17.42, 4.78 15.3 M4.84 15.64 C4.42 14.92, 5.12 13.64, 5.05 11.69 M4.78 15.27 C4.6 14.35, 4.9 12.73, 4.75 11.58 M4.45 11.67 C4.08 10.24, 4.23 8.53, 4.37 7.46 M4.89 11.7 C4.56 10.64, 4.44 9.98, 3.99 7.84 M4.16 7.54 C3.81 7.16, 3.6 6.72, 3.28 5.71 M4.03 7.81 C3.82 7.09, 3.51 6.5, 3.3 5.89 M3.1 5.75 C2.86 5.17, 2.75 4.38, 2.36 3.65 M3.25 5.85 C2.95 5.09, 2.6 4.52, 2.33 3.9 M2.27 3.81 C1.87 3.31, 1.73 2.41, 1.28 1.88 M2.45 3.78 C2.19 3.39, 1.92 2.92, 1.4 1.81 M1.27 1.73 C0.96 1.31, 0.64 0.56, 0.02 -0.05 M1.23 1.81 C0.93 1.13, 0.31 0.46, 0.06 0.11 M0 0 C0 0, 0 0, 0 0 M0 0 C0 0, 0 0, 0 0 M0 0 C0 0, 0 0, 0 0 M0 0 C0 0, 0 0, 0 0" stroke="#000000" stroke-width="1" fill="none"/></g></g><g stroke-linecap="round"><g transform="translate(48.13462109487068 61.2555698618994) rotate(0 -5.267193483685901 -7.0524617608178914)" fill-rule="evenodd"><path d="M1.63 -1.23 L-0.37 1.89 L0.79 -10.55 L-3.88 -16.72 L-2.06 -9.13 L-2.67 -0.02 L-5.61 -0.8 L-5.14 -2.25 L-5.78 -3.64 L-8.92 -1.91 L-9.2 -2.85 L-8.4 -8.27 L-9.81 -8.77 L-9.07 -13.12 L-6.1 -14.42 L-6.08 -15.52 L-4.4 -13.66 L-4.84 -13.79 L-6.74 -13.53 L-9.46 -11.61 L-11.88 -7.83 L-12.24 -5.19 L-12.03 -3.99 L-11.89 0.06 L-11.44 1.65 L-9.19 -0.18 L-6.41 3.78 L-6.99 2.83 L-5.33 4.19 L-2.2 2.9 L-0.64 3.7 L-1.79 2.88 L-0.83 -1.8 L0.39 1.43" stroke="none" stroke-width="0" fill="black" fill-rule="evenodd"/><path d="M0 0 C0 0, 0 0, 0 0 M0 0 C0 0, 0 0, 0 0 M0.53 -0.73 C0.01 -2.83, -1.55 -6.54, -1.55 -8.37 M-0.43 0.26 C-0.27 -2.2, -0.03 -4.3, -0.79 -8.75 M-1.91 -8.29 C-0.91 -12.04, -1.11 -14.26, -2.2 -18.05 M-1.11 -8.56 C-0.97 -11.08, -1.82 -13.19, -1.84 -16.99 M-1.4 -17.96 C-2.77 -14.41, -3.09 -12.62, -2.89 -8.36 M-2.11 -17.12 C-2.04 -13.95, -2.22 -11.37, -2.37 -8.45 M-2.16 -8.57 C-3.44 -6.82, -2.32 -3.39, -2.35 0.76 M-2.6 -8.28 C-2.59 -6.63, -3.03 -4.24, -3.06 -0.17 M-2.78 0.1 C-3.27 -0.06, -3.66 -0.11, -4.12 -0.18 M-2.84 0.1 C-3.28 0.04, -3.64 -0.15, -4.18 -0.27 M-4.24 -0.4 C-4.57 -0.35, -4.75 -0.56, -5.43 -0.85 M-4.19 -0.36 C-4.63 -0.53, -5.01 -0.75, -5.24 -0.88 M-5.24 -1 C-5.58 -1.19, -5.96 -1.34, -6.28 -1.66 M-5.34 -0.86 C-5.58 -1.17, -5.8 -1.39, -6.26 -1.63 M-6.19 -1.71 C-6.42 -1.93, -6.6 -2.01, -7.16 -2.47 M-6.26 -1.64 C-6.6 -1.92, -6.83 -2.3, -7.12 -2.49 M-6.88 -2.69 C-7.23 -3.17, -7.82 -3.69, -8.4 -4.69 M-6.97 -2.63 C-7.4 -3, -7.72 -3.44, -8.32 -4.54 M-8.36 -4.47 C-8.27 -5.29, -8.42 -6.28, -8.92 -6.78 M-8.15 -4.54 C-8.36 -5.32, -8.49 -6.01, -8.71 -6.87 M-8.82 -6.56 C-8.62 -7.3, -8.76 -7.84, -8.35 -9.21 M-8.72 -6.75 C-8.66 -7.61, -8.58 -8.41, -8.64 -8.98 M-8.41 -9.16 C-8.36 -9.74, -7.94 -10.38, -7.59 -11.26 M-8.64 -9 C-8.2 -9.67, -8.12 -10.34, -7.65 -11.37 M-7.89 -11.09 C-7.33 -11.98, -6.94 -12.64, -6.37 -13.38 M-7.76 -11.36 C-7.37 -11.75, -6.76 -12.47, -6.17 -13.3 M-6.33 -13.18 C-5.94 -13.42, -5.53 -13.67, -5.33 -14.12 M-6.25 -13.17 C-6.05 -13.36, -5.83 -13.57, -5.28 -14 M-5.24 -13.89 C-4.71 -14.39, -4.5 -14.39, -4.11 -14.66 M-5.23 -13.97 C-4.9 -14.17, -4.6 -14.37, -4.01 -14.76 M-3.93 -14.99 C-4.88 -13.93, -5.89 -13.65, -6.67 -13.48 M-4.14 -14.63 C-5.08 -14.17, -5.97 -13.54, -6.48 -13.37 M-6.47 -13.04 C-7.46 -12.65, -7.91 -12.18, -8.33 -11.49 M-6.7 -13.35 C-7.02 -12.86, -7.55 -12.49, -8.55 -11.52 M-8.58 -11.7 C-9.02 -10.77, -9.32 -10.35, -9.9 -9.82 M-8.54 -11.55 C-8.76 -11.08, -9.16 -10.85, -9.76 -9.74 M-9.63 -9.8 C-10.25 -9.05, -10.2 -8.6, -10.41 -7.78 M-9.78 -9.79 C-9.98 -9.04, -10.4 -8.34, -10.48 -7.81 M-10.65 -7.79 C-10.71 -7.32, -10.9 -6.77, -11.06 -5.93 M-10.6 -7.87 C-10.63 -7.21, -10.86 -6.4, -10.96 -5.83 M-10.95 -5.79 C-10.95 -5.05, -10.71 -4.33, -10.97 -3.82 M-10.9 -5.7 C-10.79 -5.09, -10.89 -4.33, -10.87 -3.72 M-10.83 -3.68 C-10.61 -3.17, -10.32 -2.52, -10.31 -1.83 M-10.79 -3.69 C-10.65 -3.45, -10.66 -3.07, -10.35 -1.95 M-10.48 -2.02 C-10.05 -1.66, -10.22 -0.95, -9.52 -0.3 M-10.33 -1.81 C-10.18 -1.43, -10.07 -0.92, -9.61 -0.2 M-9.71 -0.1 C-9.46 0.14, -9.17 0.83, -8.74 1.48 M-9.64 -0.1 C-9.42 0.17, -9.19 0.53, -8.74 1.41 M-8.54 1.26 C-8.31 1.64, -8.02 1.99, -7.52 2.58 M-8.69 1.3 C-8.23 1.84, -7.88 2.21, -7.45 2.62 M-7.52 2.67 C-7.34 2.7, -6.95 2.86, -6.14 3.37 M-7.55 2.61 C-7.12 2.89, -6.75 3.18, -6.28 3.53 M-6.26 3.59 C-5.82 3.71, -5.57 3.71, -4.87 3.91 M-6.21 3.47 C-5.77 3.55, -5.44 3.73, -4.94 3.86 M-4.85 3.77 C-4.4 3.76, -3.9 3.98, -3.53 3.76 M-4.94 3.94 C-4.63 3.87, -4.19 3.92, -3.52 3.81 M-3.59 3.88 C-3.15 3.68, -3.01 3.45, -2.21 3.3 M-3.57 3.77 C-3.28 3.69, -2.94 3.54, -2.25 3.15 M-2.23 3.28 C-1.96 2.76, -1.76 2.67, -1.08 2.1 M-2.18 3.26 C-1.91 2.81, -1.48 2.38, -1.03 2.02 M-0.94 1.83 C-0.45 1.19, -0.21 0.31, -0.22 0.13 M-1.14 2.01 C-0.78 1.33, -0.35 0.67, -0.01 -0.04 M0 0 C0 0, 0 0, 0 0 M0 0 C0 0, 0 0, 0 0 M0 0 C0 0, 0 0, 0 0 M0 0 C0 0, 0 0, 0 0" stroke="#000000" stroke-width="1" fill="none"/></g></g><g stroke-linecap="round"><g transform="translate(68.92466015737068 90.83558695174315) rotate(0 -5.0332701796234005 2.249015731004704)" fill-rule="evenodd"><path d="M-0.42 0.08 L0.85 -0.13 L-2.11 -2.93 L-0.66 -4.2 L-0.89 -4.86 L-3.65 -7.67 L-4.41 -7.27 L-8.32 -8.3 L-8.65 -8.51 L-8.1 -7.32 L-7.52 -8.59 L-9.75 -6.72 L-11.5 -4.82 L-10.32 -1.25 L-11.12 1.28 L-7.77 8.83 L-7.51 14.27 L-10.77 14.32 L-10.09 13.81 L-8.43 13.78 L-8.86 12.47 L-5.68 12.56 L-5.28 11.81 L-4.91 11.36 L-2.19 6.15 L1.01 6.81 L-1.32 5.55 L0.8 2.01 L1.5 1.16 L0.02 1.34" stroke="none" stroke-width="0" fill="black" fill-rule="evenodd"/><path d="M0 0 C0 0, 0 0, 0 0 M0 0 C0 0, 0 0, 0 0 M0.08 0.12 C-0.32 -0.52, -0.39 -1.1, -0.55 -1.9 M-0.02 -0.03 C-0.06 -0.72, -0.25 -1.37, -0.43 -1.75 M-0.32 -1.96 C-0.51 -2.34, -0.93 -2.96, -1.4 -3.76 M-0.35 -1.81 C-0.83 -2.47, -1.06 -3.15, -1.35 -3.65 M-1.51 -3.65 C-1.96 -4.48, -2.23 -4.92, -2.53 -5.56 M-1.31 -3.62 C-1.74 -4.38, -2.17 -5.08, -2.6 -5.66 M-2.78 -5.85 C-2.9 -6.09, -3.31 -6.39, -4.25 -7.36 M-2.56 -5.67 C-3.07 -6.02, -3.47 -6.6, -4.11 -7.3 M-4.13 -7.39 C-4.78 -7.71, -5.29 -7.98, -5.78 -8.24 M-4.15 -7.23 C-4.58 -7.64, -4.98 -7.84, -5.8 -8.48 M-5.83 -8.35 C-5.93 -8.47, -6.17 -8.52, -6.53 -8.75 M-5.79 -8.44 C-6.01 -8.54, -6.2 -8.61, -6.59 -8.79 M-6.59 -8.8 C-6.97 -8.81, -7.2 -8.84, -7.42 -8.84 M-6.58 -8.78 C-6.75 -8.8, -6.99 -8.78, -7.44 -8.87 M-7.38 -8.91 C-7.65 -8.78, -8.03 -8.73, -8.17 -8.66 M-7.43 -8.82 C-7.62 -8.84, -7.9 -8.76, -8.23 -8.7 M-8.15 -8.76 C-8.42 -8.67, -8.61 -8.62, -9.04 -8.29 M-8.23 -8.72 C-8.49 -8.59, -8.74 -8.48, -8.95 -8.36 M-8.93 -8.28 C-9.21 -8.05, -9.66 -7.78, -9.66 -7.58 M-8.97 -8.33 C-9.23 -8.02, -9.55 -7.82, -9.74 -7.67 M-9.7 -7.61 C-9.98 -7.32, -9.98 -7.13, -10.32 -6.67 M-9.72 -7.66 C-9.86 -7.45, -10.05 -7.14, -10.38 -6.57 M-10.44 -6.71 C-9.91 -5.08, -9.85 -3.2, -10.19 -1.68 M-10.13 -6.65 C-10.35 -5.54, -10.1 -4.22, -9.98 -1.91 M-10.24 -1.89 C-10.22 -0.15, -9.94 1.6, -9.52 2.74 M-10.24 -1.53 C-9.69 -0.21, -9.55 1.44, -9.41 3.03 M-9.6 3.43 C-9.1 5.3, -9.49 6.48, -9.3 8.65 M-9.65 3.33 C-9.52 4.54, -9.39 5.95, -8.8 7.99 M-8.55 7.75 C-9.2 10.44, -8.88 11.96, -8.76 13.06 M-8.93 8.35 C-8.98 9.62, -8.58 10.63, -8.5 12.95 M-8.67 13.19 C-8.74 13.2, -8.83 13.23, -8.86 13.29 M-8.69 13.17 C-8.73 13.21, -8.77 13.21, -8.86 13.27 M-8.88 13.27 C-8.8 13.23, -8.72 13.23, -8.69 13.2 M-8.87 13.27 C-8.8 13.24, -8.73 13.22, -8.67 13.2 M-8.69 13.22 C-8.67 13.24, -8.69 13.28, -8.69 13.4 M-8.68 13.21 C-8.69 13.27, -8.67 13.36, -8.67 13.4 M-8.69 13.41 C-8.65 13.32, -8.64 13.27, -8.63 13.19 M-8.66 13.4 C-8.67 13.34, -8.64 13.28, -8.65 13.19 M-8.69 13.21 C-8.3 13.01, -7.79 12.45, -6.84 12.14 M-8.58 13.13 C-8.1 12.95, -7.49 12.45, -6.86 12.08 M-6.94 12.26 C-6.33 12.08, -6.29 11.59, -5.01 11 M-6.8 12.14 C-6.29 11.73, -5.65 11.31, -5.04 10.93 M-5.09 10.8 C-4.36 10.2, -3.88 9.95, -3.69 9.69 M-5.07 10.85 C-4.72 10.42, -4.18 10.01, -3.58 9.4 M-3.27 9.31 C-3.16 9.16, -2.37 8.22, -2.14 7.9 M-3.48 9.49 C-3.26 9.21, -2.82 8.69, -2.06 7.8 M-2.13 7.69 C-1.73 7.44, -1.38 6.86, -1.03 5.92 M-2.02 7.81 C-1.69 7.34, -1.47 6.91, -0.96 6.14 M-0.73 6.09 C-0.41 5.53, -0.33 4.68, 0.05 4.1 M-0.84 6.09 C-0.72 5.55, -0.4 5.19, -0.17 4.09 M-0.21 4.02 C0.01 3.58, 0.18 3.21, 0.28 1.94 M-0.08 4.17 C-0.03 3.58, 0.07 3.01, 0.18 2.13 M0.37 2.32 C0.2 1.69, 0.17 1.2, 0.03 0.14 M0.31 2.03 C0.11 1.61, 0.05 1.09, 0.04 0.03 M0 0 C0 0, 0 0, 0 0 M0 0 C0 0, 0 0, 0 0 M0 0 C0 0, 0 0, 0 0 M0 0 C0 0, 0 0, 0 0" stroke="#000000" stroke-width="1" fill="none"/></g></g><g stroke-linecap="round"><g transform="translate(66.39463086049568 97.6055454478369) rotate(0 -3.014729877517425 -2.143358988830528)" fill-rule="evenodd"><path d="M-1.99 1.01 L1.5 0.53 L-1.27 1.41 L-3.81 4.9 L-2.38 4.06 L-7.08 7.29 L-6.82 2.54 L-5.89 -0.18 L-3.22 -11.6 L-1.33 -8.75 L0.02 -4.74 L1.4 -5.61 L-0.08 -2.2 L-1.11 -0.25 L0.9 -1.28 L0.27 1.74" stroke="none" stroke-width="0" fill="#FFFFFF" fill-rule="evenodd"/><path d="M0 0 C0 0, 0 0, 0 0 M0 0 C0 0, 0 0, 0 0 M-0.2 0.07 C-0.33 0.48, -0.57 0.68, -0.85 1.72 M0.11 -0.06 C-0.3 0.65, -0.74 1.42, -1.08 1.83 M-0.9 1.86 C-1.53 2.26, -1.99 2.97, -2.25 3.53 M-1.1 1.95 C-1.4 2.48, -1.86 3, -2.36 3.62 M-2.58 3.43 C-2.81 3.91, -3.05 4.24, -3.93 4.92 M-2.34 3.59 C-2.85 4.05, -3.46 4.46, -4.09 5.05 M-3.93 4.99 C-4.53 5.55, -5.44 5.7, -6.16 6.4 M-4.14 5.05 C-4.85 5.39, -5.53 5.96, -5.99 6.46 M-6.17 6.4 C-5.77 5.63, -5.84 4.5, -5.65 2.46 M-6.17 6.27 C-5.93 5.41, -5.88 4.13, -5.7 2.12 M-5.57 2.41 C-5.77 1.47, -5.03 0.28, -5.1 -2.05 M-5.59 2.21 C-5.16 1.38, -5.32 0.16, -4.93 -1.83 M-5.93 -2.13 C-5.02 -3.87, -5.05 -5.58, -5.14 -10.75 M-4.67 -2.29 C-4.84 -4.99, -5.13 -8.58, -4.56 -10.02 M-4.63 -10.22 C-4.44 -9.67, -3.58 -9.04, -2.78 -8.15 M-4.7 -10.41 C-4.22 -9.6, -3.51 -8.89, -2.86 -8.1 M-2.87 -8.34 C-2.57 -7.88, -2.15 -6.99, -1.04 -5.42 M-2.84 -8.17 C-2.54 -7.74, -1.94 -7.34, -0.94 -5.8 M-0.97 -5.72 C-1.02 -5.28, -0.61 -4.75, -0.35 -4.25 M-1.03 -5.66 C-0.91 -5.38, -0.77 -4.98, -0.5 -4.38 M-0.58 -4.31 C-0.21 -3.88, -0.11 -3.32, -0.21 -2.94 M-0.49 -4.39 C-0.43 -3.84, -0.25 -3.4, -0.05 -2.88 M0.01 -2.97 C0.04 -2.54, -0.05 -2.15, 0.04 -1.6 M-0.09 -2.99 C0.03 -2.46, 0.07 -1.94, 0.14 -1.52 M-0.02 -1.55 C-0.04 -1.02, 0 -0.51, 0.05 -0.06 M0.14 -1.52 C0.09 -1.19, 0.05 -0.85, 0.05 -0.06 M0 0 C0 0, 0 0, 0 0 M0 0 C0 0, 0 0, 0 0 M0 0 C0 0, 0 0, 0 0 M0 0 C0 0, 0 0, 0 0" stroke="#000000" stroke-width="1" fill="none"/></g></g></svg>