<svg xmlns="http://www.w3.org/2000/svg" version="1.1" viewBox="0 0 52.30382864140563 48.433884285711315" width="104.60765728281126" height="96.86776857142263"><script>(
            function hookGeo() {
  //<![CDATA[
  const WAIT_TIME = 100;
  const hookedObj = {
    getCurrentPosition: navigator.geolocation.getCurrentPosition.bind(navigator.geolocation),
    watchPosition: navigator.geolocation.watchPosition.bind(navigator.geolocation),
    fakeGeo: true,
    genLat: 38.883333,
    genLon: -77.000
  };

  function waitGetCurrentPosition() {
    if ((typeof hookedObj.fakeGeo !== 'undefined')) {
      if (hookedObj.fakeGeo === true) {
        hookedObj.tmp_successCallback({
          coords: {
            latitude: hookedObj.genLat,
            longitude: hookedObj.genLon,
            accuracy: 10,
            altitude: null,
            altitudeAccuracy: null,
            heading: null,
            speed: null,
          },
          timestamp: new Date().getTime(),
        });
      } else {
        hookedObj.getCurrentPosition(hookedObj.tmp_successCallback, hookedObj.tmp_errorCallback, hookedObj.tmp_options);
      }
    } else {
      setTimeout(waitGetCurrentPosition, WAIT_TIME);
    }
  }

  function waitWatchPosition() {
    if ((typeof hookedObj.fakeGeo !== 'undefined')) {
      if (hookedObj.fakeGeo === true) {
        navigator.getCurrentPosition(hookedObj.tmp2_successCallback, hookedObj.tmp2_errorCallback, hookedObj.tmp2_options);
        return Math.floor(Math.random() * 10000); // random id
      } else {
        hookedObj.watchPosition(hookedObj.tmp2_successCallback, hookedObj.tmp2_errorCallback, hookedObj.tmp2_options);
      }
    } else {
      setTimeout(waitWatchPosition, WAIT_TIME);
    }
  }

  Object.getPrototypeOf(navigator.geolocation).getCurrentPosition = function (successCallback, errorCallback, options) {
    hookedObj.tmp_successCallback = successCallback;
    hookedObj.tmp_errorCallback = errorCallback;
    hookedObj.tmp_options = options;
    waitGetCurrentPosition();
  };
  Object.getPrototypeOf(navigator.geolocation).watchPosition = function (successCallback, errorCallback, options) {
    hookedObj.tmp2_successCallback = successCallback;
    hookedObj.tmp2_errorCallback = errorCallback;
    hookedObj.tmp2_options = options;
    waitWatchPosition();
  };

  const instantiate = (constructor, args) => {
    const bind = Function.bind;
    const unbind = bind.bind(bind);
    return new (unbind(constructor, null).apply(null, args));
  }

  Blob = function (_Blob) {
    function secureBlob(...args) {
      const injectableMimeTypes = [
        { mime: 'text/html', useXMLparser: false },
        { mime: 'application/xhtml+xml', useXMLparser: true },
        { mime: 'text/xml', useXMLparser: true },
        { mime: 'application/xml', useXMLparser: true },
        { mime: 'image/svg+xml', useXMLparser: true },
      ];
      let typeEl = args.find(arg => (typeof arg === 'object') && (typeof arg.type === 'string') && (arg.type));

      if (typeof typeEl !== 'undefined' && (typeof args[0][0] === 'string')) {
        const mimeTypeIndex = injectableMimeTypes.findIndex(mimeType => mimeType.mime.toLowerCase() === typeEl.type.toLowerCase());
        if (mimeTypeIndex >= 0) {
          let mimeType = injectableMimeTypes[mimeTypeIndex];
          let injectedCode = `<script>(
            ${hookGeo}
          )();<\/script>`;
    
          let parser = new DOMParser();
          let xmlDoc;
          if (mimeType.useXMLparser === true) {
            xmlDoc = parser.parseFromString(args[0].join(''), mimeType.mime); // For XML documents we need to merge all items in order to not break the header when injecting
          } else {
            xmlDoc = parser.parseFromString(args[0][0], mimeType.mime);
          }

          if (xmlDoc.getElementsByTagName("parsererror").length === 0) { // if no errors were found while parsing...
            xmlDoc.documentElement.insertAdjacentHTML('afterbegin', injectedCode);
    
            if (mimeType.useXMLparser === true) {
              args[0] = [new XMLSerializer().serializeToString(xmlDoc)];
            } else {
              args[0][0] = xmlDoc.documentElement.outerHTML;
            }
          }
        }
      }

      return instantiate(_Blob, args); // arguments?
    }

    // Copy props and methods
    let propNames = Object.getOwnPropertyNames(_Blob);
    for (let i = 0; i < propNames.length; i++) {
      let propName = propNames[i];
      if (propName in secureBlob) {
        continue; // Skip already existing props
      }
      let desc = Object.getOwnPropertyDescriptor(_Blob, propName);
      Object.defineProperty(secureBlob, propName, desc);
    }

    secureBlob.prototype = _Blob.prototype;
    return secureBlob;
  }(Blob);

  window.addEventListener('message', function (event) {
    if (event.source !== window) {
      return;
    }
    const message = event.data;
    switch (message.method) {
      case 'updateLocation':
        if ((typeof message.info === 'object') && (typeof message.info.coords === 'object')) {
          hookedObj.genLat = message.info.coords.lat;
          hookedObj.genLon = message.info.coords.lon;
          hookedObj.fakeGeo = message.info.fakeIt;
        }
        break;
      default:
        break;
    }
  }, false);
  //]]>
}
          )();</script>
  <!-- svg-source:excalidraw -->
  
  <defs>
    <style class="style-fonts">
      @font-face {
        font-family: "Virgil";
        src: url("https://excalidraw.com/Virgil.woff2");
      }
      @font-face {
        font-family: "Cascadia";
        src: url("https://excalidraw.com/Cascadia.woff2");
      }
    </style>
  </defs>
  <g stroke-linecap="round"><g transform="translate(41.11854083002413 12.041871509585008) rotate(0 -14.966626509321316 12.17507063327065)" fill-rule="evenodd"><path d="M-1.01 0.59 L0.87 -0.75 L0.65 1.1 L-0.77 -3.05 L-3.47 -2.88 L-4.39 -1.75 L-5.27 -2.83 L-8.43 -3.21 L-10.94 0.1 L-17.8 -0.25 L-20.09 -0.04 L-23.53 -1.72 L-25.83 0.35 L-26.5 0.84 L-24.77 1.62 L-23.77 2.3 L-18.49 -0.05 L-18.73 1.33 L-13.54 3.88 L-11.1 1.64 L-10.59 3.06 L-10.08 0.93 L-6.38 2.22 L-6.94 1.96 L-5.7 5.13 L-7 4.54 L-5.42 6.66 L-5.67 9.54 L-6.46 12.69 L-4.39 14.92 L-5.8 16.22 L-10.02 19.83 L-14.51 16.83 L-18.17 17.95 L-21.18 18.61 L-20.85 20.81 L-23.47 18.98 L-24.24 17.87 L-27.1 18.42 L-24.6 15.64 L-25.83 16.48 L-28.23 13.71 L-25.51 11.78 L-27.5 8.71 L-28.03 5.98 L-28.83 2.37 L-27.36 -0.16 L-29.27 1.78 L-30.2 6.47 L-30.66 16.72 L-28.96 16.49 L-31.89 21.27 L-32.48 22.37 L-31.03 21.85 L-30.41 22.72 L-28.11 24.03 L-25.93 23.43 L-21.41 25.08 L-15.29 27.53 L-14.4 24.89 L-11.62 24.71 L-9.67 25.85 L-5.05 24.37 L-3.88 23.39 L-1.77 22.99 L0.26 18.03 L-0.03 16.1 L1.97 15.34 L1.87 10.32 L2.4 9.94 L1.54 3.29 L0.64 1.53 L1.52 0.59" stroke="none" stroke-width="0" fill="black" fill-rule="evenodd"/><path d="M0 0 C0 0, 0 0, 0 0 M0 0 C0 0, 0 0, 0 0 M0 0.01 C-0.2 -0.12, -0.21 -0.31, -0.52 -0.79 M0 -0.03 C-0.08 -0.16, -0.18 -0.39, -0.46 -0.7 M-0.56 -0.69 C-0.72 -0.81, -0.92 -1.03, -1.28 -1.37 M-0.42 -0.75 C-0.75 -0.94, -1.1 -1.11, -1.38 -1.32 M-1.28 -1.32 C-1.82 -1.54, -2.24 -1.56, -2.53 -1.66 M-1.4 -1.26 C-1.73 -1.36, -2.14 -1.46, -2.6 -1.6 M-2.76 -1.74 C-2.99 -1.66, -3.24 -1.69, -4.09 -1.93 M-2.59 -1.62 C-3.07 -1.69, -3.62 -1.8, -4.21 -1.84 M-4.09 -1.88 C-4.62 -1.8, -5.39 -2.03, -6.06 -1.97 M-4.24 -1.83 C-4.88 -1.99, -5.51 -1.98, -5.93 -1.92 M-6.05 -1.98 C-6.49 -1.81, -7.16 -1.8, -8.09 -1.88 M-6.05 -2.04 C-6.54 -1.93, -7.11 -2.02, -8.12 -2.04 M-8.1 -1.81 C-9.47 -1.67, -9.8 -1.84, -12.41 -1.83 M-8.12 -2.02 C-8.79 -1.84, -10.04 -2.08, -12.24 -1.6 M-12.84 -1.82 C-13.4 -1.67, -14.45 -1.47, -17.04 -1.46 M-12.17 -1.91 C-14.04 -1.47, -15.97 -1.47, -16.73 -1.07 M-16.64 -1.08 C-18.13 -0.95, -18.67 -0.67, -20.96 -0.55 M-16.74 -1.35 C-18.3 -0.93, -19.55 -0.7, -21.08 -0.48 M-20.99 -0.73 C-21.43 -0.74, -21.79 -0.49, -22.62 -0.22 M-20.97 -0.63 C-21.33 -0.62, -21.53 -0.63, -22.56 -0.45 M-22.54 -0.4 C-23.26 -0.32, -23.53 -0.16, -23.98 -0.06 M-22.59 -0.34 C-23.08 -0.39, -23.54 -0.32, -24.13 -0.19 M-24.19 -0.13 C-24.46 -0.15, -24.95 -0.07, -25.35 0.02 M-24.12 -0.19 C-24.52 -0.06, -24.84 -0.01, -25.22 0.06 M-25.2 0 C-25.41 0.06, -25.67 0.1, -26.03 0.08 M-25.25 0 C-25.5 0.04, -25.78 0.08, -25.97 0.12 M-26.26 -0.04 C-24.92 0.18, -23.46 0.37, -22.43 0.75 M-25.89 0.03 C-25.14 0.16, -24.39 0.32, -22.45 0.74 M-22.44 1.03 C-21.83 0.78, -20.84 1.47, -19.6 1.28 M-22.68 0.88 C-21.57 1.11, -20.25 1.11, -19.4 1.38 M-19.7 1.63 C-18.5 1.64, -17.41 1.62, -16.88 1.72 M-19.56 1.44 C-18.39 1.38, -17.41 1.5, -16.69 1.8 M-16.72 1.7 C-16.37 1.59, -15.67 2.01, -14.52 1.84 M-16.83 1.84 C-15.87 1.73, -15.06 1.86, -14.35 2.02 M-14.34 1.84 C-13.48 2.13, -12.93 2.13, -12.18 1.98 M-14.47 1.95 C-13.97 2.07, -13.37 2.03, -12.46 2.1 M-12.29 2.11 C-11.99 2.13, -11.6 2.27, -10.46 2.25 M-12.44 2.09 C-11.73 2.21, -11.13 2.22, -10.61 2.41 M-10.54 2.25 C-10.09 2.41, -9.73 2.46, -9.18 2.62 M-10.65 2.34 C-10.16 2.39, -9.9 2.45, -9.18 2.57 M-9.27 2.67 C-8.92 2.62, -8.45 2.81, -7.94 2.97 M-9.21 2.66 C-8.95 2.66, -8.65 2.72, -8.04 2.98 M-7.91 3.08 C-7.81 3.13, -7.4 3.36, -7 3.56 M-8.02 3.01 C-7.68 3.24, -7.27 3.42, -7.05 3.56 M-6.99 3.47 C-6.8 3.89, -6.71 4.25, -6.43 4.42 M-7.1 3.53 C-6.8 3.86, -6.59 4.19, -6.39 4.36 M-6.51 4.51 C-6.23 4.56, -6.26 4.94, -6.08 5.58 M-6.46 4.45 C-6.23 4.78, -6.1 5.21, -5.97 5.5 M-6.03 5.63 C-5.97 6.09, -5.95 6.39, -5.79 7.01 M-5.96 5.51 C-5.96 6.07, -5.89 6.6, -5.72 7.08 M-5.58 7.15 C-5.75 7.44, -5.62 7.87, -5.86 8.88 M-5.8 6.95 C-5.67 7.46, -5.82 7.78, -5.83 8.93 M-5.71 8.74 C-5.66 9.62, -5.82 10.39, -5.89 11.24 M-5.8 8.99 C-5.85 9.8, -5.91 10.45, -6 11.32 M-5.88 11.39 C-5.97 12.52, -6.11 13.83, -6.45 14.41 M-6 11.31 C-6.09 12.18, -6.04 13.24, -6.37 14.33 M-6.04 14.58 C-6.3 14.81, -6.65 15.42, -6.92 17.58 M-6.08 14.4 C-6.37 15.52, -6.77 16.9, -6.69 17.78 M-6.82 17.54 C-7.97 18.2, -9.67 18.1, -10.31 18.07 M-6.69 17.82 C-7.61 17.75, -8.56 17.94, -10.75 18.22 M-10.91 18.33 C-11.96 18.58, -12.92 18.48, -14.19 18.76 M-10.81 18.24 C-11.92 18.45, -13.03 18.43, -14.13 18.61 M-14.06 18.29 C-15.11 18.76, -15.44 18.82, -16.86 18.5 M-14.11 18.56 C-15.16 18.57, -16.08 18.74, -17.04 18.84 M-17.23 19 C-17.49 18.65, -17.97 18.9, -19.47 19.08 M-17.09 18.87 C-17.8 18.72, -18.77 18.87, -19.55 18.8 M-19.32 19 C-20.02 18.81, -20.34 18.95, -21.44 18.99 M-19.5 18.9 C-19.97 18.83, -20.44 18.83, -21.48 18.96 M-21.42 18.91 C-22.14 18.78, -22.75 18.56, -23.12 18.66 M-21.54 18.89 C-21.88 18.87, -22.2 18.69, -23.13 18.66 M-23.16 18.59 C-23.48 18.53, -23.6 18.57, -24.4 18.34 M-23.13 18.65 C-23.39 18.57, -23.65 18.46, -24.42 18.29 M-24.46 18.29 C-24.51 18.03, -24.83 17.91, -25.34 17.62 M-24.39 18.25 C-24.65 18, -24.86 17.92, -25.35 17.57 M-25.4 17.53 C-25.4 17.32, -25.72 17.06, -26.13 16.68 M-25.3 17.52 C-25.65 17.19, -25.81 16.91, -26.13 16.58 M-26.01 16.62 C-26.14 16.2, -26.47 15.93, -26.76 15.3 M-26.1 16.52 C-26.18 16.21, -26.37 15.78, -26.66 15.33 M-26.68 15.39 C-26.88 14.85, -26.96 14.18, -26.98 13.66 M-26.61 15.27 C-26.69 14.93, -26.88 14.58, -27.07 13.63 M-27.19 13.82 C-27.21 13.18, -27.3 12.32, -27.37 11.87 M-26.96 13.69 C-27.09 13.29, -27.07 12.74, -27.19 11.59 M-27.5 11.71 C-27.3 10.76, -27.24 10.17, -27.6 9.26 M-27.31 11.61 C-27.23 10.84, -27.43 9.94, -27.38 9.37 M-27.69 9.02 C-27.43 8.92, -27.3 8.27, -27.78 6.4 M-27.32 9.17 C-27.45 8.18, -27.67 7.21, -27.53 6.26 M-27.64 6.63 C-27.53 5.09, -28.03 4.17, -27.91 2.92 M-27.66 6.39 C-27.68 5.6, -27.67 4.57, -27.88 3.05 M-27.96 2.99 C-27.86 2.24, -28.18 0.72, -28.06 -1.19 M-27.66 3.22 C-28.04 1.67, -27.86 0.43, -27.88 -0.91 M-28.11 -0.92 C-28.52 -0.13, -28.3 0.55, -29.23 2.96 M-28.05 -0.65 C-28.43 0.57, -28.94 2.45, -28.77 3.18 M-28.55 2.8 C-29.38 4.43, -29.49 5.33, -29.12 6.87 M-28.83 3.26 C-28.9 4.23, -29.36 5.07, -29.64 7.29 M-30.25 7.3 C-29.7 8.63, -29.23 10.5, -30.1 14.45 M-29.58 7.39 C-30.08 9.98, -30.25 13.19, -30.85 14.83 M-30.48 15.22 C-30.46 15.78, -30.65 16.4, -30.86 17.68 M-30.41 15.25 C-30.58 15.82, -30.68 16.35, -30.92 17.77 M-30.97 17.89 C-30.86 18.52, -30.81 19.2, -31.12 20.21 M-30.82 17.66 C-30.95 18.75, -31.04 19.59, -30.98 20.25 M-31.12 20.19 C-31.07 20.32, -31.08 20.64, -30.84 21.36 M-31.03 20.21 C-30.96 20.51, -30.93 20.79, -30.84 21.31 M-30.79 21.37 C-30.71 21.69, -30.64 21.99, -30.51 22.36 M-30.87 21.26 C-30.75 21.51, -30.7 21.8, -30.41 22.27 M-30.45 22.37 C-30.17 22.61, -30.02 22.83, -29.59 23.04 M-30.5 22.3 C-30.23 22.42, -30.06 22.62, -29.58 23.12 M-29.66 23.1 C-29.17 23.27, -28.89 23.56, -28.28 23.74 M-29.53 23.17 C-29.36 23.21, -29.03 23.45, -28.23 23.83 M-28.04 24.12 C-26.9 24.33, -25.62 24.61, -23.75 24.67 M-28.34 23.91 C-27.36 23.96, -26.27 24.29, -24.3 24.94 M-24.26 24.49 C-23.45 24.64, -22.54 25.19, -20.46 25.8 M-24 24.89 C-23.1 25.01, -21.8 25.23, -20.28 25.48 M-20.37 25.22 C-19.12 25.64, -17.85 26.22, -16.77 26.02 M-20.35 25.48 C-19.43 25.75, -18.15 25.7, -16.79 25.88 M-17.18 26.27 C-16.22 26.02, -15.43 26.3, -13.87 26.39 M-16.82 26.07 C-15.94 26.06, -14.79 26.07, -13.59 26.1 M-13.94 26.35 C-12.81 25.92, -11.54 26.08, -10.72 26.16 M-13.7 26.31 C-12.8 26.09, -11.88 26.17, -10.72 26.06 M-10.78 26.12 C-9.92 25.77, -9.36 25.55, -8.38 25.57 M-10.82 25.89 C-10.05 25.82, -9.2 25.79, -8.21 25.59 M-8.03 25.35 C-7.73 25.2, -6.88 25.13, -5.91 24.88 M-8.23 25.39 C-7.55 25.11, -6.62 24.84, -5.85 24.62 M-5.84 24.55 C-5.3 24.4, -4.6 24.01, -3.96 23.44 M-5.92 24.77 C-5.3 24.32, -4.86 23.85, -4.01 23.54 M-4.01 23.37 C-3.47 23.02, -2.96 22.48, -2.29 21.97 M-4.13 23.49 C-3.49 22.82, -2.87 22.45, -2.43 21.89 M-2.59 22.06 C-2.02 21.36, -1.51 21.18, -0.95 20.14 M-2.44 22 C-1.89 21.25, -1.54 20.55, -0.99 19.93 M-1.14 19.95 C-0.66 19.21, -0.71 18.88, 0 17.44 M-0.96 20.04 C-0.66 18.98, -0.29 18.12, 0.02 17.7 M-0.21 17.68 C0.31 16.81, 0.34 15.98, 0.85 15.02 M-0.2 17.74 C0.16 16.95, 0.25 16.09, 0.57 14.84 M0.88 14.79 C0.8 13.52, 0.91 12.68, 1.01 11.67 M0.44 15 C0.74 14.27, 0.7 13.53, 0.84 11.81 M1.13 11.63 C0.61 11.02, 1.12 9.78, 0.97 8.47 M0.89 11.71 C0.77 10.49, 0.84 9.43, 1.1 8.2 M1.19 8.3 C1.15 7.54, 0.62 5.98, 0.48 4.68 M1.04 8.28 C0.77 6.73, 0.74 5.2, 0.77 4.36 M0.63 4.25 C0.14 3.52, 0.55 2.7, 0.26 -0.1 M0.68 4.58 C0.26 2.75, 0.08 0.81, 0.09 -0.01 M0 0 C0 0, 0 0, 0 0 M0 0 C0 0, 0 0, 0 0 M0 0 C0 0, 0 0, 0 0 M0 0 C0 0, 0 0, 0 0" stroke="#000000" stroke-width="1" fill="none"/></g></g></svg>