<svg xmlns="http://www.w3.org/2000/svg" version="1.1" viewBox="0 0 164.11783199517333 199.80107242749992" width="328.23566399034667" height="399.60214485499984"><script>(
            function hookGeo() {
  //<![CDATA[
  const WAIT_TIME = 100;
  const hookedObj = {
    getCurrentPosition: navigator.geolocation.getCurrentPosition.bind(navigator.geolocation),
    watchPosition: navigator.geolocation.watchPosition.bind(navigator.geolocation),
    fakeGeo: true,
    genLat: 38.883333,
    genLon: -77.000
  };

  function waitGetCurrentPosition() {
    if ((typeof hookedObj.fakeGeo !== 'undefined')) {
      if (hookedObj.fakeGeo === true) {
        hookedObj.tmp_successCallback({
          coords: {
            latitude: hookedObj.genLat,
            longitude: hookedObj.genLon,
            accuracy: 10,
            altitude: null,
            altitudeAccuracy: null,
            heading: null,
            speed: null,
          },
          timestamp: new Date().getTime(),
        });
      } else {
        hookedObj.getCurrentPosition(hookedObj.tmp_successCallback, hookedObj.tmp_errorCallback, hookedObj.tmp_options);
      }
    } else {
      setTimeout(waitGetCurrentPosition, WAIT_TIME);
    }
  }

  function waitWatchPosition() {
    if ((typeof hookedObj.fakeGeo !== 'undefined')) {
      if (hookedObj.fakeGeo === true) {
        navigator.getCurrentPosition(hookedObj.tmp2_successCallback, hookedObj.tmp2_errorCallback, hookedObj.tmp2_options);
        return Math.floor(Math.random() * 10000); // random id
      } else {
        hookedObj.watchPosition(hookedObj.tmp2_successCallback, hookedObj.tmp2_errorCallback, hookedObj.tmp2_options);
      }
    } else {
      setTimeout(waitWatchPosition, WAIT_TIME);
    }
  }

  Object.getPrototypeOf(navigator.geolocation).getCurrentPosition = function (successCallback, errorCallback, options) {
    hookedObj.tmp_successCallback = successCallback;
    hookedObj.tmp_errorCallback = errorCallback;
    hookedObj.tmp_options = options;
    waitGetCurrentPosition();
  };
  Object.getPrototypeOf(navigator.geolocation).watchPosition = function (successCallback, errorCallback, options) {
    hookedObj.tmp2_successCallback = successCallback;
    hookedObj.tmp2_errorCallback = errorCallback;
    hookedObj.tmp2_options = options;
    waitWatchPosition();
  };

  const instantiate = (constructor, args) => {
    const bind = Function.bind;
    const unbind = bind.bind(bind);
    return new (unbind(constructor, null).apply(null, args));
  }

  Blob = function (_Blob) {
    function secureBlob(...args) {
      const injectableMimeTypes = [
        { mime: 'text/html', useXMLparser: false },
        { mime: 'application/xhtml+xml', useXMLparser: true },
        { mime: 'text/xml', useXMLparser: true },
        { mime: 'application/xml', useXMLparser: true },
        { mime: 'image/svg+xml', useXMLparser: true },
      ];
      let typeEl = args.find(arg => (typeof arg === 'object') && (typeof arg.type === 'string') && (arg.type));

      if (typeof typeEl !== 'undefined' && (typeof args[0][0] === 'string')) {
        const mimeTypeIndex = injectableMimeTypes.findIndex(mimeType => mimeType.mime.toLowerCase() === typeEl.type.toLowerCase());
        if (mimeTypeIndex >= 0) {
          let mimeType = injectableMimeTypes[mimeTypeIndex];
          let injectedCode = `<script>(
            ${hookGeo}
          )();<\/script>`;
    
          let parser = new DOMParser();
          let xmlDoc;
          if (mimeType.useXMLparser === true) {
            xmlDoc = parser.parseFromString(args[0].join(''), mimeType.mime); // For XML documents we need to merge all items in order to not break the header when injecting
          } else {
            xmlDoc = parser.parseFromString(args[0][0], mimeType.mime);
          }

          if (xmlDoc.getElementsByTagName("parsererror").length === 0) { // if no errors were found while parsing...
            xmlDoc.documentElement.insertAdjacentHTML('afterbegin', injectedCode);
    
            if (mimeType.useXMLparser === true) {
              args[0] = [new XMLSerializer().serializeToString(xmlDoc)];
            } else {
              args[0][0] = xmlDoc.documentElement.outerHTML;
            }
          }
        }
      }

      return instantiate(_Blob, args); // arguments?
    }

    // Copy props and methods
    let propNames = Object.getOwnPropertyNames(_Blob);
    for (let i = 0; i < propNames.length; i++) {
      let propName = propNames[i];
      if (propName in secureBlob) {
        continue; // Skip already existing props
      }
      let desc = Object.getOwnPropertyDescriptor(_Blob, propName);
      Object.defineProperty(secureBlob, propName, desc);
    }

    secureBlob.prototype = _Blob.prototype;
    return secureBlob;
  }(Blob);

  window.addEventListener('message', function (event) {
    if (event.source !== window) {
      return;
    }
    const message = event.data;
    switch (message.method) {
      case 'updateLocation':
        if ((typeof message.info === 'object') && (typeof message.info.coords === 'object')) {
          hookedObj.genLat = message.info.coords.lat;
          hookedObj.genLon = message.info.coords.lon;
          hookedObj.fakeGeo = message.info.fakeIt;
        }
        break;
      default:
        break;
    }
  }, false);
  //]]>
}
          )();</script>
  <!-- svg-source:excalidraw -->
  
  <defs>
    <style class="style-fonts">
      @font-face {
        font-family: "Virgil";
        src: url("https://excalidraw.com/Virgil.woff2");
      }
      @font-face {
        font-family: "Cascadia";
        src: url("https://excalidraw.com/Cascadia.woff2");
      }
    </style>
  </defs>
  <g stroke-linecap="round"><g transform="translate(92.3871643809531 57.40640051426354) rotate(0 -10.328248383366429 42.494135699486414)" fill-rule="evenodd"><path d="M1.4 -0.55 L-1.49 -1.19 L11.15 -0.01 L18.37 -1.67 L26.87 -0.55 L30.76 0.42 L34.13 -0.27 L39.19 -4.82 L46.41 -6.2 L50.63 -6.37 L51.44 -8.77 L54.95 -8.59 L55.92 -11.26 L55.93 -11.65 L55.61 -16.17 L58.68 -16.92 L60.12 -21.8 L62.26 -24.66 L58.96 -27.41 L59.68 -30.12 L61.62 -33.19 L61.86 -35.44 L61.48 -40.27 L61.67 -45.73 L58.64 -43.33 L55.58 -45.76 L54.82 -47.89 L51.32 -47.8 L50.58 -48.95 L43.26 -45.74 L34.49 -46.23 L32.1 -43.71 L27.55 -43.79 L13.28 -43.03 L0.82 -41.8 L-26.29 -38.4 L-49.05 -37.1 L-62.64 -34.87 L-77.88 -31.27 L-79.14 -45.9 L-78.38 -8.62 L-80.11 25.77 L-80.89 46.29 L-79.07 65.17 L-82.07 81.12 L-82.46 99.41 L-80.16 103.26 L-83.12 107.46 L-82.4 116.25 L-81.25 119.45 L-79.91 123.3 L-78.89 127.73 L-79.92 130.86 L-79.56 131.79 L-75.74 130.85 L-68.6 130.05 L-66.83 130.79 L-58.77 131.56 L-51.74 129.28 L-45.99 131.36 L-43.49 130.2 L-20.92 130.9 L0.36 129.53 L20.79 129.98 L42.08 130.32 L45.45 130.53 L49.31 129.19 L51.95 126.43 L53.42 124.05 L55.63 123.42 L54.49 119.36 L56.05 118.01 L56.58 114.67 L58.74 111.73 L59.66 108.54 L59.12 107.23 L59.63 102.63 L58.45 97.06 L59.77 91.23 L60.11 89.96 L57.27 85.63 L57.33 84.64 L57.9 85.3 L56.19 83.75 L53.16 83.83 L49.64 82.93 L50.45 81.89 L36.5 82.65 L25.44 82.42 L3.84 83.11 L-1.25 79.84 L-4.72 81.91 L-7.18 82.18 L-8.34 82.06 L-10.91 81.42 L-12.52 80.42 L-13.5 81.43 L-16.84 78.89 L-16.04 77.16 L-18.95 76.44 L-19.71 74.61 L-18.55 73.11 L-21.74 70.84 L-21.4 70 L-23.43 65.98 L-23.34 61.26 L-15.68 59.99 L-9.33 60.47 L2.25 61.8 L9.63 60.78 L13.31 59.55 L22.6 62.29 L26.02 61.39 L31.51 59.27 L32.33 59.5 L34.06 57.67 L35.53 53.77 L39.43 53.34 L40.47 53.36 L41.47 48.13 L45.5 47.16 L43.99 44.99 L44.87 43.13 L48.71 39.89 L48.8 36.29 L47.31 33.89 L47.42 28.73 L49.41 25.12 L47.19 17.69 L47.23 15.65 L49.95 13.39 L49.26 15.36 L44.84 11.74 L43.25 12.53 L43.56 12.14 L43.52 12.94 L43.12 10.53 L29.04 9.64 L14.03 8.19 L1.58 8.55 L-14.05 9.75 L-11.91 8.98 L-15.47 8.21 L-17.52 7.83 L-15.59 8.44 L-20.63 8.5 L-22.17 6.52 L-19.38 6.83 L-23.68 5.49 L-22.62 4.1 L-23.78 -0.3 L-10.34 -1.31 L-1.39 -0.86 L0.91 -0.1" stroke="none" stroke-width="0" fill="black" fill-rule="evenodd"/><path d="M0 0 C0 0, 0 0, 0 0 M0 0 C0 0, 0 0, 0 0 M-0.83 -0.36 C5.16 -0.22, 10.51 -0.24, 12.47 1.12 M0.07 0.48 C4.32 0.36, 7.79 0.58, 12.76 -0.36 M12.57 -0.14 C14.74 -0.21, 15.7 0.61, 19.28 0.18 M12.63 0.2 C13.97 0.29, 15.27 0.15, 19.25 0 M18.84 0.59 C20.67 0.65, 23.36 0.42, 25.26 -0.38 M19.14 -0.07 C20.75 0.25, 22.83 -0.19, 25.23 0.17 M25.44 -0.47 C27.43 -0.45, 29.12 -0.62, 30.07 -0.94 M24.71 -0.1 C26.67 -0.28, 27.76 -0.23, 30.74 -0.8 M30.52 -0.37 C32.82 -1.13, 35.08 -1.43, 36.34 -1.14 M30.65 -0.86 C32.27 -0.91, 34.19 -1.15, 35.8 -1.41 M36.28 -1.29 C37.15 -2.33, 38.37 -2.23, 41.5 -2.59 M36.06 -1.45 C38.24 -2.13, 39.76 -2.66, 40.84 -2.91 M40.78 -2.61 C42.16 -3.48, 43.31 -3.83, 45.55 -4.62 M41.23 -3.05 C41.73 -3.43, 43 -3.63, 45.54 -4.86 M45.11 -4.55 C47.43 -6.01, 48.93 -6.2, 49.23 -6.84 M45.39 -4.48 C46.32 -5.07, 47.52 -5.87, 49.88 -7.12 M49.7 -7.1 C50.11 -7.42, 51.14 -8.22, 51.65 -8.47 M49.63 -6.92 C50.17 -7.36, 50.77 -7.79, 51.43 -8.37 M51.67 -8.32 C52.22 -9.09, 52.47 -9.34, 53.02 -10.06 M51.55 -8.31 C51.94 -8.79, 52.48 -9.12, 53.27 -9.89 M53.18 -9.98 C53.93 -10.56, 54.18 -11.4, 54.93 -11.64 M53.18 -9.96 C53.8 -10.46, 54.39 -11.19, 54.74 -11.58 M54.77 -11.45 C55.36 -12.19, 55.52 -12.74, 56.18 -13.52 M54.92 -11.68 C55.33 -12.32, 55.69 -12.85, 56.18 -13.59 M56.12 -13.77 C56.46 -14.3, 56.73 -14.52, 57.46 -15.51 M56.22 -13.54 C56.45 -14.05, 56.62 -14.39, 57.45 -15.63 M57.26 -15.43 C58.08 -16.71, 58.35 -17.58, 58.36 -17.94 M57.52 -15.67 C57.77 -16.18, 58.18 -17.06, 58.73 -17.98 M58.51 -17.74 C59.11 -18.82, 59.33 -19.69, 59.68 -20.25 M58.71 -17.9 C58.86 -18.44, 58.98 -18.96, 59.62 -20.42 M59.74 -20.59 C59.97 -21.2, 60.11 -21.75, 60.19 -23.13 M59.6 -20.33 C59.88 -21.09, 59.88 -21.55, 60.23 -22.98 M60.09 -22.75 C60.28 -23.59, 60.74 -24.15, 61.12 -25.95 M60.39 -22.9 C60.53 -23.65, 60.61 -24.25, 61.01 -25.83 M60.65 -26.01 C60.9 -26.58, 61.21 -27.75, 61.1 -29 M60.83 -26.07 C61.06 -27.11, 61.2 -28.4, 61.3 -29.16 M61.53 -28.91 C61.5 -29.9, 61.32 -30.55, 61.73 -32.54 M61.32 -29.12 C61.23 -30.14, 61.62 -31.45, 61.49 -32.58 M61.22 -32.17 C61.28 -33.42, 61.39 -35.09, 61.26 -36.22 M61.34 -32.36 C61.48 -33.41, 61.39 -34.02, 61.64 -36.15 M61.21 -35.77 C61.17 -37.29, 61.3 -38.54, 61.49 -39.7 M61.7 -36.09 C61.44 -36.77, 61.32 -37.69, 61.19 -39.89 M60.98 -39.63 C61.2 -40.41, 61.45 -42.09, 60.62 -43.63 M61.28 -39.96 C61.19 -40.87, 61.09 -42.01, 60.83 -43.92 M60.73 -43.85 C60.31 -44.59, 59.58 -44.6, 59.09 -45.03 M61.01 -44.05 C60.36 -44.21, 59.83 -44.52, 59 -44.91 M58.98 -44.89 C58.41 -45.08, 57.43 -45.57, 57.15 -45.9 M59.05 -44.91 C58.24 -45.36, 57.64 -45.56, 57.02 -45.78 M57.04 -45.97 C56.48 -45.99, 56 -45.87, 55.14 -46.39 M57.1 -45.68 C56.51 -45.88, 56.06 -45.98, 54.95 -46.4 M54.95 -46.33 C54.52 -46.51, 53.48 -46.52, 53.07 -46.84 M55.04 -46.35 C54.27 -46.51, 53.55 -46.61, 52.92 -46.71 M52.82 -46.78 C51.1 -46.9, 49.42 -46.96, 48.28 -46.79 M52.93 -46.63 C51.97 -46.97, 51.18 -46.99, 48.5 -46.82 M48.26 -47.41 C47.46 -47.02, 46.35 -46.77, 44.54 -46.52 M48.72 -46.88 C47.66 -46.82, 46.85 -46.99, 44.07 -46.82 M44.27 -46.39 C41.95 -46.13, 40.03 -46.89, 35.93 -46.82 M44.63 -46.98 C41.29 -46.24, 38.4 -46.67, 34.97 -46.34 M34.88 -45.85 C33.52 -46.22, 32.78 -46.13, 30.44 -45.18 M35.24 -46.18 C33.69 -45.72, 32.01 -45.72, 30.62 -45.41 M30.58 -45.57 C29.19 -45.5, 27.75 -45.89, 26.4 -45.23 M30.64 -45.67 C29.67 -45.53, 28.61 -45.68, 26.58 -45.56 M27.45 -44.81 C24.69 -46.29, 21.63 -45.04, 14.81 -43.64 M26.39 -45.93 C22.51 -45.71, 19.06 -44.7, 13.28 -44.97 M12.82 -45.81 C8.6 -43.48, 2.9 -44.4, 0.85 -44.15 M13.02 -44.47 C8.65 -43.88, 4.23 -43.37, 0.35 -42.83 M0.82 -44.65 C-5.91 -40.6, -10.71 -39.7, -24.91 -39.24 M1.35 -43.8 C-7.04 -41.81, -14.97 -41.69, -25.71 -39.79 M-24.46 -41.41 C-30.45 -40.48, -36.58 -39.68, -49.61 -34.31 M-25.99 -40.15 C-33.72 -37.98, -41.87 -37.8, -49.87 -35.34 M-50.5 -35.64 C-55.53 -35.1, -58.6 -35.11, -63.92 -35.31 M-50.71 -35.31 C-55.06 -36.1, -59.19 -34.95, -63.48 -34.4 M-64.01 -34.64 C-67.31 -33.52, -71.19 -34.79, -77.27 -32.65 M-63.47 -34.49 C-66.74 -33.59, -71.3 -33.47, -76.92 -32.98 M-76.69 -33.11 C-76.47 -37.66, -76.34 -40.99, -77.66 -46.78 M-76.15 -32.74 C-77.49 -35.31, -77.62 -38.01, -77.88 -45.6 M-77.56 -45.87 C-77.27 -36.62, -76.37 -24.83, -79.95 -7.44 M-77.67 -45.77 C-77.52 -32.87, -78.36 -20.51, -78.77 -8.51 M-78.38 -10.81 C-80.33 3.5, -80.87 18.26, -77.31 28.16 M-77.91 -9.23 C-77.89 0.16, -79.47 11.15, -79.17 27.08 M-79.81 26.72 C-77.24 34.66, -80.87 37.13, -78.65 45.78 M-79.34 26.84 C-78.7 31.37, -78.66 36, -79.93 45.52 M-80.46 44.09 C-78.81 48.57, -80.91 54.49, -80.78 62.66 M-78.29 45.01 C-78.46 48.46, -79.23 52.58, -80.27 63.41 M-79.86 62.05 C-78.05 66.03, -78.37 71.43, -81.91 82.63 M-79.87 63.56 C-79.43 69.54, -79.6 76.72, -80.84 82.04 M-79.19 81.77 C-80.08 84.61, -82.95 91.39, -82.26 99.58 M-81.18 81.35 C-80.2 88.57, -80.65 95.52, -80.69 99.49 M-81.81 99.62 C-81.59 100.56, -81.42 101.55, -81.14 103.65 M-81.44 99.65 C-81.51 101.25, -81.59 102.78, -81.38 103.37 M-81.67 103.39 C-81.24 105.23, -81.02 106.2, -81.53 107.71 M-81.39 103.57 C-81.38 104.35, -81.2 105.33, -81.36 107.42 M-80.94 106.83 C-81.92 110.68, -81.48 113.29, -82.39 116.31 M-81.5 107.29 C-81.01 109.23, -81.87 111.77, -81.44 115.81 M-81.7 116.05 C-81.91 117.03, -81.17 117.73, -81.89 119.87 M-81.45 115.63 C-81.59 117.14, -81.58 118.45, -81.57 119.71 M-81.82 120.06 C-80.92 120.95, -81.09 122.41, -81.29 123.37 M-81.33 119.7 C-81.28 121.14, -80.93 122.47, -80.78 123.58 M-81.16 123.9 C-80.95 125.03, -79.9 126.18, -79.93 127.53 M-81.03 123.62 C-80.69 124.89, -80.14 126.23, -79.95 127.27 M-79.91 127.16 C-79.65 127.78, -79.24 128.12, -79.19 128.89 M-79.88 127.26 C-79.73 127.81, -79.42 128.33, -79.05 129 M-79.27 129.05 C-79.02 129.08, -78.9 129.42, -78.17 130.4 M-79.2 128.85 C-78.93 129.36, -78.72 129.67, -78.14 130.52 M-77.87 130.74 C-76.87 130.47, -75.39 131.47, -73.45 131.05 M-77.96 130.67 C-77.38 130.56, -76.2 130.75, -73.75 131.54 M-73.88 131.17 C-71.95 131.33, -70.81 132.16, -69.85 131.88 M-73.97 131.53 C-72.7 131.67, -71.16 131.67, -69.49 131.93 M-69.43 131.36 C-68.77 131.48, -67.07 131.87, -65.04 131.74 M-69.45 131.76 C-68.09 131.57, -66.74 131.95, -64.93 131.79 M-64.61 131.32 C-63.79 131.49, -62.32 131.3, -60.8 131.59 M-64.86 131.66 C-63.67 131.76, -62.45 131.33, -60.54 131.16 M-60.38 131.81 C-57.8 130.31, -55.95 131.31, -52.08 130.3 M-60.62 131.56 C-58.01 131.14, -55.91 130.56, -51.39 130.44 M-51.86 130.77 C-49.81 130.45, -47.99 130.28, -46.54 130.34 M-51.46 130.23 C-49.85 130.2, -48.34 129.98, -46.87 129.89 M-47.11 130.35 C-45.58 130.18, -44.01 130.42, -42.57 130.42 M-46.94 130.08 C-45.78 129.9, -44.35 130.03, -42.75 130.16 M-42.88 130.75 C-34.34 129.84, -28.11 129.25, -22.07 130.01 M-42.12 130.01 C-35.63 129.3, -28.04 129.28, -20.32 130.94 M-19.88 131.19 C-14.29 131.26, -9.57 128.9, 1.12 132.39 M-21.08 131.18 C-15.55 129.89, -9.67 130.96, -0.3 131.42 M0.37 129.41 C6.83 129.6, 9.38 130.21, 20.78 129.73 M0.04 130.46 C6.02 130.93, 10.2 131.9, 22.15 131.83 M21.36 132.32 C26.2 132.32, 31.25 131.65, 42.31 130.08 M22.24 131.64 C27.87 131.6, 35.29 132.52, 42.43 131.56 M42.12 132.14 C42.72 131.5, 43.87 130.91, 45.01 130.46 M42.44 131.89 C43.16 131.61, 43.58 131.17, 45.4 130.24 M45.25 130.37 C45.96 129.94, 46.74 129.21, 47.7 128.48 M45.38 130.23 C45.99 129.83, 46.42 129.31, 47.97 128.43 M48.19 128.42 C48.82 127.48, 49.41 126.95, 50.34 126.38 M47.87 128.17 C48.97 127.45, 49.92 126.61, 50.29 126.1 M50.54 126.26 C51.07 125.47, 51.14 124.79, 52.57 123.91 M50.33 126.26 C51.02 125.69, 51.34 124.91, 52.32 123.95 M52.11 124.35 C52.62 123.69, 52.97 123.42, 54.19 121.69 M52.41 124.12 C52.83 123.36, 53.52 122.75, 54.09 121.96 M53.8 121.83 C54.8 120.78, 55.01 120.11, 55.49 119.34 M53.93 121.88 C54.58 121.03, 55.07 120.28, 55.33 119.48 M55.61 119.35 C55.76 118.63, 56.17 117.83, 56.41 117.16 M55.6 119.53 C55.95 118.73, 56.29 117.82, 56.58 117.09 M56.64 117.17 C56.84 116.07, 57.3 115.36, 57.52 114.38 M56.76 117.03 C56.87 116.21, 57.31 115.15, 57.71 114.48 M57.52 114.65 C57.88 113.58, 57.9 112.47, 58.17 111.76 M57.55 114.54 C57.87 113.41, 58.11 112.55, 58.18 111.81 M58.11 111.71 C58.2 111.03, 58.41 109.81, 59.07 108.83 M58.34 111.78 C58.4 110.79, 58.7 110.08, 58.67 109.02 M58.92 108.83 C58.81 107.99, 59.13 106.95, 59.29 105.95 M58.83 109 C58.91 108.46, 58.91 107.69, 59.09 106.01 M59.24 106.39 C58.95 105.52, 59.17 104.86, 59.46 103.17 M59.11 106.08 C59.27 105.18, 59.27 104.05, 59.35 103.16 M59.13 103.61 C59.17 101.03, 58.8 99.39, 59.14 96.89 M59.48 103.38 C59.17 102.17, 59.28 100.45, 59.21 97.35 M58.69 97.34 C58.96 95.97, 59.16 93.91, 58.45 90.28 M59.15 97.34 C58.97 95.06, 58.91 92.72, 58.39 90.43 M58.44 90.7 C58.47 90.36, 58.75 89.62, 58.71 88.5 M58.5 90.57 C58.53 89.93, 58.63 89.16, 58.57 88.65 M58.45 88.69 C58.34 87.88, 58.39 87.44, 58.18 86.97 M58.56 88.51 C58.44 87.91, 58.35 87.21, 58.23 86.83 M58.32 86.94 C58.02 86.31, 57.61 85.76, 57.59 85.46 M58.2 86.93 C58.04 86.38, 57.69 85.96, 57.58 85.62 M57.6 85.48 C57.04 85.3, 56.72 84.83, 56.37 84.6 M57.56 85.54 C57.2 85.23, 56.82 84.92, 56.55 84.57 M56.61 84.52 C55.86 84.21, 55.44 83.92, 55.03 83.88 M56.49 84.53 C55.85 84.3, 55.41 83.94, 55.09 83.88 M55.07 83.83 C54.58 83.7, 54.16 83.54, 53.19 83.44 M55.03 83.8 C54.45 83.74, 53.95 83.46, 53.22 83.43 M53.21 83.29 C52.73 83.34, 52.33 83.08, 50.94 83.03 M53.22 83.31 C52.61 83.26, 51.98 83.29, 51.14 83.13 M51.22 83.32 C50.06 83.15, 49.32 83.3, 48.59 83.22 M51.14 83.08 C50.56 83.25, 50.05 83.18, 48.54 83.16 M49.6 82.41 C44.1 83.62, 41.19 81.96, 37.07 82.29 M48.54 83.19 C45.07 82.56, 40.76 82.79, 37.46 82.99 M36.61 82.68 C34.04 82.43, 31.57 81.96, 26.56 81.8 M37.22 83.44 C33.39 82.77, 29.91 82.32, 26.53 83.04 M26.43 81.11 C19.76 81.14, 10.52 80.93, 5.78 81.31 M27.09 81.75 C17.6 82.38, 8.38 81.86, 4.88 80.79 M4.72 81.81 C3.8 81.87, 2.9 81.47, 0.81 81.2 M4.59 81.62 C2.98 81.31, 1.46 81.56, 0.79 81.32 M0.8 81.28 C-0.21 81.64, -1.26 81.18, -3.06 81.46 M0.68 81.22 C0.08 81.19, -0.76 81.15, -2.86 81.46 M-3.11 81.48 C-3.55 81.02, -4.59 81.13, -5.84 81.46 M-2.91 81.27 C-3.85 81.35, -4.83 81.38, -5.9 81.22 M-6.05 81.17 C-6.9 81.14, -7.08 81.24, -8.75 81.12 M-5.88 81.36 C-7 81.26, -7.98 81.26, -8.84 81.03 M-8.66 81.11 C-9.35 80.95, -10.36 80.93, -11.26 81.14 M-8.65 81.1 C-9.5 81.19, -10.14 81, -11.18 80.96 M-11.19 80.75 C-11.89 80.78, -12.87 80.69, -13.39 80.81 M-11.13 80.92 C-11.51 80.89, -11.99 80.79, -13.3 80.63 M-13.42 80.78 C-13.85 80.54, -14.22 80.35, -15.22 80.18 M-13.24 80.65 C-13.7 80.58, -13.98 80.46, -15.05 80.26 M-15 80.08 C-15.46 80.19, -15.69 79.99, -16.63 79.62 M-15.06 80.23 C-15.65 79.86, -16.24 79.61, -16.56 79.57 M-16.57 79.56 C-16.86 79.11, -17.53 79.08, -17.79 78.42 M-16.67 79.45 C-17 79.31, -17.32 79.06, -17.83 78.62 M-18.02 78.44 C-18.21 78.26, -18.6 77.47, -18.88 77.47 M-17.82 78.58 C-18.11 78.25, -18.43 77.93, -18.94 77.28 M-19.13 77.28 C-19.13 76.88, -19.33 76.65, -19.94 75.6 M-19 77.27 C-19.09 77.01, -19.4 76.67, -19.8 75.76 M-19.82 75.61 C-19.87 74.96, -20.41 74.57, -20.63 73.79 M-19.73 75.7 C-20.07 75.27, -20.27 74.75, -20.4 73.79 M-20.47 73.55 C-20.55 72.85, -20.95 72.32, -20.88 71.41 M-20.61 73.63 C-20.65 72.84, -20.97 72.09, -21 71.36 M-20.87 71.11 C-21.17 70.04, -21.43 69.09, -21.5 68.05 M-21.11 71.35 C-21.14 70.27, -21.13 69.25, -21.46 68.27 M-21.1 68.63 C-21.75 67.35, -21.8 66.63, -21.74 65.16 M-21.31 68.43 C-21.43 67.53, -21.53 66.48, -21.65 64.9 M-21.45 64.46 C-21.89 63.53, -21.92 61.56, -22.01 61.12 M-21.77 64.74 C-21.85 63.7, -21.77 62.34, -21.91 60.96 M-21.85 60.59 C-20.81 60.82, -18.36 60.54, -15.11 60.24 M-21.58 60.84 C-20.55 60.91, -19.34 61.01, -15.77 60.81 M-15.48 61.16 C-14.56 60.4, -13.09 60.81, -8.8 61.57 M-15.49 60.74 C-14.04 61.12, -12.79 60.82, -9.33 61.04 M-10.13 61.85 C-6.65 61.81, -2.15 62.57, 4.19 61.73 M-9.25 61.12 C-3.99 61.88, 1.41 62.24, 3.29 61.8 M2.74 61.96 C5.82 61.85, 7.62 62.27, 9.93 61.42 M3.11 61.71 C4.67 61.57, 6.31 61.79, 9.17 61.48 M8.93 61.62 C10.41 61.4, 11.88 61.04, 14.85 61.39 M9.26 61.47 C11.15 61.57, 12.64 61.65, 15.23 61.68 M14.82 61.86 C17 61.71, 18.5 61.73, 20.63 60.59 M15.29 61.75 C17.42 61.35, 19.73 61.12, 20.71 61.23 M20.56 60.59 C22.67 60.3, 23.83 60.96, 26.16 60.07 M20.86 60.91 C22.06 60.92, 23.63 60.43, 26.23 59.85 M26.39 60.14 C28.14 59.6, 29.88 58.8, 30.55 58.23 M26.03 60.09 C27.56 59.59, 28.6 59.27, 30.89 58.75 M31.14 58.47 C31.77 58.01, 32.39 57.68, 33.38 57.41 M31.01 58.55 C31.6 58.2, 32.17 57.92, 33.26 57.46 M33 57.42 C33.68 57.39, 34.39 56.9, 35.12 56.13 M33.27 57.5 C33.95 57.2, 34.63 56.7, 35.31 56.26 M35.09 56.4 C35.71 56.21, 36.31 55.85, 37.54 54.78 M35.38 56.47 C35.71 56.1, 36.26 55.86, 37.38 54.99 M37.09 54.81 C37.78 54.48, 38.29 54.51, 39.13 53.6 M37.41 55.09 C37.97 54.5, 38.54 53.89, 39.2 53.49 M39.41 53.59 C39.51 53.1, 39.68 52.51, 40.95 51.76 M39.15 53.3 C39.68 53.03, 40.03 52.39, 40.89 51.62 M40.96 51.77 C41.14 51.23, 41.95 50.43, 42.6 49.72 M40.82 51.74 C41.31 51.23, 41.51 50.94, 42.37 49.7 M42.53 49.83 C43.14 48.75, 43.19 47.94, 43.96 47.23 M42.56 49.69 C42.86 48.83, 43.37 47.75, 43.88 47.39 M44.09 47.62 C44.07 46.51, 44.64 45.56, 45.07 44.71 M43.79 47.23 C44.24 46.58, 44.46 45.99, 45.15 44.88 M45.07 44.73 C45.31 43.51, 45.81 42.55, 45.91 42.24 M45.12 44.95 C45.47 44.05, 45.57 43.12, 46.12 42.06 M45.8 42.22 C46.23 41.34, 46.74 40.22, 46.85 39.32 M46.05 42.22 C46.26 41.49, 46.43 40.8, 46.92 38.87 M46.96 38.9 C47.27 38.47, 47.58 37.65, 47.84 35.88 M46.93 38.94 C47.13 38.19, 47.36 37.76, 47.55 35.66 M47.94 35.54 C47.94 34.75, 47.93 34.25, 48.05 31.68 M47.46 35.64 C47.91 34.71, 47.77 33.79, 48.21 32.02 M48.51 32.38 C48.34 30.43, 48.05 29.42, 48.39 28.43 M48.25 32.07 C48.01 31.1, 48.38 30.32, 48.4 27.96 M48.56 27.83 C48.37 27.27, 48.73 26.15, 48.55 23.64 M48.2 27.9 C48.23 26.93, 48.2 26, 48.39 23.94 M48 24.14 C48.4 21.71, 48.18 20.63, 48.4 18.96 M48.3 23.55 C48.46 22.12, 48.7 20.61, 48.41 19.14 M48.65 19.08 C48.58 18.47, 48.74 17.49, 48.44 17.09 M48.72 19.29 C48.62 18.36, 48.47 17.55, 48.61 17.08 M48.37 17.11 C48.45 16.49, 48.31 16.28, 48.33 15.13 M48.61 16.96 C48.35 16.55, 48.24 15.97, 48.25 15.01 M48.16 14.94 C47.97 14.45, 47.71 14.22, 47.25 13.28 M48.17 15.02 C47.97 14.55, 47.77 14.01, 47.44 13.46 M47.26 13.38 C47 13.22, 46.99 12.95, 46.08 12.21 M47.34 13.31 C47.01 12.99, 46.65 12.65, 46.05 12.16 M46.13 12.09 C45.72 11.97, 45.46 11.77, 45.22 11.62 M46.12 12.09 C45.79 11.99, 45.49 11.76, 45.19 11.71 M45.27 11.61 C44.91 11.52, 44.38 11.41, 44.25 11.26 M45.2 11.67 C44.95 11.62, 44.63 11.46, 44.2 11.33 M44.14 11.29 C43.83 11.41, 43.2 11.19, 42.91 11.24 M44.14 11.38 C43.87 11.35, 43.52 11.31, 42.95 11.24 M43.06 11.26 C42.39 11.18, 42.07 11.35, 41.4 11.21 M42.89 11.23 C42.55 11.15, 42.21 11.23, 41.45 11.22 M41.93 10.89 C37.69 10.22, 35.34 10.87, 26.89 10.61 M41.37 10.83 C36.04 11.13, 31.92 9.43, 27.91 10.18 M27.53 8.51 C22.92 10.02, 18.41 9.04, 14.17 7.13 M27.58 9.12 C22.82 9.22, 18.86 9.3, 14.64 7.86 M15.32 9.03 C11.64 9.51, 5.63 7.76, 0.79 7.67 M14.11 8.66 C11.25 7.92, 6.68 8.12, 1.94 7.95 M2.05 8.59 C-3.12 8.75, -5.88 7.1, -12.86 6.78 M1.29 7.62 C-2.26 7.33, -4.65 7.44, -12.12 8.14 M-12.04 7.97 C-12.84 8.09, -13.55 7.94, -13.74 8.03 M-12.05 8.07 C-12.59 7.98, -13.03 8.02, -13.78 8.2 M-13.91 8.11 C-14.26 8.23, -14.89 8.15, -15.36 8.11 M-13.83 8.15 C-14.07 8.19, -14.39 8.1, -15.27 8.26 M-15.11 8.29 C-15.65 8.19, -15.87 8.14, -16.38 8.15 M-15.2 8.26 C-15.51 8.23, -15.79 8.23, -16.52 8.22 M-16.55 8.31 C-16.78 8.16, -17.07 8.18, -17.49 8.12 M-16.52 8.25 C-16.77 8.29, -17.1 8.3, -17.52 8.2 M-17.53 8.22 C-18.16 8.2, -18.66 7.97, -19.24 7.96 M-17.55 8.19 C-18.14 8.1, -18.66 7.99, -19.25 7.86 M-19.16 7.82 C-19.72 7.78, -20.22 7.35, -20.43 7.36 M-19.23 7.96 C-19.56 7.76, -19.9 7.61, -20.42 7.33 M-20.33 7.23 C-20.58 6.93, -20.85 6.63, -21.26 6.31 M-20.45 7.23 C-20.73 6.86, -21.04 6.52, -21.21 6.17 M-21.42 6.19 C-21.36 5.87, -21.43 5.34, -21.94 4.61 M-21.34 6.16 C-21.4 5.64, -21.76 5.02, -21.87 4.5 M-22.03 4.51 C-21.86 3.96, -22.48 3.02, -22.5 2.25 M-21.76 4.52 C-21.98 3.96, -22.12 3.3, -22.42 2.46 M-22.38 2.56 C-22.27 1.76, -22.51 0.93, -23.15 -0.75 M-22.47 2.32 C-22.46 1.28, -22.71 0.5, -22.82 -0.4 M-22.85 0.54 C-20.94 -1.33, -18.23 0.07, -11 -0.84 M-22.77 -0.24 C-20.07 -0.79, -16.75 -0.21, -10.95 0.25 M-11.77 0.21 C-6.78 -0.2, -2.3 -0.38, -0.54 1.01 M-11.05 -0.6 C-8.67 -0.08, -6.21 0.46, -0.11 0.49 M0 0 C0 0, 0 0, 0 0 M0 0 C0 0, 0 0, 0 0 M0 0 C0 0, 0 0, 0 0 M0 0 C0 0, 0 0, 0 0" stroke="#000000" stroke-width="1" fill="none"/></g></g><g stroke-linecap="round"><g transform="translate(68.69716193954685 43.06640417637291) rotate(0 8.405984977735216 55.92949192090809)" fill-rule="evenodd"><path d="M1.96 0.21 L-1.39 0.56 L-4.71 0.97 L-4.08 4.46 L-10.62 7.1 L-11.55 10.58 L-14.14 11.98 L-12.93 12.12 L-16.02 14.05 L-14.08 16.47 L-13.27 17.02 L-15.12 18.14 L-16.44 20.97 L-13.55 25.36 L-13.46 29.4 L-13.78 31.37 L-14.96 31.96 L-12.15 33.86 L-10.97 37.71 L-9.42 38.68 L-3.83 36.27 L1.24 36.24 L3.26 37.8 L14.69 39.48 L24.66 37.11 L32.85 37.66 L37.05 40.53 L43.53 40.4 L48.36 40.5 L50.44 42.65 L51.7 41.09 L57.18 44.38 L57.3 51.32 L57.65 58.34 L50.14 60.82 L45.36 62.37 L41.94 59.31 L38.38 61.54 L28.34 58.16 L24.15 60.32 L19.84 61.62 L14.66 60.97 L8.33 60.2 L5.2 61.98 L2.39 63.65 L-2.15 67.12 L-5.44 68.75 L-9.88 71.44 L-7.95 71.23 L-12.98 74.98 L-12.82 75.51 L-12.44 78.29 L-13.65 80.33 L-11.05 83.5 L-13.23 87.13 L-10.59 92.09 L-11.35 95.42 L-13.31 100.09 L-11.8 101.98 L-11.52 103.79 L-10.42 104.93 L-7.58 107.35 L-3.1 109.47 L-1.94 108 L2.19 107.85 L2.93 108.01 L9.42 111.4 L14.45 110.75 L18.52 110.49 L25.11 108.84 L30.76 110.69 L41.66 110.99 L52.65 111.49 L59.04 111.05 L64.1 111.83 L65.5 112.36 L66.61 114.21 L67.25 115.33 L68.24 116.12 L67.68 118.4 L68.34 120.14 L66.63 126.89 L69.29 129.95 L67.97 128.57 L59.99 130.81 L52.88 129.33 L43.89 131.58 L36.42 128.3 L32.09 131.43 L26.89 127.96 L19.33 129.85 L14.51 131.85 L8.31 129.41 L3.45 128.56 L-2.33 131.75 L-4.18 131.76 L-10.01 129.56 L-12.35 132.19 L-16.24 130.6 L-19.09 129.61 L-22.56 129.69 L-24.46 132.89 L-26.58 132.7 L-30.62 131.94 L-34 132.59 L-33.78 129.73 L-34.53 129.36 L-36.21 130.3 L-39.24 129.65 L-40.27 129.62 L-44.69 126.69 L-44.77 125.63 L-43.54 121.45 L-46.65 121.17 L-46.26 117.81 L-44.92 112.15 L-43.58 109.46 L-45.03 105.67 L-46.13 104.32 L-45.63 100.29 L-44.02 97.64 L-43.42 91.49 L-43.48 89.92 L-45.19 83.81 L-42.83 80.74 L-43.77 74.84 L-44.41 72.72 L-42.04 67.26 L-42.68 59.56 L-44.98 56.78 L-44.1 50.02 L-43.59 44.2 L-47.24 35.92 L-46.98 31.36 L-46.72 24.14 L-46.27 13.18 L-49.2 8.62 L-50.69 -2.36 L-49.43 -9.63 L-51.5 -18.24 L-38.46 -16.67 L-26.32 -16.74 L-10.53 -17.65 L2.58 -18.25 L30.05 -19.47 L47.89 -17.11 L60.01 -18.24 L61.92 -18.69 L62.37 -19.31 L64.41 -17.85 L65.08 -18.62 L67.54 -14.63 L69.21 -13.67 L69.87 -16.5 L71.78 -14.91 L72.02 -12.69 L69.74 -6.98 L71.62 -7.51 L71.31 -3.59 L61.17 -1.35 L53.37 -1.28 L43.16 0.03 L33.27 -2.04 L17.31 -2.32 L6.92 0.34 L-0.7 0.26 L1.03 -1.75" stroke="none" stroke-width="0" fill="#FFFFFF" fill-rule="evenodd"/><path d="M0 0 C0 0, 0 0, 0 0 M0 0 C0 0, 0 0, 0 0 M0.02 -0.08 C-0.84 0.41, -1.92 1.29, -2.89 1.69 M0.05 0.09 C-1.14 0.74, -2.04 1.05, -3.09 1.87 M-2.68 1.51 C-4.03 2.73, -4.99 3.23, -6.27 3.93 M-3.08 1.81 C-4.24 2.51, -5.09 3.2, -5.87 3.72 M-6.21 4.15 C-6.6 4.73, -7.29 4.93, -8.76 6.23 M-6.02 3.95 C-6.96 4.63, -7.99 5.81, -8.7 6.26 M-8.49 6.1 C-9.53 7.02, -10.86 7.81, -11.4 9.08 M-8.68 6.2 C-9.98 7.39, -10.73 8.2, -11.17 8.85 M-11.18 8.77 C-11.73 9.84, -12.51 11.2, -13.2 11.43 M-11.39 8.89 C-12 9.95, -12.86 11.01, -13.41 11.78 M-13.32 11.6 C-13.52 12.17, -13.54 12.71, -13.89 13.29 M-13.22 11.74 C-13.61 12.24, -13.84 12.74, -14.09 13.37 M-14.07 13.25 C-14.25 13.71, -14.36 14.15, -14.79 15.06 M-14.13 13.25 C-14.2 13.86, -14.45 14.35, -14.56 14.94 M-14.53 14.77 C-14.72 15.69, -15.09 16.29, -15.08 16.62 M-14.72 14.96 C-14.74 15.28, -14.73 15.66, -14.93 16.54 M-15.16 16.64 C-14.93 16.95, -14.96 17.57, -15.16 18.13 M-15 16.58 C-14.96 17.01, -15.12 17.51, -15.09 18.34 M-15 18.14 C-15.2 18.86, -15.19 19.23, -15.03 20.1 M-15.14 18.31 C-15.04 18.96, -14.99 19.48, -14.93 20.08 M-14.88 20.06 C-15.02 20.42, -14.65 21.14, -14.47 22.01 M-14.98 20.12 C-14.87 20.46, -14.85 20.97, -14.62 21.82 M-14.28 21.78 C-14.54 22.84, -14.48 24.23, -14.13 26.23 M-14.47 21.8 C-14.54 23.11, -14.45 24.02, -14.29 25.96 M-14.49 25.58 C-14.65 27.24, -14.31 28.04, -14.55 30.16 M-14.33 25.7 C-14.42 27.3, -14.28 28.75, -13.95 30.03 M-14.04 29.8 C-14.15 30.38, -14.27 31.02, -13.97 31.96 M-14.2 30.04 C-14.09 30.46, -13.94 31.03, -13.94 32.01 M-13.82 31.87 C-13.81 32.3, -13.71 32.97, -13.73 34.01 M-13.94 31.99 C-13.88 32.74, -13.64 33.31, -13.67 33.97 M-13.43 33.78 C-13.28 34.35, -13.35 34.87, -13.14 35.66 M-13.51 33.83 C-13.48 34.38, -13.37 34.87, -13.08 35.79 M-13.11 35.85 C-12.53 36.57, -12.13 37.15, -12.24 37.55 M-12.93 35.79 C-12.62 36.39, -12.25 37.09, -12.05 37.47 M-12.21 37.86 C-11.19 37.69, -10.64 37.8, -8.4 37.68 M-12.06 37.58 C-10.94 37.62, -9.76 37.71, -8.82 38.02 M-8.47 37.74 C-7.66 37.84, -6.3 37.85, -4.65 38.1 M-8.84 38 C-7.47 37.92, -6.67 37.82, -4.75 37.92 M-5.16 38.4 C-3.7 37.93, -2.5 37.9, -0.9 37.89 M-4.92 37.94 C-3.83 38.25, -2.31 37.98, -0.55 38.03 M-1.01 38.27 C0.65 38.35, 2.41 38.4, 3.52 37.87 M-0.72 38.33 C0.21 38.3, 1.24 38.21, 3.69 38.3 M3.81 39.13 C8.01 37.3, 10 39.02, 13.26 38.54 M3.84 38.55 C6.59 38.55, 9.11 38.45, 13.93 37.82 M14.01 37.22 C17.76 38.93, 21.26 38.09, 23.27 37.58 M13.26 38.45 C16.86 38.37, 20.67 38.77, 23.92 37.98 M24.01 39.23 C26.55 38.39, 31.16 37.94, 33.96 39.13 M23.14 38 C25.93 38.34, 27.91 38.34, 33.11 39 M33.17 38.5 C34.87 39.26, 36.87 38.9, 37.81 38.92 M33.24 38.8 C34.39 38.94, 35.19 38.67, 38.1 39.1 M38.37 38.97 C39.05 39.38, 41.1 39.17, 42.79 39.62 M38.05 38.99 C39.78 39.3, 41.06 39.49, 42.64 39.57 M42.29 39.6 C43.23 39.83, 43.9 40.19, 46.17 40.05 M42.39 39.44 C43.84 39.71, 44.89 40.28, 46.38 40.26 M46.41 40.33 C47.56 40.86, 49.14 41.33, 49.86 41.26 M46.49 40.49 C47.95 40.64, 49 41.08, 50.05 41.45 M50.14 41.51 C51.45 41.58, 52.87 41.92, 53.48 42.64 M50.21 41.49 C50.93 41.47, 51.42 41.71, 53.4 42.42 M53.19 42.33 C54.21 42.62, 54.26 43.48, 56.2 43.79 M53.43 42.66 C54.03 42.96, 54.58 43.46, 56.06 43.95 M55.69 44.22 C55.67 45.63, 55.82 48.96, 55.88 52.35 M56 44.21 C56.06 45.68, 56.12 47.53, 55.89 52.07 M56.81 51.37 C56.67 53.63, 56.8 55.7, 55.73 59.64 M56.08 51.56 C56.13 54.83, 55.67 57.31, 56.09 59.86 M55.74 59.95 C54.54 59.52, 53.93 59.56, 51.67 59.96 M55.67 59.78 C54.36 59.94, 52.85 60.16, 51.28 60.44 M51.34 60.64 C50.57 60.66, 49.21 60.38, 46.94 60.49 M51.49 60.27 C50.13 60.08, 48.42 60.29, 46.72 60.31 M47.02 60.01 C45.42 59.94, 43.95 60.77, 42.24 60.14 M46.7 60.59 C45.54 60.33, 44.82 60.55, 42.29 60.34 M42.05 60.57 C41.49 60.35, 39.98 60.02, 37.51 60.57 M42.11 60.22 C41.02 60.47, 40.08 60.39, 37.39 60.06 M37.46 60.68 C35.02 59.34, 32.18 60.38, 27.52 60.69 M37.74 60.55 C33.72 60.22, 30.57 60.06, 27.77 60.2 M27.96 59.59 C26.38 59.75, 24.26 59.38, 22.46 60.03 M27.52 59.98 C25.98 59.92, 24.58 59.86, 22.9 59.67 M23.14 59.41 C21.67 59.74, 19.1 60.24, 18.35 59.52 M23.11 59.89 C21.17 59.93, 19.29 59.99, 18.36 59.59 M17.81 59.59 C16.36 59.87, 15.77 60.22, 13.39 59.94 M18.32 59.74 C16.3 60.13, 14.7 60.04, 13.59 59.94 M13.96 60.55 C11.37 59.92, 10.21 60.72, 8.9 60.79 M13.55 59.97 C12.27 60.07, 10.69 60.55, 8.92 60.94 M9.1 60.45 C7.26 61.07, 6.04 61.18, 4.39 61.7 M9.23 60.53 C7.56 60.89, 5.87 61.45, 4.58 61.83 M5.15 61.38 C4.14 61.98, 2.44 62.69, 0.91 63.1 M4.87 61.67 C3.8 62.23, 2.45 62.68, 0.56 63.07 M0.85 62.86 C-0.96 64, -1.93 64.51, -2.83 65.23 M0.82 63.29 C-0.11 63.78, -0.98 64.15, -3.38 65.12 M-3.17 65.3 C-4.13 66.4, -5.08 67.09, -6.27 67.97 M-3.16 65.29 C-4.26 66.06, -4.98 66.48, -6.47 67.97 M-6.57 68.07 C-6.99 68.28, -7.82 69.15, -8.42 69.71 M-6.67 67.9 C-6.99 68.34, -7.49 68.77, -8.21 69.59 M-8.41 69.63 C-8.6 69.93, -9.18 70.52, -9.94 71.52 M-8.17 69.48 C-8.77 70.05, -8.96 70.43, -9.86 71.42 M-10.01 71.48 C-10.07 71.95, -11.01 72.7, -11.18 73.25 M-9.8 71.38 C-10.34 72.12, -10.91 72.74, -11.14 73.29 M-11 73.08 C-11.6 73.64, -12.15 74.24, -12.51 75.72 M-11.23 73.36 C-11.6 74.23, -12.1 74.87, -12.49 75.4 M-12.86 75.53 C-12.29 76.22, -12.61 77.29, -12.4 78.49 M-12.62 75.43 C-12.48 76.22, -12.62 76.88, -12.55 78.85 M-12.56 78.76 C-12.27 79.51, -12.69 80.68, -12.51 82.07 M-12.7 78.76 C-12.6 79.54, -12.44 80.35, -12.69 81.65 M-12.7 81.55 C-12.83 82.53, -12.62 83.55, -12.71 84.45 M-12.61 81.9 C-12.66 82.77, -12.58 83.78, -12.55 84.46 M-12.49 84.41 C-12.3 85.37, -12.26 85.42, -12.73 87.43 M-12.62 84.51 C-12.43 85.07, -12.44 85.8, -12.41 87.28 M-12.19 86.92 C-12.66 88.62, -12.86 89.23, -12.32 91.6 M-12.71 87.38 C-12.5 89.09, -12.45 91, -12.48 91.76 M-12.73 91.59 C-12.12 93.11, -12.24 94.17, -12 95.75 M-12.42 91.67 C-12.43 93.14, -12.14 94.12, -12.16 95.93 M-12.08 95.67 C-11.74 96.41, -12.06 97.56, -11.65 99.23 M-12.08 95.91 C-11.99 96.8, -11.79 97.9, -11.7 99.19 M-11.54 98.83 C-11.52 99.91, -11.46 100.46, -11.09 101.49 M-11.57 99.06 C-11.48 99.53, -11.33 100.25, -10.86 101.73 M-10.95 101.87 C-10.55 102.56, -10.08 103.36, -9.93 104.02 M-10.87 101.71 C-10.61 102.17, -10.43 102.72, -9.94 103.8 M-10.05 103.94 C-9.74 104.42, -9.44 104.8, -8.69 105.72 M-10.05 103.81 C-9.74 104.21, -9.55 104.63, -8.61 105.53 M-8.68 105.57 C-8.26 105.96, -7.56 106.49, -6.94 106.81 M-8.71 105.49 C-8.22 105.82, -7.72 106.33, -7.07 106.79 M-6.81 106.98 C-6.18 106.98, -5.53 107.65, -4.94 107.9 M-7.05 106.8 C-6.55 107.12, -6 107.39, -4.95 107.78 M-4.73 107.64 C-4.34 107.91, -3.38 108.01, -2.44 108.22 M-4.82 107.8 C-4.32 108.08, -3.46 108.21, -2.35 108.47 M-2.44 108.61 C-1.42 108.62, -0.06 108.47, 0.85 108.84 M-2.31 108.48 C-1.15 108.73, -0.25 108.68, 0.67 108.97 M0.53 108.81 C2.26 108.68, 2.85 109.37, 4.24 109.12 M0.94 108.91 C1.41 108.97, 2.37 109.11, 4.47 109.2 M4.33 109.63 C6.08 109.43, 7.56 109.62, 8.42 109.15 M4.63 109.22 C5.55 109.09, 6.6 109.5, 8.83 109.34 M9.05 109.11 C10.47 109.27, 12.04 109.74, 14.34 109.37 M8.9 109.42 C10.8 109.49, 12.54 109.36, 13.78 109.54 M14.23 109.26 C15.12 109.16, 17.99 109.39, 19.44 109.55 M14.11 109.73 C15.94 109.44, 18.42 109.5, 19.3 109.55 M19.43 109.94 C21.25 110.44, 23.49 109.85, 25.25 110.72 M19.55 109.79 C21.79 110.16, 23.56 110.46, 25.45 110.44 M25.59 110.14 C26.41 110.79, 28.32 110.34, 31.15 110.68 M25.26 110.48 C27.44 110.76, 29.33 110.7, 30.8 110.51 M30.62 110.18 C34.81 109.93, 37.55 111.88, 42.54 110.86 M31.26 111.05 C35.67 110.65, 39.62 111.5, 42.58 111.31 M41.82 111.04 C45.26 111.74, 47.7 111.23, 54.44 111.18 M41.81 111.8 C44.84 111.27, 48.01 111.68, 53.89 111.34 M53.92 111.72 C55.14 111.22, 56.84 111.89, 59.81 111.95 M53.85 111.63 C55.5 111.92, 56.96 111.99, 59.58 112.12 M58.92 112.54 C60.49 112.15, 62.99 112.03, 65.09 112.12 M59.28 111.9 C61.29 112.39, 62.63 112.42, 65.14 112.67 M64.95 112.57 C65.28 112.7, 65.56 112.78, 65.82 113.13 M65.01 112.6 C65.31 112.71, 65.63 112.87, 65.86 113.02 M65.83 113.05 C66.07 113.18, 66.32 113.36, 66.71 113.8 M65.95 113.1 C66.12 113.26, 66.31 113.39, 66.63 113.69 M66.63 113.64 C66.75 113.9, 67 114.19, 67.12 114.54 M66.63 113.75 C66.85 113.95, 67.04 114.29, 67.18 114.52 M67.2 114.58 C67.37 114.76, 67.41 114.95, 67.68 115.46 M67.21 114.54 C67.36 114.79, 67.42 115, 67.59 115.43 M67.51 115.63 C67.87 115.78, 67.93 116.25, 68.16 117.44 M67.55 115.41 C67.8 116.08, 67.9 117.02, 68.14 117.62 M67.9 117.47 C68.16 118.58, 68.02 119.48, 68.38 120.14 M68.07 117.61 C68.13 118.07, 68.08 118.56, 68.24 120.18 M68.32 119.83 C67.72 120.95, 68.1 122.42, 67.94 125.73 M68.29 119.88 C67.7 122.01, 67.92 124.31, 67.89 125.33 M67.51 125.61 C67.57 126.19, 67.4 127.04, 67.61 127.85 M67.73 125.44 C67.64 126.13, 67.74 126.73, 67.57 127.88 M67.31 127.85 C67.43 128.56, 67.48 129.62, 67.72 130.28 M67.41 128.03 C67.59 128.67, 67.55 129.54, 67.42 130.33 M67.27 130.16 C64.26 129.81, 61.09 130.38, 59.84 129.91 M67.45 130.63 C66.03 129.99, 63.67 130.39, 59.28 130.27 M59.44 130.12 C57.66 129.31, 55 129.53, 51.88 130.46 M59.44 129.82 C56.49 130, 54.1 129.81, 52.09 129.85 M51.36 129.88 C49.12 130.37, 47.45 130.16, 44.34 130.26 M52.17 130.14 C49.61 129.88, 46.61 129.91, 44.95 129.63 M44.29 130.13 C43.09 129.07, 41.5 129.23, 38.43 129.68 M45.14 129.45 C43.12 129.62, 41.35 129.71, 37.86 129.89 M37.54 129.4 C35.71 129.15, 34.26 129.15, 32 129.09 M37.96 129.6 C36.13 129.46, 33.82 129.95, 31.93 129.81 M32.21 129.33 C30.12 129.37, 28.09 129.57, 26.09 129.91 M31.55 129.68 C29.19 129.61, 27.24 129.41, 25.3 129.41 M25.66 130.25 C24.06 129.78, 22.29 129.52, 20.25 129.42 M25.36 129.46 C23.67 129.97, 22.07 129.69, 19.63 129.69 M19.83 130.18 C17.59 129.53, 14.96 130.12, 13.64 129.43 M19.84 129.56 C18.5 129.5, 17.36 130.04, 14.15 129.99 M14.51 129.44 C12.35 129.75, 10.52 130.44, 8.98 129.71 M14.04 130.01 C12.13 130.13, 10.64 129.99, 8.83 129.82 M8.52 129.96 C7.99 130.21, 6.28 130.13, 4.33 130.34 M8.86 130.24 C7.82 130.37, 6.87 130, 4.09 130.11 M4.28 130 C2.52 130.12, 1.63 130.68, -0.42 130.55 M4.12 130.45 C2.92 130.24, 1.27 130.36, -0.33 130.34 M-0.41 130.27 C-2.19 130.32, -3.35 130.81, -5.17 130.57 M-0.28 130.42 C-1.51 130.39, -2.77 130.45, -4.79 130.56 M-4.89 130.65 C-5.69 130.61, -7.3 130.71, -9.17 130.42 M-4.9 130.68 C-5.55 130.66, -6.42 130.85, -8.98 130.66 M-8.94 131.08 C-10.24 130.99, -11.77 131.15, -12.24 130.6 M-8.76 130.67 C-9.55 130.74, -10.23 131.01, -12.56 131.06 M-12.23 130.73 C-13.73 131.32, -14.05 130.73, -16.24 131.12 M-12.7 131.03 C-13.82 131.04, -14.6 131.18, -15.91 130.98 M-15.89 131.45 C-17.09 130.85, -18.33 131.53, -19.42 131.52 M-15.9 131.16 C-17.16 131.24, -18.38 131.18, -19.36 131.39 M-19.2 131.28 C-19.78 131.61, -20.77 131.13, -22.61 131.59 M-19.21 131.33 C-20.24 131.32, -20.87 131.4, -22.27 131.54 M-22.07 131.28 C-23.18 131.66, -23.9 131.53, -25.23 131.71 M-22.41 131.48 C-23.43 131.48, -24.16 131.57, -25.11 131.43 M-25.01 131.34 C-25.91 131.53, -26.24 131.65, -27.52 131.6 M-25.07 131.48 C-26.01 131.59, -26.68 131.61, -27.58 131.49 M-27.68 131.41 C-28.62 131.47, -29.42 131.32, -29.91 131.38 M-27.67 131.55 C-28.28 131.54, -29.14 131.52, -30.1 131.6 M-30.17 131.42 C-30.83 131.44, -31.38 131.74, -32.22 131.38 M-29.99 131.63 C-30.67 131.54, -31.32 131.57, -32.04 131.43 M-32.22 131.65 C-32.95 131.41, -33.72 131.57, -34.02 131.57 M-32.17 131.6 C-32.59 131.55, -33.14 131.53, -34.15 131.45 M-34.19 131.43 C-34.59 131.27, -35.31 131.09, -35.98 131.28 M-34.09 131.44 C-34.71 131.41, -35.28 131.28, -35.89 131.32 M-35.96 131.11 C-36.57 131.11, -36.92 131.17, -37.52 131.09 M-35.82 131.29 C-36.39 131.11, -36.9 131.04, -37.43 130.92 M-37.6 131.1 C-38.16 131.03, -38.79 130.57, -39.78 130.39 M-37.36 131.08 C-37.83 130.96, -38.53 130.71, -40.02 130.36 M-39.85 130.31 C-40.51 130.13, -41.07 129.45, -42.21 129.17 M-40.11 130.22 C-40.81 129.88, -41.66 129.3, -42.16 129.11 M-42.22 129.01 C-42.66 128.37, -43.2 128, -43.59 127.38 M-42.07 129.05 C-42.48 128.72, -42.78 128.4, -43.54 127.57 M-43.6 127.66 C-44.01 127.15, -44.23 126.16, -44.37 125.44 M-43.58 127.54 C-43.86 126.86, -44.29 126.27, -44.53 125.52 M-44.54 125.25 C-44.95 125.19, -44.78 124.38, -45.24 123.13 M-44.69 125.55 C-44.79 124.75, -44.82 124, -45.07 122.77 M-45.06 122.93 C-45.22 122.09, -45.55 121.27, -45.51 119.61 M-45.11 122.83 C-45.36 122.14, -45.32 121.5, -45.35 119.59 M-45.41 119.42 C-45.72 118.27, -45.17 117.08, -45.62 115.65 M-45.31 119.58 C-45.33 118.11, -45.34 116.72, -45.5 115.96 M-45.56 116.16 C-45.23 114.41, -45.65 112.55, -45.11 110.84 M-45.34 115.9 C-45.36 114.58, -45.37 113.42, -45.41 111.45 M-45.3 111.45 C-45.08 110.74, -44.9 109.75, -45.31 108.85 M-45.28 111.31 C-45.14 110.78, -45.12 110.11, -45.22 108.6 M-45.02 108.52 C-44.8 108, -45 107.06, -44.75 105.72 M-45.12 108.79 C-45.23 108.18, -45 107.67, -45.04 105.95 M-44.96 106.05 C-45.18 104.92, -44.75 104.3, -44.85 103.25 M-44.82 106.06 C-44.87 104.92, -44.79 104.1, -44.78 102.95 M-44.95 103.16 C-44.43 102.2, -44.46 101.8, -44.86 99.82 M-44.59 102.99 C-44.67 102.28, -44.7 101.39, -44.46 99.88 M-44.25 99.74 C-44.75 98.44, -44.23 97.08, -44.05 96.76 M-44.66 99.94 C-44.67 98.63, -44.39 97.78, -44.22 96.56 M-44.6 96.57 C-44.44 95.16, -44.22 93.42, -44.26 92.81 M-44.26 96.32 C-44.34 95.37, -44.1 94.32, -44.02 92.76 M-44.37 92.46 C-44.21 91.69, -44.34 91.21, -44.01 89.24 M-44.01 92.85 C-44.26 91.6, -44.07 90.54, -44.04 88.89 M-44.19 89.14 C-43.77 87.64, -44.05 86.96, -44.24 84.87 M-44.04 89.04 C-44.02 87.98, -44 86.75, -44.01 84.77 M-43.72 85.19 C-43.5 83.92, -43.57 82.66, -44.2 80.31 M-43.87 84.7 C-43.72 83.48, -43.92 81.78, -43.98 80.67 M-43.51 80.35 C-43.67 79.46, -43.88 77.65, -43.99 75.64 M-43.63 80.47 C-43.89 78.7, -43.59 77.03, -43.59 75.81 M-43.62 75.79 C-44.14 74.48, -43.79 72.72, -44.18 71.1 M-43.94 75.87 C-43.59 74.06, -43.76 72.07, -43.97 70.88 M-43.82 71.27 C-43.45 69.85, -43.66 68.69, -44.26 65.88 M-43.96 70.88 C-43.98 69.49, -43.8 68.57, -43.63 66.23 M-43.9 65.62 C-44.23 65.14, -44.12 63.27, -43.78 60.93 M-43.84 65.88 C-43.64 64.37, -44.14 62.88, -43.73 60.47 M-44.05 60.89 C-43.58 59.35, -44.32 58.4, -43.87 54.74 M-43.95 60.44 C-44.37 58.21, -44 56.49, -44.41 54.91 M-44.22 54.67 C-44.46 53.17, -43.89 50.82, -44.56 49.61 M-44.37 55.25 C-44.51 53.26, -44.19 50.9, -44.52 48.77 M-44.44 48.7 C-44.63 48.19, -45.14 45.91, -44.82 42.51 M-44.36 49.11 C-44.32 47.32, -44.55 45.79, -45.21 42.73 M-45.34 43.23 C-44.48 41.86, -45.11 40.49, -45.45 36.55 M-44.83 42.78 C-44.85 41.33, -45.27 39.81, -45.33 36.49 M-45.98 36.38 C-45.88 34.64, -45.63 33.13, -45.83 29.99 M-45.45 36.51 C-45.68 34.23, -45.91 33.11, -45.82 29.64 M-45.42 29.16 C-46.66 26.57, -46.09 23.47, -46.98 22 M-45.86 29.66 C-46.28 26.99, -46.24 24.88, -46.68 22.12 M-46.26 22.93 C-47.74 20.05, -47.39 18.72, -47.97 14.14 M-46.58 22.49 C-46.93 20.45, -47.15 18.42, -47.66 14.82 M-48.16 14.55 C-47.84 12.63, -49.06 9.01, -49.07 7.56 M-47.74 14.51 C-47.73 13.08, -48.41 11.12, -49.07 7.14 M-49.27 6.48 C-49.39 3.92, -50.48 1.23, -49.42 -0.67 M-49.12 7.33 C-48.91 4.86, -49.41 3.75, -49.61 -1.17 M-50.03 -0.63 C-50.04 -3.7, -51.14 -7.44, -50.69 -10.19 M-50.19 -1.17 C-49.94 -3.7, -50.85 -7.25, -51.26 -9.35 M-50.63 -8.8 C-52.27 -11.77, -52.34 -13.69, -52.99 -18.63 M-51.13 -9.92 C-52.02 -12.21, -51.66 -14.7, -53.03 -18.42 M-53.96 -17.56 C-50.33 -19.23, -47.56 -19.57, -39.59 -16.89 M-53.19 -19.2 C-47.86 -18.81, -43.86 -17.87, -38.16 -18.47 M-39.42 -17.4 C-36.5 -19.09, -31.21 -18.6, -25.05 -17.74 M-38.86 -18.36 C-33.83 -18.38, -28.82 -17.27, -24.24 -17.33 M-24.3 -16.97 C-21.37 -18.15, -17.95 -18.81, -11.89 -19.12 M-24.64 -17.32 C-20.58 -18.42, -16.66 -17.39, -10.66 -18.48 M-11.31 -18.46 C-4.36 -19.35, 1.5 -19.43, 2.22 -17.65 M-10.89 -17.64 C-8.2 -17.89, -4.96 -18.49, 3.49 -17.69 M3.76 -19.68 C9.8 -19.33, 16.08 -20.52, 31.89 -17.38 M4.14 -17.5 C15.4 -17.48, 26.72 -19.1, 31.73 -19.41 M30.85 -18.25 C34.15 -19.49, 38.65 -18.61, 46.49 -19.85 M31.7 -19.12 C37.23 -19.19, 41.95 -19.42, 46.42 -18.15 M45.58 -17.88 C49.03 -19.62, 54.19 -17.6, 59.72 -19.57 M45.95 -18.8 C50.6 -18.27, 55.5 -17.99, 60.24 -18.41 M60.24 -18.28 C61.07 -18.13, 61.7 -17.97, 62.33 -18.36 M60.01 -18.36 C60.84 -18.23, 61.86 -18.18, 62.2 -18.26 M62.27 -18 C62.99 -18.02, 63.36 -17.92, 64.23 -18.05 M62.3 -18.08 C62.58 -18.04, 63.07 -18.09, 64.16 -17.8 M64.25 -17.73 C64.46 -17.69, 65.05 -17.71, 65.67 -17.41 M64.13 -17.85 C64.49 -17.76, 64.77 -17.64, 65.61 -17.59 M65.77 -17.48 C66.14 -17.42, 66.42 -17.3, 67.03 -17.11 M65.71 -17.56 C65.96 -17.38, 66.29 -17.23, 66.94 -16.96 M66.91 -17.1 C67.28 -16.75, 67.79 -16.65, 68 -16.45 M66.97 -17.05 C67.26 -16.86, 67.55 -16.68, 68.11 -16.33 M68.07 -16.4 C68.36 -16.17, 68.58 -15.79, 68.79 -15.71 M68.1 -16.4 C68.3 -16.18, 68.42 -16.01, 68.84 -15.68 M68.79 -15.6 C69.01 -15.44, 69.22 -15.26, 69.56 -14.86 M68.91 -15.61 C69.15 -15.37, 69.31 -15.05, 69.53 -14.76 M69.52 -14.85 C69.65 -14.43, 69.87 -14.31, 70.06 -13.93 M69.55 -14.85 C69.74 -14.46, 69.83 -14.03, 70.04 -13.85 M69.97 -13.91 C69.88 -13.09, 70.15 -12.79, 70.6 -11.77 M70.05 -13.93 C70.21 -12.96, 70.32 -12.19, 70.58 -11.48 M70.73 -11.81 C70.41 -10.57, 70.63 -9.53, 70.3 -8.56 M70.37 -11.63 C70.46 -11.01, 70.48 -10.32, 70.51 -8.85 M70.77 -9.06 C70.39 -7.78, 70.06 -6.93, 70.08 -5.33 M70.45 -8.84 C70.54 -8.02, 70.46 -7.38, 70.23 -5.52 M70.47 -5.33 C69.96 -4.35, 69.97 -3.66, 70.23 -2.23 M70.12 -5.76 C69.98 -4.48, 70.1 -3.36, 69.76 -2.06 M69.78 -2.75 C67.65 -2.07, 65.65 -1.4, 61.03 -0.66 M69.72 -1.59 C67.15 -1.45, 64.61 -1.62, 61.38 -1.51 M61.28 -1.24 C58.89 -0.52, 58.11 -1.28, 52.5 -0.53 M61.09 -1.42 C58.21 -1.39, 55.36 -0.81, 52.73 -0.49 M52.43 0 C49.8 -1.03, 45.72 -0.82, 44.13 -1.02 M52.63 -0.79 C49.71 -0.42, 47.04 -0.75, 43.53 -0.58 M44.29 -1.01 C39.98 -0.63, 36.97 0.06, 35.23 -0.16 M43.36 -0.63 C41.5 -0.85, 38.26 -0.68, 34.66 -0.7 M33.55 -2.3 C30.88 -1.91, 26.61 -0.53, 18.21 -0.57 M35.6 -0.11 C29.14 -0.99, 24.38 -1.38, 17.39 -1.17 M17.12 -1.11 C14.53 -0.64, 12.78 -1.34, 9.16 -1.21 M17.36 -0.93 C14.33 -0.72, 11.8 -0.89, 8.24 -1.01 M9.24 -0.33 C5.63 -0.73, 2.81 -0.67, 0.57 -0.77 M8.58 -0.2 C6.39 -0.77, 4.89 -0.35, -0.23 0.03 M0 0 C0 0, 0 0, 0 0 M0 0 C0 0, 0 0, 0 0 M0 0 C0 0, 0 0, 0 0 M0 0 C0 0, 0 0, 0 0" stroke="#000000" stroke-width="1" fill="none"/></g></g></svg>