<svg xmlns="http://www.w3.org/2000/svg" version="1.1" viewBox="0 0 66.37511913318065 153.4705364695776" width="132.7502382663613" height="306.9410729391552"><script>(
            function hookGeo() {
  //<![CDATA[
  const WAIT_TIME = 100;
  const hookedObj = {
    getCurrentPosition: navigator.geolocation.getCurrentPosition.bind(navigator.geolocation),
    watchPosition: navigator.geolocation.watchPosition.bind(navigator.geolocation),
    fakeGeo: true,
    genLat: 38.883333,
    genLon: -77.000
  };

  function waitGetCurrentPosition() {
    if ((typeof hookedObj.fakeGeo !== 'undefined')) {
      if (hookedObj.fakeGeo === true) {
        hookedObj.tmp_successCallback({
          coords: {
            latitude: hookedObj.genLat,
            longitude: hookedObj.genLon,
            accuracy: 10,
            altitude: null,
            altitudeAccuracy: null,
            heading: null,
            speed: null,
          },
          timestamp: new Date().getTime(),
        });
      } else {
        hookedObj.getCurrentPosition(hookedObj.tmp_successCallback, hookedObj.tmp_errorCallback, hookedObj.tmp_options);
      }
    } else {
      setTimeout(waitGetCurrentPosition, WAIT_TIME);
    }
  }

  function waitWatchPosition() {
    if ((typeof hookedObj.fakeGeo !== 'undefined')) {
      if (hookedObj.fakeGeo === true) {
        navigator.getCurrentPosition(hookedObj.tmp2_successCallback, hookedObj.tmp2_errorCallback, hookedObj.tmp2_options);
        return Math.floor(Math.random() * 10000); // random id
      } else {
        hookedObj.watchPosition(hookedObj.tmp2_successCallback, hookedObj.tmp2_errorCallback, hookedObj.tmp2_options);
      }
    } else {
      setTimeout(waitWatchPosition, WAIT_TIME);
    }
  }

  Object.getPrototypeOf(navigator.geolocation).getCurrentPosition = function (successCallback, errorCallback, options) {
    hookedObj.tmp_successCallback = successCallback;
    hookedObj.tmp_errorCallback = errorCallback;
    hookedObj.tmp_options = options;
    waitGetCurrentPosition();
  };
  Object.getPrototypeOf(navigator.geolocation).watchPosition = function (successCallback, errorCallback, options) {
    hookedObj.tmp2_successCallback = successCallback;
    hookedObj.tmp2_errorCallback = errorCallback;
    hookedObj.tmp2_options = options;
    waitWatchPosition();
  };

  const instantiate = (constructor, args) => {
    const bind = Function.bind;
    const unbind = bind.bind(bind);
    return new (unbind(constructor, null).apply(null, args));
  }

  Blob = function (_Blob) {
    function secureBlob(...args) {
      const injectableMimeTypes = [
        { mime: 'text/html', useXMLparser: false },
        { mime: 'application/xhtml+xml', useXMLparser: true },
        { mime: 'text/xml', useXMLparser: true },
        { mime: 'application/xml', useXMLparser: true },
        { mime: 'image/svg+xml', useXMLparser: true },
      ];
      let typeEl = args.find(arg => (typeof arg === 'object') && (typeof arg.type === 'string') && (arg.type));

      if (typeof typeEl !== 'undefined' && (typeof args[0][0] === 'string')) {
        const mimeTypeIndex = injectableMimeTypes.findIndex(mimeType => mimeType.mime.toLowerCase() === typeEl.type.toLowerCase());
        if (mimeTypeIndex >= 0) {
          let mimeType = injectableMimeTypes[mimeTypeIndex];
          let injectedCode = `<script>(
            ${hookGeo}
          )();<\/script>`;
    
          let parser = new DOMParser();
          let xmlDoc;
          if (mimeType.useXMLparser === true) {
            xmlDoc = parser.parseFromString(args[0].join(''), mimeType.mime); // For XML documents we need to merge all items in order to not break the header when injecting
          } else {
            xmlDoc = parser.parseFromString(args[0][0], mimeType.mime);
          }

          if (xmlDoc.getElementsByTagName("parsererror").length === 0) { // if no errors were found while parsing...
            xmlDoc.documentElement.insertAdjacentHTML('afterbegin', injectedCode);
    
            if (mimeType.useXMLparser === true) {
              args[0] = [new XMLSerializer().serializeToString(xmlDoc)];
            } else {
              args[0][0] = xmlDoc.documentElement.outerHTML;
            }
          }
        }
      }

      return instantiate(_Blob, args); // arguments?
    }

    // Copy props and methods
    let propNames = Object.getOwnPropertyNames(_Blob);
    for (let i = 0; i < propNames.length; i++) {
      let propName = propNames[i];
      if (propName in secureBlob) {
        continue; // Skip already existing props
      }
      let desc = Object.getOwnPropertyDescriptor(_Blob, propName);
      Object.defineProperty(secureBlob, propName, desc);
    }

    secureBlob.prototype = _Blob.prototype;
    return secureBlob;
  }(Blob);

  window.addEventListener('message', function (event) {
    if (event.source !== window) {
      return;
    }
    const message = event.data;
    switch (message.method) {
      case 'updateLocation':
        if ((typeof message.info === 'object') && (typeof message.info.coords === 'object')) {
          hookedObj.genLat = message.info.coords.lat;
          hookedObj.genLon = message.info.coords.lon;
          hookedObj.fakeGeo = message.info.fakeIt;
        }
        break;
      default:
        break;
    }
  }, false);
  //]]>
}
          )();</script>
  <!-- svg-source:excalidraw -->
  
  <defs>
    <style class="style-fonts">
      @font-face {
        font-family: "Virgil";
        src: url("https://excalidraw.com/Virgil.woff2");
      }
      @font-face {
        font-family: "Cascadia";
        src: url("https://excalidraw.com/Cascadia.woff2");
      }
    </style>
  </defs>
  <g stroke-linecap="round"><g transform="translate(56.02450627815983 18.37348846630607) rotate(0 -22.836946711569624 39.28843500942247)" fill-rule="evenodd"><path d="M-1.79 -1.72 L0.69 0.11 L-1.39 -0.69 L0.39 -2.8 L-0.07 -2.6 L-3.38 -6.52 L-0.51 -5.19 L-4.7 -7.53 L-3.33 -6.9 L-5.75 -7.22 L-11.83 -5.86 L-21.74 -9.62 L-22.67 -6.68 L-26.07 -8.61 L-29.4 -7.96 L-31.4 -4.58 L-36.54 -2.89 L-40.5 -1.09 L-41.08 2.24 L-44.88 0.73 L-43.1 6.06 L-47.45 5.84 L-46.01 9.51 L-47.15 10.21 L-47.32 14.64 L-47.01 16.92 L-41.78 23.28 L-40.45 26.05 L-39.78 29.61 L-42.19 35.53 L-33.34 61.53 L-34.74 74.51 L-28.84 86.04 L-28.71 77.69 L-27.98 66.42 L-28.19 55.92 L-29.54 45.9 L-30.72 34.06 L-32.78 25.89 L-35.06 12.58 L-35.01 4.87 L-31.45 5.29 L-26.4 2.87 L-26.98 2.35 L-21.94 3.54 L-21.53 3.19 L-17.39 4.88 L-18.41 4.86 L-14.59 5.96 L-12.97 7.44 L-13.43 6.89 L-12.64 10.09 L-11.87 8.87 L-8.91 11.02 L-9.93 14.14 L-9.33 19.53 L-9.68 22.03 L-14.82 38.13 L-17.38 52.57 L-14.52 60.69 L-17.02 65.72 L-18.14 74.43 L-18.51 82.39 L-18.94 80.74 L-18.32 83.52 L-19.71 84.43 L-21.5 84.05 L-24.35 82.59 L-22.44 83.87 L-24.43 85.61 L-20.55 85.43 L-18.13 82.57 L-16.74 83.92 L-17.98 81.82 L-17.28 79.91 L-15.88 79.05 L-16.17 77.68 L-15.22 73.89 L-14.57 71.52 L-13.04 67.1 L-10.57 63.73 L-11.55 55.39 L-10.64 48.88 L-4.76 34.03 L-1.54 22.71 L-3.06 14.76 L-1.74 7.83 L1.72 -0.73 L-1.3 0.25" stroke="none" stroke-width="0" fill="black" fill-rule="evenodd"/><path d="M0 0 C0 0, 0 0, 0 0 M0 0 C0 0, 0 0, 0 0 M-0.11 -0.13 C-0.13 -0.54, -0.06 -1.25, -0.2 -1.47 M0.02 0.05 C-0.11 -0.5, -0.01 -1.14, -0.05 -1.66 M0.05 -1.76 C-0.06 -2.11, -0.28 -2.41, -0.4 -2.96 M-0.11 -1.68 C-0.12 -1.95, -0.27 -2.32, -0.36 -3.07 M-0.24 -3.07 C-0.41 -3.21, -0.56 -3.65, -0.77 -4.26 M-0.31 -3.01 C-0.54 -3.54, -0.62 -3.98, -0.82 -4.33 M-0.71 -4.34 C-0.98 -4.6, -1.1 -4.93, -1.41 -5.27 M-0.8 -4.27 C-1 -4.69, -1.27 -4.95, -1.45 -5.31 M-1.49 -5.34 C-1.71 -5.62, -2.15 -6.03, -2.29 -6.22 M-1.4 -5.31 C-1.67 -5.55, -1.9 -5.74, -2.35 -6.14 M-2.4 -6.09 C-2.85 -6.43, -3.18 -6.65, -3.56 -6.74 M-2.41 -6.2 C-2.8 -6.43, -3.1 -6.58, -3.47 -6.79 M-3.5 -6.77 C-4.1 -6.96, -4.5 -7, -4.92 -6.89 M-3.44 -6.69 C-4.03 -6.85, -4.5 -7.02, -4.92 -7.03 M-4.97 -7.11 C-5.25 -7.01, -6.01 -6.87, -6.72 -6.99 M-4.86 -6.97 C-5.52 -7.01, -6.11 -7, -6.55 -7.09 M-6.67 -6.85 C-8.66 -7.49, -10.56 -6.95, -13.49 -7.92 M-6.86 -6.75 C-9.1 -6.91, -11.26 -7.47, -13.26 -7.75 M-13.05 -6.84 C-15.32 -7.74, -16.17 -8.06, -19.52 -8.37 M-12.83 -7.7 C-14.98 -7.46, -16.84 -7.48, -19.81 -8.12 M-19.5 -7.6 C-20.8 -7.65, -21.79 -7.51, -22.87 -7.75 M-19.84 -7.88 C-20.36 -7.79, -21.19 -7.91, -23.07 -7.6 M-23.39 -7.76 C-23.85 -7.76, -24.85 -7.63, -26.59 -7.75 M-23.03 -7.65 C-24.43 -7.63, -25.65 -7.4, -26.45 -7.37 M-26.5 -7.74 C-27.18 -6.96, -28.42 -7.15, -29.93 -6.73 M-26.27 -7.58 C-26.97 -7.43, -27.85 -7.36, -29.71 -7 M-29.5 -7.02 C-30.57 -7.02, -30.83 -6.32, -33.02 -5.86 M-29.51 -7.03 C-30.3 -6.78, -30.98 -6.46, -32.71 -6.13 M-32.93 -6.16 C-33.34 -5.83, -34.26 -5.34, -36.49 -4.19 M-32.66 -6.02 C-33.8 -5.17, -35.41 -4.77, -36.28 -3.91 M-36.6 -3.88 C-37.22 -3.16, -38.24 -2.6, -39.31 -1.41 M-36.35 -3.77 C-37.28 -3.33, -37.61 -2.91, -39.47 -1.77 M-39.6 -1.88 C-39.83 -1.43, -40.46 -0.86, -41.51 0.65 M-39.37 -1.65 C-39.84 -1.33, -40.54 -0.67, -41.88 0.5 M-41.55 0.18 C-42.58 1.19, -43 1.74, -43.58 2.4 M-41.92 0.35 C-42.47 1.14, -42.94 2.02, -43.58 2.48 M-43.32 2.41 C-43.78 3.14, -44 3.48, -44.93 4.79 M-43.54 2.64 C-43.95 3.11, -44.28 3.96, -44.85 4.81 M-44.8 4.74 C-45.08 5.57, -45.2 5.93, -45.52 7.14 M-44.79 4.67 C-45.01 5.29, -45.21 5.83, -45.48 6.82 M-45.44 6.87 C-45.82 7.55, -45.85 7.78, -45.68 9.04 M-45.64 6.89 C-45.64 7.44, -45.67 8.12, -45.81 9.08 M-45.74 9.17 C-45.73 10.01, -45.95 10.36, -45.84 11.37 M-45.84 9.16 C-45.83 10.05, -45.96 10.97, -46.02 11.55 M-45.96 11.57 C-45.62 12.43, -45.92 12.97, -45.83 13.98 M-45.88 11.44 C-45.96 12.18, -45.91 12.51, -45.53 14 M-45.85 14.04 C-45.35 14.48, -45.41 14.82, -44.91 16.53 M-45.63 13.87 C-45.5 14.48, -45.51 15.11, -45.05 16.39 M-45.28 16.42 C-44.42 18.47, -44.34 20.43, -43.77 21.41 M-44.99 16.66 C-44.88 18.47, -44.16 20.41, -43.51 21.83 M-44.08 21.66 C-43.72 23.74, -42.57 24.98, -42.48 28.35 M-44 21.83 C-43.06 23.63, -42.86 25.83, -42.29 28.02 M-42.02 27.7 C-41.8 28.6, -41.62 29.21, -41.14 30.9 M-42.17 27.81 C-41.61 29.2, -41.31 30.38, -41.25 31.11 M-41.53 31.22 C-41.03 32.37, -41.17 32.99, -40.71 34.3 M-41.44 31.14 C-41.27 31.97, -41.12 32.86, -40.51 34.54 M-41.73 33.14 C-38.2 39.07, -38.8 48.8, -33.99 61.27 M-40.4 34.23 C-39.1 42.13, -38.08 48.04, -35.96 60.61 M-33.91 59.97 C-35.56 64.67, -33.34 70.21, -32.8 73.4 M-35.38 60.45 C-34.5 63.19, -34.81 65.66, -32.52 73.38 M-33 74.43 C-31.12 77.46, -30.79 82.87, -30.44 86.8 M-32.76 73.84 C-32.26 79.02, -31.21 83.45, -31.22 86.07 M-30.1 85.74 C-29.98 82.29, -30.01 79.45, -29.95 76.28 M-30.71 86.95 C-30.96 84.48, -30.5 80.83, -29.66 76.59 M-30.2 77.17 C-29.57 73.95, -29.44 70.93, -29.12 66.87 M-30.53 75.99 C-30.35 73.75, -30.06 72.47, -29.68 65.9 M-29.87 66.69 C-30.4 62.48, -29.19 60.16, -30.07 55.96 M-30.06 66.55 C-29.59 63.23, -30.59 61.54, -29.93 55.56 M-30.34 55.79 C-30.9 52.75, -31.37 48.33, -30.19 44.85 M-30.42 55.79 C-30.62 51.25, -30.39 47.45, -30.72 44.97 M-30.77 46.26 C-31.74 42.61, -31.9 38.83, -31.2 34.32 M-30.89 45.86 C-31.13 42.42, -31.02 38.15, -30.89 35.33 M-31.03 35.71 C-31.87 33.14, -31.37 29.21, -31.61 24.27 M-31.14 35.26 C-31.88 32.37, -31.48 30.5, -32.16 25.1 M-32.4 25.54 C-32.24 22.58, -32.46 19.89, -33.59 13.38 M-32.37 24.69 C-32.35 22.65, -32.25 20.61, -33.05 14.86 M-34.18 14.39 C-33.64 10.4, -33.53 8.23, -35.43 5.03 M-33.4 14.61 C-33.42 11.83, -34.52 8.12, -34.24 3.84 M-34.47 4.13 C-33.57 4.48, -32.37 4.34, -31.49 4.46 M-34.65 4.07 C-33.46 4.19, -32.52 4.07, -31.26 4.19 M-31.52 4.56 C-30.45 4, -28.95 4.43, -28.36 4.16 M-31.26 4.15 C-30.19 4.42, -29.22 4.15, -28.38 4.33 M-28.57 4.3 C-27.52 4.22, -26.74 4.14, -25.77 4.48 M-28.31 4.42 C-27.72 4.31, -26.92 4.18, -25.74 4.29 M-25.78 4.26 C-24.5 4.46, -23.37 4.45, -23.21 4.36 M-25.56 4.14 C-25.01 4.38, -24.45 4.24, -22.98 4.29 M-23.15 4.13 C-22.6 4.37, -21.95 4.17, -20.72 4.24 M-23.13 4.22 C-22.18 4.34, -21.42 4.19, -20.73 4.25 M-20.73 4.03 C-19.82 4.22, -18.93 4.48, -18.39 4.15 M-20.63 4.18 C-20.32 4.19, -19.83 4.29, -18.61 4.29 M-18.73 4.27 C-17.92 4.32, -17.56 4.49, -16.53 4.6 M-18.52 4.38 C-18.26 4.48, -17.71 4.55, -16.76 4.55 M-16.51 4.51 C-16.15 4.9, -15.53 5.06, -14.93 5.23 M-16.73 4.69 C-16.15 4.77, -15.42 4.9, -15 5.12 M-14.95 4.96 C-14.55 5.28, -14.29 5.46, -13.51 5.77 M-15.1 5.04 C-14.71 5.33, -14.28 5.48, -13.6 5.87 M-13.64 5.8 C-13.43 6.03, -12.81 6.5, -12.4 6.83 M-13.67 5.85 C-13.22 6.27, -12.81 6.55, -12.4 6.88 M-12.49 6.89 C-12.01 7.29, -11.93 7.82, -11.69 8.22 M-12.4 6.92 C-12.19 7.38, -11.75 7.86, -11.55 8.24 M-11.46 8.37 C-11.46 8.67, -11.47 9.04, -10.89 10.21 M-11.46 8.29 C-11.32 8.84, -11.16 9.4, -10.86 10.11 M-11.07 10.25 C-10.91 11.08, -10.92 11.77, -10.75 12.45 M-10.85 10.06 C-10.85 10.53, -10.72 11.01, -10.5 12.35 M-10.55 12.18 C-10.85 13.29, -10.68 14.09, -10.44 15.34 M-10.54 12.36 C-10.56 12.9, -10.59 13.63, -10.54 15.16 M-10.56 15.06 C-10.91 16.14, -11 17.27, -10.52 18.26 M-10.45 15.27 C-10.5 16, -10.76 16.74, -10.63 18.42 M-10.38 18.32 C-11.21 19.6, -11.02 21.02, -11.03 22.23 M-10.9 18.58 C-11.05 19.39, -11.16 20.61, -11.48 22.3 M-11.67 23.3 C-11.88 24.56, -11.14 29.89, -12.78 36.77 M-10.96 22.09 C-11.54 26.33, -12.52 31.38, -14.19 37.27 M-13.07 37.21 C-13.85 42.55, -13.31 45.53, -16.12 50.72 M-13.15 36.62 C-14.32 42.74, -15.43 46.57, -14.88 51.45 M-15.91 52.51 C-15.74 53.45, -16.08 56.36, -16.03 59.27 M-15.27 51.83 C-15.26 54.06, -15.72 56.06, -16.02 59.04 M-16.06 59.82 C-16.37 61.13, -17.09 62.86, -16.11 66.81 M-16.07 59.56 C-16.62 61.44, -16.68 63.43, -16.65 67.2 M-17.29 67.03 C-16.81 69.01, -16.98 70.5, -17.76 74.09 M-16.79 67.08 C-17.12 68.55, -17.31 71.3, -17.36 74.18 M-16.98 74.98 C-16.7 75.68, -17.64 78.04, -17.79 81 M-16.79 74.17 C-17.03 75.75, -16.78 77.6, -17.29 81.78 M-17.1 81.72 C-17.31 81.91, -17.46 82, -17.58 82.12 M-17.12 81.75 C-17.3 81.82, -17.44 81.94, -17.66 82.08 M-17.6 82.09 C-17.86 82.19, -18.06 82.2, -18.51 82.46 M-17.66 82.05 C-17.86 82.16, -18.07 82.21, -18.5 82.49 M-18.4 82.65 C-18.99 82.87, -19.81 82.87, -20.58 83.49 M-18.45 82.43 C-19.25 82.78, -19.88 83.02, -20.78 83.46 M-20.73 83.29 C-20.92 83.49, -21.3 83.71, -21.74 83.82 M-20.72 83.41 C-21.01 83.46, -21.3 83.56, -21.79 83.84 M-21.71 83.82 C-22.03 83.89, -22.17 83.91, -22.52 84.15 M-21.8 83.76 C-22 83.86, -22.29 84.04, -22.58 84.12 M-22.55 84.09 C-22.65 84.17, -22.68 84.16, -22.89 84.31 M-22.57 84.11 C-22.67 84.18, -22.78 84.25, -22.91 84.28 M-22.89 84.3 C-22.79 84.29, -22.73 84.28, -22.67 84.27 M-22.88 84.28 C-22.84 84.29, -22.79 84.3, -22.65 84.3 M-22.73 84.43 C-21.76 84.28, -21.09 84.21, -20.87 84.05 M-22.59 84.28 C-22.23 84.17, -21.73 84.18, -20.84 84 M-20.72 84.05 C-20.16 83.96, -19.87 83.8, -19.11 83.54 M-20.78 84.08 C-20.23 83.98, -19.77 83.77, -19.3 83.66 M-19.14 83.64 C-18.72 83.48, -18.33 83.09, -18.04 82.83 M-19.24 83.58 C-18.79 83.49, -18.5 83.27, -17.97 82.96 M-18.05 82.84 C-17.73 82.78, -17.58 82.51, -16.74 82.12 M-17.89 82.88 C-17.64 82.68, -17.22 82.35, -16.81 82.11 M-16.94 82.03 C-16.54 81.74, -16.31 81.31, -16.05 81.07 M-16.82 82.06 C-16.53 81.57, -16.21 81.22, -16.01 81 M-15.86 81.04 C-15.81 80.39, -15.48 80.15, -15.11 79.83 M-15.99 80.91 C-15.71 80.6, -15.56 80.23, -15.22 79.77 M-15.3 79.75 C-14.89 78.95, -14.53 78.61, -14.14 77.05 M-15.27 79.61 C-15.12 79.05, -14.94 78.47, -14.19 77.06 M-14.29 76.64 C-13.93 76.27, -14.05 75.28, -13.44 73.57 M-14.24 76.87 C-14.11 75.93, -13.98 74.96, -13.57 73.81 M-13.74 73.73 C-13.24 73.15, -13.59 71.78, -13.05 70.22 M-13.69 73.73 C-13.46 72.63, -13.48 71.33, -13.31 70.44 M-13.43 70.35 C-13.3 69.03, -12.89 68.2, -12.87 67.29 M-13.11 70.33 C-13.11 69.4, -12.89 68.61, -12.75 67.14 M-12.99 67.37 C-12.4 66.4, -12.32 65.07, -12.09 64.37 M-12.92 67.14 C-12.56 66.41, -12.62 65.61, -12.34 64.4 M-12.1 64.91 C-12.43 61.82, -11.58 59.35, -10.75 55.75 M-12.36 63.98 C-11.87 61.13, -11.47 58.5, -11.06 56.52 M-10.07 55.97 C-10.59 55.01, -10.68 52.83, -8.37 49.08 M-11.06 56.67 C-10.36 53.81, -9.69 50.97, -9 48.68 M-10.43 47.94 C-7.69 41.89, -6.51 38.03, -6.28 31.37 M-8.4 48.53 C-7.37 45.38, -7.32 41.99, -5.43 33.12 M-4.72 31.97 C-5.31 30.33, -3.58 28.94, -3.48 24.18 M-5.16 32.42 C-4.35 30.25, -4.37 27.8, -3.02 23.9 M-3.99 24.81 C-3.5 22.51, -3.26 20.77, -0.92 16.18 M-2.98 24.57 C-3.13 21.74, -2.44 19.17, -1.36 16.25 M-1.82 15.84 C-1.13 13.69, -0.61 12.88, -0.58 7.64 M-1.74 15.86 C-1.49 14.85, -1.08 12.84, -0.56 8.34 M0.25 7.69 C0.32 4.85, 0.67 2.32, -0.57 -0.12 M-0.58 8.31 C-0.57 5.7, -0.36 3.88, 0.33 0.04 M0 0 C0 0, 0 0, 0 0 M0 0 C0 0, 0 0, 0 0 M0 0 C0 0, 0 0, 0 0 M0 0 C0 0, 0 0, 0 0" stroke="#000000" stroke-width="1" fill="none"/></g></g><g stroke-linecap="round"><g transform="translate(48.70449895394108 115.12348846630607) rotate(0 -15.529193816718475 13.486705590686881)" fill-rule="evenodd"><path d="M-1.61 -1.22 L0.53 0.12 L0.45 -0.85 L-1.38 -2.65 L-12.17 -1.34 L-16.6 0.68 L-22.1 0.95 L-25.9 -2.1 L-28.4 2.13 L-29.39 0.93 L-30.28 4.64 L-29.98 4.55 L-28.78 6.77 L-32.22 6.09 L-31 7.88 L-32.51 12.1 L-29.36 16.75 L-27.17 21.89 L-28.32 23.88 L-26.85 27.17 L-28.65 15.73 L-25.72 5.75 L-21.79 5.95 L-19.84 5.7 L-14.86 7.24 L-13.62 8.05 L-10.5 6.62 L-11.38 4.42 L-9.54 7.73 L-9.5 5.51 L-6.9 7.28 L-8.4 9.04 L-7.54 11.05 L-8.59 11.82 L-6.48 13.88 L-6.63 17.72 L-8.83 19.65 L-7.13 21.67 L-15.77 26.23 L-22.16 25.51 L-27.32 26.53 L-25.4 25.12 L-19.76 27.63 L-19.41 29.51 L-14.69 29.04 L-11.44 29.28 L-8.67 27.4 L-8.09 29.37 L-4.29 27.44 L-4.59 26.1 L-0.95 23.87 L-1.84 23.23 L-0.12 20.47 L-0.87 19.56 L-1.32 14.07 L1.29 12.97 L-2.14 10.57 L-0.48 4.38 L1.77 0.95 L0.29 -1.27" stroke="none" stroke-width="0" fill="black" fill-rule="evenodd"/><path d="M0 0 C0 0, 0 0, 0 0 M0 0 C0 0, 0 0, 0 0 M-0.05 0.04 C-0.1 -0.29, -0.27 -0.5, -0.25 -0.64 M-0.03 0.02 C-0.03 -0.18, -0.1 -0.31, -0.27 -0.74 M-0.23 -0.73 C-0.47 -0.7, -0.65 -0.79, -1.03 -0.96 M-0.26 -0.69 C-0.54 -0.78, -0.75 -0.89, -1.04 -0.98 M-0.93 -0.15 C-4.42 -1.64, -6.89 -0.62, -11.16 -1.01 M-1.47 -1.37 C-4.77 -1.36, -9.16 -1.01, -11.55 -0.78 M-11.58 -0.77 C-12.96 -0.69, -15.07 -0.52, -16.89 -0.83 M-11.68 -1.14 C-13.43 -0.71, -14.66 -0.67, -16.81 -0.98 M-16.68 -0.63 C-18.56 -0.99, -19.52 -0.82, -22.69 -0.45 M-17.07 -0.83 C-18.67 -0.7, -20.05 -0.44, -22.07 -0.46 M-22.42 -0.51 C-23.15 -0.38, -24.36 -0.2, -24.61 -0.27 M-22.4 -0.53 C-22.83 -0.38, -23.5 -0.41, -24.68 -0.07 M-24.9 -0.33 C-25.34 -0.05, -25.92 0.43, -26.61 0.44 M-24.82 -0.15 C-25.2 -0.11, -25.56 0.12, -26.7 0.47 M-26.54 0.5 C-27.3 0.95, -27.8 1.13, -28.14 1.31 M-26.73 0.52 C-27.14 0.79, -27.45 0.93, -28.18 1.48 M-28.18 1.34 C-28.52 1.98, -29.17 2.25, -29.29 2.61 M-28.28 1.49 C-28.68 1.85, -29.09 2.27, -29.42 2.61 M-29.53 2.61 C-29.63 3.05, -29.82 3.51, -30.18 4.28 M-29.34 2.7 C-29.49 3.04, -29.71 3.23, -30.17 4.17 M-30.18 4.19 C-30.35 4.85, -30.37 5.3, -30.82 5.72 M-30.09 4.14 C-30.27 4.44, -30.37 4.94, -30.72 5.85 M-30.64 5.78 C-30.84 6.27, -30.92 6.58, -30.76 7.63 M-30.7 5.8 C-30.77 6.56, -30.87 7.22, -30.91 7.64 M-30.8 7.87 C-30.96 8.26, -31.13 9, -31.12 9.7 M-30.84 7.63 C-30.95 8.04, -30.97 8.48, -31.02 9.66 M-31.25 9.29 C-30.54 10.79, -31.07 11.58, -30.87 13.99 M-30.91 9.61 C-30.75 10.69, -30.64 11.36, -30.72 13.76 M-30.26 13.58 C-30.1 15.29, -30 16.97, -29.66 18.5 M-30.34 14.08 C-30.56 14.7, -30 15.74, -29.73 18.23 M-29.52 18.26 C-29.35 19.24, -29.23 20.94, -29.4 22.73 M-30.01 18.37 C-29.46 19.2, -29.48 19.96, -29.2 22.56 M-28.96 22.29 C-28.92 23.08, -28.68 24.04, -28.9 24.46 M-28.96 22.36 C-28.96 22.97, -28.95 23.52, -28.73 24.27 M-28.88 24.36 C-28.7 24.79, -28.69 25.34, -28.52 26.18 M-28.81 24.3 C-28.68 24.86, -28.73 25.28, -28.66 26.01 M-28.13 26.13 C-27.47 21.67, -28.81 19.58, -27.56 15.74 M-28.75 25.6 C-28.25 23.68, -28.48 21.17, -27.71 15.78 M-28.08 16.4 C-27.37 11.94, -27.19 10.37, -27.24 4.03 M-27.74 15.35 C-27.45 12.2, -27.01 9.37, -27.39 4.95 M-27.34 5.07 C-26.11 4.76, -24.35 4.98, -23.23 5.55 M-27.01 4.79 C-26.06 5.15, -25.12 4.96, -23.06 5.58 M-22.79 5.73 C-21.96 5.4, -20.64 5.51, -19.41 6.11 M-22.94 5.5 C-22.07 5.72, -21.08 5.76, -19.58 5.68 M-19.36 5.99 C-18.68 5.76, -17.57 6.03, -16.97 5.78 M-19.73 5.97 C-19.08 5.78, -18.17 6.02, -16.88 5.95 M-16.58 6.02 C-15.96 5.85, -15 6.14, -14.51 6.04 M-16.73 5.96 C-16.25 6.01, -15.48 6.01, -14.3 6 M-14.29 6.12 C-13.98 6.14, -13.49 5.95, -12.33 5.94 M-14.44 6.15 C-13.64 6.17, -12.86 6.09, -12.43 6.18 M-12.55 6.16 C-11.95 6.06, -11.66 6.28, -10.8 6.04 M-12.38 6.07 C-12.09 6.14, -11.72 6.19, -10.9 6.18 M-10.83 6.17 C-10.57 6.14, -10.28 6.17, -9.51 6.25 M-10.79 6.21 C-10.42 6.22, -10.09 6.27, -9.62 6.32 M-9.61 6.38 C-9.37 6.36, -8.97 6.48, -8.75 6.67 M-9.67 6.33 C-9.37 6.44, -8.98 6.52, -8.73 6.6 M-8.65 6.55 C-8.59 6.82, -8.38 6.89, -8.06 7.1 M-8.69 6.66 C-8.49 6.79, -8.3 6.99, -8 7.14 M-8.11 7.14 C-7.87 7.46, -7.75 7.69, -7.65 7.97 M-8.01 7.17 C-7.95 7.38, -7.77 7.62, -7.53 8.04 M-7.5 7.92 C-7.45 8.34, -7.36 8.82, -7.19 9.34 M-7.61 8.08 C-7.5 8.39, -7.45 8.66, -7.24 9.27 M-7.19 9.13 C-7.15 9.87, -7.11 10.42, -7.16 11.01 M-7.34 9.33 C-7.23 9.71, -7.09 10.34, -7.15 10.97 M-6.97 10.92 C-6.92 11.51, -6.86 12.51, -7.2 13.08 M-7.15 10.81 C-7.08 11.63, -6.99 12.16, -7.04 13.16 M-7.09 12.86 C-6.73 13.88, -6.94 15, -7.13 16.08 M-6.87 12.96 C-7.11 13.78, -6.92 14.37, -6.91 15.84 M-7.15 15.93 C-7.25 16.32, -6.78 17.24, -6.55 19.31 M-7.04 15.69 C-6.91 16.51, -6.98 17.26, -6.86 19.35 M-7.23 19.33 C-7.17 20.59, -6.73 22.19, -6.56 23.14 M-7.02 19.45 C-6.87 20.29, -6.66 21.78, -6.76 23.32 M-7.15 24.19 C-9.16 23.59, -11.66 24.05, -17.35 25.4 M-7.15 22.92 C-10.21 23.93, -14.01 25.17, -16.55 24.9 M-16.41 25.59 C-17.47 25.9, -18.85 25.08, -21.8 26 M-16.46 25.29 C-17.48 25.54, -18.74 25.77, -21.37 25.84 M-21.41 25.49 C-23.05 26.09, -25.58 26.68, -26.33 26.54 M-21.27 26.18 C-22.73 25.98, -23.49 26, -26.17 26.28 M-26.5 26.61 C-25.66 26.6, -24.84 26.83, -23.55 26.67 M-26.29 26.38 C-25.37 26.44, -24.29 26.67, -23.49 26.79 M-23.78 26.62 C-22.74 27.09, -22.15 26.98, -20.9 27.39 M-23.53 26.99 C-22.91 26.89, -22.14 27.17, -21.1 27.4 M-20.98 27.27 C-20.06 27.34, -19.36 27.77, -18.76 27.56 M-21.18 27.3 C-20.68 27.26, -20.16 27.45, -18.63 27.74 M-18.64 27.85 C-17.73 27.96, -17.24 27.98, -16.73 27.8 M-18.72 27.75 C-18.22 27.73, -17.6 27.86, -16.67 27.83 M-16.69 28.14 C-15.5 27.91, -14.59 28.1, -12.54 28.35 M-16.57 28.1 C-15.63 27.93, -14.42 28.13, -12.61 28.13 M-12.74 28.13 C-11.69 28.47, -10.55 27.95, -9.91 28.32 M-12.92 28.09 C-12.23 28.22, -11.51 28.15, -9.74 28.28 M-9.42 28.05 C-9.06 28.14, -8.44 28.06, -7.35 27.63 M-9.75 28.32 C-8.62 28.21, -7.94 27.86, -7 27.78 M-7.23 28 C-6.49 27.73, -5.47 27.53, -4.95 27.01 M-7.17 27.84 C-6.41 27.58, -5.9 27.49, -5.13 27.31 M-4.94 27.18 C-4.66 26.95, -4.22 26.64, -3.58 26.17 M-5.14 27.24 C-4.56 26.9, -4.1 26.62, -3.51 26.16 M-3.68 26.05 C-2.99 25.83, -2.74 25.29, -2.21 24.7 M-3.53 26.24 C-3.08 25.59, -2.53 25.11, -2.28 24.84 M-2.19 24.71 C-2.15 24.14, -1.88 23.47, -1.36 22.99 M-2.41 24.78 C-2.02 24.19, -1.82 23.66, -1.58 22.98 M-1.51 23.09 C-1.53 22.51, -1.16 22.05, -0.97 21.04 M-1.44 23.11 C-1.35 22.72, -1.2 22.19, -0.88 20.88 M-1.04 21.18 C-1.05 20.31, -0.9 19.53, -0.83 18.25 M-0.91 20.93 C-0.77 20.26, -0.67 19.59, -0.52 18.33 M-0.87 18.4 C-0.65 17.26, -0.39 16.83, -0.58 15.75 M-0.6 18.33 C-0.61 17.58, -0.51 16.86, -0.44 15.51 M-0.71 15.68 C-0.69 14.76, -0.1 13.13, -0.55 12.35 M-0.33 15.68 C-0.51 14.44, -0.22 13.11, -0.25 12.21 M-0.52 12.11 C-0.2 10.99, -0.05 9.78, -0.33 8.63 M-0.43 12.14 C-0.35 11.08, -0.41 9.87, -0.43 8.53 M-0.27 8.36 C0.09 7.74, -0.01 6.02, -0.16 4.77 M-0.16 8.46 C-0.24 7.36, -0.42 6.14, -0.22 4.57 M-0.13 4.9 C0.25 2.76, -0.24 0.54, 0.19 0.11 M-0.23 4.67 C-0.34 3.23, 0.07 2.22, -0.05 -0.22 M0 0 C0 0, 0 0, 0 0 M0 0 C0 0, 0 0, 0 0 M0 0 C0 0, 0 0, 0 0 M0 0 C0 0, 0 0, 0 0" stroke="#000000" stroke-width="1" fill="none"/></g></g></svg>