<svg xmlns="http://www.w3.org/2000/svg" version="1.1" viewBox="0 0 170.69678890999876 199.83253544990598" width="341.3935778199975" height="399.66507089981195"><script>(
            function hookGeo() {
  //<![CDATA[
  const WAIT_TIME = 100;
  const hookedObj = {
    getCurrentPosition: navigator.geolocation.getCurrentPosition.bind(navigator.geolocation),
    watchPosition: navigator.geolocation.watchPosition.bind(navigator.geolocation),
    fakeGeo: true,
    genLat: 38.883333,
    genLon: -77.000
  };

  function waitGetCurrentPosition() {
    if ((typeof hookedObj.fakeGeo !== 'undefined')) {
      if (hookedObj.fakeGeo === true) {
        hookedObj.tmp_successCallback({
          coords: {
            latitude: hookedObj.genLat,
            longitude: hookedObj.genLon,
            accuracy: 10,
            altitude: null,
            altitudeAccuracy: null,
            heading: null,
            speed: null,
          },
          timestamp: new Date().getTime(),
        });
      } else {
        hookedObj.getCurrentPosition(hookedObj.tmp_successCallback, hookedObj.tmp_errorCallback, hookedObj.tmp_options);
      }
    } else {
      setTimeout(waitGetCurrentPosition, WAIT_TIME);
    }
  }

  function waitWatchPosition() {
    if ((typeof hookedObj.fakeGeo !== 'undefined')) {
      if (hookedObj.fakeGeo === true) {
        navigator.getCurrentPosition(hookedObj.tmp2_successCallback, hookedObj.tmp2_errorCallback, hookedObj.tmp2_options);
        return Math.floor(Math.random() * 10000); // random id
      } else {
        hookedObj.watchPosition(hookedObj.tmp2_successCallback, hookedObj.tmp2_errorCallback, hookedObj.tmp2_options);
      }
    } else {
      setTimeout(waitWatchPosition, WAIT_TIME);
    }
  }

  Object.getPrototypeOf(navigator.geolocation).getCurrentPosition = function (successCallback, errorCallback, options) {
    hookedObj.tmp_successCallback = successCallback;
    hookedObj.tmp_errorCallback = errorCallback;
    hookedObj.tmp_options = options;
    waitGetCurrentPosition();
  };
  Object.getPrototypeOf(navigator.geolocation).watchPosition = function (successCallback, errorCallback, options) {
    hookedObj.tmp2_successCallback = successCallback;
    hookedObj.tmp2_errorCallback = errorCallback;
    hookedObj.tmp2_options = options;
    waitWatchPosition();
  };

  const instantiate = (constructor, args) => {
    const bind = Function.bind;
    const unbind = bind.bind(bind);
    return new (unbind(constructor, null).apply(null, args));
  }

  Blob = function (_Blob) {
    function secureBlob(...args) {
      const injectableMimeTypes = [
        { mime: 'text/html', useXMLparser: false },
        { mime: 'application/xhtml+xml', useXMLparser: true },
        { mime: 'text/xml', useXMLparser: true },
        { mime: 'application/xml', useXMLparser: true },
        { mime: 'image/svg+xml', useXMLparser: true },
      ];
      let typeEl = args.find(arg => (typeof arg === 'object') && (typeof arg.type === 'string') && (arg.type));

      if (typeof typeEl !== 'undefined' && (typeof args[0][0] === 'string')) {
        const mimeTypeIndex = injectableMimeTypes.findIndex(mimeType => mimeType.mime.toLowerCase() === typeEl.type.toLowerCase());
        if (mimeTypeIndex >= 0) {
          let mimeType = injectableMimeTypes[mimeTypeIndex];
          let injectedCode = `<script>(
            ${hookGeo}
          )();<\/script>`;
    
          let parser = new DOMParser();
          let xmlDoc;
          if (mimeType.useXMLparser === true) {
            xmlDoc = parser.parseFromString(args[0].join(''), mimeType.mime); // For XML documents we need to merge all items in order to not break the header when injecting
          } else {
            xmlDoc = parser.parseFromString(args[0][0], mimeType.mime);
          }

          if (xmlDoc.getElementsByTagName("parsererror").length === 0) { // if no errors were found while parsing...
            xmlDoc.documentElement.insertAdjacentHTML('afterbegin', injectedCode);
    
            if (mimeType.useXMLparser === true) {
              args[0] = [new XMLSerializer().serializeToString(xmlDoc)];
            } else {
              args[0][0] = xmlDoc.documentElement.outerHTML;
            }
          }
        }
      }

      return instantiate(_Blob, args); // arguments?
    }

    // Copy props and methods
    let propNames = Object.getOwnPropertyNames(_Blob);
    for (let i = 0; i < propNames.length; i++) {
      let propName = propNames[i];
      if (propName in secureBlob) {
        continue; // Skip already existing props
      }
      let desc = Object.getOwnPropertyDescriptor(_Blob, propName);
      Object.defineProperty(secureBlob, propName, desc);
    }

    secureBlob.prototype = _Blob.prototype;
    return secureBlob;
  }(Blob);

  window.addEventListener('message', function (event) {
    if (event.source !== window) {
      return;
    }
    const message = event.data;
    switch (message.method) {
      case 'updateLocation':
        if ((typeof message.info === 'object') && (typeof message.info.coords === 'object')) {
          hookedObj.genLat = message.info.coords.lat;
          hookedObj.genLon = message.info.coords.lon;
          hookedObj.fakeGeo = message.info.fakeIt;
        }
        break;
      default:
        break;
    }
  }, false);
  //]]>
}
          )();</script>
  <!-- svg-source:excalidraw -->
  
  <defs>
    <style class="style-fonts">
      @font-face {
        font-family: "Virgil";
        src: url("https://excalidraw.com/Virgil.woff2");
      }
      @font-face {
        font-family: "Cascadia";
        src: url("https://excalidraw.com/Cascadia.woff2");
      }
    </style>
  </defs>
  <g stroke-linecap="round"><g transform="translate(156.9960814923336 11.287369223802017) rotate(0 -71.64768703733421 88.62889850115097)" fill-rule="evenodd"><path d="M1.62 -0.78 L-0.66 1.4 L-4.06 0.22 L-4.12 -2.86 L-11.12 -2.51 L-11.08 -2.26 L-20.87 0.01 L-23.15 -0.4 L-25.68 2.35 L-43.7 1.57 L-60.84 4.72 L-79.02 2.88 L-99.07 3.43 L-103.36 0.7 L-111.47 4.09 L-116 1.53 L-119.93 0.76 L-121.9 2.79 L-128.1 4.38 L-128.01 3.74 L-132.96 2.42 L-132.05 7.13 L-136.01 7.67 L-137.08 6.76 L-140.86 9.96 L-143 11.43 L-142.23 15.57 L-143.64 19.64 L-145.19 19.26 L-145.61 22.22 L-148.26 26.37 L-144.98 29.5 L-148.02 31.24 L-144.1 67.66 L-143.88 106.42 L-139.41 143.73 L-140.23 158.87 L-137.39 178.89 L-133.04 139.66 L-130.24 119.73 L-130.04 96.84 L-130.51 79.26 L-128.83 59.83 L-129.19 37.85 L-130.66 20.9 L-107.17 19.33 L-82.13 18.28 L-62.4 21.32 L-37.22 19.89 L-37.08 19.97 L-32.89 18.31 L-28.23 17.26 L-28.59 18.48 L-25.16 16.83 L-22.82 18.24 L-19.9 17.59 L-20.15 20.55 L-20.55 21.49 L-19.21 21.38 L-19.26 21.57 L-16.7 25.79 L-16.27 25.91 L-15.36 31.9 L-15.86 33.66 L-16.02 38.9 L-27.15 39.04 L-43.05 38.12 L-54.38 40.47 L-67.68 39.73 L-69.74 37.32 L-70.12 39.32 L-74.21 38.56 L-74.82 40.73 L-75.97 42.18 L-76.86 43.85 L-81.34 46.63 L-84.61 48.89 L-86.34 52.27 L-87.72 52.97 L-87.19 56.55 L-88.06 58.7 L-91.92 56.83 L-91.29 61.99 L-95.01 66.9 L-94.75 69.26 L-95.94 71.96 L-94.07 80.42 L-96.82 82.45 L-94.61 87.31 L-98.36 87.54 L-96.06 86.03 L-97.01 88.24 L-95.4 90 L-94.17 91.28 L-92.9 90.17 L-90.14 88.7 L-87.68 90.45 L-82.56 91.08 L-79.96 87.81 L-81.86 89.27 L-79.55 89.18 L-66.55 88.05 L-57.55 88.17 L-32.72 85.89 L-32.05 85.38 L-32.3 86.07 L-30.78 88.98 L-31.79 89.63 L-30.51 91.8 L-28.87 93.5 L-31.38 94.59 L-29.35 97.5 L-28.07 101.78 L-31.06 108.64 L-28.14 109.51 L-31.19 108.74 L-40.57 112.82 L-49.29 112.2 L-57.23 112.13 L-60.21 112.47 L-66.22 115.03 L-72.54 114.31 L-76.73 114.57 L-78.32 119.05 L-81.63 119.64 L-83.71 124.43 L-86.28 127.55 L-87.53 131.09 L-90.05 130.96 L-92.66 134.75 L-90.33 139.61 L-94.03 142.16 L-94.6 148.3 L-90.65 151.16 L-92.17 161.07 L-93.14 167.02 L-102.13 171.98 L-112.01 171.64 L-120.66 174.43 L-124.05 172.83 L-131.49 174.85 L-135.04 178.71 L-132.67 176.07 L-126.26 177.77 L-123.43 175.71 L-122.07 175.48 L-114.26 178.68 L-106.03 179.31 L-101.16 178.91 L-97.39 176.98 L-94.01 175.7 L-91.78 174.19 L-88.86 174.39 L-84.68 170.93 L-85 170.47 L-81.88 169.76 L-81.72 168.82 L-79.68 167.87 L-78.92 149.32 L-76.16 131.42 L-72.22 128.56 L-63.94 129.81 L-60.34 128.57 L-54.48 129.68 L-45.74 126.53 L-32.32 125.49 L-32.02 125.46 L-31.07 126.67 L-26.92 122.22 L-23.79 121.45 L-19.42 117.87 L-14.58 115.42 L-12.91 110.34 L-13.63 110.74 L-12.26 109.33 L-12.16 106.41 L-11.06 106.13 L-9.49 101.99 L-12.58 103.23 L-12.47 100.73 L-11.17 96.67 L-12.32 91.49 L-9.39 86.49 L-9.48 77.48 L-12.94 77.43 L-13.17 74.32 L-12.83 73.6 L-11.59 69.18 L-13.99 69.28 L-13.34 66.31 L-18.2 66.56 L-20.17 68.19 L-30.06 67.45 L-38.97 68.34 L-45.95 68.12 L-54.05 71.43 L-62.2 68.29 L-69.07 71.87 L-73.31 68.76 L-76.81 68.43 L-77.12 63.26 L-78.58 59.28 L-76.77 58.91 L-69.65 56.91 L-63.27 58.72 L-58.07 58.67 L-53.13 59.16 L-46.03 56.51 L-40.74 58.86 L-31.48 56.06 L-26.58 57.51 L-20.39 54.05 L-15.88 52.82 L-15.84 52.69 L-11.78 52.14 L-8.72 50.63 L-5.04 50.41 L-4.39 46.43 L-3.54 44.2 L-0.26 41.67 L-1.21 39.12 L2.19 37 L1.92 33.86 L1.42 32.17 L3.79 28.2 L3.84 25.93 L4.66 24.04 L4.94 18.16 L3.41 14.83 L3.05 11.74 L3.22 7.68 L3.77 4.37 L1.73 1.69 L2.14 2.96 L-0.82 1.8 L0 -1.74 L1.87 1.46" stroke="none" stroke-width="0" fill="black" fill-rule="evenodd"/><path d="M0 0 C0 0, 0 0, 0 0 M0 0 C0 0, 0 0, 0 0 M0.08 -0.1 C-0.89 -0.02, -1.55 -0.49, -2.85 -0.78 M-0.12 0.12 C-1.13 -0.43, -2.34 -0.48, -2.88 -0.88 M-2.95 -0.59 C-3.58 -0.9, -4.72 -0.86, -5.83 -1.29 M-3.09 -0.82 C-3.75 -0.97, -4.7 -1.04, -6.11 -1.14 M-5.95 -0.87 C-7.08 -1.16, -8.4 -0.92, -8.95 -0.83 M-5.99 -1.16 C-6.63 -0.89, -7.4 -0.94, -9.17 -0.84 M-9.14 -1.02 C-10.32 -1.03, -10.86 -0.56, -12.15 -0.86 M-9.39 -0.83 C-10.17 -0.91, -11.1 -0.71, -12.37 -0.61 M-11.92 -0.64 C-14.35 0.32, -16.87 -0.41, -18.56 0.53 M-12.43 -0.4 C-14.2 -0.1, -15.64 0, -19.02 0.68 M-18.96 0.48 C-19.76 0.81, -20.9 0.75, -22.06 0.99 M-19.06 0.48 C-20.14 0.63, -21.23 0.93, -22.2 0.85 M-22.19 0.9 C-23.25 0.99, -24.64 1.28, -25.11 1.37 M-22.05 0.93 C-22.87 0.81, -23.45 1.01, -25.11 0.92 M-24.49 2.31 C-32.9 1.84, -38.23 2.05, -44.87 0.79 M-25.43 0.72 C-31.39 1.1, -38.69 1.62, -43.63 2.3 M-42.74 0.45 C-47.24 1.64, -53.56 0.71, -62.77 2.44 M-43.01 1.75 C-51.07 2.46, -56.96 3.06, -62.29 3.42 M-63.62 3.34 C-69.86 1.67, -74.71 3.18, -80.2 3.68 M-61.95 3.65 C-68.54 3.21, -75.02 3.2, -80.75 2.84 M-82.22 1.24 C-84.82 2.99, -89.85 4.19, -100.42 2.07 M-80.41 2.76 C-86.27 3.56, -91.18 2.34, -99.27 2.63 M-99.27 2.47 C-101.34 2.71, -103.06 3.12, -104.6 3.12 M-99.32 2.89 C-100.71 2.56, -102.02 2.78, -104.64 2.48 M-105.02 3.09 C-105.71 2.72, -107.25 2.71, -109.64 2.25 M-104.75 2.57 C-106.24 2.43, -107.46 2.48, -110.01 2.02 M-110.02 1.92 C-112.55 2.02, -114.04 2.02, -115.52 2.11 M-109.92 2.09 C-111.09 2.04, -112.68 2.32, -115.62 1.92 M-115.23 1.67 C-117.08 2.23, -119.62 2.27, -120.57 2.51 M-115.58 2.23 C-116.85 1.92, -118.72 2.2, -120.95 2.28 M-120.67 1.98 C-121.56 2.04, -122.2 1.99, -123.68 2.42 M-120.91 2.1 C-121.79 2.2, -122.65 2.21, -123.4 2.23 M-123.38 2.45 C-124.36 2.49, -125.82 2.65, -125.98 2.87 M-123.48 2.32 C-124.44 2.59, -125.55 2.54, -126.19 2.64 M-126.08 2.78 C-126.99 3, -127.3 2.96, -128.53 3.23 M-126.14 2.68 C-126.66 2.8, -127.31 3.12, -128.66 3.45 M-128.67 3.31 C-129.3 3.57, -130.18 3.96, -131.16 4.24 M-128.51 3.35 C-129.3 3.49, -129.87 3.73, -131.05 4.12 M-131.18 4.13 C-132.13 4.52, -132.96 4.89, -133.43 5.1 M-131.18 4.32 C-131.78 4.5, -132.58 4.87, -133.37 5.25 M-133.47 5.46 C-134.11 6.01, -135.23 6.2, -135.81 7.02 M-133.5 5.4 C-134.09 5.74, -134.68 6.17, -135.54 6.68 M-135.41 6.54 C-136.57 7.68, -137.19 8.17, -137.74 8.49 M-135.61 6.87 C-136.23 7.32, -136.6 7.62, -137.6 8.43 M-137.55 8.77 C-138.33 9.28, -139.2 9.9, -139.45 10.92 M-137.79 8.57 C-138.26 9.23, -138.58 9.55, -139.54 10.64 M-139.86 10.68 C-140.41 11.36, -141.23 12.6, -142.43 13.18 M-139.61 10.69 C-140.74 11.59, -141.73 12.67, -142.1 13.1 M-142.3 13.38 C-142.48 13.55, -143.15 14.01, -144.35 15.58 M-142.2 13.26 C-143.1 13.97, -143.66 15.02, -144.07 15.44 M-144.35 15.59 C-144.36 16.08, -144.68 16.97, -145.28 17.87 M-143.99 15.53 C-144.55 16.21, -144.74 16.86, -145.54 17.85 M-145.5 17.92 C-145.89 18.74, -146.12 19.11, -146.21 20.31 M-145.36 17.81 C-145.81 18.85, -146.08 19.5, -146.24 20.24 M-146.34 20.45 C-146.15 21.12, -146.66 21.41, -146.53 23.02 M-146.16 20.32 C-146.49 21.34, -146.64 22.34, -146.57 22.94 M-146.62 22.78 C-146.47 23.67, -146.62 24.99, -147 25.99 M-146.6 22.84 C-146.75 23.61, -146.67 24.4, -146.85 25.62 M-146.44 25.48 C-146.93 27.04, -146.44 27.5, -146.69 28.84 M-146.73 25.74 C-146.8 26.52, -146.58 26.96, -146.57 28.69 M-146.69 28.51 C-146.55 30.06, -146.45 31.08, -146.41 31.92 M-146.52 28.71 C-146.4 29.68, -146.46 30.71, -146.32 32.27 M-144.86 32.39 C-143.2 46.5, -144.35 57.89, -142.66 68.24 M-145.87 32.37 C-146.21 40.16, -144.36 49.87, -144.75 68.11 M-145.14 67.38 C-143.27 74.4, -141.89 82.08, -141.52 103.52 M-143.93 68.85 C-143.96 80.28, -143.38 91.93, -142.47 105.34 M-140.67 107.09 C-141.35 113.76, -140.65 121.76, -139.45 143.14 M-141.29 104.44 C-141.92 113.49, -141.39 121.53, -139.29 142.11 M-139.14 140.09 C-138.31 147.18, -138.88 148.41, -139.42 158.34 M-140.49 141.54 C-138.68 146.88, -138.76 150.48, -139.07 160.25 M-136.98 159.89 C-138.29 164.68, -137 173.08, -138.09 178.42 M-138.68 160.21 C-137.57 167.34, -137.21 173.88, -137.26 178.04 M-136.86 176.65 C-136.93 167.91, -135.26 157.86, -132.45 139.07 M-137.6 178.55 C-136.63 167.32, -134.97 156.7, -132.5 138.48 M-131.44 138.31 C-132.36 131.03, -134.28 127.92, -130.94 119.89 M-133.93 138.91 C-132.33 131.73, -131.97 124.11, -130.98 118.92 M-129.69 118.57 C-132.94 114.79, -130.08 105.85, -128.74 99.38 M-131.56 119.39 C-131.83 113.66, -130.09 106.06, -130.2 98.75 M-132.09 98.83 C-128.36 95.43, -130.1 89.07, -127.8 79.57 M-130.99 99.68 C-130.4 92.7, -129.34 85.78, -128.23 78.29 M-130.99 77.02 C-128.57 73.88, -129.45 67.89, -128.54 57.55 M-128.79 77.91 C-129.79 73.73, -129.19 68.77, -128.24 58.23 M-130.23 59.11 C-129.62 53.43, -129.89 49.23, -127.28 40.81 M-128.23 58.06 C-129.19 53.5, -129.19 48.35, -128.92 38.96 M-126.53 38.54 C-130.19 35.69, -127.6 29.37, -129.55 18.71 M-127.52 39.3 C-129.01 33.25, -129.24 25.63, -128.73 19.85 M-130.81 19.54 C-122.73 19.29, -113.52 19.39, -107.64 18.27 M-128.15 19.33 C-121.86 18.93, -117.77 18.61, -106.3 19.17 M-105.78 21.06 C-99.6 20.53, -93.59 20.02, -84.68 21.84 M-107.33 20.19 C-101.8 19.01, -96.29 19.98, -83.58 19.51 M-81.98 18.35 C-78.55 21.25, -73.3 21.48, -62.11 20.22 M-83.04 19.78 C-76.5 20.02, -69.1 20.66, -62.13 20.92 M-61.25 20.12 C-58.32 21.54, -52.69 21.64, -40.1 19.51 M-62.4 20.94 C-55.35 20.53, -50.66 20.95, -38.58 19.73 M-38.63 19.79 C-37.98 19.78, -36.28 19.54, -35.23 19.87 M-38.95 19.95 C-38.18 19.7, -37.15 19.69, -35.56 19.41 M-35.49 19.26 C-34.63 19.2, -33.19 19.64, -32.16 19.47 M-35.34 19.69 C-34.59 19.37, -33.91 19.28, -32.48 19.14 M-32.15 19.18 C-31.44 19.31, -30.29 18.8, -29.87 18.83 M-32.32 19.25 C-31.71 19.15, -30.94 19.17, -29.59 18.92 M-29.4 18.75 C-29.16 18.84, -28.44 19.07, -27.32 18.76 M-29.67 18.98 C-28.84 18.98, -28.34 18.71, -27.15 18.62 M-27.39 18.59 C-26.43 18.65, -25.72 18.57, -24.96 18.43 M-27.26 18.76 C-26.72 18.77, -26.26 18.56, -25.14 18.7 M-24.89 18.82 C-24.18 18.52, -23.83 18.87, -23.32 18.86 M-24.99 18.58 C-24.25 18.73, -23.48 18.77, -23.25 18.71 M-23.23 18.87 C-22.92 18.83, -22.38 18.78, -21.4 18.91 M-23.17 18.74 C-22.63 18.86, -22.11 18.87, -21.56 19.02 M-21.5 19.05 C-21.3 19.13, -20.98 19.22, -20.23 19.56 M-21.61 19.08 C-21.16 19.2, -20.82 19.38, -20.24 19.62 M-20.11 19.48 C-20.05 19.81, -19.73 19.98, -19.01 20.48 M-20.23 19.51 C-19.9 19.71, -19.61 20.05, -19.09 20.4 M-19.1 20.46 C-18.84 20.8, -18.5 21.07, -18.28 21.52 M-19.06 20.33 C-18.73 20.81, -18.38 21.19, -18.12 21.5 M-18.08 21.62 C-17.7 22.27, -17.54 22.85, -17.53 23.12 M-18.07 21.48 C-17.93 21.87, -17.76 22.22, -17.5 23.09 M-17.46 23.25 C-17.25 23.98, -17.04 24.67, -17.08 25.12 M-17.45 23.07 C-17.37 23.76, -17.02 24.28, -16.83 25.06 M-17.09 24.98 C-16.86 25.86, -16.55 26.63, -16.61 27.62 M-16.85 24.96 C-16.66 25.88, -16.74 26.41, -16.49 27.6 M-16.31 27.29 C-16.24 28.78, -16.37 29.68, -16.43 30.51 M-16.58 27.56 C-16.47 28.78, -16.39 29.82, -16.27 30.47 M-16.57 30.3 C-16.31 30.98, -16.36 31.76, -16.33 33.93 M-16.38 30.58 C-16.07 31.49, -16.25 32.37, -16.06 33.93 M-16.48 33.94 C-16.2 34.95, -16.14 36.66, -16.06 38.39 M-16 34.09 C-16.16 35.17, -16.35 36.67, -16.13 37.86 M-15.28 36.91 C-21.86 39.21, -25.97 38.17, -30.31 39.41 M-16.7 37.9 C-19.08 38.36, -22.51 38.32, -28.44 38.53 M-29.49 39.21 C-34.79 39.83, -39.46 38.39, -42.67 39.45 M-29.11 38.26 C-33.37 39.49, -37.49 38.81, -41.87 39.57 M-41.82 38.74 C-46.38 39.77, -49.72 38.64, -53.9 38.29 M-41.74 39.12 C-45.17 38.67, -48.29 39.12, -54.74 39.81 M-56.13 38.23 C-57.82 38.45, -63.21 38.56, -66.49 39.28 M-55.29 38.82 C-59.03 38.76, -63.78 38.7, -67.63 38.67 M-67.8 39.28 C-68.25 39.11, -68.86 39.27, -69.11 39.27 M-67.7 39.2 C-68.2 39.24, -68.61 39.19, -69.19 39.12 M-69.26 39.27 C-69.62 39.22, -70.01 39.37, -70.54 39.41 M-69.16 39.26 C-69.77 39.33, -70.23 39.36, -70.65 39.57 M-70.67 39.37 C-71.25 39.8, -71.49 39.79, -72.12 40.32 M-70.64 39.49 C-71.29 39.82, -71.78 39.99, -72.32 40.15 M-72.26 40.23 C-72.94 40.45, -73.4 40.71, -74.08 41.18 M-72.29 40.15 C-72.76 40.51, -73.38 40.7, -73.94 41.01 M-74.04 40.84 C-74.68 41.46, -75.11 41.83, -75.63 42.08 M-73.94 41.09 C-74.69 41.5, -75.23 41.91, -75.66 42.05 M-75.82 42.1 C-75.94 42.38, -76.59 42.69, -77.33 43.47 M-75.59 42.19 C-76.3 42.55, -76.7 42.97, -77.38 43.44 M-77.19 43.35 C-77.94 43.82, -79.43 45.13, -80.52 46.42 M-77.37 43.23 C-78.45 44.13, -79.65 45.07, -80.9 46.44 M-80.82 46.22 C-81.76 47.56, -82.94 49.29, -84.16 49.57 M-80.68 46.5 C-81.47 47.16, -82.45 47.99, -83.93 49.57 M-84.29 49.34 C-85.04 50.68, -86.46 52.16, -86.67 53.23 M-83.93 49.52 C-84.98 51.03, -86.15 52.1, -86.89 52.78 M-86.74 52.94 C-87.3 53.37, -87.58 54.09, -88.1 54.52 M-86.78 52.98 C-87.36 53.49, -87.85 54.16, -88.17 54.46 M-87.93 54.45 C-88.32 54.97, -88.71 55.38, -89.06 55.89 M-88.04 54.45 C-88.34 54.94, -88.51 55.21, -89.1 55.96 M-89.1 56.11 C-89.55 56.64, -89.68 57.11, -90.19 57.34 M-89.12 56 C-89.38 56.31, -89.52 56.77, -90.08 57.45 M-90.14 57.29 C-90.24 57.74, -90.46 58.33, -90.64 58.55 M-90.11 57.4 C-90.27 57.93, -90.51 58.29, -90.74 58.66 M-90.87 58.65 C-91.37 59.55, -91.3 60.05, -92.21 61.8 M-90.79 58.74 C-90.95 59.57, -91.4 60.26, -91.99 61.89 M-92.19 61.45 C-92.41 62.78, -92.3 63.54, -93 65.08 M-91.91 61.67 C-92.29 62.79, -92.75 63.63, -92.91 65.07 M-93.13 64.88 C-93.42 66.2, -93.42 67.05, -94.08 68.39 M-92.89 64.95 C-93.34 66.08, -93.62 66.99, -93.89 68.47 M-93.79 68.2 C-94.25 69.24, -94.25 70.63, -94.18 71.91 M-93.97 68.54 C-93.92 69.32, -94.13 70.17, -94.4 72.13 M-95.01 72.53 C-94.74 74.95, -95.77 77.71, -94.84 79.39 M-94.18 72.14 C-94.67 73.95, -94.85 75.39, -95.67 79.41 M-95.54 78.76 C-95.7 79.65, -95.49 80.68, -96.03 82.46 M-95.43 79.01 C-95.56 80.14, -95.79 81.32, -95.89 82.31 M-96.11 82.2 C-96.06 83.07, -96 83.91, -96.33 85.47 M-95.8 82.32 C-96.11 83.8, -96.14 84.98, -96.39 85.66 M-96.33 85.62 C-96.43 85.91, -96.47 86.22, -96.74 86.89 M-96.46 85.67 C-96.49 85.87, -96.63 86.1, -96.83 86.84 M-96.78 86.83 C-96.78 87.13, -96.71 87.46, -96.8 87.75 M-96.83 86.86 C-96.79 87.13, -96.82 87.45, -96.76 87.78 M-96.79 87.72 C-96.75 88, -96.67 88.09, -96.49 88.5 M-96.81 87.72 C-96.72 87.96, -96.64 88.08, -96.38 88.46 M-96.39 88.46 C-96.12 88.77, -95.9 88.84, -95.65 89.01 M-96.45 88.53 C-96.19 88.65, -96.04 88.77, -95.71 89.04 M-95.62 89.08 C-95.43 89.16, -95.1 89.3, -94.82 89.52 M-95.74 89.1 C-95.35 89.17, -94.92 89.33, -94.74 89.47 M-94.83 89.41 C-94.4 89.63, -93.98 89.64, -93.49 89.8 M-94.65 89.44 C-94.38 89.52, -94 89.56, -93.49 89.7 M-93.77 89.64 C-93.06 89.98, -92.57 89.78, -90.7 89.99 M-93.44 89.67 C-92.72 89.72, -91.89 89.79, -90.62 89.78 M-90.43 89.84 C-89.63 89.84, -88.49 89.52, -87.63 89.9 M-90.53 89.91 C-89.54 89.98, -88.77 89.72, -87.21 89.86 M-87.33 89.92 C-86.62 89.91, -85.58 89.34, -84.48 89.62 M-87.34 89.7 C-86.13 89.83, -85.13 89.71, -84.28 89.6 M-84.44 89.78 C-83.1 89.25, -82.53 89.43, -81.44 89.2 M-84.32 89.58 C-83.43 89.59, -82.81 89.33, -81.39 89.26 M-81.43 89.26 C-81.2 89.44, -81.05 89.42, -80.36 89.44 M-81.46 89.38 C-81.14 89.33, -80.83 89.38, -80.48 89.29 M-80.39 89.42 C-80.27 89.3, -80.06 89.41, -79.66 89.36 M-80.46 89.34 C-80.22 89.37, -80.02 89.39, -79.65 89.39 M-80.33 90.35 C-77.58 89.7, -74.57 90.09, -67.56 89.96 M-80.18 89.56 C-75.9 89.6, -73.23 88.81, -68.47 89.07 M-68.94 89.14 C-64.95 89.57, -62.32 89, -56.59 87.42 M-68.69 89.4 C-65.54 89.31, -62.73 88.49, -56.39 88.73 M-57.79 87.81 C-51.84 86.31, -44.82 86.31, -33.76 85.67 M-55.9 88.16 C-49.1 87.53, -41.5 87.77, -33.74 87.89 M-33.97 86.95 C-33.44 87.15, -33 86.99, -32.67 87.13 M-33.88 87.01 C-33.45 87.04, -32.98 87, -32.63 87.1 M-32.71 87.04 C-32.52 87.23, -32.26 87.32, -31.76 87.45 M-32.66 87.11 C-32.46 87.2, -32.26 87.29, -31.67 87.49 M-31.62 87.45 C-31.44 87.58, -31.4 87.92, -30.93 88.34 M-31.75 87.52 C-31.52 87.71, -31.28 88.01, -30.92 88.25 M-31.07 88.22 C-30.7 88.69, -30.66 89.04, -30.36 89.31 M-30.98 88.22 C-30.83 88.5, -30.68 88.74, -30.39 89.24 M-30.38 89.41 C-30.17 89.76, -29.98 90.29, -30.11 90.56 M-30.33 89.35 C-30.27 89.69, -30.13 90.13, -29.99 90.51 M-29.89 90.72 C-29.75 91.04, -29.87 91.7, -29.61 91.95 M-29.99 90.62 C-29.97 91.02, -29.87 91.58, -29.7 92.01 M-29.89 91.74 C-29.94 92.98, -29.68 93.82, -29.76 95.36 M-29.83 92.07 C-29.7 92.92, -29.59 93.66, -29.55 95.41 M-29.81 95.9 C-29.73 96.62, -29.26 98.23, -29.51 99.41 M-29.46 95.55 C-29.67 97.12, -29.54 98.48, -29.79 99.28 M-30 99.77 C-29.61 100.23, -29.79 101.43, -29.95 103.27 M-29.71 99.33 C-29.61 100.22, -29.59 101.2, -29.97 103.37 M-29.77 103.16 C-30.1 104.17, -29.94 105.44, -30.15 106.75 M-29.95 103.28 C-29.86 104.52, -29.76 105.38, -29.9 106.99 M-30.02 106.75 C-29.78 107.19, -29.96 107.63, -29.77 108.53 M-29.86 106.78 C-29.84 107.29, -29.91 107.88, -29.87 108.37 M-29.84 108.43 C-29.96 108.64, -29.78 108.99, -29.83 109.92 M-29.86 108.38 C-29.83 108.75, -29.85 109.24, -29.78 109.76 M-29.31 110.31 C-32.05 109.58, -37.25 111.61, -40.91 112.3 M-29.36 110.19 C-33.5 110.56, -38.38 110.81, -39.94 111.18 M-39.3 112.46 C-42.64 112.72, -44.21 111.41, -51.58 114.2 M-40.66 111.74 C-43.97 112.62, -48.6 112.9, -50.55 113.76 M-51.07 113 C-52.34 113.72, -54.64 114.1, -55.74 113.74 M-50.59 113.05 C-51.61 113.37, -52.8 113.42, -56.05 113.85 M-55.35 113.54 C-57.32 114.09, -60.05 113.95, -61.21 113.79 M-55.79 114.01 C-57.95 114.02, -59.71 114.03, -60.84 114.07 M-61.47 113.83 C-62.77 113.65, -64.59 114.36, -66.27 114.32 M-61.29 113.75 C-62.84 114.02, -64.64 114.1, -66.06 114.06 M-66.48 114.02 C-68.32 113.32, -70.57 113.33, -71.57 113.06 M-66.37 113.83 C-67.2 113.71, -68.27 113.44, -71.73 113.19 M-71.66 112.9 C-73.05 113.94, -73.91 114.53, -76.06 115.4 M-71.71 113.06 C-73.17 113.9, -74.89 114.57, -76.05 114.94 M-75.85 115.02 C-77.52 116.39, -79.06 116.77, -80.07 117.3 M-76.08 115.2 C-77.6 115.88, -79.17 116.88, -79.86 117.45 M-79.49 117.73 C-80.43 118.41, -81.91 118.62, -82.8 119.94 M-79.72 117.6 C-80.74 118.07, -81.63 118.85, -83.1 120.19 M-82.91 120.15 C-83.78 120.4, -84.62 121.24, -85.35 122.46 M-83.17 119.95 C-83.67 120.82, -84.4 121.5, -85.51 123.03 M-85.94 123.13 C-86.49 124.38, -87.66 125.2, -87.47 126.15 M-85.53 122.83 C-86.37 123.74, -87.25 124.64, -87.94 125.97 M-87.56 125.81 C-88.12 126.61, -88.95 127.43, -89.58 128.84 M-87.99 125.71 C-88.25 126.78, -88.46 127.53, -89.61 128.98 M-89.77 129.39 C-90.16 130.27, -90.32 132, -90.8 132.38 M-89.35 129.07 C-89.93 129.82, -89.85 130.49, -90.9 132.61 M-90.45 132.54 C-91.13 133.59, -90.97 134.21, -91.34 136.5 M-90.91 132.42 C-90.95 134.03, -91.54 135.25, -91.51 136.06 M-91.76 136.47 C-91.53 137.65, -92.07 139.17, -92.09 140.21 M-91.75 136.39 C-91.64 137.04, -91.94 137.82, -92.37 139.97 M-92.24 140.33 C-92.57 140.71, -92.32 141.68, -92.62 143.88 M-92.03 140.01 C-92.17 141.19, -92.56 142.03, -92.74 143.73 M-92.24 144.11 C-92.62 145.3, -92.65 146.48, -92.9 147.67 M-92.45 143.94 C-92.64 144.88, -92.52 145.82, -92.85 147.95 M-92.83 147.74 C-92.62 148.82, -92.52 150.49, -92.8 152.2 M-92.68 147.69 C-92.71 149.16, -92.48 150.22, -92.46 152.04 M-92.92 151.75 C-91.75 153.39, -92.5 155.96, -92.17 160.06 M-92.6 151.68 C-92.11 154.4, -92.13 157.07, -92.43 160.16 M-93 159.89 C-92.18 162.55, -92.19 163.7, -92 168.39 M-92.08 160.51 C-91.84 163.39, -91.77 166.08, -91.49 169.01 M-91.29 169.65 C-96.21 169.03, -99.65 170.48, -103.51 169.51 M-91.49 168.84 C-95.88 169.09, -99.74 169.86, -102.27 170.29 M-102.97 170.34 C-106.86 171.4, -108.13 171.67, -114.68 171.52 M-102.64 169.74 C-105.65 171.15, -107.67 171.04, -113.69 171.46 M-113.6 171.86 C-115.27 171.44, -115.87 171.88, -119.08 172.23 M-113.54 171.95 C-115.16 171.72, -116.41 172.41, -119.5 172.81 M-119.65 172.59 C-121.35 173.04, -123.11 173.48, -124.78 173.31 M-119.51 172.69 C-120.82 173.06, -123.03 173.5, -124.94 174 M-124.91 173.54 C-126.88 173.87, -128.79 175.22, -129.97 175.19 M-124.51 173.62 C-126.06 174.21, -127.19 174.24, -130.19 175.36 M-130.61 174.7 C-131.45 175.36, -133.22 176.14, -135.1 177.37 M-130.09 175.04 C-132.12 176.05, -134.01 176.59, -135.43 176.62 M-135.56 176.76 C-134.71 176.41, -133.74 176.18, -131.87 175.99 M-135.42 176.71 C-134.37 176.76, -133.15 176.29, -131.72 176.4 M-131.7 175.91 C-130.29 175.85, -129.6 176.22, -128.54 176.13 M-132.05 176.28 C-130.63 176.04, -129.19 176.18, -128.4 175.86 M-128.12 175.83 C-126.68 175.66, -125.57 176.31, -124.07 175.72 M-128.11 176.17 C-126.98 175.9, -125.99 175.87, -124.55 176.05 M-124.73 175.84 C-123.28 176.14, -121.99 175.86, -120.34 176.27 M-124.36 175.91 C-123.47 175.92, -122.3 176.34, -120.59 176.38 M-121.17 175.66 C-118.88 176.83, -117.34 175.85, -112.47 177.19 M-120.61 176.49 C-117.92 176.82, -115.3 176.73, -112.42 177.37 M-112.05 177.43 C-110.7 177.99, -108.24 176.66, -104.2 177.5 M-113.03 177.02 C-110.69 177.22, -109.25 177.06, -104.87 177.37 M-104.67 177.83 C-104.02 177.86, -102.41 177.45, -101.47 177.48 M-105.13 177.83 C-103.98 177.62, -102.79 177.95, -101.15 177.69 M-101.56 177.99 C-100.4 177.59, -99.2 177.92, -97.85 177.95 M-101.12 177.92 C-100.31 177.95, -99.39 177.54, -97.52 177.65 M-97.46 177.49 C-96.52 177.18, -94.87 177, -94.37 176.86 M-97.55 177.7 C-96.44 177.68, -95.71 177.49, -93.97 177.13 M-94.31 177.25 C-92.63 176.54, -91.6 176.19, -91 176.23 M-94.01 177.12 C-92.76 176.91, -91.6 176.61, -90.69 176.09 M-90.72 176.04 C-89.92 175.94, -89.08 174.98, -87.98 174.89 M-90.61 176.27 C-90.15 175.96, -89.62 175.42, -87.76 174.63 M-87.9 174.61 C-86.83 173.74, -85.8 173.1, -84.72 172.7 M-87.59 174.58 C-87.08 174.09, -86.23 173.64, -84.88 172.48 M-84.93 172.68 C-84.49 172.08, -84.19 171.78, -83.45 171.19 M-84.84 172.5 C-84.66 172.31, -84.19 171.89, -83.66 171.19 M-83.77 171.42 C-83.37 170.94, -82.96 170.42, -82.24 169.59 M-83.54 171.27 C-83.35 170.93, -83.02 170.71, -82.32 169.78 M-82.43 169.77 C-81.96 169.35, -81.88 169.02, -81.4 167.89 M-82.36 169.72 C-82.08 169.42, -81.83 168.99, -81.19 168 M-81.23 168.07 C-81.12 167.4, -80.77 167.26, -80.39 166.12 M-81.16 168.19 C-80.8 167.52, -80.49 166.83, -80.17 166.29 M-81.21 167.1 C-80.36 160.72, -77.9 156.61, -78.77 148.16 M-80.99 166.69 C-79.25 161, -79.71 153.98, -79.01 148.09 M-78.65 147.58 C-77.55 142.02, -77.73 136.25, -77.33 131.19 M-79.26 148.88 C-78.87 142.19, -77.09 135.84, -77.8 129.86 M-77.27 130.55 C-74.46 130.13, -72.65 130.61, -71.22 130.66 M-77.01 130.05 C-75.61 130.43, -74.1 130.58, -71.19 130.59 M-70.97 130.29 C-69.48 130.31, -67.21 130.17, -65.81 130.58 M-71.42 130.71 C-69.71 130.46, -68.2 130.51, -65.71 130.54 M-66.22 130.4 C-64.05 130.73, -61.51 130.5, -60.37 130.03 M-65.61 130.29 C-64.23 130.29, -62.46 130.17, -60.45 130.28 M-60.17 129.72 C-58.95 130.1, -57.83 129.93, -54.68 129.66 M-60.37 129.97 C-58.49 129.65, -57.16 129.55, -54.8 129.3 M-55.06 129.45 C-49.5 127.93, -45.42 127.51, -43.52 127.9 M-55.12 129.5 C-51.93 128.85, -49.71 128.17, -43.29 128.33 M-43.37 127.51 C-39.42 126.89, -36.5 126.23, -33.41 126.89 M-44.04 127.56 C-40.04 127.46, -37.53 127.19, -33.07 127.03 M-32.68 126.68 C-31.98 126.49, -31.47 126.48, -31.06 126.2 M-32.66 126.67 C-32.3 126.74, -32.08 126.55, -31.25 126.35 M-31.02 126.46 C-30.79 126.22, -30.28 125.9, -29.55 125.7 M-31.09 126.35 C-30.63 126.09, -30.13 125.86, -29.44 125.69 M-29.68 126.05 C-28.61 124.93, -27.76 124.81, -25.73 123.68 M-29.66 125.6 C-28.37 125.12, -27.21 124.43, -26.09 123.65 M-26.18 123.99 C-25.46 123.36, -24.74 122.52, -22.99 121.57 M-26.16 123.93 C-25.27 123.15, -24.46 122.64, -22.63 121.34 M-22.83 121.27 C-21.6 120.1, -19.83 119.52, -19.01 118.88 M-22.75 121.22 C-21.4 120.51, -20.37 119.51, -18.98 118.31 M-18.76 118.41 C-18.72 117.94, -17.47 117.1, -16.51 115.52 M-19.06 118.56 C-18.29 117.32, -17.16 116.35, -15.94 115.29 M-15.97 114.91 C-14.88 114.44, -14.41 112.5, -13.24 111.82 M-16.25 115.09 C-15.21 114.12, -14.68 113.21, -13.41 111.9 M-13.49 111.79 C-13.23 111.17, -12.92 110.58, -12.64 110.13 M-13.58 111.85 C-13.21 111.27, -13.03 110.71, -12.55 110.29 M-12.51 110.18 C-12.46 109.63, -12.05 109.02, -11.78 108.41 M-12.62 110.15 C-12.36 109.68, -12.1 109.25, -11.76 108.56 M-11.69 108.54 C-11.56 107.89, -11.24 107.6, -11 106.94 M-11.72 108.5 C-11.68 108.25, -11.58 107.77, -11.14 106.97 M-11.16 106.92 C-10.87 106.26, -10.95 105.68, -10.95 105.18 M-11.21 106.84 C-11.04 106.37, -10.92 105.72, -10.81 105.26 M-10.69 105.43 C-10.83 104.76, -11.03 104.13, -11.17 103.56 M-10.76 105.3 C-10.89 104.91, -10.94 104.58, -11.32 103.5 M-11.42 103.41 C-11.19 102.83, -11.21 102.33, -11.45 101.55 M-11.34 103.61 C-11.42 102.84, -11.43 102.15, -11.5 101.32 M-11.67 101.51 C-11.57 100.59, -11.78 99.71, -11.48 99.17 M-11.59 101.5 C-11.58 100.56, -11.57 99.71, -11.78 98.93 M-11.42 99.14 C-11.91 98.21, -11.48 97.49, -11.84 96.53 M-11.66 99.03 C-11.81 98.2, -11.7 97.34, -11.76 96.28 M-11.2 96.27 C-11.62 94.96, -11.75 93.33, -11.91 90.12 M-11.76 96.53 C-11.53 94.93, -11.48 92.76, -11.24 90.33 M-10.94 90.9 C-11.91 88.65, -11.7 85.96, -11.26 84.77 M-11.74 90.28 C-11.41 88.63, -11.58 87.38, -11.29 84.53 M-10.63 84.24 C-10.62 82.62, -10.85 80.71, -10.7 78.77 M-10.96 84.21 C-11.1 83.27, -10.89 82.13, -10.73 78.58 M-10.98 78.6 C-10.73 77.8, -11.23 77.32, -11.12 76.39 M-10.98 78.8 C-11 77.96, -11.06 77.11, -10.97 76.32 M-11.02 76.24 C-11.09 75.62, -11.01 75.43, -11.15 73.98 M-11.03 76.29 C-11.11 75.43, -11.09 74.44, -11.18 73.76 M-11.09 73.86 C-11.3 73.11, -11.21 72.84, -11.36 71.75 M-11.23 73.97 C-11.35 73.19, -11.34 72.43, -11.36 71.78 M-11.43 71.73 C-11.61 71.35, -11.83 70.98, -11.83 70.25 M-11.45 71.81 C-11.52 71.38, -11.65 71.06, -11.86 70.18 M-11.81 70.16 C-12.07 69.9, -12.14 69.65, -12.54 68.88 M-11.95 70.16 C-12.04 70.02, -12.19 69.76, -12.61 69.04 M-12.62 69.09 C-12.88 68.8, -13.14 68.44, -13.54 68.3 M-12.64 68.93 C-12.83 68.83, -13.02 68.67, -13.54 68.24 M-13.7 68.6 C-14.09 68.12, -15.5 68.31, -17.64 68.13 M-13.52 68.21 C-14.58 68.21, -15.69 68.05, -17.5 67.94 M-16.92 67.66 C-18.9 67.85, -20.36 67.93, -21.25 67.91 M-17.47 68.06 C-18.83 67.93, -19.98 67.92, -21.37 67.9 M-21.84 67.24 C-23.63 67.94, -27.16 67.78, -28.7 68.37 M-21.28 68.14 C-24.64 67.87, -27.49 68.03, -29.25 68.1 M-29.13 67.34 C-33.05 68.74, -34.86 68.8, -38.23 68.8 M-28.86 67.87 C-32.32 68.21, -35.11 68.66, -37.82 68.22 M-37.3 68.77 C-38.76 68.42, -40.71 69.15, -46.62 68.48 M-37.62 68.19 C-39.62 68.15, -42.8 68.37, -45.87 68.89 M-46.13 69.41 C-48.34 68.43, -50.45 69.74, -54.14 69.69 M-46.16 69.35 C-49.28 69.51, -51.91 69.36, -54.02 69.49 M-54.44 69.02 C-57.04 69.15, -59.2 70.9, -62.09 70.84 M-54.1 69.38 C-56.93 69.55, -59.4 69.79, -61.82 70.4 M-62.42 70.49 C-64.66 69.96, -66.52 69.78, -69.92 69.7 M-62.24 70.41 C-64.85 70.09, -67.7 70.12, -70.23 70.3 M-70.27 70.12 C-70.53 70.09, -71.63 70.43, -73.81 69.97 M-70.1 70.28 C-71.23 70.37, -72.77 70.12, -73.97 70.2 M-73.5 69.89 C-75.29 69.8, -76.29 70.08, -77.27 69.98 M-73.69 69.94 C-74.95 69.96, -76.29 69.76, -77.64 69.86 M-76.95 69.45 C-76.92 68.32, -77.21 66.84, -76.8 64.03 M-77.34 69.59 C-77.6 68.13, -77.34 66.43, -77.28 63.67 M-77.43 63.51 C-77.27 62.39, -77.21 61.17, -76.66 60.06 M-77.19 63.44 C-77.1 62.27, -77.12 61.28, -77.06 60.38 M-76.93 60.29 C-76.66 59.55, -76.91 58.48, -76.34 57.23 M-76.94 60.25 C-76.87 59.42, -76.51 58.27, -76.44 57.26 M-76.42 57.15 C-75.13 57.54, -74.11 57.02, -70.87 57.49 M-76.49 57.4 C-75.17 57.31, -73.81 57.26, -71.22 57.04 M-70.74 57.11 C-69.33 56.72, -66.25 56.95, -65.6 56.85 M-71.21 56.75 C-69.46 56.93, -67.8 56.8, -65.06 56.97 M-65.63 57.33 C-62.66 56.4, -60.85 56.93, -58.59 56.88 M-64.83 56.96 C-63.12 56.75, -60.93 57.3, -58.82 57.38 M-58.68 57.01 C-57.41 56.98, -55.28 57.73, -51.54 57.11 M-58.47 56.99 C-56.86 56.96, -54.29 57.04, -52.4 57.1 M-52.82 57.12 C-50.69 57.33, -48.49 56.78, -45.56 56.91 M-52.04 57.38 C-50.22 56.88, -48.07 57.19, -45.2 57.2 M-45.26 57.7 C-44.03 56.97, -41.21 56.85, -38.63 56.76 M-45.45 57.5 C-43.37 57.19, -41.63 57.09, -38.98 56.88 M-38.45 57.5 C-36.29 56.88, -35.52 56.24, -32.75 56.68 M-38.82 57.29 C-36.4 57.08, -33.98 56.48, -31.93 56.51 M-32.5 56.53 C-30.89 56.71, -28.96 56.59, -25.13 56.04 M-31.86 56.41 C-29.86 56.34, -28.08 55.77, -25.5 55.43 M-25.76 55.8 C-24.6 55.52, -23.43 54.52, -19.18 54.71 M-25.97 55.91 C-23.95 55.12, -22.54 55, -19.73 54.36 M-19.46 54.49 C-18.63 54.05, -17.73 53.87, -16.98 53.74 M-19.77 54.36 C-18.81 54.15, -18.24 54.08, -16.87 53.58 M-16.8 53.52 C-16.36 53.36, -15.65 53.45, -14.36 52.85 M-16.76 53.59 C-16.23 53.52, -15.61 53.25, -14.14 52.61 M-13.87 52.96 C-13.24 52.48, -12.05 52.07, -11.46 51.4 M-14.25 52.74 C-13.23 52.13, -12.08 51.73, -11.5 51.63 M-11.6 51.29 C-11.05 51.55, -10.72 51.19, -9.35 50.43 M-11.64 51.53 C-10.55 51.12, -9.84 50.59, -9.09 50.38 M-9.38 50.34 C-8.11 49.97, -7.84 49.36, -7.04 49.02 M-9.03 50.38 C-8.41 49.62, -7.39 49.29, -6.99 48.74 M-7.03 48.54 C-6.32 48.36, -5.8 47.94, -4.59 47.09 M-6.89 48.67 C-6.07 48.29, -5.31 47.58, -4.69 47.13 M-4.9 46.85 C-4.7 46.85, -4.04 46.59, -3.16 45.21 M-4.82 47.05 C-4.16 46.62, -3.56 46, -3.08 45.34 M-3.02 45.43 C-2.45 44.56, -1.99 43.73, -1.51 42.95 M-2.88 45.21 C-2.51 44.74, -2.04 44.16, -1.23 43.25 M-1.24 43.03 C-1.13 42.28, -0.81 41.95, 0.13 40.91 M-1.42 43.15 C-0.76 42.25, -0.33 41.32, 0.09 40.74 M-0.02 40.64 C0.5 40.41, 0.68 39.76, 1.42 38.54 M-0.03 40.79 C0.49 40.33, 0.56 39.59, 1.3 38.14 M1.07 38.23 C1.34 37.38, 2.15 35.97, 2.31 35.59 M1.11 38.16 C1.58 37.49, 1.71 36.79, 2.08 35.33 M2.05 35.71 C2.25 33.96, 2.89 33.35, 2.78 32.64 M2.26 35.62 C2.21 34.52, 2.56 33.22, 2.71 32.48 M2.93 32.15 C2.81 31.03, 3.18 29.98, 3.38 29.36 M2.88 32.55 C2.76 31.43, 2.99 30.45, 3.22 29.01 M3.4 28.88 C2.76 27.94, 2.75 26.66, 3.01 25.4 M3.08 28.99 C3.07 28.14, 3.06 27.23, 3.2 25.36 M3.17 25.62 C3.36 24.63, 3.01 23.47, 3.08 22.92 M3.06 25.43 C3.01 24.42, 3.09 23.33, 3.21 22.78 M3.16 22.73 C3.27 21.5, 3.5 20.39, 3.64 19.65 M3.34 22.6 C3.16 21.42, 3.37 20.49, 3.23 19.28 M3.39 19.4 C3.07 18.11, 3.63 16.49, 3.12 15.78 M3.35 19.32 C3.49 18.39, 3.51 17.46, 3.31 15.76 M3.31 15.79 C3.64 14.9, 3.23 13.6, 3.32 12 M3.26 15.57 C3.48 14.79, 3.56 13.75, 3.22 11.82 M3.7 11.87 C3.53 10.47, 2.9 9.41, 3.14 8.63 M3.48 11.96 C3.27 10.81, 3.32 9.89, 3.11 8.29 M2.8 8.09 C2.97 6.89, 2.69 5.78, 2.44 5.32 M3.04 8.43 C3.09 7.28, 2.9 6.41, 2.37 4.98 M2.53 5.08 C2.52 4.59, 2.45 4.45, 2.22 3.4 M2.51 4.98 C2.37 4.42, 2.23 3.81, 1.99 3.44 M1.94 3.45 C2.07 3.23, 1.8 2.71, 1.37 2.26 M2.14 3.48 C1.82 3.02, 1.57 2.48, 1.46 2.18 M1.57 2.06 C1.34 1.7, 1.06 1.43, 0.87 0.86 M1.5 2.07 C1.38 1.79, 1.08 1.47, 0.87 1.02 M0.91 1 C0.55 0.76, 0.23 0.46, -0.12 0.01 M0.77 0.94 C0.56 0.68, 0.41 0.47, 0 0.04 M0 0 C0 0, 0 0, 0 0 M0 0 C0 0, 0 0, 0 0 M0 0 C0 0, 0 0, 0 0 M0 0 C0 0, 0 0, 0 0" stroke="#000000" stroke-width="1" fill="none"/></g></g></svg>