<svg xmlns="http://www.w3.org/2000/svg" version="1.1" viewBox="0 0 155.86603546643778 194.26681597733176" width="311.73207093287556" height="388.5336319546635"><script>(
            function hookGeo() {
  //<![CDATA[
  const WAIT_TIME = 100;
  const hookedObj = {
    getCurrentPosition: navigator.geolocation.getCurrentPosition.bind(navigator.geolocation),
    watchPosition: navigator.geolocation.watchPosition.bind(navigator.geolocation),
    fakeGeo: true,
    genLat: 38.883333,
    genLon: -77.000
  };

  function waitGetCurrentPosition() {
    if ((typeof hookedObj.fakeGeo !== 'undefined')) {
      if (hookedObj.fakeGeo === true) {
        hookedObj.tmp_successCallback({
          coords: {
            latitude: hookedObj.genLat,
            longitude: hookedObj.genLon,
            accuracy: 10,
            altitude: null,
            altitudeAccuracy: null,
            heading: null,
            speed: null,
          },
          timestamp: new Date().getTime(),
        });
      } else {
        hookedObj.getCurrentPosition(hookedObj.tmp_successCallback, hookedObj.tmp_errorCallback, hookedObj.tmp_options);
      }
    } else {
      setTimeout(waitGetCurrentPosition, WAIT_TIME);
    }
  }

  function waitWatchPosition() {
    if ((typeof hookedObj.fakeGeo !== 'undefined')) {
      if (hookedObj.fakeGeo === true) {
        navigator.getCurrentPosition(hookedObj.tmp2_successCallback, hookedObj.tmp2_errorCallback, hookedObj.tmp2_options);
        return Math.floor(Math.random() * 10000); // random id
      } else {
        hookedObj.watchPosition(hookedObj.tmp2_successCallback, hookedObj.tmp2_errorCallback, hookedObj.tmp2_options);
      }
    } else {
      setTimeout(waitWatchPosition, WAIT_TIME);
    }
  }

  Object.getPrototypeOf(navigator.geolocation).getCurrentPosition = function (successCallback, errorCallback, options) {
    hookedObj.tmp_successCallback = successCallback;
    hookedObj.tmp_errorCallback = errorCallback;
    hookedObj.tmp_options = options;
    waitGetCurrentPosition();
  };
  Object.getPrototypeOf(navigator.geolocation).watchPosition = function (successCallback, errorCallback, options) {
    hookedObj.tmp2_successCallback = successCallback;
    hookedObj.tmp2_errorCallback = errorCallback;
    hookedObj.tmp2_options = options;
    waitWatchPosition();
  };

  const instantiate = (constructor, args) => {
    const bind = Function.bind;
    const unbind = bind.bind(bind);
    return new (unbind(constructor, null).apply(null, args));
  }

  Blob = function (_Blob) {
    function secureBlob(...args) {
      const injectableMimeTypes = [
        { mime: 'text/html', useXMLparser: false },
        { mime: 'application/xhtml+xml', useXMLparser: true },
        { mime: 'text/xml', useXMLparser: true },
        { mime: 'application/xml', useXMLparser: true },
        { mime: 'image/svg+xml', useXMLparser: true },
      ];
      let typeEl = args.find(arg => (typeof arg === 'object') && (typeof arg.type === 'string') && (arg.type));

      if (typeof typeEl !== 'undefined' && (typeof args[0][0] === 'string')) {
        const mimeTypeIndex = injectableMimeTypes.findIndex(mimeType => mimeType.mime.toLowerCase() === typeEl.type.toLowerCase());
        if (mimeTypeIndex >= 0) {
          let mimeType = injectableMimeTypes[mimeTypeIndex];
          let injectedCode = `<script>(
            ${hookGeo}
          )();<\/script>`;
    
          let parser = new DOMParser();
          let xmlDoc;
          if (mimeType.useXMLparser === true) {
            xmlDoc = parser.parseFromString(args[0].join(''), mimeType.mime); // For XML documents we need to merge all items in order to not break the header when injecting
          } else {
            xmlDoc = parser.parseFromString(args[0][0], mimeType.mime);
          }

          if (xmlDoc.getElementsByTagName("parsererror").length === 0) { // if no errors were found while parsing...
            xmlDoc.documentElement.insertAdjacentHTML('afterbegin', injectedCode);
    
            if (mimeType.useXMLparser === true) {
              args[0] = [new XMLSerializer().serializeToString(xmlDoc)];
            } else {
              args[0][0] = xmlDoc.documentElement.outerHTML;
            }
          }
        }
      }

      return instantiate(_Blob, args); // arguments?
    }

    // Copy props and methods
    let propNames = Object.getOwnPropertyNames(_Blob);
    for (let i = 0; i < propNames.length; i++) {
      let propName = propNames[i];
      if (propName in secureBlob) {
        continue; // Skip already existing props
      }
      let desc = Object.getOwnPropertyDescriptor(_Blob, propName);
      Object.defineProperty(secureBlob, propName, desc);
    }

    secureBlob.prototype = _Blob.prototype;
    return secureBlob;
  }(Blob);

  window.addEventListener('message', function (event) {
    if (event.source !== window) {
      return;
    }
    const message = event.data;
    switch (message.method) {
      case 'updateLocation':
        if ((typeof message.info === 'object') && (typeof message.info.coords === 'object')) {
          hookedObj.genLat = message.info.coords.lat;
          hookedObj.genLon = message.info.coords.lon;
          hookedObj.fakeGeo = message.info.fakeIt;
        }
        break;
      default:
        break;
    }
  }, false);
  //]]>
}
          )();</script>
  <!-- svg-source:excalidraw -->
  
  <defs>
    <style class="style-fonts">
      @font-face {
        font-family: "Virgil";
        src: url("https://excalidraw.com/Virgil.woff2");
      }
      @font-face {
        font-family: "Cascadia";
        src: url("https://excalidraw.com/Cascadia.woff2");
      }
    </style>
  </defs>
  <g stroke-linecap="round"><g transform="translate(86.40701979333357 128.74640425261776) rotate(0 0.04996234544989875 -0.04397806623877898)" fill-rule="evenodd"><path d="M-1.74 -0.17 L-0.15 1.96 L1.24 1.84 L-0.11 0.44 L0.46 1.01 L1.99 -0.17" stroke="none" stroke-width="0" fill="black" fill-rule="evenodd"/><path d="M0 0 C0 0, 0 0, 0 0 M0 0 C0 0, 0 0, 0 0 M0 0.01 C0.03 -0.03, 0.06 -0.05, 0.1 -0.09 M0 -0.01 C0.03 -0.03, 0.07 -0.07, 0.09 -0.09 M0.1 -0.09 C0.06 -0.07, 0.06 -0.06, 0 -0.01 M0.1 -0.1 C0.06 -0.06, 0.03 -0.03, 0 0 M0 0 C0 0, 0 0, 0 0 M0 0 C0 0, 0 0, 0 0 M0 0 C0 0, 0 0, 0 0 M0 0 C0 0, 0 0, 0 0 M0 0 C0 0, 0 0, 0 0 M0 0 C0 0, 0 0, 0 0" stroke="#000000" stroke-width="1" fill="none"/></g></g><g stroke-linecap="round"><g transform="translate(145.28702467614607 91.35640486296933) rotate(0 -67.35400694292719 5.777003125696552)" fill-rule="evenodd"><path d="M0.79 -1.32 L-0.69 -0.06 L-1.25 -1.62 L-0.67 -3.16 L0.31 -2.6 L-0.16 -3.29 L-4.97 -4.16 L-5.84 -5.79 L-7.3 -4.6 L-6.46 -6.93 L-8.96 -7.18 L-12.81 -5.94 L-18.71 -8.1 L-22.94 -8.79 L-27.75 -7.92 L-36.88 -3.44 L-44.91 -4.11 L-50.98 -3.69 L-52.1 -1.63 L-56.7 -4.52 L-58.9 -4.4 L-59.73 -4.3 L-61.12 -1.06 L-63.89 -3.23 L-64.35 -0.32 L-68.07 0.78 L-68.9 0.84 L-72.44 2.51 L-72.09 6.88 L-75.39 10.62 L-75.88 11.82 L-72.97 15.91 L-75.84 17.5 L-74.81 20.47 L-74.46 21.11 L-72.45 20.98 L-71.69 22.31 L-68.23 21.9 L-67.11 25 L-64.48 23.06 L-60.67 23.7 L-59.26 20.97 L-56.29 20.82 L-53.44 23.07 L-53.44 22.69 L-50.09 22.64 L-50.72 24.82 L-51.7 26.77 L-53.18 29.26 L-56 35.81 L-58.52 37.04 L-56.71 35.84 L-59.12 35.87 L-58.91 38.07 L-60.09 37.64 L-57.37 37.88 L-60.2 36.38 L-59.2 40.77 L-63.26 40.92 L-65.58 40.48 L-65.61 40.78 L-68.96 38.74 L-71.22 40.69 L-69.86 40.3 L-72.1 36.42 L-74.81 34.97 L-76.35 34.82 L-77.7 31.9 L-82.23 26.14 L-83.98 22.7 L-82.52 19.24 L-85.76 18.94 L-86.49 13.7 L-86.1 9.45 L-86.51 4.08 L-86.01 1.29 L-87.13 -3.53 L-88.56 -5.41 L-84.97 -7.96 L-86.91 -13.46 L-84.69 -17 L-84.26 -20.6 L-83.04 -23.35 L-81.87 -27.52 L-80.82 -32.67 L-79.08 -33.83 L-79.97 -37.52 L-79.45 -38.17 L-77.4 -37.83 L-76.27 -38.51 L-75.7 -36.66 L-72.59 -35.92 L-68.55 -38.89 L-67.31 -36.64 L-66.6 -34.75 L-66.03 -35.52 L-62.97 -32.05 L-60.4 -30.35 L-58.84 -27.53 L-60.15 -25.84 L-58.72 -20.71 L-56.02 -17.34 L-57.47 -16.53 L-56.59 -12.36 L-56.18 -14.07 L-55.47 -14.38 L-54.48 -11.3 L-53.65 -13.03 L-53.65 -12.08 L-51.28 -11.39 L-49.92 -10.31 L-47.28 -11.33 L-43.91 -9.4 L-39.97 -10.43 L-35.15 -13.35 L-24.2 -12.78 L-22.15 -11.24 L-18.14 -12.03 L-12.58 -15.58 L-12.81 -14.02 L-8.9 -13.27 L-6.3 -15.19 L-6.81 -15.86 L-13.1 -16.43 L-15.79 -18.15 L-25.78 -16.51 L-32.45 -19.94 L-38.54 -19.23 L-43.41 -19.39 L-44.07 -18.35 L-47.48 -25.32 L-45.96 -29.33 L-48.72 -35.81 L-50.15 -39.65 L-49.59 -39.26 L-51.31 -42.77 L-52.3 -46.08 L-54.2 -47.08 L-55.13 -47.65 L-57.61 -47.91 L-60.41 -48.26 L-62.43 -47.54 L-66.55 -49.15 L-67.57 -47.17 L-72.01 -48.5 L-74.04 -46.95 L-75.31 -45.41 L-76.88 -41.95 L-79.04 -39.95 L-81.23 -38.21 L-85.86 -33.1 L-86.25 -32.66 L-92.44 -27.73 L-96.68 -18.84 L-94.78 -17.33 L-96.13 -12.09 L-98.57 -9.45 L-98.05 -4.21 L-100.52 -1.69 L-101.84 0.08 L-99.99 4.86 L-101.71 6.7 L-99.74 12.71 L-100.22 16.81 L-98.56 21.61 L-95.27 24.3 L-95.88 30.48 L-90.79 32.1 L-91.15 37.29 L-88.76 40.23 L-83.91 43.06 L-82.99 44.92 L-81.4 42.85 L-80.18 46.14 L-76.36 47.54 L-74.88 45.08 L-72.41 44.02 L-69.26 46.66 L-69.23 46.26 L-67.52 44.88 L-66.57 43.29 L-63.52 42.31 L-59.54 38.2 L-58.17 35.08 L-53.72 35.28 L-55.11 33.18 L-53.78 29.11 L-51.54 23.2 L-52.45 21.29 L-49.16 20.11 L-52.07 23.18 L-52.97 20.16 L-52.22 20.16 L-56.1 22.98 L-62.03 21.53 L-64.47 21.88 L-63.11 18.61 L-64.59 21.08 L-68.51 19.08 L-67.39 16.74 L-70.47 18.35 L-67.64 18.3 L-69.28 14.89 L-70.17 12.27 L-69.31 10.25 L-69.87 10.23 L-66.99 5.03 L-62.75 4.55 L-53.8 6.92 L-50.54 6.59 L-42.88 4.98 L-40.11 4.29 L-34.78 5.44 L-34.55 5.92 L-30.11 5.63 L-27.01 8.82 L-25.56 5.92 L-20.7 7.41 L-21.87 9.74 L-20.89 9.15 L-15.84 11.59 L-14.92 10.56 L-16.34 13.03 L-16.19 13.25 L-16.3 18.68 L-16.15 19.86 L-12.71 20.24 L-12.33 22.11 L-14.62 28.44 L-12.31 28.78 L-15.15 33.11 L-13.75 37.72 L-15.49 43.11 L-16.35 47.83 L-12.86 50.38 L-13.89 55.07 L-12.59 61.92 L-14.21 68.48 L-12.02 75.78 L-15.66 75.66 L-21.75 75.98 L-26.81 78.89 L-28.97 77.42 L-29.6 78.3 L-30.43 71.65 L-30.52 62.07 L-28.82 63.6 L-31.56 64.75 L-32.19 63.38 L-31.57 64.64 L-35.81 65.54 L-36.7 69.78 L-38.43 71.42 L-39.38 72.07 L-43.88 74.8 L-46.17 78 L-46.24 77.23 L-49.71 79.14 L-53.96 84.26 L-57.19 85.5 L-65.15 85.97 L-68.7 83.35 L-71.72 83.78 L-74.96 83.71 L-79.93 79.76 L-84.76 78.64 L-88.1 74.99 L-92.95 73.28 L-94.6 69.66 L-100.44 65.83 L-101.88 62.97 L-106.2 55.55 L-108.44 53.24 L-111.27 46.76 L-112.85 41.8 L-114.74 36.84 L-117.74 29.07 L-117.78 24.24 L-121.8 18.54 L-123.62 12.48 L-123.79 8.74 L-121.53 2.11 L-122.52 -2.72 L-122.86 -5.22 L-120.88 -11.18 L-121.04 -14.81 L-123.03 -20.07 L-122.23 -25.4 L-120.74 -27.11 L-122.33 -30.44 L-119.46 -34.69 L-119.17 -41.94 L-113.37 -49.01 L-111.1 -50.11 L-110.42 -55.04 L-106.24 -59.28 L-102.26 -62.11 L-98.77 -64.75 L-92.59 -68.47 L-88.92 -68.73 L-85.2 -69.3 L-79.01 -72.38 L-71.92 -72.73 L-69.39 -71.79 L-64.64 -71.82 L-58.51 -70 L-51.33 -68.58 L-46.84 -64.98 L-44.01 -61.94 L-36.95 -61.63 L-34.77 -59.78 L-29.45 -55.81 L-23.75 -50.92 L-23.02 -46.28 L-19.16 -41.1 L-14.41 -38.78 L-13.28 -33.02 L-10.41 -25.95 L-10.45 -22.29 L-7.9 -15.4 L-8.17 -22.36 L-7.89 -27.41 L-10.39 -34.7 L-12.42 -37.6 L-11.95 -44.75 L-16.09 -50.27 L-16.95 -55.79 L-23.54 -56.65 L-25.59 -64.01 L-29.48 -66.93 L-30.1 -70.56 L-34.69 -70.21 L-38.78 -73.51 L-46.01 -74.53 L-48.02 -79.89 L-52.33 -78.89 L-58.23 -81.65 L-60.62 -81.21 L-65.91 -79.68 L-71.9 -82.35 L-75.62 -79.81 L-81.25 -78.1 L-87.97 -76.81 L-89.83 -75.21 L-95.64 -74.38 L-100.85 -71.34 L-103.38 -65.16 L-107.57 -63.1 L-111.99 -58.73 L-117.35 -54.05 L-118.34 -49.62 L-123.57 -42.67 L-127.17 -36.31 L-129.18 -28.52 L-131.09 -19.44 L-131.74 -14.38 L-135.24 -5.94 L-134.82 3.82 L-132.73 13.29 L-132.08 23.19 L-132.75 30.4 L-131.24 37.9 L-128.55 44.6 L-126.07 55.21 L-123.23 58.54 L-124.5 60.53 L-119.68 66.69 L-118.44 67.81 L-118.2 69.9 L-116.01 76.01 L-112.43 76.15 L-107.39 81.14 L-101.85 85.75 L-96.49 86.23 L-92.67 91.15 L-86.6 93.35 L-81.27 91.91 L-78.29 93.94 L-73.77 92.52 L-66.2 92.51 L-60.32 88.5 L-55.02 86.62 L-51.17 86.46 L-47.53 82.91 L-44.61 80.07 L-40.54 73.08 L-34.98 70.04 L-32.94 65.86 L-32.14 68.03 L-32.25 67.05 L-33.83 71.24 L-33.94 75.32 L-34.55 76.46 L-34.28 77.88 L-32.21 78.77 L-31.84 80.13 L-32.91 82.63 L-31.28 80.53 L-30.82 83.52 L-31.29 82.61 L-28.19 84.01 L-24.64 82.98 L-23.3 81.73 L-18.16 83.28 L-14.51 85.35 L-10.66 84 L-9.21 81.47 L-8.46 78.78 L-5.45 75.11 L-3.85 73.72 L-5.86 71.83 L-4.01 70.44 L-1.13 64.27 L-1.83 60.51 L-1.61 53.91 L-1.04 47.73 L-2.47 42.41 L1.02 32.1 L0.77 21.72 L1.22 10.29 L1.59 1.52 L0.77 0.06" stroke="none" stroke-width="0" fill="black" fill-rule="evenodd"/><path d="M0 0 C0 0, 0 0, 0 0 M0 0 C0 0, 0 0, 0 0 M0.03 -0.02 C0.05 -0.33, 0.08 -0.66, 0.04 -1.41 M-0.05 0.05 C0.03 -0.52, -0.06 -0.93, -0.07 -1.3 M-0.13 -1.26 C-0.07 -1.81, -0.3 -2.24, -0.32 -2.54 M0 -1.33 C-0.16 -1.67, -0.2 -2.04, -0.31 -2.44 M-0.36 -2.44 C-0.51 -2.78, -0.94 -3.25, -0.91 -3.4 M-0.34 -2.43 C-0.52 -2.66, -0.74 -2.92, -1.02 -3.44 M-1.04 -3.37 C-1.13 -3.82, -1.5 -3.88, -1.89 -4.44 M-0.96 -3.45 C-1.32 -3.81, -1.67 -4.11, -1.92 -4.27 M-1.87 -4.45 C-2.17 -4.52, -2.68 -4.81, -3.02 -5.05 M-1.95 -4.31 C-2.33 -4.54, -2.69 -4.84, -3.13 -5.06 M-2.92 -5.06 C-3.45 -5.19, -3.82 -5.25, -4.48 -5.78 M-3.1 -4.99 C-3.5 -5.26, -3.82 -5.41, -4.49 -5.68 M-4.63 -5.52 C-4.87 -5.64, -5.54 -6.08, -6.19 -6.07 M-4.4 -5.64 C-4.88 -5.91, -5.44 -5.92, -6.16 -6.12 M-6.19 -6.11 C-6.87 -6.42, -7.27 -6.61, -7.79 -6.56 M-6.03 -6.19 C-6.56 -6.24, -7.09 -6.45, -7.87 -6.48 M-7.96 -6.73 C-8.39 -6.63, -8.61 -6.67, -9.89 -6.65 M-7.87 -6.48 C-8.43 -6.53, -8.92 -6.61, -9.99 -6.88 M-9.96 -6.76 C-10.55 -6.8, -11.19 -7.01, -12.03 -6.93 M-9.83 -6.78 C-10.76 -6.89, -11.63 -6.88, -12.07 -7.08 M-11.78 -6.65 C-13.34 -7.18, -14.12 -6.98, -16.52 -6.94 M-12.17 -7.15 C-13.37 -7.02, -14.44 -6.85, -16.86 -7.13 M-16.62 -6.62 C-18.19 -6.55, -19.56 -6.73, -22.19 -7.14 M-16.82 -6.96 C-18.79 -7.18, -20.74 -7.14, -22.15 -7.17 M-22.51 -6.65 C-23.79 -6.77, -26.26 -6.72, -27.84 -7.01 M-21.7 -6.81 C-23.63 -7.07, -24.95 -6.54, -27.64 -6.55 M-27.44 -6.57 C-30.23 -6.08, -33.2 -6.51, -37.63 -5.16 M-27.24 -6.27 C-30.35 -6.54, -32.27 -5.61, -38.86 -5.05 M-38.95 -5.05 C-39.57 -4.67, -41.22 -4.75, -43.89 -4.82 M-38.77 -5.14 C-40.71 -4.85, -42.9 -4.51, -44.22 -4.34 M-44.41 -4.92 C-45.63 -4.21, -46.55 -3.69, -49.64 -3.98 M-44.24 -4.57 C-45.33 -4.51, -46.85 -4.25, -49.07 -3.69 M-49.58 -3.87 C-50.51 -3.39, -51.92 -3.11, -53.83 -3.04 M-49.14 -4.04 C-50.59 -3.81, -51.85 -3.55, -53.59 -3.17 M-53.46 -3.44 C-54.9 -3.24, -56.68 -2.91, -57.8 -2.79 M-53.98 -3.03 C-54.86 -2.97, -55.74 -2.86, -57.93 -2.73 M-57.76 -2.69 C-58.41 -2.64, -58.9 -2.76, -59.51 -2.35 M-57.81 -2.77 C-58.34 -2.74, -58.79 -2.68, -59.54 -2.56 M-59.71 -2.63 C-60.04 -2.65, -60.37 -2.52, -61.27 -2.53 M-59.58 -2.58 C-60.18 -2.55, -60.72 -2.5, -61.15 -2.42 M-61.27 -2.5 C-61.71 -2.25, -62.11 -2.4, -62.41 -2.44 M-61.22 -2.38 C-61.58 -2.43, -62.02 -2.36, -62.43 -2.29 M-62.52 -2.3 C-62.74 -2.35, -62.99 -2.34, -63.51 -2.35 M-62.45 -2.38 C-62.84 -2.39, -63.24 -2.32, -63.63 -2.32 M-63.63 -2.47 C-64.05 -1.92, -64.84 -1.88, -65.07 -1.72 M-63.51 -2.41 C-64.02 -2.12, -64.53 -1.82, -65.07 -1.66 M-65.05 -1.53 C-65.68 -1.33, -65.86 -1.22, -66.68 -0.7 M-65.2 -1.55 C-65.55 -1.35, -66.11 -1.1, -66.61 -0.75 M-66.72 -0.83 C-67.75 0.15, -68.13 0.72, -68.84 1.39 M-66.53 -0.7 C-67.5 0, -68.47 1.03, -69.03 1.24 M-68.74 1.38 C-69.43 2.16, -70.27 3.06, -71.01 4.16 M-68.84 1.34 C-69.72 2.11, -70.21 2.89, -70.91 3.85 M-71.15 3.65 C-71.31 4.72, -71.68 5.59, -72.62 6.88 M-70.99 3.8 C-71.23 4.43, -71.74 5.2, -72.36 6.66 M-72.6 6.65 C-72.5 7.87, -72.82 8.79, -73.18 10.01 M-72.44 6.81 C-72.53 7.58, -72.86 8.4, -73.32 9.79 M-73.28 9.85 C-73.85 10.85, -73.79 11.4, -73.8 13.14 M-73.36 9.64 C-73.72 10.39, -73.7 11.17, -74.23 13.12 M-73.92 12.69 C-74.4 13.77, -74.61 14.56, -74.31 16.24 M-74.06 12.87 C-74.32 13.91, -74.4 14.94, -74.52 16.15 M-74.69 16.41 C-74.87 16.73, -74.75 17.67, -74.65 19.52 M-74.69 16.3 C-74.76 17.2, -74.59 18.08, -74.9 19.58 M-74.8 19.45 C-74.56 19.86, -74.61 20.27, -74.5 20.87 M-74.73 19.49 C-74.72 19.87, -74.6 20.35, -74.34 20.79 M-74.3 20.75 C-74.18 20.97, -74.03 21.28, -73.64 21.89 M-74.41 20.89 C-74.19 21.16, -73.98 21.48, -73.6 21.93 M-73.64 21.9 C-73.26 22.28, -72.97 22.55, -72.65 22.75 M-73.7 21.85 C-73.42 22.08, -73.29 22.25, -72.73 22.69 M-72.66 22.59 C-72.5 22.65, -72.24 22.79, -71.37 23.1 M-72.64 22.65 C-72.39 22.83, -71.99 22.94, -71.43 23.27 M-71.43 23.31 C-71.15 23.33, -70.49 23.37, -70.16 23.5 M-71.46 23.16 C-71.05 23.3, -70.58 23.43, -70.01 23.55 M-70.07 23.69 C-69.64 23.61, -69.39 23.72, -68.37 23.56 M-70.03 23.61 C-69.47 23.59, -69.02 23.68, -68.51 23.77 M-68.8 23.9 C-67.36 23.9, -66.28 23.33, -64.79 23.34 M-68.48 23.64 C-67.2 23.69, -66.17 23.69, -65.09 23.75 M-64.83 23.35 C-63.62 23.51, -62.82 23.55, -61.05 23.1 M-64.82 23.41 C-63.62 23.36, -62.39 23.05, -61.36 22.92 M-61.38 22.96 C-59.95 23.02, -59.06 22.94, -57.76 22.18 M-61.22 22.96 C-59.71 22.75, -58.49 22.81, -57.47 22.32 M-57.74 22.53 C-56.99 22.15, -56.38 22.32, -54.6 22.09 M-57.72 22.63 C-56.95 22.27, -56.43 22.32, -54.49 21.86 M-54.48 21.99 C-53.87 22.11, -53.55 22.07, -53.1 21.91 M-54.42 22.03 C-54.13 21.98, -53.84 22.03, -53.03 21.95 M-52.9 21.85 C-52.68 21.86, -52.29 21.96, -51.82 21.99 M-52.99 21.84 C-52.56 21.93, -52.18 21.91, -51.82 21.83 M-51.59 21.85 C-51.98 22.44, -51.99 23.51, -51.98 24.31 M-51.87 21.79 C-51.8 22.54, -51.96 23.32, -52.01 24.18 M-51.81 24.14 C-52.25 25.11, -52.55 25.71, -52.5 26.1 M-51.91 24.14 C-52.13 24.79, -52.37 25.66, -52.44 26.41 M-52.62 26.44 C-52.7 26.71, -52.73 27.13, -53.3 28.55 M-52.42 26.32 C-52.73 26.88, -52.91 27.28, -53.13 28.37 M-53.28 28.53 C-53.55 28.9, -53.77 29.7, -54.15 30.11 M-53.21 28.44 C-53.42 29.05, -53.68 29.68, -53.94 30.41 M-53.91 30.23 C-54.29 31.68, -55.4 32.28, -55.88 33.82 M-53.83 30.3 C-54.79 31.35, -55.28 32.93, -56.22 33.88 M-55.96 34.23 C-56.24 34.78, -57.23 35.11, -58.15 37.24 M-55.93 33.75 C-57 34.93, -57.68 36.03, -58.29 37.06 M-58.31 36.87 C-58.29 36.82, -58.23 36.75, -58.15 36.69 M-58.32 36.9 C-58.26 36.82, -58.21 36.75, -58.14 36.68 M-58.14 36.68 C-58.13 36.66, -58.12 36.64, -58.09 36.61 M-58.14 36.67 C-58.12 36.65, -58.11 36.63, -58.1 36.61 M-58.11 36.6 C-58.13 36.63, -58.21 36.69, -58.26 36.79 M-58.1 36.6 C-58.17 36.69, -58.21 36.75, -58.29 36.82 M-58.33 36.85 C-58.46 37, -58.51 37.07, -58.67 37.21 M-58.27 36.82 C-58.39 36.9, -58.46 37, -58.66 37.18 M-58.64 37.17 C-58.72 37.26, -58.85 37.35, -58.89 37.44 M-58.65 37.18 C-58.73 37.27, -58.84 37.33, -58.93 37.45 M-58.92 37.44 C-58.91 37.42, -58.89 37.41, -58.88 37.38 M-58.92 37.44 C-58.9 37.42, -58.88 37.4, -58.87 37.39 M-58.88 37.5 C-59.24 37.89, -59.88 38.09, -60.61 38.68 M-58.91 37.47 C-59.35 37.71, -59.68 38.06, -60.88 38.76 M-60.88 38.59 C-61.62 39.07, -62.01 39.55, -62.7 39.77 M-60.7 38.77 C-61.14 38.91, -61.5 39.21, -62.62 39.78 M-62.62 39.83 C-63.41 39.94, -64.05 40.24, -64.63 40.44 M-62.63 39.65 C-63.13 39.8, -63.38 39.91, -64.54 40.25 M-64.55 40.37 C-65.41 40.36, -65.9 40.26, -66.58 40.36 M-64.48 40.21 C-64.98 40.28, -65.48 40.34, -66.41 40.31 M-66.34 40.34 C-66.95 40.41, -67.36 40.25, -68.39 40.23 M-66.46 40.33 C-66.76 40.43, -67.1 40.4, -68.17 40.23 M-68.25 40.25 C-68.72 40.1, -68.83 39.88, -70.09 39.54 M-68.26 40.15 C-68.81 40.02, -69.46 39.88, -70.04 39.55 M-70.07 39.46 C-70.51 39.41, -70.91 39.31, -71.69 38.69 M-70.01 39.63 C-70.57 39.33, -71.23 38.98, -71.64 38.74 M-71.66 38.76 C-72.13 38.66, -72.63 38.14, -73.3 37.9 M-71.77 38.85 C-72.29 38.33, -72.9 37.91, -73.35 37.8 M-73.47 37.69 C-73.84 37.58, -74.1 37.33, -74.87 36.28 M-73.34 37.73 C-73.67 37.34, -74.16 36.96, -74.78 36.41 M-75.08 36.32 C-75.47 36, -75.8 35.57, -76.32 34.96 M-74.88 36.41 C-75.19 36.18, -75.5 35.82, -76.4 34.99 M-75.92 34.79 C-76.72 33.76, -77.99 33.32, -78.92 31.79 M-76.39 34.93 C-77.05 34.13, -77.84 33.14, -79.07 31.43 M-79.05 31.45 C-79.01 30.89, -79.8 30.47, -80.86 27.73 M-79.15 31.45 C-79.37 30.66, -79.68 29.96, -81.01 27.96 M-81.01 28.26 C-81.5 26.82, -82.18 25.11, -82.63 24.73 M-80.87 28.06 C-81.68 26.53, -82.18 25.52, -82.68 24.24 M-82.42 24.3 C-82.77 22.87, -83.43 22.03, -83.84 21.03 M-82.64 24.19 C-83.05 23.12, -83.73 21.66, -84.08 20.99 M-83.93 20.85 C-83.85 20.59, -84.23 19.75, -84.93 17.61 M-83.91 21 C-84.37 20.06, -84.43 19.06, -85.16 17.45 M-84.91 17.26 C-85.7 16.47, -85.59 14.55, -85.64 13.67 M-85.1 17.31 C-85.43 16.31, -85.52 15.31, -86.01 13.63 M-85.77 13.66 C-86.13 12.87, -85.9 12.25, -86.77 9.92 M-85.93 13.77 C-86.27 12.25, -86.48 10.83, -86.5 9.76 M-86.6 9.6 C-86.79 8.92, -86.86 7.42, -87.33 6.18 M-86.56 9.99 C-86.83 8.56, -87.06 6.99, -87.09 6.09 M-87.45 6.27 C-86.97 4.93, -87.21 3.86, -87.09 2.02 M-87.29 5.88 C-87.25 5.18, -87.01 4.04, -87.32 2.02 M-87.02 2.41 C-87.49 0.91, -87.49 0.17, -86.94 -1.82 M-87.35 1.98 C-87.28 0.53, -87.19 -0.92, -87.45 -2.1 M-87.65 -1.84 C-87.1 -2.64, -86.97 -3.94, -86.74 -5.88 M-87.41 -1.89 C-87.31 -3.12, -87.12 -4, -86.94 -5.87 M-86.89 -5.86 C-87.02 -7.18, -86.52 -8.33, -86.41 -9.75 M-87.24 -5.98 C-87.12 -7.48, -86.75 -8.82, -86.52 -9.81 M-86.55 -10.25 C-86.38 -11.27, -86.72 -12.25, -86.19 -13.78 M-86.58 -9.92 C-86.46 -10.95, -86.29 -11.76, -86.21 -13.84 M-85.75 -13.78 C-86.18 -15.4, -85.81 -16.6, -85.32 -17.62 M-85.96 -13.72 C-86 -14.8, -85.62 -15.83, -85.43 -17.89 M-85.19 -17.53 C-84.87 -18.8, -84.68 -19.17, -84.69 -21.9 M-85.22 -17.81 C-85.1 -18.75, -84.93 -20.04, -84.25 -21.6 M-84.27 -21.72 C-84.23 -22.57, -83.78 -23.74, -83.2 -25.25 M-84.32 -21.67 C-83.97 -22.7, -83.67 -24.35, -83.42 -25.22 M-82.95 -25.22 C-82.98 -25.87, -82.84 -26.95, -81.9 -28.34 M-83.43 -25.14 C-82.85 -26.02, -82.7 -26.96, -82.1 -28.65 M-81.95 -28.68 C-81.95 -29.55, -81.49 -30.27, -80.4 -31.56 M-82.2 -28.51 C-81.77 -29.43, -81.46 -30.2, -80.66 -31.86 M-80.75 -31.61 C-80.07 -32.65, -80.22 -33.31, -79.36 -35.19 M-80.66 -31.89 C-80.15 -32.76, -79.6 -33.99, -79.14 -35.07 M-79.22 -34.87 C-78.85 -35.19, -78.77 -35.49, -78.49 -35.65 M-79.13 -34.95 C-78.99 -35.16, -78.79 -35.51, -78.54 -35.75 M-78.52 -35.73 C-78.46 -35.86, -78.25 -35.93, -77.95 -36.38 M-78.6 -35.7 C-78.38 -35.94, -78.21 -36.11, -77.89 -36.4 M-77.81 -36.45 C-77.66 -36.53, -77.43 -36.61, -77.08 -36.8 M-77.82 -36.35 C-77.68 -36.48, -77.55 -36.54, -77.08 -36.81 M-76.96 -36.82 C-76.76 -36.87, -76.68 -37.02, -76.15 -37.2 M-77.08 -36.89 C-76.79 -36.92, -76.49 -37, -76.11 -37.12 M-75.91 -37.29 C-75.43 -37.32, -74.64 -37.52, -74.01 -37.65 M-76.17 -37.18 C-75.16 -37.28, -74.44 -37.46, -73.72 -37.6 M-74.02 -37.82 C-73.46 -37.65, -72.91 -37.52, -71.77 -37.69 M-73.81 -37.59 C-73.27 -37.75, -72.83 -37.59, -71.69 -37.65 M-71.6 -37.81 C-70.94 -37.69, -70.57 -37.62, -69.42 -37.5 M-71.66 -37.76 C-70.84 -37.57, -70.06 -37.51, -69.53 -37.24 M-69.42 -37.27 C-69.08 -36.95, -68.04 -36.98, -67.41 -36.77 M-69.52 -37.36 C-68.79 -36.99, -67.98 -36.7, -67.61 -36.71 M-67.54 -36.54 C-67.07 -36.18, -66.64 -36.07, -65.55 -35.38 M-67.51 -36.63 C-67.03 -36.32, -66.61 -36, -65.79 -35.67 M-65.96 -35.59 C-65.39 -35.15, -64.89 -34.68, -64.08 -34.18 M-65.77 -35.59 C-65.33 -35.29, -64.78 -34.89, -64.08 -34.21 M-64.31 -34.46 C-63.86 -33.75, -63.24 -33.53, -62.48 -32.64 M-64.2 -34.33 C-63.52 -33.74, -63.21 -33.35, -62.5 -32.71 M-62.4 -32.93 C-62.32 -32.07, -61.53 -31.49, -61.34 -30.93 M-62.58 -32.66 C-62.29 -32.25, -61.85 -31.75, -61.28 -31.06 M-61.33 -30.97 C-60.69 -30.35, -60.41 -29.67, -59.91 -29.25 M-61.12 -31.06 C-60.71 -30.43, -60.49 -29.67, -59.88 -28.98 M-60.07 -28.88 C-59.62 -28.41, -59.51 -28.02, -58.89 -26.89 M-60.03 -28.97 C-59.74 -28.48, -59.31 -27.66, -58.92 -26.94 M-59.36 -26.74 C-58.44 -25.46, -57.85 -23.28, -57.12 -23.11 M-58.84 -26.82 C-58.5 -25.67, -57.99 -24.13, -57.35 -22.85 M-57.46 -22.39 C-56.63 -20.69, -56.55 -19.7, -55.99 -18.81 M-57.26 -22.83 C-56.97 -21.28, -56.67 -19.8, -56.34 -18.54 M-56.09 -18.36 C-56.08 -17.94, -56.18 -17.06, -55.97 -16.5 M-56.14 -18.44 C-56.03 -17.58, -56.05 -16.89, -55.99 -16.37 M-55.85 -16.48 C-55.89 -15.93, -55.77 -15.29, -55.83 -14.2 M-56 -16.29 C-55.89 -15.7, -55.79 -15.34, -55.88 -14.43 M-55.83 -14.4 C-55.79 -14.17, -55.75 -14.04, -55.72 -13.72 M-55.78 -14.39 C-55.76 -14.16, -55.81 -14.01, -55.74 -13.73 M-55.74 -13.67 C-55.71 -13.59, -55.63 -13.43, -55.41 -13.14 M-55.78 -13.7 C-55.62 -13.51, -55.55 -13.33, -55.46 -13.13 M-55.52 -13.14 C-55.31 -12.96, -55.18 -12.92, -54.92 -12.73 M-55.49 -13.13 C-55.25 -12.98, -55.08 -12.85, -54.97 -12.72 M-55.01 -12.63 C-54.71 -12.56, -54.56 -12.45, -54.16 -12.32 M-54.96 -12.71 C-54.76 -12.61, -54.54 -12.51, -54.2 -12.28 M-54.12 -12.22 C-53.94 -12.16, -53.48 -11.99, -53.22 -11.86 M-54.2 -12.23 C-53.85 -12.2, -53.45 -11.98, -53.27 -11.92 M-53.35 -11.92 C-52.76 -11.94, -52.37 -11.8, -52.19 -11.7 M-53.33 -11.95 C-52.88 -11.9, -52.51 -11.8, -52.2 -11.72 M-52.21 -11.88 C-51.81 -11.77, -51.31 -11.52, -49.59 -11.51 M-52.14 -11.65 C-51.38 -11.72, -50.49 -11.53, -49.39 -11.45 M-49.18 -11.4 C-48.1 -11.26, -46.68 -11.27, -46.18 -11.12 M-49.42 -11.3 C-48.65 -11.43, -47.67 -11.29, -46.35 -11.4 M-46.29 -10.89 C-44.87 -11.25, -43.42 -11.63, -42.31 -11.47 M-46.06 -11.39 C-45.36 -11.12, -44.18 -11.18, -42.48 -11.28 M-42.6 -11.39 C-41.67 -11.44, -40.26 -11.22, -38.62 -11.84 M-42.4 -11.42 C-41.23 -11.24, -40.05 -11.45, -38.63 -11.65 M-38.68 -11.72 C-37.16 -11.32, -36.37 -11.37, -34.48 -11.55 M-38.55 -11.38 C-37.52 -11.73, -36.7 -11.7, -34.11 -11.8 M-34 -12.67 C-32.15 -11.4, -29.32 -11.9, -25.39 -12.47 M-34.57 -11.52 C-32.39 -12.4, -30.03 -12.3, -25.36 -12.56 M-26 -12.52 C-24.53 -12.61, -22.4 -13.13, -21.4 -12.91 M-25.84 -12.93 C-24.04 -13.1, -22.73 -13.04, -21.65 -13.06 M-21.26 -13.55 C-20.41 -13.08, -18.23 -13.66, -17.41 -14.08 M-21.66 -13.24 C-20.25 -13.2, -18.88 -13.57, -17.56 -13.88 M-17.75 -13.38 C-16.68 -13.83, -16.16 -13.66, -13.86 -14.12 M-17.67 -13.74 C-16.98 -13.72, -15.92 -13.99, -14.01 -13.95 M-14.4 -14.1 C-13.42 -14.31, -12.28 -13.99, -11.08 -14.41 M-14.03 -14.04 C-12.79 -14.19, -11.6 -14.25, -11.12 -14.55 M-10.87 -14.19 C-10.41 -14.24, -9.62 -14.69, -8.5 -14.85 M-10.99 -14.33 C-10.46 -14.36, -9.93 -14.6, -8.62 -14.67 M-8.69 -14.63 C-8.35 -14.66, -8.12 -14.61, -7.79 -14.7 M-8.63 -14.64 C-8.41 -14.64, -8.1 -14.69, -7.77 -14.69 M-7.73 -14.62 C-7.55 -14.65, -7.31 -14.62, -6.96 -14.73 M-7.73 -14.69 C-7.54 -14.71, -7.33 -14.69, -6.96 -14.66 M-7.4 -14.68 C-8.46 -15.06, -9.01 -15.23, -11.43 -15.78 M-7.13 -14.8 C-8.46 -15.04, -9.97 -15.25, -11.43 -15.46 M-12.08 -15.93 C-13.13 -16.01, -15.44 -16.15, -16.91 -16.14 M-11.83 -15.52 C-13.51 -15.74, -15.34 -16.08, -16.62 -16.35 M-17.07 -17.13 C-19.08 -17.9, -23.51 -16.58, -27.09 -18.31 M-16.18 -16.76 C-18.77 -16.21, -21.4 -16.89, -26.95 -17.94 M-27.22 -17.58 C-28.23 -17.36, -30.49 -18.32, -32.07 -17.69 M-27 -17.82 C-28.47 -17.64, -29.92 -17.94, -31.8 -17.92 M-32.3 -18.21 C-33.41 -18.68, -34.99 -18.82, -37.3 -19.15 M-31.69 -17.87 C-33.07 -18.4, -33.69 -18.32, -37.02 -18.86 M-36.67 -18.39 C-38.63 -19.22, -40.7 -19.23, -41.76 -19.02 M-36.63 -18.8 C-38.25 -18.84, -39.38 -19.07, -41.42 -19.17 M-41.29 -19.53 C-42.42 -19.25, -43.69 -19.81, -46.15 -20.65 M-41.7 -19.39 C-42.27 -19.69, -43.2 -19.7, -45.97 -20.3 M-45.91 -19.69 C-45.83 -21.86, -46.48 -24.48, -45.65 -25.9 M-45.87 -20.45 C-46.23 -22.34, -46.3 -24.41, -46.3 -25.59 M-46.09 -25.78 C-46.44 -27.41, -46.73 -29.08, -46.59 -29.85 M-46.38 -25.62 C-46.6 -27.25, -46.54 -28.76, -46.57 -30.14 M-46.74 -30.13 C-47.28 -32.02, -47.64 -33.22, -47.56 -34.27 M-46.67 -30.16 C-47.2 -31.64, -47.32 -33.32, -47.52 -34.57 M-47.43 -34.16 C-48.04 -35.23, -48.25 -36.47, -48.33 -38.12 M-47.42 -34.35 C-47.65 -35.16, -48.09 -35.87, -48.68 -38.16 M-48.69 -38.19 C-48.99 -39.02, -49.31 -39.6, -49.65 -41.14 M-48.55 -38.14 C-49.04 -38.86, -49.35 -39.44, -49.75 -41.3 M-50 -41.38 C-50.37 -41.88, -50.54 -42.26, -51.18 -43.59 M-49.88 -41.12 C-50.36 -41.93, -50.94 -43.07, -51.42 -43.63 M-51.49 -43.48 C-52.2 -44.63, -52.56 -45.3, -53.21 -45.6 M-51.49 -43.62 C-51.81 -44.34, -52.53 -45.15, -53.12 -45.76 M-52.89 -45.58 C-53.81 -46.27, -54.34 -46.94, -54.64 -47.25 M-52.95 -45.72 C-53.45 -46.14, -53.98 -46.46, -54.79 -47.26 M-54.71 -47.43 C-55.43 -47.88, -56.28 -48.18, -56.82 -48.22 M-54.87 -47.22 C-55.71 -47.7, -56.32 -48.09, -56.73 -48.5 M-56.89 -48.45 C-57.46 -48.83, -57.94 -48.73, -59.06 -49.3 M-56.9 -48.4 C-57.57 -48.57, -58.04 -48.92, -58.86 -49.15 M-59.07 -48.96 C-59.44 -49.21, -60.12 -49.39, -61.36 -49.24 M-58.85 -49.21 C-59.47 -49.11, -59.92 -49.28, -61.11 -49.5 M-61.21 -49.4 C-61.5 -49.18, -61.89 -49.4, -63.61 -49.29 M-61.08 -49.33 C-61.7 -49.45, -62.23 -49.29, -63.39 -49.34 M-63.67 -49.5 C-64.08 -49.35, -64.66 -49.04, -65.69 -48.86 M-63.46 -49.39 C-63.82 -49.06, -64.34 -49.14, -65.86 -48.75 M-66.06 -48.7 C-66.53 -48.56, -66.64 -48.61, -68.16 -48.23 M-65.83 -48.71 C-66.71 -48.64, -67.3 -48.29, -68.33 -47.95 M-68.22 -47.79 C-68.59 -47.94, -69.5 -47.27, -70.5 -46.7 M-68.25 -48.06 C-69.29 -47.53, -70.18 -47.19, -70.63 -46.95 M-70.58 -47.06 C-71.14 -46.48, -72.06 -46.17, -73.28 -45.3 M-70.59 -46.72 C-71.3 -46.44, -72.01 -46.22, -73.07 -45.52 M-73.24 -45.69 C-73.62 -44.97, -74.18 -44.63, -75.64 -43.72 M-73.13 -45.44 C-73.93 -44.67, -74.98 -44.04, -75.64 -43.56 M-75.5 -44.01 C-76.18 -43.09, -77.56 -42.42, -78.32 -41.96 M-75.69 -43.85 C-76.29 -43.29, -77.03 -42.53, -77.98 -41.6 M-77.87 -42.01 C-79.12 -41.32, -79.76 -40.06, -80.28 -39.8 M-77.99 -41.57 C-78.89 -41.11, -79.81 -40.07, -80.37 -39.68 M-80.54 -39.31 C-81.61 -38.43, -82.26 -37.76, -82.72 -36.93 M-80.65 -39.69 C-81.3 -38.67, -82.04 -37.72, -82.86 -37.05 M-82.79 -37.34 C-83.78 -36.7, -84.14 -35.6, -85.45 -34.46 M-82.99 -36.99 C-83.52 -36.21, -84.21 -35.48, -85.31 -34.61 M-85.32 -34.68 C-86.15 -33.46, -86.49 -32.69, -87.65 -31.59 M-85.02 -34.33 C-85.75 -33.67, -86.45 -32.75, -87.39 -31.69 M-88.07 -32.07 C-89.1 -29.51, -90.23 -27.83, -91.53 -25.03 M-87.74 -31.85 C-89.04 -29.45, -90.37 -27.52, -91.25 -25.95 M-91.29 -26.1 C-92.13 -23.56, -93.74 -21.85, -94.36 -18.91 M-91.46 -25.47 C-92.4 -24.13, -93.59 -22.36, -95.06 -19.43 M-94.72 -19.68 C-95.18 -18.24, -96.2 -16.81, -96.69 -15.86 M-94.78 -19.41 C-95.46 -18.59, -95.87 -17.64, -96.44 -16.23 M-96.19 -16.4 C-96.66 -15.07, -97.74 -13.28, -97.93 -12.56 M-96.23 -15.95 C-96.7 -14.93, -97.25 -13.7, -97.82 -12.79 M-97.91 -12.4 C-98.24 -12.06, -98.53 -10.99, -98.89 -9.37 M-97.64 -12.77 C-97.86 -12.01, -98.23 -10.84, -98.84 -9.39 M-98.89 -9.06 C-99.3 -8.59, -99 -7.59, -99.56 -5.83 M-98.73 -9.26 C-99 -7.95, -99.44 -6.64, -99.38 -6.15 M-99.21 -6.25 C-99.75 -4.92, -99.8 -3.98, -100.3 -3.04 M-99.65 -6.09 C-99.78 -4.91, -99.8 -3.74, -100.22 -2.74 M-100.14 -2.57 C-100.21 -1.72, -100.15 -1.17, -100.05 0.29 M-100.01 -2.88 C-100.37 -1.62, -100.18 -0.33, -100.39 0.43 M-100.35 0.59 C-100.35 1.9, -100.84 3.06, -101.02 4.23 M-100.25 0.61 C-100.3 1.35, -100.43 2.15, -100.61 4.43 M-100.55 4.08 C-100.7 5.39, -100.75 6.5, -100.83 8.35 M-100.83 4.28 C-100.62 5.78, -100.58 7.31, -100.84 8.23 M-100.58 8.6 C-100.65 9.57, -100.42 10.52, -100.36 13.05 M-100.86 8.33 C-100.74 9.55, -100.77 10.24, -100.52 12.7 M-100.11 12.69 C-100 13.86, -99.96 15.1, -99.23 16.98 M-100.32 12.54 C-100.05 13.7, -99.62 14.94, -99.59 16.98 M-99.25 16.7 C-99.02 18.34, -98.97 19.66, -98.48 21.19 M-99.73 16.8 C-98.94 18.55, -98.79 19.92, -98.27 21.53 M-98.03 21.04 C-98.18 22.63, -97.52 23.6, -96.4 25.56 M-98.46 21.46 C-98.09 22.55, -97.4 23.51, -96.67 25.85 M-96.64 26 C-95.96 26.54, -96.13 27.65, -95.23 30.34 M-96.94 25.74 C-96.58 26.76, -96.01 27.65, -94.85 30.13 M-94.89 29.77 C-94.15 31.46, -93.11 32.45, -92.32 34.23 M-95.04 29.89 C-93.95 31.29, -93.57 32.66, -92.91 33.73 M-92.51 33.76 C-91.33 35.04, -90.66 36.85, -90.44 37.02 M-92.51 33.68 C-92.06 34.51, -91.6 35.52, -90.11 37.27 M-90.31 37.04 C-89.66 38.51, -88.71 39.58, -87.33 40.21 M-89.99 37.12 C-89.27 38.34, -88.13 39.55, -87.24 40.24 M-87.07 40.59 C-86.36 41.43, -85.63 41.79, -83.98 42.51 M-87.25 40.31 C-86.45 40.78, -86.05 41.54, -84.39 43.03 M-84.12 42.9 C-83.93 43.24, -83.24 43.57, -82.4 43.94 M-84.22 42.85 C-83.59 43.2, -83.06 43.61, -82.52 43.87 M-82.59 43.67 C-82.03 43.97, -81.81 44.19, -80.89 44.55 M-82.61 43.83 C-82.09 44.04, -81.75 44.2, -80.93 44.7 M-80.86 44.49 C-80.45 44.77, -79.88 45.16, -78.89 45.31 M-80.92 44.59 C-80.32 44.93, -79.82 45.06, -79.1 45.31 M-79.06 45.21 C-78.53 45.29, -77.97 45.49, -77.29 45.62 M-79.05 45.3 C-78.56 45.44, -78.05 45.54, -77.21 45.74 M-77.05 45.87 C-76.41 45.82, -76.17 45.88, -75.2 45.99 M-77.27 45.64 C-76.65 45.83, -76.07 45.71, -75.29 45.91 M-75.33 45.85 C-74.81 45.73, -73.88 45.97, -73.17 45.77 M-75.28 45.89 C-74.79 45.81, -74.34 45.81, -73.26 45.96 M-73.25 45.7 C-72.46 45.84, -72.02 45.85, -71.44 45.76 M-73.2 45.92 C-72.8 45.79, -72.21 45.77, -71.16 45.57 M-71.03 45.68 C-70.65 45.69, -70.16 45.39, -69.18 44.98 M-71.23 45.71 C-70.44 45.38, -69.68 45.32, -69.22 45.08 M-69.28 45.06 C-68.22 45.07, -67.51 44.75, -67.12 44.27 M-69.07 45.21 C-68.41 44.8, -67.52 44.63, -66.99 44.47 M-66.79 44.27 C-66.31 44.21, -65.34 43.75, -64.76 43.35 M-67 44.38 C-66.26 43.98, -65.52 43.57, -64.67 43.42 M-64.88 43.04 C-64.22 42.57, -63.24 41.92, -62.37 41.41 M-64.76 43.18 C-63.61 42.5, -62.58 41.78, -62.16 41.64 M-62.37 41.49 C-61.17 40.84, -60.28 39.81, -59.42 39.08 M-62.25 41.57 C-61.57 41.04, -60.83 40.38, -59.4 39.52 M-59.43 39.49 C-58.76 38.72, -58.64 37.84, -56.86 37.22 M-59.42 39.37 C-58.89 38.75, -58.55 38.23, -57.14 36.96 M-57.45 37.17 C-56.82 36.6, -56.06 35.77, -55.33 34.36 M-57.2 37.11 C-56.45 36.28, -56.05 35.35, -55.11 34.3 M-54.95 34.57 C-54.5 33.56, -53.73 32.76, -53.34 31.43 M-54.97 34.31 C-54.46 33.05, -53.85 32.05, -53.32 31.5 M-53.2 31.59 C-52.85 30.39, -52.49 29.57, -52.22 28.2 M-53.33 31.42 C-52.72 30.1, -52.43 28.87, -52.11 28.42 M-52.41 28.49 C-51.84 27.74, -52.11 27.01, -51.65 25.22 M-52.12 28.35 C-51.91 27.54, -52.02 26.81, -51.55 25.33 M-51.35 25.14 C-51.45 24.03, -51.92 23.68, -51.88 21.74 M-51.52 25.32 C-51.62 24.49, -51.55 23.54, -51.48 21.83 M-51.58 21.81 C-51.35 21.85, -51.1 21.83, -50.92 21.74 M-51.63 21.86 C-51.49 21.83, -51.34 21.82, -50.9 21.77 M-50.91 21.84 C-51.23 21.78, -51.46 21.72, -51.63 21.66 M-50.83 21.78 C-51.11 21.76, -51.26 21.73, -51.63 21.71 M-51.7 21.69 C-51.66 21.55, -51.63 21.38, -51.74 20.98 M-51.61 21.69 C-51.69 21.46, -51.67 21.22, -51.72 21.01 M-51.71 21.03 C-51.68 21.22, -51.66 21.38, -51.75 21.65 M-51.71 21.05 C-51.73 21.29, -51.72 21.52, -51.75 21.67 M-51.41 22.02 C-53.32 21.81, -53.86 21.01, -56.25 21.45 M-51.94 21.9 C-53.4 21.39, -54.83 21.05, -56.77 21.04 M-56.24 21.26 C-58.52 20.56, -59.61 21.04, -61.24 20.46 M-56.77 20.82 C-57.76 20.77, -58.83 20.71, -60.96 20.5 M-60.76 20.66 C-61.54 20.49, -62.03 20.42, -62.93 20.23 M-60.84 20.56 C-61.57 20.47, -62.24 20.39, -62.68 20.35 M-62.62 20.55 C-63.09 20.45, -63.41 20.2, -64.55 20.13 M-62.72 20.34 C-63.04 20.36, -63.49 20.2, -64.46 20.11 M-64.38 20.05 C-64.91 19.9, -65.35 20.02, -65.8 19.77 M-64.43 20.1 C-65 20.01, -65.55 19.95, -65.91 19.74 M-65.89 19.86 C-66.23 19.61, -66.49 19.6, -67.23 19.27 M-65.95 19.78 C-66.34 19.68, -66.64 19.57, -67.2 19.36 M-67.22 19.37 C-67.32 19.21, -67.61 19.1, -68.11 18.72 M-67.22 19.25 C-67.41 19.19, -67.59 19.01, -68.2 18.69 M-68.14 18.71 C-68.27 18.53, -68.6 18.19, -68.85 17.81 M-68.16 18.62 C-68.34 18.47, -68.47 18.22, -68.95 17.72 M-68.99 17.86 C-68.95 17.32, -69.2 17.01, -69.38 16.67 M-68.94 17.71 C-69.1 17.46, -69.23 17.05, -69.42 16.61 M-69.51 16.56 C-69.42 16.19, -69.52 15.69, -69.59 15.17 M-69.34 16.59 C-69.45 16.22, -69.57 15.72, -69.6 15.16 M-69.64 15.14 C-69.54 14.78, -69.65 14, -69.33 13.33 M-69.6 15.24 C-69.64 14.46, -69.46 13.77, -69.48 13.39 M-69.36 13.34 C-69.56 12.6, -69.33 11.98, -68.87 11 M-69.43 13.3 C-69.42 12.85, -69.29 12.33, -68.99 11.06 M-69.06 11.14 C-68.78 10.15, -68.45 9.49, -68.16 8.73 M-69.2 11.29 C-68.89 10.53, -68.73 9.68, -68.28 8.55 M-68.13 8.86 C-67.71 7.61, -67.64 6.58, -67.07 5.71 M-68.23 8.51 C-68.15 7.67, -67.78 6.94, -67.37 5.29 M-67.24 5.02 C-65.48 5.23, -63.53 5.5, -60.64 5.84 M-67.19 5.48 C-64.7 5.58, -62.7 5.36, -60.59 5.69 M-60.44 5.44 C-58.54 5.43, -56.65 5.86, -54.9 5.74 M-60.61 5.61 C-58.74 5.52, -56.27 5.64, -55.04 5.85 M-55.43 5.29 C-53.48 5.85, -50.56 6.3, -49.62 5.72 M-55.19 5.56 C-52.75 5.68, -50.89 5.52, -49.69 5.68 M-50.01 6.19 C-47.71 6.05, -46.58 6.12, -45.23 6.38 M-49.78 5.59 C-48.2 5.61, -47.33 6.04, -44.59 5.94 M-45.08 5.51 C-43.01 6.13, -42.19 5.78, -40 5.78 M-44.73 5.91 C-43.2 5.93, -41.49 6.09, -40.22 6.27 M-40.49 6.08 C-39.3 6.25, -38 6.04, -36.16 6.13 M-40.54 6.17 C-39.51 6.03, -38.81 6.29, -36.48 6.3 M-36.38 6.51 C-35.74 6.52, -34.82 6.35, -32.56 6.75 M-36.37 6.32 C-35.46 6.19, -34.41 6.37, -32.69 6.65 M-32.67 6.78 C-31.44 6.4, -30.06 6.79, -29.64 6.53 M-32.65 6.35 C-31.68 6.69, -30.79 6.81, -29.79 6.75 M-29.91 6.99 C-29.29 7, -28.32 6.67, -26.59 6.98 M-29.7 6.78 C-28.81 7, -28.02 6.9, -26.82 7.03 M-27.07 7.27 C-26.16 7.52, -25.06 7.21, -24.18 7.83 M-26.73 7.26 C-25.97 7.33, -24.97 7.64, -24.37 7.57 M-24.34 7.64 C-23.75 7.75, -23.37 7.99, -22.37 8.22 M-24.28 7.62 C-23.8 7.78, -23.55 7.92, -22.32 8.2 M-22.24 8.41 C-22.05 8.36, -21.52 8.42, -20.36 8.97 M-22.18 8.27 C-21.88 8.49, -21.28 8.55, -20.38 8.94 M-20.56 8.93 C-20 9.16, -19.34 9.53, -18.94 9.94 M-20.46 9.04 C-19.95 9.27, -19.6 9.5, -18.93 9.86 M-19.06 9.86 C-18.57 10.17, -18.14 10.54, -17.58 10.75 M-18.95 9.8 C-18.52 10.1, -18.2 10.41, -17.62 10.84 M-17.59 10.87 C-17.29 11.3, -17.23 11.54, -16.59 11.95 M-17.69 10.89 C-17.31 11.12, -16.99 11.58, -16.57 12.03 M-16.48 12.01 C-16.29 12.54, -16.24 12.9, -15.78 13.34 M-16.59 12.03 C-16.45 12.32, -16.16 12.76, -15.81 13.46 M-15.63 13.64 C-15.55 14.22, -15.23 14.82, -15.26 15.23 M-15.78 13.42 C-15.58 14.15, -15.26 14.82, -15.21 15.14 M-15.04 15.06 C-14.89 15.66, -14.99 15.77, -14.51 17.07 M-15.15 15.06 C-14.92 15.75, -14.82 16.48, -14.76 17.02 M-14.9 16.78 C-14.7 17.39, -14.61 18.04, -14.35 19 M-14.71 17.02 C-14.57 17.37, -14.52 17.87, -14.28 19.04 M-14.54 18.84 C-14.41 20.02, -14.08 20.63, -14.03 21.26 M-14.46 18.92 C-14.36 19.7, -14.24 20.24, -14.29 21.33 M-14.04 21.43 C-13.94 22.37, -14.04 22.94, -14.19 24.17 M-14.15 21.39 C-14.28 21.9, -14.08 22.66, -14.1 23.96 M-13.93 23.81 C-14.4 24.86, -14.22 25.52, -13.85 26.86 M-14.04 23.99 C-14.2 24.72, -14.13 25.62, -14.03 26.79 M-14.24 26.78 C-14.17 27.84, -14.31 28.54, -14.07 29.73 M-14.02 26.68 C-14.27 27.34, -14.06 28.2, -14.16 30.16 M-14.44 29.99 C-14.15 31.22, -14.26 31.89, -14.56 33.7 M-14.09 29.98 C-14.21 30.94, -14.1 31.95, -14.21 33.38 M-14.24 33.48 C-14.37 34.77, -14.34 35.45, -14.6 37.22 M-14.1 33.55 C-14.43 34.85, -14.43 36.14, -14.23 37.39 M-14.01 37.78 C-13.98 38.62, -14.07 40.36, -14.86 41.53 M-14.23 37.3 C-14.59 38.44, -14.53 39.59, -14.34 41.38 M-14.5 41.17 C-14.87 43.17, -14.02 43.69, -14.81 46.55 M-14.67 41.77 C-14.66 43.02, -14.4 44.37, -14.46 46.22 M-14.36 46.54 C-14.34 46.92, -14.72 49, -14.39 50.97 M-14.77 45.87 C-14.32 47.31, -14.47 47.97, -14.72 51.21 M-14.91 51.45 C-15.03 52.81, -14.63 54.91, -14.65 55.9 M-14.34 51.25 C-14.54 52.61, -14.28 53.76, -14.6 56.31 M-14.78 55.93 C-13.91 58.18, -14.34 60.32, -13.96 62.25 M-14.52 56.38 C-14.21 57.63, -14.56 58.66, -14.45 62.32 M-14.16 62.27 C-14.17 64.44, -14.5 65.27, -13.54 67.96 M-14.12 61.81 C-14.24 64.11, -13.94 65.43, -14.14 68.5 M-14.62 67.66 C-14.41 70.36, -14.35 70.89, -13.77 74.55 M-14.03 68.2 C-13.72 70.15, -13.57 71.35, -13.59 75 M-13.25 74.78 C-15.1 75.25, -16.65 75.59, -17.4 75.08 M-13.8 74.71 C-14.96 75.29, -16.61 75.42, -17.43 75.29 M-17.83 75.84 C-18.41 76.03, -19.01 76.1, -21.6 76.58 M-17.34 75.54 C-18.71 75.63, -19.58 75.85, -21.58 76.49 M-21.62 76.24 C-22.48 76.63, -23.6 77.11, -25.06 77.2 M-21.43 76.46 C-22.26 76.42, -23.12 76.88, -25.33 77.13 M-25.17 77.34 C-26.01 77.1, -26.72 77.3, -27.27 77.54 M-25.27 77.09 C-25.66 77.2, -26.01 77.2, -27.18 77.45 M-27.2 77.23 C-27.75 77.42, -27.97 77.44, -29.23 77.54 M-27.17 77.45 C-27.8 77.44, -28.65 77.39, -29.06 77.5 M-29.74 77.65 C-29.45 74.62, -30.22 72.85, -30.1 70.3 M-29.18 77.5 C-29.49 75.19, -29.56 73.07, -29.93 70.14 M-29.53 70 C-31.13 67.88, -30.87 64.08, -30.52 62.99 M-29.75 70.66 C-30.51 68.02, -30.42 65.92, -31.46 63.45 M-31.2 63.34 C-30.97 62.97, -30.77 62.58, -30.72 62.2 M-31.13 63.37 C-31.03 62.99, -31.02 62.76, -30.75 62.16 M-30.77 62.23 C-31 62.56, -31.21 62.85, -31.31 63.12 M-30.76 62.2 C-30.9 62.53, -31.13 62.78, -31.22 63.06 M-31.08 63.26 C-31.28 62.36, -31.6 61.82, -31.51 61.6 M-31.19 63.05 C-31.31 62.76, -31.45 62.35, -31.64 61.47 M-31.66 61.72 C-31.43 62.56, -31.44 63.49, -31.44 63.93 M-31.5 61.47 C-31.72 61.9, -31.76 62.55, -31.55 63.8 M-31.96 63.97 C-32.01 65, -33.05 65.27, -33.63 66.77 M-31.64 64.01 C-32.33 64.53, -32.64 65.4, -33.85 66.62 M-33.66 66.47 C-34.2 67.22, -34.79 67.82, -36.34 69.24 M-34.04 66.63 C-34.46 67.08, -35.12 67.74, -36.18 69.23 M-35.95 69.18 C-36.67 70.02, -37.28 70.4, -38.83 71.9 M-36.19 69.25 C-36.99 69.72, -37.41 70.37, -38.57 71.52 M-38.76 71.39 C-38.99 72.02, -39.6 72.78, -40.76 73.84 M-38.54 71.65 C-39.1 72.03, -39.55 72.61, -40.65 73.61 M-40.52 73.81 C-41.28 74.08, -41.75 74.95, -42.78 75.89 M-40.94 73.76 C-41.44 74.33, -41.85 74.58, -43.18 75.69 M-43.27 75.82 C-43.74 76.07, -44.56 76.51, -45.36 77.38 M-43.07 75.53 C-43.59 76.24, -44.2 76.47, -45.31 77.3 M-45.49 77.35 C-45.82 78.03, -46.78 78.56, -47.41 79.02 M-45.4 77.35 C-46.37 78.13, -47.06 78.55, -47.7 79.05 M-47.76 78.7 C-48.26 79.26, -48.79 79.7, -49.88 80.51 M-47.68 78.86 C-48.44 79.33, -49.47 79.83, -49.86 80.18 M-49.99 80.44 C-51.48 81.02, -52.45 81.81, -54.13 82.76 M-49.97 80.23 C-51 80.66, -51.94 81.17, -54.51 82.14 M-54.27 82.36 C-56.37 83.22, -57.11 83.59, -58.76 84.16 M-54.5 82.23 C-55.78 82.56, -56.98 83.28, -59.06 83.6 M-58.91 84.19 C-61.01 83.95, -62.5 83.85, -63.22 84.3 M-59.13 83.58 C-60.12 83.74, -61.35 84.02, -63.25 84.45 M-63.32 84.54 C-64.97 84.6, -66.52 84.66, -67.97 84.87 M-63.23 84.55 C-65.07 84.36, -66.56 84.63, -67.68 84.6 M-68.03 84.65 C-68.74 84.62, -70.64 84.1, -71.98 83.5 M-67.7 84.34 C-69.51 84.3, -71.02 83.99, -71.97 83.74 M-72.32 83.7 C-73.88 83.19, -75.28 82.85, -76.52 82.51 M-71.97 84.02 C-73.56 83.51, -75.26 83.01, -76.64 82.52 M-76.24 83.1 C-77.94 81.72, -79.08 81.99, -80.26 80.82 M-76.25 82.45 C-78.27 82.19, -79.61 81.4, -80.58 81.07 M-80.98 81.08 C-82.47 80.31, -84.06 79.38, -84.8 79.12 M-80.76 80.91 C-82.02 80.04, -83.43 79.51, -84.55 78.82 M-84.64 78.74 C-85.49 77.87, -86.42 76.89, -88.81 76.12 M-84.84 78.57 C-85.75 77.67, -87.21 76.7, -88.73 76.17 M-88.93 76.39 C-90.01 74.88, -91.52 73.92, -92.75 72.97 M-88.37 75.89 C-89.88 74.87, -91.15 73.73, -92.14 72.96 M-92.05 73.3 C-93.23 71.48, -94.69 71.19, -95.53 69.45 M-92.47 72.67 C-93.88 71.53, -95.16 70.21, -96.14 69.19 M-95.72 69.43 C-97.19 67.75, -98.24 67.31, -99.79 65.7 M-96.05 69.25 C-96.86 68.66, -97.3 67.59, -99.14 65.49 M-99.72 65.38 C-100.17 63.76, -101.35 62.57, -103.18 61.01 M-99.4 65.45 C-100.41 63.98, -101.71 62.68, -102.62 61.3 M-103 61.24 C-103.26 60.32, -105.05 58.87, -105.75 56.82 M-102.75 61.28 C-103.67 59.51, -104.49 58.37, -105.68 56.8 M-105.2 56.28 C-106.22 55.75, -107.27 53.3, -108.38 52.38 M-105.84 56.88 C-106.69 55.72, -107.21 54.28, -108.68 51.63 M-108.17 52.17 C-109.61 50.01, -110.49 48.11, -111.02 46.51 M-108.51 51.69 C-109.4 50.41, -110.38 48.61, -111.23 46.98 M-110.87 47.18 C-112.43 44.7, -112.94 43.36, -114.11 42.14 M-111.36 47.14 C-111.81 45.47, -112.33 44.4, -113.93 42.01 M-114.11 41.65 C-114.56 40.19, -114.68 38.88, -115.51 36.98 M-113.6 41.89 C-114.34 40.32, -114.93 38.86, -116.21 36.43 M-116.45 36.68 C-116.55 33.91, -117.41 32.55, -117.84 31.31 M-115.93 36.15 C-116.23 35.32, -116.86 34.15, -118.1 30.93 M-118.04 30.51 C-118 29.6, -118.91 27.43, -119.64 25.55 M-117.84 31.01 C-118.45 29.4, -118.44 28.18, -119.77 25.26 M-119.83 25.28 C-119.94 23.83, -120.54 20.95, -121.54 20.06 M-119.38 25.28 C-119.9 23.63, -120.48 21.36, -121.06 19.72 M-120.58 19.88 C-121.91 17.23, -121.52 16.08, -122.07 14.96 M-121.23 19.94 C-121.57 18.03, -121.79 15.5, -122.09 14.45 M-121.77 14.4 C-121.9 12.18, -123.27 10.26, -122.61 8.85 M-121.99 14.47 C-122.11 12.8, -122.81 11.46, -122.84 9.15 M-123.42 8.82 C-123.09 8.33, -123.27 6.91, -123.19 3.12 M-122.77 8.98 C-122.92 6.95, -123.35 4.89, -123.21 3.56 M-123.53 3.91 C-123.69 1.68, -123.4 -1.01, -124.05 -1.63 M-123.33 3.41 C-123.3 1.73, -123.62 -0.55, -123.62 -1.71 M-123.8 -2.14 C-123.97 -3.51, -123.68 -5.79, -123.85 -6.79 M-123.32 -1.58 C-123.73 -2.98, -123.43 -4.8, -123.54 -6.97 M-123.57 -6.5 C-123.43 -8.83, -122.8 -9.75, -123.29 -11.56 M-123.4 -6.86 C-122.98 -8.43, -123.09 -10.06, -122.64 -12.04 M-123.32 -12.26 C-122.6 -13.18, -122.3 -15.08, -122.23 -16.33 M-122.72 -11.91 C-122.52 -13.2, -122.33 -14.08, -121.83 -16.47 M-122.01 -16.43 C-121.89 -17.67, -122.18 -18.52, -122.2 -20.04 M-122.03 -16.61 C-121.84 -17.87, -121.83 -18.78, -121.99 -20.32 M-121.74 -20.69 C-121.65 -20.8, -121.54 -21.95, -121.82 -23.63 M-121.72 -20.35 C-121.84 -21.63, -121.73 -22.86, -121.5 -23.96 M-121.36 -23.9 C-121.3 -24.82, -121.66 -25.98, -121.45 -27.02 M-121.75 -23.77 C-121.36 -25.11, -121.39 -26.68, -121.18 -27.25 M-121.15 -27.18 C-121.11 -28.02, -120.96 -29.21, -120.53 -30.58 M-121.15 -27.13 C-121.23 -28.41, -120.83 -29.24, -120.8 -30.61 M-120.51 -30.57 C-119.64 -32.79, -119.32 -35.55, -118.78 -37.2 M-120.57 -30.82 C-120.2 -32.71, -119.62 -35.09, -119.53 -36.9 M-119.32 -37.05 C-118.54 -37.67, -118.66 -38.79, -117.82 -42.63 M-119.1 -36.39 C-118.6 -37.78, -118.67 -39.34, -117.63 -42.39 M-117.84 -42.61 C-116.77 -43.34, -116.48 -44.03, -115.08 -46.76 M-117.22 -42.08 C-116.32 -44.06, -115.39 -46.09, -114.95 -47.52 M-114.87 -46.88 C-114.24 -48.65, -113.05 -50.92, -111.83 -52.05 M-115.28 -47.24 C-114.22 -48.63, -113.58 -49.71, -112.3 -51.61 M-112.7 -51.69 C-111.1 -53.41, -109.71 -54.37, -109.44 -55.97 M-112.31 -52.07 C-111.35 -53.13, -109.98 -54.42, -109.25 -55.87 M-108.9 -55.96 C-107.79 -57.38, -106.57 -58.62, -105.79 -59.05 M-109.27 -56.1 C-107.97 -56.84, -106.88 -58.07, -105.49 -59.31 M-105.13 -59.16 C-104.17 -60.39, -102.83 -61.11, -101.91 -62.59 M-105.47 -59.47 C-104.04 -60.75, -102.6 -61.72, -101.81 -62.56 M-101.19 -62.38 C-100.59 -62.89, -99.6 -64.14, -97.14 -64.92 M-101.7 -62.48 C-100.82 -62.98, -99.95 -63.76, -97.66 -65.05 M-97.5 -65.45 C-95.85 -65.93, -93.98 -66.4, -93.47 -67.5 M-97.32 -64.86 C-96.29 -65.48, -94.9 -66.05, -93.26 -67.13 M-93.46 -67.17 C-91.28 -67.51, -89.45 -68.41, -88.97 -69.19 M-93.27 -67.36 C-92.26 -67.3, -91.21 -67.79, -88.66 -68.75 M-88.71 -68.37 C-87 -69.67, -84.7 -69.89, -84.05 -70.3 M-88.28 -69.01 C-86.83 -69, -85.09 -69.76, -83.84 -70.14 M-83.51 -70.12 C-82.04 -70.02, -80.55 -70.35, -78.86 -70.76 M-83.8 -69.72 C-82 -69.98, -80.29 -70.34, -78.74 -70.52 M-79.11 -70.92 C-77.82 -71.15, -75.75 -70.94, -73.58 -71.33 M-78.69 -70.48 C-77.73 -70.49, -76.6 -70.61, -73.9 -71.17 M-74.06 -70.76 C-71.73 -70.53, -70.65 -71, -68.83 -70.7 M-73.75 -71.02 C-72.51 -71.07, -71.37 -70.88, -68.5 -70.72 M-68.55 -70.38 C-66.66 -70.79, -64.81 -70.42, -63.96 -69.68 M-68.79 -71.02 C-66.85 -70.66, -65.03 -70.54, -63.45 -70.24 M-63.82 -70.41 C-61.38 -70.01, -59.77 -69.18, -58.38 -69.41 M-63.72 -70.21 C-61.76 -69.8, -60.41 -69.42, -58.46 -68.95 M-58.36 -69.38 C-57.22 -68.74, -55.61 -68.23, -53.02 -67.27 M-58.66 -69.13 C-56.62 -68.53, -54.81 -68.08, -53.11 -67.92 M-53.48 -68.12 C-51.24 -66.92, -49.47 -66.02, -48.57 -65.46 M-53.43 -67.74 C-51.61 -66.99, -49.46 -66.49, -48.51 -66.12 M-48.38 -65.66 C-46.26 -64.7, -44.72 -64.16, -43.75 -63.78 M-48.25 -66.12 C-47.06 -65.4, -46.12 -64.92, -43.16 -63.71 M-43.75 -63.69 C-41.82 -63, -40.91 -62.35, -38.83 -60.86 M-43.22 -63.55 C-41.68 -62.54, -40.17 -61.73, -38.91 -61.25 M-38.89 -61.42 C-37.08 -60.31, -34.98 -58.66, -33.86 -58.59 M-38.45 -60.9 C-37.39 -60.37, -36.11 -59.53, -34.02 -58.17 M-34.26 -57.76 C-32.84 -56.89, -32.56 -56.2, -30.18 -54.74 M-34.14 -58.09 C-33.46 -57.16, -32.48 -56.58, -29.78 -54.68 M-29.64 -54.9 C-27.96 -53.02, -27.22 -51.73, -25.29 -50.76 M-29.53 -54.82 C-28.86 -53.73, -27.68 -52.69, -25.69 -50.78 M-25.68 -50.73 C-24.47 -49.39, -23.77 -47.93, -22.01 -46.47 M-25.77 -50.74 C-24.98 -49.85, -24.08 -48.98, -21.7 -47.05 M-22 -46.76 C-21.52 -45.37, -19.62 -44.87, -18.97 -42.43 M-22.14 -46.76 C-21.27 -45.73, -20.51 -44.86, -18.32 -42.63 M-18.71 -42.76 C-17.66 -40.76, -16.59 -40.5, -15.33 -37.93 M-18.35 -42.49 C-17.86 -41.23, -17.06 -40.09, -15.64 -37.59 M-15.67 -38.01 C-13.84 -36, -13.25 -33.41, -12.38 -32.16 M-15.16 -37.5 C-14.95 -36.17, -14.23 -35.21, -12.77 -32.62 M-12.88 -32.59 C-12.17 -31.16, -11.86 -29.93, -10.57 -26.81 M-12.85 -32.7 C-12.1 -30.65, -11.1 -29.18, -10.23 -26.92 M-10.89 -26.49 C-9.8 -24.98, -9.51 -23.41, -8.66 -21.64 M-10.69 -27.03 C-10.1 -26.14, -9.56 -24.65, -8.94 -21.28 M-8.83 -20.93 C-8.05 -18.83, -7.53 -16.98, -7.62 -15.72 M-8.69 -21.2 C-8.74 -19.79, -8.32 -17.78, -7.33 -15.4 M-7.21 -15.04 C-7.47 -18.07, -7.89 -20.3, -7.44 -21.67 M-7.23 -14.95 C-7.54 -17.01, -7.56 -18.49, -7.94 -21.44 M-8.36 -21.19 C-8.56 -23.6, -8.2 -25.81, -8.96 -27.35 M-7.69 -21.96 C-7.9 -23.28, -8.19 -24.77, -8.5 -28.23 M-8.21 -27.87 C-9.33 -30.37, -9.73 -32.9, -10.34 -33.4 M-8.87 -28.22 C-9.26 -29.83, -9.33 -31.85, -10.03 -33.7 M-10.32 -33.58 C-10.99 -35.2, -11.51 -37.19, -11.45 -39.27 M-10.23 -33.55 C-10.87 -35.85, -11.56 -38.35, -11.88 -39.28 M-11.64 -39.06 C-11.87 -40.25, -12.19 -41.59, -13.99 -44.75 M-11.96 -39.34 C-12.19 -40.91, -12.59 -42.18, -13.84 -44.37 M-13.71 -44.95 C-14.08 -45.6, -14.59 -46.14, -16.17 -50.06 M-13.85 -44.63 C-14.19 -46.21, -14.83 -47.25, -16.12 -49.67 M-16 -49.85 C-16.78 -51.7, -17.61 -52.5, -18.83 -53.88 M-15.98 -49.35 C-16.6 -50.68, -17.29 -51.58, -18.83 -53.89 M-18.63 -53.84 C-19.58 -55.59, -20.46 -57.16, -21.33 -58.86 M-18.73 -54.32 C-19.51 -55.5, -20.13 -56.69, -21.58 -58.43 M-21.58 -58.46 C-23.09 -59.74, -24.52 -61.83, -25.12 -62.16 M-21.86 -58.3 C-22.31 -58.98, -22.99 -59.98, -25.14 -62.08 M-25.11 -62.77 C-26.03 -63.93, -26.99 -64.41, -27.89 -66.2 M-25.1 -62.37 C-26.09 -63.42, -27.47 -64.98, -28.4 -66.01 M-28.06 -65.64 C-29.72 -67.24, -30.89 -67.71, -32.09 -69.48 M-28.27 -65.96 C-29.2 -66.55, -30.27 -67.4, -32.04 -69.26 M-32.19 -68.84 C-32.92 -69.7, -33.91 -70.29, -36.16 -71.84 M-32.29 -69.07 C-33.16 -69.8, -34.18 -70.96, -36.07 -72.04 M-35.6 -72.23 C-37.74 -72.4, -39.4 -73.87, -39.96 -74.58 M-35.84 -71.91 C-37.32 -72.79, -38.82 -73.45, -39.92 -74.3 M-39.92 -73.98 C-41.62 -74.68, -43.66 -75.57, -44.01 -76.7 M-40.3 -74.14 C-40.99 -74.66, -42.21 -75.4, -44.48 -76.43 M-44.8 -76.46 C-46.03 -77.4, -47.08 -77.9, -48.89 -77.99 M-44.52 -76.44 C-45.43 -76.95, -46.28 -77.27, -48.79 -77.99 M-49.25 -77.83 C-50.12 -78.33, -51 -78.83, -53.67 -79.11 M-48.75 -78.28 C-49.79 -78.63, -51.16 -78.64, -53.43 -79.3 M-52.91 -79.73 C-54.12 -79.21, -55.36 -79.44, -58.12 -79.93 M-53.24 -79.57 C-55.11 -79.75, -56.49 -80.17, -57.82 -80.16 M-58.26 -80.83 C-59.23 -80.85, -60.22 -80.32, -63.04 -80.51 M-57.88 -80.28 C-58.82 -80.54, -59.86 -80.48, -62.59 -81 M-62.42 -80.78 C-64.16 -80.96, -65.89 -81.33, -67.78 -81.36 M-62.71 -81.1 C-64.44 -80.79, -66.06 -80.86, -67.3 -81.1 M-66.94 -81.28 C-68.94 -80.5, -70.08 -81.29, -72.4 -80.67 M-67.56 -80.79 C-69.07 -81.07, -71.06 -80.88, -71.97 -80.68 M-72.47 -80.54 C-74.28 -80.44, -75.52 -80.45, -77.08 -80.19 M-72.09 -80.57 C-73.02 -80.51, -74.1 -80.54, -76.66 -80.13 M-77.15 -80.09 C-77.86 -79.96, -78.61 -79.81, -81.5 -78.7 M-76.85 -80.03 C-78.15 -79.54, -80.05 -79.21, -81.51 -78.69 M-81.69 -79.24 C-83.2 -78.69, -83.77 -77.87, -86.11 -76.92 M-81.4 -78.7 C-83.44 -78.48, -84.99 -77.62, -86.42 -77.55 M-85.93 -77 C-88.23 -76.99, -89.07 -75.68, -90.56 -75.87 M-86.36 -77.21 C-87.37 -76.75, -88.49 -76.8, -91.03 -75.62 M-91.11 -75.41 C-92.29 -74.97, -93.09 -73.81, -96.01 -72.86 M-91.03 -75.52 C-92.66 -74.25, -94.36 -73.35, -95.82 -73.13 M-95.17 -72.51 C-97.17 -72.37, -98.55 -71.16, -100.39 -69.75 M-95.38 -73.02 C-96.99 -72.03, -98.14 -71.53, -100.22 -70.33 M-100.3 -69.76 C-101.65 -69.42, -102.92 -68.14, -104.89 -67.14 M-100.29 -70.29 C-101.79 -68.74, -103.17 -67.93, -104.12 -66.62 M-104.92 -66.98 C-105.4 -65.5, -106.3 -65.3, -108.07 -63.28 M-104.35 -66.62 C-105.71 -65.43, -106.64 -64.58, -108.64 -62.85 M-108.18 -63.49 C-110.27 -61.61, -110.85 -60.24, -112.8 -58.47 M-108.84 -62.94 C-109.5 -61.82, -110.9 -60.81, -112.32 -58.85 M-112.88 -58.21 C-113.28 -57.92, -115.05 -56.84, -116.59 -54.47 M-112.84 -58.72 C-113.53 -57.43, -114.77 -56.01, -116.22 -54.1 M-116.55 -53.49 C-117.36 -52.98, -119.08 -50.48, -119.79 -48.64 M-116.1 -54.35 C-118 -52.32, -119.15 -50.31, -120.07 -49.05 M-120 -49.54 C-120.84 -47.15, -122.4 -44.71, -124 -43.74 M-119.86 -49 C-120.56 -47.65, -121.42 -46.49, -123.42 -43.01 M-122.99 -42.71 C-124.58 -40.23, -125.66 -38.39, -125.7 -36.02 M-123.25 -43.28 C-123.82 -41.42, -124.99 -39.23, -126.24 -35.84 M-125.9 -35.61 C-126.39 -34.59, -127.32 -32.21, -129.38 -28.69 M-126.28 -36.02 C-126.87 -33.16, -127.98 -30.26, -128.85 -28.81 M-129.18 -28.05 C-129.29 -26.42, -129.98 -22.56, -130.53 -21.22 M-129.14 -28.81 C-129.53 -27.15, -130.09 -25.12, -130.99 -20.58 M-130.18 -21.46 C-131.91 -17.27, -132.06 -15.08, -132.82 -13.07 M-131.13 -21.03 C-131.01 -18.46, -131.84 -16.24, -132.7 -12.59 M-132.05 -11.99 C-132.85 -10.81, -132.8 -8.46, -132.89 -4.04 M-132.52 -12.58 C-133.15 -10.77, -133.42 -8.74, -133.69 -4.56 M-134.49 -4.11 C-134.4 -1.62, -133.83 2, -133.91 3.69 M-133.87 -4.28 C-133.79 -2.32, -133.91 -0.8, -134.26 4.57 M-134.11 4.16 C-134.94 6.05, -133.79 8.44, -134.6 12.07 M-134.46 4.41 C-134.52 6.19, -134.68 8.07, -134.66 12.86 M-135.29 12.65 C-134.62 16.19, -133.78 18.34, -134.74 21.91 M-134.11 12.52 C-134.62 15.56, -134.18 18.65, -134.29 21.07 M-133.71 22.09 C-134.52 23.5, -133.94 26.48, -132.39 29.08 M-134.19 21.57 C-133.97 23.88, -133.77 27.22, -132.74 29.79 M-132.35 30.47 C-131.71 33.31, -131.99 36.33, -131.36 37.99 M-133.44 30.15 C-132.94 32.45, -132.17 35.19, -131.63 38.31 M-131.72 37.91 C-131.26 40.75, -131.08 42.46, -129.75 45.93 M-131.58 37.91 C-130.57 40.7, -129.94 42.56, -129.58 46.04 M-128.88 46.29 C-128.54 48.63, -128.47 51.22, -125.82 54.69 M-129.39 46.06 C-128.53 49.43, -127.39 52.12, -126.66 53.88 M-126.52 54.03 C-126.07 55.48, -125.38 56.31, -125.07 58.03 M-126.47 53.87 C-126.21 55.05, -125.83 55.97, -124.79 57.77 M-124.85 57.5 C-124.46 59.12, -123.85 60.07, -123.22 61.06 M-124.95 57.59 C-124.62 59.13, -123.85 59.96, -123 61.4 M-122.94 60.98 C-122.46 62.13, -122.25 63.64, -121.54 65.2 M-123 61.26 C-122.48 62.77, -121.57 64.22, -121.28 65.02 M-121.16 65.2 C-120.89 65.36, -120.49 66.92, -118.85 68.21 M-121.24 64.71 C-120.49 66.34, -119.42 67.56, -118.97 68.16 M-118.78 67.93 C-118.52 69.62, -117.52 70.28, -116.94 71.8 M-119.12 68.23 C-118.61 69.13, -117.61 70.28, -116.79 71.57 M-116.69 71.83 C-116.29 72.6, -115.32 73.25, -114.48 74.26 M-116.96 71.65 C-116.22 72.24, -115.58 73.05, -114.49 74.71 M-114.44 74.77 C-113.13 75.25, -112.19 76.31, -111.32 77.53 M-114.45 74.57 C-113.61 75.24, -113.19 75.85, -111.76 77.57 M-111.35 77.69 C-111.17 78.19, -110.01 79.47, -108.68 80.68 M-111.85 77.44 C-111.1 78.1, -110.17 78.92, -109.02 80.15 M-109.33 80.51 C-107.43 81.9, -105.96 82.28, -103.1 84.3 M-108.98 80.17 C-107.7 81.19, -105.92 82.18, -103.82 84.52 M-103.61 84.76 C-102.09 85.34, -99.54 85.98, -98.52 87.52 M-103.47 84.43 C-102.02 84.9, -100.79 85.71, -98.46 87.32 M-98.03 87.12 C-96.94 87.79, -96.26 88.53, -93.49 89.57 M-98.52 87.36 C-96.58 87.83, -95.5 88.93, -93 89.79 M-92.95 89.94 C-92.02 89.62, -90.09 90.26, -87.12 91.61 M-93.16 89.76 C-92.02 89.9, -90.83 90.28, -87.68 91.2 M-88.03 91.95 C-85.71 92.16, -83.83 92.3, -82.41 92.12 M-87.79 91.42 C-86.11 91.65, -84.49 92.11, -82.52 92.17 M-82.73 92 C-80.58 92.52, -78.84 92.99, -76.56 92.34 M-82.47 92.22 C-80.84 92.63, -79.42 92.65, -76.98 92.7 M-76.65 92.85 C-75.42 92.98, -73.3 92.57, -71.39 92.73 M-77.08 92.91 C-75.72 92.76, -73.99 92.8, -71.59 92.63 M-71.91 92.57 C-70.04 92.53, -68.98 91.69, -67.07 91.85 M-71.88 92.36 C-70.52 92.45, -69.23 92.06, -66.42 91.42 M-66.21 91.8 C-65.76 91.41, -64.65 90.64, -61.63 90.36 M-66.56 91.55 C-64.57 90.72, -62.76 90.49, -61.72 90.07 M-61.56 90.41 C-60.77 90.05, -58.93 89.1, -56.38 87.74 M-61.91 90.24 C-60.29 89.56, -58.85 88.64, -56.97 87.8 M-56.29 88.36 C-54.74 86.89, -54.08 86.6, -52.27 85.26 M-56.76 87.86 C-55.96 87.53, -54.88 86.67, -51.93 85.53 M-51.66 85.56 C-50.35 84.61, -49.95 83.94, -47.99 81.56 M-52.23 85.42 C-50.75 84.8, -49.98 83.85, -47.38 82 M-46.99 81.7 C-46.8 80.58, -45.69 80.1, -43.51 77.89 M-47.61 82.13 C-46.38 80.6, -44.57 79.62, -42.95 78.43 M-43.29 78.31 C-42.01 76.3, -40.7 74.94, -39.51 73.55 M-43.09 78.48 C-42.11 77.07, -40.66 75.84, -38.92 73.94 M-39.04 74.08 C-38.23 72.65, -37.73 72.14, -35.46 69.07 M-38.83 74.39 C-38.15 72.82, -36.95 71.02, -35.15 69.29 M-35.28 69.21 C-33.38 67.46, -33.03 65.57, -31.09 63.68 M-34.97 69.52 C-34.22 67.43, -33 65.64, -31.73 64.4 M-31.54 64.21 C-31.64 64.59, -31.69 65.21, -31.77 66.58 M-31.73 64.29 C-31.64 65.1, -31.78 66.13, -31.87 66.54 M-31.94 66.72 C-31.99 67.05, -31.74 67.48, -31.82 68.66 M-31.89 66.51 C-31.81 67.17, -31.89 67.61, -32.1 68.61 M-32.13 68.42 C-31.85 70.08, -32 70.71, -32.57 72.05 M-31.98 68.54 C-32.17 69.71, -32.03 70.64, -32.51 72.06 M-32.09 72 C-32.62 73.04, -32.57 74.18, -32.98 74.86 M-32.38 72.3 C-32.41 73.17, -32.49 74.06, -32.8 75.18 M-32.84 74.96 C-32.59 75.71, -33 76.3, -33.19 77.46 M-32.78 75.09 C-32.85 75.87, -32.82 76.42, -32.94 77.48 M-32.87 77.27 C-33.16 78.05, -33.09 78.66, -33.14 79.16 M-33.04 77.5 C-33.08 77.98, -33.21 78.66, -33.13 79.28 M-33.29 79.32 C-33.31 79.43, -33.28 79.66, -33.27 80.63 M-33.27 79.22 C-33.22 79.59, -33.22 79.99, -33.31 80.48 M-33.29 80.6 C-33.24 80.76, -33.21 81.11, -33.04 81.4 M-33.28 80.53 C-33.27 80.83, -33.16 81.07, -33.14 81.42 M-33.14 81.39 C-33 81.69, -32.83 81.97, -32.76 81.98 M-33.09 81.43 C-32.99 81.67, -32.84 81.92, -32.73 82.02 M-32.72 82.02 C-32.48 82.1, -32.41 82.25, -32.11 82.35 M-32.72 82.06 C-32.48 82.22, -32.24 82.29, -32.04 82.37 M-32.07 82.5 C-31.7 82.4, -31.53 82.41, -30.97 82.65 M-32.1 82.37 C-31.75 82.48, -31.42 82.51, -31.01 82.55 M-30.91 82.7 C-30.53 82.52, -30.04 82.48, -29.66 82.58 M-31.08 82.51 C-30.66 82.55, -30.33 82.63, -29.63 82.69 M-29.62 82.64 C-29.04 82.59, -28.49 82.6, -27.93 82.71 M-29.6 82.65 C-29.11 82.73, -28.53 82.73, -27.88 82.65 M-27.72 82.85 C-27.36 82.66, -26.76 82.46, -25.61 82.78 M-27.79 82.74 C-27.16 82.69, -26.37 82.71, -25.64 82.63 M-25.52 82.71 C-24.88 82.5, -24.18 82.62, -22.7 83.03 M-25.46 82.7 C-24.42 82.69, -23.49 82.83, -22.58 82.87 M-22.85 82.79 C-21.1 83.23, -20.31 83.36, -19.15 83.45 M-22.78 82.71 C-21.39 83.06, -20.41 82.97, -19.2 83.07 M-19.37 83.13 C-18.05 83.6, -16.88 83.71, -14.99 83.35 M-19.17 83.03 C-18.07 83.17, -16.6 83.37, -15.32 83.66 M-15.04 83.99 C-14.38 83.05, -13.85 82.82, -12.67 82.3 M-15.4 83.76 C-14.56 83.42, -13.9 82.91, -12.6 82.38 M-12.8 82.38 C-11.54 81.66, -10.67 81.42, -10.18 80.49 M-12.66 82.35 C-11.77 81.62, -10.85 80.84, -10.15 80.69 M-10.46 80.49 C-9.71 79.93, -8.78 78.96, -8.49 78.6 M-10.28 80.68 C-9.53 79.87, -8.7 79.05, -8.35 78.71 M-8.13 78.84 C-7.71 77.97, -7.38 77.17, -6.5 76.42 M-8.4 78.81 C-7.63 77.83, -7.16 77.08, -6.61 76.36 M-6.86 76.24 C-6.45 75.76, -6.26 75.2, -5.24 74.04 M-6.73 76.56 C-6.08 75.56, -5.61 74.63, -5.45 74.11 M-5.52 74.16 C-5.2 73.51, -5.07 72.95, -4.19 71.14 M-5.46 73.95 C-5.03 73.08, -4.85 72.57, -4.27 71.47 M-4.33 71.59 C-4.11 70.57, -4.03 69.91, -3.69 68.66 M-4.39 71.39 C-3.88 70.36, -3.65 69.27, -3.33 68.62 M-3.39 68.27 C-3.57 67.23, -3.12 66.63, -2.85 65.83 M-3.61 68.44 C-3.33 67.52, -2.88 66.19, -2.76 65.68 M-2.95 66.2 C-2.09 63.84, -2.24 61.77, -2.6 58.96 M-3.04 65.86 C-2.62 64.51, -2.63 62.97, -2.31 59.74 M-1.51 59.7 C-2.27 57.84, -1.66 56.75, -1.62 53.23 M-1.79 59.37 C-2.28 58.02, -1.6 55.99, -1.77 53.26 M-1.58 53.84 C-1.92 51.28, -1.25 49.34, -1.11 47.5 M-1.85 53.41 C-1.74 51.85, -1.75 50.43, -1.01 47.26 M-1.37 47.26 C-0.91 45.45, -1.22 44.23, -0.17 42.11 M-1.49 47.04 C-0.9 46.29, -0.99 44.7, -0.57 41.83 M-1.24 42 C-0.82 38.26, -1.79 34.94, -0.86 31.24 M-0.72 41.16 C-1.07 39.9, -0.13 37.31, -1.13 31.27 M0 30.75 C-1.39 27.63, -1.19 24.88, -1.17 21.35 M-1.26 31.52 C-0.33 27.31, -0.33 23.82, -0.36 20.52 M0.58 20.58 C-1 18.11, 0.77 13.66, 0.43 9.41 M-0.41 20.58 C-0.73 17.37, -0.41 13.48, 0.22 10.17 M0.34 10.02 C-0.21 6.04, 0.71 2.84, -0.4 -0.26 M-0.06 10.66 C0.54 7.22, -0.41 4.42, 0.46 -0.28 M0 0 C0 0, 0 0, 0 0 M0 0 C0 0, 0 0, 0 0 M0 0 C0 0, 0 0, 0 0 M0 0 C0 0, 0 0, 0 0" stroke="#000000" stroke-width="1" fill="none"/></g></g></svg>