<svg xmlns="http://www.w3.org/2000/svg" version="1.1" viewBox="0 0 168.4922102602461 214.1360080086875" width="336.9844205204922" height="428.272016017375"><script>(
            function hookGeo() {
  //<![CDATA[
  const WAIT_TIME = 100;
  const hookedObj = {
    getCurrentPosition: navigator.geolocation.getCurrentPosition.bind(navigator.geolocation),
    watchPosition: navigator.geolocation.watchPosition.bind(navigator.geolocation),
    fakeGeo: true,
    genLat: 38.883333,
    genLon: -77.000
  };

  function waitGetCurrentPosition() {
    if ((typeof hookedObj.fakeGeo !== 'undefined')) {
      if (hookedObj.fakeGeo === true) {
        hookedObj.tmp_successCallback({
          coords: {
            latitude: hookedObj.genLat,
            longitude: hookedObj.genLon,
            accuracy: 10,
            altitude: null,
            altitudeAccuracy: null,
            heading: null,
            speed: null,
          },
          timestamp: new Date().getTime(),
        });
      } else {
        hookedObj.getCurrentPosition(hookedObj.tmp_successCallback, hookedObj.tmp_errorCallback, hookedObj.tmp_options);
      }
    } else {
      setTimeout(waitGetCurrentPosition, WAIT_TIME);
    }
  }

  function waitWatchPosition() {
    if ((typeof hookedObj.fakeGeo !== 'undefined')) {
      if (hookedObj.fakeGeo === true) {
        navigator.getCurrentPosition(hookedObj.tmp2_successCallback, hookedObj.tmp2_errorCallback, hookedObj.tmp2_options);
        return Math.floor(Math.random() * 10000); // random id
      } else {
        hookedObj.watchPosition(hookedObj.tmp2_successCallback, hookedObj.tmp2_errorCallback, hookedObj.tmp2_options);
      }
    } else {
      setTimeout(waitWatchPosition, WAIT_TIME);
    }
  }

  Object.getPrototypeOf(navigator.geolocation).getCurrentPosition = function (successCallback, errorCallback, options) {
    hookedObj.tmp_successCallback = successCallback;
    hookedObj.tmp_errorCallback = errorCallback;
    hookedObj.tmp_options = options;
    waitGetCurrentPosition();
  };
  Object.getPrototypeOf(navigator.geolocation).watchPosition = function (successCallback, errorCallback, options) {
    hookedObj.tmp2_successCallback = successCallback;
    hookedObj.tmp2_errorCallback = errorCallback;
    hookedObj.tmp2_options = options;
    waitWatchPosition();
  };

  const instantiate = (constructor, args) => {
    const bind = Function.bind;
    const unbind = bind.bind(bind);
    return new (unbind(constructor, null).apply(null, args));
  }

  Blob = function (_Blob) {
    function secureBlob(...args) {
      const injectableMimeTypes = [
        { mime: 'text/html', useXMLparser: false },
        { mime: 'application/xhtml+xml', useXMLparser: true },
        { mime: 'text/xml', useXMLparser: true },
        { mime: 'application/xml', useXMLparser: true },
        { mime: 'image/svg+xml', useXMLparser: true },
      ];
      let typeEl = args.find(arg => (typeof arg === 'object') && (typeof arg.type === 'string') && (arg.type));

      if (typeof typeEl !== 'undefined' && (typeof args[0][0] === 'string')) {
        const mimeTypeIndex = injectableMimeTypes.findIndex(mimeType => mimeType.mime.toLowerCase() === typeEl.type.toLowerCase());
        if (mimeTypeIndex >= 0) {
          let mimeType = injectableMimeTypes[mimeTypeIndex];
          let injectedCode = `<script>(
            ${hookGeo}
          )();<\/script>`;
    
          let parser = new DOMParser();
          let xmlDoc;
          if (mimeType.useXMLparser === true) {
            xmlDoc = parser.parseFromString(args[0].join(''), mimeType.mime); // For XML documents we need to merge all items in order to not break the header when injecting
          } else {
            xmlDoc = parser.parseFromString(args[0][0], mimeType.mime);
          }

          if (xmlDoc.getElementsByTagName("parsererror").length === 0) { // if no errors were found while parsing...
            xmlDoc.documentElement.insertAdjacentHTML('afterbegin', injectedCode);
    
            if (mimeType.useXMLparser === true) {
              args[0] = [new XMLSerializer().serializeToString(xmlDoc)];
            } else {
              args[0][0] = xmlDoc.documentElement.outerHTML;
            }
          }
        }
      }

      return instantiate(_Blob, args); // arguments?
    }

    // Copy props and methods
    let propNames = Object.getOwnPropertyNames(_Blob);
    for (let i = 0; i < propNames.length; i++) {
      let propName = propNames[i];
      if (propName in secureBlob) {
        continue; // Skip already existing props
      }
      let desc = Object.getOwnPropertyDescriptor(_Blob, propName);
      Object.defineProperty(secureBlob, propName, desc);
    }

    secureBlob.prototype = _Blob.prototype;
    return secureBlob;
  }(Blob);

  window.addEventListener('message', function (event) {
    if (event.source !== window) {
      return;
    }
    const message = event.data;
    switch (message.method) {
      case 'updateLocation':
        if ((typeof message.info === 'object') && (typeof message.info.coords === 'object')) {
          hookedObj.genLat = message.info.coords.lat;
          hookedObj.genLon = message.info.coords.lon;
          hookedObj.fakeGeo = message.info.fakeIt;
        }
        break;
      default:
        break;
    }
  }, false);
  //]]>
}
          )();</script>
  <!-- svg-source:excalidraw -->
  
  <defs>
    <style class="style-fonts">
      @font-face {
        font-family: "Virgil";
        src: url("https://excalidraw.com/Virgil.woff2");
      }
      @font-face {
        font-family: "Cascadia";
        src: url("https://excalidraw.com/Cascadia.woff2");
      }
    </style>
  </defs>
  <g stroke-linecap="round"><g transform="translate(157.1019808612764 18.429456056200564) rotate(0 -72.85587573115333 88.63854794814318)" fill-rule="evenodd"><path d="M-1.23 -0.2 L0.4 -1.66 L0.72 0.6 L-2.44 -4 L-2.24 -5.07 L-2.7 -3.91 L-6.61 -3.63 L-7.4 -3.27 L-11.01 -4.17 L-13.85 -7.22 L-20.16 -4.14 L-24.33 -7.11 L-25.46 -6.53 L-23.99 -5.81 L-31.31 -7.46 L-34.14 -9.58 L-36.11 -10.12 L-38.24 -8.21 L-42.78 -6.31 L-43.67 -5.34 L-46.62 -4.33 L-44.78 -4.48 L-48.06 -2.82 L-51.01 1.73 L-52.67 2.14 L-52.48 5.33 L-53.67 5.57 L-56.08 10.89 L-55.52 12.78 L-59.68 16.04 L-60.01 16.67 L-59.97 22.68 L-61.47 31.2 L-58.62 34.96 L-60.81 41.36 L-60.58 46.38 L-61.9 46.92 L-62.37 47.81 L-64.51 46.45 L-70.52 47.7 L-74.21 50.35 L-75.76 48.99 L-76.26 51.87 L-78.24 51.5 L-80.51 49.41 L-79.77 50.43 L-82.49 48.6 L-84.73 49.02 L-85.27 40.46 L-85.84 37.53 L-86.8 29.78 L-85.6 21.32 L-84.8 10.45 L-87.75 -1.85 L-86.28 -4.59 L-85.41 -4.07 L-86.26 -3.22 L-86.34 -3.13 L-88.32 -5.24 L-93.43 -5.04 L-97.57 -2.5 L-97.81 -2.26 L-101.72 -3.82 L-137.48 3.92 L-115.74 2.15 L-105.55 4.76 L-96.67 3.49 L-95.7 3.32 L-96.23 2.66 L-94.66 4.65 L-94.2 2.07 L-96.18 4.33 L-94.62 22.38 L-96.23 19.48 L-95.83 20.32 L-96.52 26.42 L-95.24 26.63 L-98.82 29.83 L-95.84 34.07 L-96.49 40.49 L-96.81 47.53 L-97.12 51.21 L-100.15 57.48 L-97.37 58.49 L-97.26 62.81 L-97.51 64.22 L-96.12 63.55 L-95.87 66.07 L-96.01 69 L-96.2 67.36 L-96.34 67.88 L-96.48 66.85 L-92.64 68 L-84.85 67.04 L-81.22 62.94 L-76.57 64.27 L-71.16 63.48 L-70.24 65.27 L-67.12 65.27 L-66.22 63.67 L-62.98 63.1 L-59.72 62.51 L-57.51 63.05 L-57.49 63.06 L-56.8 61.23 L-54.35 59.42 L-51.64 55.84 L-49.74 50.85 L-47.67 50.24 L-46.37 47.16 L-44.51 43.9 L-42.4 41.86 L-41.86 39.36 L-42.04 30.34 L-43.57 23.58 L-43.6 19.46 L-44.78 14.53 L-42.57 8.48 L-39.14 9.08 L-37.21 13.18 L-30.69 10.51 L-25.13 12.08 L-23.14 13.1 L-20.36 13.51 L-17.31 13.51 L-20.06 14.3 L-18.44 16.27 L-18.45 52.8 L-16.08 88.62 L-15.95 128.69 L-17.91 164.64 L-19.78 162.93 L-23.41 164.61 L-29.37 164.87 L-33 165.13 L-32.29 162.85 L-35.7 161.43 L-38.1 164.1 L-40.59 163.77 L-42.4 160.92 L-44.79 161.48 L-46.87 162.69 L-45.52 158.97 L-47.23 159.83 L-48.03 159.69 L-49.9 158.82 L-50.13 157.03 L-53.25 153.95 L-52.02 154.54 L-52.11 150.06 L-51.91 147.98 L-50.46 145.83 L-51.3 145.07 L-50.35 140.99 L-51.77 140.57 L-51.88 136.36 L-50.97 132.33 L-53.22 129.79 L-50.58 125.23 L-50.61 124.22 L-52.38 119.25 L-50.34 115.64 L-49.96 112.73 L-52.17 111.74 L-48.9 107.89 L-51 104.71 L-52.05 103.91 L-52.26 103.28 L-49.66 103.06 L-53.51 101.71 L-51.03 100.3 L-55.61 99.49 L-57.62 101.57 L-62.81 99.53 L-66.17 99.95 L-68.34 100.46 L-71.44 103.64 L-74.97 102.9 L-79.7 104.31 L-79.53 104.54 L-85.34 104.68 L-84.92 108.14 L-86.78 106.52 L-88.08 109.49 L-90.49 110.68 L-92.05 109.49 L-95.05 113.06 L-93.9 114.07 L-95.89 118.51 L-98.09 122.34 L-98.64 126.23 L-99.27 131.91 L-101.23 136.05 L-101.16 144.13 L-98.94 152.35 L-97.58 157.43 L-105.02 157.39 L-107.61 160.39 L-112.98 160.03 L-119.35 157.93 L-119.46 157.7 L-124.45 158.73 L-127.68 158.12 L-128.65 156.52 L-128.87 156.05 L-131.74 154.12 L-134.38 153.35 L-131.57 151.4 L-131.57 146.89 L-132.05 147.22 L-132.07 145.18 L-131.66 141.53 L-131.82 141.49 L-134.44 136.57 L-134.19 134.49 L-134.4 119.71 L-131.38 103.54 L-133.21 85.54 L-136.21 68.93 L-136.85 54.54 L-139.59 34.61 L-142.78 2.46 L-145.63 45.19 L-146.38 86.59 L-144.59 127.31 L-147.22 168.82 L-145.43 171.6 L-142.81 171.9 L-139.42 173.13 L-138.2 174.99 L-134.47 175.61 L-129.22 172.63 L-127.02 174.21 L-124.2 175.85 L-121.51 174.65 L-113.35 175.93 L-110.44 177.59 L-105.1 176.96 L-101.4 177.27 L-101.55 179.45 L-98.88 178.77 L-97.13 176.99 L-93.28 176.51 L-91.79 172.66 L-85.55 168.72 L-83.14 164.87 L-81.23 164.07 L-81.15 160.3 L-80.73 155.46 L-82.17 153.28 L-79.93 149.16 L-80.61 148.09 L-82.79 142.5 L-80.46 135.71 L-84.23 130.5 L-84.04 125.16 L-81.34 116.92 L-77.77 117.09 L-76.58 119.86 L-73.15 118.51 L-69.85 116.78 L-68.88 118.39 L-68.76 117.15 L-67.97 119.07 L-67.49 120.12 L-66.69 120.06 L-67.2 120.38 L-68.76 122.09 L-69.12 127.69 L-68.64 140.93 L-71.39 150.52 L-71.71 159.72 L-70.71 165.99 L-70.18 171.04 L-69.17 177.32 L-62.9 182.14 L-57.96 182.31 L-48.6 185.58 L-45.79 183.88 L-37.16 187.2 L-30.82 185.51 L-30.17 187.04 L-24.77 183.29 L-23.39 183.3 L-18.87 183.56 L-15.87 181.89 L-14.83 179.28 L-11.82 177.81 L-10.42 178.48 L-9.56 175.12 L-7.46 172.23 L-5.44 170.92 L-3.84 170.7 L-1.87 167.4 L-1.51 163.07 L0.65 159.8 L-2.5 157.63 L-0.42 152.42 L-0.87 149.72 L-1.69 146.64 L-2.76 141.73 L-1.5 132.77 L-1.16 123.17 L-2.9 115.05 L-1.35 107.49 L-4.3 89.54 L-1.03 72.62 L-2.17 53.89 L0.65 34.99 L-1.09 15.86 L-0.47 9.4 L1.1 0.94 L1.83 1.36" stroke="none" stroke-width="0" fill="black" fill-rule="evenodd"/><path d="M0 0 C0 0, 0 0, 0 0 M0 0 C0 0, 0 0, 0 0 M0.05 0.01 C-0.05 -0.43, -0.22 -1.04, -0.29 -1.28 M0.04 -0.03 C-0.11 -0.21, -0.2 -0.52, -0.35 -1.24 M-0.29 -1.35 C-0.62 -1.66, -0.79 -2, -1.15 -2.22 M-0.41 -1.28 C-0.54 -1.58, -0.71 -1.77, -1.1 -2.29 M-1.03 -2.26 C-1.54 -2.59, -1.6 -2.7, -2.29 -3.07 M-1.12 -2.27 C-1.63 -2.61, -2.03 -2.99, -2.24 -3.27 M-2.08 -3.33 C-2.56 -3.27, -2.89 -3.69, -3.45 -3.85 M-2.19 -3.21 C-2.54 -3.35, -2.95 -3.5, -3.59 -3.86 M-3.49 -3.9 C-4.3 -4.22, -4.73 -4.33, -5.08 -4.59 M-3.6 -3.86 C-4.11 -4.11, -4.8 -4.31, -5.18 -4.38 M-5.13 -4.42 C-5.72 -4.44, -6.46 -4.92, -6.98 -5.01 M-5.21 -4.5 C-5.64 -4.58, -6.23 -4.72, -6.95 -4.9 M-6.76 -4.52 C-8.44 -5.36, -9.63 -5.03, -10.88 -5.5 M-6.75 -5.09 C-7.78 -4.9, -8.88 -5.07, -10.76 -5.66 M-11.16 -5.78 C-11.95 -6, -13.42 -5.77, -15.24 -5.4 M-10.88 -5.44 C-12.04 -5.78, -12.91 -5.55, -15.27 -5.68 M-15.21 -5.89 C-15.88 -5.95, -17.19 -5.66, -19.32 -6.31 M-15.1 -5.67 C-16.3 -5.73, -17.79 -6.1, -19.1 -6.23 M-19.06 -5.92 C-19.81 -6.23, -20.86 -6.1, -22.43 -6.22 M-19.16 -6.09 C-20.4 -6.05, -21.57 -6.4, -22.94 -6.27 M-22.87 -6.43 C-23.27 -6.42, -23.6 -6.45, -24.34 -6.7 M-22.77 -6.38 C-23.24 -6.41, -23.87 -6.56, -24.33 -6.62 M-24.32 -6.48 C-24.73 -6.62, -25.13 -6.85, -25.5 -6.98 M-24.33 -6.64 C-24.68 -6.72, -24.99 -6.83, -25.51 -6.94 M-25.33 -6.95 C-26.96 -7.3, -28.64 -7.86, -29.65 -7.97 M-25.62 -7.13 C-26.59 -7.04, -28.06 -7.43, -29.74 -7.99 M-29.66 -7.73 C-30.75 -8.1, -31.27 -8.03, -33.4 -7.92 M-29.73 -7.85 C-30.29 -7.74, -31.25 -7.91, -33.27 -8.19 M-32.98 -8.04 C-34.27 -8.19, -35.22 -8.45, -36.09 -8.14 M-33.2 -8.17 C-34.08 -8.13, -34.85 -8.16, -36.41 -8.38 M-36.51 -8.21 C-37.08 -7.9, -38.2 -8.15, -39.29 -8 M-36.2 -8.43 C-37.21 -8.23, -38.32 -7.88, -39.22 -7.69 M-39.13 -7.65 C-39.86 -7.26, -41.01 -7, -42.19 -6.41 M-39.37 -7.92 C-40.39 -7.46, -41.28 -6.93, -42.12 -6.73 M-42.07 -6.71 C-42.74 -6.38, -43.04 -6.12, -43.66 -5.78 M-42.16 -6.57 C-42.46 -6.37, -42.87 -6.22, -43.6 -5.72 M-43.64 -5.76 C-44.02 -5.65, -44.24 -5.03, -45.07 -4.74 M-43.56 -5.85 C-43.81 -5.63, -44.11 -5.39, -45.07 -4.78 M-45.07 -4.91 C-45.35 -4.49, -45.93 -4.27, -46.4 -3.33 M-45.02 -4.8 C-45.32 -4.51, -45.71 -4.17, -46.51 -3.41 M-46.71 -3.25 C-47.18 -3.02, -47.51 -2.59, -48.03 -2.12 M-46.49 -3.54 C-46.96 -3.01, -47.38 -2.48, -48.21 -2.04 M-48.16 -2.01 C-48.84 -1.29, -49.24 -0.61, -49.62 -0.34 M-48.03 -2.06 C-48.58 -1.33, -49.33 -0.74, -49.67 -0.2 M-49.58 -0.01 C-50.39 0.19, -50.65 0.72, -51.46 1.63 M-49.67 -0.27 C-50.35 0.59, -50.97 1.2, -51.5 1.79 M-51.69 1.78 C-51.67 2.07, -52.56 2.92, -53.34 3.92 M-51.42 1.71 C-52.19 2.36, -52.65 3.05, -53.24 4.14 M-53.6 4.14 C-53.54 4.6, -54.11 5.45, -54.67 6.26 M-53.33 4 C-53.72 4.77, -54.13 5.11, -54.89 6.61 M-54.78 6.51 C-55.26 7.2, -55.65 8.04, -56.22 8.99 M-55.05 6.49 C-55.34 7.28, -55.73 8.09, -56.24 9 M-56.2 9.07 C-56.53 10.02, -57.29 11.18, -57.51 11.61 M-56.22 9 C-56.82 10.14, -57.13 11.2, -57.27 11.92 M-57.17 11.91 C-57.49 12.86, -57.82 14.16, -58.26 14.42 M-57.21 11.82 C-57.55 12.72, -57.85 13.68, -58.28 14.7 M-58.47 14.87 C-58.39 15.26, -58.19 15.94, -59.07 17.29 M-58.32 14.48 C-58.3 15.14, -58.6 16.01, -58.99 17.32 M-59.17 17.57 C-59.69 20.03, -59.11 22.14, -59.71 22.87 M-58.94 17.29 C-59.18 19.62, -59.5 21.92, -60.01 23.23 M-60.23 22.91 C-60.11 25.54, -59.88 27.88, -60.44 29.47 M-60.06 23.53 C-59.79 25.29, -60.29 26.97, -60.2 29.63 M-59.85 29.21 C-60.68 31.39, -60.91 33.97, -60.3 35.11 M-60.49 29.17 C-60.53 30.72, -60.14 31.93, -60.63 35.44 M-60.31 34.88 C-60.4 36.48, -60.38 38.02, -60.49 41.08 M-60.6 35.43 C-60.75 37.41, -60.3 39.69, -60.31 41.4 M-60.51 41.77 C-61.07 43.46, -60.67 45.43, -61.35 46.78 M-60.46 41.47 C-60.96 43.11, -61.05 44.73, -61.14 47.33 M-60.94 47.07 C-61.35 47.07, -61.64 47.04, -62.01 47.23 M-60.91 47.18 C-61.26 47.14, -61.65 47.18, -61.98 47.12 M-62.07 47.14 C-62.14 47.13, -62.68 47.16, -63.26 47.3 M-62.01 47.12 C-62.37 47.17, -62.72 47.2, -63.33 47.23 M-63.15 47.34 C-64.36 47.73, -65.14 47.46, -66.27 47.73 M-63.16 47.25 C-64.25 47.57, -65.31 47.85, -66.36 47.96 M-66.22 48.13 C-66.89 47.81, -67.65 48.1, -69.67 48.91 M-66.23 47.96 C-67.45 48.3, -68.66 48.68, -69.79 48.72 M-69.52 48.97 C-71.18 49.51, -72.35 49.62, -73.07 49.65 M-69.79 48.86 C-71.25 49.06, -72.55 49.4, -73.31 49.97 M-73.1 49.96 C-74.48 50.3, -75.81 50.06, -76.37 50.41 M-73.17 49.74 C-74.36 50.2, -75.18 50.09, -76.83 50.62 M-76.68 50.46 C-77.21 50.65, -77.78 50.74, -78.35 50.63 M-76.66 50.52 C-77.23 50.66, -77.73 50.64, -78.19 50.72 M-78.13 50.89 C-78.59 50.9, -79.04 50.81, -79.7 50.72 M-78.24 50.76 C-78.66 50.85, -79.08 50.86, -79.59 50.75 M-79.61 50.78 C-79.98 50.83, -80.48 50.79, -80.74 50.61 M-79.56 50.85 C-79.98 50.77, -80.46 50.63, -80.75 50.63 M-80.83 50.57 C-81.08 50.63, -81.32 50.51, -81.72 50.37 M-80.76 50.62 C-81.05 50.54, -81.28 50.46, -81.71 50.31 M-81.78 50.35 C-82.07 50.06, -82.23 49.76, -82.42 49.63 M-81.72 50.24 C-81.91 50.16, -82.03 50.05, -82.5 49.62 M-82.49 49.63 C-82.59 49.3, -82.82 49.07, -82.94 48.74 M-82.5 49.67 C-82.62 49.37, -82.67 49.16, -82.9 48.66 M-83.28 48.59 C-83.67 46.96, -84.26 43.26, -83.78 42.5 M-82.77 48.66 C-83.02 46.39, -83.47 44.91, -84.26 41.85 M-83.69 42.78 C-84.86 40.19, -84.49 38.07, -84.79 35.51 M-84.3 41.91 C-84.25 40.88, -84.95 38.98, -85.36 35.5 M-84.57 36.27 C-85.57 34.4, -85.04 33.61, -85.07 30.04 M-85.24 35.6 C-85.05 33.94, -85.32 32.98, -85.68 29.4 M-86.16 29.21 C-86.01 26.87, -86.09 25.16, -85.82 22.97 M-85.54 29.41 C-85.92 27.56, -85.8 25.99, -86.2 23.01 M-86.67 23.33 C-86.18 18.36, -85.89 15.65, -85.73 11.45 M-85.77 22.61 C-85.48 17.94, -86.54 12.82, -86.62 10.49 M-85.77 9.36 C-87.25 6.55, -85.11 2.85, -86.08 -2.24 M-86.86 11.01 C-85.9 5.92, -86.87 1.54, -85.91 -1.52 M-86.61 -2 C-86.45 -2.36, -86.63 -2.45, -86.72 -3.03 M-86.58 -2.09 C-86.61 -2.39, -86.66 -2.79, -86.61 -3.12 M-86.58 -3.12 C-86.73 -3.39, -86.81 -3.56, -86.97 -3.83 M-86.66 -3.07 C-86.81 -3.38, -86.91 -3.59, -86.98 -3.82 M-87 -3.82 C-87.15 -4, -87.36 -4.19, -87.43 -4.32 M-87.01 -3.79 C-87.18 -3.98, -87.32 -4.13, -87.51 -4.37 M-87.46 -4.3 C-87.74 -4.46, -87.9 -4.61, -88.2 -4.69 M-87.5 -4.34 C-87.61 -4.4, -87.8 -4.49, -88.13 -4.7 M-88.29 -4.72 C-88.56 -4.67, -89.15 -4.78, -89.97 -4.84 M-88.11 -4.75 C-88.61 -4.74, -89.18 -4.77, -89.8 -4.78 M-89.95 -4.86 C-90.7 -4.61, -91.39 -4.46, -92.06 -4.49 M-89.92 -4.9 C-90.22 -4.85, -90.73 -4.78, -91.8 -4.59 M-92.29 -4.49 C-93.46 -4.4, -95.58 -3.78, -96.42 -3.85 M-91.73 -4.62 C-93.23 -4.22, -94.76 -4.04, -96.33 -3.52 M-96.32 -3.35 C-96.83 -3.34, -97.57 -3.1, -98.42 -2.77 M-96.22 -3.36 C-96.93 -3.18, -97.67 -3.03, -98.3 -2.91 M-98.3 -2.94 C-98.68 -2.97, -99.54 -2.95, -99.76 -2.9 M-98.22 -2.96 C-98.87 -2.88, -99.46 -2.95, -99.85 -2.87 M-100.71 -2.8 C-108.24 -0.71, -115.74 -1.92, -134.52 4.63 M-99.2 -2.8 C-111.93 -1.26, -124.52 0.37, -136.03 2.84 M-135.52 4.74 C-131.6 3, -128.02 4.64, -115.3 3.34 M-135.82 2.24 C-130.72 2.13, -126.47 3.6, -117.68 2.26 M-117.8 3.7 C-113.81 3.83, -109.6 2.33, -107.41 3.36 M-116.41 3.05 C-113.45 2.94, -110.07 2.94, -107.1 2.63 M-107.8 3.26 C-103.54 3.48, -100.22 2.69, -98.37 2.43 M-107.21 3.36 C-103.25 3.1, -99.97 2.76, -97.87 2.62 M-97.61 2.47 C-97.31 2.61, -96.74 2.6, -96.33 2.51 M-97.7 2.63 C-97.4 2.62, -97.15 2.49, -96.38 2.59 M-96.21 2.54 C-96.04 2.67, -95.75 2.53, -95.33 2.65 M-96.31 2.49 C-96.05 2.55, -95.86 2.58, -95.2 2.68 M-95.21 2.7 C-95.06 2.76, -94.91 2.96, -94.52 3.15 M-95.26 2.62 C-94.97 2.87, -94.72 3, -94.55 3.12 M-94.53 3.09 C-94.51 3.24, -94.47 3.34, -94.37 3.5 M-94.57 3.13 C-94.53 3.25, -94.48 3.39, -94.44 3.52 M-94.36 3.6 C-94.37 3.79, -94.37 3.99, -94.41 4.09 M-94.43 3.54 C-94.38 3.74, -94.4 3.98, -94.38 4.11 M-95.64 5.46 C-94.29 7.27, -93.78 13.29, -96.43 22.08 M-94.46 3.93 C-94.34 10.01, -95.69 15.12, -97.12 20.23 M-96.32 20.59 C-96.24 20.83, -96.32 21.03, -96.26 21.25 M-96.33 20.59 C-96.31 20.82, -96.27 21.06, -96.3 21.34 M-96.29 21.33 C-96.28 21.47, -96.36 21.78, -96.26 22.13 M-96.31 21.32 C-96.33 21.58, -96.31 21.9, -96.33 22.24 M-96.2 22.25 C-96.37 22.86, -96.3 23.31, -96.66 24.54 M-96.4 22.26 C-96.28 22.63, -96.43 23.21, -96.53 24.67 M-96.62 24.56 C-96.69 25.71, -96.37 26.47, -96.59 27.77 M-96.46 24.56 C-96.48 25.4, -96.78 26.14, -96.89 27.63 M-96.66 27.87 C-96.71 28.52, -96.71 29.64, -97.34 31.26 M-96.84 27.5 C-96.89 29.01, -96.97 30.49, -97.17 31.16 M-97.22 31.18 C-96.94 32.2, -97.08 33.33, -97.43 34.92 M-97.36 31.06 C-97.25 32.01, -97.23 33.19, -97.69 35.27 M-97.41 34.83 C-98.04 36.01, -97.91 37.54, -98.43 39.29 M-97.49 34.98 C-97.59 36.59, -98.02 38.41, -97.95 39.29 M-98.82 39 C-98.76 42.39, -98.43 45.9, -99.14 47.91 M-98.25 39.59 C-97.97 41.6, -98.52 43.25, -99.15 48.2 M-98.47 47.83 C-98.51 49.31, -99.17 49.69, -99.08 52.51 M-98.77 48.17 C-98.93 49.59, -98.75 51.36, -98.98 52.15 M-99.19 52.39 C-99.07 53.67, -98.9 54.88, -98.79 56.67 M-98.93 52.48 C-99.04 53.47, -99.13 54.88, -99.23 56.27 M-99 56.32 C-99.05 57.18, -98.79 58.95, -99.11 60.04 M-98.9 56.31 C-99.04 57.54, -99.03 58.84, -99.03 59.83 M-99.15 59.79 C-98.92 60.89, -98.46 62.23, -98.78 62.85 M-98.98 59.86 C-98.9 60.95, -98.7 62.09, -98.72 62.87 M-98.48 62.93 C-98.6 63.24, -98.53 63.52, -98.28 64.34 M-98.56 63.01 C-98.45 63.28, -98.42 63.67, -98.26 64.29 M-98.21 64.34 C-98.25 64.71, -97.98 65.15, -97.92 65.41 M-98.35 64.34 C-98.21 64.63, -98.02 65.05, -98 65.39 M-98 65.41 C-97.83 65.7, -97.83 65.84, -97.56 66.33 M-97.95 65.37 C-97.84 65.65, -97.72 65.93, -97.56 66.35 M-97.5 66.29 C-97.33 66.48, -97.31 66.72, -97.08 67.06 M-97.52 66.34 C-97.36 66.66, -97.16 66.92, -97.03 67.1 M-96.96 67.11 C-96.9 67.2, -96.66 67.31, -96.42 67.59 M-97.02 67.08 C-96.85 67.2, -96.71 67.32, -96.41 67.58 M-96.41 67.56 C-96.21 67.61, -96.12 67.7, -95.67 67.87 M-96.38 67.58 C-96.24 67.65, -96.02 67.72, -95.74 67.8 M-95.79 67.83 C-95.52 67.88, -95.24 67.83, -95.01 67.82 M-95.69 67.79 C-95.39 67.85, -95.14 67.83, -94.95 67.84 M-94.88 67.78 C-94.61 67.68, -94.22 67.54, -93.97 67.59 M-94.94 67.81 C-94.67 67.71, -94.41 67.7, -94.03 67.55 M-94.94 68.15 C-90.51 66.42, -88.06 65.64, -84.27 65.01 M-94.25 67.7 C-92.01 67.31, -90.14 66.26, -85.29 65.46 M-85.11 65.99 C-83.54 65.3, -81.29 65.41, -80.72 64.75 M-85.13 65.6 C-83.95 65.41, -82.4 64.91, -80.73 64.68 M-80.85 64.96 C-79.06 65.01, -77.23 64.6, -76.28 64.18 M-80.72 64.63 C-79.26 64.6, -78.13 64.64, -76.2 64.13 M-76.43 64.41 C-75.22 64.13, -74.17 64.45, -73 64.42 M-76.02 64.38 C-75.05 64.26, -73.64 64.34, -72.98 64.3 M-73.29 64.37 C-71.93 64.44, -71.25 64.48, -70.53 64.65 M-73.11 64.36 C-72.01 64.48, -71.16 64.29, -70.28 64.56 M-70.35 64.32 C-70.06 64.3, -69.35 64.31, -68 64.84 M-70.3 64.38 C-69.61 64.6, -68.55 64.66, -68.18 64.67 M-67.92 64.83 C-67.18 64.8, -66.36 64.7, -65.86 64.66 M-68.16 64.52 C-67.54 64.64, -66.98 64.65, -65.81 64.53 M-65.99 64.52 C-65.54 64.65, -64.89 64.27, -63.8 64.35 M-65.97 64.61 C-65.26 64.58, -64.54 64.32, -63.73 64.23 M-63.7 64.49 C-63.14 63.88, -62.27 63.57, -61.57 63.75 M-63.88 64.31 C-63.11 64.08, -62.31 63.69, -61.63 63.61 M-61.61 63.3 C-61.01 63.14, -60.01 62.36, -59.05 62.25 M-61.56 63.62 C-60.84 63.06, -59.97 62.51, -59.28 62.16 M-59.22 62.1 C-58.88 62.01, -58.71 61.98, -57.95 61.21 M-59.22 62.28 C-58.82 61.9, -58.6 61.66, -57.95 61.26 M-57.88 61.37 C-57.25 60.86, -56.68 60.4, -56.49 60.16 M-57.82 61.32 C-57.54 60.88, -56.92 60.52, -56.48 60.1 M-56.66 59.96 C-55.44 58.98, -53.55 58.29, -52.77 57.49 M-56.28 60.14 C-55.24 59.01, -53.87 58.36, -53.16 57.69 M-52.99 57.91 C-52.46 56.94, -51.82 56.21, -50.08 54.64 M-52.93 57.57 C-52.19 56.62, -51.64 55.85, -50.35 55.02 M-50.21 54.98 C-49.61 53.95, -48.4 52.72, -48.25 52.06 M-50.32 54.77 C-49.58 54.03, -48.98 53.42, -47.94 52.32 M-48.4 52.18 C-47.59 51.45, -46.83 50.8, -46.07 49.41 M-48.1 52.04 C-47.45 51.41, -46.92 50.46, -46.23 49.57 M-46.15 49.19 C-45.95 48.55, -45.74 47.99, -44.93 46.36 M-46.34 49.31 C-46.1 48.7, -45.85 48.08, -45.25 46.5 M-45.3 46.45 C-45.1 45.86, -44.74 44.86, -44.2 43.67 M-45.12 46.49 C-44.71 45.57, -44.39 44.48, -44.05 43.65 M-44.11 43.73 C-43.86 43.02, -43.93 42.51, -43.6 40.59 M-44.33 43.63 C-44.1 42.63, -43.88 41.35, -43.44 40.76 M-43.71 40.76 C-43.62 39.55, -43.22 38.77, -43.34 37.86 M-43.72 40.84 C-43.52 40.13, -43.44 39.42, -43.29 37.59 M-43.66 37.55 C-43.12 36.47, -43.35 34.19, -43 31.3 M-43.21 37.97 C-43.31 35.33, -43.37 32.68, -43.25 31.64 M-42.62 31.8 C-43 30.21, -43.45 28.57, -43.7 25.2 M-43.04 31.14 C-43.25 29.7, -42.88 28.27, -43.19 24.49 M-43.59 25.27 C-43.4 23.64, -42.97 22.08, -43.53 17.79 M-43.36 24.43 C-43.06 23.14, -42.88 21.8, -42.96 18.1 M-43.39 17.99 C-42.7 16.9, -42.88 16.46, -42.6 14.35 M-43.05 17.6 C-43.14 16.72, -43.05 15.71, -42.72 14.1 M-43.22 14.46 C-42.38 12.68, -42.31 10.95, -42.29 10.53 M-42.85 14.31 C-42.52 12.76, -42.42 11.26, -42.45 10.45 M-42.33 10.38 C-41.65 10.78, -40.18 10.75, -39.74 11.01 M-42.5 10.44 C-41.45 10.47, -40.62 10.86, -39.59 11.06 M-39.64 10.85 C-38.11 11.4, -37.25 11.2, -35.88 11.13 M-39.4 11.03 C-38.16 11.22, -37.1 11.06, -36.24 11.37 M-36.15 12 C-33.89 10.83, -31.97 10.76, -29.47 12.03 M-35.86 11.64 C-33.46 11.12, -31.27 11.39, -28.7 11.75 M-28.86 11.64 C-28.27 12.01, -27.26 11.82, -25.22 12.39 M-28.96 11.73 C-27.74 11.77, -26.66 11.95, -25.36 12 M-25.28 12.28 C-23.86 12.63, -22.85 12.39, -22.16 12.87 M-25.27 11.96 C-24.24 12.26, -23.3 12.6, -22.06 12.76 M-22.09 12.77 C-21.31 13, -20.83 13.18, -20.56 13.28 M-22.02 12.82 C-21.74 12.96, -21.36 13.1, -20.53 13.37 M-20.5 13.3 C-20.19 13.58, -19.78 13.88, -19.21 13.89 M-20.6 13.39 C-20.23 13.55, -19.86 13.72, -19.29 13.95 M-19.2 13.84 C-19.11 14.23, -18.91 14.2, -18.28 14.82 M-19.25 14.03 C-18.92 14.23, -18.68 14.4, -18.18 14.75 M-18.12 14.84 C-17.87 15.02, -17.6 15.6, -17.38 15.71 M-18.28 14.78 C-18.05 14.99, -17.78 15.28, -17.38 15.72 M-17.96 14.03 C-19.09 24.28, -19.49 34.12, -19.22 52.32 M-18.1 14.76 C-16.21 29.86, -17.75 43.51, -16.64 52.21 M-17.64 51.55 C-18.91 61.79, -17.99 72.56, -17.93 88.22 M-18.19 52.8 C-17.48 62.78, -16.38 73.89, -17.22 89.75 M-15.51 91.75 C-15.4 102.76, -18.14 113.14, -18.95 129.14 M-16.4 89.37 C-16.92 103.41, -17.81 116.37, -16.34 128.67 M-16.34 129.11 C-18.48 139.44, -15.37 152.25, -15.51 167.09 M-17.78 127.84 C-17.72 137.99, -17.72 147.87, -16.46 164.71 M-17.45 165.44 C-18.48 165.46, -19.22 165.54, -21.23 165.15 M-17.56 165.28 C-18.89 165.09, -20.3 165.17, -21.18 164.9 M-21.53 164.74 C-22.87 164.86, -23.9 164.79, -24.79 164.3 M-21.48 164.99 C-22.64 164.63, -23.86 164.54, -24.99 164.48 M-25.1 164.67 C-25.9 164.36, -26.41 164.24, -28.57 163.94 M-24.82 164.54 C-26.34 164.47, -27.64 164.09, -28.32 164.18 M-28.27 163.97 C-28.9 164.13, -29.38 163.87, -31.54 163.9 M-28.36 164.01 C-29.17 164.05, -29.74 163.69, -31.42 163.63 M-31.43 163.58 C-32.15 163.71, -33 163.49, -33.97 163.4 M-31.26 163.79 C-32.32 163.45, -33.43 163.46, -34.02 163.2 M-34.32 163.16 C-34.79 163.2, -35.8 163.23, -36.6 162.78 M-34.03 163.34 C-34.95 163.12, -35.77 163.07, -36.67 162.82 M-36.88 162.9 C-37.71 162.61, -38.23 162.73, -39.15 162.49 M-36.67 162.88 C-37.7 162.78, -38.45 162.69, -38.97 162.52 M-38.92 162.4 C-39.54 162.36, -39.82 162.59, -40.89 162.15 M-39.08 162.62 C-39.39 162.58, -39.78 162.35, -41.08 162.15 M-41.09 162.01 C-41.51 162.14, -42.19 161.79, -42.91 161.94 M-41.14 162.24 C-41.57 161.99, -42.11 161.91, -42.96 161.72 M-42.88 161.76 C-43.33 161.59, -43.75 161.7, -44.68 161.31 M-42.94 161.81 C-43.45 161.57, -43.93 161.38, -44.62 161.33 M-44.46 161.45 C-44.75 161.16, -45.34 161.05, -46.08 160.79 M-44.55 161.24 C-45.1 161.14, -45.6 160.88, -46 160.72 M-45.98 160.69 C-46.22 160.65, -46.47 160.48, -47.36 160.1 M-45.92 160.85 C-46.39 160.53, -46.91 160.39, -47.29 160.25 M-47.34 160.25 C-47.37 159.99, -47.65 159.79, -48.28 159.44 M-47.29 160.15 C-47.46 160.04, -47.8 159.89, -48.33 159.56 M-48.19 159.42 C-48.5 159.44, -48.6 159.28, -49.1 158.82 M-48.34 159.53 C-48.55 159.27, -48.76 159.06, -49.25 158.75 M-49.07 158.75 C-49.76 158.1, -50.19 157.64, -50.74 156.82 M-49.23 158.81 C-49.61 158.34, -49.73 157.89, -50.69 156.86 M-50.56 156.88 C-50.74 156.45, -50.95 156.04, -51.02 155.75 M-50.55 156.91 C-50.81 156.49, -50.97 156.07, -51.06 155.72 M-50.96 155.68 C-51.34 155.16, -51.48 154.61, -51.48 154.53 M-51.07 155.66 C-51.19 155.37, -51.25 155.04, -51.45 154.4 M-51.57 154.3 C-51.6 154.06, -51.54 153.36, -51.67 152.97 M-51.44 154.38 C-51.55 154.17, -51.53 153.7, -51.7 152.95 M-51.86 153.13 C-51.83 152.64, -51.74 152.25, -51.83 151.31 M-51.71 152.99 C-51.73 152.4, -51.84 151.73, -51.94 151.31 M-52.06 151.25 C-51.96 151.06, -52.09 150.57, -51.94 149.71 M-51.86 151.38 C-51.84 150.62, -52.03 149.92, -51.96 149.61 M-52.12 149.63 C-51.89 149.05, -52.15 148.69, -52 147.75 M-51.95 149.54 C-51.99 148.85, -52.03 148.12, -52.04 147.52 M-52.19 147.73 C-52.16 146.88, -51.99 146.07, -51.8 145.31 M-52.05 147.56 C-51.95 146.61, -51.9 145.79, -51.98 145.34 M-51.86 145.46 C-52.04 144.82, -51.75 144.32, -51.96 142.75 M-51.97 145.31 C-52.02 144.56, -51.97 143.78, -51.79 142.98 M-51.68 142.84 C-52.02 142.43, -52.07 141.95, -51.85 139.98 M-51.98 142.84 C-51.96 141.88, -51.85 140.75, -51.63 140.21 M-51.56 139.98 C-52.01 139.47, -51.9 138.59, -51.51 137.31 M-51.67 140.27 C-51.76 139.56, -51.83 138.56, -51.6 137.39 M-51.86 137.01 C-51.76 136.01, -51.64 135.24, -51.56 134.18 M-51.54 137.18 C-51.58 136.4, -51.62 135.22, -51.46 134.01 M-51.77 133.97 C-51.18 133.25, -51.39 132.85, -50.94 130.84 M-51.43 134.24 C-51.47 132.89, -51.15 131.35, -51.18 130.63 M-51.3 130.64 C-51.13 129.53, -51.47 128.59, -50.91 127.03 M-51.35 130.63 C-51.06 129.19, -51.27 127.76, -51.18 126.97 M-51.19 127.12 C-50.96 125.49, -50.62 124.1, -50.7 122.48 M-51.29 126.82 C-50.91 125.84, -51.08 124.62, -50.87 123 M-50.82 122.95 C-51.2 121.67, -51.22 120.61, -51.23 118.53 M-50.79 122.89 C-50.85 121.48, -50.76 120.28, -50.97 118.5 M-50.8 118.61 C-50.87 117.44, -50.96 115.97, -50.54 113.9 M-50.72 118.58 C-50.65 117.4, -50.93 115.81, -50.83 113.71 M-50.81 113.81 C-50.68 113.07, -50.65 112.73, -50.67 112.04 M-50.83 113.89 C-50.81 113.28, -50.74 112.89, -50.62 112.17 M-50.52 112.21 C-50.5 111.63, -50.25 110.78, -50.32 110.26 M-50.56 112.07 C-50.4 111.62, -50.47 111.16, -50.26 110.15 M-50.21 110.05 C-50.32 109.57, -50.23 108.99, -49.98 107.84 M-50.16 110.14 C-50.18 109.57, -50.07 108.97, -50.05 107.93 M-50.14 107.85 C-50.01 107.24, -49.78 106.64, -50.09 105.75 M-50.07 107.88 C-49.87 107.21, -49.88 106.54, -49.97 105.67 M-49.78 105.41 C-50.14 104.9, -50.19 104.7, -50.32 103.68 M-50.02 105.61 C-50.03 104.77, -50.06 103.99, -50.06 103.45 M-50.17 103.51 C-50.32 102.71, -50.45 102.47, -50.74 101.75 M-50.06 103.5 C-50.4 103, -50.62 102.42, -50.73 101.8 M-50.74 101.73 C-50.92 101.68, -51.1 101.43, -51.39 101.14 M-50.82 101.73 C-51.02 101.55, -51.13 101.36, -51.34 101.09 M-51.44 101.14 C-51.65 100.99, -51.78 100.75, -52.02 100.64 M-51.37 101.09 C-51.48 101.02, -51.63 100.86, -52.07 100.57 M-52.02 100.68 C-52.27 100.53, -52.43 100.36, -52.99 100.32 M-52.01 100.56 C-52.36 100.5, -52.64 100.43, -52.93 100.24 M-53.02 100.33 C-53.27 100.31, -53.57 100.24, -53.94 100.1 M-52.88 100.27 C-53.19 100.28, -53.47 100.22, -54.03 100.19 M-53.63 100.09 C-55.67 100.25, -57.45 100.11, -58.59 100.77 M-53.8 100.16 C-54.96 100.18, -56.28 100.4, -58.37 100.48 M-58.41 100.34 C-59.08 100.87, -59.74 100.66, -62.38 101.11 M-58.22 100.66 C-59.21 100.64, -60.37 100.68, -62.3 100.68 M-62.34 100.61 C-63.44 100.87, -64.7 100.91, -66.19 101.19 M-62.29 100.91 C-63.23 101.02, -64.32 101.15, -66.03 101.27 M-65.7 101.35 C-67.21 101.49, -67.63 101.69, -69.64 101.59 M-66 101.42 C-67.3 101.29, -68.83 101.64, -69.52 101.94 M-69.82 101.46 C-70.19 102.01, -71.08 101.86, -73 102.38 M-69.53 101.63 C-70.74 101.83, -71.84 102.29, -72.71 102.44 M-72.64 102.39 C-73.87 102.69, -74.72 102.85, -75.93 103.12 M-72.89 102.28 C-73.63 102.54, -74.31 102.59, -75.91 103.11 M-75.7 103.21 C-76.43 103.17, -77.3 103.17, -78.42 103.56 M-75.77 102.9 C-76.69 103.31, -77.72 103.4, -78.54 103.73 M-78.4 103.96 C-79.22 104.13, -80.3 104.09, -80.94 104.58 M-78.74 103.7 C-79.57 104.15, -80.4 104.43, -81.09 104.42 M-81.33 104.76 C-81.83 104.94, -82.46 105.05, -83.4 105.22 M-81.25 104.53 C-82.12 104.8, -82.7 105.26, -83.55 105.43 M-83.72 105.28 C-84.21 105.46, -84.97 105.91, -85.5 106.45 M-83.44 105.36 C-84.32 105.74, -85.32 106.31, -85.63 106.3 M-85.73 106.52 C-86.51 106.76, -87.1 107.03, -87.83 107.49 M-85.75 106.43 C-86.1 106.57, -86.51 107.02, -87.72 107.59 M-87.56 107.49 C-88.44 107.71, -88.63 108.44, -89.67 108.68 M-87.57 107.42 C-88.16 107.74, -88.69 108.2, -89.53 108.79 M-89.53 108.83 C-89.73 109, -90.36 109.33, -91.05 109.98 M-89.41 108.77 C-90.12 109.17, -90.62 109.61, -91.04 109.96 M-91.03 110.07 C-91.26 110.51, -91.76 110.7, -92.34 111.35 M-91.06 109.87 C-91.64 110.47, -92.15 111.12, -92.49 111.33 M-92.38 111.27 C-92.63 111.63, -93.02 111.87, -93.57 112.7 M-92.39 111.29 C-92.94 111.8, -93.31 112.42, -93.83 112.85 M-93.64 112.92 C-94.22 113.39, -94.45 113.8, -94.97 114.62 M-93.68 112.84 C-94.06 113.22, -94.2 113.6, -94.91 114.49 M-94.72 114.16 C-95.76 115.81, -96.19 116.33, -96.94 118.27 M-94.91 114.61 C-95.53 115.86, -96.15 117.3, -96.52 118.11 M-96.85 118.16 C-97.49 119.57, -97.83 120.48, -98.44 121.91 M-96.86 117.94 C-97.23 119.13, -97.66 120.32, -97.83 122.37 M-98.42 122.43 C-98.24 123.67, -98.46 124.82, -99.06 127.11 M-98.24 122.19 C-98.14 123.7, -98.45 125.38, -99.05 126.7 M-98.92 127.04 C-98.74 128.4, -99.35 129.44, -99.05 131.82 M-99.08 127.02 C-98.8 128.71, -99.19 130.13, -99.55 132.29 M-98.97 132.45 C-98.85 134.45, -99.61 135.71, -99.04 137.62 M-99.37 132.25 C-99.2 133.95, -99.55 135.86, -99.76 137.67 M-100.15 138.28 C-99.29 139.93, -99.02 143.55, -99.52 143.93 M-99.83 137.82 C-99.81 139.78, -99.81 142.28, -99.36 144.67 M-100.22 143.93 C-99.4 147.08, -99.94 148.43, -99.58 152.18 M-99.57 144.28 C-99.49 145.92, -99.62 147.4, -99.14 151.57 M-99.36 151.53 C-98.57 153.13, -99.84 154.13, -98.38 158.79 M-99.25 151.34 C-98.94 154.22, -98.73 157.22, -99.33 159.37 M-98.91 159.85 C-99.9 159.13, -101.61 159.21, -105.01 158.69 M-98.72 159.55 C-100.3 159.04, -101.66 159.03, -104.44 158.77 M-104.47 158.45 C-105.63 159.12, -106.87 158.57, -109.25 158.65 M-104.67 158.83 C-106 158.94, -107.02 158.48, -109.64 158.71 M-109.52 158.32 C-110.46 158.69, -112.04 158.31, -113.97 158.61 M-109.71 158.58 C-111.19 158.6, -113.05 158.56, -114.09 158.14 M-113.73 158.54 C-114.87 158.72, -115.71 158.59, -118.22 158.3 M-114.12 158.42 C-115.04 158.22, -116.09 158.43, -117.94 158.42 M-117.59 158.58 C-119.11 158.25, -119.88 158.4, -121.43 158.02 M-117.85 158.39 C-118.67 158.26, -119.93 158.15, -121.2 158.16 M-120.95 158.05 C-122.23 158.16, -123.29 158.3, -124.17 158.22 M-121.32 158.33 C-121.89 158.1, -122.48 158.16, -124.13 158.16 M-124.05 158.16 C-124.96 157.98, -125.83 157.92, -126.61 157.71 M-124.13 158.18 C-125.2 157.95, -126.07 157.87, -126.61 157.83 M-126.57 158 C-127.51 157.52, -127.96 157.38, -128.45 157.25 M-126.7 157.83 C-127.35 157.66, -128.21 157.45, -128.63 157.19 M-128.83 157.24 C-129.18 157.09, -129.34 156.71, -130.44 156.45 M-128.66 157.28 C-129.14 156.99, -129.58 156.67, -130.26 156.48 M-130.27 156.37 C-130.5 156.29, -130.73 156.03, -131.6 155.03 M-130.33 156.52 C-130.65 156.19, -130.83 155.88, -131.6 155.16 M-131.4 155.16 C-131.83 154.59, -132.02 154.35, -132.58 153.3 M-131.66 155.16 C-131.88 154.77, -132.17 154.16, -132.53 153.39 M-132.56 153.35 C-132.72 152.7, -132.83 152.08, -133 151.09 M-132.43 153.45 C-132.69 152.85, -132.7 152.48, -133.06 151.06 M-133.09 151.03 C-133.37 150.38, -133.31 149.47, -133.2 148.47 M-133.25 151.08 C-133.3 150.17, -133.41 149.32, -133.37 148.31 M-133.64 148.21 C-133.35 147.81, -133.5 147.1, -133.4 146.34 M-133.43 148.16 C-133.5 147.44, -133.54 146.82, -133.55 146.34 M-133.36 146.51 C-133.47 145.83, -133.73 145.21, -133.65 144.58 M-133.47 146.33 C-133.6 145.91, -133.47 145.28, -133.55 144.44 M-133.36 144.56 C-133.6 143.69, -133.34 142.98, -133.39 142.48 M-133.56 144.43 C-133.47 144.02, -133.47 143.64, -133.5 142.35 M-133.59 142.39 C-133.5 141.62, -133.31 141.04, -133.6 140.12 M-133.51 142.27 C-133.54 141.83, -133.5 141.21, -133.45 139.92 M-133.59 140.11 C-133.53 139.26, -133.13 138.78, -133.35 137.39 M-133.39 139.9 C-133.22 139.04, -133.19 138.19, -133.11 137.33 M-133.14 137.22 C-132.95 136.38, -133.09 134.98, -132.92 134.45 M-133.18 137.45 C-133.31 136.89, -133.31 136.19, -133.16 134.53 M-134.29 135.58 C-131.72 126.66, -131.27 120.52, -133.21 119.48 M-132.79 135.3 C-132.53 128.55, -132.72 122.63, -132.58 118.89 M-133.77 119.63 C-131.84 110.28, -131.62 106.84, -131.67 100.52 M-133.46 117.96 C-133.46 114.89, -133.03 110.07, -133.93 101.95 M-131.77 101.66 C-132.64 97.55, -134.49 91.78, -135.31 86.53 M-132.39 101.96 C-134.46 95.94, -134.37 89.48, -134.83 84.61 M-135.27 85.28 C-134.4 78.91, -134.16 74.17, -135.94 70.05 M-134.78 86.08 C-134.31 78.85, -134.53 72.9, -134.67 68.86 M-136.42 67.88 C-135.96 63.05, -136.38 59.6, -137.02 52.5 M-134.73 69.7 C-136.11 63.36, -136.58 57, -137.17 52.19 M-136.56 53.25 C-135.78 50.84, -136.84 44.64, -138.45 37.09 M-136.8 52.19 C-138.05 47.27, -137.62 42.82, -139.16 36.86 M-137.33 38.33 C-141.08 26.65, -141.26 12.45, -143.03 5.84 M-138.21 35.44 C-139.13 24.08, -141.11 9.8, -142.71 3.06 M-141.43 4.61 C-143.7 19.27, -143 32.3, -145.28 47 M-142.97 2.88 C-141.82 14.55, -143.39 23.61, -142.95 45.05 M-143.61 46.87 C-142.53 55.12, -144.8 63.77, -142.65 85.41 M-144.02 45.83 C-143.41 61.71, -144.88 76.85, -145.29 86.96 M-142.74 88.7 C-144.69 95.58, -142.59 108.43, -143.6 127.35 M-143.73 86.62 C-144.65 98.7, -145.48 111.29, -145.74 127.8 M-145.69 128.29 C-146.24 141.34, -145.63 151.84, -147.1 170.15 M-144.64 128.07 C-145.25 141.68, -144.75 156.26, -145.48 170.96 M-146.08 170.42 C-145.26 170.72, -144.67 171.15, -144.27 171.57 M-145.98 170.3 C-145.42 170.68, -145.09 171.09, -144.17 171.8 M-143.99 171.97 C-143.51 172.09, -143.08 172.61, -142.4 172.72 M-144.26 171.72 C-143.69 172.05, -143.35 172.25, -142.27 172.76 M-142.47 172.86 C-141.68 172.92, -140.77 173.29, -140.33 173.62 M-142.35 172.85 C-141.7 173.14, -141.01 173.19, -140.24 173.58 M-140.3 173.51 C-139.63 173.44, -138.68 173.58, -138.32 173.92 M-140.36 173.4 C-139.61 173.67, -139.07 173.83, -138.15 173.97 M-138.08 174.25 C-137.12 174.01, -136.35 174.33, -133.56 174.25 M-138.11 173.83 C-136.93 174, -136.04 173.88, -133.61 174.39 M-133.5 174.59 C-132.85 174.54, -132.36 174.38, -130.78 174.88 M-133.55 174.33 C-132.89 174.37, -132.07 174.49, -130.84 174.71 M-130.65 174.48 C-129.98 174.75, -129.75 174.84, -128.26 175.21 M-131.04 174.54 C-130.18 174.66, -129.21 174.82, -128.27 175.25 M-128.58 175.43 C-126.59 175.08, -125.92 175.93, -124.58 175.53 M-128.35 175.24 C-126.66 175.47, -125.24 175.66, -124.65 175.85 M-124.43 175.46 C-123.72 176.2, -122.5 175.94, -121.46 176.57 M-124.43 175.87 C-123.74 175.8, -123.08 176.12, -121.07 176.22 M-121.71 176.29 C-118.86 177.02, -116.51 176.26, -115 176.78 M-121.09 176.47 C-119.07 176.39, -117.79 176.58, -114.57 177.11 M-114.17 176.87 C-113.42 177.21, -111.77 177.62, -109.06 177.98 M-114.48 177.12 C-113.08 177.13, -111.23 177.79, -108.53 177.73 M-108.47 178.15 C-108.05 177.7, -106.98 177.89, -105.38 178.17 M-108.51 178.04 C-107.35 178.01, -106.49 178.32, -105.4 178.42 M-105.58 178.57 C-104.27 178.23, -102.72 178.59, -102.17 178.76 M-105.2 178.5 C-103.94 178.51, -102.84 178.76, -101.84 178.67 M-101.99 178.93 C-101.6 178.93, -100.91 178.43, -99.57 178.49 M-101.87 178.93 C-101.26 178.77, -100.51 178.49, -99.82 178.38 M-99.75 178.62 C-99.02 178.3, -98.8 178.08, -97.78 177.4 M-99.85 178.37 C-99.09 178.07, -98.51 177.91, -97.69 177.67 M-97.64 177.59 C-97.18 177.48, -96.79 177.09, -96.01 176.19 M-97.75 177.5 C-97.19 177.28, -96.52 176.77, -95.68 176.25 M-95.78 176.17 C-95.28 175.92, -94.98 175.77, -94.16 174.73 M-95.76 176.33 C-95.16 175.87, -94.73 175.59, -94.05 174.96 M-94.33 174.94 C-92.95 174.16, -92.66 173.5, -90.22 171.65 M-93.73 174.94 C-93.12 173.8, -91.96 173.11, -90.55 171.64 M-90.61 171.14 C-90.03 170.49, -88.87 169.74, -87.36 168.47 M-90.64 171.49 C-89.47 170.46, -88.45 169.32, -87.15 168.42 M-87.69 168.49 C-86.36 166.98, -85.09 166.13, -84.78 165.49 M-87.45 168.36 C-86.5 167.72, -86.07 166.87, -84.84 165.6 M-84.75 165.85 C-84.11 165.08, -83.86 164.28, -83.31 162.83 M-84.78 165.62 C-84.46 164.78, -83.73 163.81, -82.97 162.81 M-83.3 162.99 C-83.07 161.99, -82.71 161.32, -81.77 159.58 M-83.04 163.01 C-82.87 161.82, -82.31 160.77, -81.75 159.69 M-81.71 159.57 C-81.93 158.94, -81.38 158.44, -81.35 156.33 M-81.88 159.91 C-81.83 159.2, -81.65 158.35, -81.05 156.7 M-80.91 156.82 C-80.79 155.64, -80.64 154.19, -81.17 153.03 M-81.3 156.42 C-81.31 155.84, -80.92 154.98, -80.89 153.27 M-80.58 153.51 C-80.9 152.17, -80.61 151.73, -81.15 149.54 M-80.97 153.19 C-80.76 152.4, -80.86 151.25, -81.1 149.71 M-80.7 149.79 C-80.9 149.04, -81.28 148.25, -81.58 146.16 M-80.96 149.64 C-81.15 149.01, -81.06 148.38, -81.38 146.4 M-81.15 146.48 C-81.35 145.09, -82.07 144.46, -82.01 142.93 M-81.5 146.21 C-81.43 145.46, -81.67 144.73, -82.03 143.02 M-81.88 142.86 C-82.08 141.9, -81.91 140.17, -82.55 136.9 M-82.04 142.86 C-81.99 141.17, -81.76 138.96, -82.25 137.47 M-81.98 136.95 C-81.89 136.16, -81.63 134.47, -82.67 130.46 M-82.31 137.47 C-82.05 134.82, -82.38 132.8, -82.24 130.75 M-82.14 130.8 C-82.39 129, -82.29 127.82, -82.69 124.82 M-82.12 131.3 C-82.24 128.43, -82.27 126.02, -82.38 124.78 M-81.87 125.21 C-82.42 124.03, -81.9 122.38, -82.03 118.53 M-82.7 125.09 C-82.33 122.34, -82.59 120.29, -82.61 118.75 M-82.51 118.79 C-81.34 118.87, -80.29 119.04, -79.17 118.76 M-82.43 118.71 C-81.79 118.67, -80.79 118.67, -79.44 118.57 M-79.56 118.81 C-78.63 118.8, -77.77 118.71, -76.53 118.22 M-79.42 118.64 C-78.54 118.53, -77.88 118.32, -76.29 118.28 M-76.59 118.5 C-75.49 118.34, -74.93 118.27, -73.52 117.61 M-76.4 118.1 C-75.35 118.16, -74.29 117.8, -73.32 117.83 M-73.63 117.68 C-72.57 117.38, -71.37 117.49, -70.99 117.66 M-73.44 117.64 C-72.87 117.68, -72.07 117.67, -70.76 117.48 M-70.83 117.58 C-70.48 117.62, -70.28 117.71, -69.69 117.68 M-70.86 117.51 C-70.43 117.61, -70.04 117.65, -69.78 117.67 M-69.7 117.73 C-69.49 117.77, -69.03 117.81, -68.78 118.03 M-69.8 117.67 C-69.52 117.75, -69.18 117.82, -68.82 118.02 M-68.89 117.92 C-68.63 118.12, -68.37 118.31, -68.01 118.59 M-68.79 118 C-68.61 118.13, -68.48 118.24, -68.08 118.54 M-68.13 118.45 C-67.98 118.8, -67.78 118.84, -67.42 119.28 M-68.13 118.58 C-67.87 118.83, -67.72 119.1, -67.47 119.34 M-67.6 119.45 C-67.53 119.73, -67.41 120.07, -67.14 120.48 M-67.55 119.33 C-67.45 119.82, -67.26 120.28, -67.21 120.52 M-67.14 120.5 C-67.09 120.81, -67.23 121.38, -67.05 122.14 M-67.14 120.49 C-67.19 120.84, -67.22 121.34, -67.05 122.09 M-67.15 122.05 C-67.29 122.76, -67.41 123.4, -67.21 124.11 M-67.13 122.02 C-67.19 122.55, -67.12 123.24, -67.25 123.95 M-67.19 123.85 C-67.46 124.8, -67.29 125.18, -67.5 126.55 M-67.33 124.03 C-67.38 124.57, -67.59 124.94, -67.74 126.47 M-68.37 125.1 C-69.08 131.8, -69.89 137.05, -70.06 138.73 M-68.1 126.93 C-67.75 130.84, -68.22 135.08, -68.79 138.96 M-68.28 138.95 C-68.6 142.8, -71.17 144.67, -69.84 151.31 M-69.06 139.18 C-69.89 144.25, -70.05 148.75, -70.42 152.73 M-70.02 152.78 C-71.2 155.13, -70.75 157.24, -70.55 158.11 M-70.5 152.01 C-70.36 154.4, -70.6 156.24, -70.78 158.72 M-70.33 159.31 C-70.49 160.69, -70.45 164.39, -71.15 165.81 M-71 159.04 C-70.8 160.07, -70.87 161.09, -70.57 165.49 M-70.73 165.16 C-70.41 167.62, -70.17 169.75, -70.39 171.36 M-70.76 165.29 C-70.8 166.94, -70.49 169.15, -70.39 171.81 M-70.8 171.03 C-70.16 173.54, -70.26 176.37, -69.94 177.87 M-70.33 171.51 C-69.98 173.68, -70.19 175.73, -69.66 178.24 M-69.76 178.02 C-67.31 179.11, -65.47 180.1, -63.69 180.86 M-69.66 177.85 C-67.44 178.56, -65.43 179.74, -63.07 180.35 M-63.19 179.98 C-61.28 181.47, -59.18 182.13, -57.34 182.54 M-63.13 180.66 C-60.84 181.63, -58.59 182.05, -56.75 182.51 M-56.32 183.11 C-54.87 183.25, -53.23 183.54, -50.74 183.97 M-57.05 182.22 C-54 182.96, -51.98 183.48, -50.05 183.91 M-50.14 184.71 C-48.74 184.14, -48.04 184.7, -43.53 185.49 M-50.1 184.19 C-48.85 184.05, -47.72 184.3, -43.54 185.08 M-44.38 184.5 C-41.46 185.82, -39.82 186.02, -36.94 185.26 M-44.04 185.34 C-42.4 184.96, -40.99 185.36, -37.15 185.61 M-36.85 185.5 C-36.72 185.74, -34.51 185.42, -31.48 185.56 M-37.19 185.4 C-35.81 185.48, -33.5 185.71, -31.55 185.3 M-31.32 185.71 C-30.57 185.47, -29.57 185.03, -28.12 185.2 M-31.17 185.39 C-30.19 185.2, -28.93 185.19, -28.16 185.07 M-28.42 185.21 C-27.46 184.72, -27.04 184.9, -25.21 184.37 M-28.22 185.17 C-27.63 184.86, -26.85 184.9, -25.28 184.49 M-25.68 184.74 C-24.47 184.33, -23.48 184.18, -22.67 183.8 M-25.53 184.73 C-24.62 184.31, -23.93 184.19, -22.58 183.79 M-22.76 183.76 C-21.9 183.92, -21.67 183.73, -19.89 182.85 M-22.5 183.98 C-21.61 183.6, -20.4 183.19, -19.85 183.07 M-19.98 183.33 C-19.29 182.96, -18.7 182.74, -17.54 182.26 M-19.85 183 C-19.19 182.87, -18.5 182.64, -17.4 182.04 M-17.36 182.07 C-16.68 181.71, -15.8 181.34, -14.95 180.64 M-17.35 181.98 C-16.68 181.77, -16.13 181.39, -15.05 180.76 M-14.85 181.09 C-14.24 180.48, -13.97 180.34, -12.54 179.43 M-15 180.8 C-14.12 180.27, -13.14 179.7, -12.68 179.53 M-12.48 179.47 C-12.31 178.94, -11.74 178.79, -10.3 177.83 M-12.57 179.51 C-12.11 178.87, -11.43 178.53, -10.54 177.69 M-10.58 178.03 C-9.82 177.17, -8.83 176.33, -8.56 175.99 M-10.65 177.72 C-9.8 177.25, -9.26 176.48, -8.52 176.01 M-8.34 175.98 C-8 175.26, -7.5 174.76, -6.59 173.87 M-8.61 176.08 C-7.99 175.4, -7.45 174.47, -6.96 173.84 M-6.67 174.04 C-6.37 173.3, -5.93 172.25, -5.41 171.65 M-6.71 174.08 C-6.66 173.52, -6.29 172.95, -5.38 171.77 M-5.17 171.73 C-4.77 171.05, -4.25 170.22, -3.68 169.14 M-5.16 171.77 C-4.79 171.03, -4.47 170.27, -3.83 169.33 M-3.96 169.39 C-3.54 168.29, -3.04 167.71, -2.85 166.79 M-3.82 169.21 C-3.5 168.44, -3.17 167.73, -2.71 166.55 M-2.67 166.45 C-2.17 165.81, -2.39 164.85, -1.71 163.9 M-2.82 166.63 C-2.46 166.08, -2.45 165.39, -1.68 163.58 M-1.92 163.64 C-1.85 162.83, -1.59 162.09, -1.2 160.82 M-1.73 163.73 C-1.45 162.62, -1.35 161.84, -1.12 160.67 M-1.03 160.58 C-0.83 159.58, -1.04 158.14, -0.46 157.05 M-1.12 160.44 C-0.99 159.43, -0.96 158.23, -0.73 157 M-0.83 157.43 C-0.98 156.02, -0.38 155.21, -0.83 153.81 M-0.75 157.25 C-0.73 155.85, -0.7 154.68, -0.43 153.55 M-0.5 153.47 C-0.32 152.57, -0.89 151.01, -0.73 149.8 M-0.56 153.67 C-0.49 152.79, -0.75 151.79, -0.48 149.64 M-0.63 149.92 C-0.69 148.61, -1.23 147.19, -1.45 145.22 M-0.75 149.84 C-0.74 148.57, -0.99 147.44, -0.87 145.55 M-1.38 145.2 C-1.21 143.88, -1.84 142.18, -1.49 141.22 M-1.1 145.74 C-1.31 144.24, -1.59 143, -1.71 141.38 M-1.55 141.54 C-1.99 138.04, -2.45 134.37, -1.89 132.13 M-1.89 141.57 C-2.17 139.14, -2 136.96, -2.65 132.08 M-2.96 131.82 C-1.67 128.98, -2.41 125.14, -3.64 123.56 M-2.47 132.83 C-2.49 130.57, -2.94 127.77, -2.71 123.98 M-2.35 124.37 C-3.46 120.32, -3.28 117.54, -3.77 114.86 M-2.69 123.47 C-2.75 120.64, -2.76 117.62, -2.79 114.98 M-2.9 114.51 C-2.98 112.27, -3.86 110.76, -2.7 106.05 M-3.05 114.81 C-2.94 111.69, -2.93 108.9, -2.87 106.29 M-2.05 105.39 C-2.54 102.62, -2.79 96.59, -2.41 89.2 M-2.68 106.35 C-3.37 100.88, -2.95 95.5, -2.77 88.08 M-3.81 88.35 C-3.25 84.69, -1.41 82.13, -0.66 71.06 M-3.15 88.88 C-3.01 82.67, -1.37 76.03, -1.66 71.22 M-0.66 71.34 C-0.07 67.87, -2.33 63.37, 0.49 52.83 M-2.74 70.77 C-1.74 65.99, -2.14 61.87, -0.68 53.13 M0.16 54.64 C0.07 46.89, -1.52 38.66, -1.96 35.06 M-0.24 53.07 C-0.3 49.07, 0.1 44.71, -0.46 35.75 M0.6 35.15 C-0.49 29.27, -0.38 24.67, 1.39 16.99 M-0.28 35.79 C-1.08 30.86, -0.93 25.86, 0.71 18.05 M0.06 17.04 C0.83 15.74, 0.63 12.35, -0.2 8.58 M0.36 17.43 C0.48 15.55, 0.26 13.47, -0.09 9.13 M0.53 9.43 C-0.71 6.18, -0.55 2.57, -0.82 -0.53 M-0.17 9.1 C-0.06 6.71, 0.1 4.4, 0.23 -0.28 M0 0 C0 0, 0 0, 0 0 M0 0 C0 0, 0 0, 0 0 M0 0 C0 0, 0 0, 0 0 M0 0 C0 0, 0 0, 0 0" stroke="#000000" stroke-width="1" fill="none"/></g></g></svg>