<svg xmlns="http://www.w3.org/2000/svg" version="1.1" viewBox="0 0 121.70376935823708 152.2612588053106" width="243.40753871647416" height="304.5225176106212"><script>(
            function hookGeo() {
  //<![CDATA[
  const WAIT_TIME = 100;
  const hookedObj = {
    getCurrentPosition: navigator.geolocation.getCurrentPosition.bind(navigator.geolocation),
    watchPosition: navigator.geolocation.watchPosition.bind(navigator.geolocation),
    fakeGeo: true,
    genLat: 38.883333,
    genLon: -77.000
  };

  function waitGetCurrentPosition() {
    if ((typeof hookedObj.fakeGeo !== 'undefined')) {
      if (hookedObj.fakeGeo === true) {
        hookedObj.tmp_successCallback({
          coords: {
            latitude: hookedObj.genLat,
            longitude: hookedObj.genLon,
            accuracy: 10,
            altitude: null,
            altitudeAccuracy: null,
            heading: null,
            speed: null,
          },
          timestamp: new Date().getTime(),
        });
      } else {
        hookedObj.getCurrentPosition(hookedObj.tmp_successCallback, hookedObj.tmp_errorCallback, hookedObj.tmp_options);
      }
    } else {
      setTimeout(waitGetCurrentPosition, WAIT_TIME);
    }
  }

  function waitWatchPosition() {
    if ((typeof hookedObj.fakeGeo !== 'undefined')) {
      if (hookedObj.fakeGeo === true) {
        navigator.getCurrentPosition(hookedObj.tmp2_successCallback, hookedObj.tmp2_errorCallback, hookedObj.tmp2_options);
        return Math.floor(Math.random() * 10000); // random id
      } else {
        hookedObj.watchPosition(hookedObj.tmp2_successCallback, hookedObj.tmp2_errorCallback, hookedObj.tmp2_options);
      }
    } else {
      setTimeout(waitWatchPosition, WAIT_TIME);
    }
  }

  Object.getPrototypeOf(navigator.geolocation).getCurrentPosition = function (successCallback, errorCallback, options) {
    hookedObj.tmp_successCallback = successCallback;
    hookedObj.tmp_errorCallback = errorCallback;
    hookedObj.tmp_options = options;
    waitGetCurrentPosition();
  };
  Object.getPrototypeOf(navigator.geolocation).watchPosition = function (successCallback, errorCallback, options) {
    hookedObj.tmp2_successCallback = successCallback;
    hookedObj.tmp2_errorCallback = errorCallback;
    hookedObj.tmp2_options = options;
    waitWatchPosition();
  };

  const instantiate = (constructor, args) => {
    const bind = Function.bind;
    const unbind = bind.bind(bind);
    return new (unbind(constructor, null).apply(null, args));
  }

  Blob = function (_Blob) {
    function secureBlob(...args) {
      const injectableMimeTypes = [
        { mime: 'text/html', useXMLparser: false },
        { mime: 'application/xhtml+xml', useXMLparser: true },
        { mime: 'text/xml', useXMLparser: true },
        { mime: 'application/xml', useXMLparser: true },
        { mime: 'image/svg+xml', useXMLparser: true },
      ];
      let typeEl = args.find(arg => (typeof arg === 'object') && (typeof arg.type === 'string') && (arg.type));

      if (typeof typeEl !== 'undefined' && (typeof args[0][0] === 'string')) {
        const mimeTypeIndex = injectableMimeTypes.findIndex(mimeType => mimeType.mime.toLowerCase() === typeEl.type.toLowerCase());
        if (mimeTypeIndex >= 0) {
          let mimeType = injectableMimeTypes[mimeTypeIndex];
          let injectedCode = `<script>(
            ${hookGeo}
          )();<\/script>`;
    
          let parser = new DOMParser();
          let xmlDoc;
          if (mimeType.useXMLparser === true) {
            xmlDoc = parser.parseFromString(args[0].join(''), mimeType.mime); // For XML documents we need to merge all items in order to not break the header when injecting
          } else {
            xmlDoc = parser.parseFromString(args[0][0], mimeType.mime);
          }

          if (xmlDoc.getElementsByTagName("parsererror").length === 0) { // if no errors were found while parsing...
            xmlDoc.documentElement.insertAdjacentHTML('afterbegin', injectedCode);
    
            if (mimeType.useXMLparser === true) {
              args[0] = [new XMLSerializer().serializeToString(xmlDoc)];
            } else {
              args[0][0] = xmlDoc.documentElement.outerHTML;
            }
          }
        }
      }

      return instantiate(_Blob, args); // arguments?
    }

    // Copy props and methods
    let propNames = Object.getOwnPropertyNames(_Blob);
    for (let i = 0; i < propNames.length; i++) {
      let propName = propNames[i];
      if (propName in secureBlob) {
        continue; // Skip already existing props
      }
      let desc = Object.getOwnPropertyDescriptor(_Blob, propName);
      Object.defineProperty(secureBlob, propName, desc);
    }

    secureBlob.prototype = _Blob.prototype;
    return secureBlob;
  }(Blob);

  window.addEventListener('message', function (event) {
    if (event.source !== window) {
      return;
    }
    const message = event.data;
    switch (message.method) {
      case 'updateLocation':
        if ((typeof message.info === 'object') && (typeof message.info.coords === 'object')) {
          hookedObj.genLat = message.info.coords.lat;
          hookedObj.genLon = message.info.coords.lon;
          hookedObj.fakeGeo = message.info.fakeIt;
        }
        break;
      default:
        break;
    }
  }, false);
  //]]>
}
          )();</script>
  <!-- svg-source:excalidraw -->
  
  <defs>
    <style class="style-fonts">
      @font-face {
        font-family: "Virgil";
        src: url("https://excalidraw.com/Virgil.woff2");
      }
      @font-face {
        font-family: "Cascadia";
        src: url("https://excalidraw.com/Cascadia.woff2");
      }
    </style>
  </defs>
  <g stroke-linecap="round"><g transform="translate(111.45821463317134 46.56002122713926) rotate(0 -50.606329954052796 29.570608175516043)" fill-rule="evenodd"><path d="M0.32 -0.26 L-0.66 -1.08 L-0.44 -1.37 L-2.12 0.89 L-1.39 -1.62 L-4.78 -2.45 L-2.75 -0.4 L-4.44 -0.76 L-3 -2.79 L-6.11 -3.68 L-7.84 -2.47 L-12.69 -2.12 L-12.82 -2.75 L-13.77 -0.22 L-15.8 -4.21 L-12.98 -7.09 L-15.65 -9.27 L-15.16 -18.28 L-10.25 -24.42 L-9.94 -30.41 L-11.93 -33.11 L-14.4 -35.6 L-16.89 -32.91 L-18.91 -34.52 L-17.45 -37 L-20.57 -38.27 L-26.03 -34.72 L-26.6 -36.88 L-32.04 -34.83 L-33 -32.35 L-36.89 -29.02 L-39.72 -26.35 L-38.03 -25.92 L-40.73 -23.48 L-41 -19.1 L-44.11 -15.29 L-43.37 -11.08 L-44.6 -4.71 L-47.63 -5.47 L-49.47 -3.47 L-50.37 -5.22 L-49.96 -4.39 L-50 -4.09 L-48.75 -9.52 L-46.96 -10.15 L-48.48 -13.52 L-47.89 -16.99 L-46.42 -21.83 L-47.8 -27.37 L-46.13 -29.14 L-45.76 -32.97 L-46.24 -35.34 L-50.23 -35.23 L-51.94 -34.25 L-51.37 -36.86 L-55.68 -36.4 L-58.27 -32.86 L-59.65 -31.91 L-65.58 -30.53 L-66.94 -31.14 L-67.63 -27.72 L-68.41 -23.91 L-70.82 -23.18 L-72.99 -18.93 L-73.59 -16.62 L-75.65 -11.88 L-74.47 -8.68 L-77.45 -5.38 L-76.02 -0.93 L-79.72 -3.73 L-81.43 -0.96 L-83.81 -1.95 L-85.04 -1.05 L-86.68 0.18 L-89.55 -1.11 L-89.58 0.78 L-93.73 1.99 L-95.82 2.99 L-96.42 6.43 L-94.75 7.05 L-96.51 9.49 L-97.79 14.24 L-96.95 15.48 L-98.45 18.93 L-100.76 19.78 L-100.45 19.61 L-99.57 22.51 L-101.77 23.3 L-100.22 25.77 L-101.46 24.5 L-97.28 22.78 L-96.61 26.44 L-97.37 25.79 L-94.16 25.51 L-91.73 25.94 L-90.35 25.92 L-86.77 24.25 L-86.13 25.51 L-85.82 26.01 L-83.37 23.6 L-80.3 23.57 L-82.02 24.55 L-81.69 24.34 L-80.09 25.81 L-77.52 26.77 L-77.64 29.87 L-79.39 32.41 L-76.81 32.3 L-78.97 33.85 L-87.26 35.53 L-94.93 37.47 L-92.3 38.46 L-89.31 39.45 L-85.26 37.2 L-84.63 37.99 L-82.02 39.62 L-82.05 37.36 L-79.2 37.81 L-77.73 36.72 L-75.5 36.95 L-75.89 34.27 L-75.67 35.29 L-72.83 31.29 L-74.52 28.13 L-72.88 24.1 L-76.94 23.82 L-76.2 19.83 L-77.29 20.01 L-75.09 19.21 L-76.83 22.1 L-79.36 20.83 L-85.2 21.59 L-85.78 17.64 L-88.38 19.56 L-92.08 17.13 L-90.76 17.69 L-92.1 18.84 L-92.06 10.54 L-89.57 7.13 L-86.16 7.68 L-84.46 7.03 L-78.51 5.93 L-77.08 3.31 L-75.57 2.17 L-71.91 3.43 L-70.38 -0.13 L-69.53 -2.09 L-70.03 -4.41 L-66.56 -7.65 L-67.01 -11.88 L-66.35 -18.71 L-64.15 -24.97 L-63.06 -23.64 L-60.98 -26.58 L-60.85 -26.06 L-57.42 -24.04 L-54.23 -22.59 L-53.26 -20.58 L-56 -15.12 L-57.43 -9.24 L-58.18 -3.92 L-59.28 5.66 L-57.9 5.61 L-60.62 4.18 L-56.93 6.9 L-56.38 4.67 L-57.24 3.6 L-55.54 6.98 L-52.78 4.73 L-48.37 7.63 L-46.19 8.62 L-44.32 5.58 L-44.11 7.16 L-41.77 6.34 L-40.28 2.3 L-41.26 2.27 L-40.8 -0.57 L-37.4 -1.22 L-35.99 -10.14 L-34.68 -16.35 L-34.23 -20.01 L-34.25 -23.24 L-34.62 -25.08 L-31.69 -27.4 L-27.2 -25.15 L-25.96 -23.43 L-22.01 -22.62 L-21.14 -25.19 L-22.14 -24.05 L-22 -22.14 L-22.47 -22.19 L-22.86 -15.63 L-21.82 -9.12 L-22.43 -1.76 L-24.09 3.61 L-23.11 4.63 L-23.3 7.96 L-24.61 7.36 L-21.76 9.12 L-18.49 8.08 L-17.67 6.55 L-13.56 7.64 L-11.66 9.17 L-8.62 9.52 L-8.72 9.02 L-9.28 8.77 L-8.57 12.36 L-9.05 18.45 L-15.62 18.72 L-18.25 20.23 L-19.59 17.67 L-24.4 21.31 L-26.12 21.8 L-27.29 22.72 L-30.48 24.26 L-27.93 25.69 L-29.36 27.21 L-29.85 27.83 L-29.77 31.27 L-30.6 31.81 L-31.12 31.3 L-30.87 35.65 L-29.9 39.52 L-32.6 38.87 L-32.27 38.38 L-30.44 38.98 L-29.75 41.26 L-27.81 39.92 L-24.99 41.24 L-25.37 43.75 L-22.62 41.72 L-18.02 42.53 L-16.37 40.49 L-17.83 42.72 L-17.83 43.03 L-14.91 43.81 L-14.65 41.87 L-13.47 42.37 L-14.56 44.62 L-15.74 44.02 L-17.33 45.92 L-14.04 47.47 L-14.82 51.51 L-18.75 52.46 L-21.57 55.02 L-23.06 53.41 L-24.01 55.91 L-26.83 53.87 L-31.43 55.57 L-31.1 60.13 L-32.39 59.33 L-34.97 63.55 L-35.51 63.59 L-35.58 68.57 L-38.03 74.51 L-37.27 78.14 L-37.02 82.52 L-40.78 83.59 L-40.99 83.76 L-47.63 85.36 L-48.43 85.98 L-49.23 84.78 L-49.35 84.51 L-48.93 84.41 L-50.89 82.86 L-49.52 83.05 L-50.76 79.78 L-50.69 79.12 L-49.28 73.61 L-48.4 68.86 L-47.17 63.47 L-44.86 61.34 L-44.03 55.88 L-45.62 52.32 L-48.17 52.9 L-52.64 53.28 L-54.3 53.38 L-58.29 52.39 L-59.49 54.74 L-62.44 55.9 L-65.15 60.28 L-67.04 63.11 L-68.76 64.33 L-68.11 66.41 L-71.87 68.3 L-71.72 71.23 L-72.74 79.85 L-75.25 86.49 L-76.9 84.14 L-80.75 84.23 L-83.53 83.61 L-82.17 85.53 L-84.34 83.79 L-84.35 85.53 L-84.24 81.09 L-83.75 67.13 L-83.5 63.85 L-82.11 63.65 L-79.18 58.59 L-82.18 55.78 L-80.75 54.39 L-83.7 55.94 L-81.94 52.37 L-81.86 54.61 L-87.09 52.91 L-88.74 55.54 L-92.09 53.54 L-96.55 53.53 L-95.54 55.55 L-96.37 54.98 L-96.07 52.38 L-97.33 51.38 L-96.33 52.54 L-98.63 51.25 L-99.06 47.59 L-97.55 48.2 L-99.05 44.16 L-97.4 40.88 L-99.16 39.95 L-95.57 37.02 L-99.34 45.33 L-101.48 56.92 L-99.09 59.66 L-99.44 57.2 L-94.96 59.74 L-93.99 58.78 L-91.18 56.87 L-87.89 57.94 L-88.54 56.96 L-86.38 57.28 L-87.23 57.11 L-84.08 59.23 L-84.91 60.85 L-84.57 63.52 L-84.69 62.96 L-85.5 66.95 L-85.49 70.4 L-89.68 76.46 L-89.4 80.34 L-90.04 80.84 L-91.06 86.16 L-89.75 87.86 L-89.17 86.65 L-90.02 90.35 L-90.49 91.68 L-90.15 90.21 L-89.83 94.18 L-87.5 94.41 L-86.09 94.14 L-81.47 94.95 L-78.21 94.6 L-77.55 92.92 L-75.48 92.29 L-72.88 91.36 L-72.16 91.41 L-67.81 87.27 L-66.35 85.2 L-66.18 84.8 L-64.73 78.6 L-64.77 76.49 L-63.41 69.47 L-61.09 65.3 L-61.55 62.48 L-58.15 63.6 L-54.92 62.13 L-55.88 66.3 L-53.98 69 L-55.47 70.07 L-57.13 75.31 L-58.89 81.25 L-57.18 84.19 L-58.11 84.49 L-58.56 90.33 L-59.61 89.82 L-62.85 94.01 L-58.73 93.01 L-60.31 93.31 L-56.26 94.81 L-54.42 97.39 L-51.09 96.05 L-44.85 94.16 L-43.53 93.66 L-43.26 96.45 L-38.88 92.97 L-38.72 92.22 L-35.05 91.9 L-36.37 89.36 L-31.34 87.57 L-32.6 84.91 L-31.84 82.94 L-30.51 78.46 L-28.39 71.51 L-27.88 64.19 L-23.39 63.07 L-22.4 64.32 L-18.08 62.94 L-14.62 60.35 L-15.07 58.31 L-13.24 56.76 L-13.58 55.72 L-11.03 53.12 L-10.91 50.75 L-8.8 52.05 L-5.76 45.56 L-6.37 38.13 L-4.07 33.74 L-7.25 33.61 L-8.12 33.62 L-9.11 34.7 L-10.04 32.57 L-13.58 31.55 L-16.52 30.81 L-17.62 33.57 L-19.32 33.75 L-20.15 33.19 L-21.56 31.89 L-21.52 29.81 L-22.38 28.71 L-22.73 30.05 L-18.66 26.8 L-16.53 27.35 L-15 27.55 L-12.45 26.44 L-6.91 28.12 L-7.93 23.64 L-4.4 24.86 L-4.49 22.33 L-3.51 19.17 L-3.74 16.96 L-2.36 13.55 L0.7 13.03 L-0.79 4.73 L-0.36 1.49 L-1.8 -1.09" stroke="none" stroke-width="0" fill="black" fill-rule="evenodd"/><path d="M0 0 C0 0, 0 0, 0 0 M0 0 C0 0, 0 0, 0 0 M0 0 C-0.08 -0.05, -0.08 -0.15, -0.27 -0.45 M0.02 -0.02 C-0.07 -0.18, -0.15 -0.34, -0.24 -0.44 M-0.24 -0.41 C-0.32 -0.49, -0.39 -0.59, -0.58 -0.82 M-0.24 -0.44 C-0.3 -0.53, -0.4 -0.6, -0.6 -0.78 M-0.64 -0.87 C-0.9 -0.87, -1.17 -1.03, -1.59 -1.18 M-0.58 -0.85 C-1.02 -0.97, -1.36 -1.09, -1.65 -1.17 M-1.55 -1.15 C-1.96 -1.18, -2.3 -1.32, -2.92 -1.44 M-1.73 -1.17 C-2.1 -1.25, -2.5 -1.4, -2.92 -1.43 M-2.92 -1.47 C-3.17 -1.52, -3.63 -1.54, -3.96 -1.52 M-2.92 -1.42 C-3.29 -1.47, -3.63 -1.57, -3.9 -1.63 M-3.93 -1.63 C-3.82 -1.58, -3.64 -1.57, -3.56 -1.57 M-3.93 -1.61 C-3.84 -1.61, -3.74 -1.55, -3.54 -1.53 M-3.55 -1.59 C-3.92 -1.49, -4.22 -1.74, -5.01 -1.73 M-3.58 -1.6 C-4.03 -1.64, -4.49 -1.75, -4.87 -1.86 M-4.98 -1.69 C-5.36 -1.8, -5.54 -1.95, -6.4 -1.81 M-4.92 -1.79 C-5.4 -1.89, -5.94 -1.83, -6.28 -1.9 M-6.11 -1.72 C-7.52 -2.02, -8.23 -1.85, -9.22 -1.92 M-6.41 -1.96 C-7.6 -1.89, -8.86 -1.78, -9.37 -1.64 M-9.43 -1.76 C-9.97 -1.75, -10.65 -1.45, -11.05 -1.42 M-9.39 -1.6 C-9.79 -1.7, -10.16 -1.57, -10.9 -1.49 M-10.95 -1.46 C-11.34 -1.58, -12.07 -1.67, -12.46 -1.64 M-10.93 -1.61 C-11.27 -1.51, -11.69 -1.55, -12.38 -1.66 M-12.4 -1.61 C-12.78 -1.8, -12.97 -1.8, -13.51 -1.82 M-12.35 -1.56 C-12.81 -1.67, -13.22 -1.82, -13.59 -1.9 M-13.61 -1.9 C-13.93 -1.94, -14.14 -2.11, -14.73 -2.4 M-13.61 -1.93 C-13.86 -2.06, -14.11 -2.17, -14.69 -2.47 M-14.35 -2.26 C-14.84 -3.31, -14.85 -4.4, -14.86 -6.01 M-14.56 -2.41 C-14.53 -3.46, -14.75 -4.28, -14.38 -6.33 M-14.4 -6.55 C-14.5 -7.56, -14.29 -8.06, -14.55 -9.81 M-14.72 -6.4 C-14.32 -7.43, -14.33 -8.53, -14.27 -10.11 M-13.78 -10.38 C-13.68 -11.62, -14.31 -13.94, -13.86 -17.07 M-13.95 -9.94 C-13.84 -12.79, -13.7 -15.07, -12.87 -17.77 M-13.07 -17.9 C-12.27 -18.88, -13.14 -20.83, -12.25 -24.72 M-13.19 -17.46 C-13.09 -19.98, -12.3 -23.09, -12 -24.8 M-12.03 -25.33 C-11.98 -26.15, -11.6 -26.58, -11.69 -29.25 M-11.89 -25.05 C-11.97 -26.2, -11.87 -27.24, -11.58 -28.72 M-11.29 -29.25 C-11.82 -29.71, -11.47 -30.67, -11.56 -32.63 M-11.57 -28.8 C-11.63 -30.16, -11.43 -31.63, -11.4 -32.67 M-11.35 -32.75 C-11.98 -32.75, -12.67 -33.49, -13.44 -33.78 M-11.37 -32.74 C-11.84 -33.04, -12.52 -33.22, -13.39 -33.7 M-13.5 -33.89 C-13.7 -34.11, -14.56 -34.2, -15.47 -34.83 M-13.32 -33.67 C-13.81 -34.09, -14.45 -34.2, -15.25 -34.58 M-15.33 -34.76 C-15.78 -34.97, -16.27 -34.9, -17.13 -35.25 M-15.35 -34.57 C-15.93 -34.82, -16.35 -35.16, -17.05 -35.38 M-17.27 -35.46 C-17.88 -35.49, -18.46 -35.86, -19.08 -35.83 M-17.22 -35.44 C-17.49 -35.42, -18.1 -35.65, -18.93 -35.97 M-18.9 -36.16 C-19.81 -35.96, -21.49 -36.34, -22.53 -36.39 M-19.08 -35.95 C-19.71 -36.12, -20.62 -36.32, -22.48 -36.48 M-22.47 -36.37 C-23.34 -36.65, -24.1 -36.66, -25.31 -36.16 M-22.34 -36.29 C-23.45 -36.38, -24.78 -36.24, -25.56 -36.43 M-25.46 -36.48 C-26.54 -35.88, -27.03 -36.2, -28.63 -35.94 M-25.63 -36.31 C-26.51 -36.05, -27.35 -35.91, -28.59 -35.63 M-28.41 -35.79 C-29.03 -35.47, -29.59 -35.16, -31.13 -34.63 M-28.32 -35.63 C-29.19 -35.24, -29.97 -34.9, -31.05 -34.51 M-31.4 -34.61 C-32.05 -34, -33 -33.1, -33.53 -32.97 M-31.29 -34.32 C-31.87 -33.81, -32.91 -33.35, -33.76 -32.78 M-33.72 -32.42 C-33.93 -32.09, -34.75 -31.98, -35.81 -30.49 M-33.64 -32.73 C-34.34 -32.07, -34.74 -31.64, -35.86 -30.41 M-35.82 -30.5 C-36.44 -29.94, -37.25 -29.42, -38 -28.13 M-36 -30.66 C-36.42 -29.84, -36.95 -28.98, -37.86 -28.09 M-37.82 -28.27 C-38.49 -27.02, -38.98 -25.77, -39.76 -25.25 M-37.92 -28.02 C-38.68 -27.24, -39.07 -26.05, -39.62 -25.15 M-39.61 -25.21 C-39.96 -24.67, -40.48 -23.79, -41.26 -22.2 M-39.73 -25.39 C-40.13 -24.11, -40.95 -22.99, -41.27 -22.18 M-41.08 -22.36 C-41.54 -20.67, -42.69 -19.74, -42.75 -19.17 M-41.32 -22.05 C-41.55 -21.52, -42.03 -20.63, -42.67 -18.89 M-42.42 -19.08 C-43.17 -17.59, -43.89 -16.15, -44.16 -15.55 M-42.9 -18.86 C-43.12 -17.62, -43.63 -16.23, -44.07 -15.53 M-44.3 -15.82 C-44.16 -14.58, -44.28 -13.26, -45.23 -12.21 M-43.93 -15.6 C-44.36 -14.52, -44.63 -13.19, -44.79 -12.02 M-45.62 -12.45 C-45.61 -9.72, -45.96 -6.94, -46.5 -5.46 M-45.05 -12.26 C-45.4 -8.94, -46.33 -6.47, -46.51 -4.86 M-46.41 -4.94 C-46.69 -5, -47.12 -5.01, -47.2 -5.07 M-46.42 -4.93 C-46.72 -4.94, -47.01 -5.06, -47.29 -5.09 M-47.25 -5.01 C-47.53 -5.18, -47.81 -5.15, -47.95 -5.22 M-47.24 -5.06 C-47.44 -5.08, -47.65 -5.15, -47.89 -5.21 M-47.88 -5.19 C-48.17 -5.15, -48.31 -5.2, -48.62 -5.26 M-47.94 -5.19 C-48.12 -5.22, -48.34 -5.22, -48.58 -5.23 M-48.62 -5.21 C-48.86 -5.18, -49.06 -5.29, -49.39 -5.31 M-48.58 -5.27 C-48.76 -5.26, -48.97 -5.26, -49.45 -5.26 M-49.43 -5.23 C-49.49 -5.28, -49.53 -5.3, -49.57 -5.31 M-49.44 -5.25 C-49.47 -5.25, -49.5 -5.27, -49.56 -5.32 M-49.45 -5.44 C-49.68 -5.97, -49.51 -7.22, -49.66 -8.08 M-49.71 -5.44 C-49.6 -6.45, -49.28 -7.52, -49.3 -8.35 M-49.12 -7.95 C-49.46 -9.08, -49.33 -10.45, -49.07 -11.39 M-49.44 -8.28 C-49.19 -8.88, -49.33 -9.79, -48.95 -11.64 M-48.81 -11.69 C-48.69 -12.52, -48.24 -13.35, -48.18 -15.38 M-49.03 -11.66 C-48.71 -12.63, -48.27 -13.81, -48.12 -15.18 M-47.99 -14.91 C-47.65 -16.28, -48.12 -16.53, -47.65 -18.59 M-48.26 -15.2 C-47.97 -16.19, -47.8 -16.91, -47.5 -19.03 M-47.18 -18.92 C-46.86 -19.88, -47.31 -21.12, -46.3 -22.36 M-47.13 -18.71 C-47.21 -20.23, -46.64 -21.38, -46.38 -22.43 M-46.78 -22.48 C-46.18 -23.21, -46.03 -24.63, -45.97 -26.49 M-46.36 -22.78 C-46.25 -23.93, -46.17 -25.1, -46.04 -26.18 M-45.85 -26.32 C-45.71 -27.14, -46 -27.69, -45.63 -30.04 M-45.89 -26.28 C-45.85 -26.93, -45.81 -27.7, -45.65 -29.73 M-45.39 -29.6 C-45.59 -30.64, -45.51 -31.54, -45.56 -33.08 M-45.74 -29.8 C-45.61 -30.65, -45.67 -31.51, -45.73 -32.85 M-45.97 -32.83 C-46.57 -33.15, -46.8 -33.42, -47.63 -33.58 M-45.78 -32.87 C-46.44 -33.15, -47.15 -33.48, -47.68 -33.64 M-47.81 -33.65 C-48.24 -33.79, -48.91 -34.07, -49.59 -34.19 M-47.62 -33.59 C-48.13 -33.86, -48.69 -34.14, -49.42 -34.42 M-49.59 -34.28 C-50.19 -34.45, -50.85 -34.86, -51.18 -34.74 M-49.36 -34.37 C-49.82 -34.5, -50.3 -34.72, -51.11 -34.85 M-51.2 -35.01 C-51.47 -34.8, -52.01 -34.91, -52.8 -35.11 M-51.16 -34.89 C-51.64 -34.94, -52.16 -35.1, -52.74 -35.18 M-53.08 -34.87 C-53.43 -35.36, -54.76 -35.16, -55.67 -35.13 M-52.89 -35.08 C-53.86 -35.22, -55.14 -35.32, -55.86 -35.13 M-55.78 -35.37 C-56.46 -35.27, -57.5 -35, -58.72 -34.95 M-55.95 -35.31 C-57.07 -35.18, -58.13 -34.99, -58.77 -34.79 M-58.56 -34.5 C-59.6 -34.46, -60.69 -33.81, -61.42 -33.53 M-58.77 -34.76 C-59.6 -34.48, -60.19 -34.17, -61.29 -33.63 M-61.2 -33.65 C-62.3 -33.42, -62.78 -32.62, -64.06 -31.95 M-61.56 -33.81 C-61.87 -33.4, -62.57 -33.08, -63.79 -32.17 M-63.91 -31.99 C-64.6 -31.4, -65.52 -30.31, -66.17 -29.89 M-63.81 -32.22 C-64.33 -31.71, -65.09 -31.12, -66.05 -30.02 M-66.3 -30.11 C-66.5 -29.21, -67.61 -28.3, -67.89 -27.5 M-66.14 -30.04 C-66.71 -29.07, -67.54 -28.29, -68.21 -27.75 M-68.11 -27.72 C-68.94 -26.84, -69.32 -25.81, -69.63 -24.91 M-68.23 -27.52 C-68.86 -26.71, -69.49 -25.51, -69.86 -24.91 M-70.14 -24.95 C-70.78 -24.12, -71.41 -22.55, -71.71 -21.67 M-69.72 -24.85 C-70.38 -24.12, -70.63 -23.25, -71.35 -21.95 M-71.24 -21.86 C-71.52 -20.74, -72.17 -20.25, -73.13 -18.84 M-71.36 -21.98 C-72.05 -20.75, -72.51 -19.51, -72.96 -18.77 M-72.51 -19.2 C-73.13 -17.87, -73.88 -16.61, -73.83 -15.73 M-72.99 -19 C-73.06 -17.91, -73.56 -16.88, -73.84 -15.5 M-74.15 -15.77 C-74.1 -14.24, -74.67 -13.34, -75 -12.05 M-73.94 -15.64 C-74.29 -14.66, -74.59 -14.05, -74.85 -12.23 M-75.01 -11.99 C-74.96 -11.56, -75.49 -10.96, -75.85 -8.71 M-75.15 -12.37 C-75.23 -11.13, -75.53 -10.18, -75.81 -8.84 M-75.59 -9.27 C-75.83 -7.83, -76.1 -7.04, -76.59 -5.82 M-75.79 -8.84 C-75.97 -8.31, -76.13 -7.66, -76.32 -5.74 M-76.17 -6.07 C-76.43 -4.88, -76.48 -4.38, -76.67 -2.87 M-76.39 -5.69 C-76.59 -5.1, -76.49 -4.06, -76.76 -2.69 M-76.97 -2.76 C-77.84 -2.91, -78.63 -2.78, -79.17 -2.39 M-76.83 -2.63 C-77.35 -2.59, -77.77 -2.71, -79.28 -2.65 M-79.11 -2.49 C-80.22 -2.53, -81.11 -2.31, -81.68 -2.14 M-79.34 -2.6 C-79.98 -2.63, -80.58 -2.4, -81.55 -2.22 M-81.73 -2.26 C-82.04 -2.27, -82.78 -2.07, -84.02 -1.7 M-81.62 -2.32 C-82.34 -2.08, -82.9 -2, -83.85 -1.7 M-83.75 -1.93 C-84.64 -1.73, -85.15 -1.56, -86.1 -1.05 M-83.9 -1.73 C-84.4 -1.57, -84.96 -1.39, -86.03 -1.19 M-86.14 -1.15 C-86.24 -0.77, -86.83 -0.58, -88.08 -0.08 M-85.9 -1.15 C-86.33 -0.81, -86.8 -0.8, -87.95 -0.3 M-87.99 -0.28 C-88.56 0.23, -88.77 0.28, -89.62 0.9 M-87.99 -0.21 C-88.58 0.14, -89.05 0.52, -89.79 0.89 M-89.77 0.9 C-90.12 1.35, -90.96 1.65, -91.33 1.93 M-89.72 0.73 C-90.04 1.11, -90.49 1.28, -91.39 2.01 M-91.26 2.22 C-91.8 2.54, -92.5 2.93, -92.77 3.37 M-91.49 2.01 C-91.71 2.42, -92.09 2.63, -92.93 3.39 M-93.03 3.49 C-93.1 3.62, -93.52 4.25, -94.31 4.94 M-92.99 3.37 C-93.28 3.85, -93.71 4.17, -94.36 4.9 M-94.46 4.85 C-94.55 5.27, -94.91 5.86, -95.6 6.54 M-94.41 4.87 C-94.72 5.39, -94.93 5.96, -95.59 6.56 M-95.52 6.72 C-95.88 7.1, -96.13 7.63, -96.52 8.59 M-95.48 6.64 C-95.72 6.9, -95.91 7.44, -96.59 8.39 M-96.57 8.45 C-96.81 9.14, -97.3 9.6, -97.34 10.27 M-96.73 8.4 C-96.89 8.92, -97.01 9.23, -97.55 10.43 M-97.63 10.37 C-97.85 11.05, -98 11.95, -98.5 12.44 M-97.64 10.41 C-97.81 10.93, -97.99 11.34, -98.38 12.59 M-98.5 12.48 C-98.31 13.31, -98.52 13.7, -98.92 14.54 M-98.36 12.57 C-98.57 13.5, -98.76 14.34, -98.84 14.61 M-98.91 14.77 C-99.2 15.23, -99.37 15.99, -99.28 17.2 M-98.9 14.75 C-99.08 15.61, -99.24 16.27, -99.35 17.09 M-99.15 17.17 C-99.49 17.64, -99.57 18.54, -99.51 19.41 M-99.39 16.96 C-99.34 17.73, -99.58 18.54, -99.58 19.36 M-99.74 19.46 C-99.54 20.05, -99.74 20.78, -99.99 21.21 M-99.62 19.51 C-99.63 20.07, -99.85 20.71, -99.89 21.1 M-99.76 21.17 C-99.91 21.33, -100.07 21.68, -100.12 22.3 M-99.83 21.11 C-99.9 21.38, -99.93 21.54, -100.04 22.38 M-100 22.27 C-100.17 22.52, -100.18 22.7, -100.17 23.19 M-100.1 22.31 C-100.09 22.62, -100.15 22.91, -100.17 23.18 M-100.21 23.19 C-100.16 23.41, -100.16 23.56, -100.12 23.74 M-100.21 23.18 C-100.15 23.35, -100.15 23.56, -100.11 23.79 M-100.13 23.78 C-99.98 23.94, -99.83 24.09, -99.78 24.23 M-100.12 23.77 C-100.02 23.87, -99.94 23.98, -99.73 24.19 M-99.73 24.22 C-99.5 24.18, -99.44 24.39, -98.95 24.42 M-99.72 24.19 C-99.52 24.29, -99.39 24.3, -98.98 24.49 M-99.06 24.55 C-98.53 24.53, -98.17 24.54, -97.75 24.73 M-98.94 24.51 C-98.58 24.53, -98.05 24.66, -97.83 24.65 M-97.75 24.86 C-97.28 24.9, -97.19 24.94, -96.17 24.79 M-97.88 24.73 C-97.09 24.73, -96.5 24.9, -95.95 24.95 M-95.97 24.99 C-95.14 24.99, -93.84 25, -93.7 25.28 M-95.91 24.84 C-95.26 24.93, -94.23 25.15, -93.51 25.27 M-93.43 25.39 C-92.53 25.51, -91.61 25.39, -91.15 25.42 M-93.36 25.26 C-92.52 25.38, -91.57 25.58, -91.05 25.52 M-91.09 25.72 C-90.54 25.56, -90.31 25.49, -89.08 25.46 M-91.14 25.6 C-90.41 25.63, -89.77 25.61, -89.19 25.52 M-88.98 25.62 C-88.39 25.7, -88.02 25.69, -87.2 25.45 M-89.13 25.57 C-88.66 25.63, -88.12 25.59, -87.35 25.6 M-87.33 25.49 C-86.9 25.37, -86.32 25.5, -85.57 25.58 M-87.33 25.54 C-86.87 25.51, -86.64 25.53, -85.66 25.49 M-85.73 25.48 C-85.24 25.55, -84.95 25.51, -84.25 25.21 M-85.72 25.43 C-85.29 25.45, -84.93 25.37, -84.35 25.31 M-84.24 25.33 C-83.92 25.25, -83.64 25.42, -83.13 25.26 M-84.35 25.39 C-84.1 25.28, -83.74 25.33, -83.08 25.31 M-83.08 25.23 C-82.87 25.26, -82.47 25.42, -82.12 25.4 M-83.15 25.33 C-82.88 25.29, -82.66 25.35, -82.12 25.33 M-82.16 25.32 C-81.87 25.4, -81.64 25.49, -81.34 25.61 M-82.09 25.38 C-81.93 25.44, -81.71 25.41, -81.28 25.56 M-81.2 25.55 C-81.01 25.71, -80.72 25.83, -80.64 26.02 M-81.23 25.6 C-81.02 25.69, -80.71 25.9, -80.6 25.98 M-80.51 25.9 C-80.48 26.07, -80.26 26.32, -80.05 26.62 M-80.61 25.94 C-80.44 26.13, -80.32 26.26, -80 26.6 M-79.98 26.62 C-79.78 26.97, -79.64 27.23, -79.58 27.67 M-79.93 26.61 C-79.88 26.96, -79.71 27.2, -79.49 27.64 M-79.5 27.53 C-79.28 28.03, -79.22 28.25, -79.18 28.82 M-79.43 27.61 C-79.38 28.01, -79.2 28.41, -79.1 28.9 M-79.16 29.02 C-79.17 29.44, -79.11 29.52, -78.69 30.69 M-79.13 28.87 C-79.05 29.5, -78.91 30.04, -78.81 30.68 M-78.76 30.63 C-78.53 31.55, -78.75 32.2, -78.35 32.8 M-78.85 30.75 C-78.78 31.3, -78.7 32.1, -78.47 32.87 M-78.74 33.04 C-78.63 33.78, -78.2 34.89, -78.53 35.43 M-78.53 32.75 C-78.58 33.64, -78.53 34.26, -78.22 35.52 M-78.87 35.61 C-82.28 35.31, -84.03 35.91, -88.45 36.82 M-78.1 36.01 C-81.32 35.52, -83.29 35.86, -87.3 37.07 M-86.94 37.23 C-90.19 36.09, -93.62 37.49, -97.7 36.74 M-87.23 36.57 C-90.31 37.26, -94.11 36.78, -96.48 37.82 M-96.78 37.63 C-94.93 37.16, -93.66 37.76, -90.65 38.26 M-97.03 37.51 C-95.12 37.49, -93.38 37.76, -91.23 37.59 M-91.4 37.9 C-90.26 37.89, -89.37 37.82, -88.56 38.26 M-91.27 37.95 C-90.56 37.77, -90 37.92, -88.69 38.23 M-88.42 38 C-87.54 38.32, -86.67 38.48, -86.18 38.53 M-88.68 38.18 C-87.78 38.33, -86.68 38.31, -86.16 38.41 M-86.46 38.43 C-85.71 38.56, -85.08 38.62, -83.88 38.68 M-86.23 38.35 C-85.82 38.35, -85.26 38.4, -84.12 38.38 M-84.07 38.62 C-83.34 38.66, -82.75 38.37, -82.1 38.41 M-84.15 38.41 C-83.54 38.48, -83.04 38.48, -82.07 38.56 M-82.2 38.52 C-81.46 38.42, -80.83 38.37, -80.52 38.42 M-82.15 38.46 C-81.58 38.37, -81.21 38.36, -80.39 38.42 M-80.33 38.29 C-80.06 38.14, -79.55 38.11, -78.82 37.91 M-80.3 38.38 C-79.79 38.12, -79.36 38.12, -78.83 37.93 M-78.71 37.9 C-78.41 37.64, -77.91 37.53, -77.37 37.3 M-78.79 37.96 C-78.4 37.7, -77.91 37.58, -77.56 37.34 M-77.55 37.42 C-77.08 37.11, -76.78 36.79, -76.26 36.55 M-77.44 37.35 C-77.06 36.99, -76.78 36.82, -76.35 36.44 M-76.41 36.44 C-76.28 36, -76.17 35.74, -75.48 35.07 M-76.42 36.44 C-76.18 35.99, -75.94 35.67, -75.61 35.1 M-75.72 35.12 C-75.25 34.93, -75.11 34.3, -75.1 33.64 M-75.49 35.11 C-75.41 34.72, -75.14 34.2, -74.99 33.41 M-75.03 33.28 C-74.88 33.06, -74.84 32.08, -74.57 31.28 M-74.95 33.45 C-74.81 32.96, -74.79 32.38, -74.5 31.48 M-74.83 31.57 C-74.4 30.42, -74.55 30, -74.69 28.94 M-74.49 31.51 C-74.49 30.63, -74.38 29.93, -74.4 28.75 M-74.19 29.09 C-74.65 28.07, -74.84 27.11, -74.64 25.55 M-74.34 28.72 C-74.59 27.89, -74.63 26.88, -74.63 25.69 M-74.57 25.96 C-74.47 24.14, -75 22.85, -75.32 22.1 M-74.53 25.73 C-74.66 24.87, -74.78 23.9, -75.16 21.94 M-75.04 22.05 C-75.17 21.93, -75.3 21.66, -75.48 21.52 M-75.08 22.09 C-75.18 21.97, -75.24 21.82, -75.49 21.53 M-75.58 21.51 C-75.64 21.47, -75.86 21.33, -76.15 21.06 M-75.52 21.57 C-75.81 21.35, -76.06 21.19, -76.2 21.1 M-76.25 21.17 C-76.55 21.01, -76.86 20.79, -77.1 20.68 M-76.21 21.09 C-76.52 20.94, -76.9 20.8, -77.1 20.75 M-77.01 20.78 C-77.41 20.65, -77.85 20.59, -78.05 20.48 M-77.03 20.7 C-77.35 20.65, -77.56 20.56, -78.18 20.47 M-78.05 20.28 C-78.89 20.13, -79.52 20.44, -80.6 19.95 M-78.12 20.32 C-78.64 20.42, -79.27 20.13, -80.71 19.94 M-80.88 19.92 C-81.02 20.19, -81.89 19.94, -83.7 19.49 M-80.65 19.95 C-81.66 20.04, -82.44 19.9, -83.69 19.62 M-83.32 19.66 C-84.54 19.68, -84.77 19.34, -86.41 19.55 M-83.59 19.65 C-84.7 19.55, -85.8 19.45, -86.68 19.46 M-86.54 19.67 C-87.47 19.11, -88.35 18.88, -89.19 19.16 M-86.61 19.34 C-87.28 19.23, -87.67 19.26, -89.36 18.95 M-89.55 19.02 C-89.87 19.09, -90.74 18.63, -91.64 18.37 M-89.46 19.05 C-90.03 18.81, -90.57 18.76, -91.65 18.52 M-91.83 18.42 C-91.95 18.36, -92.26 18.16, -92.83 17.99 M-91.77 18.37 C-92.12 18.23, -92.44 18.14, -92.77 18.02 M-92.82 17.94 C-92.92 17.84, -93.29 17.78, -93.44 17.55 M-92.78 18.04 C-92.97 17.84, -93.1 17.72, -93.5 17.53 M-93.42 17.17 C-93.53 16.1, -92.51 14.29, -92.63 12.42 M-93.64 17.66 C-93.36 15.85, -92.5 14.46, -92.49 12.14 M-91.73 12.48 C-92 10.22, -91.58 8.08, -90.74 6.89 M-92.39 12.16 C-91.91 11.06, -91.82 9.91, -90.82 6.79 M-91.07 6.83 C-90.01 7.16, -88.01 6.83, -86.29 6.51 M-90.98 6.9 C-89.53 6.87, -88.67 6.98, -86.5 6.92 M-86.32 6.92 C-85.15 6.84, -84.38 6.92, -82.56 6.34 M-86.45 6.85 C-84.93 6.76, -83.87 6.7, -82.9 6.34 M-82.88 6.67 C-82.05 6.21, -81.48 6.2, -80 5.76 M-82.8 6.38 C-81.77 6.32, -80.94 5.86, -79.83 5.7 M-79.55 5.69 C-78.89 5.58, -77.42 5.08, -77.23 4.64 M-79.62 5.66 C-78.71 5.36, -77.51 4.85, -76.89 4.66 M-76.89 4.6 C-76.01 4.06, -75.77 3.87, -74.78 3.57 M-77.07 4.61 C-76.28 4.25, -75.45 3.62, -74.86 3.36 M-74.7 3.58 C-73.88 2.67, -73.28 2.38, -72.89 2.01 M-74.72 3.43 C-74.39 2.97, -73.95 2.56, -72.87 1.84 M-72.89 2 C-72.31 1.48, -71.83 0.86, -71.44 0 M-72.94 1.73 C-72.32 1.08, -72 0.51, -71.29 -0.17 M-71.19 -0.12 C-70.69 -1.12, -70.51 -1.75, -70.14 -2.11 M-71.39 -0.09 C-71.2 -0.46, -70.94 -0.86, -70.07 -2.2 M-70.2 -2.33 C-69.76 -2.93, -69.29 -3.64, -69.17 -4.64 M-70.03 -2.1 C-69.93 -2.75, -69.64 -3.39, -69.13 -4.54 M-69.19 -4.72 C-68.57 -5.1, -68.58 -6.3, -68.39 -7.19 M-68.97 -4.5 C-68.83 -5.11, -68.71 -5.82, -68.35 -7.1 M-68.06 -6.99 C-67.82 -8.38, -66.84 -10.45, -66.71 -12.59 M-68.22 -6.83 C-67.54 -9.35, -66.79 -11.56, -67.1 -12.71 M-67.06 -12.4 C-66.31 -13.79, -66.32 -14.93, -66.01 -18.72 M-66.86 -12.74 C-66.51 -15.01, -65.44 -17.47, -65.62 -18.42 M-64.83 -18.26 C-64.42 -20.44, -64.06 -22.02, -63.32 -25.53 M-65.31 -18.68 C-65.14 -20.63, -64.49 -23.31, -63.78 -24.99 M-63.71 -25.08 C-63.47 -25.14, -63.36 -25.08, -62.86 -24.91 M-63.78 -25.1 C-63.49 -25.08, -63.21 -25.04, -62.82 -24.96 M-62.76 -25.08 C-62.58 -24.87, -62.36 -24.98, -61.79 -24.71 M-62.81 -24.93 C-62.52 -24.91, -62.14 -24.84, -61.73 -24.84 M-61.94 -24.79 C-61.01 -24.51, -60.25 -24.34, -59.24 -24.21 M-61.8 -24.81 C-61.03 -24.62, -60.32 -24.53, -59.23 -24.34 M-59.13 -24.3 C-58.52 -24.16, -57.65 -23.66, -56.83 -23.38 M-59.27 -24.4 C-58.31 -23.99, -57.45 -23.76, -56.91 -23.54 M-56.97 -23.62 C-56.7 -23.51, -56.48 -23.37, -55.85 -23.12 M-56.93 -23.54 C-56.68 -23.42, -56.47 -23.31, -55.92 -23.02 M-55.97 -22.92 C-55.73 -22.75, -55.43 -22.49, -55.28 -22.23 M-55.94 -22.97 C-55.79 -22.8, -55.59 -22.63, -55.22 -22.35 M-55.16 -22.26 C-55.88 -21.04, -56.57 -17.81, -55.9 -15.65 M-55.36 -22 C-55.82 -19.65, -56.31 -17.62, -56.28 -15.64 M-56.83 -15.05 C-56.73 -14.12, -57 -12.3, -57.36 -8.34 M-56.46 -15.3 C-56.93 -13.21, -57.08 -10.79, -57.97 -9.2 M-58.29 -8.3 C-57.4 -7.79, -58.5 -6.46, -58.72 -2.46 M-57.45 -9.06 C-57.99 -6.64, -58.71 -4.43, -58.98 -2.15 M-58.73 -2.34 C-59.13 -1.23, -59.43 1.15, -59.76 3.99 M-58.7 -2.14 C-59.65 0.1, -59.65 2.45, -59.97 4.5 M-59.85 4.48 C-59.78 4.63, -59.74 4.72, -59.71 4.79 M-59.82 4.45 C-59.79 4.55, -59.76 4.63, -59.66 4.81 M-59.65 4.85 C-59.58 4.93, -59.46 4.95, -59.33 5.04 M-59.67 4.82 C-59.55 4.91, -59.4 4.98, -59.3 5.02 M-59.38 5.07 C-59.04 5.09, -58.82 5.15, -58.54 5.04 M-59.33 5 C-59.02 5.06, -58.76 5.02, -58.45 5.1 M-58.42 5.04 C-57.97 5.13, -57.37 5.23, -57.02 5.19 M-58.54 5.16 C-57.85 5.09, -57.42 5.17, -57.06 5.12 M-57.14 5.21 C-56.75 5.11, -56.32 5.29, -55.83 5.26 M-57.08 5.13 C-56.76 5.14, -56.42 5.15, -55.86 5.23 M-55.89 5.36 C-55.17 5.2, -54.41 5.56, -53.66 5.65 M-55.85 5.14 C-55.14 5.34, -54.46 5.46, -53.91 5.58 M-53.93 5.55 C-53.41 5.75, -52.78 5.91, -51.93 6.2 M-53.85 5.59 C-53.29 5.84, -52.54 6.05, -51.99 6.06 M-52.07 6.03 C-51.09 6.17, -50.76 6.64, -49.61 7 M-51.99 6.26 C-51.59 6.26, -51.12 6.34, -49.92 6.92 M-49.93 6.86 C-49.07 6.92, -48.61 7.04, -48.08 7.07 M-49.76 6.89 C-49.43 6.9, -49.09 6.99, -47.9 7.01 M-47.98 7.17 C-47.3 7.1, -46.54 6.68, -46.18 6.66 M-47.97 7.16 C-47.4 7.07, -46.78 6.89, -46.03 6.72 M-45.97 6.57 C-45.54 6.45, -44.96 6.21, -44.5 5.8 M-46.05 6.69 C-45.49 6.31, -44.92 6.12, -44.29 5.8 M-44.18 5.79 C-43.68 5.4, -43.05 4.59, -42.8 4.32 M-44.3 5.66 C-43.76 5.29, -43.13 4.61, -42.67 4.42 M-42.64 4.23 C-42.13 3.83, -41.67 3.14, -41.3 2.63 M-42.77 4.42 C-42.4 3.94, -42.08 3.47, -41.36 2.8 M-41.1 2.86 C-40.79 2.51, -40.92 2.32, -40.09 1.27 M-41.22 2.72 C-40.89 2.31, -40.64 1.96, -39.92 1.07 M-40.11 1.1 C-39.82 0.47, -39.26 0.11, -38.8 -0.5 M-40.02 1.19 C-39.72 0.76, -39.46 0.42, -38.83 -0.7 M-39.01 -0.6 C-38.65 -0.84, -38.41 -1.12, -38.02 -2.14 M-38.9 -0.51 C-38.7 -1.01, -38.38 -1.28, -37.81 -2.12 M-37.86 -2.12 C-37.31 -4.31, -36.86 -5.78, -36.76 -9.2 M-37.82 -2.2 C-37.82 -4.08, -37.24 -6.2, -37.17 -8.34 M-36.85 -8.62 C-36.36 -10.67, -36.59 -13.61, -37.06 -15.17 M-37.34 -8.69 C-37.45 -9.99, -36.76 -11.58, -36.61 -14.86 M-35.84 -15.54 C-35.8 -16.52, -35.72 -17.86, -35.55 -21.31 M-36.67 -15.09 C-36.25 -16.61, -35.8 -17.56, -35.03 -21.4 M-35.27 -20.99 C-35.13 -22.04, -34.61 -22.86, -34.32 -24.32 M-35.18 -21.18 C-34.88 -22.07, -34.57 -23.07, -34.38 -24.23 M-34.43 -23.94 C-33.57 -25.04, -33.22 -26.19, -33.04 -26.71 M-34.13 -24.06 C-33.96 -24.75, -33.84 -25.59, -33.2 -26.92 M-33.53 -26.99 C-32.29 -26.79, -31.34 -26.69, -30.46 -26.53 M-33.1 -26.67 C-32.53 -26.75, -31.71 -26.69, -30.18 -26.33 M-30.37 -26.19 C-29.3 -25.89, -28.48 -26.24, -27.48 -25.64 M-30.36 -26.43 C-29.4 -26.32, -28.48 -26.02, -27.43 -25.67 M-27.3 -25.9 C-26.53 -25.27, -25.61 -25.51, -24.51 -24.8 M-27.57 -25.65 C-26.5 -25.47, -25.58 -25.13, -24.6 -24.88 M-24.41 -25.19 C-23.47 -24.54, -22.21 -24.3, -21.52 -23.88 M-24.79 -25.16 C-23.66 -24.65, -22.78 -24.62, -21.61 -24.06 M-21.7 -24.18 C-21.49 -24.09, -21.24 -23.98, -20.92 -23.69 M-21.68 -24.07 C-21.53 -23.97, -21.33 -23.95, -20.92 -23.63 M-20.91 -23.58 C-20.86 -23.47, -20.78 -23.24, -20.7 -23.09 M-20.88 -23.63 C-20.86 -23.46, -20.76 -23.33, -20.68 -23.08 M-20.62 -23.16 C-20.66 -22.85, -20.77 -22.65, -20.83 -22.31 M-20.71 -23.1 C-20.74 -22.89, -20.69 -22.74, -20.75 -22.34 M-20.88 -22.38 C-20.91 -22.01, -20.93 -21.65, -20.88 -21.22 M-20.76 -22.36 C-20.84 -22.07, -20.89 -21.83, -20.98 -21.19 M-20.56 -21 C-21.58 -18.51, -21.9 -16.25, -21.79 -14.88 M-21.1 -20.91 C-21.43 -18.46, -21.42 -15.79, -21.95 -14.14 M-21.84 -13.87 C-21.63 -12.32, -22.71 -10.04, -22.59 -7.28 M-22.03 -14.61 C-22.43 -11.83, -22.48 -8.83, -22.69 -7.33 M-23.55 -7.32 C-23.45 -5.28, -24.15 -2.46, -23.41 -0.7 M-23.06 -7.11 C-23.03 -5.42, -23.16 -3.37, -23.4 -0.58 M-23.92 -0.63 C-23.77 0.61, -23.9 1.59, -23.67 3.37 M-23.68 -0.49 C-23.68 0.55, -23.72 1.89, -24.01 3.07 M-23.94 3.19 C-24.21 3.94, -24.14 4.84, -23.61 6.39 M-23.89 3.12 C-23.84 3.8, -23.96 4.88, -23.84 6.52 M-23.89 6.48 C-23.72 6.71, -23.68 6.81, -23.48 6.96 M-23.89 6.51 C-23.76 6.64, -23.68 6.8, -23.5 6.99 M-23.46 7 C-23.31 7.11, -23.17 7.15, -22.96 7.42 M-23.52 6.98 C-23.35 7.16, -23.14 7.23, -22.98 7.36 M-23.09 7.39 C-22.47 7.61, -22.04 7.62, -21.41 7.79 M-22.93 7.42 C-22.61 7.5, -22.12 7.61, -21.43 7.79 M-21.42 7.58 C-20.81 7.59, -19.73 7.71, -19.19 7.65 M-21.42 7.72 C-20.74 7.83, -19.95 7.87, -19.39 7.81 M-19.45 7.62 C-18.89 7.9, -18.3 7.54, -17.14 7.59 M-19.39 7.73 C-18.56 7.77, -17.85 7.7, -17.14 7.65 M-16.95 7.61 C-16.59 7.66, -15.66 7.75, -14.71 7.46 M-17 7.57 C-16.58 7.7, -16.06 7.6, -14.77 7.47 M-14.51 7.73 C-13.95 7.71, -13.24 7.37, -12.56 7.49 M-14.64 7.61 C-14.08 7.41, -13.53 7.4, -12.46 7.61 M-12.31 7.43 C-11.57 7.51, -11.06 7.91, -10.57 7.83 M-12.48 7.43 C-12.01 7.53, -11.58 7.77, -10.49 7.89 M-10.58 7.9 C-10.26 7.91, -10.06 8.16, -9.83 8.13 M-10.53 7.84 C-10.24 7.94, -10 8.14, -9.73 8.18 M-9.7 8.25 C-9.65 8.32, -9.43 8.43, -9.14 8.72 M-9.74 8.2 C-9.56 8.32, -9.35 8.46, -9.09 8.66 M-9.55 8.99 C-9.54 9.47, -9.18 11.26, -10.05 13.32 M-9.23 8.58 C-9.46 10.47, -9.43 12.11, -9.63 13.52 M-10.02 13.72 C-9.63 15.16, -9.99 16.64, -10.8 19.14 M-9.53 13.61 C-9.76 15.39, -9.98 16.95, -10.67 18.91 M-10.41 18.59 C-12.04 18.86, -13.17 18.51, -13.87 17.99 M-10.7 18.69 C-11.64 18.36, -12.97 18.22, -13.94 18.35 M-14.14 18.53 C-14.69 18.07, -15.63 18.36, -17.37 18.49 M-14 18.4 C-14.81 18.06, -15.79 18.15, -17.54 18.44 M-17.37 18.06 C-18.67 18.81, -18.84 18.36, -21.39 18.84 M-17.87 18.37 C-19.02 18.61, -20.34 18.98, -21.31 19.12 M-21.58 19.27 C-22.21 19.81, -23.66 20.26, -24.55 19.97 M-21.47 18.85 C-22.3 19.45, -23.3 19.71, -24.64 20.33 M-24.7 20.42 C-24.86 20.68, -25.31 20.59, -25.99 21.26 M-24.56 20.3 C-24.99 20.48, -25.4 20.7, -26.2 21.18 M-26.15 21.17 C-26.35 21.44, -26.68 21.84, -27.36 22.17 M-26.17 21.14 C-26.7 21.49, -27.09 21.94, -27.47 22.29 M-27.48 22.29 C-27.98 22.61, -28.51 23.16, -28.81 23.25 M-27.55 22.27 C-27.73 22.51, -28.03 22.8, -28.62 23.37 M-28.74 23.58 C-28.9 23.8, -29.4 24.47, -29.87 24.9 M-28.71 23.34 C-29.01 23.97, -29.47 24.44, -29.68 24.71 M-29.84 24.89 C-30.06 25.25, -30.32 25.63, -30.67 26.42 M-29.64 24.72 C-30.09 25.38, -30.22 25.87, -30.45 26.3 M-30.35 26.11 C-30.6 26.88, -31.06 27.42, -31 28.03 M-30.58 26.25 C-30.78 26.96, -30.96 27.62, -31 27.91 M-30.92 27.8 C-31.15 28.36, -31.26 28.9, -31.45 29.76 M-31.12 27.84 C-31.18 28.38, -31.32 28.98, -31.38 29.74 M-31.47 29.75 C-31.3 30.43, -31.2 31.25, -31.5 31.79 M-31.31 29.83 C-31.33 30.15, -31.42 30.63, -31.29 31.82 M-31.42 31.63 C-31.39 32.05, -31.45 32.52, -31.28 33.14 M-31.36 31.75 C-31.37 32.18, -31.35 32.59, -31.31 33.08 M-31.44 32.97 C-31.53 33.55, -31.38 33.83, -31.57 34.66 M-31.35 32.99 C-31.38 33.6, -31.47 33.99, -31.47 34.52 M-31.58 34.72 C-31.49 35.43, -31.43 35.77, -31.6 37.58 M-31.46 34.65 C-31.44 35.73, -31.61 36.99, -31.63 37.56 M-31.76 37.66 C-31.62 38.02, -31.68 38.09, -31.57 39.1 M-31.65 37.69 C-31.61 38.06, -31.51 38.58, -31.38 39.02 M-31.47 39 C-31.39 39.42, -31.16 39.7, -30.95 40.24 M-31.48 39.04 C-31.31 39.37, -31.13 39.68, -30.85 40.14 M-30.86 40.26 C-30.64 40.51, -30.23 40.56, -29.96 40.8 M-30.88 40.18 C-30.67 40.4, -30.33 40.6, -29.98 40.93 M-29.96 40.9 C-29.74 40.99, -29.56 40.93, -29.31 41.04 M-29.96 40.91 C-29.79 40.93, -29.69 40.94, -29.23 41.11 M-29.27 41.03 C-28.99 41.01, -28.81 41.04, -28.37 41.18 M-29.29 41.1 C-28.96 41.11, -28.6 41.13, -28.45 41.11 M-28.69 41.38 C-27.53 41.05, -26.56 41.68, -25.54 41.61 M-28.39 41.11 C-27.66 41.13, -27.01 41.21, -25.75 41.55 M-25.85 41.47 C-24.95 41.9, -23.83 41.84, -23.27 42.1 M-25.69 41.59 C-25.2 41.61, -24.52 41.86, -23.48 41.88 M-23.6 41.9 C-22.88 41.89, -22.3 42.13, -21.43 41.95 M-23.43 41.82 C-23.07 41.93, -22.47 41.96, -21.36 42 M-21.47 41.97 C-21.03 42.19, -20.87 42.12, -19.59 42.29 M-21.48 42.1 C-20.91 41.99, -20.63 42.03, -19.69 42.08 M-19.84 42.12 C-19.37 42.18, -19.21 42.28, -18.21 42.34 M-19.7 42.09 C-19.39 42.23, -18.95 42.17, -18.31 42.18 M-18.25 42.26 C-17.9 42.16, -17.59 42.37, -17.12 42.28 M-18.38 42.2 C-17.98 42.21, -17.52 42.29, -17.17 42.36 M-17.25 42.24 C-16.89 42.42, -16.57 42.32, -16.39 42.44 M-17.21 42.35 C-17.05 42.31, -16.81 42.38, -16.35 42.47 M-16.42 42.4 C-16.11 42.52, -15.86 42.59, -15.76 42.63 M-16.32 42.41 C-16.12 42.56, -15.83 42.63, -15.75 42.69 M-15.77 42.65 C-15.62 42.79, -15.55 42.9, -15.32 43.12 M-15.74 42.7 C-15.64 42.77, -15.56 42.84, -15.31 43.08 M-15.27 43.08 C-15.26 43.25, -15.16 43.48, -15.09 43.61 M-15.31 43.08 C-15.27 43.18, -15.2 43.35, -15.13 43.62 M-15.1 43.66 C-15.08 43.83, -15.08 44.03, -15.11 44.47 M-15.07 43.65 C-15.06 43.88, -15.12 44.04, -15.07 44.45 M-15.04 44.37 C-15.11 44.74, -15.06 44.83, -15.23 45.62 M-15.06 44.4 C-15.17 44.85, -15.2 45.3, -15.22 45.57 M-15.32 45.5 C-15.28 46.1, -15.32 46.56, -15.65 46.82 M-15.18 45.49 C-15.35 45.93, -15.37 46.31, -15.51 46.86 M-15.47 46.79 C-15.64 47.35, -15.67 47.95, -15.84 48.51 M-15.46 46.85 C-15.7 47.44, -15.68 47.85, -16.04 48.63 M-16.09 48.52 C-16.3 49.38, -16.44 49.9, -16.39 50.74 M-15.89 48.77 C-16.1 49.43, -16.27 50.31, -16.44 50.94 M-16.75 50.71 C-16.96 52.14, -17.07 52.72, -17.41 53.2 M-16.52 50.9 C-16.8 51.58, -16.88 52.66, -17.06 53.45 M-17.35 53.22 C-18.02 53.52, -18.42 53.32, -20.58 53.75 M-17.31 53.39 C-18.62 53.57, -19.9 53.55, -20.55 53.51 M-20.76 53.27 C-21.74 53.37, -22.39 53.69, -23.7 53.6 M-20.59 53.47 C-21.28 53.64, -22.1 53.7, -23.41 53.89 M-23.55 53.81 C-24.31 54.08, -24.74 53.99, -26.14 54.65 M-23.57 53.87 C-24.12 53.88, -24.73 54.18, -25.97 54.56 M-26.14 54.47 C-26.68 54.98, -27.45 55.35, -28.12 55.72 M-26.02 54.71 C-26.71 55.08, -27.35 55.38, -28.11 55.8 M-28.21 55.52 C-28.59 56.1, -29.37 56.75, -29.63 57.25 M-28.05 55.63 C-28.56 56.03, -28.89 56.5, -29.87 57.19 M-29.93 57.22 C-29.96 57.61, -30.71 58.12, -31.11 59.03 M-29.82 57.2 C-30.25 57.56, -30.52 58.12, -31.22 58.97 M-31.11 58.86 C-31.52 59.69, -32.3 60.3, -32.29 61.05 M-31.33 58.94 C-31.58 59.48, -32.07 60.08, -32.52 61.01 M-32.31 61.03 C-32.9 61.63, -33.26 62.54, -33.68 63.04 M-32.52 60.88 C-32.79 61.43, -32.88 61.87, -33.46 63.22 M-33.65 63.19 C-33.91 64.05, -34.13 65, -34.4 65.75 M-33.46 63.25 C-33.83 63.88, -33.94 64.37, -34.2 65.68 M-34.41 65.49 C-34.41 66.52, -34.97 67.4, -35.22 68.02 M-34.22 65.68 C-34.48 66.54, -34.7 67.35, -35.03 68.07 M-35.27 68.39 C-35.52 68.85, -35.82 70.25, -36.49 73.16 M-34.78 68.01 C-35.33 69.74, -35.54 71.3, -36.03 73.65 M-35.72 73.61 C-36.21 75.95, -36.59 77.39, -37.47 79.4 M-36.18 73.56 C-36.3 75.42, -36.79 77.82, -37.03 78.75 M-36.93 79.22 C-37.68 80.85, -38.29 81.73, -38.45 84.02 M-37.11 79.21 C-37.53 80.39, -38.09 81.87, -38.79 84.14 M-38.53 84.32 C-39.03 84.34, -39.23 84.31, -39.93 84.19 M-38.62 84.24 C-39.15 84.22, -39.46 84.12, -40.07 84.11 M-39.83 83.95 C-40.69 84.27, -41.6 83.98, -41.64 84.24 M-39.92 84.07 C-40.67 84.07, -41.21 84.1, -41.75 84.1 M-41.67 83.97 C-42.89 83.88, -44.66 84.02, -46.16 83.89 M-41.89 84.11 C-43.09 84.18, -44.24 84.27, -45.87 84.31 M-45.76 84.31 C-46.29 84.01, -46.69 84.26, -47.71 84.02 M-45.77 84.25 C-46.15 84.12, -46.49 84.13, -47.61 83.98 M-47.57 84.13 C-48.05 83.98, -48.56 83.68, -49.05 83.5 M-47.6 84.02 C-47.94 83.98, -48.12 83.88, -49.02 83.56 M-48.93 83.63 C-49.22 83.4, -49.4 83.26, -49.43 83.22 M-48.99 83.61 C-49.12 83.46, -49.3 83.31, -49.47 83.2 M-49.48 83.2 C-49.52 83.03, -49.65 82.87, -49.68 82.79 M-49.43 83.21 C-49.56 83.04, -49.64 82.92, -49.73 82.76 M-49.7 82.7 C-49.71 82.53, -49.76 82.34, -49.8 82.12 M-49.72 82.77 C-49.73 82.51, -49.77 82.33, -49.77 82.12 M-49.77 82.07 C-49.74 81.84, -49.65 81.59, -49.68 81.46 M-49.79 82.14 C-49.7 81.91, -49.7 81.62, -49.6 81.42 M-49.63 81.41 C-49.63 81.41, -49.62 81.42, -49.62 81.44 M-49.63 81.41 C-49.63 81.42, -49.62 81.43, -49.62 81.44 M-49.58 81.28 C-49.5 80.57, -49.63 79.46, -49.06 77.72 M-49.58 81.53 C-49.45 80.74, -49.32 79.67, -49.31 77.85 M-49.3 77.8 C-48.93 76.84, -48.46 76.12, -48.6 74.55 M-49.13 78.01 C-48.89 76.49, -48.67 75.33, -48.43 74.41 M-48.81 74.68 C-47.51 72.08, -46.98 69.08, -47.1 66.98 M-48.14 74.13 C-47.97 72.36, -47.52 71.17, -47.13 67.1 M-47.1 67.08 C-46.29 65.85, -46.7 64.78, -45.95 63.5 M-46.78 67.06 C-46.59 65.65, -46.43 64.46, -45.99 63.53 M-46.35 63.41 C-45.64 62.38, -45.77 60.93, -45.96 60.25 M-45.97 63.38 C-46.13 62.54, -45.93 61.79, -45.45 59.93 M-45.44 60.08 C-45.86 59.21, -45.72 58.26, -45.28 56.46 M-45.45 59.86 C-45.54 59.29, -45.54 58.27, -45.55 56.4 M-45.09 56.11 C-45.72 54.63, -45.52 53.33, -45.29 52.74 M-45.21 56.31 C-45.57 55.64, -45.45 54.94, -45.54 52.54 M-45.65 52.79 C-46.78 52.78, -48.08 52.84, -49.72 52.05 M-45.7 52.63 C-46.73 52.46, -47.84 52.53, -49.29 52.35 M-49.28 52.53 C-50.44 52.64, -51.87 52.77, -53.07 52.51 M-49.33 52.38 C-50.41 52.42, -51.06 52.42, -52.94 52.63 M-52.81 52.34 C-53.87 52.84, -54.56 53.04, -55.95 53.05 M-52.88 52.48 C-53.58 52.67, -54.53 52.73, -56.05 53.13 M-56.2 53.09 C-57.01 53.81, -57.51 53.57, -58.59 54.26 M-56.11 53.08 C-56.94 53.42, -57.38 53.65, -58.96 54.3 M-58.84 54.03 C-59.54 54.78, -60.58 55.53, -61.17 55.56 M-58.8 54.24 C-59.67 54.54, -60.48 55.1, -61.15 55.62 M-61.44 55.87 C-62.11 56.42, -62.74 57.06, -63.5 57.51 M-61.31 55.65 C-61.91 56.26, -62.66 56.93, -63.34 57.29 M-63.36 57.21 C-64.08 57.98, -64.52 58.91, -65.28 59.47 M-63.46 57.34 C-64.09 58.17, -64.78 58.92, -65.02 59.52 M-65.02 59.47 C-65.41 60.35, -66.06 60.72, -66.75 61.71 M-65.16 59.57 C-65.64 60.22, -66.03 60.88, -66.67 61.67 M-66.43 61.8 C-67.15 62.28, -67.23 63.41, -67.8 64.24 M-66.68 61.65 C-66.88 62.44, -67.29 63, -67.89 64.29 M-67.97 64.32 C-68.25 65.44, -68.47 65.94, -69.31 67.28 M-67.92 64.35 C-68.53 65.38, -68.87 66.49, -69.15 67.16 M-68.86 66.96 C-69.17 67.87, -69.8 68.3, -69.87 69.98 M-69.29 66.93 C-69.47 68.19, -70.01 69.4, -70.07 69.93 M-70.27 69.89 C-70.71 71.27, -70.4 72.32, -70.67 72.71 M-70.25 70.03 C-70.31 70.87, -70.79 72.04, -70.94 73 M-70.45 72.71 C-71.65 75.94, -71.6 78.29, -72.12 79.91 M-70.8 73.16 C-71.42 74.96, -71.47 76.59, -72.21 79.39 M-72.57 79.78 C-72.49 80.22, -72.65 82.46, -73.84 85.85 M-72.27 79.24 C-72.77 81.07, -73.02 83.42, -73.75 86.05 M-73.39 86.12 C-75.76 85.69, -77.4 85.49, -78.68 86.08 M-73.34 85.57 C-75.51 85.85, -77.41 85.67, -78.86 85.57 M-78.87 85.95 C-79.58 85.5, -80.55 85.72, -81.13 85.68 M-78.81 85.84 C-79.35 85.79, -79.9 85.66, -81.19 85.53 M-81.03 85.39 C-81.86 85.27, -82.7 84.99, -83.39 84.79 M-81.21 85.36 C-81.86 85.35, -82.47 84.99, -83.18 84.69 M-83.31 84.81 C-83.35 84.65, -83.48 84.53, -83.64 84.32 M-83.24 84.77 C-83.37 84.66, -83.49 84.55, -83.68 84.37 M-83.68 84.36 C-83.74 84.26, -83.73 84.11, -83.78 84.03 M-83.65 84.34 C-83.73 84.21, -83.77 84.1, -83.79 84.01 M-83.85 83.97 C-83.81 83.85, -83.83 83.73, -83.76 83.57 M-83.79 84.01 C-83.79 83.86, -83.77 83.72, -83.81 83.58 M-83.75 83.58 C-83.79 83.45, -83.83 83.18, -83.69 82.86 M-83.78 83.61 C-83.75 83.42, -83.78 83.24, -83.74 82.87 M-82.76 82.26 C-83.78 77.2, -81 72.18, -80.46 65.98 M-84.14 82.16 C-82.49 76.84, -82.86 71.4, -82.45 67.79 M-81.98 66.97 C-81.89 66.66, -81.67 66.21, -81.59 65.66 M-81.84 67.03 C-81.76 66.46, -81.72 66.06, -81.65 65.59 M-81.84 65.62 C-81.53 65.15, -81.61 64.73, -81.54 63.93 M-81.64 65.65 C-81.65 65.1, -81.48 64.55, -81.48 63.86 M-81.25 63.82 C-81.13 62.43, -81.54 61.51, -81.1 59.79 M-81.33 63.93 C-81.46 62.73, -81.33 61.98, -81.08 59.73 M-80.96 59.77 C-80.95 58.82, -81.02 58.38, -80.95 57.55 M-81 59.65 C-81.07 58.99, -81.03 58.21, -81.01 57.63 M-80.87 57.7 C-81.04 56.96, -81.17 56.51, -81.21 55.79 M-80.97 57.72 C-81.15 57.09, -81.26 56.63, -81.26 56.01 M-81.17 55.92 C-81.65 55.38, -81.81 54.81, -81.96 54.64 M-81.26 55.95 C-81.37 55.63, -81.56 55.39, -81.9 54.69 M-82.03 54.65 C-82.19 54.52, -82.37 54.42, -82.47 54.29 M-81.97 54.67 C-82.13 54.5, -82.3 54.4, -82.48 54.23 M-82.43 54.22 C-82.69 54.23, -82.8 54.11, -83.08 53.95 M-82.46 54.26 C-82.69 54.15, -82.89 54.09, -83.14 54.03 M-83.29 53.92 C-84.72 54.52, -85.48 54.6, -87.09 55.01 M-83.24 54.16 C-84.12 54.14, -85.22 54.46, -86.81 54.49 M-87.25 54.48 C-88.23 54.82, -89.21 54.75, -89.87 55 M-86.87 54.57 C-88.03 54.88, -89.1 55.11, -90 55.06 M-90.23 55.16 C-90.98 55.49, -92.03 55.26, -92.6 55.46 M-90.09 55.24 C-90.9 55.26, -91.86 55.35, -92.57 55.3 M-92.75 55.26 C-93.58 55.4, -94.01 55.33, -94.56 55.31 M-92.68 55.34 C-93.26 55.39, -93.74 55.33, -94.56 55.53 M-94.76 55.51 C-94.96 55.29, -95.25 55.32, -95.98 55.25 M-94.65 55.51 C-95.22 55.34, -95.74 55.3, -96.04 55.3 M-96.17 55.27 C-96.43 55.23, -96.57 55.04, -97.13 54.84 M-96.05 55.23 C-96.43 55.11, -96.8 55.05, -97.18 54.86 M-97.19 54.86 C-97.3 54.72, -97.57 54.34, -97.76 54.15 M-97.18 54.89 C-97.28 54.67, -97.51 54.51, -97.82 54.18 M-97.8 54.29 C-98.01 53.9, -98.11 53.62, -98.17 53.35 M-97.79 54.22 C-97.91 53.98, -97.95 53.81, -98.2 53.28 M-98.29 53.26 C-98.12 53, -98.23 52.85, -98.43 52.25 M-98.18 53.27 C-98.18 52.97, -98.23 52.68, -98.27 52.21 M-98.35 52.07 C-98.23 51.67, -98.22 50.98, -98.33 50.67 M-98.26 52.23 C-98.27 51.7, -98.26 51.2, -98.3 50.77 M-98.38 50.62 C-98.2 50.41, -98.02 49.79, -98.23 49.14 M-98.2 50.72 C-98.29 50.36, -98.11 50.03, -98.02 49.15 M-98.19 48.99 C-97.87 48.48, -98.02 47.68, -97.86 47.24 M-98 49.09 C-97.98 48.62, -97.95 47.94, -97.87 47.16 M-97.79 47.19 C-97.62 46.6, -97.94 46.12, -97.61 45.15 M-97.79 47.2 C-97.8 46.53, -97.68 45.94, -97.5 44.88 M-97.38 44.9 C-97.42 43.81, -97.25 42.84, -97.32 42.23 M-97.69 44.97 C-97.57 44.37, -97.44 43.84, -97.35 42.54 M-97.6 42.37 C-97.17 41.18, -97.34 40.43, -97.67 39.69 M-97.57 42.35 C-97.41 41.85, -97.49 41.3, -97.38 39.64 M-97.47 39.47 C-97.36 38.21, -97.5 37.3, -97.8 36.69 M-97.28 39.48 C-97.32 38.58, -97.58 37.57, -97.68 36.64 M-98.33 36.99 C-97.35 40.8, -97.88 44.83, -99.42 46.62 M-97.11 36.21 C-97.76 39.78, -98.17 43.1, -98.8 47.25 M-99.23 46.6 C-98.7 50.16, -100.75 53.85, -101.46 57.71 M-98.59 46.25 C-99.31 48.99, -99.73 50.83, -100.52 56.45 M-100.77 56.94 C-100.28 56.96, -100.07 57.29, -99.23 57.81 M-100.6 56.91 C-100.27 57.15, -99.88 57.48, -99.43 57.82 M-99.29 57.9 C-98.84 57.86, -98.36 58.23, -97.92 58.25 M-99.33 57.72 C-99 57.94, -98.7 58.02, -98.04 58.31 M-98.06 58.35 C-97.33 58.47, -96.98 58.6, -96.52 58.59 M-98.05 58.3 C-97.49 58.38, -97.01 58.49, -96.58 58.56 M-96.59 58.43 C-96.26 58.45, -95.68 58.62, -95.05 58.72 M-96.5 58.62 C-96.25 58.64, -96.04 58.58, -95.05 58.6 M-95.07 58.62 C-94.4 58.78, -93.52 58.48, -92.37 58.13 M-94.97 58.52 C-94.15 58.6, -93.3 58.53, -92.08 58.34 M-92.32 58.24 C-91.22 58.11, -90 58.46, -89.33 58.25 M-92.22 58.52 C-91.47 58.2, -90.6 58.15, -89.7 58.13 M-89.65 58.07 C-89.41 58.07, -89.11 58.12, -88.47 58.21 M-89.6 58.18 C-89.2 58.09, -88.89 58.12, -88.41 58.17 M-88.48 58.07 C-88.15 58.23, -87.93 58.3, -87.5 58.28 M-88.45 58.18 C-88.05 58.27, -87.75 58.33, -87.37 58.38 M-87.37 58.4 C-87.09 58.56, -86.85 58.65, -86.61 58.87 M-87.44 58.36 C-87.16 58.45, -87.03 58.59, -86.65 58.83 M-86.69 58.81 C-86.33 59.1, -86.16 59.41, -86.07 59.63 M-86.61 58.83 C-86.42 59.1, -86.21 59.33, -86.03 59.54 M-85.95 59.62 C-85.86 59.79, -85.99 60.04, -85.64 60.73 M-86.01 59.56 C-85.9 60.02, -85.83 60.35, -85.64 60.76 M-85.57 60.76 C-85.69 60.89, -85.53 61.41, -85.75 62.23 M-85.64 60.71 C-85.67 61.08, -85.63 61.5, -85.64 62.32 M-85.82 62.28 C-85.8 62.83, -85.64 63.44, -85.82 64.41 M-85.74 62.32 C-85.69 62.8, -85.78 63.42, -85.94 64.43 M-85.87 64.61 C-86.13 65.06, -86.19 65.94, -86.33 66.81 M-85.98 64.44 C-86.05 65.3, -86.42 66.14, -86.56 67.06 M-86.22 66.8 C-86.35 69.02, -86.6 70.05, -87.53 71.65 M-86.48 67.11 C-86.61 68.75, -86.87 69.92, -87.36 71.55 M-87.57 71.85 C-87.86 72.9, -87.53 74.35, -87.64 75.09 M-87.31 71.27 C-87.47 72.22, -87.57 73.05, -88.09 75.48 M-87.68 75.62 C-88.6 76.55, -88.78 78.01, -88.5 79.09 M-88.04 75.37 C-88.27 76.71, -88.47 77.71, -88.88 78.61 M-88.87 78.85 C-88.95 79.93, -89.36 80.46, -89.39 81.55 M-88.76 78.6 C-88.92 79.38, -89.09 80.12, -89.66 81.67 M-89.35 81.91 C-89.96 82.08, -90.07 82.82, -90.03 84.27 M-89.65 81.73 C-89.64 82.07, -89.83 82.69, -90.09 84.16 M-90.2 83.98 C-90.12 84.76, -90.3 85.27, -90.55 86.51 M-90.22 84.13 C-90.27 84.84, -90.57 85.25, -90.67 86.3 M-90.75 86.4 C-90.97 86.77, -90.88 87.68, -90.97 87.98 M-90.74 86.24 C-90.85 86.73, -90.77 87.3, -91.06 88 M-91.04 88.04 C-90.89 88.26, -91 88.78, -91.07 89.52 M-91 88.07 C-91.05 88.53, -90.97 89.05, -91.13 89.48 M-90.97 89.51 C-90.99 90.05, -90.99 90.27, -90.9 90.71 M-91.01 89.52 C-91.04 89.82, -91.01 90.16, -90.87 90.73 M-90.9 90.68 C-90.69 91.01, -90.55 91.29, -90.26 91.72 M-90.79 90.69 C-90.7 90.94, -90.52 91.12, -90.21 91.65 M-90.27 91.71 C-89.99 91.87, -89.75 92.11, -89.26 92.38 M-90.26 91.68 C-89.94 91.94, -89.48 92.21, -89.27 92.42 M-89.13 92.47 C-88.78 92.58, -88.29 92.88, -87.69 93.04 M-89.21 92.4 C-88.63 92.6, -88.04 92.89, -87.83 93.01 M-87.93 92.86 C-87 93.01, -86.32 93.26, -85.98 93.31 M-87.75 92.98 C-87.3 93.19, -86.78 93.18, -85.75 93.45 M-85.87 93.42 C-85.28 93.43, -84.41 93.92, -83.33 93.82 M-85.92 93.5 C-85.13 93.62, -84.42 93.64, -83.34 93.87 M-83.49 93.56 C-82.04 93.92, -81.25 93.83, -80.37 93.96 M-83.22 93.89 C-82.43 93.79, -81.82 93.92, -80.29 94.22 M-80.54 94.39 C-79.39 94.1, -77.94 94.35, -76.3 94.46 M-80.31 94.19 C-79.31 94.28, -78.19 94.19, -76.48 94.63 M-76.63 94.42 C-75.52 94.12, -75 93.8, -74.14 93.29 M-76.4 94.38 C-75.66 94.03, -74.95 93.78, -74.08 93.53 M-74.07 93.35 C-73.6 93.2, -73.1 92.44, -72.43 92.17 M-74.2 93.54 C-73.75 93.2, -73.15 92.73, -72.31 92.1 M-72.21 92.3 C-71.95 91.62, -71.14 91.06, -70.75 90.44 M-72.16 92.2 C-71.6 91.68, -70.93 91.11, -70.58 90.63 M-70.52 90.7 C-70.3 89.95, -69.64 89.42, -69.32 88.85 M-70.66 90.62 C-70.29 90.22, -69.99 89.82, -69.11 88.85 M-69.26 89.09 C-68.75 88.27, -68.53 87.83, -67.82 87.24 M-69.2 88.85 C-68.93 88.43, -68.45 87.8, -67.98 86.95 M-67.8 87.18 C-67.68 86.3, -67.41 85.43, -66.89 84.89 M-67.96 87.11 C-67.8 86.51, -67.44 85.92, -66.92 85.03 M-67.16 85.26 C-66.17 84.2, -66.51 82.64, -65.25 80.37 M-66.94 85.07 C-66.37 83.7, -66.19 82.2, -65.28 80.55 M-65.28 80.09 C-65.3 79.21, -65.1 77.23, -63.82 75.83 M-65.39 80.32 C-65.35 79.71, -65.21 78.64, -64.47 75.69 M-63.79 75.81 C-63.88 74.79, -63.91 72.63, -63.3 71.2 M-64.4 76.03 C-64.07 74.29, -63.43 72.53, -63.54 70.84 M-62.87 71.2 C-62.99 69.18, -63 67.08, -62.05 66.66 M-63.32 71.14 C-62.96 69.81, -62.96 68.13, -62.11 66.47 M-62.41 66.44 C-61.62 64.92, -61.62 63.17, -61.23 62.39 M-62.4 66.56 C-61.66 64.72, -61.23 62.85, -60.98 62.04 M-61.39 61.96 C-60.2 61.69, -58.94 61.93, -57.91 61.97 M-61.04 62.07 C-59.77 61.83, -58.58 61.87, -58.14 61.83 M-58.18 61.78 C-57.46 61.55, -56.77 61.88, -54.97 61.55 M-58.02 61.77 C-57.3 61.87, -56.6 61.63, -54.88 61.79 M-55.03 61.6 C-54.55 62.65, -54.94 63.97, -54.9 64.97 M-54.85 61.88 C-54.91 62.64, -54.77 63.73, -54.66 64.66 M-54.87 64.72 C-54.88 65.31, -55.03 65.96, -55.18 67.78 M-54.7 64.83 C-54.92 65.38, -54.76 65.99, -54.99 67.75 M-55.05 67.46 C-55.25 68.46, -55.04 69.14, -55.7 70.42 M-55.09 67.53 C-55.1 68.32, -55.27 68.88, -55.51 70.47 M-55.54 70.54 C-55.72 71.25, -55.89 72.63, -56.33 73.34 M-55.6 70.71 C-55.6 71.75, -55.94 72.82, -56.26 73.69 M-56.7 73.75 C-56.54 74.66, -56.86 76.3, -58.09 79.21 M-56.07 73.35 C-56.36 74.76, -56.61 76.53, -57.44 79.66 M-57.63 79.7 C-58.53 81.06, -58.66 83.14, -59.34 84.89 M-57.59 79.41 C-58.14 81.02, -58.85 83.06, -59.08 85.27 M-59.11 85.27 C-58.93 84.98, -58.95 84.79, -58.76 84.6 M-59.04 85.34 C-59.01 85.09, -58.89 84.79, -58.78 84.53 M-58.94 84.86 C-59.64 85.76, -59.34 87.01, -60.15 89.43 M-58.79 84.52 C-59.3 86.09, -59.68 87.81, -60.02 88.95 M-60.23 89.22 C-60.51 89.6, -60.59 90.15, -60.58 91.19 M-60.28 89.02 C-60.43 89.91, -60.45 90.5, -60.72 91.37 M-60.53 91.55 C-60.82 92.03, -60.84 92.6, -61.14 93.69 M-60.82 91.32 C-60.77 92.2, -60.78 92.91, -60.8 93.8 M-60.9 93.67 C-60.62 93.79, -60.42 93.98, -60.15 94.15 M-60.89 93.66 C-60.74 93.9, -60.49 94.04, -60.24 94.19 M-60.32 94.25 C-59.81 94.41, -59.61 94.52, -59.32 94.66 M-60.24 94.23 C-60.04 94.36, -59.79 94.48, -59.37 94.64 M-59.52 94.54 C-58.83 94.76, -57.8 95.28, -57.13 95.2 M-59.41 94.62 C-58.72 94.94, -58.17 94.93, -57.39 95.13 M-57.23 95.29 C-56.66 95.28, -55.74 95.2, -55.06 95.61 M-57.22 95.26 C-56.46 95.28, -55.86 95.32, -54.93 95.39 M-54.86 95.23 C-54.39 95.65, -53.33 95.45, -52.23 95.7 M-54.92 95.62 C-54.19 95.55, -53.43 95.56, -52.22 95.49 M-52.06 95.22 C-49.95 96.07, -48.07 95.02, -46.3 94.93 M-51.87 95.52 C-50.98 95.55, -49.43 95.73, -46.64 95.19 M-46.54 95.41 C-45.7 95.69, -44.97 95.31, -44.35 95.28 M-46.76 95.53 C-46.06 95.51, -45.55 95.46, -44.26 95.46 M-44 95.36 C-43.63 95.39, -42.88 95.73, -42.2 95.65 M-44.27 95.37 C-43.36 95.44, -42.51 95.5, -42.07 95.68 M-42.21 95.59 C-41.25 95.06, -40.7 94.99, -39.63 94.49 M-42.08 95.47 C-41.5 95.2, -40.86 95.02, -39.75 94.51 M-39.86 94.53 C-39.49 94.12, -38.96 93.67, -37.84 93.31 M-39.8 94.47 C-39.34 94.24, -39 93.75, -37.96 93.09 M-37.85 93.07 C-37.17 92.67, -36.76 92.38, -36.03 91.73 M-37.93 93.07 C-37.37 92.51, -36.78 92.17, -36.12 91.51 M-36.15 91.77 C-35.74 90.94, -35.2 90.4, -34.44 90.01 M-36.02 91.55 C-35.67 91.2, -35.4 90.62, -34.66 89.97 M-34.47 90.06 C-34.16 89.5, -33.89 89.18, -33.5 87.97 M-34.7 89.83 C-34.35 89.39, -33.87 88.95, -33.34 88.09 M-33.27 87.97 C-33.25 87.53, -32.75 87.38, -32.2 86.31 M-33.23 88.05 C-33.05 87.58, -32.56 87.06, -32.24 86.15 M-32.2 85.99 C-31.65 85.18, -31.3 83.89, -29.94 82.29 M-31.93 85.99 C-31.33 84.81, -31.11 83.43, -30.28 82.03 M-29.86 81.94 C-30.07 80.81, -29.51 78.43, -29.22 77.28 M-30.34 82.01 C-29.77 80.81, -29.62 79.62, -29.11 77.34 M-28.64 77.78 C-28.54 76.37, -28.22 74.76, -27.47 72.84 M-29 77.42 C-28.59 76.28, -28.22 75.21, -28.04 72.7 M-27.76 72.32 C-27.8 69.84, -27.94 68.33, -25.82 63.02 M-27.83 72.35 C-27.23 70.3, -26.48 67.06, -26.43 63.45 M-26.26 63.01 C-25.36 62.97, -25.2 63.09, -23.45 62.87 M-26.1 63.13 C-25.16 63.08, -24.12 63.04, -23.38 63 M-23.28 62.98 C-22.7 63.19, -21.87 62.81, -20.55 62.65 M-23.46 63.11 C-22.36 63.07, -21.21 62.87, -20.8 62.87 M-20.78 62.94 C-20.5 62.77, -19.63 62.45, -18.5 62.23 M-20.86 62.86 C-20.13 62.62, -19.32 62.39, -18.63 62.15 M-18.34 62.1 C-17.91 62.03, -17.53 61.71, -16.58 60.97 M-18.44 62.16 C-17.96 61.77, -17.2 61.59, -16.44 61.11 M-16.42 61.1 C-15.95 60.58, -15.35 60.39, -14.61 59.86 M-16.55 61.06 C-16.17 60.84, -15.65 60.59, -14.67 59.95 M-14.63 59.96 C-14.28 59.5, -13.77 58.62, -13.39 58.23 M-14.79 59.95 C-14.38 59.65, -13.99 59.31, -13.29 58.34 M-13.26 58.15 C-13.05 57.77, -12.43 57.44, -11.75 56.42 M-13.14 58.42 C-12.8 57.78, -12.5 57.52, -11.87 56.64 M-11.62 56.65 C-11.25 55.6, -10.88 54.77, -10.73 54.37 M-11.76 56.48 C-11.73 56.04, -11.45 55.65, -10.68 54.55 M-10.47 54.38 C-10.43 54.02, -10.17 53.54, -9.7 52.42 M-10.63 54.53 C-10.36 54.09, -10.11 53.53, -9.64 52.3 M-9.45 52.6 C-9.24 51.47, -8.9 51.05, -8.75 49.88 M-9.72 52.35 C-9.31 51.38, -9.06 50.49, -8.82 49.96 M-8.39 50.4 C-8.6 48.35, -7.55 47.54, -7.25 45.41 M-8.98 50.21 C-8.45 48.3, -7.68 46.79, -7.29 45 M-7.42 44.98 C-7.25 42.95, -6.78 41.6, -6.81 39.55 M-7.4 44.95 C-6.97 43.11, -6.32 41.06, -6.26 39.83 M-6.03 40.27 C-5.88 37.81, -5.41 36.76, -5.35 35.25 M-6.16 40.3 C-6.29 38.93, -6.15 37.43, -5.62 34.94 M-5.3 35.04 C-5.41 34.66, -5.62 34.42, -5.56 34.31 M-5.36 35.04 C-5.44 34.79, -5.49 34.62, -5.62 34.26 M-5.71 34.28 C-5.81 33.99, -6.05 33.86, -6.24 33.67 M-5.67 34.23 C-5.84 34.14, -5.99 33.92, -6.31 33.71 M-6.32 33.76 C-6.6 33.67, -6.94 33.35, -7.21 33.39 M-6.29 33.65 C-6.59 33.6, -6.75 33.45, -7.3 33.31 M-7.33 33.34 C-7.59 33.14, -7.88 33.08, -8.49 32.9 M-7.3 33.33 C-7.73 33.18, -8.28 33.11, -8.57 33 M-8.84 33.15 C-9.28 32.71, -10.62 33.17, -11.39 32.79 M-8.55 33.16 C-9.16 32.91, -9.84 32.92, -11.66 32.59 M-11.95 32.44 C-12.69 32.67, -13.62 32.34, -14.75 32.88 M-11.68 32.77 C-12.76 32.81, -13.75 32.52, -15.19 32.46 M-14.81 32.6 C-15.64 32.19, -16.31 32.63, -18.32 32.36 M-15.05 32.59 C-16.16 32.58, -17.59 32.2, -18.26 32.41 M-18.26 32.23 C-18.79 32.18, -19.03 31.99, -19.69 31.9 M-18.3 32.21 C-18.85 32.19, -19.3 32.06, -19.82 32.03 M-19.81 31.89 C-20.22 31.85, -20.39 31.87, -21.06 31.47 M-19.73 32 C-20.05 31.85, -20.38 31.82, -20.92 31.57 M-21.05 31.56 C-21.16 31.35, -21.51 31.39, -22.01 30.99 M-21.03 31.58 C-21.2 31.49, -21.35 31.31, -21.96 31.08 M-21.92 31.1 C-22 30.82, -22.1 30.7, -22.55 30.35 M-21.89 31 C-22.05 30.87, -22.19 30.71, -22.5 30.26 M-22.44 30.19 C-22.51 29.86, -22.63 29.51, -22.59 29.38 M-22.51 30.31 C-22.59 29.98, -22.62 29.69, -22.67 29.28 M-22.64 29.2 C-22.55 28.95, -22.35 28.44, -22.48 28.13 M-22.62 29.35 C-22.62 29.03, -22.53 28.85, -22.42 28.14 M-22.61 28.13 C-21.29 27.9, -20.11 28.08, -19.1 28.81 M-22.41 28.06 C-21.46 28.18, -20.38 28.23, -18.93 28.45 M-18.71 28.61 C-17.79 28.6, -16.42 28.26, -16.07 28.24 M-19.03 28.59 C-18.02 28.4, -17.29 28.4, -15.73 28.41 M-15.57 28.5 C-14.9 28.58, -14.11 28.11, -13.25 28.03 M-15.73 28.56 C-14.95 28.31, -13.77 28.36, -13.18 28.2 M-13.1 28.02 C-12.74 27.76, -11.85 27.94, -10.61 27.47 M-13.14 28.11 C-12.52 27.96, -12.12 27.65, -10.88 27.22 M-10.62 27.27 C-10.03 26.97, -9.33 26.54, -8.99 26.33 M-10.88 27.35 C-10.16 27.15, -9.78 26.76, -8.73 26.22 M-8.56 26.2 C-8.12 25.71, -7.79 25.29, -6.9 24.56 M-8.79 26.12 C-8.4 25.81, -8.13 25.64, -7.09 24.82 M-7.03 24.63 C-6.41 23.9, -6.14 23.47, -5.49 23.07 M-7.1 24.79 C-6.64 24.25, -6.06 23.62, -5.65 22.97 M-5.6 22.98 C-5.4 22.52, -4.78 22.01, -4.42 20.95 M-5.59 23.04 C-5.27 22.39, -4.93 21.92, -4.42 21.06 M-4.34 20.92 C-3.82 20.36, -3.6 20.04, -3.5 18.58 M-4.25 20.96 C-4 20.21, -3.77 19.53, -3.27 18.68 M-3.55 18.57 C-3.12 17.72, -2.76 17.35, -2.25 16.23 M-3.39 18.7 C-3.17 17.94, -2.79 17.41, -2.49 16.45 M-2.46 16.62 C-2.16 15.71, -1.88 14.78, -1.68 13.99 M-2.45 16.45 C-2.31 15.31, -2.03 14.33, -1.81 13.74 M-1.89 14.08 C-1.78 12.8, -1.25 12.08, -1.43 11.06 M-1.72 13.77 C-1.59 13.36, -1.58 12.78, -1.2 11.32 M-1.42 11.41 C-0.95 9.38, -1.37 8.27, -0.52 5.44 M-1.08 10.98 C-1.21 9.66, -0.58 7.74, -0.67 5.63 M-0.47 5.52 C-0.1 4.18, -0.8 2.73, 0.25 0.23 M-0.41 5.37 C-0.06 3.58, -0.14 1.38, -0.07 0.07 M0 0 C0 0, 0 0, 0 0 M0 0 C0 0, 0 0, 0 0 M0 0 C0 0, 0 0, 0 0 M0 0 C0 0, 0 0, 0 0" stroke="#000000" stroke-width="1" fill="none"/></g></g><g stroke-linecap="round"><g transform="translate(68.36824881285884 68.56002122713926) rotate(0 -8.303267379010322 8.1601062630059)" fill-rule="evenodd"><path d="M-0.15 -1.38 L-0.32 1.93 L-2.75 -1.06 L-4.81 0.51 L-6.3 -0.08 L-10.43 -0.74 L-11.64 -0.69 L-11.51 1.44 L-14.62 1.43 L-16.42 -0.61 L-15.14 1.63 L-15.62 2.51 L-17.2 2.35 L-17.6 5.26 L-16.81 9.06 L-16.94 11.14 L-18.09 10.32 L-18.26 16.75 L-16.52 13.68 L-15.49 14.95 L-13.94 11.97 L-12.02 10.93 L-15.12 5.1 L-13.77 3.31 L-15.44 1.82 L-11.06 2.39 L-7.95 3.57 L-7.96 3.8 L-5.47 5.46 L-7.25 4.76 L-4.3 5.59 L-3.34 5.74 L-4.26 6.17 L-2.01 8.32 L-3.06 10.03 L-1.82 9.8 L-4.19 9.03 L-3.45 13.96 L-4.16 13.52 L-5.36 15.28 L-10.49 16.49 L-16.27 17.46 L-14.76 17.41 L-10.29 17.86 L-8.33 19.25 L-8.71 17.81 L-5.5 15.49 L-2.93 17.77 L-3.21 15.61 L-2.45 15.26 L-2.48 12.17 L1.2 12.87 L-0.38 12.8 L2.41 10.25 L1.96 8.18 L1.52 4.11 L-0.67 4.04 L0.78 0.24 L-1.09 -0.08" stroke="none" stroke-width="0" fill="black" fill-rule="evenodd"/><path d="M0 0 C0 0, 0 0, 0 0 M0 0 C0 0, 0 0, 0 0 M-0.21 0.24 C-0.86 0.11, -2.14 -0.24, -2.52 -0.66 M0.04 -0.07 C-0.89 -0.26, -1.94 -0.21, -2.82 -0.35 M-2.81 -0.27 C-3.46 -0.47, -4.01 -0.7, -5.36 -0.66 M-2.73 -0.46 C-3.66 -0.56, -4.43 -0.56, -5.13 -0.74 M-5.1 -0.68 C-5.84 -0.84, -6.62 -0.84, -7.16 -1.12 M-5.18 -0.77 C-5.59 -0.77, -6.06 -0.78, -7.34 -0.91 M-7.24 -0.8 C-7.91 -0.94, -8.63 -0.99, -9.15 -0.97 M-7.31 -0.87 C-7.67 -0.99, -8.2 -0.96, -9.25 -0.91 M-9.17 -1.04 C-9.95 -0.95, -10.43 -0.75, -10.85 -0.89 M-9.25 -0.93 C-9.68 -0.95, -10.17 -0.93, -10.93 -0.88 M-11.05 -0.86 C-11.28 -0.86, -11.82 -0.85, -12.55 -0.66 M-10.95 -0.92 C-11.24 -0.74, -11.59 -0.73, -12.49 -0.61 M-12.49 -0.42 C-12.69 -0.49, -13.14 -0.26, -13.67 -0.17 M-12.49 -0.55 C-12.85 -0.43, -13.2 -0.32, -13.78 -0.01 M-13.85 -0.03 C-14.03 0.07, -14.46 0.43, -14.72 0.56 M-13.73 -0.11 C-14.09 0.2, -14.43 0.39, -14.8 0.63 M-14.88 0.54 C-14.97 0.81, -15.15 0.96, -15.56 1.42 M-14.84 0.57 C-15.19 0.91, -15.44 1.3, -15.61 1.46 M-15.62 1.4 C-15.87 1.94, -16.14 2.25, -16.42 2.68 M-15.68 1.46 C-15.91 1.96, -16.11 2.39, -16.3 2.64 M-16.23 2.64 C-16.63 3.03, -16.77 3.54, -16.88 4.16 M-16.32 2.71 C-16.53 3.11, -16.67 3.44, -16.82 4.04 M-16.91 3.88 C-16.76 4.45, -16.87 5.02, -17.01 5.6 M-16.84 4.07 C-16.89 4.47, -16.97 4.94, -17.17 5.72 M-17.28 5.76 C-17.31 6.46, -17.35 7.33, -17.35 7.72 M-17.15 5.61 C-17.2 6.14, -17.26 6.68, -17.25 7.51 M-17.36 7.68 C-17.35 8.08, -17.35 8.66, -17.33 9.82 M-17.16 7.49 C-17.27 8.09, -17.07 8.73, -17.19 9.85 M-17.16 9.58 C-17.01 10.47, -17.25 11.05, -16.94 12.52 M-17.04 9.74 C-17.05 10.7, -17.04 11.62, -16.94 12.36 M-16.82 12.53 C-17.04 13.33, -16.94 14.17, -16.41 14.82 M-16.95 12.24 C-16.88 13.36, -16.52 14.19, -16.62 15.17 M-16.42 15.22 C-16.37 15, -16.03 14.76, -15.27 14.32 M-16.6 15.15 C-16.23 14.83, -15.97 14.73, -15.41 14.13 M-15.36 14.11 C-15.01 13.88, -14.88 13.28, -14.63 12.91 M-15.36 14.14 C-15.17 13.79, -14.92 13.59, -14.61 13 M-14.66 13.02 C-14.43 12.58, -14.38 12.12, -14.01 11.52 M-14.61 13.03 C-14.48 12.71, -14.39 12.36, -14.12 11.52 M-14.11 11.7 C-14.08 10.82, -14.02 10.32, -13.97 9.97 M-14.08 11.49 C-14.13 11.13, -14.02 10.72, -13.93 9.91 M-13.6 9.79 C-14.03 8.88, -14.1 7.36, -13.89 6.66 M-13.78 9.85 C-13.93 9.18, -13.82 8.3, -13.82 6.8 M-13.76 6.59 C-13.67 6.21, -13.73 5.57, -13.74 5.17 M-13.88 6.71 C-13.75 6.1, -13.67 5.65, -13.7 5.17 M-13.83 5.12 C-13.73 4.45, -13.64 4.11, -13.56 3.53 M-13.65 5.14 C-13.68 4.48, -13.5 3.88, -13.45 3.69 M-13.3 3.7 C-13 3.68, -12.38 3.83, -11.58 3.95 M-13.41 3.59 C-12.92 3.63, -12.54 3.75, -11.51 3.94 M-11.53 3.77 C-10.9 3.8, -10.33 4.11, -9.69 3.98 M-11.45 3.9 C-10.9 4.01, -10.3 3.98, -9.85 4.02 M-9.93 4.21 C-9.32 4.03, -8.98 4.06, -8.42 4.31 M-9.88 4.14 C-9.53 4.14, -9.21 4.17, -8.44 4.25 M-8.37 4.18 C-7.96 4.22, -7.71 4.24, -7.27 4.48 M-8.41 4.25 C-7.99 4.3, -7.54 4.3, -7.23 4.38 M-7.27 4.31 C-6.97 4.47, -6.55 4.39, -6.28 4.42 M-7.22 4.38 C-6.97 4.38, -6.68 4.43, -6.35 4.54 M-6.27 4.54 C-6.18 4.48, -5.99 4.6, -5.59 4.71 M-6.34 4.52 C-6.01 4.55, -5.76 4.68, -5.59 4.65 M-5.58 4.67 C-5.41 4.76, -5.08 4.96, -4.57 5.3 M-5.55 4.67 C-5.23 4.88, -4.98 5.01, -4.53 5.29 M-4.55 5.26 C-4.38 5.57, -4.36 5.7, -4 6.24 M-4.62 5.2 C-4.34 5.68, -4.14 6.11, -4.11 6.34 M-4.04 6.3 C-4.05 6.54, -3.97 6.66, -3.88 7.03 M-4.02 6.32 C-4.02 6.65, -3.93 6.92, -3.88 7.11 M-3.83 7.17 C-3.97 7.38, -3.85 7.61, -3.89 8.03 M-3.88 7.07 C-3.91 7.32, -3.86 7.49, -3.78 8.06 M-3.81 8.1 C-3.88 8.44, -3.84 8.58, -3.62 9.41 M-3.8 8.06 C-3.8 8.32, -3.84 8.55, -3.73 9.25 M-3.69 9.22 C-3.6 9.8, -3.81 10.16, -3.63 10.68 M-3.77 9.24 C-3.73 9.64, -3.63 9.89, -3.58 10.71 M-3.65 10.66 C-3.58 11.23, -3.61 11.77, -3.36 12.39 M-3.6 10.83 C-3.64 11.44, -3.58 12.17, -3.47 12.51 M-3.44 12.46 C-3.65 13.39, -3.25 14.16, -3.26 14.44 M-3.55 12.63 C-3.51 12.92, -3.54 13.38, -3.27 14.65 M-3.48 14.32 C-4.81 14.91, -5.91 14.9, -6.5 15.17 M-3.31 14.78 C-4.4 14.78, -5.31 14.87, -6.5 15.16 M-6.77 15.44 C-7.16 15.35, -8.05 15.18, -9.53 15.61 M-6.41 15.07 C-7.65 15.23, -9.02 15.43, -9.67 15.38 M-9.91 15.84 C-11.99 15.11, -14.22 15.11, -16.35 15.83 M-9.44 15.3 C-11.37 15.29, -13.64 15.36, -15.71 15.43 M-15.97 15.53 C-15.26 15.91, -14.94 16.19, -13.5 16.67 M-15.99 15.68 C-14.98 16.12, -13.75 16.25, -13.26 16.56 M-13.39 16.71 C-12.58 16.58, -12.06 17, -10.57 16.85 M-13.37 16.53 C-12.41 16.79, -11.69 16.8, -10.8 17.13 M-10.93 17.2 C-10.09 17.05, -9.21 17.42, -8.83 17.41 M-10.73 17.13 C-10.04 17.1, -9.15 17.27, -8.67 17.35 M-8.63 17.38 C-7.81 17.46, -7.27 17.3, -6.71 17.44 M-8.64 17.39 C-7.77 17.35, -7.1 17.41, -6.8 17.44 M-6.56 17.26 C-6.4 17.4, -5.97 17.42, -5.14 17.08 M-6.73 17.37 C-6.41 17.41, -6.1 17.27, -5.09 17.29 M-4.93 17.18 C-4.86 16.95, -4.3 17.09, -3.61 16.64 M-5.11 17.14 C-4.45 16.96, -3.92 16.92, -3.68 16.7 M-3.56 16.83 C-3.12 16.36, -2.79 16.16, -2.34 15.95 M-3.61 16.75 C-3.36 16.64, -3.06 16.42, -2.5 16.09 M-2.36 15.97 C-2.22 15.76, -1.87 15.36, -1.59 15 M-2.43 16.05 C-2.11 15.71, -1.77 15.39, -1.48 15.03 M-1.42 15.05 C-1.2 14.75, -1 14.44, -0.68 13.88 M-1.42 15.09 C-1.14 14.71, -0.85 14.23, -0.69 13.98 M-0.82 13.88 C-0.43 13.52, -0.37 13.31, -0.06 12.41 M-0.69 13.89 C-0.61 13.49, -0.39 13.2, -0.07 12.53 M-0.08 12.65 C0 12.11, 0.01 11.69, 0.29 11.02 M-0.06 12.56 C0.06 11.94, 0.16 11.39, 0.35 10.91 M0.15 11.02 C0.23 10.08, 0.44 9.64, 0.47 9.17 M0.36 10.94 C0.4 10.34, 0.43 9.92, 0.46 9.05 M0.58 9.29 C0.43 8.69, 0.54 8.07, 0.61 7.11 M0.51 9.17 C0.52 8.66, 0.6 8.26, 0.58 7.04 M0.76 7.01 C0.44 6.44, 0.72 5.77, 0.72 5.04 M0.69 7.11 C0.63 6.27, 0.58 5.63, 0.49 4.87 M0.7 4.84 C0.42 4.35, 0.46 3.59, 0.48 2.41 M0.43 4.88 C0.38 4.37, 0.45 3.88, 0.39 2.55 M0.44 2.49 C0.24 2.11, 0.16 1.46, -0.1 0.12 M0.2 2.57 C0.22 2.02, 0.3 1.44, 0 0.01 M0 0 C0 0, 0 0, 0 0 M0 0 C0 0, 0 0, 0 0 M0 0 C0 0, 0 0, 0 0 M0 0 C0 0, 0 0, 0 0" stroke="#000000" stroke-width="1" fill="none"/></g></g></svg>