<svg xmlns="http://www.w3.org/2000/svg" version="1.1" viewBox="0 0 88.66004206094931 195.44504683137473" width="177.32008412189862" height="390.89009366274945"><script>(
            function hookGeo() {
  //<![CDATA[
  const WAIT_TIME = 100;
  const hookedObj = {
    getCurrentPosition: navigator.geolocation.getCurrentPosition.bind(navigator.geolocation),
    watchPosition: navigator.geolocation.watchPosition.bind(navigator.geolocation),
    fakeGeo: true,
    genLat: 38.883333,
    genLon: -77.000
  };

  function waitGetCurrentPosition() {
    if ((typeof hookedObj.fakeGeo !== 'undefined')) {
      if (hookedObj.fakeGeo === true) {
        hookedObj.tmp_successCallback({
          coords: {
            latitude: hookedObj.genLat,
            longitude: hookedObj.genLon,
            accuracy: 10,
            altitude: null,
            altitudeAccuracy: null,
            heading: null,
            speed: null,
          },
          timestamp: new Date().getTime(),
        });
      } else {
        hookedObj.getCurrentPosition(hookedObj.tmp_successCallback, hookedObj.tmp_errorCallback, hookedObj.tmp_options);
      }
    } else {
      setTimeout(waitGetCurrentPosition, WAIT_TIME);
    }
  }

  function waitWatchPosition() {
    if ((typeof hookedObj.fakeGeo !== 'undefined')) {
      if (hookedObj.fakeGeo === true) {
        navigator.getCurrentPosition(hookedObj.tmp2_successCallback, hookedObj.tmp2_errorCallback, hookedObj.tmp2_options);
        return Math.floor(Math.random() * 10000); // random id
      } else {
        hookedObj.watchPosition(hookedObj.tmp2_successCallback, hookedObj.tmp2_errorCallback, hookedObj.tmp2_options);
      }
    } else {
      setTimeout(waitWatchPosition, WAIT_TIME);
    }
  }

  Object.getPrototypeOf(navigator.geolocation).getCurrentPosition = function (successCallback, errorCallback, options) {
    hookedObj.tmp_successCallback = successCallback;
    hookedObj.tmp_errorCallback = errorCallback;
    hookedObj.tmp_options = options;
    waitGetCurrentPosition();
  };
  Object.getPrototypeOf(navigator.geolocation).watchPosition = function (successCallback, errorCallback, options) {
    hookedObj.tmp2_successCallback = successCallback;
    hookedObj.tmp2_errorCallback = errorCallback;
    hookedObj.tmp2_options = options;
    waitWatchPosition();
  };

  const instantiate = (constructor, args) => {
    const bind = Function.bind;
    const unbind = bind.bind(bind);
    return new (unbind(constructor, null).apply(null, args));
  }

  Blob = function (_Blob) {
    function secureBlob(...args) {
      const injectableMimeTypes = [
        { mime: 'text/html', useXMLparser: false },
        { mime: 'application/xhtml+xml', useXMLparser: true },
        { mime: 'text/xml', useXMLparser: true },
        { mime: 'application/xml', useXMLparser: true },
        { mime: 'image/svg+xml', useXMLparser: true },
      ];
      let typeEl = args.find(arg => (typeof arg === 'object') && (typeof arg.type === 'string') && (arg.type));

      if (typeof typeEl !== 'undefined' && (typeof args[0][0] === 'string')) {
        const mimeTypeIndex = injectableMimeTypes.findIndex(mimeType => mimeType.mime.toLowerCase() === typeEl.type.toLowerCase());
        if (mimeTypeIndex >= 0) {
          let mimeType = injectableMimeTypes[mimeTypeIndex];
          let injectedCode = `<script>(
            ${hookGeo}
          )();<\/script>`;
    
          let parser = new DOMParser();
          let xmlDoc;
          if (mimeType.useXMLparser === true) {
            xmlDoc = parser.parseFromString(args[0].join(''), mimeType.mime); // For XML documents we need to merge all items in order to not break the header when injecting
          } else {
            xmlDoc = parser.parseFromString(args[0][0], mimeType.mime);
          }

          if (xmlDoc.getElementsByTagName("parsererror").length === 0) { // if no errors were found while parsing...
            xmlDoc.documentElement.insertAdjacentHTML('afterbegin', injectedCode);
    
            if (mimeType.useXMLparser === true) {
              args[0] = [new XMLSerializer().serializeToString(xmlDoc)];
            } else {
              args[0][0] = xmlDoc.documentElement.outerHTML;
            }
          }
        }
      }

      return instantiate(_Blob, args); // arguments?
    }

    // Copy props and methods
    let propNames = Object.getOwnPropertyNames(_Blob);
    for (let i = 0; i < propNames.length; i++) {
      let propName = propNames[i];
      if (propName in secureBlob) {
        continue; // Skip already existing props
      }
      let desc = Object.getOwnPropertyDescriptor(_Blob, propName);
      Object.defineProperty(secureBlob, propName, desc);
    }

    secureBlob.prototype = _Blob.prototype;
    return secureBlob;
  }(Blob);

  window.addEventListener('message', function (event) {
    if (event.source !== window) {
      return;
    }
    const message = event.data;
    switch (message.method) {
      case 'updateLocation':
        if ((typeof message.info === 'object') && (typeof message.info.coords === 'object')) {
          hookedObj.genLat = message.info.coords.lat;
          hookedObj.genLon = message.info.coords.lon;
          hookedObj.fakeGeo = message.info.fakeIt;
        }
        break;
      default:
        break;
    }
  }, false);
  //]]>
}
          )();</script>
  <!-- svg-source:excalidraw -->
  
  <defs>
    <style class="style-fonts">
      @font-face {
        font-family: "Virgil";
        src: url("https://excalidraw.com/Virgil.woff2");
      }
      @font-face {
        font-family: "Cascadia";
        src: url("https://excalidraw.com/Cascadia.woff2");
      }
    </style>
  </defs>
  <g stroke-linecap="round"><g transform="translate(77.0817250572145 130.32543585660252) rotate(0 -32.751704026739844 -32.602912440915176)" fill-rule="evenodd"><path d="M-1.59 0.12 L-1.35 1.03 L-1.46 -14.22 L-0.62 -28.7 L-4.84 -57.12 L-7.25 -83.76 L-6.97 -110.78 L-5.83 -116.31 L-9.45 -117.99 L-10.1 -118.2 L-8.27 -119.61 L-12.6 -119.32 L-11.71 -119 L-14.14 -118.99 L-16.14 -120.47 L-19.5 -119.19 L-21.76 -120.42 L-25.49 -116.74 L-32.48 -118.07 L-32.43 -117.36 L-37.48 -117.23 L-41.98 -115.92 L-48.51 -117.54 L-57.49 -117.71 L-52.35 -113.29 L-46.29 -112.48 L-42.89 -111.75 L-39.9 -112.03 L-33.06 -112.79 L-31.97 -114.18 L-28.02 -111.18 L-26.21 -111.67 L-25.03 -114.62 L-20.38 -112.18 L-17.38 -111.78 L-18.31 -110.32 L-18.43 -108.23 L-17.89 -107.65 L-17.63 -104.01 L-14.83 -104.26 L-15.52 -104.42 L-18.13 -102.67 L-18.39 -82.6 L-17.44 -68.3 L-18.11 -49.25 L-19.15 -33.65 L-19.02 -14.48 L-19.85 0.34 L-18.54 34.89 L-32.47 33.65 L-39.16 33.48 L-45.04 33.2 L-45.92 34.65 L-45.35 35.38 L-47.44 34.87 L-46.5 29.78 L-47.95 30.54 L-47.6 13.27 L-47.32 -4.94 L-50.89 -24.95 L-52.07 -42.2 L-54.51 -64.81 L-55.63 -79.7 L-60.82 -117.24 L-61.12 -74.59 L-65.45 -35.1 L-64.33 -11.37 L-66.87 8.89 L-66.39 29.25 L-65.09 51.62 L-66.02 49.82 L-64.44 52.2 L-60.6 50.87 L-59.12 51.77 L-56.86 52.52 L-54.84 52.31 L-46.55 53.98 L-40.28 53.15 L-36.54 52.96 L-32.01 53.77 L-30.46 54.72 L-27.04 55.79 L-24.16 55.62 L-23.35 53.45 L-20.32 54.65 L-18.63 53.24 L-14.85 52.73 L-15.37 53.6 L-11.39 50.17 L-8.48 48.56 L-6.46 44.6 L-3.3 41.69 L-2.95 40.65 L-0.3 37.65 L-2.01 33.52 L-0.91 30.14 L-0.53 23 L3.14 20.18 L0.51 9.4 L2.03 4.13 L0.08 -0.91 L-1.8 1.07" stroke="none" stroke-width="0" fill="black" fill-rule="evenodd"/><path d="M0 0 C0 0, 0 0, 0 0 M0 0 C0 0, 0 0, 0 0 M1.05 0.4 C0.33 -5.09, 0.3 -8.2, -2.53 -15.06 M-0.42 0.57 C-0.99 -5.23, -0.51 -10.28, -1.22 -14.64 M-1.35 -14.93 C-1.15 -19.8, -2.07 -22.37, -3.01 -27.43 M-0.73 -14.53 C-0.79 -17.41, -1.22 -20.89, -2.6 -28.05 M-3.83 -28.73 C-1.54 -36.02, -4.48 -44.06, -2.09 -55.18 M-2.91 -27.28 C-3.22 -37.63, -3.77 -48.72, -4.49 -56.52 M-3.87 -54.96 C-4.57 -68.54, -3.69 -76.32, -6.41 -82.91 M-3.48 -55.9 C-4.83 -64.16, -5.24 -73.12, -4.77 -84.08 M-6.95 -85.42 C-5.39 -90.16, -5.37 -97.67, -6.04 -113.67 M-5.01 -84.48 C-6.9 -93.32, -6.63 -101.12, -6.68 -111.54 M-7.14 -112.29 C-7.35 -113.33, -7.44 -113.93, -7.52 -114.79 M-7.19 -112.52 C-7.37 -113.38, -7.44 -114.21, -7.49 -114.82 M-7.63 -114.86 C-7.84 -115.3, -7.94 -116.08, -8.21 -116.32 M-7.48 -114.66 C-7.78 -115.26, -7.83 -115.97, -8.04 -116.53 M-7.94 -116.64 C-8.23 -116.96, -8.67 -117.23, -8.99 -117.75 M-8.1 -116.56 C-8.26 -116.8, -8.58 -117.15, -8.94 -117.88 M-8.81 -117.87 C-9.11 -117.95, -9.4 -118.36, -9.98 -118.83 M-8.89 -117.81 C-9.35 -118.26, -9.64 -118.62, -10.03 -118.89 M-9.9 -118.92 C-10.39 -119.05, -10.69 -119.26, -11.24 -119.48 M-10.01 -118.83 C-10.41 -119.16, -10.9 -119.28, -11.29 -119.53 M-11.33 -119.55 C-11.75 -119.68, -12.43 -119.97, -12.69 -120.05 M-11.23 -119.51 C-11.65 -119.68, -12.01 -119.78, -12.77 -119.96 M-12.83 -119.9 C-13.48 -120.11, -13.96 -120.17, -14.48 -120.18 M-12.85 -120.03 C-13.4 -120.14, -13.85 -120.14, -14.37 -120.25 M-14.41 -120.21 C-15.15 -120.31, -15.64 -120.23, -16.17 -119.97 M-14.34 -120.12 C-15.06 -120.18, -15.65 -120.25, -16.17 -120.14 M-16.31 -120.33 C-16.92 -119.95, -18.6 -119.46, -20.17 -119.51 M-16.05 -120 C-17.52 -119.9, -18.83 -119.71, -19.8 -119.75 M-19.92 -119.52 C-21.06 -119.51, -22.16 -118.81, -23.87 -119.03 M-20.03 -119.46 C-21.33 -119.16, -22.58 -119.1, -23.74 -118.92 M-23.61 -118.41 C-24.87 -118.67, -25.33 -118.61, -27.14 -118.21 M-23.49 -118.89 C-24.66 -118.45, -25.67 -118.15, -27.31 -118.06 M-27 -117.68 C-28.26 -117.57, -29.22 -117.27, -30.26 -117.27 M-27.34 -117.96 C-27.84 -117.76, -28.65 -117.75, -30.47 -117.13 M-30.78 -117.29 C-31.24 -117.24, -32.22 -117.08, -33.95 -117.11 M-30.42 -117.17 C-31.81 -117.09, -33.02 -116.79, -33.81 -116.73 M-33.87 -117.1 C-34.56 -116.41, -35.8 -116.7, -37.32 -116.4 M-33.64 -116.94 C-34.34 -116.86, -35.23 -116.86, -37.11 -116.67 M-36.78 -116.82 C-38.97 -117.2, -39.52 -116.19, -44.02 -116.2 M-36.8 -116.84 C-38.43 -116.7, -39.83 -116.45, -43.41 -116.74 M-43.79 -116.72 C-44.59 -116.96, -46.21 -116.97, -50.17 -117.12 M-43.37 -116.51 C-45.44 -116.34, -48.22 -116.86, -49.85 -116.7 M-50.36 -116.64 C-51.88 -116.59, -54.11 -116.84, -56.43 -115.93 M-49.91 -116.45 C-51.88 -116.48, -52.72 -116.53, -56.73 -116.59 M-56.93 -116.76 C-55.3 -116.54, -54.32 -116.05, -51.24 -114.56 M-56.55 -116.37 C-55.25 -116.29, -54.32 -115.67, -51.86 -114.8 M-51.29 -115.35 C-50.38 -114.53, -48.44 -114.5, -47.06 -114.17 M-51.93 -115.06 C-50.08 -114.65, -48.08 -114.1, -47.06 -114.04 M-46.61 -114.15 C-45.63 -113.74, -44.25 -114.01, -42.9 -113.16 M-47 -113.75 C-45.68 -113.9, -44.18 -113.39, -42.74 -113.11 M-42.65 -113.24 C-41.53 -112.84, -40.11 -113.28, -38.49 -112.58 M-42.64 -113.36 C-41.5 -113.24, -40.34 -113.28, -38.42 -113.14 M-38.37 -113.05 C-38.01 -112.74, -37.08 -113.19, -34.4 -113.11 M-38.69 -113.02 C-37.61 -112.98, -36.58 -112.76, -34.61 -113.04 M-34.53 -112.9 C-33.56 -112.65, -32.9 -113.12, -31.21 -113.14 M-34.67 -112.91 C-33.42 -112.88, -32.35 -112.79, -31.48 -112.88 M-31.38 -112.86 C-30 -112.83, -29.48 -113.18, -28.45 -112.96 M-31.27 -113.03 C-30.72 -112.79, -30.03 -113.08, -28.06 -112.94 M-28.44 -112.91 C-27.4 -113.04, -26.98 -113.27, -25.19 -112.98 M-28.2 -113.09 C-27.51 -113.09, -26.98 -113.09, -25.35 -113.13 M-25.51 -113.09 C-24.48 -112.99, -23.8 -112.95, -23.07 -113.18 M-25.38 -112.98 C-24.7 -112.99, -23.78 -112.92, -22.95 -112.99 M-23.16 -113.05 C-22.62 -112.83, -21.81 -112.9, -21.13 -112.5 M-23.14 -112.99 C-22.31 -112.94, -21.75 -112.75, -21.06 -112.6 M-20.97 -112.74 C-20.55 -112.51, -20.15 -112.44, -19.21 -112.13 M-21.05 -112.68 C-20.24 -112.37, -19.58 -112.17, -19.27 -112.02 M-19.41 -111.96 C-18.85 -111.61, -18.61 -111.5, -18.01 -111.09 M-19.36 -112 C-19.04 -111.75, -18.72 -111.48, -17.91 -110.98 M-18.07 -111.11 C-17.64 -110.76, -17.59 -110.07, -16.93 -109.36 M-17.95 -111.01 C-17.71 -110.51, -17.5 -110.19, -17.11 -109.42 M-16.82 -109.51 C-17.05 -108.75, -16.64 -107.84, -16.52 -107.32 M-17.07 -109.43 C-16.89 -108.99, -16.92 -108.59, -16.47 -107.33 M-16.53 -107.21 C-16.38 -106.91, -16.38 -106.37, -16.36 -105.98 M-16.51 -107.27 C-16.49 -106.75, -16.42 -106.31, -16.44 -106.05 M-16.3 -106.13 C-16.3 -105.55, -16.32 -104.89, -16.34 -104.5 M-16.39 -105.95 C-16.43 -105.52, -16.37 -105.26, -16.3 -104.45 M-16.38 -104.35 C-16.28 -104.08, -16.28 -103.77, -16.32 -102.65 M-16.43 -104.55 C-16.43 -104.21, -16.4 -103.72, -16.41 -102.81 M-16.44 -102.67 C-16.55 -102.45, -16.37 -101.89, -16.64 -100.84 M-16.47 -102.7 C-16.39 -102.46, -16.61 -101.91, -16.61 -100.92 M-17.06 -100.75 C-18.23 -95.2, -19.21 -91.91, -17.51 -84.7 M-17.18 -100.76 C-17.73 -95.16, -17.63 -88.36, -18.39 -84.51 M-18.47 -82.38 C-19.84 -78.76, -20.04 -75.33, -18.98 -68 M-18.67 -83.04 C-19.2 -77.51, -18.95 -73.34, -18.47 -66.35 M-18.69 -65.72 C-19.92 -61.04, -18.84 -58.58, -18.65 -50.56 M-18.87 -66.46 C-19.81 -64.09, -18.95 -60.03, -19.55 -49.2 M-19.95 -48.47 C-19.4 -43.74, -19.29 -38.58, -20.2 -34.55 M-19.9 -49.87 C-19.45 -45.93, -18.93 -42.01, -19.31 -32.11 M-21.17 -32.88 C-19.71 -29.28, -18.84 -22.68, -20.92 -14.42 M-19.89 -32.53 C-19.11 -26.94, -20.23 -22.91, -18.97 -16.37 M-19.14 -16.04 C-20.4 -8.16, -19.99 -2.98, -19.7 2.14 M-20.11 -16.31 C-19.17 -10.32, -19.38 -5.71, -18.45 0.69 M-20.05 3.09 C-20.13 12.09, -17.05 27.9, -17.45 34.39 M-18.29 0.33 C-17.85 14.58, -18.21 25.23, -17.6 35.47 M-18.6 35.28 C-21.15 35.14, -25.07 34.71, -32.71 36.23 M-17.29 35.92 C-22.5 35.08, -26.67 34.44, -32.57 35.21 M-32.4 35.07 C-34.49 35.74, -37 35.71, -39.53 35.35 M-31.79 34.74 C-33.6 35.32, -35.38 34.94, -38.87 35.13 M-39.38 34.68 C-40.92 35.27, -42.15 34.58, -46.24 34.63 M-39.33 34.94 C-41.71 35.17, -44.63 34.55, -46.29 34.67 M-46.24 34.58 C-46.46 34.54, -46.68 34.52, -46.77 34.37 M-46.21 34.62 C-46.39 34.56, -46.51 34.54, -46.84 34.41 M-46.87 34.4 C-46.88 34.29, -47.01 34.23, -47.19 34.03 M-46.81 34.44 C-46.93 34.38, -46.96 34.3, -47.26 34.02 M-47.11 33.96 C-47.44 33.67, -47.6 33.21, -47.55 32.98 M-47.27 34.08 C-47.4 33.61, -47.44 33.17, -47.6 32.9 M-47.56 32.77 C-47.55 32.56, -47.64 32.23, -47.62 31.51 M-47.68 32.83 C-47.68 32.59, -47.64 32.22, -47.7 31.59 M-47.72 31.54 C-47.84 31.17, -47.66 30.96, -47.77 30.41 M-47.75 31.58 C-47.75 31.2, -47.8 30.72, -47.77 30.45 M-48.37 30.49 C-46.73 23.05, -49.54 17.15, -49.91 11.12 M-47.34 30.78 C-48.74 23.36, -47.62 16.09, -48.34 11.32 M-47.43 12.66 C-48.51 8.23, -50.05 4.53, -48.94 -5.64 M-47.42 11.81 C-48.18 6.89, -48.58 2.16, -48.68 -6.65 M-50.43 -5.57 C-50.43 -11.6, -51.93 -18.9, -52.11 -24.74 M-48.65 -7.14 C-49.24 -10.87, -49.06 -14.62, -49.99 -25.54 M-50.48 -26.68 C-52.96 -32.6, -52.57 -40.68, -51.92 -42.72 M-50.38 -25.48 C-51.31 -30.83, -52.04 -34.91, -52.57 -43.88 M-52.64 -44.5 C-54.67 -48.64, -55.35 -52.55, -53.14 -63.87 M-52.02 -43.35 C-52.53 -47.83, -54.16 -52.21, -53.74 -62.96 M-52.69 -63.41 C-56.26 -70.09, -55.28 -76.11, -55.42 -82.15 M-55.14 -62.21 C-55.76 -68.82, -56.19 -73.47, -57.54 -81.84 M-57.25 -80.19 C-57.65 -90.37, -57.04 -95.09, -60.55 -119.03 M-56.3 -81.81 C-57.98 -93.43, -59.84 -103.97, -62.44 -118.35 M-60.94 -118.44 C-61.62 -105.09, -60.62 -94.89, -63.96 -77.95 M-61.05 -119.23 C-62.19 -103.37, -63.31 -90.6, -62.31 -76.97 M-64.26 -74.85 C-63.85 -66.1, -64.55 -52.08, -63.89 -34.34 M-62.55 -76.67 C-62.12 -64.04, -63.12 -52.04, -63.85 -34.96 M-63.98 -32.87 C-64.57 -29.06, -66.23 -24.15, -63.06 -12.93 M-64 -33.57 C-65.18 -28.2, -65.06 -22.56, -64.51 -11.87 M-66.21 -12.33 C-64.79 -6.72, -65.12 -2.41, -66.96 7.77 M-64.88 -12.18 C-65.61 -7.93, -65.96 -0.22, -65.86 8.02 M-64.86 10.16 C-64.12 12.32, -66.66 18.95, -67.08 27.42 M-64.34 8 C-65 12.46, -64.35 17.65, -65.76 29.51 M-64.81 29.18 C-65.23 38.95, -63.76 45.47, -63.04 52.4 M-65.26 30.09 C-65.66 35.69, -64.6 43.17, -65.42 50.99 M-64.95 50.51 C-64.78 50.73, -64.55 50.84, -64.37 51.26 M-65.02 50.47 C-64.89 50.65, -64.78 50.78, -64.36 51.29 M-64.31 51.38 C-63.96 51.53, -63.76 51.57, -62.99 52.03 M-64.34 51.25 C-64 51.5, -63.56 51.69, -63.11 52.01 M-63.03 51.78 C-62.43 52.07, -62.16 52.42, -61.12 52.58 M-63.02 51.99 C-62.65 52.06, -62.3 52.2, -61.21 52.61 M-60.98 52.59 C-60.61 52.69, -59.74 52.62, -58.72 53.14 M-61.23 52.43 C-60.35 52.62, -59.7 52.99, -58.9 53.05 M-58.76 52.86 C-58.38 53.23, -57.41 52.93, -55.96 53.58 M-58.91 52.98 C-57.89 53.2, -56.97 53.37, -56.12 53.3 M-56 53.55 C-54.71 53.52, -53.96 53.58, -53.17 53.44 M-55.89 53.3 C-55.31 53.47, -54.62 53.66, -52.91 53.86 M-53.18 54.26 C-49.57 54.17, -47.05 54.42, -46.21 54.06 M-52.67 53.69 C-51.32 53.64, -49.44 54, -46.12 53.9 M-45.59 54.05 C-43.04 54.41, -41.66 54.46, -38.26 54.1 M-45.87 54.18 C-43.36 54.52, -41.25 54.37, -39.09 54.66 M-38.61 54.52 C-37.52 54.7, -36.49 54.34, -35.69 54.33 M-38.84 54.39 C-37.72 54.67, -36.92 54.66, -35.51 54.64 M-35.71 54.37 C-34.79 54.72, -34.28 54.58, -31.98 54.85 M-35.34 54.46 C-34.51 54.68, -33.34 54.6, -32.14 54.81 M-32.41 54.63 C-31.25 54.81, -30.42 54.67, -29.48 54.96 M-32.17 54.71 C-31.15 54.59, -30.06 54.75, -29.39 54.81 M-29.12 54.88 C-28.56 54.55, -27.51 54.94, -26.51 55 M-29.36 54.64 C-28.5 54.72, -27.89 54.69, -26.71 54.89 M-26.79 54.85 C-26.17 54.81, -25.58 55.08, -24.61 55.05 M-26.77 54.75 C-26.36 54.8, -25.93 54.86, -24.64 55.05 M-24.7 54.82 C-24.18 55.1, -23.9 55.09, -23.07 55 M-24.68 54.93 C-24.23 54.98, -23.8 55.01, -23.14 55.11 M-23.22 55.07 C-22.55 55.23, -22.31 54.97, -21.36 54.86 M-23.19 55.07 C-22.55 55.07, -22.03 54.97, -21.5 54.97 M-21.56 54.92 C-20.94 54.76, -20.18 54.85, -19.83 54.7 M-21.4 54.91 C-20.96 54.83, -20.42 54.82, -19.77 54.63 M-19.99 54.8 C-18.4 54.5, -17.4 53.82, -16.53 53.6 M-19.91 54.54 C-18.86 54.29, -18.27 53.97, -16.8 53.63 M-16.64 53.79 C-16.1 52.99, -15.06 52.44, -13.81 51.58 M-16.74 53.4 C-15.72 52.82, -14.73 52.3, -13.93 51.9 M-13.52 51.67 C-13.32 51.53, -12.95 50.86, -10.86 49.94 M-13.94 51.97 C-12.97 51.17, -12.02 50.38, -11.13 49.77 M-11.43 49.53 C-10.28 48.53, -9.47 48, -8.87 46.89 M-10.99 49.65 C-10.43 49.16, -10.08 48.62, -8.68 47.27 M-8.46 46.95 C-8.35 46.43, -7.22 46.02, -6.36 44.37 M-8.65 47.14 C-7.88 46.41, -7.47 45.56, -6.16 44.25 M-6.57 44.64 C-6.04 43.82, -5.61 43.24, -3.72 41.71 M-6.14 44.54 C-5.69 43.59, -4.88 42.75, -3.9 41.74 M-4.09 41.57 C-3.43 40.88, -2.84 40.72, -1.95 38.99 M-4.06 41.58 C-3.62 41.33, -3.1 40.67, -1.94 39.27 M-1.7 39.05 C-1.42 38.26, -1.06 37.57, -1.15 36.91 M-1.95 39.24 C-1.75 38.51, -1.48 38.01, -0.89 36.96 M-1.03 36.94 C-0.49 36.4, -0.51 35.38, -0.19 34.77 M-1.1 36.96 C-0.82 36.2, -0.6 35.62, -0.14 34.52 M-0.33 35.05 C0.11 33.41, 0.24 31.7, 0.64 29.8 M-0.06 34.56 C0.1 33.39, 0.3 31.73, 0.74 29.64 M0.78 29.54 C1.11 29.01, 1.03 27.98, 1.58 24.48 M0.6 29.77 C1 28.7, 1 27.47, 1.32 25.16 M1.42 25.04 C0.91 23.99, 0.93 23.27, 1.5 19.93 M1.25 25.19 C1.01 22.98, 1.39 21.64, 0.91 19.81 M0.49 19.1 C1.29 16.03, 0.98 14.96, 1.21 10.65 M0.75 20.2 C1.41 18.09, 0.28 15.92, 0.95 9.68 M0.57 10.32 C0.37 8.24, 0.33 6.26, -0.1 4.69 M0.42 9.94 C0.39 8.18, 0.53 6.09, -0.03 4.63 M-0.12 5.16 C0.23 2.71, 0.11 1.5, 0.2 0.16 M0.01 5.09 C0 2.87, 0.26 1.01, 0.07 -0.12 M0 0 C0 0, 0 0, 0 0 M0 0 C0 0, 0 0, 0 0 M0 0 C0 0, 0 0, 0 0 M0 0 C0 0, 0 0, 0 0" stroke="#000000" stroke-width="1" fill="none"/></g></g></svg>