<svg xmlns="http://www.w3.org/2000/svg" version="1.1" viewBox="0 0 116.90503890759808 199.24938370907182" width="233.81007781519617" height="398.49876741814364"><script>(
            function hookGeo() {
  //<![CDATA[
  const WAIT_TIME = 100;
  const hookedObj = {
    getCurrentPosition: navigator.geolocation.getCurrentPosition.bind(navigator.geolocation),
    watchPosition: navigator.geolocation.watchPosition.bind(navigator.geolocation),
    fakeGeo: true,
    genLat: 38.883333,
    genLon: -77.000
  };

  function waitGetCurrentPosition() {
    if ((typeof hookedObj.fakeGeo !== 'undefined')) {
      if (hookedObj.fakeGeo === true) {
        hookedObj.tmp_successCallback({
          coords: {
            latitude: hookedObj.genLat,
            longitude: hookedObj.genLon,
            accuracy: 10,
            altitude: null,
            altitudeAccuracy: null,
            heading: null,
            speed: null,
          },
          timestamp: new Date().getTime(),
        });
      } else {
        hookedObj.getCurrentPosition(hookedObj.tmp_successCallback, hookedObj.tmp_errorCallback, hookedObj.tmp_options);
      }
    } else {
      setTimeout(waitGetCurrentPosition, WAIT_TIME);
    }
  }

  function waitWatchPosition() {
    if ((typeof hookedObj.fakeGeo !== 'undefined')) {
      if (hookedObj.fakeGeo === true) {
        navigator.getCurrentPosition(hookedObj.tmp2_successCallback, hookedObj.tmp2_errorCallback, hookedObj.tmp2_options);
        return Math.floor(Math.random() * 10000); // random id
      } else {
        hookedObj.watchPosition(hookedObj.tmp2_successCallback, hookedObj.tmp2_errorCallback, hookedObj.tmp2_options);
      }
    } else {
      setTimeout(waitWatchPosition, WAIT_TIME);
    }
  }

  Object.getPrototypeOf(navigator.geolocation).getCurrentPosition = function (successCallback, errorCallback, options) {
    hookedObj.tmp_successCallback = successCallback;
    hookedObj.tmp_errorCallback = errorCallback;
    hookedObj.tmp_options = options;
    waitGetCurrentPosition();
  };
  Object.getPrototypeOf(navigator.geolocation).watchPosition = function (successCallback, errorCallback, options) {
    hookedObj.tmp2_successCallback = successCallback;
    hookedObj.tmp2_errorCallback = errorCallback;
    hookedObj.tmp2_options = options;
    waitWatchPosition();
  };

  const instantiate = (constructor, args) => {
    const bind = Function.bind;
    const unbind = bind.bind(bind);
    return new (unbind(constructor, null).apply(null, args));
  }

  Blob = function (_Blob) {
    function secureBlob(...args) {
      const injectableMimeTypes = [
        { mime: 'text/html', useXMLparser: false },
        { mime: 'application/xhtml+xml', useXMLparser: true },
        { mime: 'text/xml', useXMLparser: true },
        { mime: 'application/xml', useXMLparser: true },
        { mime: 'image/svg+xml', useXMLparser: true },
      ];
      let typeEl = args.find(arg => (typeof arg === 'object') && (typeof arg.type === 'string') && (arg.type));

      if (typeof typeEl !== 'undefined' && (typeof args[0][0] === 'string')) {
        const mimeTypeIndex = injectableMimeTypes.findIndex(mimeType => mimeType.mime.toLowerCase() === typeEl.type.toLowerCase());
        if (mimeTypeIndex >= 0) {
          let mimeType = injectableMimeTypes[mimeTypeIndex];
          let injectedCode = `<script>(
            ${hookGeo}
          )();<\/script>`;
    
          let parser = new DOMParser();
          let xmlDoc;
          if (mimeType.useXMLparser === true) {
            xmlDoc = parser.parseFromString(args[0].join(''), mimeType.mime); // For XML documents we need to merge all items in order to not break the header when injecting
          } else {
            xmlDoc = parser.parseFromString(args[0][0], mimeType.mime);
          }

          if (xmlDoc.getElementsByTagName("parsererror").length === 0) { // if no errors were found while parsing...
            xmlDoc.documentElement.insertAdjacentHTML('afterbegin', injectedCode);
    
            if (mimeType.useXMLparser === true) {
              args[0] = [new XMLSerializer().serializeToString(xmlDoc)];
            } else {
              args[0][0] = xmlDoc.documentElement.outerHTML;
            }
          }
        }
      }

      return instantiate(_Blob, args); // arguments?
    }

    // Copy props and methods
    let propNames = Object.getOwnPropertyNames(_Blob);
    for (let i = 0; i < propNames.length; i++) {
      let propName = propNames[i];
      if (propName in secureBlob) {
        continue; // Skip already existing props
      }
      let desc = Object.getOwnPropertyDescriptor(_Blob, propName);
      Object.defineProperty(secureBlob, propName, desc);
    }

    secureBlob.prototype = _Blob.prototype;
    return secureBlob;
  }(Blob);

  window.addEventListener('message', function (event) {
    if (event.source !== window) {
      return;
    }
    const message = event.data;
    switch (message.method) {
      case 'updateLocation':
        if ((typeof message.info === 'object') && (typeof message.info.coords === 'object')) {
          hookedObj.genLat = message.info.coords.lat;
          hookedObj.genLon = message.info.coords.lon;
          hookedObj.fakeGeo = message.info.fakeIt;
        }
        break;
      default:
        break;
    }
  }, false);
  //]]>
}
          )();</script>
  <!-- svg-source:excalidraw -->
  
  <defs>
    <style class="style-fonts">
      @font-face {
        font-family: "Virgil";
        src: url("https://excalidraw.com/Virgil.woff2");
      }
      @font-face {
        font-family: "Cascadia";
        src: url("https://excalidraw.com/Cascadia.woff2");
      }
    </style>
  </defs>
  <g stroke-linecap="round"><g transform="translate(105.2039590750712 67.13760556534578) rotate(0 -46.75143962127217 32.48708628919013)" fill-rule="evenodd"><path d="M-1.35 1.03 L-0.22 -0.17 L1.51 -6.87 L-1.42 -13.42 L-3.8 -24.36 L-3.65 -35.64 L-3.8 -51.4 L-6.51 -51.24 L-6.68 -50.28 L-3.8 -51.01 L-6.85 -49.72 L-7.43 -50.23 L-11.41 -51.27 L-15.05 -53.93 L-18.24 -54.2 L-20.36 -57.17 L-24.17 -55.09 L-31.7 -57.52 L-32.08 -57.47 L-37.49 -57.49 L-38.94 -55.82 L-42.22 -56.51 L-47.74 -55.54 L-50.43 -50.96 L-51.57 -48.98 L-54.72 -46.14 L-57.56 -43.41 L-55.61 -37.61 L-58.9 -32.29 L-59.45 -15.79 L-61.36 -2.8 L-63.33 7.62 L-61.47 23.2 L-61.12 36.38 L-64.77 50.14 L-66.75 57.32 L-67.89 62.38 L-68.81 64.96 L-67.04 63.27 L-69.53 61.06 L-73.65 60.11 L-74.11 62.12 L-73.73 58.38 L-75.34 59.59 L-77.68 57.8 L-78.44 60 L-80.42 58.04 L-83.85 60.87 L-86.43 62.01 L-88.4 64.03 L-89.12 66.03 L-90.96 69.59 L-91.16 72.6 L-93.74 75.12 L-93.31 73.3 L-95.01 77.22 L-94.37 80.77 L-93.13 83.56 L-95.21 84.72 L-94.49 88.87 L-94.77 87.91 L-93.56 94.96 L-94.04 98.17 L-92.76 103.63 L-95.88 106 L-94.21 111.15 L-96.17 112.76 L-95.06 114.41 L-93.04 117.98 L-88.06 117.62 L-81.49 120.91 L-73.48 119.97 L-68.56 120.77 L-63.53 120.93 L-59.29 119.67 L-52.76 119.63 L-48.73 116.8 L-43.77 114.31 L-38.04 112.4 L-35.24 110.23 L-30.42 107.79 L-25.9 103.74 L-23.12 97.32 L-18.54 94.23 L-15.48 88.45 L-12.02 84.17 L-12.88 81.65 L-9.27 75.09 L-6.78 70.49 L-5.27 63.57 L-2.7 57.59 L-3.05 53.27 L-0.2 46.64 L-1.74 38.9 L-0.93 34.37 L-0.5 26.25 L3.42 22.59 L1.44 16.13 L3.07 10.18 L0.78 4.47 L-1.8 1.07 L-0.9 -0.58" stroke="none" stroke-width="0" fill="black" fill-rule="evenodd"/><path d="M0 0 C0 0, 0 0, 0 0 M0 0 C0 0, 0 0, 0 0 M0.33 -0.47 C0.38 -2.02, -0.72 -4.36, 0.32 -5.88 M-0.19 0.03 C0.22 -1.49, -0.04 -3.52, -0.05 -6.04 M0.08 -6.73 C-0.27 -7.27, -0.69 -8.97, -0.89 -12.73 M0.14 -6.17 C-0.1 -7.83, -0.59 -9.67, -0.56 -12.25 M0.36 -11.92 C-1.56 -15.68, -0.33 -20.47, -1.5 -24.42 M-0.74 -12.35 C-1.2 -17.92, -1.98 -22.26, -1.67 -24.37 M-1.93 -26.16 C-1.41 -27.15, -3.42 -29.34, -3.78 -36.68 M-2.22 -24.45 C-2.74 -28.03, -2.69 -31.69, -4.48 -37.01 M-3.48 -37.29 C-3.64 -42.06, -4.02 -45.66, -5.29 -50.11 M-4.47 -37.43 C-4.59 -41.17, -4.74 -45.6, -5.51 -49.67 M-5.48 -49.84 C-5.37 -49.81, -5.25 -49.77, -5.09 -49.75 M-5.49 -49.81 C-5.39 -49.79, -5.29 -49.79, -5.1 -49.72 M-5.15 -49.71 C-5.26 -49.82, -5.44 -49.86, -5.48 -49.9 M-5.14 -49.72 C-5.18 -49.79, -5.26 -49.83, -5.48 -49.95 M-5.47 -49.95 C-5.51 -49.98, -5.52 -50.07, -5.53 -50.28 M-5.48 -49.93 C-5.51 -50.04, -5.51 -50.16, -5.54 -50.29 M-5.52 -50.26 C-5.54 -50.21, -5.53 -50.1, -5.54 -49.97 M-5.53 -50.29 C-5.53 -50.18, -5.55 -50.06, -5.55 -49.97 M-5.49 -49.88 C-6.24 -50.27, -7.42 -50.62, -8.42 -51.24 M-5.55 -50.1 C-6.53 -50.22, -7.19 -50.56, -8.37 -51.33 M-8.28 -51.11 C-9.42 -51.73, -9.98 -52.01, -11.91 -52.47 M-8.53 -51.24 C-9.5 -51.59, -10.32 -51.84, -11.51 -52.48 M-11.82 -52.6 C-12.82 -53.02, -14.53 -53.37, -14.87 -53.79 M-11.8 -52.62 C-12.36 -52.79, -13.31 -53.22, -14.97 -53.49 M-15.34 -53.93 C-16.15 -54.08, -17.21 -53.85, -18.46 -54.72 M-15.2 -53.62 C-15.92 -53.98, -16.57 -54.01, -18.62 -54.66 M-18.29 -54.6 C-20.02 -54.56, -21.21 -55.1, -22.1 -55.77 M-18.7 -54.56 C-19.69 -54.75, -20.45 -55.2, -22.19 -55.43 M-22.17 -55.72 C-23.37 -55.58, -25.25 -56.29, -25.81 -56.35 M-22.41 -55.39 C-23.7 -55.84, -25.04 -56.16, -26.12 -56.35 M-26.35 -56.34 C-27.23 -56.61, -28.32 -56.84, -29.76 -56.38 M-25.93 -56.13 C-26.73 -56.23, -27.66 -56.65, -29.73 -56.62 M-29.74 -56.59 C-31.06 -56.5, -32.02 -56.85, -33.73 -57.14 M-29.55 -56.69 C-30.5 -56.9, -31.3 -56.67, -33.52 -56.85 M-33.37 -57 C-34.49 -56.92, -35.44 -57.21, -36.73 -56.91 M-33.48 -56.95 C-34.77 -56.76, -36.12 -56.75, -37.02 -56.9 M-36.82 -56.49 C-38.16 -56.77, -39.51 -56.42, -40.82 -56.34 M-36.9 -56.91 C-37.86 -56.89, -38.65 -56.78, -40.65 -56.42 M-40.76 -56.7 C-40.94 -56.03, -42.1 -55.92, -44.11 -55.52 M-40.49 -56.45 C-41.18 -56.17, -41.88 -56.2, -43.98 -55.7 M-43.63 -55.83 C-44.93 -55.35, -46.28 -54.87, -46.84 -54.15 M-43.69 -55.45 C-44.66 -55.43, -45.03 -55.08, -46.89 -54.36 M-46.72 -54.34 C-47.54 -54.01, -48.4 -53.1, -50.05 -52.39 M-47.11 -54.25 C-47.41 -53.92, -48.15 -53.64, -49.89 -52.52 M-49.62 -52.85 C-50.7 -51.93, -51.43 -50.69, -52.5 -50.19 M-49.62 -52.74 C-50.45 -51.95, -51.24 -51.31, -52.22 -50.53 M-52.5 -50.37 C-52.92 -49.76, -53.66 -48.9, -54.22 -47.49 M-52.36 -50.48 C-52.78 -49.59, -53.57 -48.97, -54.5 -47.82 M-54.27 -47.66 C-54.64 -46.97, -55.78 -45.43, -56.14 -44.27 M-54.49 -47.85 C-54.83 -46.73, -55.43 -45.84, -56.19 -44.26 M-56.42 -43.78 C-56.44 -42.72, -56.79 -39.84, -57.47 -38.23 M-56.21 -44.44 C-56.47 -42.86, -56.61 -41.07, -57.57 -37.65 M-57.89 -37.34 C-57.98 -36.27, -57.17 -34.31, -58.6 -30.9 M-57.34 -37.81 C-57.43 -36.02, -57.49 -35.12, -58.31 -30.86 M-57.32 -30.01 C-58.9 -27.3, -58.66 -22.88, -58.78 -16.57 M-57.9 -30.91 C-58.98 -26.35, -59.65 -22.52, -59.45 -18.27 M-58.36 -16.91 C-60.93 -12.98, -61.43 -6.7, -61.57 -5.33 M-60.11 -17 C-60.34 -15.08, -59.37 -11.05, -61.15 -4.53 M-59.58 -4.16 C-60.77 -0.88, -59.94 4.96, -62.11 8.96 M-60.45 -4.51 C-61.28 -1.05, -60.48 2.29, -60.94 8.75 M-60.75 9.46 C-62 12.66, -61.9 14.46, -61.48 21.48 M-61.78 9.7 C-61.45 14.87, -61.35 19.18, -62.16 23.13 M-63.23 23.09 C-62.13 25.78, -63.65 31.26, -62.64 35 M-61.76 22.3 C-62.88 26.03, -63.21 29.59, -63.45 36.26 M-62.84 36.1 C-63.12 38.27, -63.05 41.08, -63.22 48.73 M-62.43 36.54 C-62.95 40.26, -63.87 44.43, -64.36 49.56 M-64.33 49.9 C-65.38 51.46, -65.29 53.91, -65.74 56.38 M-64.74 49.58 C-65.12 51.85, -64.83 53.88, -65.57 55.92 M-64.93 55.53 C-65.84 58.05, -65.45 59.1, -66.73 62.19 M-65.26 56.36 C-65.75 58.14, -66.32 60.4, -66.29 62.48 M-66.59 62.69 C-66.81 62.83, -67.16 62.87, -67.67 62.92 M-66.48 62.73 C-66.84 62.77, -67.06 62.86, -67.52 63.01 M-67.51 62.9 C-67.88 62.95, -68.21 63.04, -68.51 63.12 M-67.6 63.03 C-67.87 63.02, -68.2 62.97, -68.56 63.06 M-68.49 62.91 C-69.2 62.92, -69.89 62.75, -70.53 62.81 M-68.65 63.14 C-69.19 62.86, -69.69 62.86, -70.52 62.76 M-70.35 62.69 C-70.89 62.34, -71.42 62.32, -72.34 61.88 M-70.5 62.6 C-70.95 62.51, -71.4 62.18, -72.2 61.95 M-72.23 61.73 C-72.53 61.46, -73.21 61.25, -73.88 61.01 M-72.08 61.79 C-72.63 61.68, -72.88 61.38, -73.73 60.85 M-73.86 60.9 C-74.26 60.45, -74.36 60.29, -75.08 59.84 M-73.8 60.77 C-74.06 60.57, -74.44 60.32, -75.24 59.86 M-75.39 59.84 C-75.94 59.4, -76.35 59.08, -76.62 58.89 M-75.3 59.89 C-75.66 59.53, -76.01 59.4, -76.7 58.96 M-76.74 59.11 C-77.04 58.83, -77.4 58.72, -78.25 58.63 M-76.74 58.92 C-77.19 58.82, -77.75 58.76, -78.12 58.55 M-78.1 58.65 C-78.26 58.68, -78.47 58.55, -78.91 58.64 M-78.11 58.61 C-78.26 58.63, -78.45 58.65, -78.84 58.62 M-78.85 58.56 C-79.1 58.72, -79.48 58.87, -79.59 58.89 M-78.83 58.67 C-79.05 58.68, -79.16 58.71, -79.57 58.85 M-79.85 59.23 C-80.8 59.68, -81.78 60.49, -82.95 60.94 M-79.53 58.88 C-80.87 59.5, -81.93 60.42, -82.88 61.11 M-83.29 60.88 C-83.65 62.06, -84.64 62.35, -85.7 63.57 M-82.93 61.4 C-83.9 61.66, -84.66 62.51, -85.99 63.58 M-85.82 63.39 C-86.77 64.12, -88.01 65.32, -88.39 65.38 M-86.09 63.44 C-86.6 63.78, -87.11 64.39, -88.2 65.63 M-88.23 65.76 C-88.86 66.51, -90.01 67.15, -90.5 67.32 M-88.33 65.63 C-88.85 65.96, -89.21 66.52, -90.42 67.35 M-90.38 67.61 C-90.67 67.9, -91.14 68.47, -91.69 69.45 M-90.3 67.59 C-90.87 67.97, -91.24 68.59, -91.74 69.31 M-91.82 69.3 C-92.15 70.1, -92.41 70.33, -93.22 71.33 M-91.95 69.27 C-92.17 69.75, -92.38 70.1, -93.1 71.3 M-92.85 71.12 C-93.16 71.61, -93.25 71.98, -94.11 72.95 M-93.12 71.34 C-93.24 72.03, -93.75 72.53, -93.83 73.07 M-94.03 73.26 C-94.25 73.96, -94.24 74.75, -94.39 74.91 M-93.98 73.11 C-94 73.63, -94.25 74.29, -94.56 75.19 M-94.35 75.07 C-94.54 75.55, -94.55 75.96, -94.96 77.11 M-94.57 75.14 C-94.61 75.71, -94.74 76.36, -94.88 77.11 M-95.08 76.97 C-94.74 77.85, -94.92 78.36, -94.9 79.16 M-94.91 77.2 C-95.01 77.89, -94.97 78.79, -94.99 79.33 M-94.88 79.17 C-95.23 80.09, -95.28 80.89, -94.92 81.52 M-95.15 79.26 C-94.99 79.94, -95.06 80.68, -95.19 81.51 M-95.1 81.64 C-95.26 82.33, -94.99 83.15, -95.06 84.23 M-95.02 81.66 C-95 82.26, -94.95 82.7, -94.96 84.05 M-95.13 84.38 C-95.26 85.1, -95.18 85.92, -95.17 86.65 M-94.99 84.1 C-94.87 84.86, -94.84 85.62, -94.82 86.75 M-95.2 86.82 C-94.99 87.57, -94.74 89.06, -94.97 90.09 M-94.92 86.75 C-94.92 87.68, -94.84 88.64, -94.83 89.84 M-95.09 90.02 C-95.09 91.38, -94.49 92.01, -94.94 93.31 M-94.71 90.02 C-94.87 91.23, -94.57 92.35, -94.64 93.15 M-94.92 93.06 C-94.54 94.31, -94.41 95.47, -94.78 96.95 M-94.82 93.09 C-94.81 94.37, -94.88 95.5, -94.88 96.85 M-94.73 96.62 C-94.34 98.9, -94.5 99.84, -94.72 102.27 M-94.59 96.74 C-94.69 98.46, -94.94 100.03, -94.79 102.03 M-94.69 102.39 C-94.38 104.06, -95.1 105.63, -94.72 107.23 M-94.8 102.14 C-94.97 102.93, -94.6 104.21, -94.99 106.86 M-94.93 106.9 C-94.96 108.09, -94.83 108.87, -94.88 109.9 M-94.81 107.06 C-94.85 107.69, -94.8 108.37, -94.94 109.58 M-94.85 109.63 C-94.94 110.41, -94.43 111.24, -94.66 112.18 M-94.94 109.67 C-94.79 110.56, -94.58 111.58, -94.63 112.24 M-94.56 112.23 C-94.48 112.62, -94.53 113.13, -94.02 114.6 M-94.65 112.02 C-94.45 113.14, -94.19 113.91, -94.03 114.67 M-93.85 114.38 C-93.85 115.24, -93.56 115.71, -93.18 116.9 M-93.94 114.52 C-93.61 115.13, -93.55 115.59, -92.87 116.9 M-93 117.5 C-90.16 117.92, -87.55 119.13, -86.26 118.9 M-93.09 116.65 C-91.37 117.29, -90.32 117.92, -86.48 119.4 M-86.18 119.18 C-84.4 118.78, -83.47 119.64, -80.7 120.9 M-86.59 119.11 C-84.52 119.37, -81.81 120.27, -80.25 120.98 M-79.83 120.98 C-78 120.72, -74.91 121.65, -74.02 121.32 M-80.2 120.71 C-78.22 120.92, -76.6 121.45, -74.23 121.42 M-73.52 121.56 C-71.92 122.37, -69.39 122.08, -68.65 121.98 M-74.09 121.5 C-72.76 121.61, -70.85 122.04, -68.33 122.03 M-68.42 122.03 C-66.41 121.5, -64.93 122.17, -62.58 121.69 M-68.04 121.79 C-67 122.3, -65.83 122.05, -62.92 121.87 M-63.01 122.07 C-60.55 121.12, -59.01 121.67, -57.16 120.98 M-62.68 121.94 C-60.9 121.76, -59.24 121.12, -57.16 121.25 M-57.06 121.07 C-56.09 120.56, -54.55 119.79, -52.58 119.54 M-57.36 121.07 C-55.7 120.88, -53.91 120.49, -51.98 119.75 M-51.75 120.04 C-50.46 119.55, -49.55 118.72, -47.51 118.24 M-52.42 119.68 C-51.05 119.38, -49.62 118.68, -47.26 118.22 M-46.88 118.24 C-45.89 117.42, -43.5 116.25, -42.51 115.79 M-47.14 118.25 C-46.29 117.57, -45.38 117.26, -42.62 115.89 M-42.32 116.2 C-41.17 114.84, -40.44 113.98, -38.28 112.81 M-42.46 116.12 C-41.78 115.49, -40.74 114.83, -38.45 113.41 M-38.38 113.45 C-37.78 112.53, -35.96 112.26, -33.99 110.53 M-38.4 113.37 C-37.26 112.56, -36.31 112.23, -34.01 110.03 M-34.05 110.45 C-33.26 109.27, -32.35 108.88, -29.65 106.59 M-34.2 110.08 C-32.94 109.12, -31.5 107.96, -29.97 107.03 M-30.51 106.32 C-29.37 106.14, -27.87 105.34, -26.55 103.07 M-29.92 106.74 C-28.84 105.39, -27.52 104.43, -26.55 102.94 M-26.25 102.92 C-24.94 102.26, -24.03 100.72, -23.36 99.15 M-26.57 102.96 C-25.31 101.49, -23.66 100.23, -22.98 99.01 M-22.69 99.38 C-22.18 97.87, -20.61 95.97, -19.67 95.05 M-22.98 98.91 C-22.08 97.54, -20.85 96.38, -19.72 94.38 M-19.26 95.08 C-19.21 93.09, -17.75 91.65, -16.36 89.73 M-19.65 94.61 C-19.06 93.08, -18.12 91.91, -16.43 90.11 M-17.02 89.49 C-15.79 88.87, -15.23 87.35, -13.89 85.15 M-16.65 89.68 C-15.51 88.24, -14.58 86.23, -13.66 85.21 M-13.43 85.42 C-12.79 83.2, -11.79 81.52, -11.49 79.42 M-13.7 84.87 C-13.08 82.84, -12 81.08, -11.31 79.72 M-11.8 79.79 C-10.82 78.13, -9.93 76.25, -8.63 74.48 M-11.44 79.64 C-11.03 78.72, -10.53 77.75, -9.25 74.59 M-9.14 74.82 C-9.02 73.16, -7.62 72.48, -6.64 69.12 M-9.16 74.73 C-8.47 73.06, -7.76 71.57, -6.81 69.21 M-6.88 68.65 C-6.23 67.19, -6 64.73, -5.62 63.33 M-6.63 69.16 C-6.34 67.29, -5.89 65.68, -5.24 63.41 M-5.56 63.33 C-4.18 62.09, -4.35 60.07, -3.64 58.23 M-4.84 63.45 C-4.66 61.3, -3.82 59.3, -3.69 57.37 M-3.93 57.59 C-3.53 55.83, -2 54.11, -1.86 52.26 M-3.7 57.71 C-3.3 56.51, -2.64 55.12, -2.24 51.98 M-1.8 51.31 C-1.31 50.62, -1.46 48.45, -1.42 45.8 M-2.1 52.03 C-1.64 50.21, -1.4 48.74, -0.81 45.64 M-0.43 45.45 C-0.03 43.37, -0.68 41.52, -0.24 39.74 M-1.02 45.64 C-0.66 43.84, -0.02 42.01, 0.14 40.04 M0.63 40.57 C0.26 37.7, 0.67 35.86, 0.57 34.15 M-0.05 39.74 C0.23 38.14, 0.73 36.32, 0.72 33.98 M0.78 34.32 C0.74 31.97, 0.92 30.08, 1.11 28.07 M0.78 34.24 C0.75 32.56, 0.89 31.18, 0.93 27.95 M1.46 28.41 C1.34 26.45, 1.84 23.73, 1.08 22.89 M1.42 28.22 C1.43 26.14, 1.58 24.36, 1.13 22.09 M1.08 22.42 C1.08 20.9, 1.8 18.62, 1.69 16.28 M1.23 22.09 C1.64 20.63, 1.12 18.37, 1.4 16.63 M1.61 16.05 C1.53 15.77, 1.74 14.33, 0.67 11.34 M1.68 16.74 C1.12 15.44, 1.61 13.92, 1.38 11.1 M1.23 11.18 C1.13 8.84, 0.52 6.31, 1.03 4.87 M1.16 11.06 C1.37 9.57, 0.8 8.35, 0.86 5.28 M0.84 4.91 C0.61 4.11, 0.6 2.77, 0.43 -0.27 M0.57 5.21 C0.75 3.59, 0.39 2.02, 0.19 0.15 M0 0 C0 0, 0 0, 0 0 M0 0 C0 0, 0 0, 0 0 M0 0 C0 0, 0 0, 0 0 M0 0 C0 0, 0 0, 0 0" stroke="#000000" stroke-width="1" fill="none"/></g></g><g stroke-linecap="round"><g transform="translate(94.41396578893838 92.68762387589265) rotate(0 -30.44734333842449 1.3306765637611875)" fill-rule="evenodd"><path d="M-1.88 1.96 L-0.31 -0.14 L0.67 11.08 L-1.98 18.69 L-3.82 29.05 L-3.66 39.17 L-7.43 46.66 L-12.09 55.56 L-11.68 62.02 L-13.93 64.96 L-15.95 71.01 L-17.35 72.69 L-20.24 75.7 L-25.09 76.76 L-26.12 77.44 L-31.5 76.71 L-35.32 76.9 L-37.42 77.5 L-43.24 81.08 L-47.76 79.15 L-47.42 79.16 L-48.65 78.6 L-53.61 76.26 L-54.22 78.18 L-59.27 76.71 L-58.29 76.4 L-61.48 75.88 L-63.5 73.68 L-63.41 74.2 L-64.52 73.49 L-66.27 69.18 L-64.11 70.35 L-65.36 67.39 L-65.1 65.87 L-66.02 60.45 L-66.35 56.7 L-67.67 53.04 L-62.55 52.72 L-55.64 47.72 L-53.86 46.2 L-51.04 44.64 L-47.72 41.72 L-43.12 36.16 L-42.91 32.65 L-39.19 31.68 L-38.28 27.45 L-36.64 21.69 L-36.73 17.62 L-34.9 13.74 L-33.24 9.74 L-35.48 4.41 L-34.6 -2.93 L-33.86 -13.53 L-32.99 -20.1 L-32.88 -28.8 L-35.4 -37.34 L-35.31 -49.11 L-36.1 -55.31 L-37.93 -65.08 L-37.42 -75.61 L-25.63 -75.62 L-14.35 -75.44 L-10.52 -76.99 L-6.41 -75.5 L0.54 -76.35 L5.15 -73.74 L3.59 -36.23 L3.15 -17.91 L-0.02 -10.75 L-1.48 -0.06 L-1.89 -1.39" stroke="none" stroke-width="0" fill="#FFFFFF" fill-rule="evenodd"/><path d="M0 0 C0 0, 0 0, 0 0 M0 0 C0 0, 0 0, 0 0 M0.77 -0.1 C-1.24 2.6, 0.11 7.3, -1.51 9.52 M0.37 0.23 C-0.47 3.43, -0.71 8.11, -1.41 10.09 M-1.1 10.94 C-1.84 12.94, -2.05 14.48, -2.53 20.68 M-0.74 10.39 C-1.49 12.46, -1.47 15.15, -2.05 19.58 M-2.67 20.84 C-1.63 23.04, -2.46 25.52, -2.83 28.9 M-2.34 19.48 C-3.04 23.48, -3.01 27.73, -4.07 29.53 M-2.82 29.84 C-4.65 33.53, -4.76 36.73, -5.55 39.27 M-3.69 29.79 C-3.85 32.73, -5.21 35.95, -5.33 38.43 M-4.85 38.08 C-5.28 40.44, -6.22 42.98, -6.97 48.25 M-5.38 39.21 C-5.77 41.79, -6.68 44.04, -7.37 47.97 M-7.61 47.22 C-8.64 50.89, -8.84 54.3, -10.55 56.97 M-7.5 47.74 C-8.25 49.88, -8.69 53.08, -9.73 56.16 M-10.14 56.44 C-10.89 57.82, -10.76 58.8, -12.19 60.85 M-10.01 56.26 C-10.7 57.89, -11.29 59.42, -11.92 60.92 M-11.93 61.18 C-12.32 61.89, -12.62 62.48, -13.44 64.74 M-11.96 60.89 C-12.19 61.55, -12.69 62.4, -13.57 65.1 M-13.71 64.66 C-14.06 66.32, -14.46 67.36, -15.19 69.22 M-13.46 64.75 C-14.42 66.4, -14.96 68.04, -15.42 69.25 M-15.07 69.29 C-15.93 70.51, -16.57 71.3, -17.78 73.1 M-15.73 69.23 C-16.28 70.69, -16.89 71.85, -17.77 73.14 M-17.77 73.04 C-18.32 73.51, -19.47 74.03, -20.27 74.8 M-17.76 73.17 C-18.64 73.76, -19.46 74.19, -20.1 74.51 M-20.05 74.43 C-21.53 74.98, -22.31 75.29, -23.56 75.54 M-20.08 74.53 C-20.96 74.68, -21.72 75.27, -23.41 75.86 M-23.44 75.7 C-24.46 76.54, -25.26 76.4, -27.4 77.33 M-23.53 75.68 C-24.75 76.28, -26.01 76.68, -27.01 76.97 M-27.32 77.45 C-28.34 77.44, -28.82 77.29, -31.13 78.26 M-27.17 77.15 C-28.44 77.31, -29.9 77.92, -30.82 78.02 M-30.66 78.27 C-32.53 78, -33.46 78.38, -34.78 78.43 M-31.06 77.95 C-32.64 78.21, -34.3 78.53, -34.98 78.81 M-35.05 78.51 C-36.51 78.58, -38.35 79.47, -39.44 79.59 M-34.96 78.93 C-36.04 78.71, -37.03 79.11, -39.02 79.38 M-39.18 79.48 C-40.25 79.2, -42.29 79, -43.34 79.12 M-39.1 79.07 C-40.06 79.36, -41.21 79.29, -43.13 79.05 M-43.21 79.2 C-44.29 78.76, -44.82 78.88, -46.37 78.94 M-43.07 79.33 C-44.36 79.15, -45.55 78.84, -46.6 78.72 M-46.62 78.77 C-46.52 78.85, -46.34 78.85, -45.88 79 M-46.62 78.75 C-46.45 78.79, -46.28 78.85, -45.85 78.96 M-45.55 79.16 C-46.97 78.85, -47.92 78.54, -49.61 78.36 M-45.74 79.01 C-46.49 78.61, -47.49 78.44, -49.15 78.05 M-49.19 77.88 C-50.15 77.67, -50.85 77.9, -52.66 77.62 M-49.45 78 C-50.09 77.89, -51.08 77.71, -52.43 77.38 M-52.23 77.31 C-53.08 77.49, -54.21 77.28, -55.32 77.03 M-52.29 77.47 C-53.34 77.2, -54.36 77.12, -54.96 76.77 M-55.04 76.74 C-55.45 76.87, -56.39 76.71, -57.45 76.41 M-55.08 76.88 C-55.96 76.7, -56.64 76.36, -57.37 76.39 M-57.38 76.18 C-57.84 76.06, -58.12 76.15, -59.4 75.53 M-57.3 76.33 C-57.92 76.08, -58.44 75.9, -59.34 75.81 M-59.2 75.55 C-59.89 75.62, -60.16 75.45, -61.1 75.11 M-59.34 75.76 C-60.03 75.54, -60.61 75.28, -61.02 75.09 M-60.99 75.03 C-61.42 75.03, -61.9 74.53, -62.42 74.34 M-61.01 75.03 C-61.33 74.84, -61.79 74.72, -62.39 74.39 M-62.46 74.27 C-62.54 74.03, -63.06 73.89, -63.59 73.34 M-62.34 74.42 C-62.62 74.05, -62.99 73.9, -63.44 73.51 M-63.5 73.39 C-63.68 73.06, -63.89 72.92, -64.31 72.43 M-63.51 73.52 C-63.78 73.17, -63.95 72.75, -64.25 72.34 M-64.42 72.28 C-64.65 71.95, -64.86 71.34, -65.06 71.04 M-64.38 72.3 C-64.39 72.07, -64.68 71.65, -64.94 70.92 M-64.94 70.85 C-64.96 70.47, -65.38 69.79, -65.49 69.32 M-65.02 70.96 C-65.02 70.51, -65.14 70.04, -65.47 69.28 M-65.48 69.34 C-65.53 68.53, -65.5 67.9, -65.55 67.37 M-65.4 69.4 C-65.43 68.52, -65.63 67.81, -65.72 67.19 M-65.64 67.13 C-65.89 66.79, -65.68 65.72, -65.99 64.54 M-65.78 67.27 C-65.85 66.6, -65.87 65.82, -65.95 64.8 M-65.8 64.64 C-65.74 63.87, -65.61 63.1, -65.87 61.64 M-65.71 64.8 C-65.86 63.98, -65.88 63.14, -65.79 61.76 M-66.17 61.64 C-65.94 60.47, -66.05 59.66, -65.74 58.12 M-66.05 61.96 C-65.7 60.73, -65.93 59.47, -66.01 58.33 M-65.96 58.78 C-65.6 57.67, -65.96 56.25, -65.66 54.52 M-65.86 58.38 C-65.97 57.38, -65.67 56.1, -65.73 54.62 M-65.67 54.52 C-64.57 53.73, -63.81 52.83, -61.49 51.85 M-65.95 54.27 C-64.33 53.61, -62.86 53.02, -61.28 51.91 M-61.23 51.66 C-59.81 51.05, -58.08 50.4, -57.4 49.29 M-61.38 52.01 C-60.15 50.77, -58.42 50.17, -57.2 49.44 M-57.2 49.36 C-56.52 48.7, -56.04 48.44, -53.63 46.43 M-57.36 49.11 C-55.86 48.38, -54.97 47.47, -53.65 46.45 M-53.42 46.23 C-52.15 45.69, -51.7 44.18, -50.49 43.12 M-53.72 46.62 C-52.86 45.76, -52.35 45.3, -50.38 43.47 M-50.08 43.25 C-49.38 42.44, -48.66 41.54, -47.8 40.2 M-50.66 43.51 C-49.27 42.17, -48.16 40.96, -47.69 40.23 M-47.96 39.89 C-46.59 39.04, -45.57 38.28, -45.27 36.68 M-47.52 40.15 C-46.79 39.1, -45.92 38.31, -44.76 36.9 M-45.33 36.68 C-44.04 35.32, -43.03 34, -42.71 33.16 M-45 36.79 C-43.9 35.67, -43.19 34.1, -42.71 33.5 M-42.57 33.32 C-41.73 31.96, -41.57 30.88, -40.39 29.89 M-42.63 33.4 C-41.97 32.4, -41.29 30.86, -40.84 29.8 M-40.6 30.27 C-40.19 28.01, -39.74 27.04, -39.22 25.9 M-40.55 29.99 C-40.11 28.92, -39.67 27.55, -38.81 25.93 M-38.8 26.11 C-38.9 25.33, -38.11 23.97, -37.83 22.11 M-39.17 26.06 C-38.39 24.67, -37.88 23.42, -37.54 22.29 M-37.72 22.38 C-37.32 21.34, -36.72 19.66, -36.08 17.95 M-37.55 22.07 C-37.1 21.17, -36.78 20.18, -36.36 18.18 M-36.07 18.49 C-35.84 16.51, -35.23 15.22, -35.4 14.53 M-36.37 18.08 C-36.1 17.45, -35.97 16.68, -35.15 14.09 M-35.16 14.05 C-35.34 13.31, -34.93 11.54, -34.92 10.32 M-35.54 14.05 C-35.17 12.62, -34.49 11.11, -34.4 9.94 M-34.19 10.46 C-34.66 9.01, -34.52 7.26, -34.22 6.06 M-34.6 10.04 C-34.3 9.28, -34.49 8.11, -34.06 5.74 M-33.79 5.56 C-33.8 3.54, -33.02 1.53, -33.41 -3.4 M-34.31 5.62 C-33.87 3.27, -33.18 0.4, -33.27 -2.92 M-32.97 -2.29 C-32.54 -5.55, -34.01 -6.18, -34.01 -11.13 M-33.6 -2.98 C-33.37 -5.36, -33.44 -7.09, -33.68 -12.15 M-32.92 -11.91 C-32.72 -14.23, -34.34 -17.23, -33.03 -20.25 M-32.8 -11.39 C-33.68 -15.03, -33.01 -17.83, -33.23 -20.4 M-34.19 -20.51 C-33.2 -22.34, -33.29 -25.87, -34.29 -30.54 M-33.14 -21.26 C-33.66 -24.15, -34.23 -27.09, -34.48 -29.78 M-34 -30.12 C-33.91 -32.32, -35 -33.79, -34.92 -40.02 M-34.09 -30.03 C-34.28 -31.74, -34.5 -33.8, -34.96 -39.2 M-34.2 -38.82 C-34.86 -41.86, -34.71 -44.5, -34.99 -48.98 M-35.23 -39.41 C-34.95 -41.88, -35.2 -44.41, -35.48 -48.3 M-36.41 -48.32 C-36.82 -51.18, -35.64 -53.89, -36.32 -56.63 M-35.55 -48.47 C-35.95 -51.37, -36.58 -54.52, -36.56 -56.87 M-37.16 -56.93 C-36.43 -59.5, -36.88 -62.74, -37.63 -64.97 M-36.29 -56.64 C-36.34 -59.59, -36.54 -62.58, -36.84 -66.03 M-37.67 -65.35 C-37.48 -68.51, -37.65 -72.66, -37.14 -73.6 M-36.58 -65.78 C-36.58 -68.05, -36.65 -70.74, -36.81 -74.1 M-37.33 -75.12 C-34.06 -73.62, -32.49 -74.14, -26.6 -75.16 M-37.11 -74.35 C-33.73 -74.3, -30.6 -75.12, -26.2 -75.55 M-27.47 -74.47 C-22.63 -76.4, -21.17 -75.86, -15.1 -75.89 M-26.83 -75.21 C-21.85 -76.02, -17.95 -76.57, -15.74 -75.9 M-15.66 -76.58 C-14.04 -76.65, -13.11 -76.45, -10.46 -76.92 M-15.96 -76.48 C-14.13 -76.55, -12.23 -76.61, -10.55 -76.65 M-10.15 -76.11 C-8.4 -76.66, -6.71 -76.16, -5.24 -76.24 M-10.54 -76.59 C-9.43 -76.49, -7.87 -76.42, -5.01 -76.42 M-4.83 -76.45 C-3.91 -76.87, -1.87 -76.17, -0.34 -75.87 M-5.49 -76.75 C-3.88 -76.63, -2.96 -76.61, 0.14 -76.26 M-0.08 -75.93 C2.09 -75.88, 3.85 -75, 5.08 -75.07 M0.1 -76.34 C1.53 -76.15, 2.55 -75.84, 5.28 -75.29 M3.84 -75.68 C6.53 -61.98, 3.31 -48.15, 4.64 -36.63 M4.89 -75.28 C4.85 -61.45, 3.31 -48.78, 2.58 -38.24 M3.25 -37.99 C1.38 -31.95, 2.16 -24.95, 3.49 -18.59 M2.58 -36.85 C2.24 -30.95, 1.89 -22.84, 2.18 -18.6 M1.34 -18.82 C0.93 -16.02, 0.55 -11.17, 0.45 -8.51 M2.51 -18.54 C1.64 -16.17, 1.91 -13.44, 1.46 -9.28 M1.75 -9.04 C1.75 -5.75, 0.72 -4.19, -0.82 0.04 M1.43 -9.37 C0.5 -5.68, 0.2 -2.01, -0.35 0.21 M0 0 C0 0, 0 0, 0 0 M0 0 C0 0, 0 0, 0 0 M0 0 C0 0, 0 0, 0 0 M0 0 C0 0, 0 0, 0 0" stroke="#000000" stroke-width="1" fill="none"/></g></g></svg>