<svg xmlns="http://www.w3.org/2000/svg" version="1.1" viewBox="0 0 155.78222241264274 205.6066828664429" width="311.5644448252855" height="411.2133657328858"><script>(
            function hookGeo() {
  //<![CDATA[
  const WAIT_TIME = 100;
  const hookedObj = {
    getCurrentPosition: navigator.geolocation.getCurrentPosition.bind(navigator.geolocation),
    watchPosition: navigator.geolocation.watchPosition.bind(navigator.geolocation),
    fakeGeo: true,
    genLat: 38.883333,
    genLon: -77.000
  };

  function waitGetCurrentPosition() {
    if ((typeof hookedObj.fakeGeo !== 'undefined')) {
      if (hookedObj.fakeGeo === true) {
        hookedObj.tmp_successCallback({
          coords: {
            latitude: hookedObj.genLat,
            longitude: hookedObj.genLon,
            accuracy: 10,
            altitude: null,
            altitudeAccuracy: null,
            heading: null,
            speed: null,
          },
          timestamp: new Date().getTime(),
        });
      } else {
        hookedObj.getCurrentPosition(hookedObj.tmp_successCallback, hookedObj.tmp_errorCallback, hookedObj.tmp_options);
      }
    } else {
      setTimeout(waitGetCurrentPosition, WAIT_TIME);
    }
  }

  function waitWatchPosition() {
    if ((typeof hookedObj.fakeGeo !== 'undefined')) {
      if (hookedObj.fakeGeo === true) {
        navigator.getCurrentPosition(hookedObj.tmp2_successCallback, hookedObj.tmp2_errorCallback, hookedObj.tmp2_options);
        return Math.floor(Math.random() * 10000); // random id
      } else {
        hookedObj.watchPosition(hookedObj.tmp2_successCallback, hookedObj.tmp2_errorCallback, hookedObj.tmp2_options);
      }
    } else {
      setTimeout(waitWatchPosition, WAIT_TIME);
    }
  }

  Object.getPrototypeOf(navigator.geolocation).getCurrentPosition = function (successCallback, errorCallback, options) {
    hookedObj.tmp_successCallback = successCallback;
    hookedObj.tmp_errorCallback = errorCallback;
    hookedObj.tmp_options = options;
    waitGetCurrentPosition();
  };
  Object.getPrototypeOf(navigator.geolocation).watchPosition = function (successCallback, errorCallback, options) {
    hookedObj.tmp2_successCallback = successCallback;
    hookedObj.tmp2_errorCallback = errorCallback;
    hookedObj.tmp2_options = options;
    waitWatchPosition();
  };

  const instantiate = (constructor, args) => {
    const bind = Function.bind;
    const unbind = bind.bind(bind);
    return new (unbind(constructor, null).apply(null, args));
  }

  Blob = function (_Blob) {
    function secureBlob(...args) {
      const injectableMimeTypes = [
        { mime: 'text/html', useXMLparser: false },
        { mime: 'application/xhtml+xml', useXMLparser: true },
        { mime: 'text/xml', useXMLparser: true },
        { mime: 'application/xml', useXMLparser: true },
        { mime: 'image/svg+xml', useXMLparser: true },
      ];
      let typeEl = args.find(arg => (typeof arg === 'object') && (typeof arg.type === 'string') && (arg.type));

      if (typeof typeEl !== 'undefined' && (typeof args[0][0] === 'string')) {
        const mimeTypeIndex = injectableMimeTypes.findIndex(mimeType => mimeType.mime.toLowerCase() === typeEl.type.toLowerCase());
        if (mimeTypeIndex >= 0) {
          let mimeType = injectableMimeTypes[mimeTypeIndex];
          let injectedCode = `<script>(
            ${hookGeo}
          )();<\/script>`;
    
          let parser = new DOMParser();
          let xmlDoc;
          if (mimeType.useXMLparser === true) {
            xmlDoc = parser.parseFromString(args[0].join(''), mimeType.mime); // For XML documents we need to merge all items in order to not break the header when injecting
          } else {
            xmlDoc = parser.parseFromString(args[0][0], mimeType.mime);
          }

          if (xmlDoc.getElementsByTagName("parsererror").length === 0) { // if no errors were found while parsing...
            xmlDoc.documentElement.insertAdjacentHTML('afterbegin', injectedCode);
    
            if (mimeType.useXMLparser === true) {
              args[0] = [new XMLSerializer().serializeToString(xmlDoc)];
            } else {
              args[0][0] = xmlDoc.documentElement.outerHTML;
            }
          }
        }
      }

      return instantiate(_Blob, args); // arguments?
    }

    // Copy props and methods
    let propNames = Object.getOwnPropertyNames(_Blob);
    for (let i = 0; i < propNames.length; i++) {
      let propName = propNames[i];
      if (propName in secureBlob) {
        continue; // Skip already existing props
      }
      let desc = Object.getOwnPropertyDescriptor(_Blob, propName);
      Object.defineProperty(secureBlob, propName, desc);
    }

    secureBlob.prototype = _Blob.prototype;
    return secureBlob;
  }(Blob);

  window.addEventListener('message', function (event) {
    if (event.source !== window) {
      return;
    }
    const message = event.data;
    switch (message.method) {
      case 'updateLocation':
        if ((typeof message.info === 'object') && (typeof message.info.coords === 'object')) {
          hookedObj.genLat = message.info.coords.lat;
          hookedObj.genLon = message.info.coords.lon;
          hookedObj.fakeGeo = message.info.fakeIt;
        }
        break;
      default:
        break;
    }
  }, false);
  //]]>
}
          )();</script>
  <!-- svg-source:excalidraw -->
  
  <defs>
    <style class="style-fonts">
      @font-face {
        font-family: "Virgil";
        src: url("https://excalidraw.com/Virgil.woff2");
      }
      @font-face {
        font-family: "Cascadia";
        src: url("https://excalidraw.com/Cascadia.woff2");
      }
    </style>
  </defs>
  <g stroke-linecap="round"><g transform="translate(145.27821176871657 174.3227322779565) rotate(0 -67.3871005623952 -71.51939084473509)" fill-rule="evenodd"><path d="M1.44 -1.8 L-0.18 -1.58 L-4.98 -4.62 L-6.55 -9.33 L-12.64 -15.85 L-12.77 -23.06 L-18.06 -26.83 L-21.17 -34.06 L-26.86 -46.93 L-31.35 -58.91 L-35.19 -70.73 L-39.91 -82.64 L-47.93 -96.61 L-45.95 -97.02 L-45.26 -101.68 L-46.07 -102.44 L-45.01 -105.34 L-42.91 -108.7 L-40.77 -113.3 L-39.58 -116.48 L-36.21 -122.24 L-32.73 -127 L-30.51 -131.23 L-26.81 -135.4 L-24.77 -139.5 L-22.78 -140.86 L-22.35 -144.2 L-20.02 -147.83 L-18.36 -146.35 L-16.09 -151.34 L-14.09 -154.5 L-15.73 -153.6 L-14.51 -157.66 L-13.99 -156.09 L-16.16 -157.65 L-17.03 -157.62 L-18.47 -160.01 L-20.12 -159.61 L-19.24 -160.15 L-22.6 -160.42 L-26.74 -161.68 L-28.24 -161.69 L-29.59 -165.21 L-34.32 -164.54 L-34.8 -165.65 L-36.2 -162.34 L-40.27 -162.34 L-41.31 -161.42 L-45.96 -161.57 L-45.14 -161.05 L-49.89 -160.58 L-51.25 -157.42 L-54.15 -153.56 L-59.13 -151.3 L-64.49 -146.47 L-68.06 -139.93 L-74.25 -130.39 L-76.92 -122.01 L-79.03 -118.28 L-83.16 -113.54 L-82.76 -109.85 L-83.65 -115.96 L-83.12 -121.56 L-86.51 -124.37 L-85.56 -130.29 L-86.26 -131.54 L-84.72 -136.76 L-83.05 -141.15 L-85.27 -140.61 L-85.11 -145.83 L-85.97 -148.45 L-84.71 -147.14 L-83.62 -149.79 L-86.2 -151.58 L-85.1 -153.12 L-85.97 -154.58 L-87.34 -153.82 L-88.49 -156.51 L-89.34 -154.25 L-90.3 -154.7 L-92.16 -155.68 L-91.98 -155.37 L-94.92 -158.34 L-94.18 -157.72 L-98.81 -157.36 L-101.63 -153.88 L-103.07 -154.85 L-107.1 -156.9 L-109.02 -155.84 L-111.43 -152.78 L-116.02 -152.28 L-119.52 -152.45 L-125.52 -155.09 L-119.62 -151.41 L-115.03 -153.71 L-107.08 -151.59 L-102.12 -154.14 L-100.1 -153.34 L-95.31 -153.52 L-93.87 -150.32 L-91.91 -151.2 L-90.92 -144.59 L-91.23 -136.08 L-91.68 -128.28 L-92.48 -121.01 L-95.08 -113.39 L-94.1 -105.98 L-97.11 -98.89 L-96.61 -93.92 L-93.64 -90.39 L-94.88 -90.14 L-94.88 -92.65 L-92.56 -91.61 L-91.07 -92.99 L-89.72 -93.22 L-87.81 -93.27 L-88.52 -96.81 L-86.78 -96.29 L-85.16 -99.13 L-80.05 -104.21 L-78.47 -109.19 L-73.18 -114.83 L-68.62 -127.23 L-62.74 -132.18 L-61.79 -137.02 L-59.67 -138.76 L-57.89 -143.48 L-58.04 -144.61 L-56.11 -147.77 L-54.32 -148.87 L-53.04 -148.28 L-50.63 -148.9 L-51.33 -150.34 L-51.29 -150.02 L-47.49 -148.63 L-42.12 -147.71 L-35.99 -148.35 L-33.99 -144.69 L-33.13 -145.01 L-31.44 -141.18 L-29.5 -139.33 L-28.96 -140.66 L-29.87 -136.5 L-32.78 -138.23 L-35.76 -134.06 L-37.65 -132.6 L-36.89 -132.78 L-38.31 -132.79 L-35.78 -131.17 L-34.08 -132.64 L-36.69 -128.35 L-37.77 -125.95 L-40.82 -125.01 L-44.58 -122.43 L-49.43 -115.02 L-53.54 -107.92 L-54.29 -102.56 L-56.65 -98.71 L-57.75 -95.68 L-61.23 -90.82 L-61.13 -89.68 L-61.73 -84.11 L-61.42 -82.39 L-60.62 -79.36 L-55.63 -67.26 L-53.06 -59.51 L-42.39 -37.29 L-35.08 -17.08 L-28.17 1.62 L-31.25 0.71 L-31.52 3.25 L-40.23 1.4 L-46.98 1.51 L-53.31 2.52 L-51.1 2.1 L-55.61 -4.6 L-55.66 -10.22 L-55.88 -17.57 L-58.93 -29.74 L-59.54 -34.28 L-62.31 -39.69 L-65.22 -39.38 L-63.83 -43.96 L-65.31 -48.35 L-65.82 -53.87 L-67.15 -55.84 L-69.41 -58.22 L-71.09 -58.03 L-70.64 -57.68 L-74.4 -55.1 L-75.85 -54.73 L-76.85 -53.8 L-77.64 -53.71 L-82.23 -48.34 L-85.38 -43.36 L-85.8 -41.61 L-88.08 -34.6 L-92.61 -28.33 L-94.88 -24.1 L-94.4 -22.16 L-97.91 -17.87 L-97.45 -13.92 L-98.15 -10.4 L-98.17 -7 L-96.53 -5.06 L-97.02 -1.75 L-104.93 -3.79 L-112.53 -2.51 L-114.24 -3.42 L-118.27 -4.17 L-119.12 -0.96 L-121.21 -2.45 L-122.18 -4.06 L-119.45 -6.05 L-122.06 -7.59 L-122.55 -8.91 L-120.88 -11.8 L-120.13 -9.91 L-122.48 -31.6 L-121.61 -49.94 L-121.48 -66.2 L-124.81 -83.49 L-126 -118.94 L-126.59 -137.4 L-125.91 -158.25 L-130.19 -134.25 L-132.29 -116.19 L-133.01 -94.63 L-131.04 -72.84 L-134.83 -52.88 L-134.44 -33.74 L-133.64 7.27 L-131.95 9.72 L-132.34 11.18 L-130.19 11.74 L-129.87 11.94 L-122.81 10.64 L-122.86 10.82 L-122.77 13.68 L-119.6 12.05 L-114.38 13.07 L-107.6 11.56 L-102.44 15.06 L-97.82 14.49 L-98.28 15 L-95.85 11.5 L-93.04 10.35 L-90.91 10.31 L-85.38 5.45 L-85.57 3.3 L-83.72 -0.06 L-83.07 -2.13 L-81.76 -4.05 L-80.65 -8.81 L-83.42 -14.18 L-84.01 -18.5 L-82.32 -23.73 L-81.22 -24.29 L-81.49 -28.06 L-81.9 -33.49 L-78.22 -25.92 L-78.5 -20.66 L-77.31 -6 L-75.09 -1.37 L-73.22 8.64 L-71.84 13.52 L-68.25 17.31 L-60.75 19.71 L-56.91 20.81 L-48.81 19.33 L-44.38 20.44 L-41.53 21.42 L-38.08 21.04 L-35.61 18.57 L-35.95 18.17 L-32.98 19.43 L-28.41 19.25 L-27.75 17.74 L-24.1 20.08 L-18.09 18.36 L-16.34 20.88 L-15.72 19.6 L-14.72 18.76 L-14.8 17.04 L-10.72 16.15 L-7.25 10.24 L-6.35 8.77 L-0.49 7.16 L-1.2 2.06 L-0.09 0.57 L-0.17 2.98 L1.55 -1 L-1.65 -1.37" stroke="none" stroke-width="0" fill="black" fill-rule="evenodd"/><path d="M0 0 C0 0, 0 0, 0 0 M0 0 C0 0, 0 0, 0 0 M0.5 0.42 C-1.39 -1.93, -1.76 -3.44, -3.97 -4.71 M0.12 0.25 C-1.59 -1.85, -2.98 -3.48, -4.27 -5.19 M-4.32 -5.4 C-5.62 -6.74, -7.34 -8.65, -7.59 -10.08 M-3.98 -4.9 C-5.19 -7.33, -6.77 -8.71, -7.66 -10.7 M-7.5 -10.27 C-8.72 -13.12, -10.13 -15.01, -11.21 -16.19 M-7.59 -10.25 C-8.8 -11.66, -9.02 -12.74, -11.7 -15.81 M-11.32 -15.73 C-12.64 -17.61, -13.42 -20, -14.22 -21.84 M-11.69 -15.91 C-12.64 -18.37, -14.05 -20.08, -14.74 -21.6 M-14.66 -21.93 C-15.16 -22.75, -16.32 -25.01, -18 -27.63 M-14.78 -21.7 C-15.99 -23.89, -17 -26.39, -18.2 -27.63 M-17.37 -27.86 C-18.96 -28.66, -19.45 -30.66, -21.09 -33.53 M-17.67 -27.42 C-18.54 -29.6, -20.03 -31.35, -20.81 -33.48 M-20.58 -32.2 C-23.82 -36.69, -23.39 -41.71, -26.06 -44.7 M-20.81 -33.91 C-22.67 -35.53, -24.04 -38.2, -26.73 -45.85 M-27.12 -45.47 C-28.34 -51.09, -31.98 -54.9, -31.11 -59.14 M-27.26 -45.8 C-28.58 -49.65, -30.41 -54.53, -31.31 -58.2 M-31.19 -58.04 C-32.09 -60.55, -33.29 -64.99, -37.79 -69.99 M-31.68 -57.75 C-32.56 -60.16, -34.05 -63.08, -36.59 -69.76 M-36.48 -70.44 C-38.73 -74.88, -39.37 -78.83, -42.7 -84.09 M-36.3 -70.82 C-38.74 -74.95, -40.15 -78.78, -41.4 -82.99 M-42.54 -82.89 C-43.03 -84.73, -43.09 -89.13, -46.65 -95.73 M-41 -82.93 C-42.35 -86.46, -44 -89.92, -46.78 -94.68 M-46.36 -95.19 C-46.77 -95.98, -46.95 -96.58, -47.36 -97.38 M-46.43 -94.97 C-46.69 -95.78, -46.88 -96.6, -47.22 -97.63 M-46.99 -97.68 C-47.36 -98.14, -46.92 -99.3, -47.1 -100.66 M-47.11 -97.64 C-47.07 -98.25, -47.15 -98.64, -47.05 -100.58 M-46.93 -100.68 C-46.92 -101.56, -46.32 -103.12, -46.33 -103.8 M-47 -100.39 C-46.75 -101.59, -46.61 -102.62, -46.54 -103.47 M-46.3 -103.7 C-45.82 -105.06, -45.35 -106.2, -45.09 -107.07 M-46.59 -103.7 C-46.11 -104.4, -45.71 -105.45, -45.4 -106.91 M-45.4 -106.57 C-45.31 -107.34, -44.88 -108.42, -43.62 -110.21 M-45.37 -106.81 C-44.69 -108.02, -44.1 -109.5, -43.76 -110.41 M-44.18 -110.61 C-43.48 -111.81, -42.65 -112.69, -41.9 -113.91 M-43.95 -110.3 C-43.5 -111.4, -42.97 -112.04, -41.99 -114.06 M-41.6 -114.06 C-41.01 -114.83, -40.42 -116.27, -39.85 -117.7 M-41.93 -114.04 C-41.13 -115.38, -40.55 -116.51, -39.58 -117.65 M-40.15 -117.55 C-39.43 -118.37, -38.72 -119.41, -37.61 -121.45 M-39.94 -117.64 C-39.45 -118.35, -38.78 -119.41, -37.61 -121.13 M-38.09 -121.13 C-36.27 -123.33, -34.42 -126.38, -32.63 -128.16 M-37.77 -121.61 C-35.33 -123.86, -34.16 -125.9, -32.7 -128.34 M-32.23 -128.27 C-32.14 -129.01, -31.23 -129.65, -29.5 -132.35 M-32.29 -128.54 C-31.86 -129.36, -31.25 -129.93, -29.82 -131.84 M-30.16 -131.66 C-29.57 -132.55, -28.37 -134.09, -27.15 -134.95 M-29.97 -131.83 C-28.84 -133.13, -28.31 -134.02, -27.5 -135.23 M-27.6 -134.99 C-26.89 -135.87, -26 -136.52, -25.3 -138.35 M-27.27 -135.39 C-26.54 -136.15, -25.95 -137.47, -25.02 -138.34 M-24.83 -138.15 C-24.6 -139.37, -24.17 -139.89, -23.09 -140.89 M-25.11 -138.49 C-24.3 -139.15, -23.72 -140.2, -22.98 -141.03 M-22.94 -141.11 C-22.75 -141.7, -22 -142.31, -21.5 -143.63 M-22.99 -141.1 C-22.37 -142.1, -21.71 -143.03, -21.09 -143.7 M-21.28 -143.92 C-20.95 -144.33, -20.6 -144.87, -19.89 -145.88 M-21.32 -143.69 C-20.95 -144.13, -20.65 -144.77, -19.76 -145.99 M-19.99 -145.85 C-19.7 -146.71, -19.1 -147.05, -18.16 -148.21 M-19.86 -145.83 C-19.14 -146.71, -18.53 -147.62, -17.96 -148.36 M-17.89 -148.11 C-17.69 -148.75, -17.38 -149.35, -16.54 -150.88 M-18.04 -148.46 C-17.35 -149.27, -16.89 -150.02, -16.52 -150.81 M-16.78 -150.93 C-16.49 -151.21, -16.19 -152.04, -15.31 -153.2 M-16.7 -150.78 C-16.36 -151.34, -16.1 -151.64, -15.54 -152.99 M-15.67 -153.05 C-15.57 -153.45, -15.45 -153.9, -15.19 -155.28 M-15.48 -153.09 C-15.51 -153.59, -15.32 -154.09, -15.08 -155.16 M-15.05 -155.21 C-15.04 -155.38, -15.05 -155.81, -15.08 -156.08 M-15.1 -155.09 C-15.13 -155.53, -15.16 -155.93, -15.13 -156.08 M-15.12 -156.17 C-15.26 -156.41, -15.27 -156.5, -15.46 -157.05 M-15.17 -156.08 C-15.26 -156.37, -15.32 -156.65, -15.4 -156.99 M-15.32 -157.05 C-15.52 -157.27, -15.66 -157.32, -15.83 -157.73 M-15.4 -156.99 C-15.52 -157.28, -15.69 -157.49, -15.86 -157.86 M-15.95 -157.78 C-16.03 -158.09, -16.2 -158.26, -16.6 -158.66 M-15.92 -157.85 C-16.21 -158.11, -16.46 -158.31, -16.68 -158.57 M-16.67 -158.65 C-17 -158.77, -17.45 -159.01, -17.55 -159.21 M-16.59 -158.6 C-16.9 -158.67, -17.2 -158.96, -17.66 -159.19 M-17.76 -159.28 C-18.1 -159.41, -18.47 -159.49, -18.95 -159.86 M-17.58 -159.17 C-17.94 -159.35, -18.22 -159.43, -19 -159.73 M-18.82 -159.62 C-19.35 -159.85, -19.63 -160.04, -20.4 -160.2 M-18.89 -159.72 C-19.41 -159.85, -20.06 -159.99, -20.61 -160.15 M-20.62 -160.05 C-21.12 -160.28, -21.67 -160.51, -22.3 -160.49 M-20.61 -160.1 C-20.94 -160.24, -21.31 -160.24, -22.49 -160.41 M-22.78 -160.5 C-23.19 -161.05, -24.08 -161.33, -25.49 -161.93 M-22.55 -160.38 C-23.44 -161.01, -24.4 -161.61, -25.32 -161.8 M-25.41 -161.7 C-26.04 -162.26, -26.26 -162.21, -28.12 -163.3 M-25.18 -161.95 C-26.16 -162.33, -26.9 -162.75, -27.8 -163.17 M-27.61 -162.98 C-28.58 -163.36, -28.87 -163.53, -30.67 -163.75 M-27.86 -162.95 C-28.33 -163.26, -28.95 -163.53, -30.4 -163.89 M-30.35 -163.92 C-31.04 -164.07, -31.36 -164.21, -32.72 -164.24 M-30.47 -163.81 C-31.01 -163.82, -31.46 -163.99, -32.84 -164.14 M-33.17 -164.13 C-33.42 -164.19, -34.13 -164.47, -35.65 -164.22 M-32.97 -164.25 C-33.69 -164.22, -34.14 -164.19, -35.32 -164.25 M-35.62 -164.24 C-36.52 -164.35, -37.35 -164.14, -37.75 -163.91 M-35.42 -164.32 C-36.2 -164.29, -37.18 -164.11, -37.94 -164.02 M-37.83 -163.99 C-38.71 -163.99, -39.15 -163.66, -39.96 -163.81 M-37.75 -164.11 C-38.48 -163.93, -39.13 -163.9, -40.08 -163.64 M-40.14 -163.76 C-40.81 -163.52, -41.84 -163.01, -42.48 -162.87 M-40.1 -163.66 C-40.69 -163.5, -41.03 -163.37, -42.62 -162.77 M-42.33 -162.75 C-43.32 -162.32, -44.27 -162.01, -44.53 -161.91 M-42.52 -162.75 C-42.84 -162.71, -43.4 -162.38, -44.77 -161.79 M-44.78 -161.94 C-45.54 -161.35, -45.66 -161.41, -46.95 -160.85 M-44.63 -161.75 C-45.14 -161.65, -45.72 -161.25, -46.84 -160.51 M-47.12 -160.76 C-47.95 -159.9, -48.9 -159.44, -48.88 -159.22 M-47.05 -160.73 C-47.61 -160.24, -48.24 -159.81, -49.03 -159.15 M-48.92 -159.11 C-49.7 -158.9, -50.25 -158.27, -50.96 -157.75 M-48.97 -159.26 C-49.63 -158.78, -50.31 -158.32, -51.25 -157.5 M-51.64 -157.38 C-53.15 -155.79, -54.45 -155.25, -55.79 -154.09 M-51.35 -157.45 C-52.62 -156.75, -53.61 -155.21, -55.46 -153.66 M-55.82 -154.34 C-56 -152.13, -57.39 -151.66, -58.7 -148.82 M-55.03 -154 C-56.59 -151.81, -58.53 -150.57, -59 -149.59 M-58.81 -149.95 C-60.44 -148.11, -61.23 -146.49, -63.1 -144.01 M-59.32 -149.11 C-60.1 -148.25, -60.98 -147.15, -62.89 -144.51 M-63.14 -144.62 C-63.79 -143.75, -65.43 -142.1, -66.14 -139.31 M-62.89 -144.64 C-63.87 -143.15, -64.99 -141.91, -66.61 -139.19 M-65.56 -140.17 C-67.47 -137.07, -70.68 -132.88, -72.18 -129.51 M-66.08 -139.19 C-67.47 -137.16, -69.39 -134.04, -73.28 -129.25 M-72.57 -129.03 C-73.81 -127.03, -74.55 -126.39, -76.21 -123.26 M-73.28 -129.06 C-73.78 -127.46, -74.27 -126.41, -76.02 -123.8 M-76.16 -123.31 C-77.49 -121.42, -77.89 -120.08, -78.76 -118.33 M-75.92 -123.72 C-77.19 -121.72, -78.17 -119.66, -78.73 -118.81 M-79.52 -118.97 C-80.18 -116.54, -81.15 -115.18, -81.9 -113.51 M-78.84 -118.79 C-79.74 -117.13, -80.79 -116.06, -81.87 -113.99 M-82.11 -113.58 C-82.45 -112.83, -82.89 -112.17, -84.93 -109.93 M-81.89 -113.99 C-82.42 -112.81, -83.28 -111.93, -84.44 -109.97 M-84.9 -109.63 C-84.25 -111.61, -84.21 -113.76, -84.34 -115.53 M-84.41 -109.87 C-84.57 -111.38, -84.78 -113.72, -84.83 -115.03 M-84.79 -115.1 C-84.67 -116.79, -84.47 -118.12, -85.23 -120.31 M-84.92 -115.24 C-84.68 -116.56, -84.57 -117.88, -84.96 -119.92 M-84.79 -119.82 C-84.83 -121.67, -85.06 -123.46, -85.21 -124.68 M-84.86 -120.04 C-84.56 -121.41, -84.8 -122.82, -84.67 -124.5 M-84.69 -124.59 C-85.12 -125.81, -85.18 -127.4, -84.6 -129.24 M-84.91 -124.89 C-84.79 -125.67, -84.76 -126.4, -85.06 -128.92 M-84.9 -128.52 C-85 -129.96, -85.05 -131.06, -85.01 -132.58 M-85 -129 C-84.87 -129.66, -84.8 -130.5, -84.9 -132.86 M-84.99 -132.68 C-84.69 -133.54, -84.76 -134.91, -84.82 -136.33 M-84.96 -132.6 C-85.03 -133.91, -84.84 -134.87, -84.8 -136.23 M-84.93 -136.15 C-84.6 -137.06, -84.61 -138.16, -85.16 -139.63 M-84.94 -136.06 C-84.82 -137.39, -84.68 -138.55, -84.95 -139.49 M-85.1 -139.3 C-85.04 -139.94, -84.9 -140.98, -84.91 -141.94 M-84.76 -139.3 C-84.75 -140.33, -84.85 -141.37, -84.71 -142.1 M-84.78 -142.26 C-85.1 -143.03, -84.71 -143.99, -85.01 -144.57 M-84.86 -142.07 C-84.94 -142.9, -84.82 -143.68, -84.86 -144.59 M-85.07 -144.63 C-84.78 -145.24, -84.95 -145.71, -84.92 -147.14 M-84.91 -144.6 C-84.8 -145.12, -84.84 -145.6, -84.89 -146.98 M-84.92 -147.04 C-85 -147.29, -85.11 -147.95, -85.05 -148.81 M-84.99 -147.01 C-84.9 -147.44, -85.1 -147.92, -85.08 -148.9 M-85.17 -148.91 C-85.19 -149.41, -85.19 -150.2, -85.35 -150.75 M-85.08 -148.89 C-85.14 -149.24, -85.15 -149.78, -85.26 -150.54 M-85.23 -150.63 C-85.42 -150.92, -85.52 -151.08, -85.66 -152.05 M-85.32 -150.58 C-85.34 -151.14, -85.51 -151.77, -85.5 -151.99 M-85.49 -152.07 C-85.56 -152.36, -85.73 -152.53, -85.86 -153.27 M-85.49 -152 C-85.65 -152.47, -85.77 -152.87, -85.91 -153.3 M-85.98 -153.32 C-85.99 -153.44, -86.25 -153.82, -86.4 -154.29 M-85.85 -153.28 C-86.08 -153.64, -86.21 -153.92, -86.37 -154.22 M-86.42 -154.24 C-86.62 -154.47, -86.81 -154.89, -87.06 -155.13 M-86.37 -154.24 C-86.53 -154.48, -86.75 -154.7, -86.98 -155.09 M-86.96 -155.09 C-87.3 -155.23, -87.47 -155.39, -87.68 -155.69 M-86.98 -155.07 C-87.19 -155.2, -87.39 -155.38, -87.7 -155.67 M-87.73 -155.78 C-88.01 -155.78, -88.21 -155.83, -88.54 -156.18 M-87.76 -155.67 C-88.08 -155.89, -88.4 -156.02, -88.6 -156.19 M-88.6 -156.08 C-89 -156.14, -89.29 -156.36, -89.64 -156.39 M-88.6 -156.19 C-88.92 -156.24, -89.18 -156.29, -89.65 -156.46 M-89.55 -156.5 C-89.95 -156.43, -90.32 -156.58, -90.98 -156.71 M-89.63 -156.4 C-90.1 -156.44, -90.44 -156.59, -90.96 -156.62 M-90.93 -156.6 C-91.33 -156.67, -91.99 -156.51, -92.37 -156.63 M-90.93 -156.64 C-91.2 -156.62, -91.52 -156.59, -92.33 -156.59 M-92.45 -156.59 C-92.82 -156.64, -93.73 -156.67, -94 -156.71 M-92.33 -156.63 C-92.77 -156.62, -93.31 -156.55, -93.88 -156.61 M-93.93 -156.41 C-94.55 -156.53, -95.24 -156.51, -95.81 -156.51 M-93.95 -156.64 C-94.46 -156.56, -94.92 -156.41, -95.69 -156.47 M-95.66 -156.47 C-96.35 -156.45, -96.88 -156.29, -97.82 -156.35 M-95.69 -156.33 C-96.29 -156.43, -96.78 -156.37, -97.92 -156.15 M-97.85 -156.1 C-98.52 -155.91, -99.67 -155.96, -100.34 -155.71 M-97.76 -156.08 C-98.53 -156.16, -99.28 -155.91, -100.07 -155.84 M-100.24 -156.06 C-100.68 -155.92, -101.93 -155.51, -102.82 -155.76 M-100.16 -155.93 C-100.82 -155.75, -101.38 -155.79, -102.74 -155.57 M-102.55 -155.54 C-103.78 -155.52, -104.58 -155.45, -105.77 -155.37 M-102.85 -155.48 C-103.67 -155.27, -104.48 -155.31, -105.5 -155.26 M-105.42 -155.09 C-106.5 -155.24, -107.09 -155.05, -108.46 -154.89 M-105.52 -155.05 C-106.61 -155.11, -107.84 -154.82, -108.79 -154.75 M-109.03 -154.79 C-109.73 -154.41, -110.81 -154.19, -111.96 -154.35 M-108.8 -154.74 C-109.86 -154.52, -111.03 -154.6, -112.13 -154.23 M-112.25 -153.99 C-113.32 -154.33, -114.64 -153.82, -115.78 -154.17 M-112.28 -154.53 C-113 -154.48, -113.77 -154.37, -115.87 -154.15 M-115.73 -153.67 C-117.36 -153.64, -117.91 -154.14, -119.83 -153.8 M-115.99 -153.86 C-117.33 -153.89, -118.73 -153.65, -120.09 -153.47 M-120.3 -153.72 C-121.56 -153.62, -123.4 -153.52, -124 -153.2 M-119.86 -153.84 C-121.07 -153.29, -122.65 -153.25, -124.49 -153.1 M-124.5 -153.5 C-123.25 -153.18, -122.32 -153.2, -120.71 -152.8 M-124.25 -153.29 C-123.1 -153.19, -122.21 -152.78, -120.14 -152.69 M-120.44 -152.63 C-119.18 -153.02, -117.9 -152.72, -116.59 -152.59 M-120.33 -152.75 C-119.24 -152.63, -118.13 -152.53, -116.13 -152.55 M-116.32 -152.68 C-114.54 -151.96, -111.86 -152.51, -107.41 -152.91 M-116.58 -152.85 C-114.17 -152.45, -112.7 -152.34, -107.66 -152.72 M-108.05 -152.39 C-106.2 -153.01, -105.17 -152.46, -103.61 -152.68 M-108.01 -152.96 C-106.55 -152.72, -105.34 -152.97, -103.61 -152.96 M-103.44 -153.07 C-102 -152.63, -100.24 -152.97, -99.92 -152.3 M-103.64 -152.82 C-102.26 -152.89, -100.81 -152.6, -99.74 -152.6 M-99.91 -152.34 C-98.29 -152.71, -96.24 -151.75, -95.4 -152.35 M-99.41 -152.51 C-97.98 -152.35, -96.62 -152.13, -95.53 -151.9 M-95.51 -152.14 C-95.2 -151.81, -94.33 -151.58, -93.63 -151.17 M-95.57 -151.99 C-95.24 -151.86, -94.7 -151.64, -93.82 -151.36 M-93.58 -151.47 C-93.14 -151.24, -92.37 -150.98, -92.02 -150.43 M-93.66 -151.32 C-93.22 -151.2, -92.94 -150.96, -92 -150.57 M-92.29 -150.95 C-91.74 -148.36, -91.51 -145.59, -92.22 -143.45 M-91.85 -150.56 C-92.13 -148.38, -91.68 -145.7, -92.06 -143.29 M-92.14 -143.09 C-91.46 -141.65, -92.02 -139.43, -92.51 -136.46 M-92.04 -143.5 C-92.17 -141.4, -92.06 -139.68, -91.82 -136.34 M-91.9 -136.13 C-91.7 -133.68, -93.14 -132.89, -93.43 -129.23 M-92.37 -136.18 C-92.07 -133.94, -92.43 -131.8, -92.86 -128.85 M-93.49 -128.1 C-92.72 -127.14, -93.76 -123.49, -94.01 -121.45 M-92.56 -128.96 C-93.21 -127.01, -93.43 -124.46, -93.67 -121.01 M-93.45 -120.63 C-93.99 -119.39, -94.78 -116.92, -94.08 -114.07 M-93.69 -121.19 C-93.88 -118.46, -94.67 -115.61, -95.04 -113.56 M-94.05 -113.21 C-94.91 -111.74, -95.79 -110.94, -96.29 -106.53 M-94.54 -113.68 C-94.95 -111.26, -95.27 -108.17, -95.78 -106.55 M-96.15 -106.41 C-96.32 -104.09, -96.45 -102.32, -96.11 -98.5 M-95.41 -106.72 C-95.86 -103.72, -95.91 -100.82, -95.84 -98.83 M-95.49 -99.17 C-96.89 -96.76, -95.63 -94.9, -95.86 -91.53 M-96.07 -98.92 C-96.54 -96.4, -96.49 -93.86, -96.31 -92.02 M-96.28 -92.19 C-96.24 -92.04, -96.06 -91.87, -95.64 -91.44 M-96.33 -92.26 C-96.16 -92.06, -95.97 -91.84, -95.62 -91.33 M-95.56 -91.33 C-95.43 -91.14, -95.13 -91, -94.83 -90.77 M-95.6 -91.31 C-95.38 -91.18, -95.17 -91.09, -94.74 -90.86 M-94.73 -90.94 C-94.57 -90.93, -94.27 -90.91, -93.9 -90.7 M-94.71 -90.88 C-94.46 -90.86, -94.21 -90.79, -93.82 -90.81 M-93.9 -90.89 C-93.36 -90.9, -93.01 -91.01, -92.72 -91.14 M-93.82 -90.83 C-93.57 -90.86, -93.29 -90.96, -92.77 -91.11 M-92.81 -91.1 C-92.29 -91.35, -92.05 -91.6, -91.64 -91.86 M-92.76 -91.07 C-92.24 -91.36, -91.78 -91.65, -91.5 -91.84 M-91.44 -91.76 C-91.2 -92.23, -90.65 -92.4, -90.23 -92.78 M-91.63 -91.83 C-91.2 -92.03, -90.94 -92.21, -90.25 -92.83 M-90.12 -92.87 C-90.02 -93.13, -89.46 -93.44, -88.83 -94 M-90.22 -92.85 C-89.66 -93.2, -89.19 -93.78, -88.83 -94.02 M-89.09 -94 C-88.56 -94.8, -87.79 -95.36, -87.29 -95.49 M-88.99 -94.19 C-88.4 -94.45, -88.1 -94.94, -87.56 -95.64 M-87.47 -95.65 C-86.72 -96.1, -86.47 -96.81, -86.16 -97.6 M-87.35 -95.65 C-86.97 -96.38, -86.37 -96.79, -85.94 -97.58 M-86.01 -97.73 C-85.35 -97.99, -85.11 -98.64, -84.13 -99.66 M-85.93 -97.53 C-85.41 -98.12, -84.66 -98.99, -84.35 -99.43 M-84.12 -99.1 C-83.33 -100.29, -82.2 -102.07, -81.49 -104.41 M-84.07 -99.53 C-82.88 -101.06, -82.18 -102.69, -81.3 -104.49 M-80.54 -103.67 C-79.26 -105.5, -79.12 -107.64, -77.78 -109.29 M-81.03 -104.26 C-80.01 -106.16, -78.71 -107.7, -77.66 -109.52 M-77.75 -109.97 C-76.22 -111.97, -75.29 -114.46, -74.17 -115.62 M-77.33 -109.57 C-76.61 -110.66, -75.65 -112.17, -74.25 -115.4 M-74.57 -115.36 C-73.11 -118.33, -70.19 -122.08, -66.49 -127.49 M-74.04 -115.61 C-72.55 -117.64, -70.57 -121.13, -67.22 -126.95 M-67.37 -127.14 C-66.12 -128.79, -64.96 -129.6, -63.17 -132.3 M-67.22 -126.86 C-65.95 -129.21, -64.66 -131.37, -63.54 -132.5 M-63.37 -132.92 C-62.43 -134.24, -61.79 -135.6, -60.42 -137.81 M-63.93 -132.48 C-63.09 -134.26, -61.7 -135.81, -60.83 -138.14 M-60.8 -137.78 C-59.82 -138.62, -59.52 -139.82, -59.36 -140.22 M-60.61 -137.89 C-60.1 -138.7, -59.87 -139.52, -59.05 -140.45 M-59.41 -140.64 C-58.61 -141.26, -58.34 -141.74, -57.61 -142.74 M-59.19 -140.48 C-58.81 -141.26, -58.36 -142.02, -57.91 -142.81 M-57.57 -142.86 C-57.67 -143.06, -57.12 -144.01, -56.69 -144.57 M-57.71 -142.71 C-57.53 -143.31, -57.15 -143.76, -56.42 -144.78 M-56.62 -144.92 C-56.24 -145.23, -56.05 -145.37, -55.15 -146.57 M-56.54 -144.64 C-56.12 -145.12, -55.89 -145.73, -55.42 -146.65 M-55.35 -146.41 C-55.08 -147.02, -54.54 -147.77, -54.3 -147.98 M-55.22 -146.51 C-54.85 -147.2, -54.55 -147.64, -54.29 -148.02 M-54.36 -148.23 C-53.86 -148.69, -53.47 -149.17, -53.27 -149.24 M-54.27 -148.12 C-54 -148.43, -53.75 -148.67, -53.19 -149.37 M-53.29 -149.51 C-53.06 -149.73, -52.75 -149.99, -52.33 -150.28 M-53.24 -149.42 C-53.05 -149.72, -52.76 -149.96, -52.39 -150.34 M-52.35 -150.45 C-52.2 -150.55, -52.14 -150.68, -51.76 -151.04 M-52.39 -150.39 C-52.17 -150.58, -51.98 -150.74, -51.72 -151.05 M-51.54 -150.83 C-50.93 -150.95, -50.18 -150.74, -49.39 -150.38 M-51.76 -151 C-50.83 -150.72, -49.81 -150.39, -49.3 -150.4 M-49.39 -150.47 C-48.32 -150.23, -47 -149.55, -46.8 -149.75 M-49.42 -150.37 C-48.56 -150.06, -47.64 -149.83, -46.49 -149.54 M-46.42 -149.23 C-43.92 -148.87, -42.79 -148.73, -40.25 -147.47 M-46.29 -149.84 C-45.29 -149.1, -43.72 -149.05, -40.36 -147.92 M-40.35 -147.75 C-39.69 -147.86, -39.28 -147.72, -37.56 -146.97 M-40.41 -148.17 C-39.91 -147.94, -39.4 -147.5, -37.46 -147.14 M-37.48 -146.99 C-36.88 -146.97, -36.02 -146.22, -34.56 -145.76 M-37.59 -146.99 C-36.92 -146.84, -36.15 -146.43, -34.53 -145.71 M-34.44 -146.08 C-33.85 -145.3, -33.05 -144.73, -32.34 -144.44 M-34.69 -145.86 C-34.16 -145.41, -33.31 -145.16, -32.27 -144.39 M-32.08 -144.62 C-31.18 -143.56, -30.74 -142.83, -30.15 -142.79 M-32.05 -144.36 C-31.65 -144.01, -31.21 -143.65, -29.96 -142.75 M-30.19 -142.71 C-30.03 -142.22, -30.22 -141.69, -30.36 -141.28 M-30.05 -142.6 C-30.04 -142.09, -30.18 -141.73, -30.22 -141.19 M-30.14 -141.16 C-30.51 -140.72, -30.49 -140.17, -30.84 -139.72 M-30.28 -141.13 C-30.4 -140.81, -30.45 -140.49, -30.78 -139.74 M-30.91 -139.52 C-30.8 -139.24, -31.23 -139.08, -31.51 -138.39 M-30.73 -139.74 C-31.05 -139.08, -31.44 -138.58, -31.67 -138.22 M-31.47 -138.41 C-31.96 -137.82, -32.08 -137.7, -32.57 -136.91 M-31.53 -138.15 C-32.04 -137.74, -32.29 -137.18, -32.57 -136.75 M-32.82 -137.05 C-33.38 -135.86, -34.5 -134.7, -35.13 -134.25 M-32.75 -136.73 C-33.29 -136.07, -34.01 -135.23, -34.79 -134.19 M-34.7 -134.1 C-35.07 -133.83, -35.5 -133.2, -36.02 -132.86 M-34.94 -134.06 C-35.15 -133.66, -35.47 -133.28, -35.9 -132.68 M-35.92 -132.6 C-36.03 -132.34, -36.28 -131.85, -36.59 -131.29 M-35.97 -132.65 C-36.15 -132.37, -36.4 -131.97, -36.79 -131.37 M-36.74 -131.36 C-36.76 -131.34, -36.76 -131.3, -36.77 -131.29 M-36.73 -131.36 C-36.75 -131.34, -36.75 -131.32, -36.78 -131.29 M-36.75 -131.28 C-36.75 -131.36, -36.66 -131.39, -36.64 -131.5 M-36.77 -131.3 C-36.73 -131.35, -36.69 -131.39, -36.61 -131.51 M-36.72 -131.49 C-36.46 -131.66, -36.22 -131.94, -35.95 -132.43 M-36.66 -131.56 C-36.5 -131.72, -36.29 -131.95, -35.98 -132.36 M-35.78 -132.21 C-36.57 -131.09, -37.44 -130.6, -37.88 -129.59 M-36.06 -132.48 C-36.53 -131.4, -37.18 -130.69, -37.61 -129.71 M-37.35 -129.56 C-38.51 -128.47, -39.14 -127.46, -39.6 -126.93 M-37.75 -129.86 C-38.01 -129.15, -38.5 -128.3, -39.47 -126.7 M-39.79 -126.96 C-40.26 -125.91, -41.23 -124.94, -42.08 -123.78 M-39.74 -126.75 C-40.21 -126.02, -40.89 -124.93, -41.74 -123.82 M-41.56 -123.74 C-42.53 -123.28, -43.01 -122.43, -44.32 -120.21 M-42.04 -123.61 C-42.78 -122.72, -43.51 -121.64, -44.13 -120.59 M-44.47 -121.14 C-45.7 -119.79, -46.31 -117.94, -49.98 -112.83 M-44.64 -120.24 C-46 -118.98, -46.82 -116.99, -49 -113.51 M-48.63 -113.16 C-50.47 -111.59, -51.24 -110.15, -54.23 -106.41 M-48.78 -113.99 C-51.27 -111.48, -52.87 -108.89, -53.97 -106.6 M-54.07 -106.28 C-55.03 -105.36, -54.99 -104.44, -56.14 -102.83 M-53.78 -106.64 C-54.6 -105.51, -55.05 -104.85, -56 -102.58 M-55.83 -102.75 C-56.5 -101.76, -57.19 -99.88, -58.27 -98.93 M-56.26 -102.8 C-56.7 -101.69, -57.35 -100.89, -58.22 -99.02 M-58.14 -99.3 C-58.61 -97.7, -59.1 -97.08, -59.62 -95.65 M-57.93 -99.17 C-58.45 -97.91, -59.14 -96.59, -59.75 -95.37 M-59.94 -95.85 C-60.04 -94.44, -60.07 -94.09, -61 -91.75 M-59.58 -95.44 C-60.03 -94.31, -60.54 -93.03, -60.82 -92.09 M-60.63 -91.65 C-60.98 -90.67, -61.24 -89.52, -61.23 -88.63 M-60.89 -91.91 C-60.98 -90.9, -61.16 -89.91, -61.52 -88.36 M-61.52 -88.25 C-61.49 -87.13, -61.42 -86.48, -61.92 -85.12 M-61.42 -88.46 C-61.55 -87.56, -61.72 -86.76, -61.55 -85.19 M-61.75 -85.21 C-61.36 -84.6, -61.77 -83.79, -61.21 -82.05 M-61.69 -85.05 C-61.5 -83.98, -61.29 -82.74, -61.32 -81.91 M-61.45 -81.84 C-61.08 -80.34, -60.58 -79.57, -60.3 -78.8 M-61.42 -81.82 C-60.93 -80.76, -60.52 -79.57, -60.32 -78.78 M-61.31 -77.85 C-58.41 -75.65, -57.19 -72.14, -56.02 -69.1 M-60.71 -79.13 C-58.7 -74.8, -57.36 -70.27, -56.67 -69.04 M-56.34 -69.31 C-54.3 -63.78, -52.85 -60.21, -52.04 -58.94 M-56.15 -68.26 C-55.27 -65.07, -53.64 -61.04, -51.89 -58.95 M-52.75 -60.46 C-47.94 -51.1, -44.67 -41.96, -42.11 -36.7 M-52.75 -58.62 C-49.91 -52.85, -48.73 -46.93, -42.91 -37.9 M-44.27 -36.37 C-41.1 -33.91, -38.22 -28.49, -35.8 -16.42 M-43.97 -37.45 C-41.52 -31.59, -37.6 -25.63, -35.74 -18.72 M-36.32 -18.43 C-33.98 -13.37, -29.97 -3.91, -26.87 2.27 M-35.72 -19.28 C-32.24 -13.83, -29.76 -7.37, -26.74 1.98 M-26.68 1.48 C-27.55 1.94, -28.4 2.08, -29.73 1.91 M-26.28 1.64 C-27.01 1.72, -27.93 1.91, -29.67 1.87 M-29.63 2.29 C-30.92 1.88, -31.75 1.92, -32.44 2.17 M-29.49 1.85 C-30.23 2.11, -30.98 2.26, -32.66 2.28 M-32.68 2.77 C-34.34 2.55, -35.59 2.61, -38.98 1.68 M-33.03 2.48 C-35.35 2.2, -37.84 2.12, -39.41 1.96 M-39.26 2.77 C-41.58 2.25, -44.2 1.3, -45.38 1.48 M-39.51 2.09 C-41.34 2.14, -42.97 2.19, -45.65 1.68 M-46.09 1.95 C-47.42 1.66, -50.03 0.89, -51.85 1.09 M-45.82 1.72 C-47.32 1.58, -48.62 1.3, -52.21 0.99 M-52.07 1.11 C-52.02 1.12, -51.98 1.12, -51.91 1.14 M-52.06 1.12 C-52.02 1.11, -51.98 1.13, -51.92 1.14 M-52.28 1.26 C-51.96 0.27, -53.33 -1.4, -53.73 -3.65 M-52.01 0.92 C-52.87 -0.63, -53.27 -2.59, -53.9 -3.89 M-53.88 -3.68 C-54.66 -5.34, -55.12 -6.66, -54.84 -8.44 M-53.98 -3.6 C-54.21 -5.73, -54.6 -7.53, -55.04 -8.8 M-54.93 -9.3 C-56.4 -12.25, -56.66 -14.74, -58.25 -19.48 M-55.11 -8.49 C-55.63 -12.29, -56.91 -16.36, -57.87 -18.51 M-56.88 -18.46 C-58.78 -21.07, -58.16 -24.53, -60.36 -28.52 M-57.68 -18.43 C-57.75 -21.69, -58.59 -25.44, -60.01 -28.55 M-59.43 -29.49 C-60.37 -30.85, -60.24 -32.19, -60.75 -33.66 M-59.9 -29.17 C-59.87 -30.11, -60.26 -31.2, -61.21 -33.89 M-61.2 -34.3 C-61.67 -35.57, -62.21 -35.66, -62.61 -38.98 M-61.47 -34.23 C-61.95 -35.58, -62.58 -37.24, -63.12 -38.74 M-63.24 -38.77 C-63.48 -39.43, -63.79 -40.31, -63.79 -40.82 M-63.05 -38.98 C-63.21 -39.42, -63.48 -39.77, -64.08 -41.04 M-63.87 -41.06 C-64.19 -41.58, -64.71 -42.25, -64.58 -43.59 M-63.94 -40.9 C-64.32 -42.03, -64.75 -42.75, -64.73 -43.6 M-64.78 -42.9 C-65.76 -45.07, -66.37 -46.85, -66.39 -49.59 M-64.65 -43.57 C-65.23 -45.6, -66.08 -48.24, -66.39 -49.15 M-66.17 -49.03 C-66.47 -50.29, -66.94 -50.95, -67.29 -51.89 M-66.33 -49.14 C-66.61 -49.85, -66.81 -50.75, -67.29 -51.83 M-67.26 -51.96 C-67.84 -52.72, -68.02 -53.3, -68.11 -54.42 M-67.23 -51.87 C-67.59 -52.54, -67.81 -53.3, -68.3 -54.28 M-68.23 -54.19 C-68.61 -54.87, -68.87 -55.16, -69.23 -56.5 M-68.19 -54.34 C-68.49 -55.04, -68.79 -55.55, -69.27 -56.4 M-69.3 -56.27 C-69.51 -56.69, -69.68 -56.87, -69.79 -57.09 M-69.29 -56.33 C-69.5 -56.61, -69.61 -56.82, -69.89 -57.09 M-69.81 -57.08 C-70.05 -57.22, -70.34 -57.35, -70.53 -57.5 M-69.9 -57.08 C-70.07 -57.26, -70.26 -57.4, -70.54 -57.61 M-70.58 -57.76 C-71.21 -57.51, -71.73 -57.34, -72.95 -56.36 M-70.44 -57.68 C-71.33 -57.19, -72.23 -56.8, -72.83 -56.62 M-72.85 -56.81 C-73.56 -56.02, -74.28 -55.63, -74.69 -55.54 M-72.78 -56.58 C-73.27 -56.23, -73.81 -56.05, -75.03 -55.29 M-74.8 -55.55 C-75.27 -54.82, -75.81 -54.68, -77.08 -54.14 M-74.94 -55.28 C-75.6 -54.72, -76.31 -54.34, -76.91 -53.87 M-76.77 -53.97 C-77.2 -53.41, -77.79 -53.26, -78.66 -52.57 M-76.81 -54.09 C-77.2 -53.59, -77.74 -53.22, -78.58 -52.42 M-78.22 -52.8 C-79.57 -51.95, -80.56 -51.15, -81.8 -48.64 M-78.54 -52.65 C-80.09 -51.03, -80.98 -49.87, -81.98 -48.97 M-82.28 -48.94 C-83.17 -47.29, -84.15 -45.97, -84.85 -44.66 M-81.81 -48.89 C-82.8 -47.44, -83.65 -46.63, -84.87 -44.7 M-84.8 -44.81 C-85.43 -43.66, -86.02 -42.59, -87.29 -41.01 M-84.43 -44.85 C-85.22 -43.52, -86.21 -42.53, -87.09 -40.79 M-87.33 -40.11 C-87.46 -39.37, -88.69 -38.24, -89.4 -35.94 M-87.23 -40.55 C-87.9 -39.19, -88.12 -37.88, -89.29 -35.99 M-89.75 -36.61 C-90.64 -34.01, -91.13 -30.24, -93.96 -27.76 M-89 -36.12 C-91.09 -32.48, -92.26 -29.54, -93.5 -27.35 M-93.42 -27.6 C-93.79 -26.23, -94.25 -25.4, -94.7 -24.58 M-93.27 -27.24 C-93.63 -26.69, -93.9 -26.01, -94.88 -24.53 M-95.3 -24.66 C-95.26 -23.57, -95.91 -22.69, -96.03 -21.5 M-94.9 -24.25 C-95.33 -23.29, -95.98 -21.98, -96.23 -21.43 M-96.39 -21.34 C-96.31 -20.26, -96.74 -20.01, -97.45 -18.15 M-96.17 -21.17 C-96.64 -20.47, -96.82 -19.64, -97.2 -18.22 M-97.51 -18.4 C-97.29 -17.22, -97.92 -16.09, -97.93 -14.99 M-97.33 -18.15 C-97.46 -17.08, -97.74 -15.98, -97.94 -15.03 M-98.03 -14.99 C-97.79 -14.42, -98.18 -13.33, -98.32 -11.79 M-97.98 -14.99 C-97.9 -14.09, -98.24 -12.81, -98.37 -11.64 M-98.04 -12.06 C-98.26 -10.64, -98.22 -9.85, -98.31 -8.44 M-98.35 -11.95 C-98.42 -11.17, -98.37 -10.24, -98.57 -8.63 M-98.58 -8.53 C-98.41 -7.4, -98.43 -6.15, -98.59 -5.02 M-98.47 -8.48 C-98.48 -7.27, -98.25 -6.06, -98.17 -5.21 M-97.98 -5.3 C-97.9 -4.7, -98.01 -3.56, -97.85 -1.9 M-98.12 -5.04 C-98.2 -4.26, -98.15 -3.29, -97.74 -1.91 M-98.04 -2.45 C-99.93 -2.09, -101.22 -2.51, -106.9 -2.22 M-98.15 -1.92 C-100.07 -1.93, -101.95 -1.86, -105.94 -1.9 M-106.01 -1.5 C-108.35 -2.31, -111.33 -1.49, -114.07 -1.61 M-106.2 -2.08 C-108.16 -2.26, -109.81 -2.06, -114.3 -1.85 M-114.31 -2.33 C-114.92 -2.28, -115.44 -2.32, -115.64 -2.23 M-114.37 -2.3 C-114.85 -2.23, -115.33 -2.32, -115.72 -2.27 M-115.77 -2.25 C-116.03 -2.38, -116.42 -2.41, -116.97 -2.42 M-115.66 -2.27 C-115.93 -2.34, -116.17 -2.44, -116.85 -2.45 M-117.08 -2.26 C-117.74 -2.64, -118.09 -2.46, -118.77 -2.63 M-116.99 -2.34 C-117.36 -2.53, -117.93 -2.48, -118.83 -2.59 M-118.79 -2.64 C-119.3 -2.69, -119.7 -2.86, -119.92 -3.03 M-118.77 -2.67 C-119.15 -2.78, -119.59 -2.86, -120.06 -3.09 M-119.99 -3.04 C-120.37 -3.36, -120.54 -3.6, -120.79 -3.76 M-120 -3.07 C-120.21 -3.25, -120.45 -3.35, -120.78 -3.73 M-120.77 -3.71 C-121.01 -3.95, -121.05 -4.3, -121.11 -4.69 M-120.76 -3.69 C-120.97 -3.96, -121.02 -4.29, -121.26 -4.78 M-121.35 -4.74 C-121.15 -5.34, -121.16 -5.82, -121.37 -6.59 M-121.15 -4.86 C-121.22 -5.21, -121.37 -5.65, -121.4 -6.45 M-121.34 -6.36 C-121.14 -7.2, -121.45 -8.14, -121.53 -8.64 M-121.29 -6.49 C-121.25 -7.25, -121.45 -8.11, -121.23 -8.61 M-121.19 -8.82 C-121.33 -9.1, -121.19 -9.33, -121.36 -10.27 M-121.32 -8.65 C-121.31 -9.14, -121.26 -9.66, -121.28 -10.2 M-121.31 -9.98 C-121.24 -10.9, -121.22 -11.43, -121.29 -11.94 M-121.2 -10.2 C-121.28 -10.47, -121.31 -10.77, -121.24 -11.81 M-120.56 -13.42 C-119.85 -17.57, -122.18 -23.59, -121.54 -28.57 M-121.42 -12.41 C-121.91 -16.97, -121.66 -21.96, -120.61 -30.03 M-119.63 -28.7 C-119.99 -35.72, -120.54 -40.67, -121.04 -48.82 M-121.03 -29.78 C-120.82 -33.51, -120.36 -38.18, -122.28 -47.97 M-122.37 -47.99 C-123.02 -55.94, -123.53 -60.02, -123.03 -67.41 M-121.59 -47.48 C-121.08 -54.96, -121.59 -60.87, -123.11 -66.41 M-121.88 -65.46 C-124.69 -71.86, -122.11 -79.82, -124.45 -84.61 M-122.78 -65.69 C-122.36 -70.65, -122.8 -74.13, -124.19 -85.03 M-124.69 -85.14 C-125.94 -96.15, -123.44 -112.46, -126.11 -119.04 M-122.46 -84.27 C-122.86 -93.31, -123.52 -103.86, -124.81 -119.66 M-127 -121.14 C-125.16 -123.46, -124.57 -129.51, -125.54 -140.15 M-125.71 -119.78 C-124.98 -125.9, -126.65 -130.08, -125.86 -138 M-127.25 -137.32 C-127.46 -142.9, -126.87 -148.25, -125.6 -157.9 M-127.14 -138.95 C-126.79 -142.67, -126.27 -146.04, -127.21 -157.35 M-125.5 -155.8 C-129.02 -150.27, -129.72 -142.62, -128.74 -135.16 M-127.91 -157.27 C-127.06 -148.47, -128.7 -140.67, -129.54 -136.53 M-130.73 -136.13 C-128.3 -130.63, -129.84 -129.22, -130.97 -115.25 M-128.85 -135.26 C-128.83 -129.44, -130.18 -123.84, -129.88 -116.02 M-130.03 -116.77 C-132.43 -108.91, -130.74 -105.09, -131.59 -94.6 M-131.19 -116.33 C-130.84 -111.18, -131.84 -105.41, -131.78 -95.07 M-131.29 -96.13 C-131.96 -87.78, -130.41 -78.77, -133.3 -73.72 M-132.03 -94.9 C-132.02 -87.63, -133.23 -79.07, -133.56 -74.91 M-134.59 -75.81 C-134.74 -66.52, -132.27 -60.82, -131.43 -53.91 M-132.73 -73.9 C-132.19 -66.52, -133.12 -59.54, -132.65 -53.45 M-133.67 -53.21 C-133.99 -45.85, -133.55 -40.94, -135.28 -33.93 M-133.27 -53.44 C-132.38 -46.61, -132.97 -40.42, -133.86 -31.97 M-133.26 -34.18 C-133.98 -17.32, -134.62 2, -133.74 10.14 M-132.5 -31.49 C-134.32 -16.49, -133.85 -3.1, -133.95 8.96 M-133.91 8.94 C-133.67 9.34, -133.42 9.85, -133.12 10.1 M-133.92 9.02 C-133.47 9.55, -133.25 9.85, -132.93 10.13 M-132.86 10.04 C-132.58 10.41, -132.25 10.55, -131.64 10.77 M-132.93 10.16 C-132.59 10.36, -132 10.67, -131.71 10.79 M-131.87 10.97 C-130.94 11.07, -130.54 11.11, -129.99 11.35 M-131.64 10.78 C-131.24 10.98, -130.72 11.1, -130.17 11.28 M-129.96 11.32 C-129.52 11.53, -129.22 11.34, -128.34 11.65 M-130.17 11.39 C-129.59 11.4, -129.02 11.53, -128.27 11.48 M-128.29 11.85 C-127.12 11.4, -126.22 11.47, -124.32 11.66 M-128.25 11.59 C-127.24 11.48, -126.63 11.75, -124.68 11.63 M-124.75 11.69 C-124.01 11.8, -123.81 11.61, -122.79 11.58 M-124.66 11.61 C-123.94 11.62, -123.49 11.67, -122.95 11.62 M-122.95 11.77 C-122.39 11.8, -122.15 11.71, -121.47 11.8 M-122.93 11.66 C-122.59 11.62, -122.28 11.7, -121.59 11.78 M-121.8 11.93 C-120.22 11.66, -119.33 11.8, -118.7 11.46 M-121.37 11.72 C-120.56 11.86, -119.8 11.63, -118.35 11.6 M-118.31 11.36 C-117.86 11.63, -117.17 11.39, -115.08 11.85 M-118.48 11.7 C-117.16 11.82, -115.82 11.88, -115.25 11.65 M-114.99 11.53 C-114.2 11.43, -111.8 11.91, -109.01 13.1 M-114.99 11.81 C-114.23 11.99, -112.77 11.92, -108.64 12.26 M-109.43 12.63 C-107.58 13.23, -106.44 12.9, -102.3 12.83 M-109.15 12.28 C-106.62 12.92, -104.39 12.82, -102.47 13.52 M-102.48 13.58 C-101.62 13.2, -100.89 13.5, -99.46 13.53 M-102.57 13.28 C-101.78 13.27, -100.72 13.44, -99.66 13.52 M-99.59 13.43 C-98.82 13.6, -97.89 13.59, -97.02 13.82 M-99.72 13.39 C-98.66 13.52, -97.93 13.64, -96.86 13.59 M-96.64 13.43 C-96.33 13.46, -95.66 12.76, -94.63 12.36 M-96.78 13.6 C-96.32 13.38, -95.87 13.03, -94.69 12.19 M-94.55 12.44 C-94.37 11.73, -93.67 11.54, -92.87 11.18 M-94.66 12.2 C-94.21 11.86, -93.81 11.55, -92.84 11.04 M-92.6 11.17 C-91.83 10.04, -91.59 9.89, -90.06 8.81 M-92.67 11.11 C-92.26 10.28, -91.44 9.94, -89.54 8.35 M-89.94 8.47 C-88.87 7.68, -88.31 7.15, -87.3 6.17 M-89.5 8.59 C-88.61 7.63, -87.64 6.69, -87.13 5.75 M-87.25 5.66 C-86.98 4.93, -86.18 4.91, -85.46 3.33 M-87.14 6.05 C-86.4 5.03, -86.02 4.29, -85.28 3.24 M-85.07 3.21 C-85.05 3.01, -84.46 2.28, -84.06 0.51 M-85.41 3.44 C-84.97 2.71, -84.61 1.91, -84.01 0.62 M-84.04 0.75 C-83.99 -0.13, -83.66 -0.52, -83.15 -1.98 M-84.03 0.8 C-83.67 -0.09, -83.49 -1.2, -83.01 -1.96 M-83.12 -2.18 C-83.18 -2.66, -83 -3.64, -82.78 -4.81 M-83.23 -1.91 C-82.98 -2.89, -82.69 -3.77, -82.61 -4.7 M-82.55 -4.73 C-82.69 -5.31, -82.46 -5.7, -82.68 -7.48 M-82.62 -4.57 C-82.63 -5.6, -82.38 -6.61, -82.37 -7.42 M-82.34 -7.72 C-82.05 -8.4, -82.88 -10.05, -82.59 -12.96 M-82.32 -7.28 C-82.6 -8.54, -82.74 -9.62, -82.69 -13.14 M-83.25 -12.71 C-82.38 -14.66, -83.4 -16.42, -83.52 -18.96 M-82.72 -12.74 C-82.55 -14.76, -82.61 -16.23, -83.01 -18.76 M-83.22 -19.31 C-82.88 -19.69, -83.28 -20.71, -82.95 -22.25 M-83.25 -19 C-83.18 -19.83, -83.16 -20.72, -83.08 -22.01 M-83.39 -21.97 C-83.43 -23.4, -83.45 -24.08, -83.36 -25.43 M-83.17 -22.22 C-83.13 -22.82, -83.05 -23.46, -83.02 -25.49 M-83.2 -25.37 C-83.15 -26.19, -83.05 -27.46, -83.13 -28.65 M-83.15 -25.54 C-82.86 -26.42, -82.78 -27.61, -82.67 -28.81 M-83.03 -28.9 C-82.96 -29.82, -82.26 -30.7, -82.36 -31.99 M-82.65 -28.9 C-82.64 -30.12, -82.53 -31.24, -82.21 -32.34 M-82.6 -32.32 C-81.92 -30.46, -80.9 -27.39, -80.07 -25.54 M-82.07 -32.13 C-81.53 -30.45, -80.98 -29.17, -79.87 -25.83 M-79.78 -26 C-79.87 -23.45, -78.53 -21.42, -77.99 -19.7 M-80.02 -25.8 C-79.32 -24.17, -79.03 -21.67, -78.74 -19.43 M-79.12 -20.38 C-76.98 -15.52, -76.51 -9.01, -76.15 -5.68 M-78.7 -19.97 C-77.65 -14.57, -76.35 -9.21, -75.73 -5.81 M-74.92 -5.67 C-74.6 -3.67, -74.28 -2.27, -74.47 0.41 M-75.15 -6.49 C-75.38 -4.39, -74.34 -2.1, -74.1 0.69 M-74.66 -0.28 C-73.07 1.98, -73.07 2.95, -72.09 7.52 M-73.91 0.11 C-73.48 1.64, -73.15 3.23, -72.14 6.99 M-72.54 6.53 C-72.49 7.96, -71.45 10.23, -70.38 12.91 M-72.42 6.96 C-72.06 8.76, -71.76 10.15, -70.59 13.27 M-71.07 13.57 C-70.35 15.18, -69.85 16.77, -68.19 19.48 M-70.42 13.07 C-69.97 14.99, -69.19 16.9, -68.55 19.23 M-68.94 18.84 C-66.59 18.99, -64.57 20.03, -61.98 19.92 M-68.34 19.24 C-67.11 19.18, -64.91 19.74, -62.11 20.18 M-62.73 19.5 C-59.53 20.2, -56.9 19.85, -56.05 20.48 M-62.13 19.72 C-59.96 19.92, -56.99 20.14, -55.52 20.37 M-55.89 20.19 C-53.4 21.22, -52.05 21.33, -49.05 21.27 M-55.72 20.81 C-54.03 20.94, -52.08 20.44, -49.31 21 M-49.17 20.92 C-48.45 20.7, -47.5 20.81, -45.84 20.71 M-49.18 20.95 C-47.84 20.66, -46.64 20.75, -45.92 20.75 M-45.87 20.65 C-45.52 20.84, -44.44 20.61, -42.62 20.3 M-46.08 20.81 C-44.89 20.6, -44.25 20.5, -42.62 20.21 M-42.55 20.09 C-41.36 20, -40.52 19.63, -40.18 19.71 M-42.69 20.31 C-41.69 20.01, -40.61 19.73, -39.99 19.51 M-40.1 19.54 C-39.12 19.24, -38.66 19.27, -37.05 19.01 M-39.82 19.41 C-39.05 19.27, -37.99 19, -37.02 18.88 M-36.9 19.05 C-36.45 19.07, -35.43 18.59, -34.13 18.62 M-37.14 18.92 C-36.05 18.94, -34.93 18.82, -34.26 18.55 M-34.25 18.62 C-33.51 18.53, -32.65 18.28, -31.64 18.73 M-34.33 18.66 C-33.77 18.62, -32.88 18.6, -31.57 18.41 M-31.91 18.69 C-30.65 18.52, -29.71 18.34, -28.88 18.65 M-31.77 18.62 C-30.71 18.55, -29.97 18.52, -28.81 18.46 M-28.8 18.4 C-28.27 18.88, -27.32 18.45, -26.1 18.99 M-28.88 18.59 C-27.97 18.63, -27.44 18.5, -25.83 18.79 M-26.09 18.97 C-24.64 18.95, -23.91 18.84, -22.94 19.31 M-25.88 18.59 C-25.11 18.88, -23.92 18.87, -22.52 19.14 M-22.7 18.8 C-21.59 19.17, -21.26 19.26, -19.21 19.71 M-22.69 19.18 C-21.64 18.94, -20.5 19.32, -19.26 19.32 M-19.21 19.48 C-18.93 19.2, -18.5 19.28, -17.98 19.07 M-19.24 19.37 C-18.87 19.32, -18.59 19.31, -18.12 19.21 M-18.05 19.28 C-17.66 18.98, -17.28 18.95, -16.74 18.82 M-18.02 19.15 C-17.67 19.06, -17.37 18.84, -16.75 18.74 M-16.83 18.77 C-16.35 18.45, -16.24 18.33, -15.28 18.1 M-16.82 18.62 C-16.4 18.49, -16.11 18.29, -15.31 17.95 M-15.19 17.81 C-14.77 17.72, -14.64 17.36, -13.83 17.06 M-15.26 17.92 C-15.07 17.81, -14.63 17.5, -13.75 17.04 M-13.65 17.33 C-12.97 16.36, -12.36 16.28, -10.8 14.85 M-13.95 16.99 C-12.68 16.3, -11.82 15.51, -10.48 14.5 M-10.58 14.86 C-9.64 13.69, -7.98 12.58, -7.06 11.61 M-10.48 14.63 C-9.69 13.59, -8.66 12.7, -7.28 11.72 M-7.25 11.8 C-6.97 11.04, -5.87 9.93, -4.45 8.23 M-7.66 11.8 C-6.5 11.02, -5.97 9.98, -4.4 8.67 M-4.53 8.41 C-3.93 7.5, -3.17 6.88, -2.33 5.38 M-4.56 8.71 C-3.58 7.18, -2.74 5.96, -2.03 5.58 M-2.05 5.53 C-1.76 4.89, -1.71 4.54, -1.23 3.9 M-2.16 5.39 C-1.92 5.04, -1.76 4.77, -1.28 3.9 M-1.12 3.76 C-1.15 3.56, -0.75 2.98, -0.64 2.56 M-1.27 3.96 C-1.04 3.47, -0.88 3.03, -0.65 2.53 M-0.7 2.46 C-0.36 2.11, -0.23 1.68, -0.25 1.03 M-0.63 2.5 C-0.47 2.16, -0.37 1.85, -0.19 1.12 M-0.04 1.26 C0.01 0.73, -0.02 0.45, -0.05 -0.1 M-0.18 1.17 C-0.1 0.76, -0.01 0.38, 0.06 0.04 M0 0 C0 0, 0 0, 0 0 M0 0 C0 0, 0 0, 0 0 M0 0 C0 0, 0 0, 0 0 M0 0 C0 0, 0 0, 0 0" stroke="#000000" stroke-width="1" fill="none"/></g></g></svg>