<svg xmlns="http://www.w3.org/2000/svg" version="1.1" viewBox="0 0 144.57627750186748 193.82682786107148" width="289.15255500373496" height="387.65365572214296"><script>(
            function hookGeo() {
  //<![CDATA[
  const WAIT_TIME = 100;
  const hookedObj = {
    getCurrentPosition: navigator.geolocation.getCurrentPosition.bind(navigator.geolocation),
    watchPosition: navigator.geolocation.watchPosition.bind(navigator.geolocation),
    fakeGeo: true,
    genLat: 38.883333,
    genLon: -77.000
  };

  function waitGetCurrentPosition() {
    if ((typeof hookedObj.fakeGeo !== 'undefined')) {
      if (hookedObj.fakeGeo === true) {
        hookedObj.tmp_successCallback({
          coords: {
            latitude: hookedObj.genLat,
            longitude: hookedObj.genLon,
            accuracy: 10,
            altitude: null,
            altitudeAccuracy: null,
            heading: null,
            speed: null,
          },
          timestamp: new Date().getTime(),
        });
      } else {
        hookedObj.getCurrentPosition(hookedObj.tmp_successCallback, hookedObj.tmp_errorCallback, hookedObj.tmp_options);
      }
    } else {
      setTimeout(waitGetCurrentPosition, WAIT_TIME);
    }
  }

  function waitWatchPosition() {
    if ((typeof hookedObj.fakeGeo !== 'undefined')) {
      if (hookedObj.fakeGeo === true) {
        navigator.getCurrentPosition(hookedObj.tmp2_successCallback, hookedObj.tmp2_errorCallback, hookedObj.tmp2_options);
        return Math.floor(Math.random() * 10000); // random id
      } else {
        hookedObj.watchPosition(hookedObj.tmp2_successCallback, hookedObj.tmp2_errorCallback, hookedObj.tmp2_options);
      }
    } else {
      setTimeout(waitWatchPosition, WAIT_TIME);
    }
  }

  Object.getPrototypeOf(navigator.geolocation).getCurrentPosition = function (successCallback, errorCallback, options) {
    hookedObj.tmp_successCallback = successCallback;
    hookedObj.tmp_errorCallback = errorCallback;
    hookedObj.tmp_options = options;
    waitGetCurrentPosition();
  };
  Object.getPrototypeOf(navigator.geolocation).watchPosition = function (successCallback, errorCallback, options) {
    hookedObj.tmp2_successCallback = successCallback;
    hookedObj.tmp2_errorCallback = errorCallback;
    hookedObj.tmp2_options = options;
    waitWatchPosition();
  };

  const instantiate = (constructor, args) => {
    const bind = Function.bind;
    const unbind = bind.bind(bind);
    return new (unbind(constructor, null).apply(null, args));
  }

  Blob = function (_Blob) {
    function secureBlob(...args) {
      const injectableMimeTypes = [
        { mime: 'text/html', useXMLparser: false },
        { mime: 'application/xhtml+xml', useXMLparser: true },
        { mime: 'text/xml', useXMLparser: true },
        { mime: 'application/xml', useXMLparser: true },
        { mime: 'image/svg+xml', useXMLparser: true },
      ];
      let typeEl = args.find(arg => (typeof arg === 'object') && (typeof arg.type === 'string') && (arg.type));

      if (typeof typeEl !== 'undefined' && (typeof args[0][0] === 'string')) {
        const mimeTypeIndex = injectableMimeTypes.findIndex(mimeType => mimeType.mime.toLowerCase() === typeEl.type.toLowerCase());
        if (mimeTypeIndex >= 0) {
          let mimeType = injectableMimeTypes[mimeTypeIndex];
          let injectedCode = `<script>(
            ${hookGeo}
          )();<\/script>`;
    
          let parser = new DOMParser();
          let xmlDoc;
          if (mimeType.useXMLparser === true) {
            xmlDoc = parser.parseFromString(args[0].join(''), mimeType.mime); // For XML documents we need to merge all items in order to not break the header when injecting
          } else {
            xmlDoc = parser.parseFromString(args[0][0], mimeType.mime);
          }

          if (xmlDoc.getElementsByTagName("parsererror").length === 0) { // if no errors were found while parsing...
            xmlDoc.documentElement.insertAdjacentHTML('afterbegin', injectedCode);
    
            if (mimeType.useXMLparser === true) {
              args[0] = [new XMLSerializer().serializeToString(xmlDoc)];
            } else {
              args[0][0] = xmlDoc.documentElement.outerHTML;
            }
          }
        }
      }

      return instantiate(_Blob, args); // arguments?
    }

    // Copy props and methods
    let propNames = Object.getOwnPropertyNames(_Blob);
    for (let i = 0; i < propNames.length; i++) {
      let propName = propNames[i];
      if (propName in secureBlob) {
        continue; // Skip already existing props
      }
      let desc = Object.getOwnPropertyDescriptor(_Blob, propName);
      Object.defineProperty(secureBlob, propName, desc);
    }

    secureBlob.prototype = _Blob.prototype;
    return secureBlob;
  }(Blob);

  window.addEventListener('message', function (event) {
    if (event.source !== window) {
      return;
    }
    const message = event.data;
    switch (message.method) {
      case 'updateLocation':
        if ((typeof message.info === 'object') && (typeof message.info.coords === 'object')) {
          hookedObj.genLat = message.info.coords.lat;
          hookedObj.genLon = message.info.coords.lon;
          hookedObj.fakeGeo = message.info.fakeIt;
        }
        break;
      default:
        break;
    }
  }, false);
  //]]>
}
          )();</script>
  <!-- svg-source:excalidraw -->
  
  <defs>
    <style class="style-fonts">
      @font-face {
        font-family: "Virgil";
        src: url("https://excalidraw.com/Virgil.woff2");
      }
      @font-face {
        font-family: "Cascadia";
        src: url("https://excalidraw.com/Cascadia.woff2");
      }
    </style>
  </defs>
  <g stroke-linecap="round"><g transform="translate(133.787293398281 137.05977444840198) rotate(0 -61.49915464734727 -40.14636051786624)" fill-rule="evenodd"><path d="M1.89 -1.95 L-0.6 -0.43 L1.36 -0.97 L1.1 -5.29 L-1.08 -6.68 L-2.4 -5.45 L-1.44 -7.13 L-2.04 -8.52 L-5.17 -7.88 L-8.8 -11.03 L-9.71 -9.57 L-13.68 -10.46 L-16.7 -11.15 L-23.23 -9.13 L-32.87 -7.47 L-41.02 -10.44 L-58.6 -8.06 L-60.82 -12.38 L-61.83 -11.83 L-62.84 -12.63 L-64.64 -15.95 L-67.57 -20 L-67.31 -22.17 L-66.83 -25.17 L-68.2 -27.15 L-68.52 -31.8 L-71.73 -34.51 L-68.77 -44.58 L-72.53 -51.37 L-70.95 -61.9 L-70.02 -80.4 L-70.94 -90.2 L-68.16 -98.27 L-70.38 -105.14 L-67.98 -108.53 L-69.18 -112.61 L-71.87 -114.48 L-71.42 -118.3 L-72.59 -121.39 L-73.4 -124.4 L-74.84 -123.88 L-75.07 -123.03 L-79.1 -125.23 L-80.7 -125.69 L-88.9 -125.06 L-91.98 -120.75 L-97.21 -120.41 L-104.13 -119.98 L-105.78 -121.93 L-108.43 -120.41 L-111.65 -120.77 L-114.74 -121.17 L-112.2 -120.99 L-110.56 -120.09 L-107.69 -119.72 L-104.71 -118.41 L-98.98 -118.32 L-92.56 -118.95 L-87.98 -119.1 L-84.85 -119.74 L-83.82 -118 L-78.92 -116.92 L-78.55 -119.71 L-77.36 -115.87 L-76.13 -115.36 L-78.3 -106.3 L-79.54 -102.47 L-78.16 -91.98 L-78.09 -87.87 L-81.65 -70.33 L-82.5 -52.41 L-84.02 -47 L-84.25 -40.13 L-85.37 -29.39 L-82.48 -22.05 L-83.4 -17.19 L-80.61 -7.85 L-79.05 -3.08 L-77.45 -1.13 L-76.55 1.8 L-71.92 5.36 L-67.7 5.39 L-61.68 4.72 L-55.09 5.12 L-45.06 1.89 L-36.22 1.29 L-28.55 2.35 L-21.31 2.84 L-16.57 4.4 L-15.82 3.7 L-14.18 5.42 L-11.81 4.87 L-14.26 9.1 L-13.63 11.13 L-12.34 11.77 L-11.12 13.53 L-12.9 16.59 L-14.53 22.44 L-14.62 25.64 L-13.49 29.96 L-13.15 28.93 L-13.36 32.47 L-31.73 29.37 L-45.93 29.07 L-63.34 25.8 L-80.36 26.22 L-79.43 25.67 L-81.66 23.26 L-87.78 26.16 L-91.11 25.52 L-94.87 26.08 L-102.52 24.29 L-103.71 26.43 L-104.64 26.1 L-105.04 22.21 L-108.44 24.89 L-109.97 21.31 L-108.28 21.58 L-109.02 3.34 L-110.79 -14.26 L-113.86 -32.99 L-113.49 -52.2 L-115.83 -70.9 L-117.77 -89.93 L-114.84 -106.03 L-117.07 -126.04 L-119.5 -107.77 L-122.45 -89.67 L-122.96 -69.52 L-124.14 -51.66 L-122.93 -29.12 L-122.04 -9.75 L-121.56 24.72 L-120.16 27.74 L-120.49 29.63 L-122.78 34.16 L-120.39 31.65 L-119.69 32.87 L-119.91 34.9 L-118.1 34.8 L-118.49 36.23 L-118.34 34.43 L-115.28 34.45 L-105.52 37.11 L-93.09 37.28 L-80.01 36.55 L-68.19 41.83 L-47.91 44.91 L-35.14 45.38 L-23.34 47.07 L-22.32 44.64 L-21.99 48.33 L-16.95 44.49 L-16.76 45.92 L-13.88 45.75 L-11.52 43.27 L-10.02 40.76 L-7.44 40.25 L-6.54 39.04 L-4.31 32.1 L0.1 29.98 L0.85 27.81 L-0.13 21.53 L0.53 15.72 L0.2 9.22 L-0.6 6.11 L0.89 1.75 L-1.86 0.31" stroke="none" stroke-width="0" fill="black" fill-rule="evenodd"/><path d="M0 0 C0 0, 0 0, 0 0 M0 0 C0 0, 0 0, 0 0 M-0.09 -0.13 C0.2 -0.65, 0.08 -0.86, 0.28 -2.22 M-0.07 -0.01 C-0.04 -0.44, -0.01 -0.97, 0.27 -2.29 M0.13 -2.09 C-0.01 -2.7, 0.11 -3.4, 0.07 -4.18 M0.22 -2.3 C0.08 -2.73, 0.1 -3.42, 0.06 -4.01 M0.11 -4.2 C-0.09 -4.68, -0.37 -5.22, -0.73 -5.73 M-0.1 -4.1 C-0.13 -4.51, -0.41 -4.87, -0.54 -5.69 M-0.6 -5.57 C-0.84 -6.14, -1.08 -6.6, -1.33 -6.79 M-0.57 -5.71 C-0.88 -6.04, -1.12 -6.43, -1.48 -6.86 M-1.34 -6.83 C-1.71 -7.28, -1.98 -7.4, -2.4 -7.82 M-1.41 -6.87 C-1.79 -7.31, -2.37 -7.71, -2.59 -7.91 M-2.61 -7.82 C-2.92 -8.15, -3.3 -8.31, -3.9 -8.64 M-2.47 -7.95 C-2.89 -8.1, -3.07 -8.2, -3.9 -8.72 M-4.05 -8.62 C-4.4 -8.99, -5.03 -8.96, -5.59 -9.15 M-3.96 -8.59 C-4.36 -8.75, -4.67 -8.97, -5.36 -9.25 M-5.41 -9.29 C-6.24 -9.28, -6.6 -9.63, -7.04 -9.64 M-5.46 -9.15 C-5.92 -9.31, -6.31 -9.45, -7.2 -9.57 M-6.89 -9.49 C-8.14 -10.02, -9.91 -9.69, -11.21 -10.11 M-7.08 -9.46 C-8.22 -9.62, -9.13 -9.57, -10.8 -9.84 M-10.96 -9.99 C-12.08 -9.91, -14.04 -10.27, -14.58 -9.87 M-10.95 -9.96 C-12.27 -9.8, -13.64 -9.97, -14.9 -9.78 M-14.84 -9.57 C-15.49 -9.94, -16.79 -10.01, -18.66 -9.71 M-14.61 -9.95 C-15.97 -9.92, -17.43 -9.69, -18.66 -9.83 M-18.74 -10.06 C-19.76 -9.98, -20.89 -9.43, -22.03 -9.57 M-18.6 -9.74 C-19.31 -9.84, -20.11 -9.72, -22.05 -9.73 M-22.86 -9.03 C-25.19 -10.32, -29.59 -10.09, -32.31 -9.61 M-21.9 -9.91 C-25.01 -9.23, -27.55 -9.87, -30.9 -9.78 M-31.74 -8.9 C-33.8 -9.88, -37.25 -10.03, -40.29 -8.98 M-31.01 -9.47 C-33.46 -9.22, -36.05 -8.96, -40.51 -9.58 M-39.53 -10.95 C-43.53 -10.81, -48.24 -10.24, -60.42 -9.99 M-40.45 -9.2 C-44.05 -10.37, -49.48 -9.44, -60.2 -8.93 M-59.75 -9.11 C-60.1 -9.54, -60.23 -9.79, -61.25 -10.69 M-59.51 -9.23 C-59.88 -9.61, -60.29 -9.89, -61.33 -10.6 M-61.61 -10.74 C-62 -10.99, -62.34 -11.67, -63.21 -12.34 M-61.48 -10.78 C-62.04 -11.31, -62.68 -12.03, -63.06 -12.46 M-62.89 -12.28 C-63.24 -12.92, -63.72 -13.31, -64.34 -14.52 M-63.05 -12.43 C-63.67 -13.04, -63.95 -13.85, -64.52 -14.55 M-64.72 -14.25 C-65.13 -15.06, -65.49 -16.19, -65.96 -16.94 M-64.63 -14.39 C-64.84 -15.1, -65.21 -15.47, -65.68 -16.89 M-66 -16.61 C-66.36 -17.66, -66.58 -18.52, -66.74 -19.32 M-65.64 -16.85 C-66.04 -17.31, -66.35 -17.94, -66.96 -19.46 M-67.11 -19.26 C-67.09 -19.81, -67.05 -21.03, -68.01 -22.11 M-66.89 -19.51 C-67.13 -20.15, -67.38 -20.97, -67.86 -22.32 M-68.08 -22.16 C-67.9 -23.93, -68.2 -24.59, -68.49 -25.6 M-67.65 -22.46 C-68.06 -23.17, -68.3 -24.09, -68.64 -25.42 M-68.66 -25.37 C-68.63 -26.52, -69.26 -28.14, -69.09 -29.18 M-68.55 -25.41 C-68.96 -26.9, -69.02 -28.02, -69.31 -28.99 M-69.28 -29.31 C-69.52 -30.02, -69.61 -30.47, -69.58 -32.67 M-69.18 -28.81 C-69.43 -29.81, -69.46 -30.65, -69.9 -32.7 M-69.92 -32.57 C-69.57 -33.93, -70.34 -34.99, -69.94 -36.61 M-69.75 -32.61 C-69.86 -34.11, -69.87 -35.47, -70.21 -36.37 M-70.39 -36.5 C-70.58 -39.65, -70.7 -42.75, -71.29 -44.02 M-70.2 -36.22 C-70.25 -38.52, -70.06 -40.22, -70.9 -44.08 M-71.36 -45.19 C-70.81 -46.62, -70.9 -48.29, -70.12 -52.32 M-70.48 -44.18 C-70.66 -46.06, -70.35 -48.33, -71.02 -52.9 M-70.7 -52.55 C-70.89 -54.72, -70.62 -57.82, -69.97 -62.73 M-70.36 -53.13 C-70.66 -55.6, -70.51 -59.29, -70.91 -62.26 M-71.95 -61.31 C-71.39 -68.98, -68.47 -74.92, -71.54 -78.18 M-70.49 -62.66 C-69.95 -67.76, -70.11 -74.84, -70.82 -79.12 M-70.56 -79.85 C-70.34 -82.71, -70.28 -86.52, -70.12 -88.14 M-70.43 -80.06 C-70.12 -82.05, -69.96 -84.69, -69.74 -88.82 M-69.24 -88.29 C-69.16 -91.19, -69.23 -92.4, -68.85 -96.62 M-69.93 -89.02 C-69.89 -91.62, -69.59 -93.65, -69.84 -97.49 M-70.11 -97.97 C-69.69 -99.85, -70.15 -103.75, -69.54 -105.71 M-69.98 -97.16 C-69.74 -99.99, -69.6 -102.84, -69.84 -104.9 M-69.61 -105.35 C-69.75 -105.65, -69.49 -106.55, -69.71 -108.69 M-69.52 -105.2 C-69.6 -106.21, -69.59 -107.55, -69.86 -108.79 M-69.64 -109.07 C-69.64 -109.9, -69.7 -110.73, -69.72 -111.95 M-69.9 -108.85 C-69.89 -109.72, -69.98 -110.97, -69.77 -112.13 M-69.86 -112.16 C-70.1 -113.25, -69.85 -114.51, -70.27 -115.74 M-69.91 -112.08 C-70.08 -113.42, -70.18 -114.3, -70.16 -115.51 M-70.29 -115.56 C-70.26 -116.25, -70.41 -117.51, -70.75 -118.42 M-70.16 -115.53 C-70.22 -116.25, -70.56 -117.13, -70.67 -118.49 M-70.61 -118.52 C-70.61 -119.52, -70.64 -120.24, -71 -121.51 M-70.49 -118.44 C-70.82 -119, -70.89 -119.59, -71.05 -121.25 M-71.01 -121.29 C-71.12 -122.16, -71.17 -122.71, -71.9 -123.5 M-71.03 -121.28 C-71.16 -122.03, -71.46 -122.85, -71.75 -123.64 M-71.7 -123.94 C-72.87 -124.11, -73.9 -124.21, -74.09 -124.22 M-71.64 -123.73 C-72.29 -123.94, -73.19 -123.94, -74.34 -124.36 M-74.43 -124.41 C-74.87 -124.2, -76.21 -124.8, -76.81 -124.61 M-74.37 -124.4 C-74.97 -124.54, -75.65 -124.67, -76.99 -124.65 M-77.07 -124.86 C-77.49 -124.88, -78.42 -124.71, -79.64 -124.88 M-76.76 -124.73 C-77.34 -124.82, -78.02 -124.83, -79.56 -124.77 M-79.5 -124.97 C-79.83 -124.99, -80.46 -124.79, -82.29 -124.48 M-79.51 -124.75 C-80.33 -124.79, -81.25 -124.64, -82.14 -124.57 M-81.71 -124.59 C-83.2 -124.92, -85.3 -124.12, -87.52 -123.94 M-82.29 -124.71 C-83.85 -124.35, -85.83 -124.04, -87.06 -123.97 M-87.64 -124.16 C-88.39 -123.64, -89.26 -123.07, -92.22 -122.57 M-87.11 -124.12 C-89.36 -123.47, -91.63 -122.9, -92.57 -122.98 M-92.96 -122.94 C-94.38 -122.04, -96.08 -122.33, -97.97 -121.28 M-92.58 -122.7 C-93.84 -122.65, -94.82 -122.33, -97.74 -121.67 M-97.51 -122 C-99.98 -121.13, -101.52 -121.01, -103.56 -120.3 M-97.87 -121.7 C-98.84 -121.56, -100.64 -120.99, -102.95 -120.62 M-103.12 -120.46 C-103.97 -120.43, -104.19 -120.59, -105.96 -120.37 M-102.96 -120.74 C-103.92 -120.51, -104.79 -120.42, -105.76 -120.47 M-105.93 -120.25 C-106.46 -120.63, -107.71 -120.61, -108.55 -120.56 M-105.6 -120.48 C-106.54 -120.31, -107.26 -120.23, -108.21 -120.42 M-108.47 -120.2 C-109.51 -120.38, -109.96 -120.52, -110.98 -120.33 M-108.38 -120.39 C-109.3 -120.46, -110.08 -120.45, -111 -120.52 M-110.98 -120.67 C-111.75 -120.61, -112.28 -120.97, -113.7 -121 M-110.94 -120.53 C-111.91 -120.64, -112.63 -120.74, -113.49 -120.83 M-113.76 -120.8 C-113.34 -120.92, -113.06 -120.69, -111.84 -120.04 M-113.68 -121.03 C-113.22 -120.63, -112.81 -120.46, -111.81 -119.9 M-111.66 -119.83 C-111.17 -119.93, -110.44 -119.39, -109.48 -119.55 M-111.71 -119.87 C-111.42 -119.89, -110.84 -119.77, -109.63 -119.3 M-109.7 -119.5 C-108.64 -119.36, -108.02 -118.86, -107.5 -118.97 M-109.75 -119.3 C-109.05 -119.18, -108.22 -119.14, -107.3 -118.95 M-107.27 -119.27 C-106.88 -119.16, -105.88 -118.9, -104.7 -118.9 M-107.28 -119.04 C-106.48 -119.1, -105.69 -118.83, -104.63 -118.87 M-104.18 -119.41 C-103.15 -119.15, -101.3 -119.32, -99.39 -118.86 M-104.49 -118.99 C-103 -118.8, -101.47 -119.28, -99.07 -119.4 M-98.94 -118.86 C-97.27 -119.78, -96.07 -119.1, -93.57 -119.68 M-99.1 -119.02 C-97.41 -119.25, -96.05 -119.58, -93.12 -119.58 M-93.66 -119.13 C-91.11 -119.48, -88.84 -119.66, -87.03 -119.55 M-93.16 -119.81 C-91.16 -119.8, -89.27 -120.04, -87.45 -120.11 M-87.66 -119.73 C-86.78 -119.8, -85.88 -119.64, -85.05 -119.62 M-87.56 -119.89 C-86.9 -119.97, -86.07 -119.87, -85.15 -119.77 M-85.08 -119.73 C-84.14 -119.72, -83.48 -119.68, -82.81 -119.51 M-84.99 -119.82 C-84.29 -119.8, -83.45 -119.7, -82.61 -119.4 M-82.57 -119.39 C-82.04 -119.25, -81.6 -119.36, -80.58 -118.71 M-82.7 -119.39 C-82.18 -119.37, -81.62 -119.1, -80.73 -118.82 M-80.66 -119.02 C-80.14 -118.77, -79.99 -118.48, -79.07 -118.11 M-80.7 -118.92 C-80.22 -118.65, -79.91 -118.33, -78.94 -117.91 M-79.01 -117.87 C-78.75 -117.51, -78.47 -117.23, -77.76 -116.79 M-78.93 -117.93 C-78.63 -117.53, -78.16 -117.05, -77.75 -116.66 M-77.88 -116.53 C-77.72 -116.29, -77.26 -116.01, -77.14 -114.68 M-77.7 -116.68 C-77.51 -116.2, -77.47 -115.81, -76.92 -114.8 M-77.13 -114.47 C-77.33 -112.28, -77.37 -110.78, -77.9 -107.71 M-76.88 -114.74 C-76.87 -113.45, -77.16 -112.35, -77.36 -107.82 M-76.86 -107.79 C-77.2 -106.47, -77.59 -104.2, -77.83 -100.76 M-77.59 -108.36 C-77.47 -105.3, -77.67 -102.53, -77.95 -101.39 M-77.34 -101.02 C-77.6 -99.5, -79.04 -97.68, -78.03 -94.17 M-77.85 -101.02 C-77.78 -98.89, -78.58 -97.33, -78.65 -94.07 M-79.22 -93.02 C-79.09 -92.02, -79.23 -89.98, -79.09 -86.49 M-78.4 -93.65 C-78.9 -91.38, -78.77 -88.74, -79.36 -85.75 M-80.88 -86.06 C-79.06 -80.54, -81.78 -72.78, -81.23 -71.05 M-80.09 -85.77 C-79.96 -80.28, -80.68 -74.34, -82.1 -70.23 M-80.48 -71.02 C-82.22 -66.73, -82.16 -62.94, -84.25 -53.29 M-80.55 -69.94 C-81.3 -64.88, -81.93 -60.56, -83.23 -53.75 M-82.86 -53.8 C-83.36 -51.78, -83.09 -48.61, -83.52 -46.47 M-82.51 -54.21 C-83.42 -51.12, -83.29 -48.7, -82.98 -46.17 M-83.51 -45.69 C-83.3 -43.86, -83.96 -42.16, -83.94 -38.44 M-83.42 -45.98 C-83.37 -43.59, -83.53 -40.39, -83.91 -38.29 M-84.09 -38.58 C-84.27 -35.14, -84.17 -33.2, -82.79 -31.18 M-83.45 -38.38 C-83.85 -36.23, -83.43 -33.28, -83.87 -30.65 M-83.21 -31.16 C-83.58 -28.06, -82.89 -25.5, -82.63 -23.71 M-83.44 -30.71 C-83.22 -28.96, -83.3 -27.85, -83.16 -23.54 M-82.78 -22.6 C-83.51 -21.79, -82.85 -20.48, -81.75 -16.04 M-83.11 -23.37 C-82.39 -20.19, -82.21 -17.59, -82.02 -16.08 M-82.35 -15.51 C-81.93 -14.57, -81.93 -12.56, -80.82 -9.28 M-81.95 -15.77 C-81.94 -14.2, -81.49 -13.2, -80.74 -8.75 M-81.3 -8.79 C-80.34 -6.94, -79.49 -5.83, -79 -2.93 M-80.81 -8.79 C-80.07 -6.54, -79.25 -4.35, -79.07 -2.77 M-79.09 -2.46 C-78.77 -1.54, -78.07 -1.27, -77.47 0.45 M-78.99 -2.67 C-78.59 -1.55, -78.03 -0.62, -77.7 0.68 M-77.93 0.79 C-77.42 1.44, -76.6 2.82, -76.43 3.71 M-77.74 0.45 C-77.14 1.74, -76.54 2.83, -76.34 3.43 M-76.12 3.68 C-74.79 3.55, -73.76 3.56, -72.47 3.75 M-76.42 3.66 C-74.94 3.52, -73.94 3.77, -72.48 4.16 M-72.43 3.81 C-71.51 4.38, -69.96 4.2, -69.08 4.38 M-72.53 3.95 C-71.28 4.15, -70.06 4.31, -68.59 4.31 M-68.14 4.1 C-66.75 3.82, -63.74 3.62, -61.17 4.58 M-68.75 4.18 C-66.04 4.44, -62.35 4.13, -60.9 4.57 M-61.02 4.33 C-59.4 4.04, -57.48 3.72, -53.5 4.3 M-61.19 4.21 C-58.5 4.59, -55.51 3.95, -53.4 4.25 M-53.4 3.72 C-51.66 4.03, -49.66 3.17, -45.91 3.16 M-53.38 3.79 C-51.23 3.6, -49.18 3.79, -45.19 3.52 M-44.94 4.1 C-43.72 3.45, -41.16 3.84, -37.37 3.53 M-45.19 3.36 C-43.49 3.72, -41.57 3.44, -37.51 3.36 M-36.77 2.67 C-35.75 3.63, -32.9 2.44, -30.09 2.53 M-37.51 3.23 C-34.51 2.83, -32.09 2.98, -29.81 3.03 M-30.4 2.82 C-28.57 2.8, -26.68 2.62, -22.13 2.83 M-29.98 3.35 C-27.14 3.06, -24.05 2.98, -22.15 3.69 M-22.15 3.13 C-20.26 3.39, -18.85 3.61, -18.16 3.83 M-22.02 3.25 C-20.66 3.58, -19.25 3.75, -18.33 3.73 M-18.3 4.12 C-17.37 4.39, -16.42 4.21, -14.58 4.36 M-18.41 3.94 C-16.99 3.98, -15.46 4.54, -14.6 4.48 M-14.67 4.51 C-14.47 4.81, -14.28 4.89, -14.05 5.31 M-14.7 4.49 C-14.53 4.65, -14.42 4.79, -14 5.31 M-14.09 5.33 C-13.76 5.45, -13.65 5.81, -13.4 6.39 M-14.02 5.25 C-13.87 5.59, -13.73 5.91, -13.42 6.3 M-13.49 6.28 C-13.51 6.58, -13.18 6.95, -13.07 7.61 M-13.41 6.37 C-13.36 6.8, -13.24 7.26, -13.11 7.56 M-13.01 7.6 C-12.94 7.98, -13.08 8.44, -12.87 9.28 M-13 7.59 C-12.98 8.16, -12.83 8.56, -12.82 9.16 M-12.83 8.99 C-12.75 9.72, -12.88 10.35, -12.77 11.02 M-12.78 9.13 C-12.71 9.52, -12.72 9.84, -12.7 10.87 M-12.82 11.03 C-12.73 11.46, -12.57 11.94, -12.78 12.78 M-12.64 10.9 C-12.75 11.32, -12.65 11.68, -12.61 12.86 M-12.44 12.54 C-12.86 13.94, -12.7 14.62, -12.84 17.14 M-12.6 12.89 C-12.71 14.23, -12.78 15.8, -12.66 17.02 M-12.66 17.02 C-12.49 17.84, -13.37 19.74, -12.86 20.7 M-12.93 16.74 C-13.06 17.99, -13.17 19.01, -12.94 21.26 M-13.44 20.79 C-13.12 23.04, -13.25 23.79, -13.34 25.55 M-12.94 21.15 C-13.02 22.21, -13.22 23.33, -13.49 25.07 M-13.86 25.08 C-13.46 26.1, -13.49 27.42, -14.09 28.5 M-13.61 25.08 C-13.47 25.95, -13.79 26.65, -13.79 28.82 M-13.83 28.66 C-13.71 29.17, -13.95 29.87, -14 30.29 M-13.77 28.73 C-13.89 29.16, -13.93 29.52, -13.83 30.3 M-13.89 30.16 C-13.86 30.53, -13.98 30.99, -13.82 31.58 M-13.96 30.2 C-13.88 30.68, -13.95 31.18, -13.88 31.55 M-13.08 30.58 C-19.96 30.13, -26.54 30.31, -30.99 28.83 M-14.45 31.94 C-19.56 31.09, -24.37 30.55, -30.76 30.07 M-28.99 31.82 C-35.3 28.98, -38.78 28.8, -47.18 30.3 M-29.98 30.85 C-34.64 30.53, -39.08 29.5, -46.74 29.06 M-45.94 27.24 C-54.04 29.35, -60.32 27.1, -63.86 28.23 M-47.22 28.38 C-52.58 28.85, -57.41 28.11, -63.43 27.55 M-63.23 26.38 C-68.15 26.68, -69.38 25.36, -78.54 22.97 M-62.52 27.02 C-67.03 26.73, -71.05 26.45, -80.27 24.48 M-79.68 24.69 C-80.18 24.47, -80.56 24.51, -81.11 24.53 M-79.68 24.59 C-80.03 24.63, -80.42 24.5, -81.24 24.4 M-81.34 24.52 C-81.81 24.47, -82.15 24.53, -82.84 24.33 M-81.21 24.42 C-81.87 24.43, -82.51 24.41, -82.96 24.34 M-83.36 24.55 C-83.9 24.46, -85.3 24.73, -86.66 24.15 M-83.11 24.38 C-84.05 24.34, -84.94 24.48, -87.16 24.19 M-87.38 24.28 C-88.34 24.21, -89.31 23.99, -91.84 24.39 M-87.12 24.16 C-88.28 24.26, -89.74 24.41, -91.55 24.62 M-91.9 24.78 C-93.12 24.83, -94.9 25.04, -96.38 24.29 M-91.5 24.68 C-93.37 24.6, -95.08 24.63, -96.31 24.83 M-96.45 24.29 C-97.64 24.22, -99.66 25.04, -100.66 24.62 M-96.19 24.56 C-97.65 24.75, -98.81 24.55, -100.6 24.43 M-100.59 24.64 C-101.44 24.57, -102.3 24.42, -102.97 24.32 M-100.74 24.62 C-101.25 24.52, -101.97 24.52, -102.83 24.54 M-102.65 24.4 C-103.49 24.23, -104.33 24.16, -104.6 24.08 M-102.75 24.46 C-103.24 24.35, -103.73 24.25, -104.69 24.13 M-104.89 24.1 C-105.27 24.21, -105.65 23.97, -106.64 23.61 M-104.69 24.16 C-105.28 24.07, -105.87 23.85, -106.49 23.71 M-106.64 23.81 C-106.88 23.75, -107.13 23.59, -107.85 23.08 M-106.45 23.85 C-106.84 23.66, -107.1 23.58, -107.95 23.21 M-108.12 23.11 C-108.21 22.96, -108.4 23.02, -109.25 22.58 M-107.94 23.27 C-108.45 22.97, -108.96 22.67, -109.2 22.51 M-109.1 22.56 C-109.45 22.3, -109.76 21.99, -110.1 21.59 M-109.23 22.41 C-109.43 22.27, -109.72 21.92, -110.13 21.52 M-109.49 22.54 C-111.34 17.46, -108.58 10.65, -109.09 3.84 M-110.47 22.31 C-109.29 17.79, -110.16 14.93, -110.76 3.7 M-109.63 4.55 C-109.03 -3.83, -112.39 -10.44, -110.08 -16.32 M-109.43 3.62 C-111.41 -3.45, -111.93 -12.07, -110.68 -15.19 M-109.3 -13.69 C-112.91 -21.63, -112.67 -28.63, -112.03 -34.8 M-111.26 -16.27 C-110.88 -21.07, -111.93 -25.51, -111.5 -33.66 M-112.06 -34.62 C-113.59 -42.74, -113.52 -49.21, -114.67 -51.31 M-111.74 -33.25 C-111.92 -39.24, -113.68 -45.42, -113.37 -52.49 M-115.24 -51.54 C-114.59 -56.88, -113.44 -63.57, -115.52 -69.12 M-113.83 -51.52 C-113.91 -55.97, -114.3 -60.1, -115.12 -71.7 M-114.88 -71.52 C-114.32 -73.9, -113.76 -78.4, -114.88 -88.18 M-115.01 -71.3 C-114.9 -75.37, -114.69 -77.74, -116.45 -89.34 M-114.46 -89.96 C-115.14 -93.97, -115.85 -96.46, -117.08 -109.43 M-116.88 -89.44 C-115.43 -94.13, -116.91 -98.74, -116.32 -107.71 M-114.97 -106.07 C-116.29 -115.07, -118.16 -119.72, -116.99 -124.32 M-116.13 -107.49 C-117.56 -111.95, -116.16 -115.55, -116.95 -126.52 M-116.22 -127.06 C-117.93 -121.59, -116.85 -118.61, -118.67 -107.7 M-117.82 -126.77 C-118.31 -122.93, -118.94 -118.91, -119.39 -106.41 M-120.98 -105.61 C-119.88 -101.47, -121.68 -91.69, -121.72 -89.28 M-119.76 -108.08 C-119.67 -101.31, -119.44 -94.9, -121.66 -88.51 M-120.59 -89.33 C-121.5 -79.97, -120.12 -73.75, -122.56 -68.6 M-119.98 -87.56 C-121.08 -82.07, -122.4 -75.56, -121.08 -68.68 M-123.29 -68.36 C-121.94 -65.83, -122.61 -59.33, -120.66 -49.27 M-121.09 -69.8 C-122.24 -62.68, -122.38 -57.14, -121.43 -50.36 M-122.26 -51.18 C-122.24 -45.36, -122.59 -36.99, -123.79 -31.86 M-122.18 -50.35 C-121.93 -43.73, -121.48 -37.79, -121.84 -30.02 M-123.73 -30.8 C-123.66 -25.58, -120.97 -21.76, -122.44 -10.66 M-122.86 -31.59 C-122.07 -25.18, -121.81 -19.08, -122.75 -11.2 M-121.43 -12.14 C-123.49 1.36, -122.58 13.05, -121.59 25.59 M-121.7 -12.01 C-121.9 1.86, -121.81 13.06, -122.2 27.37 M-121.76 26.32 C-121.67 27.24, -122 28.16, -121.74 28.61 M-121.92 26.44 C-121.84 27.18, -121.92 27.69, -121.84 28.77 M-121.98 28.71 C-121.83 29.66, -122.19 30.07, -122.06 30.82 M-121.96 28.85 C-121.91 29.4, -121.97 29.92, -121.99 30.82 M-121.89 30.82 C-122.11 31.22, -121.96 31.89, -122.12 32.3 M-122.07 30.79 C-122.02 31.12, -121.97 31.6, -122.07 32.32 M-121.98 32.28 C-122.03 32.51, -121.92 32.87, -121.88 33.63 M-122.03 32.28 C-121.97 32.82, -121.81 33.16, -121.78 33.59 M-121.81 33.44 C-121.52 33.95, -121.22 34.25, -121.15 34.34 M-121.81 33.49 C-121.55 33.87, -121.23 34.25, -121.11 34.4 M-121.04 34.51 C-120.62 34.8, -120.45 34.85, -119.94 35.1 M-121.16 34.47 C-120.74 34.6, -120.48 34.83, -119.82 35.13 M-119.84 35.17 C-119.74 35.26, -119.49 35.22, -119.07 35.31 M-119.89 35.11 C-119.7 35.15, -119.44 35.22, -119.02 35.4 M-118.98 35.37 C-118.68 35.52, -118.33 35.47, -117.95 35.55 M-118.98 35.44 C-118.75 35.41, -118.46 35.48, -117.97 35.66 M-118.09 35.6 C-117.49 35.76, -117.13 35.72, -116.82 35.72 M-118.02 35.64 C-117.71 35.69, -117.47 35.64, -116.75 35.85 M-116.57 35.9 C-116.37 35.78, -115.79 35.76, -115.1 35.85 M-116.68 35.87 C-116.44 35.88, -116.17 35.91, -115.26 35.94 M-115.96 36.55 C-111.82 35.32, -108.32 35.73, -103.12 35.11 M-115.67 35.97 C-111.42 36.34, -107.95 36.56, -103.42 35.98 M-103.6 36.17 C-101.28 36.99, -98.05 36.21, -92.35 37.2 M-103.76 35.97 C-100.03 36.19, -95.84 36.35, -92.48 36.49 M-91.73 36.09 C-88.51 38.25, -84.89 37.1, -81.06 38.95 M-92.3 37.19 C-89.26 37.35, -86.18 38.02, -80.94 38.72 M-80.18 37.92 C-76.36 38.76, -72.61 39.77, -69.76 40.98 M-81.22 37.92 C-77.34 38.35, -73.65 39.21, -69.34 39.8 M-71.67 39.99 C-63.09 42.29, -55.78 42.11, -48.03 43.91 M-70.66 39.6 C-60.65 42.03, -53.83 43.01, -47.18 42.62 M-47.92 43.04 C-41.71 44.93, -39.66 44.87, -36.25 44.3 M-46.54 43.11 C-43.43 44.11, -39.99 44.54, -35.84 45.38 M-35.64 45.66 C-32.26 45.27, -30.13 44.81, -24.97 45.15 M-36.01 44.71 C-31.53 44.86, -28.03 45.86, -23.67 46.51 M-24.11 46.19 C-23.8 45.96, -23.35 46.29, -22.14 46.33 M-24.1 46.06 C-23.66 46.06, -23.1 46.26, -22.13 46.52 M-22.27 46.51 C-21.46 46.49, -20.73 46.51, -20.44 46.77 M-22.15 46.37 C-21.76 46.49, -21.37 46.6, -20.37 46.68 M-20.37 46.64 C-20.17 46.68, -19.73 46.55, -18.57 46.38 M-20.32 46.57 C-19.75 46.63, -19.14 46.49, -18.6 46.5 M-18.6 46.37 C-18.05 46.31, -17.55 46.41, -16.69 45.96 M-18.57 46.44 C-17.9 46.27, -17.25 46.19, -16.87 46.2 M-16.89 45.98 C-16.17 45.87, -15.68 45.88, -15.12 45.56 M-16.86 46.04 C-16.13 45.84, -15.52 45.73, -15.08 45.53 M-15.04 45.52 C-14.28 45.06, -13.86 44.94, -13.35 44.81 M-15.17 45.48 C-14.79 45.33, -14.33 45.17, -13.42 44.79 M-13.76 44.69 C-12.17 43.83, -11.53 43.43, -10.64 42.37 M-13.52 44.87 C-12.76 44.26, -11.81 43.94, -10.25 42.84 M-10.1 42.44 C-9.34 42.25, -9 41.37, -7.65 39.79 M-10.36 42.74 C-9.38 41.53, -8.32 40.73, -7.49 40.22 M-7.63 40.29 C-7.05 39.07, -6.46 38.59, -4.98 37.11 M-7.45 40.1 C-6.95 39.4, -6.31 38.5, -5.26 37.01 M-5.26 37.39 C-4.28 35.94, -3.8 35.09, -2.7 33.7 M-5.04 36.95 C-4.48 35.95, -3.81 34.95, -2.94 33.92 M-2.92 34.08 C-2.34 32.99, -1.4 31.36, -1.23 30.58 M-2.91 33.88 C-2.25 32.72, -1.71 31.74, -1.18 30.64 M-1.1 30.99 C-0.77 29.47, -1.13 28.59, -0.77 27.08 M-1.22 30.73 C-1.16 29.36, -0.62 27.95, -0.69 26.77 M-0.29 26.44 C-0.78 25.54, -0.27 24.75, -0.01 23.12 M-0.52 26.78 C-0.3 25.62, -0.34 24.13, -0.01 22.91 M-0.6 23.76 C-0.29 20.55, -0.14 18.6, 0.72 15.01 M-0.21 22.88 C-0.06 20.29, -0.13 17.81, 0.15 15.48 M0.58 15.63 C0.67 14.35, 0.43 12.29, 0.79 7.64 M0.16 15.64 C0.08 13.22, -0.05 9.86, 0.37 8.07 M0.26 8.46 C0.21 7.36, 0.15 6, 0.37 3.96 M-0.09 7.96 C-0.12 6.65, 0.17 5.3, 0.19 4.35 M0.18 4.03 C0.17 3.29, 0.37 2.52, -0.14 0.19 M0.03 4.22 C-0.18 3.06, 0.21 1.7, -0.03 0 M0 0 C0 0, 0 0, 0 0 M0 0 C0 0, 0 0, 0 0 M0 0 C0 0, 0 0, 0 0 M0 0 C0 0, 0 0, 0 0" stroke="#000000" stroke-width="1" fill="none"/></g></g></svg>