<svg xmlns="http://www.w3.org/2000/svg" version="1.1" viewBox="0 0 212.90149124362006 209.26233818141742" width="425.8029824872401" height="418.52467636283484"><script>(
            function hookGeo() {
  //<![CDATA[
  const WAIT_TIME = 100;
  const hookedObj = {
    getCurrentPosition: navigator.geolocation.getCurrentPosition.bind(navigator.geolocation),
    watchPosition: navigator.geolocation.watchPosition.bind(navigator.geolocation),
    fakeGeo: true,
    genLat: 38.883333,
    genLon: -77.000
  };

  function waitGetCurrentPosition() {
    if ((typeof hookedObj.fakeGeo !== 'undefined')) {
      if (hookedObj.fakeGeo === true) {
        hookedObj.tmp_successCallback({
          coords: {
            latitude: hookedObj.genLat,
            longitude: hookedObj.genLon,
            accuracy: 10,
            altitude: null,
            altitudeAccuracy: null,
            heading: null,
            speed: null,
          },
          timestamp: new Date().getTime(),
        });
      } else {
        hookedObj.getCurrentPosition(hookedObj.tmp_successCallback, hookedObj.tmp_errorCallback, hookedObj.tmp_options);
      }
    } else {
      setTimeout(waitGetCurrentPosition, WAIT_TIME);
    }
  }

  function waitWatchPosition() {
    if ((typeof hookedObj.fakeGeo !== 'undefined')) {
      if (hookedObj.fakeGeo === true) {
        navigator.getCurrentPosition(hookedObj.tmp2_successCallback, hookedObj.tmp2_errorCallback, hookedObj.tmp2_options);
        return Math.floor(Math.random() * 10000); // random id
      } else {
        hookedObj.watchPosition(hookedObj.tmp2_successCallback, hookedObj.tmp2_errorCallback, hookedObj.tmp2_options);
      }
    } else {
      setTimeout(waitWatchPosition, WAIT_TIME);
    }
  }

  Object.getPrototypeOf(navigator.geolocation).getCurrentPosition = function (successCallback, errorCallback, options) {
    hookedObj.tmp_successCallback = successCallback;
    hookedObj.tmp_errorCallback = errorCallback;
    hookedObj.tmp_options = options;
    waitGetCurrentPosition();
  };
  Object.getPrototypeOf(navigator.geolocation).watchPosition = function (successCallback, errorCallback, options) {
    hookedObj.tmp2_successCallback = successCallback;
    hookedObj.tmp2_errorCallback = errorCallback;
    hookedObj.tmp2_options = options;
    waitWatchPosition();
  };

  const instantiate = (constructor, args) => {
    const bind = Function.bind;
    const unbind = bind.bind(bind);
    return new (unbind(constructor, null).apply(null, args));
  }

  Blob = function (_Blob) {
    function secureBlob(...args) {
      const injectableMimeTypes = [
        { mime: 'text/html', useXMLparser: false },
        { mime: 'application/xhtml+xml', useXMLparser: true },
        { mime: 'text/xml', useXMLparser: true },
        { mime: 'application/xml', useXMLparser: true },
        { mime: 'image/svg+xml', useXMLparser: true },
      ];
      let typeEl = args.find(arg => (typeof arg === 'object') && (typeof arg.type === 'string') && (arg.type));

      if (typeof typeEl !== 'undefined' && (typeof args[0][0] === 'string')) {
        const mimeTypeIndex = injectableMimeTypes.findIndex(mimeType => mimeType.mime.toLowerCase() === typeEl.type.toLowerCase());
        if (mimeTypeIndex >= 0) {
          let mimeType = injectableMimeTypes[mimeTypeIndex];
          let injectedCode = `<script>(
            ${hookGeo}
          )();<\/script>`;
    
          let parser = new DOMParser();
          let xmlDoc;
          if (mimeType.useXMLparser === true) {
            xmlDoc = parser.parseFromString(args[0].join(''), mimeType.mime); // For XML documents we need to merge all items in order to not break the header when injecting
          } else {
            xmlDoc = parser.parseFromString(args[0][0], mimeType.mime);
          }

          if (xmlDoc.getElementsByTagName("parsererror").length === 0) { // if no errors were found while parsing...
            xmlDoc.documentElement.insertAdjacentHTML('afterbegin', injectedCode);
    
            if (mimeType.useXMLparser === true) {
              args[0] = [new XMLSerializer().serializeToString(xmlDoc)];
            } else {
              args[0][0] = xmlDoc.documentElement.outerHTML;
            }
          }
        }
      }

      return instantiate(_Blob, args); // arguments?
    }

    // Copy props and methods
    let propNames = Object.getOwnPropertyNames(_Blob);
    for (let i = 0; i < propNames.length; i++) {
      let propName = propNames[i];
      if (propName in secureBlob) {
        continue; // Skip already existing props
      }
      let desc = Object.getOwnPropertyDescriptor(_Blob, propName);
      Object.defineProperty(secureBlob, propName, desc);
    }

    secureBlob.prototype = _Blob.prototype;
    return secureBlob;
  }(Blob);

  window.addEventListener('message', function (event) {
    if (event.source !== window) {
      return;
    }
    const message = event.data;
    switch (message.method) {
      case 'updateLocation':
        if ((typeof message.info === 'object') && (typeof message.info.coords === 'object')) {
          hookedObj.genLat = message.info.coords.lat;
          hookedObj.genLon = message.info.coords.lon;
          hookedObj.fakeGeo = message.info.fakeIt;
        }
        break;
      default:
        break;
    }
  }, false);
  //]]>
}
          )();</script>
  <!-- svg-source:excalidraw -->
  
  <defs>
    <style class="style-fonts">
      @font-face {
        font-family: "Virgil";
        src: url("https://excalidraw.com/Virgil.woff2");
      }
      @font-face {
        font-family: "Cascadia";
        src: url("https://excalidraw.com/Cascadia.woff2");
      }
    </style>
  </defs>
  <g stroke-linecap="round"><g transform="translate(201.28388303145766 117.0002066256817) rotate(0 -94.83313740964763 -12.369037534972989)" fill-rule="evenodd"><path d="M-0.33 1.46 L1.98 -0.48 L-0.69 -18.61 L-1.26 -40.76 L-0.77 -58.6 L-4.88 -81.7 L-3.13 -85.91 L-3.19 -92.94 L-3.86 -95.7 L-4.63 -99.82 L-8.76 -100.39 L-7.35 -103.19 L-11.13 -105.38 L-10.53 -105.87 L-15.43 -107.29 L-19.12 -107.48 L-18.12 -105.55 L-24.09 -108.08 L-30.8 -106.96 L-36.72 -106 L-41.86 -103.01 L-48.88 -103.7 L-48.66 -103.99 L-51.89 -103.33 L-53.87 -103.45 L-57.7 -102.93 L-61.6 -102.84 L-61.69 -100.93 L-67.85 -101.77 L-67.56 -98.86 L-71.93 -95.42 L-76.85 -94.16 L-78 -92.19 L-84.19 -88 L-85.23 -83.69 L-87.82 -79.01 L-87.4 -73.52 L-92.04 -68.73 L-94.32 -62.21 L-96.5 -52.46 L-98.47 -44.7 L-101.24 -51.36 L-102.67 -57.54 L-103.94 -64.94 L-105.98 -72.01 L-109.36 -80.18 L-114.14 -83.92 L-115.77 -92.88 L-120.95 -98.04 L-121.15 -101.54 L-123.32 -103.3 L-127.22 -103 L-127.34 -106.12 L-128.83 -106.12 L-131.31 -106.48 L-132.82 -106.87 L-137.61 -105.27 L-143.95 -103.97 L-152.16 -104.24 L-160.28 -103.46 L-164.13 -101.8 L-169.87 -101.53 L-172.13 -102.48 L-175.41 -98.2 L-177.42 -97.58 L-181.02 -94.95 L-182.09 -92.17 L-185.35 -88.81 L-188.32 -88.24 L-188.23 -77.62 L-188.61 -68.85 L-188.5 -57.52 L-191.21 -47.53 L-188.16 -37.21 L-190.8 -29.44 L-189.72 -7.74 L-188.23 11.45 L-185.15 30.75 L-182.8 51.73 L-178.87 72.75 L-177.79 51.39 L-179.7 33.15 L-179.69 10.19 L-175.72 -9.02 L-175.95 -49.98 L-177.07 -69.62 L-176.27 -91.42 L-175.28 -90.94 L-170.21 -90.09 L-167.02 -91.49 L-162.45 -91.55 L-157.19 -91.55 L-149.65 -91.57 L-146.34 -92.85 L-145.75 -91.88 L-142.57 -90.13 L-140.69 -92.34 L-141.18 -88.72 L-138.09 -89.03 L-136.39 -85.8 L-133.52 -81.38 L-129.75 -77 L-125.85 -69.93 L-120.82 -62.62 L-118.63 -51.66 L-116.71 -39.37 L-112.52 -28.59 L-111.41 -20.9 L-106.45 -10.64 L-106.51 -9.82 L-103.73 -9.94 L-101.79 -12.38 L-99.64 -11.88 L-99.33 -14.58 L-97.93 -16.19 L-94.01 -22.26 L-91.9 -24.27 L-88.89 -31.25 L-88.79 -38.3 L-85.78 -40.7 L-82.83 -54.2 L-81.52 -60.45 L-80.82 -66.13 L-79.18 -72.51 L-76.78 -79.65 L-75.47 -84.56 L-74.57 -87.32 L-60.94 -87.56 L-50.45 -91.6 L-38.3 -89.57 L-28.72 -91.18 L-24.81 -91.57 L-26.35 -89.99 L-23.73 -87.57 L-23.84 -85.5 L-21.95 -79.14 L-21.61 -76.16 L-18.47 -74.69 L-20.19 -69.38 L-18.31 -61.59 L-20.12 -57.48 L-16.56 -54.15 L-18.05 -45.75 L-18.4 -41.61 L-18.66 -32.38 L-14.9 -21.64 L-14.58 -7.42 L-15.72 6.67 L-15.14 19.21 L-16.14 23.11 L-16.74 29.58 L-17.27 35.32 L-16.33 38.71 L-18.63 45.7 L-18.91 47.69 L-17.76 51.38 L-17.55 56.69 L-18.27 58.57 L-17.39 60.93 L-27.8 60.12 L-30.7 59.03 L-36.24 59.48 L-39.46 59.38 L-38.51 59.27 L-41.33 56.19 L-40.46 57.25 L-40.95 53.49 L-44.23 49.78 L-44.01 46.67 L-46.08 46.27 L-44.47 38.96 L-44.62 30.88 L-43.94 31.35 L-43.67 28.3 L-44.39 23.82 L-46.08 20.8 L-48.15 16.52 L-48.52 9.18 L-49.02 -2.5 L-48.84 -12 L-50.91 -18.7 L-49.19 -25.29 L-48.33 -25.59 L-50.64 -27.39 L-48.83 -28.17 L-49.7 -25.85 L-50.11 -28.9 L-52.76 -26.48 L-55.05 -25.99 L-54.17 -24.63 L-57.55 -22.6 L-58.01 -21.26 L-61.19 -21.71 L-59.24 -21.11 L-63.58 -16.56 L-68.36 -11.13 L-71.62 -7.76 L-72.03 -3.29 L-76.74 5.38 L-77.32 7.13 L-79.62 20.06 L-85.16 28.98 L-89.96 43.35 L-93.95 53.96 L-96.77 62.78 L-97.14 63.05 L-97.86 66.66 L-101.08 64.58 L-100.2 62.49 L-103.79 62.64 L-103.37 61.7 L-105.37 60.67 L-106.96 58.74 L-110.69 48.2 L-111.66 37.38 L-121.77 17.7 L-124.31 1.33 L-132.52 -17.38 L-132.01 -21.11 L-133.24 -24.5 L-134.68 -22.2 L-132.84 -23.78 L-133.53 -24.94 L-135.91 -22.58 L-137.3 -20.6 L-141.84 -21.34 L-140.06 -18.1 L-143.35 -17.86 L-143.87 -15.4 L-146.38 -11.45 L-148.17 -10.79 L-150.92 -8.38 L-149.45 -0.69 L-152.56 4.09 L-154.34 11.6 L-152.75 16.8 L-153.53 21.85 L-154.03 29.98 L-155.1 35.33 L-156.97 40.9 L-155.15 48.35 L-156.23 55.91 L-153.86 60.27 L-152.53 66.42 L-158.49 66.47 L-158.58 67.35 L-164.04 67 L-170.65 69.94 L-179.19 71.34 L-174.43 72.02 L-167.64 68.91 L-162.1 68.94 L-161.19 68.84 L-156.75 67.78 L-156.71 66.08 L-154.35 66.85 L-152.2 65.88 L-149.95 65.57 L-148.25 60.73 L-148.67 60.48 L-145.51 58.16 L-145.71 53.14 L-146.64 35.53 L-146.38 22.45 L-143.9 12.51 L-135.99 31.02 L-134.51 44.92 L-127.12 65.25 L-124.67 70.13 L-119.75 79.32 L-118.26 80.13 L-119.7 82.72 L-117.64 81.02 L-116.79 81.5 L-115.79 81.09 L-114.19 80.73 L-107.1 79.31 L-107.3 81.91 L-103.01 81.55 L-102.22 78.68 L-96.83 76.51 L-96.04 77.55 L-95.09 73.79 L-88.98 70.63 L-86.91 66.2 L-82.19 65.14 L-80.21 58.79 L-81.14 56.4 L-80.46 56.21 L-79.94 52.73 L-78.36 52.94 L-79.1 49.54 L-78.4 44.48 L-77.3 41.32 L-77.34 39.57 L-75.54 33.11 L-74.73 26.28 L-69.35 17.85 L-69.83 14.06 L-66.48 6.42 L-66.38 4.38 L-61.94 0.32 L-62.76 9.25 L-64.39 21.76 L-61.94 41.84 L-60.44 40.14 L-60.41 44.01 L-62.52 46.73 L-62.24 47.8 L-61.53 53.6 L-60.97 58.86 L-59.41 64.53 L-58.42 66.92 L-57.13 71.43 L-56.89 74.05 L-56.9 74.11 L-58.14 76.13 L-55.22 75.69 L-54.05 76.71 L-50.47 75.86 L-43.87 77.41 L-37.58 75.75 L-28.58 77.53 L-25.83 76.12 L-24.58 77.24 L-19.98 76.5 L-15.7 77.47 L-15.77 73.5 L-12.5 73.66 L-10.31 68.59 L-5.62 68.34 L-2.45 64.67 L-2.51 61.88 L-0.15 62.16 L-2.56 60.15 L-0.36 55.32 L0.63 53.81 L-0.58 54.34 L0.55 46.35 L1.04 38.57 L-0.73 34.81 L-0.98 26.95 L1.6 13.91 L1.71 7.4 L0.09 -0.26 L-0.49 -0.45" stroke="none" stroke-width="0" fill="black" fill-rule="evenodd"/><path d="M0 0 C0 0, 0 0, 0 0 M0 0 C0 0, 0 0, 0 0 M1.62 -1.23 C0.2 -5.8, 0.84 -14.47, -1.85 -19.26 M-0.62 0.39 C-0.66 -7.53, 0.8 -15.56, 0.3 -20.43 M-1.53 -18.09 C0.37 -23.88, 0.49 -31.54, -0.77 -39.63 M-0.49 -19.21 C-0.08 -28.2, 0.04 -34.6, -0.42 -39.47 M0.71 -40.35 C-0.94 -47.11, -3.88 -54.61, -2.65 -58.52 M-0.32 -39.81 C-2.17 -46.98, -1.3 -56.16, -1.35 -59.8 M-1.42 -60.25 C-0.83 -67.19, -1.68 -72.48, -2.74 -81.64 M-2.6 -59.57 C-2.46 -66.52, -3.7 -73.58, -3.9 -79.71 M-3.39 -80.39 C-3.54 -81.59, -3.03 -82.88, -3.22 -86.02 M-3.01 -79.89 C-3.73 -81.88, -3.83 -83.83, -3.93 -85.72 M-3.86 -86.17 C-4.07 -87.61, -4.13 -89.12, -5.03 -91.66 M-4.07 -86.18 C-3.94 -88.13, -4.34 -90.55, -4.18 -92.1 M-4.27 -92.46 C-4.52 -93.2, -5.14 -94.52, -5.18 -95.17 M-4.61 -92.1 C-4.6 -92.97, -4.55 -93.72, -4.9 -95.3 M-5.3 -95.14 C-5.1 -96.44, -5.31 -97.2, -5.88 -98.5 M-5.02 -95.23 C-5.1 -96.1, -5.53 -96.82, -5.75 -98.13 M-5.6 -98.47 C-6.38 -98.94, -6.74 -100.03, -7 -100.97 M-5.85 -98.18 C-6.13 -98.98, -6.48 -100.01, -6.82 -101.01 M-6.74 -101.05 C-7.6 -102.13, -7.62 -102.62, -8.22 -103.5 M-6.9 -100.95 C-7.2 -101.72, -7.69 -102.22, -8.48 -103.83 M-8.26 -103.77 C-8.96 -104.12, -9.51 -104.31, -10.14 -104.58 M-8.35 -103.76 C-8.97 -103.96, -9.47 -104.37, -10.22 -104.72 M-10.34 -104.93 C-10.95 -104.79, -11.29 -105.09, -12.55 -105.46 M-10.24 -104.86 C-11.07 -105.07, -11.78 -105.36, -12.22 -105.53 M-12.19 -105.76 C-13.01 -105.87, -13.89 -105.92, -14.71 -106.15 M-12.39 -105.47 C-13 -105.83, -13.57 -106.01, -14.67 -106.08 M-14.51 -106.26 C-15.22 -106.38, -15.81 -106.19, -17.48 -106.39 M-14.67 -106.11 C-15.7 -106.17, -16.49 -106.46, -17.4 -106.43 M-17.07 -106.7 C-17.86 -106.69, -18.95 -106.71, -20.32 -106.87 M-17.18 -106.63 C-18.03 -106.53, -18.76 -106.51, -20.23 -106.68 M-20.28 -106.59 C-21.1 -106.51, -22.19 -106.67, -23.34 -106.7 M-20.02 -106.68 C-21.09 -106.67, -22.06 -106.55, -23.06 -106.81 M-23.35 -106.14 C-24.49 -106.54, -26.47 -106.41, -28.73 -106.72 M-23.08 -106.64 C-25.23 -106.78, -27.28 -106.7, -29.51 -106.1 M-28.89 -106.6 C-31.06 -106.27, -32.32 -106.18, -35.19 -105.67 M-29.51 -106.17 C-30.58 -106.25, -32.59 -106.33, -35.36 -105.97 M-35.98 -105.24 C-37.72 -105.65, -39.83 -105.51, -41.98 -105.39 M-35.64 -105.92 C-37.55 -105.24, -38.83 -105.46, -41.47 -105.18 M-42.06 -104.84 C-43.55 -104.48, -44.92 -104.21, -47.6 -104.73 M-41.71 -104.76 C-43.08 -104.71, -44.34 -104.67, -47.39 -104.19 M-47.19 -104.04 C-47.87 -104.41, -49.12 -103.88, -49.73 -103.96 M-47.18 -104.19 C-47.88 -104.15, -48.64 -104.11, -49.56 -104.15 M-49.56 -104.27 C-50.39 -103.81, -51.28 -103.96, -51.97 -104.07 M-49.72 -103.99 C-50.56 -103.99, -51.36 -103.86, -51.82 -103.98 M-51.75 -103.61 C-53.3 -103.76, -54.17 -103.82, -54.91 -103.41 M-52.04 -104.01 C-52.64 -103.79, -53.5 -103.73, -55.19 -103.45 M-55.24 -103.68 C-56.28 -103.14, -57.13 -103.29, -58.28 -103.14 M-55.19 -103.48 C-55.77 -103.28, -56.58 -103.4, -58.09 -103.02 M-57.91 -103.11 C-59.32 -102.74, -59.83 -102.78, -60.74 -102.39 M-58.12 -103.1 C-59.02 -102.8, -60.22 -102.57, -60.84 -102.42 M-61.08 -102.4 C-61.65 -102.18, -62.42 -101.88, -63.89 -101.8 M-61.01 -102.51 C-61.77 -102.21, -62.8 -101.73, -63.75 -101.66 M-63.73 -101.61 C-64.57 -101.19, -65.09 -100.77, -66.41 -100.7 M-63.67 -101.49 C-64.46 -101.26, -65.54 -100.86, -66.28 -100.56 M-66.22 -100.51 C-67.05 -100.37, -67.79 -100.05, -68.48 -99.5 M-66.16 -100.52 C-66.61 -100.51, -67.23 -100.3, -68.54 -99.67 M-68.85 -99.92 C-69.04 -99.4, -70.85 -97.97, -72.58 -97.46 M-68.46 -99.38 C-69.64 -98.94, -70.92 -98.11, -72.8 -97.19 M-73.08 -96.94 C-74.17 -96.58, -75.16 -95.05, -76.86 -93.79 M-72.89 -96.95 C-73.72 -96.47, -74.56 -95.75, -76.85 -93.96 M-76.29 -94.38 C-77.02 -93.28, -77.57 -92.31, -79.98 -90.72 M-76.74 -94.27 C-77.8 -92.8, -79.18 -91.78, -79.77 -90.59 M-79.98 -90.44 C-80.9 -90.18, -81.17 -89.43, -82.54 -87.16 M-80.06 -90.62 C-80.92 -89.4, -81.96 -88.13, -82.96 -86.65 M-82.9 -86.44 C-83.14 -85.44, -84.02 -84.78, -85.24 -82.69 M-82.73 -86.83 C-83.43 -85.79, -84.52 -84.35, -85.47 -82.87 M-85.15 -83.19 C-85.89 -81.72, -86.5 -79.35, -87.43 -78.61 M-85.49 -82.58 C-86.1 -81.76, -86.19 -80.47, -87.37 -78.41 M-87.62 -78.16 C-87.51 -77.35, -88.41 -76.63, -89.26 -73.34 M-87.56 -78.54 C-88 -77.22, -88.27 -76.21, -89.39 -73.87 M-89.34 -73.44 C-89.81 -72.91, -90.47 -71.13, -91.14 -68.34 M-89.19 -73.51 C-90.13 -71.95, -90.63 -70.31, -91 -68.6 M-90.78 -69.08 C-91.11 -66.98, -92.01 -65.46, -93.01 -63.44 M-91.27 -68.65 C-91.66 -67.02, -91.94 -65.38, -92.53 -63.84 M-92.02 -64.51 C-92.42 -60.09, -95.29 -55.26, -94.74 -54.02 M-92.09 -63.43 C-93.44 -59.55, -94.71 -55.63, -94.72 -53.85 M-95.99 -53.88 C-96.96 -50.28, -95.91 -46.6, -98.03 -43.25 M-94.81 -53.53 C-96.49 -49.07, -97.22 -45.72, -97.57 -43.24 M-96.98 -42.12 C-99.23 -46.34, -99.14 -48.18, -100.11 -50.05 M-97.67 -43.09 C-98.19 -45.35, -99.28 -46.99, -100.07 -49.81 M-99.77 -50.65 C-101.28 -52.38, -101.79 -55.04, -102.83 -57.51 M-99.55 -50.5 C-100.72 -53.04, -101.87 -55.25, -102.52 -57.27 M-101.52 -58.07 C-102.18 -59.32, -104.08 -60.42, -104.39 -64.86 M-102 -57.56 C-102.63 -59.22, -103.77 -61.06, -105 -64.92 M-104.48 -65.29 C-106.5 -66.69, -106.95 -69.21, -107.04 -71.82 M-104.53 -64.53 C-105.16 -66.21, -105.74 -68.12, -108.01 -72.01 M-107.64 -71.69 C-108.28 -73.4, -108.97 -75.84, -109.96 -78.7 M-107.63 -71.71 C-108.82 -73.39, -109.27 -75.73, -110.31 -78.71 M-110.34 -78.38 C-110.92 -81.75, -112.96 -82.93, -114.34 -85.13 M-110.68 -78.94 C-111.15 -80.71, -112.24 -82.52, -113.65 -85.54 M-114.28 -85.4 C-114.63 -87.28, -116.19 -88.23, -117.76 -91.81 M-113.5 -85.88 C-115.07 -87.05, -115.35 -88.86, -117.5 -92.15 M-117.98 -91.96 C-117.9 -94.8, -120.56 -96.74, -120.88 -99.22 M-117.33 -92.26 C-118.84 -94.76, -120.34 -97.61, -120.74 -99.1 M-120.79 -99.31 C-121.45 -99.9, -122.1 -100.46, -122.6 -101.07 M-121.05 -99 C-121.54 -99.8, -122.15 -100.87, -122.58 -101.43 M-122.88 -101.3 C-122.83 -101.81, -123.47 -102.04, -124.17 -103.33 M-122.71 -101.37 C-122.93 -101.7, -123.39 -102.12, -124.29 -103.07 M-124.29 -103.13 C-124.64 -103.78, -125.5 -104.11, -125.97 -104.32 M-124.4 -103.13 C-124.74 -103.45, -125.05 -103.73, -126.1 -104.63 M-126.1 -104.7 C-126.77 -104.98, -127.23 -105.25, -127.94 -105.65 M-126.04 -104.44 C-126.66 -104.86, -127.22 -105.15, -127.83 -105.64 M-127.78 -105.69 C-128.05 -105.46, -128.43 -105.97, -129.98 -106.02 M-127.88 -105.6 C-128.19 -105.73, -128.64 -105.75, -129.72 -106.13 M-129.65 -106.33 C-130.34 -106.06, -130.91 -106.3, -131.98 -106.65 M-129.9 -106.11 C-130.67 -106.29, -131.54 -106.38, -132.05 -106.57 M-132.23 -106.69 C-132.62 -106.5, -133.46 -106.57, -134.41 -106.6 M-132.03 -106.64 C-132.78 -106.44, -133.34 -106.52, -134.5 -106.49 M-134.45 -106.67 C-134.96 -106.7, -135.99 -106.36, -137.25 -106.24 M-134.46 -106.47 C-135.48 -106.61, -136.38 -106.56, -137.29 -106.28 M-136.99 -107 C-139.25 -105.85, -141.39 -106.1, -144.59 -106.51 M-137.08 -106.41 C-138.7 -106.51, -140.19 -106.04, -144.01 -105.88 M-144.22 -105.47 C-146.4 -105.31, -148.43 -104.92, -151.24 -104.93 M-143.98 -105.97 C-145.65 -106.07, -147.55 -105.87, -151.27 -105.6 M-151.61 -105.13 C-153.11 -104.53, -154.62 -104.31, -158.6 -104.01 M-151.64 -105.61 C-152.98 -105.23, -154.73 -104.8, -158.32 -104.65 M-158.55 -104.5 C-161.73 -104.22, -163.94 -103.52, -165.36 -103.29 M-158.66 -104.77 C-160.29 -104.45, -161.87 -103.49, -165.8 -103.35 M-165.28 -102.93 C-166.44 -103.05, -167.55 -102.19, -169.03 -102.01 M-165.66 -103.2 C-166.52 -102.77, -167.32 -102.48, -169.04 -102.19 M-168.75 -102.38 C-170.26 -101.97, -171.04 -101.75, -172.39 -101.31 M-168.87 -102.17 C-169.91 -101.74, -170.48 -101.49, -172.28 -100.99 M-172.37 -100.84 C-173.61 -100.45, -174.49 -100.28, -175.3 -99.65 M-172.23 -100.98 C-173.09 -100.38, -174.25 -100.13, -175.49 -99.5 M-175.6 -99.66 C-176.08 -99.29, -177.61 -98.18, -178.55 -97.94 M-175.23 -99.57 C-176.08 -99.27, -176.49 -98.84, -178.33 -97.87 M-178.44 -97.53 C-179.52 -96.91, -180.82 -96.02, -181.41 -96.04 M-178.21 -97.85 C-178.99 -97.48, -179.69 -96.69, -181.08 -95.89 M-180.93 -96.04 C-181.83 -95.19, -182.65 -94.15, -183.29 -93.61 M-181.03 -95.83 C-181.99 -94.97, -183.05 -94.22, -183.69 -93.49 M-183.4 -93.67 C-184.72 -92.88, -184.82 -91.9, -186.07 -90.86 M-183.47 -93.37 C-184.69 -92.49, -185.51 -91.41, -186.15 -90.86 M-186.08 -90.61 C-186.76 -89.32, -187.14 -88.81, -188.01 -87.28 M-186 -90.71 C-186.5 -89.48, -187.32 -88.31, -187.88 -87.47 M-187.37 -87.91 C-188.95 -84.3, -188.6 -82.59, -188.5 -77.88 M-187.93 -87.33 C-188.43 -83.24, -189.35 -79.79, -189.11 -78.17 M-189.2 -78.24 C-189.08 -75.34, -190.24 -70.52, -189.48 -68.24 M-188.66 -77.49 C-188.91 -74.08, -189.65 -69.64, -189.45 -67.85 M-190.1 -68.09 C-189.65 -65.07, -190.07 -63.18, -189.47 -58.46 M-190.11 -67.42 C-189.72 -65.72, -189.29 -63.22, -189.95 -58.32 M-189.81 -57.99 C-190.61 -56.06, -190.57 -52.17, -189.51 -48.25 M-189.93 -58.14 C-190.08 -54.73, -190.54 -51.8, -189.91 -47.96 M-191.08 -47.2 C-191.02 -45.43, -189.22 -43.17, -189.85 -38.87 M-190.45 -48.35 C-189.86 -44.61, -190.51 -41.73, -189.77 -37.89 M-190.37 -38.03 C-189.53 -35.38, -189.24 -33.17, -190.61 -27.39 M-189.84 -37.79 C-189.93 -34.88, -189.91 -31.42, -190.19 -28.38 M-191.28 -28.18 C-189.59 -23.81, -187.85 -18.6, -187.03 -6.1 M-188.96 -27.13 C-189.06 -22.13, -188.64 -17.85, -188.67 -8.27 M-188.78 -9.43 C-189.31 -2.73, -187.34 4.39, -188.3 12.76 M-188.68 -7.04 C-187.46 -1.62, -186.88 6.52, -187.1 12.52 M-186.68 13.68 C-185.08 17.69, -185.79 22.01, -183.15 32.77 M-186.46 12.89 C-185.35 18.37, -185.77 23.02, -184.89 32.19 M-185.2 33.98 C-182.17 35.45, -181.96 39.75, -180.65 50.66 M-184.8 32.01 C-183.03 38.22, -182.57 46.8, -180.78 52.29 M-182.83 51.11 C-179.85 59.91, -180.11 67.1, -176.49 72.37 M-181.45 52.18 C-180.42 55.86, -180.35 59.82, -177.59 72.69 M-177.68 70.9 C-179.81 64.98, -178.06 60.38, -177.81 52.87 M-177.81 71.06 C-179.28 64.06, -177.99 57.7, -177.99 51.39 M-180.29 53.25 C-179.42 45.71, -180.22 40.21, -177.75 30.45 M-178.59 51.94 C-178.9 47.26, -177.66 41.85, -178.03 30.68 M-180.19 30.34 C-179.33 23.02, -178.65 18.62, -176.11 10.93 M-179.36 31.92 C-177.62 24.63, -177.83 19.31, -178.67 11.33 M-178.6 10.89 C-178.24 2.45, -178.28 -3.67, -176.81 -9.22 M-178.16 12.06 C-176.93 6.01, -178.13 2.52, -178.24 -8.32 M-177.85 -8.69 C-176.77 -21.52, -178.09 -31.72, -176.74 -47.62 M-177.86 -9.5 C-177.58 -23.84, -175.95 -39.32, -176.19 -49.24 M-178.21 -49.14 C-177.84 -54.49, -175.79 -61.61, -177.49 -67.92 M-175.94 -48.43 C-175.47 -56.57, -176.11 -64.02, -175.78 -69.67 M-177.71 -68.21 C-176.89 -75.74, -177.04 -79.8, -174.96 -89.51 M-175.23 -70.2 C-176.06 -74.85, -176.13 -79.68, -176.62 -88.9 M-176.15 -89.6 C-175.55 -89.72, -174.84 -89.77, -173.92 -89.88 M-176.03 -89.54 C-175.3 -89.68, -174.72 -89.59, -173.95 -89.66 M-173.83 -89.83 C-173.19 -89.87, -172.53 -89.89, -171.63 -89.92 M-174.06 -89.7 C-173.32 -89.79, -172.43 -89.98, -171.92 -90.1 M-171.69 -89.52 C-170.19 -90.24, -168.84 -90.71, -166.41 -91.08 M-171.95 -90.21 C-170.36 -90.06, -168.69 -90.56, -166.94 -90.85 M-166.74 -90.37 C-164.65 -91.37, -162.94 -91.16, -162 -92.09 M-166.73 -90.99 C-165.81 -91.15, -164.69 -90.81, -161.49 -91.52 M-161.1 -92.12 C-159.24 -92.16, -157.02 -91.73, -155.87 -92.68 M-161.61 -91.5 C-159.72 -91.64, -157.36 -92.1, -156.03 -92.56 M-156.39 -92.41 C-153.95 -92.25, -152.84 -92.48, -150.14 -92.5 M-156.01 -92.1 C-154.97 -92.16, -153.83 -92.68, -150.42 -92.76 M-150.28 -92.75 C-149.97 -92.69, -149.16 -92.39, -147.77 -92.5 M-150.38 -92.5 C-149.46 -92.62, -148.8 -92.57, -147.72 -92.62 M-147.76 -92.65 C-147.27 -92.54, -146.43 -92.23, -145.59 -92.37 M-147.69 -92.57 C-147.11 -92.55, -146.55 -92.48, -145.38 -92.37 M-145.43 -92.32 C-144.64 -92.29, -144.29 -92.14, -143.34 -92.13 M-145.44 -92.3 C-144.84 -92.25, -144.36 -92.07, -143.23 -91.99 M-143.21 -91.76 C-142.32 -91.56, -141.57 -91.25, -140.95 -91.46 M-143.11 -91.99 C-142.69 -91.85, -142.21 -91.58, -141.13 -91.21 M-140.94 -91.39 C-140.87 -90.87, -140.13 -90.99, -139.5 -90.35 M-141.21 -91.23 C-140.67 -90.93, -139.94 -90.59, -139.32 -90.42 M-139.3 -90.16 C-138.77 -90.05, -138.25 -89.24, -138.04 -88.99 M-139.31 -90.33 C-138.82 -89.87, -138.33 -89.5, -138.01 -89.06 M-137.79 -89.14 C-137.13 -87.66, -137.15 -87.64, -135.49 -84.39 M-137.82 -89.05 C-137.43 -87.9, -136.34 -86.64, -134.89 -84.48 M-134.49 -84.94 C-134.6 -83.08, -133.92 -82.22, -132.43 -79.73 M-135.16 -84.56 C-134.2 -82.99, -132.72 -81.27, -132.19 -80.26 M-131.99 -80.46 C-131.87 -78.86, -130.58 -77.46, -129.27 -75.33 M-132.11 -80.17 C-131.63 -78.45, -130.54 -76.97, -129.4 -75.55 M-129.61 -75.76 C-128.93 -73.83, -127.95 -72.44, -126.9 -71.01 M-129.58 -75.43 C-128.61 -74.02, -128.2 -72.58, -127.34 -70.5 M-127.97 -71.34 C-126.46 -68.15, -124.45 -63.44, -123.11 -61.35 M-127.04 -70.26 C-125.68 -67.59, -124.2 -64.27, -122.19 -61.09 M-123.15 -59.91 C-121.45 -56.85, -120.02 -51.74, -118.57 -49.51 M-122.88 -60.18 C-121.58 -57.63, -120.88 -55.01, -119.26 -50.14 M-119.56 -50.3 C-116.57 -46.79, -115.53 -43.45, -116.44 -39.66 M-118.97 -50.22 C-118.08 -46.69, -116.99 -43.74, -115.88 -39.45 M-116.43 -40.8 C-115.39 -36.25, -112.63 -31.28, -113.39 -28.78 M-115.43 -39.61 C-114.78 -36.74, -113.8 -33.16, -112.74 -29.89 M-113.38 -29.02 C-111.79 -25.4, -110.4 -23.22, -108.93 -18.44 M-112.43 -29.11 C-111.54 -26.79, -111.56 -24.96, -109.87 -18.54 M-109.08 -18.73 C-108.71 -14.97, -107.76 -13.42, -108.17 -8.47 M-110.27 -19.11 C-109.19 -14.94, -108.7 -11.78, -107.94 -8.76 M-107.73 -8.91 C-106.99 -9.28, -106.35 -9.36, -105.5 -9.71 M-107.58 -8.87 C-107.16 -8.98, -106.61 -9.09, -105.45 -9.52 M-105.51 -9.42 C-105.05 -9.64, -104.4 -10.31, -103.28 -10.56 M-105.49 -9.54 C-104.78 -9.89, -104.22 -10.13, -103.44 -10.49 M-103.45 -10.72 C-103.29 -10.55, -102.65 -11.03, -101.65 -11.53 M-103.58 -10.47 C-103.03 -10.88, -102.43 -11.25, -101.5 -11.84 M-101.51 -11.71 C-101.18 -12.12, -100.99 -12.52, -99.87 -13.23 M-101.55 -11.78 C-101.26 -12.07, -100.77 -12.33, -99.75 -13.24 M-99.8 -13.34 C-99.46 -13.81, -98.6 -14.31, -98.25 -14.92 M-99.74 -13.24 C-99.13 -13.87, -98.52 -14.46, -98.18 -14.73 M-98.21 -14.64 C-97.58 -15.37, -97.34 -16.18, -96.5 -16.87 M-98.09 -14.78 C-97.74 -15.33, -97.39 -15.8, -96.66 -16.55 M-96.67 -16.3 C-95.6 -17.47, -94.58 -19.2, -94.12 -20.55 M-96.62 -16.58 C-95.76 -17.44, -95.14 -18.56, -93.93 -21.04 M-93.54 -21.18 C-92.37 -21.98, -92.02 -23.62, -90.82 -26.05 M-93.74 -20.67 C-93.5 -21.76, -92.61 -22.63, -91.38 -25.61 M-91.24 -25.42 C-91.07 -27.48, -89.67 -28.54, -89.14 -30.37 M-90.95 -25.4 C-90.47 -27.43, -89.72 -28.88, -88.99 -30.95 M-89.31 -30.55 C-88 -32.31, -87.71 -32.99, -87.52 -36.52 M-88.63 -30.87 C-88.34 -32.13, -87.97 -33.73, -86.78 -36.41 M-86.38 -36.67 C-86.77 -38.97, -85.28 -41.34, -84.61 -41.85 M-87.14 -36.31 C-86.73 -38.62, -85.77 -40.1, -84.92 -42.23 M-86.03 -41.95 C-84.5 -46.78, -82.79 -52.69, -82.42 -54.72 M-84.82 -42.85 C-84.39 -46.03, -82.85 -49.57, -81.56 -54.9 M-82.43 -55.3 C-81.91 -56.52, -81.86 -57.25, -80.75 -60.38 M-81.84 -54.66 C-81.93 -56.67, -81.29 -58.35, -80.79 -60.96 M-81 -60.58 C-80.07 -62.78, -80.16 -63.75, -79.99 -66.79 M-80.79 -60.73 C-80.48 -62.28, -80.18 -64.07, -79.64 -66.94 M-79.23 -66.37 C-78.6 -68.03, -78.37 -69.68, -78.73 -72.79 M-79.43 -67.02 C-78.82 -68.6, -78.67 -70.85, -78.43 -72.3 M-77.84 -72.7 C-77.69 -73.71, -77.6 -75.83, -77.16 -78.15 M-77.98 -72.56 C-77.82 -74.61, -76.99 -76.53, -76.69 -77.95 M-76.75 -77.95 C-76.76 -79.24, -75.87 -80.99, -75.95 -82.6 M-77.07 -77.87 C-76.18 -79.67, -75.83 -81.65, -75.74 -82.83 M-75.58 -82.46 C-74.91 -83.63, -74.75 -84.6, -74.44 -86.92 M-75.7 -82.8 C-75.31 -83.94, -74.74 -84.67, -73.89 -86.61 M-74.23 -87.65 C-72.37 -86.57, -69.46 -88.4, -62.2 -88.05 M-74.11 -87.08 C-70.4 -87.49, -68.14 -87.95, -62.11 -89.05 M-62.79 -88.17 C-59.27 -89.08, -58.25 -88.83, -50.38 -90.43 M-62.57 -89.1 C-58.79 -89.84, -53.48 -89.45, -51.49 -90.07 M-51.09 -90.54 C-47.14 -89.47, -41.52 -90.01, -39.52 -89.44 M-51.39 -89.41 C-47.51 -89.56, -42.81 -90.5, -39.45 -91.08 M-39.3 -91.18 C-36.88 -89.48, -35.07 -91.14, -27.65 -91.14 M-39.15 -90.43 C-35.59 -90.46, -32.56 -90.06, -28.36 -90.73 M-27.92 -90.53 C-27.4 -90.39, -27.24 -90.25, -26.36 -89.83 M-27.8 -90.64 C-27.43 -90.42, -27.15 -90.23, -26.33 -89.84 M-26.51 -89.87 C-26.15 -89.67, -25.77 -89.41, -24.95 -88.33 M-26.36 -89.83 C-26.02 -89.63, -25.7 -89.1, -24.95 -88.43 M-24.8 -88.57 C-24.64 -87.78, -23.91 -87.17, -23.85 -86.53 M-24.95 -88.41 C-24.65 -87.95, -24.19 -87.3, -23.75 -86.49 M-23.58 -86.19 C-23.8 -85.91, -23.3 -85.05, -22.79 -84.05 M-23.7 -86.35 C-23.46 -85.65, -23.15 -84.94, -22.67 -83.79 M-22.88 -83.9 C-22.16 -82.35, -22.16 -81.52, -21.83 -80.37 M-22.7 -83.92 C-22.4 -83.01, -22.35 -82.33, -21.83 -80.54 M-21.94 -80.84 C-21.41 -79.1, -21.35 -77.43, -20.57 -76.68 M-21.87 -80.45 C-21.47 -79.94, -21.38 -78.81, -20.66 -76.92 M-20.85 -76.65 C-20.43 -75.5, -20.52 -74.69, -19.73 -73.01 M-20.94 -76.92 C-20.39 -75.37, -20.36 -74.33, -20.01 -72.6 M-19.68 -72.31 C-20.17 -71.87, -19.89 -70.88, -19.42 -68.24 M-19.94 -72.89 C-20.07 -71.48, -19.46 -70.16, -19.44 -68.13 M-19.73 -67.84 C-19.36 -67.4, -19.31 -66.51, -19.02 -62.87 M-19.46 -68.42 C-18.97 -66.8, -18.94 -64.96, -18.51 -63.43 M-18.98 -63.04 C-19.08 -62.35, -18.31 -60.81, -18.34 -57.92 M-18.76 -63.41 C-18.5 -61.53, -18.29 -59.26, -18.04 -57.76 M-18.05 -57.61 C-18.4 -56.48, -18.5 -55.14, -18.28 -52.78 M-18.19 -57.75 C-18.16 -56.47, -18.15 -54.35, -17.79 -52.53 M-18.07 -52.53 C-17.26 -50.52, -16.96 -48.21, -17.94 -46.16 M-17.89 -52.19 C-17.92 -50.97, -17.74 -49.94, -17.41 -46.18 M-17.31 -46.84 C-17.19 -45.43, -16.94 -44.53, -17.04 -39.85 M-17.2 -46.18 C-17.13 -43.67, -16.99 -41.65, -17.1 -40.47 M-17.5 -40.03 C-17.47 -39.09, -16.92 -37.19, -16.58 -34.5 M-17.12 -40.42 C-16.85 -38.21, -16.94 -36.05, -16.61 -33.74 M-17.16 -33.18 C-17.62 -31.24, -16.58 -25.75, -16.8 -22.3 M-16.81 -34.03 C-16.75 -29.36, -16.47 -24.95, -16.32 -21.24 M-15.38 -21.1 C-15.19 -15.54, -16.35 -9.9, -15.76 -9.32 M-16.73 -21.58 C-16.97 -15.99, -16.01 -10.78, -16.54 -8.67 M-16.05 -7.03 C-15.45 -3.49, -17.15 0.88, -15.48 3.82 M-15.9 -7.56 C-17.04 -4.75, -16.6 -2.49, -15.91 5.58 M-15.22 6.13 C-17.72 9.59, -17.25 12.64, -16.55 18.22 M-16.15 5.24 C-15.99 7.99, -16.57 11.1, -16.96 16.83 M-16.08 17.56 C-16.34 19.12, -16.98 20.89, -16.4 23.01 M-16.32 17.22 C-16.52 18.82, -16.33 20.29, -16.75 23.62 M-16.94 23.01 C-16.99 25.7, -16.39 27.15, -16.88 28.86 M-16.63 23.21 C-16.47 24.8, -16.33 26.32, -16.39 29.42 M-16.57 29.13 C-16.63 30.91, -17 33.41, -17.28 34.34 M-16.44 29.13 C-16.37 30.57, -16.72 31.78, -17.03 34.51 M-17.25 34.88 C-17.08 35.95, -16.88 37.06, -16.75 39.49 M-16.7 34.81 C-16.61 36.31, -16.98 38.21, -16.87 39.94 M-16.92 39.54 C-16.99 41.55, -16.68 42.2, -16.7 44.08 M-16.79 39.54 C-16.77 41.44, -17.16 43.5, -16.78 44.44 M-17 44.37 C-17.39 45.9, -17.1 46.49, -16.79 48.45 M-16.85 44.34 C-16.91 46.16, -17.05 47.64, -16.84 49 M-16.66 48.49 C-17.15 50.26, -16.87 51.74, -17.37 53.14 M-17.18 48.75 C-17.07 49.64, -17.06 50.62, -17.07 52.72 M-16.8 52.5 C-17.13 53.87, -17.41 54.79, -17.31 56.51 M-17.15 52.74 C-17 53.62, -17.03 54.3, -17.16 56.3 M-16.96 56.42 C-17.28 57.2, -17.19 57.74, -16.88 58.88 M-17.23 56.08 C-17.27 57.09, -17.1 57.98, -17.26 59.02 M-17.18 58.86 C-17.15 59.56, -17.09 60.26, -17.17 61.48 M-17.19 59.17 C-17.21 59.78, -17.24 60.31, -17.08 61.26 M-17.03 61.23 C-19.74 61.79, -20.63 60.68, -27.03 60.84 M-17.25 61.02 C-20.53 60.65, -23.77 60.91, -26.76 60.89 M-27.09 61.05 C-28.59 60.34, -30.92 60.33, -31.82 60.14 M-26.98 60.6 C-28.65 60.71, -30.16 60.42, -32.17 60.39 M-31.73 60.15 C-34.15 60.36, -35.84 60.75, -36.82 60.63 M-32.26 60.36 C-33.3 60.24, -35.12 60.33, -37.14 60.32 M-37.13 60.19 C-37.38 60.14, -37.78 60.17, -38.56 60 M-36.93 60.4 C-37.54 60.2, -37.99 60.05, -38.64 59.94 M-38.69 59.92 C-39.09 59.7, -39.34 59.27, -39.92 58.92 M-38.65 59.95 C-39.13 59.68, -39.52 59.33, -40.09 58.96 M-39.89 59.09 C-40.39 58.4, -40.72 57.81, -41.02 57.43 M-40.03 59.12 C-40.33 58.63, -40.48 58.34, -41.19 57.6 M-41.05 57.72 C-41.3 57.07, -41.39 56.6, -41.98 55.81 M-41.21 57.52 C-41.37 56.81, -41.7 56.31, -42.12 55.69 M-41.96 55.78 C-42 55.45, -42.44 54.9, -42.76 53.36 M-42.17 55.82 C-42.15 55.11, -42.49 54.41, -42.84 53.43 M-42.7 53.22 C-43.1 52.67, -43.14 51.16, -43.22 50.84 M-42.7 53.37 C-43.08 52.4, -43.14 51.45, -43.22 50.79 M-43.47 50.98 C-43.51 50.14, -43.64 49.25, -43.86 47.86 M-43.26 50.89 C-43.49 50.36, -43.45 49.61, -43.63 47.91 M-43.58 48.22 C-44.03 47.17, -44.09 46.28, -43.87 45.21 M-43.75 48.15 C-44.03 46.92, -43.93 46.04, -44.01 45 M-43.91 44.57 C-43.61 42.46, -44.74 40.35, -44.12 38.9 M-43.83 45.33 C-44.05 43.82, -44.43 42.23, -44.45 38.75 M-43.95 39.1 C-44.42 35.76, -44.2 34.41, -44.89 31.84 M-44.51 38.64 C-44.82 36.06, -44.54 33.69, -44.98 32.38 M-44.92 32.15 C-44.79 31.11, -44.98 29.84, -45.08 29.14 M-44.73 32.52 C-44.88 31.56, -44.85 30.72, -45.18 29.31 M-44.9 29.25 C-45.08 28.47, -45.47 27.54, -45.32 26.5 M-45.09 29.33 C-45.18 28.54, -45.22 27.74, -45.32 26.63 M-45.22 26.55 C-45.32 25.86, -45.52 24.92, -45.46 24.28 M-45.29 26.65 C-45.4 25.55, -45.65 24.69, -45.76 23.97 M-45.85 24.02 C-45.81 23.38, -45.74 22.54, -46.17 21.75 M-45.62 24.12 C-45.8 23.51, -45.81 23.16, -46.11 21.8 M-46.63 22.03 C-45.87 20.25, -46.19 17.82, -46.79 15.12 M-45.9 21.54 C-46.21 19.55, -46.55 17.39, -46.62 15.78 M-46.85 16.19 C-47.48 13.88, -46.79 12.55, -47.05 9.84 M-46.91 15.65 C-47.41 13.85, -47.62 11.67, -47.59 9.93 M-47.08 8.98 C-48.58 6.4, -48.25 1.92, -49.47 -2.21 M-47.26 9.43 C-48.42 5.88, -48.53 1.25, -48.44 -1.41 M-47.69 -1.76 C-47.83 -3.41, -49.97 -6.91, -48.47 -13.76 M-48.45 -1.75 C-49 -4.28, -49.71 -7.14, -49.44 -13.28 M-49.62 -12.76 C-48.95 -14.81, -49.44 -16.36, -49.63 -19.71 M-49.72 -13.57 C-49.48 -14.42, -49.37 -15.73, -49.42 -19.45 M-49.81 -19.43 C-48.8 -21.14, -49.85 -23.47, -49.75 -25.24 M-49.55 -19.11 C-49.68 -21.15, -49.39 -22.92, -49.53 -25.09 M-49.36 -25.15 C-49.21 -25.55, -49.26 -25.75, -49.39 -26.23 M-49.31 -25.18 C-49.28 -25.65, -49.37 -25.97, -49.38 -26.26 M-49.49 -26.26 C-49.53 -26.6, -49.59 -26.88, -49.81 -26.92 M-49.41 -26.3 C-49.5 -26.45, -49.59 -26.62, -49.75 -26.94 M-49.73 -26.99 C-49.91 -27.11, -50.09 -27.29, -50.2 -27.34 M-49.71 -26.97 C-49.89 -27.08, -50.05 -27.2, -50.21 -27.39 M-50.26 -27.36 C-50.38 -27.44, -50.61 -27.54, -50.82 -27.51 M-50.23 -27.39 C-50.46 -27.41, -50.69 -27.48, -50.84 -27.54 M-50.91 -27.51 C-51.13 -27.56, -51.45 -27.5, -51.64 -27.44 M-50.84 -27.55 C-51.11 -27.54, -51.35 -27.53, -51.57 -27.47 M-51.56 -27.46 C-51.83 -27.4, -52.21 -27.29, -52.36 -27.21 M-51.55 -27.5 C-51.89 -27.41, -52.13 -27.25, -52.4 -27.16 M-52.47 -27.03 C-52.97 -26.73, -53.41 -26.57, -54.15 -26.37 M-52.38 -27.26 C-52.97 -27.05, -53.44 -26.7, -54.29 -26.23 M-54.37 -26.41 C-54.8 -25.7, -54.91 -25.62, -56.26 -24.68 M-54.2 -26.18 C-54.65 -25.95, -54.98 -25.59, -56.03 -24.84 M-56.1 -24.76 C-56.26 -24.68, -57 -24.24, -58.14 -23.27 M-56.12 -24.85 C-56.74 -24.3, -57.23 -23.9, -57.82 -23.26 M-57.83 -23.34 C-58.4 -23.14, -58.41 -22.68, -59.37 -21.99 M-57.83 -23.35 C-58.47 -22.72, -59.06 -22.29, -59.36 -21.92 M-59.4 -21.99 C-59.56 -21.85, -59.81 -21.57, -59.92 -21.38 M-59.43 -21.94 C-59.48 -21.86, -59.67 -21.73, -60.01 -21.39 M-60.02 -21.47 C-60.06 -21.32, -60.11 -21.26, -60.35 -20.99 M-59.95 -21.46 C-60.07 -21.36, -60.12 -21.29, -60.42 -21.05 M-60.48 -21.24 C-61.58 -19.46, -62.28 -18.94, -63.36 -16.24 M-60.41 -21.28 C-61.61 -19.44, -62.57 -18.12, -63.59 -16.53 M-64.08 -16.01 C-64.96 -15.42, -65.75 -13.99, -66.36 -11.15 M-63.82 -16.65 C-64.65 -15.19, -65.68 -13.65, -66.69 -11.83 M-67.23 -11.84 C-68.08 -9.53, -69.16 -7.98, -69.46 -7.09 M-66.57 -11.49 C-67.78 -9.96, -68.58 -8.71, -69.67 -6.9 M-69.17 -6.73 C-70.73 -5.76, -70.53 -4.48, -72.31 -1.36 M-69.56 -6.92 C-70.61 -5.23, -71.17 -3.44, -72.57 -1.73 M-71.93 -2.01 C-72.42 -0.89, -73.99 0.31, -75.2 3.84 M-72.11 -1.55 C-73.07 -0.09, -74.14 1.93, -75.2 3.28 M-75.1 3.23 C-74.91 4.37, -75.46 6, -77.15 9.21 M-74.94 3.72 C-75.62 5.35, -76.8 7.5, -77.25 8.79 M-77.15 8.19 C-79.05 12.36, -80.15 16.13, -82.19 20.73 M-77.34 9 C-78.73 13.16, -80.49 17.01, -81.73 19.36 M-82.08 19.52 C-82.27 22.62, -82.74 25.68, -86.23 30.55 M-81.57 19.82 C-82.73 23.56, -84.34 27.85, -84.86 30.77 M-85.53 30.92 C-86.27 34.38, -87.21 38.79, -89.05 41.98 M-85.59 31.47 C-86.45 35.05, -87.58 38.66, -88.82 42.63 M-88.28 42.35 C-88.99 44.77, -91.18 46.45, -91.27 53.12 M-88.71 42.64 C-89.91 43.94, -90.1 46.68, -91.64 52.92 M-92.28 54.18 C-93.96 56.99, -93.23 58.57, -94.92 63.86 M-91.63 53.54 C-92.63 56.61, -94.47 59.73, -95.49 64.49 M-94.97 64.1 C-95.7 64.09, -96.45 64.25, -97.33 64.82 M-95.13 64.04 C-95.92 64.18, -97.07 64.41, -97.4 64.55 M-97.4 64.44 C-98.13 64.58, -98.48 64.66, -99.42 64.58 M-97.5 64.61 C-98.01 64.67, -98.62 64.57, -99.4 64.72 M-99.54 64.84 C-99.96 64.71, -100.69 64.44, -100.84 64.35 M-99.4 64.72 C-99.91 64.68, -100.32 64.52, -100.89 64.4 M-100.97 64.38 C-101.17 64.33, -101.39 64.05, -102.29 63.56 M-100.89 64.4 C-101.22 64.32, -101.5 64.16, -102.22 63.63 M-102.3 63.64 C-102.62 63.26, -103.04 62.94, -103.29 62.67 M-102.13 63.6 C-102.51 63.2, -102.94 62.78, -103.22 62.49 M-103.07 62.67 C-103.5 62, -103.9 61.45, -104.18 60.92 M-103.22 62.62 C-103.58 62.03, -103.8 61.34, -104.05 61.07 M-104.04 61.2 C-104.13 60.55, -104.53 59.93, -104.99 59.28 M-104.1 61.14 C-104.32 60.52, -104.45 60.08, -105.01 59.33 M-104.77 59.14 C-105.12 58.53, -105.54 57.95, -105.85 57.34 M-104.92 59.36 C-105.05 58.74, -105.34 58.4, -105.84 57.21 M-105.69 57.81 C-105.98 55.38, -108.4 52.48, -109.25 48.76 M-105.68 57.16 C-107.45 54.26, -108.51 50.49, -109.19 47.39 M-108.99 46.82 C-111.1 43.6, -112.32 42.37, -114.25 39.14 M-110.09 48.26 C-110.84 45.62, -110.92 43.84, -113.5 38.37 M-114.29 38.61 C-117.5 32.77, -116.05 27.55, -121.86 20.17 M-114.25 39.19 C-114.31 34.71, -117.46 28.48, -119.14 20.14 M-118.64 19.55 C-122.42 13.18, -122.28 10.67, -125.74 0.03 M-119.54 18.83 C-122.45 11.09, -124.1 5.08, -125.24 -0.16 M-125.74 -0.93 C-129.26 -9.62, -133 -14.49, -132.01 -17.45 M-126.73 0.5 C-127.52 -4.7, -128.3 -7.87, -131.4 -18.88 M-132.33 -19.13 C-132.4 -19.49, -132.5 -19.94, -132.83 -21.01 M-132.29 -19.27 C-132.29 -19.67, -132.47 -19.98, -132.73 -20.9 M-132.62 -21.01 C-132.86 -21.71, -133.21 -22.45, -133.37 -22.73 M-132.63 -20.94 C-132.95 -21.53, -133 -22.1, -133.25 -22.8 M-133.27 -22.74 C-133.35 -23.02, -133.4 -23.14, -133.57 -23.43 M-133.19 -22.75 C-133.39 -23.01, -133.46 -23.21, -133.62 -23.42 M-133.55 -23.4 C-133.82 -23.58, -134.02 -23.66, -134.08 -23.87 M-133.59 -23.43 C-133.82 -23.61, -133.96 -23.75, -134.13 -23.86 M-134.09 -23.87 C-134.35 -23.79, -134.56 -23.93, -134.82 -23.82 M-134.11 -23.86 C-134.34 -23.82, -134.63 -23.84, -134.89 -23.91 M-134.8 -23.95 C-135.1 -23.85, -135.45 -23.72, -135.83 -23.49 M-134.93 -23.83 C-135.24 -23.68, -135.71 -23.58, -135.9 -23.49 M-135.92 -23.63 C-136.52 -23.15, -137.8 -22.58, -138.35 -22.41 M-135.84 -23.44 C-136.51 -23.21, -137.11 -22.76, -138.12 -22.12 M-138.28 -21.97 C-138.78 -21.57, -139.37 -21.14, -140.31 -20.94 M-138.11 -22.13 C-138.66 -21.88, -139.26 -21.48, -140.22 -20.85 M-140.14 -20.95 C-140.73 -20.21, -141.26 -19.71, -141.87 -18.98 M-140.15 -20.79 C-140.76 -20.16, -141.67 -19.54, -141.97 -19.02 M-141.93 -19.04 C-142.41 -18.6, -143.05 -18.12, -143.58 -17.31 M-142.11 -18.95 C-142.38 -18.72, -142.68 -18.28, -143.68 -17.15 M-143.49 -17.03 C-144.2 -16.69, -144.29 -16.11, -145.42 -15.17 M-143.87 -17.15 C-144.31 -16.74, -144.62 -16.07, -145.25 -15.25 M-145.23 -15.09 C-145.42 -14.74, -145.76 -14.37, -146.97 -12.91 M-145.32 -15.23 C-145.68 -14.47, -146.21 -13.87, -146.7 -12.92 M-146.77 -12.8 C-147.41 -12.36, -147.49 -11.59, -148.05 -10.52 M-146.7 -12.96 C-147.15 -12.16, -147.32 -11.63, -147.94 -10.47 M-148.15 -10.27 C-148.29 -9.8, -148.38 -9.51, -148.99 -7.67 M-148.05 -10.62 C-148.55 -9.49, -148.96 -8.46, -149.13 -7.99 M-149.77 -7.57 C-150.19 -7, -149.57 -5.48, -151.24 -2.95 M-149.46 -8.12 C-149.32 -6.81, -150.16 -5.36, -151.46 -2.19 M-150.77 -2.24 C-151.25 -1.4, -151.52 0.23, -152.52 4 M-150.9 -2.35 C-151.81 -0.77, -151.99 1.31, -153.03 3.17 M-153.07 3.03 C-152.69 5.93, -153.62 8.57, -154.3 10.21 M-152.49 3.38 C-153.25 4.64, -153.35 5.98, -153.61 9.98 M-153.95 9.46 C-154.22 12.08, -154.27 13.13, -154.98 15.72 M-153.91 9.95 C-154.11 11.99, -154.45 14.78, -154.68 16.24 M-155.07 15.94 C-154.34 18.74, -155.35 20.62, -154.94 23.04 M-154.92 16.5 C-154.91 18.26, -155.05 20.51, -154.89 22.54 M-155.37 22.65 C-154.65 24.57, -154.84 27.64, -155.92 28.91 M-155.43 22.79 C-155.28 24.13, -155.23 26.05, -155.33 29.45 M-155.38 29.58 C-155.04 32.35, -155.9 33.9, -154.75 35.95 M-155.06 29.61 C-155.63 31.62, -155.2 33.23, -155.66 35.83 M-155.06 36.33 C-155.81 38.1, -155.41 40.6, -155.75 43.16 M-155.17 35.96 C-155.07 37.96, -155.44 40.13, -154.95 42.68 M-155.52 41.96 C-154.82 43.92, -154.54 44.53, -155.32 48.51 M-155 42.71 C-155.1 44.27, -155.26 46.66, -155.02 48.85 M-154.44 48.5 C-155.03 50.72, -155.39 51.4, -154.35 54.99 M-155.02 48.58 C-154.7 50.21, -155.01 52.15, -154.66 54.24 M-155.02 54.51 C-154.28 55.79, -154.15 57.58, -154.36 59.32 M-154.6 54.29 C-154.44 55.88, -154.44 56.83, -154.29 59.93 M-154.56 59.92 C-153.92 61.7, -153.94 63.42, -154.46 64.67 M-154.42 59.77 C-154.31 61.19, -154.13 62.6, -154.09 64.57 M-154.12 64.59 C-155.01 65.1, -155.45 65.37, -156.62 65.34 M-154.16 64.68 C-154.67 64.8, -155.3 64.95, -156.72 65.62 M-156.57 65.29 C-157.44 65.86, -158.53 65.86, -159.72 66.37 M-156.77 65.55 C-157.78 65.73, -158.83 66.15, -159.56 66.44 M-159.7 66.35 C-161.97 67.25, -164.4 67, -165.64 67.95 M-159.77 66.11 C-161.08 66.7, -162.74 66.95, -165.63 67.79 M-165.84 67.68 C-168.13 68.47, -170.03 67.99, -170.91 69.28 M-165.62 67.78 C-167.46 67.82, -169.95 68.14, -171.32 68.53 M-171.11 68.55 C-173.37 69.6, -174.47 70, -177.32 70.74 M-171.16 69.04 C-173.52 69.09, -175.96 69.65, -176.93 70.11 M-177.1 70.62 C-176.32 70.24, -174.88 69.92, -172.86 70.41 M-177.38 70.36 C-175.27 70.08, -173.65 70.19, -172.44 70.47 M-172.03 70.51 C-171.25 69.81, -170.06 69.78, -167.04 69.91 M-172.46 70.17 C-170.57 70.02, -168.8 69.92, -167.59 70.14 M-167.64 70.3 C-165.87 69.94, -164.12 70.05, -161.97 69.64 M-167.54 69.92 C-165.42 69.9, -163.89 69.63, -162.35 69.74 M-162.55 69.61 C-162 69.43, -161.28 69.43, -160.15 69.12 M-162.29 69.72 C-161.61 69.49, -160.98 69.49, -159.98 69.33 M-159.86 69.49 C-159.55 69, -158.56 68.88, -157.41 68.73 M-159.84 69.39 C-159.11 68.99, -158.58 68.95, -157.74 68.69 M-157.74 68.5 C-157.09 68.49, -156.85 68.18, -155.6 67.98 M-157.71 68.66 C-156.93 68.36, -156.22 68.25, -155.44 67.75 M-155.59 67.93 C-154.9 67.51, -154.07 66.95, -153.55 66.79 M-155.34 67.95 C-154.63 67.55, -153.95 67.17, -153.47 66.79 M-153.49 66.74 C-152.9 66.49, -152.79 66.41, -151.75 65.36 M-153.42 66.84 C-152.8 66.52, -152.35 66.01, -151.69 65.49 M-151.84 65.64 C-151.25 64.98, -150.75 64.31, -150.16 64.06 M-151.58 65.62 C-151.19 65.07, -150.89 64.69, -150.15 63.97 M-150.21 63.95 C-149.96 63.48, -149.29 62.66, -148.81 62.12 M-150.05 64.04 C-149.79 63.54, -149.67 63.25, -148.92 62.06 M-148.75 62.05 C-148.79 61.73, -148.26 61.18, -147.97 60.17 M-149.02 62.18 C-148.74 61.59, -148.45 61.11, -148.09 59.86 M-148.04 60.16 C-147.8 59.42, -147.8 58.43, -147.41 57.47 M-147.94 59.9 C-147.72 59.18, -147.63 58.3, -147.36 57.48 M-147.26 57.62 C-147.22 56.46, -147.31 55.81, -147.48 54.62 M-147.49 57.46 C-147.57 56.37, -147.34 55.16, -147.26 54.41 M-147.55 56.4 C-147.99 50.39, -144.64 44.91, -146.26 33.23 M-147.79 54.24 C-147.18 50.12, -145.81 43.94, -144.67 34.72 M-145.35 32.88 C-145.96 29.97, -144.83 24.8, -144.12 24.64 M-145.12 34.27 C-145.41 31.9, -145.5 28.92, -144.15 23.15 M-144.11 23.61 C-143.8 22.53, -144.74 18.93, -144 13.74 M-144.3 23.43 C-143.81 21.48, -144.16 19.36, -143.5 13.36 M-143 13.81 C-141.17 16.92, -141.06 21.17, -137.99 30.24 M-143.84 12.9 C-141.23 19.13, -139.3 23.88, -138.73 29.62 M-139.49 28.58 C-134.88 37.19, -133.49 42.97, -134.08 48.25 M-137.67 29.34 C-136.29 34.95, -134.5 39.18, -132.07 46.47 M-134.18 47.97 C-130.62 51.25, -130.38 54.25, -126.02 64.95 M-131.7 47.56 C-130.57 53.21, -128.19 57.12, -127.45 62.76 M-126.32 62.67 C-126.52 65.33, -124.47 68.22, -123.35 71.8 M-126.67 63.13 C-125.88 65.26, -125.47 67.74, -123.9 71.52 M-123.39 72.43 C-122.57 74.15, -122.25 74.89, -120.82 79.64 M-123.45 71.22 C-122.57 74.83, -121.45 77.87, -120.3 79.75 M-120.18 79.73 C-119.99 80.02, -119.72 80.38, -119.64 80.62 M-120.21 79.72 C-119.98 80.07, -119.79 80.38, -119.58 80.63 M-119.49 80.64 C-119.3 80.8, -119.12 81.09, -118.68 81.21 M-119.61 80.64 C-119.22 80.83, -118.93 81.06, -118.8 81.32 M-118.78 81.27 C-118.67 81.47, -118.29 81.59, -117.82 81.8 M-118.78 81.31 C-118.54 81.44, -118.25 81.58, -117.88 81.72 M-117.97 81.79 C-117.58 81.88, -117.25 81.99, -116.88 82.1 M-117.92 81.73 C-117.64 81.81, -117.44 81.91, -116.96 82.1 M-116.86 81.93 C-116.05 82.09, -115.36 82.13, -115 82.18 M-116.89 82.14 C-116.26 82.03, -115.71 82.19, -114.81 82.26 M-115.05 82.01 C-114.19 82.32, -113.61 82.07, -112.82 82.01 M-114.81 82.22 C-114.08 82.04, -113.41 82.11, -112.61 81.81 M-112.21 81.61 C-111.04 81.65, -109.28 80.92, -108.09 80.27 M-112.55 81.9 C-110.83 81.28, -109.12 81.16, -107.93 80.68 M-108.12 80.53 C-107.62 80.7, -107.01 80.17, -105.88 79.97 M-108.03 80.56 C-107.25 80.51, -106.47 80.15, -105.7 79.97 M-105.99 80.02 C-105.21 80.1, -104.31 79.79, -103.63 79.66 M-105.71 80.07 C-105.26 80.05, -104.97 79.81, -103.87 79.68 M-104.04 79.72 C-103.14 79.74, -102.49 79, -100.94 78.77 M-103.75 79.77 C-102.75 79.31, -101.63 79.01, -101.05 78.81 M-101.16 78.87 C-99.92 78.11, -99.26 77.82, -98.84 77.56 M-101.05 78.85 C-100.51 78.55, -99.63 78.23, -98.5 77.64 M-98.74 77.84 C-97.63 77.35, -96.81 76.47, -96.23 76.43 M-98.69 77.5 C-97.92 77.34, -97.45 76.83, -96.13 76.16 M-96.38 76.17 C-95.28 75.91, -94.76 75.37, -94 74.44 M-96.18 76.09 C-95.67 75.88, -95.31 75.56, -93.74 74.74 M-94.15 74.27 C-93.03 73.96, -92.63 72.65, -89.8 71.5 M-93.66 74.37 C-92.58 73.75, -91.96 73.07, -89.6 71.1 M-89.49 71.43 C-88.36 69.82, -86.67 67.85, -86.21 66.62 M-89.43 70.8 C-88.3 69.7, -87.19 68.66, -85.51 67.02 M-85.41 67.16 C-84.25 65.73, -83.68 65.01, -82.99 64.08 M-85.53 66.79 C-84.63 66.03, -84.12 65.01, -83.01 63.87 M-82.65 63.44 C-82.05 62.31, -81.65 61.28, -80.54 59.83 M-82.89 63.65 C-82.01 62.66, -81.41 61.52, -80.52 60.23 M-80.69 60.36 C-80.52 59.71, -80.04 59.14, -79.66 58.32 M-80.69 60.16 C-80.28 59.61, -80.03 58.78, -79.9 58.39 M-79.94 58.41 C-79.55 57.59, -79.51 57.02, -79.11 56.41 M-79.79 58.39 C-79.66 57.75, -79.46 57.21, -79.11 56.43 M-79.03 56.29 C-79.15 56.01, -78.93 55.29, -78.67 54.27 M-79.27 56.43 C-79.1 55.6, -78.88 54.74, -78.69 54.18 M-78.57 54.15 C-78.88 53.44, -78.85 53.09, -78.57 51.99 M-78.72 54.21 C-78.77 53.44, -78.66 52.62, -78.49 52.23 M-78.49 51.97 C-78.65 50.8, -78.34 50.12, -78.57 49.16 M-78.47 52.13 C-78.37 51.31, -78.51 50.23, -78.26 49.43 M-78.41 49.48 C-78.46 48.36, -77.96 47.01, -77.87 46.61 M-78.5 49.47 C-78.33 48.46, -78.07 47.69, -78.1 46.41 M-77.96 46.35 C-77.48 45.32, -77.68 44.1, -77.71 43.34 M-77.96 46.26 C-77.82 45.4, -77.51 44.17, -77.47 43.1 M-77.25 43.02 C-77.25 42.73, -77.33 41.55, -76.64 39.93 M-77.41 43.15 C-77.13 42.32, -76.93 41.47, -76.89 39.83 M-77.19 40.1 C-75.77 37.63, -75 35.38, -74.45 33.55 M-76.56 39.79 C-76.27 37.94, -75.75 35.53, -74.95 33.11 M-74.93 32.72 C-74.53 30.86, -74.4 28.61, -72.24 26.29 M-75.16 33.42 C-74.42 30.98, -73.72 29.54, -73.02 26.14 M-73.26 25.67 C-72.31 24.64, -71.7 22.15, -70.65 18.53 M-72.81 25.84 C-72.49 23.83, -71.4 21.45, -70.37 19.42 M-70.16 18.67 C-69.91 17.73, -69.46 14.8, -68.8 12.32 M-70.67 18.76 C-70.27 16.68, -69.55 14.86, -68.52 12.04 M-68.21 11.88 C-67.64 11.3, -67.2 9.44, -66.27 6.58 M-68.41 12.09 C-67.95 11.09, -67.17 9.36, -65.68 5.72 M-66.16 5.86 C-65.94 5.26, -65.13 4.65, -64.78 3 M-65.95 5.99 C-65.67 5.17, -65.36 4.07, -64.96 3.25 M-64.77 3.15 C-64.46 2.23, -64.63 1.88, -64.07 0.24 M-64.92 3.15 C-64.74 2.31, -64.41 1.7, -63.83 0.49 M-63.3 -0.22 C-64.57 3.64, -62.94 6.77, -64.1 10.71 M-64.02 0.21 C-63.59 3.57, -63.56 7.81, -63.49 10.2 M-63.41 10.94 C-63.06 14.4, -62.94 16.98, -62.61 21.04 M-63.57 9.93 C-62.83 13.76, -63.13 16.9, -63.07 19.82 M-64.01 20.83 C-62.82 27.5, -61.11 31.48, -62.42 39.3 M-62.31 20.3 C-62.78 27.61, -61.36 34.8, -62.06 40.05 M-61.19 40.09 C-61.06 40.78, -61.23 41.29, -61.1 41.91 M-61.27 40.19 C-61.16 40.65, -61.18 41.05, -61.2 42 M-61.08 42.15 C-61.21 42.6, -60.91 42.97, -61.05 43.99 M-61.01 41.93 C-60.96 42.88, -61.02 43.52, -61.03 44.14 M-61.16 43.95 C-61.14 44.75, -60.9 45.38, -60.92 46.65 M-60.92 44.06 C-60.95 44.91, -60.91 45.82, -60.87 46.45 M-60.84 46.78 C-60.88 47.5, -60.68 48.63, -60.97 49.13 M-60.92 46.5 C-60.82 47.53, -60.88 48.28, -60.72 49.2 M-60.8 48.66 C-61.09 51.15, -60.39 52.19, -60.87 54.37 M-60.7 49.27 C-61.06 50.62, -60.82 52.14, -60.42 54.9 M-60.72 54.93 C-60.79 56.34, -60.03 58.96, -60.53 60.8 M-60.5 54.52 C-60.54 56.42, -60.6 58.51, -60.4 60.46 M-60.21 60.49 C-60.19 61.99, -60.49 62.82, -59.75 65.79 M-60.22 60.69 C-60.06 62.41, -59.97 64.66, -59.63 65.87 M-59.76 66.01 C-59.62 66.7, -59.51 67.57, -59.52 68.63 M-59.78 65.97 C-59.68 66.69, -59.75 67.43, -59.56 68.63 M-59.58 68.73 C-59.57 69, -59.45 69.49, -59.1 70.88 M-59.61 68.42 C-59.42 68.91, -59.27 69.52, -59.16 70.88 M-58.94 70.96 C-59.05 71.29, -58.54 71.8, -58.59 72.75 M-59.17 70.85 C-58.94 71.38, -58.7 71.98, -58.45 72.85 M-58.47 72.73 C-58.28 73.5, -58.23 73.81, -57.89 74.48 M-58.47 72.94 C-58.18 73.52, -57.95 74.33, -57.73 74.64 M-57.87 74.58 C-57.66 74.81, -57.27 75.36, -57.01 75.93 M-57.81 74.59 C-57.52 75.03, -57.23 75.35, -57 75.9 M-57.08 76.08 C-56.64 76.27, -56.42 76.43, -56.06 77 M-57.03 75.96 C-56.7 76.18, -56.39 76.58, -56.02 76.88 M-56.01 76.67 C-54.87 76.86, -54.1 77.02, -52.67 76.93 M-55.85 76.84 C-54.92 76.75, -53.7 76.82, -52.59 76.78 M-52.44 76.91 C-52.1 77.05, -50.95 76.94, -49.09 76.87 M-52.63 76.85 C-51.46 76.61, -50.48 76.77, -49.1 76.91 M-49.89 76.75 C-46.58 77.4, -45.48 76.45, -42.95 77.79 M-48.92 76.67 C-47.26 76.64, -46.1 77.13, -42.22 76.95 M-42.5 77.8 C-40.66 77.92, -37.67 77.89, -35.14 77.8 M-42.75 77.02 C-40.31 77.42, -38.56 77.73, -35.87 77.41 M-36.06 77.78 C-33.69 78.04, -31.91 77.7, -29.54 78.23 M-35.5 77.87 C-34.14 78.11, -32.69 78.05, -29.44 78.27 M-29.45 77.75 C-28.36 77.75, -27.66 77.87, -26.01 78.01 M-29.15 77.87 C-28.13 77.79, -27 77.97, -26.2 77.86 M-26.34 77.66 C-24.84 77.42, -24.42 77.62, -22.93 77.28 M-25.89 77.79 C-25.21 77.67, -24.17 77.63, -23.01 77.46 M-22.79 77.37 C-21.98 77.45, -21.1 77.22, -19.87 76.63 M-22.78 77.42 C-21.81 77.09, -20.78 77.1, -19.85 76.92 M-19.86 76.66 C-18.64 76.74, -18.16 76.32, -16.9 75.98 M-19.82 76.9 C-19.01 76.38, -17.87 76.19, -16.97 75.7 M-17.23 75.9 C-16.12 75.59, -15.52 74.93, -14.07 74.36 M-17.11 75.73 C-16.2 75.34, -15.5 75.23, -14.24 74.46 M-14.02 74.09 C-12.98 73.98, -12.37 73.03, -11.54 72.25 M-13.98 74.57 C-13.35 73.88, -12.2 73.2, -11.53 72.51 M-11.63 72.54 C-10.78 72, -9.92 71.25, -8.59 70.37 M-11.26 72.57 C-10.78 71.8, -9.79 71.32, -8.74 70.14 M-8.68 70.31 C-8.28 68.91, -6.99 68.27, -6.45 67.48 M-8.79 70.16 C-8.02 69.28, -7.4 68.19, -6.52 67.3 M-6.77 67.23 C-5.85 66.7, -4.34 65.51, -3.43 63.88 M-6.4 67.4 C-5.77 66.48, -4.93 65.48, -3.63 64.15 M-3.78 64.34 C-3.42 63.89, -3.26 63.35, -2.61 62.62 M-3.69 64.26 C-3.49 63.58, -3.12 63.04, -2.77 62.55 M-2.67 62.38 C-2.36 61.77, -1.81 60.97, -1.96 60.66 M-2.78 62.45 C-2.43 61.99, -2.32 61.58, -1.84 60.67 M-1.82 60.67 C-1.47 60.06, -1.26 59.82, -1.28 58.93 M-1.8 60.6 C-1.54 60.14, -1.53 59.71, -1.07 58.74 M-0.98 58.69 C-0.79 58.04, -0.7 57.6, -0.46 56.74 M-0.99 58.76 C-0.84 58.17, -0.73 57.45, -0.59 56.8 M-0.68 56.93 C-0.39 56.29, -0.57 56.07, -0.56 54.65 M-0.56 56.76 C-0.46 56.23, -0.5 55.85, -0.4 54.89 M-0.34 54.86 C-0.52 54.14, -0.41 53.4, -0.42 52.83 M-0.49 54.75 C-0.51 54.35, -0.43 53.8, -0.55 52.69 M-0.28 52.86 C-0.68 51.44, -0.67 49.95, 0.08 46.62 M-0.78 52.6 C-0.48 51.33, -0.43 49.42, -0.67 47.22 M-0.6 47.27 C-0.16 45.3, -0.32 42.74, -0.75 40.83 M-0.55 46.79 C-0.47 45.25, -0.37 44, -0.25 40.79 M-0.47 41.16 C-0.49 37.64, -0.03 35.97, -0.5 33.75 M-0.43 40.65 C-0.04 38.58, 0.13 36.4, -0.09 33.84 M0.27 34.14 C0.55 30.74, 0.26 28.74, -0.07 26.43 M0.07 33.98 C0.25 32.57, -0.21 31.16, 0.34 27.18 M0.7 26.42 C-0.8 23.29, 0.74 20.37, 1.32 13.96 M0.59 27.47 C-0.52 23.26, 0.85 20.19, 0.12 13.4 M-0.44 12.86 C-0.48 10.8, -0.52 8.93, 0 6.26 M0.38 12.65 C0.26 11.35, 0.43 8.86, 0.1 6.11 M0.54 5.66 C-0.32 3.98, 0.07 2.07, 0.47 0.55 M0.23 6.06 C0.35 4.69, 0.21 3.37, 0.23 -0.05 M0 0 C0 0, 0 0, 0 0 M0 0 C0 0, 0 0, 0 0 M0 0 C0 0, 0 0, 0 0 M0 0 C0 0, 0 0, 0 0" stroke="#000000" stroke-width="1" fill="none"/></g></g></svg>