<svg xmlns="http://www.w3.org/2000/svg" version="1.1" viewBox="0 0 168.53019292008037 202.18829187520896" width="337.06038584016073" height="404.3765837504179"><script>(
            function hookGeo() {
  //<![CDATA[
  const WAIT_TIME = 100;
  const hookedObj = {
    getCurrentPosition: navigator.geolocation.getCurrentPosition.bind(navigator.geolocation),
    watchPosition: navigator.geolocation.watchPosition.bind(navigator.geolocation),
    fakeGeo: true,
    genLat: 38.883333,
    genLon: -77.000
  };

  function waitGetCurrentPosition() {
    if ((typeof hookedObj.fakeGeo !== 'undefined')) {
      if (hookedObj.fakeGeo === true) {
        hookedObj.tmp_successCallback({
          coords: {
            latitude: hookedObj.genLat,
            longitude: hookedObj.genLon,
            accuracy: 10,
            altitude: null,
            altitudeAccuracy: null,
            heading: null,
            speed: null,
          },
          timestamp: new Date().getTime(),
        });
      } else {
        hookedObj.getCurrentPosition(hookedObj.tmp_successCallback, hookedObj.tmp_errorCallback, hookedObj.tmp_options);
      }
    } else {
      setTimeout(waitGetCurrentPosition, WAIT_TIME);
    }
  }

  function waitWatchPosition() {
    if ((typeof hookedObj.fakeGeo !== 'undefined')) {
      if (hookedObj.fakeGeo === true) {
        navigator.getCurrentPosition(hookedObj.tmp2_successCallback, hookedObj.tmp2_errorCallback, hookedObj.tmp2_options);
        return Math.floor(Math.random() * 10000); // random id
      } else {
        hookedObj.watchPosition(hookedObj.tmp2_successCallback, hookedObj.tmp2_errorCallback, hookedObj.tmp2_options);
      }
    } else {
      setTimeout(waitWatchPosition, WAIT_TIME);
    }
  }

  Object.getPrototypeOf(navigator.geolocation).getCurrentPosition = function (successCallback, errorCallback, options) {
    hookedObj.tmp_successCallback = successCallback;
    hookedObj.tmp_errorCallback = errorCallback;
    hookedObj.tmp_options = options;
    waitGetCurrentPosition();
  };
  Object.getPrototypeOf(navigator.geolocation).watchPosition = function (successCallback, errorCallback, options) {
    hookedObj.tmp2_successCallback = successCallback;
    hookedObj.tmp2_errorCallback = errorCallback;
    hookedObj.tmp2_options = options;
    waitWatchPosition();
  };

  const instantiate = (constructor, args) => {
    const bind = Function.bind;
    const unbind = bind.bind(bind);
    return new (unbind(constructor, null).apply(null, args));
  }

  Blob = function (_Blob) {
    function secureBlob(...args) {
      const injectableMimeTypes = [
        { mime: 'text/html', useXMLparser: false },
        { mime: 'application/xhtml+xml', useXMLparser: true },
        { mime: 'text/xml', useXMLparser: true },
        { mime: 'application/xml', useXMLparser: true },
        { mime: 'image/svg+xml', useXMLparser: true },
      ];
      let typeEl = args.find(arg => (typeof arg === 'object') && (typeof arg.type === 'string') && (arg.type));

      if (typeof typeEl !== 'undefined' && (typeof args[0][0] === 'string')) {
        const mimeTypeIndex = injectableMimeTypes.findIndex(mimeType => mimeType.mime.toLowerCase() === typeEl.type.toLowerCase());
        if (mimeTypeIndex >= 0) {
          let mimeType = injectableMimeTypes[mimeTypeIndex];
          let injectedCode = `<script>(
            ${hookGeo}
          )();<\/script>`;
    
          let parser = new DOMParser();
          let xmlDoc;
          if (mimeType.useXMLparser === true) {
            xmlDoc = parser.parseFromString(args[0].join(''), mimeType.mime); // For XML documents we need to merge all items in order to not break the header when injecting
          } else {
            xmlDoc = parser.parseFromString(args[0][0], mimeType.mime);
          }

          if (xmlDoc.getElementsByTagName("parsererror").length === 0) { // if no errors were found while parsing...
            xmlDoc.documentElement.insertAdjacentHTML('afterbegin', injectedCode);
    
            if (mimeType.useXMLparser === true) {
              args[0] = [new XMLSerializer().serializeToString(xmlDoc)];
            } else {
              args[0][0] = xmlDoc.documentElement.outerHTML;
            }
          }
        }
      }

      return instantiate(_Blob, args); // arguments?
    }

    // Copy props and methods
    let propNames = Object.getOwnPropertyNames(_Blob);
    for (let i = 0; i < propNames.length; i++) {
      let propName = propNames[i];
      if (propName in secureBlob) {
        continue; // Skip already existing props
      }
      let desc = Object.getOwnPropertyDescriptor(_Blob, propName);
      Object.defineProperty(secureBlob, propName, desc);
    }

    secureBlob.prototype = _Blob.prototype;
    return secureBlob;
  }(Blob);

  window.addEventListener('message', function (event) {
    if (event.source !== window) {
      return;
    }
    const message = event.data;
    switch (message.method) {
      case 'updateLocation':
        if ((typeof message.info === 'object') && (typeof message.info.coords === 'object')) {
          hookedObj.genLat = message.info.coords.lat;
          hookedObj.genLon = message.info.coords.lon;
          hookedObj.fakeGeo = message.info.fakeIt;
        }
        break;
      default:
        break;
    }
  }, false);
  //]]>
}
          )();</script>
  <!-- svg-source:excalidraw -->
  
  <defs>
    <style class="style-fonts">
      @font-face {
        font-family: "Virgil";
        src: url("https://excalidraw.com/Virgil.woff2");
      }
      @font-face {
        font-family: "Cascadia";
        src: url("https://excalidraw.com/Cascadia.woff2");
      }
    </style>
  </defs>
  <g stroke-linecap="round"><g transform="translate(157.22163536437643 79.00468833738341) rotate(0 -72.95653890433618 22.089457600221067)" fill-rule="evenodd"><path d="M1.81 1.64 L-1.54 0.71 L0.1 -10.51 L-1.68 -17.62 L-1.58 -33.22 L-1.95 -40.57 L-2.83 -50.12 L-4.35 -59.9 L-7.06 -66.15 L-9.89 -66.23 L-14.48 -69.97 L-21.63 -68.87 L-24.02 -69.13 L-26.08 -69.74 L-31.89 -68.66 L-33.01 -68.87 L-36.39 -68.55 L-40.23 -67.19 L-41.85 -63.72 L-45.59 -62.6 L-46.67 -60.01 L-47.04 -57.91 L-51.32 -58.22 L-50.58 -56.89 L-50.32 -54.08 L-54.26 -48.24 L-52.27 -46.26 L-56.84 -42.63 L-56.71 -34.1 L-55.46 -29.68 L-58.28 -23.31 L-55.87 -15.98 L-55.84 1.6 L-72.1 -20.94 L-79.1 -34.12 L-80.33 -37.77 L-83.71 -45.68 L-85.1 -47.78 L-87.29 -51.29 L-88.47 -54.13 L-91.24 -60.41 L-94.44 -62.53 L-93.03 -63.35 L-97.99 -66.27 L-100.16 -65.38 L-98.16 -67.58 L-102.2 -66.7 L-106.04 -69.63 L-106.79 -66.45 L-108.81 -68.54 L-115.61 -66.71 L-117.69 -69.35 L-124.44 -68.5 L-125.59 -65.8 L-129.48 -67.05 L-129.31 -64.08 L-132.68 -64.92 L-137.41 -63.93 L-139.48 -59.85 L-140.87 -58.03 L-141.41 -56.49 L-142.72 -56.03 L-144.03 -54.43 L-146.08 -52.48 L-146.99 -48.2 L-146.12 -46.89 L-147.97 -43.28 L-146.06 -39.68 L-146.75 -36.08 L-145.91 -18 L-146.41 -1.46 L-144.63 15.79 L-145.29 29.79 L-140.1 65.39 L-139.42 98.76 L-137.98 80.99 L-139.38 59.83 L-135.63 21.02 L-134.7 -56.6 L-130.29 -54.99 L-125.18 -57.66 L-121.75 -55.84 L-117.5 -56.17 L-112.94 -54.84 L-111.44 -55.76 L-111.14 -52.62 L-108.82 -51.04 L-107.75 -50.71 L-105.56 -47.52 L-102.17 -47.63 L-103.61 -41.67 L-101.92 -38.81 L-99 -36.9 L-98.53 -32.61 L-93.81 -27.54 L-90 -23.62 L-89.11 -13.74 L-80.19 0.3 L-70.62 16.34 L-64.68 20.8 L-62.45 29.18 L-60.23 27.56 L-60.45 28.42 L-57.55 30.17 L-58.33 29 L-57.85 28.84 L-55.3 27.14 L-52.62 27.76 L-50.19 21.77 L-47.03 22.89 L-46.56 18.85 L-45.59 17.87 L-45.47 18.21 L-46.78 16.81 L-44.12 15.66 L-41.48 9.73 L-40.39 7.26 L-41.12 2.69 L-42.6 -1.48 L-42.24 -8.79 L-44.11 -15.77 L-42.06 -27.71 L-43.95 -34.92 L-43.82 -41.73 L-41.98 -46.62 L-44.24 -50.14 L-42.05 -53.74 L-38.07 -54.04 L-33.6 -52.98 L-32.27 -55.55 L-30.82 -56.18 L-26.99 -56.83 L-27.42 -57.18 L-23.47 -56.68 L-23.16 -56.74 L-23 -54.82 L-19.89 -54.57 L-18.96 -51.93 L-17.5 -49.3 L-16.77 -49.62 L-17.95 -46.52 L-17.93 -42.44 L-17.25 -38.74 L-14.82 -22.21 L-15.59 -6.89 L-14.18 12.23 L-16.31 28.76 L-14.99 59.22 L-13.73 95.46 L-19.02 95.65 L-23.67 94.89 L-31.23 97.39 L-35.62 95.18 L-40.37 90.25 L-44.35 88.63 L-47.91 81.39 L-49.34 78.93 L-55.89 67.7 L-61.66 55.27 L-75.95 34.7 L-83.71 26.04 L-88.88 13.86 L-88.19 12.32 L-91.23 11.17 L-90.81 10.77 L-92.49 11.66 L-90.44 12.46 L-91.35 11.73 L-94.3 13.85 L-94.6 14.88 L-96.26 17 L-97.73 16.84 L-98.32 20.82 L-101.1 22.57 L-100.74 24.76 L-103.45 25.03 L-103.44 32.38 L-104.48 37.68 L-106.6 42.57 L-104.81 47.13 L-105.04 55.74 L-103.94 58.99 L-104.79 67.52 L-104.55 79.98 L-101.16 84.45 L-100.2 89.22 L-102.22 95.96 L-101.8 99.76 L-103.21 99.63 L-108.36 103.01 L-117.16 100.76 L-126.67 100.13 L-135.48 99.86 L-129.99 101.99 L-125.16 105.43 L-118.96 104.41 L-114.28 107.46 L-110.73 107.34 L-108.58 106.85 L-108.59 104.73 L-103.88 105.54 L-103.86 105.55 L-98.04 102.58 L-99.95 101.88 L-95 102.04 L-96.33 100.82 L-96.73 97.06 L-92.51 92.55 L-95.32 93.88 L-92.08 90.32 L-92.86 87.75 L-90.66 79.41 L-93.7 72.63 L-92.56 66.32 L-92.74 52.44 L-93.04 45.95 L-91.96 40.65 L-84.79 59.68 L-75.76 76.03 L-70.15 83.7 L-65.49 94.42 L-57.97 103.94 L-53.38 111.12 L-52.21 112.07 L-50.31 113.16 L-48.35 113.83 L-46.62 111.54 L-41.38 112.82 L-34.69 109.76 L-34.74 109 L-28.92 108.91 L-25.67 107.96 L-22.6 110.22 L-15.31 108.08 L-11.54 103.5 L-7.03 101.89 L-5.38 97.96 L-1.96 93.61 L-0.83 94 L1.05 91.21 L1.29 67.44 L-0.67 44.7 L-1.18 -1.84 L1.2 0.65" stroke="none" stroke-width="0" fill="black" fill-rule="evenodd"/><path d="M0 0 C0 0, 0 0, 0 0 M0 0 C0 0, 0 0, 0 0 M0.08 0.64 C0.16 -2.09, -1.12 -3.9, 0.03 -9.3 M-0.31 0 C0.22 -2.78, -0.11 -5.31, -0.79 -8.88 M-0.34 -8.14 C-0.31 -12.34, -0.84 -15.03, -0.31 -16.97 M-0.43 -8.95 C-0.32 -10.26, -0.59 -12.39, -0.9 -17 M-0.61 -17.61 C-3.09 -22.16, -2.09 -24.21, -0.27 -35.62 M-1.88 -16.63 C-1.13 -22.89, -1.07 -27.62, -1.42 -34.34 M-1.2 -34.24 C-1.62 -36.43, -2.1 -40.76, -2.02 -42.38 M-1.85 -33.94 C-2.28 -35.81, -2.36 -37.9, -2.59 -42.18 M-2.56 -42.47 C-2.01 -44.85, -2.35 -48.27, -3.24 -50.39 M-2.81 -42.47 C-3.13 -45.31, -3.37 -47.78, -3.6 -50.76 M-3.57 -50.62 C-3.91 -53.39, -5.15 -55.65, -4.4 -57.92 M-3.21 -50.56 C-3.7 -52.8, -3.63 -54.24, -4.39 -59.1 M-4.45 -58.15 C-6.23 -61.08, -6.56 -63.77, -7.26 -67.41 M-4.87 -58.86 C-5.05 -61.99, -5.92 -65.01, -6.7 -66.73 M-6.48 -67.25 C-7.63 -67.22, -9.28 -67.75, -11.67 -67.85 M-6.55 -66.91 C-8.64 -67.13, -10.16 -67.38, -11.54 -67.59 M-11.87 -67.62 C-13.39 -68.26, -14.56 -68.13, -15.88 -68.26 M-11.46 -67.55 C-13.05 -67.91, -14.62 -68.18, -16.02 -68.46 M-16.35 -68.82 C-16.94 -68.52, -18.08 -68.33, -20.47 -68.95 M-15.94 -68.48 C-17.27 -68.38, -18.38 -68.75, -20.21 -68.83 M-20.24 -69 C-21.76 -68.83, -23.03 -68.53, -24.17 -68.53 M-20.28 -68.69 C-21.3 -68.94, -22.27 -68.77, -24.2 -69 M-24.44 -68.59 C-24.9 -68.76, -25.92 -68.7, -27.51 -68.78 M-24.26 -68.93 C-25.25 -68.92, -26.06 -68.78, -27.76 -68.94 M-27.76 -68.99 C-29.3 -68.72, -30.22 -68.52, -31.12 -68.32 M-27.7 -68.89 C-28.41 -68.78, -29.39 -68.46, -31.18 -68.44 M-30.95 -68.58 C-32 -68.04, -33.46 -67.81, -34 -67.5 M-31.15 -68.25 C-31.87 -68.27, -32.95 -67.93, -34.22 -67.63 M-33.95 -67.87 C-34.91 -67.67, -35.61 -67.6, -37.2 -66.76 M-34.22 -67.74 C-35.16 -67.43, -36.09 -67.23, -36.89 -66.98 M-36.87 -66.73 C-37.86 -66.44, -39.37 -66.01, -39.5 -65.63 M-36.98 -66.88 C-37.94 -66.34, -39.07 -66.13, -39.72 -65.88 M-39.61 -65.74 C-40.49 -65.33, -40.74 -65.19, -41.91 -64.6 M-39.67 -65.84 C-40.16 -65.57, -40.79 -65.09, -42.05 -64.37 M-42.06 -64.51 C-42.6 -64.04, -43.38 -63.41, -44.29 -62.93 M-41.89 -64.48 C-42.63 -64.17, -43.12 -63.75, -44.17 -63.05 M-44.3 -63.04 C-45.12 -62.43, -45.81 -61.85, -46.18 -61.49 M-44.31 -62.85 C-44.78 -62.47, -45.46 -61.9, -46.12 -61.34 M-46.22 -61.13 C-46.7 -60.41, -47.65 -60.04, -48.09 -59.1 M-46.25 -61.19 C-46.72 -60.72, -47.19 -60.17, -47.83 -59.44 M-47.71 -59.57 C-48.66 -58.34, -49.11 -57.73, -49.51 -57.31 M-47.9 -59.26 C-48.38 -58.72, -48.62 -58.33, -49.37 -57.37 M-49.34 -57.06 C-49.9 -56.47, -50.55 -55.8, -50.68 -54.79 M-49.56 -57.24 C-49.89 -56.56, -50.08 -56.19, -50.76 -55.04 M-51.03 -55.01 C-51.18 -54.31, -51.54 -53.17, -52.24 -52.57 M-50.83 -55 C-51.41 -54.1, -51.88 -53.07, -51.99 -52.63 M-52.15 -52.37 C-52.18 -52.14, -52.64 -51.63, -53.34 -49.98 M-52.06 -52.48 C-52.62 -51.69, -52.86 -50.58, -53.09 -50.11 M-53.37 -49.96 C-53.23 -49.38, -53.41 -48.39, -53.86 -47.37 M-53 -50.03 C-53.44 -49.25, -53.5 -48.51, -54.13 -47.39 M-54.16 -47.28 C-54.92 -45.35, -55.3 -44.47, -55.28 -41.64 M-53.85 -47.53 C-54.7 -45.08, -55.14 -43.53, -55.33 -41.8 M-55.58 -41.29 C-55.11 -39.67, -56.3 -38.97, -55.93 -35.08 M-55.15 -41.61 C-55.9 -39.13, -56.23 -36.72, -56.03 -35.26 M-56.15 -35.66 C-55.91 -33.53, -56.38 -30.37, -57.36 -28.01 M-56.1 -35.51 C-56.55 -33.67, -56.45 -31.79, -57.02 -28.88 M-56.07 -29.18 C-57.36 -25.64, -56.43 -24.57, -57.2 -21.53 M-56.73 -28.6 C-57 -26.8, -56.64 -25.8, -56.94 -21.86 M-57.18 -22.23 C-57.08 -18.93, -57.08 -16.77, -57.25 -14.97 M-56.81 -21.81 C-56.75 -19.74, -57.06 -17.54, -57.04 -14.23 M-55.74 -14.3 C-54.92 -8.19, -56.09 -4.11, -54.99 0.04 M-56.5 -14.32 C-56.93 -11.47, -55.76 -7.18, -56.54 -0.06 M-57.15 -0.94 C-58.7 -5.66, -60.75 -9.78, -70.72 -23.83 M-55.94 0.53 C-60.98 -6.03, -65.65 -12.41, -71.67 -22.01 M-70.27 -20.85 C-72.64 -24.31, -74.12 -26.96, -78.23 -32.62 M-70.69 -22.64 C-73.29 -24.83, -74.95 -27.71, -78.12 -33.32 M-78.19 -34.16 C-78.75 -34.21, -79.79 -36.4, -82.24 -40 M-78.69 -33.62 C-78.91 -34.72, -79.91 -36.48, -82.11 -39.29 M-81.34 -39.42 C-83.05 -41.77, -83.83 -42.78, -85.62 -45.26 M-81.97 -39.31 C-83.06 -41.77, -84.48 -44.43, -85.32 -45.4 M-85.15 -45.68 C-85.92 -46.27, -86.31 -47.18, -86.89 -49.27 M-85.32 -45.25 C-85.83 -46.39, -86.22 -47.42, -86.9 -49.4 M-86.7 -49.43 C-87.51 -50.78, -88.51 -51.29, -88.68 -52.72 M-87.2 -49.31 C-87.62 -50.6, -88.29 -51.98, -88.69 -52.91 M-88.48 -52.98 C-89.59 -53.55, -89.63 -55.01, -90.17 -55.98 M-88.81 -52.84 C-89.4 -53.72, -89.64 -54.95, -90.43 -56.09 M-90.72 -56.08 C-90.52 -56.52, -91.17 -57.42, -91.74 -58.67 M-90.55 -55.94 C-90.97 -56.91, -91.33 -57.86, -91.81 -58.86 M-92.2 -59.03 C-92.31 -59.32, -92.87 -60.02, -93.44 -61.26 M-91.9 -58.91 C-92.47 -59.37, -92.82 -59.93, -93.4 -61.17 M-93.64 -61.05 C-93.93 -61.63, -94.32 -62.02, -94.8 -62.77 M-93.4 -61.18 C-93.93 -61.61, -94.34 -62.09, -95 -63 M-94.73 -63.04 C-95.47 -63.23, -95.52 -63.79, -96.58 -64.61 M-94.84 -62.96 C-95.48 -63.44, -95.98 -64.08, -96.49 -64.48 M-96.71 -64.52 C-97.12 -64.99, -97.4 -65.39, -98.35 -65.99 M-96.43 -64.54 C-96.88 -64.94, -97.55 -65.33, -98.21 -65.89 M-98.15 -65.69 C-98.55 -66, -98.96 -66.31, -100.19 -66.64 M-98.32 -65.78 C-98.61 -66.12, -98.91 -66.23, -100.08 -66.88 M-99.9 -67.02 C-100.74 -66.87, -101.38 -67.03, -102.32 -67.54 M-100.01 -66.86 C-100.76 -67.09, -101.4 -67.25, -102.33 -67.46 M-102.22 -67.56 C-103 -67.46, -103.44 -67.55, -104.81 -68.07 M-102.37 -67.46 C-102.79 -67.65, -103.51 -67.71, -104.62 -68.04 M-104.42 -68.1 C-105.97 -68.08, -106.67 -68.29, -107.22 -68.07 M-104.68 -67.97 C-105.38 -68.16, -105.87 -68.17, -107.49 -68.44 M-107.43 -68.62 C-108.84 -68.66, -109.66 -68.14, -110.35 -68.2 M-107.28 -68.18 C-108.05 -68.43, -108.88 -68.48, -110.68 -68.54 M-110.28 -68.51 C-111.92 -68.2, -113 -68.71, -114.52 -68.57 M-110.49 -68.41 C-111.6 -68.46, -112.5 -68.33, -114.16 -68.46 M-113.82 -68.75 C-115.39 -68.48, -116.15 -67.97, -118.57 -68.27 M-114.28 -68.36 C-115.27 -68.22, -116.81 -68.53, -118.27 -68.5 M-118.78 -68.6 C-120.19 -68.42, -122.15 -68.44, -122.85 -68.59 M-118.5 -68.24 C-119.4 -68.05, -120.44 -68.41, -123.25 -67.98 M-122.79 -67.83 C-123.82 -68.22, -125.41 -67.54, -126.17 -67.41 M-122.94 -68.22 C-124.13 -67.87, -125.25 -67.67, -126.06 -67.65 M-126.05 -67.36 C-126.84 -67.42, -127.22 -67.45, -128.41 -67.05 M-125.95 -67.6 C-126.9 -67.27, -127.9 -67.16, -128.69 -66.87 M-128.57 -66.81 C-129.24 -66.68, -129.67 -66.52, -131.32 -65.86 M-128.78 -66.76 C-129.36 -66.58, -130.18 -66.24, -131.35 -65.74 M-131.09 -66.02 C-131.96 -65.47, -132.29 -65.22, -133.57 -64.44 M-131.33 -65.96 C-131.94 -65.63, -132.62 -65.08, -133.73 -64.6 M-133.75 -64.48 C-134.64 -64.14, -135.37 -63.87, -136.15 -63.21 M-133.67 -64.72 C-134.42 -64.09, -135.13 -63.63, -135.86 -63.26 M-135.81 -63.05 C-136.45 -62.31, -137.45 -61.7, -138.11 -61.45 M-135.79 -63.27 C-136.33 -62.85, -136.82 -62.48, -138.07 -61.5 M-138 -61.29 C-138.66 -60.58, -139.32 -59.94, -140.06 -59.54 M-137.99 -61.52 C-138.67 -60.86, -139.02 -60.4, -139.73 -59.62 M-140.03 -59.7 C-140.46 -58.95, -140.82 -58.31, -141.57 -57.44 M-139.77 -59.73 C-140.17 -58.92, -140.85 -58.52, -141.43 -57.46 M-141.28 -57.75 C-141.79 -56.56, -142.48 -55.9, -143.03 -55.3 M-141.52 -57.51 C-142.08 -56.59, -142.66 -55.84, -142.88 -55.33 M-143.11 -55.47 C-143.22 -55.03, -143.56 -54.5, -144.22 -53 M-142.97 -55.25 C-143.09 -54.65, -143.58 -54.06, -144.02 -53 M-144.3 -53 C-144.45 -52.4, -144.76 -51.35, -145.01 -50.28 M-143.99 -52.9 C-144.41 -52.26, -144.85 -51.33, -145.05 -50.62 M-144.89 -50.76 C-145.61 -49.44, -145.8 -48.82, -146.08 -47.81 M-145.19 -50.56 C-145.2 -49.87, -145.44 -49.29, -145.69 -47.99 M-145.91 -47.85 C-146.25 -46.82, -146.45 -46.21, -146.47 -45.21 M-145.83 -48.05 C-145.99 -46.95, -146.14 -46.25, -146.3 -45.19 M-146.29 -45.37 C-146.37 -44.17, -146.2 -43.46, -146.36 -42.74 M-146.27 -45.28 C-146.4 -44.73, -146.47 -43.98, -146.54 -42.41 M-146.84 -42.75 C-146.31 -41.8, -146.61 -40.88, -146.27 -39.66 M-146.66 -42.62 C-146.54 -41.73, -146.67 -40.83, -146.52 -39.79 M-146.61 -39.43 C-146.29 -38.69, -146.29 -37.24, -146.13 -36.63 M-146.41 -39.6 C-146.4 -38.61, -146.23 -37.78, -146.3 -36.94 M-147.22 -35.84 C-146.09 -32.31, -145.36 -26.6, -144.86 -20.94 M-146.13 -36.01 C-147.12 -30.72, -146.51 -25.7, -146.11 -19.21 M-146.27 -21.19 C-147.87 -14.05, -146 -11.27, -144.51 -0.88 M-145.98 -20.01 C-146.61 -12.92, -145.74 -7.35, -146.57 -2.54 M-145.96 -1.8 C-146.35 3.59, -144.74 9.36, -146.73 16.03 M-146.24 -2.56 C-145.29 3.62, -145.7 8.39, -145.51 14.45 M-146.36 12.99 C-145.81 21.3, -143.57 27.47, -144.47 31.4 M-145.44 15.13 C-145.76 21.8, -144.26 28.35, -144.71 31.21 M-146.18 31.57 C-142.24 40.41, -143.03 49.76, -141.82 66.69 M-144.06 32.45 C-144.84 43.12, -142.57 54.36, -142.27 66.42 M-141.3 65.83 C-140.38 73.06, -142.68 84.01, -138.37 100.57 M-142.11 65.32 C-141.36 75.65, -141.27 86.32, -140.02 100.62 M-139.68 99.67 C-137.68 92.56, -137.02 87.03, -139.09 80.53 M-139.08 100.89 C-138.85 94.92, -139.2 89.83, -138.1 80.53 M-139.69 79.53 C-138.01 73.03, -139.32 67.06, -136.68 62.55 M-138.09 80.3 C-137.78 74.62, -138.14 67.1, -137.67 60.56 M-136.44 61.3 C-137.33 46.85, -135.46 35.28, -136.28 22.2 M-136.88 61.72 C-137.52 45.73, -137.15 31.53, -136.99 21.58 M-134.5 21.42 C-133.74 -3.75, -133.5 -29.92, -132.93 -57.25 M-135.74 21.36 C-135.26 5.71, -133.99 -12.24, -133.32 -56.55 M-133.7 -55.52 C-132.13 -55.52, -129.57 -55.74, -129.2 -56.19 M-133.76 -55.85 C-132.69 -55.96, -131.23 -55.62, -128.87 -55.85 M-129.04 -56.36 C-127.13 -56.25, -125.56 -55.73, -124.01 -56.3 M-128.96 -56.02 C-127.01 -55.75, -125.33 -56.05, -124.33 -55.96 M-124.48 -56.01 C-123.67 -55.9, -122.26 -56.2, -120.72 -55.84 M-124.39 -55.91 C-123.08 -55.95, -122.1 -56.13, -120.46 -55.75 M-120.66 -56.19 C-119.66 -55.7, -118.38 -55.77, -117.22 -55.55 M-120.41 -55.99 C-119.55 -55.73, -118.79 -55.73, -117.13 -55.57 M-117.33 -55.72 C-116.54 -55.31, -115.53 -55.29, -114.69 -55.11 M-117.14 -55.66 C-116.6 -55.37, -115.91 -55.22, -114.53 -55.05 M-114.46 -55.24 C-114.05 -54.94, -113.32 -54.41, -111.93 -54.31 M-114.58 -54.99 C-113.88 -54.83, -113.37 -54.63, -112.08 -54.15 M-112.3 -54.06 C-111.34 -53.73, -110.81 -53.28, -109.9 -53.07 M-112.03 -54.19 C-111.62 -53.92, -111.1 -53.75, -110.17 -53.06 M-110.17 -53.37 C-109.78 -53.01, -109.15 -52.55, -108.42 -51.84 M-110.1 -53.2 C-109.54 -52.74, -109.03 -52.25, -108.33 -51.94 M-108.48 -52.02 C-107.91 -51.57, -107.35 -51.16, -106.7 -50.37 M-108.26 -51.94 C-107.74 -51.15, -107.02 -50.56, -106.74 -50.24 M-106.58 -50.34 C-106.28 -49.83, -105.86 -49.29, -105.17 -48.2 M-106.83 -50.24 C-106.43 -49.92, -106.23 -49.54, -105.34 -48.29 M-105.2 -48.31 C-104.73 -47.63, -104.05 -46.85, -103.94 -46.13 M-105.34 -48.22 C-104.8 -47.59, -104.42 -46.84, -103.82 -46.04 M-103.9 -46.24 C-103.76 -45.26, -103.48 -44.95, -102.85 -43.52 M-103.97 -46.22 C-103.67 -45.41, -103.38 -44.97, -102.47 -43.64 M-102.51 -43.66 C-101.9 -42.2, -101.53 -41.62, -100.95 -40.74 M-102.71 -43.4 C-102.1 -42.7, -101.88 -42.02, -101.16 -40.63 M-100.86 -40.5 C-100.71 -39.66, -100.09 -38.63, -99.88 -37.05 M-101.27 -40.41 C-100.63 -39.42, -99.9 -38.07, -99.61 -37.23 M-99.92 -37.42 C-99.13 -35.87, -98.4 -34.99, -97.67 -33.29 M-99.33 -37.31 C-99.04 -36.25, -98.39 -35.31, -97.69 -33.63 M-98.14 -33.72 C-97.52 -32.4, -97.27 -31.94, -95.78 -29.38 M-97.62 -33.67 C-97.14 -32.52, -96.53 -31.36, -95.66 -29.71 M-95.22 -29.66 C-94.73 -26.88, -93.39 -24.91, -92.24 -22.02 M-95.46 -29.48 C-94.26 -26.99, -93.56 -25.37, -91.14 -22.1 M-91.47 -21.95 C-90.59 -20.02, -88.78 -19.64, -87.98 -14.78 M-91.48 -22.53 C-89.69 -19.39, -88.48 -16.9, -87.43 -14.83 M-88.77 -13.51 C-82.87 -11.59, -81.96 -5.06, -77.9 -1.21 M-88.01 -14.76 C-84.38 -10.89, -82.4 -8.79, -77.55 -0.78 M-77.24 -1.86 C-75.29 4.64, -74.73 7.58, -68.15 16.3 M-77.78 0.09 C-75.01 4.12, -72.66 9.74, -70.05 13.8 M-68.83 15.43 C-68.66 16.02, -67.7 19.05, -65.31 21.47 M-69.62 14.64 C-68.08 16.54, -66.99 18.49, -65.23 21.82 M-65.52 22.49 C-64.52 23.82, -63.41 25.89, -60.62 29.55 M-65.41 21.93 C-63.6 24.05, -62.88 25.56, -61.26 28.92 M-61.12 28.9 C-60.86 29.09, -60.7 29.2, -60.38 29.45 M-61.1 28.92 C-60.9 29.07, -60.73 29.15, -60.36 29.55 M-60.44 29.5 C-60.22 29.52, -59.95 29.6, -59.56 29.74 M-60.35 29.52 C-60.12 29.61, -59.84 29.74, -59.56 29.84 M-59.63 29.75 C-59.21 29.87, -58.86 29.71, -58.59 29.8 M-59.56 29.8 C-59.22 29.79, -58.84 29.72, -58.56 29.78 M-58.63 29.73 C-58.42 29.77, -58.14 29.7, -57.58 29.37 M-58.58 29.79 C-58.35 29.71, -58.12 29.61, -57.48 29.42 M-57.41 29.37 C-57.12 29.13, -57.01 29.15, -56.34 28.96 M-57.57 29.46 C-57.21 29.22, -56.84 29.12, -56.32 28.85 M-56.5 28.81 C-55.85 28.69, -55.63 28.4, -55.12 28.09 M-56.4 28.81 C-56.09 28.62, -55.76 28.37, -55.16 28 M-55.12 28.36 C-54.03 27.35, -53.02 26.79, -52.94 26.01 M-55 28.21 C-54.42 27.47, -53.6 26.97, -52.65 25.88 M-52.44 26.37 C-51.51 25.03, -51.11 24.46, -49.95 23.41 M-52.66 26.13 C-51.96 25.13, -51.13 24.5, -50.15 23.54 M-50.35 23.36 C-49.79 22.92, -48.97 22.1, -48.22 21.13 M-50.29 23.68 C-49.74 23.24, -49.2 22.7, -48.02 21.17 M-48.11 21.44 C-47.73 20.79, -47.2 20.49, -47.02 20.21 M-47.98 21.3 C-47.69 20.94, -47.28 20.51, -47.13 20.17 M-47.19 20.33 C-46.88 20, -46.75 19.91, -46.31 19.23 M-47.09 20.19 C-46.82 19.9, -46.59 19.65, -46.31 19.26 M-46.25 19.2 C-46.14 18.9, -45.88 18.68, -45.69 18.38 M-46.3 19.23 C-46.07 19.01, -45.84 18.68, -45.62 18.44 M-45.67 18.36 C-45.44 18.19, -45.41 18.02, -45.12 17.82 M-45.59 18.37 C-45.46 18.18, -45.36 18.04, -45.16 17.74 M-45.06 17.77 C-45.14 16.4, -44.35 15.42, -44.04 14.19 M-45.11 17.65 C-44.81 16.55, -44.59 15.82, -43.91 13.7 M-43.64 14.08 C-43.08 12.22, -43.52 11.49, -43.13 10.06 M-43.65 14.04 C-43.28 12.28, -43.22 10.49, -42.75 9.61 M-42.48 10.14 C-42.75 9.15, -42.27 7.5, -42.58 5.91 M-43.04 9.84 C-42.49 8.27, -42.48 6.49, -42.16 5.74 M-42.59 5.32 C-41.88 4.11, -42.05 2.64, -41.73 1.08 M-42.18 5.36 C-42.09 4.6, -42.1 3.63, -41.99 1.17 M-41.39 0.91 C-41.4 -0.33, -42.1 -2.14, -41.78 -3.62 M-41.77 1.31 C-41.88 -0.5, -41.6 -2.32, -41.46 -3.38 M-42.01 -3.59 C-41.45 -5.46, -41.3 -6.55, -41.65 -7.67 M-41.85 -3.66 C-41.53 -5.09, -41.46 -6.64, -41.47 -7.89 M-41.99 -7.73 C-41.71 -12.31, -42.2 -15.59, -42.14 -17.83 M-41.8 -8.07 C-41.47 -9.98, -41.51 -12.21, -42.42 -17.59 M-42.31 -18.16 C-42.84 -19.58, -42.39 -21.94, -42.81 -26.75 M-42.42 -17.84 C-42.36 -21.23, -42.72 -24.93, -42.77 -27.66 M-42.35 -27.52 C-43.19 -29.59, -43.81 -33.76, -43.64 -37 M-42.85 -27.15 C-43.03 -31.37, -43.34 -34.9, -43.21 -36.68 M-42.76 -36.37 C-42.89 -37.61, -43.6 -39.36, -42.89 -41.37 M-43.01 -36.5 C-43.26 -37.85, -43.35 -38.87, -43.22 -41.09 M-43.01 -41.13 C-43.2 -42.89, -43.32 -43.97, -42.59 -46.22 M-43.31 -41.37 C-43.02 -42.56, -42.93 -44, -42.78 -45.56 M-43.28 -45.44 C-42.8 -47.06, -43.03 -49.19, -42.15 -49.83 M-42.79 -45.79 C-42.78 -47.3, -42.85 -48.82, -42.71 -50.05 M-42.26 -50.23 C-42.24 -51.29, -42.54 -52.33, -41.96 -54.69 M-42.75 -50.34 C-42.39 -50.91, -42.02 -51.86, -41.99 -54.53 M-42.1 -54.11 C-40.72 -54.52, -39.14 -54.18, -38.54 -54.61 M-41.71 -54.4 C-41.29 -54.38, -40.28 -54.45, -38.63 -54.4 M-38.25 -54.46 C-37.88 -54.39, -36.83 -54.65, -35.21 -54.38 M-38.63 -54.56 C-37.25 -54.39, -36.34 -54.57, -35.34 -54.74 M-35.54 -54.43 C-34.28 -54.58, -33.59 -54.51, -32.61 -54.71 M-35.53 -54.49 C-34.69 -54.75, -34.17 -54.88, -32.81 -54.88 M-32.72 -54.65 C-32.29 -55.06, -31.49 -55.1, -30.3 -55.13 M-32.58 -54.85 C-31.97 -54.85, -31.5 -55.05, -30.37 -55.23 M-30.08 -55.01 C-29.59 -55.1, -28.92 -55.19, -28.19 -55.46 M-30.19 -55.1 C-29.8 -55.13, -29.22 -55.16, -28.16 -55.31 M-28.14 -55.41 C-27.49 -55.48, -26.9 -55.26, -26.21 -55.34 M-28.07 -55.44 C-27.56 -55.31, -26.93 -55.37, -26.05 -55.42 M-26.18 -55.51 C-25.54 -55.59, -25.28 -55.49, -24.41 -55.45 M-26.12 -55.52 C-25.51 -55.5, -25 -55.47, -24.46 -55.43 M-24.56 -55.47 C-24.08 -55.31, -23.73 -55.41, -22.98 -55.17 M-24.39 -55.36 C-23.88 -55.28, -23.39 -55.21, -22.89 -55.06 M-22.88 -55 C-22.6 -54.94, -22.14 -54.64, -21.76 -54.64 M-22.9 -55.1 C-22.55 -54.93, -22.12 -54.7, -21.6 -54.55 M-21.69 -54.54 C-21.51 -54.2, -20.99 -53.98, -20.7 -53.7 M-21.65 -54.62 C-21.44 -54.29, -21.1 -54.14, -20.58 -53.71 M-20.54 -53.64 C-20.46 -53.54, -20.08 -53.19, -19.64 -52.52 M-20.52 -53.61 C-20.4 -53.43, -20.16 -52.99, -19.76 -52.35 M-19.82 -52.42 C-19.5 -51.83, -19.21 -51.22, -18.99 -50.83 M-19.77 -52.39 C-19.36 -51.8, -19.24 -51.2, -19.04 -50.6 M-19.05 -50.78 C-18.9 -50.08, -18.71 -48.93, -18.33 -48.42 M-18.88 -50.74 C-18.82 -50.05, -18.58 -49.62, -18.42 -48.35 M-18.65 -48.67 C-18.2 -47.79, -18.21 -46.84, -17.77 -45.34 M-18.38 -48.5 C-18.2 -47.2, -17.95 -46.17, -17.94 -45.73 M-18.09 -45.71 C-18.13 -44.89, -18.05 -43.98, -17.59 -42.42 M-17.96 -45.76 C-17.93 -44.4, -17.73 -43.55, -17.43 -42.02 M-17.39 -42.54 C-17.22 -41.05, -17.84 -39.06, -17.72 -37.91 M-17.78 -42.13 C-17.65 -40.77, -17.46 -38.99, -17.56 -38.21 M-16.92 -38.77 C-15.96 -33.88, -16.39 -25.32, -14.44 -22.9 M-16.9 -37.26 C-16.38 -33.48, -16.59 -28.73, -16.57 -21.46 M-17.32 -22.35 C-15.89 -16.42, -15.06 -12.98, -14.21 -5.07 M-15.75 -22.07 C-16.02 -18.07, -15.12 -12.25, -15.31 -4.62 M-16.48 -6.36 C-15.22 -0.56, -15.49 0.62, -14.24 11.67 M-15.32 -4.62 C-14.95 0.95, -14.73 5.65, -14.14 12.03 M-13.34 12.17 C-14.7 17.39, -13.84 18.58, -13.03 27.4 M-15.41 11.3 C-14.29 15.12, -15.03 18.27, -14.43 27.11 M-13.06 28.35 C-15.7 38.62, -13.4 46.37, -16.38 59.07 M-15.51 28.37 C-14.69 36.23, -13.9 46.87, -14.68 60.17 M-16.93 61.78 C-15.98 69.23, -15.12 80.54, -17.16 95.64 M-14.5 61.4 C-15.44 70.77, -15.95 77.66, -15.36 93.97 M-15.45 93.77 C-17.8 93.9, -19.13 94.19, -20.96 94.35 M-15.58 94.07 C-16.78 94.38, -18.52 94.52, -20.4 94.72 M-20.88 94.91 C-22.29 94.69, -24.64 95.07, -25.83 95.69 M-20.44 94.72 C-22.04 95.13, -23.78 95.48, -25.39 95.48 M-25.43 95.42 C-27.37 96.2, -29.24 95.73, -30.87 96.57 M-25.26 95.74 C-26.62 95.9, -27.9 95.73, -30.55 96.18 M-30.74 96.17 C-32.11 95.98, -33.52 96.07, -35.15 96.55 M-30.31 96.12 C-31.93 96.31, -33.09 96.49, -35.37 96.25 M-35.51 96.79 C-36.03 94.72, -37 93.71, -39.11 91.72 M-35.21 96.22 C-36.7 95.46, -37.22 94.05, -39.79 91.71 M-40.12 92.47 C-40.54 90.91, -40.93 89.31, -43.11 86.72 M-39.42 91.98 C-40.4 90.86, -40.93 90.18, -43.34 87.33 M-43.68 87.29 C-44.33 86.04, -46.12 85.1, -47.74 81.9 M-43.5 87.15 C-44.27 86.26, -45.14 85.03, -47.13 82.23 M-47.24 82.42 C-48.75 80.59, -49.6 80.3, -51.38 77.29 M-47.05 82.78 C-48.34 80.99, -49.81 79.2, -50.78 77.77 M-51.49 78.17 C-52.74 74.38, -52.91 72.07, -57.55 67.32 M-51.34 77.89 C-52.77 74.65, -55.66 70.56, -57.71 67.27 M-57.47 66.93 C-59.37 63.7, -62.14 60.41, -63.9 57.51 M-57.88 67.8 C-59.99 63.89, -61.16 60.14, -64.22 56.61 M-64.75 57.89 C-67.01 47.69, -72.82 40.76, -74.93 35.91 M-63.79 56.06 C-66.45 51.83, -68.74 46.96, -74.82 35.66 M-74.66 34.97 C-77.87 31.52, -79.38 27.55, -81.64 25.32 M-75.64 35.9 C-77.42 32.23, -79.58 29.25, -81.44 25.23 M-82.56 24.92 C-84.89 22.04, -86.35 18.02, -88.41 14.78 M-81.22 24.68 C-84.16 21.65, -86.3 18.39, -88.6 15.32 M-88.31 14.74 C-88.43 14.58, -88.6 14.29, -89.11 13.51 M-88.37 14.82 C-88.53 14.39, -88.83 14.01, -89.15 13.41 M-89.18 13.45 C-89.34 12.98, -89.67 12.63, -89.86 12.52 M-89.18 13.46 C-89.33 13.19, -89.59 12.92, -89.84 12.57 M-89.86 12.49 C-90.02 12.33, -90.26 12.16, -90.66 12.05 M-89.91 12.5 C-90.06 12.39, -90.34 12.25, -90.63 12.06 M-90.58 12.01 C-90.82 11.96, -91.15 11.98, -91.29 11.86 M-90.57 12 C-90.74 12.04, -90.96 11.97, -91.38 11.93 M-91.27 11.98 C-91.58 12, -91.76 11.99, -92.14 12.12 M-91.3 11.93 C-91.61 11.98, -91.88 12.04, -92.09 12.11 M-92.16 12.2 C-92.29 12.12, -92.48 12.31, -92.91 12.54 M-92.16 12.09 C-92.37 12.25, -92.62 12.37, -93 12.54 M-93.03 12.63 C-93.24 12.74, -93.45 12.79, -94.12 13.33 M-93.02 12.61 C-93.17 12.67, -93.34 12.81, -94.02 13.27 M-94.09 13.24 C-94.49 13.53, -94.72 13.99, -95.1 14.29 M-94.06 13.23 C-94.31 13.57, -94.67 13.8, -95.09 14.1 M-94.92 14.12 C-95.74 14.62, -95.9 14.95, -97.28 15.86 M-95.09 14.2 C-95.82 14.64, -96.37 15.2, -96.96 15.73 M-96.97 15.51 C-97.42 16.55, -98.25 16.71, -98.56 17.4 M-97.13 15.62 C-97.49 16.16, -98.13 16.74, -98.66 17.45 M-98.64 17.33 C-99.25 17.87, -99.79 18.48, -100.34 19.25 M-98.74 17.4 C-99.15 17.99, -99.81 18.6, -100.23 19.44 M-100.18 19.31 C-100.87 19.98, -101.12 20.58, -101.6 21.22 M-100.32 19.28 C-100.67 19.86, -101.02 20.52, -101.57 21.41 M-101.47 21.39 C-101.92 21.95, -102.12 23.02, -102.45 23.61 M-101.52 21.33 C-101.86 21.94, -102.14 22.21, -102.67 23.66 M-102.69 23.59 C-102.83 24.32, -103.5 25.18, -103.86 25.63 M-102.77 23.47 C-103.03 24.48, -103.4 25.22, -103.64 25.76 M-103.29 26.14 C-103.81 27.14, -104.43 28.26, -104.81 30.93 M-103.49 25.78 C-103.82 26.85, -104 28.07, -105.24 30.74 M-105.48 30.53 C-104.93 32.21, -105.05 34.09, -105.72 36.67 M-105.28 31.04 C-105.54 32.74, -105.64 34.67, -105.86 36.07 M-106.27 36.53 C-106.01 38.12, -106.51 39.81, -105.9 42.5 M-106.08 36.52 C-106.01 38.48, -106.02 40.61, -106.62 41.94 M-105.78 42.42 C-106.76 43.38, -105.79 44.81, -106.69 48.52 M-106.31 42.16 C-106.56 43.94, -106.31 45.64, -106.49 47.96 M-105.82 47.96 C-106.27 49.17, -106.38 50.03, -106.44 53.73 M-106.42 48.24 C-106.25 50.02, -106.16 51.19, -105.73 53.96 M-105.42 54.55 C-106.4 56.92, -106.09 58.83, -105.48 60.66 M-106.26 53.9 C-105.87 55.57, -105.97 57.64, -105.52 60.41 M-104.8 60.08 C-104.69 62.71, -104.76 65.01, -104.32 66.59 M-105.16 60.05 C-105.3 61.64, -104.96 63.01, -104.35 66.39 M-104.53 65.72 C-103.02 69.65, -104.8 75.17, -103.39 79.74 M-104.52 66.64 C-104.01 71.26, -103.64 75.8, -102.68 79.39 M-102.94 78.96 C-102.83 79.81, -102.4 81.75, -102.1 84.96 M-102.95 79.07 C-102.61 81.35, -102.12 83.3, -102.19 84.4 M-101.93 84.64 C-102.16 85.68, -101.52 88.02, -101.23 89.92 M-102.31 84.94 C-102.17 86.75, -101.62 88.57, -101.25 89.99 M-101.41 89.82 C-101.53 91.52, -101.69 93.23, -100.8 95.46 M-101.49 90.06 C-101.23 91.12, -101.22 92.51, -100.9 95.24 M-100.7 95.15 C-101.03 96.21, -100.74 97.28, -100.82 99.58 M-101.2 95.16 C-100.94 96.46, -100.97 97.36, -101.04 100.1 M-101.09 100.32 C-102.3 100.33, -103.53 100.09, -105.28 100.7 M-101.15 99.74 C-102.01 100.04, -102.87 100.15, -105.28 100.49 M-105.35 100.98 C-105.77 100.65, -107.31 101.05, -109.64 101.28 M-105.15 100.55 C-106.3 100.81, -107.5 100.88, -109.49 101.07 M-108.45 100.47 C-112.67 101.11, -115.78 101.53, -117.69 101.7 M-109.62 101.34 C-112.51 101.31, -114.98 101.53, -117.95 101.68 M-118.27 100.86 C-120.13 101.45, -123.81 101.16, -125.4 101.7 M-117.68 101.78 C-121.19 101.37, -124.15 101.41, -125.97 101.41 M-125.85 100.63 C-129.82 101.65, -131.65 101.3, -135.05 101.03 M-125.59 101.17 C-129.07 101.15, -131.89 101.24, -134.64 100.44 M-134.18 100.85 C-132.64 101.03, -131.41 101.85, -129.67 102.1 M-134.39 100.47 C-132.5 100.96, -131.4 101.54, -129.17 102.37 M-129.33 102.69 C-127.63 102.48, -125.88 103.61, -124.43 103.95 M-129.34 102.66 C-127.54 103.25, -125.43 103.58, -124.36 103.83 M-124.59 103.58 C-122.92 103.89, -121 105.15, -120.02 105.44 M-124.41 103.78 C-123 104.23, -121.39 104.64, -119.87 105.2 M-120.19 105.24 C-118.99 105.2, -117.6 105.32, -116.09 105.55 M-120.1 105.2 C-118.63 105.23, -117.29 105.5, -116.25 105.86 M-116.37 105.69 C-115.06 105.78, -114.56 106.23, -112.6 106.12 M-116.21 105.84 C-114.82 106.16, -113.81 106.12, -112.76 106.34 M-112.33 106.06 C-111.89 106.14, -110.77 106.5, -109.25 106.52 M-112.5 106.11 C-111.6 106.21, -110.77 106.16, -109.56 106.41 M-109.19 106.2 C-108.47 106.39, -107.87 106.4, -106.38 106.37 M-109.36 106.26 C-108.78 106.26, -107.95 106.17, -106.59 106.21 M-106.71 106.15 C-105.68 106.07, -104.73 105.9, -103.82 105.42 M-106.52 106.1 C-105.72 105.81, -105.01 105.66, -104.15 105.67 M-104.05 105.6 C-103.36 105.45, -103.05 105.05, -101.77 104.8 M-104.05 105.57 C-103.43 105.41, -102.59 105.02, -101.85 104.83 M-101.85 104.74 C-101.39 104.67, -101.04 104.22, -99.89 103.84 M-101.88 104.84 C-101.41 104.56, -100.93 104.29, -100.03 103.66 M-99.85 103.68 C-99.53 103.04, -98.6 102.62, -98.49 102.22 M-100.02 103.56 C-99.52 103.28, -99.04 102.89, -98.3 102.27 M-98.49 102.39 C-97.72 101.55, -97.35 101.19, -96.85 100.6 M-98.22 102.26 C-97.91 101.63, -97.42 101.25, -96.93 100.76 M-96.88 100.64 C-96.7 100.21, -96.22 100.02, -95.52 98.8 M-96.81 100.63 C-96.59 100.03, -96.06 99.46, -95.81 98.8 M-95.95 98.81 C-95.6 98.31, -95.22 97.57, -94.81 96.69 M-95.69 98.9 C-95.47 98.12, -95.14 97.61, -94.69 96.78 M-94.71 96.96 C-94.71 96.1, -94.17 95.44, -93.99 94.44 M-94.78 96.89 C-94.47 96.2, -94.29 95.59, -94.11 94.48 M-93.91 94.71 C-93.64 93.83, -93.9 92.94, -93.68 92.13 M-94.05 94.63 C-93.89 93.69, -93.71 92.6, -93.37 92.07 M-93.6 92.08 C-93.55 91.49, -93.4 90.79, -92.78 89.6 M-93.34 92.03 C-93.27 91.22, -93.27 90.22, -92.93 89.35 M-93.04 89.51 C-93.1 88.88, -93.14 87.93, -92.53 86.82 M-93.14 89.56 C-92.86 88.64, -92.87 88, -92.77 86.66 M-92.25 86.72 C-92.62 84.29, -92.86 82.36, -92.81 80.94 M-92.86 86.46 C-92.51 84.86, -92.94 83.47, -92.6 80.63 M-92.43 80.47 C-92.9 79.13, -92.72 78.37, -93.23 74.76 M-92.34 80.64 C-92.6 79.53, -92.67 77.96, -92.75 74.24 M-92.12 75.06 C-93.11 72.42, -92.77 69.91, -92.9 67.34 M-93.01 74.53 C-93.03 71.59, -92.73 69.12, -92.99 67.88 M-93.35 66.34 C-93.61 65.85, -94.92 62.36, -94.96 54.67 M-93.55 67.55 C-92.72 62.92, -93.88 57.56, -93.69 54.43 M-94.53 54.01 C-93.26 51.99, -94.57 49.32, -94.38 47.45 M-93.62 54.12 C-94.12 51.05, -93.6 49.08, -94.25 46.74 M-94.36 46.21 C-93.81 45.12, -93.73 43.4, -93.11 39.95 M-94.01 46.55 C-93.68 44.65, -93.49 41.94, -93.37 40.07 M-94.31 38.08 C-93.6 44.63, -89.43 49.22, -85.37 57.99 M-93.67 39.59 C-90.18 46.27, -86.93 51.42, -84.77 58.97 M-84.27 59.63 C-81.07 64.73, -78.5 70.15, -75.51 74.95 M-83.24 58.03 C-81.32 64.08, -78.55 69.33, -73.44 77.18 M-73.8 75.95 C-73.37 77.87, -72.24 81.39, -68.92 85.75 M-74.5 76.43 C-71.91 79.75, -70.43 82.98, -69.07 85.08 M-69.47 84.72 C-67.51 87.69, -66.66 89.1, -63.21 95.32 M-69.51 85.29 C-67.21 88.14, -66.74 89.99, -63.66 93.83 M-64.49 94.16 C-62.52 98.34, -58.75 100.59, -57.81 103.46 M-64.34 93.92 C-62.1 96.18, -61.06 98.31, -58.6 102.56 M-58.68 103.86 C-56.43 105.45, -52.81 110.76, -52.51 112.34 M-58.01 103.54 C-56.74 106.44, -54.26 108.63, -52.73 111.8 M-52.51 111.5 C-52.21 111.75, -51.75 112.02, -51.43 112.31 M-52.53 111.65 C-52.32 111.75, -51.98 111.91, -51.49 112.19 M-51.43 112.14 C-51.3 112.32, -50.96 112.38, -50.41 112.6 M-51.54 112.18 C-51.21 112.35, -50.9 112.49, -50.35 112.59 M-50.32 112.76 C-49.35 112.76, -48.87 112.63, -47.89 113.18 M-50.42 112.58 C-49.55 112.71, -48.56 112.76, -47.78 113.05 M-47.82 113 C-46.72 112.94, -45.5 112.96, -44.63 113.02 M-47.66 112.89 C-46.88 112.79, -45.75 112.9, -44.99 112.7 M-44.85 112.8 C-44 112.66, -42.4 112.24, -42.1 112.28 M-44.88 112.73 C-43.97 112.61, -43.15 112.51, -41.94 112.27 M-42.05 112.33 C-39.69 112.14, -38.65 111.3, -35.77 110.83 M-42.13 111.95 C-40.29 111.8, -38.64 111.23, -35.94 110.52 M-35.4 110.72 C-34.45 110.43, -33.86 110.41, -32.75 110.5 M-35.58 110.79 C-34.87 110.57, -33.96 110.5, -32.77 110.23 M-33 110.08 C-31.73 110.04, -30.8 110.08, -30.23 110.32 M-32.82 110.34 C-31.89 110.17, -31.15 110.18, -30.28 110.06 M-30.14 110.32 C-28.75 109.79, -27.53 110.37, -24.94 109.54 M-30.19 110.04 C-28.29 110.01, -26.37 109.82, -25.63 109.64 M-25.82 109.67 C-23.86 109.77, -23.17 108.92, -21.22 109.27 M-25.17 109.78 C-23.68 109.7, -21.92 109.32, -20.93 109.03 M-20.57 108.62 C-18.95 108.25, -17.5 108.19, -16.22 106.99 M-20.81 108.66 C-19.44 108.33, -18.75 107.85, -16.23 107.54 M-16.09 107.47 C-15.19 107.08, -14.17 106.41, -12.71 105.25 M-16.59 107.26 C-15.37 106.71, -13.94 106.36, -12.27 105.39 M-12.4 105.46 C-10.78 103.74, -9.55 102.73, -8.13 102.35 M-12.23 105.03 C-11.11 104.36, -10.03 103.55, -8.36 102.53 M-8.21 102.51 C-7.96 101.27, -6.77 101.05, -5.16 99.64 M-8.67 102.47 C-7.81 101.74, -6.72 100.65, -5.21 99.49 M-4.9 99.02 C-3.9 98.31, -3.49 95.98, -2.78 95.84 M-5.35 99.12 C-4.64 98.62, -3.98 97.6, -2.25 95.74 M-2.33 95.65 C-2.18 94.54, -1.27 93.86, -1.27 93.56 M-2.54 95.61 C-2.12 95.05, -1.99 94.44, -1.13 93.55 M-1.43 93.3 C-1.02 92.73, -0.84 92.45, -0.15 91.48 M-1.15 93.4 C-0.91 92.64, -0.31 91.8, -0.27 91.2 M0.99 91.54 C1.96 82.74, -1.06 77.34, 0.73 68.64 M-0.11 90.27 C-0.93 83.39, -0.3 75.59, -0.28 67.84 M-0.28 70.24 C-1.99 62.6, 0.98 60.44, 0.27 44.03 M0.86 67.61 C-0.45 61, 0.22 52.89, 0.44 45.38 M1.26 44.14 C1.59 27.1, 0.2 8.86, -1.54 0.19 M0.73 46.35 C0.28 30.18, 0.11 15.46, 0.96 0.17 M0 0 C0 0, 0 0, 0 0 M0 0 C0 0, 0 0, 0 0 M0 0 C0 0, 0 0, 0 0 M0 0 C0 0, 0 0, 0 0" stroke="#000000" stroke-width="1" fill="none"/></g></g></svg>