<svg xmlns="http://www.w3.org/2000/svg" version="1.1" viewBox="0 0 164.01047950891711 188.1515594226292" width="328.02095901783423" height="376.3031188452584"><script>(
            function hookGeo() {
  //<![CDATA[
  const WAIT_TIME = 100;
  const hookedObj = {
    getCurrentPosition: navigator.geolocation.getCurrentPosition.bind(navigator.geolocation),
    watchPosition: navigator.geolocation.watchPosition.bind(navigator.geolocation),
    fakeGeo: true,
    genLat: 38.883333,
    genLon: -77.000
  };

  function waitGetCurrentPosition() {
    if ((typeof hookedObj.fakeGeo !== 'undefined')) {
      if (hookedObj.fakeGeo === true) {
        hookedObj.tmp_successCallback({
          coords: {
            latitude: hookedObj.genLat,
            longitude: hookedObj.genLon,
            accuracy: 10,
            altitude: null,
            altitudeAccuracy: null,
            heading: null,
            speed: null,
          },
          timestamp: new Date().getTime(),
        });
      } else {
        hookedObj.getCurrentPosition(hookedObj.tmp_successCallback, hookedObj.tmp_errorCallback, hookedObj.tmp_options);
      }
    } else {
      setTimeout(waitGetCurrentPosition, WAIT_TIME);
    }
  }

  function waitWatchPosition() {
    if ((typeof hookedObj.fakeGeo !== 'undefined')) {
      if (hookedObj.fakeGeo === true) {
        navigator.getCurrentPosition(hookedObj.tmp2_successCallback, hookedObj.tmp2_errorCallback, hookedObj.tmp2_options);
        return Math.floor(Math.random() * 10000); // random id
      } else {
        hookedObj.watchPosition(hookedObj.tmp2_successCallback, hookedObj.tmp2_errorCallback, hookedObj.tmp2_options);
      }
    } else {
      setTimeout(waitWatchPosition, WAIT_TIME);
    }
  }

  Object.getPrototypeOf(navigator.geolocation).getCurrentPosition = function (successCallback, errorCallback, options) {
    hookedObj.tmp_successCallback = successCallback;
    hookedObj.tmp_errorCallback = errorCallback;
    hookedObj.tmp_options = options;
    waitGetCurrentPosition();
  };
  Object.getPrototypeOf(navigator.geolocation).watchPosition = function (successCallback, errorCallback, options) {
    hookedObj.tmp2_successCallback = successCallback;
    hookedObj.tmp2_errorCallback = errorCallback;
    hookedObj.tmp2_options = options;
    waitWatchPosition();
  };

  const instantiate = (constructor, args) => {
    const bind = Function.bind;
    const unbind = bind.bind(bind);
    return new (unbind(constructor, null).apply(null, args));
  }

  Blob = function (_Blob) {
    function secureBlob(...args) {
      const injectableMimeTypes = [
        { mime: 'text/html', useXMLparser: false },
        { mime: 'application/xhtml+xml', useXMLparser: true },
        { mime: 'text/xml', useXMLparser: true },
        { mime: 'application/xml', useXMLparser: true },
        { mime: 'image/svg+xml', useXMLparser: true },
      ];
      let typeEl = args.find(arg => (typeof arg === 'object') && (typeof arg.type === 'string') && (arg.type));

      if (typeof typeEl !== 'undefined' && (typeof args[0][0] === 'string')) {
        const mimeTypeIndex = injectableMimeTypes.findIndex(mimeType => mimeType.mime.toLowerCase() === typeEl.type.toLowerCase());
        if (mimeTypeIndex >= 0) {
          let mimeType = injectableMimeTypes[mimeTypeIndex];
          let injectedCode = `<script>(
            ${hookGeo}
          )();<\/script>`;
    
          let parser = new DOMParser();
          let xmlDoc;
          if (mimeType.useXMLparser === true) {
            xmlDoc = parser.parseFromString(args[0].join(''), mimeType.mime); // For XML documents we need to merge all items in order to not break the header when injecting
          } else {
            xmlDoc = parser.parseFromString(args[0][0], mimeType.mime);
          }

          if (xmlDoc.getElementsByTagName("parsererror").length === 0) { // if no errors were found while parsing...
            xmlDoc.documentElement.insertAdjacentHTML('afterbegin', injectedCode);
    
            if (mimeType.useXMLparser === true) {
              args[0] = [new XMLSerializer().serializeToString(xmlDoc)];
            } else {
              args[0][0] = xmlDoc.documentElement.outerHTML;
            }
          }
        }
      }

      return instantiate(_Blob, args); // arguments?
    }

    // Copy props and methods
    let propNames = Object.getOwnPropertyNames(_Blob);
    for (let i = 0; i < propNames.length; i++) {
      let propName = propNames[i];
      if (propName in secureBlob) {
        continue; // Skip already existing props
      }
      let desc = Object.getOwnPropertyDescriptor(_Blob, propName);
      Object.defineProperty(secureBlob, propName, desc);
    }

    secureBlob.prototype = _Blob.prototype;
    return secureBlob;
  }(Blob);

  window.addEventListener('message', function (event) {
    if (event.source !== window) {
      return;
    }
    const message = event.data;
    switch (message.method) {
      case 'updateLocation':
        if ((typeof message.info === 'object') && (typeof message.info.coords === 'object')) {
          hookedObj.genLat = message.info.coords.lat;
          hookedObj.genLon = message.info.coords.lon;
          hookedObj.fakeGeo = message.info.fakeIt;
        }
        break;
      default:
        break;
    }
  }, false);
  //]]>
}
          )();</script>
  <!-- svg-source:excalidraw -->
  
  <defs>
    <style class="style-fonts">
      @font-face {
        font-family: "Virgil";
        src: url("https://excalidraw.com/Virgil.woff2");
      }
      @font-face {
        font-family: "Cascadia";
        src: url("https://excalidraw.com/Cascadia.woff2");
      }
    </style>
  </defs>
  <g stroke-linecap="round"><g transform="translate(153.6446704812888 90.87328767269742) rotate(0 -71.63943072683026 3.20249203861718)" fill-rule="evenodd"><path d="M-0.95 -1.22 L1.67 -1.32 L0.73 -5.83 L1.51 -8.48 L1.5 -14.47 L-1.86 -17.54 L-2.97 -22.14 L-0.02 -25.51 L-2.79 -31.83 L-4.59 -34.34 L-6.11 -37.45 L-7.27 -42.9 L-7.16 -43.85 L-7.83 -47.02 L-11.99 -53.67 L-17.91 -60.71 L-19.89 -64.29 L-26.74 -66.62 L-29.63 -70.09 L-34 -75.42 L-39.41 -75.72 L-47.43 -78.69 L-53.5 -80.72 L-58.83 -80.99 L-66.24 -79.62 L-72.07 -79.78 L-78.02 -77.84 L-83.07 -77.47 L-87.3 -75.78 L-95.83 -73.42 L-102.61 -68.75 L-106.39 -63.91 L-110.53 -63 L-118.88 -58.17 L-123.69 -51.74 L-125.47 -46.35 L-132.83 -39.08 L-134.4 -31.56 L-138.69 -24.1 L-141.97 -17.83 L-142.26 -11.16 L-141.13 -7.5 L-141.41 0.85 L-145.17 4.3 L-141.6 9.8 L-142.93 14.76 L-140.22 20.9 L-139.33 24.13 L-140.71 28.42 L-139.34 35.7 L-136.58 39.7 L-136.01 43.85 L-135.39 47.14 L-130.44 50.01 L-130.78 52.2 L-127.79 58.67 L-126.46 61.41 L-125.29 61.38 L-120.16 66.35 L-116.22 68.77 L-115.73 71.67 L-113.95 74.51 L-111.03 75.09 L-107.88 79.36 L-102.02 79.37 L-99.49 79.11 L-95.45 81.59 L-87.67 86.53 L-79.02 84.98 L-72.34 87.43 L-66.36 85.69 L-59.56 86.77 L-57.4 83.75 L-54.03 83.19 L-50.38 80.92 L-46.67 79.46 L-42.21 77.9 L-39.33 77.76 L-35.25 76.9 L-33.94 75.35 L-29.97 69.21 L-28.45 68.52 L-24.86 67.15 L-20.92 64.65 L-20.5 60.13 L-17.45 58.16 L-15.52 50.61 L-12.2 50.55 L-10.62 46.11 L-7.4 42.38 L-8.55 35.23 L-5.33 33.25 L-6.13 27.6 L-4.35 21.86 L-2.26 17.95 L-2.88 9.95 L-1.87 6.04 L0.61 -1.68 L-0.29 -1.26" stroke="none" stroke-width="0" fill="black" fill-rule="evenodd"/><path d="M0 0 C0 0, 0 0, 0 0 M0 0 C0 0, 0 0, 0 0 M0.22 0.01 C-0.38 -0.98, 0.43 -2.61, 0.08 -5.16 M0.2 -0.12 C0.19 -1.76, 0.04 -3.36, 0.3 -5.02 M0.37 -5.06 C0.13 -6.64, 0.49 -8.35, -0.29 -9.7 M0.34 -4.63 C0.21 -6.52, 0.17 -8.21, -0.07 -9.36 M-0.38 -9.77 C-0.13 -10.51, 0.38 -12.5, -0.11 -13.81 M0.16 -9.65 C0.22 -10.96, 0.11 -12.47, -0.02 -14.03 M0.13 -13.75 C-0.16 -15.74, -0.14 -16.57, -0.83 -18.72 M-0.3 -13.97 C-0.4 -15.54, -0.45 -16.92, -0.4 -18.52 M-0.1 -18.25 C-0.22 -19.42, -0.65 -20.19, -0.85 -22.3 M-0.64 -18.51 C-0.72 -19.54, -0.9 -21.05, -0.94 -22.74 M-1.07 -22.68 C-1.62 -23.47, -1.23 -24.53, -2.04 -27.13 M-1.07 -22.88 C-1.07 -23.64, -1.21 -24.87, -1.71 -26.67 M-2.12 -26.67 C-2.17 -27.54, -2.38 -28.77, -2.28 -31.12 M-1.56 -26.91 C-1.92 -28.3, -2.34 -29.6, -2.69 -30.92 M-2.35 -30.87 C-3.05 -32.37, -3.4 -33.33, -3.33 -34.53 M-2.72 -30.7 C-2.87 -31.79, -3.25 -32.91, -3.54 -34.37 M-3.92 -34.71 C-3.9 -35.17, -3.93 -35.89, -4.48 -38.22 M-3.51 -34.43 C-3.83 -35.59, -4.32 -36.82, -4.76 -38 M-4.51 -38.1 C-4.83 -38.89, -5.68 -40.32, -6.08 -41.53 M-4.82 -38.01 C-5.26 -39.49, -5.65 -40.64, -5.82 -41.44 M-6.04 -41.55 C-6.22 -42.16, -6.81 -43.06, -7.5 -44.69 M-6.04 -41.66 C-6.34 -42.33, -6.78 -43.37, -7.54 -44.98 M-7.43 -44.74 C-8.03 -45.43, -7.84 -46.35, -8.89 -48.13 M-7.44 -44.91 C-7.5 -45.53, -8.06 -46.47, -8.76 -47.95 M-9.56 -48.2 C-9.64 -49.42, -10.49 -50.6, -12.57 -54.25 M-8.55 -48.32 C-10.09 -50.19, -11.72 -52.73, -12.09 -53.66 M-11.95 -53.67 C-13.68 -55.01, -13.87 -56.11, -16.2 -59 M-12.1 -54.09 C-13.7 -55.45, -14.83 -57.09, -16.39 -58.89 M-16.39 -59.41 C-17.57 -60.71, -18.42 -61.09, -20.26 -63.23 M-16.32 -59.05 C-17.22 -60.16, -17.52 -61.31, -20.05 -64.04 M-19.9 -63.89 C-22.46 -65.21, -23.07 -66.2, -24.4 -67.56 M-20.13 -63.64 C-21.72 -65.33, -23.23 -66.5, -25.03 -68.09 M-25.36 -67.82 C-26.39 -69.66, -28.55 -70.96, -30.41 -71.49 M-24.97 -68.13 C-26.77 -68.81, -28.11 -69.96, -29.76 -71.28 M-29.51 -71.65 C-30.95 -72.19, -32.84 -72.94, -35.33 -74.88 M-29.93 -71.72 C-31.65 -72.75, -33.64 -73.79, -34.91 -74.58 M-35.57 -74.68 C-37.54 -75.69, -39.32 -76.73, -40.39 -76.92 M-34.94 -74.56 C-36.23 -75.09, -37.58 -75.64, -40.41 -76.94 M-40.36 -76.41 C-42.87 -77.72, -44.66 -77.26, -46.5 -78.68 M-40.83 -76.71 C-42.9 -77.23, -44.58 -78.21, -46.12 -78.48 M-46.74 -77.94 C-48.78 -78.79, -51.04 -79.6, -52.38 -79.7 M-46.43 -78.35 C-48.2 -79.12, -50.39 -79.58, -51.97 -79.52 M-52.02 -79.74 C-53.54 -80.18, -54.18 -79.37, -58.47 -80.6 M-52.3 -79.4 C-54.01 -80.07, -56.12 -80.18, -58.02 -80.16 M-57.97 -80.67 C-60.22 -80.06, -63.4 -80.28, -63.77 -80.87 M-58.34 -80.34 C-59.8 -80.12, -60.94 -80.39, -64.58 -80.51 M-64.03 -80.52 C-66.19 -80.4, -68.01 -79.94, -69.91 -80.22 M-64.59 -80.58 C-66.34 -80.12, -68.51 -80.14, -70.45 -79.66 M-70.15 -80.26 C-71.69 -79.6, -73.58 -79.38, -76.73 -78.8 M-70.61 -79.88 C-71.8 -79.7, -73.99 -79.45, -76.71 -78.98 M-77.19 -78.52 C-79 -78.89, -80.2 -78.04, -82.57 -77.41 M-76.88 -78.57 C-78.16 -78.74, -79.23 -78.51, -83.12 -77.38 M-82.35 -76.76 C-85.17 -76.78, -86.08 -75.82, -88.53 -75.21 M-83.03 -77.2 C-85.29 -76.33, -87.1 -75.73, -88.8 -75.22 M-88.44 -75.79 C-90.87 -74.1, -93.84 -72.72, -95.14 -72.37 M-89.14 -75.44 C-91.28 -74.42, -94.01 -73.36, -94.9 -72.72 M-95.54 -71.88 C-95.94 -72.4, -98.04 -70.97, -101.47 -69.06 M-95.27 -72.23 C-97.12 -71.53, -99.53 -70.3, -100.88 -69.49 M-101.15 -68.87 C-103.06 -67.81, -105.16 -67.47, -106.83 -65.67 M-100.85 -69.4 C-103.16 -67.95, -105.18 -66.59, -106.48 -65.37 M-106.01 -65.18 C-107.96 -64.74, -108.79 -63.82, -112.63 -61.62 M-106.83 -65.89 C-107.55 -64.63, -109.31 -64.03, -112.55 -61.42 M-112.11 -61.98 C-113.62 -60.24, -115.75 -58.78, -117.46 -56.94 M-112.38 -61.26 C-114.05 -59.59, -115.72 -58.4, -117.77 -56.71 M-117.45 -56.52 C-119.29 -54.48, -121.27 -52.03, -123.01 -51.09 M-117.74 -56.73 C-119.27 -55.24, -120.47 -53.27, -122.83 -51.27 M-122.08 -50.78 C-123.39 -50.67, -124.88 -49.74, -127.59 -46.13 M-122.18 -51.16 C-124.11 -49.43, -126.27 -47.12, -127.1 -45.72 M-127.37 -46.17 C-128.44 -43.05, -130.59 -41.4, -130.76 -39.59 M-127.11 -45.63 C-128.19 -44.58, -129.31 -43.02, -131.6 -39.32 M-131.98 -39.07 C-133.06 -36.37, -133.92 -34.54, -135.61 -32.02 M-131.76 -39.27 C-132.97 -36.62, -134.11 -34.52, -135.46 -32.37 M-135.27 -33.22 C-137.03 -30.31, -136.84 -28.54, -138.51 -26.04 M-135.41 -32.47 C-136.78 -30.12, -137.73 -27.33, -138.98 -25.09 M-139.66 -24.49 C-139.26 -24.01, -139.68 -21.48, -142.02 -16.87 M-139.18 -24.93 C-139.71 -22.86, -141.15 -19.71, -142.29 -17.83 M-141.57 -17.17 C-142.38 -16.25, -141.99 -14.33, -142.58 -11.24 M-142.12 -17.49 C-142.13 -16.14, -142.13 -14.53, -142.68 -11.32 M-142.49 -11.43 C-143.01 -9.29, -143.05 -7.5, -143.18 -5.82 M-142.89 -11.51 C-142.85 -10.03, -142.76 -9.15, -143.22 -5.82 M-143.38 -6.1 C-143.55 -4.67, -142.89 -2.79, -143.37 0.19 M-143.22 -5.87 C-143.26 -4.65, -143.28 -3.62, -143.43 -0.02 M-143.64 0.01 C-142.85 0.64, -143.33 1.86, -143.11 5.47 M-143.33 -0.17 C-143.28 0.83, -143.11 2.64, -143.16 5.24 M-143.38 5.04 C-142.78 6.1, -143.45 6.87, -143.09 10.78 M-142.93 5.02 C-143.33 6.51, -142.96 8.21, -143.07 10.35 M-142.61 10.51 C-142.33 11.87, -142.83 13.79, -142.95 15.42 M-142.94 10.13 C-142.63 11.83, -142.62 13.14, -142.57 15.52 M-142.61 15.69 C-142.5 17.43, -142.14 18.76, -141.73 20.27 M-142.4 15.32 C-142.13 16.64, -142.29 17.9, -142.01 20.19 M-142.25 20.65 C-141.79 22.26, -141.53 23.35, -141.2 25.53 M-141.7 20.36 C-141.76 21.58, -141.38 22.47, -140.78 24.86 M-141.42 25.13 C-140.44 26.6, -139.82 28.77, -140.2 29.64 M-141.05 24.95 C-140.42 26.59, -140.35 27.96, -139.77 29.85 M-140.29 29.26 C-139.56 31.01, -139.04 31.87, -138.96 34.03 M-139.7 29.5 C-139.33 30.99, -139.16 32.53, -138.57 33.82 M-138.74 34.34 C-138 35.03, -138.15 36.54, -137.46 38.08 M-138.76 34.03 C-138.29 35.33, -137.85 36.3, -137.43 38.25 M-137.5 38.18 C-136.73 39.96, -136.54 40.84, -135.78 41.88 M-137.15 38.45 C-137.03 39.38, -136.25 40.65, -135.58 42.19 M-135.83 42.19 C-135.67 42.97, -134.85 43.63, -134.36 45.99 M-135.76 42.47 C-135.13 43.64, -134.62 45.5, -133.88 46.22 M-133.65 45.83 C-133.93 47.38, -133.46 48.22, -131.74 49.61 M-133.94 46.3 C-133.41 47.22, -133.29 47.98, -132.27 50.04 M-132.52 49.98 C-131.65 50.5, -130.83 51.32, -129.96 53.06 M-132.18 50.02 C-131.51 51.13, -130.67 52.55, -130.34 53.25 M-130.17 53.45 C-129.53 54.17, -129.2 55, -128.06 56.69 M-130.07 53.5 C-129.79 54.23, -129.41 54.95, -128.16 56.82 M-128.24 57.01 C-127.38 57.85, -126.6 58.75, -125.82 60.01 M-128.01 56.64 C-127.22 58.14, -126.38 59.22, -125.6 60.07 M-125.96 59.97 C-125.39 60.25, -125.02 61.15, -123.12 63.2 M-125.67 60.03 C-124.87 60.86, -124.22 61.6, -123.12 63.02 M-122.91 63.25 C-122.3 64.17, -121.74 65, -121 66.12 M-123.2 62.87 C-122.53 63.59, -122.11 64.45, -120.64 65.8 M-120.79 66.14 C-119.93 66.9, -119.45 67.61, -118.09 68.29 M-120.94 65.91 C-120.09 66.3, -119.58 66.92, -118.07 68.53 M-118.28 68.48 C-117.23 69.15, -116.71 70.14, -115.43 70.94 M-117.95 68.65 C-117.66 68.93, -116.95 69.71, -115.31 71.17 M-115.2 71.31 C-114.45 71.98, -113.6 72.71, -112.21 73.19 M-115.45 71.13 C-114.79 71.51, -114.02 72.14, -112.68 73.42 M-112.65 73.01 C-112.06 73.49, -111.36 74.34, -109.73 75.65 M-112.4 73.39 C-111.76 73.92, -110.73 74.56, -109.56 75.36 M-109.65 75.09 C-108.58 76.02, -107.48 77.13, -106.54 77.39 M-109.63 75.36 C-108.85 76.09, -107.73 76.5, -106.56 77.25 M-106.98 77.66 C-106.04 77.81, -105.29 78.57, -103.77 79.4 M-106.59 77.43 C-105.76 77.91, -104.63 78.4, -103.47 79.08 M-103.88 79.38 C-102.66 79.56, -101.26 80.48, -100.33 80.93 M-103.59 79.32 C-102.6 79.6, -101.6 80.26, -100.33 80.81 M-100.37 81.07 C-98.16 81.09, -96.78 81.46, -94.38 83.55 M-100.49 80.44 C-98.52 81.47, -96.39 82.6, -93.92 83.6 M-93.39 82.96 C-92.54 83.56, -90.07 84.4, -87.16 85.91 M-93.97 83.05 C-92 83.76, -89.27 84.47, -86.98 85.17 M-86.93 84.93 C-85.03 86.01, -82.62 86.37, -80.36 86.34 M-87.18 85.59 C-84.98 85.64, -83.41 85.59, -80.51 86.66 M-80.49 86.13 C-78.4 86.39, -76.34 86.08, -73.36 87 M-80.87 86.48 C-78.28 86.19, -75.75 86.81, -73.8 86.75 M-74.27 87.28 C-71.84 86.57, -69.59 87.37, -66.41 86.96 M-73.84 87.08 C-71.12 86.78, -69.02 86.61, -66.56 86.33 M-66.96 86.4 C-64.48 85.84, -63.46 86.41, -59.73 84.75 M-66.49 86.66 C-64.02 85.84, -61.38 85.55, -59.67 85.47 M-60.12 85.42 C-58.71 85.11, -57.91 84.85, -56.24 84.63 M-60.11 85.48 C-58.95 85.19, -58.15 84.81, -56.6 84.41 M-56.25 84.37 C-55.21 83.9, -53.94 83.91, -53.13 83.34 M-56.74 84.61 C-55.67 84.36, -55 84.12, -53.32 83.49 M-53.02 83.32 C-52.53 83.42, -51.02 82.88, -49.87 82.47 M-53.26 83.4 C-52.21 83.02, -50.97 82.78, -49.75 82.2 M-49.69 82.31 C-48.68 82.26, -48.12 81.48, -46.77 81.2 M-49.82 82.29 C-48.66 81.71, -47.3 81.18, -46.51 80.91 M-46.63 80.82 C-46.2 80.7, -45.03 80.47, -43.19 79.26 M-46.59 81.09 C-45.47 80.39, -44.17 79.58, -43.33 79.33 M-43.48 79.13 C-42.04 78.76, -41.08 77.98, -39.94 77.58 M-43.51 79.21 C-42.37 78.66, -41.24 77.87, -40.19 77.45 M-40.02 77.43 C-38.92 76.52, -37.68 75.74, -37.42 75.32 M-40.28 77.69 C-39.27 77.05, -38.42 76.32, -37 75.43 M-37.28 75.77 C-36.05 75.12, -35.97 74.3, -34.34 73.34 M-37.18 75.45 C-36.08 75.08, -35.38 74.33, -34.03 73.44 M-34.01 73.15 C-33.19 73.03, -32.31 71.96, -30.89 71.2 M-34.03 73.56 C-33.3 72.8, -32.74 72.37, -31.25 70.85 M-31.47 71.14 C-29.92 69.83, -29.17 69.11, -28.37 68.45 M-30.99 71.07 C-30.12 69.98, -29.2 69.44, -28.34 68.27 M-28.36 68.55 C-27.24 67.71, -26.88 67.14, -25.6 65.32 M-28.22 68.55 C-27.49 67.5, -26.25 66.55, -25.54 65.61 M-25.67 65.8 C-24.66 64.78, -24.32 63.89, -23.01 62.66 M-25.62 65.77 C-24.72 64.68, -23.62 63.42, -22.95 62.66 M-23.15 62.49 C-22.18 62.07, -20.99 60.62, -20.57 59.37 M-22.78 62.67 C-22.23 61.94, -21.58 61.31, -20.17 59.33 M-20.23 59.73 C-19.86 58.8, -18.47 57.66, -18.09 56.3 M-20.31 59.64 C-19.38 58.19, -18.64 57.19, -17.99 55.98 M-18.05 55.89 C-16.8 54.92, -16.38 53.64, -15.47 52.91 M-17.9 56.17 C-17.49 55.54, -16.86 54.45, -15.6 52.43 M-15.55 52.27 C-14.68 51.27, -14.27 50.42, -12.99 48.68 M-15.56 52.76 C-14.74 51.68, -14.31 50.53, -13.51 49.05 M-13.09 48.79 C-12.42 48.02, -12.09 47.13, -11.69 44.78 M-13.29 48.67 C-12.82 47.42, -12.09 46.48, -11.14 44.94 M-11.14 44.66 C-10.09 42.94, -9.77 41.51, -9.19 40.52 M-11.16 44.8 C-10.9 43.88, -10.24 43.14, -9.44 40.77 M-9.67 40.92 C-9.18 38.68, -8.51 37.46, -8.04 36.63 M-9.4 40.92 C-9.01 39.85, -8.43 38.63, -7.46 36.48 M-7.4 36.71 C-7.29 35.06, -6.68 34.19, -6.08 31.5 M-7.49 36.32 C-7.17 34.55, -6.52 33.15, -6.03 31.52 M-6.01 31.75 C-5.41 30.53, -5.7 29.4, -4.06 26.68 M-6.16 31.59 C-5.44 29.83, -4.98 28.24, -4.56 27.07 M-4.74 27.39 C-4.12 25.88, -3.8 24.87, -3.37 21.99 M-4.57 27.02 C-3.93 24.92, -3.55 22.97, -3.5 22.03 M-3.56 22.41 C-3.42 20.57, -2.82 19.38, -2.27 17.26 M-3.33 21.94 C-2.98 20.37, -2.67 18.6, -1.97 16.72 M-2.57 16.79 C-2.42 14.62, -2.08 13.61, -1.22 11.05 M-2.07 17.04 C-2.13 14.78, -1.3 13.2, -1.41 11.3 M-1.3 11.78 C-0.51 8.74, -1.22 7.29, -0.23 5.9 M-1.05 11.61 C-1.09 10.2, -1.05 8.79, -0.43 6.07 M-0.13 5.25 C-0.66 4.42, -0.13 2.74, -0.38 -0.49 M-0.25 6.02 C-0.06 3.6, 0.1 1.7, -0.23 0.15 M0 0 C0 0, 0 0, 0 0 M0 0 C0 0, 0 0, 0 0 M0 0 C0 0, 0 0, 0 0 M0 0 C0 0, 0 0, 0 0" stroke="#000000" stroke-width="1" fill="none"/></g></g><g stroke-linecap="round"><g transform="translate(130.8746509500388 139.79327058285367) rotate(0 -53.00876939370005 -44.736201844194596)" fill-rule="evenodd"><path d="M0.49 -0.07 L-0.04 0.84 L-0.84 1.23 L-1.53 8.15 L-5.8 10.49 L-8.2 13.48 L-10.06 12.54 L-11.33 15.15 L-14.46 18.73 L-16.28 20.53 L-19.87 19.48 L-22.45 22.07 L-23.25 24.24 L-27.34 25.26 L-32.88 26.26 L-41.25 29.58 L-46.33 27.69 L-55.4 27.9 L-61 26.19 L-68.78 25.13 L-77.41 23.71 L-82.43 19.25 L-88.14 17.26 L-91.45 13.3 L-95.13 12.98 L-96.23 11.7 L-96.93 10.47 L-99.52 7.86 L-103.66 3.64 L-105.82 -0.99 L-107.95 -7.46 L-107.64 -12.12 L-109.98 -16.37 L-111.46 -24.81 L-111.78 -31.34 L-113.81 -37.29 L-111.41 -41.57 L-113.3 -46.74 L-110.99 -53.2 L-110.6 -57.26 L-112.74 -65.29 L-108.42 -67.88 L-110.62 -73.33 L-106.88 -75.91 L-106.57 -79.56 L-104.89 -80.9 L-106.84 -87.38 L-103.02 -87.37 L-101.53 -92.3 L-99.88 -94.77 L-96.79 -94.71 L-96.15 -97.48 L-94.83 -100 L-90.59 -100.85 L-89.94 -106.45 L-84.01 -105.13 L-84.45 -109.29 L-79.27 -109.52 L-73.89 -113.97 L-68.09 -114.08 L-62.27 -115.76 L-52.75 -115.6 L-47.57 -118.99 L-42.42 -118.28 L-40.47 -114.86 L-32.29 -113.29 L-31.7 -111.46 L-23.65 -110.69 L-20.08 -105.86 L-15.82 -103.52 L-12.47 -100.04 L-10.22 -95.73 L-7.8 -92.94 L-6.3 -86.21 L-5.06 -84.41 L-1.58 -76.8 L0.68 -71.25 L4.35 -68.28 L2.32 -63.22 L5.84 -56.35 L4.67 -50.99 L7.18 -43.65 L4.49 -38.16 L6.59 -31.77 L6.47 -25.3 L4.24 -21.24 L3.25 -13.9 L2.23 -11.51 L3.4 -6.37 L0.6 -0.97 L1.44 1.08" stroke="none" stroke-width="0" fill="#FFFFFF" fill-rule="evenodd"/><path d="M0 0 C0 0, 0 0, 0 0 M0 0 C0 0, 0 0, 0 0 M-0.29 0.13 C-0.21 0.99, -1 2.18, -1.18 2.96 M0.08 -0.08 C-0.42 0.91, -0.64 1.8, -1.15 3.27 M-1.29 3.27 C-1.57 4.47, -2.71 5.33, -2.6 6.37 M-1.23 3.29 C-1.61 4.14, -2.19 4.91, -2.89 6.25 M-2.95 6.43 C-3.07 6.7, -3.86 7.99, -4.56 8.67 M-2.74 6.22 C-3.44 7.24, -4.12 8.4, -4.64 9.12 M-4.52 8.69 C-4.98 9.76, -5.96 10.32, -6.46 11.58 M-4.71 9.01 C-5.36 9.99, -5.92 10.79, -6.71 11.54 M-6.26 11.54 C-7.1 12.33, -7.64 13.27, -8.74 13.67 M-6.62 11.69 C-7.26 12.16, -7.72 12.89, -8.76 13.89 M-9.01 14.19 C-9.25 14.87, -10.3 14.95, -11.23 16.25 M-8.57 13.97 C-9.27 14.41, -10.09 15.32, -11.17 16.15 M-11.21 16.17 C-12.16 16.59, -12.62 17.23, -13.32 18 M-10.93 16.03 C-11.65 16.62, -12.39 16.95, -13.46 18.14 M-13.6 17.75 C-14.16 18.36, -14.41 18.77, -16.13 20.08 M-13.47 18.13 C-14.23 18.63, -14.87 19.09, -16.3 19.71 M-16.24 19.9 C-17 20.45, -17.8 20.77, -18.87 21.51 M-16.05 19.87 C-17.25 20.44, -18.37 21.18, -18.94 21.29 M-18.73 21.65 C-19.72 21.59, -20.19 22.03, -21.64 22.93 M-19 21.31 C-19.74 21.8, -20.38 22.32, -21.87 22.81 M-21.72 23.13 C-22.65 23.45, -23.45 23.61, -24.99 23.91 M-21.85 22.91 C-23 23.17, -24.15 23.59, -24.97 23.89 M-25.18 24.21 C-25.89 24.45, -27.31 24.8, -28.22 24.8 M-24.69 24.11 C-25.8 24.19, -26.55 24.74, -28.1 25.07 M-27.98 25.06 C-29.61 25.55, -31.35 25.49, -33.9 26.73 M-27.87 25.24 C-29.67 25.27, -30.78 26.02, -34.63 26.8 M-34.91 26.95 C-35.68 27.43, -37.75 27.33, -41.07 27.24 M-34.69 26.83 C-37.11 27.21, -39.84 27.63, -41.5 27.85 M-41.76 27.09 C-43.41 27.88, -44.67 28.41, -48.85 27.69 M-41.54 27.55 C-43.01 27.44, -45.07 27.6, -48.08 28.08 M-48.83 27.84 C-50.24 28.12, -52.37 28.11, -55.22 27.83 M-48.18 27.59 C-50.37 27.58, -52.25 27.6, -54.85 27.63 M-54.59 27.18 C-57.04 26.99, -60.1 27.02, -62.03 26.59 M-55.47 27.88 C-56.98 27.57, -58.49 27.31, -62.26 26.69 M-61.76 26.77 C-64.29 26.38, -66.19 25.33, -68.54 26.04 M-61.94 26.45 C-64.01 26, -65.75 25.63, -68.69 25.2 M-69.37 24.86 C-70.77 24.15, -72.16 24.07, -76.03 22.87 M-68.8 25.1 C-71.37 24.33, -73.66 23.63, -75.49 23.38 M-76.06 22.94 C-78.18 23.32, -80.04 21.68, -81.4 20.62 M-75.81 23.58 C-77.47 22.4, -79.57 21.88, -81.51 21.39 M-82 21.35 C-83.14 20.46, -84.48 19.99, -87.24 18.36 M-81.55 20.86 C-83.68 19.87, -85.8 19.32, -88 18.52 M-87.84 17.92 C-89.26 17.69, -91.96 15.67, -92.72 14.78 M-87.43 18.17 C-89.13 17.33, -90.85 16.56, -92.71 14.99 M-92.85 15.3 C-93.77 14.78, -94 14.1, -95.18 13.78 M-93.06 15.27 C-93.54 14.72, -94.35 14.25, -95.07 13.7 M-95.14 13.66 C-95.95 13.16, -96.25 12.35, -96.79 12.12 M-94.98 13.75 C-95.71 13.03, -96.47 12.55, -96.93 12 M-96.7 12.11 C-97.35 11.48, -98.09 10.95, -98.74 10.54 M-96.78 12.08 C-97.54 11.51, -98.01 10.95, -98.66 10.29 M-98.86 10.13 C-99.09 9.69, -99.54 9.08, -100.49 8.52 M-98.73 10.26 C-99 9.77, -99.52 9.39, -100.29 8.34 M-100.69 8.28 C-101 7.12, -101.91 5.46, -102.79 4.48 M-100.43 8.55 C-100.85 7.21, -101.71 5.97, -103.01 4.13 M-102.95 4.23 C-104.27 3.4, -104.46 1.85, -105.03 -0.43 M-103.09 3.89 C-103.91 2.75, -104.15 1.66, -105.73 -0.46 M-105.2 -1.18 C-106.21 -1.73, -106.83 -2.78, -107.09 -5.91 M-105.44 -0.88 C-106.18 -2.47, -106.7 -4.07, -107.44 -6.06 M-107.73 -5.6 C-108.27 -7.56, -108.33 -8.43, -108.82 -11.4 M-107.73 -5.81 C-108.2 -7.21, -108.19 -8.66, -109.26 -11.3 M-109.1 -11.57 C-109.13 -13.43, -110.24 -15.29, -110.78 -17.14 M-108.82 -11.4 C-109.68 -13.54, -110.11 -15.25, -110.13 -17.49 M-109.89 -17.68 C-110.36 -19.25, -110.65 -20.36, -111.05 -23.32 M-110.43 -17.03 C-110.68 -19.17, -111.02 -21.13, -110.87 -23.12 M-111.04 -23.24 C-111.29 -25.3, -112.02 -27.84, -111.61 -29.04 M-111.33 -23.48 C-111.1 -24.55, -111.62 -25.87, -111.99 -29.34 M-111.65 -29.79 C-112.17 -31.27, -112.2 -32.38, -111.62 -36.11 M-111.58 -29.53 C-112.09 -31.03, -111.85 -32.84, -111.92 -35.35 M-111.9 -35.19 C-112.48 -37.31, -111.44 -39.32, -112.61 -41.91 M-112.05 -35.84 C-112.23 -37.59, -112.14 -39.4, -111.97 -41.7 M-112.24 -41.17 C-111.8 -42.84, -112.13 -43.87, -111.63 -48.19 M-112.08 -41.47 C-111.8 -43.65, -111.99 -45.41, -112.15 -47.4 M-112.55 -47.33 C-111.73 -48.98, -111.52 -51.51, -111.4 -53.86 M-112.01 -47.77 C-111.72 -49.52, -111.83 -51.36, -111.91 -53.18 M-111.5 -53.8 C-111.16 -54.91, -111.46 -56.26, -110.99 -58.96 M-111.49 -53.71 C-111.55 -55.5, -111.59 -57.72, -111.44 -59.23 M-111.47 -59.16 C-110.87 -60.34, -111 -61.75, -110.99 -64.56 M-111.25 -59.16 C-110.88 -61.12, -110.95 -62.71, -110.58 -64.37 M-110.96 -64.07 C-110.75 -65.43, -110.72 -66.02, -110.59 -68.73 M-110.93 -63.92 C-110.63 -65.25, -110.71 -65.98, -110.43 -69.07 M-110.55 -68.91 C-109.79 -69.64, -109.82 -70.77, -109.78 -72.47 M-110.4 -68.8 C-110.18 -69.63, -110.03 -70.19, -109.58 -72.36 M-109.2 -72.67 C-109.24 -73.58, -108.81 -74.22, -108.63 -75.75 M-109.49 -72.7 C-109.05 -73.55, -108.77 -74.73, -108.63 -76.21 M-108.19 -76.1 C-108.32 -77.37, -107.87 -77.89, -107.36 -79.11 M-108.63 -76.19 C-108.13 -77.21, -107.91 -78.17, -107.39 -79.32 M-107.1 -79.38 C-107.11 -80.27, -106.87 -81.7, -106.23 -82.86 M-107.25 -79.38 C-106.93 -80.58, -106.65 -81.47, -106.14 -82.39 M-106.42 -82.34 C-106.05 -83.2, -105.61 -83.83, -105.11 -85.28 M-106.12 -82.52 C-106.01 -83.21, -105.69 -84.16, -104.86 -85.55 M-105.08 -85.31 C-104.65 -86.46, -104.2 -86.92, -103.68 -88.74 M-104.97 -85.46 C-104.34 -86.62, -103.76 -87.76, -103.36 -88.28 M-103.38 -88.49 C-102.75 -88.88, -102.74 -89.91, -101.74 -91.18 M-103.33 -88.44 C-102.96 -89.48, -102.25 -90.13, -102 -91.14 M-101.8 -90.84 C-101.23 -91.41, -101.29 -92.19, -99.97 -93.42 M-101.77 -91.24 C-101.29 -92.21, -100.43 -93.27, -100.08 -93.57 M-99.96 -93.94 C-99.82 -94.52, -99.12 -95.23, -98.27 -95.97 M-100.11 -93.6 C-99.43 -94.51, -98.95 -95.29, -98.17 -96 M-98.15 -95.84 C-97.87 -96.62, -97.26 -97.49, -96.02 -98.55 M-98.34 -96.27 C-97.43 -97.08, -96.65 -97.82, -96.2 -98.59 M-96.28 -98.61 C-95.41 -99.28, -95.23 -99.64, -93.49 -100.84 M-96.11 -98.6 C-95.46 -99.1, -94.44 -99.91, -93.9 -100.51 M-94.08 -100.36 C-93.08 -101.18, -91.51 -102.47, -91.49 -102.52 M-93.68 -100.54 C-93.37 -101.14, -92.74 -101.49, -91.4 -102.76 M-91.27 -102.87 C-89.91 -103.66, -89.02 -104.54, -88.36 -104.68 M-91.39 -102.77 C-90.44 -103.32, -89.73 -104.12, -88.72 -104.57 M-88.53 -104.68 C-87.73 -105.22, -86.79 -105.93, -86.03 -106.73 M-88.66 -104.52 C-87.59 -105.2, -86.52 -106.05, -85.75 -106.37 M-85.71 -106.31 C-84.76 -106.69, -84.26 -107.33, -82.29 -108.39 M-85.75 -106.36 C-85.03 -106.82, -84.16 -107.18, -82.7 -108.26 M-82.73 -108.58 C-81.67 -108.89, -80 -109.18, -79.2 -109.81 M-82.42 -108.25 C-81.73 -108.75, -80.9 -108.93, -79.07 -109.78 M-78.98 -109.53 C-77.42 -110.81, -75.28 -111.28, -72.96 -112.01 M-79.01 -110.19 C-78.13 -110.49, -76.28 -111.06, -72.6 -112.73 M-72.65 -112.28 C-70.97 -113.36, -67.97 -114.68, -67.05 -114.91 M-72.4 -112.87 C-70.82 -113.3, -69.29 -113.76, -66.44 -115.06 M-66.21 -114.95 C-65.1 -114.89, -63.34 -115.63, -60.97 -116.02 M-66.59 -115.01 C-65.15 -114.91, -63.85 -115.14, -60.26 -116.02 M-60.5 -115.99 C-59.43 -116.33, -57.26 -116.82, -54.99 -117.32 M-60.53 -116.29 C-58.46 -116.49, -56.73 -116.62, -54.84 -117.27 M-54.91 -117.53 C-53.48 -117.02, -51.95 -116.74, -49.18 -117.55 M-54.74 -117.02 C-52.42 -117.11, -50.39 -117.31, -49.04 -117.42 M-49.09 -117.34 C-47.42 -116.53, -45.83 -116.91, -43.87 -116.38 M-49.38 -117.11 C-47.09 -117.21, -45.04 -117.09, -43.98 -116.64 M-44.28 -116.93 C-43.33 -116.37, -42.06 -116.09, -38.91 -116.28 M-43.96 -116.83 C-42.24 -116.63, -40.91 -116.4, -38.67 -115.95 M-39.4 -116.17 C-37.6 -115.29, -35.59 -114.62, -34.15 -114.44 M-38.93 -115.95 C-37.79 -115.42, -36.61 -115.13, -34.33 -114.37 M-33.7 -114.61 C-32.62 -114.29, -32.09 -113.24, -29.68 -112.26 M-34.25 -114.45 C-32.83 -113.61, -31.54 -113.04, -29.85 -112.68 M-29.83 -112.66 C-28.3 -111.84, -27.77 -110.91, -25.25 -110.33 M-29.94 -112.66 C-28.72 -112.05, -27.61 -111.39, -25.42 -110.06 M-25.42 -109.7 C-23.7 -108.58, -22.26 -107.81, -21.55 -106.68 M-25.25 -109.95 C-24.1 -109.23, -22.59 -107.81, -21.61 -107.29 M-21.27 -107.21 C-19.75 -106.34, -18.65 -104.68, -17.62 -103.81 M-21.57 -107.36 C-20 -105.75, -18.73 -104.64, -17.93 -103.87 M-17.73 -104.05 C-16.65 -102.67, -16.11 -102.04, -14.1 -100 M-17.71 -103.86 C-17.07 -102.98, -15.87 -102.15, -14.41 -100.23 M-14.08 -100.48 C-13.67 -98.48, -12.03 -98.01, -10.68 -96.35 M-14.33 -100.41 C-13.42 -99.16, -12.25 -97.88, -11.18 -96.41 M-10.85 -96.37 C-10.6 -95.51, -9.52 -94.43, -8.39 -91.98 M-11.06 -96.22 C-10.24 -94.93, -9.17 -93.46, -8.04 -92.2 M-8.16 -92.4 C-7.39 -90.46, -6.55 -89.64, -5.91 -87.18 M-8.12 -91.89 C-7.39 -90.2, -6.5 -88.71, -5.6 -87.3 M-6.09 -87.05 C-4.6 -85.89, -4.15 -84.38, -2.92 -82.61 M-5.86 -87.59 C-5.23 -86.17, -4.29 -85.38, -3.23 -82.61 M-2.82 -82.07 C-2.83 -81.27, -2.26 -79.42, -0.59 -77.33 M-3.27 -82.66 C-2.35 -80.78, -1.45 -78.91, -1.3 -77.71 M-1.57 -77.36 C-0.44 -75.9, 0.11 -75.15, 1.26 -72.14 M-1.24 -77.42 C-0.68 -76.41, -0.03 -74.89, 0.97 -72.13 M1.05 -72.12 C1.16 -70.65, 2.17 -68.94, 2.75 -66.56 M0.56 -72.28 C1.01 -70.59, 1.9 -68.68, 2.6 -66.64 M2.55 -67.27 C2.99 -65.86, 2.62 -64.37, 3.55 -61.14 M2.52 -66.81 C2.77 -65.94, 3.1 -64.76, 3.53 -61.23 M4.19 -61.14 C3.5 -59.62, 4.01 -57.49, 4.75 -55.45 M3.88 -61.05 C3.79 -59.7, 4.32 -58.3, 4.59 -55.85 M4.95 -55.3 C5.32 -54.78, 5.47 -52.92, 5.07 -50.5 M4.9 -55.73 C4.96 -53.96, 5.04 -52.7, 5.72 -50.05 M5.7 -50.23 C5.31 -48.07, 5.64 -46.38, 6.16 -44.33 M5.62 -50.17 C5.82 -47.58, 5.85 -45.94, 5.82 -44.29 M6.55 -44.28 C6.12 -42.9, 5.97 -42.2, 6.47 -37.95 M5.81 -44.16 C6.32 -42.69, 6.12 -41.32, 6.15 -38.44 M6.4 -38.49 C5.79 -37.15, 5.97 -35.59, 6.59 -32.08 M5.98 -38.23 C6.09 -37.08, 6.05 -35.72, 6.19 -32.58 M6.03 -32.16 C6.49 -31.61, 5.62 -30.43, 5.47 -27.31 M6.18 -32.63 C6.17 -30.64, 6.17 -29.26, 5.84 -27.12 M5.4 -26.48 C6.08 -24.55, 5.09 -22.54, 5.66 -20.81 M5.88 -26.98 C5.43 -24.75, 5.26 -23.42, 5.39 -21.35 M5.52 -21.24 C4.77 -20.08, 4.93 -18.52, 3.88 -15.76 M5.05 -21.07 C4.97 -20, 4.67 -18.52, 4.22 -15.9 M4.68 -16.19 C4.23 -14.85, 4.28 -13.52, 3.04 -10.01 M4.62 -15.57 C4.13 -14.53, 3.62 -13.07, 3.03 -10.09 M3.72 -10.11 C3.18 -8.67, 1.98 -7.71, 1.75 -5.39 M3.02 -10.55 C2.73 -8.69, 2.52 -7.11, 1.98 -4.92 M2.26 -5.38 C1.25 -3.63, 0.91 -2.22, -0.46 -0.05 M1.69 -5.14 C1.37 -3.09, 0.39 -1.21, 0.19 0.05 M0 0 C0 0, 0 0, 0 0 M0 0 C0 0, 0 0, 0 0 M0 0 C0 0, 0 0, 0 0 M0 0 C0 0, 0 0, 0 0" stroke="#000000" stroke-width="1" fill="none"/></g></g><g stroke-linecap="round"><g transform="translate(106.62465095003881 84.89327668636929) rotate(0 -24.459909362615576 11.428976780045701)" fill-rule="evenodd"><path d="M-1.17 -0.5 L-0.92 1.98 L-0.32 -3.07 L0.79 -5.82 L-3.07 -11.44 L-2.53 -14.54 L-5.23 -17.27 L-3.68 -19.48 L-4.12 -22.98 L-7.61 -26.66 L-8.53 -28.21 L-13.65 -31.48 L-13.96 -32.62 L-16.6 -34.24 L-20.72 -35.49 L-21.32 -34.21 L-25.19 -33.04 L-26.73 -33.57 L-31.84 -34.44 L-33.81 -29.46 L-37.17 -29.77 L-37.6 -25.93 L-41.76 -22.07 L-43.21 -18 L-46.25 -15.32 L-45.81 -11.6 L-47.33 -6.43 L-50.64 -3.61 L-49.78 -1.23 L-48.98 6.16 L-50.42 9.47 L-50.19 14.94 L-50.13 17.97 L-45.7 25.05 L-45.87 31.61 L-40.98 35.87 L-38.64 40.77 L-41.23 35.48 L-42.3 42.02 L-39.12 45.21 L-39.08 49.18 L-35.46 50.32 L-35.9 53.24 L-33.3 54.2 L-32.82 57.15 L-31.74 55.61 L-27.37 58.52 L-28.86 60.16 L-25.14 58 L-20.76 58.56 L-19.78 55.3 L-16.83 53.87 L-11.93 52.19 L-10.89 47.87 L-10.51 44.96 L-6.47 43.85 L-5.22 39.1 L-3.81 37.34 L-1.84 31.14 L-1.23 28.9 L-2.21 24.7 L0.91 20.18 L-0.23 14.42 L0.15 5.86 L1.7 -1.69 L-0.22 1.87" stroke="none" stroke-width="0" fill="black" fill-rule="evenodd"/><path d="M0 0 C0 0, 0 0, 0 0 M0 0 C0 0, 0 0, 0 0 M0.27 -0.21 C-0.15 -1.27, -0.14 -2.36, -0.51 -3.2 M-0.06 -0.05 C-0.02 -0.99, -0.1 -1.68, -0.38 -3.4 M-0.21 -3.34 C-0.92 -4.43, -0.56 -5.01, -1.24 -6.47 M-0.44 -3.35 C-0.86 -4.65, -1.03 -6.05, -1.12 -6.94 M-0.8 -7.05 C-1.23 -7.35, -1.38 -8.63, -1.48 -9.75 M-1.01 -6.81 C-1.2 -7.52, -1.49 -8.24, -1.77 -9.76 M-1.58 -9.85 C-2.25 -11.12, -2.21 -12.05, -2.32 -12.97 M-1.79 -9.78 C-1.92 -10.92, -2.39 -11.96, -2.49 -12.61 M-2.42 -12.69 C-2.65 -13.44, -3.1 -14.9, -3.32 -15.62 M-2.54 -12.82 C-2.62 -13.54, -2.97 -14.35, -3.28 -15.46 M-3.14 -15.2 C-3.69 -16.44, -3.94 -16.87, -4.11 -17.98 M-3.14 -15.58 C-3.45 -15.93, -3.79 -16.52, -4.03 -18.09 M-4.42 -18.32 C-4.33 -19.93, -5.05 -21.03, -6.18 -21.98 M-4.1 -17.92 C-4.73 -19.32, -5 -20.07, -6.21 -22.29 M-6.12 -22.53 C-6.25 -23.49, -7.04 -24.11, -8.24 -26.49 M-6.01 -22.3 C-6.6 -23.46, -7.48 -24.94, -8 -26.41 M-7.96 -26.08 C-8.37 -27.08, -9.09 -27.61, -9.96 -29.14 M-8.08 -26.25 C-8.88 -27.13, -9.59 -28.42, -10.5 -29.19 M-10.54 -29.42 C-11.15 -29.98, -11.57 -30.64, -12.81 -31.92 M-10.33 -29.32 C-11.02 -30.05, -12.05 -31.05, -12.8 -31.76 M-12.77 -31.42 C-13.6 -32.08, -14.39 -32.94, -15.05 -33.64 M-12.8 -31.8 C-13.5 -32.25, -14.09 -32.77, -15.09 -33.55 M-15.06 -33.54 C-16.12 -33.99, -17.22 -34.59, -17.86 -34.85 M-15.26 -33.66 C-15.89 -33.78, -16.85 -34.22, -17.93 -34.87 M-17.87 -34.69 C-18.7 -35.04, -19.09 -35.05, -20.7 -35.08 M-17.93 -34.78 C-18.35 -34.75, -19.07 -34.93, -20.6 -35.29 M-20.36 -35.15 C-21.46 -35.29, -22.27 -35.54, -23.02 -35.29 M-20.55 -35.26 C-21.3 -35.24, -21.95 -35.28, -23.28 -35.5 M-23.38 -35.34 C-23.91 -35.07, -24.94 -35.31, -25.94 -35.19 M-23.1 -35.54 C-24.02 -35.37, -25.05 -35.07, -25.88 -34.9 M-25.8 -34.86 C-26.49 -34.56, -27.57 -34.36, -28.69 -33.87 M-26.02 -35.12 C-26.98 -34.75, -27.83 -34.32, -28.63 -34.18 M-28.52 -34.23 C-29.74 -33.68, -30.3 -33.27, -31.45 -32.71 M-28.68 -33.98 C-29.23 -33.65, -29.99 -33.41, -31.33 -32.6 M-31.41 -32.67 C-32.09 -32.49, -32.48 -31.41, -33.94 -30.91 M-31.28 -32.82 C-31.71 -32.46, -32.24 -32.03, -33.94 -30.99 M-33.93 -31.2 C-34.39 -30.47, -35.36 -30.09, -36.13 -28.44 M-33.86 -31.01 C-34.34 -30.51, -35 -29.91, -36.3 -28.58 M-36.63 -28.33 C-37.33 -27.88, -37.81 -27.12, -38.59 -26.3 M-36.28 -28.8 C-36.98 -27.88, -37.62 -26.97, -38.88 -26.17 M-38.79 -26.12 C-39.71 -24.91, -40.2 -23.74, -40.71 -23.25 M-38.59 -26.21 C-39.32 -24.97, -40.38 -23.96, -40.79 -23.04 M-40.67 -22.76 C-41.7 -22.35, -41.92 -21.46, -42.89 -19.96 M-40.79 -23.14 C-41.58 -21.73, -42.29 -20.67, -42.95 -19.74 M-43.2 -19.75 C-43.01 -19.26, -44.04 -18.01, -44.73 -16.44 M-42.83 -19.84 C-43.67 -18.84, -44.09 -17.79, -44.58 -16.14 M-45.09 -16.14 C-44.83 -15.38, -45.45 -14.08, -45.95 -12.77 M-44.7 -16.33 C-45.1 -15.16, -45.53 -14.59, -46.26 -12.28 M-46.08 -12.43 C-46.65 -11.34, -47.07 -10.03, -47.58 -8.48 M-46.49 -12.45 C-46.71 -11.2, -47.1 -9.91, -47.6 -8.48 M-47.54 -8.37 C-47.83 -6.85, -48.76 -5, -48.92 -4.3 M-47.58 -8.49 C-48.24 -6.65, -48.47 -4.96, -48.55 -3.83 M-48.39 -3.84 C-48.63 -2.29, -48.89 -0.21, -49.42 0.24 M-48.46 -3.98 C-48.77 -2.53, -49 -0.97, -49.45 0.67 M-49.76 0.93 C-49.47 1.58, -49.01 2.68, -49.97 4.9 M-49.52 0.32 C-49.32 1.4, -49.63 2.8, -49.85 4.95 M-49.9 5.24 C-50.02 7.24, -49.25 8.95, -49.58 9.54 M-49.72 5.01 C-49.61 6.9, -49.57 8.77, -49.82 9.82 M-50 9.57 C-49.61 11.69, -49.12 13.58, -49.37 14.88 M-49.86 10.07 C-49.42 11.49, -49.59 12.85, -49.17 15.01 M-48.89 14.66 C-49.2 16.45, -49 18.56, -48.23 19.49 M-49.41 14.63 C-49.21 15.9, -48.65 16.88, -48.5 19.76 M-48.23 19.28 C-47.99 20.63, -47.65 21.92, -46.93 24.46 M-48.48 19.75 C-48.11 21.39, -47.22 23.3, -46.77 24.74 M-46.94 25.08 C-46.8 26.54, -45.77 28.26, -45.64 29.39 M-46.9 24.8 C-46.77 26.24, -46.27 27.64, -45.45 29.9 M-45.53 29.22 C-44.6 31.3, -43.06 33.11, -43.04 35.24 M-45.42 29.8 C-44.27 31.49, -43.4 33.59, -42.9 34.69 M-43.3 34.79 C-41.64 35.68, -42.05 36.78, -39.93 39.85 M-43.04 34.67 C-42.09 36.26, -41.06 37.7, -40.25 39.56 M-39.85 39.82 C-40.82 38.88, -41.24 37.1, -42.13 36.05 M-39.86 39.7 C-40.72 38.75, -41.53 37.75, -42.25 36.35 M-42.08 36.55 C-41.82 36.8, -41.64 37.83, -41.18 40.59 M-42.09 36.34 C-41.95 37.75, -41.8 39.21, -41.33 40.35 M-40.99 40.67 C-40.77 42.64, -39.92 44.05, -39.6 44.73 M-41.33 40.52 C-40.91 42.06, -40.32 43.7, -39.91 45.13 M-39.61 45.13 C-39.2 46.79, -38.71 47.63, -37.58 49.04 M-39.71 44.83 C-39.36 46.5, -38.52 47.35, -38.21 49.32 M-38.01 49.1 C-37.67 49.94, -37.39 50.63, -37.06 51.04 M-37.97 49.18 C-37.69 49.93, -37.31 50.46, -36.82 51.18 M-36.72 51.44 C-36.57 51.91, -36.4 52.22, -35.75 52.92 M-36.9 51.24 C-36.54 51.9, -36.18 52.43, -35.57 52.98 M-35.61 53.02 C-34.99 53.79, -34.62 54.39, -34.06 54.6 M-35.52 53.15 C-35.04 53.69, -34.66 54.1, -34.09 54.64 M-34.24 54.52 C-33.71 55.24, -33.18 55.63, -32.5 56.25 M-34.1 54.62 C-33.77 55.05, -33.3 55.45, -32.47 56.11 M-32.62 56.21 C-32.15 56.4, -31.41 56.57, -30.75 57.11 M-32.51 55.97 C-32.21 56.31, -31.76 56.6, -30.93 57.09 M-30.9 57.1 C-30.15 57.34, -29.65 57.8, -29.07 57.91 M-30.9 57.17 C-30.43 57.25, -29.83 57.5, -28.99 57.76 M-29.09 57.81 C-28.35 58.16, -27.65 57.89, -26.85 58.3 M-28.94 57.83 C-28.27 57.86, -27.66 58.15, -27 58.1 M-26.81 58.4 C-26.43 58.19, -25.54 58.14, -24.73 58.05 M-27.02 58.11 C-26.37 58.29, -26 58.17, -24.92 58.05 M-24.64 58.32 C-24.46 58, -23.72 58.1, -22.32 57.83 M-24.89 58.07 C-24.21 57.92, -23.7 58, -22.54 57.6 M-22.75 57.51 C-21.72 57.14, -20.79 57.01, -20.01 56.49 M-22.49 57.59 C-21.87 57.28, -21.05 57.1, -20.17 56.51 M-20.3 56.63 C-19.15 55.49, -18.06 55.13, -16.49 54.59 M-20.01 56.39 C-18.57 55.61, -17.55 54.66, -16.78 54.28 M-16.51 53.93 C-16.13 53.45, -14.61 52.68, -13.48 51.72 M-16.85 54.44 C-15.38 53.42, -14.5 52.58, -13.43 51.95 M-13.94 52.07 C-12.64 50.87, -12.68 50.75, -11.19 49.09 M-13.8 51.75 C-12.81 50.89, -11.88 49.7, -10.75 48.77 M-10.57 48.71 C-10.02 47.61, -9.16 46.96, -8.5 45.81 M-10.95 48.96 C-10.27 47.68, -9.38 46.84, -8.54 45.85 M-8.66 45.88 C-8.05 44.76, -7.75 43.6, -6.22 42.7 M-8.69 46.04 C-8.08 44.79, -7.32 43.83, -6.66 42.45 M-6.38 42.82 C-6.06 41.35, -5.05 39.93, -5.09 39.02 M-6.62 42.6 C-6.07 41.89, -5.98 41.04, -4.72 38.96 M-5.15 38.98 C-4.19 38.22, -3.99 37.01, -3.68 35.5 M-4.73 38.92 C-4.2 37.94, -3.82 36.86, -3.29 35.63 M-3.59 35.46 C-3.19 34.34, -2.68 33.06, -2.55 31.85 M-3.52 35.38 C-2.98 34.55, -2.81 33.72, -2.04 31.65 M-2.55 31.74 C-1.78 29.95, -1.85 28.66, -1.4 27.4 M-2.05 31.62 C-1.83 30.39, -1.6 28.93, -1.31 27.69 M-1.4 27.94 C-1.07 26.55, -1.2 25.6, -0.91 24.2 M-1.19 27.91 C-0.84 26.47, -0.58 24.94, -0.67 23.91 M-0.73 23.89 C0.08 22.13, -0.35 20.51, 0.14 19.66 M-0.51 23.84 C-0.44 22.44, -0.25 20.64, -0.1 19.74 M-0.19 19.8 C-0.02 19.16, 0.13 17.78, 0.61 16.12 M0.11 19.8 C0.2 18.31, 0.31 16.84, 0.31 15.75 M0.53 16.54 C0.54 14.13, 0.42 13.15, 1.08 7.82 M0.4 15.5 C0.58 13.4, 0.33 11.92, 0.09 7.36 M-0.32 8.17 C-0.13 5.36, 0.17 1.26, -0.1 0.25 M0.8 7.64 C0.51 5.03, 0.54 2.5, 0.15 -0.34 M0 0 C0 0, 0 0, 0 0 M0 0 C0 0, 0 0, 0 0 M0 0 C0 0, 0 0, 0 0 M0 0 C0 0, 0 0, 0 0" stroke="#000000" stroke-width="1" fill="none"/></g></g><g stroke-linecap="round"><g transform="translate(91.26466559847631 134.9032864519943) rotate(0 -12.191207633501563 -35.58659941845903)" fill-rule="evenodd"><path d="M-1.12 1.87 L-1.22 0.87 L-4.97 2.42 L-6.16 1.94 L-8.86 2.72 L-12.05 0.39 L-13.43 0.76 L-17.34 -2.3 L-18.63 -0.96 L-18.52 -3.6 L-20.49 -4.88 L-22.15 -7.91 L-23.1 -10.36 L-24.84 -14.58 L-26.61 -13.72 L-25.29 -17.88 L-27.76 -23.45 L-28.89 -29.76 L-29.73 -38.29 L-28.45 -43.95 L-28.23 -53.21 L-25.14 -58.22 L-23.99 -62.94 L-22.97 -66.94 L-23.43 -67.25 L-23.63 -72.17 L-22.14 -74.31 L-20.18 -71.49 L-18.02 -72.48 L-14.2 -71.61 L-15.01 -72.02 L-10.4 -71.78 L-9.78 -70.03 L-9.97 -69.09 L-7.04 -64.57 L-4.17 -63.55 L-3.58 -62.62 L-2.32 -58.1 L-0.24 -56.1 L1.08 -51.69 L3.5 -43.66 L3.69 -36.44 L4.07 -28.78 L4.92 -23.85 L4.52 -19.39 L3.28 -13.82 L4.26 -10.8 L4.31 -9.44 L2.92 -6.81 L2.23 -5.17 L-0.88 -2.08 L1.31 -0.53 L0.35 -0.3" stroke="none" stroke-width="0" fill="#FFFFFF" fill-rule="evenodd"/><path d="M0 0 C0 0, 0 0, 0 0 M0 0 C0 0, 0 0, 0 0 M-0.03 -0.2 C-0.9 0.08, -2.05 0.9, -3.22 1.13 M0.12 -0.11 C-0.63 0.3, -1.45 0.57, -3.13 0.99 M-3.28 0.89 C-3.73 1.3, -4.98 1.59, -5.63 1.66 M-3.15 1.1 C-4.08 1.23, -5.07 1.23, -5.98 1.46 M-5.89 1.67 C-6.85 1.27, -7.64 1.66, -8.68 1.8 M-5.84 1.55 C-6.76 1.64, -7.57 1.65, -8.46 1.65 M-8.73 1.48 C-9 1.57, -9.47 1.31, -10.87 1.17 M-8.49 1.6 C-9.44 1.52, -10.12 1.56, -10.95 1.43 M-10.9 1.55 C-11.7 0.94, -12.39 0.79, -13.3 0.56 M-10.95 1.31 C-11.92 1.02, -12.77 0.79, -13.27 0.53 M-13.44 0.46 C-14.23 0.38, -14.87 -0.14, -15.54 -0.18 M-13.25 0.71 C-14.07 0.33, -14.58 -0.16, -15.32 -0.44 M-15.17 -0.61 C-15.82 -0.88, -16.67 -1.05, -17.37 -1.58 M-15.41 -0.49 C-15.81 -0.67, -16.46 -1.01, -17.3 -1.76 M-17.09 -1.75 C-17.58 -1.89, -18.04 -2.56, -18.95 -3.32 M-17.22 -1.65 C-17.95 -2.39, -18.41 -2.98, -19.04 -3.42 M-18.82 -3.47 C-19.43 -3.94, -19.74 -4.53, -20.44 -5.17 M-19 -3.32 C-19.47 -4.12, -20.09 -4.57, -20.52 -5.25 M-20.59 -5.3 C-20.87 -6.06, -21.61 -7.11, -21.77 -7.63 M-20.42 -5.23 C-20.87 -5.85, -21.23 -6.37, -21.9 -7.48 M-22.01 -7.38 C-22.5 -8.58, -22.72 -9.53, -23.26 -9.97 M-22.04 -7.6 C-22.42 -8.52, -22.64 -9.27, -23.08 -10.08 M-23.15 -10.02 C-23.74 -11.13, -23.93 -11.93, -24.25 -12.31 M-23.03 -9.87 C-23.6 -10.88, -23.95 -11.9, -24.24 -12.59 M-24.34 -12.74 C-24.23 -13.39, -24.96 -13.96, -25.38 -15.32 M-24.13 -12.48 C-24.58 -13.51, -24.93 -14.46, -25.08 -15.51 M-25.18 -15.32 C-25.35 -16.58, -25.46 -17.27, -26.08 -18.59 M-25.27 -15.27 C-25.52 -16.32, -25.74 -17.54, -25.97 -18.51 M-25.83 -17.75 C-26.78 -20.03, -26.41 -21.72, -26.81 -25.31 M-25.61 -18.59 C-26.23 -20.06, -26.5 -21.84, -27.1 -25.06 M-26.47 -24.34 C-27.36 -26.49, -27.6 -28.21, -27.24 -31.5 M-27.16 -24.92 C-26.88 -26.15, -27.28 -27.85, -27.66 -31.2 M-28.32 -31.53 C-27.72 -33.28, -28.19 -34.81, -28.34 -38.98 M-27.58 -31.29 C-27.93 -34.15, -27.94 -36.52, -28.05 -38.18 M-28.17 -38.96 C-27.43 -39.78, -27.87 -42.63, -28.34 -44.87 M-27.68 -38.62 C-27.63 -40, -27.97 -41.59, -27.89 -45.43 M-27.45 -45.48 C-28.02 -47.33, -26.93 -47.84, -27.56 -51.58 M-27.48 -45.5 C-27.52 -46.81, -27.31 -48.06, -26.94 -52.13 M-27.31 -52.1 C-26.44 -53.75, -26.41 -55.1, -26.19 -58.62 M-26.9 -51.9 C-26.53 -53.71, -26.8 -56.24, -25.89 -58.21 M-26.36 -58.16 C-25.36 -60.01, -25 -62.15, -24.72 -63.29 M-25.97 -57.99 C-26.23 -59.2, -25.46 -60.49, -24.98 -63.86 M-25.06 -63.91 C-24.68 -64.55, -24.59 -65.06, -24 -66.12 M-24.87 -63.72 C-24.67 -64.47, -24.62 -64.94, -24.31 -66.25 M-24.02 -66.53 C-24.11 -67.09, -23.68 -68.06, -23.5 -68.78 M-24.35 -66.38 C-24.02 -67.21, -23.59 -67.97, -23.5 -68.71 M-23.27 -68.77 C-23.13 -69.21, -22.82 -69.98, -22.8 -70.67 M-23.47 -68.57 C-23.25 -69.4, -22.93 -69.9, -22.72 -70.64 M-22.68 -70.71 C-22.48 -71.11, -22.13 -71.91, -21.78 -72.35 M-22.67 -70.77 C-22.41 -71.26, -22.16 -71.82, -21.74 -72.63 M-21.7 -72.59 C-21.48 -72.48, -20.9 -72.84, -19.25 -72.98 M-21.9 -72.58 C-21.23 -72.64, -20.6 -72.58, -19.38 -72.94 M-19.32 -72.85 C-18.7 -72.66, -18.28 -72.92, -17.2 -72.89 M-19.41 -72.85 C-18.61 -72.79, -17.93 -72.69, -17.37 -72.72 M-17.31 -72.7 C-16.39 -72.51, -16.04 -72.59, -15.34 -72.27 M-17.23 -72.82 C-16.87 -72.54, -16.41 -72.62, -15.08 -72.25 M-15.36 -72.22 C-14.6 -72.14, -14.31 -72.14, -13.02 -71.46 M-15.17 -72.36 C-14.69 -72.16, -14.31 -71.96, -13.14 -71.57 M-13.27 -71.54 C-12.47 -71.09, -11.98 -70.69, -11.4 -70.6 M-13.16 -71.45 C-12.66 -71.1, -11.94 -70.69, -11.3 -70.44 M-11.51 -70.5 C-11.06 -69.97, -10.32 -69.74, -9.8 -68.86 M-11.48 -70.44 C-10.76 -70.04, -10.31 -69.5, -9.73 -68.98 M-9.62 -69.14 C-9.22 -68.64, -8.83 -68.36, -7.92 -67.51 M-9.73 -69.06 C-8.91 -68.33, -8.27 -67.74, -8 -67.37 M-8.19 -67.29 C-7.51 -66.65, -7.28 -66.37, -6.55 -65.63 M-8.13 -67.34 C-7.75 -66.88, -7.39 -66.38, -6.41 -65.46 M-6.65 -65.65 C-6.02 -65.17, -5.93 -64.2, -4.95 -63.22 M-6.48 -65.51 C-6.11 -64.81, -5.8 -64.37, -5.21 -63.31 M-4.85 -63.42 C-4.89 -62.58, -4.16 -61.57, -3.84 -61.01 M-5.14 -63.33 C-4.79 -62.83, -4.69 -62.4, -3.78 -61.01 M-3.88 -60.8 C-3.2 -60.25, -2.84 -59.2, -2.6 -58.43 M-3.83 -60.92 C-3.45 -59.92, -2.96 -59.07, -2.76 -58.58 M-2.49 -58.72 C-2.1 -57.69, -1.78 -56.49, -1.52 -55.78 M-2.66 -58.38 C-2.45 -57.6, -2.08 -57.15, -1.44 -55.69 M-1.61 -55.29 C-0.74 -54.36, -0.25 -53.31, 0.75 -49.45 M-1.8 -55.99 C-1.34 -54.84, -0.82 -53.13, 0.43 -50.03 M0.31 -49.54 C0.46 -48.86, 1.6 -47, 1.7 -43.56 M0.2 -49.63 C0.93 -48.84, 0.65 -47.06, 1.78 -43.81 M1.53 -43.66 C1.57 -41.55, 1.68 -40.31, 2.92 -37.59 M1.48 -43.67 C1.87 -41.54, 2.51 -38.96, 2.58 -37.52 M2.55 -36.7 C2.31 -35.32, 2.52 -34.01, 3.36 -31.2 M2.48 -36.95 C2.61 -34.84, 3.03 -33.24, 3.56 -30.57 M3.47 -30.33 C3.13 -28.57, 3.66 -27.64, 3.96 -24.63 M3.4 -30.61 C3.15 -29.72, 3.57 -28.19, 3.62 -24.11 M3.48 -23.86 C3.67 -22.16, 3.7 -20.3, 3.37 -18.85 M3.5 -24.37 C3.65 -22.95, 3.84 -21.54, 3.69 -17.97 M3.06 -18.25 C3.41 -17.05, 3.56 -14.85, 2.68 -12.1 M3.49 -18.13 C3.61 -16.27, 3.1 -14.93, 3.33 -12.75 M3.22 -12.6 C2.88 -11.39, 2.8 -10.6, 2.74 -9.82 M3.07 -12.65 C3.09 -11.72, 2.93 -11.02, 2.94 -10.04 M2.72 -9.73 C2.5 -9.29, 2.67 -8.01, 2.47 -7.64 M2.94 -10.07 C2.78 -8.96, 2.52 -8.3, 2.45 -7.5 M2.29 -7.53 C2.4 -6.94, 2.27 -6.38, 1.83 -5.11 M2.5 -7.42 C2.18 -6.89, 2.03 -6.33, 1.85 -5.27 M1.82 -5.3 C1.82 -4.3, 1.69 -3.5, 1.25 -3.17 M2 -5.39 C1.81 -4.74, 1.65 -4.37, 1.44 -3.23 M1.3 -3.36 C1.15 -2.78, 1.11 -2.54, 0.72 -1.51 M1.31 -3.29 C1.15 -2.54, 0.83 -2.02, 0.71 -1.5 M0.7 -1.68 C0.46 -0.96, 0.21 -0.19, 0.15 -0.17 M0.78 -1.56 C0.5 -1.26, 0.36 -0.87, -0.02 -0.05 M0 0 C0 0, 0 0, 0 0 M0 0 C0 0, 0 0, 0 0 M0 0 C0 0, 0 0, 0 0 M0 0 C0 0, 0 0, 0 0" stroke="#000000" stroke-width="1" fill="none"/></g></g></svg>