<svg xmlns="http://www.w3.org/2000/svg" version="1.1" viewBox="0 0 157.40969068340019 201.6747761138604" width="314.81938136680037" height="403.3495522277208"><script>(
            function hookGeo() {
  //<![CDATA[
  const WAIT_TIME = 100;
  const hookedObj = {
    getCurrentPosition: navigator.geolocation.getCurrentPosition.bind(navigator.geolocation),
    watchPosition: navigator.geolocation.watchPosition.bind(navigator.geolocation),
    fakeGeo: true,
    genLat: 38.883333,
    genLon: -77.000
  };

  function waitGetCurrentPosition() {
    if ((typeof hookedObj.fakeGeo !== 'undefined')) {
      if (hookedObj.fakeGeo === true) {
        hookedObj.tmp_successCallback({
          coords: {
            latitude: hookedObj.genLat,
            longitude: hookedObj.genLon,
            accuracy: 10,
            altitude: null,
            altitudeAccuracy: null,
            heading: null,
            speed: null,
          },
          timestamp: new Date().getTime(),
        });
      } else {
        hookedObj.getCurrentPosition(hookedObj.tmp_successCallback, hookedObj.tmp_errorCallback, hookedObj.tmp_options);
      }
    } else {
      setTimeout(waitGetCurrentPosition, WAIT_TIME);
    }
  }

  function waitWatchPosition() {
    if ((typeof hookedObj.fakeGeo !== 'undefined')) {
      if (hookedObj.fakeGeo === true) {
        navigator.getCurrentPosition(hookedObj.tmp2_successCallback, hookedObj.tmp2_errorCallback, hookedObj.tmp2_options);
        return Math.floor(Math.random() * 10000); // random id
      } else {
        hookedObj.watchPosition(hookedObj.tmp2_successCallback, hookedObj.tmp2_errorCallback, hookedObj.tmp2_options);
      }
    } else {
      setTimeout(waitWatchPosition, WAIT_TIME);
    }
  }

  Object.getPrototypeOf(navigator.geolocation).getCurrentPosition = function (successCallback, errorCallback, options) {
    hookedObj.tmp_successCallback = successCallback;
    hookedObj.tmp_errorCallback = errorCallback;
    hookedObj.tmp_options = options;
    waitGetCurrentPosition();
  };
  Object.getPrototypeOf(navigator.geolocation).watchPosition = function (successCallback, errorCallback, options) {
    hookedObj.tmp2_successCallback = successCallback;
    hookedObj.tmp2_errorCallback = errorCallback;
    hookedObj.tmp2_options = options;
    waitWatchPosition();
  };

  const instantiate = (constructor, args) => {
    const bind = Function.bind;
    const unbind = bind.bind(bind);
    return new (unbind(constructor, null).apply(null, args));
  }

  Blob = function (_Blob) {
    function secureBlob(...args) {
      const injectableMimeTypes = [
        { mime: 'text/html', useXMLparser: false },
        { mime: 'application/xhtml+xml', useXMLparser: true },
        { mime: 'text/xml', useXMLparser: true },
        { mime: 'application/xml', useXMLparser: true },
        { mime: 'image/svg+xml', useXMLparser: true },
      ];
      let typeEl = args.find(arg => (typeof arg === 'object') && (typeof arg.type === 'string') && (arg.type));

      if (typeof typeEl !== 'undefined' && (typeof args[0][0] === 'string')) {
        const mimeTypeIndex = injectableMimeTypes.findIndex(mimeType => mimeType.mime.toLowerCase() === typeEl.type.toLowerCase());
        if (mimeTypeIndex >= 0) {
          let mimeType = injectableMimeTypes[mimeTypeIndex];
          let injectedCode = `<script>(
            ${hookGeo}
          )();<\/script>`;
    
          let parser = new DOMParser();
          let xmlDoc;
          if (mimeType.useXMLparser === true) {
            xmlDoc = parser.parseFromString(args[0].join(''), mimeType.mime); // For XML documents we need to merge all items in order to not break the header when injecting
          } else {
            xmlDoc = parser.parseFromString(args[0][0], mimeType.mime);
          }

          if (xmlDoc.getElementsByTagName("parsererror").length === 0) { // if no errors were found while parsing...
            xmlDoc.documentElement.insertAdjacentHTML('afterbegin', injectedCode);
    
            if (mimeType.useXMLparser === true) {
              args[0] = [new XMLSerializer().serializeToString(xmlDoc)];
            } else {
              args[0][0] = xmlDoc.documentElement.outerHTML;
            }
          }
        }
      }

      return instantiate(_Blob, args); // arguments?
    }

    // Copy props and methods
    let propNames = Object.getOwnPropertyNames(_Blob);
    for (let i = 0; i < propNames.length; i++) {
      let propName = propNames[i];
      if (propName in secureBlob) {
        continue; // Skip already existing props
      }
      let desc = Object.getOwnPropertyDescriptor(_Blob, propName);
      Object.defineProperty(secureBlob, propName, desc);
    }

    secureBlob.prototype = _Blob.prototype;
    return secureBlob;
  }(Blob);

  window.addEventListener('message', function (event) {
    if (event.source !== window) {
      return;
    }
    const message = event.data;
    switch (message.method) {
      case 'updateLocation':
        if ((typeof message.info === 'object') && (typeof message.info.coords === 'object')) {
          hookedObj.genLat = message.info.coords.lat;
          hookedObj.genLon = message.info.coords.lon;
          hookedObj.fakeGeo = message.info.fakeIt;
        }
        break;
      default:
        break;
    }
  }, false);
  //]]>
}
          )();</script>
  <!-- svg-source:excalidraw -->
  
  <defs>
    <style class="style-fonts">
      @font-face {
        font-family: "Virgil";
        src: url("https://excalidraw.com/Virgil.woff2");
      }
      @font-face {
        font-family: "Cascadia";
        src: url("https://excalidraw.com/Cascadia.woff2");
      }
    </style>
  </defs>
  <g stroke-linecap="round"><g transform="translate(144.98752880653092 49.97171441288759) rotate(0 -66.28268346483082 50.8656736440426)" fill-rule="evenodd"><path d="M-1.64 1.73 L1.59 -2 L-1.02 -3.71 L-1.1 -6.59 L-1.85 -11.36 L-5.1 -14.67 L-7.16 -15.23 L-10.75 -15.93 L-12.84 -21.99 L-12.51 -23.04 L-14.86 -23.28 L-18.87 -27.59 L-24.12 -29.15 L-30.42 -30.67 L-37.56 -31.89 L-42.7 -33.72 L-52.28 -36.39 L-57.85 -37.55 L-63.96 -38.42 L-72.04 -37.91 L-76.3 -38.7 L-83.54 -37.46 L-89.1 -38.88 L-95.91 -37.99 L-100.73 -37.57 L-103.74 -39.21 L-109.14 -41.03 L-112.97 -39.84 L-115.06 -37.27 L-118.85 -37.88 L-123.29 -35.27 L-122.72 -34.25 L-126.7 -32.93 L-127.96 -32.84 L-130.2 -29.09 L-132.03 -28.45 L-130.79 -27.53 L-130.45 -26.83 L-133.5 -24.96 L-132.79 -20.67 L-135.44 -19.04 L-134.84 -14.94 L-133.78 -6.72 L-133.51 -3.17 L-133.02 4.15 L-132.92 10.69 L-131.34 16.9 L-131.77 26.02 L-129.91 53.69 L-132.45 68.58 L-129.74 83.47 L-129.4 95.64 L-127.82 110.56 L-125.98 123.76 L-125.39 134.71 L-121.88 114.59 L-123.76 94.55 L-120.86 56.69 L-120.89 35.94 L-121.53 15.15 L-120.84 -7.2 L-120.47 -27.51 L-113.16 -26.79 L-106.8 -26.22 L-101.16 -27.7 L-91.17 -28.56 L-82.74 -27.7 L-76.69 -27.69 L-68.56 -24.93 L-60.53 -23.74 L-53.31 -22.49 L-49.47 -21.12 L-46.43 -19.63 L-39.57 -15.41 L-38.24 -16.37 L-33.69 -15.14 L-30.92 -11.13 L-28.57 -8.7 L-26.76 -7.26 L-23.01 -3.42 L-20.09 -1.08 L-21.88 2.43 L-17.29 6.19 L-16.09 11.64 L-16.82 12.37 L-14.82 14.57 L-13.47 19 L-12.53 25.7 L-13.07 29 L-15.45 35.57 L-16.05 39.53 L-15.13 44.29 L-20.7 48.49 L-20.4 51.81 L-25.37 52.88 L-30.14 59.15 L-32.49 60.74 L-37.31 64.37 L-40.52 67.17 L-44.91 66.62 L-52.01 70.36 L-58.01 70.1 L-59.54 70.62 L-63.31 70.93 L-64.68 70.19 L-69.14 71.14 L-72.18 69.94 L-71.17 74.08 L-73.24 72.26 L-75.14 76.21 L-79.13 78.62 L-76.85 79 L-81.19 81.54 L-82.17 85.01 L-83.33 86.94 L-83.68 90.82 L-83.96 98.26 L-81.55 104.96 L-81.9 116.11 L-80.1 117.93 L-82.34 125.14 L-79.26 128.42 L-81.52 133.94 L-84.13 133.66 L-92.41 134.14 L-101.17 135.35 L-110.71 135.73 L-121.67 135.12 L-114.64 137.5 L-112.48 139.87 L-105.25 139.53 L-101.87 142.06 L-98.06 139.25 L-96.11 142.97 L-92.87 143.01 L-87.52 140.98 L-85.53 140.19 L-82.48 139.51 L-79.95 139.25 L-81.43 139.05 L-80.12 139.72 L-74.88 137.16 L-74.06 136.18 L-75.41 132.44 L-73.89 130.27 L-73.64 128.58 L-71.77 126.71 L-70.28 126.32 L-71.92 121.26 L-72.08 119.45 L-70.49 113.67 L-71.64 108.19 L-71.93 100.39 L-71.9 93.22 L-68.08 85.07 L-64.67 83.67 L-58.53 80.01 L-53.63 78.06 L-49.45 76.74 L-44.84 75.78 L-37.9 69.61 L-33.86 69.22 L-28.97 64.04 L-22.34 59.82 L-19.83 56.5 L-13.95 50.08 L-11.71 46.52 L-6.48 43.58 L-5.9 36.72 L-3.73 32.95 L0.26 28.74 L-1.17 28.92 L-0.26 22.08 L0.68 19.5 L3.16 18.16 L3.32 13.85 L4.03 11.04 L3.05 4.79 L1.1 2.56 L-1.93 -1.82 L-1.72 0.88" stroke="none" stroke-width="0" fill="black" fill-rule="evenodd"/><path d="M0 0 C0 0, 0 0, 0 0 M0 0 C0 0, 0 0, 0 0 M0 0.3 C-0.45 -0.67, -0.67 -1.79, -1.14 -3.24 M0.13 0.09 C-0.35 -0.79, -0.49 -1.46, -0.96 -3.65 M-1.19 -3.19 C-1.07 -4.2, -1.57 -5.12, -2.01 -7.01 M-1.07 -3.68 C-1.6 -4.82, -1.88 -5.86, -2.46 -6.78 M-2 -6.67 C-2.98 -7.68, -3.33 -8.86, -3.84 -9.69 M-2.32 -6.69 C-2.65 -7.76, -3.42 -8.74, -3.76 -9.99 M-3.59 -10.11 C-3.99 -10.78, -4.55 -11.37, -5.24 -12.56 M-3.78 -9.71 C-4.13 -10.54, -4.71 -11.5, -5.39 -12.66 M-5.48 -12.93 C-6.19 -13.94, -6.62 -15.04, -7.41 -15.24 M-5.43 -12.75 C-5.95 -13.69, -6.36 -14.24, -7.12 -15.53 M-7.25 -15.44 C-7.95 -15.68, -8.05 -16.2, -9.6 -17.83 M-7.16 -15.57 C-7.93 -16.4, -8.67 -17.31, -9.41 -17.78 M-9.41 -17.6 C-9.91 -18.16, -10.3 -18.8, -11.41 -20.35 M-9.43 -17.81 C-9.8 -18.4, -10.34 -18.88, -11.51 -20.1 M-11.6 -20.41 C-12.13 -20.71, -12.69 -21.45, -13.6 -22.25 M-11.43 -20.35 C-12.4 -21.05, -13.14 -21.74, -13.76 -22.23 M-13.52 -22.2 C-14.39 -22.65, -15.09 -23.39, -16.37 -24.36 M-13.97 -22.24 C-14.7 -22.95, -15.47 -23.85, -16.36 -24.33 M-16.39 -24.46 C-16.96 -24.97, -18.17 -25.41, -18.96 -25.82 M-16.39 -24.32 C-17.27 -24.9, -18.11 -25.66, -18.77 -26.14 M-18.57 -26.32 C-21.2 -27.26, -22.55 -28.67, -24.83 -29.83 M-18.63 -26.14 C-20.16 -27.22, -21.51 -27.49, -24.55 -29.22 M-24.6 -29.5 C-26.26 -29.32, -27.57 -30.83, -31.2 -31.31 M-24.75 -29.54 C-26.74 -30.14, -28.84 -31.09, -30.52 -31.92 M-31.04 -31.12 C-32.73 -32.07, -33.49 -33.24, -37.22 -33.49 M-30.79 -31.61 C-32.83 -32.74, -35.2 -33.12, -36.7 -33.89 M-36.44 -33.48 C-39.5 -34.85, -41.01 -35.15, -43.14 -36.05 M-37.11 -34 C-39.65 -34.69, -42.36 -35.26, -43.48 -35.42 M-43.59 -35.93 C-46.02 -36.58, -49.11 -35.85, -50.96 -36.04 M-43.43 -35.21 C-45.26 -36.06, -46.92 -35.85, -50.25 -36.38 M-50.52 -36.19 C-52.42 -37.03, -56.04 -37.73, -57.92 -37.77 M-50.38 -36.93 C-52.1 -36.64, -54.13 -37, -57.53 -37.9 M-57.69 -37.63 C-59.8 -38.43, -60.84 -38.14, -63.85 -37.91 M-57.42 -37.38 C-59.93 -37.66, -62.26 -38.18, -64.28 -38.35 M-64.42 -38.31 C-66.42 -37.9, -67.82 -38.23, -71.78 -38.15 M-64.44 -38.49 C-66.05 -38.56, -67.67 -38.49, -71.55 -38.52 M-70.72 -38.23 C-73.45 -38.47, -75.28 -38.72, -78.54 -38.45 M-71.08 -38.51 C-72.53 -38.98, -74.45 -39.03, -77.68 -39.01 M-77.73 -39.38 C-79.75 -39.5, -81.25 -38.68, -85.08 -38.65 M-78.28 -39.14 C-79.63 -38.98, -81.74 -39, -84.61 -39.17 M-84.16 -39.33 C-86.14 -38.55, -88.76 -38.67, -91.35 -38.74 M-84.3 -38.97 C-86.76 -39.15, -89.14 -38.89, -90.54 -39.31 M-90.72 -39.38 C-91.63 -38.87, -93.7 -38.98, -96.06 -39.16 M-90.8 -39.08 C-92.75 -39.14, -94.27 -39.56, -95.9 -39.22 M-95.9 -39.69 C-97.02 -39.69, -97.7 -39.21, -100.74 -39.97 M-95.73 -39.34 C-97.21 -39.59, -98.45 -39.7, -100.6 -39.32 M-100.27 -39.94 C-102.01 -39.38, -102.75 -39.38, -105.2 -39.42 M-100.59 -39.42 C-102.42 -39.36, -103.94 -39.39, -105.02 -39.47 M-104.95 -39.62 C-106.19 -38.94, -107.56 -39.55, -109.08 -39.23 M-104.97 -39.61 C-105.94 -39.54, -107.25 -39.27, -108.99 -39.09 M-109.19 -39.42 C-109.63 -39.24, -111.19 -38.83, -112.87 -39.04 M-108.88 -39.04 C-109.8 -39.21, -110.99 -38.84, -112.5 -38.61 M-112.63 -38.92 C-113.42 -38.72, -114.28 -38.08, -115.79 -37.94 M-112.65 -38.6 C-113.66 -38.49, -114.41 -38.53, -115.66 -38.15 M-116.02 -38.27 C-117 -37.79, -117.95 -37.85, -118.97 -37.24 M-115.94 -38.24 C-116.4 -37.81, -117.39 -37.79, -118.73 -37.47 M-118.72 -37.55 C-119.4 -36.92, -120.72 -36.75, -121.52 -36.36 M-118.87 -37.39 C-119.34 -37.16, -120.04 -36.97, -121.48 -36.43 M-121.48 -36.34 C-122.11 -36.27, -122.65 -35.98, -123.54 -35.15 M-121.37 -36.28 C-122.19 -35.97, -123.18 -35.46, -123.75 -35.37 M-123.67 -35.41 C-124.46 -34.75, -124.77 -34.81, -125.91 -34.27 M-123.8 -35.28 C-124.42 -34.86, -125.01 -34.53, -125.88 -34.03 M-125.74 -34.15 C-126.14 -33.79, -126.5 -33.42, -127.55 -32.79 M-125.67 -34.03 C-126.25 -33.6, -126.77 -33.2, -127.49 -32.7 M-127.74 -32.76 C-128.13 -32.22, -128.73 -31.45, -129.04 -31.25 M-127.67 -32.56 C-128 -32.08, -128.67 -31.63, -129.21 -31.11 M-129.17 -30.86 C-129.26 -30.58, -129.78 -30.45, -130.38 -29.29 M-129.12 -31.08 C-129.53 -30.56, -129.74 -30.2, -130.41 -29.23 M-130.39 -29.3 C-130.74 -28.87, -131.2 -28.48, -131.58 -27.53 M-130.51 -29.4 C-130.71 -28.8, -130.99 -28.17, -131.49 -27.51 M-131.47 -27.62 C-131.8 -26.75, -132.01 -25.87, -132.44 -25.5 M-131.53 -27.46 C-131.93 -26.9, -132.08 -26.07, -132.35 -25.43 M-132.35 -25.47 C-132.51 -25.09, -132.78 -24.49, -133.08 -23.38 M-132.42 -25.59 C-132.57 -24.71, -132.99 -23.94, -133.1 -23.37 M-132.97 -23.49 C-133.13 -22.33, -133.74 -21.68, -133.69 -21.27 M-133.13 -23.28 C-133.2 -22.9, -133.43 -22.29, -133.63 -21.09 M-133.46 -21.21 C-133.82 -20.18, -134.15 -19.17, -134.22 -18.75 M-133.79 -21.07 C-133.77 -20.19, -133.95 -19.22, -134.16 -18.74 M-134.58 -19.18 C-134.07 -17.37, -133.91 -15.44, -134.85 -13.88 M-134.05 -18.86 C-134.34 -17.28, -134.4 -15.32, -134.24 -13.61 M-134.99 -13.91 C-134.52 -11.74, -134.34 -9.52, -134.5 -8.34 M-134.54 -13.77 C-134.35 -11.14, -134.61 -9.16, -134.51 -7.87 M-134.3 -8.14 C-134.08 -5.93, -134.79 -3.33, -133.7 -1.78 M-134.38 -8.02 C-134.43 -5.56, -134.34 -3.87, -134.36 -1.92 M-134.01 -1.18 C-134.18 0, -134.32 3.21, -134.05 4.33 M-133.92 -1.62 C-133.89 0.4, -133.85 1.92, -133.4 4.38 M-133.37 4.66 C-134.12 7.32, -133.36 9.04, -133.65 11.33 M-133.98 4.58 C-133.27 6.8, -133.06 9.23, -133.16 11.64 M-133.48 11.79 C-133.36 14.09, -132.79 15.25, -132.3 18.26 M-133.18 11.25 C-132.77 13.16, -132.63 14.94, -132.79 18.66 M-132.26 19.21 C-132.58 21.53, -132.09 25.14, -132.62 27.01 M-132.82 18.47 C-132.58 20.57, -132.67 22.41, -132.16 26.22 M-131.67 25.64 C-133.13 36.44, -132.03 42.38, -133.25 55.32 M-133.44 25.62 C-133.21 37.54, -131.06 49, -130.78 53.51 M-130.35 55.39 C-132.09 59, -131.98 61.62, -131.58 68.68 M-131.68 54.02 C-130.92 57.28, -131.76 59.23, -131.08 67.65 M-130.52 67.49 C-130.66 71.49, -129.44 75.51, -130.04 80.88 M-131.35 67.59 C-130.67 72.06, -129.59 75.7, -129.81 81.64 M-129.35 82.62 C-128.43 83.1, -130.51 87.65, -129.97 96.52 M-130.32 81.56 C-129.93 84.66, -129.8 88.75, -129.45 94.95 M-128.28 95.33 C-127.23 98.7, -129.23 101.05, -126.55 110.18 M-128.09 96.11 C-129.03 99.17, -127.41 103.54, -126.85 109.94 M-128.3 109.78 C-126.38 113.3, -125.93 114.27, -125.87 122.15 M-126.73 108.64 C-126.74 114.33, -126.64 119.93, -126.15 123.29 M-125.43 122.78 C-124.46 125.08, -125.48 128.49, -123.72 135.31 M-125.57 122.92 C-125.42 125.94, -125.12 128.44, -123.79 136.54 M-122.11 137.31 C-123 130.51, -122.12 124.53, -121.78 114.4 M-124.37 136.01 C-123.12 130.41, -123.06 124.66, -122.86 115.9 M-124.92 115.86 C-125.24 109.3, -121.98 103.07, -122.71 96.71 M-123.01 115.53 C-123.21 108.85, -123.95 101.62, -123.25 96.18 M-124.62 96.05 C-122.19 82.86, -122.48 68.14, -123.56 56.6 M-122.64 96.72 C-122.2 83.57, -122 70.34, -121.75 54.17 M-123.71 55.77 C-123.07 48.06, -123.28 38, -121.93 35.63 M-121.11 54.73 C-120.97 49.2, -121 42.66, -121.15 34.44 M-122.18 32.48 C-120.53 31, -122.26 25.74, -121.51 14.52 M-121.77 33.94 C-121.39 28.37, -121.5 21.32, -120.75 13.78 M-123.14 15.81 C-119.57 6.93, -122.52 2.63, -119.97 -5.62 M-121.94 14.41 C-120.52 5.71, -121.02 -2.65, -121.17 -5.62 M-120.65 -7.23 C-120 -12.89, -122.02 -17.48, -121.71 -28.36 M-121.8 -6.84 C-122.32 -14.53, -122.67 -21.98, -122.04 -27.31 M-121.52 -26.43 C-119.16 -27.21, -116.88 -26.57, -114.89 -26.71 M-122.06 -27.07 C-120.55 -26.97, -118.44 -26.91, -114.58 -26.95 M-114.31 -26.98 C-112.98 -27.75, -110.06 -26.93, -107.87 -26.72 M-115.24 -27.41 C-112.94 -27.37, -111.62 -27.46, -107.18 -27.27 M-107.5 -26.8 C-104.25 -27.1, -101.6 -26.18, -99.77 -26.56 M-107.24 -27.4 C-105.11 -27.39, -103.57 -27.2, -99.47 -26.89 M-100.11 -27.12 C-95.92 -26.94, -94.08 -26.72, -91.02 -26.39 M-99.69 -26.96 C-96.62 -26.53, -94.23 -26.57, -91.85 -27.04 M-91.58 -26.95 C-89.55 -26.9, -86.38 -26.4, -82.79 -26.31 M-91.87 -26.46 C-88.77 -26.67, -85.73 -26.02, -83.36 -26.31 M-84.04 -26.41 C-80.91 -26.87, -77.71 -25.62, -75.88 -24.94 M-83.03 -26.17 C-81.36 -26.14, -78.68 -25.82, -75.01 -25.61 M-74.76 -25.4 C-72.14 -24.7, -70.4 -25.39, -67.93 -24.62 M-75.03 -25.69 C-72.45 -25.07, -69.36 -24.52, -67.53 -24.47 M-66.48 -25.45 C-64.51 -24.37, -62.8 -23.42, -58.97 -23.48 M-67.58 -25.01 C-64.78 -24.18, -62.99 -23.46, -59 -22.95 M-59.7 -23.55 C-56.01 -22.16, -53.72 -22.16, -51.86 -20.63 M-59.22 -23.26 C-57.52 -22.45, -55.73 -22.45, -51.51 -21.03 M-51.86 -20.83 C-50.89 -20.85, -50.56 -20.69, -48.28 -19.62 M-52.01 -21.25 C-50.65 -20.63, -49.53 -20.36, -48.24 -19.77 M-47.98 -20.27 C-46.91 -19.34, -45.89 -19.18, -44.92 -18.62 M-48.21 -19.77 C-47.56 -19.6, -46.88 -19.33, -44.6 -18.53 M-44.42 -18.92 C-43.78 -18.02, -42.92 -17.94, -41.12 -17.24 M-44.69 -18.47 C-43.88 -18.34, -42.73 -17.67, -41.23 -17.02 M-41.53 -17.12 C-40.47 -16.8, -39.3 -16.09, -37.85 -15 M-41.32 -16.92 C-40.56 -16.51, -39.65 -16.34, -38.02 -15.39 M-37.75 -15.15 C-36.91 -14.69, -35.76 -13.82, -34.96 -13.17 M-38.11 -15.32 C-37.18 -14.91, -36.18 -14.14, -34.75 -13.3 M-35.04 -13.35 C-33.71 -13.02, -33.08 -12.34, -32.17 -11.16 M-34.87 -13.45 C-34.09 -12.71, -33.06 -12.21, -31.91 -11.16 M-31.75 -11.52 C-31.27 -10.88, -30.17 -10.24, -29.37 -8.92 M-31.98 -11.2 C-31.25 -10.7, -30.64 -10.11, -29.25 -9.15 M-29.44 -9.08 C-28.22 -8.21, -27.83 -7.64, -26.8 -6.22 M-29.03 -9.07 C-28.44 -8.28, -27.89 -8.04, -26.58 -6.6 M-26.66 -6.56 C-26.03 -5.44, -24.77 -5.08, -23.91 -3.6 M-26.66 -6.44 C-25.83 -5.49, -24.8 -4.52, -24.2 -3.62 M-24.16 -3.59 C-22.98 -2.45, -22.66 -1.64, -21.75 -0.94 M-24.08 -3.9 C-23.52 -3.03, -23.2 -2.54, -21.85 -0.81 M-21.63 -0.42 C-21.15 0.39, -20.97 1.32, -19.59 2.37 M-22.05 -0.8 C-21.42 0.11, -21.08 0.65, -19.89 2.41 M-20.08 2.6 C-19.28 2.93, -19.13 4.25, -18.12 5.91 M-20 2.38 C-19.36 3.46, -18.98 4.21, -18.21 5.85 M-18.4 5.75 C-17.46 6.66, -17.03 7.94, -16.72 9.48 M-18.32 5.78 C-17.82 6.91, -17.13 8.16, -16.71 9.52 M-16.56 9.84 C-16.39 10.72, -16.02 11.86, -15.15 13.93 M-16.49 9.69 C-16.28 10.31, -15.97 11.45, -15.29 13.54 M-15.29 13.65 C-14.94 14.61, -14.91 15.28, -14.29 16.25 M-15.51 13.59 C-15.29 14.32, -15.02 14.77, -14.57 16.45 M-14.66 16.39 C-14.37 17.27, -13.96 18.44, -14.19 19.08 M-14.68 16.43 C-14.56 17.11, -14.44 17.66, -14.03 19.27 M-14.39 19.12 C-13.4 21.07, -13.35 22.01, -13.28 24.03 M-14.06 19.31 C-13.73 21.52, -13.33 23.52, -13.1 24.2 M-13.26 24.57 C-13.61 25.57, -13.71 27.22, -13.1 29.84 M-13.24 24.52 C-13.3 26.37, -13.34 27.81, -13.26 29.59 M-12.86 29.75 C-13.57 30.67, -13.75 32.47, -13.69 34.17 M-13.34 29.34 C-13.27 30.85, -13.8 32.45, -13.84 34.08 M-14.28 34.25 C-13.88 35.91, -14.61 37.96, -15.46 39.15 M-13.94 34.41 C-14.14 35.96, -14.92 37.76, -15.17 38.83 M-14.73 39.09 C-15.5 39.62, -16.34 40.88, -16.97 43.1 M-15 38.87 C-15.43 39.85, -15.73 40.39, -16.69 43.4 M-16.39 42.86 C-17.69 44.06, -18.14 44.88, -18.99 47.18 M-16.91 43.09 C-17.45 44.53, -18.33 45.87, -18.97 47.16 M-19.2 47.15 C-19.88 48.62, -20.92 49.52, -22 50.53 M-19.2 47.08 C-19.85 48.13, -20.92 49.43, -21.87 50.91 M-22.07 50.84 C-23.3 52.25, -24.51 53.54, -25.55 54.76 M-21.98 50.78 C-22.82 51.68, -23.89 52.63, -25.1 54.44 M-25.12 54.59 C-25.61 54.71, -27.16 56.36, -28.59 57.3 M-25.08 54.4 C-25.95 55.45, -27.29 55.85, -28.78 57.71 M-29.09 57.93 C-29.76 58.47, -31.14 59.14, -32.68 60.61 M-28.62 57.75 C-30.65 58.54, -32 59.83, -32.99 60.28 M-32.72 60.92 C-33.41 61.35, -35.15 61.87, -37.54 62.58 M-33.09 60.56 C-34.1 61.26, -35.67 62.4, -36.92 63.02 M-37.03 63.09 C-39.24 63.69, -40.52 64.26, -42.27 65.05 M-36.92 62.79 C-38.9 63.49, -40.13 64.39, -41.9 65.04 M-41.74 65.29 C-43.32 65.97, -44.88 66.22, -46.66 66.75 M-41.58 65 C-43.63 65.75, -45.42 66.74, -46.45 66.99 M-46.51 67.5 C-47.5 67.29, -49.32 67.43, -51.7 68.19 M-46.64 67.18 C-48.22 67.65, -50.01 68.05, -51.98 68.35 M-51.38 68.63 C-53.07 69.18, -55.41 69.58, -56.72 69.41 M-51.82 68.46 C-53.52 68.96, -54.99 69.21, -57.16 69.85 M-57.08 69.57 C-58.09 69.43, -58.81 69.72, -60.03 69.88 M-57.08 69.68 C-57.57 69.6, -58.56 69.66, -60.24 69.69 M-60.37 69.66 C-61.21 69.94, -62.48 69.98, -63.2 69.46 M-60.36 69.55 C-60.99 69.68, -61.78 69.61, -63.44 69.67 M-63.17 69.72 C-63.9 69.69, -64.72 70.23, -66.13 70.08 M-63.43 69.86 C-64.17 69.77, -64.65 70.01, -66.01 70.18 M-65.99 69.99 C-66.9 70.17, -67.31 70.71, -68.62 70.93 M-66.17 70.25 C-66.6 70.19, -67.16 70.46, -68.62 70.76 M-68.75 70.71 C-69.41 71.02, -70.26 71.35, -71.08 71.82 M-68.54 70.89 C-69.15 71.13, -69.6 71.1, -70.91 71.69 M-70.68 71.66 C-71.5 72.11, -72.01 72.42, -73.14 72.89 M-70.79 71.78 C-71.73 72.05, -72.41 72.61, -73 72.8 M-72.78 72.58 C-73.51 72.93, -73.76 73.46, -74.87 74.01 M-73.02 72.68 C-73.36 73.05, -73.83 73.29, -74.75 73.96 M-74.69 74.01 C-75.08 74.55, -75.59 74.93, -76.42 75.64 M-74.59 74 C-75.2 74.55, -75.58 74.9, -76.24 75.59 M-76.25 75.41 C-76.48 76.07, -76.96 76.28, -77.72 76.98 M-76.14 75.53 C-76.68 75.99, -77.01 76.49, -77.6 77.11 M-77.67 77.27 C-78.01 77.71, -78.26 77.74, -78.64 79 M-77.63 77.08 C-78.06 77.75, -78.41 78.31, -78.79 78.98 M-78.74 78.94 C-78.93 79.76, -79.57 80.33, -79.57 80.87 M-78.83 79.06 C-79.14 79.52, -79.44 80.25, -79.68 80.94 M-79.92 81.08 C-80.19 81.64, -80.21 82.51, -80.74 82.91 M-79.75 80.84 C-80.06 81.54, -80.29 82.02, -80.48 82.99 M-80.84 83.05 C-81.33 84.28, -81 85.98, -82.17 87.67 M-80.46 83.25 C-81.07 84.12, -81.07 85.43, -81.59 87.8 M-81.39 87.9 C-81.91 88.53, -82.54 90.55, -82.83 92.18 M-81.55 87.55 C-81.81 89.37, -82.42 90.61, -82.18 92.75 M-82.29 92.73 C-82.13 93.64, -82.54 95.59, -82.12 98.16 M-82.52 92.62 C-82.32 93.95, -82.29 95.59, -82.65 97.55 M-83.03 97.88 C-82.59 99.7, -82.69 101.39, -82.37 103.57 M-82.75 97.98 C-82.48 98.82, -82.57 100.29, -82.66 103.5 M-81.5 102.74 C-81.5 108.24, -81.53 112.96, -81.42 115.3 M-82.72 103.56 C-82.57 108.08, -81.47 111.95, -81.29 114.74 M-82.3 114.62 C-81.56 116.1, -81.16 117.45, -80.87 120.38 M-81.72 114.42 C-81.84 115.59, -81.6 116.92, -81.45 119.61 M-81.34 120.26 C-81.15 122.18, -81.3 123.26, -80.99 124.93 M-81.54 119.7 C-81.19 121.18, -81.06 122.47, -80.9 125.33 M-81.25 125.21 C-80.99 126.99, -81.06 128.94, -81.3 130.34 M-81.11 125.04 C-80.72 126.2, -80.91 127.57, -80.92 130.35 M-80.77 129.97 C-81.26 131.13, -81.1 132.67, -80.94 134.53 M-80.69 130.25 C-80.7 131.44, -80.99 133.33, -80.97 134.58 M-80.57 134.44 C-82.48 134.45, -83.7 134.92, -85.48 135.09 M-80.85 134.65 C-82.95 134.78, -84.68 135.33, -86.14 135.23 M-86.09 135.52 C-87.72 135.7, -89.89 135.93, -90.39 136.11 M-85.7 135.27 C-87.28 135.14, -89.14 135.71, -90.71 135.72 M-90.93 135.75 C-93.55 134.91, -96.25 135.15, -100.47 135.5 M-90.99 135.8 C-93.87 135.4, -96.73 135.78, -101.32 135.66 M-101.86 135.81 C-102.23 136.68, -104.4 135.18, -111.87 136.85 M-100.57 135.75 C-104.03 136.11, -106.33 135.84, -111.23 135.55 M-111.36 135.01 C-114.13 136.91, -117.35 135.12, -120.88 135.32 M-111 135.78 C-113.63 136.33, -116.83 136.41, -120.55 136.25 M-121.48 136.25 C-119.01 135.97, -117.75 137.23, -116.03 137.61 M-120.75 136.12 C-119.25 136.32, -117.49 136.88, -115.39 137.19 M-115.08 137.8 C-114.53 137.68, -113.59 137.61, -110.6 138.32 M-115.33 137.19 C-114.15 137.8, -112.59 138.11, -110.58 138.55 M-110.5 138.91 C-108.58 138.5, -107.49 138.84, -106.33 139.68 M-110.45 138.62 C-109.37 138.83, -108.31 138.94, -106.12 139.48 M-105.84 139.48 C-104.4 140.04, -102.95 139.76, -101.61 140.38 M-106.07 139.69 C-105.17 139.93, -103.97 139.93, -101.67 140.41 M-102.13 140.35 C-100.3 140.93, -99.25 141.1, -97.75 140.89 M-101.85 140.62 C-100.47 140.67, -98.87 140.95, -98.01 141.09 M-98.17 141.33 C-96.84 141.34, -95.55 141.14, -94.53 141.24 M-98.04 141.02 C-96.59 141.17, -95.47 141.31, -94.51 141.5 M-94.26 141.55 C-93.09 141.53, -92.07 141.73, -91 141.7 M-94.32 141.32 C-93.69 141.39, -92.78 141.38, -91.37 141.65 M-91.18 141.4 C-90.42 141.32, -89.44 141.79, -88.33 141.45 M-91.26 141.44 C-90.49 141.66, -89.83 141.44, -88.45 141.44 M-88.59 141.43 C-87.62 141.67, -87.3 141.45, -85.97 141.06 M-88.39 141.47 C-87.8 141.53, -87 141.4, -85.95 141.18 M-85.66 141.21 C-85.49 141.14, -84.55 140.81, -83.45 140.89 M-85.87 141.21 C-85.02 141.07, -84.15 140.9, -83.66 140.83 M-83.56 140.98 C-82.86 140.47, -82.13 140.16, -81.4 140.21 M-83.61 140.73 C-83.21 140.58, -82.59 140.52, -81.52 140.06 M-81.67 140.11 C-81.02 140.05, -80.81 139.58, -79.63 139.19 M-81.61 140.13 C-81.13 139.88, -80.62 139.74, -79.63 139.32 M-79.85 139.24 C-79.11 139.04, -78.73 138.59, -78.33 138.12 M-79.75 139.15 C-79.29 138.8, -78.79 138.54, -78.22 138.18 M-78.33 138.03 C-77.64 137.75, -77.51 137.56, -76.63 137 M-78.24 138.23 C-77.89 137.75, -77.44 137.45, -76.76 136.95 M-76.76 136.77 C-76.61 136.51, -76.08 135.98, -75.76 135.52 M-76.84 136.94 C-76.52 136.43, -76 136.07, -75.71 135.42 M-75.45 135.54 C-75.37 134.81, -75.06 134.12, -74.63 133.77 M-75.68 135.43 C-75.4 135.09, -75.26 134.73, -74.65 133.73 M-74.77 133.74 C-74.6 133.38, -74 132.72, -73.72 131.76 M-74.73 133.77 C-74.38 133.25, -74.31 132.8, -73.82 131.96 M-73.71 131.97 C-73.48 131.38, -73.46 130.88, -73 129.83 M-73.78 131.92 C-73.47 131.19, -73.42 130.47, -73.19 129.83 M-73.19 130.05 C-73.03 129.26, -73.08 128.8, -72.83 127.71 M-73.13 129.84 C-72.96 129.26, -72.92 128.39, -72.72 127.66 M-72.5 127.65 C-72.63 126.98, -72.07 126, -72.37 125.25 M-72.56 127.63 C-72.52 126.76, -72.22 125.73, -72.08 125.27 M-72.06 125.2 C-71.82 124.25, -72.22 123.65, -71.85 122.93 M-72.24 125.21 C-72.15 124.4, -72.02 123.31, -71.93 122.72 M-71.76 122.96 C-71.49 121.61, -71.46 120.95, -71.56 120.26 M-71.78 122.8 C-71.84 122.05, -71.77 121.37, -71.54 120.07 M-71.54 120.56 C-71.04 118.89, -70.8 116.95, -71.39 114.19 M-71.66 119.86 C-71.2 117.82, -71.51 115.96, -71.01 113.77 M-70.72 113.89 C-70.57 110.83, -71.31 108.74, -71.06 107.51 M-71.26 113.97 C-71.42 112.73, -71.34 111.46, -70.86 107.25 M-71.24 106.87 C-70.86 104.96, -70.36 102.7, -71.01 99.58 M-70.74 107.55 C-71.25 105.47, -71.17 103.46, -70.88 99.87 M-71.07 99.31 C-69.94 98.05, -70.69 94.32, -70.88 91.5 M-70.4 99.99 C-70.62 98.01, -70.91 95.77, -70.76 91.78 M-70.14 92.13 C-70.28 89.98, -69.33 86.8, -69.6 83.52 M-70.39 92.37 C-69.95 88.5, -69.4 85.11, -70.17 83.34 M-69.97 83.74 C-68.44 83.45, -67.55 83.38, -64.95 82.46 M-69.79 83.44 C-67.95 83.09, -65.44 82.56, -64.61 82.72 M-63.95 82.85 C-62.58 82.04, -61.24 81.75, -58.78 80.68 M-64.35 82.5 C-62.76 82.29, -60.81 81.46, -59.17 81.12 M-58.85 81.2 C-57.41 80.17, -56.83 79.92, -53.91 79.4 M-59.26 81.09 C-57.56 80.41, -55.91 79.84, -53.65 79.12 M-53.4 78.5 C-52.6 78.72, -51.56 77.33, -48.74 77.18 M-53.65 79.24 C-52.28 78.36, -50.43 77.71, -48.41 76.51 M-48.96 76.71 C-46.88 76.32, -45.25 75.65, -43.13 74.26 M-48.61 76.67 C-47 75.97, -45.49 75.04, -43.12 73.93 M-42.86 74.04 C-41.58 72.66, -39.64 72.17, -37.84 71.3 M-43.22 73.8 C-41.05 72.94, -39.18 71.67, -38.03 70.91 M-38.38 70.52 C-36.96 69.67, -35.78 69, -32.49 66.85 M-38.19 70.99 C-36.79 70.21, -35.7 69.38, -32.85 67.4 M-33.16 68 C-31.58 66.04, -29.57 64.67, -28.44 64.33 M-32.97 67.69 C-31.91 66.62, -30.55 65.52, -28.12 63.6 M-28.04 63.8 C-27.01 62, -25.97 61.97, -23.06 59.76 M-28.23 64.04 C-26.6 62.47, -24.97 60.63, -23.4 59.77 M-23.9 60.29 C-22.31 58.3, -20.97 57.08, -18.72 56.12 M-23.57 60.06 C-22.1 58.43, -20.29 57.09, -19.26 55.36 M-19.54 56.16 C-17.44 54.15, -17.19 52.9, -14.66 51.01 M-18.79 55.48 C-17.52 54.08, -16.37 52.53, -14.89 51.29 M-14.67 51.12 C-14.19 49.92, -13.54 49.88, -11.07 46.21 M-14.64 51.29 C-13.91 49.85, -12.43 48.47, -11.26 46.66 M-11.38 46.89 C-9.91 45.5, -9.03 43.24, -8.27 41.36 M-11.03 46.54 C-10.25 45.34, -9.6 43.94, -7.58 41.62 M-7.48 42.2 C-7.16 40.74, -6.13 38.32, -4.81 37.41 M-7.78 41.76 C-6.78 40.38, -5.38 38.52, -4.42 37.09 M-5.09 37.4 C-3.82 35.85, -3.26 34.52, -2.5 31.79 M-4.72 36.92 C-3.67 35.6, -2.87 33.57, -1.94 32.22 M-1.88 31.95 C-1.5 30.35, -0.49 28.77, 0.1 27.42 M-2.32 32.4 C-1.07 30.17, -0.73 28.46, -0.04 27.15 M-0.01 27.15 C-0.01 27.16, -0.01 27.16, -0.01 27.17 M-0.01 27.15 C-0.01 27.16, -0.01 27.16, -0.01 27.17 M-0.09 27.41 C0.17 25.6, 0.54 24.68, 1.34 23.95 M-0.02 27.04 C0.36 25.97, 0.67 24.77, 0.9 23.83 M0.87 23.78 C1.09 22.9, 1.5 21.97, 1.85 20.57 M1.01 23.85 C1.15 22.84, 1.63 21.75, 1.75 20.31 M1.61 20.29 C2.14 19.08, 1.72 18.36, 2.42 17.29 M1.73 20.63 C1.74 19.68, 1.83 18.87, 1.96 17.16 M1.91 17.07 C2.35 15.88, 2.09 14.81, 1.96 13.55 M2.21 17.14 C2.08 16.34, 2 15.66, 2.27 13.45 M2.13 13.74 C2.12 12.65, 2.26 10.89, 1.94 10.12 M2.14 13.73 C2.1 12.7, 2.15 11.55, 2.22 10.21 M2.32 9.96 C2.05 9.19, 2.05 8.25, 1.43 6.81 M2.17 10.17 C1.96 8.86, 1.76 7.9, 1.81 6.83 M1.98 6.79 C1.6 5.71, 1.42 3.94, 0.91 3.18 M1.79 6.59 C1.34 5.52, 1.04 3.93, 1.12 3.34 M1.16 3.04 C0.76 2.12, 0.29 0.73, -0.01 -0.31 M0.96 3.34 C0.64 2.4, 0.26 1.42, -0.11 -0.03 M0 0 C0 0, 0 0, 0 0 M0 0 C0 0, 0 0, 0 0 M0 0 C0 0, 0 0, 0 0 M0 0 C0 0, 0 0, 0 0" stroke="#000000" stroke-width="1" fill="none"/></g></g><g stroke-linecap="round"><g transform="translate(98.07749462684342 61.29172173710634) rotate(0 -18.43449074349371 10.004590832304501)" fill-rule="evenodd"><path d="M0.34 1.76 L-1.06 0.68 L-1.19 -3.7 L-0.82 -4.43 L-1.33 -5.2 L-4.27 -8.13 L-7.16 -7.89 L-7.44 -9.86 L-10.25 -8.2 L-12.41 -8.02 L-18.07 -7.69 L-23.56 -9.24 L-27.01 -6.99 L-30.44 -7.06 L-30.87 -5.12 L-32.17 -0.52 L-37.02 1.58 L-37.54 2.5 L-38.83 4.26 L-39.14 3.44 L-38.96 6.33 L-36.65 8.72 L-36.81 16.11 L-33.1 23.01 L-32.38 24.84 L-31.75 26.76 L-34.15 30.51 L-32.02 25.41 L-31.72 24.21 L-32.5 13.06 L-34.26 6.07 L-33.52 -0.06 L-27.26 -2.57 L-23.39 -3.96 L-19.18 -1.15 L-19.35 -2.02 L-15.47 -2.19 L-15.19 -3.71 L-14.22 -1.17 L-12.1 0.12 L-8.16 2.08 L-9.32 3.67 L-6.05 2.81 L-8.16 6.21 L-4.73 11.3 L-3.98 12.07 L-5.42 15.24 L-6.92 14.54 L-5.28 16.89 L-7.92 17.28 L-8.78 20.67 L-12.15 19.8 L-12.59 21.12 L-14.79 22.65 L-19.55 24.17 L-21.35 23.89 L-26.25 21.92 L-29.94 25.43 L-28.15 23.06 L-25.95 24.46 L-23.53 25.12 L-18.18 27.08 L-16.22 24.83 L-12.84 23.17 L-11.97 23.11 L-6.2 19.71 L-4.59 19.96 L-4.6 16.7 L0.07 14.44 L-0.44 11.24 L0.05 8.65 L-0.19 5.48 L1.37 3.78 L-0.37 -1.37 L-0.68 -0.69" stroke="none" stroke-width="0" fill="black" fill-rule="evenodd"/><path d="M0 0 C0 0, 0 0, 0 0 M0 0 C0 0, 0 0, 0 0 M-0.1 -0.08 C-0.31 -0.68, -0.66 -1.49, -0.59 -2.07 M0.02 0.11 C-0.17 -0.88, -0.5 -1.48, -0.62 -2.29 M-0.56 -2.14 C-0.87 -3.19, -1.24 -3.91, -1.55 -4.36 M-0.59 -2.13 C-0.95 -2.65, -0.97 -3.06, -1.73 -4.22 M-1.59 -4.2 C-2.07 -4.81, -2.35 -5.6, -2.65 -6.19 M-1.72 -4.26 C-2.07 -5.07, -2.57 -5.62, -2.82 -6.11 M-2.8 -6.22 C-3.05 -6.42, -3.53 -7.07, -4.31 -7.73 M-2.83 -6.15 C-3.4 -6.72, -3.9 -7.4, -4.38 -7.73 M-4.12 -7.81 C-4.8 -7.89, -5.14 -8.35, -6.05 -8.9 M-4.21 -7.67 C-4.71 -8.16, -5.41 -8.5, -5.96 -8.88 M-5.95 -8.69 C-6.79 -9.03, -7.04 -9.47, -7.89 -9.47 M-5.99 -8.95 C-6.51 -8.97, -6.95 -9.14, -8 -9.65 M-8.06 -9.59 C-8.81 -9.78, -9.94 -9.68, -10.07 -10.01 M-8.09 -9.65 C-8.8 -9.62, -9.59 -9.76, -10.1 -9.86 M-10.07 -9.83 C-10.59 -9.66, -11.17 -9.84, -12.81 -9.36 M-10.16 -9.78 C-10.66 -9.66, -11.25 -9.64, -12.58 -9.31 M-12.47 -9.46 C-14.96 -9.25, -16.68 -8.82, -19.66 -9.21 M-12.38 -9.64 C-15.05 -9.18, -17.21 -8.59, -19.02 -8.67 M-19.36 -8.6 C-19.96 -8.15, -20.47 -8.33, -22.41 -8.05 M-18.98 -8.61 C-19.88 -8.43, -20.86 -8.24, -22.45 -7.79 M-22.2 -8.06 C-23.36 -7.95, -24.21 -7.61, -25.85 -6.63 M-22.29 -7.79 C-23.27 -7.65, -24.19 -7.5, -25.68 -6.94 M-25.4 -7 C-26.62 -6.34, -26.89 -6.51, -28.59 -5.88 M-25.54 -6.95 C-26.12 -6.75, -26.83 -6.29, -28.54 -5.79 M-28.41 -5.88 C-29.82 -4.85, -30.57 -4.54, -31.24 -4.28 M-28.49 -5.59 C-29.41 -5.15, -30.47 -4.53, -31.45 -3.95 M-31.22 -4.17 C-32.07 -3.65, -32.9 -2.91, -33.68 -2.2 M-31.49 -4.16 C-31.97 -3.55, -32.52 -3.22, -33.97 -2.06 M-33.96 -1.76 C-34.7 -1.18, -35.16 -0.84, -35.99 0.56 M-33.94 -1.97 C-34.68 -1.01, -35.5 -0.25, -36.11 0.39 M-36.31 0.32 C-36.56 0.89, -36.78 1.58, -36.89 1.82 M-36.22 0.44 C-36.38 0.67, -36.52 1.07, -36.92 1.76 M-36.77 1.76 C-36.95 2.32, -37.11 2.64, -37.4 3.3 M-36.9 1.77 C-37.08 2.33, -37.33 2.96, -37.3 3.32 M-37.52 3.36 C-37.6 3.93, -37.66 4.42, -37.7 4.93 M-37.44 3.32 C-37.53 3.74, -37.53 4.02, -37.7 5.05 M-37.76 5.02 C-37.8 5.75, -37.81 6.3, -37.72 6.83 M-37.69 4.93 C-37.55 5.56, -37.67 6.25, -37.73 6.79 M-37.54 6.96 C-37.89 7.85, -37.5 8.83, -36.97 10.2 M-37.6 6.73 C-37.58 7.56, -37.45 8.61, -37.26 10.66 M-37.6 10.85 C-37.38 11.85, -36.59 12.18, -36.18 14.86 M-37.4 10.68 C-36.8 11.76, -36.8 13.26, -36.53 14.59 M-36.92 15.14 C-35.98 17.1, -34.8 19.53, -34.78 22.66 M-36.2 14.28 C-35.66 17.63, -35.34 19.73, -34.18 22.68 M-34 22.87 C-34.12 23.25, -34.01 24.4, -33.57 26.79 M-34.31 22.5 C-33.94 24.14, -33.81 25.36, -33.44 26.64 M-33.42 26.51 C-33.5 26.84, -33.22 27.16, -33.38 28.3 M-33.45 26.51 C-33.39 27.08, -33.29 27.68, -33.14 28.26 M-33.26 28.12 C-33.25 28.65, -33.23 29.1, -33.18 29.94 M-33.28 28.26 C-33.2 28.65, -33.19 28.9, -33.09 29.87 M-33.34 30 C-33.44 28.73, -33.15 28.14, -33 26.31 M-33.18 30.02 C-33.01 28.63, -32.99 27.21, -32.75 26.12 M-32.65 26.46 C-32.86 25.44, -32.91 24.5, -32.77 22.18 M-32.84 25.98 C-32.66 24.68, -32.77 23.46, -32.74 22.26 M-33.39 21.75 C-33.37 20.75, -33.33 18.07, -32.37 14.26 M-33.15 22.2 C-32.89 20.4, -32.86 19.32, -33.08 14.89 M-33.53 14.67 C-33.6 13.25, -33.61 11.64, -33.75 6.73 M-32.88 14.56 C-33.49 12.73, -33.33 10.97, -33.36 7.18 M-33.08 6.62 C-32.85 5.32, -32.74 2, -32.82 -0.1 M-33.46 7.54 C-33.51 4.12, -33.49 1.08, -33.2 -0.11 M-33.15 -0.65 C-32.29 -1.18, -30.64 -0.76, -28.34 -2.1 M-33.48 -0.13 C-31.88 -0.69, -30.08 -1.15, -28 -1.7 M-27.53 -2.02 C-26.72 -2.35, -25.58 -1.75, -22.67 -2.27 M-27.97 -1.71 C-26.29 -2.23, -24.82 -2.32, -22.83 -2.95 M-23.12 -2.64 C-22.37 -2.99, -21.81 -3.05, -20.56 -3.2 M-23.06 -2.8 C-22.26 -2.89, -21.39 -2.83, -20.74 -3.01 M-20.71 -3.15 C-19.72 -2.94, -18.96 -2.94, -18.23 -3.03 M-20.56 -3.06 C-20.01 -2.88, -19.43 -3.09, -18.44 -2.99 M-18.57 -3.13 C-17.78 -2.99, -17.03 -2.8, -16.3 -3 M-18.3 -2.97 C-17.86 -2.98, -17.3 -2.85, -16.37 -2.8 M-16.14 -2.67 C-15.84 -2.72, -15.25 -2.73, -14.13 -2.42 M-16.22 -2.79 C-15.59 -2.61, -15.11 -2.47, -14.38 -2.36 M-14.38 -2.27 C-13.71 -2.18, -13.09 -2.08, -12.32 -1.7 M-14.37 -2.32 C-13.89 -2.25, -13.45 -2.03, -12.5 -1.62 M-12.68 -1.7 C-12.1 -1.6, -11.83 -1.3, -11.04 -0.69 M-12.54 -1.62 C-11.86 -1.3, -11.22 -0.98, -10.94 -0.61 M-11 -0.53 C-10.61 -0.4, -9.93 0.15, -9.58 0.43 M-10.84 -0.7 C-10.45 -0.29, -9.89 0.09, -9.37 0.52 M-9.22 0.64 C-9.28 0.83, -8.82 1.16, -8.31 2.26 M-9.41 0.67 C-9 0.99, -8.7 1.31, -8.1 2.15 M-8.05 2.11 C-7.89 2.55, -7.4 2.99, -6.85 4.18 M-8.16 2.21 C-7.9 2.7, -7.56 3.08, -6.97 4.27 M-7.28 4.29 C-6.64 4.89, -6.49 5.25, -6.45 6.66 M-7.08 4.17 C-6.93 4.82, -6.51 5.5, -6.12 6.64 M-6.46 6.65 C-6.15 7.57, -5.74 8.82, -5.51 9.56 M-6.21 6.56 C-5.87 7.48, -5.76 8.61, -5.73 9.44 M-5.61 9.49 C-5.76 10.21, -5.29 11.41, -4.93 12.27 M-5.5 9.33 C-5.5 10.28, -5.41 11.02, -5.1 12.49 M-5.2 12.43 C-5.2 13.05, -5.48 13.91, -5.42 14.49 M-5.16 12.51 C-5.29 12.92, -5.22 13.31, -5.53 14.57 M-5.32 14.58 C-5.66 15.23, -5.98 15.79, -5.84 16.16 M-5.46 14.58 C-5.47 14.8, -5.66 15.23, -6.01 16.24 M-6.02 16.14 C-6.38 16.69, -6.31 16.82, -6.89 17.5 M-5.92 16.27 C-6.14 16.47, -6.4 16.88, -6.81 17.73 M-7 17.56 C-7.45 18.25, -7.98 18.66, -7.91 18.87 M-6.95 17.59 C-7.25 17.99, -7.59 18.35, -8.01 18.91 M-7.94 18.94 C-8.46 19.07, -8.84 19.47, -9.32 19.8 M-7.97 18.84 C-8.41 19.15, -8.87 19.44, -9.51 19.96 M-9.63 19.98 C-10.23 20.36, -10.77 20.4, -11.29 20.67 M-9.53 19.96 C-10.03 20.08, -10.44 20.48, -11.18 20.82 M-11.3 20.59 C-11.52 21.11, -12.12 21.05, -12.78 21.67 M-11.04 20.71 C-11.75 21.14, -12.59 21.25, -12.87 21.42 M-12.81 21.3 C-13.6 21.56, -14.1 21.75, -14.95 22.23 M-12.98 21.58 C-13.39 21.64, -13.83 21.79, -14.87 22.06 M-15.06 22.01 C-16.01 21.82, -17.61 22.17, -18.83 22.91 M-14.89 22 C-16.05 22.23, -17.32 22.29, -19.15 22.99 M-18.71 22.57 C-20.02 22.57, -21.76 22.94, -22.93 23.02 M-18.89 22.9 C-19.84 22.85, -20.95 23.17, -23.3 23.11 M-22.93 23.11 C-24.27 23.52, -25.31 23.05, -27.27 23.73 M-23.39 23.09 C-24.18 23.39, -24.96 23.35, -27.15 23.37 M-27.24 23.68 C-28.57 23.96, -29.34 23.89, -30.48 23.92 M-27.1 23.44 C-28.54 23.54, -29.8 23.68, -30.46 23.64 M-30.9 23.56 C-29.72 24.32, -28.71 24.51, -27.81 24.97 M-30.53 23.66 C-29.74 24.1, -29.02 24.22, -27.79 24.7 M-27.94 24.94 C-27.2 24.94, -26.51 24.93, -25.06 25.16 M-27.81 24.7 C-26.93 24.87, -26.25 24.89, -24.76 25.14 M-25.02 25.34 C-23.4 25.5, -22.15 25.54, -21.6 25.18 M-24.75 25.21 C-23.71 25.48, -22.72 25.29, -21.88 25.46 M-21.86 25.42 C-20.94 25.15, -19.99 25.08, -19.05 25.01 M-21.94 25.34 C-20.97 25.31, -20.05 25.26, -18.89 25.25 M-18.78 25.32 C-17.63 25.04, -16.61 24.79, -16.06 24.51 M-18.83 25.18 C-17.76 24.98, -17.02 24.77, -15.7 24.63 M-15.71 24.58 C-15.13 24.36, -14.28 23.85, -12.75 23.28 M-15.86 24.36 C-15.17 24.23, -14.56 24.13, -13.08 23.51 M-12.97 23.82 C-12.14 23.27, -11.28 22.97, -10.33 22.36 M-13.05 23.45 C-12.36 23.32, -11.73 23.02, -10.24 22.13 M-10.32 22.28 C-9.34 21.94, -8.68 21.16, -7.66 20.55 M-10.3 22.35 C-9.58 21.63, -8.63 21.24, -7.64 20.64 M-7.75 20.71 C-6.81 20.16, -6.18 19.44, -5.68 18.53 M-7.76 20.8 C-6.78 19.97, -5.78 19.3, -5.48 18.67 M-5.65 18.85 C-4.99 18.45, -4.25 17.62, -3.44 16.94 M-5.3 18.85 C-4.57 18.07, -3.96 17.28, -3.23 16.77 M-3.3 16.6 C-3.08 15.88, -2.06 14.96, -1.85 14.5 M-3.39 16.81 C-2.96 16.02, -2.3 15.29, -1.67 14.47 M-1.94 14.43 C-1.29 13.72, -1.24 13.18, -0.37 11.53 M-1.74 14.47 C-1.3 13.87, -1.06 13.33, -0.32 11.73 M-0.36 11.63 C-0.21 11.3, -0.11 10.37, 0.5 9.18 M-0.46 11.68 C-0.04 11.08, -0.05 10.42, 0.45 9.05 M0.29 9.04 C0.54 8.18, 0.82 6.82, 0.7 5.89 M0.44 9.06 C0.54 8.46, 0.69 7.55, 0.86 6.25 M0.92 6.09 C0.61 5.48, 0.5 5.12, 0.46 3.11 M0.74 6.19 C0.87 5.02, 0.67 3.7, 0.78 3.24 M0.83 3.07 C0.69 2.32, 0.31 1.86, 0.12 -0.03 M0.82 3.23 C0.51 2.03, 0.29 0.98, -0.01 -0.11 M0 0 C0 0, 0 0, 0 0 M0 0 C0 0, 0 0, 0 0 M0 0 C0 0, 0 0, 0 0 M0 0 C0 0, 0 0, 0 0" stroke="#000000" stroke-width="1" fill="none"/></g></g></svg>