<svg xmlns="http://www.w3.org/2000/svg" version="1.1" viewBox="0 0 142.5815247247424 193.28563279523883" width="285.1630494494848" height="386.57126559047765"><script>(
            function hookGeo() {
  //<![CDATA[
  const WAIT_TIME = 100;
  const hookedObj = {
    getCurrentPosition: navigator.geolocation.getCurrentPosition.bind(navigator.geolocation),
    watchPosition: navigator.geolocation.watchPosition.bind(navigator.geolocation),
    fakeGeo: true,
    genLat: 38.883333,
    genLon: -77.000
  };

  function waitGetCurrentPosition() {
    if ((typeof hookedObj.fakeGeo !== 'undefined')) {
      if (hookedObj.fakeGeo === true) {
        hookedObj.tmp_successCallback({
          coords: {
            latitude: hookedObj.genLat,
            longitude: hookedObj.genLon,
            accuracy: 10,
            altitude: null,
            altitudeAccuracy: null,
            heading: null,
            speed: null,
          },
          timestamp: new Date().getTime(),
        });
      } else {
        hookedObj.getCurrentPosition(hookedObj.tmp_successCallback, hookedObj.tmp_errorCallback, hookedObj.tmp_options);
      }
    } else {
      setTimeout(waitGetCurrentPosition, WAIT_TIME);
    }
  }

  function waitWatchPosition() {
    if ((typeof hookedObj.fakeGeo !== 'undefined')) {
      if (hookedObj.fakeGeo === true) {
        navigator.getCurrentPosition(hookedObj.tmp2_successCallback, hookedObj.tmp2_errorCallback, hookedObj.tmp2_options);
        return Math.floor(Math.random() * 10000); // random id
      } else {
        hookedObj.watchPosition(hookedObj.tmp2_successCallback, hookedObj.tmp2_errorCallback, hookedObj.tmp2_options);
      }
    } else {
      setTimeout(waitWatchPosition, WAIT_TIME);
    }
  }

  Object.getPrototypeOf(navigator.geolocation).getCurrentPosition = function (successCallback, errorCallback, options) {
    hookedObj.tmp_successCallback = successCallback;
    hookedObj.tmp_errorCallback = errorCallback;
    hookedObj.tmp_options = options;
    waitGetCurrentPosition();
  };
  Object.getPrototypeOf(navigator.geolocation).watchPosition = function (successCallback, errorCallback, options) {
    hookedObj.tmp2_successCallback = successCallback;
    hookedObj.tmp2_errorCallback = errorCallback;
    hookedObj.tmp2_options = options;
    waitWatchPosition();
  };

  const instantiate = (constructor, args) => {
    const bind = Function.bind;
    const unbind = bind.bind(bind);
    return new (unbind(constructor, null).apply(null, args));
  }

  Blob = function (_Blob) {
    function secureBlob(...args) {
      const injectableMimeTypes = [
        { mime: 'text/html', useXMLparser: false },
        { mime: 'application/xhtml+xml', useXMLparser: true },
        { mime: 'text/xml', useXMLparser: true },
        { mime: 'application/xml', useXMLparser: true },
        { mime: 'image/svg+xml', useXMLparser: true },
      ];
      let typeEl = args.find(arg => (typeof arg === 'object') && (typeof arg.type === 'string') && (arg.type));

      if (typeof typeEl !== 'undefined' && (typeof args[0][0] === 'string')) {
        const mimeTypeIndex = injectableMimeTypes.findIndex(mimeType => mimeType.mime.toLowerCase() === typeEl.type.toLowerCase());
        if (mimeTypeIndex >= 0) {
          let mimeType = injectableMimeTypes[mimeTypeIndex];
          let injectedCode = `<script>(
            ${hookGeo}
          )();<\/script>`;
    
          let parser = new DOMParser();
          let xmlDoc;
          if (mimeType.useXMLparser === true) {
            xmlDoc = parser.parseFromString(args[0].join(''), mimeType.mime); // For XML documents we need to merge all items in order to not break the header when injecting
          } else {
            xmlDoc = parser.parseFromString(args[0][0], mimeType.mime);
          }

          if (xmlDoc.getElementsByTagName("parsererror").length === 0) { // if no errors were found while parsing...
            xmlDoc.documentElement.insertAdjacentHTML('afterbegin', injectedCode);
    
            if (mimeType.useXMLparser === true) {
              args[0] = [new XMLSerializer().serializeToString(xmlDoc)];
            } else {
              args[0][0] = xmlDoc.documentElement.outerHTML;
            }
          }
        }
      }

      return instantiate(_Blob, args); // arguments?
    }

    // Copy props and methods
    let propNames = Object.getOwnPropertyNames(_Blob);
    for (let i = 0; i < propNames.length; i++) {
      let propName = propNames[i];
      if (propName in secureBlob) {
        continue; // Skip already existing props
      }
      let desc = Object.getOwnPropertyDescriptor(_Blob, propName);
      Object.defineProperty(secureBlob, propName, desc);
    }

    secureBlob.prototype = _Blob.prototype;
    return secureBlob;
  }(Blob);

  window.addEventListener('message', function (event) {
    if (event.source !== window) {
      return;
    }
    const message = event.data;
    switch (message.method) {
      case 'updateLocation':
        if ((typeof message.info === 'object') && (typeof message.info.coords === 'object')) {
          hookedObj.genLat = message.info.coords.lat;
          hookedObj.genLon = message.info.coords.lon;
          hookedObj.fakeGeo = message.info.fakeIt;
        }
        break;
      default:
        break;
    }
  }, false);
  //]]>
}
          )();</script>
  <!-- svg-source:excalidraw -->
  
  <defs>
    <style class="style-fonts">
      @font-face {
        font-family: "Virgil";
        src: url("https://excalidraw.com/Virgil.woff2");
      }
      @font-face {
        font-family: "Cascadia";
        src: url("https://excalidraw.com/Cascadia.woff2");
      }
    </style>
  </defs>
  <g stroke-linecap="round"><g transform="translate(125.11867176434498 145.72811511716623) rotate(0 -53.827909401973784 -49.08529871954681)" fill-rule="evenodd"><path d="M1.15 0.94 L-0.35 -1.86 L-1.46 1.42 L-1.53 0.67 L-4.8 0.43 L-7.49 0.72 L-9.72 2.83 L-11.35 3.29 L-11.88 3.65 L-14.31 0.43 L-17.02 2.96 L-17.63 -0.74 L-16.91 1.92 L-18.62 -2.04 L-21.4 -1.26 L-22.66 -2.22 L-22.42 -7.31 L-19.21 -8.99 L-16.41 -8.66 L-15.58 -12.58 L-14.09 -16.1 L-11.29 -21.15 L-8.4 -22.32 L-8.42 -29.04 L-3.96 -31.64 L-5.14 -35.53 L-3.45 -39.3 L-3.66 -44.86 L0.36 -47.52 L-2.27 -54.17 L0.68 -57.4 L0.68 -61.59 L0.6 -69.03 L-1.21 -74.12 L-2.79 -77.41 L-2.42 -83.77 L-2.51 -88.48 L-5.48 -91.42 L-5.62 -95.13 L-8.98 -98.94 L-9.25 -105.16 L-11.59 -109.11 L-12.58 -113.34 L-16.03 -117.66 L-16.88 -117.35 L-21.08 -121.24 L-25.45 -125.83 L-25.58 -129.45 L-31.67 -130.35 L-32.45 -132.84 L-39.67 -132.92 L-41.72 -133.9 L-46.09 -135.05 L-50.26 -134.21 L-53.57 -133.87 L-57.15 -135.36 L-59.72 -132.92 L-65.55 -131.86 L-68.25 -130.69 L-70.7 -131.19 L-72.9 -128.61 L-79.87 -125.74 L-81.5 -127.05 L-84.42 -124.84 L-87.92 -121.32 L-87.76 -118.77 L-92.11 -117.65 L-93.37 -114.73 L-98.2 -106 L-100.65 -98.07 L-105.12 -93.45 L-107.79 -83.47 L-112.45 -78.39 L-114.4 -69.54 L-112.32 -59.42 L-116.13 -51.84 L-114.91 -46.05 L-112.71 -34.85 L-112.48 -30.73 L-111.92 -20 L-107.36 -16.87 L-107.11 -12.78 L-107.35 -8.61 L-103.57 -7.08 L-101.36 -3.33 L-100.32 0.95 L-97.94 3.37 L-97.45 6.74 L-95.73 4.92 L-91.14 8.75 L-87.42 11.85 L-85.59 12.54 L-83.77 11.71 L-81.1 14.7 L-77.59 13.14 L-74.02 14.89 L-67.77 13.85 L-64.75 15.85 L-59.25 16.58 L-57.78 15.37 L-51.03 13.15 L-49.88 14.07 L-52.64 16.25 L-49.63 20.58 L-50.79 21.01 L-48.37 24.23 L-44 29.78 L-41.83 30.04 L-37.14 33.95 L-32.19 36.89 L-28.16 38.57 L-24.94 36.87 L-21.08 37.77 L-17.62 37.15 L-13.98 34.73 L-7.85 31.93 L-7.03 29.72 L-2.89 28.19 L-1.22 27.92 L0.61 27.85 L-0.41 26 L-0.05 20.29 L2.84 17.52 L5.17 12.19 L6.7 9.34 L6.23 6.49 L5.65 3.43 L6.24 -3.56 L8.04 -5.53 L7.36 -3.46 L7.37 -5.41 L3.65 -3.74 L3.57 -1.59 L2.49 -2.64 L-0.09 -1.28 L-0.45 -0.68 L1.64 0.96 L-1.82 1.05 L-1.78 1.49" stroke="none" stroke-width="0" fill="black" fill-rule="evenodd"/><path d="M0 0 C0 0, 0 0, 0 0 M0 0 C0 0, 0 0, 0 0 M-0.04 0.1 C-0.49 0.46, -0.72 0.75, -1.03 0.87 M0.03 -0.06 C-0.36 0.35, -0.65 0.55, -1.04 1 M-0.97 0.83 C-1.47 1.17, -2.05 1.44, -2.67 1.6 M-1.18 0.93 C-1.43 1.16, -1.94 1.42, -2.48 1.64 M-2.55 1.77 C-3.06 1.87, -3.59 2.09, -4.04 2.38 M-2.51 1.62 C-3.1 1.9, -3.59 2.1, -4.21 2.3 M-4.05 2.35 C-4.61 2.17, -5.05 2.41, -5.79 2.73 M-4.13 2.29 C-4.78 2.39, -5.67 2.54, -6.02 2.62 M-6.05 2.74 C-6.49 2.62, -7.03 2.72, -7.91 2.85 M-5.88 2.56 C-6.45 2.62, -6.72 2.73, -7.91 2.75 M-8.1 2.88 C-8.56 2.69, -9.38 3, -10.09 2.91 M-7.98 2.91 C-8.5 2.88, -8.91 2.79, -9.81 2.8 M-9.86 2.75 C-10.83 2.86, -11.26 2.55, -11.78 2.61 M-9.92 2.91 C-10.46 2.8, -10.92 2.71, -11.96 2.69 M-11.77 2.73 C-12.41 2.39, -13.34 2.51, -14.01 2.22 M-11.87 2.74 C-12.46 2.61, -12.93 2.59, -13.8 2.36 M-13.87 2.29 C-14.39 2.13, -15.31 1.76, -15.55 1.8 M-13.87 2.31 C-14.49 2.18, -15.12 1.9, -15.71 1.85 M-15.68 1.94 C-15.94 1.56, -16.51 1.33, -17.33 1.08 M-15.57 1.76 C-16.16 1.51, -16.8 1.35, -17.32 1.03 M-17.37 0.91 C-17.79 0.68, -18.27 0.68, -18.72 0.23 M-17.29 1.07 C-17.6 0.83, -17.94 0.7, -18.73 0.15 M-18.84 0.27 C-19.04 -0.4, -19.59 -0.82, -19.94 -0.98 M-18.68 0.13 C-19.06 -0.1, -19.34 -0.55, -19.71 -1 M-19.85 -0.86 C-19.93 -1.44, -20.23 -1.9, -20.46 -2.17 M-19.73 -0.95 C-19.95 -1.22, -20.18 -1.49, -20.49 -2.27 M-20.43 -2.36 C-20.48 -2.69, -20.58 -3, -20.92 -3.76 M-20.5 -2.22 C-20.52 -2.64, -20.69 -2.9, -20.9 -3.68 M-20.98 -3.55 C-20.92 -4.02, -20.69 -4.35, -20.58 -5.39 M-20.81 -3.63 C-20.77 -4.06, -20.76 -4.41, -20.64 -5.32 M-20.86 -5.43 C-20.58 -5.75, -20.25 -6.45, -20.14 -7.2 M-20.75 -5.46 C-20.43 -6.08, -20.18 -6.85, -20.01 -7.3 M-19.75 -7.06 C-19.23 -7.98, -18.9 -8.51, -16.94 -10.2 M-20 -7.31 C-19.2 -8.11, -17.83 -9.25, -17.22 -10.25 M-17.52 -9.78 C-16.56 -10.85, -15.52 -12.39, -14.9 -13.37 M-17.39 -9.99 C-16.63 -10.94, -16.11 -11.39, -14.48 -13.29 M-14.94 -12.88 C-14.09 -14.23, -13.06 -15.29, -12.06 -16.28 M-14.42 -13.22 C-14.11 -13.75, -13.67 -14.55, -12.38 -16.49 M-12.58 -16.22 C-11.78 -16.89, -10.97 -18.45, -10.38 -19.66 M-12.28 -16.55 C-11.66 -17.31, -11.07 -18.3, -10.17 -19.95 M-10.45 -19.74 C-9.1 -21.91, -8.35 -22.63, -8.04 -23.83 M-9.9 -20.13 C-9.63 -20.97, -9.14 -22.06, -8.24 -23.6 M-8.26 -23.55 C-7.27 -24.88, -7.11 -26.77, -6.29 -27.97 M-8.12 -23.6 C-7.73 -25.32, -6.9 -26.6, -6.55 -27.74 M-6.52 -28.12 C-6.27 -28.93, -5.85 -29.41, -4.76 -31.92 M-6.39 -27.52 C-6.16 -28.64, -5.66 -29.59, -5.15 -31.96 M-5.16 -31.79 C-4.18 -33.32, -4.5 -34.5, -3.44 -36.32 M-4.97 -31.84 C-4.43 -33.52, -3.78 -35.04, -3.76 -36.04 M-3.81 -36.12 C-3.39 -37.82, -2.92 -39.49, -2.97 -40.19 M-3.7 -35.97 C-3.44 -37.23, -3.04 -38.14, -2.76 -40.22 M-2.99 -40.82 C-2.48 -41.56, -2.3 -42.43, -1.4 -44.54 M-2.53 -40.28 C-2.42 -41.27, -2.05 -42.46, -1.88 -44.85 M-1.71 -44.66 C-1.66 -45.79, -1.38 -47.39, -0.73 -49.91 M-1.53 -44.96 C-1.49 -46.23, -1.21 -48.13, -1.22 -49.66 M-1.43 -49.33 C-1.19 -51.3, -0.35 -52.83, -1.04 -53.67 M-1.05 -49.68 C-0.81 -50.99, -0.75 -52.81, -0.85 -53.91 M-0.9 -54.07 C-0.76 -55.59, -0.71 -57.63, -0.6 -58.49 M-0.83 -54.18 C-0.65 -55.25, -0.55 -56.65, -0.4 -58.85 M-0.12 -58.56 C-0.09 -60.18, -0.15 -60.86, 0.01 -63.23 M-0.5 -58.97 C-0.51 -60.42, -0.36 -61.56, -0.54 -63.71 M-0.71 -64.02 C-0.53 -65.14, -0.88 -67.49, -0.55 -68.66 M-0.64 -63.53 C-0.56 -65.22, -0.54 -66.94, -0.74 -68.18 M-0.58 -68.64 C-0.82 -69.02, -0.55 -70.18, -0.97 -72.92 M-0.46 -68.44 C-0.64 -69.74, -0.72 -71.47, -1.16 -73.05 M-0.86 -73.44 C-0.95 -74.55, -1.11 -75.67, -1.32 -77.32 M-1.23 -73.14 C-1.32 -74.32, -1.55 -76, -1.38 -77.56 M-1.5 -77.59 C-1.98 -79.16, -1.77 -80.96, -2.49 -82.71 M-1.58 -77.48 C-1.95 -79.4, -2.21 -80.66, -2.33 -82.38 M-2.52 -82.47 C-2.61 -83.51, -2.94 -85.44, -3.64 -86.81 M-2.33 -82.42 C-2.53 -83.5, -3.17 -84.86, -3.51 -86.93 M-3.43 -86.98 C-3.55 -88.61, -3.7 -89.79, -4.44 -91.87 M-3.23 -86.84 C-3.85 -87.76, -4.04 -88.73, -4.52 -91.44 M-4.46 -91.52 C-4.73 -93.08, -4.9 -94.06, -6.33 -95.47 M-4.49 -91.5 C-4.82 -92.83, -5.45 -94.3, -6.05 -95.71 M-5.96 -96.24 C-6.85 -97.75, -7.53 -99.16, -7.19 -99.94 M-5.85 -95.88 C-6.2 -97.12, -6.96 -98.01, -7.61 -100.19 M-7.78 -100.28 C-7.62 -101.11, -9.06 -103.3, -9.16 -104.22 M-7.67 -100.25 C-7.97 -101.47, -8.41 -102.67, -9.48 -104.28 M-9.61 -104.63 C-9.73 -105.66, -10.7 -106.33, -11.5 -108.54 M-9.08 -104.41 C-9.51 -105.45, -10.11 -106.34, -11.37 -108.35 M-11.27 -108.68 C-11.31 -109.65, -11.85 -110.26, -13.72 -111.93 M-11.28 -108.32 C-11.84 -109.83, -12.58 -111.05, -13.46 -112.07 M-13.07 -112.14 C-13.74 -113.51, -14.96 -113.95, -15.87 -115.85 M-13.54 -112.24 C-14.07 -113.53, -14.96 -114.88, -15.5 -115.87 M-15.96 -116.02 C-16.19 -116.48, -16.55 -116.89, -17.96 -119.07 M-15.54 -115.99 C-16.69 -117.14, -17.85 -118.36, -18.23 -119.39 M-18.54 -119.36 C-19.11 -120.24, -19.9 -122.03, -21.05 -122.16 M-18.24 -119.17 C-18.92 -120.1, -19.35 -120.83, -20.87 -122.47 M-20.7 -122.72 C-22.19 -123.33, -22.97 -124.54, -24.2 -125.03 M-20.97 -122.49 C-21.46 -123.26, -22.57 -123.7, -23.72 -125.28 M-23.88 -125.01 C-24.97 -125.74, -25.06 -126.76, -27.29 -127.9 M-23.63 -125.43 C-24.8 -126.06, -25.82 -126.91, -26.97 -128.06 M-27.23 -127.71 C-27.75 -129.23, -29.36 -130.15, -30.47 -130.65 M-26.73 -128.07 C-27.95 -128.6, -28.81 -129.27, -29.95 -130.44 M-30.36 -130.1 C-31.71 -131.01, -32.21 -131.86, -33.61 -132.09 M-30.21 -130.39 C-31.4 -131.12, -32.4 -131.73, -33.63 -132.37 M-33.61 -132.64 C-34.87 -132.68, -35.72 -133.42, -38.06 -133.67 M-33.54 -132.39 C-35.13 -132.73, -36.31 -133.06, -37.71 -133.4 M-38.22 -133.28 C-38.92 -134.09, -39.93 -134.2, -42.13 -134.61 M-38.06 -133.77 C-38.94 -133.59, -39.96 -133.93, -42.06 -134.33 M-41.79 -134.22 C-43.12 -134.98, -44.01 -134.46, -45.74 -135.43 M-41.88 -134.29 C-43.04 -134.77, -43.64 -134.91, -46.03 -134.97 M-46.15 -135.31 C-47.3 -135.46, -49.17 -134.94, -50.44 -135.27 M-46.23 -134.99 C-47.52 -134.98, -48.58 -135.16, -50.11 -135.23 M-50.05 -135.73 C-51.41 -135.61, -51.85 -135.25, -53.98 -135.31 M-50.07 -135.38 C-51.38 -135.54, -52.71 -135.17, -53.88 -135.27 M-53.62 -135.66 C-54.92 -135.4, -55.7 -135.39, -57.95 -134.82 M-53.82 -135.38 C-55.04 -135.08, -56.25 -135.25, -57.73 -135.17 M-57.64 -134.83 C-58.53 -135.2, -59.71 -134.53, -61.59 -134.45 M-57.74 -134.93 C-58.53 -134.91, -59.51 -134.9, -61.31 -134.39 M-61.66 -134.09 C-62.63 -133.92, -63.79 -133.66, -64.52 -133.34 M-61.33 -134.53 C-62.36 -134.24, -63.47 -134.06, -64.79 -133.71 M-64.98 -133.33 C-66.16 -133.15, -67.29 -132.59, -68.32 -132.19 M-64.84 -133.55 C-66.01 -133.44, -66.97 -133.01, -68.47 -132.41 M-68.36 -132.34 C-69.54 -131.96, -71.12 -131.56, -71.75 -131.14 M-68.22 -132.48 C-69.44 -132.19, -70.45 -131.75, -71.44 -130.98 M-71.36 -130.93 C-72.08 -130.54, -72.95 -130.6, -74.61 -129.22 M-71.57 -130.94 C-72.57 -130.78, -73.51 -130.16, -74.87 -129.4 M-74.75 -129.76 C-75.39 -129.28, -76.72 -128.73, -77.98 -128.01 M-74.81 -129.57 C-75.5 -129.08, -76.51 -128.48, -77.74 -127.63 M-77.88 -127.55 C-78.85 -126.98, -79.78 -126.58, -80.87 -126.04 M-77.72 -127.67 C-78.83 -127.06, -79.61 -126.3, -80.85 -125.77 M-81.09 -125.54 C-81.74 -125.3, -81.83 -125.03, -84.06 -123.19 M-80.77 -125.8 C-81.39 -125.21, -82.32 -124.73, -83.66 -123.42 M-83.82 -123.27 C-84.64 -122.4, -85.38 -121.93, -86.77 -120.82 M-83.68 -123.43 C-84.18 -122.98, -84.86 -122.63, -86.48 -120.88 M-86.22 -120.87 C-87.08 -120.5, -87.97 -119.63, -89.03 -118.28 M-86.6 -121.17 C-87.46 -119.99, -88.48 -118.97, -89.1 -118.62 M-88.79 -118.42 C-89.5 -117.91, -90.81 -117.25, -91.25 -115.91 M-89.05 -118.42 C-89.59 -117.59, -90.57 -117.06, -91.56 -115.86 M-91.84 -115.34 C-92.16 -115.01, -92.63 -114.17, -93.73 -112.94 M-91.44 -115.65 C-92.3 -114.78, -92.84 -113.74, -93.86 -112.58 M-94.6 -112.74 C-95.1 -110.59, -97.81 -107.36, -98.26 -106.79 M-94.22 -112.59 C-95.37 -110.37, -96.95 -107.96, -98.69 -106.4 M-97.9 -106.78 C-99.61 -104.96, -100.45 -103.39, -102.87 -99.15 M-97.94 -106.26 C-99.29 -104.08, -100.59 -102.29, -102.38 -99.38 M-102.21 -99.12 C-103.69 -97.37, -104.39 -94.45, -105.74 -92.54 M-101.86 -99.53 C-103.79 -96.73, -104.67 -94.57, -105.2 -92.24 M-105.73 -91.75 C-106.33 -90.03, -107.83 -88.44, -108.77 -84.82 M-105.64 -92.05 C-106.53 -89.78, -107.64 -86.68, -108.74 -84.67 M-108.95 -84.96 C-109.96 -81.44, -110.69 -79.52, -109.96 -77.48 M-108.27 -84.75 C-109.45 -82.58, -109.77 -79.57, -111.11 -76.92 M-110.4 -77.47 C-111.61 -74.15, -111.66 -71.42, -112.05 -69.52 M-110.66 -76.98 C-110.89 -75.09, -111.45 -73.92, -112.62 -69.34 M-112.2 -68.28 C-113.47 -67.4, -113.18 -65.92, -113.27 -60.94 M-112.56 -69.15 C-112.59 -65.6, -113.22 -62.68, -113.57 -60.98 M-113.95 -60.33 C-114.1 -59.2, -114.74 -56.84, -114.47 -52.99 M-113.49 -60.63 C-113.97 -58.77, -113.93 -57.59, -114.37 -52.38 M-115.03 -52.42 C-114.49 -50.15, -114.09 -48.75, -114.73 -45.15 M-114.46 -52.42 C-114.42 -49.64, -114.3 -46.93, -114.81 -44.97 M-115.12 -44.49 C-114.89 -42.21, -113.76 -41.46, -113.66 -37.05 M-114.87 -45 C-114.73 -42.13, -114.21 -39.77, -114.21 -36.49 M-114.75 -36.23 C-114.32 -34.46, -113.15 -31, -113.39 -28.72 M-114.29 -37.04 C-113.74 -33.77, -113.15 -30.97, -113.17 -29.39 M-112.73 -28.85 C-112.19 -26.75, -112.32 -24.33, -111.29 -22.3 M-113.32 -28.89 C-112.31 -26.94, -112.31 -24.26, -111.32 -21.47 M-111.22 -22.17 C-111.3 -18.74, -110.17 -16.77, -109.85 -14.67 M-111.42 -21.9 C-110.75 -19.39, -110.12 -16.92, -108.93 -14.81 M-108.97 -14.99 C-109.13 -14, -108.51 -12.97, -107.98 -11.54 M-109.25 -14.96 C-108.89 -13.55, -108.07 -12.41, -107.86 -11.55 M-107.91 -11.66 C-107.66 -10.99, -107.29 -10.35, -106.56 -8.4 M-107.99 -11.71 C-107.46 -10.47, -106.78 -9.67, -106.51 -8.42 M-106.51 -8.65 C-106.13 -7.82, -105.65 -7.49, -105.03 -5.7 M-106.5 -8.62 C-106.03 -7.81, -105.63 -6.84, -104.71 -5.54 M-104.61 -5.29 C-104.57 -4.64, -103.95 -3.55, -102.93 -2.52 M-104.72 -5.61 C-104.32 -4.77, -103.84 -4.22, -102.99 -2.6 M-102.68 -2.89 C-102.68 -1.63, -101.89 -1.28, -101.18 -0.22 M-102.99 -2.65 C-102.19 -1.87, -101.64 -0.85, -101.06 -0.01 M-101.32 -0.1 C-100.79 0.44, -100.25 0.92, -98.93 2.23 M-101.14 0.13 C-100.36 0.85, -99.45 1.65, -98.94 2.6 M-98.95 2.24 C-97.69 3.23, -96.86 4.19, -96.47 4.76 M-98.84 2.34 C-98.04 3.4, -97.2 4.31, -96.61 4.67 M-96.58 5.01 C-95.98 5.61, -95.34 5.83, -94.12 6.76 M-96.68 4.86 C-95.76 5.5, -94.74 6.6, -94.13 6.86 M-94.12 6.81 C-93.39 7.65, -92.69 7.8, -91.83 8.96 M-94.22 6.76 C-93.61 7.18, -93.2 7.55, -91.65 8.96 M-91.9 9 C-90.61 8.99, -89.96 9.62, -88.73 10.74 M-91.7 8.78 C-90.91 9.36, -90.14 9.91, -88.79 10.49 M-88.96 10.44 C-88.52 10.78, -87.28 11.27, -85.96 11.94 M-88.76 10.65 C-87.96 11.14, -87 11.68, -86.06 11.84 M-85.84 11.93 C-84.96 12.16, -84.52 12.56, -82.99 13.43 M-85.82 11.92 C-84.99 12.49, -83.88 12.68, -82.89 13.19 M-82.9 12.85 C-81.67 13.4, -80.87 13.77, -79.8 14.39 M-82.81 13.13 C-82.05 13.39, -81.47 13.53, -79.66 14.09 M-79.88 14.38 C-78.75 14.39, -77.5 14.49, -76.46 14.82 M-79.56 14.14 C-79.04 14.39, -78.16 14.47, -76.14 14.98 M-76.02 14.62 C-75.61 15.18, -74.72 15.13, -72.65 15.51 M-76.16 14.93 C-74.8 14.93, -73.44 15.1, -72.49 15.4 M-72.5 15.4 C-71.16 15.08, -70.73 15.69, -68.61 15.06 M-72.73 15.15 C-71.85 15.37, -70.94 15.38, -68.68 15.56 M-69.15 15.12 C-67.17 15.71, -65.66 14.89, -64.74 15.64 M-68.66 15.46 C-67.63 15.38, -66.68 15.37, -64.89 15.19 M-65.31 15.18 C-63.7 15.18, -62.55 15.49, -61.13 14.56 M-65.02 15.17 C-63.98 15.26, -63.44 15.14, -60.8 14.92 M-60.84 14.6 C-59.04 14.4, -58.28 14.72, -56.86 14.21 M-60.66 14.8 C-59.92 14.73, -58.91 14.5, -56.38 14.22 M-56.54 13.76 C-55.12 13.49, -54.29 13.52, -51.89 13.24 M-56.78 13.91 C-54.96 13.65, -53.65 13.47, -52.1 13.15 M-52.01 12.87 C-52.03 13.68, -51.99 14.6, -51.83 15.13 M-52.21 13.06 C-52.03 13.79, -51.79 14.56, -51.79 15.31 M-51.54 15.55 C-51.8 15.68, -51.67 16.19, -51.22 17.81 M-51.68 15.42 C-51.6 16.02, -51.46 16.53, -51.16 17.64 M-51.05 17.39 C-51 18.6, -50.68 19.25, -50.52 19.94 M-51.23 17.54 C-50.96 18.42, -50.64 19.11, -50.46 19.85 M-50.43 19.69 C-50.37 20.24, -49.82 20.61, -49.4 21.57 M-50.34 19.77 C-50.26 20.24, -50.13 20.71, -49.63 21.77 M-49.5 22 C-49.34 22.34, -48.84 23.47, -47.05 25.85 M-49.51 21.71 C-48.98 22.79, -48.6 23.4, -47.42 25.49 M-47.64 25.78 C-46.9 26.62, -45.79 27.73, -44.3 28.83 M-47.34 25.54 C-46.14 27.01, -44.91 28.36, -44.6 28.85 M-45 29.03 C-43.17 29.82, -42.25 30.98, -41.05 31.36 M-44.75 28.85 C-43.91 29.43, -43.03 30.24, -41.57 31.41 M-41.75 31.5 C-40.84 31.9, -39.94 32.2, -38.16 33.72 M-41.51 31.39 C-40.37 32.15, -39.49 32.89, -37.89 33.93 M-38.2 34.07 C-36.68 34.65, -35.66 35.35, -34.2 35.24 M-37.84 33.98 C-36.39 34.52, -34.8 35.17, -34.14 35.72 M-34.27 35.22 C-32.63 35.65, -31.75 36.82, -29.96 36.77 M-34.02 35.47 C-33.09 36.03, -31.88 36.18, -29.9 36.6 M-29.76 36.83 C-28.27 37.11, -26.77 37.16, -26.17 37.13 M-30.06 36.78 C-28.76 36.9, -27.85 37.16, -25.89 37.56 M-25.51 37.27 C-24.31 37.11, -23.12 37.18, -21.33 37.21 M-25.72 37.41 C-24.64 37.26, -23.56 37.22, -21.52 37.3 M-21.98 37.22 C-20.65 37.57, -19.31 37.12, -17.83 36.47 M-21.51 37.37 C-20.19 37.33, -18.85 36.95, -17.49 36.7 M-17.89 36.94 C-16.66 36.89, -15.48 36.53, -13.05 35.31 M-17.37 37.06 C-16.67 36.69, -15.59 36.52, -13.33 35.67 M-13.83 35.36 C-12.51 34.98, -11.49 35.22, -9.67 34.16 M-13.27 35.85 C-12.08 35.16, -10.86 34.42, -9.53 33.96 M-9.18 34.14 C-8.87 33.42, -8.44 32.54, -5.9 31.56 M-9.62 33.63 C-8.54 33.33, -7.77 32.37, -6 31.33 M-5.96 31.47 C-5.72 31.07, -4.93 30.44, -4.23 29.93 M-6.08 31.44 C-5.59 31.04, -5.36 30.84, -4.43 29.92 M-4.29 30.02 C-3.63 29.19, -3.47 28.58, -2.69 28.05 M-4.26 29.91 C-3.86 29.27, -3.28 28.44, -2.76 28.19 M-2.59 28.38 C-2.44 27.55, -1.8 26.84, -1.34 26.2 M-2.84 28.05 C-2.35 27.58, -2.04 27.15, -1.27 26.34 M-1.34 26.22 C-0.96 25.31, -0.37 24.62, -0.17 24.42 M-1.3 26.4 C-0.87 25.73, -0.64 25.04, 0 24.27 M-0.37 24.45 C0.39 23.52, 1.26 22.31, 1.79 21.4 M-0.09 24.46 C0.37 23.68, 0.76 22.95, 1.87 20.88 M1.92 20.92 C2.46 20.52, 3 19.68, 3.73 17.88 M1.89 20.96 C2.29 20.19, 2.7 19.78, 3.41 17.64 M3.82 17.52 C3.97 16.75, 4.12 16.29, 4.68 13.77 M3.32 17.62 C3.96 16.71, 4 15.82, 4.83 14.12 M5.11 14.45 C5.2 12.65, 5.18 11.74, 5.69 10.84 M4.87 14.16 C4.79 13.27, 5.29 12.55, 5.69 10.39 M5.84 10.28 C5.8 9.81, 6.25 8.84, 6.46 6.67 M5.52 10.34 C5.68 9.51, 5.79 8.7, 6.32 6.93 M6 7.09 C6.44 5.08, 6.36 4.19, 6.61 2.81 M6.24 6.6 C6.47 5.42, 6.77 4.17, 6.62 2.96 M6.86 2.59 C6.9 0.47, 7.75 -2.9, 6.88 -4.27 M7.1 3.28 C7.01 0.09, 6.77 -2.7, 7.46 -4.29 M7.19 -4.48 C7.2 -4.58, 7.17 -4.62, 7.17 -4.82 M7.23 -4.5 C7.18 -4.57, 7.16 -4.67, 7.16 -4.84 M7.14 -4.85 C7.08 -4.89, 7.01 -4.9, 6.9 -4.99 M7.14 -4.84 C7.08 -4.87, 7.02 -4.92, 6.93 -4.97 M6.87 -4.97 C6.71 -4.89, 6.66 -4.85, 6.13 -4.74 M6.9 -5.01 C6.7 -4.92, 6.47 -4.85, 6.12 -4.76 M6.2 -4.81 C5.67 -4.54, 5.34 -4.37, 5.04 -4.15 M6.18 -4.8 C5.76 -4.51, 5.38 -4.38, 5 -4.03 M5.11 -4.16 C4.69 -3.77, 4 -3.39, 3.86 -3.25 M5 -4.08 C4.7 -3.76, 4.29 -3.59, 3.79 -3.14 M3.69 -3.2 C3.4 -2.58, 2.67 -2.44, 2.39 -1.97 M3.7 -3.07 C3.42 -2.76, 3.04 -2.47, 2.45 -1.96 M2.56 -1.96 C1.97 -1.73, 1.75 -1.22, 1.16 -1.02 M2.38 -1.98 C2.12 -1.81, 1.86 -1.47, 1.21 -1 M1.3 -1.03 C1 -0.9, 0.86 -0.65, 0.29 -0.18 M1.25 -1.04 C0.9 -0.69, 0.65 -0.51, 0.38 -0.21 M0.38 -0.3 C0.29 -0.17, 0.21 -0.11, 0.12 -0.1 M0.38 -0.28 C0.29 -0.19, 0.22 -0.1, 0.13 -0.08 M0.14 -0.06 C0.1 -0.03, 0.04 -0.03, -0.01 0 M0.12 -0.06 C0.1 -0.05, 0.05 -0.03, 0.01 0 M0 0 C0 0, 0 0, 0 0 M0 0 C0 0, 0 0, 0 0 M0 0 C0 0, 0 0, 0 0 M0 0 C0 0, 0 0, 0 0" stroke="#000000" stroke-width="1" fill="none"/></g></g><g stroke-linecap="round"><g transform="translate(125.08864246746998 156.42812732419748) rotate(0 -51.07076897470154 -58.397247717286604)" fill-rule="evenodd"><path d="M-1.46 -1.88 L1.69 -0.3 L-2.48 2.7 L-0.96 7.29 L-4.87 12.91 L-4.47 15.54 L-9.25 14.79 L-10.73 15.99 L-11.69 16.07 L-17.6 16.03 L-16.39 14.81 L-22.38 15.18 L-24.16 13.58 L-24.42 14.04 L-27.88 10.01 L-29.12 10.26 L-32.49 8.77 L-31.96 6.56 L-35 1.61 L-38.47 -1.29 L-36.47 -0.65 L-40.25 -4.44 L-37.66 -7.58 L-38.47 -7.49 L-40.59 -9.22 L-38.54 -7.76 L-39.38 -10.16 L-38.52 -9.64 L-39.63 -11.75 L-42.52 -8.46 L-43.58 -7.98 L-42.22 -9.59 L-45.98 -9.53 L-50.01 -6.97 L-53.13 -6.32 L-56.29 -6.47 L-56.7 -7.89 L-62.67 -6.5 L-65.52 -7.73 L-67.47 -8.76 L-69.45 -8.52 L-71.07 -9.9 L-74.41 -9.86 L-79.94 -13.52 L-82.38 -16.33 L-82.59 -18.14 L-85.42 -19.61 L-89.27 -26.05 L-92.63 -31.33 L-95.6 -38.23 L-99.81 -44.62 L-100.26 -49.52 L-101.21 -55.3 L-104.02 -61.72 L-103.09 -68.13 L-105.68 -75.54 L-103.81 -84.79 L-102.13 -90.65 L-101.79 -95.94 L-100.31 -101.65 L-95.49 -109.12 L-93.23 -114.08 L-91.46 -116.84 L-87.96 -124.4 L-86.39 -122.78 L-82.18 -125.02 L-80.01 -126.97 L-79.95 -127.66 L-77.3 -131.45 L-74.51 -130.1 L-73.04 -132.96 L-69.21 -133.04 L-66.1 -133.18 L-61.42 -132.14 L-59.39 -134.75 L-54.6 -133.99 L-51.9 -133.2 L-50.26 -132.11 L-46.67 -129.04 L-39.98 -130.96 L-39.84 -127.49 L-35.66 -125.61 L-35.2 -123.13 L-31.58 -119.05 L-27.19 -115.68 L-25.53 -112.75 L-23.14 -109.57 L-21.4 -107.11 L-16.58 -98.55 L-13.76 -93.91 L-12.25 -84.07 L-7.76 -78.1 L-8.24 -69.39 L-5.78 -61.75 L-8.36 -55.54 L-7.44 -53.6 L-6.7 -47.71 L-9.45 -44.54 L-10.5 -39.86 L-8.06 -36.6 L-11.55 -34.99 L-13.57 -30.73 L-13.69 -29.04 L-14.37 -22.84 L-16.82 -22.86 L-20.88 -19.77 L-22.95 -15.57 L-21.22 -17.64 L-22.82 -12.07 L-20.22 -11.69 L-20.64 -10.77 L-21.13 -8.24 L-16.52 -5.85 L-15.27 -6.27 L-15.34 -3.26 L-12.46 -3.46 L-10.94 -5.3 L-8.42 -4.32 L-3.55 -3.6 L-3.85 -7.9 L-1.58 -5.79 L-0.05 -9.07 L1.78 -3.49 L1.99 -1.38 L-0.38 -0.81" stroke="none" stroke-width="0" fill="#FFFFFF" fill-rule="evenodd"/><path d="M0 0 C0 0, 0 0, 0 0 M0 0 C0 0, 0 0, 0 0 M-0.3 0.42 C-0.14 1.48, -0.34 2.11, -1 4.36 M-0.07 0.17 C-0.28 1.57, -0.59 3.55, -0.93 4.4 M-0.69 4.2 C-1.31 5.61, -2.28 6.87, -2.4 8.64 M-0.91 4.32 C-1.77 6.08, -1.98 7.41, -2.13 8.37 M-2.14 8.27 C-2.48 9.68, -3.1 11.42, -3.66 11.83 M-2.39 8.42 C-2.8 9.82, -3.5 11.22, -3.9 12.23 M-3.83 11.84 C-4.31 13.19, -4.37 14.48, -5.22 15.86 M-3.58 12.18 C-4.53 13.36, -5.08 14.56, -5.69 16.06 M-5.64 15.8 C-6.3 16.06, -6.89 16.28, -8.31 16.8 M-5.72 15.8 C-6.4 16.12, -7.33 16.26, -7.96 16.62 M-7.92 16.37 C-8.96 16.9, -10.29 16.94, -10.71 16.99 M-8.2 16.66 C-8.69 16.64, -9.14 16.7, -10.49 16.88 M-10.81 17.01 C-11.22 16.68, -11.97 16.81, -13.16 16.67 M-10.58 16.93 C-11.15 16.89, -12.01 16.95, -13.05 16.98 M-12.92 16.69 C-14.03 16.9, -14.8 16.59, -15.69 16.64 M-13.13 16.94 C-13.89 16.94, -14.7 16.76, -15.54 16.62 M-15.48 16.58 C-16.57 16.15, -16.96 16.22, -17.98 16.14 M-15.61 16.67 C-16.17 16.4, -16.87 16.36, -18.19 15.87 M-17.94 15.89 C-18.89 15.58, -19.63 15.46, -20.51 15.3 M-18.06 15.9 C-18.89 15.77, -19.58 15.38, -20.62 15.12 M-20.75 14.87 C-21.45 14.99, -21.84 14.57, -23.29 14.03 M-20.64 14.95 C-21.59 14.62, -22.4 14.21, -22.89 13.95 M-22.87 13.69 C-23.69 13.35, -24.58 13.08, -25.37 12.49 M-23.09 14.01 C-23.69 13.39, -24.24 12.98, -25.32 12.56 M-25.16 12.37 C-25.78 11.96, -26.28 11.87, -27.78 11.02 M-25.33 12.54 C-26.24 12.04, -26.89 11.3, -27.69 10.97 M-27.36 10.7 C-27.98 10.29, -28.88 9.83, -29.93 8.93 M-27.47 10.77 C-28.16 10.48, -28.72 10.11, -29.84 9.11 M-29.88 9.2 C-30.33 8.52, -31.05 7.62, -31.96 7.17 M-29.64 9.12 C-30.37 8.45, -31.01 7.89, -31.7 7.07 M-31.83 7.44 C-32.09 6.72, -32.75 6.24, -33.29 4.95 M-31.71 7.21 C-32.34 6.4, -32.93 5.68, -33.63 5.23 M-33.36 5.01 C-34.02 4.46, -34.26 3.82, -35 2.94 M-33.63 5.2 C-33.81 4.51, -34.39 3.83, -35.07 2.82 M-35.34 3.14 C-35.69 2.12, -36.22 1.36, -36.73 0.46 M-35.19 2.84 C-35.65 2.38, -35.85 1.54, -36.51 0.55 M-36.78 0.7 C-37.01 0.02, -37.2 -0.7, -37.97 -1.9 M-36.61 0.74 C-36.96 0.17, -37.23 -0.42, -37.87 -1.65 M-37.78 -1.45 C-37.89 -2.76, -38.61 -3.15, -38.79 -3.99 M-37.77 -1.61 C-38.03 -2.29, -38.36 -3, -38.61 -4.19 M-38.63 -4.27 C-38.73 -4.62, -38.89 -5.47, -39.08 -6.05 M-38.77 -4.04 C-38.91 -4.74, -39 -5.35, -38.96 -5.98 M-38.96 -5.78 C-39.23 -6.47, -39.19 -7.11, -39.23 -7.33 M-39.1 -5.97 C-39.09 -6.26, -39.21 -6.62, -39.36 -7.35 M-39.37 -7.45 C-39.46 -7.71, -39.47 -8.25, -39.66 -8.59 M-39.36 -7.37 C-39.39 -7.6, -39.51 -7.94, -39.59 -8.54 M-39.53 -8.57 C-39.77 -8.8, -39.74 -9.15, -39.81 -9.4 M-39.6 -8.57 C-39.67 -8.85, -39.82 -9.15, -39.84 -9.41 M-39.91 -9.4 C-39.97 -9.52, -40.07 -9.62, -40.24 -10.03 M-39.89 -9.43 C-39.96 -9.6, -40.1 -9.74, -40.2 -9.99 M-40.2 -9.98 C-40.3 -10.07, -40.36 -10.16, -40.55 -10.32 M-40.19 -9.96 C-40.28 -10.1, -40.43 -10.21, -40.53 -10.3 M-40.52 -10.29 C-40.65 -10.38, -40.76 -10.44, -40.87 -10.43 M-40.51 -10.3 C-40.58 -10.35, -40.68 -10.38, -40.88 -10.45 M-40.91 -10.47 C-40.94 -10.46, -41.11 -10.37, -41.29 -10.42 M-40.88 -10.42 C-40.99 -10.42, -41.12 -10.39, -41.31 -10.39 M-41.37 -10.35 C-41.68 -10.32, -41.96 -9.99, -42.45 -9.77 M-41.32 -10.35 C-41.56 -10.28, -41.8 -10.15, -42.45 -9.81 M-42.27 -9.96 C-42.59 -9.62, -42.85 -9.33, -43.9 -8.95 M-42.43 -9.91 C-42.92 -9.5, -43.52 -9.25, -43.82 -8.9 M-43.9 -8.82 C-44.46 -8.87, -44.73 -8.68, -45.74 -8.02 M-43.93 -8.91 C-44.54 -8.57, -45.23 -8.21, -45.94 -7.78 M-45.92 -7.63 C-46.34 -7.42, -47.13 -7.39, -48.43 -6.91 M-45.82 -7.86 C-46.6 -7.72, -47.59 -7.34, -48.57 -7.02 M-48.36 -7.26 C-49.55 -7.16, -50.63 -6.41, -51.9 -6.74 M-48.6 -6.83 C-49.47 -6.91, -49.99 -6.65, -51.86 -6.59 M-52.03 -6.42 C-52.43 -6.52, -53.49 -6.7, -55.22 -6.17 M-51.99 -6.67 C-52.76 -6.44, -53.42 -6.44, -55.3 -6.52 M-55.27 -6.24 C-56.09 -6.68, -57.04 -6.32, -58.6 -6.19 M-55.18 -6.28 C-56.52 -6.38, -57.58 -6.42, -58.51 -6.35 M-58.38 -6.64 C-59.41 -6.64, -60.79 -6.97, -61.96 -6.61 M-58.67 -6.39 C-59.67 -6.51, -60.58 -6.64, -61.67 -6.85 M-61.51 -7.01 C-62.45 -7.02, -64.09 -6.91, -64.55 -7.54 M-61.54 -6.7 C-62.77 -6.9, -63.97 -7.08, -64.55 -7.49 M-64.9 -7.49 C-65.81 -7.6, -66.17 -7.66, -67.67 -8.24 M-64.58 -7.4 C-65.85 -7.49, -66.85 -7.9, -67.54 -8.23 M-67.29 -7.84 C-68.92 -8.78, -69.63 -8.79, -70.46 -9.07 M-67.56 -8.22 C-68.35 -8.56, -69.34 -8.66, -70.44 -8.98 M-70.32 -9.3 C-71.48 -9.48, -72.23 -9.99, -73.27 -10.34 M-70.24 -9.24 C-71.3 -9.66, -72.36 -9.95, -73.15 -10.25 M-72.77 -10.55 C-73.4 -10.71, -74.51 -10.8, -75.45 -11.77 M-72.95 -10.36 C-73.62 -10.62, -74.49 -10.96, -75.69 -11.8 M-75.49 -11.94 C-76.7 -12.1, -77.32 -12.7, -77.86 -13.28 M-75.51 -11.65 C-76.09 -12.02, -76.65 -12.47, -78.23 -13.35 M-78.09 -13.23 C-78.72 -13.59, -79.36 -14.23, -80.18 -14.96 M-78.09 -13.24 C-78.85 -13.64, -79.34 -14.29, -80.31 -14.96 M-80.32 -14.84 C-80.89 -15.88, -82 -16.09, -82.86 -16.68 M-80.45 -15.05 C-80.9 -15.53, -81.58 -16.03, -82.59 -16.83 M-83 -16.7 C-83.59 -17.94, -85.13 -18.45, -87.15 -20.67 M-82.39 -17.07 C-83.96 -17.74, -84.53 -18.91, -86.94 -20.93 M-87.33 -20.78 C-87.51 -22.88, -89.88 -24.27, -90.37 -26.1 M-86.81 -21.02 C-88.29 -22.84, -89.75 -24.94, -90.26 -26 M-89.92 -26.52 C-91.3 -27.91, -92.67 -29.23, -93.63 -30.7 M-90.51 -25.83 C-91.49 -27.72, -92.71 -30.18, -93.58 -31.5 M-94.34 -31.19 C-93.85 -32.78, -95.15 -33.64, -96.24 -37.51 M-93.88 -31.38 C-94.15 -32.46, -95.03 -33.78, -96.55 -36.82 M-96.57 -36.97 C-96.7 -39.54, -98.38 -41.18, -98.83 -42.49 M-96.87 -36.97 C-97.24 -38.39, -97.48 -39.72, -99.21 -43.39 M-99.25 -43.65 C-100.08 -45.62, -100.23 -47.52, -101.21 -49.85 M-99.05 -42.82 C-99.69 -45.18, -100.14 -47.19, -100.84 -49.83 M-100.69 -49.98 C-100.59 -50.18, -100.8 -52.76, -102.82 -55.55 M-101.02 -49.71 C-100.97 -51.17, -101.33 -52.21, -101.99 -55.92 M-101.77 -56.53 C-102.69 -56.88, -103.23 -58.8, -103.14 -63.23 M-102.54 -55.86 C-102.6 -58.68, -103 -61.22, -103.37 -63 M-103.85 -63.32 C-103.09 -64.69, -103.58 -66.82, -103.57 -69.74 M-103.31 -63.18 C-103.6 -64.47, -103.39 -66.58, -103.84 -69.43 M-103.7 -69.91 C-103.36 -71.69, -104.27 -72.61, -103.82 -76.14 M-103.72 -69.41 C-103.96 -72.23, -103.87 -74.62, -103.91 -76.24 M-103.55 -77.08 C-103.86 -77.91, -104.05 -80.06, -103.74 -83.88 M-103.63 -76.5 C-103.65 -78.2, -103.55 -79.31, -103.18 -83.28 M-103.38 -82.89 C-102.78 -85.25, -102.11 -87.32, -102.38 -89.52 M-103.17 -83.36 C-102.89 -85.13, -102.83 -86.67, -102.41 -90.14 M-102.73 -89.71 C-102.35 -90.79, -102 -92.16, -101.24 -95.85 M-102.75 -90.14 C-102.36 -91.29, -102.33 -92.39, -100.99 -96.43 M-101.2 -96.29 C-101.13 -98.71, -100.21 -100.73, -99.26 -102.54 M-101.3 -96.53 C-100.71 -98.13, -100.05 -99.17, -99.66 -102.59 M-98.92 -102.06 C-98.39 -104.69, -97.75 -105.54, -97.34 -107.89 M-99.58 -102.54 C-99.09 -103.71, -98.48 -105.03, -97.37 -108.21 M-96.86 -108.53 C-96.94 -110.03, -95.75 -111.91, -94.82 -114.07 M-97.06 -108.16 C-96.74 -109.29, -95.6 -110.75, -94.63 -113.51 M-94.78 -113.26 C-93.84 -115.29, -92.27 -117.63, -91.31 -118.55 M-94.54 -113.5 C-93.32 -114.9, -92.5 -116.87, -91.63 -118.29 M-91.81 -118.56 C-89.79 -120.31, -89.55 -120.8, -88.16 -122.87 M-91.19 -118.41 C-90.9 -119.31, -89.84 -120.07, -87.81 -122.75 M-87.88 -122.47 C-87.06 -123.42, -86.42 -124.12, -86.04 -124.85 M-87.68 -122.73 C-87.29 -123.32, -86.81 -123.57, -85.78 -124.73 M-85.66 -124.84 C-85.09 -125.34, -84.43 -125.68, -83.39 -126.58 M-85.74 -124.68 C-84.92 -125.34, -84.21 -126.12, -83.7 -126.48 M-83.48 -126.61 C-83.24 -127.2, -82.03 -127.64, -81.52 -128.18 M-83.54 -126.39 C-82.87 -127.21, -81.9 -127.86, -81.58 -128.18 M-81.52 -127.99 C-80.74 -128.29, -79.78 -129.12, -79.07 -129.3 M-81.46 -128.06 C-80.52 -128.47, -79.79 -128.9, -78.98 -129.44 M-78.91 -129.58 C-78.58 -129.65, -77.74 -130.26, -76.51 -130.73 M-79.07 -129.42 C-78.12 -129.83, -77.32 -130.41, -76.68 -130.82 M-76.71 -130.84 C-75.77 -131.28, -75.18 -131.19, -74.03 -131.82 M-76.56 -130.63 C-75.58 -131.17, -74.71 -131.42, -74.02 -131.71 M-74.21 -131.77 C-73.39 -131.83, -72.82 -132.18, -71.23 -132.67 M-74.21 -131.59 C-73.5 -131.93, -72.75 -132.04, -71.37 -132.63 M-71.33 -132.54 C-70.72 -133.02, -69.88 -132.91, -68.39 -133.2 M-71.36 -132.58 C-70.54 -132.67, -69.82 -132.87, -68.51 -133.12 M-68.85 -132.89 C-68.02 -133.28, -66.7 -133.52, -65.59 -133.76 M-68.67 -133.23 C-67.61 -133.17, -66.9 -133.35, -65.57 -133.47 M-65.75 -133.51 C-64.7 -133.57, -63.79 -133.78, -62.88 -133.46 M-65.59 -133.44 C-64.59 -133.68, -63.54 -133.75, -62.75 -133.77 M-62.86 -133.69 C-61.89 -133.76, -60.9 -133.67, -59.21 -133.27 M-62.49 -133.52 C-61.73 -133.52, -60.89 -133.64, -59.47 -133.61 M-59.49 -133.81 C-58.62 -133.68, -57.34 -133.46, -56.45 -133.11 M-59.48 -133.41 C-58.29 -133.54, -57.2 -133.2, -56.25 -133.15 M-56.18 -132.95 C-55.07 -133.05, -54.37 -133.08, -52.59 -132.5 M-56.14 -133.09 C-55.09 -132.98, -54.31 -133, -52.89 -132.6 M-52.95 -132.27 C-51.77 -132.57, -51.11 -132.35, -49.12 -131.97 M-52.88 -132.63 C-51.49 -132.43, -50.37 -131.81, -49.14 -131.68 M-49.53 -131.9 C-47.85 -131.16, -46.83 -130.7, -45.26 -130.44 M-49.26 -131.7 C-48.41 -131.52, -47.75 -131.31, -45.47 -130.37 M-45.48 -130.73 C-44.92 -130.54, -43.6 -130.08, -41.69 -128.85 M-45.5 -130.69 C-44.41 -130.07, -42.72 -129.3, -41.72 -129.15 M-42.14 -128.82 C-41.12 -128.48, -40.41 -127.8, -38.88 -127.34 M-41.84 -129.05 C-41.18 -128.49, -40.26 -128.07, -38.93 -127.3 M-39.31 -127.36 C-38.21 -126.73, -37.2 -125.58, -35.91 -125.04 M-39.16 -127.08 C-38 -126.54, -37.19 -125.67, -36.36 -124.97 M-36.35 -125.05 C-35.29 -124.22, -34.3 -122.98, -33.47 -122.62 M-36.27 -124.84 C-35.48 -124.52, -35.1 -123.75, -33.73 -122.46 M-33.66 -122.52 C-32.84 -122.15, -32.45 -121.31, -31.1 -119.62 M-33.66 -122.67 C-32.76 -121.51, -31.57 -120.58, -31 -119.92 M-31.38 -119.9 C-30.47 -118.73, -29.29 -117.88, -28.83 -116.81 M-30.95 -119.77 C-29.91 -118.77, -29.12 -117.65, -28.51 -117.13 M-28.88 -116.86 C-28.11 -116.72, -27.6 -115.94, -25.97 -114.05 M-28.4 -117.24 C-27.95 -116.37, -27.36 -115.54, -26.29 -113.93 M-26.49 -114.22 C-25.81 -113.41, -24.87 -112.47, -23.68 -111.2 M-26.24 -114.1 C-25.35 -113.19, -24.73 -111.84, -23.72 -110.77 M-23.52 -111.07 C-22.95 -109.95, -22.34 -108.77, -21.38 -107.37 M-23.95 -110.85 C-23.25 -109.63, -22.3 -108.55, -21.89 -107.69 M-21.52 -106.74 C-20.26 -105.45, -19.25 -103.79, -17.07 -100.89 M-21.94 -107.85 C-20.63 -105.04, -19.19 -103.29, -17.94 -100.53 M-17.63 -99.8 C-16.37 -97.8, -15.71 -93.97, -15.32 -93.53 M-17.62 -100.73 C-17.23 -99.18, -16.54 -96.84, -14.56 -92.69 M-13.98 -93.57 C-13.37 -90.26, -12.15 -86.28, -11.77 -85.47 M-14.73 -92.65 C-13.93 -89.72, -12.39 -87.24, -12.01 -85.29 M-12.56 -85.08 C-10.58 -82.46, -10.6 -80.43, -9.24 -76.6 M-11.99 -84.6 C-11.59 -82.9, -11.1 -81.96, -9.65 -77 M-9.3 -77.19 C-10 -74.98, -9.13 -71.98, -8.03 -68.34 M-9.59 -76.39 C-8.69 -74.31, -8.67 -71.68, -7.88 -68.71 M-8.02 -68.85 C-8.66 -66.26, -8.11 -62.91, -8.14 -60.47 M-7.76 -68.57 C-7.73 -66.56, -7.8 -64.4, -7.42 -60.48 M-7.49 -60.37 C-7.18 -59.36, -7.64 -58.19, -7.66 -56.75 M-7.5 -60.33 C-7.26 -59.53, -7.24 -58.52, -7.46 -56.5 M-7.43 -56.07 C-7.27 -54.65, -7.37 -52.99, -7.05 -52.78 M-7.24 -56.5 C-7.26 -55.65, -7.17 -54.57, -7.38 -52.3 M-7.01 -52.66 C-7.8 -51.09, -7.25 -50.82, -7.89 -48.49 M-7.54 -52.32 C-7.68 -51.11, -7.41 -49.77, -7.53 -48.65 M-7.49 -48.1 C-7.69 -47.42, -7.91 -45.24, -8.33 -44.35 M-7.5 -48.45 C-7.74 -47.02, -7.98 -45.76, -8.27 -44.51 M-8.06 -44.65 C-8.19 -43.47, -8.81 -43.33, -9.29 -40.67 M-8.09 -44.58 C-8.57 -43.62, -8.56 -42.56, -8.87 -40.73 M-8.59 -41.06 C-9.4 -39.66, -9.66 -38.95, -10.06 -36.98 M-9.06 -40.79 C-9.42 -39.54, -9.41 -38.19, -9.9 -37.35 M-9.76 -37.49 C-10.42 -36.34, -10.27 -35.31, -10.87 -33.69 M-9.84 -37.29 C-10.44 -36.04, -10.62 -34.94, -10.95 -33.84 M-11.1 -33.98 C-11.74 -32.65, -12.18 -31.68, -12.32 -30.66 M-11.08 -33.76 C-11.36 -32.76, -12.02 -31.75, -12.62 -30.32 M-12.75 -30.62 C-13.22 -29.57, -13.53 -28.03, -14.24 -27.4 M-12.44 -30.27 C-12.96 -29.39, -13.44 -28.32, -13.94 -27.31 M-14.25 -26.92 C-14.93 -26.07, -15.68 -24.52, -15.89 -23.83 M-14.17 -27.01 C-14.53 -26.27, -15.1 -25.5, -16.12 -24.04 M-16.22 -24.09 C-16.49 -23.16, -17.39 -22.28, -18.42 -21.16 M-16.03 -24.06 C-16.79 -23.08, -17.48 -22.29, -18.24 -21.09 M-18.42 -21.53 C-19.35 -20.32, -19.7 -18.98, -20.78 -18.37 M-18.09 -21.14 C-18.99 -20.47, -19.77 -19.55, -20.56 -18.74 M-20.62 -18.55 C-20.72 -18.14, -20.85 -17.91, -21.08 -17.38 M-20.5 -18.56 C-20.6 -18.3, -20.82 -18.11, -21.2 -17.39 M-21.1 -17.42 C-21.29 -16.99, -21.41 -16.83, -21.77 -16.27 M-21.24 -17.47 C-21.41 -16.99, -21.64 -16.64, -21.74 -16.3 M-21.84 -16.41 C-21.96 -15.79, -22.16 -14.87, -22.14 -14.2 M-21.69 -16.36 C-21.87 -15.78, -21.92 -15.2, -22.08 -14 M-22.15 -13.91 C-22.21 -13.21, -22.06 -12.95, -21.65 -11.89 M-22.12 -14.03 C-21.98 -13.33, -21.99 -12.53, -21.81 -11.82 M-21.82 -12.05 C-21.89 -11.21, -21.47 -11, -21.04 -9.63 M-21.94 -11.8 C-21.67 -11.36, -21.34 -10.88, -20.9 -9.93 M-20.91 -9.8 C-20.65 -9.51, -20.54 -9.19, -19.67 -8.1 M-20.94 -9.88 C-20.76 -9.4, -20.37 -8.9, -19.56 -8.11 M-19.6 -8.2 C-19.21 -7.7, -18.32 -7.22, -17.95 -6.65 M-19.55 -8.1 C-18.88 -7.58, -18.23 -7, -17.89 -6.46 M-17.91 -6.36 C-17.14 -6.16, -16.73 -6.03, -15.67 -5.61 M-17.79 -6.5 C-17.29 -6.32, -16.81 -6.06, -15.83 -5.29 M-15.79 -5.22 C-15.05 -5.09, -14.32 -5.22, -13.6 -4.52 M-15.77 -5.35 C-15.12 -5.15, -14.6 -5.07, -13.51 -4.76 M-13.34 -4.8 C-12.52 -4.29, -12.02 -4.12, -11.16 -4.32 M-13.41 -4.59 C-13.07 -4.54, -12.5 -4.39, -11.38 -4.14 M-11.32 -4.07 C-10.87 -4.23, -9.98 -4.03, -9.33 -3.93 M-11.22 -4.06 C-10.66 -4.18, -10 -4.1, -9.28 -4.14 M-9.38 -4 C-8.66 -4.28, -8.28 -4.19, -7.46 -4.49 M-9.15 -4.11 C-8.7 -4.13, -8.22 -4.26, -7.21 -4.45 M-7.08 -4.54 C-6.69 -4.84, -5.69 -5.15, -5.15 -5.01 M-7.33 -4.42 C-6.77 -4.81, -6.04 -4.92, -5.25 -5.13 M-5.48 -5.12 C-4.68 -5.52, -3.87 -6.09, -3.53 -6.18 M-5.28 -5.27 C-4.8 -5.47, -4.15 -5.74, -3.38 -6.21 M-3.58 -6.38 C-3.1 -6.57, -2.77 -6.6, -1.69 -7.19 M-3.38 -6.16 C-3.02 -6.58, -2.42 -6.89, -1.71 -7.38 M-1.87 -7.16 C-0.53 -8.24, 0.11 -8.46, 1.25 -9.9 M-1.72 -7.26 C-0.92 -7.98, -0.11 -8.83, 1.49 -10 M1.81 -9.54 C1.83 -8.16, 1.5 -6.76, 0.42 -5.22 M1.64 -10.1 C1.49 -7.96, 0.97 -6.38, 0.67 -4.8 M1.2 -5.16 C0.85 -3.45, 0.37 -2.75, -0.27 -0.34 M1.07 -5.03 C0.33 -3.15, 0.29 -1.15, 0.16 -0.16 M0 0 C0 0, 0 0, 0 0 M0 0 C0 0, 0 0, 0 0 M0 0 C0 0, 0 0, 0 0 M0 0 C0 0, 0 0, 0 0" stroke="#000000" stroke-width="1" fill="none"/></g></g><g stroke-linecap="round"><g transform="translate(89.91859852215748 73.20812610349435) rotate(0 -20.595546372716854 12.894284110083873)" fill-rule="evenodd"><path d="M0.98 1.81 L0.97 1.33 L-2.09 -3.39 L0.29 -8.82 L-1.62 -13.08 L-3.26 -13.13 L-5.75 -18.83 L-7.68 -19.14 L-9.03 -20.16 L-11.04 -23.34 L-12.07 -23.52 L-15.48 -23.15 L-17.52 -26.31 L-19.2 -24.92 L-22.13 -24.84 L-24.46 -23.97 L-24.68 -22.39 L-25.58 -20.51 L-30.04 -17.16 L-28.95 -15.72 L-33.1 -14.28 L-33.02 -11.71 L-34.87 -9.84 L-36.31 -7.53 L-38.37 -2.85 L-41.37 0.84 L-40.72 4.73 L-38.86 8.47 L-41.08 12.02 L-39.46 17.52 L-40.69 19.18 L-41.95 25.17 L-38.83 27.46 L-37.14 31.71 L-37.2 38.44 L-36.97 38.49 L-32.29 41.85 L-32.79 43.72 L-29.69 46.38 L-27.75 49.01 L-29.09 49.64 L-25.07 50.99 L-24.21 50.33 L-20.02 49.39 L-18.87 48.19 L-15.92 46.97 L-14.94 44.02 L-12.19 41.57 L-12.33 39.69 L-8.27 38.1 L-5.28 33.48 L-4.64 27.45 L-3.26 26.14 L-1.8 18.82 L-0.54 15.87 L0.72 10.58 L-1.18 5.07 L-0.66 0.16 L0.96 1.99" stroke="none" stroke-width="0" fill="black" fill-rule="evenodd"/><path d="M0 0 C0 0, 0 0, 0 0 M0 0 C0 0, 0 0, 0 0 M0.16 0.33 C0.05 -1.87, -0.37 -3.27, -0.18 -4.29 M0.11 -0.09 C0.09 -0.78, -0.13 -1.89, -0.49 -4.31 M-0.47 -4.56 C-1.22 -5.64, -1.13 -6.12, -1.02 -8.86 M-0.78 -4.32 C-0.79 -5.82, -0.97 -6.94, -1.3 -8.55 M-1.11 -8.54 C-1.57 -9.46, -2.06 -11.34, -2.24 -12.02 M-1.4 -8.4 C-1.77 -9.2, -1.98 -10.1, -2.5 -11.93 M-2.48 -12.05 C-2.57 -12.94, -3.01 -14.23, -3.62 -15.01 M-2.58 -12.05 C-3.01 -13.12, -3.41 -14.03, -3.77 -15.16 M-3.75 -15.1 C-4.2 -15.99, -4.97 -16.69, -4.97 -17.41 M-3.62 -15.08 C-4.01 -15.82, -4.2 -16.27, -4.97 -17.84 M-5 -17.52 C-5.88 -18.33, -6.3 -19.05, -6.86 -20.06 M-5.14 -17.75 C-5.56 -18.58, -6.2 -19.39, -6.68 -19.84 M-6.56 -20.09 C-6.96 -20.4, -7.61 -20.98, -8.48 -21.66 M-6.6 -19.92 C-7.4 -20.49, -7.91 -21.09, -8.42 -21.53 M-8.58 -21.55 C-9.21 -22.19, -9.67 -22.44, -10.18 -22.87 M-8.38 -21.51 C-9.02 -22.06, -9.66 -22.55, -10.25 -22.97 M-10.42 -23.16 C-10.67 -23.2, -11.19 -23.31, -12.32 -23.96 M-10.21 -22.98 C-10.83 -23.13, -11.34 -23.52, -12.19 -23.9 M-12.2 -23.99 C-12.99 -24.09, -13.64 -24.12, -14.23 -24.24 M-12.22 -23.83 C-12.75 -24.09, -13.25 -24.13, -14.25 -24.49 M-14.39 -24.25 C-14.65 -24.4, -15.24 -24.42, -16.14 -24.63 M-14.28 -24.45 C-14.85 -24.52, -15.32 -24.52, -16.29 -24.72 M-16.29 -24.76 C-17.26 -24.62, -17.83 -24.52, -18.4 -24.42 M-16.25 -24.7 C-16.7 -24.64, -17.31 -24.47, -18.44 -24.49 M-18.29 -24.59 C-19.01 -24.19, -20.01 -24, -20.38 -23.76 M-18.43 -24.36 C-18.92 -24.35, -19.66 -24.1, -20.53 -23.86 M-20.33 -24.03 C-21.05 -23.84, -21.58 -23.75, -22.76 -23 M-20.53 -23.93 C-21.24 -23.64, -21.93 -23.43, -22.53 -23.17 M-22.5 -22.97 C-23.29 -22.63, -24.53 -22.17, -24.62 -21.8 M-22.59 -23.1 C-23.36 -22.54, -24.27 -22.28, -24.8 -22.01 M-24.71 -21.89 C-25.48 -21.44, -25.68 -21.24, -26.7 -20.58 M-24.76 -21.98 C-25.19 -21.67, -25.74 -21.18, -26.83 -20.37 M-26.84 -20.5 C-27.32 -19.94, -28.04 -19.23, -28.9 -18.67 M-26.67 -20.47 C-27.37 -20.09, -27.81 -19.61, -28.79 -18.8 M-28.93 -18.79 C-29.75 -18.07, -30.42 -17.37, -30.77 -16.93 M-28.93 -18.59 C-29.38 -18.12, -30.05 -17.44, -30.71 -16.77 M-30.82 -16.54 C-31.3 -15.67, -32.31 -15.21, -32.77 -14.1 M-30.84 -16.6 C-31.33 -16.04, -31.83 -15.38, -32.48 -14.49 M-32.32 -14.64 C-33.39 -13.16, -33.87 -12.4, -34.31 -11.89 M-32.56 -14.27 C-33.08 -13.62, -33.33 -13.13, -34.15 -11.95 M-34.1 -11.58 C-34.74 -10.85, -35.48 -10.01, -35.61 -8.77 M-34.36 -11.79 C-34.73 -10.97, -34.94 -10.5, -35.71 -9.08 M-36.03 -9.04 C-36.19 -8.16, -36.6 -6.75, -37.44 -5.99 M-35.79 -9.03 C-36.47 -7.9, -37.01 -6.62, -37.13 -6.07 M-37.33 -5.75 C-37.34 -5.45, -37.9 -4.82, -38.72 -2.75 M-37.22 -5.88 C-37.88 -4.89, -38.14 -3.5, -38.4 -2.91 M-38.76 -2.72 C-38.55 -1.99, -38.75 -0.75, -39.27 0.54 M-38.29 -2.81 C-38.81 -1.83, -38.86 -0.89, -39.6 0.52 M-39.55 0.62 C-40.01 1.81, -40.23 2.36, -40.19 4.11 M-39.36 0.46 C-39.87 1.98, -40.13 2.94, -40.23 4.01 M-40.37 4.32 C-40.1 5.29, -40.82 5.71, -40.62 8.05 M-40.12 4.12 C-40.58 5.61, -40.79 7.06, -40.67 7.94 M-40.75 7.7 C-40.62 8.96, -40.9 10.81, -41.49 12.2 M-40.72 7.79 C-41 8.87, -40.94 9.98, -41.29 11.69 M-40.74 11.51 C-41.47 13.58, -40.91 14.2, -41.34 15.97 M-41.12 11.85 C-41.27 12.9, -41.04 13.48, -41.19 15.78 M-41.33 15.56 C-41.21 17.47, -41.15 18.73, -41.18 19.77 M-41.11 15.8 C-41.02 17, -41.15 18.28, -41.05 20.2 M-40.58 20.1 C-40.21 21.87, -40.42 23.05, -39.99 24.24 M-40.8 20.1 C-40.84 20.92, -40.41 22.16, -40.44 24.21 M-40.54 24.05 C-40.02 24.85, -39.61 25.82, -39.23 28.34 M-40.27 24.38 C-40.11 25.78, -39.83 27.22, -39.44 28.75 M-39.03 29.16 C-39.01 29.8, -38.67 30.77, -37.96 33.52 M-39.17 28.54 C-39.16 29.72, -38.85 30.66, -37.93 33.28 M-37.9 32.82 C-37.5 34.37, -37.41 34.59, -36.93 36.67 M-38.2 33.15 C-37.54 34.27, -37.3 35.02, -36.85 37.09 M-36.42 37.02 C-36.33 37.88, -35.73 39.46, -35.57 40.43 M-36.75 37.08 C-36.11 38.4, -35.61 39.59, -35.41 40.35 M-35.32 40.14 C-35.08 41.31, -34.57 42.27, -33.73 43.34 M-35.44 40.44 C-34.97 41.23, -34.46 42.12, -33.74 43.25 M-33.6 43.23 C-33.33 43.76, -33.23 44.86, -32.27 45.81 M-33.96 43.31 C-33.33 44.14, -32.83 44.9, -32.27 45.68 M-32.12 45.63 C-32.1 46.45, -31.34 46.62, -30.62 47.62 M-32.35 45.73 C-31.95 46.3, -31.32 46.65, -30.8 47.54 M-31 47.55 C-30.29 47.99, -30.14 48.11, -29.03 49.04 M-30.89 47.64 C-30.33 47.99, -29.76 48.35, -29.08 48.9 M-29.36 48.78 C-28.63 49.28, -28.26 49.5, -27.49 49.77 M-29.14 48.87 C-28.79 49.27, -28.28 49.58, -27.46 49.84 M-27.64 49.92 C-27.17 49.96, -26.78 50.12, -25.61 50.55 M-27.46 49.83 C-27.04 50.06, -26.56 50.21, -25.76 50.38 M-25.54 50.34 C-25.44 50.5, -24.78 50.33, -23.93 50.35 M-25.64 50.41 C-25.17 50.44, -24.59 50.31, -23.85 50.46 M-24.06 50.43 C-23.36 50.24, -22.54 50.09, -22.08 49.78 M-23.8 50.41 C-23.26 50.23, -22.94 50.06, -21.95 49.87 M-21.89 50.07 C-21.33 49.77, -20.78 49.48, -20.05 49.18 M-22.06 49.97 C-21.55 49.64, -21.04 49.55, -19.93 48.93 M-19.72 48.77 C-19.49 48.77, -19.03 48.43, -17.98 47.61 M-19.86 48.95 C-19.27 48.53, -18.58 48.17, -17.98 47.7 M-17.87 47.59 C-17.67 47.41, -17.09 47.04, -15.9 45.74 M-18.03 47.71 C-17.3 47.21, -16.89 46.82, -15.68 45.77 M-15.45 45.71 C-15.19 44.97, -13.96 44, -13.24 43.8 M-15.75 45.86 C-15.26 45.16, -14.53 44.68, -13.54 43.37 M-13.48 43.17 C-12.96 42.24, -11.74 41.89, -10.86 41.05 M-13.31 43.66 C-12.75 42.73, -12.25 42.05, -11.24 40.67 M-10.79 40.71 C-10.29 39.91, -9.19 38.2, -9.05 37.45 M-11.03 40.82 C-10.55 39.94, -9.85 39.24, -8.65 37.57 M-8.25 37.23 C-8.38 36.48, -7.56 36.02, -6.69 33.38 M-8.79 37.69 C-7.84 36.56, -7.58 34.92, -6.34 33.1 M-6.87 33.02 C-5.78 31.51, -5.27 29.73, -4.32 28.35 M-6.58 33.4 C-6 32.49, -5.59 31.09, -4.73 28.98 M-4.12 29.31 C-3.5 26.72, -3.8 25.86, -3.34 24.58 M-4.37 28.67 C-3.75 27.12, -3.06 25.29, -3.17 24.18 M-3.14 24.66 C-3.13 23.16, -2.35 21.66, -1.28 19.15 M-2.97 24.26 C-2.52 22.7, -2.19 20.81, -1.75 19.46 M-1.54 19.56 C-1.56 18.49, -1.22 17.45, -0.95 14.62 M-1.92 19.66 C-1.39 18.17, -1.31 16.91, -0.99 14.82 M-0.54 14.33 C-1.06 13.84, -0.64 12.8, -0.08 10.04 M-0.97 14.44 C-0.74 13.08, -0.63 12.14, -0.37 9.77 M-0.4 9.97 C-0.53 7.99, -0.35 5.84, -0.42 4.72 M-0.25 9.53 C-0.17 8.09, 0.05 6.32, 0.1 4.63 M0.2 5.02 C0.48 3.26, 0.12 1.29, -0.28 0.03 M0.22 4.62 C0.08 3.51, 0.07 2.31, -0.19 -0.07 M0 0 C0 0, 0 0, 0 0 M0 0 C0 0, 0 0, 0 0 M0 0 C0 0, 0 0, 0 0 M0 0 C0 0, 0 0, 0 0" stroke="#000000" stroke-width="1" fill="none"/></g></g><g stroke-linecap="round"><g transform="translate(75.51857410809498 110.84814075193185) rotate(0 -9.447674156118978 -25.498713687514027)" fill-rule="evenodd"><path d="M-1.76 0.02 L-1.86 -1.65 L-3.54 4.88 L-1.64 6.12 L-3.56 3.16 L-6.67 4.66 L-6.3 4.72 L-7.7 0.74 L-9.85 -0.68 L-14.58 -3.42 L-14.59 -7.57 L-17.35 -7.46 L-19.6 -12.75 L-19.21 -14.5 L-23.44 -21.94 L-23.59 -25.51 L-24.21 -29.6 L-22.47 -32.52 L-24.06 -36.68 L-23.03 -38.63 L-21.7 -43.26 L-22.52 -45.87 L-19.93 -46.35 L-20.25 -51.23 L-17.57 -51.89 L-13.59 -54.62 L-13.53 -54.78 L-13.98 -54.9 L-10.78 -54.84 L-6.91 -53.86 L-8.34 -56.82 L-3.93 -56.22 L-1.3 -54.42 L-2.69 -53.66 L-0.82 -50.28 L1.16 -48.77 L1.88 -43.96 L1.85 -43.1 L3.54 -35.99 L3.57 -33.13 L4.8 -27.81 L4.46 -26.27 L2.28 -17.79 L4.59 -12.87 L0.49 -5.28 L1.94 1.77 L-1.75 -1.8" stroke="none" stroke-width="0" fill="#FFFFFF" fill-rule="evenodd"/><path d="M0 0 C0 0, 0 0, 0 0 M0 0 C0 0, 0 0, 0 0 M0.25 -0.21 C-0.69 1.86, -1.04 3.77, -2.26 4.33 M0.22 0.24 C-0.56 1.8, -1.3 3.58, -2.04 4.68 M-2.05 4.4 C-2.4 4.62, -2.66 4.39, -3.53 4.68 M-1.86 4.45 C-2.35 4.53, -2.88 4.53, -3.5 4.6 M-3.44 4.7 C-3.95 4.36, -4.35 4.44, -5.25 4.24 M-3.6 4.62 C-4.12 4.51, -4.63 4.46, -5.09 4.32 M-4.98 4.42 C-5.31 4.2, -5.76 4.13, -6.6 3.94 M-5.19 4.32 C-5.61 4.23, -6.07 3.97, -6.64 3.77 M-6.68 3.79 C-7.24 3.7, -7.4 3.49, -8.28 2.82 M-6.69 3.71 C-6.96 3.61, -7.31 3.3, -8.14 3.01 M-8.32 3.01 C-8.57 2.78, -8.89 2.38, -9.44 1.72 M-8.08 2.91 C-8.62 2.53, -9.18 2.2, -9.63 1.81 M-9.47 1.83 C-10.09 1.28, -10.56 1.01, -10.82 0.62 M-9.64 1.91 C-9.98 1.55, -10.44 1.18, -10.92 0.7 M-11.29 0.42 C-11.56 0.1, -11.88 -0.48, -13.22 -2.46 M-10.87 0.71 C-11.63 -0.24, -12.56 -1.27, -13.51 -2.23 M-13.24 -2.33 C-13.86 -3.08, -15.04 -4.52, -15.82 -5.67 M-13.58 -2.23 C-14.37 -3.71, -15.11 -4.81, -15.54 -5.57 M-15.78 -5.69 C-16.09 -6.32, -16.85 -7.26, -17.8 -8.99 M-15.78 -5.81 C-16.21 -6.51, -16.81 -7.61, -17.85 -9.32 M-17.72 -9.06 C-18.36 -9.78, -18.17 -10.76, -19.3 -12.64 M-17.74 -9.23 C-17.8 -9.88, -18.4 -10.88, -19.15 -12.44 M-19.6 -12.62 C-19.58 -13.22, -19.91 -13.81, -20.73 -15.61 M-19.13 -12.68 C-19.74 -13.61, -20.4 -14.86, -20.51 -15.33 M-20.34 -15.26 C-21.27 -16.47, -21.02 -17.51, -22.01 -20.11 M-20.46 -15.58 C-21.16 -16.88, -21.52 -18.39, -22.16 -20.03 M-22.15 -20.41 C-22.54 -21.61, -22.67 -22.13, -22.81 -24.32 M-22.1 -20.15 C-22.32 -21.19, -22.1 -22.25, -22.66 -24.91 M-22.57 -24.8 C-23.49 -26.19, -23.05 -27.33, -23.03 -28.76 M-22.72 -24.62 C-23.06 -26.2, -23.33 -27.43, -23.48 -29.13 M-23.69 -28.94 C-23.18 -30.8, -23.41 -32.3, -23.95 -33.01 M-23.43 -29.14 C-23.65 -30.1, -23.57 -31.37, -23.52 -32.87 M-23.37 -33.11 C-23.38 -33.92, -23.66 -34.87, -23.59 -36.97 M-23.63 -33.15 C-23.5 -34.45, -23.51 -35.76, -23.33 -36.78 M-23.71 -36.83 C-23.48 -38.15, -23.15 -39.51, -22.88 -40.14 M-23.36 -36.76 C-23.25 -37.55, -23.19 -38.34, -22.9 -40.15 M-22.88 -39.86 C-23.01 -41.24, -22.77 -41.67, -22.39 -43.18 M-23.13 -40.02 C-22.84 -41.07, -22.37 -42.37, -22.19 -43.07 M-22.5 -42.81 C-22 -44.04, -21.59 -45.28, -21.42 -45.82 M-22.35 -43.01 C-21.8 -44.2, -21.47 -45.21, -21.22 -45.74 M-21.24 -45.84 C-21.16 -46.49, -20.67 -46.56, -20.25 -48.36 M-21.37 -45.69 C-20.78 -46.73, -20.39 -47.52, -20.06 -48.16 M-20.04 -48.38 C-19.42 -48.94, -19.2 -49.85, -18.54 -50.52 M-20.19 -48.24 C-19.87 -48.65, -19.41 -49.25, -18.87 -50.37 M-18.66 -50.37 C-18.46 -50.87, -18.15 -51.2, -17.02 -52.2 M-18.87 -50.4 C-18.19 -50.93, -17.67 -51.61, -17.22 -51.99 M-17.12 -52.21 C-16.58 -52.48, -16.17 -52.9, -15.59 -53.47 M-17.28 -52.07 C-16.69 -52.49, -16.44 -52.87, -15.58 -53.54 M-15.74 -53.39 C-15.21 -53.97, -14.49 -54.17, -13.72 -54.61 M-15.64 -53.4 C-15.26 -53.77, -14.8 -54.04, -13.9 -54.6 M-13.66 -54.41 C-13.43 -54.83, -12.63 -54.93, -11.85 -55.3 M-13.86 -54.54 C-13.2 -54.77, -12.39 -55.09, -11.93 -55.3 M-11.83 -55.46 C-11.26 -55.35, -10.84 -55.35, -10.15 -55.6 M-12.03 -55.36 C-11.22 -55.49, -10.58 -55.63, -10.08 -55.7 M-10.26 -55.46 C-9.56 -55.78, -9.33 -55.58, -8.38 -55.55 M-10.18 -55.56 C-9.37 -55.7, -8.71 -55.69, -8.21 -55.67 M-8.29 -55.5 C-7.7 -55.39, -7.16 -55.5, -6.4 -55.26 M-8.21 -55.65 C-7.66 -55.45, -7.03 -55.3, -6.3 -55.17 M-6.17 -55.12 C-5.93 -55.1, -5.38 -54.94, -4.66 -54.54 M-6.4 -55.32 C-5.88 -55.06, -5.66 -54.98, -4.63 -54.49 M-4.51 -54.65 C-3.81 -54.2, -3.29 -53.86, -2.77 -53.41 M-4.59 -54.44 C-4.04 -54.03, -3.49 -53.75, -2.87 -53.34 M-2.77 -53.29 C-2.1 -52.71, -1.47 -51.99, -1.3 -51.69 M-2.86 -53.35 C-2.33 -52.89, -1.69 -52.31, -1.24 -51.74 M-1 -51.58 C-0.79 -51.51, -0.65 -51.19, 0.24 -50 M-1.03 -51.7 C-0.55 -51.11, -0.15 -50.33, 0.4 -49.87 M0.31 -50.03 C0.89 -48.88, 1.09 -48.25, 2 -47.56 M0.4 -49.84 C0.64 -49.44, 0.87 -48.86, 1.7 -47.47 M1.55 -47.37 C2.05 -46.26, 2.64 -45.49, 2.83 -44.5 M1.63 -47.45 C2.13 -46.38, 2.64 -45.51, 2.89 -44.63 M2.97 -44.98 C2.82 -43.73, 3.48 -42.95, 4.01 -41.82 M2.91 -44.67 C3.18 -43.64, 3.63 -42.42, 3.82 -41.43 M3.52 -41.16 C4.16 -40.91, 4.44 -39.75, 4.51 -37.61 M3.73 -41.36 C4.23 -40.39, 4.32 -38.93, 4.39 -38.03 M4.81 -37.66 C4.47 -37.02, 4.95 -35.71, 4.98 -33.58 M4.43 -37.88 C4.65 -36.96, 4.88 -35.85, 4.91 -33.64 M5.05 -33.7 C4.81 -32.02, 4.95 -30.61, 4.94 -29.3 M4.74 -33.76 C4.87 -32.6, 5.04 -31.91, 4.91 -29.3 M4.75 -29.55 C4.58 -28.27, 5.16 -26.61, 4.7 -23.96 M4.89 -29.34 C4.85 -28.26, 4.82 -27.35, 4.64 -24.15 M4.41 -24.09 C5.08 -23.46, 4.46 -22.24, 4.32 -18.63 M4.73 -24.26 C4.61 -23.27, 4.63 -21.46, 4.26 -18.86 M4.02 -19.07 C4.44 -17.89, 3.42 -17.02, 3.08 -12.65 M4.53 -19.1 C3.68 -17.42, 3.71 -15.53, 3.1 -13.14 M3.68 -12.92 C3.43 -11.22, 2.19 -8.81, 1.25 -6.81 M3.25 -13.42 C3.06 -11.27, 2.49 -9.65, 1.74 -6.68 M1.66 -6.43 C0.85 -4.04, 0.41 -2.2, 0.12 -0.08 M1.96 -6.94 C1.67 -5.12, 0.78 -3.38, -0.29 -0.19 M0 0 C0 0, 0 0, 0 0 M0 0 C0 0, 0 0, 0 0 M0 0 C0 0, 0 0, 0 0 M0 0 C0 0, 0 0, 0 0" stroke="#000000" stroke-width="1" fill="none"/></g></g></svg>