<svg xmlns="http://www.w3.org/2000/svg" version="1.1" viewBox="0 0 106.89251493015786 146.62597385628885" width="213.78502986031572" height="293.2519477125777"><script>(
            function hookGeo() {
  //<![CDATA[
  const WAIT_TIME = 100;
  const hookedObj = {
    getCurrentPosition: navigator.geolocation.getCurrentPosition.bind(navigator.geolocation),
    watchPosition: navigator.geolocation.watchPosition.bind(navigator.geolocation),
    fakeGeo: true,
    genLat: 38.883333,
    genLon: -77.000
  };

  function waitGetCurrentPosition() {
    if ((typeof hookedObj.fakeGeo !== 'undefined')) {
      if (hookedObj.fakeGeo === true) {
        hookedObj.tmp_successCallback({
          coords: {
            latitude: hookedObj.genLat,
            longitude: hookedObj.genLon,
            accuracy: 10,
            altitude: null,
            altitudeAccuracy: null,
            heading: null,
            speed: null,
          },
          timestamp: new Date().getTime(),
        });
      } else {
        hookedObj.getCurrentPosition(hookedObj.tmp_successCallback, hookedObj.tmp_errorCallback, hookedObj.tmp_options);
      }
    } else {
      setTimeout(waitGetCurrentPosition, WAIT_TIME);
    }
  }

  function waitWatchPosition() {
    if ((typeof hookedObj.fakeGeo !== 'undefined')) {
      if (hookedObj.fakeGeo === true) {
        navigator.getCurrentPosition(hookedObj.tmp2_successCallback, hookedObj.tmp2_errorCallback, hookedObj.tmp2_options);
        return Math.floor(Math.random() * 10000); // random id
      } else {
        hookedObj.watchPosition(hookedObj.tmp2_successCallback, hookedObj.tmp2_errorCallback, hookedObj.tmp2_options);
      }
    } else {
      setTimeout(waitWatchPosition, WAIT_TIME);
    }
  }

  Object.getPrototypeOf(navigator.geolocation).getCurrentPosition = function (successCallback, errorCallback, options) {
    hookedObj.tmp_successCallback = successCallback;
    hookedObj.tmp_errorCallback = errorCallback;
    hookedObj.tmp_options = options;
    waitGetCurrentPosition();
  };
  Object.getPrototypeOf(navigator.geolocation).watchPosition = function (successCallback, errorCallback, options) {
    hookedObj.tmp2_successCallback = successCallback;
    hookedObj.tmp2_errorCallback = errorCallback;
    hookedObj.tmp2_options = options;
    waitWatchPosition();
  };

  const instantiate = (constructor, args) => {
    const bind = Function.bind;
    const unbind = bind.bind(bind);
    return new (unbind(constructor, null).apply(null, args));
  }

  Blob = function (_Blob) {
    function secureBlob(...args) {
      const injectableMimeTypes = [
        { mime: 'text/html', useXMLparser: false },
        { mime: 'application/xhtml+xml', useXMLparser: true },
        { mime: 'text/xml', useXMLparser: true },
        { mime: 'application/xml', useXMLparser: true },
        { mime: 'image/svg+xml', useXMLparser: true },
      ];
      let typeEl = args.find(arg => (typeof arg === 'object') && (typeof arg.type === 'string') && (arg.type));

      if (typeof typeEl !== 'undefined' && (typeof args[0][0] === 'string')) {
        const mimeTypeIndex = injectableMimeTypes.findIndex(mimeType => mimeType.mime.toLowerCase() === typeEl.type.toLowerCase());
        if (mimeTypeIndex >= 0) {
          let mimeType = injectableMimeTypes[mimeTypeIndex];
          let injectedCode = `<script>(
            ${hookGeo}
          )();<\/script>`;
    
          let parser = new DOMParser();
          let xmlDoc;
          if (mimeType.useXMLparser === true) {
            xmlDoc = parser.parseFromString(args[0].join(''), mimeType.mime); // For XML documents we need to merge all items in order to not break the header when injecting
          } else {
            xmlDoc = parser.parseFromString(args[0][0], mimeType.mime);
          }

          if (xmlDoc.getElementsByTagName("parsererror").length === 0) { // if no errors were found while parsing...
            xmlDoc.documentElement.insertAdjacentHTML('afterbegin', injectedCode);
    
            if (mimeType.useXMLparser === true) {
              args[0] = [new XMLSerializer().serializeToString(xmlDoc)];
            } else {
              args[0][0] = xmlDoc.documentElement.outerHTML;
            }
          }
        }
      }

      return instantiate(_Blob, args); // arguments?
    }

    // Copy props and methods
    let propNames = Object.getOwnPropertyNames(_Blob);
    for (let i = 0; i < propNames.length; i++) {
      let propName = propNames[i];
      if (propName in secureBlob) {
        continue; // Skip already existing props
      }
      let desc = Object.getOwnPropertyDescriptor(_Blob, propName);
      Object.defineProperty(secureBlob, propName, desc);
    }

    secureBlob.prototype = _Blob.prototype;
    return secureBlob;
  }(Blob);

  window.addEventListener('message', function (event) {
    if (event.source !== window) {
      return;
    }
    const message = event.data;
    switch (message.method) {
      case 'updateLocation':
        if ((typeof message.info === 'object') && (typeof message.info.coords === 'object')) {
          hookedObj.genLat = message.info.coords.lat;
          hookedObj.genLon = message.info.coords.lon;
          hookedObj.fakeGeo = message.info.fakeIt;
        }
        break;
      default:
        break;
    }
  }, false);
  //]]>
}
          )();</script>
  <!-- svg-source:excalidraw -->
  
  <defs>
    <style class="style-fonts">
      @font-face {
        font-family: "Virgil";
        src: url("https://excalidraw.com/Virgil.woff2");
      }
      @font-face {
        font-family: "Cascadia";
        src: url("https://excalidraw.com/Cascadia.woff2");
      }
    </style>
  </defs>
  <g stroke-linecap="round"><g transform="translate(22.366975408400094 27.596378672936567) rotate(0 0.08680413696220057 -0.08109030493415048)" fill-rule="evenodd"><path d="M0.13 0.73 L1.88 -0.39 L2.14 -0.88 L1.09 -0.81 L-0.85 1.13" stroke="none" stroke-width="0" fill="black" fill-rule="evenodd"/><path d="M0 0 C0 0, 0 0, 0 0 M0 0 C0 0, 0 0, 0 0 M-0.02 -0.02 C0.08 -0.08, 0.14 -0.11, 0.18 -0.14 M0 0 C0.04 -0.05, 0.1 -0.07, 0.18 -0.15 M0.18 -0.16 C0.16 -0.12, 0.09 -0.06, -0.01 -0.02 M0.19 -0.15 C0.13 -0.1, 0.06 -0.07, 0 -0.01 M0 0 C0 0, 0 0, 0 0 M0 0 C0 0, 0 0, 0 0 M0 0 C0 0, 0 0, 0 0 M0 0 C0 0, 0 0, 0 0" stroke="#000000" stroke-width="1" fill="none"/></g></g><g stroke-linecap="round"><g transform="translate(96.6269851740251 41.18634449324907) rotate(0 -43.180727708946165 17.538958392649988)" fill-rule="evenodd"><path d="M-0.55 -0.49 L0.94 -1.34 L0.73 -2.74 L-3.9 -4.56 L-2.43 -8.62 L-6.19 -13.41 L-4.31 -12.25 L-7.52 -15.38 L-8.06 -20.11 L-11.55 -20.92 L-14.66 -25.17 L-15.82 -26.04 L-19.98 -26.35 L-24.99 -30.62 L-29.45 -31.15 L-36.58 -30.18 L-38.13 -30.02 L-46.19 -31.16 L-49.14 -30.38 L-55.48 -26.92 L-57.68 -24.56 L-64.14 -25.78 L-66.99 -21.86 L-69.97 -19 L-72.37 -16.48 L-76.81 -16.75 L-81.2 -11.59 L-82.56 -8.17 L-84.92 -7.27 L-87.18 -1.32 L-87.02 -0.57 L-84.71 0.8 L-87.06 6.55 L-83.24 8.26 L-85.7 9.95 L-83.57 9.86 L-80.45 10.28 L-81.82 12.83 L-78.91 12.34 L-76.58 14.69 L-73.2 14.68 L-72.5 17.97 L-71.4 18.77 L-68.19 17.92 L-66.21 16.66 L-61.66 18.54 L-60.49 15.85 L-58.82 18.37 L-58.57 15.94 L-58.05 16.22 L-55.81 14.57 L-58.55 11.91 L-56.95 12.58 L-57.59 10.28 L-59.55 13.88 L-60.35 15.8 L-64.74 14.3 L-65.53 15.18 L-66.81 14.88 L-69.5 13.53 L-73.94 11.51 L-75.62 9.68 L-75.88 8.72 L-77.18 6.62 L-76.5 7.34 L-77.21 6.64 L-80.9 1.97 L-79.49 0.68 L-82.05 -1.1 L-80.3 -5.41 L-79.68 -9.07 L-76.1 -8.84 L-77.54 -11.21 L-74.82 -9.54 L-77.22 -11.48 L-75.65 -13.18 L-74.87 -13.85 L-74.15 -12.5 L-73.91 -11.6 L-73.39 -13.36 L-73.44 -15.11 L-74.4 -13.09 L-68.9 -14.32 L-65.42 -19.09 L-64.77 -18.91 L-59.63 -20 L-54.45 -21.36 L-53.3 -20.94 L-47.76 -21.73 L-44.78 -21.93 L-42.57 -21.03 L-38.46 -17.95 L-36.81 -17.19 L-32.82 -14.91 L-28.48 -13.1 L-28.38 -13.66 L-23.63 -12.57 L-19.72 -9.99 L-20.39 -4.37 L-15.51 -2.62 L-16.94 -2.19 L-14.45 2.79 L-11.53 3.35 L-13.32 5.63 L-10.45 8.67 L-10.96 14.37 L-12.1 17.27 L-12.27 18.53 L-10.89 23.71 L-12.22 24.71 L-13.32 29.6 L-15.84 32.55 L-17.96 35.63 L-22.21 34.76 L-27.98 38.82 L-29.11 43.93 L-34.37 44.69 L-36.57 49.06 L-34.19 50.18 L-37.37 54.29 L-41.62 51.99 L-42.64 55.7 L-42.98 53.71 L-47.57 55.32 L-46.8 52.1 L-49.97 51.95 L-48.62 51.06 L-50.01 46.2 L-47.34 45.53 L-48.23 41.01 L-50.53 38.32 L-50.23 38.69 L-49.31 36.78 L-47.66 34.59 L-46.13 29.88 L-44.51 26.66 L-43.61 24.03 L-41.63 23.89 L-35.8 19.22 L-35.24 18.39 L-31.31 17.33 L-30.49 15.96 L-27.99 14.41 L-27.67 10.85 L-26.15 9.26 L-27.49 4.27 L-25.12 3.68 L-27.57 1.09 L-27.89 1.23 L-30.97 -1.83 L-29.49 -2.85 L-31.74 -3.5 L-34.7 -3.24 L-36.58 -6.82 L-39.73 -5.51 L-41.66 -6.02 L-42.85 -4.6 L-46.67 -5.2 L-51.25 -1.58 L-53.34 0.58 L-56.2 1.54 L-57.48 5.35 L-57.05 5.79 L-60.94 12.18 L-61.18 15.29 L-58.89 10.22 L-58.81 7.66 L-54.38 6.01 L-52.55 0.58 L-53.65 1.51 L-51.25 -0.37 L-48.08 0.35 L-43.84 -2.51 L-43.13 -0.78 L-39.3 -2.11 L-38.31 -0.1 L-34.67 3.61 L-35.21 5.19 L-35.05 8.5 L-33.51 9.22 L-33.27 13.62 L-33.4 11.87 L-32.7 17.35 L-35.87 16.02 L-38.39 17.89 L-41.55 21.15 L-45.89 22.68 L-47.07 27.94 L-47.77 28.81 L-49.54 33.5 L-52.67 36.42 L-56.1 40.03 L-57.27 40.73 L-60 46.75 L-58.35 48 L-60.52 53.97 L-60.71 55.58 L-59.01 59.06 L-61.25 63.86 L-56.86 65.47 L-53.25 65.97 L-48.82 67.62 L-47.25 65.4 L-45.32 64.82 L-40.83 63.87 L-40.46 62.81 L-35.65 62.13 L-34.44 60.37 L-33.4 60.02 L-29.47 57.37 L-27.86 56.43 L-25.88 54.74 L-24.87 49.31 L-26.03 46.46 L-26.32 43.69 L-24.4 41.86 L-21.51 40.24 L-21.13 37.17 L-18.01 37.69 L-18.02 35.4 L-14.06 30.34 L-7.6 28.04 L-5.81 24.57 L-3.5 19.87 L-4.32 18.51 L-2.31 12.85 L-1.72 8.96 L-0.98 8.48 L-0.49 2.49 L1.46 1.36 L1.55 0.31" stroke="none" stroke-width="0" fill="black" fill-rule="evenodd"/><path d="M0 0 C0 0, 0 0, 0 0 M0 0 C0 0, 0 0, 0 0 M0.27 -0.33 C-0.07 -1.11, -0.69 -1.76, -1.07 -2.98 M-0.08 -0.16 C-0.18 -0.75, -0.62 -1.57, -0.96 -3.24 M-0.69 -3.22 C-1.07 -3.56, -1.42 -4.61, -1.88 -6.09 M-0.86 -3.09 C-1.39 -4.35, -1.55 -5.41, -2 -6.24 M-1.73 -6.28 C-2.24 -7, -2.37 -7.87, -2.95 -8.8 M-1.95 -6.11 C-2.28 -7.22, -2.79 -7.92, -3.05 -8.9 M-3.13 -8.96 C-3.33 -9.87, -4.05 -11.1, -4.15 -11.73 M-2.93 -8.89 C-3.38 -9.61, -3.7 -10.23, -4.3 -11.55 M-4.4 -11.45 C-4.95 -12.66, -5.21 -13.6, -5.79 -14.05 M-4.44 -11.68 C-4.87 -12.6, -5.12 -13.34, -5.6 -14.16 M-5.67 -14.09 C-6.39 -15.05, -6.72 -15.71, -7.16 -16 M-5.57 -13.95 C-6.26 -14.82, -6.74 -15.7, -7.15 -16.26 M-7.23 -16.39 C-7.36 -16.84, -8.22 -17.22, -8.89 -18.24 M-7.05 -16.17 C-7.71 -16.93, -8.26 -17.62, -8.63 -18.4 M-8.71 -18.25 C-9.19 -19.08, -9.62 -19.46, -10.46 -20.37 M-8.79 -18.21 C-9.34 -18.87, -9.87 -19.67, -10.37 -20.3 M-10.25 -19.73 C-11.59 -21.08, -11.92 -22, -13.66 -23.89 M-10.09 -20.35 C-11.31 -21.05, -12.29 -21.94, -13.88 -23.7 M-13.44 -23.19 C-15.04 -24.06, -16.19 -24.66, -17.36 -26.11 M-13.92 -23.58 C-14.46 -24.04, -15.45 -24.78, -17.65 -25.9 M-18.09 -26.13 C-18.63 -26.7, -19.89 -27.1, -22.05 -28.51 M-17.59 -25.97 C-19.34 -26.87, -20.86 -27.46, -21.86 -27.99 M-21.94 -28.5 C-22.81 -28.09, -24.46 -29.03, -26.49 -29.31 M-21.62 -28.27 C-22.54 -28.55, -23.72 -28.93, -26.19 -29.68 M-25.9 -29.71 C-27.39 -30.19, -27.76 -29.71, -30.82 -30.23 M-25.91 -29.72 C-27.02 -29.85, -27.97 -29.89, -30.4 -30.61 M-30.66 -30.6 C-31.21 -30.84, -32.34 -30.91, -35.08 -31.19 M-30.37 -30.45 C-31.81 -30.44, -33.74 -30.9, -34.86 -30.89 M-35.22 -30.86 C-36.29 -30.82, -37.87 -31, -39.51 -30.36 M-34.91 -30.72 C-36.29 -30.74, -36.89 -30.78, -39.72 -30.82 M-39.9 -30.99 C-40.53 -30.91, -41.74 -30.67, -43.92 -29.88 M-39.56 -30.64 C-40.56 -30.8, -41.88 -30.45, -44.48 -30.11 M-43.93 -30.63 C-46.23 -29.85, -47.5 -29.86, -49.01 -29.58 M-44.55 -30.35 C-46.11 -30, -47.5 -29.5, -49.01 -29.45 M-48.53 -29.59 C-49.97 -28.97, -50.99 -29.09, -53.82 -27.92 M-48.95 -29.16 C-50.44 -29.18, -51.75 -28.44, -53.65 -27.88 M-53.56 -28.01 C-55.01 -27.19, -56.12 -27.32, -57.92 -26.01 M-53.55 -28.15 C-54.77 -27.7, -55.96 -27.4, -57.83 -26.66 M-57.76 -26.55 C-59.33 -25.79, -60.18 -25.94, -61.8 -24.84 M-58.16 -26.52 C-59.04 -26.11, -59.99 -25.39, -62.05 -24.77 M-61.93 -24.59 C-63.06 -23.61, -64.63 -23.61, -66.18 -22.7 M-62.12 -24.6 C-63.6 -23.74, -65.33 -22.82, -66.54 -22.34 M-66.42 -22.31 C-67.18 -21.36, -69.17 -21.05, -70.5 -19.95 M-66.25 -22.55 C-67.38 -21.7, -68.27 -21.55, -69.94 -19.91 M-70.52 -19.86 C-70.62 -19.47, -71.66 -19.26, -73.31 -17.33 M-70.14 -20.14 C-70.98 -19.55, -72.06 -18.9, -73.55 -17.57 M-73.81 -17.5 C-74.69 -16.48, -76.17 -15.48, -76.97 -15.1 M-73.59 -17.32 C-74.97 -16.4, -75.91 -15.4, -76.77 -14.78 M-77.16 -14.89 C-78.05 -13.85, -78.42 -13.35, -80.02 -11.6 M-77.11 -14.78 C-77.77 -13.98, -78.93 -12.9, -79.89 -11.81 M-79.71 -12.09 C-80.24 -11.27, -80.81 -10.76, -81.97 -9.22 M-79.88 -11.96 C-80.52 -10.68, -81.45 -9.65, -82.09 -8.99 M-82.37 -8.88 C-82.67 -7.86, -83.61 -7.4, -84.11 -6.28 M-82.28 -8.96 C-82.75 -8.24, -83.22 -7.46, -83.9 -6.04 M-84.22 -6.28 C-84.19 -5.64, -84.83 -4.35, -85.24 -2.94 M-84 -6.1 C-84.39 -5.14, -84.83 -4.51, -85.56 -3.05 M-85.14 -3.18 C-86.03 -2.12, -86.03 -0.87, -86.29 -0.16 M-85.48 -3.07 C-85.57 -2.46, -85.95 -1.91, -86.23 -0.16 M-86.34 0.07 C-86.19 0.74, -86.38 1.93, -86.46 2.79 M-86.28 -0.06 C-86.42 1.08, -86.45 2.05, -86.63 2.63 M-86.35 2.5 C-86.2 3.57, -86.11 4.81, -86.02 5.55 M-86.52 2.84 C-86.48 3.64, -86.27 4.13, -85.95 5.63 M-86.09 5.79 C-85.62 6.21, -85.33 6.69, -84.72 8.48 M-86.19 5.46 C-85.92 5.99, -85.61 6.79, -84.87 8.21 M-84.94 8.35 C-84.78 8.45, -84.37 8.85, -84.11 9.57 M-84.97 8.33 C-84.68 8.47, -84.64 8.85, -84.09 9.51 M-84.15 9.55 C-83.9 9.96, -83.63 10.16, -83.03 10.69 M-84.16 9.54 C-83.77 9.94, -83.31 10.44, -83.12 10.71 M-83.13 10.92 C-82.89 11.12, -82.54 11.32, -81.86 11.84 M-83.15 10.85 C-82.76 11.23, -82.3 11.48, -81.81 12 M-81.83 12.07 C-81.57 12.4, -81.06 12.48, -80.34 13.01 M-81.84 11.99 C-81.64 12.09, -81.23 12.38, -80.43 13.15 M-80.48 13.24 C-79.94 13.55, -79.46 13.89, -78.85 13.96 M-80.47 13.08 C-80.07 13.35, -79.65 13.62, -78.75 14.24 M-78.98 14.15 C-78.24 14.25, -77.58 14.74, -77.11 15.34 M-78.82 14.2 C-78.18 14.57, -77.77 14.74, -76.87 15.1 M-76.89 15.14 C-76.32 15.71, -75.53 15.92, -74.94 16.24 M-77.02 15.1 C-76.23 15.47, -75.61 15.65, -74.77 16.04 M-74.98 16.34 C-74.16 16.2, -72.97 16.89, -72.52 16.87 M-74.76 16 C-73.93 16.54, -73.19 16.63, -72.53 17.01 M-72.72 16.99 C-71.71 17.11, -70.96 17.23, -70.05 17.89 M-72.47 17.11 C-71.91 17.2, -71.15 17.29, -70.03 17.69 M-70.08 17.67 C-68.69 18.08, -67.46 18.26, -67.29 18.26 M-69.84 17.54 C-69.24 17.91, -68.64 17.87, -67.03 18.17 M-67.23 18 C-66.59 18.29, -65.83 18.08, -64.38 18.2 M-67.21 18.1 C-66.1 18.27, -65.2 18.11, -64.4 18.21 M-64.41 17.94 C-63.32 17.96, -62.26 18.07, -61.63 17.58 M-64.29 18.13 C-63.92 18.02, -63.34 18.03, -61.89 17.75 M-61.95 17.78 C-61.46 17.67, -61.25 17.64, -60.64 17.43 M-61.81 17.84 C-61.66 17.79, -61.33 17.72, -60.78 17.39 M-60.62 17.37 C-60.41 17.29, -60.04 17.07, -59.68 16.98 M-60.76 17.48 C-60.41 17.23, -59.96 17.01, -59.72 16.91 M-59.68 16.8 C-59.45 16.73, -59.3 16.55, -58.82 16.15 M-59.79 16.86 C-59.55 16.75, -59.29 16.54, -58.88 16.21 M-58.91 16.17 C-58.8 15.86, -58.4 15.73, -58.18 15.28 M-58.93 16.2 C-58.65 15.91, -58.42 15.51, -58.18 15.31 M-58.24 15.32 C-57.96 14.88, -57.96 14.54, -57.83 14.2 M-58.18 15.34 C-58.08 14.9, -57.82 14.48, -57.73 14.21 M-57.67 14.3 C-57.67 13.99, -57.71 13.74, -57.44 13.04 M-57.66 14.24 C-57.62 13.9, -57.56 13.58, -57.42 12.97 M-57.55 13.06 C-57.51 12.57, -57.58 11.98, -57.55 11.51 M-57.41 12.93 C-57.43 12.63, -57.39 12.33, -57.38 11.45 M-57.42 11.34 C-57.68 10.79, -57.67 10.04, -57.63 9.85 M-57.41 11.45 C-57.51 10.95, -57.6 10.57, -57.69 9.74 M-57.73 9.61 C-58.62 11.58, -59.02 13.62, -58.52 15.39 M-57.53 9.99 C-57.82 11.31, -58.5 12.66, -58.72 15.69 M-58.79 15.68 C-59.75 15.74, -60.23 15.87, -60.77 15.93 M-59.04 15.8 C-59.58 15.74, -60.1 15.87, -60.99 15.97 M-60.95 16.13 C-61.31 15.87, -61.55 16.13, -62.71 15.85 M-60.86 15.97 C-61.44 15.91, -62.06 15.94, -62.89 15.91 M-62.75 15.9 C-63.3 15.96, -63.67 15.7, -64.74 15.32 M-62.76 15.83 C-63.46 15.81, -64.15 15.51, -64.58 15.41 M-64.77 15.62 C-65.15 15.15, -65.69 15.19, -66.41 14.79 M-64.6 15.44 C-65.11 15.25, -65.7 15, -66.41 14.73 M-66.37 15.05 C-67.28 14.38, -68.43 13.93, -69.61 13.06 M-66.37 14.91 C-67.54 14.4, -68.43 13.92, -69.9 13.27 M-70.23 13.18 C-70.85 12.72, -71.77 12.03, -73.69 11.13 M-69.97 13.21 C-71.05 12.4, -72.05 12.23, -73.48 11.18 M-73.33 11.4 C-73.7 10.9, -74.35 10.81, -75.15 10.23 M-73.28 11.21 C-73.69 11.03, -73.97 10.92, -75.03 10.42 M-74.95 10.39 C-75.51 10.21, -75.9 9.74, -76.21 9.55 M-74.99 10.47 C-75.47 10.02, -75.84 9.74, -76.41 9.43 M-76.3 9.43 C-76.65 9.06, -76.89 8.52, -77.5 8.14 M-76.41 9.37 C-76.67 9.14, -76.95 8.8, -77.47 8.19 M-77.44 8.29 C-77.7 7.91, -78.11 7.39, -78.34 6.89 M-77.47 8.14 C-77.83 7.76, -78.07 7.32, -78.47 6.87 M-78.41 6.67 C-78.48 6.43, -78.83 6.22, -79.11 5.37 M-78.39 6.84 C-78.63 6.43, -78.89 6.09, -79.19 5.4 M-79.03 5.37 C-79.38 4.9, -79.39 4.32, -79.65 3.85 M-79.2 5.27 C-79.29 4.77, -79.54 4.41, -79.77 3.79 M-79.64 3.56 C-80.04 3.19, -79.73 1.99, -80.17 0.62 M-79.82 3.71 C-79.88 2.72, -80.08 1.64, -80.35 0.29 M-80.22 0.57 C-80.02 -0.82, -80.39 -2.11, -80.39 -3.27 M-80.09 0.31 C-80.2 -0.36, -80.2 -1.02, -80.11 -2.82 M-80.23 -2.7 C-79.51 -4.09, -79.31 -5.31, -79.48 -6.23 M-79.99 -2.97 C-80.04 -3.91, -79.83 -4.66, -79.44 -6.3 M-79.21 -6.22 C-78.73 -7.03, -78.76 -7.97, -77.92 -9.15 M-79.33 -6.17 C-78.87 -7.02, -78.58 -8.07, -78.28 -8.91 M-78.08 -8.97 C-77.85 -9.31, -77.64 -9.86, -77.54 -10.29 M-78.17 -9.03 C-77.9 -9.28, -77.76 -9.65, -77.46 -10.16 M-77.54 -10.27 C-77.28 -10.37, -77.18 -10.67, -76.5 -11.13 M-77.39 -10.24 C-77.21 -10.49, -76.88 -10.86, -76.56 -11.15 M-76.6 -11.21 C-76.61 -11.2, -76.62 -11.19, -76.63 -11.18 M-76.6 -11.21 C-76.61 -11.2, -76.63 -11.19, -76.63 -11.18 M-76.53 -11.11 C-76.39 -11.67, -75.98 -11.84, -75.55 -12.1 M-76.66 -11.24 C-76.31 -11.49, -76.1 -11.79, -75.66 -12.16 M-75.7 -12.19 C-75.83 -12.03, -75.97 -11.72, -76.36 -11.39 M-75.69 -12.23 C-75.86 -12.04, -76.03 -11.86, -76.37 -11.39 M-76.44 -11.7 C-75.67 -11.82, -75.35 -12.53, -74.09 -13.77 M-76.39 -11.48 C-75.8 -12.12, -75.21 -12.79, -74.22 -13.54 M-74.28 -13.59 C-74.3 -13.53, -74.39 -13.52, -74.44 -13.46 M-74.27 -13.59 C-74.33 -13.54, -74.41 -13.49, -74.46 -13.44 M-74.45 -13.44 C-74.45 -13.44, -74.45 -13.44, -74.45 -13.44 M-74.45 -13.44 C-74.45 -13.44, -74.45 -13.44, -74.45 -13.44 M-74.48 -13.42 C-74.23 -13.54, -74.09 -13.73, -73.96 -13.82 M-74.47 -13.47 C-74.31 -13.56, -74.23 -13.67, -74.01 -13.81 M-73.99 -13.82 C-73.97 -13.86, -73.93 -13.88, -73.88 -13.93 M-73.99 -13.83 C-73.95 -13.86, -73.92 -13.89, -73.89 -13.91 M-73.86 -13.93 C-73.93 -13.87, -73.99 -13.85, -74.06 -13.72 M-73.89 -13.91 C-73.96 -13.85, -74.02 -13.79, -74.08 -13.74 M-74.45 -13.83 C-72.9 -14.73, -71.75 -15.06, -70.85 -16.08 M-73.94 -13.68 C-73.16 -14.09, -72.63 -14.55, -70.63 -15.64 M-70.38 -16 C-70.03 -16.28, -68.55 -16.43, -67.08 -17.59 M-70.6 -15.78 C-69.47 -16.27, -68.76 -16.88, -66.86 -17.73 M-67.31 -17.3 C-66.49 -17.85, -65.76 -18.15, -62.98 -18.89 M-66.84 -17.41 C-65.94 -17.9, -64.66 -18.29, -63.19 -18.86 M-63.4 -19.04 C-62.34 -19.37, -61.38 -19.1, -59.72 -20.04 M-63.37 -19.03 C-62.6 -18.91, -61.75 -19.24, -59.71 -19.71 M-59.35 -20.01 C-58.25 -20.31, -57 -20.45, -56.33 -20.44 M-59.72 -19.73 C-58.87 -20.14, -57.92 -20.18, -55.93 -20.37 M-56.15 -20.39 C-54.53 -20.17, -53.73 -20.64, -52.42 -20.45 M-56.25 -20.37 C-55.15 -20.63, -54.16 -20.63, -52.34 -20.82 M-52.55 -20.35 C-51.4 -20.51, -50.47 -20.72, -48.99 -20.65 M-52.35 -20.71 C-51.43 -20.53, -50.47 -20.73, -48.92 -20.77 M-48.9 -20.83 C-48.02 -20.41, -47.4 -20.34, -45.11 -20.58 M-49.02 -20.67 C-47.93 -20.52, -47.15 -20.46, -45.3 -20.1 M-45.23 -20.19 C-44.92 -20.08, -44.21 -19.75, -41.73 -19.61 M-45.35 -20.08 C-44.34 -20.19, -42.88 -19.69, -42.15 -19.7 M-42.2 -19.89 C-40.87 -19.64, -39.93 -18.72, -38.39 -18.42 M-42.11 -19.51 C-41.1 -19.29, -40.74 -19.11, -38.48 -18.75 M-38.58 -18.37 C-37.39 -18.13, -36.13 -17.78, -35.57 -17.65 M-38.68 -18.63 C-37.49 -18.16, -36.15 -17.95, -35.52 -17.7 M-35.59 -17.33 C-34.22 -17.32, -33.16 -16.45, -32.16 -16.03 M-35.5 -17.38 C-34.32 -17.11, -32.91 -16.58, -32.25 -16.22 M-32.36 -16.36 C-31.03 -15.88, -29.99 -14.66, -29.12 -14.55 M-32.42 -16.08 C-31.69 -15.85, -30.84 -15.26, -29.25 -14.43 M-29.59 -14.44 C-28.52 -14.22, -27.35 -13.3, -26.3 -12.51 M-29.43 -14.54 C-28.74 -14.17, -27.99 -13.69, -26.69 -12.63 M-26.36 -12.73 C-25.98 -11.96, -25.47 -11.93, -24.05 -10.97 M-26.39 -12.83 C-25.77 -12.18, -24.89 -11.42, -23.76 -10.75 M-23.74 -10.65 C-23.14 -10.19, -22.81 -9.62, -21.4 -8.2 M-24.06 -10.75 C-23.24 -10.27, -22.86 -9.81, -21.34 -8.46 M-21.66 -8.61 C-20.36 -7.49, -19.55 -6.76, -19 -6.4 M-21.52 -8.61 C-20.66 -7.55, -19.96 -6.77, -19.41 -6.31 M-19.2 -6.23 C-18.47 -5.6, -17.73 -4.78, -17.3 -3.9 M-19.17 -6.3 C-18.55 -5.33, -17.66 -4.1, -17.13 -3.82 M-17.37 -3.64 C-16.39 -2.88, -16.09 -1.93, -15.56 -1.18 M-17.16 -3.81 C-16.78 -3.08, -16.3 -2.4, -15.49 -0.95 M-15.49 -1 C-14.76 0.17, -14.15 0.81, -13.92 1.66 M-15.41 -0.97 C-14.85 0.08, -14.16 1.2, -14.09 1.51 M-13.92 1.43 C-13.61 2.52, -13.02 3.22, -13.03 4.18 M-14.04 1.5 C-13.69 2.41, -13.4 3.24, -12.85 4.37 M-13.05 4.42 C-12.75 4.88, -12.41 5.67, -11.75 7.33 M-12.72 4.36 C-12.42 5.24, -12.06 6.25, -12.01 7.39 M-11.68 7.22 C-11.69 8.2, -11.55 8.77, -11.08 10.28 M-12.02 7.27 C-11.85 8.09, -11.37 9.23, -11.3 10.14 M-11.43 9.91 C-11.05 11.21, -11.19 12.67, -11.27 13.39 M-11.28 10.23 C-11.24 10.84, -11.25 11.35, -11.13 13.11 M-11 13.27 C-11.17 13.73, -11.06 14.76, -10.87 16.31 M-11.08 13.16 C-11.15 13.77, -11.15 14.71, -11.2 16.07 M-11.08 16.34 C-11.37 17.11, -11.56 17.86, -11.74 19.04 M-11.19 16.09 C-11.17 17.27, -11.44 18.22, -11.71 19.18 M-11.65 19.28 C-11.66 19.85, -12.11 20.38, -12.65 21.9 M-11.54 19.1 C-11.79 20.32, -12.14 21.54, -12.53 21.99 M-12.1 22.06 C-12.77 23.42, -13.06 24.43, -13.63 24.8 M-12.52 22.17 C-12.76 22.87, -12.78 23.35, -13.51 25.19 M-13.34 25.05 C-13.84 25.4, -14.3 26.49, -15.08 27.75 M-13.52 25.07 C-14.06 25.81, -14.68 26.88, -15.19 27.95 M-15.61 28.28 C-15.84 29.11, -17.15 30.3, -17.38 30.8 M-15.18 27.9 C-15.78 28.96, -16.51 29.71, -17.29 30.72 M-17.04 31.25 C-18.13 31.75, -18.54 32.39, -19.64 33.88 M-17.21 31.06 C-18.25 31.7, -19.12 32.91, -19.99 33.86 M-19.65 33.42 C-20.8 34.43, -22.63 36.05, -22.8 36.71 M-19.71 33.55 C-20.92 34.68, -22.06 35.79, -23 36.35 M-23.41 36.7 C-24.46 37.41, -25.29 39.15, -26.81 40.77 M-23.01 36.26 C-24.29 37.41, -25.3 38.36, -26.79 40.29 M-26.55 40.78 C-28.34 41.45, -30.24 43.38, -31.06 44.21 M-26.83 40.17 C-27.9 41.41, -29.17 42.24, -30.73 44.04 M-30.74 44.25 C-31.47 44.84, -32.11 45.46, -33.15 46.22 M-31.05 44.34 C-31.38 44.93, -31.86 45.43, -32.8 46.26 M-33.02 46.42 C-33.53 47.09, -33.53 47.34, -34.63 48.36 M-32.94 46.48 C-33.58 47.24, -34.09 47.97, -34.75 48.53 M-34.66 48.8 C-35.04 48.94, -35.42 49.82, -36.14 51.14 M-34.5 48.64 C-35.01 49.07, -35.21 49.73, -36.01 50.83 M-36.08 50.73 C-36.6 51.93, -36.89 52.48, -37.54 53.21 M-36.22 50.93 C-36.38 51.56, -36.71 52.02, -37.44 53.34 M-37.61 53.23 C-38.45 53.19, -39.25 53.45, -40 53.81 M-37.29 53.44 C-38.62 53.37, -39.52 53.46, -40.32 53.65 M-40.52 53.57 C-41.47 53.87, -42.55 53.44, -43.37 54.09 M-40.33 53.57 C-40.91 53.77, -41.74 53.64, -43.24 53.91 M-43.18 53.84 C-43.77 53.69, -44.2 53.92, -44.69 53.69 M-43.25 53.82 C-43.74 53.78, -44.07 53.86, -44.74 53.79 M-44.86 53.71 C-45.2 53.64, -45.76 53.76, -46.22 53.58 M-44.81 53.81 C-45.11 53.75, -45.31 53.66, -46.21 53.6 M-46.22 53.65 C-46.46 53.6, -46.8 53.43, -47.33 53 M-46.17 53.55 C-46.48 53.5, -46.85 53.31, -47.41 53.12 M-47.55 53.16 C-47.83 52.91, -48.15 52.51, -48.47 52.37 M-47.46 53.07 C-47.84 52.8, -48.29 52.54, -48.58 52.35 M-48.64 52.32 C-48.45 51.1, -49.11 49.83, -48.67 49.46 M-48.62 52.47 C-48.78 51.12, -48.91 50.16, -49.09 49.2 M-48.92 49.4 C-48.81 48.47, -49.27 47.92, -49.32 46.5 M-49.04 49.34 C-48.88 48.33, -49.14 47.66, -49.17 46.33 M-49.1 46.55 C-49.04 45.88, -49.07 45.32, -49.13 43.79 M-49.16 46.3 C-49.29 45.59, -49.16 44.61, -49.31 43.69 M-49.19 43.73 C-49.4 42.94, -49.14 41.76, -49.23 41.13 M-49.33 43.66 C-49.36 42.87, -49.25 41.93, -49.14 41.4 M-49.37 41.13 C-48.93 40.57, -49.22 39.62, -48.82 39.29 M-49.32 41.31 C-49.1 40.68, -49.09 39.91, -49.14 39.18 M-49.16 38.99 C-48.95 38.8, -48.72 38.09, -48.88 37.09 M-48.99 39.18 C-48.79 38.27, -48.79 37.53, -48.73 37.05 M-48.64 37.14 C-48.68 36.38, -48.45 36.18, -48.26 35.12 M-48.66 37 C-48.48 36.44, -48.46 35.83, -48.35 35.16 M-48.35 35.12 C-48.23 34.72, -48 33.98, -47.67 33.67 M-48.28 35.18 C-48.11 34.77, -48.1 34.52, -47.76 33.5 M-47.42 33.47 C-47.55 32.62, -47.12 31.77, -46.04 30.75 M-47.73 33.56 C-47.13 32.43, -46.78 31.33, -46.42 30.4 M-46.23 30.56 C-45.79 29.98, -45.86 29.33, -44.4 28.03 M-46.21 30.48 C-46.03 30.1, -45.73 29.62, -44.7 27.93 M-44.37 27.94 C-43.8 27.09, -43.16 26.46, -42.76 25.94 M-44.5 28.09 C-43.92 27.34, -43.14 26.6, -42.74 25.98 M-42.61 26.13 C-41.62 25.46, -40.75 24.79, -40.57 24.1 M-42.61 25.87 C-42.01 25.41, -41.61 25.07, -40.44 24.19 M-40.69 24.03 C-39.69 23.61, -38.79 22.55, -36.52 21.21 M-40.69 24.06 C-38.53 22.6, -37.17 21.51, -35.85 20.77 M-35.92 20.83 C-35.55 20.45, -34.94 20.18, -33.63 19.23 M-36.05 20.95 C-35.4 20.47, -34.73 19.86, -33.7 19.22 M-34.02 19.06 C-33.63 18.6, -33.07 18.61, -31.85 17.25 M-33.83 19.19 C-33.32 18.92, -32.99 18.37, -31.76 17.42 M-31.88 17.52 C-31.21 16.66, -30.9 16.4, -30.19 15.42 M-31.84 17.45 C-30.96 16.37, -30.32 15.59, -30.06 15.22 M-30.09 15.33 C-29.3 14.46, -28.77 13.31, -28.21 12.54 M-29.9 15.32 C-29.68 14.77, -29.47 14.13, -28.6 12.8 M-28.55 12.93 C-28.46 12.11, -27.86 11.66, -27.09 9.61 M-28.35 12.65 C-28.21 11.57, -27.62 10.67, -27.46 9.74 M-27.28 9.77 C-27.39 9.45, -27.15 9.13, -26.85 8.28 M-27.34 9.82 C-27.22 9.16, -27.08 8.45, -26.89 8.04 M-27.12 8.27 C-26.9 7.84, -26.67 7.15, -26.53 6.09 M-26.95 8.03 C-26.84 7.58, -26.82 7.14, -26.74 6.29 M-26.76 6.31 C-26.64 5.91, -26.95 5.16, -27.02 4.31 M-26.76 6.26 C-26.87 5.52, -26.89 4.86, -27.15 4.38 M-27.16 4.37 C-27.34 4.06, -27.36 3.41, -27.43 2.7 M-27.14 4.31 C-27.22 3.76, -27.24 3.35, -27.57 2.62 M-27.74 2.64 C-27.85 2.32, -27.8 1.91, -28.26 1.15 M-27.59 2.65 C-27.9 1.97, -28.06 1.46, -28.2 0.94 M-28.34 0.87 C-28.61 0.45, -28.89 -0.08, -28.96 -0.37 M-28.24 1.07 C-28.51 0.61, -28.68 0.15, -29.07 -0.43 M-28.92 -0.44 C-29.36 -0.77, -29.56 -1.27, -29.76 -1.62 M-29.05 -0.34 C-29.27 -0.87, -29.63 -1.3, -29.95 -1.53 M-29.84 -1.7 C-30.23 -1.98, -30.3 -2.05, -30.77 -2.75 M-29.85 -1.61 C-30.23 -1.89, -30.47 -2.15, -30.88 -2.65 M-30.83 -2.75 C-31.42 -3.38, -32.3 -4.01, -33.24 -4.11 M-30.77 -2.62 C-31.38 -3.06, -31.77 -3.23, -33.23 -4.22 M-33.32 -4.29 C-34.17 -4.56, -35.03 -4.82, -35.68 -5.01 M-33.09 -4.23 C-33.95 -4.45, -35.01 -4.9, -35.77 -5.12 M-35.73 -5.07 C-36.49 -5.28, -36.97 -5.33, -38.59 -5.68 M-35.62 -5.09 C-36.63 -5.39, -37.41 -5.48, -38.41 -5.52 M-38.45 -5.79 C-39.58 -5.24, -40.77 -5.62, -41.48 -5.59 M-38.65 -5.69 C-39.49 -5.46, -40.29 -5.39, -41.4 -5.35 M-41.47 -5.18 C-42.17 -5.24, -43.38 -4.72, -44.62 -4.77 M-41.28 -5.47 C-42.25 -5.3, -42.95 -4.98, -44.54 -4.68 M-44.54 -4.79 C-45.17 -4.69, -45.71 -4.23, -47.5 -3.97 M-44.41 -4.66 C-44.94 -4.47, -45.64 -4.15, -47.45 -3.55 M-47.36 -3.72 C-47.68 -3.48, -48.8 -2.74, -50.22 -2.3 M-47.21 -3.59 C-48.14 -3.12, -49.17 -2.55, -50.27 -2.07 M-50.44 -2.34 C-51.32 -1.19, -52.29 -0.51, -52.51 -0.43 M-50.24 -2.06 C-50.91 -1.44, -51.57 -1.1, -52.76 -0.21 M-52.74 -0.54 C-53.18 0.67, -53.95 0.92, -55.22 1.85 M-52.95 -0.18 C-53.62 0.34, -53.99 1.08, -55.36 2.09 M-55.18 2.2 C-55.97 2.51, -56.49 3.61, -57.26 4.85 M-55.37 1.94 C-55.63 2.55, -56.12 3.15, -57.22 4.5 M-57.55 4.72 C-57.61 5.08, -57.88 6.01, -59.12 7.64 M-57.14 4.65 C-57.48 5.02, -57.93 5.59, -58.91 7.46 M-58.81 7.38 C-58.99 8.15, -59.81 9.67, -59.85 10.52 M-58.93 7.38 C-59.21 8.3, -59.4 8.87, -59.83 10.44 M-59.81 10.61 C-59.8 11.57, -60.11 12.32, -60.47 13.59 M-59.82 10.48 C-59.93 11.39, -60.3 12.46, -60.23 13.5 M-60.38 13.53 C-60.29 12.52, -60.27 12.23, -59.62 9.68 M-60.31 13.47 C-60.28 12.51, -59.92 11.35, -59.56 9.81 M-59.33 10.14 C-58.81 9.22, -58.87 8.72, -58.17 6.39 M-59.36 9.93 C-59.17 9.11, -58.74 8.16, -57.99 6.66 M-58.02 6.6 C-57.66 5.83, -57.14 5.21, -56.29 4.01 M-57.93 6.72 C-57.43 5.86, -56.8 4.94, -56.27 4.14 M-56.44 4.08 C-55.27 3.31, -54.64 2.21, -53.79 1.65 M-56.07 3.89 C-55.72 3.51, -55.18 3.16, -54.12 1.85 M-53.88 1.98 C-53.27 1.31, -52.99 1.09, -51.56 0.26 M-54.09 1.77 C-53.39 1.57, -52.72 1.11, -51.78 0.31 M-51.97 0.46 C-51.48 0.21, -50.81 -0.07, -49.34 -0.57 M-51.75 0.29 C-50.81 -0.16, -50.2 -0.32, -49.32 -0.68 M-49.16 -0.83 C-48.49 -1.2, -47.48 -1.35, -46.65 -1.36 M-49.23 -0.75 C-48.43 -1.08, -47.36 -1.21, -46.72 -1.48 M-46.56 -1.24 C-46.18 -1.55, -45.13 -1.42, -44.05 -1.32 M-46.77 -1.28 C-45.77 -1.31, -44.74 -1.56, -44.21 -1.38 M-44.18 -1.33 C-43.51 -1.37, -42.75 -1.5, -41.62 -1.07 M-44.29 -1.53 C-43.31 -1.25, -42.67 -1.22, -41.76 -1.1 M-41.78 -1.3 C-41.46 -0.92, -40.56 -0.62, -39.22 -0.11 M-41.64 -1.14 C-41.29 -0.74, -40.67 -0.77, -39.37 -0.24 M-39.53 -0.21 C-38.78 0.07, -38.42 0.69, -37.62 1.06 M-39.4 -0.25 C-38.67 0.46, -38.11 0.93, -37.4 1.31 M-37.66 1.06 C-36.61 2.13, -36.51 2.58, -35.74 3.35 M-37.41 1.15 C-36.87 1.9, -36.44 2.6, -35.8 3.08 M-35.58 3.2 C-35.45 4.12, -34.76 4.97, -34.26 5.52 M-35.84 3.21 C-35.22 4.14, -34.64 5.09, -34.47 5.65 M-34.17 5.86 C-34.04 6.72, -33.55 7.82, -33.28 8.69 M-34.44 5.52 C-34.09 6.58, -33.9 7.38, -33.72 8.59 M-33.49 8.47 C-33.52 8.99, -33.26 9.52, -33.3 10.2 M-33.59 8.44 C-33.46 9.01, -33.49 9.47, -33.38 10.08 M-33.49 10.19 C-33.38 10.74, -33.39 11.43, -33.48 11.96 M-33.44 10.17 C-33.33 10.7, -33.35 11.12, -33.33 11.95 M-33.49 12.05 C-33.48 12.36, -33.47 13.06, -33.23 13.82 M-33.28 11.87 C-33.27 12.59, -33.3 13.34, -33.38 13.81 M-33.58 13.84 C-33.6 14.07, -33.73 14.52, -33.7 15.65 M-33.47 13.71 C-33.58 14.26, -33.48 14.94, -33.68 15.72 M-33.64 15.86 C-34.61 16.32, -35.75 17.11, -36.32 17.67 M-33.6 15.79 C-34.41 16.39, -35.34 16.59, -36.39 17.24 M-36.17 17.41 C-37.32 17.73, -37.91 18.44, -38.95 19.52 M-36.24 17.45 C-37.36 17.94, -38.41 18.85, -39.03 19.27 M-38.72 19.54 C-39.89 19.83, -40.29 20.32, -41.64 21.47 M-38.94 19.25 C-40.03 20.02, -41.02 20.58, -41.56 21.45 M-41.59 21.07 C-42.43 22.54, -43.64 22.82, -44.18 23.37 M-41.82 21.19 C-42.87 22.29, -43.69 23.32, -44.29 23.8 M-44.28 23.92 C-45.51 24.44, -46.25 25.78, -47.05 25.89 M-44.26 23.62 C-44.91 24.13, -45.31 24.78, -46.93 26.27 M-46.48 26.15 C-47.88 26.78, -48.08 27.71, -48.86 29.04 M-46.67 26.05 C-47.26 26.81, -48.19 27.61, -49.29 29.02 M-48.98 28.74 C-50.22 30.03, -51.15 31.09, -51.56 31.92 M-49.12 28.74 C-49.69 29.56, -50.12 30.3, -51.37 31.84 M-51.12 32.07 C-51.54 32.46, -52.09 33.35, -53.52 34.86 M-51.47 31.94 C-51.83 32.42, -52.42 33.46, -53.41 34.86 M-53.17 35.01 C-54.18 35.86, -54.64 37.33, -54.83 37.82 M-53.31 34.97 C-53.98 35.9, -54.5 36.49, -55.24 37.96 M-55.09 38.4 C-55.51 39.49, -56.59 40.45, -56.85 41.05 M-55.21 37.99 C-55.6 38.91, -55.92 39.6, -56.65 41.44 M-56.87 41.38 C-56.92 42.84, -57.84 43.71, -58.04 44.93 M-56.53 41.42 C-57.18 42.27, -57.39 43.25, -57.9 44.79 M-57.93 44.86 C-58.28 46.46, -58.78 47.81, -59.36 48.4 M-58.07 44.81 C-58.31 45.75, -58.47 46.65, -58.94 48.37 M-58.97 48.5 C-59.17 49.57, -59.38 50.37, -59.37 52.55 M-59.16 48.48 C-59.21 49.56, -59.4 50.61, -59.56 52.18 M-59.93 52.08 C-59.43 53.28, -59.53 54.38, -59.68 56.02 M-59.58 52.3 C-59.83 53.8, -59.96 55.06, -60.12 56.14 M-60.23 56.09 C-59.69 56.9, -60.34 58.38, -59.99 60.16 M-59.99 55.97 C-59.86 56.85, -59.92 58.14, -60.17 59.93 M-59.82 60.18 C-59.59 61.34, -59.76 61.88, -59.83 63.56 M-60.14 59.98 C-59.73 61.47, -59.68 62.94, -59.58 63.99 M-59.49 63.7 C-58.2 64.52, -57.31 64.45, -56.74 65.1 M-59.59 63.94 C-58.85 64, -57.94 64.36, -56.61 64.89 M-56.64 64.87 C-55.84 65.18, -55.06 65.16, -53.92 65.66 M-56.67 64.76 C-55.58 65.15, -54.67 65.22, -53.69 65.7 M-53.77 65.67 C-52.79 65.72, -51.74 66.11, -50.61 66.25 M-53.68 65.57 C-52.78 65.79, -51.73 65.97, -50.67 65.86 M-50.43 66.26 C-50 65.95, -49.09 65.88, -47.46 65.86 M-50.68 65.86 C-49.97 65.93, -49.22 65.9, -47.6 65.96 M-47.58 66.23 C-46.86 66.25, -45.62 66.05, -44.76 65.68 M-47.78 66.17 C-46.99 66.06, -46.48 65.96, -44.72 65.75 M-44.85 65.7 C-43.95 65.55, -43.44 65.84, -42.13 65.37 M-44.65 65.87 C-43.85 65.85, -43.12 65.6, -41.96 65.28 M-41.94 65.22 C-40.92 65, -40.5 65.02, -39.33 64.23 M-42 65.42 C-41.03 65.1, -40.06 64.73, -39.21 64.51 M-39.36 64.5 C-38.01 64.3, -37.37 63.68, -36.41 63.39 M-39.05 64.54 C-38.21 64.28, -37.3 63.73, -36.47 63.45 M-36.39 63.49 C-35.67 62.64, -34.63 62.19, -34.47 62.24 M-36.69 63.49 C-36.22 63.05, -35.7 62.75, -34.08 61.84 M-34.03 61.75 C-33.15 61.15, -32.64 60.9, -31.95 60.14 M-34.15 61.91 C-33.55 61.32, -32.88 61.05, -31.95 60.14 M-31.9 60 C-31.18 59.77, -30.49 58.66, -30.36 58.49 M-32.13 60.36 C-31.3 59.42, -30.71 58.76, -30.17 58.3 M-30.03 58.39 C-29.85 57.56, -29.46 57.08, -28.4 56.24 M-30.31 58.3 C-29.82 57.58, -29.44 56.84, -28.53 55.99 M-28.57 55.82 C-27.95 54.98, -27.71 54.13, -27.12 53.64 M-28.53 55.91 C-28.04 55.06, -27.62 54.19, -27.31 53.3 M-27.39 53.25 C-27.11 52.78, -26.87 51.75, -26.24 50.49 M-27.39 53.48 C-27.05 52.33, -26.75 51.08, -26.6 50.4 M-26.22 50.83 C-26.21 49.29, -26.15 48.66, -26.02 47.25 M-26.61 50.4 C-26.31 49.66, -26.33 49, -25.93 47.43 M-26.17 47.62 C-25.99 46.07, -26.09 45.66, -25.64 43.74 M-25.85 47.5 C-25.93 46.16, -26.03 45, -25.87 44.09 M-26.09 43.98 C-25.61 43.4, -25.4 43.38, -24.63 42.56 M-25.88 44.02 C-25.67 43.6, -25.21 43.26, -24.61 42.62 M-24.39 42.68 C-23.96 42.05, -22.92 41.01, -22.59 40.88 M-24.44 42.63 C-24.19 42.22, -23.83 41.77, -22.83 40.94 M-22.8 40.66 C-21.95 40.5, -21.45 39.59, -20.84 39 M-22.76 40.86 C-22.35 40.5, -21.83 39.77, -20.81 38.84 M-20.85 39.12 C-20.23 38.48, -19.97 38.01, -18.55 36.83 M-20.75 38.87 C-19.82 38.22, -19.08 37.49, -18.61 36.77 M-18.42 36.85 C-17.88 36.22, -17.73 35.51, -16.45 34.36 M-18.53 36.87 C-18.26 36.32, -17.61 35.83, -16.37 34.66 M-16.24 34.54 C-15.72 34, -15.04 32.69, -14.35 32.21 M-16.25 34.62 C-15.56 33.77, -14.8 32.77, -14.02 32.18 M-14.26 31.59 C-12.18 30.73, -11.94 29.68, -9.49 26.96 M-14.14 32.43 C-12.3 30.15, -10.97 28.72, -9.29 26.45 M-9.68 26.25 C-8.74 25.41, -8.6 24.96, -7.42 23.84 M-9.38 26.65 C-8.99 26.17, -8.64 25.54, -7.44 23.48 M-7.39 23.63 C-7.05 22.89, -6.26 21.75, -5.64 20.71 M-7.18 23.62 C-6.72 22.62, -6.37 21.98, -5.43 20.54 M-5.36 20.7 C-5.03 19.44, -4.13 19.02, -3.74 17.63 M-5.45 20.47 C-4.61 19.54, -4.11 18.66, -3.63 17.47 M-3.27 17.34 C-3.34 15.98, -2.46 14.8, -2.07 14.25 M-3.66 17.15 C-3.02 16.29, -2.8 15.75, -1.99 13.99 M-1.72 13.72 C-2.01 13.6, -1.58 12.34, -0.56 10.28 M-1.97 14.13 C-1.54 12.75, -1.25 11.45, -0.94 10.66 M-1.06 10.95 C-0.52 9.2, -0.68 8.24, -0.38 6.78 M-0.9 10.5 C-0.91 10.01, -0.58 9.17, -0.01 7 M-0.22 7.39 C-0.1 5.48, -0.02 4.3, 0.08 3.86 M0.03 7.1 C-0.1 5.75, 0.19 4.47, 0.01 3.49 M0.2 3.52 C0.33 2.87, -0.24 2.05, -0.02 -0.05 M0.08 3.47 C0.02 2.64, 0.04 1.34, -0.18 0.05 M0 0 C0 0, 0 0, 0 0 M0 0 C0 0, 0 0, 0 0 M0 0 C0 0, 0 0, 0 0 M0 0 C0 0, 0 0, 0 0" stroke="#000000" stroke-width="1" fill="none"/></g></g><g stroke-linecap="round"><g transform="translate(20.027009588087594 29.966373790124067) rotate(0 0.11107359310415177 -0.11175978457231395)" fill-rule="evenodd"><path d="M1.95 -0.72 L1.09 -0.81 L-0.63 0.91 L-0.76 -0.93 L-0.16 1.06" stroke="none" stroke-width="0" fill="black" fill-rule="evenodd"/><path d="M0 0 C0 0, 0 0, 0 0 M0 0 C0 0, 0 0, 0 0 M0.02 -0.01 C0.04 -0.02, 0.08 -0.08, 0.21 -0.22 M0.01 0.01 C0.06 -0.06, 0.14 -0.14, 0.2 -0.22 M0.22 -0.2 C0.15 -0.18, 0.1 -0.09, 0.01 0 M0.21 -0.23 C0.14 -0.15, 0.05 -0.06, 0 0 M0 0 C0 0, 0 0, 0 0 M0 0 C0 0, 0 0, 0 0 M0 0 C0 0, 0 0, 0 0 M0 0 C0 0, 0 0, 0 0" stroke="#000000" stroke-width="1" fill="none"/></g></g><g stroke-linecap="round"><g transform="translate(73.7269607599626 77.58636890731157) rotate(0 0.19332160091323658 -0.14833685246156847)" fill-rule="evenodd"><path d="M-0.5 -1.52 L-1.79 -0.19 L-0.56 -0.57 L2.35 0.48 L-0.46 -1.9 L1.44 1.13" stroke="none" stroke-width="0" fill="black" fill-rule="evenodd"/><path d="M0 0 C0 0, 0 0, 0 0 M0 0 C0 0, 0 0, 0 0 M-0.02 0.05 C0.04 -0.03, 0.12 -0.12, 0.35 -0.34 M-0.02 0.01 C0.06 -0.07, 0.11 -0.14, 0.34 -0.3 M0.34 -0.32 C0.35 -0.33, 0.35 -0.33, 0.36 -0.34 M0.34 -0.32 C0.35 -0.33, 0.36 -0.33, 0.36 -0.34 M0.41 -0.32 C0.28 -0.22, 0.18 -0.16, -0.01 -0.01 M0.34 -0.33 C0.23 -0.21, 0.12 -0.12, -0.01 -0.01 M0 0 C0 0, 0 0, 0 0 M0 0 C0 0, 0 0, 0 0 M0 0 C0 0, 0 0, 0 0 M0 0 C0 0, 0 0, 0 0" stroke="#000000" stroke-width="1" fill="none"/></g></g><g stroke-linecap="round"><g transform="translate(68.5368972834001 119.12634693465532) rotate(0 -13.971358093255049 4.332893628963916)" fill-rule="evenodd"><path d="M-1.23 1.54 L1.78 0.94 L-0.65 -0.93 L1.14 -2.07 L0.92 -5.44 L0.79 -7.31 L-0.33 -6.87 L-2.82 -7.42 L-2.22 -7.66 L-9.29 -7.16 L-15.92 -6.89 L-18.89 -4.29 L-22.66 -6.12 L-26.35 -3.61 L-25.58 -4.77 L-26.24 -3.95 L-28.36 0.09 L-29.93 -1.97 L-26.87 -0.14 L-28.82 0.77 L-26.69 4.55 L-25.36 8.99 L-27.26 12.03 L-24.06 16.31 L-25.85 -1.31 L-21.46 -2.19 L-20.02 -2.71 L-14.32 -2.71 L-10.75 -3.75 L-8.07 -3.85 L-8.58 -2.97 L-6.35 0.13 L-5.27 1.52 L-6.15 3.93 L-6.03 11.35 L-5.52 10.74 L-4.74 14.4 L-13.77 15.19 L-20.81 15.22 L-25.13 15.98 L-17.85 18.61 L-14.5 18.7 L-12.87 16.09 L-8.53 17.38 L-6.33 16.88 L-5.62 14.85 L-4.14 15.37 L-1.89 16.21 L-0.96 14.7 L-1.5 9.61 L-1.5 11.03 L-0.71 6.25 L-0.52 5.62 L0.19 0.42 L1.89 0.95" stroke="none" stroke-width="0" fill="black" fill-rule="evenodd"/><path d="M0 0 C0 0, 0 0, 0 0 M0 0 C0 0, 0 0, 0 0 M-0.05 0.07 C-0.06 -0.27, -0.03 -0.62, -0.2 -0.98 M-0.02 -0.01 C-0.08 -0.37, -0.07 -0.68, -0.11 -1.01 M-0.09 -0.97 C-0.04 -1.46, -0.01 -1.86, -0.02 -2.27 M-0.13 -1.03 C-0.09 -1.25, -0.08 -1.5, -0.11 -2.16 M-0.01 -2.01 C-0.04 -2.99, -0.12 -3.85, 0.11 -4.65 M-0.09 -2.09 C0.03 -2.79, -0.09 -3.29, -0.02 -4.56 M0.03 -4.69 C-0.14 -5.04, -0.11 -5.32, -0.04 -5.84 M-0.03 -4.62 C0 -4.99, -0.02 -5.34, -0.09 -5.84 M-0.18 -5.82 C-0.14 -6.14, -0.32 -6.45, -0.45 -6.92 M-0.1 -5.86 C-0.16 -5.99, -0.25 -6.24, -0.41 -6.89 M-0.41 -6.75 C-0.47 -7.05, -0.71 -7.13, -0.86 -7.75 M-0.41 -6.85 C-0.54 -7.1, -0.68 -7.35, -0.94 -7.64 M-1 -7.64 C-1.13 -7.9, -1.47 -7.96, -1.68 -8.28 M-0.9 -7.71 C-1.18 -7.83, -1.45 -8.06, -1.75 -8.22 M-2.26 -8.83 C-3.69 -8.34, -5.86 -8.74, -10.4 -8.43 M-1.93 -8.59 C-5.67 -8.36, -8.73 -7.82, -10.78 -8.18 M-11.05 -8.12 C-12.59 -7.15, -14.18 -6.95, -16.24 -6.96 M-11.27 -7.94 C-12.94 -7.34, -14.48 -7.01, -15.82 -7.1 M-15.62 -7.1 C-17.92 -6.93, -19.42 -6.39, -20.8 -5.51 M-15.91 -6.89 C-17.54 -6.65, -18.95 -6.6, -20.59 -5.9 M-20.71 -6.14 C-21.01 -5.79, -21.68 -5.44, -22.71 -5.34 M-20.61 -5.87 C-21.21 -5.76, -21.86 -5.57, -22.94 -5.18 M-23.02 -5.15 C-23.73 -4.9, -24.45 -4.46, -24.81 -4.29 M-22.89 -5.31 C-23.38 -5.07, -23.87 -4.81, -24.69 -4.51 M-24.77 -4.36 C-25.08 -4.2, -25.39 -3.92, -26.21 -3.47 M-24.62 -4.5 C-25.1 -4.24, -25.34 -3.95, -26.1 -3.45 M-26.08 -3.62 C-26.26 -3.2, -26.66 -2.95, -27.13 -2.31 M-26.01 -3.52 C-26.45 -3.13, -26.89 -2.75, -27.13 -2.4 M-27.07 -2.34 C-27.44 -2.01, -27.66 -1.67, -27.77 -1.44 M-27.13 -2.47 C-27.41 -2, -27.56 -1.67, -27.87 -1.27 M-27.72 -1.2 C-28.02 -0.92, -28.07 -0.64, -28.2 0.07 M-27.88 -1.26 C-27.91 -1.04, -28.03 -0.65, -28.32 -0.09 M-28.28 -0.12 C-28.23 0.45, -28.4 0.67, -28.49 1.23 M-28.28 -0.08 C-28.32 0.26, -28.33 0.73, -28.47 1.32 M-28.52 1.33 C-28.39 1.75, -28.46 2.16, -28.28 2.67 M-28.48 1.34 C-28.42 1.62, -28.42 1.87, -28.38 2.67 M-28.36 3 C-28.23 3.63, -28.02 5, -27.9 5.71 M-28.3 2.58 C-28.34 3.57, -28.08 4.44, -27.82 5.59 M-27.47 5.53 C-27.63 6.95, -27.38 7.74, -26.85 8.92 M-27.65 5.59 C-27.54 6.68, -27.17 7.58, -26.78 9.06 M-26.66 8.74 C-26.13 10.49, -25.9 11.67, -25.68 12.48 M-26.94 9.01 C-26.38 9.84, -25.9 11.04, -25.6 12.46 M-25.91 12.37 C-25.59 13.21, -25.24 14.83, -24.9 15.45 M-25.47 12.4 C-25.44 13.56, -24.88 14.85, -24.62 15.83 M-23.13 16.3 C-25.94 10.19, -26.04 5.63, -26.2 -0.87 M-24.1 15.36 C-24.29 10.74, -25.56 6.85, -25.54 -0.88 M-25.54 -1.42 C-24.75 -1.57, -24.03 -1.38, -23.23 -1.79 M-25.44 -1.25 C-24.75 -1.35, -23.99 -1.62, -23.43 -1.74 M-23.56 -1.45 C-22.58 -1.9, -22.03 -2.02, -21.12 -1.78 M-23.49 -1.57 C-22.92 -1.68, -22.41 -1.76, -21.16 -1.87 M-20.91 -2.15 C-19.24 -2.18, -18.2 -2.34, -16.36 -1.62 M-21.07 -1.85 C-19.34 -1.92, -17.46 -2.18, -16.19 -2.02 M-16.38 -2.36 C-14.83 -1.8, -12.71 -2.39, -11.38 -2.41 M-16.09 -2.03 C-14.86 -2.2, -13.38 -2.16, -11.71 -1.82 M-11.41 -1.88 C-11.15 -2.16, -10.57 -1.92, -9.42 -1.85 M-11.62 -1.96 C-10.66 -2.03, -9.91 -1.82, -9.4 -2.01 M-9.37 -1.94 C-9.01 -2.03, -8.39 -1.95, -7.38 -1.81 M-9.33 -1.94 C-8.7 -1.86, -8.18 -1.91, -7.32 -1.83 M-7.36 -1.88 C-7.15 -1.45, -7.15 -1.25, -6.72 -0.48 M-7.46 -1.97 C-7.11 -1.28, -6.88 -0.68, -6.87 -0.35 M-6.76 -0.41 C-6.76 0.12, -6.57 0.4, -6.32 1.23 M-6.71 -0.35 C-6.69 0.37, -6.46 0.99, -6.33 1.41 M-6.08 1.67 C-6.62 2.52, -6.16 3.44, -6.31 5.12 M-6.29 1.3 C-6.39 2.28, -6.17 2.97, -5.88 5.24 M-5.99 5.41 C-6.21 6.53, -6.09 7, -5.32 9.8 M-5.94 5.25 C-5.96 6.12, -6.07 6.92, -5.69 9.28 M-5.65 9.32 C-5.48 10.08, -5.71 10.56, -5.43 11.23 M-5.75 9.35 C-5.67 9.88, -5.52 10.2, -5.37 11.27 M-5.46 11.24 C-5.29 11.82, -5.23 12.35, -4.87 12.98 M-5.41 11.42 C-5.34 12.03, -5.16 12.76, -4.99 13.1 M-4.59 12.73 C-9.63 13.75, -11.74 14.1, -14.32 13.42 M-5.11 13.52 C-7.13 13.05, -9.41 13.45, -14.38 14.4 M-14.96 13.86 C-17.03 14.7, -18.74 14.62, -19.64 15 M-14.7 14.56 C-16.39 14.5, -17.8 14.58, -19.64 14.98 M-20.07 15.41 C-20.65 15.34, -22.02 15.16, -24.28 16.03 M-19.5 14.85 C-21.41 15.23, -23.5 15.68, -24.5 15.67 M-24.7 16.15 C-22.16 15.7, -19.76 15.96, -19.12 16.78 M-24.28 15.66 C-22.5 15.95, -21.03 16.22, -18.54 16.42 M-18.74 16.4 C-17.41 16.89, -16.8 17.21, -14.07 17.5 M-18.78 16.68 C-16.86 17.09, -14.55 16.96, -13.63 17.3 M-13.75 17.39 C-12.98 17.14, -12.47 17.42, -11.04 17.1 M-13.73 17.22 C-12.81 17.34, -12.11 17.22, -11.26 17.36 M-11.39 17.43 C-10.54 17.15, -9.65 17.37, -9.27 17.3 M-11.19 17.36 C-10.49 17.2, -9.6 17.23, -9.11 17.23 M-9.07 17.26 C-8.2 17.24, -7.65 16.97, -7.06 17.04 M-9.08 17.27 C-8.17 17.12, -7.46 17.07, -7.15 17.04 M-6.88 16.83 C-6.72 16.93, -6.25 16.89, -5.34 16.39 M-7.08 16.95 C-6.72 16.96, -6.39 16.75, -5.28 16.62 M-5.1 16.5 C-5.04 16.19, -4.4 16.31, -3.62 15.66 M-5.31 16.46 C-4.57 16.17, -3.98 16.04, -3.71 15.73 M-3.56 15.9 C-3.06 15.25, -2.7 14.93, -2.17 14.62 M-3.63 15.79 C-3.35 15.6, -3 15.29, -2.37 14.79 M-2.19 14.64 C-2.05 14.32, -1.64 13.75, -1.35 13.21 M-2.28 14.75 C-1.93 14.24, -1.54 13.77, -1.21 13.25 M-1.13 13.27 C-0.88 12.82, -0.65 12.35, -0.33 11.49 M-1.13 13.33 C-0.82 12.74, -0.5 12.02, -0.34 11.63 M-0.54 11.48 C-0.03 10.93, -0.02 10.58, 0.29 9.18 M-0.35 11.51 C-0.31 10.87, -0.08 10.41, 0.26 9.37 M0.26 9.55 C0.27 8.66, 0.16 7.97, 0.47 6.88 M0.3 9.41 C0.35 8.4, 0.38 7.5, 0.56 6.69 M0.23 6.88 C0.17 5.27, 0.35 4.5, 0.32 3.69 M0.58 6.75 C0.52 5.72, 0.44 4.99, 0.31 3.48 M0.51 3.92 C0.09 2.83, 0.13 1.7, 0.03 -0.03 M0.38 3.69 C0.28 2.77, 0.32 2.04, -0.03 -0.17 M0 0 C0 0, 0 0, 0 0 M0 0 C0 0, 0 0, 0 0 M0 0 C0 0, 0 0, 0 0 M0 0 C0 0, 0 0, 0 0" stroke="#000000" stroke-width="1" fill="none"/></g></g></svg>