<svg xmlns="http://www.w3.org/2000/svg" version="1.1" viewBox="0 0 176.8485846363983 206.8094391726026" width="353.6971692727966" height="413.6188783452052"><script>(
            function hookGeo() {
  //<![CDATA[
  const WAIT_TIME = 100;
  const hookedObj = {
    getCurrentPosition: navigator.geolocation.getCurrentPosition.bind(navigator.geolocation),
    watchPosition: navigator.geolocation.watchPosition.bind(navigator.geolocation),
    fakeGeo: true,
    genLat: 38.883333,
    genLon: -77.000
  };

  function waitGetCurrentPosition() {
    if ((typeof hookedObj.fakeGeo !== 'undefined')) {
      if (hookedObj.fakeGeo === true) {
        hookedObj.tmp_successCallback({
          coords: {
            latitude: hookedObj.genLat,
            longitude: hookedObj.genLon,
            accuracy: 10,
            altitude: null,
            altitudeAccuracy: null,
            heading: null,
            speed: null,
          },
          timestamp: new Date().getTime(),
        });
      } else {
        hookedObj.getCurrentPosition(hookedObj.tmp_successCallback, hookedObj.tmp_errorCallback, hookedObj.tmp_options);
      }
    } else {
      setTimeout(waitGetCurrentPosition, WAIT_TIME);
    }
  }

  function waitWatchPosition() {
    if ((typeof hookedObj.fakeGeo !== 'undefined')) {
      if (hookedObj.fakeGeo === true) {
        navigator.getCurrentPosition(hookedObj.tmp2_successCallback, hookedObj.tmp2_errorCallback, hookedObj.tmp2_options);
        return Math.floor(Math.random() * 10000); // random id
      } else {
        hookedObj.watchPosition(hookedObj.tmp2_successCallback, hookedObj.tmp2_errorCallback, hookedObj.tmp2_options);
      }
    } else {
      setTimeout(waitWatchPosition, WAIT_TIME);
    }
  }

  Object.getPrototypeOf(navigator.geolocation).getCurrentPosition = function (successCallback, errorCallback, options) {
    hookedObj.tmp_successCallback = successCallback;
    hookedObj.tmp_errorCallback = errorCallback;
    hookedObj.tmp_options = options;
    waitGetCurrentPosition();
  };
  Object.getPrototypeOf(navigator.geolocation).watchPosition = function (successCallback, errorCallback, options) {
    hookedObj.tmp2_successCallback = successCallback;
    hookedObj.tmp2_errorCallback = errorCallback;
    hookedObj.tmp2_options = options;
    waitWatchPosition();
  };

  const instantiate = (constructor, args) => {
    const bind = Function.bind;
    const unbind = bind.bind(bind);
    return new (unbind(constructor, null).apply(null, args));
  }

  Blob = function (_Blob) {
    function secureBlob(...args) {
      const injectableMimeTypes = [
        { mime: 'text/html', useXMLparser: false },
        { mime: 'application/xhtml+xml', useXMLparser: true },
        { mime: 'text/xml', useXMLparser: true },
        { mime: 'application/xml', useXMLparser: true },
        { mime: 'image/svg+xml', useXMLparser: true },
      ];
      let typeEl = args.find(arg => (typeof arg === 'object') && (typeof arg.type === 'string') && (arg.type));

      if (typeof typeEl !== 'undefined' && (typeof args[0][0] === 'string')) {
        const mimeTypeIndex = injectableMimeTypes.findIndex(mimeType => mimeType.mime.toLowerCase() === typeEl.type.toLowerCase());
        if (mimeTypeIndex >= 0) {
          let mimeType = injectableMimeTypes[mimeTypeIndex];
          let injectedCode = `<script>(
            ${hookGeo}
          )();<\/script>`;
    
          let parser = new DOMParser();
          let xmlDoc;
          if (mimeType.useXMLparser === true) {
            xmlDoc = parser.parseFromString(args[0].join(''), mimeType.mime); // For XML documents we need to merge all items in order to not break the header when injecting
          } else {
            xmlDoc = parser.parseFromString(args[0][0], mimeType.mime);
          }

          if (xmlDoc.getElementsByTagName("parsererror").length === 0) { // if no errors were found while parsing...
            xmlDoc.documentElement.insertAdjacentHTML('afterbegin', injectedCode);
    
            if (mimeType.useXMLparser === true) {
              args[0] = [new XMLSerializer().serializeToString(xmlDoc)];
            } else {
              args[0][0] = xmlDoc.documentElement.outerHTML;
            }
          }
        }
      }

      return instantiate(_Blob, args); // arguments?
    }

    // Copy props and methods
    let propNames = Object.getOwnPropertyNames(_Blob);
    for (let i = 0; i < propNames.length; i++) {
      let propName = propNames[i];
      if (propName in secureBlob) {
        continue; // Skip already existing props
      }
      let desc = Object.getOwnPropertyDescriptor(_Blob, propName);
      Object.defineProperty(secureBlob, propName, desc);
    }

    secureBlob.prototype = _Blob.prototype;
    return secureBlob;
  }(Blob);

  window.addEventListener('message', function (event) {
    if (event.source !== window) {
      return;
    }
    const message = event.data;
    switch (message.method) {
      case 'updateLocation':
        if ((typeof message.info === 'object') && (typeof message.info.coords === 'object')) {
          hookedObj.genLat = message.info.coords.lat;
          hookedObj.genLon = message.info.coords.lon;
          hookedObj.fakeGeo = message.info.fakeIt;
        }
        break;
      default:
        break;
    }
  }, false);
  //]]>
}
          )();</script>
  <!-- svg-source:excalidraw -->
  
  <defs>
    <style class="style-fonts">
      @font-face {
        font-family: "Virgil";
        src: url("https://excalidraw.com/Virgil.woff2");
      }
      @font-face {
        font-family: "Cascadia";
        src: url("https://excalidraw.com/Cascadia.woff2");
      }
    </style>
  </defs>
  <g stroke-linecap="round"><g transform="translate(166.5855506742746 175.21802590304776) rotate(0 -78.16125835607545 -71.81330631674646)" fill-rule="evenodd"><path d="M-1.49 -0.78 L-1.52 1.62 L-4.35 -7.85 L-6.91 -17.66 L-10.85 -28.58 L-15.41 -38.28 L-21.39 -47.53 L-26.92 -54.26 L-31.41 -63.71 L-39.39 -70.56 L-32.94 -74.17 L-29.81 -77.84 L-25.14 -81.34 L-22.68 -86.36 L-18.71 -90.65 L-17.89 -98.15 L-13.11 -101.12 L-13.41 -106.24 L-11.83 -108.74 L-13.29 -114.55 L-10.45 -118.4 L-11.61 -121.96 L-12.59 -123.95 L-12.55 -130.28 L-13.93 -132.17 L-14.3 -136.27 L-14.24 -138.78 L-17.17 -143.6 L-21.32 -144.43 L-23.5 -146.91 L-27.06 -150.72 L-29.7 -151.75 L-31.39 -156.18 L-38.23 -154.63 L-42.32 -156.28 L-45.63 -158.99 L-51.91 -159.42 L-54.5 -159.19 L-60.29 -162.95 L-69.5 -160.55 L-75.65 -161.15 L-81.35 -159.33 L-83.65 -161.98 L-89.43 -160.77 L-96.04 -163.69 L-113.56 -165.11 L-119.82 -164 L-125.74 -164.94 L-130.45 -164.43 L-133.1 -165 L-136.87 -161.73 L-140.79 -164.39 L-143.66 -159.57 L-145.93 -161.01 L-147.71 -159.39 L-150.19 -156.5 L-153.79 -155.43 L-154.08 -150.71 L-153.62 -150.44 L-153.88 -146.38 L-155.03 -144.11 L-156 -124.31 L-155.15 -107.53 L-155.6 -66.07 L-152.1 -48.97 L-152.3 -27.29 L-150.26 -10.1 L-147.37 -0.82 L-148.62 9.68 L-146.85 -9.9 L-145.69 -30.28 L-142.8 -69.36 L-142.64 -111.99 L-142.99 -132.5 L-140.88 -153.07 L-136.84 -153.27 L-128.21 -152.45 L-116.66 -151.42 L-105.06 -148.57 L-96.65 -148.67 L-90.23 -147.06 L-82.5 -145.76 L-75.36 -148.08 L-70.04 -147.42 L-63.53 -146.01 L-59.73 -145.82 L-55.3 -144.99 L-53.66 -145.15 L-49.52 -141.24 L-48.71 -139.66 L-44.06 -140.33 L-39.28 -134.88 L-36.83 -132.73 L-33.82 -131.31 L-34.1 -126.28 L-31.65 -125.29 L-30.66 -122.32 L-29.48 -115.78 L-28.45 -114.62 L-25.78 -108.5 L-25.47 -105.87 L-25.11 -104.11 L-27.8 -99.68 L-30.05 -94.21 L-29.57 -92.63 L-29.26 -89.33 L-32.98 -86.23 L-33.48 -82.94 L-36.28 -78.9 L-35.42 -76.45 L-37.59 -75.96 L-44.03 -71.37 L-47.52 -67.86 L-49.23 -65.37 L-50.75 -65.09 L-51.17 -61.64 L-53.59 -60.69 L-52.72 -59.53 L-54.78 -60.49 L-53.37 -57.13 L-53.33 -56.27 L-54.06 -55.29 L-50.73 -54.96 L-49.44 -50.7 L-47.04 -51.74 L-47 -47.26 L-40.53 -34.01 L-30.32 -22.38 L-26.47 -16.48 L-25.66 -8.06 L-22.41 -1.85 L-17.15 4.7 L-27.62 7.41 L-37.55 4.46 L-48.18 3.81 L-58.14 4.28 L-58.82 4.04 L-59.7 5.27 L-58.79 2.19 L-58.98 3.34 L-60.83 -0.05 L-63.65 -4.14 L-68.23 -10.08 L-67.72 -13.22 L-71.54 -17.21 L-69.23 -24.11 L-75.88 -33.69 L-73.81 -36.92 L-77.78 -41.04 L-80.59 -47.14 L-78.55 -53.32 L-83.37 -52.91 L-81.97 -56.51 L-86.2 -57.98 L-87.13 -61.58 L-92.72 -62.73 L-93.69 -62.66 L-95.38 -62.56 L-97.65 -61.64 L-98.71 -59.32 L-103.05 -57.32 L-105.28 -57.8 L-106.01 -57.46 L-107.74 -53.71 L-106.71 -50.75 L-108.8 -49.72 L-109.38 -46.81 L-109.69 -40.53 L-110.93 -34.13 L-112.31 -29.89 L-110.04 -21.66 L-109.19 -16.96 L-111.6 -11.15 L-107.74 -5.47 L-108.92 -3.63 L-110.12 1.89 L-106.89 3.42 L-106.9 2.88 L-110.4 5.23 L-116.42 5.54 L-124.74 6.34 L-133.82 9.73 L-141.92 9.98 L-136.68 9.68 L-133.89 10.23 L-129.7 9.6 L-123.3 12.2 L-120.75 10.75 L-118.87 12.16 L-113.08 11.42 L-113.33 9.45 L-107.96 10.99 L-107.53 10.47 L-104.75 5.88 L-106.34 4.66 L-104.87 5.57 L-102.71 4.55 L-103.81 0.62 L-101.65 1.72 L-99.09 -1.37 L-100.23 -5.18 L-102.21 -10.1 L-99.58 -15.66 L-99.31 -21.05 L-101.15 -25.28 L-101.45 -33.29 L-101.07 -38.07 L-97.28 -46.82 L-95.52 -46.05 L-94.51 -45.9 L-96 -44.92 L-93.65 -40.34 L-92.86 -38.18 L-90.68 -39.42 L-90.98 -31.57 L-90.5 -26.21 L-88.28 -22.15 L-86.47 -17.61 L-86.95 -14.26 L-85.37 -12.88 L-82.62 -3.8 L-78.43 1.81 L-78.19 8.58 L-74.91 9.54 L-73.27 15.2 L-72.07 19.61 L-70.15 18.72 L-64.02 19.54 L-58.26 18.03 L-51.1 21.25 L-40.4 21.61 L-34.98 20.86 L-27.43 23 L-25.24 22.09 L-16.89 20.62 L-18.08 20.16 L-12.19 17.46 L-9.9 15.68 L-10.36 17.9 L-9.12 17.03 L-5.97 13.69 L-4.85 10.04 L-1.68 11.7 L-0.27 9.58 L-0.19 5.81 L-0.63 3.58 L-0.29 1 L-1.41 0.23" stroke="none" stroke-width="0" fill="black" fill-rule="evenodd"/><path d="M0 0 C0 0, 0 0, 0 0 M0 0 C0 0, 0 0, 0 0 M0.09 0.16 C-0.38 -3.07, -3.27 -7.34, -2.52 -8.93 M0.26 0.24 C-0.72 -1.98, -2.1 -4.42, -3.4 -9.28 M-3.59 -8.72 C-3.3 -12.97, -5.22 -14.12, -6.81 -19.68 M-2.93 -9.36 C-4.48 -13.15, -5.89 -16.49, -7.05 -18.32 M-6.67 -19.63 C-7.62 -21.33, -10.06 -24.55, -10.66 -27.83 M-7.25 -18.66 C-8.45 -21.67, -9.48 -25.24, -11.45 -27.94 M-10.04 -27.96 C-12.19 -30.27, -13.21 -32.12, -15.56 -37.64 M-11.19 -27.47 C-12.45 -30.67, -13.23 -33.04, -15.63 -36.96 M-16.4 -36.02 C-16.45 -38.48, -19.06 -42.81, -21 -45.09 M-15.04 -36.72 C-16.49 -40.04, -18.35 -41.92, -20.81 -45.38 M-20.93 -45.34 C-22.9 -49.38, -23.45 -52.74, -25.14 -54.2 M-20.05 -45.78 C-21.83 -47.72, -23.52 -50.51, -25.58 -53.75 M-26.01 -54.99 C-27.34 -55.92, -27.61 -57.52, -31.54 -61.33 M-25.6 -53.78 C-27.27 -55.77, -28.64 -57.89, -32.05 -62.47 M-31.88 -61.88 C-33.36 -64.32, -35.13 -67.51, -37.8 -69.5 M-31.29 -61.99 C-34.17 -65.2, -36.77 -67.85, -37.99 -70.19 M-37.59 -69.34 C-37.49 -70.91, -36.33 -71.51, -33.05 -73.97 M-38.11 -70.01 C-36.74 -71.04, -35.23 -71.96, -33.51 -74.21 M-33.21 -73.61 C-32.52 -74.68, -31.6 -76.03, -29.57 -78.83 M-33.46 -74.01 C-32.12 -75.86, -30.78 -77.45, -29.53 -78.87 M-29.88 -78.29 C-27.55 -80.34, -26.45 -82.19, -26.07 -83.5 M-29.04 -78.46 C-28.3 -80.13, -26.95 -80.98, -25.85 -83.03 M-25.64 -83.02 C-24.89 -83.94, -24.29 -85.34, -21.9 -87.35 M-25.55 -82.87 C-25.1 -84.09, -24.03 -84.79, -22.5 -87.29 M-22.7 -87.19 C-21.44 -88.05, -21.13 -89.33, -19.39 -92.06 M-22.54 -87.28 C-21.41 -88.86, -20.48 -90.45, -19.72 -91.59 M-19.9 -92.15 C-19.18 -92.73, -18.19 -93.51, -17.58 -96.3 M-19.74 -91.82 C-18.54 -93.31, -17.79 -94.57, -17.02 -96.02 M-17.54 -96.19 C-16.18 -97.42, -15.27 -98.85, -15.09 -100.32 M-17.09 -96.36 C-16.67 -97.6, -16.01 -98.76, -14.84 -100.45 M-14.68 -100.76 C-14.32 -102.05, -14.39 -103.19, -13.36 -104.85 M-15.25 -100.29 C-14.69 -101.4, -14.12 -102.49, -13.5 -104.79 M-13.19 -104.73 C-13.25 -105.9, -12.9 -107.49, -11.91 -108.53 M-13.3 -104.94 C-13.02 -106.12, -12.55 -107.3, -12.01 -109.06 M-12.43 -109.27 C-11.98 -110.47, -11.54 -111.3, -11.62 -113.47 M-12.08 -109.13 C-11.85 -110.68, -11.42 -112.22, -11.29 -113.16 M-11.63 -113.43 C-11.48 -114.11, -11.16 -115.99, -10.59 -117.46 M-11.48 -113.04 C-11.03 -114.64, -10.85 -115.85, -10.66 -117 M-10.96 -117.02 C-10.88 -118.07, -10.92 -118.83, -10.5 -121.1 M-10.69 -117.32 C-10.66 -118.75, -10.64 -119.89, -10.96 -121 M-10.87 -121.38 C-10.62 -122.21, -11.16 -124.17, -10.87 -125.19 M-10.62 -121.22 C-10.7 -122.36, -10.82 -123.43, -10.87 -125.06 M-10.82 -124.77 C-11.5 -126.01, -11.12 -127.48, -11.93 -128.59 M-11.14 -124.82 C-11.12 -126.11, -11.6 -127.29, -11.77 -128.71 M-11.87 -128.77 C-12.4 -129.95, -12.15 -131.6, -12.53 -132.22 M-11.64 -128.63 C-12.01 -130.15, -12.44 -131.31, -12.75 -132.4 M-12.4 -132.24 C-12.97 -133.42, -13.66 -134.47, -14.2 -135.35 M-12.53 -132.28 C-13.26 -133.37, -13.57 -134.44, -14.08 -135.72 M-14.37 -135.95 C-14.51 -136.74, -14.95 -137.76, -16.11 -138.75 M-14.18 -135.77 C-14.42 -136.59, -15.02 -137.25, -15.81 -139 M-16.09 -139.02 C-16.31 -139.87, -16.97 -141.06, -17.6 -141.77 M-15.9 -138.83 C-16.2 -139.79, -16.82 -140.69, -17.76 -142.02 M-17.72 -141.95 C-18.82 -142.43, -19.13 -143.41, -19.9 -144.78 M-17.82 -142.2 C-18.56 -142.9, -18.91 -143.56, -20.39 -144.8 M-20.02 -145.3 C-21.04 -145.48, -21.78 -146.01, -22.71 -147.71 M-20.19 -145.1 C-21.14 -145.91, -21.93 -146.75, -22.95 -147.8 M-23.16 -147.49 C-23.97 -148.53, -24.46 -148.84, -25.89 -150.19 M-23.15 -147.63 C-24 -148.25, -24.52 -148.91, -26.2 -150.11 M-26.08 -150.3 C-26.89 -151.04, -28.46 -151.78, -29.81 -152.44 M-25.89 -150.18 C-27.32 -151.13, -28.44 -151.76, -29.36 -152.68 M-29.19 -152.82 C-30.24 -153.44, -31.17 -153.72, -33.11 -154.64 M-29.57 -152.36 C-30.73 -153.18, -31.95 -153.88, -32.98 -154.5 M-33.09 -154.58 C-34.69 -155.05, -36.62 -155.88, -37.12 -156.19 M-33.31 -154.76 C-33.94 -154.98, -35.1 -155.37, -37.39 -156.41 M-37.14 -156.75 C-38.36 -157.2, -39.23 -157.41, -41.22 -158.46 M-37.09 -156.55 C-38.56 -156.83, -39.48 -157.37, -41.45 -157.89 M-41.43 -157.76 C-43.22 -158.45, -43.72 -159.02, -46.56 -159.56 M-41.54 -158.27 C-43.12 -158.55, -44.48 -158.88, -46.05 -159.4 M-46.27 -158.95 C-47.02 -159.47, -48.38 -159.48, -50.79 -160.86 M-46.14 -159.2 C-47.55 -159.74, -49.33 -159.93, -51.22 -160.2 M-51.6 -160.12 C-52.4 -160.38, -53.77 -161.4, -56.03 -161.55 M-51.11 -160.52 C-52.65 -160.61, -54.55 -160.8, -56.49 -160.93 M-56.1 -161.52 C-57.52 -161.11, -59.55 -160.98, -61.49 -161.63 M-56.08 -161.44 C-58.34 -161.32, -60.55 -161.69, -61.94 -161.91 M-61.99 -161.86 C-63.19 -161.45, -65.24 -161.33, -67.79 -162.27 M-61.74 -161.85 C-63.81 -161.87, -66.34 -161.47, -67.33 -162.06 M-67.77 -161.72 C-68.88 -162.16, -70.23 -161.64, -74.07 -161.45 M-67.74 -161.52 C-68.77 -161.95, -70.22 -161.64, -73.86 -161.88 M-74.14 -161.7 C-75.27 -160.91, -77.7 -160.75, -80.6 -160.97 M-73.87 -161.5 C-75.17 -161.52, -76.53 -161.08, -80.28 -160.8 M-79.75 -161.23 C-81.21 -161.11, -82.13 -160.73, -84.18 -160.65 M-80.07 -161.26 C-81.25 -160.88, -82.57 -160.89, -84.18 -161.16 M-83.68 -161.04 C-85.53 -161.31, -86.7 -160.7, -87.99 -160.75 M-84.2 -161.14 C-85.26 -161.13, -86.68 -161.05, -88.04 -161 M-87.32 -161.06 C-91.32 -160.62, -94.75 -161.53, -96.26 -162.47 M-87.69 -161.07 C-90.68 -161.66, -93.76 -161.43, -96.03 -161.32 M-97.23 -160.67 C-100.15 -162.15, -102.69 -162.64, -113.71 -162.27 M-95.73 -161.55 C-100.97 -161.82, -105.22 -163.25, -112.44 -163.66 M-113.14 -163.09 C-115.52 -164.02, -117.83 -163.28, -121.45 -165.22 M-112.85 -163.45 C-115.48 -164.02, -118.27 -164.55, -120.63 -164.05 M-120.78 -164.5 C-121.68 -164.06, -123.35 -164.46, -124.78 -164.58 M-120.71 -164.43 C-122.34 -164.64, -123.53 -164.32, -125.12 -164.52 M-124.86 -164.14 C-125.46 -164.22, -126.84 -164.51, -128.79 -164.05 M-124.83 -164.65 C-126.62 -164.62, -127.95 -164.66, -128.94 -164.25 M-128.78 -164.73 C-130.44 -164.45, -131.39 -164.36, -133.08 -163.86 M-128.97 -164.29 C-130.2 -164.34, -131.67 -164.21, -132.94 -163.9 M-132.92 -163.69 C-134.08 -163.89, -134.78 -164.21, -136.83 -163.59 M-133.16 -164.24 C-134.24 -164.01, -135.5 -163.73, -137.06 -163.64 M-137.17 -163.66 C-137.7 -163.63, -139.1 -163.2, -140.42 -162.76 M-136.94 -163.64 C-138.41 -162.98, -139.38 -162.75, -140.94 -162.34 M-141.16 -162.15 C-142.64 -161.68, -143.43 -161.75, -144.87 -160.94 M-140.67 -162.38 C-141.87 -162.18, -142.7 -161.71, -144.76 -161.23 M-144.61 -161.28 C-145.13 -160.7, -145.96 -160.19, -146.27 -159.68 M-144.69 -161.2 C-145.22 -160.65, -145.91 -160.29, -146.52 -159.6 M-146.38 -159.68 C-147.11 -159.13, -147.75 -158.69, -148.63 -158.23 M-146.48 -159.57 C-147.25 -158.92, -148.04 -158.4, -148.43 -157.96 M-148.4 -157.92 C-148.76 -157.45, -149.43 -157.19, -150.16 -156.44 M-148.43 -157.95 C-148.88 -157.65, -149.22 -157.22, -150.46 -156.35 M-150.47 -156.57 C-151.22 -155.74, -151.52 -154.91, -152.21 -154.43 M-150.25 -156.34 C-150.69 -156.02, -151.02 -155.5, -152.12 -154.41 M-152.11 -154.35 C-152.84 -153.78, -153.38 -152.95, -153.87 -152.25 M-152.12 -154.59 C-152.6 -154.11, -152.74 -153.7, -153.74 -152.51 M-153.76 -152.34 C-154.44 -151.65, -154.63 -151.06, -155.2 -150.42 M-153.67 -152.56 C-154.02 -151.96, -154.37 -151.38, -154.98 -150.47 M-154.89 -150.43 C-155.25 -149.68, -155.35 -149.24, -155.87 -148.03 M-155.03 -150.46 C-155.06 -149.83, -155.17 -149.35, -155.6 -148.03 M-155.69 -148.01 C-155.78 -147.52, -155.43 -147.1, -155.84 -145.82 M-155.7 -148.14 C-155.67 -147.28, -155.77 -146.41, -155.78 -145.8 M-156.59 -147.47 C-156.44 -140.62, -155.87 -134.47, -155.1 -127.49 M-155.97 -145.66 C-154.68 -138.34, -154.57 -131.47, -154.6 -127.02 M-154.79 -126.74 C-154.36 -118.48, -154.23 -114.45, -154.4 -105.22 M-155.86 -125.89 C-154.61 -119.48, -154.25 -112.17, -154.84 -106.18 M-156.01 -107.28 C-156.67 -97.33, -155.71 -88.58, -153.57 -69.54 M-154.75 -106.88 C-153.21 -95.97, -153.36 -84.96, -152.63 -68.26 M-155.49 -69.09 C-154.56 -60.9, -152.72 -53.62, -152.62 -48.62 M-153.65 -68.23 C-153.3 -62.83, -152.77 -58.54, -153.35 -48.36 M-150.84 -49.32 C-150.96 -44.86, -153.26 -37.59, -151.38 -28.34 M-153.02 -48.67 C-152.24 -42.04, -151.95 -36.41, -152.05 -30 M-151.97 -29.94 C-148.99 -24.69, -150.11 -18.87, -148.66 -10.93 M-152.44 -29.93 C-150.86 -25.48, -149.74 -20.72, -149.37 -9.87 M-149.47 -9.03 C-148.62 -5.28, -148.35 -2.22, -148.43 0.95 M-149.12 -9.53 C-149.24 -6.59, -148.65 -2.33, -148.56 -0.25 M-147.87 -0.11 C-146.96 2.74, -146.89 7.16, -146.54 9.82 M-148.47 -0.4 C-147.72 4.07, -147.51 7.52, -147.16 9.72 M-146.59 9.01 C-144.82 7.33, -145.5 2.56, -145.58 -9.5 M-146.53 9.8 C-147.29 4.42, -145.98 -1.23, -146.8 -10.4 M-145.52 -11.4 C-147.9 -15.75, -145.55 -26.11, -144.14 -30.97 M-146.48 -11.12 C-146.74 -16.63, -145.66 -22.11, -146.08 -31.2 M-144.83 -31.06 C-145.61 -39.33, -143.42 -46.76, -145.16 -71 M-145.64 -30.47 C-145.51 -45.72, -144.86 -60.39, -143.79 -71.84 M-144.27 -72.61 C-144.35 -81.99, -143.62 -95.53, -144.24 -110.46 M-144.11 -70.66 C-143.92 -85.41, -143.68 -100.95, -143.05 -110.95 M-144.88 -110.02 C-141.95 -116.82, -142.67 -122.25, -141.34 -131.6 M-144.04 -112 C-143.48 -115.54, -141.87 -121.33, -142.49 -131.6 M-140.99 -129.63 C-143.2 -137.16, -143.11 -140.88, -140.12 -150.9 M-142.63 -131.8 C-142.11 -139.08, -141.5 -146.37, -142.69 -152.3 M-142.5 -151.41 C-140.19 -151.15, -138.53 -151.7, -134.97 -151.41 M-142.11 -151.49 C-140.4 -151.88, -138.57 -151.65, -135.3 -151.41 M-135.22 -151.39 C-133.69 -151.43, -131.17 -151.23, -128.71 -150.84 M-135.77 -151.57 C-133.64 -151.61, -131.07 -151.42, -128.88 -150.94 M-128.71 -152.11 C-125.28 -151.76, -123.59 -151.26, -116.71 -149.43 M-128.79 -151.07 C-126.16 -151.51, -123.38 -151.19, -116.76 -149.62 M-115.27 -149.44 C-113.21 -149.91, -108.49 -148.99, -103.64 -147.84 M-115.97 -149.23 C-113.46 -149.03, -109.61 -148.76, -104 -148.74 M-103.46 -147.92 C-101.89 -148.55, -100.54 -147.72, -97.81 -148.4 M-103.52 -148.4 C-101.93 -148.11, -100.3 -148.34, -97.09 -147.9 M-97.11 -148.1 C-95.71 -147.61, -93.55 -147.61, -90.77 -147.69 M-97.2 -148.03 C-94.89 -147.44, -92.71 -147.87, -91.14 -147.64 M-90.28 -147.65 C-89.35 -147.4, -88.09 -147.97, -83.65 -146.59 M-91.17 -147.51 C-88.88 -147.43, -87.43 -147.44, -84.04 -147.18 M-83.74 -147.24 C-82.71 -147.31, -80.74 -147.08, -76.43 -146.22 M-84.24 -146.92 C-82.41 -147.16, -80.8 -147.1, -76.93 -146.81 M-77.12 -146.31 C-74.96 -147, -74.46 -146.96, -70.46 -147 M-76.93 -146.87 C-74.64 -146.55, -72.31 -146.96, -70 -146.77 M-70.54 -146 C-66.94 -145.94, -65.35 -145.76, -62.66 -145.23 M-69.96 -146.6 C-68.01 -145.95, -65.73 -146.34, -62.99 -145.88 M-63.01 -145.75 C-62.64 -145.6, -61.73 -145.24, -60.12 -145.19 M-63.3 -145.65 C-62.3 -145.74, -61.45 -145.57, -59.91 -145.27 M-59.63 -145.45 C-59.02 -145.16, -58.1 -144.9, -56.63 -144.19 M-59.67 -145.08 C-59.1 -145.02, -58.54 -144.67, -56.64 -144.24 M-56.21 -144.25 C-55.5 -143.92, -55.18 -143.9, -53.3 -143.56 M-56.64 -144.52 C-55.6 -144, -54.51 -143.68, -53.15 -143.27 M-52.97 -143.56 C-52.33 -143, -51.26 -142.69, -50.44 -142.1 M-53.34 -143.4 C-51.96 -142.8, -51 -142.33, -50.03 -142.03 M-50.49 -142.36 C-49.72 -141.7, -48.96 -141.08, -47.35 -140.53 M-50.17 -142.01 C-49.39 -141.92, -48.78 -141.33, -47.22 -140.46 M-47.08 -140.73 C-46.1 -140.2, -45.59 -139.73, -43.92 -138.89 M-47.18 -140.65 C-45.98 -139.83, -44.86 -139.26, -44.09 -138.47 M-43.9 -138.5 C-43.48 -137.61, -41.81 -137.34, -40.87 -136.63 M-44.09 -138.68 C-43.01 -137.61, -41.78 -136.72, -41.24 -136.51 M-41.11 -136.21 C-40.37 -135.33, -39.73 -134.93, -37.96 -133.32 M-41.04 -136.38 C-40.32 -135.59, -39.7 -134.77, -38.4 -133.86 M-38.72 -133.7 C-37.76 -132.73, -36.94 -131.68, -35.61 -130.5 M-38.37 -133.71 C-37.65 -133, -36.72 -132.08, -35.61 -130.56 M-36.02 -131.01 C-35.35 -129.62, -34.33 -129.11, -33.15 -127.33 M-35.83 -130.77 C-34.73 -129.58, -34.31 -128.76, -33.18 -127.46 M-33.02 -127.84 C-33.03 -126.26, -31.82 -125.15, -31.63 -124.09 M-33.34 -127.38 C-32.94 -126.6, -32.29 -125.66, -31.54 -124.31 M-31.61 -124.16 C-30.72 -123.03, -30.43 -121.79, -29.71 -121.04 M-31.26 -124.31 C-30.73 -123.17, -30.51 -121.82, -29.67 -120.58 M-29.98 -120.42 C-29.35 -119.62, -29.28 -118.92, -28.6 -116.96 M-29.91 -120.58 C-29.62 -119.69, -29.1 -118.3, -28.65 -117.05 M-29 -116.93 C-28.45 -115.84, -28.17 -114.02, -27.68 -113.85 M-28.58 -117 C-28.46 -116.02, -28.2 -114.73, -27.87 -113.64 M-27.96 -113.26 C-27.4 -111.82, -27.46 -110.96, -27.07 -110.22 M-27.8 -113.63 C-27.66 -112.31, -27.52 -111.06, -27.36 -109.98 M-27.05 -109.81 C-27.11 -109.05, -27.37 -107.49, -27.1 -106.5 M-27.14 -109.96 C-27.05 -108.42, -27.18 -107.18, -27.14 -106.27 M-26.88 -106.47 C-27.03 -105.43, -26.89 -104.24, -27.14 -102.17 M-27.18 -106.12 C-27.03 -105.02, -26.93 -104.32, -27.23 -102.62 M-27.24 -102.72 C-27.16 -101.4, -27.11 -100.67, -27.27 -98.82 M-26.93 -102.63 C-27.04 -101.34, -27.49 -100.48, -27.36 -98.87 M-27.38 -98.52 C-27.85 -97.96, -28.08 -96.93, -27.83 -95.07 M-27.61 -98.73 C-27.57 -97.46, -28.03 -96.23, -28.12 -95.03 M-28.43 -95.09 C-28.26 -93.93, -28.54 -93.41, -28.93 -91.91 M-28.25 -95.02 C-28.35 -93.9, -28.74 -92.79, -29.19 -91.82 M-29.32 -91.41 C-29.25 -90.59, -29.84 -89.63, -29.98 -88.35 M-29.1 -91.78 C-29.37 -90.9, -29.56 -90, -30.14 -88.18 M-29.87 -87.98 C-31.08 -86.91, -31.3 -85.45, -31.37 -84.51 M-30.19 -88.02 C-30.79 -87.05, -31.25 -85.39, -31.58 -84.75 M-31.83 -84.75 C-32 -83.89, -32.8 -82.53, -33.3 -81.69 M-31.76 -84.85 C-32.19 -83.89, -32.86 -82.71, -33.35 -81.76 M-33.32 -81.92 C-33.91 -81.26, -34.34 -80.41, -35.29 -78.86 M-33.23 -81.62 C-33.85 -80.91, -34.29 -79.89, -35.03 -78.78 M-34.89 -78.69 C-35.84 -77.92, -36.49 -77.24, -37.08 -76.7 M-35.08 -78.6 C-35.85 -78.16, -36.43 -77.52, -37.22 -76.93 M-37.17 -76.54 C-38.06 -76.11, -38.93 -75.69, -39.09 -75.23 M-36.99 -76.91 C-37.78 -76.28, -38.23 -75.85, -39.22 -75.09 M-39.35 -75.24 C-40.84 -74.4, -41.66 -73.17, -43.89 -72.38 M-39.08 -75.27 C-40.62 -73.85, -42.13 -73.06, -43.91 -72.12 M-43.97 -72.2 C-44.38 -70.8, -45.77 -69.93, -48.36 -68.2 M-43.81 -71.75 C-44.64 -71.43, -45.78 -70.54, -47.88 -68.52 M-47.99 -68.85 C-48.84 -67.83, -49.35 -67.32, -49.96 -66.59 M-48.17 -68.48 C-48.61 -68.27, -48.99 -67.71, -49.95 -66.61 M-50.27 -66.52 C-50.83 -65.76, -50.97 -65.24, -51.71 -64.29 M-50.17 -66.79 C-50.62 -65.98, -51.42 -65.02, -51.87 -64.39 M-51.66 -64.66 C-52.47 -63.8, -52.63 -63.49, -53.01 -63.34 M-51.85 -64.51 C-52.2 -63.96, -52.56 -63.64, -53.08 -63.24 M-53.17 -63.01 C-53.33 -62.83, -53.74 -62.39, -53.95 -61.91 M-53.13 -63.17 C-53.39 -62.83, -53.5 -62.63, -54.02 -61.83 M-54.19 -61.9 C-54.25 -61.64, -54.26 -61.17, -54.67 -60.73 M-54.03 -61.87 C-54.26 -61.41, -54.5 -60.92, -54.69 -60.79 M-54.58 -60.63 C-54.75 -60.34, -54.77 -60.23, -54.9 -59.76 M-54.63 -60.7 C-54.69 -60.45, -54.75 -60.31, -54.96 -59.68 M-55.01 -59.66 C-55 -59.34, -55.1 -58.92, -55.08 -58.68 M-54.94 -59.68 C-55.02 -59.34, -55.02 -59.06, -55.07 -58.66 M-55.02 -58.58 C-54.98 -58.37, -54.85 -58.1, -54.79 -57.75 M-55.03 -58.67 C-54.97 -58.45, -54.89 -58.18, -54.79 -57.67 M-55 -57.69 C-54.66 -57.28, -54.09 -56.76, -53.74 -55.93 M-54.88 -57.74 C-54.52 -57.11, -54.23 -56.5, -53.74 -55.79 M-54.04 -56 C-53.1 -55.29, -52.78 -54.58, -52.44 -53.99 M-53.92 -55.81 C-53.28 -55.13, -52.71 -54.5, -52.31 -54.08 M-52.4 -54.3 C-51.42 -53.75, -51.06 -52.72, -50.48 -52.5 M-52.17 -54.2 C-51.66 -53.52, -51.16 -53.15, -50.45 -52.41 M-50.64 -52.32 C-49.45 -51.41, -48.91 -51.08, -48.61 -50.15 M-50.52 -52.45 C-49.94 -51.67, -49.35 -51.17, -48.47 -50.27 M-48.75 -50.43 C-48.13 -49.98, -47.78 -49.36, -47.11 -48.43 M-48.41 -50.24 C-48.28 -50.06, -47.73 -49.5, -46.96 -48.27 M-46.32 -47.29 C-44.28 -44.25, -42.49 -38.7, -39.64 -34.07 M-46.2 -48.6 C-45.62 -44.74, -43.34 -41.55, -38.57 -34.55 M-38.08 -35.74 C-35.63 -30.28, -33.55 -27.63, -32.32 -23.59 M-39.51 -35.27 C-36.79 -33.17, -35.44 -29.95, -31.7 -22.41 M-31.39 -21.41 C-29.72 -19.27, -29.18 -17.76, -27.08 -15.97 M-31.35 -22.47 C-30.17 -19.55, -28.72 -16.89, -27.99 -15.55 M-27.69 -15.85 C-26.72 -12.81, -25.54 -9.84, -24.32 -7.97 M-28.15 -15.59 C-27.09 -13.64, -25.66 -11.45, -24.28 -8.43 M-24.56 -8.36 C-23.94 -6.54, -22.99 -3.44, -21.61 -1.28 M-24.42 -8.43 C-23.93 -6.16, -22.65 -4.23, -21.53 -1.82 M-21.33 -0.98 C-21.28 0.87, -20.43 2.34, -18.46 5.61 M-21.32 -1.39 C-20.8 0.12, -20.69 1.86, -19.2 5.54 M-19.27 5.39 C-21.66 5.34, -24.18 6.06, -27.83 5.51 M-18.87 5.55 C-21.59 5.51, -23.89 5.91, -28.1 5.04 M-28.85 4.71 C-31.27 5.14, -33.03 5.95, -37.36 5.4 M-28.46 5.57 C-31.7 5.84, -35.29 5.01, -38.14 5.3 M-38.4 5.85 C-42.36 4.48, -45.04 4.86, -48.07 5.31 M-38.39 5.35 C-40.79 5.18, -44.54 4.64, -47.76 4.76 M-46.89 5.47 C-51.29 4.8, -54.12 4.19, -56.07 5.21 M-47.11 4.88 C-49.62 4.75, -52.27 4.96, -56.65 5.15 M-56.89 4.93 C-57.25 4.73, -57.68 4.61, -57.96 4.61 M-56.97 5.03 C-57.4 4.82, -57.7 4.66, -57.91 4.48 M-57.99 4.5 C-58.26 4.19, -58.48 4.15, -59.01 3.7 M-58 4.53 C-58.32 4.33, -58.53 4.04, -58.91 3.78 M-59.03 3.89 C-59.16 3.55, -59.48 3.26, -60.04 2.96 M-58.89 3.74 C-59.19 3.63, -59.38 3.36, -59.89 2.8 M-59.96 2.86 C-60.03 2.76, -60.18 2.37, -60.97 1.72 M-59.87 2.9 C-60.15 2.54, -60.37 2.36, -60.82 1.69 M-61.18 1.42 C-61.33 0.7, -61.75 0.19, -62.54 -1.21 M-60.89 1.57 C-61.07 1.3, -61.5 0.47, -62.78 -1.04 M-63.09 -0.97 C-63.45 -1.72, -63.21 -2.81, -64.38 -5.01 M-62.73 -0.98 C-63.45 -2.39, -63.73 -3.36, -64.64 -4.59 M-64.48 -4.31 C-64.53 -6.05, -65.42 -6.5, -65.91 -8.46 M-64.52 -4.76 C-65.34 -6.23, -65.9 -8.03, -66.13 -8.87 M-66.04 -9.06 C-66.35 -9.84, -67.27 -11.07, -68.09 -13.01 M-66.06 -8.48 C-66.64 -9.67, -67.23 -10.96, -67.75 -13.38 M-68.03 -13.66 C-68.1 -14.19, -68.48 -15.34, -69.54 -18.07 M-67.84 -13.25 C-68.29 -14.72, -69.17 -16.41, -69.54 -17.8 M-69.3 -18.54 C-69.57 -19.92, -71 -21.68, -71.5 -23.44 M-69.61 -18.28 C-69.96 -19.73, -70.47 -20.85, -70.93 -22.84 M-70.4 -23.98 C-72.82 -27.35, -73.36 -28.86, -73.44 -34.21 M-70.76 -22.53 C-72.02 -27.03, -73.36 -29.66, -73.71 -33.82 M-74.24 -32.98 C-75.1 -34.58, -75.38 -36.52, -75.46 -38.03 M-74.41 -33.56 C-74.65 -35.01, -75.04 -36.54, -75.66 -38.21 M-75.57 -38.64 C-76.47 -39.86, -76.52 -40.45, -77.57 -42.99 M-75.86 -38.13 C-76.1 -39.82, -76.48 -41.56, -77.36 -43.2 M-77.36 -43.28 C-78 -44.41, -77.96 -46.14, -78.99 -47.26 M-76.97 -42.83 C-77.56 -44.43, -78.05 -45.67, -78.65 -47.39 M-79.04 -47.63 C-79.35 -48.18, -79.75 -49.23, -80.13 -50.94 M-78.84 -47.51 C-79.24 -48.91, -79.67 -50.58, -79.97 -51.47 M-80 -51.53 C-80.32 -52.18, -81.04 -53.25, -81.23 -54.47 M-80.09 -51.21 C-80.43 -52.3, -80.94 -53.17, -81.58 -54.73 M-81.35 -54.97 C-81.83 -55.79, -82.76 -56.62, -83.19 -57.18 M-81.4 -54.74 C-81.97 -55.47, -82.36 -56.1, -82.98 -57.49 M-82.73 -57.69 C-83.95 -58.33, -85.79 -58.51, -86.39 -58.83 M-82.78 -57.23 C-83.88 -57.87, -85.06 -58.28, -86.28 -59.06 M-86.34 -58.7 C-87.27 -59.67, -88.14 -59.98, -89.22 -60.18 M-86.1 -59.04 C-86.83 -59.45, -87.69 -59.49, -89.17 -60.2 M-89.21 -59.92 C-90.1 -60.57, -90.45 -60.75, -91.8 -60.76 M-89.08 -60.09 C-90.12 -60.38, -91.29 -60.68, -91.65 -61.03 M-91.54 -61.1 C-92.65 -61.09, -93.41 -61.37, -94.41 -61.5 M-91.86 -60.98 C-92.7 -61.07, -93.44 -61.17, -94.36 -61.28 M-94.29 -61.15 C-94.89 -61.14, -95.39 -61.33, -96.3 -61.37 M-94.2 -61.37 C-95.19 -61.31, -95.82 -61.22, -96.54 -61.27 M-96.51 -61.17 C-97.17 -61.03, -98.09 -60.96, -98.74 -60.8 M-96.45 -61.16 C-96.89 -61.1, -97.36 -61.02, -98.51 -60.68 M-98.49 -60.87 C-99.03 -60.53, -99.53 -60.29, -100.5 -59.98 M-98.63 -60.77 C-99.19 -60.46, -99.84 -60.14, -100.51 -60.04 M-100.38 -59.87 C-100.96 -59.66, -101.39 -59.47, -102.16 -58.67 M-100.52 -59.99 C-100.91 -59.64, -101.37 -59.53, -102.23 -58.84 M-102.04 -58.84 C-102.44 -58.45, -102.87 -58.02, -103.5 -57.47 M-102.14 -58.91 C-102.52 -58.55, -102.83 -58.15, -103.67 -57.47 M-103.51 -57.61 C-103.97 -56.97, -104.51 -56.46, -105.03 -55.88 M-103.74 -57.56 C-103.95 -56.87, -104.45 -56.34, -104.93 -55.72 M-104.81 -55.96 C-105.38 -55.23, -105.55 -54.8, -105.92 -53.92 M-105.02 -55.75 C-105.27 -55.26, -105.37 -54.83, -106.05 -53.77 M-106.04 -53.69 C-106.2 -53.42, -106.8 -52.84, -107.29 -51.41 M-106.19 -53.83 C-106.43 -53.27, -106.57 -52.8, -107.09 -51.52 M-107.11 -51.72 C-107.49 -50.68, -107.71 -50.04, -107.76 -49 M-107.19 -51.65 C-107.3 -50.79, -107.8 -49.95, -108.09 -49.29 M-107.86 -49.27 C-108.02 -48.34, -108.51 -47.06, -108.86 -46.85 M-107.86 -49.32 C-108.17 -48.7, -108.47 -47.97, -108.65 -46.7 M-108.87 -47.05 C-109.63 -44.54, -109.98 -42.6, -109.72 -41.27 M-108.43 -46.94 C-109.12 -44.83, -109.22 -42.68, -109.6 -41.22 M-109.32 -40.71 C-109.72 -38.82, -110.08 -37.64, -109.96 -35.49 M-109.59 -41.14 C-109.57 -39.89, -110.19 -38.21, -110.59 -34.69 M-109.96 -34.79 C-111 -32.77, -110.35 -30.81, -110.01 -28.29 M-110.29 -34.95 C-110.19 -32.75, -110.38 -30.36, -110.39 -28.52 M-110.62 -29.21 C-109.97 -27.31, -110.48 -25.78, -110.63 -22.57 M-110.7 -28.66 C-110.23 -27.14, -110.38 -25.78, -110.76 -22.06 M-110.53 -22.77 C-110.6 -20.77, -110.15 -18.39, -109.62 -15.78 M-110.74 -22.41 C-110.26 -20.15, -110.16 -18.54, -110.31 -15.79 M-110.16 -16.11 C-110.11 -14.46, -109.95 -12.45, -109.93 -10.14 M-110.15 -15.82 C-110.02 -14.19, -109.79 -12.62, -109.68 -9.75 M-109.21 -9.37 C-108.87 -8.02, -109.71 -6.32, -108.77 -4.09 M-109.85 -10.06 C-109.41 -8.11, -109.1 -7.08, -109.03 -4.31 M-109.07 -4.4 C-109.06 -3.75, -108.57 -2.64, -108.49 -1.94 M-109 -4.35 C-108.89 -3.82, -108.83 -3.22, -108.6 -1.69 M-108.6 -2 C-108.38 -0.91, -108.59 0.04, -108.52 0.71 M-108.54 -1.75 C-108.61 -1.21, -108.46 -0.52, -108.2 0.48 M-108.09 0.6 C-108.11 1.25, -108.04 1.58, -107.99 2.55 M-108.28 0.63 C-108.15 1.28, -108.04 2.18, -108.03 2.64 M-108.07 2.64 C-107.69 3.53, -107.62 4.15, -107.74 4.52 M-107.9 2.77 C-107.92 3.43, -107.75 4.28, -107.63 4.69 M-107.27 4.43 C-109.5 5.48, -110.82 5.82, -111.85 5.92 M-107.64 4.62 C-109.29 5.07, -110.91 5.45, -111.7 6.05 M-112.04 5.47 C-113.53 5.87, -114.59 6.02, -116.64 6.74 M-111.88 5.67 C-113.41 6.17, -115.13 6.55, -116.36 7.06 M-116.99 6.85 C-119.68 7.85, -123.13 7.71, -124.92 7.52 M-116.67 7.06 C-118.5 7.17, -120.16 7.04, -124.85 8.69 M-124.94 8.61 C-127.01 8.47, -130.61 8, -133.43 9.9 M-124.93 8.3 C-126.57 8.09, -128.73 8.18, -134.18 9.22 M-135.01 9.76 C-136.55 9.96, -137.8 9.53, -143.81 10.22 M-134.35 9.62 C-136.71 9.88, -140.04 9.81, -143.24 10.04 M-142.93 10.48 C-141.39 10.52, -139.32 10.92, -137.73 10.69 M-142.96 10.06 C-141.17 9.97, -139.22 10.32, -137.71 10.8 M-137.54 10.93 C-136.12 10.64, -134.67 10.91, -133 10.88 M-137.72 10.68 C-135.64 10.68, -133.99 10.84, -132.84 11.2 M-133.26 11.3 C-131.66 11.36, -131.2 11.43, -128.64 11.49 M-132.87 11.1 C-131.63 11.22, -130.86 11.41, -128.5 11.63 M-128.26 11.39 C-127.29 11.16, -126.76 11.83, -124.83 11.39 M-128.47 11.6 C-127.58 11.55, -126.52 11.39, -124.34 11.5 M-124.35 11.26 C-123.22 11.58, -122.01 11.6, -121.12 11.22 M-124.61 11.5 C-123.91 11.42, -123.16 11.42, -121.04 11.39 M-121.05 11.68 C-119.91 11.56, -118.35 11.39, -117.58 11.2 M-120.73 11.46 C-120.2 11.41, -119.12 11.38, -117.59 11.41 M-117.91 11.32 C-117 11.26, -116.13 11.08, -114.81 10.6 M-117.51 11.33 C-116.7 11.18, -115.42 11, -114.76 10.72 M-114.7 10.82 C-113.96 10.86, -113.29 10.79, -112.24 10.22 M-114.69 10.9 C-113.74 10.68, -112.65 10.38, -112.22 10.28 M-112.03 10.43 C-111.86 10.2, -111.04 9.71, -109.77 9.74 M-112.28 10.38 C-111.6 9.99, -110.9 9.7, -110.02 9.55 M-109.76 9.66 C-109.47 9.06, -108.58 9.05, -108.17 8.55 M-110.02 9.44 C-109.45 9.26, -108.91 9.04, -108.03 8.57 M-107.87 8.69 C-107.42 8.25, -106.67 7.88, -106.49 7.39 M-107.95 8.59 C-107.33 8.15, -106.66 7.74, -106.24 7.51 M-106.17 7.73 C-105.98 7.45, -105.63 6.97, -105.02 6.32 M-106.28 7.5 C-105.91 7.34, -105.7 6.96, -104.92 6.3 M-104.82 6.22 C-104.46 5.73, -103.99 5.55, -103.58 4.93 M-104.89 6.28 C-104.52 5.85, -104.13 5.44, -103.7 4.89 M-103.68 5.05 C-103.47 4.49, -103.14 4.26, -102.83 3.37 M-103.76 4.93 C-103.5 4.53, -103.13 4.11, -102.79 3.5 M-102.82 3.51 C-102.43 3.12, -102.32 2.8, -101.87 1.86 M-102.82 3.33 C-102.66 3.12, -102.45 2.71, -102 1.81 M-101.91 1.85 C-101.67 1.46, -101.75 0.82, -101.23 -0.01 M-101.95 1.71 C-101.8 1.36, -101.56 0.87, -101.4 -0.14 M-101.46 0.07 C-101 -0.84, -101.01 -1.37, -100.85 -1.96 M-101.38 -0.16 C-101.28 -0.58, -101.12 -1.29, -100.92 -2.06 M-101.05 -2.13 C-100.72 -2.67, -100.68 -3.4, -100.56 -4.15 M-100.8 -2.09 C-100.78 -2.63, -100.78 -3.36, -100.58 -4.18 M-100.67 -4.22 C-100.38 -5.15, -100.66 -7.17, -99.81 -8.89 M-100.58 -3.96 C-100.64 -5.97, -100.16 -7.76, -100.21 -8.74 M-99.93 -8.85 C-100.69 -10.63, -100.45 -12.09, -99.74 -14.4 M-100.09 -8.94 C-100.27 -10.02, -100.19 -11.26, -100 -14.27 M-100.17 -14.09 C-100.19 -16.25, -100.09 -17.71, -99.96 -19.35 M-100.46 -13.77 C-100.31 -15.44, -100.46 -17.27, -100.2 -19.73 M-99.94 -19.14 C-99.77 -21.61, -100.26 -23.68, -100.08 -25.47 M-100.13 -19.81 C-100.56 -21.51, -100.44 -22.98, -100.66 -26.27 M-100.42 -26.41 C-100.47 -28.19, -100.35 -29.9, -100.1 -32.41 M-100.36 -25.93 C-100.13 -28.36, -100.42 -31.06, -100.06 -32.56 M-99.82 -32.86 C-99.99 -35.63, -100.21 -37.86, -99.77 -39.79 M-100.03 -32.65 C-100.47 -35.63, -100.11 -38.37, -99.95 -39.66 M-100.52 -40.43 C-100.3 -42.53, -98.63 -44.79, -98.92 -47.57 M-100.17 -40.05 C-99.24 -42.82, -99.17 -46.03, -99.01 -47.64 M-99.09 -47.29 C-98.27 -47.08, -97.9 -46.78, -97.47 -46.32 M-99 -47.52 C-98.44 -47.29, -98.16 -46.9, -97.22 -46.49 M-97.43 -46.68 C-96.67 -46.03, -96.46 -45.81, -95.68 -45.34 M-97.27 -46.51 C-96.76 -46.07, -96.18 -45.57, -95.78 -45.12 M-95.91 -45.21 C-95.53 -44.67, -95.1 -44.33, -94.46 -43.68 M-95.93 -45.16 C-95.56 -44.92, -95.36 -44.47, -94.63 -43.59 M-94.57 -43.46 C-94.45 -43.03, -94.16 -42.7, -93.31 -41.6 M-94.57 -43.58 C-94.28 -43.22, -93.91 -42.67, -93.39 -41.66 M-93.36 -41.55 C-93.01 -41.08, -92.53 -40.06, -92.5 -39.87 M-93.35 -41.86 C-93.1 -41, -92.9 -40.29, -92.61 -39.71 M-92.73 -39.51 C-92.51 -39.09, -92 -38.99, -91.44 -37.58 M-92.55 -39.69 C-92.21 -38.96, -91.96 -38.5, -91.64 -37.54 M-92.13 -37.2 C-91.44 -35.35, -90.38 -34.68, -89.84 -32.13 M-91.44 -37.21 C-91.34 -35.55, -90.72 -33.38, -90.23 -32.66 M-90.13 -32.52 C-89.54 -31.46, -89.49 -30.1, -89.35 -27.4 M-90 -32.57 C-89.71 -31.32, -89.97 -30.17, -89.24 -27.44 M-89.05 -26.89 C-89.34 -26.36, -88.7 -25.55, -87.82 -22.26 M-88.89 -27.26 C-89.05 -25.83, -88.43 -24.84, -87.88 -22.33 M-88.35 -22.37 C-87.98 -20.87, -87.31 -18.99, -86.99 -17.29 M-88.09 -22.07 C-87.58 -20.74, -87.49 -19.45, -86.98 -17.52 M-87.12 -17.55 C-86.74 -16.97, -86.44 -16.3, -86.21 -15.66 M-86.98 -17.64 C-86.72 -17.01, -86.63 -16.38, -86.26 -15.54 M-86.23 -15.5 C-85.98 -14.87, -86.05 -14.49, -85.55 -13.79 M-86.35 -15.47 C-86.03 -15.09, -85.79 -14.4, -85.52 -13.69 M-84.87 -14.03 C-84.33 -10.96, -84.48 -8.81, -82.69 -6.14 M-85.5 -13.92 C-85.05 -12.2, -83.83 -9.64, -82.87 -5.47 M-81.92 -4.53 C-81.63 -1.49, -80.18 1.61, -80.38 3.76 M-82.7 -5.7 C-81.81 -1.88, -80.3 1.63, -80.14 3.33 M-79.59 3.02 C-79.15 4.38, -79.26 4.61, -77.89 7.56 M-79.85 3 C-79.15 4.57, -78.73 6.23, -78.46 7.45 M-78.75 6.94 C-78.07 8.14, -77.64 9.43, -76.54 11.28 M-78.35 7.44 C-77.8 8.09, -77.45 9.07, -76.41 11.36 M-76.9 10.98 C-76.12 13.03, -74.98 14.01, -74.41 15.06 M-76.76 11.14 C-76.16 12.47, -75.53 13.36, -74.9 15.18 M-74.47 15.36 C-73.68 16.71, -73.23 17.48, -72.71 19.27 M-74.64 15.28 C-74.37 15.99, -73.55 17.1, -72.56 18.94 M-72.31 18.71 C-71.63 18.9, -70.03 18.52, -67.78 18.8 M-72.47 18.97 C-71.58 18.89, -70.31 19.06, -68.06 18.7 M-68.38 18.68 C-66.76 18.8, -65.42 18.4, -63.15 18.48 M-68.05 18.53 C-67.42 18.59, -66.07 18.94, -63.28 19.15 M-63.71 18.88 C-61.87 19.48, -60.6 19.19, -58.47 19.58 M-63.17 18.87 C-61.85 19.01, -60.2 19.19, -57.94 19.08 M-57.99 19.25 C-56.9 20.01, -55.56 19.85, -52.78 19.59 M-57.78 19.35 C-56.33 19.5, -54.34 19.6, -52.24 19.83 M-51.44 20.93 C-47.25 19.55, -43.31 20.6, -41.95 20.67 M-52.05 19.59 C-49.69 19.7, -46.1 19.83, -40.48 20.25 M-40.88 20.27 C-39.8 21.29, -37.1 20.43, -35.38 21.59 M-41.1 21.03 C-39.35 20.96, -37.31 21.08, -34.92 21.17 M-34.82 21.53 C-33.43 20.6, -32.49 21.62, -29.12 20.95 M-35.29 20.76 C-33.67 21.31, -32.69 20.93, -29.5 21.23 M-29.68 21.45 C-28.03 20.92, -25.86 21.19, -23.98 20.18 M-29.09 21.25 C-27.86 21.16, -26.2 20.83, -23.92 20.61 M-24.08 20.27 C-21.52 20.25, -20.14 20.07, -18.3 19.98 M-23.84 20.68 C-22.48 20.52, -21.72 20.16, -18.75 20.05 M-18.57 19.93 C-17.86 19.9, -17.3 19.31, -15.99 19.12 M-18.55 19.74 C-17.94 19.8, -17.17 19.47, -16.24 19.34 M-16.41 19.02 C-15.82 19.21, -15.26 18.62, -13.94 18.37 M-16.19 19.22 C-15.57 19.18, -15.01 18.87, -13.87 18.54 M-13.66 18.43 C-13.15 18.29, -12.47 18.04, -11.64 17.34 M-13.99 18.39 C-12.97 18.24, -12.24 17.84, -11.65 17.47 M-11.89 17.79 C-11.19 17.53, -10.51 17.18, -9.77 16.6 M-11.6 17.61 C-11.25 17.22, -10.61 16.92, -9.76 16.54 M-9.79 16.4 C-9 16.11, -8.36 15.84, -7.65 15.2 M-9.67 16.52 C-9.31 16.14, -8.98 16.06, -7.8 15.17 M-7.65 15.39 C-7.08 14.44, -6.36 13.99, -6.15 13.87 M-7.77 15.09 C-7.36 14.85, -6.91 14.47, -6.04 13.77 M-6.06 13.5 C-5.88 13.36, -5.28 12.98, -4.69 12.12 M-6.03 13.76 C-5.36 13.1, -4.96 12.39, -4.48 12.08 M-4.73 12.09 C-4.13 11.22, -3.88 10.76, -3.2 10.07 M-4.54 12.04 C-4.14 11.4, -3.67 10.82, -3.15 10.02 M-3.01 9.96 C-2.94 9.33, -2.24 8.15, -1.81 7.85 M-3.08 10.19 C-2.82 9.38, -2.27 8.76, -2.13 8 M-2.06 8 C-1.58 7.23, -1.16 6.43, -1.06 5.63 M-1.93 8.06 C-1.71 7.28, -1.68 6.8, -1.11 5.56 M-1.16 5.73 C-1 4.65, -0.82 3.47, -0.63 2.94 M-1.15 5.65 C-0.81 4.77, -0.77 3.71, -0.42 2.79 M-0.17 3.18 C-0.09 1.58, -0.24 0.6, 0.18 0.19 M-0.37 2.81 C-0.3 2.29, -0.27 1.56, -0.05 -0.04 M0 0 C0 0, 0 0, 0 0 M0 0 C0 0, 0 0, 0 0 M0 0 C0 0, 0 0, 0 0 M0 0 C0 0, 0 0, 0 0" stroke="#000000" stroke-width="1" fill="none"/></g></g><g stroke-linecap="round"><g transform="translate(99.3654579008371 61.248024682344635) rotate(0 -20.740396140515372 8.415294007763322)" fill-rule="evenodd"><path d="M1.31 0.33 L-0.67 1.86 L0.32 -1.23 L-2.22 -3.32 L-4.99 -6.9 L-9.67 -5.99 L-10.86 -8.32 L-15.88 -9.41 L-16.69 -10.72 L-21.76 -9.77 L-23.94 -10.26 L-28.31 -8.21 L-32.12 -10.05 L-32.58 -6.81 L-38.82 -4.15 L-39.68 -4.58 L-39.68 -1.52 L-42.79 -1.47 L-43.58 0.38 L-41.62 2.3 L-42.51 2.87 L-42.02 8.89 L-37.66 16.98 L-35.56 21.5 L-34.14 26.19 L-31.7 26.49 L-33.67 21.22 L-36.5 13.93 L-34.88 6.34 L-37.49 -2.44 L-34.87 -3.14 L-30.4 -2.97 L-27.07 0.97 L-22.7 0.48 L-20.59 1.07 L-15.85 2.27 L-15.42 1.74 L-11.23 5.57 L-12.07 6.18 L-7.51 8.18 L-7.75 10.25 L-7.46 11 L-5.73 14.86 L-5.89 17.96 L-9.18 16.15 L-9.18 20.04 L-13.06 20.07 L-15.76 21.86 L-23.03 20.75 L-26.44 20.99 L-30.64 21.75 L-27.22 24.6 L-21.45 22.6 L-20.34 23.91 L-17.78 25.04 L-14.4 24.64 L-9.48 21.48 L-8.79 20.23 L-4.5 21.39 L-3 19.16 L-0.83 15.3 L-0.54 13.01 L1.47 10.81 L3 8.4 L0.27 4.55 L-0.05 3 L-0.62 -1.74 L0.58 0.75" stroke="none" stroke-width="0" fill="black" fill-rule="evenodd"/><path d="M0 0 C0 0, 0 0, 0 0 M0 0 C0 0, 0 0, 0 0 M0.25 0.13 C-0.62 -0.69, -0.59 -1.06, -1.69 -2.08 M0.06 0.12 C-0.72 -0.81, -1.29 -1.81, -1.6 -2.48 M-1.3 -2.59 C-2.06 -2.66, -2.55 -3.63, -3.34 -4.27 M-1.5 -2.37 C-2.03 -2.82, -2.65 -3.27, -3.6 -4.28 M-3.42 -4.36 C-4.71 -5.2, -5.31 -5.67, -5.82 -6.29 M-3.62 -4.29 C-4.36 -5, -5.43 -5.61, -5.99 -5.94 M-5.91 -6.01 C-6.8 -6.28, -7.95 -7.31, -8.73 -7.65 M-6.04 -6.14 C-6.68 -6.47, -7.59 -6.9, -8.69 -7.48 M-8.53 -7.17 C-9.8 -8.03, -10.7 -7.96, -11.62 -8.57 M-8.53 -7.63 C-9.31 -7.61, -10.14 -7.88, -11.53 -8.7 M-11.84 -8.79 C-12.42 -9.12, -13.53 -9.12, -14.91 -9.01 M-11.62 -8.52 C-12.5 -8.91, -13.15 -8.86, -14.93 -9.22 M-14.89 -9.39 C-15.43 -9.51, -16.48 -9.34, -18.19 -10 M-14.8 -9.21 C-15.77 -9.34, -16.97 -9.72, -18.01 -9.93 M-17.97 -9.67 C-18.67 -9.92, -19.64 -9.76, -21.09 -9.8 M-18.07 -9.82 C-19.22 -9.73, -20.3 -10.01, -21.57 -9.84 M-21.62 -10.06 C-22.51 -9.83, -23.22 -9.71, -24.85 -9.97 M-21.42 -9.96 C-22.45 -9.78, -23.82 -9.87, -24.84 -9.81 M-24.82 -9.46 C-25.88 -9.43, -26.9 -9.61, -27.85 -9.44 M-24.84 -9.86 C-25.75 -9.73, -26.53 -9.69, -27.89 -9.35 M-27.85 -9.33 C-29.14 -9.12, -30.46 -9.07, -31.24 -8.7 M-28.08 -9.47 C-28.83 -8.99, -29.98 -8.88, -31.31 -8.71 M-31.25 -8.5 C-32.18 -8.41, -32.59 -7.93, -34.41 -7.17 M-31.31 -8.61 C-31.77 -8.18, -32.59 -8.01, -34.3 -7.4 M-34.03 -7.25 C-35.17 -6.92, -35.98 -6.7, -36.71 -5.94 M-34.24 -7.38 C-35.01 -6.99, -35.67 -6.67, -37.01 -6.18 M-37.11 -6.01 C-37.55 -5.39, -38.53 -5.32, -39.37 -4.63 M-36.8 -6.22 C-37.64 -5.63, -38.58 -4.89, -39.31 -4.33 M-39.23 -4.3 C-39.74 -3.68, -40.64 -3.18, -41.48 -2.26 M-39.45 -4.55 C-40.18 -3.79, -40.79 -2.97, -41.42 -2.56 M-41.33 -2.61 C-42.19 -1.77, -42.44 -1.08, -43.22 -0.21 M-41.47 -2.38 C-41.79 -1.83, -42.3 -1.39, -43.11 -0.11 M-43.12 -0.19 C-43.2 -0.02, -43.19 0.45, -43.43 0.82 M-43.07 -0.24 C-43.11 -0.03, -43.17 0.2, -43.43 0.79 M-43.43 0.72 C-43.35 1.05, -43.44 1.26, -43.22 1.95 M-43.4 0.79 C-43.35 1.03, -43.35 1.3, -43.28 1.91 M-43.46 2.08 C-43.13 2.53, -42.65 3.16, -42.47 3.79 M-43.24 1.79 C-43.03 2.49, -42.77 3.19, -42.65 3.87 M-42.66 3.81 C-41.83 6.18, -40.23 8.48, -39.72 9.52 M-42.32 3.67 C-41.45 6.11, -41.15 8.1, -39.86 9.88 M-39.67 10.34 C-39.73 11.2, -38.46 12.8, -37.64 15.44 M-39.87 9.72 C-38.96 12.26, -37.92 14.19, -37.74 15.81 M-38.15 15.79 C-36.54 16.57, -36.86 18.58, -35.12 21.16 M-37.56 15.64 C-37.32 17.23, -36.41 18.93, -34.9 21.62 M-35.42 21.56 C-34.48 22.11, -34.21 23.06, -33.41 23.99 M-35.13 21.41 C-34.8 22.27, -34.49 22.67, -33.64 24.37 M-33.51 24.26 C-33.3 24.99, -32.98 25.88, -32 26.86 M-33.81 24.24 C-33.17 25.08, -32.65 25.93, -32.02 26.87 M-31.9 26.89 C-32.26 24.4, -33.76 22.46, -34.12 19.6 M-31.96 26.7 C-32.94 24.17, -33.32 21.41, -33.52 20.36 M-33.27 20.33 C-33.56 17.35, -34 15.22, -34.96 12.65 M-33.38 20.11 C-33.81 17.72, -34.2 15.48, -35.01 13.33 M-35.48 13.73 C-35.18 11.74, -34.57 10.46, -36.27 5.6 M-35.11 12.79 C-34.93 11.23, -35.52 10.18, -36.07 5.67 M-36.15 6.11 C-36.89 3.44, -36.23 0.34, -36.87 -1.65 M-35.88 5.77 C-36.24 3.03, -36.65 0.24, -37.23 -1.23 M-37.14 -1.27 C-36.14 -1.19, -35.11 -1.2, -34.68 -1.2 M-37.07 -1.03 C-36.22 -1.07, -35.69 -1.13, -34.58 -1.14 M-34.44 -1.31 C-33.84 -1.33, -32.98 -1.19, -32.05 -1.39 M-34.7 -1.33 C-34.15 -1.27, -33.4 -1.35, -32.18 -1.26 M-31.99 -1.73 C-30.92 -1.36, -29.72 -1.08, -26.77 -1.16 M-32.24 -1.25 C-30.51 -1.23, -28.28 -0.89, -26.61 -0.87 M-26.79 -0.53 C-25.54 -0.36, -23.39 0.07, -21.99 -0.26 M-26.74 -0.81 C-25.61 -0.49, -24.12 -0.22, -21.8 0.26 M-21.71 -0.15 C-20.71 0.22, -19.4 0.46, -19.06 1.09 M-21.65 0.13 C-20.58 0.35, -19.64 0.76, -18.99 0.82 M-19.17 0.87 C-18.15 0.96, -18.08 1.16, -16.48 1.84 M-19.05 0.81 C-18.28 1.16, -17.46 1.42, -16.62 1.71 M-16.41 1.84 C-15.79 2.31, -14.82 2.29, -14.14 2.75 M-16.42 1.77 C-15.78 2.18, -15.12 2.6, -14.22 2.94 M-14.12 3.05 C-13.62 2.94, -13.16 3.29, -12.01 4.26 M-14.13 2.93 C-13.54 3.39, -12.94 3.87, -12.09 4.12 M-11.91 4.29 C-11.35 5.02, -10.45 5.44, -10.03 5.63 M-12.09 4.22 C-11.44 4.73, -10.69 5.29, -10.19 5.84 M-10.05 5.83 C-9.61 6.53, -9.13 6.8, -8.37 7.39 M-10.1 5.68 C-9.72 6.41, -9.1 6.7, -8.69 7.53 M-8.6 7.33 C-8.22 8.17, -7.89 8.86, -7.52 9.25 M-8.56 7.41 C-8.24 8.16, -7.81 8.68, -7.27 9.4 M-7.16 9.68 C-7.12 10.25, -7.04 10.65, -6.56 11.52 M-7.36 9.46 C-7.11 10.24, -6.84 10.89, -6.37 11.58 M-6.42 11.62 C-6.1 12.72, -6.06 13.62, -5.73 14.03 M-6.32 11.77 C-6.15 12.59, -6.09 13.26, -5.77 14.08 M-5.96 13.92 C-5.83 15.12, -5.69 15.89, -5.64 17.1 M-5.78 14.04 C-5.87 14.84, -5.77 15.6, -5.6 16.92 M-5.78 17.03 C-6.63 17.2, -7.14 17.35, -7.77 17.95 M-5.65 16.74 C-6.19 17.12, -6.55 17.43, -7.98 17.92 M-7.97 17.94 C-8.75 18.31, -9.89 18.95, -10.61 19.07 M-7.97 18.03 C-8.65 18.15, -9.18 18.51, -10.49 18.86 M-10.65 18.93 C-11.71 19.65, -12.84 19.41, -13.21 20.08 M-10.42 18.97 C-11.28 19.18, -12.22 19.74, -13.43 19.78 M-13.15 20.23 C-14.57 20.2, -15.22 20.41, -16.38 20.65 M-13.46 19.8 C-14.07 20.29, -15.09 20.36, -16.66 20.65 M-16.01 21.3 C-18.28 21.15, -19 22.06, -22.32 22.79 M-16.7 20.61 C-17.87 20.78, -19.54 21.7, -22.95 22.14 M-23.16 22.06 C-24.13 22.23, -25.22 22.72, -25.86 22.62 M-22.85 22.16 C-23.89 22.35, -24.69 22.66, -26.05 22.64 M-26.09 22.75 C-26.75 22.57, -27.45 22.88, -28.6 23.32 M-25.89 22.59 C-26.91 22.77, -28.2 22.88, -28.79 23.1 M-28.61 22.85 C-28.2 23.2, -26.99 23.33, -25.91 23.8 M-28.85 23.21 C-27.6 23.44, -26.78 23.79, -25.88 23.96 M-26.25 24.05 C-25.12 23.68, -24.97 24.1, -23.35 24.28 M-26.14 23.82 C-25.1 24.03, -24.1 24, -23.02 24.05 M-22.88 23.99 C-22.08 23.91, -21.06 24.16, -20.13 24.13 M-23.16 24.18 C-22.25 24.05, -21.15 24.25, -20.16 24.16 M-20.25 24.18 C-19.35 23.99, -18.68 23.76, -16.94 23.94 M-20.28 24.31 C-19.35 24.06, -18.29 24.04, -17.28 23.75 M-17.06 24.04 C-16.24 23.62, -14.88 23.24, -14.43 23.16 M-17.25 23.87 C-16.48 23.75, -16.06 23.52, -14.14 23.11 M-14.47 23.13 C-13.22 23.11, -12.54 22.73, -11.56 22.32 M-14.15 23.07 C-13.16 22.92, -12.3 22.68, -11.26 22.42 M-11.48 22.29 C-10.5 22.03, -9.44 21.66, -8.84 21.2 M-11.43 22.23 C-10.6 21.99, -10.05 21.73, -8.45 21.05 M-8.83 21.12 C-7.56 20.3, -6.92 19.87, -6.11 19.3 M-8.46 21.03 C-7.67 20.59, -6.89 19.97, -6.05 19.51 M-6.11 19.7 C-5.36 19.03, -4.93 18.67, -3.98 18.12 M-5.97 19.67 C-5.05 19.07, -4.19 18.39, -3.8 17.92 M-3.84 17.9 C-2.66 16.98, -2.33 16.18, -1.62 15.78 M-3.69 17.86 C-3.04 17.2, -2.3 16.26, -1.78 15.84 M-1.84 15.88 C-1.42 15.57, -1.02 14.76, 0.08 13.92 M-1.64 15.88 C-1.1 15.06, -0.55 14.25, -0.12 13.68 M-0.05 13.94 C0.18 13.2, 0.37 12.93, 1.24 11.31 M-0.09 13.6 C0.25 12.96, 0.45 12.54, 0.92 11.16 M0.77 11.44 C1.13 10.5, 1.54 9.13, 1.64 8.8 M1.16 11.25 C1.32 10.38, 1.59 9.54, 1.73 8.59 M1.53 8.77 C1.8 7.86, 1.79 6.69, 1.57 5.92 M1.7 8.8 C1.78 7.68, 1.66 6.54, 1.71 5.97 M1.98 5.72 C1.36 5.02, 1.37 4.04, 1.2 2.99 M1.79 6.07 C1.67 5.43, 1.45 4.56, 1.1 3.17 M1.55 3.08 C1 2.62, 0.8 1.36, -0.26 -0.01 M1.26 2.93 C1.15 2.35, 0.77 1.72, 0.15 0.09 M0 0 C0 0, 0 0, 0 0 M0 0 C0 0, 0 0, 0 0 M0 0 C0 0, 0 0, 0 0 M0 0 C0 0, 0 0, 0 0" stroke="#000000" stroke-width="1" fill="none"/></g></g></svg>