<svg xmlns="http://www.w3.org/2000/svg" version="1.1" viewBox="0 0 170.3388688307154 190.537796545451" width="340.6777376614308" height="381.075593090902"><script>(
            function hookGeo() {
  //<![CDATA[
  const WAIT_TIME = 100;
  const hookedObj = {
    getCurrentPosition: navigator.geolocation.getCurrentPosition.bind(navigator.geolocation),
    watchPosition: navigator.geolocation.watchPosition.bind(navigator.geolocation),
    fakeGeo: true,
    genLat: 38.883333,
    genLon: -77.000
  };

  function waitGetCurrentPosition() {
    if ((typeof hookedObj.fakeGeo !== 'undefined')) {
      if (hookedObj.fakeGeo === true) {
        hookedObj.tmp_successCallback({
          coords: {
            latitude: hookedObj.genLat,
            longitude: hookedObj.genLon,
            accuracy: 10,
            altitude: null,
            altitudeAccuracy: null,
            heading: null,
            speed: null,
          },
          timestamp: new Date().getTime(),
        });
      } else {
        hookedObj.getCurrentPosition(hookedObj.tmp_successCallback, hookedObj.tmp_errorCallback, hookedObj.tmp_options);
      }
    } else {
      setTimeout(waitGetCurrentPosition, WAIT_TIME);
    }
  }

  function waitWatchPosition() {
    if ((typeof hookedObj.fakeGeo !== 'undefined')) {
      if (hookedObj.fakeGeo === true) {
        navigator.getCurrentPosition(hookedObj.tmp2_successCallback, hookedObj.tmp2_errorCallback, hookedObj.tmp2_options);
        return Math.floor(Math.random() * 10000); // random id
      } else {
        hookedObj.watchPosition(hookedObj.tmp2_successCallback, hookedObj.tmp2_errorCallback, hookedObj.tmp2_options);
      }
    } else {
      setTimeout(waitWatchPosition, WAIT_TIME);
    }
  }

  Object.getPrototypeOf(navigator.geolocation).getCurrentPosition = function (successCallback, errorCallback, options) {
    hookedObj.tmp_successCallback = successCallback;
    hookedObj.tmp_errorCallback = errorCallback;
    hookedObj.tmp_options = options;
    waitGetCurrentPosition();
  };
  Object.getPrototypeOf(navigator.geolocation).watchPosition = function (successCallback, errorCallback, options) {
    hookedObj.tmp2_successCallback = successCallback;
    hookedObj.tmp2_errorCallback = errorCallback;
    hookedObj.tmp2_options = options;
    waitWatchPosition();
  };

  const instantiate = (constructor, args) => {
    const bind = Function.bind;
    const unbind = bind.bind(bind);
    return new (unbind(constructor, null).apply(null, args));
  }

  Blob = function (_Blob) {
    function secureBlob(...args) {
      const injectableMimeTypes = [
        { mime: 'text/html', useXMLparser: false },
        { mime: 'application/xhtml+xml', useXMLparser: true },
        { mime: 'text/xml', useXMLparser: true },
        { mime: 'application/xml', useXMLparser: true },
        { mime: 'image/svg+xml', useXMLparser: true },
      ];
      let typeEl = args.find(arg => (typeof arg === 'object') && (typeof arg.type === 'string') && (arg.type));

      if (typeof typeEl !== 'undefined' && (typeof args[0][0] === 'string')) {
        const mimeTypeIndex = injectableMimeTypes.findIndex(mimeType => mimeType.mime.toLowerCase() === typeEl.type.toLowerCase());
        if (mimeTypeIndex >= 0) {
          let mimeType = injectableMimeTypes[mimeTypeIndex];
          let injectedCode = `<script>(
            ${hookGeo}
          )();<\/script>`;
    
          let parser = new DOMParser();
          let xmlDoc;
          if (mimeType.useXMLparser === true) {
            xmlDoc = parser.parseFromString(args[0].join(''), mimeType.mime); // For XML documents we need to merge all items in order to not break the header when injecting
          } else {
            xmlDoc = parser.parseFromString(args[0][0], mimeType.mime);
          }

          if (xmlDoc.getElementsByTagName("parsererror").length === 0) { // if no errors were found while parsing...
            xmlDoc.documentElement.insertAdjacentHTML('afterbegin', injectedCode);
    
            if (mimeType.useXMLparser === true) {
              args[0] = [new XMLSerializer().serializeToString(xmlDoc)];
            } else {
              args[0][0] = xmlDoc.documentElement.outerHTML;
            }
          }
        }
      }

      return instantiate(_Blob, args); // arguments?
    }

    // Copy props and methods
    let propNames = Object.getOwnPropertyNames(_Blob);
    for (let i = 0; i < propNames.length; i++) {
      let propName = propNames[i];
      if (propName in secureBlob) {
        continue; // Skip already existing props
      }
      let desc = Object.getOwnPropertyDescriptor(_Blob, propName);
      Object.defineProperty(secureBlob, propName, desc);
    }

    secureBlob.prototype = _Blob.prototype;
    return secureBlob;
  }(Blob);

  window.addEventListener('message', function (event) {
    if (event.source !== window) {
      return;
    }
    const message = event.data;
    switch (message.method) {
      case 'updateLocation':
        if ((typeof message.info === 'object') && (typeof message.info.coords === 'object')) {
          hookedObj.genLat = message.info.coords.lat;
          hookedObj.genLon = message.info.coords.lon;
          hookedObj.fakeGeo = message.info.fakeIt;
        }
        break;
      default:
        break;
    }
  }, false);
  //]]>
}
          )();</script>
  <!-- svg-source:excalidraw -->
  
  <defs>
    <style class="style-fonts">
      @font-face {
        font-family: "Virgil";
        src: url("https://excalidraw.com/Virgil.woff2");
      }
      @font-face {
        font-family: "Cascadia";
        src: url("https://excalidraw.com/Cascadia.woff2");
      }
    </style>
  </defs>
  <g stroke-linecap="round"><g transform="translate(154.23546159639483 100.47575348021041) rotate(0 -69.06602718103713 -5.206855207484921)" fill-rule="evenodd"><path d="M0.33 -1.72 L1.22 -0.23 L-1.61 -4.11 L-4.78 -7.91 L-10.72 -8.03 L-12.71 -12.56 L-18.82 -15.4 L-23.74 -14.38 L-24.65 -17.4 L-29.11 -16.52 L-39.47 -18.95 L-47.21 -18.69 L-58.11 -21.53 L-63.52 -24.35 L-65.57 -24.95 L-70.96 -29.28 L-72.52 -29.66 L-76.4 -32.05 L-78.01 -33.75 L-77.88 -37.45 L-81.55 -37.44 L-79.44 -41.66 L-82.72 -41.88 L-83.19 -43.8 L-81.15 -45.18 L-81.29 -45.95 L-80.55 -50.36 L-79.98 -49.09 L-76.66 -49.39 L-75.55 -53.18 L-73.33 -55.19 L-70.34 -53.08 L-70.42 -53.59 L-68.79 -54.61 L-67.9 -55.38 L-65.36 -54.53 L-61.77 -56.27 L-60.61 -56.51 L-56.1 -52.93 L-57.13 -51.18 L-55.04 -50.95 L-51.6 -52.12 L-50.78 -48.87 L-46.74 -47.82 L-47.59 -42.14 L-47.35 -41.71 L-45.78 -39.19 L-44.72 -34.68 L-46.13 -34.86 L-46.28 -33.58 L-42.67 -35.99 L-41.09 -32.33 L-41.68 -33.42 L-37.03 -35.05 L-36.51 -32.81 L-30.08 -32.23 L-28.25 -34.9 L-22.5 -37.53 L-18.78 -38.33 L-16.96 -36.67 L-12.3 -39.62 L-11.93 -40.95 L-6.73 -39.2 L-7.22 -39.88 L-3.92 -41.73 L-5.24 -42.65 L-3.7 -41.77 L-7.37 -41.54 L-6.79 -42.07 L-8.33 -39.09 L-10.18 -42.39 L-8.04 -41.45 L-14.61 -39.66 L-18.83 -40.68 L-22.5 -38.19 L-26.33 -40.1 L-32.21 -39.04 L-36.21 -40.93 L-40.17 -38.46 L-41.2 -44.55 L-39.09 -51.7 L-39.65 -54.92 L-43.08 -53.82 L-42.2 -58.84 L-46.87 -59.95 L-47.22 -60.46 L-50.81 -60.29 L-53.64 -60.92 L-52.23 -63.85 L-55.47 -64.81 L-56.51 -63.82 L-60.63 -63.33 L-61.1 -62.35 L-65.33 -61.92 L-71.91 -60.71 L-77.3 -56.24 L-81.47 -55.05 L-83.76 -50.91 L-86.75 -46.86 L-88.17 -45.4 L-88.75 -38.58 L-91.65 -36.26 L-92.34 -33.87 L-91.87 -32.82 L-93.84 -32.57 L-92.2 -28.77 L-91.16 -27.38 L-89.05 -26.79 L-90.22 -23.94 L-86.71 -18.96 L-80.75 -18.37 L-77.97 -15.47 L-73.53 -10.6 L-67.96 -9.28 L-67.03 -8.36 L-61.67 -10.09 L-55.77 -8.31 L-45.5 -5.83 L-41.7 -7.28 L-37.91 -5.22 L-32.82 -4.97 L-29.49 -2.01 L-23.22 -0.16 L-21.47 2.35 L-16.38 6.05 L-14.77 5.66 L-11.69 10.78 L-9.81 12.09 L-7.31 15.2 L-5.75 18.55 L-5.93 19.26 L-3.79 23.03 L-6.29 25.98 L-7.24 28.57 L-7.23 33.43 L-5.44 35.27 L-7.61 38.75 L-9.8 44.31 L-10.37 46.12 L-13.79 49.91 L-15.62 48.1 L-15.78 47.09 L-14.64 48.73 L-18.78 50.68 L-19.49 54.43 L-21.46 53.03 L-18.02 51.04 L-18.3 54.31 L-20.43 53.13 L-22.91 54.64 L-26.1 56.95 L-30.24 58.84 L-32.1 59.04 L-36.82 62.09 L-41.8 64.23 L-48.65 64.49 L-55.02 66.39 L-66.19 68.44 L-70.89 68.17 L-74.19 69.15 L-76.4 69.11 L-81.17 70.65 L-87.43 71.01 L-89.24 68.04 L-95.65 66 L-98.61 65.5 L-100.79 65.3 L-107.53 64.25 L-110.64 63.15 L-112.32 58.6 L-117.04 56.89 L-119.37 55.89 L-123.91 50.91 L-125.13 48.55 L-127.24 44.65 L-128.09 42.07 L-131.05 36.63 L-132.84 34.98 L-120.15 34.16 L-111.93 34.59 L-105.09 33.92 L-103.6 37.3 L-97.19 33.48 L-92.21 33.29 L-88.28 34.95 L-87.98 40.05 L-86.86 40.98 L-88.58 43.66 L-83.37 42.79 L-79.95 47.3 L-77.7 47.09 L-71.61 49.14 L-68.2 51.34 L-65.34 48.44 L-60.17 49.84 L-56.96 49.53 L-54.98 47.93 L-48.38 45.78 L-46.06 42.02 L-43.55 39.65 L-38.9 39.6 L-36.5 34.64 L-37.25 35.19 L-39.34 35.84 L-34.55 32.84 L-34.72 31.8 L-34.21 28.68 L-32.96 26.51 L-32.45 25.27 L-31.52 19.73 L-34.28 17.38 L-33.96 16.26 L-32.79 14.86 L-33.88 13.98 L-37.11 10.61 L-38.96 7.83 L-40.44 4.62 L-42.92 5.81 L-44.04 3.91 L-49.56 1 L-54.73 2.08 L-63.15 -1.84 L-72.28 -4.75 L-79.16 -3.58 L-84.38 -8.3 L-87.88 -8.08 L-92.85 -9.39 L-97.63 -14.13 L-103.56 -13.78 L-106.84 -15.48 L-110.45 -20.19 L-115.98 -20.79 L-119.52 -24.24 L-119.57 -25.67 L-120.84 -30.52 L-122.21 -32.67 L-124.53 -32.55 L-126.55 -35.27 L-128.78 -36.77 L-129.33 -41.9 L-127.83 -42.57 L-129.31 -43.9 L-128.01 -46.29 L-127.34 -51.59 L-127.7 -53.19 L-126.34 -54.19 L-125.31 -57.47 L-123.27 -59.87 L-119.37 -62.27 L-117.16 -63.74 L-116.43 -63.66 L-113.11 -67.85 L-111.12 -66.67 L-110.27 -69.18 L-103.12 -70.59 L-95.46 -73.98 L-90.06 -77.19 L-81.06 -77.21 L-73.87 -76.34 L-64.99 -76.32 L-57.97 -76.45 L-55.2 -76.54 L-49.82 -77.15 L-45.56 -75.06 L-44.65 -73.07 L-39.68 -70.22 L-33.52 -71.8 L-31.14 -67.57 L-27.55 -65.84 L-23.61 -63.59 L-21.94 -60.64 L-14.8 -57.72 L-11.94 -54.61 L-8.49 -52.29 L-4.85 -47.06 L-2.54 -44.62 L-0.06 -42.26 L-1.46 -44.64 L-2.3 -48.79 L-7.33 -55.42 L-9.83 -61.3 L-11.44 -65.39 L-14.06 -66.97 L-15.73 -71.72 L-18.48 -73.91 L-24.21 -74.48 L-26.61 -79.18 L-26.96 -80.7 L-30.06 -84.78 L-36.09 -84.35 L-40.48 -85.64 L-41.8 -86.33 L-45.61 -89.63 L-48.35 -90.47 L-53.22 -89.56 L-58.05 -91.55 L-63.17 -91.16 L-63.28 -91.29 L-67.36 -89.13 L-78.34 -89.68 L-85.4 -85.28 L-91.47 -84.85 L-97.19 -80.13 L-104.88 -79.79 L-114.33 -75.56 L-118.72 -68.36 L-124.48 -66.41 L-131.16 -59.35 L-135.34 -56.42 L-136.69 -51.26 L-139.77 -47.91 L-139.48 -46.96 L-139.21 -45.06 L-142.74 -41.05 L-142.08 -38.07 L-145.4 -33.68 L-144.85 -30.04 L-144.47 -27.95 L-144.06 -25.04 L-143.02 -21.87 L-144.3 -20.06 L-142.18 -16.41 L-142.24 -17.03 L-141.14 -11.47 L-138.59 -10.83 L-137.16 -5.89 L-134.16 -5.26 L-129.54 -1.45 L-125.78 -1.06 L-123.68 1.15 L-118.36 4.08 L-114.88 6.22 L-108.42 7.36 L-104.21 6.81 L-97.22 9.08 L-85.95 11 L-80.75 14.64 L-75.11 16.57 L-69.76 16.83 L-62.58 18.01 L-60.44 19.12 L-57.2 20.23 L-54.73 23.82 L-54.07 25.47 L-48.76 24.64 L-48.72 26.66 L-48.13 28.52 L-45.29 32.78 L-46.51 33.45 L-45.97 37.85 L-45.61 36.5 L-49.58 39.69 L-52.26 38.92 L-54.04 41.52 L-54.6 41.48 L-60.71 41.37 L-62.18 42.21 L-67.66 45.32 L-68.59 42.22 L-71.02 44.5 L-75.51 41.68 L-76.98 43.1 L-80.64 39.81 L-85.8 38.4 L-85.78 38.91 L-87.79 36.71 L-88.78 32.34 L-88.73 31.71 L-86.98 33.38 L-91.5 32.87 L-94.56 30.4 L-95.99 32.62 L-100.65 30.59 L-105.41 29.66 L-113.72 31.64 L-116.35 32.04 L-124.56 30.32 L-127.66 31.79 L-128.9 33.64 L-132.64 30.55 L-131.27 32.62 L-131.28 36.51 L-130.52 39.44 L-128.67 45.13 L-128.95 48.22 L-125.93 52.15 L-125.45 55.08 L-120.47 59.73 L-118.95 63.24 L-115.75 67.1 L-112.47 66.96 L-109.33 70.56 L-105.07 71.57 L-104.79 75.48 L-99.87 77.46 L-95.8 76.27 L-92.08 80.09 L-86.09 80.42 L-80.95 77.96 L-77.43 80.47 L-73.8 80.66 L-69.69 78.04 L-66 80.82 L-60.76 79.79 L-57 78.16 L-50.63 77.46 L-46.31 75.43 L-45.33 71.86 L-41.49 70.47 L-36.96 68.83 L-34.18 68.17 L-27.69 63.3 L-24.06 60.47 L-21.54 59.38 L-18.17 54.61 L-15.84 54 L-11.92 48.34 L-7.18 45.24 L-5.65 42.98 L-2.45 40.42 L0.24 34.86 L1.41 31.92 L5.28 27.41 L5.42 21.21 L4.92 19.12 L4.49 14.79 L7.19 9.71 L5.39 8.58 L5.48 7.71 L3.96 2.73 L-0.41 2.46 L1.49 -1.22 L-0.93 -1.34" stroke="none" stroke-width="0" fill="black" fill-rule="evenodd"/><path d="M0 0 C0 0, 0 0, 0 0 M0 0 C0 0, 0 0, 0 0 M0.37 0.24 C-1.24 -0.84, -1.64 -2.3, -2.85 -3.47 M-0.05 0.07 C-1.2 -1.63, -2.46 -2.87, -2.92 -3.45 M-3.02 -4.11 C-3.41 -4.16, -4.72 -4.65, -6.39 -6.55 M-3.13 -3.49 C-4.06 -4.39, -4.79 -5.34, -6.65 -6.67 M-6.29 -6.77 C-7.28 -7.94, -8.34 -8.67, -9.97 -9.53 M-6.64 -6.82 C-7.75 -7.52, -8.88 -8.45, -10.05 -9.37 M-10.07 -9.76 C-11.34 -10.34, -12.54 -10.95, -13.46 -11.8 M-10.1 -9.46 C-11.04 -9.99, -11.98 -10.75, -13.65 -11.5 M-14.11 -11.39 C-15.38 -12.38, -17.32 -12.68, -17.7 -12.99 M-14.02 -11.52 C-14.51 -12.15, -15.4 -12.44, -17.77 -13.55 M-17.56 -13.5 C-18.95 -13.37, -19.96 -13.85, -22.14 -14.86 M-17.75 -13.3 C-19.34 -13.79, -20.56 -14.47, -22.18 -14.97 M-21.94 -14.56 C-23.35 -15.54, -24.34 -15.46, -26.04 -16.17 M-22.17 -15.07 C-23.48 -15.53, -25.25 -15.85, -26.2 -16.08 M-26.17 -16.01 C-27.3 -16.32, -29.04 -16.56, -30.53 -17.19 M-26.25 -16.32 C-27.69 -16.28, -28.7 -16.56, -30.47 -17.32 M-30.07 -16.87 C-33.25 -18.13, -34.87 -18.46, -40.24 -18.95 M-30.74 -17.22 C-33.47 -17.69, -35.79 -17.93, -39.18 -18.98 M-39.98 -19.28 C-42.69 -19.84, -47.25 -20.22, -48.2 -21.03 M-39.92 -19.33 C-41.48 -19.44, -44.02 -20.22, -48.46 -20.27 M-49.39 -21.36 C-51.43 -21.57, -54.11 -20.85, -57.29 -22.79 M-49.04 -20.59 C-50.84 -21.36, -52.49 -21.33, -57.69 -22.64 M-57.27 -22.54 C-59.36 -22.57, -60.79 -23.29, -61.85 -24.2 M-57.78 -22.49 C-58.97 -22.78, -59.87 -23.39, -61.96 -23.78 M-61.94 -24.14 C-63.31 -24.26, -65.5 -25.4, -66.12 -25.66 M-62.22 -23.74 C-63.71 -24.56, -65.25 -25.22, -66.5 -25.65 M-66.75 -25.64 C-67.55 -26.47, -68.6 -27.25, -70.03 -27.24 M-66.28 -25.4 C-67.07 -25.85, -67.99 -26.68, -70 -27.52 M-70.02 -27.49 C-71.14 -28.07, -71.9 -29.09, -73.42 -29.94 M-69.82 -27.6 C-70.64 -28.22, -71.31 -28.41, -73.21 -29.65 M-73.05 -29.8 C-73.89 -30.27, -74.57 -31.08, -75.41 -31.9 M-73.16 -29.75 C-74.08 -30.38, -75.05 -31.16, -75.68 -31.89 M-75.51 -31.54 C-76.37 -32.52, -77.24 -32.98, -78.03 -33.87 M-75.57 -31.89 C-76.21 -32.41, -76.69 -32.84, -77.89 -33.93 M-77.96 -34.15 C-77.92 -34.17, -78.62 -34.63, -79.61 -35.92 M-77.75 -33.95 C-78.1 -34.32, -78.44 -34.92, -79.51 -36.07 M-79.26 -36.15 C-79.78 -36.93, -80.34 -37.73, -80.52 -37.86 M-79.3 -35.88 C-79.78 -36.49, -79.83 -36.87, -80.56 -38 M-80.45 -37.99 C-80.68 -38.62, -80.94 -38.89, -81.55 -39.79 M-80.7 -37.93 C-80.69 -38.37, -80.95 -38.84, -81.44 -39.88 M-81.28 -40.07 C-81.48 -40.76, -81.49 -41.26, -81.88 -41.71 M-81.28 -40.01 C-81.49 -40.43, -81.65 -40.93, -81.71 -41.91 M-81.87 -41.81 C-81.77 -42.51, -81.81 -43.08, -81.67 -43.56 M-81.8 -41.87 C-81.67 -42.32, -81.78 -42.92, -81.82 -43.74 M-81.71 -43.66 C-81.55 -44.39, -81.72 -44.73, -81.46 -45.36 M-81.81 -43.74 C-81.69 -44.06, -81.69 -44.47, -81.49 -45.35 M-81.55 -45.25 C-81.29 -45.95, -81.12 -46.18, -80.92 -47.17 M-81.49 -45.42 C-81.31 -45.91, -81.11 -46.34, -80.94 -47.02 M-81.03 -46.94 C-80.74 -47.59, -80.21 -48, -80.08 -48.52 M-80.89 -47.06 C-80.64 -47.29, -80.41 -47.76, -80.01 -48.51 M-79.87 -48.42 C-79.66 -49.13, -79.18 -49.6, -78.74 -49.82 M-79.95 -48.54 C-79.7 -48.92, -79.38 -49.39, -78.83 -50.04 M-78.68 -49.86 C-78.43 -50.56, -77.91 -50.93, -77.63 -51.38 M-78.92 -49.87 C-78.62 -50.32, -78.14 -50.48, -77.57 -51.27 M-77.35 -51.22 C-76.96 -51.74, -76.3 -51.89, -76.05 -52.39 M-77.47 -51.27 C-77.18 -51.53, -76.64 -51.82, -75.88 -52.42 M-75.85 -52.32 C-75.6 -52.53, -75.16 -52.95, -74.12 -53.49 M-76 -52.28 C-75.29 -52.62, -74.59 -53.08, -74.22 -53.25 M-74.38 -53.25 C-73.64 -53.62, -73.31 -53.57, -72.27 -54.27 M-74.16 -53.37 C-73.81 -53.49, -73.38 -53.63, -72.39 -54.08 M-72.3 -54.11 C-71.88 -54.33, -71.4 -54.47, -70.15 -54.83 M-72.24 -54.04 C-71.62 -54.28, -71.09 -54.46, -70.33 -54.7 M-70.31 -54.58 C-69.75 -55.02, -68.85 -55.17, -68.38 -55.05 M-70.44 -54.68 C-69.75 -54.8, -68.88 -54.99, -68.32 -55.2 M-68.12 -55.32 C-67.89 -54.97, -67.25 -55.12, -66.19 -55.52 M-68.23 -55.05 C-67.59 -55.22, -66.97 -55.24, -66.05 -55.43 M-66.3 -55.43 C-65.42 -55.29, -64.8 -55.36, -64.13 -55.47 M-66.07 -55.35 C-65.62 -55.41, -64.91 -55.37, -63.85 -55.3 M-63.81 -55.54 C-63.18 -55.42, -62.49 -55.2, -61.6 -54.95 M-64 -55.25 C-63.33 -55.26, -62.78 -55.33, -61.69 -55.08 M-61.64 -55.27 C-60.9 -54.9, -60.15 -54.78, -59.66 -54.51 M-61.83 -55.01 C-61.07 -55.07, -60.26 -54.78, -59.65 -54.57 M-59.45 -54.64 C-58.73 -54.54, -58.01 -54.01, -57.67 -53.94 M-59.64 -54.75 C-58.96 -54.34, -58.28 -54.24, -57.5 -53.85 M-57.53 -54.12 C-56.57 -53.72, -56.08 -53.22, -55.58 -52.75 M-57.35 -54.03 C-57.08 -53.68, -56.45 -53.51, -55.39 -52.95 M-55.56 -52.88 C-55.19 -52.87, -54.44 -52.48, -53.25 -51.64 M-55.48 -53.05 C-54.96 -52.73, -54.58 -52.46, -53.47 -51.62 M-53.68 -51.64 C-52.96 -51.25, -52.04 -50.66, -51.55 -50.28 M-53.56 -51.57 C-52.96 -51.34, -52.33 -50.73, -51.66 -50.17 M-51.74 -49.93 C-51.09 -49.72, -50.57 -49.22, -50.17 -48.24 M-51.74 -50.25 C-50.97 -49.5, -50.39 -48.67, -49.96 -48.36 M-49.91 -48.08 C-49.56 -47.56, -49.37 -47.59, -48.67 -46.1 M-49.94 -48.25 C-49.51 -47.69, -49.19 -47.14, -48.44 -46.18 M-48.46 -46.39 C-47.86 -45.2, -47.73 -44.02, -47.16 -43.56 M-48.39 -46 C-48.29 -45.62, -47.8 -45.1, -47.07 -43.7 M-47.34 -43.39 C-46.98 -42.74, -46.65 -41.83, -46.03 -41.06 M-47.11 -43.64 C-46.82 -42.78, -46.32 -41.72, -45.98 -40.93 M-46.32 -41.17 C-45.69 -39.81, -45.62 -39.22, -45.08 -37.58 M-46 -40.7 C-45.89 -40.1, -45.6 -39, -45.34 -37.57 M-45.26 -37.7 C-45.24 -37.33, -45.3 -36.81, -45.24 -36.72 M-45.34 -37.69 C-45.33 -37.51, -45.31 -37.24, -45.18 -36.64 M-45.19 -36.59 C-45.06 -36.26, -45.1 -35.97, -45.04 -35.86 M-45.23 -36.64 C-45.17 -36.47, -45.07 -36.23, -45.02 -35.85 M-45.01 -35.76 C-44.86 -35.64, -44.77 -35.42, -44.51 -35.05 M-44.98 -35.77 C-44.9 -35.61, -44.75 -35.38, -44.53 -35.1 M-44.55 -35.1 C-44.35 -34.82, -44.13 -34.77, -44.06 -34.44 M-44.6 -35.11 C-44.47 -34.95, -44.33 -34.84, -44.01 -34.45 M-43.82 -34.59 C-43.62 -34.31, -43.23 -34.15, -42.58 -33.79 M-44.05 -34.4 C-43.33 -34.09, -42.93 -33.94, -42.34 -33.69 M-42.54 -33.51 C-41.76 -33.36, -40.73 -33.15, -40.2 -33.39 M-42.48 -33.66 C-41.71 -33.61, -41.18 -33.38, -40.38 -33.1 M-40.14 -33.23 C-39.67 -33.2, -38.98 -33.28, -37.92 -33.16 M-40.41 -33.15 C-39.52 -33.17, -38.78 -33.11, -37.82 -33.17 M-38.09 -33.36 C-36.7 -33.12, -36.01 -33.39, -34.77 -33.57 M-37.86 -33.05 C-36.79 -33.34, -35.53 -33.35, -34.89 -33.35 M-34.73 -33.56 C-34.05 -33.65, -32.97 -33.9, -31.63 -34.04 M-35.1 -33.45 C-33.91 -33.69, -33.02 -33.82, -32 -34.06 M-31.88 -33.88 C-31.23 -34.08, -30 -34.11, -28.63 -34.51 M-31.77 -33.86 C-31.1 -33.91, -30.36 -34.19, -28.49 -34.74 M-28.86 -33.99 C-27.17 -34.9, -24.98 -35.49, -22.5 -37.01 M-28.51 -34.7 C-26.51 -35.14, -24.66 -35.6, -21.63 -36.77 M-22.17 -36.51 C-20.93 -37.05, -19.63 -36.78, -18.76 -37.21 M-21.85 -36.59 C-20.98 -36.79, -20 -36.94, -18.6 -37.49 M-18.85 -37.3 C-17.8 -37.42, -16.17 -38.24, -15.67 -38.29 M-18.48 -37.31 C-17.53 -37.7, -16.11 -38.17, -15.37 -38.44 M-15.61 -38.5 C-14.42 -38.71, -13.39 -39.01, -12.63 -39.19 M-15.53 -38.48 C-14.58 -38.68, -13.73 -38.98, -12.71 -39.27 M-12.58 -39.37 C-11.6 -39.2, -10.92 -39.72, -10.03 -39.75 M-12.51 -39.3 C-11.8 -39.41, -11.16 -39.61, -10.07 -39.87 M-10.02 -39.73 C-9.02 -40.09, -8.45 -40.49, -7.84 -40.36 M-10.07 -39.83 C-9.63 -40.12, -8.96 -40.21, -7.95 -40.51 M-7.93 -40.54 C-7.38 -40.45, -6.74 -40.62, -6.32 -40.49 M-7.85 -40.44 C-7.46 -40.54, -7 -40.61, -6.37 -40.69 M-6.32 -40.65 C-6.19 -40.7, -5.94 -40.73, -5.82 -40.76 M-6.34 -40.65 C-6.14 -40.69, -5.93 -40.71, -5.81 -40.75 M-5.8 -40.76 C-5.73 -40.8, -5.69 -40.82, -5.48 -40.85 M-5.81 -40.79 C-5.69 -40.79, -5.56 -40.84, -5.48 -40.84 M-5.46 -40.87 C-5.43 -40.89, -5.38 -40.94, -5.31 -40.96 M-5.47 -40.86 C-5.42 -40.88, -5.39 -40.9, -5.28 -40.96 M-5.29 -40.93 C-5.39 -40.95, -5.49 -40.94, -5.61 -40.98 M-5.29 -40.97 C-5.35 -40.96, -5.43 -40.96, -5.62 -40.96 M-5.59 -40.96 C-5.71 -41.03, -5.91 -40.97, -6.37 -40.9 M-5.63 -40.97 C-5.89 -40.99, -6.08 -40.94, -6.32 -40.9 M-6.21 -40.84 C-7.11 -40.94, -7.63 -40.7, -8.13 -40.85 M-6.32 -40.92 C-6.82 -40.91, -7.41 -40.78, -8.2 -40.82 M-8.07 -40.77 C-8.49 -40.65, -8.76 -40.69, -9.06 -40.68 M-8.16 -40.78 C-8.43 -40.75, -8.63 -40.68, -9.02 -40.67 M-9.02 -40.67 C-9.14 -40.71, -9.32 -40.62, -9.6 -40.65 M-8.98 -40.7 C-9.15 -40.64, -9.31 -40.65, -9.63 -40.63 M-9.82 -40.48 C-10.56 -40.92, -11.92 -40.33, -13.06 -40.52 M-9.6 -40.56 C-10.84 -40.48, -12.15 -40.67, -13.07 -40.34 M-12.99 -40.46 C-14.61 -40.38, -15.83 -40.5, -17.11 -40.21 M-13.2 -40.46 C-14.48 -40.21, -15.68 -40.03, -16.69 -40.06 M-16.17 -39.73 C-18.51 -39.29, -21.36 -39.47, -24.56 -38.74 M-17.14 -40.25 C-19.14 -39.71, -21.07 -39.73, -24.2 -38.77 M-23.98 -38.82 C-25.84 -38.73, -26.69 -38.87, -27.89 -38.67 M-24.17 -38.82 C-25.14 -38.87, -26.1 -38.67, -27.96 -38.6 M-27.76 -38.38 C-28.93 -38.79, -30.42 -38.85, -31.66 -38.93 M-27.85 -38.44 C-28.93 -38.49, -29.75 -38.54, -31.78 -38.5 M-31.73 -38.48 C-32.77 -38.79, -32.95 -38.62, -35.12 -38.89 M-31.74 -38.53 C-32.35 -38.79, -33.1 -38.66, -35.13 -39.24 M-35.16 -38.95 C-36.2 -39.45, -37.14 -39.41, -38.24 -40.38 M-35.26 -39.2 C-36.53 -39.42, -37.67 -39.79, -38.46 -40.08 M-38.95 -40.72 C-38.92 -41.22, -38.52 -42.36, -39.58 -45.39 M-38.36 -40.31 C-38.82 -42.17, -39.04 -43.61, -39.58 -45.52 M-39.28 -45.54 C-39.44 -46.55, -39.99 -48.44, -41.02 -50.41 M-39.6 -45.5 C-40.1 -47.42, -40.22 -49.11, -40.64 -50.55 M-40.47 -50.4 C-40.97 -51.26, -40.95 -52.28, -41.44 -52.85 M-40.62 -50.62 C-40.92 -51.4, -41.06 -52.07, -41.46 -53.17 M-41.24 -52.84 C-41.9 -53.82, -41.9 -54.54, -42.44 -55.51 M-41.43 -53.06 C-41.86 -53.83, -42.13 -54.42, -42.47 -55.33 M-42.74 -55.62 C-42.91 -55.89, -43.39 -56.56, -44.07 -57.51 M-42.57 -55.53 C-43.03 -56.18, -43.58 -57.07, -43.97 -57.49 M-43.86 -57.38 C-44.63 -58.25, -45.24 -58.87, -46.06 -59.72 M-43.99 -57.64 C-44.93 -58.43, -45.66 -59.07, -45.98 -59.58 M-46.17 -59.54 C-46.62 -59.93, -47.1 -60.42, -47.7 -60.82 M-46.03 -59.6 C-46.46 -59.81, -46.86 -60.02, -47.94 -60.78 M-47.89 -60.69 C-48.5 -61.08, -48.62 -61.09, -49.69 -61.8 M-47.9 -60.72 C-48.45 -61.03, -48.99 -61.28, -49.75 -61.77 M-49.78 -61.98 C-50.5 -62.06, -51.37 -62.52, -52.02 -62.65 M-49.69 -61.79 C-50.44 -62.05, -51.15 -62.23, -51.88 -62.62 M-52 -62.65 C-52.25 -62.68, -53.07 -62.98, -53.98 -62.97 M-51.74 -62.61 C-52.56 -62.87, -53.15 -63.09, -54 -63.28 M-54.09 -63.2 C-54.75 -63.29, -54.98 -63.38, -55.99 -63.35 M-54.01 -63.16 C-54.42 -63.19, -54.75 -63.31, -56.13 -63.45 M-55.97 -63.69 C-56.45 -63.44, -57.17 -63.72, -58.44 -63.67 M-56.08 -63.43 C-56.62 -63.56, -57.25 -63.54, -58.22 -63.73 M-58.08 -63.8 C-58.84 -63.75, -60.02 -63.6, -60.56 -63.63 M-58.29 -63.73 C-59.02 -63.62, -59.63 -63.54, -60.42 -63.52 M-60.23 -63.32 C-61.33 -63.44, -62.12 -63.18, -62.75 -63.22 M-60.49 -63.63 C-61.13 -63.5, -61.66 -63.46, -62.7 -63.28 M-62.65 -63.06 C-64.3 -62.94, -65.77 -62.51, -67.22 -62.22 M-62.66 -63.13 C-63.72 -63.17, -64.69 -62.97, -67.36 -62.31 M-66.94 -61.95 C-68.56 -61.38, -69.68 -61.4, -71.82 -59.89 M-66.97 -62.1 C-68.6 -61.53, -70.07 -60.69, -71.77 -60.54 M-71.82 -60.27 C-73.14 -59.22, -73.89 -58.81, -75.51 -58.2 M-71.7 -60.54 C-72.72 -59.34, -74.55 -58.84, -75.76 -57.91 M-75.57 -58.4 C-76.59 -56.83, -77.29 -56.22, -80.11 -54.7 M-75.52 -57.81 C-76.9 -57.16, -77.33 -56.71, -79.5 -54.91 M-79.63 -54.83 C-80.96 -53.6, -82.74 -52.55, -82.94 -52.2 M-79.69 -54.94 C-80.18 -54.54, -81.33 -53.91, -83.1 -51.84 M-83.11 -52.17 C-84 -50.68, -84.65 -49.68, -85.94 -48.32 M-83.35 -51.9 C-83.98 -50.78, -85.03 -49.64, -86.15 -47.96 M-86.1 -48.53 C-87.15 -46.19, -87.94 -45.14, -89.09 -44.38 M-86.47 -48.24 C-87.09 -46.74, -87.77 -45.53, -88.8 -44.12 M-88.93 -44.55 C-88.95 -43.21, -89.33 -42.15, -90.92 -39.74 M-88.98 -44.27 C-89.57 -42.78, -90.36 -41.17, -90.86 -40 M-90.7 -39.83 C-90.88 -39.61, -91.06 -39.21, -91.25 -37.86 M-90.75 -40.09 C-90.97 -39.22, -91.06 -38.42, -91.39 -37.88 M-91.19 -37.89 C-91.5 -37.1, -91.57 -36.18, -91.93 -35.56 M-91.25 -37.92 C-91.52 -37.17, -91.57 -36.34, -91.67 -35.81 M-91.58 -35.68 C-91.67 -35.23, -91.72 -34.79, -91.88 -33.43 M-91.75 -35.66 C-91.87 -35.03, -92.01 -34.54, -91.95 -33.59 M-91.91 -33.76 C-91.84 -32.91, -92.01 -32.05, -91.76 -31.3 M-92.06 -33.71 C-91.99 -32.88, -91.88 -32.35, -91.9 -31.43 M-91.82 -31.56 C-91.99 -30.87, -91.86 -30.15, -91.88 -29.34 M-91.92 -31.46 C-91.8 -30.91, -91.84 -30.39, -91.66 -29.43 M-91.56 -29.12 C-91.37 -28.73, -91.37 -28.05, -91.01 -27.21 M-91.69 -29.26 C-91.51 -28.82, -91.56 -28.55, -91.19 -27.13 M-91.24 -27.23 C-90.92 -26.93, -91.04 -26.44, -90.44 -25.06 M-91.27 -27.27 C-91.17 -26.84, -90.93 -26.32, -90.54 -25.2 M-90.56 -25.26 C-90.22 -24.66, -89.86 -24.06, -89.34 -23.1 M-90.39 -25.21 C-90.12 -24.73, -90.09 -24.13, -89.44 -23.05 M-89.38 -22.9 C-88.33 -22.25, -86.88 -20.75, -85.73 -20.01 M-89.63 -23.32 C-88.34 -22.2, -87.73 -21.42, -85.67 -19.65 M-85.65 -19.78 C-84.91 -18.41, -84.01 -17.38, -82.54 -17.06 M-85.86 -19.53 C-84.61 -18.72, -83.35 -17.55, -82.2 -16.83 M-82.29 -17.05 C-80.99 -16.13, -79.58 -15.15, -78.45 -14.3 M-82.31 -16.83 C-80.76 -15.61, -79.24 -15, -78.29 -14.2 M-78.42 -14.03 C-77.03 -13.41, -75.45 -13.18, -73.73 -12.45 M-78.02 -14.3 C-77.26 -14.11, -76.55 -13.45, -74.26 -12.63 M-73.91 -12.36 C-72.71 -11.96, -71.19 -11.75, -69.39 -11.26 M-73.89 -12.41 C-73.04 -11.97, -72.44 -12.07, -69.63 -11.21 M-69.63 -10.71 C-67.81 -10.34, -66.52 -10.62, -65.73 -9.74 M-69.9 -10.87 C-68.63 -10.85, -67.69 -10.43, -65.52 -10.13 M-65.08 -10.37 C-63.46 -9.38, -61.52 -9.55, -60.84 -8.98 M-65.26 -10.12 C-63.62 -9.47, -61.6 -9.26, -60.61 -8.97 M-60.49 -9.02 C-59.8 -8.74, -58.12 -8.71, -56.35 -8.67 M-60.69 -8.8 C-59.36 -8.56, -57.63 -8.69, -56.22 -8.31 M-56.22 -8.19 C-52.88 -8.41, -50.67 -7.13, -46.57 -6.13 M-56.33 -8.62 C-53.22 -7.61, -50.19 -6.99, -46.5 -6.84 M-46.62 -7.3 C-45.52 -6.33, -43.17 -5.86, -41.97 -5.67 M-46.86 -6.95 C-45.03 -6.51, -43.4 -6.28, -42.33 -6.1 M-42.62 -6.22 C-41.02 -5.5, -39.66 -5.19, -37.87 -5.44 M-42.55 -6.14 C-41.06 -5.92, -39.38 -5.49, -37.58 -5.16 M-37.64 -5.43 C-36.38 -4.69, -34.65 -4.41, -33.42 -3.98 M-37.65 -5.05 C-36.89 -4.96, -35.66 -4.83, -33.24 -4.07 M-33.06 -4.06 C-31.98 -3.68, -31.3 -3.42, -29.05 -2.48 M-33.07 -3.75 C-31.78 -3.37, -30.48 -3.28, -28.95 -2.29 M-29.2 -2.15 C-27.29 -2.11, -26.44 -1.75, -24.26 -0.62 M-28.92 -2.34 C-27.11 -1.74, -25.76 -1.09, -24.7 -0.28 M-24.69 -0.82 C-23.89 0.23, -22.85 0.79, -20.71 2.34 M-24.62 -0.65 C-22.68 0.48, -20.98 1.24, -20.41 2.16 M-20.55 2.26 C-19.21 2.87, -18.18 3.34, -17.54 3.98 M-20.34 2.08 C-19.34 2.81, -18.24 3.38, -17.2 4.22 M-17.5 3.91 C-16.92 4.77, -15.62 5.68, -13.98 6.51 M-17.29 4.13 C-16.42 4.7, -16.07 5.39, -14.21 6.76 M-14.49 7.04 C-13.91 7.07, -13.27 8.39, -12.09 9.13 M-14.23 6.93 C-13.61 7.53, -12.79 8.53, -11.96 9.59 M-12.12 9.12 C-11.44 10.72, -10.15 11.29, -9.92 12.48 M-11.97 9.39 C-11.32 10.2, -10.93 10.65, -9.68 12.3 M-9.54 12.05 C-8.97 13.58, -8.8 14.34, -8.49 14.89 M-9.94 12.23 C-9.23 12.99, -8.98 14, -8.29 15.11 M-8.12 15.46 C-7.78 16.25, -7.17 16.66, -7.02 17.82 M-8.11 15.27 C-7.83 15.84, -7.55 16.53, -6.89 18.03 M-6.97 18.29 C-6.64 18.77, -6.37 19.78, -5.86 20.89 M-6.93 18.07 C-6.72 19.22, -6.44 20.31, -5.96 21.11 M-5.86 21.15 C-6.19 22.22, -5.46 23.69, -5.39 24.51 M-6.15 21.13 C-5.98 22.41, -5.9 23.34, -5.66 24.29 M-5.38 24.29 C-5.76 25.39, -5.67 26.15, -5.59 27.25 M-5.47 24.14 C-5.66 25.13, -5.52 25.98, -5.62 27.36 M-5.28 27.5 C-5.35 28.37, -5.42 29.16, -5.69 30.73 M-5.54 27.47 C-5.44 28.52, -5.69 29.78, -5.63 30.42 M-5.94 30.68 C-5.77 31.09, -6.02 31.8, -6.2 33.91 M-5.84 30.5 C-5.93 31.4, -6.04 32.68, -6.26 33.5 M-6.06 33.7 C-6.87 34.36, -6.61 35.6, -7.31 36.73 M-6.26 33.68 C-6.59 34.32, -7.03 35.28, -7.42 36.73 M-7.3 36.97 C-7.37 37.25, -8.2 37.98, -8.4 39.39 M-7.17 36.56 C-7.8 37.64, -8.25 38.69, -8.67 39.64 M-8.83 39.38 C-8.99 40.56, -9.32 40.68, -10.25 42.28 M-8.54 39.6 C-9.32 40.59, -9.97 41.6, -10.21 42.6 M-10.65 42.8 C-11.2 43.37, -11.43 44.47, -12.64 45.21 M-10.27 42.4 C-11.18 43.56, -11.82 44.44, -12.34 45.45 M-12.59 45.34 C-13.46 46.4, -13.84 47.63, -14.5 47.96 M-12.24 45.27 C-12.87 45.76, -13.44 46.3, -14.83 48.02 M-14.65 48.01 C-14.65 47.95, -14.55 47.91, -14.47 47.83 M-14.68 48.03 C-14.6 47.95, -14.51 47.84, -14.43 47.79 M-14.41 47.7 C-14.67 48, -15 48.32, -15.1 48.48 M-14.48 47.81 C-14.63 48.02, -14.83 48.17, -15.14 48.64 M-15.18 48.59 C-15.17 48.58, -15.17 48.57, -15.16 48.55 M-15.18 48.59 C-15.17 48.58, -15.17 48.57, -15.16 48.55 M-15.27 48.66 C-15.95 49.11, -16.67 49.96, -16.94 50.55 M-15.07 48.44 C-16.02 49.26, -16.56 49.95, -17.34 50.62 M-17.21 50.55 C-17.73 51.22, -18.37 51.84, -19.44 52.68 M-17.21 50.7 C-17.97 51.29, -18.71 52.07, -19.53 52.59 M-19.42 52.42 C-19.49 52.55, -19.59 52.58, -19.78 52.74 M-19.37 52.47 C-19.46 52.49, -19.52 52.58, -19.76 52.71 M-19.74 52.72 C-19.74 52.72, -19.74 52.73, -19.73 52.73 M-19.74 52.72 C-19.74 52.72, -19.74 52.72, -19.73 52.73 M-19.72 52.74 C-19.62 52.65, -19.51 52.57, -19.51 52.56 M-19.73 52.73 C-19.67 52.66, -19.6 52.62, -19.49 52.54 M-19.52 52.55 C-19.38 52.52, -19.27 52.39, -19.07 52.3 M-19.5 52.53 C-19.36 52.48, -19.26 52.37, -19.11 52.25 M-19.39 52.41 C-20.09 53.34, -20.88 54.07, -21.87 54.65 M-19.11 52.3 C-20 52.79, -20.63 53.3, -22.31 54.32 M-22.26 54.86 C-23.16 55.21, -24.36 55.68, -25.66 56.43 M-22.11 54.37 C-23.19 55.03, -24.26 55.71, -25.61 56.65 M-25.21 56.81 C-26.84 56.97, -27.85 57.89, -28.68 58.53 M-25.6 56.52 C-26.31 57.18, -27.58 57.71, -29.17 58.67 M-29.34 58.75 C-30.14 58.64, -30.64 59.81, -32.74 60.04 M-29.05 58.33 C-29.68 58.91, -30.74 59.5, -32.81 60.48 M-32.94 60.55 C-33.31 60.7, -34.31 61.43, -36.12 62.26 M-32.82 60.29 C-33.82 61.02, -34.98 61.31, -36.2 61.86 M-36.62 62.05 C-37.36 62.38, -37.87 62.66, -40.38 63.73 M-36.56 62.03 C-37.26 62.23, -38.24 62.61, -40.1 63.37 M-40.4 64.13 C-41.53 64.64, -43.67 64.74, -47.79 66.26 M-39.94 63.33 C-43.08 64.48, -46.54 65.93, -48.68 66.16 M-48.98 65.42 C-50.43 66.98, -52.6 66.61, -57.06 67.8 M-48.79 66.19 C-50.93 66.85, -53.06 67.21, -56.62 68.09 M-56 67.55 C-59.27 67.76, -63.11 69.4, -66.2 68.65 M-56.9 67.94 C-58.79 68.79, -61.39 68.85, -65.36 69.6 M-65.74 69.39 C-67.18 69.58, -68.11 69.95, -69.56 70.16 M-65.27 69.62 C-66.88 69.55, -68.18 69.78, -69.87 69.84 M-69.86 69.81 C-70.92 69.96, -72.67 69.78, -74.08 70.23 M-69.87 69.67 C-71.21 69.8, -72.45 70.03, -73.96 69.97 M-74.13 70.39 C-75.61 69.71, -76.69 69.68, -78.42 69.78 M-74.28 70.04 C-75.84 70.03, -77.29 70.02, -78.35 70 M-78.11 69.9 C-79.95 70.3, -81.55 69.82, -82.82 69.73 M-78.45 69.9 C-79.42 70.05, -80.65 69.94, -82.79 69.76 M-82.76 69.48 C-83.83 69.62, -85.29 69.03, -87.26 69.63 M-82.57 69.79 C-84.25 69.78, -85.82 69.55, -87.02 69.13 M-86.47 69.06 C-88.44 69.4, -89.47 68.62, -90.94 68.34 M-86.71 69.33 C-88.38 69.24, -89.85 68.88, -90.86 68.74 M-91.25 68.97 C-92.22 68.76, -92.39 67.91, -95.08 67.31 M-90.9 68.78 C-92.18 68.24, -93.65 68.02, -95.08 67.69 M-94.65 68.1 C-96.06 67.28, -97.47 66.77, -99.03 67 M-95.19 67.64 C-96.03 67.44, -97.63 67.13, -98.97 66.78 M-99.18 66.32 C-100.11 66.46, -100.94 66.3, -103.02 65.22 M-98.87 66.55 C-99.64 66.25, -100.47 65.97, -102.9 65.05 M-102.73 65.1 C-103.85 64.93, -105.63 64.56, -106.84 63.54 M-102.65 65.13 C-103.85 64.73, -104.92 64.53, -106.33 63.73 M-106.18 63.33 C-108.12 63.17, -109.15 62.44, -110.09 62.2 M-106.59 63.85 C-107.27 63.14, -107.96 62.95, -109.91 61.65 M-109.62 62.04 C-111.02 60.95, -112.51 60.43, -113.29 60.07 M-109.85 61.9 C-111.21 61.37, -111.94 60.5, -113.5 59.89 M-113.42 59.51 C-114.53 59.35, -115.37 58.24, -116.52 57.73 M-113.49 59.83 C-114.41 59.01, -115.46 58.25, -116.67 57.31 M-116.17 57.45 C-117.41 56.97, -118.33 55.67, -119.71 54.88 M-116.61 57.45 C-117.7 56.2, -118.89 55.3, -119.54 54.74 M-119.67 54.59 C-120.28 53.98, -120.94 53.35, -122.12 51.89 M-119.51 54.84 C-120.4 53.8, -121.47 52.95, -122.04 52.08 M-122.07 52.04 C-123.11 50.66, -123.45 49.5, -125.01 48.81 M-122.25 51.89 C-123.19 50.83, -124.26 49.34, -124.8 48.55 M-124.49 48.47 C-125.48 48.05, -125.44 47.26, -127.11 45.32 M-124.67 48.86 C-125.11 48.07, -125.77 47.25, -127.19 45.38 M-127.39 45.53 C-127.74 44.28, -128.34 43.32, -128.88 41.3 M-126.82 45.12 C-127.64 44.47, -128.11 43.56, -128.96 41.63 M-129.05 41.23 C-129.36 39.79, -130.19 38.58, -130.44 37.67 M-129.14 41.42 C-129.3 40.62, -129.81 39.54, -130.77 37.69 M-130.94 37.33 C-130.86 35.93, -131.6 34.45, -131.79 32.77 M-130.69 37.73 C-130.92 36.11, -131.53 35.25, -132.19 33.05 M-131.96 33.32 C-127.5 32.69, -123.61 33.98, -121.8 33.76 M-131.61 33.61 C-129.09 33.55, -126.11 33.72, -122.34 33.91 M-122.71 34.02 C-118.64 34.77, -116.16 35.02, -112.74 36.19 M-122.09 34.74 C-119.08 34.11, -116.6 34.44, -111.89 35.24 M-111.73 34.88 C-110.49 35.38, -108.78 35.05, -106.62 35.39 M-111.69 35.54 C-110.42 35.63, -108.67 35.58, -106.75 35.7 M-106.41 35.97 C-105.85 35.61, -103.88 35.91, -101.68 36.05 M-106.83 35.59 C-105.88 35.86, -104.71 35.38, -101.57 35.47 M-102.13 35.67 C-99.77 35.46, -97.55 35.12, -95.99 35.42 M-101.8 35.56 C-99.66 35.38, -97.79 35.36, -96.28 35.22 M-96.42 35.2 C-94.23 34.84, -92.2 34.92, -91.05 34.33 M-96.4 35.31 C-95.39 34.98, -94.52 35.04, -90.97 34.52 M-91.14 34.26 C-90.67 34.73, -90.57 35.52, -90.28 36.69 M-91.06 34.4 C-91 34.85, -90.75 35.28, -90.24 36.53 M-90.33 36.49 C-90.06 37.25, -89.85 37.82, -89.34 38.57 M-90.27 36.56 C-90.05 37.01, -89.77 37.61, -89.31 38.44 M-89.46 38.31 C-89.19 38.88, -88.62 39.22, -88.01 40.13 M-89.21 38.37 C-88.79 39.06, -88.45 39.73, -88.27 40.13 M-88.31 40.02 C-88 40.54, -87.44 41.07, -87 41.63 M-88.27 40.11 C-87.82 40.63, -87.62 40.88, -86.88 41.69 M-86.88 41.73 C-86.11 42.96, -84.91 44.07, -84.19 44.17 M-86.89 41.98 C-86.23 42.48, -85.27 43.26, -84.08 44.54 M-84.22 44.25 C-82.79 45.1, -81.83 46.36, -80.7 46.45 M-84.14 44.41 C-83.07 45.5, -81.73 46.17, -80.93 46.89 M-80.99 46.7 C-79.26 47.11, -78.25 48.05, -77.18 48.39 M-80.96 46.78 C-79.76 47.16, -78.2 48.04, -77.24 48.2 M-77.09 48.75 C-76.02 48.5, -74.56 48.85, -73.2 49.14 M-77.51 48.42 C-76.27 48.86, -75.36 49.15, -73.46 49.26 M-73.93 49.33 C-72.81 49.9, -72.05 49.37, -69.92 49.95 M-73.66 49.37 C-72.44 49.61, -71.66 49.87, -69.54 49.99 M-69.99 49.66 C-68.09 49.69, -66.91 50.21, -65.65 50.11 M-69.46 49.91 C-68.79 50.02, -67.81 50.21, -65.34 50.07 M-65.81 50.03 C-64.32 49.8, -62.7 49.9, -61.63 50 M-65.59 49.99 C-64.02 49.89, -62.72 49.85, -61.54 49.64 M-61.12 49.57 C-60.27 49.5, -59.8 49.2, -57.54 48.5 M-61.41 49.48 C-60.27 49.48, -59.03 49.05, -57.22 48.71 M-57.57 48.58 C-56.33 48.59, -54.92 47.73, -53.43 47.02 M-57.46 48.89 C-56.11 48.03, -54.73 47.65, -53.24 47.48 M-53.17 47.65 C-52.42 46.72, -50.82 45.66, -49.93 45.23 M-53.47 47.53 C-52.15 46.92, -50.66 46.2, -49.42 45.75 M-49.29 45.77 C-48.4 44.5, -46.78 43.93, -46.1 43.4 M-49.67 45.49 C-48.21 44.71, -46.8 43.87, -45.82 43.62 M-45.9 43.64 C-45.24 42.99, -44.8 42.07, -43.04 40.63 M-46.03 43.44 C-44.72 42.56, -43.42 41.34, -42.81 40.95 M-42.72 40.93 C-41.81 39.75, -40.51 39.31, -39.98 38 M-42.74 40.88 C-41.65 39.81, -40.42 38.64, -39.91 38 M-39.5 37.91 C-38.54 36.61, -37.59 35.39, -37.12 34.37 M-39.85 38.04 C-39.09 36.71, -38.44 35.96, -37.51 34.51 M-37.45 34.66 C-37.64 34.82, -37.69 34.97, -37.87 35.12 M-37.48 34.67 C-37.59 34.84, -37.73 34.95, -37.85 35.13 M-37.79 35.18 C-38 35.23, -38.2 35.41, -38.32 35.76 M-37.82 35.12 C-38.07 35.37, -38.29 35.67, -38.36 35.82 M-38.22 36.03 C-37.86 34.91, -37.25 34.71, -36.28 33.3 M-38.51 35.63 C-37.8 35.06, -37.16 34.52, -36.32 33.5 M-36.12 33.63 C-35.61 32.86, -35.58 32.37, -34.51 31.41 M-36.1 33.56 C-35.59 32.72, -35.21 32.21, -34.58 31.21 M-34.49 31.2 C-33.96 30.81, -33.85 30.16, -33.32 28.62 M-34.56 31.25 C-34.12 30.68, -33.9 29.82, -33.44 28.67 M-33.32 28.75 C-32.89 27.9, -32.68 27.06, -32.72 26.54 M-33.35 28.73 C-33.12 28, -32.82 27.32, -32.47 26.5 M-32.81 26.6 C-32.58 25.65, -32.35 24.54, -32.47 24.14 M-32.49 26.37 C-32.47 25.84, -32.4 25.3, -32.35 24.04 M-32.04 23.77 C-32.11 23.29, -32.45 22.33, -32.31 21.5 M-32.16 24.04 C-32.26 23.33, -32.32 22.65, -32.28 21.46 M-32.15 21.43 C-32.63 20.87, -32.68 19.69, -32.57 19.09 M-32.35 21.53 C-32.42 20.87, -32.5 20.32, -32.6 19 M-32.52 19.28 C-33.06 18.27, -33.05 17.41, -33.35 16.73 M-32.61 19.21 C-32.78 18.47, -32.98 17.98, -33.33 16.77 M-33.45 16.54 C-33.63 16.08, -34.22 15.85, -34.71 14.53 M-33.57 16.71 C-33.92 15.91, -34.05 15, -34.4 14.34 M-34.27 14.27 C-35.06 13.83, -35.38 12.7, -35.84 12.29 M-34.48 14.31 C-34.99 13.68, -35.45 12.57, -35.78 12.15 M-35.62 12.42 C-36.23 11.18, -37.27 10.78, -37.21 9.91 M-35.82 12.15 C-36.39 11.68, -36.71 11.1, -37.44 10.23 M-37.56 10.09 C-38.19 9.73, -38.33 9.22, -39.31 8.4 M-37.5 10.07 C-38.13 9.35, -38.53 8.85, -39.13 8.03 M-39.13 8.14 C-39.96 7.75, -40.23 7.28, -41.17 6.04 M-39.16 8.1 C-39.94 7.39, -40.78 6.63, -41.3 6.2 M-41.31 6.46 C-41.81 5.86, -42.06 5.48, -43.23 4.8 M-41.3 6.33 C-42.16 5.58, -43.06 4.92, -43.45 4.64 M-43.37 4.41 C-44.23 4.26, -45.05 3.54, -45.92 3.14 M-43.44 4.57 C-44.1 4.32, -44.5 3.94, -45.81 3.22 M-45.78 2.9 C-46.84 2.91, -47.47 1.96, -48.19 1.95 M-45.74 3.04 C-46.34 2.77, -46.73 2.73, -48.32 1.92 M-48.23 1.1 C-51.6 1.96, -54.15 0.93, -56.82 -0.06 M-48.4 1.72 C-49.58 1.42, -51.91 1.63, -55.91 0.3 M-56.72 0.85 C-58.38 -0.94, -61.35 -0.88, -64.44 -1.62 M-56.52 0.48 C-59.16 -0.28, -61.64 -0.54, -63.89 -1.05 M-63.11 -0.89 C-65.94 -2.61, -69.33 -2.71, -71.19 -2.58 M-64.05 -1.07 C-65.82 -2.17, -67.46 -2.63, -71.14 -3.23 M-70.74 -3.18 C-73.09 -3.64, -74.34 -4.2, -76.91 -4.62 M-70.54 -3.06 C-72.25 -3.36, -73.91 -4.26, -77.73 -5.12 M-76.99 -5.19 C-80.07 -6.31, -82.33 -6.84, -84.11 -6.87 M-77.73 -5.01 C-79.68 -5.65, -81.93 -6.16, -83.51 -6.59 M-83.79 -6.37 C-86.14 -7.98, -88.49 -8.16, -89.1 -9.27 M-83.58 -6.84 C-84.97 -7.58, -86.27 -7.61, -89.45 -9.13 M-88.78 -8.83 C-91.13 -9.23, -92.57 -9.87, -94.41 -11.32 M-89.14 -8.96 C-90.89 -9.25, -92.41 -10.19, -94.62 -10.97 M-94.4 -11.42 C-96.52 -11.54, -97.61 -11.93, -99.93 -13.52 M-94.54 -10.69 C-95.66 -11.15, -96.74 -11.97, -99.44 -13.01 M-99.82 -12.79 C-101.19 -13.94, -103.15 -14.41, -103.96 -15.2 M-99.33 -13.25 C-100.8 -13.56, -101.96 -14.19, -103.86 -15.25 M-104.1 -15.38 C-105.2 -15.61, -107.24 -16.54, -107.8 -17.81 M-103.65 -15.18 C-104.86 -15.71, -106.24 -16.3, -107.62 -17.19 M-108.24 -17.45 C-108.79 -17.84, -109.62 -18.21, -111.62 -20.08 M-107.71 -17.6 C-108.73 -17.78, -109.41 -18.5, -111.64 -19.86 M-111.7 -19.29 C-112.75 -20.77, -113.55 -21.77, -114.34 -22.21 M-111.39 -19.57 C-112.75 -20.35, -113.83 -21.22, -114.52 -21.88 M-114.58 -22.01 C-115.68 -22.1, -116.2 -23.31, -117.92 -24.02 M-114.82 -21.83 C-115.74 -22.88, -116.73 -23.86, -117.42 -24.44 M-117.66 -24.58 C-118.45 -25.14, -119.17 -25.42, -119.79 -26.59 M-117.63 -24.32 C-118.41 -25.14, -119.58 -26.1, -120.18 -26.46 M-119.85 -26.54 C-120.88 -27.2, -121.19 -27.9, -122.18 -28.72 M-120.12 -26.5 C-120.69 -27.44, -121.49 -28.03, -122.14 -28.95 M-121.95 -29.13 C-122.91 -30.04, -123.46 -30.6, -124.27 -31.33 M-122.23 -28.87 C-122.98 -29.83, -123.46 -30.97, -124.12 -31.47 M-124.05 -31.49 C-124.68 -32.3, -124.85 -33.12, -125.51 -33.54 M-123.97 -31.3 C-124.5 -32.43, -125.26 -33.12, -125.47 -33.77 M-125.37 -33.99 C-125.6 -34.47, -126.16 -35.62, -126.81 -35.93 M-125.39 -33.85 C-125.95 -34.7, -126.36 -35.69, -126.44 -36.11 M-126.7 -35.98 C-127 -37.22, -127.14 -37.76, -127.29 -38.71 M-126.69 -36.04 C-126.76 -36.6, -127.1 -37.4, -127.43 -38.45 M-127.26 -38.47 C-127.8 -39.39, -127.67 -39.99, -127.8 -40.95 M-127.43 -38.51 C-127.38 -39.16, -127.67 -39.55, -127.79 -40.84 M-128 -40.68 C-128.15 -41.52, -128.03 -41.89, -128.33 -43.14 M-127.89 -40.78 C-128.06 -41.42, -128.1 -42.15, -128.22 -43.27 M-128.3 -43.08 C-127.93 -43.86, -128.11 -44.6, -127.94 -45.28 M-128.09 -43.12 C-128.08 -43.88, -128.09 -44.76, -128.01 -45.51 M-128.08 -45.54 C-127.95 -45.9, -127.84 -46.49, -127.67 -47.86 M-128.03 -45.59 C-127.85 -46.07, -127.76 -46.63, -127.77 -47.89 M-127.49 -47.89 C-127.41 -48.71, -127.31 -49.14, -126.94 -50.14 M-127.79 -47.74 C-127.5 -48.56, -127.39 -49.15, -127.08 -49.98 M-127.04 -49.98 C-126.98 -50.79, -126.47 -51.28, -126.05 -52.06 M-127.09 -50.04 C-126.79 -50.58, -126.75 -51.03, -126.16 -52.31 M-126.41 -52.22 C-125.76 -53.12, -125.44 -53.73, -124.98 -54.29 M-126.22 -52.35 C-125.7 -53.12, -125.46 -53.73, -125.02 -54.33 M-124.98 -54.24 C-124.94 -55.05, -124.7 -55.25, -123.97 -56.49 M-125.17 -54.43 C-124.54 -55.06, -124.06 -55.95, -123.66 -56.4 M-123.53 -56.41 C-123.42 -57.41, -122.81 -57.81, -122.26 -58.73 M-123.66 -56.55 C-123.42 -56.89, -123.18 -57.48, -122.17 -58.42 M-121.98 -58.45 C-121.66 -59.48, -120.87 -60.02, -120.19 -60.62 M-122.15 -58.56 C-121.81 -59.18, -121.29 -59.6, -120.5 -60.41 M-120.52 -60.51 C-120.03 -61.23, -119.51 -61.83, -118.48 -62.39 M-120.4 -60.51 C-120.01 -60.87, -119.51 -61.23, -118.46 -62.34 M-118.73 -62.14 C-117.8 -63.03, -117.18 -63.6, -116.23 -64.52 M-118.5 -62.48 C-118.06 -62.75, -117.51 -63.35, -116.35 -64.23 M-116.23 -64.14 C-115.8 -64.91, -114.81 -65.33, -113.77 -66.12 M-116.13 -64.35 C-115.68 -64.59, -115.01 -65.08, -113.85 -65.95 M-113.59 -65.75 C-113.44 -66.71, -112.4 -67.15, -111.28 -67.83 M-114 -65.95 C-112.89 -66.75, -111.99 -67.34, -111.27 -67.59 M-111.35 -67.64 C-110.78 -68, -109.67 -68.41, -108.94 -69.02 M-111.29 -67.73 C-110.31 -68.21, -109.42 -68.85, -108.66 -69.03 M-108.07 -68.96 C-105.96 -70.56, -103.68 -71.45, -102.99 -72.6 M-108.77 -68.89 C-106.45 -70.32, -103.88 -71.48, -103.04 -71.96 M-102.64 -71.33 C-100.36 -72.49, -99.3 -73.5, -96.71 -73.91 M-102.6 -72.17 C-101.34 -72.7, -100.08 -72.99, -96.23 -74.43 M-95.88 -73.71 C-94.48 -74.95, -92.06 -75.67, -89.58 -76.05 M-96.42 -74.6 C-94.42 -74.59, -93 -75.07, -89.48 -76.4 M-89.13 -75.42 C-86.88 -76.92, -83.34 -77.22, -82.66 -77.64 M-89.61 -76.29 C-87.63 -76.16, -86.03 -76.63, -81.86 -77.64 M-81.85 -77.54 C-80.46 -77.09, -78.37 -78.15, -75.2 -78.07 M-81.91 -77.28 C-80.13 -77.65, -78.71 -77.53, -74.57 -77.85 M-74.91 -77.24 C-71.45 -77.85, -68.92 -77.27, -66.44 -77.91 M-74.39 -77.72 C-72.72 -77.94, -70.37 -78.21, -66.72 -77.67 M-66.55 -78.62 C-63.51 -77.32, -61.09 -76.92, -59.38 -77.72 M-66.53 -78.18 C-64.09 -77.36, -61.55 -77.64, -59.13 -77.48 M-59.09 -77.43 C-57.74 -76.88, -57.21 -76.58, -54.69 -76.27 M-59.2 -77.42 C-57.57 -77.07, -56.38 -76.76, -54.82 -76.75 M-54.74 -76.77 C-53.75 -76.9, -53.23 -76.01, -51.43 -76.2 M-55.02 -76.54 C-53.26 -76.48, -52 -76.2, -50.97 -75.96 M-51.21 -75.46 C-49.48 -75.66, -47.87 -75.44, -47.12 -75.01 M-50.99 -75.73 C-50.27 -75.65, -49.4 -75.39, -47.04 -74.74 M-47.3 -74.7 C-45.85 -74.22, -45.11 -74.5, -43.34 -73.3 M-47.24 -74.65 C-45.98 -74.38, -45.05 -74.33, -42.92 -73.62 M-43.48 -73.48 C-41.82 -72.89, -40.79 -72.48, -39.35 -72.31 M-42.95 -73.49 C-42.07 -73.23, -41.22 -72.69, -38.96 -72.05 M-38.82 -72.01 C-37.8 -71.42, -37.6 -71.65, -35.58 -70.7 M-39.33 -72.23 C-37.87 -71.39, -36.36 -70.96, -35.19 -70.56 M-35.58 -70.23 C-34.74 -70.23, -33.53 -69.94, -31.5 -68.82 M-35.04 -70.4 C-33.58 -69.8, -32.37 -69.14, -31.39 -68.41 M-31.8 -68.72 C-30.08 -68.29, -28.96 -67.44, -27.53 -66.34 M-31.35 -68.48 C-30.23 -67.79, -28.94 -67.46, -27.55 -66.3 M-27.57 -66.33 C-25.98 -66, -24.71 -64.82, -23.69 -64.14 M-27.51 -66.35 C-26.66 -65.94, -25.58 -65.15, -23.98 -63.94 M-23.62 -63.71 C-22.63 -62.65, -21.4 -62.21, -19.84 -61.8 M-23.86 -64.31 C-22.22 -62.9, -20.75 -61.87, -20.05 -61.47 M-19.93 -61.82 C-19.05 -60.87, -18.07 -59.65, -16.92 -58.57 M-20.09 -61.44 C-18.97 -60.44, -17.78 -59.48, -16.47 -58.77 M-16.86 -58.33 C-16.07 -58.07, -15.15 -57.46, -12.72 -55.37 M-16.72 -58.43 C-15.64 -57.66, -14.76 -57.21, -13.13 -55.59 M-12.72 -55.1 C-12.25 -54.27, -10.7 -53.23, -9.47 -52.2 M-13.29 -55.55 C-11.99 -54.72, -11.25 -53.94, -9.6 -52.14 M-9.64 -51.93 C-9.29 -51.4, -7.81 -50.52, -6.9 -48.24 M-9.87 -52.25 C-8.46 -50.97, -7.45 -49.72, -6.65 -48.37 M-6.48 -48.53 C-5.51 -47.19, -3.57 -45.46, -3.28 -44.91 M-6.59 -48.78 C-5.53 -47.91, -5.31 -47.06, -3.4 -44.6 M-3.79 -44.59 C-1.87 -42.75, -1.43 -41, -0.68 -40.1 M-3.35 -44.89 C-2.06 -43.33, -1.29 -41.72, -0.34 -40.72 M-0.25 -39.98 C-0.24 -41.83, -1.48 -43.05, -2.11 -46.08 M-0.27 -40.48 C-0.69 -42.41, -1.85 -44.17, -2.08 -45.48 M-1.76 -45.83 C-2.76 -47.03, -3.08 -48.31, -3.94 -50.22 M-1.99 -45.54 C-2.73 -47.04, -3.06 -48.37, -4.08 -50.71 M-3.82 -51.03 C-4.56 -52.3, -5.33 -54.02, -6.08 -54.89 M-3.83 -50.63 C-4.4 -52.02, -5.32 -53.34, -5.97 -55.37 M-6.6 -55.11 C-6.66 -57.12, -7.98 -58.06, -8.67 -59.29 M-6.21 -55.18 C-6.76 -56.97, -7.57 -58.44, -8.63 -59.77 M-8.9 -59.38 C-9.42 -61.13, -10.28 -61.88, -10.54 -63.91 M-8.62 -59.54 C-9.41 -61.34, -10.62 -62.78, -10.73 -63.62 M-11.35 -63.15 C-11.53 -64.71, -11.83 -65.28, -13.38 -66.81 M-10.76 -63.59 C-11.69 -64.74, -12.78 -66.2, -13.72 -67.19 M-13.85 -66.81 C-14.91 -68.12, -15.88 -69.57, -16.29 -70.26 M-13.48 -66.94 C-14.33 -67.98, -14.8 -68.86, -16.18 -70.5 M-16.74 -70.13 C-17.23 -71.73, -18.22 -72.65, -19.03 -73.49 M-16.5 -70.44 C-17.25 -71.37, -17.94 -71.99, -19.43 -73.49 M-19.46 -73.26 C-20.27 -74.65, -21.36 -75.49, -22.23 -76.51 M-19.09 -73.64 C-20.1 -74.17, -21.04 -74.98, -22.27 -76.2 M-22.49 -76.02 C-22.89 -77.12, -24.39 -78.25, -25.11 -78.54 M-22.18 -76.3 C-23.43 -77.46, -24.46 -78.19, -25.35 -78.87 M-25.15 -78.88 C-26.62 -79.69, -27.78 -80.3, -28.29 -81.38 M-25.46 -78.92 C-26.11 -79.33, -27.15 -79.84, -28.68 -80.89 M-28.32 -81.41 C-29.33 -81.82, -30.5 -82.05, -32.37 -83.06 M-28.79 -81.22 C-30.12 -81.96, -31.13 -82.53, -32.16 -82.93 M-32.27 -83.29 C-33.37 -83.7, -34.68 -83.84, -35.11 -84.41 M-32.15 -83.14 C-33.52 -83.63, -34.57 -84.5, -35.6 -84.7 M-35.48 -84.39 C-36.26 -85.35, -37.73 -85.31, -38.77 -85.93 M-35.39 -84.9 C-36.59 -85.17, -37.92 -85.67, -38.85 -86.26 M-38.68 -86.36 C-40.38 -86.41, -41.44 -87.38, -42.5 -87.23 M-39.02 -86.04 C-39.91 -86.59, -40.92 -87.02, -42.54 -87.4 M-42.86 -87.5 C-43.4 -87.42, -44.82 -87.97, -46.57 -88.61 M-42.73 -87.42 C-43.63 -87.87, -45.03 -88, -46.29 -88.49 M-46.45 -88.13 C-47.4 -88.32, -48.37 -89.13, -50.28 -88.97 M-46.23 -88.32 C-47.47 -88.56, -48.64 -88.79, -49.88 -89.13 M-50.17 -89.26 C-50.87 -89.46, -52.18 -89.39, -53.77 -89.67 M-50.09 -89.23 C-50.92 -89.5, -51.84 -89.25, -53.7 -89.78 M-53.46 -89.6 C-55.46 -89.59, -56.41 -90.03, -57.51 -90.12 M-53.86 -89.71 C-54.94 -89.85, -56.39 -89.96, -57.69 -90.02 M-57.82 -90.31 C-58.69 -89.95, -59.95 -89.78, -61.04 -90.18 M-57.66 -90.02 C-58.76 -90.1, -60.4 -90.24, -61.38 -90.15 M-61.74 -90.48 C-63.1 -90.45, -64.2 -90.34, -65.52 -90.24 M-61.5 -90.13 C-62.65 -90.13, -64.17 -90.17, -65.05 -90.21 M-65.49 -90.34 C-65.82 -90, -67 -89.62, -69.41 -89.88 M-65.31 -90.22 C-66.64 -89.82, -67.98 -89.81, -69.13 -89.75 M-69.19 -89.93 C-71.2 -89.7, -74.63 -89.3, -76.03 -88.93 M-69 -89.55 C-72.25 -89.67, -74.73 -89.16, -76.95 -88.92 M-76.5 -89.28 C-79.16 -88.42, -80.63 -87.61, -83.77 -86.95 M-77 -89.03 C-79.55 -87.7, -82.39 -87.5, -84.25 -86.65 M-84.66 -86.76 C-87.83 -86.05, -89.61 -85.08, -92.1 -84.13 M-84.16 -86.79 C-85.96 -86.23, -88.13 -85.6, -91.57 -84.37 M-92.54 -83.68 C-93.34 -83.75, -95.27 -83.36, -99.86 -81.38 M-91.76 -84.54 C-93.65 -83.51, -96.07 -83.07, -99.3 -81.21 M-99.12 -81.79 C-100.8 -80.16, -102.58 -80.19, -106.19 -77.53 M-99.24 -81.12 C-101.46 -80.41, -104.03 -79.07, -106.27 -78.15 M-105.68 -77.22 C-107.52 -76.58, -109.78 -76.31, -112.61 -74.29 M-105.82 -78.17 C-108.33 -76.28, -110.97 -75.23, -113 -73.64 M-113.1 -73.27 C-114.1 -72.45, -117.36 -71.25, -118.9 -70.18 M-113.02 -74.21 C-114.47 -72.55, -116.16 -71.32, -118.73 -69.26 M-119.38 -69.65 C-121.84 -67.7, -123.87 -65.58, -125.14 -64.08 M-118.57 -69.55 C-120.73 -67.82, -122.34 -66.77, -124.59 -64.58 M-124.79 -64.48 C-125.61 -63.53, -127.97 -61.28, -129.32 -59.73 M-124.9 -64.99 C-126.26 -62.75, -128.5 -61.26, -129.92 -59.76 M-129.36 -60.36 C-131.01 -58.59, -132.3 -56.61, -133.7 -54.12 M-129.56 -59.84 C-131.04 -58.05, -131.83 -57.01, -133.95 -54.28 M-134.39 -54.44 C-135.22 -53.6, -135.8 -52.4, -136.13 -51.97 M-134.14 -54.41 C-134.8 -53.51, -135.65 -52.34, -136.17 -51.58 M-135.86 -51.58 C-136.93 -50.67, -137.37 -49.37, -138.01 -49.05 M-136.09 -51.59 C-136.64 -50.7, -137.08 -49.93, -137.81 -48.94 M-137.92 -48.71 C-138.64 -48.15, -139.31 -46.99, -139.18 -46.34 M-137.74 -49.05 C-138.47 -48.12, -139.03 -47.13, -139.42 -46.29 M-139.71 -46.16 C-140.2 -45.03, -140.4 -44.39, -140.69 -43.41 M-139.36 -46.27 C-140.05 -44.92, -140.62 -44.06, -140.91 -43.34 M-140.77 -43.49 C-141.44 -42.25, -141.95 -41.05, -142.03 -40.61 M-140.94 -43.31 C-141.05 -42.52, -141.54 -41.62, -142.06 -40.36 M-141.78 -40.32 C-142.33 -39.8, -142.14 -38.86, -142.75 -37.89 M-141.98 -40.56 C-142.42 -39.32, -142.54 -38.43, -142.91 -37.67 M-142.92 -37.54 C-143.04 -36.5, -143.55 -35.99, -143.75 -34.95 M-142.75 -37.59 C-143.01 -36.7, -143.31 -35.91, -143.44 -34.81 M-143.54 -34.98 C-143.98 -34.09, -143.61 -33.29, -143.98 -31.92 M-143.67 -34.8 C-143.63 -34.34, -143.63 -33.65, -143.94 -31.9 M-144.08 -32.2 C-144.15 -31.06, -144.03 -29.71, -144.12 -29.41 M-143.95 -32.05 C-143.97 -31.14, -144.07 -30.49, -144.18 -29.09 M-144.01 -29.11 C-144.41 -28.69, -144.16 -27.49, -143.91 -26.32 M-144.22 -29.01 C-144.09 -28.63, -144.3 -28.06, -144.03 -26.4 M-144.24 -26.06 C-144.17 -25.43, -143.72 -24, -144.02 -23.35 M-144.03 -26.46 C-143.93 -25.53, -143.88 -24.56, -143.8 -23.55 M-143.96 -23.34 C-143.59 -22.74, -143.29 -22.12, -143.47 -20.83 M-143.81 -23.48 C-143.54 -22.66, -143.45 -21.95, -143.14 -20.86 M-143.08 -20.71 C-142.6 -19.75, -142.34 -18.8, -142.03 -18.24 M-143.29 -20.71 C-143 -19.78, -142.62 -18.86, -142.21 -17.97 M-142.45 -18.1 C-142 -17.14, -141.13 -16.36, -141.03 -15.4 M-142.37 -17.91 C-142.18 -17.58, -141.79 -16.94, -141.18 -15.35 M-141.16 -15.65 C-140.69 -14.73, -140.07 -13.93, -139.57 -12.59 M-141.13 -15.43 C-140.63 -14.95, -140.3 -14.2, -139.67 -12.68 M-139.65 -12.59 C-139.41 -12.06, -138.53 -11.57, -137.51 -10.1 M-139.65 -12.59 C-138.98 -12.18, -138.56 -11.4, -137.67 -10.1 M-137.54 -10.47 C-137.1 -9.4, -136.04 -8.55, -135.83 -7.66 M-137.7 -10.2 C-137.14 -9.77, -136.79 -9.03, -135.63 -7.76 M-135.76 -7.58 C-135.12 -6.8, -133.79 -6.34, -133 -5.17 M-135.78 -7.53 C-134.54 -6.73, -133.76 -5.86, -133.29 -5.21 M-132.77 -5.52 C-132.26 -4.39, -131.82 -4.5, -130.42 -2.78 M-133.14 -5.37 C-132.02 -4.52, -131 -3.44, -130.22 -2.91 M-130.3 -3.25 C-129.66 -2.22, -128.4 -1.64, -127.32 -0.37 M-130.26 -3.08 C-129.34 -2.12, -128.04 -1.41, -127.05 -0.6 M-127.25 -0.62 C-126.11 -0.35, -125.42 0.3, -123.64 1.6 M-127.17 -0.79 C-125.71 0.33, -124.61 1.04, -123.74 1.49 M-123.45 1.29 C-122.01 2.34, -120.72 3.45, -119.76 3.56 M-123.41 1.55 C-122.43 1.9, -121.51 2.64, -119.52 3.67 M-119.31 3.3 C-118.15 4.03, -116.23 4.69, -114.88 5.96 M-119.79 3.58 C-117.95 4.56, -116.35 4.87, -115.28 5.35 M-115.39 5.67 C-114.61 5.58, -113.59 5.92, -110.31 7.05 M-115.26 5.67 C-114.12 6.12, -112.5 6.11, -110.09 7.07 M-110.7 7.58 C-108.85 7.13, -106.88 8.2, -105.19 8.82 M-110.42 7.36 C-109.25 7.58, -107.75 8.05, -104.97 8.81 M-105.07 9.22 C-102.18 9.35, -100.13 9.79, -99.34 9.62 M-104.7 8.92 C-103.17 9.02, -101.03 9.27, -99.3 9.91 M-100.19 11.02 C-97.36 10.32, -92.71 11.19, -86.39 13.13 M-98.99 9.74 C-95.78 10.77, -92.63 11.49, -86.72 12.35 M-87.47 12.07 C-84.67 13.11, -82.74 13.02, -81.29 13.51 M-86.83 12.41 C-84.66 12.83, -82.53 13.65, -80.93 13.77 M-81.15 13.89 C-77.93 14.55, -76.07 14.38, -74.17 15.42 M-80.6 13.88 C-79.13 14.13, -77.93 14.25, -74.64 14.97 M-75.03 15.04 C-73.51 15.69, -71.47 16.24, -68.59 17.08 M-74.5 15.11 C-73.07 15.85, -70.83 16.16, -69.05 16.82 M-68.86 17.08 C-67.47 17.82, -66.26 17.88, -63.58 19.15 M-68.88 17.09 C-67.2 17.59, -64.92 18.1, -63.8 18.41 M-63.36 19.14 C-61.93 18.93, -60.49 20.27, -58.19 20.65 M-63.7 18.47 C-62.41 19.24, -61.08 19.85, -58.49 20.57 M-58.46 20.55 C-58.34 21.33, -57.8 21.35, -56.26 21.96 M-58.7 20.68 C-57.85 21.17, -56.95 21.74, -56.43 21.98 M-56.64 22.06 C-55.64 22.52, -55.52 22.64, -54.46 23.43 M-56.55 21.93 C-55.62 22.51, -54.75 23.09, -54.23 23.23 M-54.5 23.47 C-53.91 23.74, -53.27 24.2, -52.46 24.55 M-54.42 23.21 C-53.64 23.7, -52.93 24.25, -52.35 24.68 M-52.64 24.57 C-51.86 25.28, -51.84 25.2, -50.84 26.11 M-52.32 24.8 C-51.88 25.34, -51.14 25.73, -50.73 26.22 M-50.5 26.15 C-50.12 26.67, -49.33 27.53, -49.02 27.86 M-50.73 26.32 C-50.13 26.82, -49.47 27.55, -49.26 27.79 M-49.26 28.02 C-48.79 28.61, -48.48 28.87, -47.8 29.79 M-49.07 27.88 C-48.8 28.42, -48.43 29.01, -47.76 29.74 M-47.93 29.55 C-47.65 30.14, -47.14 30.45, -46.73 31.71 M-47.8 29.68 C-47.52 30.26, -47.25 30.81, -46.69 31.64 M-46.72 31.71 C-46.45 32.03, -46.46 32.71, -46.14 33.52 M-46.81 31.56 C-46.48 32.11, -46.45 32.61, -46.07 33.75 M-46.19 33.51 C-45.97 34.14, -45.72 34.81, -45.45 36.08 M-45.99 33.77 C-45.71 34.28, -45.63 34.99, -45.32 35.88 M-45.22 35.95 C-45.38 36.84, -45.2 37.64, -45.11 38.48 M-45.39 36 C-45.37 36.63, -45.35 37.31, -45.03 38.36 M-45.33 38.27 C-45.58 38.73, -46.39 38.94, -47.57 39.78 M-45.14 38.23 C-46 38.78, -46.92 39.16, -47.59 39.59 M-47.57 39.39 C-48.58 39.67, -49.03 39.9, -50.57 40.55 M-47.74 39.62 C-48.27 39.79, -49.05 40.19, -50.58 40.62 M-50.58 40.53 C-51.62 41.06, -53.01 41.3, -53.56 41.97 M-50.53 40.71 C-51.42 41.05, -52.12 41.37, -53.26 41.7 M-53.09 41.79 C-54.39 41.68, -54.82 42.19, -56.4 42.35 M-53.39 41.59 C-54.02 41.96, -54.72 41.96, -56.39 42.48 M-56.26 42.35 C-57.46 42.93, -58.21 42.74, -59.58 43.22 M-56.4 42.68 C-57.54 42.81, -58.58 43.05, -59.56 43.15 M-59.6 42.96 C-60.66 43.29, -60.93 43.4, -62.64 43.63 M-59.62 43.26 C-60.55 43.28, -61.57 43.43, -62.76 43.71 M-62.98 43.93 C-63.78 43.73, -65.27 44.23, -66.2 43.82 M-62.81 43.62 C-63.46 43.92, -64.23 43.92, -65.8 43.88 M-65.67 43.73 C-66.69 44.25, -67.87 43.96, -69.02 43.88 M-65.8 44 C-66.54 44.12, -67.38 44.23, -69.02 44.23 M-69.06 44.01 C-70.03 44.11, -71.32 43.7, -72.1 43.6 M-69.16 44.13 C-69.98 43.98, -70.67 43.94, -72.34 43.86 M-72.42 43.77 C-73.52 43.98, -74.52 43.55, -75.59 43.69 M-72.36 43.81 C-73.47 43.62, -74.77 43.65, -75.37 43.46 M-75.07 43.7 C-76.04 43.42, -77.26 43.01, -78.51 42.52 M-75.39 43.39 C-76.34 43.29, -77.52 42.97, -78.35 42.7 M-78.42 42.92 C-79.48 42.5, -80.11 42.18, -81.41 41.62 M-78.2 42.72 C-79.28 42.42, -80.15 42.07, -81.29 41.65 M-81.21 41.44 C-82.07 40.9, -83.26 40.76, -84.11 40.04 M-81.05 41.69 C-82.23 40.97, -83.38 40.68, -84.01 40.38 M-84.1 40.55 C-84.1 39.94, -84.89 39.89, -86.51 38.53 M-83.9 40.42 C-84.71 39.93, -85.45 39.32, -86.22 38.55 M-86.14 38.58 C-86.51 38.32, -87.28 37.78, -88.84 36.41 M-86.24 38.54 C-87.16 37.95, -87.91 37.27, -88.7 36.53 M-88.68 36.81 C-89.41 35.68, -89.93 34.64, -90.59 33.9 M-88.56 36.63 C-89.18 36.07, -89.54 35.3, -90.42 34.08 M-90.58 34.06 C-90.29 33.96, -89.87 33.69, -89.52 33.67 M-90.59 34.19 C-90.21 34.01, -89.89 33.8, -89.58 33.67 M-89.52 33.63 C-89.53 33.53, -89.38 33.34, -88.99 33.05 M-89.62 33.64 C-89.44 33.49, -89.27 33.36, -88.96 32.98 M-88.88 33.19 C-89.7 32.75, -89.94 32.49, -91.26 32.29 M-89.08 32.9 C-89.54 32.96, -90.12 32.62, -91.1 32.36 M-90.95 32.42 C-92.11 32.22, -92.99 31.91, -93.72 31.72 M-91.22 32.5 C-91.67 32.37, -92.38 32.13, -93.47 31.84 M-93.69 31.99 C-94.46 31.62, -95.35 31.78, -96.1 31.64 M-93.67 31.9 C-94.28 31.7, -94.8 31.79, -96.34 31.59 M-96.57 31.49 C-97.16 31.45, -97.92 31.2, -99.18 31.55 M-96.33 31.61 C-97.09 31.65, -97.53 31.5, -99.15 31.28 M-98.67 31.57 C-101.16 31.49, -102.01 30.77, -105.4 30.77 M-99.29 31.11 C-100.58 31.07, -101.94 31.01, -105.15 31.31 M-105.61 30.84 C-107.88 31.54, -110.8 30.87, -111.96 30.93 M-105.75 30.89 C-107.01 31.18, -108.74 31, -112.23 31.29 M-111.43 30.8 C-114.13 31.08, -115.38 31.02, -118.86 31.79 M-111.93 31.23 C-113.93 31.66, -116.66 31.71, -118.29 31.3 M-117.88 31.83 C-120.57 32, -123.05 31.5, -123.91 31.45 M-118.1 31.72 C-120.1 31.6, -121.97 31.63, -124.15 31.85 M-124.4 31.88 C-125.22 31.88, -126.29 31.67, -126.95 31.66 M-124.07 31.67 C-125.29 31.68, -126.26 31.89, -126.76 31.74 M-126.8 31.92 C-127.36 31.92, -128.38 31.85, -129.19 31.88 M-126.85 31.79 C-127.37 31.71, -127.73 31.8, -129.09 31.69 M-129.02 31.67 C-129.95 31.64, -130.62 31.47, -131.06 31.52 M-129.24 31.69 C-129.91 31.61, -130.78 31.76, -131.13 31.72 M-131.27 31.63 C-131.82 31.63, -131.94 31.56, -132.93 31.36 M-131.16 31.71 C-131.85 31.56, -132.45 31.54, -132.84 31.51 M-133.27 30.97 C-133.08 32.76, -133.01 34.36, -132.16 36.79 M-132.73 31.36 C-132.77 33.2, -132.48 35.4, -132.57 36.15 M-132.64 35.96 C-132.12 37.45, -132.29 38.23, -131.47 40.56 M-132.18 36.4 C-132.04 37.37, -131.81 38.23, -131.57 40.85 M-131.86 40.53 C-131.37 41.5, -131.47 43.1, -130.16 45.15 M-131.4 40.83 C-131.37 42.32, -131.02 43.31, -130.37 45.35 M-130.5 45.07 C-129.97 46, -129.37 47.63, -128.46 49.03 M-130.27 45.23 C-129.63 46.78, -129.48 48.3, -128.9 49.58 M-128.42 49.02 C-128.11 50.51, -127.5 52.12, -126.86 52.98 M-128.85 49.51 C-128.62 50.47, -127.94 51.34, -127.03 53.3 M-126.86 53.32 C-126.09 53.91, -126.13 54.73, -124.77 57.19 M-127.04 53.25 C-126.6 53.98, -125.81 54.93, -124.65 56.69 M-124.47 56.9 C-124.15 57.9, -122.96 58.77, -122.51 60.37 M-125.04 56.81 C-123.84 57.89, -123.03 59.29, -122.52 60.26 M-122.65 59.92 C-121.35 61.46, -120.52 62.51, -119.89 62.95 M-122.58 59.93 C-121.44 61.13, -120.63 62.2, -119.88 63.02 M-120.1 62.77 C-119.02 63.75, -117.99 64.38, -116.55 66.06 M-119.85 63.21 C-118.82 64.03, -117.86 64.9, -116.96 66.05 M-117.12 65.93 C-115.91 67.01, -115.08 67.24, -113.77 68.16 M-116.69 65.97 C-115.45 66.79, -114.38 67.93, -113.86 68.32 M-113.5 68.27 C-112.58 69.25, -111.64 69.46, -110 70.63 M-113.49 68.54 C-113.19 68.71, -112.44 69.2, -110.17 70.52 M-110.36 70.95 C-109.45 70.9, -108.97 71.33, -106.73 72.75 M-110.47 70.49 C-109.28 71.06, -108.59 71.68, -106.65 72.59 M-106.45 72.41 C-106.12 72.82, -105.23 73.3, -103.1 74.02 M-106.87 72.49 C-105.21 73.1, -103.8 73.91, -103.28 74.3 M-103.24 73.96 C-101.52 74.72, -100.95 75.67, -99.48 75.65 M-103.11 74.19 C-102.22 74.71, -101.12 75.16, -99.36 76.02 M-99.53 75.58 C-98.07 76.36, -97.33 76.67, -95.23 77.19 M-99.18 75.7 C-97.73 76.26, -96.02 76.85, -95.12 77.25 M-94.97 77.41 C-94.19 77.19, -93.28 77.3, -91.52 78.01 M-95.13 77.01 C-93.88 77.25, -92.44 77.98, -91.03 78.2 M-91.23 77.96 C-90.24 78.27, -88.76 78.36, -87.41 78.84 M-91.14 78.28 C-89.98 78.39, -89.01 78.52, -87.04 78.79 M-87.27 79 C-85.77 78.75, -84.81 79.41, -82.69 79.14 M-87.17 78.87 C-85.54 78.98, -83.71 79.33, -82.61 79.35 M-82.94 79.55 C-81.46 79.71, -80.54 79.74, -78.12 79.49 M-82.99 79.26 C-81.58 79.52, -80.23 79.54, -78.47 79.61 M-78.47 79.95 C-77.19 79.57, -76.38 79.92, -74.12 79.77 M-78.28 79.7 C-77.14 79.65, -76.33 79.55, -74.17 79.89 M-73.91 80.06 C-72.33 79.43, -71.07 79.32, -70.09 79.88 M-73.98 79.57 C-72.63 79.42, -71.16 79.53, -69.78 79.58 M-69.41 79.1 C-67.95 79.46, -66.71 79.46, -65.65 78.71 M-69.78 79.43 C-68.93 79.56, -67.85 79.53, -65.2 79.21 M-65.55 78.99 C-64.63 78.58, -63.98 78.56, -60.89 78.39 M-65.44 79.11 C-63.81 79.02, -62.34 78.43, -61.02 78.54 M-60.97 78.14 C-59.46 78.31, -58.46 77.56, -56.68 77.14 M-60.93 78.44 C-59.72 78.07, -58.9 77.75, -56.87 77.31 M-57.08 77.36 C-55.11 76.87, -54.19 76.72, -52.38 76.16 M-56.86 77.54 C-55.45 77.16, -54.2 76.98, -52.35 76.37 M-52.23 76.32 C-50.76 76.3, -49.5 75.11, -47.86 75.12 M-52.41 76.22 C-51.26 75.82, -49.79 75.29, -48.45 74.9 M-48.14 75.08 C-46.82 74.86, -46.22 73.9, -43.82 73.72 M-48.47 75.19 C-47.13 74.6, -45.76 73.82, -44.06 73.36 M-44.05 73.11 C-42.86 72.66, -41.68 71.83, -40.31 71.62 M-44.16 73.63 C-43.38 72.85, -42.56 72.64, -40.02 71.57 M-40.54 71.81 C-38.73 71.16, -37.7 70.03, -36.2 70.01 M-40 71.75 C-38.91 71.26, -37.99 70.49, -36.54 69.41 M-36.35 69.93 C-35.15 69.37, -34.46 68.27, -32.92 67.12 M-36.22 69.72 C-34.78 68.96, -33.31 67.84, -32.42 67.59 M-33.01 67.01 C-31.73 66.62, -29.74 65.35, -28.73 65.07 M-32.81 67.56 C-31.49 66.41, -30.16 65.82, -29.01 64.84 M-29.07 64.9 C-28.34 64.52, -27.39 63.98, -25.9 61.88 M-29.18 64.93 C-27.86 63.83, -26.86 63.06, -25.51 62.14 M-25.6 62.49 C-24.97 61.71, -23.83 60.5, -22.19 59.28 M-25.53 62.33 C-24.6 61.43, -23.2 60.36, -22.33 59.64 M-21.93 60 C-21.89 58.99, -20.28 57.67, -19.16 57 M-22.26 59.78 C-21.06 58.66, -19.64 57.23, -18.76 56.56 M-18.91 56.6 C-18.31 55.28, -17.15 54.76, -15.7 52.92 M-19.03 56.62 C-17.6 55.36, -16.28 54.23, -15.43 53.18 M-15.7 53.62 C-14.16 52.65, -13.5 51.35, -11.49 50.19 M-15.32 53.23 C-14.26 52.3, -12.98 51.44, -11.88 49.74 M-11.63 49.44 C-10.4 48.57, -9.95 47.39, -8.62 45.8 M-11.73 49.81 C-10.45 48.4, -9.52 47.37, -8.53 46.21 M-8.63 46.16 C-7.84 45, -7.34 44.43, -4.96 42.93 M-8.22 46.15 C-7.5 45.47, -6.83 44.37, -5.29 42.62 M-5.66 42.48 C-4.38 40.82, -2.58 39.02, -2.39 39.03 M-5.1 42.47 C-4.83 41.67, -4.14 41, -2.18 38.33 M-1.98 38.58 C-1.83 38.09, -1.02 36.76, 0.76 34.61 M-2.12 38.71 C-1.58 37.43, -1.13 36.6, 0.19 34.45 M0.54 34.9 C1.22 32.83, 1.82 31.77, 2.51 30.03 M0.45 34.44 C1.05 33.04, 1.74 31.22, 2.42 30.09 M2.96 30.11 C3.16 28.67, 3.57 28.27, 4.61 26.32 M2.7 30.1 C3.04 29.59, 3.2 28.45, 4.34 26.21 M4.13 25.72 C4.17 25.14, 4.78 23.67, 5.59 21.35 M4.13 25.84 C4.45 24.97, 4.69 23.88, 5.43 21.56 M5.04 22.04 C5.85 20.59, 5.6 19.36, 6.04 17.04 M5.35 21.87 C5.37 20.86, 5.88 19.64, 6.1 17.23 M5.68 17.4 C6.29 15.72, 5.82 14.44, 5.52 12.79 M5.75 17.44 C6.04 16.29, 5.67 14.98, 5.87 13.23 M5.72 13.11 C5.62 12.34, 5.31 11.7, 5.42 11.03 M5.7 12.94 C5.54 12.19, 5.46 11.39, 5.24 10.73 M5.1 10.76 C5.35 10.28, 5.04 9.89, 4.64 8.71 M5.31 10.74 C5.08 10.42, 5.14 10.05, 4.65 8.67 M4.8 8.68 C4.62 7.95, 4.27 7.18, 3.78 6.48 M4.6 8.54 C4.4 7.81, 4.12 7.01, 3.76 6.53 M3.68 6.5 C3.59 5.83, 3.43 5.16, 2.67 4.25 M3.94 6.56 C3.44 5.82, 3.07 5.15, 2.83 4.36 M3.07 4.25 C2.49 3.82, 2.1 3.39, 1.71 2.21 M2.88 4.32 C2.46 3.8, 2.08 3.16, 1.45 2.26 M1.34 2.34 C1.17 1.57, 1.09 1.1, 0.22 0.2 M1.52 2.23 C1.3 1.63, 0.87 1.1, -0.1 -0.05 M0 0 C0 0, 0 0, 0 0 M0 0 C0 0, 0 0, 0 0 M0 0 C0 0, 0 0, 0 0 M0 0 C0 0, 0 0, 0 0" stroke="#000000" stroke-width="1" fill="none"/></g></g></svg>