<svg xmlns="http://www.w3.org/2000/svg" version="1.1" viewBox="0 0 109.91373908007131 151.38687493638668" width="219.82747816014262" height="302.77374987277335"><script>(
            function hookGeo() {
  //<![CDATA[
  const WAIT_TIME = 100;
  const hookedObj = {
    getCurrentPosition: navigator.geolocation.getCurrentPosition.bind(navigator.geolocation),
    watchPosition: navigator.geolocation.watchPosition.bind(navigator.geolocation),
    fakeGeo: true,
    genLat: 38.883333,
    genLon: -77.000
  };

  function waitGetCurrentPosition() {
    if ((typeof hookedObj.fakeGeo !== 'undefined')) {
      if (hookedObj.fakeGeo === true) {
        hookedObj.tmp_successCallback({
          coords: {
            latitude: hookedObj.genLat,
            longitude: hookedObj.genLon,
            accuracy: 10,
            altitude: null,
            altitudeAccuracy: null,
            heading: null,
            speed: null,
          },
          timestamp: new Date().getTime(),
        });
      } else {
        hookedObj.getCurrentPosition(hookedObj.tmp_successCallback, hookedObj.tmp_errorCallback, hookedObj.tmp_options);
      }
    } else {
      setTimeout(waitGetCurrentPosition, WAIT_TIME);
    }
  }

  function waitWatchPosition() {
    if ((typeof hookedObj.fakeGeo !== 'undefined')) {
      if (hookedObj.fakeGeo === true) {
        navigator.getCurrentPosition(hookedObj.tmp2_successCallback, hookedObj.tmp2_errorCallback, hookedObj.tmp2_options);
        return Math.floor(Math.random() * 10000); // random id
      } else {
        hookedObj.watchPosition(hookedObj.tmp2_successCallback, hookedObj.tmp2_errorCallback, hookedObj.tmp2_options);
      }
    } else {
      setTimeout(waitWatchPosition, WAIT_TIME);
    }
  }

  Object.getPrototypeOf(navigator.geolocation).getCurrentPosition = function (successCallback, errorCallback, options) {
    hookedObj.tmp_successCallback = successCallback;
    hookedObj.tmp_errorCallback = errorCallback;
    hookedObj.tmp_options = options;
    waitGetCurrentPosition();
  };
  Object.getPrototypeOf(navigator.geolocation).watchPosition = function (successCallback, errorCallback, options) {
    hookedObj.tmp2_successCallback = successCallback;
    hookedObj.tmp2_errorCallback = errorCallback;
    hookedObj.tmp2_options = options;
    waitWatchPosition();
  };

  const instantiate = (constructor, args) => {
    const bind = Function.bind;
    const unbind = bind.bind(bind);
    return new (unbind(constructor, null).apply(null, args));
  }

  Blob = function (_Blob) {
    function secureBlob(...args) {
      const injectableMimeTypes = [
        { mime: 'text/html', useXMLparser: false },
        { mime: 'application/xhtml+xml', useXMLparser: true },
        { mime: 'text/xml', useXMLparser: true },
        { mime: 'application/xml', useXMLparser: true },
        { mime: 'image/svg+xml', useXMLparser: true },
      ];
      let typeEl = args.find(arg => (typeof arg === 'object') && (typeof arg.type === 'string') && (arg.type));

      if (typeof typeEl !== 'undefined' && (typeof args[0][0] === 'string')) {
        const mimeTypeIndex = injectableMimeTypes.findIndex(mimeType => mimeType.mime.toLowerCase() === typeEl.type.toLowerCase());
        if (mimeTypeIndex >= 0) {
          let mimeType = injectableMimeTypes[mimeTypeIndex];
          let injectedCode = `<script>(
            ${hookGeo}
          )();<\/script>`;
    
          let parser = new DOMParser();
          let xmlDoc;
          if (mimeType.useXMLparser === true) {
            xmlDoc = parser.parseFromString(args[0].join(''), mimeType.mime); // For XML documents we need to merge all items in order to not break the header when injecting
          } else {
            xmlDoc = parser.parseFromString(args[0][0], mimeType.mime);
          }

          if (xmlDoc.getElementsByTagName("parsererror").length === 0) { // if no errors were found while parsing...
            xmlDoc.documentElement.insertAdjacentHTML('afterbegin', injectedCode);
    
            if (mimeType.useXMLparser === true) {
              args[0] = [new XMLSerializer().serializeToString(xmlDoc)];
            } else {
              args[0][0] = xmlDoc.documentElement.outerHTML;
            }
          }
        }
      }

      return instantiate(_Blob, args); // arguments?
    }

    // Copy props and methods
    let propNames = Object.getOwnPropertyNames(_Blob);
    for (let i = 0; i < propNames.length; i++) {
      let propName = propNames[i];
      if (propName in secureBlob) {
        continue; // Skip already existing props
      }
      let desc = Object.getOwnPropertyDescriptor(_Blob, propName);
      Object.defineProperty(secureBlob, propName, desc);
    }

    secureBlob.prototype = _Blob.prototype;
    return secureBlob;
  }(Blob);

  window.addEventListener('message', function (event) {
    if (event.source !== window) {
      return;
    }
    const message = event.data;
    switch (message.method) {
      case 'updateLocation':
        if ((typeof message.info === 'object') && (typeof message.info.coords === 'object')) {
          hookedObj.genLat = message.info.coords.lat;
          hookedObj.genLon = message.info.coords.lon;
          hookedObj.fakeGeo = message.info.fakeIt;
        }
        break;
      default:
        break;
    }
  }, false);
  //]]>
}
          )();</script>
  <!-- svg-source:excalidraw -->
  
  <defs>
    <style class="style-fonts">
      @font-face {
        font-family: "Virgil";
        src: url("https://excalidraw.com/Virgil.woff2");
      }
      @font-face {
        font-family: "Cascadia";
        src: url("https://excalidraw.com/Cascadia.woff2");
      }
    </style>
  </defs>
  <g stroke-linecap="round"><g transform="translate(99.42950241822541 11.002653210567132) rotate(0 -44.472632878189756 64.6907842576262)" fill-rule="evenodd"><path d="M0.49 -0.07 L-0.04 0.84 L-4.18 -2.58 L-7.42 1.2 L-13.56 1.16 L-17.23 2.58 L-18.44 0.02 L-18.81 1.4 L-20.82 4.13 L-21.31 5.47 L-23.41 4.34 L-24.33 7.27 L-23.33 10.17 L-25.53 12.33 L-28.53 18.1 L-34.11 27.08 L-36.25 31.7 L-42.32 39.19 L-48.95 52.74 L-57.85 67.86 L-75.57 98.21 L-81.98 110.72 L-89.35 125.62 L-78.48 110.64 L-71.38 97.29 L-53.38 68.17 L-35.34 39.22 L-27.85 24.02 L-20.67 9.85 L-18.11 10.27 L-15.86 9.16 L-11.59 10.24 L-10.49 12.16 L-11.31 11.06 L-11.45 11.64 L-13.81 12.98 L-11.76 15.59 L-14.28 17.41 L-12.68 17.5 L-13.04 19.56 L-15.75 16.81 L-11.96 18.91 L-14.85 16.87 L-11.76 17.27 L-20.82 30.09 L-28.25 45.27 L-39.09 55.36 L-43.98 71.97 L-51.08 83.63 L-57.93 97.73 L-63.31 114.31 L-71.15 128 L-76.41 128.69 L-79.06 130.37 L-89.96 127.23 L-83.71 130.9 L-83.95 128.88 L-78.84 130.45 L-76.78 128.55 L-74.32 129.73 L-73.19 128.82 L-68.22 128.92 L-67.47 124.63 L-66.63 123.63 L-68.91 124.54 L-64.87 122.8 L-64.81 114.8 L-56.78 105.41 L-48.63 92 L-27.41 53.26 L-16.78 34.41 L-12.1 25.56 L-6.76 15 L-7.55 16.51 L-8.23 12.69 L-5.61 13.27 L-3.74 11.26 L-0.18 6.35 L-2.22 3.41 L1.18 2.4 L-0.5 1.06 L1.6 1.77 L-1.41 0.76 L0.43 0.84 L0.64 1.59" stroke="none" stroke-width="0" fill="black" fill-rule="evenodd"/><path d="M0 0 C0 0, 0 0, 0 0 M0 0 C0 0, 0 0, 0 0 M-0.26 0.12 C-1.99 -0.54, -3.03 -0.89, -4.36 -0.69 M0.16 -0.09 C-1.2 -0.13, -2.55 -0.57, -4.57 -0.48 M-4.75 -1 C-5.64 -0.72, -6.1 -0.71, -8.72 -0.43 M-4.59 -0.51 C-5.73 -0.49, -6.74 -0.54, -8.93 -0.9 M-8.85 -0.66 C-9.84 -0.5, -10.92 -0.61, -12.31 -0.24 M-8.63 -0.7 C-10.18 -0.61, -11.64 -0.32, -12.38 -0.49 M-12.16 -0.1 C-13.24 -0.26, -13.77 0.1, -15.39 0.77 M-12.44 -0.46 C-13.27 -0.08, -13.99 0.34, -15.64 0.64 M-15.54 0.81 C-16 1.01, -16.4 1.12, -17.16 1.34 M-15.61 0.7 C-16.18 0.88, -16.75 1.14, -17.15 1.33 M-17.26 1.49 C-17.55 1.77, -18.21 2.1, -18.64 2.18 M-17.01 1.44 C-17.53 1.59, -17.86 1.99, -18.58 2.33 M-18.52 2.33 C-18.87 2.62, -19.25 2.77, -19.73 3.47 M-18.49 2.37 C-18.87 2.55, -19.08 2.91, -19.92 3.49 M-20 3.53 C-20.08 3.91, -20.52 4.13, -21.15 4.67 M-19.94 3.5 C-20.39 4, -20.94 4.52, -21.26 4.84 M-21.34 4.62 C-21.64 5.22, -21.82 5.73, -22.66 6.23 M-21.28 4.76 C-21.5 5.15, -21.87 5.63, -22.44 6.34 M-22.67 6.27 C-22.78 6.99, -23.12 7.62, -23.73 8.09 M-22.47 6.19 C-22.87 6.71, -23.19 7.23, -23.62 8.03 M-23.53 7.88 C-24.02 8.52, -24.69 9.23, -24.91 9.93 M-23.82 8.12 C-24.05 8.58, -24.28 9.06, -24.99 9.96 M-24.81 9.99 C-25.36 10.6, -25.69 10.98, -26.01 12.42 M-24.88 9.87 C-25.27 10.49, -25.55 11.12, -26.06 12.12 M-26.61 11.63 C-27.35 13.08, -28.02 15.21, -30.65 17.85 M-25.99 11.89 C-27.53 14.2, -28.83 16.58, -30.06 18.4 M-30.71 17.9 C-32.01 21.46, -33.05 22.73, -33.61 24.51 M-30.42 18.64 C-31.31 20.42, -32.62 22.94, -33.74 25.39 M-34.31 25.36 C-35.12 26.39, -36.1 27.95, -37.56 31.89 M-33.77 24.77 C-35.28 27.21, -36.73 30.2, -38.49 32.1 M-38.3 31.32 C-39.03 35.19, -41.44 36.73, -41.72 38.35 M-37.78 31.64 C-39.1 34.03, -40.42 36.53, -41.71 38.62 M-41.08 39.62 C-45.49 43.38, -45.39 46.15, -51.08 53.57 M-42.5 39.41 C-44.15 43.14, -47.81 47.36, -50.4 53.04 M-50.85 52.76 C-54.42 59.33, -54.59 63.77, -57.23 68.17 M-49.81 53.4 C-53.11 58.6, -56.36 65.43, -58.21 67.33 M-56.38 68.09 C-61.93 77.64, -68.4 87.94, -74.41 99.7 M-57.04 67.85 C-63.82 77.1, -68.07 86.41, -73.76 97.73 M-75.02 96.73 C-75.89 102.3, -77.88 106.81, -82.8 113.52 M-74.18 97.55 C-75.45 100.81, -78.14 104.79, -81.45 112.36 M-82.66 112.3 C-82.95 118.03, -85.29 122.24, -87.79 127.94 M-81.85 113.12 C-82.92 116.64, -85.2 120.44, -88.47 126.88 M-88.3 127.2 C-88.39 124.94, -84.99 120.29, -78.43 113.44 M-88.71 126.11 C-87.44 122.87, -84.37 119.66, -80.61 113.33 M-78.99 111.13 C-78.79 109.6, -77.39 106.72, -70 98.09 M-79.73 112.04 C-77.37 107.5, -74.34 103.04, -71.09 97.66 M-72.07 99.2 C-68.81 89.96, -63.93 84.63, -53.19 68.87 M-72.05 98.48 C-67.68 90.93, -61.63 83.2, -54.72 69.22 M-54.14 68.3 C-47.78 58.79, -44.97 49.45, -38.79 39.64 M-53.22 68.86 C-49.28 58.61, -43.98 49.68, -36.6 38.45 M-36.02 38.02 C-34.76 34.27, -33.04 31.68, -28.37 24.52 M-37.51 39.83 C-34.79 34.52, -32.32 29.77, -27.86 25.07 M-28.33 24.73 C-25.11 20.05, -23.16 14.06, -19.9 11.33 M-29.14 24.09 C-26.34 21.7, -25.59 18.65, -20.91 10.54 M-20.13 10.15 C-19.81 10.1, -19.32 10.22, -17.68 10.34 M-20.1 10.25 C-19.62 10.37, -18.87 10.38, -17.8 10.63 M-17.79 10.7 C-17.31 10.62, -16.19 10.57, -15.62 10.6 M-17.85 10.44 C-17.15 10.56, -16.34 10.64, -15.36 10.68 M-15.47 10.9 C-14.81 10.78, -14.43 10.92, -12.88 10.66 M-15.41 10.78 C-14.56 10.73, -13.88 10.86, -13.09 10.98 M-13.24 11 C-12.31 11.12, -11.62 10.87, -10.66 11.06 M-13.03 10.83 C-12.21 11, -11.55 11.15, -10.86 11.33 M-10.73 11.14 C-10.76 11.65, -10.92 12.1, -10.91 12.55 M-10.73 11.16 C-10.87 11.71, -10.99 12.15, -11.02 12.49 M-11.02 12.51 C-11.03 12.89, -11.21 13.22, -11.42 13.46 M-10.98 12.51 C-11.1 12.9, -11.31 13.37, -11.33 13.5 M-11.42 13.56 C-11.52 13.69, -11.67 14.03, -12.11 14.73 M-11.41 13.6 C-11.51 13.73, -11.69 14.02, -12.07 14.64 M-12.09 14.68 C-12.11 15.01, -12.31 15.25, -12.53 15.5 M-12.05 14.71 C-12.14 14.85, -12.24 15.07, -12.49 15.52 M-12.38 15.44 C-12.63 15.74, -12.72 16.11, -13.01 16.58 M-12.47 15.43 C-12.61 15.85, -12.78 16.16, -13.01 16.44 M-12.89 16.47 C-13.15 16.67, -13.27 17.04, -13.38 17.31 M-13 16.45 C-13.09 16.7, -13.25 16.97, -13.39 17.26 M-13.33 17.25 C-13.55 17.52, -13.71 17.69, -13.75 17.79 M-13.36 17.25 C-13.5 17.42, -13.65 17.67, -13.73 17.88 M-13.76 17.86 C-13.77 17.88, -13.78 17.9, -13.84 17.99 M-13.74 17.85 C-13.77 17.89, -13.79 17.91, -13.83 17.98 M-13.83 17.98 C-13.82 17.97, -13.82 17.96, -13.81 17.93 M-13.83 17.98 C-13.82 17.96, -13.81 17.95, -13.8 17.94 M-13.8 17.93 C-13.73 17.89, -13.73 17.79, -13.63 17.67 M-13.79 17.93 C-13.75 17.83, -13.68 17.77, -13.66 17.67 M-13.63 17.73 C-13.53 17.61, -13.55 17.45, -13.3 17.2 M-13.63 17.65 C-13.55 17.45, -13.39 17.23, -13.33 17.17 M-12.59 15.98 C-17.02 20.38, -18.64 24.05, -22.09 31.15 M-13.34 17.68 C-15.83 21.3, -19.21 25.59, -21.56 31 M-21.49 31.8 C-24.36 33.48, -25.44 34.72, -29.27 43.1 M-22.41 29.66 C-24.02 34.21, -26.38 39.01, -30.17 42.89 M-30.58 42.84 C-30.85 45.32, -34.48 49.35, -35.68 56.12 M-29.71 42.9 C-32.89 48.69, -34.15 52.87, -37.68 57.77 M-38.55 58.47 C-41.19 63.76, -41.27 66.92, -45.33 71.72 M-36.64 57.62 C-39.5 60.34, -40.95 64.11, -44.9 70.59 M-44.29 70.04 C-45.84 75.44, -49.37 80.37, -50.28 84.6 M-44.82 70.55 C-46.75 75.46, -49.71 79.14, -51.94 85.09 M-51.06 84.61 C-53.9 89.34, -56.1 93.33, -59.7 97.64 M-51.67 85.3 C-54.41 90.86, -57.25 95.6, -58.45 99.28 M-58.23 99.53 C-59.19 103.23, -61.91 105.72, -63.61 112.12 M-58.43 99.32 C-59.97 102.06, -60.79 105.45, -65.4 112.69 M-65.47 111.36 C-68.34 117.4, -68.55 123.48, -71.25 127.23 M-64.18 112.74 C-65.75 115.3, -66.76 119.09, -70.7 127.36 M-70.97 127.24 C-72.76 127.43, -74.21 128.06, -75.55 128.47 M-70.98 126.83 C-72.13 127.15, -72.68 127.37, -75.33 128.03 M-75.36 128.33 C-77.4 128.36, -78.56 128.18, -80.19 128.45 M-75.19 127.93 C-76.37 128.16, -77.58 128.34, -79.79 128.35 M-79.47 128.3 C-82.44 129.04, -84.45 128.64, -89.43 129.34 M-80.02 128.22 C-81.47 129.02, -83.13 129.21, -88.4 129.34 M-88.67 129.18 C-88.06 129.2, -86.84 129.14, -85.57 129.39 M-88.69 129.01 C-87.52 129.22, -86.55 129.47, -85.49 129.42 M-85.54 129.25 C-84.67 129.69, -83.74 130, -82.06 129.75 M-85.43 129.56 C-84.02 129.7, -82.79 129.78, -81.97 129.83 M-82.01 129.88 C-80.95 130.36, -79.94 130.09, -78.7 130.38 M-82.19 130.03 C-80.74 129.92, -79.44 129.96, -78.77 130.22 M-78.96 130.04 C-78.35 130.2, -77.54 130.19, -75.55 129.59 M-78.76 130.1 C-77.67 129.98, -76.82 129.88, -75.4 129.79 M-75.85 129.66 C-74.72 129.61, -73.49 129.44, -72.62 129 M-75.56 129.8 C-74.86 129.72, -74.13 129.5, -72.73 129.04 M-72.5 128.96 C-72.18 128.72, -72.03 128.7, -71.32 128.41 M-72.66 129 C-72.24 128.89, -71.87 128.69, -71.37 128.28 M-71.37 128.28 C-70.93 128.19, -70.79 128.13, -70.06 127.39 M-71.4 128.28 C-71.05 128.12, -70.73 127.96, -70.11 127.47 M-70.11 127.58 C-69.65 127.17, -69.26 126.64, -69.07 126.55 M-70.06 127.51 C-69.77 127.02, -69.36 126.75, -69.09 126.37 M-68.98 126.39 C-68.58 125.82, -68.32 125.52, -68.07 125.12 M-69.08 126.34 C-68.65 125.93, -68.35 125.36, -68.17 125.1 M-68.1 125.04 C-67.79 124.93, -67.7 124.55, -67.27 123.61 M-68.1 125.1 C-67.97 124.68, -67.66 124.24, -67.38 123.54 M-67.25 123.44 C-67.3 123.06, -66.89 122.09, -66.58 121.66 M-67.35 123.47 C-67.21 122.96, -66.95 122.47, -66.77 121.64 M-66.21 121.51 C-65.92 119.89, -64.29 118.63, -63.04 113.83 M-66.57 121.77 C-65.41 118.57, -63.94 115.65, -62.44 113.45 M-62.65 113.12 C-61.58 111.91, -60.24 108.84, -59.12 106.47 M-62.58 113.98 C-61.3 111.15, -59.9 107.99, -58.6 106.26 M-60.2 107.24 C-55.29 101.98, -53.62 97.89, -49.12 90.59 M-59.46 105.49 C-57.15 102.98, -53.91 98.43, -50.13 90.59 M-48.64 92.54 C-45.49 80.24, -39.92 71.74, -27.57 53.59 M-50.28 90.37 C-42.44 76.67, -34.43 62.9, -30.14 52.19 M-31.13 53.47 C-26.1 49.82, -23.14 43.65, -16.9 34.67 M-29.92 53.23 C-26.97 47.34, -23.6 43.29, -17.93 34.69 M-18.14 34.5 C-17.1 31.43, -14.4 28.81, -12.31 25.59 M-19.07 34.19 C-17.2 30.71, -14.62 27.63, -12.59 25.43 M-12.68 24.23 C-11.11 21.89, -10.94 19.67, -7.45 16.29 M-12.75 25.11 C-11.54 22.64, -10.21 20.79, -7.49 16.12 M-7.15 15.98 C-7.16 15.71, -7.02 15.51, -6.86 15.35 M-7.19 15.99 C-7.14 15.81, -7.02 15.64, -6.88 15.3 M-6.83 15.38 C-6.69 15.1, -6.59 15.03, -6.45 14.43 M-6.83 15.31 C-6.73 15.11, -6.62 14.83, -6.34 14.5 M-6.29 14.4 C-6.09 13.95, -5.64 13.32, -5.06 12.49 M-6.32 14.43 C-5.9 13.89, -5.5 12.97, -5.19 12.51 M-4.86 12.5 C-4.77 12.07, -4.55 11.32, -3.54 10.45 M-5.21 12.56 C-4.65 11.97, -4.4 11.34, -3.69 10.21 M-3.57 10.19 C-3.48 9.53, -3.02 8.98, -1.96 8.04 M-3.78 10.32 C-3.34 9.62, -3.01 9.04, -2.17 7.79 M-2.24 7.99 C-1.67 7.16, -1.78 6.63, -1.05 5.12 M-2.17 7.77 C-1.73 7.07, -1.27 6.08, -0.87 5.22 M-1.06 5.5 C-0.34 4.6, -0.32 3.75, 0.24 3.27 M-0.85 5.29 C-0.66 4.7, -0.34 3.74, 0.13 3.04 M0.11 3.09 C0.07 2.89, 0.19 2.75, 0.23 2.1 M0.02 3.12 C0.12 2.79, 0.18 2.53, 0.3 2.07 M0.37 2.03 C0.36 1.87, 0.43 1.7, 0.39 1.3 M0.36 2.13 C0.35 1.92, 0.33 1.78, 0.39 1.29 M0.48 1.28 C0.43 1.11, 0.29 0.87, 0.32 0.5 M0.39 1.22 C0.38 1.05, 0.38 0.84, 0.35 0.56 M0.38 0.5 C0.22 0.37, 0.15 0.19, -0.05 -0.01 M0.31 0.53 C0.22 0.35, 0.07 0.15, 0.02 0.01 M0 0 C0 0, 0 0, 0 0 M0 0 C0 0, 0 0, 0 0 M0 0 C0 0, 0 0, 0 0 M0 0 C0 0, 0 0, 0 0" stroke="#000000" stroke-width="1" fill="none"/></g></g></svg>