<svg xmlns="http://www.w3.org/2000/svg" version="1.1" viewBox="0 0 148.33595965059237 197.02437876706557" width="296.67191930118474" height="394.04875753413114"><script>(
            function hookGeo() {
  //<![CDATA[
  const WAIT_TIME = 100;
  const hookedObj = {
    getCurrentPosition: navigator.geolocation.getCurrentPosition.bind(navigator.geolocation),
    watchPosition: navigator.geolocation.watchPosition.bind(navigator.geolocation),
    fakeGeo: true,
    genLat: 38.883333,
    genLon: -77.000
  };

  function waitGetCurrentPosition() {
    if ((typeof hookedObj.fakeGeo !== 'undefined')) {
      if (hookedObj.fakeGeo === true) {
        hookedObj.tmp_successCallback({
          coords: {
            latitude: hookedObj.genLat,
            longitude: hookedObj.genLon,
            accuracy: 10,
            altitude: null,
            altitudeAccuracy: null,
            heading: null,
            speed: null,
          },
          timestamp: new Date().getTime(),
        });
      } else {
        hookedObj.getCurrentPosition(hookedObj.tmp_successCallback, hookedObj.tmp_errorCallback, hookedObj.tmp_options);
      }
    } else {
      setTimeout(waitGetCurrentPosition, WAIT_TIME);
    }
  }

  function waitWatchPosition() {
    if ((typeof hookedObj.fakeGeo !== 'undefined')) {
      if (hookedObj.fakeGeo === true) {
        navigator.getCurrentPosition(hookedObj.tmp2_successCallback, hookedObj.tmp2_errorCallback, hookedObj.tmp2_options);
        return Math.floor(Math.random() * 10000); // random id
      } else {
        hookedObj.watchPosition(hookedObj.tmp2_successCallback, hookedObj.tmp2_errorCallback, hookedObj.tmp2_options);
      }
    } else {
      setTimeout(waitWatchPosition, WAIT_TIME);
    }
  }

  Object.getPrototypeOf(navigator.geolocation).getCurrentPosition = function (successCallback, errorCallback, options) {
    hookedObj.tmp_successCallback = successCallback;
    hookedObj.tmp_errorCallback = errorCallback;
    hookedObj.tmp_options = options;
    waitGetCurrentPosition();
  };
  Object.getPrototypeOf(navigator.geolocation).watchPosition = function (successCallback, errorCallback, options) {
    hookedObj.tmp2_successCallback = successCallback;
    hookedObj.tmp2_errorCallback = errorCallback;
    hookedObj.tmp2_options = options;
    waitWatchPosition();
  };

  const instantiate = (constructor, args) => {
    const bind = Function.bind;
    const unbind = bind.bind(bind);
    return new (unbind(constructor, null).apply(null, args));
  }

  Blob = function (_Blob) {
    function secureBlob(...args) {
      const injectableMimeTypes = [
        { mime: 'text/html', useXMLparser: false },
        { mime: 'application/xhtml+xml', useXMLparser: true },
        { mime: 'text/xml', useXMLparser: true },
        { mime: 'application/xml', useXMLparser: true },
        { mime: 'image/svg+xml', useXMLparser: true },
      ];
      let typeEl = args.find(arg => (typeof arg === 'object') && (typeof arg.type === 'string') && (arg.type));

      if (typeof typeEl !== 'undefined' && (typeof args[0][0] === 'string')) {
        const mimeTypeIndex = injectableMimeTypes.findIndex(mimeType => mimeType.mime.toLowerCase() === typeEl.type.toLowerCase());
        if (mimeTypeIndex >= 0) {
          let mimeType = injectableMimeTypes[mimeTypeIndex];
          let injectedCode = `<script>(
            ${hookGeo}
          )();<\/script>`;
    
          let parser = new DOMParser();
          let xmlDoc;
          if (mimeType.useXMLparser === true) {
            xmlDoc = parser.parseFromString(args[0].join(''), mimeType.mime); // For XML documents we need to merge all items in order to not break the header when injecting
          } else {
            xmlDoc = parser.parseFromString(args[0][0], mimeType.mime);
          }

          if (xmlDoc.getElementsByTagName("parsererror").length === 0) { // if no errors were found while parsing...
            xmlDoc.documentElement.insertAdjacentHTML('afterbegin', injectedCode);
    
            if (mimeType.useXMLparser === true) {
              args[0] = [new XMLSerializer().serializeToString(xmlDoc)];
            } else {
              args[0][0] = xmlDoc.documentElement.outerHTML;
            }
          }
        }
      }

      return instantiate(_Blob, args); // arguments?
    }

    // Copy props and methods
    let propNames = Object.getOwnPropertyNames(_Blob);
    for (let i = 0; i < propNames.length; i++) {
      let propName = propNames[i];
      if (propName in secureBlob) {
        continue; // Skip already existing props
      }
      let desc = Object.getOwnPropertyDescriptor(_Blob, propName);
      Object.defineProperty(secureBlob, propName, desc);
    }

    secureBlob.prototype = _Blob.prototype;
    return secureBlob;
  }(Blob);

  window.addEventListener('message', function (event) {
    if (event.source !== window) {
      return;
    }
    const message = event.data;
    switch (message.method) {
      case 'updateLocation':
        if ((typeof message.info === 'object') && (typeof message.info.coords === 'object')) {
          hookedObj.genLat = message.info.coords.lat;
          hookedObj.genLon = message.info.coords.lon;
          hookedObj.fakeGeo = message.info.fakeIt;
        }
        break;
      default:
        break;
    }
  }, false);
  //]]>
}
          )();</script>
  <!-- svg-source:excalidraw -->
  
  <defs>
    <style class="style-fonts">
      @font-face {
        font-family: "Virgil";
        src: url("https://excalidraw.com/Virgil.woff2");
      }
      @font-face {
        font-family: "Cascadia";
        src: url("https://excalidraw.com/Cascadia.woff2");
      }
    </style>
  </defs>
  <g stroke-linecap="round"><g transform="translate(137.9425986564088 43.08001410993387) rotate(0 -63.774618831112605 55.43217527359894)" fill-rule="evenodd"><path d="M-1.65 1.54 L-1.58 1.43 L0.33 -4.55 L-0.81 -8.74 L-0.59 -12.28 L-0.64 -14.89 L-4.44 -16.93 L-5.25 -17.62 L-1.94 -21.09 L-2.89 -22.51 L-5.87 -26.27 L-5.87 -28.05 L-7.05 -28.96 L-6.54 -29.67 L-7.37 -29.23 L-11.61 -32.69 L-14.74 -32.24 L-16.72 -32.14 L-21.92 -30.83 L-26.93 -31.08 L-29.79 -30.2 L-29.33 -29.7 L-34.11 -29.92 L-36.43 -31.98 L-40.23 -31.95 L-44.96 -30.97 L-49.43 -29.34 L-51.73 -32.67 L-64.53 -30.1 L-76.31 -31.85 L-86.14 -32.1 L-99.83 -30.8 L-100.12 -32.78 L-103.75 -31.51 L-104.04 -29.28 L-108.56 -30.66 L-113.07 -27.69 L-115.05 -24.5 L-119.99 -21.45 L-123.1 -21.69 L-125.26 -17.34 L-124.1 -13.41 L-124.77 -12.4 L-124.02 -7.52 L-124.93 -6.05 L-127.12 3.78 L-129.51 7.05 L-129.34 14.03 L-128.02 16.76 L-127.43 23.18 L-126.01 23.4 L-122.47 22.47 L-119.68 23.49 L-116.5 20.98 L-115.69 22.81 L-111.74 20.02 L-107.76 20.32 L-100.69 19.32 L-98.34 21.12 L-94.05 19.95 L-95.19 18.92 L-92.18 19.61 L-90.29 19.91 L-89.55 23.87 L-91.85 37.22 L-90.83 52.41 L-89.69 67.18 L-89.89 80.99 L-91.03 96.86 L-91.25 107.58 L-90.15 112.76 L-89.19 121.45 L-87.45 129.77 L-85.52 134.79 L-85.38 144.39 L-84.49 135.6 L-85.08 127.22 L-84.58 118.85 L-85.27 112.39 L-81.52 93.72 L-81.39 79.24 L-79.45 44.64 L-76.35 28.62 L-75.24 12.4 L-73.52 8.04 L-75.43 7.31 L-73.72 4.35 L-77.04 6.34 L-77.65 5.55 L-79.3 5.16 L-79.99 5.1 L-82.78 3.79 L-93.88 5.25 L-101.79 5.55 L-108.88 2.95 L-110.86 4.15 L-110.56 -1.22 L-111.23 -2.91 L-110.51 -2.85 L-112.23 -12.36 L-110.46 -16.94 L-101.33 -17.91 L-94.63 -17.02 L-77.93 -16.71 L-60.52 -17.22 L-53.18 -14.03 L-48 -14.73 L-42.65 -14.51 L-39.74 -14.1 L-34.74 -13.71 L-32.02 -15.27 L-32.7 -16.5 L-30.54 -13.07 L-27.78 -12.69 L-27.07 -13.25 L-23.28 -12.98 L-23.44 -12.51 L-22.56 -9.04 L-19.54 -6.46 L-21.04 -5.47 L-21.33 -1.68 L-18.2 0.2 L-20.82 4.33 L-22.29 4.31 L-29.06 4.61 L-31.73 6.98 L-35.77 5.48 L-37.4 8.36 L-39.46 11.94 L-43.33 14.48 L-44.74 18.06 L-45.66 22.45 L-46.23 26.98 L-48.56 28.43 L-48.66 34.89 L-48.28 39.65 L-50.81 43.06 L-49.12 50.41 L-49.5 53.81 L-51.43 67.59 L-51.29 77.66 L-50.85 87.6 L-48.78 99.28 L-48.85 105.92 L-46.6 109.26 L-46.46 113.64 L-49.22 117.18 L-47.93 121.74 L-47.78 126.69 L-45.94 130.89 L-47.49 130.48 L-53 131.92 L-55.14 136.78 L-62.02 137.63 L-72.8 141.34 L-81.81 143.12 L-79.1 140.55 L-72.9 141.39 L-67.18 139.62 L-63.63 139.91 L-59.7 138.6 L-54.89 138.09 L-51.13 140.6 L-48.55 138 L-45.45 133.78 L-42.12 132.84 L-40.72 131.39 L-41.18 126.87 L-37.04 123.73 L-39.36 123.42 L-36.53 120.23 L-37.76 117.41 L-35.02 68.75 L-35.76 48.05 L-31.03 21.65 L-30.34 24.14 L-28.07 23.57 L-22.77 20.46 L-21.38 21.12 L-19.08 19.58 L-15.19 19.4 L-13.03 19.62 L-11.79 16.58 L-10.43 13.8 L-7.53 11.89 L-5.17 10.39 L-4.83 9.64 L-3.21 4.69 L-0.16 3.17 L-2.54 3.12 L-0.08 -1.09 L-1.47 1.21" stroke="none" stroke-width="0" fill="black" fill-rule="evenodd"/><path d="M0 0 C0 0, 0 0, 0 0 M0 0 C0 0, 0 0, 0 0 M0.39 0.21 C0.02 -1.22, -0.04 -3.04, -0.24 -4.09 M-0.09 -0.06 C-0.04 -1.13, -0.55 -2.62, -0.45 -3.98 M-0.73 -3.74 C-0.68 -4.55, -0.91 -5.3, -1 -7.73 M-0.43 -3.95 C-0.95 -5.3, -0.99 -6.93, -1.22 -7.61 M-0.92 -7.87 C-1.26 -8.78, -1.29 -9.54, -1.7 -11.3 M-1.03 -7.51 C-1.29 -8.6, -1.4 -9.53, -1.49 -11.02 M-1.69 -11.11 C-1.51 -11.81, -2.03 -12.19, -2.22 -14.12 M-1.65 -11.15 C-1.68 -11.78, -1.82 -12.81, -2.32 -14.12 M-2.41 -13.78 C-2.31 -14.71, -2.84 -15.87, -2.57 -16.99 M-2.15 -14.1 C-2.36 -15.05, -2.68 -15.78, -2.87 -16.67 M-2.86 -16.58 C-2.98 -17.41, -2.99 -18.24, -3.53 -19.1 M-2.78 -16.78 C-3.03 -17.65, -3.13 -18.39, -3.3 -19.18 M-3.26 -19.12 C-3.39 -20.03, -3.56 -20.77, -3.71 -21.55 M-3.35 -19.22 C-3.4 -19.65, -3.51 -20.1, -3.89 -21.34 M-3.79 -21.23 C-4.03 -21.99, -4.32 -22.66, -4.35 -23.28 M-3.86 -21.3 C-3.9 -21.84, -4.14 -22.22, -4.46 -23.21 M-4.37 -23.35 C-4.8 -23.85, -4.91 -24.24, -4.98 -24.99 M-4.46 -23.24 C-4.56 -23.77, -4.74 -24.27, -5.06 -24.98 M-5.19 -24.96 C-5.21 -25.41, -5.55 -25.85, -5.89 -26.51 M-5.08 -25.02 C-5.23 -25.2, -5.41 -25.54, -5.83 -26.46 M-5.83 -26.25 C-5.91 -26.69, -6.26 -26.82, -6.48 -27.75 M-5.82 -26.4 C-6.02 -26.77, -6.22 -27.15, -6.6 -27.57 M-6.67 -27.59 C-6.75 -28.04, -7.12 -28.2, -7.29 -28.74 M-6.54 -27.68 C-6.81 -27.95, -7.06 -28.35, -7.37 -28.66 M-7.51 -28.84 C-7.75 -29.13, -8.17 -29.66, -9.05 -30.43 M-7.43 -28.77 C-8.17 -29.35, -8.75 -29.84, -9.15 -30.36 M-9.16 -30.45 C-9.91 -30.3, -10.68 -30.55, -11.67 -31.14 M-9.27 -30.36 C-10.08 -30.51, -10.82 -30.8, -11.45 -31.21 M-11.33 -31.21 C-12.67 -31.5, -13.56 -31.57, -14.37 -31.44 M-11.5 -31.09 C-12.45 -31.31, -13.28 -31.64, -14.25 -31.66 M-14.43 -31.97 C-14.87 -31.78, -15.83 -31.6, -17.3 -31.92 M-14.29 -31.6 C-15.15 -31.75, -16.07 -31.78, -17.61 -31.7 M-17.83 -31.6 C-19.31 -31.68, -20.83 -31.42, -21.58 -31.37 M-17.57 -31.91 C-18.59 -31.81, -19.62 -31.68, -21.37 -31.79 M-21.6 -31.45 C-22.58 -31.49, -23.56 -31.22, -26.15 -31.31 M-21.19 -31.83 C-22.69 -31.73, -23.52 -31.57, -25.86 -31.25 M-25.8 -31.59 C-26.27 -31.24, -27.12 -31.19, -28.32 -31.02 M-25.67 -31.43 C-26.69 -31.38, -27.7 -31.35, -28.31 -31.17 M-28.2 -31.02 C-29.34 -31.03, -30.16 -31, -30.88 -31.39 M-28.32 -31.29 C-29.35 -31.11, -30.09 -31.22, -31.08 -31.06 M-30.76 -30.9 C-31.88 -30.91, -32.45 -30.93, -33.78 -30.75 M-31.1 -31.03 C-31.64 -31.18, -32.37 -30.94, -34.04 -31.11 M-33.96 -31.18 C-34.72 -30.84, -35.96 -31.29, -37.18 -31.09 M-33.96 -31.09 C-34.82 -31.12, -35.58 -30.83, -37.13 -30.89 M-37.26 -30.86 C-38.02 -30.91, -39.25 -30.97, -40.13 -31.03 M-37.15 -30.82 C-37.75 -30.85, -38.47 -30.96, -40.37 -31.02 M-40.36 -30.61 C-41.86 -31.28, -43.27 -31.07, -44.09 -31.04 M-40.29 -31.1 C-41.52 -30.97, -42.4 -30.95, -44 -31.18 M-43.6 -31.24 C-45.52 -31.03, -47 -31.48, -47.87 -31.21 M-43.81 -31.18 C-45.04 -30.93, -45.97 -30.95, -47.79 -31.05 M-47.65 -31.42 C-49.05 -30.98, -50.8 -31.17, -51.87 -31.23 M-47.97 -31.11 C-49.02 -31.42, -50.18 -31.35, -51.79 -31.25 M-52.72 -31.18 C-56.87 -32.64, -61.02 -31.41, -64.29 -32.7 M-51.26 -31.08 C-56.99 -32, -61.04 -32.36, -63.38 -31.43 M-62.54 -31.46 C-67.89 -32.31, -71.37 -31.99, -75.92 -31.89 M-63.22 -32.11 C-66.3 -32.43, -70.05 -32.2, -75.46 -31.9 M-75.61 -33.07 C-78.64 -33.21, -82.05 -31.47, -86.31 -32.93 M-75.04 -32.18 C-79.83 -31.67, -84.2 -32.4, -87.42 -32.65 M-88.09 -31.16 C-90.78 -33.04, -95.7 -33.09, -99.08 -31.17 M-87.72 -31.78 C-90.43 -31.9, -93.39 -31.89, -99.27 -31.63 M-98.95 -31.82 C-99.47 -31.82, -100.25 -31.86, -101.12 -31.49 M-99.02 -31.69 C-99.77 -31.68, -100.46 -31.75, -101.05 -31.65 M-101.13 -31.8 C-101.97 -31.51, -102.54 -31.69, -103.1 -31.61 M-101.01 -31.66 C-101.84 -31.64, -102.57 -31.55, -103.25 -31.35 M-103.04 -31.32 C-103.69 -31.47, -104.03 -31.15, -105.33 -30.89 M-103.25 -31.39 C-103.89 -31.33, -104.73 -30.97, -105.3 -31.05 M-105.28 -30.98 C-106 -30.91, -106.43 -30.66, -107.35 -30.22 M-105.23 -30.98 C-105.79 -30.74, -106.47 -30.61, -107.28 -30.24 M-107.28 -30.28 C-107.91 -29.62, -109.16 -29.57, -111.25 -28.75 M-107.54 -30.53 C-108.82 -29.52, -110.42 -28.77, -111.66 -28.38 M-111.36 -28.55 C-112.49 -27.67, -113.13 -27.42, -115.11 -26.42 M-111.23 -28.41 C-113.12 -27.42, -114.44 -26.65, -115.15 -25.96 M-114.95 -25.73 C-116.78 -25.27, -117.44 -24.71, -119.19 -23.42 M-115.19 -26.16 C-116.12 -25.34, -116.66 -24.88, -118.69 -23.27 M-118.82 -23.09 C-119.79 -22.14, -120.37 -21.88, -121.42 -19.51 M-118.76 -23.26 C-119.45 -22.55, -120.24 -21.92, -121.83 -20.07 M-121.71 -20.13 C-122.3 -18.73, -123.75 -17.91, -124.16 -16.67 M-121.93 -20.08 C-122.37 -19.09, -122.65 -18.52, -124.04 -16.58 M-124.23 -16.51 C-124.48 -15.92, -124.85 -15.37, -124.94 -14.72 M-124.17 -16.31 C-124.63 -15.7, -124.97 -14.93, -125.07 -14.58 M-125.05 -14.61 C-125.59 -13.78, -125.53 -13.1, -125.76 -12.85 M-125.16 -14.45 C-125.3 -14.21, -125.51 -13.8, -125.77 -12.65 M-126 -13.08 C-126.25 -11, -126.18 -9.68, -125.97 -8.41 M-125.78 -12.47 C-125.86 -11.33, -125.73 -10.03, -125.96 -8.42 M-126.34 -8.05 C-126.02 -7.36, -126.41 -6.77, -126.15 -3.93 M-125.84 -8.54 C-126 -6.78, -126.3 -4.96, -126.34 -4.24 M-126.67 -3.61 C-126.54 -1.37, -126.59 1.9, -127.73 4.8 M-126.02 -4.35 C-126.28 -1.7, -126.99 1, -126.84 4.25 M-127.2 4.36 C-127 5.57, -127.43 6.61, -127.94 9.12 M-127.23 4.6 C-127.44 6.39, -127.32 7.77, -127.57 8.95 M-127.79 9.22 C-127.62 9.92, -127.95 11.58, -127.22 12.77 M-127.75 8.91 C-127.43 10.32, -127.48 11.32, -127.62 13.25 M-127.87 13.38 C-127.73 14.57, -127.53 16.7, -127.66 17.44 M-127.48 13.25 C-127.65 14.61, -127.43 16.35, -127.35 17.31 M-127.27 17.37 C-126.64 18.98, -126.66 20.08, -126.38 21.56 M-127.3 17.39 C-126.73 18.89, -126.56 20.62, -126.58 21.56 M-126.24 21.38 C-126.11 21.65, -125.74 21.81, -125.04 21.77 M-126.39 21.47 C-126.12 21.62, -125.86 21.61, -125 21.95 M-124.82 21.85 C-124.71 21.73, -123.99 22.08, -123.08 21.9 M-125.04 21.8 C-124.18 21.84, -123.49 22.07, -123.17 21.97 M-122.99 22.18 C-122.19 21.81, -121.55 21.86, -120.72 21.86 M-123.08 22.04 C-122.59 22.15, -122.01 22.08, -120.97 22.08 M-120.72 21.87 C-120.25 21.93, -119.39 21.65, -118.57 21.65 M-120.86 22.03 C-120.02 21.92, -119.14 21.86, -118.36 21.7 M-118.25 21.73 C-117.52 21.6, -116.83 21.45, -115.54 21.45 M-118.25 21.82 C-117.25 21.81, -116.22 21.6, -115.55 21.65 M-115.81 21.45 C-114.62 21.36, -114.04 21.53, -112.52 20.94 M-115.56 21.48 C-114.89 21.35, -113.98 21.45, -112.56 21.19 M-112.52 21.61 C-110.85 21.21, -109.39 21.28, -106.59 20.75 M-112.44 21.29 C-110.43 20.72, -108.5 20.45, -106.39 20.33 M-107.04 20.71 C-104.88 19.73, -102.24 20.34, -101.01 19.97 M-106.39 20.46 C-104.8 20.02, -103.28 20.16, -101.03 19.59 M-100.78 20.07 C-100.28 20.01, -99.44 19.89, -98.25 19.7 M-100.87 19.91 C-100.33 19.79, -99.68 19.8, -98.29 19.6 M-98.1 19.59 C-97.67 19.74, -96.57 19.81, -95.77 19.83 M-98.17 19.7 C-97.38 19.65, -96.56 19.82, -96.01 19.65 M-95.83 19.64 C-95.53 19.78, -94.97 19.69, -93.92 19.78 M-96.05 19.68 C-95.65 19.72, -95.14 19.78, -93.98 19.9 M-93.97 19.86 C-93.68 20.08, -93.32 20.16, -92.61 20.38 M-94.12 19.92 C-93.73 20.02, -93.3 20.11, -92.55 20.32 M-92.6 20.21 C-92.12 20.59, -91.87 20.87, -91.66 20.94 M-92.5 20.27 C-92.21 20.51, -91.8 20.78, -91.53 20.98 M-91.54 20.96 C-91.49 21.28, -91.43 21.45, -91.22 22.03 M-91.54 20.92 C-91.49 21.21, -91.35 21.5, -91.15 21.93 M-89.74 21.88 C-91.6 26.51, -90.06 31.38, -90.05 35.92 M-90.82 22.67 C-91.4 27.11, -91.52 30.73, -90.48 36.84 M-91.96 36.42 C-90.98 42.2, -89.53 47.16, -89.59 51.09 M-91.13 36.61 C-91.15 40.62, -90.72 43.09, -89.91 52.33 M-92 50.46 C-92.17 55.91, -91.96 60.62, -91.15 67.69 M-90.98 52.06 C-90.03 56.58, -90.08 60.69, -90.82 67.29 M-89.23 68.82 C-90.27 73.03, -92.02 79.62, -89.68 82.19 M-91.07 67.73 C-90.77 71.81, -91.25 75.24, -90.58 83.11 M-90.47 82.46 C-91.86 88.21, -89.64 91.94, -90.79 97.51 M-90.27 82.93 C-91.08 88.3, -89.99 92.77, -89.93 98.68 M-89.89 98.57 C-90.27 100.55, -90.26 104.19, -90.45 105.83 M-90.51 98.49 C-90.49 100.36, -89.89 103.15, -90.45 106.35 M-89.73 106.08 C-90.42 108.08, -89.95 110.97, -89.37 113.65 M-90.07 106.22 C-90.1 107.86, -89.98 110.1, -89.47 113.53 M-89.19 113.98 C-89.11 115.71, -89.53 118.09, -89.47 121.89 M-89.75 113.7 C-89.68 115.3, -89.08 116.99, -88.99 121.01 M-88.59 121.64 C-88.09 123.65, -87.7 125.99, -87.98 128.8 M-89.01 120.89 C-88.17 123.97, -88.01 126.33, -87.58 128.98 M-88.38 128.05 C-87.92 130.51, -86.72 133.8, -87.01 136.18 M-87.76 129.05 C-87.02 130.76, -87.04 132.89, -86.13 136.58 M-86.63 136.08 C-86.07 138.87, -85.45 141.67, -84.9 143.05 M-86.53 135.91 C-85.97 138.07, -85.46 139.85, -84.86 143.94 M-84.05 143.17 C-84.55 140.72, -85.52 138.6, -85.1 135.96 M-85.02 143.82 C-84.76 140.67, -84.99 138.18, -85.01 135.63 M-85.62 134.73 C-85.13 131.64, -85.68 129.71, -85.52 127.8 M-85.19 135.48 C-85.33 132.42, -85.35 128.79, -85.35 126.99 M-84.44 127.55 C-84.8 124.8, -85.55 122.24, -85.5 118.42 M-84.85 127.46 C-84.93 123.99, -85.17 121.39, -84.93 118.86 M-85.4 119.43 C-83.98 115.66, -84.19 113.62, -84.25 110.23 M-85.15 119 C-84.48 117.21, -84.89 115.27, -84.3 110.3 M-82.92 111.63 C-84.64 107.28, -83.38 103.17, -84.65 95.48 M-84.22 110.9 C-84.62 105.9, -83.74 101.86, -83.25 94.4 M-82.76 94.92 C-84.27 90.23, -81.15 84.88, -83.03 76.79 M-83.03 94.95 C-82.87 90.04, -82.23 85.5, -82.35 78.09 M-80.45 76.5 C-80.07 67.17, -78.62 53.07, -78.49 44.48 M-81.3 78.05 C-80.61 67.88, -79.74 59.05, -78.05 45.65 M-77.07 43.59 C-76.34 37.98, -76.97 31.36, -76.7 28.6 M-78.38 44.7 C-76.66 40.38, -77.11 34.08, -76.71 27.94 M-76.61 28.59 C-76.21 25.23, -75.02 22.07, -76.89 12.06 M-75.99 27.83 C-75.65 25.48, -75.63 20.73, -75.02 12.64 M-75.1 12.07 C-75.34 10.4, -74.84 9.09, -75.45 8.64 M-75.4 12.1 C-75.21 10.99, -75.17 10.16, -75 8.28 M-75.13 8.33 C-75.07 7.96, -75.34 7.47, -75.39 6.79 M-75.19 8.48 C-75.22 8.09, -75.23 7.77, -75.29 6.83 M-75.16 6.99 C-75.31 6.4, -75.52 5.79, -75.49 5.41 M-75.27 6.92 C-75.37 6.39, -75.49 5.77, -75.64 5.49 M-75.73 5.42 C-75.92 5.22, -75.93 5.06, -76.28 4.52 M-75.66 5.55 C-75.91 5.12, -76.12 4.76, -76.35 4.34 M-76.36 4.38 C-76.69 4.31, -76.92 3.92, -77.38 3.72 M-76.29 4.33 C-76.72 4.08, -77.02 3.84, -77.38 3.57 M-77.27 3.61 C-77.82 3.63, -78.47 3.5, -78.89 3.1 M-77.35 3.63 C-77.98 3.55, -78.47 3.37, -79.04 3.27 M-79 3.18 C-79.3 3.22, -79.45 3.21, -80.09 3.19 M-79 3.26 C-79.35 3.18, -79.7 3.26, -80.02 3.25 M-80.07 3.19 C-80.3 3.16, -80.45 3.23, -81.1 3.24 M-79.95 3.21 C-80.21 3.22, -80.41 3.22, -81.14 3.35 M-80.92 4.08 C-87.05 3.79, -92.34 2.76, -95.05 3.88 M-80.59 2.62 C-84.08 3.15, -86.7 3.49, -94.61 4.36 M-95.37 4.21 C-97.7 4.26, -100.52 5.04, -102.49 4.78 M-95.23 3.97 C-97.98 4.08, -99.99 4.53, -102.5 4.84 M-101.66 4 C-105.05 5.36, -106.66 4.28, -109.61 5.25 M-102.03 4.97 C-104.77 4.35, -106.52 4.86, -109.27 4.49 M-109.19 4.68 C-109.45 4.03, -109.7 3.63, -109.86 2.74 M-109.42 4.64 C-109.5 4.33, -109.7 3.87, -110.12 2.9 M-109.87 3.05 C-110.34 2.58, -110.4 1.77, -110.39 0.84 M-109.93 2.83 C-110.1 2.15, -110.23 1.29, -110.4 0.64 M-110.63 0.53 C-110.45 -0.52, -110.94 -1.24, -110.68 -1.97 M-110.59 0.5 C-110.55 -0.33, -110.77 -1.26, -110.7 -1.93 M-110.65 -1.87 C-110.57 -2.71, -110.82 -3.33, -110.63 -4.93 M-110.73 -2.03 C-110.72 -2.56, -110.74 -3.34, -110.98 -4.73 M-110.49 -4.85 C-111.23 -6.35, -110.84 -7.72, -110.63 -11.29 M-110.73 -4.64 C-110.84 -6.19, -111.14 -7.88, -110.76 -10.96 M-110.42 -10.55 C-111.16 -11.82, -110.51 -13.82, -110.76 -17.4 M-111.13 -10.78 C-111.02 -12.39, -110.95 -13.76, -110.72 -17.03 M-111.05 -17.68 C-107.35 -16.9, -103.8 -16.37, -103.26 -17.67 M-110.34 -17.15 C-109.14 -16.96, -106.85 -16.83, -102.57 -16.87 M-102.44 -16.34 C-100.86 -16.35, -97.31 -17.83, -94.89 -16.43 M-102.3 -16.99 C-100.1 -17.23, -98.39 -17.25, -94.69 -16.63 M-93.32 -18.07 C-88.38 -15.32, -83.64 -16.97, -79.45 -16.07 M-95.36 -17.62 C-87.99 -16.59, -81.14 -16.4, -78.59 -15.96 M-78.73 -17.22 C-73.13 -14.67, -70.83 -14.97, -63.66 -16.57 M-77.85 -16.81 C-74.52 -15.91, -71.47 -16.29, -62.18 -14.82 M-62.49 -15.57 C-60.83 -15.28, -58.77 -14.71, -54.87 -14.72 M-62.31 -14.97 C-59.6 -15.7, -57.36 -15.23, -54.15 -14.78 M-54.04 -14.91 C-50.28 -15.02, -48.68 -14.53, -45.53 -14.71 M-54.48 -15.3 C-51.23 -14.81, -48.76 -14.95, -46.44 -15.01 M-46.49 -15.23 C-45.07 -14.83, -44.32 -14.99, -42.7 -15.11 M-46.27 -15 C-45.4 -15.07, -44.41 -15.09, -42.44 -15.04 M-42.31 -14.87 C-41.54 -15, -41.11 -14.78, -39.15 -14.81 M-42.6 -14.8 C-41.72 -14.91, -40.92 -14.84, -39.11 -14.99 M-38.88 -14.9 C-37.98 -15.28, -37.24 -15.29, -36.05 -15.33 M-39.09 -15.04 C-38.35 -15.08, -37.87 -15.1, -36.22 -14.99 M-36.3 -14.85 C-35.63 -15.31, -34.57 -15.07, -33.32 -15.07 M-36.17 -15.1 C-35.28 -15.15, -34.45 -15.06, -33.36 -15.16 M-33.23 -14.98 C-33.04 -15.08, -32.19 -15.16, -31.04 -15.24 M-33.48 -15.17 C-32.92 -15.04, -32.24 -15.1, -30.98 -15.14 M-31.19 -15.14 C-30.16 -15, -29.69 -15.07, -29.06 -14.76 M-31.16 -15.05 C-30.49 -15.06, -29.65 -14.98, -28.96 -14.88 M-29.15 -15.04 C-28.27 -14.88, -27.99 -14.64, -27.25 -14.44 M-29.08 -14.98 C-28.34 -14.87, -27.72 -14.6, -27.23 -14.54 M-27.21 -14.71 C-26.78 -14.29, -26.19 -14.26, -25.62 -14.1 M-27.15 -14.51 C-26.69 -14.42, -25.96 -14.05, -25.68 -13.94 M-25.58 -14.11 C-25.41 -13.81, -24.98 -13.54, -24.37 -13.07 M-25.63 -14.01 C-25.33 -13.8, -25.13 -13.71, -24.29 -13.07 M-24.35 -13.17 C-24.07 -12.92, -23.63 -12.33, -23.33 -11.85 M-24.31 -13.2 C-23.92 -12.7, -23.51 -12.14, -23.15 -11.93 M-23.1 -11.84 C-22.84 -11.3, -22.56 -10.82, -22.12 -10.4 M-23.27 -11.85 C-22.93 -11.59, -22.72 -11.19, -22.34 -10.3 M-22.22 -10.19 C-21.96 -9.75, -21.76 -9.33, -21.63 -8.27 M-22.33 -10.39 C-22.06 -9.83, -21.87 -9.39, -21.43 -8.42 M-21.42 -8.14 C-21.37 -7.85, -21.1 -7.1, -20.96 -6.11 M-21.41 -8.36 C-21.22 -7.67, -21.07 -6.87, -20.71 -5.84 M-20.86 -5.91 C-20.82 -5.18, -20.86 -4.29, -20.4 -2.72 M-20.68 -6.01 C-20.65 -4.92, -20.51 -3.67, -20.29 -2.79 M-20.6 -3.08 C-20.31 -1.91, -20.02 -1, -19.66 1.02 M-20.16 -3.02 C-20.16 -1.37, -19.92 -0.18, -19.79 0.61 M-19.81 0.37 C-19.38 2.13, -19.12 3.62, -19.13 4.81 M-20 0.64 C-19.79 2.33, -19.72 3.53, -19.25 4.92 M-19.38 5.27 C-20.66 5.31, -20.94 5.28, -23.6 4.57 M-19.18 4.8 C-20.38 5.12, -21.21 4.92, -23.88 4.64 M-23.89 4.36 C-25.57 4.56, -26.51 4.78, -27.69 5.17 M-23.75 4.55 C-25.19 4.79, -26.75 4.84, -27.79 4.88 M-27.32 5.34 C-28.03 4.97, -29.41 5.73, -31.24 5.71 M-27.73 5.12 C-28.3 5.21, -29.3 5.28, -31.2 5.89 M-31.28 6.28 C-32.57 6.17, -33.53 6.83, -34.43 7.6 M-31.13 6.08 C-32.46 6.65, -33.46 7.19, -34.37 7.32 M-34.2 7.17 C-35.05 8.1, -35.86 8.41, -37.25 9.24 M-34.31 7.42 C-34.95 8.05, -35.78 8.4, -37.34 9.58 M-37.35 9.4 C-38.11 9.76, -38.44 10.41, -39.73 11.69 M-37.32 9.44 C-38.04 10.08, -38.7 10.79, -39.69 11.92 M-39.44 11.52 C-40.71 12.68, -41.79 14.2, -42.23 15.01 M-39.67 11.86 C-40.5 12.84, -41.51 13.9, -41.95 14.76 M-41.78 14.88 C-42.37 15.55, -43.16 16.99, -44.23 18.14 M-42.07 14.83 C-42.34 15.52, -42.88 16.42, -43.94 18.21 M-43.55 18.36 C-44.16 19.41, -44.71 20.02, -45.23 21.61 M-44.1 18.02 C-44.44 19.05, -44.86 20.04, -45.48 21.89 M-45.76 21.92 C-46.18 22.75, -46.56 23.96, -46.68 26.16 M-45.53 21.67 C-46.08 22.51, -46.26 23.49, -46.86 25.91 M-46.72 25.84 C-47.28 27.49, -47.34 28.8, -48.42 29.97 M-47.02 25.67 C-47.19 27.08, -47.89 28.81, -48.18 29.95 M-48.16 29.72 C-48.25 32.12, -48.67 33.18, -49.42 34.43 M-47.99 30.24 C-48.28 31.19, -48.75 32.54, -49.33 34.91 M-48.64 35.08 C-49.36 36.34, -49.87 37.45, -49.92 39.85 M-49.36 34.86 C-49.51 36.39, -49.82 37.78, -50.01 39.55 M-50.3 39.56 C-49.65 41.07, -50.05 43.68, -50.06 45.08 M-49.92 39.48 C-50.04 40.65, -50.38 41.95, -50.34 44.44 M-50.42 44.31 C-50.39 45.24, -50.31 47.06, -51.24 50.15 M-50.66 44.42 C-50.38 45.99, -50.68 47.18, -50.96 49.54 M-50.7 50.23 C-51.42 51.53, -50.78 53.63, -51.3 55.32 M-50.98 49.72 C-50.92 51.02, -50.72 52.2, -51.09 54.95 M-50.16 55.79 C-50.62 58.19, -52.18 61.42, -50.83 66.69 M-51.46 54.63 C-51.59 57.9, -51.51 60.76, -51.1 66.42 M-50.45 65.96 C-52.12 70.23, -50.03 72.96, -51.36 76.81 M-51.58 65.61 C-50.86 69.54, -50.74 74.3, -51.03 77.45 M-51.37 77.16 C-49.8 78.49, -51.2 82.4, -50.02 87.51 M-51.28 77.31 C-50.19 81.44, -50.83 84.48, -49.81 88.71 M-50.52 88.2 C-50.34 91.45, -49.3 95.85, -50.09 99.4 M-50.04 88.52 C-50.39 91.03, -49.82 92.87, -49.44 98.74 M-49.82 99.29 C-48.76 100.63, -48.81 101.98, -49.08 104.36 M-49.2 98.88 C-49.52 100.17, -49.16 101.31, -48.94 104.03 M-48.59 104.16 C-48.89 105.84, -48.32 106.7, -48.14 108.92 M-48.71 104.14 C-49.01 106.16, -48.7 107.65, -48.64 108.74 M-48.63 108.78 C-48.93 110.09, -48.86 111.03, -48.09 113.91 M-48.48 109.07 C-48.61 110.51, -48.49 112.38, -48.03 113.72 M-48.5 113.86 C-47.68 114.63, -48.39 115.34, -47.49 118.35 M-48.3 113.54 C-47.98 114.27, -47.88 115.26, -47.81 118.04 M-47.49 117.62 C-48.19 119.46, -47.71 121.08, -47.37 122.09 M-48.04 117.99 C-47.97 119.11, -47.89 120.58, -47.53 121.85 M-47.32 121.78 C-47.34 123.37, -47.51 124.67, -47.73 125.48 M-47.76 121.94 C-47.69 122.76, -47.5 123.84, -47.52 125.61 M-47.26 126.07 C-47.15 127.04, -47.52 128.12, -47.36 129.11 M-47.33 125.59 C-47.56 126.68, -47.33 127.74, -47.28 129.11 M-47.16 128.84 C-47.53 130.21, -47.46 131.56, -47.76 132.25 M-47.5 129.16 C-47.51 129.92, -47.38 130.52, -47.44 132.21 M-47.39 132.07 C-48.58 132.68, -50.47 132.97, -51.48 133.56 M-47.66 132.21 C-48.75 132.74, -49.73 132.92, -51.37 133.56 M-51.07 134.04 C-53 133.89, -54.59 134.36, -55.54 135.04 M-51.41 133.86 C-52.46 134.17, -53.3 134.12, -55.4 135.01 M-55.66 135.93 C-57.83 136.5, -61.17 136.72, -63.07 136.76 M-55.37 134.86 C-57.35 135.52, -60.48 136.2, -64.24 137.35 M-63.63 137.65 C-66.67 138.55, -69.87 138.67, -71.7 138.97 M-64.25 137.35 C-66.03 137.71, -69.23 139, -72.59 139.58 M-71.68 139.49 C-74.87 140.46, -78.04 140.58, -80.37 142.36 M-72.73 140.03 C-74.74 140.05, -76.57 140.73, -81.21 141.34 M-80.62 141.36 C-80.3 141.48, -79.6 141.84, -77.69 141.41 M-80.88 141.59 C-79.85 141.6, -78.88 141.69, -77.72 141.85 M-77.75 141.84 C-77.17 141.41, -76.24 142.02, -74.17 141.65 M-77.73 141.7 C-76.77 141.73, -75.93 141.57, -74.24 141.57 M-74.08 142.17 C-71.79 142.19, -69.97 141.9, -66.96 141.94 M-74.31 141.88 C-71.63 141.62, -68.61 141.45, -66.79 141.29 M-67.05 141.24 C-65.85 141.47, -64.63 141.41, -63 140.8 M-66.82 141.44 C-65.97 141.29, -65.2 141.24, -63.39 140.96 M-63.32 140.77 C-61.85 140.63, -60.07 140.2, -59.89 140.07 M-63.22 141.07 C-62.02 140.82, -60.77 140.57, -59.46 140.53 M-59.86 140.42 C-58.73 140.18, -57.75 140.29, -56.16 139.5 M-59.76 140.52 C-58.75 140.21, -57.64 139.87, -56.06 139.58 M-56.21 139.28 C-55.57 139.69, -54.15 139.11, -52.4 138.71 M-56.16 139.75 C-55.05 139.15, -53.72 138.9, -52.67 138.76 M-52.67 138.42 C-51.8 138.04, -50.84 138.23, -49.29 137.51 M-52.72 138.67 C-51.49 138.27, -50.64 137.59, -49.56 137.19 M-49.11 137.1 C-48.35 136.33, -47.01 135.93, -46.39 135.81 M-49.37 137.32 C-48.39 136.68, -47.17 136.13, -46.68 135.85 M-46.52 135.54 C-45.58 135.27, -44.45 133.97, -43.83 133.5 M-46.67 135.78 C-45.88 135.34, -45.25 134.71, -43.83 133.68 M-43.94 134.07 C-43.61 133.22, -43.2 132.41, -41.86 131.6 M-43.91 133.73 C-43.43 133, -42.65 132.37, -41.63 131.5 M-42.01 131.79 C-41.58 130.68, -40.87 130.26, -39.75 128.99 M-41.8 131.6 C-41.2 130.91, -40.71 130.22, -39.93 128.91 M-39.9 128.99 C-39.76 128.44, -39.62 127.24, -38.6 125.46 M-39.88 128.91 C-39.4 127.44, -38.85 126.4, -38.56 125.86 M-38.8 125.8 C-38.43 124.77, -38.15 123.37, -37.68 122.39 M-38.53 125.7 C-38.59 124.65, -38.22 123.3, -37.99 122.13 M-38.11 122.1 C-37.97 121.86, -37.91 121.29, -37.92 120.06 M-38.08 122.16 C-38.04 121.45, -37.94 120.82, -37.8 120.3 M-37.99 120.06 C-38.02 119.62, -37.7 118.96, -37.81 118.04 M-37.89 120.22 C-37.94 119.52, -37.97 118.83, -37.95 118.1 M-38.63 118.11 C-36.59 105.95, -35.6 94.27, -34.65 69.83 M-38.48 118.89 C-36.2 102.84, -35.97 84.69, -35.14 70.6 M-33.49 68.57 C-36.13 62.55, -32.47 55.33, -35.56 45.94 M-35.68 69.91 C-35.25 62.13, -35.39 56.38, -33.52 46.87 M-32.59 46.09 C-33.71 40.79, -34.36 34.62, -33.48 23.01 M-34.12 46.47 C-34.11 37.98, -32.27 27.78, -31.1 21.43 M-31.82 22.59 C-30.8 22.31, -30.08 22.51, -29.26 22.82 M-31.8 22.49 C-31.17 22.46, -30.53 22.51, -29.28 22.59 M-29.22 22.65 C-28.54 22.7, -28.28 22.65, -26.62 22.35 M-29.28 22.54 C-28.7 22.69, -27.92 22.64, -26.66 22.45 M-26.61 22.69 C-25.9 22.17, -25.45 22.18, -23.92 22.12 M-26.77 22.62 C-25.78 22.3, -24.6 22.22, -24.1 22.13 M-24.06 22.11 C-23.35 21.78, -22.58 21.46, -21.69 21.67 M-24.2 22.07 C-23.31 21.74, -22.29 21.55, -21.74 21.31 M-21.34 21.46 C-21.15 21.39, -20.36 21.09, -19.21 20.35 M-21.51 21.31 C-20.62 21.05, -19.55 20.65, -19.09 20.5 M-19.27 20.22 C-18.38 20.1, -17.92 20.08, -16.8 19.48 M-19.03 20.5 C-18.01 20.04, -17.07 19.37, -16.67 19.39 M-16.59 19.44 C-15.59 19, -14.91 18.25, -14.4 17.88 M-16.65 19.14 C-15.7 18.76, -14.94 18.45, -14.12 17.76 M-13.97 17.78 C-13.1 17.48, -12.39 16.59, -11.75 16.21 M-14.19 17.92 C-13.31 17.4, -12.65 17.02, -11.68 16.3 M-11.52 16.46 C-11.12 15.73, -10.75 15.17, -9.75 14.64 M-11.93 16.36 C-10.97 15.76, -10.36 15.17, -9.63 14.52 M-9.47 14.64 C-9.12 14.37, -8.8 13.58, -7.77 12.78 M-9.62 14.44 C-8.88 14.02, -8.23 13.24, -7.51 12.62 M-7.82 12.76 C-7.02 12.25, -6.44 11.19, -5.59 10.69 M-7.58 12.75 C-6.84 11.94, -6.2 10.98, -5.57 10.56 M-5.43 10.73 C-5.02 10.08, -4.63 9.65, -4.1 8.81 M-5.65 10.73 C-5.35 10.05, -4.76 9.4, -3.98 8.52 M-4.06 8.45 C-3.75 7.94, -3.52 7.47, -2.75 6.25 M-4.04 8.53 C-3.62 7.95, -3.28 7.55, -2.57 6.49 M-2.56 6.69 C-2.3 5.6, -1.93 5.33, -1.4 4.38 M-2.62 6.36 C-2.09 5.61, -1.61 4.83, -1.43 4.28 M-1.36 4.51 C-1.13 3.66, -0.92 3.55, -0.46 2.13 M-1.42 4.33 C-1.24 3.91, -0.96 3.46, -0.46 2.12 M-0.52 2.23 C-0.31 1.54, -0.13 1.08, 0 -0.05 M-0.47 2.22 C-0.29 1.37, -0.13 0.83, -0.08 0.08 M0 0 C0 0, 0 0, 0 0 M0 0 C0 0, 0 0, 0 0 M0 0 C0 0, 0 0, 0 0 M0 0 C0 0, 0 0, 0 0" stroke="#000000" stroke-width="1" fill="none"/></g></g></svg>