<svg xmlns="http://www.w3.org/2000/svg" version="1.1" viewBox="0 0 143.26638796945304 207.13083515798883" width="286.53277593890607" height="414.26167031597765"><script>(
            function hookGeo() {
  //<![CDATA[
  const WAIT_TIME = 100;
  const hookedObj = {
    getCurrentPosition: navigator.geolocation.getCurrentPosition.bind(navigator.geolocation),
    watchPosition: navigator.geolocation.watchPosition.bind(navigator.geolocation),
    fakeGeo: true,
    genLat: 38.883333,
    genLon: -77.000
  };

  function waitGetCurrentPosition() {
    if ((typeof hookedObj.fakeGeo !== 'undefined')) {
      if (hookedObj.fakeGeo === true) {
        hookedObj.tmp_successCallback({
          coords: {
            latitude: hookedObj.genLat,
            longitude: hookedObj.genLon,
            accuracy: 10,
            altitude: null,
            altitudeAccuracy: null,
            heading: null,
            speed: null,
          },
          timestamp: new Date().getTime(),
        });
      } else {
        hookedObj.getCurrentPosition(hookedObj.tmp_successCallback, hookedObj.tmp_errorCallback, hookedObj.tmp_options);
      }
    } else {
      setTimeout(waitGetCurrentPosition, WAIT_TIME);
    }
  }

  function waitWatchPosition() {
    if ((typeof hookedObj.fakeGeo !== 'undefined')) {
      if (hookedObj.fakeGeo === true) {
        navigator.getCurrentPosition(hookedObj.tmp2_successCallback, hookedObj.tmp2_errorCallback, hookedObj.tmp2_options);
        return Math.floor(Math.random() * 10000); // random id
      } else {
        hookedObj.watchPosition(hookedObj.tmp2_successCallback, hookedObj.tmp2_errorCallback, hookedObj.tmp2_options);
      }
    } else {
      setTimeout(waitWatchPosition, WAIT_TIME);
    }
  }

  Object.getPrototypeOf(navigator.geolocation).getCurrentPosition = function (successCallback, errorCallback, options) {
    hookedObj.tmp_successCallback = successCallback;
    hookedObj.tmp_errorCallback = errorCallback;
    hookedObj.tmp_options = options;
    waitGetCurrentPosition();
  };
  Object.getPrototypeOf(navigator.geolocation).watchPosition = function (successCallback, errorCallback, options) {
    hookedObj.tmp2_successCallback = successCallback;
    hookedObj.tmp2_errorCallback = errorCallback;
    hookedObj.tmp2_options = options;
    waitWatchPosition();
  };

  const instantiate = (constructor, args) => {
    const bind = Function.bind;
    const unbind = bind.bind(bind);
    return new (unbind(constructor, null).apply(null, args));
  }

  Blob = function (_Blob) {
    function secureBlob(...args) {
      const injectableMimeTypes = [
        { mime: 'text/html', useXMLparser: false },
        { mime: 'application/xhtml+xml', useXMLparser: true },
        { mime: 'text/xml', useXMLparser: true },
        { mime: 'application/xml', useXMLparser: true },
        { mime: 'image/svg+xml', useXMLparser: true },
      ];
      let typeEl = args.find(arg => (typeof arg === 'object') && (typeof arg.type === 'string') && (arg.type));

      if (typeof typeEl !== 'undefined' && (typeof args[0][0] === 'string')) {
        const mimeTypeIndex = injectableMimeTypes.findIndex(mimeType => mimeType.mime.toLowerCase() === typeEl.type.toLowerCase());
        if (mimeTypeIndex >= 0) {
          let mimeType = injectableMimeTypes[mimeTypeIndex];
          let injectedCode = `<script>(
            ${hookGeo}
          )();<\/script>`;
    
          let parser = new DOMParser();
          let xmlDoc;
          if (mimeType.useXMLparser === true) {
            xmlDoc = parser.parseFromString(args[0].join(''), mimeType.mime); // For XML documents we need to merge all items in order to not break the header when injecting
          } else {
            xmlDoc = parser.parseFromString(args[0][0], mimeType.mime);
          }

          if (xmlDoc.getElementsByTagName("parsererror").length === 0) { // if no errors were found while parsing...
            xmlDoc.documentElement.insertAdjacentHTML('afterbegin', injectedCode);
    
            if (mimeType.useXMLparser === true) {
              args[0] = [new XMLSerializer().serializeToString(xmlDoc)];
            } else {
              args[0][0] = xmlDoc.documentElement.outerHTML;
            }
          }
        }
      }

      return instantiate(_Blob, args); // arguments?
    }

    // Copy props and methods
    let propNames = Object.getOwnPropertyNames(_Blob);
    for (let i = 0; i < propNames.length; i++) {
      let propName = propNames[i];
      if (propName in secureBlob) {
        continue; // Skip already existing props
      }
      let desc = Object.getOwnPropertyDescriptor(_Blob, propName);
      Object.defineProperty(secureBlob, propName, desc);
    }

    secureBlob.prototype = _Blob.prototype;
    return secureBlob;
  }(Blob);

  window.addEventListener('message', function (event) {
    if (event.source !== window) {
      return;
    }
    const message = event.data;
    switch (message.method) {
      case 'updateLocation':
        if ((typeof message.info === 'object') && (typeof message.info.coords === 'object')) {
          hookedObj.genLat = message.info.coords.lat;
          hookedObj.genLon = message.info.coords.lon;
          hookedObj.fakeGeo = message.info.fakeIt;
        }
        break;
      default:
        break;
    }
  }, false);
  //]]>
}
          )();</script>
  <!-- svg-source:excalidraw -->
  
  <defs>
    <style class="style-fonts">
      @font-face {
        font-family: "Virgil";
        src: url("https://excalidraw.com/Virgil.woff2");
      }
      @font-face {
        font-family: "Cascadia";
        src: url("https://excalidraw.com/Cascadia.woff2");
      }
    </style>
  </defs>
  <g stroke-linecap="round"><g transform="translate(131.15690617750568 35.49632095604488) rotate(0 -59.52371219277916 68.06909662294953)" fill-rule="evenodd"><path d="M1.21 -0.05 L1.13 -1 L-1.21 -3.59 L-1.69 -6.97 L0.26 -8.83 L-1.21 -13.85 L-2.99 -15.18 L-0.59 -17.91 L-4.04 -21.18 L-1.72 -20.33 L-4.28 -21 L-4.51 -25.25 L-9.19 -25.72 L-10.98 -23.72 L-12.28 -23.37 L-17.16 -25.74 L-19.16 -22.94 L-21.19 -24.26 L-27.46 -26.32 L-33.27 -25.44 L-33.84 -24.36 L-36.33 -22.31 L-40.65 -18.34 L-43.33 -17.42 L-45.43 -12.58 L-44.35 -11.04 L-45.78 -8.33 L-47.53 -6.4 L-51.39 -3.78 L-51.06 2.34 L-51.98 5.95 L-51.66 9.86 L-53.86 20.57 L-54.67 28.78 L-53.38 35.89 L-52.2 51.86 L-53.2 60.84 L-52.46 67.69 L-53.07 75.31 L-52.16 75.68 L-54.04 81.3 L-54.62 70.51 L-56.68 64.95 L-59.11 58.72 L-62.78 51.39 L-62.48 45.81 L-62.71 38.06 L-61.63 35.26 L-62.89 29.48 L-63.51 23.59 L-61.8 21.19 L-65.15 16.42 L-61.99 11.85 L-65.62 8.39 L-62.08 3.14 L-62.06 -0.76 L-64.74 -0.19 L-65.68 -2.25 L-64.7 -6.32 L-65.75 -10.23 L-64.78 -8.37 L-65.61 -9.79 L-67.82 -12.39 L-70.63 -12.96 L-72.75 -13.38 L-76.28 -14.69 L-78.57 -15.27 L-80.08 -16.9 L-84.31 -14.93 L-89.61 -16.41 L-93.09 -14.17 L-98.51 -13.01 L-104.09 -11.74 L-99.65 -13.69 L-98.62 -12.08 L-93.95 -12.67 L-88.62 -11.75 L-87.47 -10.3 L-85.09 -8.14 L-81.71 -9.98 L-79.05 -7.61 L-80.23 -6 L-77.6 -5.43 L-76.66 -7.62 L-75.9 -5.83 L-74.7 -3.03 L-73.17 -1.97 L-72.09 -3.35 L-72.7 0.07 L-72.66 1.35 L-73.84 1.24 L-74.27 2.06 L-75.99 5.58 L-72.89 6.86 L-74.62 8.18 L-74.49 12.87 L-77.28 15.2 L-75.16 18.26 L-75.56 19.85 L-77.02 26.3 L-77.11 26.41 L-76.27 33.29 L-77.67 38.23 L-79.14 40.6 L-77.01 45.71 L-78.39 53 L-80.01 62.81 L-76.78 69.41 L-77.62 76.52 L-77.32 83.17 L-77.28 89.89 L-75.53 91.89 L-75.93 93.48 L-71.69 97.81 L-73.31 100.69 L-68.39 104.51 L-70.84 105.71 L-69.15 107.77 L-64.61 108.35 L-65.07 106.13 L-61.97 108.59 L-59.16 105 L-56.71 104.34 L-54.84 105.13 L-53.76 101.36 L-52.17 99.26 L-47.3 98.11 L-46.58 97.37 L-44.92 91.41 L-44.64 91.47 L-39.28 87.43 L-37.53 85.78 L-39.08 79.42 L-37.48 74.23 L-35.51 68.76 L-33.04 58.54 L-32.45 53.06 L-30.48 45.6 L-34.15 39.16 L-32.78 24.76 L-33.1 13.54 L-32.26 9.24 L-33.04 0.38 L-31.82 -5.5 L-29.02 -5.33 L-26.03 -6.81 L-27.53 -5.79 L-23.32 -3.6 L-24.2 -5.09 L-21.86 -4.83 L-21.12 -2.34 L-18.36 -1.45 L-19.11 1.34 L-21.28 3.34 L-18.26 11.15 L-17.09 17.99 L-16.09 25.78 L-17.46 33.75 L-15.15 44.31 L-14.73 52.96 L-17.31 62.13 L-15.33 71.04 L-16.52 81.65 L-19.71 88.46 L-18.77 100.4 L-22.42 106.74 L-22.15 114.93 L-24.06 124.49 L-27.37 125.45 L-28.13 131.03 L-27.58 132.27 L-29.06 135.78 L-36.63 136.19 L-38.54 138.26 L-43.77 138.55 L-46.96 140.71 L-52.21 141.32 L-53.05 143.78 L-60.22 144.17 L-61.61 141.15 L-66.11 141.83 L-67.5 139.6 L-72.28 140.09 L-71.62 138.95 L-77.17 139.8 L-76.97 136.07 L-79.29 136.89 L-84.57 136.93 L-87.19 132.55 L-89.13 128.56 L-94.49 123.62 L-94.97 117.48 L-97.78 112.82 L-101.51 105.13 L-104 100.6 L-102.23 93.99 L-104.18 86.5 L-104.71 79.64 L-105.41 73.12 L-106.53 66.71 L-107.1 50.71 L-107.7 38.09 L-107.91 24.37 L-109.27 15.42 L-107.4 8.19 L-107.66 2.22 L-109.21 -5.75 L-108.82 -11.92 L-108.76 -15.55 L-112.68 -6.25 L-113.5 5.03 L-114.42 22.96 L-117.14 44.93 L-120.05 54.36 L-121.01 62.92 L-121.23 74.39 L-122.43 84.5 L-118.7 94.78 L-120.37 102.45 L-117.93 114.31 L-117.85 124.59 L-114.48 132.84 L-113.94 141.81 L-111.16 145.61 L-106.71 148.37 L-105.3 153.68 L-102.9 155.84 L-98.62 157.71 L-94.55 156.59 L-91.68 158.1 L-85.74 162.05 L-83.09 160.31 L-80.6 162.7 L-73.53 162.85 L-71.36 160.1 L-65.73 161.32 L-62.28 158.86 L-52.49 159.53 L-47.84 156.21 L-41.33 153.43 L-37.33 152.01 L-33.56 147.62 L-29.03 144.6 L-23.84 141.87 L-23.11 134.79 L-16.86 133.02 L-15.83 126.42 L-11.4 122.94 L-11.48 118.44 L-8.31 114.6 L-6.43 108.81 L-6.47 104.02 L-5.11 98.6 L-2.86 92.27 L-0.01 83.92 L-0.48 81.51 L0.8 70.14 L0.15 55.23 L-0.39 43.31 L2.12 33.43 L-0.42 23.13 L1.05 10.23 L0.79 -1.25 L-1.27 -1.01" stroke="none" stroke-width="0" fill="black" fill-rule="evenodd"/><path d="M0 0 C0 0, 0 0, 0 0 M0 0 C0 0, 0 0, 0 0 M0.13 0.12 C0.1 -1.21, -0.01 -2.14, -0.19 -2.71 M0.09 0.13 C-0.16 -0.53, -0.01 -1.05, -0.39 -2.55 M-0.24 -2.53 C-0.39 -3.36, -0.34 -4.37, -0.3 -5.16 M-0.38 -2.6 C-0.37 -3.64, -0.53 -4.41, -0.5 -5.07 M-0.44 -5.24 C-0.39 -5.88, -0.78 -7.5, -0.97 -9.51 M-0.52 -5.08 C-0.65 -6.75, -0.65 -8.61, -1.1 -9.52 M-0.62 -9.64 C-1.18 -10.17, -1.15 -11.36, -1.4 -13.13 M-0.78 -9.39 C-0.88 -10.7, -1.32 -11.77, -1.24 -13.11 M-1.25 -12.82 C-1.72 -13.92, -1.38 -15.12, -1.63 -15.9 M-1.3 -13.21 C-1.54 -13.62, -1.67 -14.28, -1.79 -16.15 M-1.85 -16.07 C-1.89 -17.16, -2.38 -17.91, -2.13 -18.72 M-1.88 -16.13 C-1.95 -16.89, -2.12 -17.83, -2.16 -18.54 M-2.16 -18.51 C-2.27 -18.89, -2.43 -19.56, -3.04 -20.32 M-2.24 -18.47 C-2.35 -18.83, -2.54 -19.27, -2.86 -20.28 M-2.85 -20.38 C-3.2 -20.9, -3.35 -21.35, -3.83 -21.97 M-2.83 -20.43 C-3.21 -20.9, -3.46 -21.34, -3.67 -21.83 M-3.8 -21.82 C-3.98 -21.95, -4.11 -22.36, -4.76 -22.93 M-3.63 -21.82 C-3.92 -22.12, -4.25 -22.42, -4.78 -22.81 M-4.67 -22.93 C-5.16 -23.19, -5.52 -23.34, -6.22 -23.44 M-4.71 -22.81 C-5.13 -23.07, -5.52 -23.33, -6.15 -23.59 M-6.01 -23.62 C-6.67 -23.56, -6.83 -23.94, -7.77 -24.16 M-6.08 -23.59 C-6.4 -23.71, -6.79 -23.69, -7.74 -24.11 M-7.66 -24.19 C-8.65 -24.05, -9.23 -24.38, -9.73 -24.48 M-7.71 -24 C-8.39 -24.18, -9.16 -24.24, -9.86 -24.26 M-9.69 -24.42 C-10.53 -24.63, -11.36 -24.67, -12.12 -24.62 M-9.9 -24.42 C-10.4 -24.39, -10.96 -24.57, -12.35 -24.51 M-12.35 -24.24 C-13.25 -24.28, -13.89 -24.51, -15.15 -24.49 M-12.32 -24.44 C-13.36 -24.45, -14.46 -24.64, -15.26 -24.65 M-15.62 -24.83 C-16.92 -24.76, -18.12 -24.41, -18.82 -24.71 M-15.42 -24.55 C-16.23 -24.78, -16.98 -24.64, -18.89 -24.84 M-18.51 -24.85 C-19.81 -24.67, -21.08 -25.08, -23.06 -25.05 M-18.85 -24.83 C-20.35 -24.88, -22.06 -24.76, -22.8 -25 M-23.4 -24.89 C-24.78 -24.7, -26.12 -24.78, -28.01 -25.5 M-23.18 -25 C-24.32 -24.98, -25.26 -25.32, -28.01 -25.14 M-28.08 -25.25 C-29.39 -24.64, -30.65 -24.41, -31.43 -24.03 M-27.95 -25.46 C-28.83 -25.02, -30.26 -24.45, -31.46 -24.1 M-31.21 -23.98 C-32.33 -23.66, -32.78 -23.22, -34.24 -23.05 M-31.26 -24.2 C-32.07 -23.91, -32.76 -23.41, -34.5 -22.63 M-34.78 -22.49 C-35.53 -22.04, -35.8 -22.16, -37.21 -20.76 M-34.62 -22.62 C-35.3 -22.26, -36.46 -21.54, -37.48 -20.99 M-37.58 -20.78 C-38.11 -20.3, -38.53 -19.66, -40.15 -19.03 M-37.3 -21.12 C-38.23 -20.19, -39.24 -19.76, -39.92 -19.02 M-39.74 -18.85 C-40.57 -18.78, -41.21 -18.06, -42.33 -16.53 M-39.99 -19.16 C-40.7 -18.13, -41.6 -17.44, -42.22 -16.66 M-42.19 -16.72 C-42.82 -16.27, -42.83 -15.85, -44.53 -14.24 M-42.23 -16.71 C-42.97 -15.93, -43.64 -15.11, -44.11 -14.32 M-44.33 -14.58 C-44.8 -13.67, -45.26 -12.96, -46.09 -11.62 M-44.37 -14.3 C-44.64 -13.7, -45.03 -13.32, -45.93 -11.76 M-46.18 -11.59 C-46.62 -11.27, -46.77 -10.35, -47.64 -8.64 M-46.05 -11.57 C-46.51 -10.47, -47.15 -9.38, -47.42 -8.81 M-47.33 -8.51 C-47.82 -7.85, -48.2 -7.11, -48.79 -5.89 M-47.5 -8.93 C-47.91 -7.63, -48.53 -6.27, -48.76 -5.82 M-49.1 -6 C-49.39 -4.78, -49.62 -4.32, -49.63 -2.74 M-48.99 -5.79 C-49.03 -5.12, -49.23 -4.14, -49.95 -2.45 M-50.16 -2.55 C-50.3 -1.67, -50.48 -0.87, -51.03 0.65 M-49.85 -2.61 C-50.29 -1.61, -50.43 -0.59, -50.84 0.85 M-50.71 0.58 C-50.86 2.24, -51.06 2.93, -51.37 4.49 M-50.89 1.03 C-51.18 2.19, -51.48 3.54, -51.56 4.48 M-51.39 3.82 C-52.36 5.57, -52.2 8.53, -53.09 11.36 M-51.84 4.52 C-52.31 6.79, -52.45 9.13, -52.63 11.9 M-51.92 11.42 C-52.67 13.18, -52.96 16.41, -52.66 20.33 M-52.58 11.9 C-52.51 13.96, -52.77 16.68, -52.9 19.3 M-53.58 19.94 C-52.96 20.77, -52.95 22.63, -53.03 26.88 M-53.38 19.38 C-53.51 22.27, -53.45 25.6, -53.63 27.52 M-53.56 26.98 C-53.02 30.99, -53.37 34.2, -52.56 35.68 M-53.02 27.33 C-53.28 30.29, -53.41 31.79, -53.31 35.82 M-54.54 34.82 C-53.49 40.59, -52.78 46.78, -52.77 50.53 M-52.47 36.08 C-52.8 39.51, -52.32 44.03, -53.36 52.05 M-52.12 52.44 C-52.72 53.7, -52.24 55.12, -51.85 59.48 M-52.44 51.99 C-52.46 54.58, -53.01 57.07, -52.81 59.72 M-52.8 60.04 C-52.42 61.83, -52.28 63.65, -51.97 66.88 M-52.77 59.85 C-52.39 61.16, -52.25 62.97, -52.66 67.19 M-53.3 66.9 C-52.78 68.12, -53.4 69.99, -53.84 73.77 M-52.8 67.15 C-52.7 69.49, -52.79 71.86, -53.46 74.07 M-53.41 74.03 C-53.47 74.52, -53.08 75.68, -53.91 76.65 M-53.15 73.76 C-53.41 74.76, -53.42 75.73, -53.56 76.8 M-53.34 77 C-53.94 77.39, -53.78 78, -54.45 79.99 M-53.62 77.04 C-53.61 77.63, -53.75 78.25, -54.14 79.83 M-53.94 79.48 C-54.76 77.54, -54.41 75.62, -55.62 72.07 M-54.32 79.84 C-54.78 78.33, -54.91 76.38, -56.01 72.37 M-57.01 72.42 C-56.3 70.41, -56.96 67.72, -58.86 65.11 M-56.4 72.05 C-57.08 70.25, -56.97 68.48, -57.85 65.03 M-58.75 65.05 C-59.14 61.8, -59.32 59.41, -59.4 58.47 M-58.14 64.83 C-58.42 62.11, -59.25 59.89, -59.95 58.17 M-59.63 58.25 C-60.42 55.83, -60.02 54.4, -60.18 50.81 M-59.42 57.9 C-60.01 56.28, -60.35 54.22, -60.53 51.28 M-60.7 50.99 C-60.75 48.89, -61.76 47.53, -61.71 45.15 M-60.58 51.26 C-61.12 49.98, -60.96 48.62, -62.07 45.41 M-61.36 45.43 C-62.11 43.61, -62.76 41.48, -61.95 39.2 M-61.83 45.44 C-61.64 43.86, -62.05 42.97, -62.51 39.47 M-62.53 39.13 C-63.04 38.26, -62.19 35.99, -62.98 33.31 M-62.21 39.56 C-62.32 37.99, -62.65 37.07, -62.73 34.07 M-63.33 33.53 C-63.37 32.07, -63.71 29.81, -62.88 28.55 M-63.18 33.6 C-63.22 32.22, -63.33 30.74, -63.19 28.69 M-63 28.78 C-63.44 27.03, -63.47 26.06, -63.09 23.41 M-63.09 28.5 C-63.35 27.37, -63.68 26.21, -63.63 23.87 M-63.91 23.91 C-64.03 22.45, -63.92 20.1, -64.1 18.96 M-63.67 23.86 C-63.8 22.33, -63.72 21.47, -63.82 19.32 M-64.06 18.82 C-63.46 18.3, -63.67 16.52, -63.39 15.42 M-63.49 19.06 C-63.49 17.8, -63.82 15.83, -63.61 14.87 M-63.5 14.65 C-63.78 13.45, -63.49 12.12, -63.89 11.46 M-63.83 15.2 C-63.84 14.28, -63.91 13.51, -63.75 11.14 M-63.89 11.07 C-63.73 9.71, -64.09 8.79, -63.59 7.57 M-63.75 11.06 C-63.72 10.01, -63.79 8.83, -63.86 7.64 M-63.51 7.29 C-63.46 6.09, -63.75 5.16, -63.55 3.98 M-63.65 7.56 C-63.65 6.66, -63.76 6.05, -63.84 4.05 M-63.56 4.05 C-63.72 3.46, -63.68 2.18, -63.92 1.28 M-63.91 4.04 C-63.82 3.53, -63.73 2.74, -63.83 1.01 M-63.9 1.25 C-64.15 0.52, -63.96 -0.47, -63.91 -1.52 M-63.78 1.06 C-63.93 -0.05, -63.91 -1.12, -63.9 -1.75 M-64.26 -1.82 C-64.18 -2.32, -64.28 -3.3, -64.36 -3.92 M-63.95 -1.73 C-64.11 -2.33, -64.3 -3.19, -64.35 -4.14 M-64.46 -3.95 C-64.46 -4.47, -64.5 -5.03, -64.96 -6.39 M-64.35 -4.14 C-64.39 -4.68, -64.58 -5.35, -64.74 -6.41 M-64.92 -6.27 C-64.9 -6.98, -65.11 -7.76, -65.27 -8.41 M-64.73 -6.36 C-65 -6.9, -65.28 -7.75, -65.46 -8.22 M-65.45 -8.25 C-65.62 -8.84, -65.76 -9.3, -66.42 -10.04 M-65.5 -8.3 C-65.63 -8.75, -65.81 -9.2, -66.32 -9.88 M-66.26 -9.85 C-66.69 -10.44, -67.2 -11.01, -67.5 -11.41 M-66.28 -9.93 C-66.49 -10.37, -66.91 -10.82, -67.29 -11.34 M-67.29 -11.37 C-67.9 -11.72, -68.35 -12.22, -68.62 -12.78 M-67.38 -11.5 C-67.6 -11.73, -67.87 -11.92, -68.82 -12.64 M-68.75 -12.44 C-69.36 -12.85, -69.95 -13.1, -70.5 -13.54 M-68.8 -12.68 C-69.08 -12.83, -69.41 -13.06, -70.44 -13.69 M-70.5 -13.58 C-70.88 -13.73, -71.5 -14.18, -72.44 -14.45 M-70.48 -13.54 C-71.15 -13.9, -71.66 -14.06, -72.43 -14.39 M-72.52 -14.33 C-72.96 -14.51, -73.65 -14.84, -75.12 -15.14 M-72.52 -14.26 C-73.37 -14.57, -74.19 -14.75, -74.96 -15.02 M-75.13 -14.86 C-75.92 -14.79, -76.62 -15.09, -77.75 -15.01 M-74.78 -14.86 C-75.78 -15.01, -76.88 -15.17, -77.55 -15.18 M-77.61 -15.35 C-79.07 -15.26, -79.66 -15.45, -81.12 -15.21 M-77.71 -15.12 C-78.8 -15.21, -79.63 -15.26, -80.92 -15.24 M-81.26 -15.27 C-81.49 -15.54, -82.51 -15.56, -84.63 -15.67 M-81 -15.22 C-81.55 -15.27, -82.39 -15.27, -84.57 -15.41 M-84.61 -15.56 C-85.74 -14.96, -86.97 -15.27, -88.85 -14.91 M-84.76 -15.49 C-85.66 -15.17, -87.19 -14.97, -88.92 -15.1 M-89.19 -15.12 C-90.84 -14.51, -92.48 -14.73, -93.9 -15.11 M-88.93 -15.08 C-90.15 -14.72, -91.27 -14.89, -93.64 -14.52 M-93.54 -14.79 C-95.14 -14.57, -96.44 -13.91, -99.42 -14.1 M-93.86 -14.62 C-95.65 -14.34, -97.99 -14.32, -98.85 -13.86 M-98.76 -14.18 C-99.95 -14.19, -101.6 -13.68, -104.66 -13.33 M-98.77 -13.89 C-101.03 -13.8, -103.08 -13.38, -104.9 -13.48 M-105.18 -13.53 C-103.54 -12.68, -102.87 -12.91, -100.65 -12.75 M-104.68 -13.36 C-103.37 -13.16, -101.64 -12.64, -100.52 -12.48 M-100.73 -12.54 C-99.35 -12.14, -97.98 -12.49, -96.98 -12.27 M-100.54 -12.55 C-99.31 -12.29, -98.32 -12.05, -96.65 -12.11 M-96.58 -12.11 C-95.84 -11.67, -94.48 -11.36, -93.01 -11.43 M-96.65 -12.04 C-95.73 -11.73, -94.72 -11.58, -93.09 -11.36 M-93.19 -11.74 C-92.65 -11.2, -91.83 -10.86, -89.77 -11.01 M-93.3 -11.36 C-92.17 -11.37, -91.02 -11.08, -89.97 -11.02 M-89.97 -10.72 C-89.46 -10.52, -88.66 -10.72, -87.12 -10.19 M-89.98 -11 C-89.34 -10.84, -88.55 -10.59, -87.15 -10.37 M-86.97 -10.43 C-86.38 -10.07, -85.73 -10.12, -84.87 -9.96 M-87.12 -10.22 C-86.47 -10.05, -85.52 -10.04, -84.83 -9.77 M-84.76 -9.74 C-83.87 -9.66, -83.39 -9.17, -82.6 -9.14 M-84.76 -9.8 C-84.2 -9.64, -83.74 -9.46, -82.55 -9.08 M-82.68 -9.09 C-81.61 -8.96, -81.19 -8.8, -80.7 -8.71 M-82.54 -9.14 C-81.97 -9.02, -81.52 -8.78, -80.54 -8.59 M-80.62 -8.39 C-80.05 -8.31, -79.56 -8.12, -79.03 -7.97 M-80.63 -8.6 C-80.21 -8.4, -79.76 -8.13, -78.91 -7.94 M-78.91 -7.93 C-78.67 -7.75, -78.31 -7.49, -77.6 -7.3 M-78.93 -7.82 C-78.71 -7.76, -78.39 -7.6, -77.68 -7.15 M-77.63 -7.12 C-77.16 -6.8, -76.98 -6.62, -76.6 -6.29 M-77.57 -7.11 C-77.23 -6.95, -76.88 -6.61, -76.44 -6.37 M-76.53 -6.48 C-76.1 -6.21, -76.05 -5.8, -75.63 -5.64 M-76.49 -6.41 C-76.27 -6.16, -75.99 -6, -75.59 -5.55 M-75.51 -5.53 C-75.49 -5.29, -75.28 -5.04, -74.97 -4.67 M-75.64 -5.51 C-75.42 -5.2, -75.19 -4.98, -74.85 -4.63 M-74.83 -4.56 C-74.73 -4.37, -74.46 -4.04, -74.28 -3.58 M-74.86 -4.54 C-74.67 -4.26, -74.53 -3.83, -74.4 -3.54 M-74.48 -3.55 C-74.24 -3.07, -74.11 -2.66, -73.97 -2.37 M-74.4 -3.53 C-74.27 -3.13, -74.17 -2.82, -74.03 -2.33 M-74.07 -2.25 C-73.92 -1.96, -73.85 -1.37, -73.81 -1.16 M-74.08 -2.43 C-73.97 -2.13, -73.88 -1.82, -73.84 -1.15 M-73.79 -0.98 C-73.92 -0.6, -73.69 -0.4, -73.75 0.27 M-73.88 -1.05 C-73.83 -0.61, -73.82 -0.09, -73.84 0.38 M-73.92 0.3 C-73.84 0.85, -73.98 1.39, -73.73 1.94 M-73.76 0.26 C-73.74 0.88, -73.86 1.32, -73.91 1.98 M-73.92 1.82 C-73.83 2.29, -73.87 2.62, -74.18 3.58 M-73.81 1.91 C-73.8 2.34, -73.92 2.89, -73.93 3.62 M-74.06 3.65 C-74.1 4, -74.13 4.67, -74.45 5.48 M-74.02 3.59 C-74.03 4.07, -74.04 4.56, -74.23 5.5 M-74.29 5.48 C-74.52 6.25, -74.51 6.7, -74.49 7.58 M-74.36 5.44 C-74.3 6, -74.48 6.51, -74.55 7.62 M-74.72 7.82 C-74.58 8.23, -74.91 9.32, -74.95 9.98 M-74.7 7.51 C-74.66 8.34, -74.77 8.87, -74.95 9.83 M-74.84 9.76 C-75.02 10.89, -75.02 11.55, -75.6 12.58 M-74.97 9.91 C-75.22 10.72, -75.39 11.75, -75.49 12.4 M-75.62 12.57 C-75.72 13.23, -75.55 14.77, -75.65 14.8 M-75.28 12.46 C-75.36 13.33, -75.52 14.26, -75.74 15.11 M-75.63 14.8 C-76.23 15.94, -75.99 16.95, -76.08 18.29 M-75.72 15.02 C-75.98 15.66, -75.93 16.44, -76.36 18.01 M-75.98 17.84 C-76.35 18.84, -76.19 19.89, -76.84 21.44 M-76.12 18.08 C-76.19 18.71, -76.52 19.55, -76.79 21.22 M-76.83 21 C-76.74 22.25, -76.8 23.59, -77.25 24.63 M-76.62 21.19 C-76.91 22.24, -76.85 23.54, -77.17 24.71 M-77.22 24.81 C-76.92 25.54, -77.24 26.66, -77.54 28.16 M-77.17 24.6 C-77.27 25.67, -77.25 26.54, -77.19 28.23 M-77.23 28.33 C-77.09 29.64, -77.82 30.06, -77.91 32.01 M-77.48 28.31 C-77.28 29.5, -77.44 30.64, -77.61 32.21 M-77.96 32.63 C-77.41 33.18, -77.89 35.24, -77.9 36.4 M-77.44 32.14 C-77.71 33.25, -77.74 34.69, -77.71 36.65 M-77.57 36.88 C-77.75 37.65, -78.08 39.14, -77.44 40.87 M-77.72 36.55 C-77.64 38.21, -77.93 39.94, -78.02 41.18 M-77.38 41.42 C-77.81 42.39, -78.25 42.93, -78.25 45.82 M-77.7 41.12 C-77.76 42.72, -77.75 44.75, -77.92 45.81 M-78.35 45.89 C-78.45 48.31, -78.5 50.15, -77.98 54.13 M-77.6 45.57 C-77.93 48.69, -77.86 51.71, -77.7 53.79 M-77.29 53.43 C-78.88 56.1, -77.54 58.15, -77.86 61.87 M-77.93 53.71 C-78.51 56.49, -78.52 59.29, -78.35 61.33 M-78.25 61.35 C-79.07 62.7, -78.94 64.18, -78.81 68.13 M-78.61 60.85 C-78.6 62.57, -78.37 64.49, -78.68 68.88 M-78.2 68.81 C-79 71.55, -78.43 73.78, -78.8 77.37 M-78.51 69 C-78.44 71.19, -78.45 72.95, -78.1 76.64 M-77.97 75.97 C-78.43 77.92, -77.71 79.82, -78.25 85.08 M-77.88 76.51 C-77.99 78.87, -78.12 81.64, -77.67 84.2 M-77.81 84.01 C-77.08 85.69, -76.95 87.01, -76.82 87.97 M-77.54 84.19 C-77.42 85.19, -77.15 85.96, -77.02 88.1 M-77.09 88.12 C-76.29 89.02, -76.33 89.92, -76.28 91.56 M-76.96 88.21 C-76.46 89.5, -76.13 90.79, -75.91 91.63 M-75.78 91.82 C-75.96 92.92, -75.38 94.71, -74.89 95.4 M-76.22 91.67 C-75.7 92.52, -75.52 93.43, -74.93 95.28 M-74.69 95.22 C-74.96 96.55, -74.29 97.81, -73.53 99.1 M-74.89 95.26 C-74.38 96.98, -74.02 98.26, -73.54 99.06 M-74.02 99.07 C-73.43 99.92, -72.43 101.18, -71.81 102.66 M-73.84 98.75 C-73.04 100.06, -72.78 100.99, -72.3 102.4 M-72.13 102.38 C-71.08 103.76, -70.88 104.74, -70.6 105.52 M-71.94 102.39 C-71.48 103.29, -70.71 104.71, -70.25 105.55 M-70.27 105.58 C-69.91 106.02, -69.75 106.27, -69.23 106.46 M-70.24 105.67 C-69.93 106.05, -69.52 106.3, -69.34 106.56 M-69.29 106.59 C-69.06 106.75, -68.76 106.79, -68.49 107.1 M-69.28 106.51 C-68.96 106.75, -68.72 106.98, -68.45 107.08 M-68.24 107.32 C-67.52 107.56, -67.2 107.71, -66.5 107.95 M-68.4 107.13 C-67.82 107.27, -67.13 107.53, -66.46 107.88 M-66.49 107.74 C-65.65 107.82, -65 107.76, -64.43 107.89 M-66.36 107.86 C-65.9 107.97, -65.37 107.95, -64.45 107.95 M-64.47 107.98 C-63.93 107.98, -63.16 107.86, -62.22 107.57 M-64.39 107.94 C-63.88 108.02, -63.31 107.87, -62.34 107.65 M-62.42 107.6 C-61.76 107.37, -61.11 107.4, -60.07 107.02 M-62.37 107.7 C-61.59 107.33, -60.83 107.02, -60.19 106.95 M-60.12 106.81 C-59.57 106.55, -59.12 106.28, -58.2 105.9 M-60.33 106.97 C-59.79 106.57, -59.04 106.26, -58.35 105.78 M-58.41 106.01 C-57.39 105.59, -56.9 104.87, -56.56 104.77 M-58.27 105.93 C-57.63 105.5, -57.24 105.06, -56.31 104.59 M-56.6 104.43 C-55.78 104.09, -55.37 103.86, -54.56 103.23 M-56.42 104.56 C-55.93 104.1, -55.37 103.65, -54.81 103.18 M-54.37 103.01 C-54.26 102.92, -53.16 101.68, -52.11 101.18 M-54.59 103.25 C-54.08 102.52, -53.27 102.02, -51.68 100.86 M-52.02 100.61 C-51.25 100.21, -50.8 100.09, -48.9 98.4 M-51.88 101.08 C-51 100.42, -50.46 99.54, -49.35 98.28 M-49.24 98.7 C-48.61 97.67, -47.46 96.39, -46.9 96.07 M-49 98.51 C-48.16 97.34, -47.46 96.62, -46.88 96 M-47.07 95.57 C-45.95 94.58, -45.08 93.56, -44.64 93.41 M-46.86 95.8 C-46.26 95.15, -45.7 94.63, -44.45 93.12 M-44.67 92.75 C-44.18 92.09, -43.47 91.28, -42.42 90.44 M-44.54 92.99 C-44.14 92.12, -43.44 91.4, -42.59 90.3 M-42.42 89.9 C-42.09 89.38, -42.07 88.75, -41.09 87.16 M-42.53 90.14 C-42.01 89.24, -41.58 88.48, -40.97 87.11 M-40.7 87.5 C-40.38 86.27, -39.84 85.47, -39.54 84.1 M-41 87.26 C-40.38 86.11, -39.65 85.04, -39.41 84.07 M-39.52 84 C-38.96 82.78, -38.12 82.09, -38.39 80.85 M-39.55 84.12 C-39.09 83.35, -38.54 82.49, -38.01 81.11 M-37.93 81.44 C-36.73 79.01, -37.02 76.33, -35.59 75.01 M-37.79 80.76 C-37.74 79.59, -37.05 77.68, -35.72 74.51 M-35.53 75.02 C-35.29 72.57, -35.59 70.7, -34.45 67.6 M-35.66 74.09 C-35.69 72.73, -35.61 71.84, -34.24 67.22 M-34.26 67.58 C-34.45 65, -33.91 64.13, -33.02 60.46 M-34.53 67.58 C-34.29 65.4, -33.93 63.81, -32.95 60.58 M-32.7 59.67 C-32.73 58.54, -32.32 56.88, -33.16 52.79 M-33.32 60.23 C-33.45 58.5, -32.8 56.27, -32.97 52.92 M-32.49 52.28 C-32.15 50.38, -33.05 47.61, -32.66 45.02 M-32.4 53 C-32.54 50.91, -32.66 48.9, -32.12 45.14 M-33.06 45.11 C-32.03 43.03, -32.74 41.13, -33.08 37.17 M-32.39 45.64 C-31.98 43.34, -32.37 40.3, -32.36 37.63 M-31.63 37.62 C-33.96 33.05, -32.28 29.49, -33.42 22.3 M-33.02 37.89 C-32.84 34.89, -32.35 31.92, -32.83 22.07 M-33.33 23.45 C-32.08 21.5, -33.18 19.01, -32.46 14.69 M-32.51 22.46 C-32.51 20.26, -32.9 17.33, -33.17 15.43 M-32.29 14.64 C-33.28 13.98, -32.74 11.34, -32.68 7.78 M-32.56 15.72 C-33.06 12.76, -32.59 10.43, -32.68 8.44 M-33.27 7.67 C-32.69 5.53, -33.23 3.3, -33.26 0.71 M-33.14 8.31 C-32.84 5.81, -32.86 3.68, -32.59 0.83 M-32.1 0.99 C-32.15 -1.44, -32.59 -2.37, -32.79 -6.26 M-33.03 1.15 C-32.58 -0.88, -32.5 -3, -32.31 -5.55 M-32.32 -5.55 C-31.36 -5.8, -30.59 -5.68, -29.73 -5.54 M-32.4 -5.62 C-31.62 -5.8, -30.94 -5.78, -30.03 -5.67 M-30.15 -5.59 C-29.35 -5.63, -28.28 -5.46, -27.56 -5.59 M-30.03 -5.73 C-29.49 -5.69, -28.76 -5.58, -27.83 -5.59 M-27.54 -5.57 C-27.33 -5.66, -26.41 -5.4, -25.91 -5.44 M-27.68 -5.71 C-27.16 -5.64, -26.72 -5.53, -25.67 -5.48 M-25.9 -5.48 C-25.25 -5.29, -24.66 -5.29, -23.87 -5.24 M-25.78 -5.6 C-25.38 -5.47, -24.85 -5.44, -23.91 -5.14 M-23.81 -5.07 C-23.32 -4.69, -22.87 -4.68, -22.51 -4.3 M-23.97 -5.22 C-23.38 -4.84, -22.9 -4.68, -22.36 -4.37 M-22.23 -4.29 C-21.96 -3.79, -21.4 -3.32, -21.15 -3.05 M-22.44 -4.45 C-22.01 -4.09, -21.69 -3.68, -21.09 -2.93 M-21.22 -3.04 C-21.04 -2.71, -21 -2.41, -20.76 -2.05 M-21.2 -2.98 C-21.02 -2.75, -20.9 -2.41, -20.66 -2.06 M-20.6 -2.04 C-20.64 -1.86, -20.53 -1.56, -20.34 -0.79 M-20.75 -2 C-20.59 -1.67, -20.42 -1.28, -20.28 -0.9 M-20.35 -0.98 C-20.32 -0.72, -20.2 -0.36, -20.15 0.65 M-20.38 -0.83 C-20.29 -0.56, -20.12 -0.16, -19.99 0.54 M-19.91 0.61 C-19.94 0.98, -19.76 1.33, -19.89 2.17 M-19.94 0.45 C-20.04 1.03, -19.96 1.62, -19.84 2.13 M-19.98 2.44 C-20.2 4.38, -18.65 6.34, -18.98 9.56 M-19.47 1.8 C-19.89 4.05, -19.65 5.45, -18.74 10.01 M-18.39 9.7 C-18.12 11.96, -17.89 15.95, -18.68 18.06 M-19.23 9.61 C-18.86 11.99, -18.9 13.79, -18.58 17.87 M-18.43 17.29 C-18.1 20.97, -17.82 22.53, -17.58 25.78 M-18 17.58 C-17.78 20.5, -17.95 23.56, -17.86 26.39 M-18.33 25.3 C-17.89 28.67, -17.28 29.59, -17.52 35.34 M-17.48 26.26 C-17.34 29.06, -17.32 32.22, -17.1 34.54 M-16.62 35.64 C-16.82 38.17, -16.82 41.16, -15.95 43.52 M-17.27 34.96 C-16.86 37.58, -16.66 40.16, -16.68 44.21 M-16.69 44.52 C-16.38 47.61, -15.95 49.38, -17.09 53.11 M-16.42 43.95 C-16.59 46.42, -16.86 48.62, -16.07 52.93 M-16.61 52.84 C-15.8 54.62, -17.27 56.96, -16.27 61.98 M-16.45 53.32 C-16.33 56.4, -16.15 60, -16.6 62.4 M-16.96 62.6 C-17.25 67.13, -17.13 69.56, -17.04 71.89 M-16.89 62.65 C-16.77 65.92, -16.88 69.56, -17.09 71.93 M-17.76 72.7 C-16.46 74.73, -16.61 77.91, -17.05 80.76 M-17.25 71.61 C-17.05 75.56, -17.42 79.67, -17.61 80.81 M-17.32 80.59 C-17.24 85.44, -17.64 88.67, -17.95 89.89 M-17.16 81.47 C-18.09 84.4, -18.39 88.02, -17.82 89.88 M-18.4 89.39 C-18.21 93.48, -18.71 97.5, -18.61 99.84 M-18.39 90.21 C-18.44 92.75, -19.24 95.35, -18.97 99.31 M-19.57 99.96 C-19.73 100.96, -20.01 103.26, -21.23 108.45 M-19.45 99.49 C-20.15 102.01, -20.22 104.54, -21.2 107.45 M-21.43 107.58 C-22.35 109.68, -22.57 113.56, -22.98 116.03 M-21.18 107.23 C-21.22 109.43, -21.69 112.08, -22.93 115.91 M-23.55 115.5 C-23.81 118.89, -23.93 121.53, -25.52 123.13 M-22.55 115.89 C-23 117.67, -23.88 119.8, -25.37 123.05 M-25.15 123.7 C-25.77 124.39, -25.85 125.62, -25.97 126.87 M-24.99 123.17 C-25.23 124.27, -25.5 125.27, -26.23 127 M-26.3 127.24 C-26.64 128.01, -26.75 128.96, -27.59 130.04 M-26.5 127.07 C-26.88 128.27, -27.4 129.57, -27.84 130.21 M-27.75 130.66 C-28.28 131.69, -28.95 132.47, -29.07 133.44 M-27.89 130.28 C-28.28 131.4, -28.54 132.51, -29.22 133.55 M-29.46 133.7 C-29.52 134.82, -30.27 135.67, -30.76 136.66 M-29.31 133.57 C-29.72 134.26, -30.02 134.88, -30.96 136.61 M-30.76 136.68 C-31.93 137.22, -33.21 137.4, -35.13 138.18 M-30.67 136.9 C-32.18 136.94, -33.54 137.68, -35.22 138.07 M-35.62 138.24 C-35.98 138.72, -37.83 138.64, -39.57 139.44 M-35.39 137.95 C-37.22 138.76, -38.65 139.23, -39.72 139.23 M-39.7 139.41 C-41.2 139.62, -42.48 140.12, -43.39 140.59 M-39.78 139.48 C-41.02 139.55, -42.37 139.89, -43.55 140.3 M-43.57 140.14 C-45.19 140.63, -46.32 141.26, -47.89 140.91 M-43.65 140.46 C-45 140.78, -46.64 140.96, -47.75 141.28 M-47.38 141.29 C-48.78 141.4, -49.28 141.18, -51.57 141.9 M-47.67 141.3 C-48.6 141.42, -49.82 141.38, -51.45 141.89 M-51.11 141.39 C-52.58 141.69, -53.32 141.98, -54.63 142.33 M-51.44 141.61 C-52 141.83, -52.85 141.92, -54.95 142.17 M-54.94 141.89 C-55.73 141.79, -56.58 142.46, -58.13 142.2 M-55.13 141.94 C-56.13 142.07, -57.23 142, -58.47 142.36 M-58.71 142.5 C-59.65 142.45, -60.7 142.05, -61.42 142.38 M-58.43 142.19 C-59.03 142.12, -59.83 142.21, -61.86 142.04 M-61.58 142.04 C-62.61 142.21, -63.86 142.22, -64.56 141.76 M-61.66 142.24 C-62.93 141.92, -64.25 142.11, -64.75 141.74 M-64.84 142.19 C-66 141.84, -66.97 141.67, -67.84 141.24 M-64.77 141.85 C-65.95 141.77, -67.26 141.41, -67.84 141.46 M-67.59 141.59 C-68.5 140.99, -69.59 140.99, -70.72 140.88 M-67.75 141.47 C-68.63 141.4, -69.41 141.13, -70.73 140.94 M-70.7 140.81 C-71.81 140.55, -72.51 140.48, -73.33 140.01 M-70.66 140.91 C-71.53 140.71, -72.24 140.39, -73.53 140.17 M-73.46 140.3 C-74.21 139.77, -74.81 139.73, -75.98 138.86 M-73.41 140.11 C-74.14 139.64, -74.87 139.42, -76.02 138.99 M-76.1 139.27 C-76.99 138.41, -77.75 138.23, -78.25 137.81 M-76.06 139.1 C-76.9 138.58, -77.43 138.25, -78.54 137.82 M-78.28 137.85 C-79.14 137.52, -80.2 137.21, -80.88 136.82 M-78.6 137.85 C-79.2 137.38, -79.91 137, -80.91 136.45 M-80.89 136.39 C-81.51 136.06, -82 135.65, -83.16 135.34 M-80.74 136.47 C-81.59 136.03, -82.46 135.47, -83.04 135.06 M-83.1 134.59 C-84.46 134.18, -85.81 132.89, -86.54 131.34 M-82.96 135.09 C-83.88 134.44, -84.9 133.41, -87.27 131.89 M-86.76 131.31 C-87.63 131.17, -88.64 129.72, -91.06 127.41 M-87.08 131.91 C-88.25 130.5, -89.54 128.68, -90.68 128 M-90.37 127.78 C-91.12 127.06, -92.22 125.41, -93.71 122.93 M-90.45 127.52 C-91.21 126.92, -92.24 126.07, -93.54 123.28 M-93.24 122.83 C-94.63 121.76, -95.56 120.62, -96.43 118.6 M-93.62 123 C-95.05 121.39, -95.7 119.24, -96.64 118.21 M-97.01 118.24 C-97.64 116.27, -98.45 113.89, -99.17 113.18 M-96.44 118.3 C-97.25 116.91, -97.98 114.75, -99.18 113.14 M-99.11 113.01 C-99.76 111.97, -100.27 110.84, -101.24 106.59 M-98.65 112.95 C-99.23 111.36, -100.18 109.35, -100.99 106.86 M-101.29 107.72 C-101.09 105.4, -102.36 103.57, -102.87 101.21 M-101.16 107.17 C-101.68 105.55, -101.66 103.87, -102.73 101.14 M-103.03 100.64 C-103.12 98.29, -103 96.73, -104.53 94.22 M-102.51 100.98 C-103.36 98.61, -103.62 95.76, -104.22 94.5 M-104.25 93.96 C-104.33 92.17, -104.49 89.25, -104.7 87.36 M-103.95 94.7 C-104.16 93.13, -104.26 91.82, -105.06 87.46 M-105.93 87.19 C-105.25 85.39, -106.06 83.15, -105.65 80.48 M-105.09 88.05 C-105.35 85.04, -106.05 82.79, -106.08 80.64 M-106.43 80.82 C-105.9 79.81, -106.5 76.99, -107.32 73.86 M-105.94 81.19 C-106.68 79.03, -106.7 77.15, -106.78 73.7 M-107.48 73.31 C-106.5 71, -107.6 68.57, -107.44 66.57 M-107.07 73.87 C-107.09 71.23, -107.39 68.67, -107.46 66.47 M-107.84 66.64 C-106.71 61.5, -108.21 58.77, -108.09 51.75 M-107.58 66.64 C-107.15 61.34, -108.34 57.77, -108.29 52.43 M-106.81 50.51 C-108.07 48.5, -107.83 43.65, -107.88 37.27 M-108.23 51.04 C-108.38 48.22, -108.14 46.14, -109.04 36.4 M-109.1 36.89 C-108.62 32.81, -108.98 29.25, -110.03 23.28 M-108.59 37.1 C-108.68 32.17, -108.02 27.24, -108.18 22.43 M-108.04 22.29 C-108 20.47, -108.42 19.8, -108.73 15.41 M-108.35 22.82 C-108.74 20.66, -108.91 18.89, -108.5 15.39 M-108.92 15 C-108.95 13.75, -108.48 11.91, -109.59 8.64 M-109.01 15.44 C-108.96 13.8, -108.87 12.25, -108.79 8.9 M-108.86 9.21 C-108.89 6.73, -109.49 5.57, -108.94 2.66 M-109.01 8.75 C-109.09 7.05, -108.92 5.7, -109.13 2.46 M-109.12 1.74 C-109.52 -0.42, -109.49 -2.9, -109.17 -3.63 M-109.39 1.87 C-109.21 -0.02, -109.1 -2.69, -109.52 -3.82 M-109.8 -3.71 C-109.71 -5.67, -110.25 -7.21, -110.23 -10.02 M-109.24 -3.8 C-109.46 -5.23, -109.53 -6.85, -109.64 -10.14 M-110.45 -9.54 C-110.67 -12.31, -109.99 -13.49, -110.52 -15.47 M-110.18 -9.75 C-109.98 -11.55, -110.39 -12.69, -110.7 -15.37 M-110.66 -15.53 C-111.33 -11.25, -111.13 -7.77, -110.46 -5.78 M-110.51 -15.71 C-110.69 -12.53, -111.26 -9.14, -111.47 -6.22 M-110.84 -5.83 C-112.28 -2.95, -111.52 0.73, -112.1 3.54 M-110.95 -6.16 C-111.35 -3.55, -111.92 -0.29, -111.96 3.79 M-111.59 3.99 C-114 11.72, -113.4 17.36, -112.9 25.74 M-111.4 4.35 C-113.37 10.08, -113.16 14.63, -115.56 24.18 M-116.46 24.61 C-114.62 27.73, -115 32.45, -117.67 41.83 M-114.02 23.05 C-114.69 30.12, -116.88 36.01, -117.96 43.56 M-117.33 44.08 C-116.81 48.02, -118.68 51.52, -119.42 54.12 M-117.11 43.5 C-117.24 47.98, -118.63 51.99, -118.1 54.27 M-117.62 53.03 C-119 55.55, -118.31 58.42, -120.01 62.91 M-118.48 54.24 C-118.83 57.28, -118.89 60.01, -119.49 63.41 M-119.65 64.79 C-119.43 66.52, -119.7 70.7, -120.49 72.83 M-119 63.43 C-119.6 65.86, -119.97 68.1, -120.17 73.59 M-119.82 72.89 C-119.44 77.81, -120.89 81.7, -120.82 84.49 M-120.29 73.44 C-120.65 76.47, -120.64 79.25, -120.31 83.69 M-119.78 84.42 C-119.77 86.28, -120.03 89.26, -120.38 93.26 M-120.54 83.83 C-120.57 86.49, -120.27 88.63, -121.06 93.72 M-121.11 93.71 C-121.2 96.13, -121.21 100.65, -120.68 102.87 M-120.69 93.99 C-120.04 96.92, -120.03 100.72, -120.72 103.41 M-120.05 103.93 C-120.81 108.29, -118.85 111.81, -120.03 113.17 M-120.54 103.81 C-119.88 105.42, -119.8 107.85, -119.89 112.94 M-120.09 112.92 C-119.92 117.93, -117.74 120.33, -118.28 123.79 M-119 113.35 C-118.81 116.09, -118.47 118.11, -117.64 123.49 M-118.79 122.73 C-117.09 125.67, -116.22 126.59, -115.42 131.86 M-118.09 123.46 C-117.07 125.7, -117.24 129.01, -115.59 133.03 M-116.34 133.4 C-115.77 134.84, -114.73 136.4, -112.3 141.57 M-116.28 132.51 C-115.48 134.53, -114.55 136.71, -113.18 141.87 M-112.79 142.38 C-112.74 143.34, -112.06 144.77, -110.71 146.06 M-113.32 142.06 C-112.09 143.69, -111.41 145.08, -110.89 145.76 M-111.13 145.85 C-110.01 146.79, -109.72 146.86, -108.21 149.12 M-110.74 146.03 C-109.83 146.89, -109.21 147.73, -107.98 148.96 M-108.02 148.81 C-107.72 150.04, -106.61 150.48, -105.18 151.9 M-108.25 148.9 C-107.49 149.61, -107 150.47, -105.22 151.8 M-105.12 151.59 C-104.07 152.62, -102.57 153.79, -102.18 154.31 M-105.27 151.84 C-104.04 152.65, -103.05 153.71, -102.23 154.07 M-102.43 153.9 C-101.37 155.06, -99.79 155.53, -98.3 156.12 M-102.07 154.27 C-100.66 154.98, -99.55 155.59, -98.54 156.21 M-98.75 156.26 C-97.76 157, -96.64 157.28, -95.39 157.59 M-98.66 156.21 C-97.29 156.76, -96.23 157.19, -95.11 157.98 M-95 157.54 C-93.58 158.1, -92.18 159.18, -91.24 159.38 M-94.84 158.08 C-93.77 158.48, -92.28 158.6, -91.28 159.15 M-91.42 158.77 C-90.25 159.23, -89.07 160.02, -87.71 160.02 M-91.44 158.98 C-89.59 159.74, -88.41 159.79, -87.16 160.11 M-86.98 159.87 C-86.11 160.56, -85.08 160.63, -83.14 160.56 M-87.17 160.2 C-86.07 160.27, -84.26 160.66, -83.36 160.59 M-83.74 161.07 C-81.39 161.01, -80.33 160.84, -78.95 161.27 M-83.17 160.6 C-82.15 160.88, -80.84 160.97, -79.4 161.09 M-78.91 161.2 C-77.89 161.57, -77.19 161.02, -75.16 161.51 M-79.38 161.36 C-78.04 161.24, -76.73 161.4, -75.01 161.12 M-75.06 161.63 C-73.73 161.05, -72.71 161.04, -70.56 161.17 M-75 161.33 C-73.86 161.15, -73.17 161.4, -70.97 161.14 M-71.28 161.22 C-69.44 161.42, -68.93 160.86, -66.38 160.63 M-71.06 161.02 C-69.25 160.93, -68.12 160.94, -66.78 160.72 M-66.79 161.15 C-65.11 161.07, -64.39 160.6, -62.37 160.59 M-66.73 160.81 C-65.72 160.58, -64.8 160.66, -62.73 160.52 M-63.26 160.9 C-59.1 159.76, -56.78 159.68, -55.14 158.33 M-62.13 160.36 C-60 160.38, -58 159.4, -54.18 158.69 M-54.17 158.25 C-53.38 158.19, -52.11 157.08, -48.18 156.49 M-54.5 158.93 C-52.03 158.08, -49.54 157.11, -48.53 156.09 M-48.29 156.13 C-47.69 155.26, -45.55 154.94, -43.24 154.2 M-48.29 156.4 C-47.68 155.89, -46.42 155.13, -42.89 153.4 M-43.64 153.76 C-42.09 153.45, -41.2 152.28, -37.78 150.19 M-43.38 153.43 C-41.27 152.69, -39.48 151.27, -37.93 150.84 M-37.81 151.17 C-36.5 149.26, -35.42 148.67, -33.09 147.34 M-37.99 150.59 C-36.8 149.35, -35.12 148.45, -33.46 147.32 M-33.33 147.14 C-32.23 146.31, -30.82 145.1, -29.56 144.29 M-33.58 147.06 C-31.95 146.16, -30.93 145.22, -29.25 143.85 M-28.75 143.49 C-28.24 143.35, -26.9 141.57, -25 140.13 M-29.08 143.87 C-28.2 143.19, -27.36 142.19, -25.13 139.76 M-24.78 140.34 C-24.61 138.36, -23.19 137.62, -21.66 136.32 M-25.04 139.77 C-24.19 138.68, -23.45 137.7, -21.58 135.98 M-21.27 136.11 C-20.48 134.4, -20.37 133.99, -18.85 132.07 M-21.37 136.02 C-21.04 134.73, -20.16 134.07, -18.17 131.46 M-18.74 131.62 C-17.3 130.3, -16.65 129.35, -15.55 127.53 M-18.08 131.82 C-17.05 130.13, -15.87 128.47, -15.3 126.91 M-15.49 126.73 C-15.15 125.42, -13.91 125.31, -12.94 122.47 M-15.3 127.38 C-14.21 125.54, -13.73 124.19, -12.65 122.32 M-12.24 122.25 C-12.23 121.87, -11.15 120.51, -10.44 117.21 M-12.88 122.67 C-12.07 121.32, -11.44 119.82, -10.35 117.43 M-10.43 117.67 C-10.22 116, -9.47 115.26, -8.25 112.48 M-10.4 117.76 C-9.55 116.07, -9.06 113.96, -7.99 112.52 M-8.19 112.07 C-8.06 111.17, -7.45 109.28, -6.64 107.03 M-8.42 112.62 C-7.62 110.74, -6.73 109.05, -6.31 107.24 M-6.18 107.18 C-6.15 106.09, -5.4 105.34, -5.22 101.88 M-6.33 107.51 C-5.87 105.51, -4.87 103.57, -4.58 101.98 M-4.67 101.78 C-4.05 101.17, -4.54 99.58, -3.32 96.8 M-4.64 102.22 C-4.6 101.02, -4.41 99.99, -3.42 96.63 M-3.94 97.03 C-2.65 95.23, -3.12 93.61, -2.61 91.28 M-3.45 97 C-2.83 95.15, -2.42 93.8, -2.13 91.46 M-2.42 90.67 C-1.51 90.02, -1.93 88.18, -0.74 85.44 M-2.47 91.24 C-2.01 89.77, -1.65 88.18, -0.98 85.86 M-1.54 85.93 C-1.39 83.43, -1.2 82.24, -0.8 79.87 M-1.14 85.5 C-0.92 84.44, -0.64 83.32, -0.21 79.76 M-0.59 80 C-0.44 77.21, -0.08 72.84, -0.36 68.75 M-0.44 79.43 C0.58 76.42, 0.86 72.33, 1.21 68.2 M0.01 67.91 C-0.19 64.84, 1.71 61.87, 0.62 57.54 M1.27 67.91 C0.71 63.83, 0.46 60.06, 1.11 56.4 M0.46 56.57 C0.63 51.93, 1.28 49.51, 1.61 45.93 M1.42 56.9 C1.55 54.05, 1.65 50.48, 1.97 45.4 M2.11 45.08 C0.79 42.15, 2.11 38.29, 2.06 33.18 M1.68 45.43 C1.69 40.73, 1.16 37.56, 0.77 33.64 M0.69 32.68 C1.49 28.85, 0.88 26.39, 0.3 22.39 M1.04 33.02 C0.73 28.57, 0.67 24.1, 0.65 22.28 M1.76 22.91 C1.34 18.37, 0.86 12.82, -0.36 10.83 M1.39 21.57 C0.38 18.43, 1.24 15.59, 0.25 11.28 M-0.64 9.72 C1.27 9.07, 0.68 6.34, 0.55 1.03 M0.57 10.35 C0.68 7.88, 0.53 5.53, 0.47 0.18 M0 0 C0 0, 0 0, 0 0 M0 0 C0 0, 0 0, 0 0 M0 0 C0 0, 0 0, 0 0 M0 0 C0 0, 0 0, 0 0" stroke="#000000" stroke-width="1" fill="none"/></g></g></svg>