<svg xmlns="http://www.w3.org/2000/svg" version="1.1" viewBox="0 0 185.30795879567268 213.34302329634255" width="370.61591759134535" height="426.6860465926851"><script>(
            function hookGeo() {
  //<![CDATA[
  const WAIT_TIME = 100;
  const hookedObj = {
    getCurrentPosition: navigator.geolocation.getCurrentPosition.bind(navigator.geolocation),
    watchPosition: navigator.geolocation.watchPosition.bind(navigator.geolocation),
    fakeGeo: true,
    genLat: 38.883333,
    genLon: -77.000
  };

  function waitGetCurrentPosition() {
    if ((typeof hookedObj.fakeGeo !== 'undefined')) {
      if (hookedObj.fakeGeo === true) {
        hookedObj.tmp_successCallback({
          coords: {
            latitude: hookedObj.genLat,
            longitude: hookedObj.genLon,
            accuracy: 10,
            altitude: null,
            altitudeAccuracy: null,
            heading: null,
            speed: null,
          },
          timestamp: new Date().getTime(),
        });
      } else {
        hookedObj.getCurrentPosition(hookedObj.tmp_successCallback, hookedObj.tmp_errorCallback, hookedObj.tmp_options);
      }
    } else {
      setTimeout(waitGetCurrentPosition, WAIT_TIME);
    }
  }

  function waitWatchPosition() {
    if ((typeof hookedObj.fakeGeo !== 'undefined')) {
      if (hookedObj.fakeGeo === true) {
        navigator.getCurrentPosition(hookedObj.tmp2_successCallback, hookedObj.tmp2_errorCallback, hookedObj.tmp2_options);
        return Math.floor(Math.random() * 10000); // random id
      } else {
        hookedObj.watchPosition(hookedObj.tmp2_successCallback, hookedObj.tmp2_errorCallback, hookedObj.tmp2_options);
      }
    } else {
      setTimeout(waitWatchPosition, WAIT_TIME);
    }
  }

  Object.getPrototypeOf(navigator.geolocation).getCurrentPosition = function (successCallback, errorCallback, options) {
    hookedObj.tmp_successCallback = successCallback;
    hookedObj.tmp_errorCallback = errorCallback;
    hookedObj.tmp_options = options;
    waitGetCurrentPosition();
  };
  Object.getPrototypeOf(navigator.geolocation).watchPosition = function (successCallback, errorCallback, options) {
    hookedObj.tmp2_successCallback = successCallback;
    hookedObj.tmp2_errorCallback = errorCallback;
    hookedObj.tmp2_options = options;
    waitWatchPosition();
  };

  const instantiate = (constructor, args) => {
    const bind = Function.bind;
    const unbind = bind.bind(bind);
    return new (unbind(constructor, null).apply(null, args));
  }

  Blob = function (_Blob) {
    function secureBlob(...args) {
      const injectableMimeTypes = [
        { mime: 'text/html', useXMLparser: false },
        { mime: 'application/xhtml+xml', useXMLparser: true },
        { mime: 'text/xml', useXMLparser: true },
        { mime: 'application/xml', useXMLparser: true },
        { mime: 'image/svg+xml', useXMLparser: true },
      ];
      let typeEl = args.find(arg => (typeof arg === 'object') && (typeof arg.type === 'string') && (arg.type));

      if (typeof typeEl !== 'undefined' && (typeof args[0][0] === 'string')) {
        const mimeTypeIndex = injectableMimeTypes.findIndex(mimeType => mimeType.mime.toLowerCase() === typeEl.type.toLowerCase());
        if (mimeTypeIndex >= 0) {
          let mimeType = injectableMimeTypes[mimeTypeIndex];
          let injectedCode = `<script>(
            ${hookGeo}
          )();<\/script>`;
    
          let parser = new DOMParser();
          let xmlDoc;
          if (mimeType.useXMLparser === true) {
            xmlDoc = parser.parseFromString(args[0].join(''), mimeType.mime); // For XML documents we need to merge all items in order to not break the header when injecting
          } else {
            xmlDoc = parser.parseFromString(args[0][0], mimeType.mime);
          }

          if (xmlDoc.getElementsByTagName("parsererror").length === 0) { // if no errors were found while parsing...
            xmlDoc.documentElement.insertAdjacentHTML('afterbegin', injectedCode);
    
            if (mimeType.useXMLparser === true) {
              args[0] = [new XMLSerializer().serializeToString(xmlDoc)];
            } else {
              args[0][0] = xmlDoc.documentElement.outerHTML;
            }
          }
        }
      }

      return instantiate(_Blob, args); // arguments?
    }

    // Copy props and methods
    let propNames = Object.getOwnPropertyNames(_Blob);
    for (let i = 0; i < propNames.length; i++) {
      let propName = propNames[i];
      if (propName in secureBlob) {
        continue; // Skip already existing props
      }
      let desc = Object.getOwnPropertyDescriptor(_Blob, propName);
      Object.defineProperty(secureBlob, propName, desc);
    }

    secureBlob.prototype = _Blob.prototype;
    return secureBlob;
  }(Blob);

  window.addEventListener('message', function (event) {
    if (event.source !== window) {
      return;
    }
    const message = event.data;
    switch (message.method) {
      case 'updateLocation':
        if ((typeof message.info === 'object') && (typeof message.info.coords === 'object')) {
          hookedObj.genLat = message.info.coords.lat;
          hookedObj.genLon = message.info.coords.lon;
          hookedObj.fakeGeo = message.info.fakeIt;
        }
        break;
      default:
        break;
    }
  }, false);
  //]]>
}
          )();</script>
  <!-- svg-source:excalidraw -->
  
  <defs>
    <style class="style-fonts">
      @font-face {
        font-family: "Virgil";
        src: url("https://excalidraw.com/Virgil.woff2");
      }
      @font-face {
        font-family: "Cascadia";
        src: url("https://excalidraw.com/Cascadia.woff2");
      }
    </style>
  </defs>
  <g stroke-linecap="round"><g transform="translate(174.813522990793 16.64387428093727) rotate(0 -82.15954359295665 90.02763736723401)" fill-rule="evenodd"><path d="M1.81 0.53 L-1.12 -0.84 L-5.8 -1.53 L-9.32 -4.55 L-17.28 -2.79 L-21.76 -3.22 L-25.24 -4.97 L-28.46 -5.5 L-34.27 -6.69 L-39.54 -4.99 L-43 -5.51 L-45.16 -4.19 L-48.13 -5.91 L-51.55 -2.58 L-56.42 -3.32 L-57.01 -0.54 L-60.7 -0.1 L-63.88 4.58 L-63.84 6.43 L-66.6 6.52 L-70.8 12.04 L-71.62 14.07 L-72.59 17.54 L-77.5 19.07 L-78.28 24.84 L-78.84 28.45 L-79 28.86 L-82.31 36.18 L-83.96 37.62 L-82.64 43.3 L-84.41 48.19 L-86.61 53.92 L-90.77 63.92 L-94.76 48.93 L-101.78 34.55 L-108.83 19.94 L-111.53 8.29 L-113.87 5.91 L-114.69 4.66 L-117.71 2.73 L-119.46 3.06 L-122.81 1.32 L-124.55 4.46 L-127.2 4.66 L-130.9 1.13 L-133.32 2.06 L-141.37 2.9 L-147.45 6.42 L-148.89 3.25 L-152.12 4.08 L-156.43 5.92 L-157.87 5.96 L-161.14 7.45 L-154.35 5.86 L-145.09 6.5 L-139.08 10.19 L-130.21 11.28 L-126.41 9.51 L-124.32 13.91 L-125.55 14.65 L-123.32 14.99 L-122.37 17.11 L-122.79 16 L-123.6 23.21 L-117.63 32.07 L-116.26 46.34 L-108.96 71.56 L-105.26 82.29 L-104.06 94.33 L-101.78 109.02 L-101.25 123.52 L-100.06 119.91 L-96.16 120.69 L-94.73 121.78 L-94.79 118.41 L-91.93 118 L-91.11 118.13 L-90.96 118.25 L-87.45 116.48 L-88.41 113.37 L-85.45 111.34 L-83.2 109.23 L-82.1 106.18 L-77.87 101.37 L-77.3 98.28 L-75.64 92.34 L-75.9 84.01 L-72.89 66.81 L-68.25 47.43 L-67.82 36.71 L-65.99 29.03 L-62.52 22.85 L-60.78 13.68 L-51.84 15.8 L-38.04 16.53 L-34.71 17.25 L-29.16 16.81 L-25.18 20.16 L-21.45 20.58 L-23.91 28.1 L-27.14 35.41 L-33.64 43.93 L-36.28 54.85 L-42.18 63.11 L-44.6 71.17 L-46.78 82.97 L-49.87 89.72 L-55.55 109.26 L-61.3 127.74 L-65.33 145.5 L-71.22 165.69 L-85.4 164.4 L-103.77 164.35 L-102.51 165.15 L-103.71 163.12 L-103.99 163.19 L-104.1 161.43 L-105.8 157.55 L-108.54 138.69 L-117.26 120.05 L-122.27 104.19 L-129.89 85.13 L-138.32 66.2 L-145.51 45.93 L-153.04 27.91 L-161.99 10.66 L-158.59 32.4 L-156.06 52.21 L-144.23 94.07 L-138.8 115.92 L-135.59 136.49 L-130.07 159.21 L-124.33 179.62 L-124.42 179.98 L-123.53 181.04 L-122.95 181.87 L-118.07 185.11 L-118.31 182.84 L-114.95 182.46 L-110.82 184.7 L-106.68 184.94 L-103.07 183.95 L-99.74 185.14 L-97.23 184.67 L-99.48 185.19 L-95.44 185.84 L-89.94 187.97 L-85.88 185.14 L-81.7 184.55 L-78.06 185.99 L-75.05 186.77 L-73 183.93 L-72.23 184 L-69.27 181.55 L-64.42 180.04 L-65.72 178.1 L-60.84 175.45 L-60.95 170.73 L-59.27 168.9 L-55.32 162.39 L-53.97 157.99 L-51.09 152.93 L-49.42 144.76 L-46.63 128.6 L-42.11 108.53 L-34.56 90.38 L-29.09 71.83 L-21.06 52.22 L-15.94 34.47 L-13.02 23.59 L-6.2 18.01 L-2.57 6.45 L1.11 0.69 L-1.53 1.46" stroke="none" stroke-width="0" fill="black" fill-rule="evenodd"/><path d="M0 0 C0 0, 0 0, 0 0 M0 0 C0 0, 0 0, 0 0 M0.49 -0.36 C-1.5 -0.69, -3.8 -1.25, -6.19 -1.96 M-0.25 0.02 C-1.35 -0.36, -3.33 -0.61, -5.5 -1.81 M-5.73 -1.38 C-7.43 -2.29, -9.15 -2.78, -10.63 -2.67 M-5.6 -1.88 C-7.51 -2.03, -9.1 -2.45, -11.17 -2.95 M-10.68 -2.83 C-12.26 -3.87, -13.48 -3.73, -15.56 -3.99 M-10.91 -2.99 C-12.73 -3.59, -15.22 -4.07, -16.22 -4.31 M-16.29 -4.01 C-17.4 -4.69, -18.75 -4.81, -20.95 -5.15 M-15.84 -4.45 C-17.29 -4.6, -17.98 -4.63, -20.95 -5.39 M-21.39 -5.08 C-22.46 -5.8, -24.35 -5.35, -26 -5.7 M-21.11 -5.01 C-22.31 -5.24, -23.26 -5.64, -25.35 -5.97 M-25.48 -6.06 C-27.61 -5.84, -28.57 -6.54, -29.7 -6.42 M-25.62 -5.71 C-26.8 -5.96, -27.82 -6.17, -30.12 -6.23 M-29.69 -6.16 C-31.09 -6.68, -33.08 -6.24, -34.54 -6.64 M-29.91 -6.13 C-31.19 -6.25, -32.21 -6.13, -34.09 -6.34 M-34.25 -6.5 C-35.39 -6.39, -37.39 -6.73, -37.93 -6.31 M-34.24 -6.47 C-35.58 -6.28, -36.98 -6.43, -38.26 -6.21 M-38.19 -6.01 C-38.84 -6.33, -40.14 -6.34, -41.99 -5.96 M-37.96 -6.39 C-39.31 -6.29, -40.76 -5.99, -41.99 -6.07 M-42.09 -6.33 C-43.15 -6.08, -44.35 -5.34, -45.56 -5.25 M-41.93 -5.99 C-42.69 -5.98, -43.53 -5.74, -45.58 -5.43 M-45.83 -5.15 C-46.65 -5.35, -48.24 -4.98, -49.23 -4.67 M-45.47 -5.48 C-46.59 -5.02, -47.5 -5.04, -48.71 -4.73 M-49.01 -4.41 C-49.69 -4.42, -50.88 -4.13, -51.91 -3.41 M-48.75 -4.61 C-49.59 -4.28, -50.48 -3.95, -51.99 -3.62 M-51.87 -3.82 C-52.5 -3.49, -53.26 -3.09, -55.26 -2.37 M-52.03 -3.51 C-52.61 -3.43, -53.5 -2.98, -55.22 -2.18 M-55.36 -1.94 C-55.92 -1.82, -56.16 -1.43, -57.74 -0.75 M-55.03 -2.1 C-55.6 -1.94, -56.23 -1.64, -57.86 -0.62 M-58.23 -0.81 C-58.94 0.05, -59.55 0.32, -60.89 1.08 M-58.06 -0.87 C-59.03 -0.04, -60.08 0.53, -60.68 0.91 M-60.46 1.16 C-61.02 1.3, -61.78 1.77, -63.02 2.87 M-60.66 0.96 C-61.71 1.79, -62.3 2.36, -63.24 2.83 M-63.49 3.21 C-64.33 4, -65.07 4.41, -65.86 5 M-63.38 3.04 C-63.87 3.39, -64.53 4.15, -65.52 5.06 M-65.89 5.4 C-66.69 6.07, -67.3 6.97, -67.75 7.75 M-65.47 5.12 C-66.21 5.8, -66.78 6.3, -68.01 7.58 M-68.17 7.8 C-68.37 8.5, -68.57 8.47, -70.26 10.52 M-67.92 7.53 C-68.47 8.42, -69.04 9.12, -70.09 10.28 M-70.32 10.46 C-70.64 10.98, -71.42 12.69, -71.93 13.02 M-69.87 10.14 C-70.67 11.09, -71.25 11.82, -72.09 13.22 M-72.12 13.26 C-72.58 14.57, -73.7 15.39, -73.79 15.91 M-72 13.22 C-72.84 14.05, -73.34 15.27, -74.01 16.1 M-73.98 15.78 C-74.49 16.8, -74.9 18.08, -75.54 19.3 M-73.87 16.29 C-74.47 17.02, -74.82 17.93, -75.87 19.27 M-75.88 19.41 C-75.95 20.46, -77.15 21.81, -77.18 22.64 M-75.72 19.37 C-76.31 20.66, -76.81 22.07, -77.46 22.88 M-77.5 22.81 C-78.15 24.3, -78.74 25.82, -79.29 26.76 M-77.41 22.95 C-77.79 23.5, -77.99 24.36, -79.09 26.73 M-79.31 26.19 C-79.44 27.45, -79.83 28.6, -80.13 30.77 M-78.89 26.68 C-79.3 27.55, -79.47 28.21, -80.57 30.49 M-80.42 30.66 C-80.81 31.64, -81.03 32.16, -81.52 34.11 M-80.25 30.38 C-80.86 31.98, -81.28 33, -81.98 34.34 M-82.19 34.65 C-82.59 35.55, -82.34 36.89, -83.57 39.21 M-81.82 34.32 C-82.3 36.21, -82.87 37.61, -83.39 38.98 M-83.44 38.83 C-83.86 40.37, -84.31 41.42, -84.65 43.57 M-83.37 38.72 C-83.53 40.03, -83.82 41.01, -84.45 43.21 M-84.16 43.51 C-84.37 43.95, -84.7 45.36, -85.26 48.22 M-84.55 43.09 C-84.93 44.42, -85.16 46.06, -85.83 47.73 M-86.01 47.4 C-86.17 49.98, -86.9 51.28, -86.82 52.35 M-85.93 47.92 C-86.27 49.69, -86.6 51.45, -87.01 52.86 M-86.81 51.94 C-87.49 56.2, -87.23 58.74, -89.03 63.19 M-86.54 52.38 C-87.36 56.08, -87.95 58.81, -89.45 62.9 M-88.65 61.61 C-89.84 58.25, -91.23 54.84, -93.91 50.01 M-89.83 62.59 C-91.3 59.04, -93.2 53.89, -94.1 49.22 M-94.48 49.12 C-97.23 44.34, -97.71 38.85, -101.15 33.48 M-94.73 49.5 C-97.04 43.53, -98.99 39.78, -100.63 34.56 M-101.25 34.27 C-102.42 31.14, -104.39 25.13, -107.94 21.08 M-100.61 34.45 C-102.12 31.18, -105.03 27.03, -107.52 20.69 M-107.25 20.52 C-108.41 15.47, -109.69 11.84, -113.11 5.32 M-106.6 20.98 C-109.16 18.15, -110.27 15.15, -113.38 6.75 M-113.45 6.59 C-113.54 6.33, -113.6 6.17, -113.9 5.94 M-113.46 6.6 C-113.56 6.38, -113.71 6.13, -113.85 5.89 M-113.84 5.8 C-114.1 5.57, -114.32 5.36, -114.32 5.25 M-113.82 5.86 C-113.95 5.67, -114.16 5.55, -114.4 5.21 M-114.5 5.17 C-114.71 5.06, -115.6 4.35, -115.94 4.21 M-114.45 5.18 C-114.81 4.86, -115.22 4.54, -116.07 4.18 M-116.16 4 C-116.51 3.81, -117.31 3.8, -118.33 3.31 M-115.88 4.12 C-116.37 3.88, -116.95 3.72, -118.26 3.4 M-118.21 3.2 C-118.55 3.03, -119.21 3.1, -121.12 3.08 M-118.22 3.43 C-119.07 3.16, -120.03 3.09, -120.96 3 M-120.68 2.96 C-121.57 2.58, -122.82 2.88, -124.16 2.66 M-121.02 2.88 C-121.96 2.84, -123.15 2.77, -123.89 2.64 M-124.25 2.51 C-124.75 2.7, -125.32 2.92, -127.29 2.79 M-123.91 2.54 C-125.39 2.67, -126.89 2.74, -127.52 2.53 M-127.79 2.54 C-128.8 2.91, -130.01 2.46, -131.33 3.03 M-127.53 2.71 C-128.42 2.59, -129.12 2.65, -131.18 2.76 M-131.01 2.52 C-132.82 3.02, -133.95 2.97, -135.45 3.39 M-131.27 2.73 C-131.99 2.75, -133.31 3.07, -135 3.16 M-135.21 3.71 C-137.76 3.85, -138.42 3.42, -143.69 4.14 M-134.73 2.89 C-137.61 3.63, -140.19 3.94, -143.08 3.83 M-143.24 4.27 C-144 3.89, -145.8 4.07, -147.01 4.26 M-142.77 3.92 C-144.12 4.32, -145.15 4.58, -146.51 4.46 M-146.89 4.77 C-148.3 4.8, -148.91 4.89, -150.3 5.37 M-146.76 4.51 C-148.01 4.68, -149.07 4.97, -150.31 5.12 M-150.29 4.93 C-151.24 5.33, -151.9 5.21, -153.68 5.6 M-150.24 5.11 C-151.43 5.3, -152.33 5.51, -153.42 5.81 M-153.78 5.88 C-154.27 5.54, -154.96 5.69, -156.47 6.06 M-153.67 5.54 C-154.28 5.92, -154.98 5.95, -156.42 6.26 M-156.26 6.31 C-157.05 6.07, -157.57 6.59, -158.58 6.34 M-156.31 6.27 C-156.99 6.14, -157.34 6.22, -158.75 6.61 M-158.82 6.44 C-159.34 6.52, -160.2 6.92, -160.79 6.87 M-158.85 6.59 C-159.45 6.72, -159.93 6.77, -160.63 6.89 M-160.57 6.06 C-159.42 6.4, -156.39 7.23, -152.8 7.26 M-160.61 6.76 C-158.2 6.59, -155.82 7.45, -152.6 7.35 M-152.06 6.55 C-150.64 7.21, -148.12 7.27, -145.53 8.43 M-152.48 7.13 C-150.43 7.72, -148.35 7.4, -145.08 7.69 M-144.9 8.42 C-142.7 7.69, -141.13 9.1, -137.85 9.22 M-145.12 8.21 C-142.92 8.37, -141.12 8.4, -137.27 9.34 M-138.03 10 C-134.44 10.27, -131.26 10.8, -128.71 11.52 M-137.31 9.02 C-134.49 9.72, -131.85 10.07, -129.31 10.72 M-129.57 11.16 C-128.86 11.16, -128.12 11.35, -127.45 11.42 M-129.49 11.03 C-128.95 11.01, -128.28 11.14, -127.54 11.29 M-127.47 11.32 C-126.83 11.5, -126.38 11.71, -125.91 11.94 M-127.4 11.25 C-126.92 11.42, -126.35 11.65, -125.76 12.03 M-125.73 12.04 C-125.42 12.3, -125.17 12.37, -124.57 13.18 M-125.83 12.04 C-125.53 12.23, -125.2 12.61, -124.68 13.1 M-124.63 12.94 C-124.33 13.3, -124.34 13.7, -123.82 14.3 M-124.65 13.02 C-124.4 13.4, -124.28 13.82, -123.71 14.47 M-123.78 14.51 C-123.68 14.95, -123.57 15.31, -123.16 15.88 M-123.7 14.46 C-123.59 14.94, -123.32 15.51, -123.15 16.01 M-123.27 16.13 C-123.19 16.38, -122.83 16.65, -122.87 17.95 M-123.11 15.99 C-122.99 16.46, -123.03 16.85, -122.67 17.84 M-122.8 18.01 C-122.64 19.21, -122.41 20.03, -122.29 21.72 M-122.66 17.86 C-122.46 18.58, -122.43 19.18, -121.99 21.66 M-121.15 22.13 C-120.64 24.45, -120.23 28.51, -119.13 34.69 M-122.48 21.09 C-120.75 26.53, -119.6 31.47, -119.35 33.52 M-118.28 34.2 C-117.57 36.75, -118.89 39.83, -115.22 45.79 M-119.17 34.2 C-117.87 37.78, -118.08 40.4, -116.3 45.98 M-117.8 48.43 C-115.8 52.01, -114.48 58.34, -109.07 70.43 M-115.66 46.79 C-114.31 54.2, -111.35 62.64, -109.78 72.34 M-111.27 71.41 C-108.04 75.77, -108.48 81.92, -107.11 83.24 M-110.63 71.65 C-108.96 75.94, -107.99 80.64, -107.81 83.9 M-106.52 83.28 C-106.78 86.59, -105.63 89.54, -105.51 97.09 M-106.57 84.13 C-105.9 88.03, -105.14 91.38, -104.7 96.72 M-104.44 97.13 C-104.12 100.3, -102.57 105.32, -102.2 108.65 M-103.87 96.47 C-104.16 101.37, -102.77 105.17, -101.33 109.13 M-102.18 109.92 C-101.04 112.86, -101.35 115.59, -100.38 121.6 M-102.04 109.44 C-101.04 113.29, -100.39 118.45, -100.33 121.84 M-99.86 121.53 C-99.51 121.7, -99.12 121.64, -98.59 121.64 M-99.77 121.56 C-99.48 121.56, -99.07 121.68, -98.75 121.71 M-98.64 121.63 C-98.31 121.6, -97.78 121.48, -97.4 121.33 M-98.68 121.7 C-98.42 121.67, -98.19 121.53, -97.49 121.35 M-97.42 121.53 C-97.32 121.28, -96.96 121.12, -96.09 120.77 M-97.48 121.38 C-96.94 121.25, -96.49 121, -96.14 120.76 M-96.21 120.89 C-95.83 120.42, -95.54 120.2, -94.86 119.88 M-96.12 120.83 C-95.91 120.66, -95.6 120.37, -94.84 119.99 M-95.09 120.05 C-94.26 119.68, -93.47 118.95, -92.41 117.76 M-94.86 120.05 C-93.97 119.35, -93.02 118.61, -92.44 117.83 M-92.45 117.97 C-92.18 117.87, -91.75 117.47, -91.18 116.97 M-92.4 117.88 C-92.02 117.61, -91.59 117.25, -91.28 117.08 M-91.36 117.11 C-91.03 116.7, -90.58 116.54, -90.4 116.35 M-91.29 116.98 C-90.92 116.75, -90.54 116.43, -90.37 116.25 M-90.23 116.39 C-89.54 115.61, -89.04 114.92, -88.28 114.57 M-90.44 116.38 C-89.62 115.65, -89.12 115.19, -88.29 114.85 M-88.25 114.62 C-87.89 114.32, -87.13 113.53, -86.74 113.14 M-88.32 114.71 C-87.72 114.21, -87.16 113.69, -86.43 113.1 M-86.35 113.01 C-86.18 112.3, -85.53 111.62, -84.99 111.36 M-86.54 113.04 C-86.02 112.4, -85.19 111.59, -84.91 111.36 M-84.95 111.28 C-84.69 110.78, -84.34 110.26, -83.64 109.5 M-85 111.25 C-84.5 110.76, -83.92 109.98, -83.61 109.48 M-83.66 109.23 C-83.17 108.58, -82.51 107.26, -81.59 105.2 M-83.64 109.27 C-83.05 108.15, -82.49 107.24, -81.17 105.4 M-81.02 105.74 C-81.19 104.13, -80.58 103.13, -79.47 101.39 M-81.17 105.31 C-80.85 104.65, -80.36 103.59, -79.55 101.29 M-79.11 100.88 C-79.55 100.03, -78.91 97.93, -78.49 96.39 M-79.55 101.21 C-78.94 99.41, -78.69 97.95, -78.33 96.69 M-78.69 96.55 C-78.49 95.39, -78.21 94.12, -77.35 91.68 M-78.43 96.88 C-78 94.95, -77.45 93.14, -77.36 92.22 M-77.41 91.31 C-75.88 87.72, -75.54 84.04, -75.37 82.44 M-77.1 91.62 C-76.9 88.26, -76.54 84.42, -75.8 82.19 M-75.52 83.76 C-74.42 79.92, -73.41 73.98, -72.26 64.01 M-76.08 82.9 C-74.93 74.71, -73.42 69.06, -72.34 64.56 M-72.27 64.32 C-71.27 61.04, -70.53 53.8, -70.64 48.04 M-72.84 64 C-71.43 60.55, -71.41 56.89, -69.62 48.02 M-70.25 47.71 C-68.42 43.89, -68.27 41.78, -67.27 39.24 M-69.7 47.11 C-69.12 44.81, -68.71 42.39, -67.43 38.54 M-67.87 38.41 C-67.93 36.42, -65.99 34.82, -65.61 30.12 M-67.35 38.98 C-67.21 36.02, -66.6 33.24, -65.87 29.84 M-65.3 30.09 C-64.59 27.43, -65.05 25.25, -63.6 22.68 M-65.24 30.05 C-64.9 28.04, -63.79 25.05, -63.33 22.07 M-63.37 21.24 C-62.24 18.98, -62.19 16.27, -61.14 14.86 M-63.14 21.92 C-62.39 20.44, -62.06 18.71, -60.8 14.13 M-61.51 14.99 C-57.95 14.53, -54.02 14.33, -50.74 14.64 M-60.5 14.25 C-58.85 14.65, -56.1 14.57, -49.74 15.14 M-49.4 14.02 C-48.15 15.6, -45.43 15.36, -39.14 16.21 M-49.81 14.96 C-45.69 14.77, -41.55 15.11, -38.66 15.88 M-38.88 15.68 C-36.99 15.36, -36.4 16.35, -33.42 15.64 M-39.21 15.32 C-37.97 15.74, -36.7 15.87, -33.53 16.34 M-34.15 15.75 C-31.63 16.93, -29.7 16.27, -28.52 17.5 M-33.53 16.19 C-32.2 16.38, -30.99 16.65, -28.71 16.91 M-29.21 16.92 C-27.34 17.37, -26.03 18.18, -24.43 17.87 M-28.86 16.91 C-27.66 17.35, -27.05 17.55, -24.04 18.3 M-24.09 17.95 C-22.26 18.5, -21.53 19.59, -20.14 19.83 M-23.9 18.16 C-23.16 18.66, -22.16 18.99, -19.64 19.83 M-19.77 19.01 C-20.96 21.49, -23.32 24.68, -24.13 28.65 M-20.28 19.32 C-21.4 22.56, -23.63 25.96, -24.57 28.47 M-24.16 27.6 C-26.39 30.6, -28.38 34, -29.44 35.81 M-24.97 28.39 C-26.27 31.02, -27.33 33.83, -29.31 36.54 M-28.27 37.57 C-30.75 37.98, -31.61 39.97, -33.44 46.36 M-28.85 37 C-30.2 39.35, -31.36 41.3, -33.19 45.63 M-32.72 44.56 C-35.28 49.72, -36.69 52.37, -37.49 55.19 M-33.47 45.23 C-34.64 48.84, -35.59 51.71, -37.23 54.8 M-37.12 54.11 C-38.57 56.64, -37.91 58.26, -40.12 62.47 M-36.7 54.48 C-38.01 56.56, -39.07 58.66, -41.15 63.36 M-40.7 63.9 C-42.32 64.92, -43.21 67.64, -43.61 73.3 M-40.7 63.25 C-41.43 65.87, -42.51 67.41, -44.42 72.48 M-44.95 73.15 C-45.88 75.55, -45.96 78.57, -46.79 81.86 M-44.26 72.59 C-45.29 76.57, -46.26 80.35, -47.49 81.93 M-48.42 82.34 C-47.5 85.08, -48.7 88.7, -49.68 90.6 M-47.84 81.93 C-48.43 84.04, -48.93 86.62, -50.9 90.71 M-52.14 90.78 C-53.04 94.62, -54.02 97.9, -57.6 109.27 M-51.03 90.27 C-52.16 96, -54.49 101.83, -56.34 110.26 M-57.8 110.9 C-58.2 117.07, -61.03 123.86, -62.32 127.09 M-56.14 110.51 C-58.41 117.24, -60.03 124.48, -62.03 129.34 M-62.62 127.01 C-62.94 133.22, -66.84 143.11, -66.48 147.47 M-61.49 128.18 C-63.67 134.35, -64.67 138.77, -66.22 146.68 M-65.56 147.75 C-68.18 154.9, -70.65 161.22, -73.4 164.92 M-66.95 147.55 C-67.8 152.33, -70.46 157.97, -72.11 166.91 M-70.7 165.71 C-77.21 164.63, -83.73 164.37, -85.84 164.02 M-71.49 166.2 C-75.29 165.5, -79.14 164.98, -86.55 164.37 M-88.2 164.06 C-91.54 165.61, -94.85 164.23, -103.35 162.26 M-86.5 164.59 C-91.67 164.58, -96.78 163.53, -102.12 163.08 M-102.21 163.69 C-102.29 163.65, -102.38 163.57, -102.62 163.34 M-102.14 163.71 C-102.28 163.62, -102.37 163.57, -102.66 163.39 M-102.73 163.35 C-102.74 163.26, -102.8 163.26, -103.07 163.01 M-102.66 163.41 C-102.82 163.25, -102.99 163.09, -103.06 162.99 M-102.95 163.05 C-103.19 162.77, -103.39 162.44, -103.51 161.95 M-103.07 162.92 C-103.16 162.73, -103.33 162.36, -103.54 161.89 M-103.5 161.96 C-103.71 161.62, -103.6 161.16, -103.76 160.71 M-103.57 161.94 C-103.55 161.64, -103.67 161.45, -103.88 160.7 M-103.8 160.76 C-103.88 160.24, -104.2 159.83, -104.15 159.46 M-103.79 160.7 C-104.04 160.26, -104.2 159.72, -104.18 159.53 M-102.3 161.39 C-107.99 153.14, -109.51 145.86, -109.99 139.35 M-104.42 158.61 C-105.31 153.62, -107.75 149.04, -109.42 140.57 M-110.02 139.54 C-113.57 131.08, -115.38 124.43, -117.75 122.39 M-109.68 141.02 C-111.34 134.81, -114.71 128.4, -116.34 121.12 M-118.36 122.14 C-119.18 116.66, -119.46 109.72, -123.96 104.17 M-116.83 122.17 C-118.05 117.54, -119.59 113.3, -123.53 101.38 M-123.27 101.58 C-124.07 99.27, -124.86 94.68, -129.17 84.74 M-123.41 101.81 C-124.5 97.69, -125.48 95.36, -130.87 83.47 M-128.71 82.81 C-130.87 78.73, -133.06 76.31, -138.3 63.06 M-131.34 83.37 C-131.44 78.67, -134.7 74.02, -137.47 64.93 M-136 66.72 C-140.31 57.56, -145.2 53.08, -146.02 48.44 M-137.27 65.17 C-140.49 60.72, -140.61 57.14, -145.97 46.06 M-145.21 45.5 C-147.97 43.23, -148.16 38.39, -154.09 27.85 M-146.9 45.81 C-148.67 41.67, -150.69 37.73, -154.85 29.21 M-156.52 30.04 C-158.53 20.08, -163.26 16.09, -164.81 9.32 M-155.24 27.45 C-157.88 21.84, -160.16 15.87, -164.75 10.12 M-163.63 9.27 C-162.42 19.58, -158.8 26.55, -160.08 32.16 M-162.99 11.12 C-162.14 17.25, -161.53 24.49, -158.53 32.09 M-160.84 32.42 C-158.25 35.33, -157.78 42.43, -152.82 53.72 M-158.55 30.91 C-158.2 38.72, -156.81 44.91, -153.63 52.59 M-154.49 51.73 C-151.69 64.64, -149.09 80.13, -146.02 94.81 M-154.41 52.6 C-151.08 66.74, -147.44 80.15, -143.99 96.73 M-145.96 95.92 C-144.84 101.71, -140.97 105.98, -139.54 118.35 M-145.06 95.09 C-142.7 102.23, -140.92 109.02, -139.86 117.79 M-138.52 116.82 C-139.11 124.75, -136.61 130.84, -133.87 137.64 M-138.79 116.95 C-137.52 125.17, -135.81 130.69, -134.48 139.42 M-133.08 137.63 C-130.18 145.65, -130.7 153.73, -127.12 157.83 M-134.39 138.64 C-132.13 145.1, -131.18 149.62, -127.96 159.1 M-129.14 158.43 C-125.38 168.49, -126.85 172.89, -123.51 180.78 M-129.03 159.92 C-126.74 165.75, -125.61 171.26, -122.79 180.83 M-123.08 180.23 C-123.17 180.51, -122.98 181, -123.02 181.3 M-123.21 180.21 C-123.11 180.45, -123.02 180.79, -122.98 181.31 M-122.91 181.28 C-122.86 181.44, -122.66 181.72, -122.37 182.3 M-122.96 181.27 C-122.74 181.69, -122.43 181.93, -122.28 182.27 M-122.32 182.11 C-121.86 182.57, -121.39 182.79, -121.24 182.81 M-122.32 182.17 C-121.9 182.48, -121.41 182.79, -121.2 182.88 M-121.12 183 C-120.63 183.26, -120.42 183.25, -119.83 183.45 M-121.26 182.96 C-120.76 183.05, -120.46 183.24, -119.7 183.49 M-119.67 183.57 C-119.48 183.72, -118.98 183.61, -118.16 183.74 M-119.77 183.44 C-119.41 183.5, -118.89 183.61, -118.06 183.92 M-117.98 183.86 C-117.43 184.08, -116.78 183.95, -116.09 184.07 M-117.98 183.98 C-117.56 183.9, -117.02 183.98, -116.13 184.27 M-116.54 184.12 C-114.48 184.53, -113.26 184.29, -112.2 184.18 M-116.29 184.24 C-115.25 184.36, -114.42 184.12, -111.95 184.64 M-111.4 184.78 C-110.76 184.31, -108.99 184.12, -106.88 184.23 M-111.72 184.67 C-110.99 184.64, -110.15 184.64, -107.36 184.5 M-107.51 184.85 C-105.91 184.38, -104.57 184.54, -102.56 184.3 M-107.4 184.62 C-105.76 184.77, -104.42 184.86, -102.68 184.64 M-102.78 184.72 C-102.37 184.85, -101.81 184.7, -100.81 184.85 M-102.81 184.68 C-102.16 184.7, -101.42 184.72, -100.83 184.72 M-100.71 184.67 C-100.2 184.99, -99.63 184.79, -99.03 185.07 M-100.8 184.84 C-100.32 184.85, -99.84 184.95, -99.01 185.04 M-98.91 184.92 C-98.4 185.04, -97.89 185.19, -97.51 185.36 M-99.05 184.92 C-98.53 184.99, -98.03 185.11, -97.45 185.2 M-97.63 185.22 C-97.15 185.4, -96.75 185.43, -96.36 185.6 M-97.56 185.19 C-97.02 185.39, -96.67 185.51, -96.31 185.52 M-96.76 185.43 C-93.6 186.25, -92.55 186.09, -90.81 185.71 M-96.06 185.47 C-94.47 185.87, -92.72 185.98, -90.59 186.26 M-90.5 186.42 C-88.72 186.17, -87.59 185.89, -84.88 185.97 M-90.69 185.92 C-88.33 185.94, -86.49 186.41, -84.2 186.68 M-84.42 186.7 C-83.92 186.19, -83.21 186.52, -81.33 186.23 M-84.4 186.49 C-83.69 186.33, -82.83 186.45, -81.31 186.52 M-81.53 186.5 C-80.26 186.28, -79.13 186.12, -78.68 186.4 M-81.34 186.3 C-80.74 186.37, -80.12 186.44, -78.57 186.27 M-78.56 186.21 C-78.26 186.18, -77.58 185.89, -75.8 185.35 M-78.48 186.1 C-77.62 186.04, -76.67 185.68, -75.86 185.54 M-75.85 185.32 C-75.05 185.08, -74.3 185.09, -73.01 184.17 M-75.8 185.44 C-74.8 184.99, -73.83 184.68, -73.29 184.55 M-73.33 184.17 C-72.24 183.72, -71.55 183.49, -70.68 182.75 M-73.29 184.28 C-72.17 183.69, -71.26 183.26, -70.62 182.71 M-70.56 182.69 C-69.44 181.73, -68.9 181.31, -68.13 180.98 M-70.76 182.63 C-70.22 182.26, -69.56 181.86, -68.25 180.94 M-68.53 180.84 C-67.37 180.06, -66.95 179.64, -66.36 178.68 M-68.35 180.98 C-67.82 180.41, -67.15 180.08, -66.06 179.05 M-65.95 178.74 C-65.42 178.56, -65.2 177.86, -64.25 176.62 M-66.14 178.97 C-65.46 178.01, -64.72 177.35, -64.13 176.94 M-64.23 176.99 C-63.81 176.09, -63.38 175.74, -62.31 174.63 M-64.1 176.85 C-63.74 176.33, -63.28 175.67, -62.52 174.56 M-62.52 174.85 C-61.78 173.78, -61.4 173.16, -60.57 172.14 M-62.36 174.52 C-61.92 173.79, -61.41 173.05, -60.75 172.3 M-60.7 172.58 C-59.76 170.9, -58.27 168.37, -57.98 167.17 M-60.7 172.27 C-59.63 170.48, -58.76 168.96, -57.9 167.26 M-57.78 167.78 C-56.95 165.66, -57.1 164.48, -55.93 162.49 M-57.96 167.4 C-57.42 165.54, -56.17 163.62, -55.82 162.04 M-55.21 161.53 C-55.66 160.22, -54.59 159.08, -53.56 156.71 M-55.56 162.06 C-54.81 160.36, -54.43 158.18, -53.56 156.39 M-54.16 157.16 C-53.55 154.68, -53.05 153.19, -51.88 150.42 M-53.85 156.47 C-53.29 154.48, -52.91 152.59, -52.33 150.8 M-51.99 150.91 C-51.68 149.93, -51.61 148.35, -50.6 144.82 M-52.32 150.92 C-51.94 149.09, -51.59 146.52, -50.93 145.15 M-50.18 146.83 C-49.17 141.77, -48.23 135.37, -44.58 125.89 M-51.87 144.46 C-50.28 138.36, -47.2 132.09, -45.47 127.75 M-45.51 126.22 C-44.31 122.99, -42.13 119.56, -41.75 109 M-46.24 127.09 C-45.61 121.95, -42.15 115.8, -41.2 108.13 M-40.87 106.77 C-39.06 101.72, -38.95 100.62, -34.7 87.57 M-41.49 108.25 C-38.51 101, -37.76 94.65, -34.9 89.31 M-37.24 87.53 C-33.69 82.75, -30.86 75.37, -29.7 70.84 M-34.93 88.4 C-33.01 84.44, -32.24 79.71, -28.66 69.76 M-29.58 71.81 C-25.12 64.5, -24.91 55.61, -23.53 51.23 M-28.24 70.72 C-26.65 64.39, -25.12 56.15, -21.95 52.35 M-23.89 50.97 C-19.39 44.25, -15.57 39.05, -16.52 35.08 M-21.93 52.46 C-19.2 46.57, -16.89 39.54, -15.79 33.88 M-15.26 34.63 C-13.39 31.84, -12.69 27.64, -10.85 26.22 M-15.51 34.15 C-14.25 31.41, -13.45 28.57, -11.39 25.07 M-11.64 25.68 C-10.92 22.23, -9.26 20.35, -7.83 15.97 M-11.88 25.44 C-10.13 23.19, -9.34 20.14, -7.61 16.44 M-7.01 16.97 C-6.49 14.32, -5.84 12.91, -4.73 8.19 M-8.21 16.64 C-6.84 13.95, -5.79 11.5, -4.12 8.07 M-3.64 8.52 C-2.53 5.6, -1.28 3.41, 0.03 -0.5 M-3.91 7.83 C-2.5 5.28, -0.9 1.91, -0.23 0.42 M0 0 C0 0, 0 0, 0 0 M0 0 C0 0, 0 0, 0 0 M0 0 C0 0, 0 0, 0 0 M0 0 C0 0, 0 0, 0 0" stroke="#000000" stroke-width="1" fill="none"/></g></g></svg>