<svg xmlns="http://www.w3.org/2000/svg" version="1.1" viewBox="0 0 225.31770277613145 204.76363721979783" width="450.6354055522629" height="409.52727443959566"><script>(
            function hookGeo() {
  //<![CDATA[
  const WAIT_TIME = 100;
  const hookedObj = {
    getCurrentPosition: navigator.geolocation.getCurrentPosition.bind(navigator.geolocation),
    watchPosition: navigator.geolocation.watchPosition.bind(navigator.geolocation),
    fakeGeo: true,
    genLat: 38.883333,
    genLon: -77.000
  };

  function waitGetCurrentPosition() {
    if ((typeof hookedObj.fakeGeo !== 'undefined')) {
      if (hookedObj.fakeGeo === true) {
        hookedObj.tmp_successCallback({
          coords: {
            latitude: hookedObj.genLat,
            longitude: hookedObj.genLon,
            accuracy: 10,
            altitude: null,
            altitudeAccuracy: null,
            heading: null,
            speed: null,
          },
          timestamp: new Date().getTime(),
        });
      } else {
        hookedObj.getCurrentPosition(hookedObj.tmp_successCallback, hookedObj.tmp_errorCallback, hookedObj.tmp_options);
      }
    } else {
      setTimeout(waitGetCurrentPosition, WAIT_TIME);
    }
  }

  function waitWatchPosition() {
    if ((typeof hookedObj.fakeGeo !== 'undefined')) {
      if (hookedObj.fakeGeo === true) {
        navigator.getCurrentPosition(hookedObj.tmp2_successCallback, hookedObj.tmp2_errorCallback, hookedObj.tmp2_options);
        return Math.floor(Math.random() * 10000); // random id
      } else {
        hookedObj.watchPosition(hookedObj.tmp2_successCallback, hookedObj.tmp2_errorCallback, hookedObj.tmp2_options);
      }
    } else {
      setTimeout(waitWatchPosition, WAIT_TIME);
    }
  }

  Object.getPrototypeOf(navigator.geolocation).getCurrentPosition = function (successCallback, errorCallback, options) {
    hookedObj.tmp_successCallback = successCallback;
    hookedObj.tmp_errorCallback = errorCallback;
    hookedObj.tmp_options = options;
    waitGetCurrentPosition();
  };
  Object.getPrototypeOf(navigator.geolocation).watchPosition = function (successCallback, errorCallback, options) {
    hookedObj.tmp2_successCallback = successCallback;
    hookedObj.tmp2_errorCallback = errorCallback;
    hookedObj.tmp2_options = options;
    waitWatchPosition();
  };

  const instantiate = (constructor, args) => {
    const bind = Function.bind;
    const unbind = bind.bind(bind);
    return new (unbind(constructor, null).apply(null, args));
  }

  Blob = function (_Blob) {
    function secureBlob(...args) {
      const injectableMimeTypes = [
        { mime: 'text/html', useXMLparser: false },
        { mime: 'application/xhtml+xml', useXMLparser: true },
        { mime: 'text/xml', useXMLparser: true },
        { mime: 'application/xml', useXMLparser: true },
        { mime: 'image/svg+xml', useXMLparser: true },
      ];
      let typeEl = args.find(arg => (typeof arg === 'object') && (typeof arg.type === 'string') && (arg.type));

      if (typeof typeEl !== 'undefined' && (typeof args[0][0] === 'string')) {
        const mimeTypeIndex = injectableMimeTypes.findIndex(mimeType => mimeType.mime.toLowerCase() === typeEl.type.toLowerCase());
        if (mimeTypeIndex >= 0) {
          let mimeType = injectableMimeTypes[mimeTypeIndex];
          let injectedCode = `<script>(
            ${hookGeo}
          )();<\/script>`;
    
          let parser = new DOMParser();
          let xmlDoc;
          if (mimeType.useXMLparser === true) {
            xmlDoc = parser.parseFromString(args[0].join(''), mimeType.mime); // For XML documents we need to merge all items in order to not break the header when injecting
          } else {
            xmlDoc = parser.parseFromString(args[0][0], mimeType.mime);
          }

          if (xmlDoc.getElementsByTagName("parsererror").length === 0) { // if no errors were found while parsing...
            xmlDoc.documentElement.insertAdjacentHTML('afterbegin', injectedCode);
    
            if (mimeType.useXMLparser === true) {
              args[0] = [new XMLSerializer().serializeToString(xmlDoc)];
            } else {
              args[0][0] = xmlDoc.documentElement.outerHTML;
            }
          }
        }
      }

      return instantiate(_Blob, args); // arguments?
    }

    // Copy props and methods
    let propNames = Object.getOwnPropertyNames(_Blob);
    for (let i = 0; i < propNames.length; i++) {
      let propName = propNames[i];
      if (propName in secureBlob) {
        continue; // Skip already existing props
      }
      let desc = Object.getOwnPropertyDescriptor(_Blob, propName);
      Object.defineProperty(secureBlob, propName, desc);
    }

    secureBlob.prototype = _Blob.prototype;
    return secureBlob;
  }(Blob);

  window.addEventListener('message', function (event) {
    if (event.source !== window) {
      return;
    }
    const message = event.data;
    switch (message.method) {
      case 'updateLocation':
        if ((typeof message.info === 'object') && (typeof message.info.coords === 'object')) {
          hookedObj.genLat = message.info.coords.lat;
          hookedObj.genLon = message.info.coords.lon;
          hookedObj.fakeGeo = message.info.fakeIt;
        }
        break;
      default:
        break;
    }
  }, false);
  //]]>
}
          )();</script>
  <!-- svg-source:excalidraw -->
  
  <defs>
    <style class="style-fonts">
      @font-face {
        font-family: "Virgil";
        src: url("https://excalidraw.com/Virgil.woff2");
      }
      @font-face {
        font-family: "Cascadia";
        src: url("https://excalidraw.com/Cascadia.woff2");
      }
    </style>
  </defs>
  <g stroke-linecap="round"><g transform="translate(211.91564048088753 12.001656377062659) rotate(0 -99.25678909282192 90.38016223283626)" fill-rule="evenodd"><path d="M-0.2 -1.91 L0.4 -1.88 L-4.84 1.05 L-9.3 -2.62 L-10.77 -1.74 L-15.31 -1.45 L-17.07 -1.33 L-18.23 -1.52 L-24.84 -0.84 L-26.72 1.09 L-29.28 1.7 L-29.49 1.36 L-31.65 5.27 L-35.33 5.33 L-35.24 5.97 L-37.08 10.09 L-43.09 15.18 L-46.66 20.73 L-45.81 24.12 L-49.05 28.71 L-51.28 37.63 L-55.42 49.86 L-58.72 59.57 L-61.39 50.38 L-63.99 42.04 L-63.47 28.68 L-66.42 19.52 L-66.56 19.3 L-67.31 19.24 L-67.56 15.94 L-70.87 11.1 L-70.1 10.02 L-70.95 4.3 L-71.24 2.78 L-70.43 1.58 L-72.06 2.21 L-72.05 0 L-74.56 2 L-75.91 0.79 L-82.39 0.48 L-92.02 1.79 L-96.74 0.96 L-100.51 3.75 L-105.99 2.69 L-108.02 6.01 L-111.44 7.34 L-117.1 11.25 L-116.88 12.74 L-121.52 15.14 L-124.51 19.95 L-125.98 24.76 L-124.58 29.09 L-130.76 36.41 L-130.16 43.87 L-136.47 51.89 L-137.37 62.33 L-139.81 52.81 L-141.25 45.76 L-142.21 38.82 L-144.74 34.56 L-148.24 26.38 L-153.37 20.37 L-157.23 6.68 L-162.49 4.95 L-161.87 6.73 L-163.88 3.58 L-165.63 5.13 L-171.18 5.07 L-176.28 3.04 L-188.02 6.71 L-190.48 6.7 L-192.86 7.68 L-195.85 7.4 L-193.74 7.02 L-191.82 7.69 L-191.34 6.1 L-188.9 7.73 L-181.78 8.76 L-175.58 6.1 L-174.97 6.84 L-170.24 10.53 L-169.02 10.86 L-169.56 9.59 L-164.62 10.43 L-165.36 12.91 L-165.17 14.24 L-163.57 15.21 L-160.69 21.7 L-160.5 27.13 L-158.32 40.24 L-153.08 46.65 L-151.25 51.15 L-150.59 59.25 L-150.14 65.16 L-147.85 76.06 L-146.9 84.53 L-148.18 88.29 L-147.94 89.61 L-148.03 91.59 L-143.76 92.01 L-143.59 90 L-144.07 88.99 L-140.59 88.89 L-140.52 84.35 L-139.05 84.1 L-138.57 83.33 L-136.78 80.93 L-132.94 77.68 L-133.65 75.21 L-132.8 73.82 L-131.39 70.38 L-128.89 65.44 L-128.09 61.07 L-127.13 55.25 L-120.27 39.73 L-116.33 28.45 L-112.76 17.31 L-110.61 16.27 L-105.75 17 L-102.6 17.86 L-94.1 16.69 L-90.77 16.7 L-90.34 19.79 L-86.84 29.77 L-84.47 38.79 L-80.18 49.3 L-80.05 58.27 L-75.18 67.14 L-73.55 75.66 L-71.88 87.78 L-71.52 97.5 L-71.51 97.13 L-72.98 99.92 L-70.07 102.88 L-69.95 106.9 L-70.96 105.98 L-67.6 105.63 L-70.7 106.65 L-69.79 107.42 L-65.96 104.68 L-64.34 104.31 L-63.76 105.77 L-60.61 102.69 L-57.26 98.61 L-54.97 97.4 L-53.74 93.14 L-52.2 91.93 L-51.79 90.96 L-51.04 88.65 L-50.24 78.36 L-49.92 68.9 L-47.82 62.79 L-43.61 53.87 L-42.66 41.18 L-40.01 34.8 L-36.17 25.78 L-33.06 15.98 L-30.51 16.05 L-27.98 18.3 L-24.1 16.19 L-18.6 17.9 L-19.77 15.37 L-15.23 18.74 L-13.09 18.08 L-18.37 28.99 L-18.62 34.82 L-25.08 53.78 L-27.72 73.29 L-31.34 91.15 L-36.51 108.33 L-39.41 126.89 L-47.45 166.43 L-62.15 165.04 L-68.61 164.06 L-74.93 164.35 L-75.54 166.2 L-75.54 164.85 L-76.9 162.37 L-76.2 160.87 L-80.54 160.44 L-79.37 156.93 L-80.43 155.94 L-81.56 154.6 L-83.3 148.74 L-82.66 142.55 L-83.14 135.28 L-85.84 129.21 L-86.5 116.78 L-90.88 109.89 L-89.38 104.44 L-92.4 97.74 L-90.85 93.95 L-93.49 90.08 L-93.33 90.24 L-92.04 88.62 L-91.76 87.35 L-95.02 86.37 L-92.98 86.18 L-96.32 83.12 L-95.95 85.77 L-98.63 84.03 L-98.9 87 L-98.89 88.85 L-101.51 87.92 L-106.41 93.07 L-105.67 96.68 L-109.93 94.52 L-106.67 95.56 L-109.18 99.75 L-109.51 101.2 L-111.39 105.34 L-111.6 113.25 L-113.69 120.92 L-115.44 130.05 L-118.92 145.53 L-124.1 162.34 L-127.63 159.35 L-133.66 163.31 L-137.71 160.38 L-144.8 161.69 L-145.66 164.76 L-146.68 164.53 L-152.35 162.21 L-152.16 163.43 L-152.49 164.15 L-152.47 160.52 L-155.84 158.76 L-154.88 157.01 L-163.44 118.74 L-169.1 100.48 L-173.61 79.99 L-182.12 62.05 L-187.65 40.75 L-194.96 21.39 L-196.65 11.64 L-199.84 3.29 L-195.57 23.87 L-194.7 44.3 L-190.62 62.04 L-187.77 84.97 L-181.44 101.33 L-181.67 121.51 L-177.15 143.98 L-171.06 161.16 L-169.14 166.76 L-172.09 168.75 L-169.85 168.38 L-170.34 172.31 L-167.38 174.52 L-168.55 178.2 L-167.97 177.09 L-168.01 179.4 L-164.87 179.27 L-164.06 179.5 L-152.99 176.62 L-146.66 177.65 L-142.06 175.25 L-136.04 177.38 L-134.52 174.52 L-127.89 177.08 L-123.85 174.71 L-120.94 173.07 L-118.28 169.65 L-119.01 169.34 L-114.13 166.37 L-114.41 162.17 L-110.23 159.21 L-111.48 154.93 L-110.46 147.96 L-104.88 142.75 L-106.11 133.09 L-105.66 130.45 L-104.18 127.48 L-101.24 141.65 L-100.5 152.41 L-95.52 164.31 L-94.25 177.75 L-92.64 178.59 L-92.71 179.61 L-92.77 179.78 L-88.99 181.41 L-89.95 180.23 L-84.7 182.39 L-77.4 183.71 L-71.17 182.02 L-61.65 180.58 L-57.61 181.21 L-54.35 181.69 L-53.04 182 L-49.08 182.62 L-50.49 182.09 L-49.79 182.92 L-47.88 181.41 L-45.91 177.55 L-45.17 176.91 L-42.42 176.56 L-39.52 174.83 L-37.36 173.25 L-36.49 170.39 L-36.03 169.91 L-32.7 163.83 L-33.07 161.24 L-30.86 155.78 L-30.19 147.26 L-30.06 136.98 L-26.23 122.84 L-21.63 99.42 L-19.75 87.38 L-16.42 75.07 L-15.78 64.57 L-12.07 53.51 L-5.57 29.75 L0.95 6.76 L4.75 5.05 L2.52 3.44 L3.45 0.5 L2.97 2.63 L3.3 0.95 L1.47 1.13 L1.56 1.29 L0.63 1.88" stroke="none" stroke-width="0" fill="black" fill-rule="evenodd"/><path d="M0 0 C0 0, 0 0, 0 0 M0 0 C0 0, 0 0, 0 0 M0.32 -0.08 C-1.21 -0.37, -3.02 -0.79, -3.93 -0.57 M0.12 0.03 C-1.69 -0.16, -2.94 -0.75, -3.68 -0.82 M-3.7 -0.91 C-4.81 -1.06, -6.17 -0.93, -7.35 -1.74 M-3.92 -0.78 C-5.11 -0.97, -6.55 -1.16, -7.56 -1.38 M-7.49 -1.71 C-8.43 -1.5, -9.02 -1.36, -10.57 -1.72 M-7.28 -1.43 C-8.7 -1.51, -9.77 -1.6, -10.96 -1.55 M-10.92 -1.8 C-11.8 -1.71, -12.59 -1.67, -14.48 -1.46 M-11.03 -1.8 C-11.96 -1.73, -13.19 -1.88, -14.03 -1.69 M-13.99 -2 C-15.28 -1.44, -16.93 -1.46, -17.45 -1.44 M-14.33 -1.64 C-14.95 -1.72, -15.51 -1.69, -17.18 -1.58 M-17.57 -1.42 C-18.04 -1.66, -18.92 -1.37, -20.3 -1.36 M-17.3 -1.51 C-17.96 -1.44, -18.97 -1.24, -20.18 -0.99 M-20.04 -1.32 C-21.25 -0.77, -22.11 -0.82, -23.09 -0.32 M-20.27 -1.04 C-21.1 -0.69, -21.99 -0.55, -22.92 -0.35 M-22.86 -0.39 C-24.02 -0.39, -24.42 0.15, -25.48 0.72 M-23 -0.3 C-23.59 -0.22, -24.33 0.11, -25.71 0.43 M-25.45 0.46 C-26.41 0.73, -27.16 1.21, -28.04 1.89 M-25.57 0.47 C-26.39 0.9, -27.09 1.07, -28.15 1.71 M-28.28 1.45 C-28.98 2.18, -29.35 2.37, -30.75 3.08 M-28.17 1.53 C-29.1 2.09, -29.88 2.55, -30.35 3 M-30.34 2.74 C-31.15 3.2, -32 3.73, -32.71 4.42 M-30.55 3.06 C-31.11 3.27, -31.62 3.68, -32.66 4.5 M-32.51 4.31 C-33.1 4.67, -33.56 5.34, -34.97 6.22 M-32.67 4.47 C-33.5 5.13, -34.1 5.55, -34.88 6.17 M-34.55 5.9 C-35.11 6.46, -35.97 6.99, -36.97 7.75 M-34.66 5.98 C-35.3 6.55, -35.83 7.05, -36.88 7.93 M-36.92 8.02 C-37.35 8.86, -38.03 9.5, -38.88 9.92 M-36.68 7.93 C-37.36 8.64, -37.95 9.45, -38.62 9.82 M-38.89 10.43 C-39.42 11.07, -40.67 12.19, -41.56 14.01 M-38.64 9.97 C-39.86 11.28, -40.96 12.75, -42.26 14.58 M-41.7 14.13 C-42.89 15.61, -43.28 16.89, -44.71 19.28 M-42.26 14.52 C-42.51 15.59, -43.62 16.66, -44.86 19.01 M-45.45 19.71 C-46.15 20.73, -47.17 22.31, -48.03 24.14 M-45.12 19.05 C-46.09 21.01, -46.4 22.11, -47.54 24.34 M-48.16 24.68 C-48.65 26.62, -48.97 28.47, -50.5 29.72 M-47.78 24.77 C-48.39 25.96, -48.92 27.11, -50.28 30.31 M-50.07 30.8 C-50.37 31.75, -52.05 34.95, -52.33 36.31 M-50.06 30.42 C-50.66 32.06, -51.4 33.66, -51.9 35.84 M-51.54 34.83 C-53.02 41.63, -54.72 45.07, -56.22 47.37 M-52.48 36.4 C-53.85 40.66, -55.06 45.59, -55.39 47.87 M-55.28 49.46 C-57.95 52.79, -57.93 56.53, -58.45 60.99 M-56.4 47.89 C-56.55 51.21, -57.77 53.96, -59.54 60.82 M-59.64 60 C-60.2 57.64, -60.12 52.91, -61.62 49.88 M-59.49 60.66 C-59.64 58.66, -60.57 55.63, -60.98 50.28 M-60.34 49.98 C-62.65 47.25, -61.83 43.09, -62.26 40.14 M-61.08 50.03 C-61.38 46.69, -62.74 43.09, -62.6 40.01 M-63.45 40.08 C-63.78 37.96, -64.86 36.15, -66.01 29.12 M-63.19 39.68 C-63.46 36.54, -64.77 34.11, -65.49 29.63 M-65.43 29.81 C-66.15 26.89, -65.73 23.92, -68.37 19 M-65.21 30.28 C-65.62 26, -67.16 22.5, -67.81 19.56 M-67.5 19.26 C-67.57 18.84, -67.62 18.48, -67.72 18.38 M-67.48 19.25 C-67.53 19, -67.63 18.82, -67.74 18.32 M-67.81 18.28 C-67.69 18.04, -67.94 18, -67.94 17.19 M-67.73 18.4 C-67.82 18.09, -67.92 17.86, -67.99 17.25 M-68.11 17.34 C-68.25 16.34, -68.36 16, -68.62 14.79 M-68.01 17.34 C-68.08 16.63, -68.19 16.06, -68.62 14.69 M-68.27 14.42 C-68.45 14.04, -68.48 13.57, -69.1 11.55 M-68.56 14.5 C-68.67 13.56, -69 12.31, -68.96 11.63 M-69.1 11.73 C-69.42 10.7, -69.34 9.98, -69.61 8.28 M-69.15 11.61 C-69.29 10.61, -69.6 9.66, -69.89 8.62 M-69.85 8.74 C-69.85 8.04, -70.25 7.12, -70.7 5.65 M-69.75 8.5 C-70.03 7.45, -70.51 6.65, -70.84 5.53 M-70.7 5.49 C-70.91 5.06, -71.06 4.88, -71.31 4.29 M-70.79 5.65 C-70.93 5.29, -70.95 5.06, -71.29 4.35 M-71.36 4.41 C-71.38 4.13, -71.64 3.82, -71.96 3.4 M-71.34 4.32 C-71.49 4.15, -71.61 3.9, -71.99 3.27 M-71.98 3.37 C-72.17 3.03, -72.4 2.96, -72.76 2.59 M-71.94 3.35 C-72.28 3.05, -72.52 2.77, -72.73 2.53 M-72.68 2.43 C-72.96 2.27, -73.34 1.98, -73.68 1.99 M-72.78 2.52 C-73.05 2.32, -73.29 2.13, -73.59 1.91 M-73.54 1.86 C-73.84 1.82, -74.36 1.83, -74.51 1.6 M-73.55 1.96 C-73.94 1.86, -74.32 1.77, -74.51 1.62 M-74.63 1.61 C-74.97 1.68, -75.11 1.77, -75.66 1.71 M-74.51 1.65 C-74.98 1.74, -75.36 1.73, -75.62 1.71 M-74.94 2.43 C-79.1 1.25, -80.97 2.35, -83.07 2.35 M-75.6 1.51 C-77.66 1.53, -80.2 2.15, -83.03 2.58 M-82.74 1.79 C-85.79 2.4, -87.84 2.17, -90.6 2.54 M-82.54 1.93 C-85.33 2.06, -88.16 2.52, -90.3 2.77 M-89.36 2.02 C-91.14 2.42, -94.06 3, -96.84 2.37 M-89.82 2.5 C-91.71 2.76, -94.06 2.83, -97.41 2.32 M-97.09 2.3 C-98.76 2.64, -99.7 2.44, -100.59 2.33 M-97.12 2.66 C-97.98 2.61, -98.81 2.45, -101.04 2.24 M-100.87 2.39 C-101.87 2.47, -102.88 2.21, -104.15 1.95 M-100.87 2.38 C-101.98 2.32, -102.76 1.97, -104.32 1.95 M-104.29 2.15 C-105.38 2.25, -107.3 3.68, -108.77 4.49 M-104.5 1.81 C-105.34 2.45, -106.54 3.06, -108.35 4.24 M-108.72 4.32 C-109.24 4.7, -110.5 5.63, -112.29 7.09 M-108.27 4.04 C-109.56 4.92, -110.1 5.44, -112.14 6.89 M-112.4 6.99 C-112.73 7.61, -114.58 8.72, -115.1 9.49 M-112.04 6.83 C-113.23 7.88, -114.47 8.74, -115.02 9.56 M-114.81 9.21 C-115.94 10.01, -117.02 10.86, -117.89 13.06 M-115.19 9.67 C-116.03 10.91, -117.08 11.77, -117.86 12.53 M-118.36 12.73 C-118.23 13.43, -119.24 14.59, -120.24 15.68 M-118.06 12.61 C-118.4 13.42, -119.11 14.09, -120.44 16.14 M-120.45 16.04 C-120.76 16.83, -122.06 18.24, -122.57 19.94 M-120.64 16.03 C-121.03 16.94, -121.35 17.9, -122.81 19.37 M-122.84 19.21 C-123.67 20.52, -124.01 21.88, -124.81 23.04 M-122.71 19.73 C-123.44 20.84, -123.97 22.18, -124.58 23.06 M-124.48 22.96 C-124.54 24.46, -124.84 24.46, -126.65 27.49 M-124.69 23.13 C-124.78 23.97, -125.19 25.07, -126.13 27.26 M-125.71 26.59 C-127.27 29.64, -128.33 30.68, -129.23 34.82 M-126.69 27.45 C-127.57 30.46, -128.78 33.82, -129.53 35.1 M-130.16 34.68 C-129.76 37.97, -131 40.28, -131.85 43.72 M-129.45 34.86 C-130.41 38.07, -130.71 40.2, -132.21 44.12 M-132.02 43.49 C-132.07 45.4, -133.94 48.49, -134.89 52.97 M-132.04 44.15 C-133.18 46.47, -133.99 49.38, -135.01 52.84 M-134.52 51.7 C-135.9 55.28, -137.13 57.04, -138.49 60.32 M-134.63 52.48 C-135.5 54.04, -136.16 56.36, -137.72 61.14 M-138.01 61.57 C-138.1 59.06, -138.11 56.84, -139.1 54.45 M-137.77 61.07 C-138 59.14, -138.47 57.49, -139.13 53.77 M-139.48 54.24 C-139.78 53.08, -140.11 51.58, -141.11 47.51 M-139.51 53.76 C-139.75 52.51, -140.4 51.31, -140.83 46.87 M-141.06 47.02 C-142.55 44.29, -143.05 42, -143.18 39.94 M-141.18 46.75 C-141.62 44.92, -141.98 43.76, -143.63 39.87 M-142.75 40.49 C-143.83 37.4, -144.78 36.39, -146.23 33.57 M-143.54 39.92 C-144.28 38.59, -144.88 37.02, -146.26 33.19 M-145.63 32.79 C-147.66 30.86, -148.12 28.49, -149.43 25.8 M-145.88 33.25 C-147.1 31.8, -147.31 29.96, -149.19 26.49 M-149.39 26.81 C-150.8 24.09, -151.41 20.94, -152.18 19.61 M-149.08 26.51 C-149.89 24.59, -151.22 21.93, -152.59 19.93 M-153.38 19.4 C-153.32 14.33, -157.9 12.44, -159.93 6.35 M-151.76 19.79 C-154.29 16.97, -154.81 14.62, -159.02 6.65 M-158.97 6.87 C-159.67 6.38, -160.5 6.05, -160.89 5.58 M-158.83 6.68 C-159.34 6.37, -159.8 6.3, -160.7 5.67 M-160.61 5.58 C-161.3 5.43, -161.93 5.38, -162.46 4.92 M-160.67 5.71 C-161.39 5.42, -162.19 5.08, -162.69 4.99 M-162.52 4.89 C-163.55 4.68, -163.84 4.6, -164.83 4.46 M-162.56 5.06 C-163.58 4.75, -164.35 4.56, -164.88 4.46 M-164.83 4.61 C-165.54 4.7, -166.08 4.32, -166.97 4.46 M-164.78 4.55 C-165.44 4.55, -166.27 4.51, -166.89 4.35 M-166.67 4.13 C-168.56 4.6, -169.56 4.15, -171.5 4.3 M-166.94 4.41 C-168.82 4.58, -170.94 4.42, -171.79 4.16 M-171.85 4.12 C-173.36 4.08, -175.51 5.03, -176.63 4.74 M-171.57 4.49 C-173.57 4.5, -175.77 5, -176.62 4.93 M-177.19 4.72 C-179.09 5.78, -181.88 5.62, -186.17 6.05 M-177.19 5.4 C-179.03 5.26, -180.76 5.9, -186.66 6.19 M-186.64 6.53 C-188.37 6.27, -189.71 6.92, -191.15 7.02 M-186.7 6.45 C-188.16 6.88, -189.78 7.03, -191.35 7.16 M-191.67 7.3 C-192.25 7.13, -192.46 7.06, -193.63 7.08 M-191.53 7.05 C-192.1 7.24, -192.94 7.23, -193.62 7.3 M-193.75 7.27 C-194.18 7.23, -194.72 7.11, -195.96 7.4 M-193.64 7.32 C-194.42 7.19, -195.18 7.17, -195.87 7.19 M-195.91 7.25 C-195.36 7.28, -194.8 7.41, -193.85 7.81 M-195.7 7.34 C-195.27 7.43, -194.8 7.44, -194 7.61 M-194.01 7.48 C-193.47 7.57, -192.67 7.71, -192.11 7.92 M-194 7.73 C-193.27 7.65, -192.58 7.87, -191.99 7.9 M-191.95 8.03 C-191.21 7.89, -190.75 7.78, -189.57 8.03 M-191.92 7.94 C-191.23 7.93, -190.7 7.83, -189.76 7.97 M-189.81 8.18 C-189 7.87, -188.55 7.9, -187.18 7.82 M-189.76 7.94 C-188.81 7.89, -188.03 8.1, -187.2 8.02 M-187.65 7.74 C-185.31 8.17, -183.84 8.22, -181.69 8.12 M-187.29 8.01 C-186.09 7.92, -185.16 7.86, -181.97 8.2 M-181.99 7.74 C-181.19 7.53, -179.42 7.68, -176.78 8.4 M-182.02 7.78 C-180.48 7.92, -178.18 8.26, -176.82 8.01 M-177.19 8.28 C-176.33 8.17, -175.69 8.3, -174.41 8.15 M-176.98 8.12 C-176.4 8.22, -175.63 8.22, -174.45 8.18 M-174.71 8.14 C-173.81 8.2, -172.97 8.59, -171.92 8.58 M-174.61 8.33 C-173.67 8.34, -172.97 8.57, -172.23 8.63 M-172.22 8.58 C-171.36 8.72, -170.55 9.12, -169.92 9.12 M-172.17 8.71 C-171.55 8.69, -171.2 8.94, -170.08 9.22 M-170.03 9.18 C-169.44 9.19, -169.09 9.47, -168.1 10.09 M-170.03 9.1 C-169.34 9.48, -168.49 9.73, -168.04 9.92 M-168.24 9.93 C-167.65 10.39, -166.91 10.68, -166.54 11.09 M-168.02 10 C-167.34 10.35, -166.79 10.76, -166.38 10.92 M-166.56 11.05 C-166.15 11.08, -165.86 11.43, -164.97 12.27 M-166.33 10.87 C-166.06 11.25, -165.73 11.62, -165.12 12.32 M-165.22 12.18 C-164.93 12.61, -164.52 13.1, -163.99 13.76 M-165.1 12.24 C-164.71 12.72, -164.46 13.41, -164.01 13.97 M-163.9 13.81 C-163.79 14.48, -163.66 15.19, -163.37 16.03 M-164.13 13.93 C-163.97 14.66, -163.69 15.33, -163.64 15.86 M-163.38 16.55 C-162.85 17.73, -162.53 19.2, -161.49 21.69 M-163.71 15.69 C-163.17 18.06, -162.53 19.6, -162.17 21.97 M-161.93 22.53 C-161.28 24.18, -161.1 27.23, -160.97 27.63 M-161.92 21.81 C-161.79 23.06, -161.43 24.91, -160.38 28.28 M-159.53 27.04 C-158.74 32.13, -157.01 38.24, -156.52 39.49 M-160.68 28.44 C-159.58 32.94, -157.37 36.75, -156.88 39.77 M-157.09 40.22 C-155.54 42.17, -155.51 43.69, -154.4 46.54 M-156.65 40.58 C-156.32 41.85, -155.91 42.54, -154.71 46.25 M-154.45 46.1 C-154.87 47.73, -154.11 49.95, -153.09 52.63 M-154.67 46.7 C-153.86 48.23, -153.72 50.17, -152.98 52.35 M-153.08 52.25 C-153.41 54.16, -152.84 56.63, -152.67 58.42 M-152.89 52.45 C-152.74 53.93, -152.65 55.52, -152.13 58.41 M-152.28 58.54 C-151.72 60.02, -152.32 61.77, -152.2 63.92 M-152.29 58.59 C-151.86 59.78, -151.76 61.28, -151.91 64.28 M-152.12 65.45 C-150.72 69.85, -150.16 75.02, -148.66 75.64 M-151.52 64.1 C-151.12 66.71, -150.35 70.08, -149.72 77.16 M-149.12 76.44 C-149.94 78.9, -148.65 79.31, -148.81 82.98 M-149.96 76.97 C-149.64 78.89, -148.66 80.99, -148.22 82.73 M-148.16 83.61 C-147.61 84.68, -147.09 88.16, -147.18 89.54 M-148.18 83.04 C-147.72 85.31, -147.24 87.29, -147.08 89.28 M-146.95 89.09 C-146.9 89.27, -146.94 89.29, -146.83 89.7 M-146.95 89.1 C-146.95 89.25, -146.86 89.41, -146.76 89.69 M-146.73 89.64 C-146.72 89.8, -146.65 89.87, -146.49 90.07 M-146.79 89.68 C-146.68 89.8, -146.53 89.94, -146.47 90.02 M-146.43 89.98 C-146.3 90.1, -145.97 90.19, -145.53 90.25 M-146.45 90.02 C-146.23 90.13, -145.91 90.2, -145.55 90.21 M-145.59 90.16 C-145.23 90.07, -144.79 89.86, -144.38 89.77 M-145.58 90.23 C-145.17 90.1, -144.9 89.98, -144.48 89.89 M-144.55 89.76 C-144.14 89.53, -143.65 89.51, -143.19 89 M-144.42 89.91 C-144.03 89.61, -143.61 89.4, -143.06 89.04 M-143.27 89.32 C-142.23 88.26, -141.25 87.8, -140.48 87.33 M-143.19 89.24 C-142.42 88.72, -141.85 88.21, -140.68 87.14 M-140.66 87.08 C-140.05 86.66, -139.68 86.21, -139.65 86.18 M-140.58 87.09 C-140.29 86.8, -139.96 86.45, -139.58 86.21 M-139.62 86.07 C-139.36 85.88, -138.94 85.72, -138.9 85.56 M-139.53 86.17 C-139.33 85.91, -139.09 85.71, -138.84 85.47 M-139.04 85.63 C-138.13 85.19, -137.32 84.37, -136.36 83.75 M-138.78 85.61 C-138.23 85.24, -137.93 84.73, -136.62 83.72 M-136.41 83.67 C-135.93 83.19, -135.34 82.14, -135.05 81.52 M-136.73 83.57 C-135.98 82.85, -135.43 81.86, -134.99 81.45 M-135.07 81.32 C-134.54 80.4, -134.15 79.82, -133.54 78.91 M-134.88 81.37 C-134.64 80.9, -134.25 80.42, -133.47 79.15 M-133.55 79.26 C-133.36 78.63, -132.96 77.44, -132.17 76.58 M-133.52 79.11 C-133.1 78.28, -132.86 77.56, -132.37 76.67 M-132.38 76.39 C-132.48 76.35, -132 75.53, -131.61 74.28 M-132.54 76.69 C-132.25 75.9, -131.89 75.15, -131.44 73.9 M-131.45 74.07 C-131.38 73.35, -131.47 72.66, -130.92 71.27 M-131.49 73.97 C-131.49 73.4, -131.24 72.86, -130.78 71.25 M-130.81 70.94 C-130.91 69.31, -129.75 67.6, -129.98 65.56 M-130.67 71.18 C-130.28 69.08, -129.87 67.09, -129.81 66.01 M-129.89 66.26 C-128.98 64, -129.08 61.59, -127.81 59.39 M-129.59 65.91 C-129.25 64.22, -128.91 62.73, -128.21 60.21 M-128.11 60.4 C-127.19 58.73, -126.36 56.39, -126.61 54.31 M-128.05 60.05 C-127.36 58.82, -126.97 57.24, -126.38 53.7 M-125.72 53.1 C-123.57 50.9, -123.37 46.72, -121.14 40.65 M-126.18 54.32 C-126.01 51.57, -124.28 49.32, -122.46 41.69 M-122.12 42.14 C-121.97 37.34, -118.97 34.83, -118.04 30.52 M-121.47 42.19 C-120.6 37.44, -119.1 34.02, -117.72 29.19 M-118.38 30.07 C-115.53 26.27, -114.87 24.81, -114.38 17.22 M-116.92 29.37 C-116.27 26.66, -115.41 23.21, -112.78 17.47 M-112.85 17.13 C-112.24 17.35, -110.75 17.54, -109.95 18.16 M-113.21 17.31 C-112.35 17.26, -111.26 17.63, -110.09 17.98 M-110.42 17.99 C-109.11 18.08, -107.77 17.93, -107.21 18.18 M-110.13 17.77 C-109.34 18, -108.26 18.12, -107 18.13 M-107.46 17.59 C-105.73 17.84, -104.49 18.57, -100.69 18.64 M-106.85 18.25 C-105.44 17.98, -103.31 18.09, -100.73 18.04 M-100.95 18.45 C-98.57 17.91, -97.2 18.68, -94.87 18.07 M-100.73 18.29 C-99.19 18.13, -97.63 17.77, -94.51 17.91 M-94.2 18.29 C-93.21 18.33, -92.42 18.38, -91.6 18.1 M-94.3 17.95 C-93.16 18.26, -92.25 18.22, -91.45 18.35 M-91.15 18.15 C-90.48 18.51, -89.86 18.28, -88.69 18.58 M-91.22 18.22 C-90.36 18.41, -89.12 18.66, -88.45 18.68 M-88.29 18.41 C-88.08 23.27, -86.22 27.21, -86.56 28.54 M-88.95 18.58 C-86.95 22.55, -86.19 26.15, -86.13 28.07 M-85.81 28.85 C-84.39 30.52, -84.2 32.66, -83.97 37.93 M-86.07 28.1 C-85.55 30.7, -84.47 34.2, -82.74 38.61 M-83.26 37.46 C-83.47 40.95, -82.69 41.93, -80.51 48.24 M-83.16 37.94 C-82.19 40.67, -82.38 43.43, -80.43 47.4 M-81 48.14 C-79.67 49.56, -80.43 52, -78.28 56.8 M-80.82 47.36 C-80.48 50.79, -78.93 55.12, -79.2 57.1 M-78.87 56.7 C-78.56 61.37, -76.76 64.64, -77.09 67.75 M-79.12 57.65 C-78.45 60.85, -77.14 63.44, -77.03 66.38 M-76.89 66.28 C-76.67 69.88, -76.96 70.65, -75.18 76.13 M-76.77 66.92 C-76.03 69.62, -75.75 72.72, -75.79 76.48 M-75.97 77.26 C-74.3 79.21, -74.8 81.19, -73.78 87.08 M-75.19 76.55 C-74.74 79.18, -74.83 81.68, -73.6 86.98 M-74.59 86.82 C-73.84 88.45, -72.94 90.44, -71.88 97.92 M-73.78 87.01 C-73.36 88.79, -73.1 92.34, -71.87 97.38 M-72.15 96.96 C-72.19 97.43, -71.93 97.81, -71.99 98.19 M-72.22 97.05 C-72.17 97.34, -72.03 97.72, -71.93 98.21 M-71.84 98.38 C-72.05 98.56, -71.86 99.08, -71.76 99.71 M-71.91 98.28 C-71.87 98.72, -71.8 99.16, -71.69 99.86 M-71.91 99.75 C-71.3 101.51, -71.48 102.48, -71.26 103.79 M-71.71 99.74 C-71.5 100.77, -71.57 101.56, -71.26 103.59 M-71.22 103.4 C-70.97 104.18, -70.93 104.93, -70.57 105.26 M-71.19 103.58 C-71 103.81, -70.96 104.31, -70.61 105.15 M-70.69 105.24 C-70.44 105.59, -70.36 105.82, -69.97 106.33 M-70.72 105.15 C-70.42 105.63, -70.3 105.94, -70.07 106.47 M-69.99 106.52 C-69.96 106.54, -69.75 106.7, -69.27 107.11 M-70.05 106.39 C-69.89 106.61, -69.56 106.82, -69.27 107.13 M-69.29 107.16 C-69.16 107.11, -69.06 107.11, -68.77 107.24 M-69.26 107.1 C-69.07 107.13, -68.92 107.18, -68.71 107.18 M-68.76 107.22 C-68.64 107.11, -68.42 107.1, -68.17 107.07 M-68.74 107.18 C-68.53 107.13, -68.32 107.13, -68.13 107.08 M-68.12 107.13 C-67.91 106.9, -67.67 106.71, -67.23 106.47 M-68.15 107.1 C-67.85 106.87, -67.57 106.8, -67.13 106.53 M-67.2 106.52 C-66.63 106.19, -66.15 105.94, -66.12 105.96 M-67.16 106.6 C-66.95 106.44, -66.69 106.25, -66 105.96 M-65.97 105.69 C-65.4 105.41, -64.81 104.9, -63.51 104.36 M-65.91 106.02 C-64.91 105.35, -63.91 104.44, -63.53 104.06 M-63.76 104.29 C-63.15 103.45, -62.25 103.12, -60.75 101.65 M-63.55 104.07 C-62.49 103.24, -61.64 102.37, -60.77 102.07 M-60.98 102.15 C-60.41 100.91, -59.38 100.65, -58.36 99.04 M-60.88 101.91 C-60.03 101.16, -59.11 100.34, -58.23 99.34 M-57.97 99.38 C-57.06 98.51, -56.47 97.67, -55.7 96.31 M-58.34 99.24 C-57.44 98.28, -56.23 97.2, -55.91 96.49 M-55.78 96.93 C-54.89 95.85, -54.67 94.99, -53.58 93.67 M-55.74 96.79 C-55.51 96.13, -54.92 95.31, -53.7 94.13 M-53.55 94.24 C-53.59 93.24, -52.97 92.13, -52.33 91.58 M-53.77 94.03 C-53.43 93.46, -53.23 92.97, -52.43 91.25 M-52.23 91.42 C-52.12 90.95, -52.09 90.53, -51.79 90.13 M-52.28 91.35 C-52.2 91.16, -52.04 90.95, -51.86 90.26 M-51.9 90.14 C-51.8 89.87, -51.57 89.37, -51.57 89.07 M-51.84 90.17 C-51.74 89.96, -51.64 89.74, -51.48 89.18 M-51.37 89.08 C-50.89 85.74, -50.97 83.65, -51.01 79.59 M-51.16 89.07 C-50.84 87.51, -51.07 85.56, -50.58 79.88 M-51.04 80.53 C-50.2 77.52, -49.34 74.56, -48.22 70.34 M-50.03 80.41 C-49.29 76.7, -49.31 73.73, -48.45 71.16 M-48.55 70.39 C-47.98 68.7, -46.69 64.27, -45.93 60.61 M-48.29 70.39 C-47.37 67.14, -47.36 64.21, -46.09 61.33 M-46.54 61.16 C-46.74 60.29, -45.57 57.32, -43.66 51.23 M-46.22 61.09 C-45.29 58.22, -44.72 54.57, -43.77 52.45 M-43.28 51.22 C-43.59 48.88, -41.99 45.83, -42.42 43.82 M-44.57 51.88 C-43.53 49.94, -42.94 48.24, -41.69 42.79 M-40.94 42.18 C-40.75 39.72, -40.59 35.99, -39.59 34.74 M-41.89 42.83 C-40.83 41.47, -40.36 39.58, -39.15 34.17 M-38.52 34.6 C-38.8 31.59, -37.65 27.82, -35.43 24.47 M-39.4 33.52 C-38.67 31.49, -37.3 29.09, -36.64 24.91 M-36.4 24.26 C-35.53 22.5, -34.54 20.79, -33.51 17.05 M-36.46 25.46 C-35.82 22.95, -35.1 20.15, -33.16 16.19 M-33.33 16.55 C-32.99 16.7, -32.22 16.5, -30.99 16.74 M-33.38 16.5 C-32.58 16.53, -31.77 16.69, -30.92 16.75 M-31.01 16.9 C-29.82 16.54, -29.06 16.57, -28.31 16.52 M-30.95 16.67 C-30.2 16.75, -29.38 16.63, -28.49 16.64 M-28.06 16.38 C-26.83 16.47, -24.8 16.83, -22.83 16.73 M-28.64 16.62 C-26.58 16.4, -25.38 16.45, -23.19 16.39 M-23.24 16.17 C-22.25 16.29, -21.51 16.5, -20.24 16.46 M-22.93 16.5 C-22.18 16.38, -21.18 16.33, -20.36 16.37 M-20.44 16.33 C-19.64 16.46, -18.61 16.3, -17.69 16.44 M-20.37 16.39 C-19.61 16.51, -18.71 16.51, -17.96 16.5 M-17.67 16.69 C-16.85 16.72, -15.81 16.86, -15.37 16.91 M-17.85 16.73 C-17.34 16.66, -16.63 16.85, -15.59 17.12 M-15.43 17.24 C-14.98 17.22, -14.37 17.41, -13.47 18.09 M-15.6 17.04 C-14.7 17.36, -13.97 17.88, -13.61 17.96 M-13.17 18.26 C-13.27 20.57, -15.02 22.05, -16.44 26.68 M-14 18.4 C-13.93 20.8, -15.29 23.19, -16.74 26.93 M-16.22 26.2 C-17.95 31.52, -18.37 33.38, -18.82 36 M-16.22 26.75 C-17.93 30.35, -18.46 34.05, -18.82 35.81 M-20.12 36.81 C-21.38 42.08, -22.91 46.97, -24.86 53.12 M-18.75 36.19 C-20.55 40.13, -20.73 42.57, -23.4 53.47 M-23.1 55.46 C-26.67 58.91, -27.73 63.43, -27.4 73.85 M-24.16 55.03 C-26.43 59.95, -26.61 67.03, -28.25 72.53 M-28.23 71.38 C-28.68 79.84, -33.17 88.29, -31.64 91.87 M-27.99 73.66 C-29.01 77.2, -30.75 80.52, -32.62 91.4 M-31.12 92.45 C-33.53 96.99, -33.96 107.45, -36.73 108.21 M-32.79 91.09 C-34.84 97.75, -35.07 105.04, -36.98 109.83 M-36.98 108.28 C-37.05 116.31, -39.21 122.88, -40.36 126.85 M-35.77 110.66 C-37.47 114.63, -37.96 119.32, -41 127.92 M-39.1 127.43 C-41.63 140.71, -46.24 152.96, -47.65 165.04 M-40.46 127.98 C-43.02 138.81, -44.89 149.53, -47.61 165.99 M-47.12 165.47 C-51.15 165.96, -55.75 165.13, -60.18 167.11 M-47.45 165.99 C-52.73 165.5, -58.77 166.38, -61.76 165.44 M-61.79 165.79 C-63.38 166.02, -64.94 165.64, -68.21 165.55 M-61.09 166.1 C-62.88 165.71, -64.11 166.1, -68.02 165.69 M-68.58 166 C-69.62 165.94, -71.81 165.17, -74.63 164.52 M-67.77 165.46 C-70.18 165.38, -72.64 165.18, -74.45 165.24 M-74.75 165.23 C-75.03 165, -75.1 164.92, -75.51 164.78 M-74.76 165.14 C-75.08 165.05, -75.36 164.9, -75.59 164.79 M-75.55 164.69 C-75.93 164.57, -76.13 164.27, -76.48 164 M-75.56 164.74 C-75.94 164.54, -76.22 164.24, -76.38 164.07 M-76.29 164.04 C-76.46 163.91, -76.85 163.56, -77.1 162.93 M-76.37 164.04 C-76.61 163.82, -76.87 163.55, -77.21 162.98 M-77.26 163.13 C-77.28 162.63, -77.6 162.26, -78.04 161.48 M-77.29 162.91 C-77.4 162.73, -77.55 162.43, -77.98 161.55 M-78.1 161.55 C-78.11 161.1, -78.75 160.47, -78.9 159.97 M-78.02 161.64 C-78.3 161.07, -78.44 160.59, -78.83 160.01 M-78.93 160.13 C-78.75 159.37, -78.99 159.01, -79.44 158.14 M-78.84 160.06 C-78.93 159.19, -79.28 158.6, -79.44 158.07 M-79.72 158.07 C-79.75 157.04, -79.83 156.2, -80.42 156.05 M-79.49 157.97 C-79.68 157.5, -79.89 156.99, -80.26 156.02 M-80.18 155.85 C-80.48 155.13, -80.75 154.16, -80.84 153.74 M-80.12 155.92 C-80.45 155.27, -80.68 154.56, -80.85 153.55 M-81.23 153.74 C-81.04 151.95, -81.82 149.9, -81.99 148.48 M-80.98 153.5 C-81.54 151.93, -82.09 149.91, -82.19 148.2 M-82.78 148.47 C-82.64 145.41, -83.39 143.34, -84.02 142.45 M-82.2 148.12 C-82.75 145.92, -83.04 143.61, -83.49 142.18 M-83.38 142.3 C-83.48 139.56, -84.49 137.17, -84.42 135.73 M-83.33 141.98 C-84.09 139.86, -84.23 138.19, -84.76 136.08 M-85.04 136.36 C-85.37 134.52, -85.47 132.22, -85.75 128.54 M-84.73 135.59 C-85.41 133.68, -85.71 132.19, -86.23 128.99 M-86.84 127.86 C-87.18 127.15, -85.82 122.71, -88.99 116.22 M-85.84 129.19 C-86.66 125.9, -86.68 123.36, -87.64 115.3 M-88.16 115.58 C-87.8 113.59, -89.11 112.66, -89.93 108.94 M-88.23 115.32 C-88.86 113.69, -89.06 111.65, -89.02 108.97 M-89.04 108.72 C-90.06 106.98, -89.3 106.12, -90.22 102.49 M-89.03 108.71 C-89.76 106.76, -90.25 104.23, -90.19 102.69 M-90.31 102.39 C-90.55 100.43, -91.44 99.58, -90.9 97.24 M-90.53 102.74 C-90.27 101.33, -90.96 100.21, -91.52 97.11 M-91.51 96.64 C-91.32 96.37, -91.26 95.66, -91.53 94.39 M-91.18 96.71 C-91.4 96.24, -91.34 95.65, -91.86 94.12 M-91.79 94.13 C-91.98 93.64, -92 92.61, -92.07 91.91 M-91.77 94.11 C-92 93.61, -92.13 92.9, -92.17 91.78 M-92.37 91.99 C-92.46 90.93, -92.53 90.21, -92.51 89.84 M-92.27 91.74 C-92.39 91.04, -92.56 90.37, -92.64 89.57 M-92.84 89.58 C-92.93 88.93, -93.09 88.03, -93.06 87.57 M-92.6 89.7 C-92.82 89.07, -92.93 88.35, -93.13 87.63 M-92.98 87.69 C-93.36 87.18, -93.21 86.76, -93.56 86.09 M-93.1 87.63 C-93.29 87.17, -93.35 86.74, -93.64 85.98 M-93.47 85.91 C-93.56 85.6, -93.92 85.3, -94.1 84.67 M-93.52 86.03 C-93.7 85.42, -93.91 84.97, -94.1 84.52 M-94.06 84.55 C-94.13 84.49, -94.31 84.51, -94.81 84.4 M-94.03 84.62 C-94.31 84.47, -94.66 84.41, -94.83 84.34 M-94.82 84.3 C-95.16 84.4, -95.42 84.47, -95.83 84.51 M-94.83 84.36 C-95.18 84.38, -95.56 84.37, -95.79 84.4 M-95.82 84.41 C-96.02 84.53, -96.23 84.65, -96.92 84.76 M-95.78 84.44 C-96.13 84.56, -96.52 84.73, -96.79 84.78 M-96.86 84.79 C-97.18 84.97, -97.53 85.26, -98.02 85.38 M-96.86 84.85 C-97.21 85.04, -97.59 85.24, -97.99 85.46 M-97.93 85.43 C-98.19 85.61, -98.65 85.7, -99.12 86.21 M-97.98 85.47 C-98.3 85.5, -98.49 85.73, -99.17 86.18 M-99.25 86.36 C-99.74 86.6, -99.88 86.66, -100.45 87.19 M-99.16 86.26 C-99.57 86.53, -100.09 86.8, -100.53 87.28 M-100.35 87.39 C-101.11 87.79, -101.92 88.43, -102.76 89.92 M-100.56 87.3 C-101.33 88.1, -102.59 89.03, -102.87 89.54 M-102.81 89.33 C-103.88 90.16, -104.26 90.85, -105.33 92.01 M-103 89.64 C-103.61 90.45, -104.38 90.96, -105.3 92.27 M-105.59 92.53 C-105.98 93.53, -107.05 94.24, -107.06 94.85 M-105.29 92.28 C-105.96 93.26, -106.43 93.99, -107.15 94.95 M-107.32 94.92 C-107.41 95.35, -107.53 95.53, -108.18 96.09 M-107.23 94.94 C-107.47 95.28, -107.65 95.53, -108.12 96.17 M-108.18 96.18 C-108.35 96.63, -108.61 97.14, -108.75 97.48 M-108.03 96.15 C-108.23 96.65, -108.49 97.14, -108.69 97.31 M-108.58 97.45 C-108.8 97.78, -108.99 98.18, -109.11 98.3 M-108.68 97.42 C-108.83 97.81, -108.9 98.13, -109.02 98.4 M-109.02 98.46 C-109 98.67, -109.11 98.9, -109.21 99.28 M-109.05 98.44 C-109.08 98.6, -109.08 98.84, -109.22 99.3 M-108.7 98.79 C-109.3 101.22, -110.06 103.67, -110.13 107.75 M-109.21 99.55 C-109.04 100.86, -109.53 103.08, -110.11 107.31 M-109.98 107.67 C-109.78 110.27, -111.16 112.52, -111.05 115.73 M-109.97 107.15 C-110.88 109.91, -111.13 112, -111.01 114.65 M-110.85 114.21 C-112 116.83, -112.53 121, -113.72 123.36 M-111.71 115.33 C-111.93 116.63, -111.71 118.61, -113.13 122.75 M-113.36 122.85 C-114.21 125.54, -113.36 128.49, -115.51 130.83 M-113.34 123.08 C-113.02 125.01, -114.06 126.25, -114.43 130.81 M-113.71 130.68 C-116.6 132.48, -116.31 137.33, -118.53 145.8 M-114.42 130.12 C-116.44 135.82, -117.43 142.91, -118.14 145.65 M-118.53 145.04 C-121.12 150.31, -123.94 158.61, -123.16 162.47 M-119.31 146.17 C-119.89 148.92, -120.43 153.27, -122.67 161.33 M-123.61 161.43 C-124.63 161.47, -125.81 161.17, -129.25 160.93 M-123.48 161 C-124.46 160.99, -125.95 161.24, -128.95 161.28 M-128.62 160.94 C-130.67 160.92, -133.07 160.79, -134.56 161.44 M-128.67 161.13 C-130.76 161.21, -132.1 161.27, -134.23 161.25 M-134.53 161.48 C-135.88 161.13, -136.96 161.87, -139.09 161.92 M-133.94 161.38 C-136.2 161.47, -137.6 161.99, -139.41 161.98 M-138.89 162.16 C-141.4 162.12, -143.33 162.79, -144.16 162.38 M-139.22 161.92 C-141.4 161.93, -142.84 162.24, -144.55 162.45 M-144.44 162.56 C-145.21 162.91, -145.78 162.63, -146.53 163.19 M-144.52 162.57 C-145.16 162.85, -145.98 162.94, -146.71 162.91 M-146.56 162.87 C-147.14 162.92, -147.79 163.03, -148.54 163.22 M-146.79 163.09 C-147.4 163.17, -148.29 163.17, -148.66 163.21 M-148.68 163.14 C-149.17 163.18, -150.14 163.28, -150.58 163.2 M-148.62 163.27 C-149.15 163.22, -149.62 163.32, -150.42 163.4 M-150.52 163.48 C-150.91 163.35, -151.36 163.23, -152.03 163.03 M-150.41 163.39 C-150.83 163.26, -151.26 163.23, -151.98 163.09 M-151.93 163.04 C-152.34 163.02, -152.7 162.86, -153.13 162.68 M-151.93 163.13 C-152.37 162.92, -152.97 162.7, -153.18 162.66 M-153.16 162.65 C-153.43 162.44, -153.8 162.24, -154.15 161.65 M-153.26 162.7 C-153.43 162.41, -153.61 162.24, -154.2 161.73 M-154.08 161.81 C-154.47 161.41, -154.47 161.15, -155.05 160.27 M-154.31 161.74 C-154.53 161.24, -154.65 160.89, -154.94 160.22 M-154.92 160.33 C-154.89 159.82, -155.03 159.35, -155.61 158.31 M-154.99 160.22 C-155.1 159.67, -155.31 159.01, -155.4 158.3 M-155.51 158.95 C-159.97 145.18, -160.52 133.78, -164.72 118.93 M-154.97 157.74 C-158.83 147.98, -160.05 136.2, -163.98 119.29 M-165.47 120.72 C-165.75 116.08, -165.63 110.12, -168.05 101.61 M-164.77 118.25 C-166.77 111.43, -168.35 103.87, -169.09 99.32 M-171.65 100.95 C-172.52 95.22, -170.08 92.77, -175.18 78.57 M-170.58 99.09 C-170.09 95.65, -172.66 92.72, -175.92 81.2 M-173.64 80.97 C-175.59 74.65, -176.64 70.94, -180.02 62.74 M-174.05 80.61 C-176.95 72.83, -177.77 66.69, -181.67 60.02 M-181.78 59.61 C-181.84 54.47, -185.72 48.5, -188.25 43.37 M-179.94 60.71 C-182.9 56.62, -183.77 52.79, -186.09 42.64 M-187.14 41.03 C-189.57 37.17, -191.07 28.48, -194.65 21.37 M-187.03 42.52 C-189.19 33.67, -191.91 27.07, -193.74 22.95 M-194.27 22.5 C-194.26 19.33, -196.91 14.78, -196.96 13.81 M-194.03 23.36 C-195.09 19.85, -196.22 17.11, -196.9 13.07 M-197.62 13.23 C-197.78 10.17, -199.14 8.81, -201.92 3.28 M-197.71 13.44 C-198.39 11.12, -199.09 9.69, -201.02 4.1 M-201.17 4.37 C-198.62 12.79, -199.68 17.58, -195.07 23.87 M-200.22 4.46 C-200.79 10.63, -198.34 15.57, -197.83 23.52 M-196 25.04 C-197.14 30.5, -194.71 38.22, -194.89 46.16 M-196.35 23.88 C-195.06 30.05, -195.23 36.74, -192.42 44.65 M-194.23 42.33 C-191.44 48.63, -189.98 50.53, -191 63.27 M-192.53 44.78 C-192.01 49.73, -191.68 57.34, -190.02 64.35 M-188.06 63.19 C-189.52 70.73, -190.2 72.99, -185.57 85.16 M-190.04 63.47 C-188.28 68.96, -188.69 75.53, -186.61 82.57 M-187.96 83.51 C-184.57 88.18, -183.42 94.8, -183.45 101.21 M-186.42 82.67 C-185.34 88.55, -184.91 92.06, -183.19 103.48 M-184.31 103.52 C-180.73 110.94, -179.93 118.07, -181.68 123.3 M-183.71 102.88 C-182.63 108.79, -181.21 114.69, -180.1 122.88 M-180.49 123.09 C-180.44 130.05, -177.35 135.43, -174.75 141.52 M-180.8 123.66 C-179.41 127.3, -178.9 131.08, -175.37 143.37 M-174.4 141.16 C-174.24 148.55, -175.61 152.37, -172.03 163.34 M-175.74 142.93 C-174.28 149.13, -173.18 157.12, -170.95 163.8 M-171.78 163.05 C-171.54 164.11, -171.35 164.69, -171.07 165.49 M-171.81 162.95 C-171.57 163.65, -171.49 164.19, -171.07 165.43 M-171.16 165.39 C-171.09 166.42, -170.88 166.9, -170.33 168.04 M-171.06 165.43 C-170.8 166.16, -170.81 167, -170.51 167.72 M-170.42 167.73 C-170.51 168.77, -170.12 169.51, -170.23 170.55 M-170.44 167.94 C-170.35 168.66, -170.32 169.61, -170.06 170.28 M-170.13 170.54 C-170.19 170.85, -169.89 171.21, -169.92 172.74 M-170.26 170.41 C-169.94 171.17, -169.88 172.14, -169.7 172.77 M-169.53 172.77 C-169.58 173.04, -169.44 173.58, -168.84 174.64 M-169.71 172.63 C-169.45 173.37, -169.24 174.14, -169.08 174.74 M-169.1 174.81 C-168.68 175.24, -168.26 175.86, -167.73 176.41 M-169.06 174.66 C-168.52 175.31, -168.22 175.86, -167.88 176.46 M-167.96 176.4 C-167.79 176.5, -167.54 176.66, -167.21 177.03 M-167.86 176.45 C-167.65 176.6, -167.46 176.85, -167.14 177.11 M-167.09 177.19 C-166.98 177.16, -166.56 177.3, -166.1 177.61 M-167.08 177.14 C-166.79 177.21, -166.58 177.44, -166.24 177.6 M-166.25 177.5 C-165.91 177.67, -165.78 177.68, -165.15 177.97 M-166.23 177.59 C-165.84 177.66, -165.47 177.84, -165.07 177.85 M-165.16 177.95 C-164.69 177.96, -164.15 177.89, -163.79 178.02 M-165.01 177.97 C-164.52 178.01, -164.06 178.08, -163.75 178.02 M-163.95 177.68 C-161.21 177.53, -160.42 178.07, -155.34 176.34 M-163.64 178.12 C-160.69 178.09, -158.38 177.3, -155.09 176.87 M-155.72 177.51 C-152.41 176.76, -149.45 175.98, -146.27 176.58 M-154.64 177.39 C-152.36 176.59, -150.47 176.45, -146.23 176.21 M-146.29 176.19 C-145.21 176.31, -143.28 175.75, -141.56 176.06 M-145.99 176.37 C-145.02 176.12, -144.36 176.28, -141.77 175.93 M-141.45 175.91 C-140.85 176.4, -139.16 176.42, -137.28 176.51 M-141.96 176.17 C-140.84 175.97, -139.72 175.96, -137.49 175.92 M-137.4 176.44 C-136 176.54, -134.99 176.2, -132.83 176.48 M-137.23 176 C-135.65 176.3, -134.34 176.37, -132.74 176.49 M-132.62 176.69 C-131.29 176.47, -130.12 177.06, -128.77 177.21 M-132.97 176.46 C-131.46 176.76, -129.51 176.85, -128.43 176.89 M-128.62 177.36 C-127.93 176.81, -126.53 176.35, -125.24 175.33 M-128.66 176.96 C-127.78 176.77, -126.75 176.18, -124.94 175.61 M-125.03 175.1 C-124.18 174.72, -122.75 173.57, -121.94 173.87 M-124.95 175.58 C-124.41 175.16, -123.78 174.54, -121.95 173.35 M-121.94 173.52 C-121.38 173.38, -121.26 172.41, -119.76 171.36 M-122.01 173.45 C-121.34 173.08, -120.96 172.64, -119.59 171.23 M-119.43 171.33 C-118.71 170.5, -118.38 169.89, -117.19 168.7 M-119.6 171.15 C-118.66 170.46, -117.87 169.48, -117.33 168.58 M-117.48 168.37 C-116.2 167.84, -115.59 166.76, -115.49 166.1 M-117.12 168.52 C-116.6 167.98, -116 167.17, -115.09 165.76 M-115.51 166.05 C-114.63 165.1, -114.44 164.08, -113.33 163.06 M-115.01 165.97 C-114.57 165, -113.91 163.68, -113.62 162.62 M-113.29 162.44 C-113.35 161.93, -112.47 161.51, -111.9 159.57 M-113.43 162.62 C-113 161.85, -112.79 161.21, -112.13 159.45 M-111.91 159.83 C-111.67 158.91, -111.57 157.59, -111 156.05 M-111.94 159.32 C-111.61 158.31, -111.2 157.06, -110.78 156.1 M-110.3 156.16 C-109.8 153.82, -108.83 152.01, -109.13 148.99 M-110.49 156.08 C-109.95 153.62, -109.64 150.86, -108.79 149.05 M-108.12 149.11 C-107.78 146.84, -107.64 145.43, -106.13 141.1 M-109.01 149.11 C-107.74 146.04, -107.06 143.17, -107 141.91 M-106.87 141.52 C-107.25 140.53, -105.52 138.97, -104.48 134.83 M-106.92 141.83 C-106.56 139.44, -105.9 137.17, -104.92 134.21 M-105.32 134.58 C-104.69 133.48, -104.27 132.45, -103.81 131.23 M-105.15 134.38 C-104.68 133.56, -104.58 132.79, -104.12 131.2 M-103.93 130.84 C-103.37 129.94, -103.02 128.79, -103.19 127.73 M-103.98 131.19 C-103.61 130.03, -103.36 129.28, -102.88 127.87 M-103.93 126.74 C-102.39 132.4, -102.27 135.15, -102.02 140.25 M-102.66 127.86 C-102.09 131.26, -101.77 136.05, -100.91 139.15 M-99.92 138.93 C-100.4 144.66, -99.44 148.41, -99.06 150.8 M-100.79 139.67 C-99.99 144.02, -99.33 149.59, -98.64 151.86 M-99.51 151.07 C-99.4 156.12, -98.52 157.15, -97.03 163.79 M-99.02 151.24 C-97.83 156.25, -96.83 159.49, -96.04 163.79 M-97.79 164.03 C-96.74 170.36, -95.01 174.14, -93.27 176.97 M-95.98 164.32 C-95.55 167.56, -96.01 169.31, -94.79 177.12 M-94.39 177.18 C-94.16 177.62, -94.06 177.68, -93.79 178.48 M-94.25 177.21 C-94.13 177.68, -93.94 178.23, -93.85 178.5 M-93.9 178.52 C-93.51 178.77, -93.37 179.23, -93.26 179.47 M-93.85 178.51 C-93.71 178.81, -93.43 179.11, -93.12 179.5 M-93.22 179.59 C-92.76 179.88, -92.42 180, -92.18 180.33 M-93.2 179.44 C-92.87 179.72, -92.68 179.84, -92.14 180.21 M-92.25 180.21 C-91.69 180.53, -91.41 180.73, -91.03 180.67 M-92.16 180.17 C-91.89 180.33, -91.7 180.44, -90.91 180.82 M-91.11 180.59 C-90.41 180.94, -90.09 180.8, -88.4 181.61 M-90.86 180.64 C-90.21 180.92, -89.76 181.17, -88.31 181.42 M-88.25 181.57 C-87.43 181.64, -86.36 181.54, -85.97 181.51 M-88.23 181.28 C-87.47 181.38, -86.74 181.51, -85.65 181.7 M-85.29 181.97 C-82.4 181.61, -80.5 182.49, -78.54 182.62 M-85.51 181.32 C-83.15 181.85, -81.49 181.89, -78.57 182.25 M-77.93 181.49 C-75.8 181.5, -73.99 181.71, -70.76 181.45 M-78.36 181.87 C-75.59 182.23, -73.35 182.35, -70.72 182.15 M-71.07 182.65 C-69.32 182.1, -66.48 181.81, -63.03 182.12 M-71.06 181.92 C-67.94 182.52, -65.45 182.07, -63.87 182.39 M-64.01 182.46 C-60.67 182.31, -58.62 183.01, -56 182.61 M-63.48 182.37 C-61.5 182.25, -59.31 182.42, -56 182.71 M-56.12 182.31 C-55.91 182.52, -55.39 182.36, -54.36 182.63 M-56.33 182.44 C-55.6 182.54, -54.83 182.62, -54.38 182.56 M-54.28 182.54 C-54.04 182.5, -53.54 182.74, -52.69 182.57 M-54.4 182.59 C-53.86 182.61, -53.2 182.59, -52.63 182.76 M-52.65 182.58 C-52.13 182.48, -51.34 182.64, -51.17 182.37 M-52.64 182.68 C-52.07 182.68, -51.64 182.52, -50.98 182.53 M-51.07 182.56 C-50.58 182.38, -49.79 182.09, -49.41 182.18 M-51.12 182.55 C-50.64 182.33, -50.11 182.24, -49.53 182.07 M-49.45 182.04 C-48.77 181.85, -48.44 181.56, -48.1 181.44 M-49.45 181.99 C-48.99 181.85, -48.43 181.53, -47.97 181.32 M-47.86 181.28 C-47.58 181.32, -47.35 180.92, -46.46 180.49 M-47.95 181.35 C-47.51 181.14, -47.11 180.93, -46.58 180.45 M-46.63 180.54 C-45.93 180.14, -45.4 179.8, -45 179.53 M-46.47 180.47 C-46.08 180.21, -45.64 179.81, -45.12 179.42 M-45.11 179.32 C-44.76 179, -44.48 178.59, -43.64 178.19 M-45.17 179.5 C-44.77 179.02, -44.38 178.79, -43.83 178.15 M-43.91 178 C-43.31 177.9, -42.81 177.34, -42.01 176.54 M-43.77 178.06 C-43.33 177.66, -42.65 177.16, -41.92 176.82 M-41.86 176.59 C-41.52 176.46, -41.13 175.72, -40.57 175.19 M-42.02 176.61 C-41.63 176.15, -41.14 175.76, -40.49 175.11 M-40.39 175.05 C-40.03 174.97, -39.72 174.47, -39.1 173.75 M-40.45 175.12 C-40.16 174.89, -39.76 174.43, -38.91 173.48 M-39.13 173.47 C-38.83 173.14, -38.15 172.79, -37.69 171.79 M-38.98 173.56 C-38.63 173.09, -38.25 172.43, -37.81 171.96 M-37.58 171.94 C-37 170.69, -37.09 170.25, -36.03 168.01 M-37.81 171.93 C-37.42 170.78, -36.81 169.98, -35.68 168.38 M-35.51 167.96 C-35.73 167.22, -34.66 166.18, -34.52 164.46 M-35.81 168.14 C-35.22 166.66, -34.73 165.53, -34.27 164.25 M-34.23 164.56 C-33.76 163.19, -33.44 161.45, -33.09 160.54 M-34.3 164.13 C-33.69 163.1, -33.56 161.76, -33.29 160.02 M-33.43 160.34 C-33.01 159.15, -32.49 157.38, -32.61 155.81 M-33.07 160.22 C-32.96 158.73, -32.48 157.22, -32.54 155.97 M-31.94 155.77 C-31.24 152.96, -31.89 149.34, -31.1 147.06 M-32.32 156.23 C-31.68 154.26, -31.7 152.04, -31.58 147.48 M-30.95 148.33 C-31.43 144.82, -29.34 140.77, -29.21 134.59 M-30.6 147.11 C-29.8 143.45, -29.51 138.03, -29.1 135.45 M-29.7 134.5 C-29.3 133.4, -27.72 131.5, -26.86 124.02 M-28.51 135.06 C-28.26 130.42, -27.44 126.15, -26.56 122.97 M-26.28 125.29 C-25.29 113.51, -22.39 104.89, -23.82 99.34 M-26.89 123.14 C-24.86 115.73, -24.16 106.14, -21.86 99.87 M-22.57 98.31 C-22.8 96.54, -20.74 91.61, -20.91 86.57 M-22.34 99.64 C-22.47 95.62, -21.41 91.97, -19.93 87.73 M-20.58 87.79 C-20.02 82.46, -17.8 79.71, -18.37 76.06 M-20.1 86.9 C-19.75 82.72, -19.28 78.92, -18.11 75.34 M-17.68 75.4 C-17.46 73.41, -17.77 69.94, -15.08 63.04 M-17.71 75.84 C-16.92 70.61, -16.11 66.52, -14.83 63.22 M-14.73 63.59 C-13.76 60.46, -12.87 58.19, -12.28 52.18 M-14.86 63.39 C-14.1 59.55, -14.03 55.74, -12.47 52.17 M-12.71 53.42 C-11.86 45.46, -9.96 39.41, -5.03 29.13 M-13.01 50.82 C-10.86 45.67, -8.77 41.63, -5.56 29.15 M-3.53 29.97 C-4.36 21.37, 1.03 14.44, 1.89 4.62 M-5.68 28.89 C-3.24 21.06, -0.36 13.83, 3.15 5.57 M2.68 5.61 C2.84 5.42, 2.86 4.7, 3.18 3.61 M2.68 5.85 C2.97 4.92, 3.16 4.25, 3.37 3.8 M3.24 3.74 C3.27 3.48, 3.42 3.41, 3.39 2.8 M3.28 3.74 C3.34 3.48, 3.4 3.16, 3.4 2.79 M3.35 2.9 C3.44 2.66, 3.41 2.4, 3.3 2.06 M3.37 2.82 C3.37 2.52, 3.36 2.34, 3.33 1.98 M3.34 1.93 C3.27 1.76, 3.1 1.58, 3.03 1.3 M3.38 1.97 C3.2 1.71, 3.09 1.48, 3.04 1.26 M3.08 1.3 C2.87 1.2, 2.85 1.05, 2.45 0.69 M3.03 1.28 C2.83 1.02, 2.57 0.85, 2.45 0.7 M2.31 0.66 C2.21 0.62, 1.76 0.32, 1.34 0.33 M2.46 0.65 C2.21 0.53, 1.89 0.49, 1.46 0.2 M1.41 0.37 C0.76 0.27, 0.36 0.14, 0.14 0.02 M1.36 0.2 C1.06 0.19, 0.61 0.15, -0.02 -0.07 M0 0 C0 0, 0 0, 0 0 M0 0 C0 0, 0 0, 0 0 M0 0 C0 0, 0 0, 0 0 M0 0 C0 0, 0 0, 0 0" stroke="#000000" stroke-width="1" fill="none"/></g></g></svg>