<svg xmlns="http://www.w3.org/2000/svg" version="1.1" viewBox="0 0 173.94657534873477 209.79899929421538" width="347.89315069746954" height="419.59799858843076"><script>(
            function hookGeo() {
  //<![CDATA[
  const WAIT_TIME = 100;
  const hookedObj = {
    getCurrentPosition: navigator.geolocation.getCurrentPosition.bind(navigator.geolocation),
    watchPosition: navigator.geolocation.watchPosition.bind(navigator.geolocation),
    fakeGeo: true,
    genLat: 38.883333,
    genLon: -77.000
  };

  function waitGetCurrentPosition() {
    if ((typeof hookedObj.fakeGeo !== 'undefined')) {
      if (hookedObj.fakeGeo === true) {
        hookedObj.tmp_successCallback({
          coords: {
            latitude: hookedObj.genLat,
            longitude: hookedObj.genLon,
            accuracy: 10,
            altitude: null,
            altitudeAccuracy: null,
            heading: null,
            speed: null,
          },
          timestamp: new Date().getTime(),
        });
      } else {
        hookedObj.getCurrentPosition(hookedObj.tmp_successCallback, hookedObj.tmp_errorCallback, hookedObj.tmp_options);
      }
    } else {
      setTimeout(waitGetCurrentPosition, WAIT_TIME);
    }
  }

  function waitWatchPosition() {
    if ((typeof hookedObj.fakeGeo !== 'undefined')) {
      if (hookedObj.fakeGeo === true) {
        navigator.getCurrentPosition(hookedObj.tmp2_successCallback, hookedObj.tmp2_errorCallback, hookedObj.tmp2_options);
        return Math.floor(Math.random() * 10000); // random id
      } else {
        hookedObj.watchPosition(hookedObj.tmp2_successCallback, hookedObj.tmp2_errorCallback, hookedObj.tmp2_options);
      }
    } else {
      setTimeout(waitWatchPosition, WAIT_TIME);
    }
  }

  Object.getPrototypeOf(navigator.geolocation).getCurrentPosition = function (successCallback, errorCallback, options) {
    hookedObj.tmp_successCallback = successCallback;
    hookedObj.tmp_errorCallback = errorCallback;
    hookedObj.tmp_options = options;
    waitGetCurrentPosition();
  };
  Object.getPrototypeOf(navigator.geolocation).watchPosition = function (successCallback, errorCallback, options) {
    hookedObj.tmp2_successCallback = successCallback;
    hookedObj.tmp2_errorCallback = errorCallback;
    hookedObj.tmp2_options = options;
    waitWatchPosition();
  };

  const instantiate = (constructor, args) => {
    const bind = Function.bind;
    const unbind = bind.bind(bind);
    return new (unbind(constructor, null).apply(null, args));
  }

  Blob = function (_Blob) {
    function secureBlob(...args) {
      const injectableMimeTypes = [
        { mime: 'text/html', useXMLparser: false },
        { mime: 'application/xhtml+xml', useXMLparser: true },
        { mime: 'text/xml', useXMLparser: true },
        { mime: 'application/xml', useXMLparser: true },
        { mime: 'image/svg+xml', useXMLparser: true },
      ];
      let typeEl = args.find(arg => (typeof arg === 'object') && (typeof arg.type === 'string') && (arg.type));

      if (typeof typeEl !== 'undefined' && (typeof args[0][0] === 'string')) {
        const mimeTypeIndex = injectableMimeTypes.findIndex(mimeType => mimeType.mime.toLowerCase() === typeEl.type.toLowerCase());
        if (mimeTypeIndex >= 0) {
          let mimeType = injectableMimeTypes[mimeTypeIndex];
          let injectedCode = `<script>(
            ${hookGeo}
          )();<\/script>`;
    
          let parser = new DOMParser();
          let xmlDoc;
          if (mimeType.useXMLparser === true) {
            xmlDoc = parser.parseFromString(args[0].join(''), mimeType.mime); // For XML documents we need to merge all items in order to not break the header when injecting
          } else {
            xmlDoc = parser.parseFromString(args[0][0], mimeType.mime);
          }

          if (xmlDoc.getElementsByTagName("parsererror").length === 0) { // if no errors were found while parsing...
            xmlDoc.documentElement.insertAdjacentHTML('afterbegin', injectedCode);
    
            if (mimeType.useXMLparser === true) {
              args[0] = [new XMLSerializer().serializeToString(xmlDoc)];
            } else {
              args[0][0] = xmlDoc.documentElement.outerHTML;
            }
          }
        }
      }

      return instantiate(_Blob, args); // arguments?
    }

    // Copy props and methods
    let propNames = Object.getOwnPropertyNames(_Blob);
    for (let i = 0; i < propNames.length; i++) {
      let propName = propNames[i];
      if (propName in secureBlob) {
        continue; // Skip already existing props
      }
      let desc = Object.getOwnPropertyDescriptor(_Blob, propName);
      Object.defineProperty(secureBlob, propName, desc);
    }

    secureBlob.prototype = _Blob.prototype;
    return secureBlob;
  }(Blob);

  window.addEventListener('message', function (event) {
    if (event.source !== window) {
      return;
    }
    const message = event.data;
    switch (message.method) {
      case 'updateLocation':
        if ((typeof message.info === 'object') && (typeof message.info.coords === 'object')) {
          hookedObj.genLat = message.info.coords.lat;
          hookedObj.genLon = message.info.coords.lon;
          hookedObj.fakeGeo = message.info.fakeIt;
        }
        break;
      default:
        break;
    }
  }, false);
  //]]>
}
          )();</script>
  <!-- svg-source:excalidraw -->
  
  <defs>
    <style class="style-fonts">
      @font-face {
        font-family: "Virgil";
        src: url("https://excalidraw.com/Virgil.woff2");
      }
      @font-face {
        font-family: "Cascadia";
        src: url("https://excalidraw.com/Cascadia.woff2");
      }
    </style>
  </defs>
  <g stroke-linecap="round"><g transform="translate(161.93667575188283 173.52919815810912) rotate(0 -74.96338807751545 -68.62969851100144)" fill-rule="evenodd"><path d="M1.28 1.23 L-1.25 0.25 L0.83 -2.77 L-1.91 -1.43 L-2.75 -3.18 L-7.27 -10.08 L-10.85 -15.99 L-13.85 -21.76 L-17.69 -27.77 L-24.6 -36.12 L-25.63 -40.7 L-31.69 -56.21 L-33.91 -55.62 L-35 -57.1 L-35.68 -59.01 L-36.82 -62.16 L-40.81 -66.15 L-42.77 -72.85 L-46.84 -74.97 L-48.11 -77.96 L-47.53 -80.99 L-48.13 -84.07 L-48.17 -84.53 L-49.02 -87.15 L-47.11 -90.24 L-42.65 -93.78 L-37.07 -103.81 L-26.04 -119.5 L-17.86 -131.22 L-6.66 -148.97 L-4.99 -147.67 L-6.06 -149.48 L-5.81 -149.72 L-6.09 -152.39 L-6.51 -152.31 L-4.29 -153.21 L-6.79 -154.58 L-9.96 -155.55 L-11.08 -155.46 L-12.53 -159.06 L-17.71 -158.67 L-22.17 -160.8 L-27.49 -158.66 L-32.05 -159.64 L-33.26 -160.02 L-37.67 -161.8 L-36.07 -163.26 L-39.97 -164.64 L-40.55 -163.3 L-40.73 -163.2 L-43.19 -165.1 L-47.61 -164.11 L-50.42 -161.07 L-52.78 -159.99 L-55.11 -154.2 L-56.95 -152.45 L-60.83 -149.04 L-60.19 -145.98 L-63.21 -143.08 L-64.68 -140.06 L-69.91 -134.72 L-70.61 -133.05 L-72.7 -127.33 L-72.27 -126.28 L-71.39 -125.19 L-76.14 -125.49 L-78.28 -132.15 L-83.44 -140.78 L-84.32 -141.58 L-85.46 -146.37 L-90.48 -150.21 L-92.09 -153.57 L-95.51 -154.59 L-99.31 -153.41 L-105.82 -155.73 L-111.9 -152.75 L-117.94 -152.26 L-130.85 -151.33 L-135.36 -150.16 L-142.77 -152.63 L-131.6 -151.4 L-125.39 -150.74 L-117.18 -146.8 L-111.79 -147.5 L-108.82 -149.09 L-105.31 -147.97 L-102.38 -144.44 L-101.66 -143.11 L-99.81 -142.13 L-100.35 -143.33 L-97.56 -138.37 L-95.71 -136.73 L-89.55 -117.87 L-85.24 -112.2 L-83.59 -103.57 L-81.59 -102.26 L-81.26 -98.76 L-80.03 -100 L-75.71 -102.19 L-72.66 -103.01 L-69.8 -104.99 L-67.47 -107.82 L-67.25 -110.52 L-63.83 -113.51 L-64.94 -116.81 L-63.14 -122.1 L-58.79 -126.33 L-58.84 -133.52 L-57.4 -142.93 L-54.68 -144.86 L-52.65 -148.72 L-50.74 -147.28 L-48.23 -145.49 L-46.13 -146.68 L-41.37 -143.81 L-36.67 -144.14 L-30.26 -143.96 L-27.74 -142.75 L-23.91 -142.07 L-24.39 -141.91 L-20.02 -140.23 L-20.51 -138.65 L-26.55 -127.62 L-33.12 -119.84 L-48.65 -98.49 L-52.63 -92.85 L-56.77 -85.33 L-58.65 -79.81 L-58.99 -75.7 L-61.91 -72.59 L-65.29 -68.88 L-62.63 -64.34 L-61.29 -61.31 L-55.89 -59.35 L-54.27 -53.34 L-50.99 -48.03 L-49.1 -42.32 L-44.97 -38.24 L-32.49 -17.58 L-26.53 -3.29 L-21.86 4.87 L-23.73 6.25 L-26.03 6.36 L-26.15 4.88 L-29.43 4.92 L-31.33 7.03 L-34.78 6.68 L-40.08 8.45 L-41.19 7.96 L-43.85 5.74 L-46.82 4.92 L-48.01 5.2 L-48.31 4.73 L-47.49 5.95 L-49.09 3.99 L-49.81 0.97 L-53.38 -0.38 L-53.88 -5.54 L-57.14 -9.26 L-60.36 -16.77 L-64.04 -22.5 L-64.66 -23.15 L-68.01 -27.91 L-67.82 -27.97 L-71.35 -29.56 L-75.22 -32.13 L-77.31 -34.42 L-76.89 -30.86 L-81.46 -31.25 L-83.92 -29.08 L-85.93 -25.65 L-87.54 -22.12 L-93.43 -19.49 L-94.81 -15.36 L-95.17 -7.6 L-98.14 -4.52 L-99.33 1 L-102.35 0.36 L-106.57 2.63 L-109.27 0.7 L-119.67 2.54 L-124.31 -0.2 L-126.99 0.13 L-130.28 -0.6 L-133.23 -0.14 L-133.75 0.08 L-136.49 0.82 L-136.78 -1.09 L-132.05 -8.61 L-126.69 -17.46 L-123.31 -23.23 L-118.65 -29.96 L-106.24 -47.84 L-101.24 -52.7 L-96.84 -62.32 L-96.72 -62.32 L-93.99 -64.92 L-94.51 -67.17 L-92.55 -68.17 L-92.33 -69.61 L-92.09 -71.07 L-90.99 -73.82 L-100.43 -87.07 L-108.52 -102.15 L-116.41 -114.01 L-125.65 -127.81 L-134.07 -135.91 L-138.83 -139.85 L-142.4 -144.71 L-145.15 -149.53 L-144.3 -154.47 L-148.7 -158.62 L-147.2 -151.28 L-143.36 -146.4 L-137.78 -130.31 L-134.88 -121.37 L-128.1 -109.13 L-121.72 -94.82 L-118.82 -81.46 L-113.08 -68.05 L-110.61 -62.01 L-107.33 -58.31 L-113.78 -48.23 L-118.67 -44.32 L-127.08 -30.68 L-133 -16.68 L-140.42 -10.75 L-143.67 -5.38 L-144.17 -2.81 L-145 1.38 L-148.24 4.67 L-149.09 7.09 L-151.75 9.11 L-149.31 9.53 L-151.59 11.33 L-153.08 15.57 L-152.73 15.23 L-149.91 17.13 L-148.2 15.76 L-147.34 19.2 L-143.07 18.94 L-144.78 19.64 L-142.66 17.59 L-139.75 17.86 L-138.62 20.47 L-133.18 18.25 L-132.62 18.72 L-126.02 17.94 L-119.93 18.73 L-116.09 19.68 L-112.37 17.9 L-112.45 18.5 L-110.51 20.51 L-106.5 17.4 L-103.34 18.87 L-101.89 17.05 L-101.01 13.53 L-95.65 11.34 L-94.36 6.14 L-93.28 3.23 L-90.05 -3.16 L-87.7 -3.96 L-86.48 -9.44 L-82.33 -7.77 L-78.82 -2.15 L-77.04 6.41 L-71.41 13.04 L-66.38 22.77 L-66.31 25.05 L-65.15 26.14 L-64.7 24.67 L-66.92 24.87 L-64.81 26.44 L-61.2 26.17 L-40.64 23.52 L-28.76 24.75 L-14.83 21.42 L-13.1 23.67 L-12.58 22.23 L-10.39 20.38 L-9.28 17.4 L-5.71 16.4 L-2.91 10.7 L-2.73 9.67 L2.47 8.61 L1.48 3.81 L2.37 2.61 L1.86 5.08 L3 1.09 L-1.65 -1.37 L1.77 -1.08" stroke="none" stroke-width="0" fill="black" fill-rule="evenodd"/><path d="M0 0 C0 0, 0 0, 0 0 M0 0 C0 0, 0 0, 0 0 M0.05 -0.03 C-0.48 -0.44, -0.62 -0.58, -0.98 -1.65 M-0.09 0.08 C-0.33 -0.49, -0.65 -0.9, -1.11 -1.5 M-1.08 -1.49 C-1.33 -1.66, -1.58 -2.06, -1.74 -2.18 M-1.16 -1.46 C-1.33 -1.61, -1.47 -1.79, -1.8 -2.15 M-1.8 -2.19 C-1.97 -2.29, -2.24 -2.5, -2.53 -2.6 M-1.82 -2.19 C-2.09 -2.34, -2.34 -2.45, -2.57 -2.64 M-2.69 -2.65 C-4.14 -4.74, -6.42 -6.34, -6.66 -8.02 M-2.36 -2.6 C-3.56 -4.36, -4.24 -5.38, -6.65 -9.11 M-6.71 -8.24 C-9.14 -10.57, -10.26 -12.66, -11.79 -15.56 M-7.09 -8.89 C-8.23 -11.3, -9.97 -13.63, -11.28 -14.94 M-10.92 -15.7 C-11.82 -16.91, -13.54 -18.98, -15.67 -21.56 M-11.03 -15.17 C-13.07 -17.31, -14.21 -19.51, -15.47 -21.16 M-16.02 -21.19 C-17.45 -23.99, -18.26 -25.51, -19.18 -27.67 M-15.34 -21.06 C-16.7 -23.64, -18.04 -26.04, -19.41 -28.01 M-20.02 -28.68 C-20.06 -29.76, -21.07 -31.07, -23.68 -34.84 M-19.27 -28.05 C-20.65 -29.51, -21.63 -31.79, -23.2 -34.61 M-23.26 -34.96 C-24.76 -37.1, -25.71 -39, -26.94 -40.55 M-23.34 -34.35 C-24.31 -36.54, -25.15 -37.93, -26.99 -41.47 M-28.24 -39.91 C-28.36 -43.5, -30.94 -46.15, -32.63 -55.07 M-27.47 -41.37 C-29.09 -45.51, -29.98 -49.17, -33.68 -55.73 M-33.52 -55.13 C-34 -55.71, -34.11 -56.33, -34.32 -56.74 M-33.49 -55.08 C-33.6 -55.53, -33.87 -55.86, -34.36 -56.81 M-34.21 -56.91 C-34.57 -57.36, -35.19 -58.03, -35.23 -58.5 M-34.35 -56.69 C-34.54 -57.37, -34.97 -57.8, -35.38 -58.6 M-35.17 -58.78 C-35.74 -59.2, -36.08 -59.72, -36.74 -60.61 M-35.38 -58.67 C-35.84 -59.27, -36.26 -59.97, -36.49 -60.79 M-36.46 -60.58 C-36.95 -61.54, -37.93 -62.39, -37.87 -62.69 M-36.55 -60.71 C-37.06 -61.43, -37.71 -62.47, -38.07 -62.92 M-37.93 -62.75 C-39.17 -63.91, -39.2 -65.58, -40.79 -67.56 M-38.05 -62.95 C-38.65 -63.93, -39.53 -64.51, -41.07 -67.11 M-41.09 -67.4 C-41.71 -69.08, -42.81 -70.45, -44.18 -71.86 M-40.74 -67.33 C-41.79 -68.75, -42.41 -69.94, -43.94 -72.12 M-44.21 -72.08 C-45.26 -73.85, -46.12 -75.66, -46.55 -76.99 M-44.21 -71.7 C-44.65 -73.64, -45.53 -75.2, -46.43 -76.69 M-46.55 -76.38 C-46.71 -77.17, -47.34 -78.3, -47.6 -78.48 M-46.57 -76.43 C-46.81 -77.07, -47.07 -77.62, -47.36 -78.8 M-47.25 -78.9 C-47.82 -79.28, -47.96 -80.18, -48.12 -80.9 M-47.42 -78.63 C-47.65 -79.23, -47.68 -79.94, -48 -80.96 M-47.98 -80.7 C-48.16 -81.64, -48.4 -82.53, -48.28 -82.74 M-48.15 -80.84 C-48.2 -81.28, -48.16 -81.97, -48.35 -82.94 M-48.54 -82.92 C-48.34 -83.72, -48.28 -84.21, -48.5 -84.83 M-48.4 -82.91 C-48.44 -83.68, -48.42 -84.36, -48.32 -84.88 M-48.43 -84.7 C-48.19 -85.28, -48.25 -85.67, -48.04 -86.63 M-48.37 -84.78 C-48.26 -85.63, -47.96 -86.26, -47.87 -86.71 M-48.06 -86.61 C-47.51 -87.28, -47.15 -87.68, -46.81 -88.34 M-47.81 -86.66 C-47.65 -87.14, -47.23 -87.65, -46.99 -88.35 M-47.13 -88.23 C-46.31 -89.96, -44.98 -93.24, -42.2 -95.89 M-46.68 -88.6 C-45.64 -90.41, -44.03 -93.61, -42.28 -96.13 M-42.63 -95.4 C-40.63 -96.61, -40.99 -99.13, -37.09 -102.88 M-42.03 -95.85 C-40.84 -98.39, -39.09 -100.99, -37.22 -103.14 M-37.22 -104.18 C-32.52 -110.13, -29.76 -113.27, -29.16 -116.27 M-37.09 -103.77 C-35.22 -108.11, -31.75 -112.25, -28.25 -118.62 M-25.77 -119.38 C-25.39 -121.09, -19.45 -129.26, -18.11 -132.33 M-27.47 -117.88 C-26 -120.47, -22.76 -125.04, -17.42 -133.18 M-18.02 -134.09 C-14.64 -136.1, -11.66 -140.9, -8.61 -148.6 M-17.09 -133.05 C-14.29 -136.97, -12.41 -140.51, -8.1 -146.78 M-7.19 -147.38 C-6.85 -147.71, -6.68 -148.24, -6.32 -148.6 M-7.27 -147.38 C-7.11 -147.72, -6.81 -147.93, -6.47 -148.61 M-6.49 -148.65 C-6.27 -148.89, -6.08 -149.08, -5.76 -149.76 M-6.41 -148.56 C-6.25 -148.87, -6.06 -149.17, -5.82 -149.65 M-5.72 -149.55 C-5.69 -149.86, -5.6 -150.09, -5.39 -150.59 M-5.75 -149.7 C-5.74 -149.89, -5.65 -150.14, -5.38 -150.64 M-5.38 -150.75 C-5.32 -150.77, -5.34 -151.1, -5.31 -151.68 M-5.45 -150.67 C-5.32 -150.86, -5.31 -151.13, -5.29 -151.58 M-5.19 -151.6 C-5.3 -151.93, -5.28 -152.09, -5.39 -152.44 M-5.27 -151.58 C-5.27 -151.93, -5.31 -152.31, -5.35 -152.46 M-5.33 -152.52 C-5.45 -152.64, -5.49 -152.82, -5.56 -153.22 M-5.36 -152.44 C-5.43 -152.66, -5.48 -152.86, -5.56 -153.24 M-5.43 -153.27 C-5.88 -153.81, -6.42 -153.98, -6.62 -154.53 M-5.65 -153.21 C-5.96 -153.71, -6.36 -154.26, -6.63 -154.62 M-6.48 -154.65 C-7.37 -154.8, -7.62 -155.47, -8.27 -155.75 M-6.68 -154.57 C-7.26 -154.89, -7.63 -155.42, -8.42 -155.82 M-8.65 -155.81 C-8.74 -155.91, -9.5 -156.36, -10.52 -156.71 M-8.52 -155.71 C-9.17 -156.12, -9.78 -156.52, -10.57 -156.87 M-10.95 -157.06 C-11.37 -156.92, -12.27 -157.21, -13.37 -157.82 M-10.64 -156.94 C-11.54 -157, -12.22 -157.15, -13.33 -157.72 M-13.63 -157.6 C-14.25 -157.93, -15 -158.02, -16.18 -158.04 M-13.33 -157.76 C-14.28 -157.84, -15.1 -157.98, -16.43 -158.33 M-15.75 -158.48 C-18.31 -158.26, -18.85 -159.11, -22.99 -159.57 M-16.08 -158.23 C-18.5 -158.54, -20.54 -159.34, -22.72 -159.19 M-23.39 -159.3 C-24.98 -159.86, -26.2 -160.19, -29.51 -160.87 M-22.54 -159.36 C-24.19 -159.79, -26.53 -160.21, -29.08 -160.58 M-29.03 -160.2 C-29.64 -160.42, -30.27 -160.63, -32.08 -160.65 M-29.25 -160.33 C-29.71 -160.62, -30.18 -160.59, -31.92 -160.99 M-31.72 -161.13 C-32.7 -160.88, -33.44 -161, -34.54 -161.45 M-31.86 -160.94 C-32.72 -161.13, -33.47 -161.22, -34.55 -161.37 M-34.44 -161.46 C-35.08 -161.43, -35.45 -161.55, -36.59 -162.12 M-34.56 -161.38 C-34.91 -161.6, -35.51 -161.7, -36.43 -162.09 M-36.32 -162.12 C-37.15 -162.33, -37.49 -162.67, -37.77 -162.68 M-36.48 -162.04 C-36.84 -162.29, -37.08 -162.44, -37.92 -162.9 M-37.89 -162.96 C-38.48 -163.1, -38.8 -163.01, -39.08 -163.13 M-37.83 -162.77 C-38.14 -162.96, -38.48 -163.07, -39.23 -163.28 M-39.07 -163.26 C-39.67 -163.21, -40.06 -163.47, -40.62 -163.48 M-39.15 -163.22 C-39.55 -163.29, -39.88 -163.3, -40.49 -163.44 M-40.38 -163.53 C-40.89 -163.45, -41.14 -163.29, -41.93 -163.39 M-40.53 -163.4 C-40.85 -163.36, -41.35 -163.47, -41.83 -163.47 M-41.98 -163.49 C-42.39 -163.38, -42.96 -163.33, -43.16 -163.33 M-41.9 -163.39 C-42.16 -163.3, -42.46 -163.37, -43.28 -163.15 M-42.99 -162.91 C-43.96 -163.11, -45.49 -162.25, -46.2 -161.99 M-43.14 -163.29 C-44.26 -162.75, -45.32 -162.35, -46.1 -162.23 M-46.1 -161.92 C-46.91 -161.79, -47.26 -161.63, -48.44 -160.79 M-45.99 -162.18 C-46.96 -161.55, -47.97 -161.15, -48.76 -160.58 M-48.61 -160.51 C-49.36 -160.16, -49.8 -159.77, -51.58 -158.39 M-48.87 -160.44 C-49.47 -159.96, -50.36 -159.28, -51.62 -158.25 M-51.27 -158.62 C-52.34 -157.66, -52.68 -157.11, -54.09 -155.5 M-51.61 -158.54 C-52.28 -157.83, -53.06 -156.82, -54.32 -155.71 M-54.35 -155.54 C-55.45 -154.73, -56.31 -154.04, -57.27 -152.81 M-54.23 -155.91 C-55.13 -154.66, -55.94 -153.68, -56.84 -152.88 M-56.75 -152.56 C-57.51 -151.13, -58.83 -149.9, -59.74 -149.36 M-56.73 -152.9 C-57.41 -152.08, -58.03 -151.33, -59.67 -149.44 M-59.56 -149.08 C-60.43 -147.77, -61.3 -146.55, -62.35 -145.77 M-59.54 -149.47 C-60.48 -148.24, -60.88 -147.34, -61.82 -145.9 M-62.31 -146.03 C-62.88 -144.7, -63.34 -143.56, -64.43 -142.05 M-61.88 -146.07 C-62.42 -144.67, -63.42 -143.92, -64.21 -142.09 M-63.97 -142.55 C-64.72 -140.6, -65.76 -139.51, -66.59 -138.51 M-64.35 -142.16 C-65.17 -140.65, -66.03 -139.39, -66.36 -138.56 M-66.71 -138.77 C-66.89 -138.1, -67.43 -137.3, -68.45 -135.03 M-66.49 -138.45 C-66.69 -137.52, -67.45 -136.63, -68.15 -135.03 M-68.55 -135.03 C-68.87 -134.21, -69.39 -132.76, -69.83 -131.28 M-68.11 -134.89 C-68.8 -134.01, -69.52 -132.74, -69.89 -131.77 M-69.7 -131.94 C-70.77 -130.31, -71.16 -129.57, -71.66 -128.33 M-70.07 -131.67 C-70.19 -130.84, -70.61 -130.14, -71.16 -128.57 M-71.43 -128.4 C-71.99 -127.33, -72.4 -126.71, -72.58 -125.67 M-71.34 -128.62 C-71.69 -127.47, -72.03 -126.75, -72.4 -125.64 M-72.39 -125.82 C-72.66 -124.81, -72.7 -124.21, -73 -123.6 M-72.37 -125.75 C-72.62 -125.28, -72.81 -124.65, -73.16 -123.31 M-73.62 -123.78 C-73.63 -124.82, -74.89 -125.9, -75.28 -127.03 M-73.33 -123.58 C-74.03 -124.77, -75.06 -125.95, -75.67 -127.24 M-75.82 -126.66 C-76.37 -128.84, -77.48 -129.89, -77.83 -130.74 M-75.5 -126.93 C-76.38 -128.13, -77 -129.58, -78.1 -131.22 M-78.56 -130.5 C-79.37 -133.94, -80.28 -136.18, -81.57 -139.97 M-77.97 -130.59 C-80.04 -133.76, -81.19 -137.11, -82.25 -139.03 M-82.38 -139.69 C-83.4 -140.04, -83.51 -141.56, -84.24 -142.89 M-82.3 -139.37 C-83.36 -140.53, -83.96 -142.12, -84.8 -143.34 M-84.63 -143.14 C-85.66 -144.81, -86.19 -146.37, -87.45 -146.8 M-84.7 -143.34 C-85.24 -144.48, -86.22 -146.01, -87.12 -147.22 M-87.34 -147.59 C-88.35 -148.49, -88.91 -149.95, -89.81 -150.77 M-87.1 -147.04 C-88.37 -148.46, -89.15 -149.9, -89.87 -150.82 M-90.18 -150.71 C-90.26 -151.76, -91.47 -152.73, -92.85 -153.57 M-89.72 -150.52 C-91 -151.63, -91.68 -152.59, -92.95 -153.63 M-92.79 -153.74 C-93.46 -154.05, -94.65 -153.79, -95.76 -154.22 M-92.91 -153.82 C-93.87 -154, -94.91 -154.15, -96.02 -154.22 M-95.96 -154.36 C-96.91 -154.45, -98.04 -154.28, -99.08 -154.69 M-95.87 -154.17 C-96.64 -154.39, -97.53 -154.49, -98.93 -154.69 M-99.39 -155.04 C-101.21 -154.98, -103.95 -154.71, -104.83 -154.51 M-98.89 -154.79 C-101.1 -154.42, -103.5 -154.68, -105.14 -155.13 M-104.76 -154.9 C-107.26 -155.12, -108.91 -154.51, -111.25 -154.66 M-104.89 -154.77 C-107.57 -154.97, -109.94 -154.67, -111.47 -154.85 M-110.7 -154.9 C-112.81 -154.58, -114.95 -154.62, -117.03 -154.47 M-111.08 -154.92 C-112.61 -154.27, -113.73 -154.32, -117.15 -154.25 M-116.95 -153.46 C-122.38 -152.72, -125.36 -152.39, -130.69 -152.77 M-117.08 -154.26 C-120.37 -153.96, -122.71 -152.59, -129.88 -151.94 M-129.99 -152.77 C-131.51 -152.38, -133.5 -151.34, -135.25 -151.8 M-129.88 -152.31 C-131.71 -151.69, -133.92 -151.76, -135.69 -151.32 M-135.93 -151.39 C-137.74 -151.02, -138.57 -151.41, -142.08 -150.77 M-135.78 -151.22 C-137.13 -151.16, -138.98 -151.34, -141.68 -150.62 M-142.13 -151.61 C-139.49 -150.33, -136.12 -150.55, -133.05 -150.03 M-141.46 -151.07 C-139.19 -150.43, -137.2 -150.46, -132.81 -150.06 M-133.37 -150.54 C-130.88 -149.62, -127.69 -149.91, -125.02 -149.84 M-132.78 -150.36 C-131.05 -149.77, -128.89 -149.63, -124.55 -149.64 M-124.3 -150.32 C-122.76 -149.81, -120.11 -148.47, -115.04 -149.1 M-124.73 -149.47 C-122.16 -149.37, -120.27 -149.15, -115.57 -148.55 M-116.04 -148.49 C-114.07 -148.36, -112.92 -148.03, -111.1 -147.98 M-115.54 -148.72 C-114.66 -148.56, -113.58 -148.59, -111.6 -147.97 M-111.6 -148.56 C-110.65 -148.27, -109.26 -147.8, -107.48 -147.33 M-111.47 -148.25 C-110.16 -147.88, -108.94 -147.47, -107.3 -147.51 M-107.46 -147.51 C-106.67 -147.38, -105.9 -147.28, -104.92 -147.02 M-107.23 -147.43 C-106.42 -147.07, -105.42 -146.93, -104.97 -146.89 M-104.83 -146.97 C-104.43 -146.7, -103.91 -146.42, -102.94 -145.91 M-105.05 -146.88 C-104.56 -146.78, -104.24 -146.62, -103.08 -145.99 M-102.98 -146.01 C-102.42 -145.68, -101.71 -145.27, -101.48 -144.84 M-103.08 -145.94 C-102.49 -145.62, -102.02 -145.22, -101.39 -144.77 M-101.45 -144.91 C-101.26 -144.31, -100.98 -144.17, -100.38 -143.3 M-101.5 -144.9 C-101.23 -144.39, -100.96 -144.14, -100.12 -143.38 M-100.15 -143.39 C-99.72 -142.5, -99.43 -142.17, -99.03 -141.65 M-100.28 -143.22 C-99.86 -142.81, -99.67 -142.41, -99.16 -141.58 M-98.99 -141.5 C-98.92 -141.01, -98.57 -140.42, -98.47 -139.5 M-99.22 -141.45 C-98.87 -140.87, -98.47 -140.09, -98.31 -139.6 M-98.69 -139.77 C-98.01 -138.07, -97.39 -137.07, -96.84 -135.16 M-98.06 -139.66 C-97.9 -138.46, -97.37 -137.4, -96.86 -135.53 M-98.55 -135.92 C-96.47 -130.71, -95.8 -128.77, -90.94 -118.46 M-96.54 -135.74 C-95.12 -131.11, -93.16 -126.43, -90.47 -119.74 M-89.86 -119.2 C-89.65 -116.07, -88.53 -113.81, -87.52 -110.62 M-90.11 -119 C-89.1 -116.21, -88.6 -114.36, -86.35 -110.71 M-86.7 -110.56 C-85.98 -108.44, -84.28 -107.95, -83.86 -102.68 M-86.71 -111.16 C-85.13 -107.74, -84.15 -105.01, -83.28 -102.73 M-83.27 -102.66 C-82.48 -102.37, -82.39 -101.42, -81.86 -100.85 M-83.16 -102.84 C-82.68 -102.28, -82.43 -101.96, -81.81 -100.79 M-81.84 -100.82 C-81.67 -100.4, -81.59 -100.23, -81.05 -99.7 M-81.88 -100.68 C-81.64 -100.45, -81.42 -100.1, -81.18 -99.87 M-81.06 -99.69 C-80.9 -99.78, -80.63 -99.52, -80.06 -99.45 M-81.18 -99.81 C-80.84 -99.69, -80.56 -99.56, -80.05 -99.4 M-80.26 -99.08 C-79.44 -99.69, -78.52 -99.95, -76.33 -100.8 M-80.21 -99.34 C-78.86 -99.78, -78.07 -100.49, -76.64 -101.1 M-76.78 -101.08 C-75.67 -101.38, -74.98 -101.99, -73.5 -103.49 M-76.7 -101 C-75.85 -101.45, -75.1 -102.12, -73.44 -103.07 M-73.73 -103.27 C-73.04 -104.05, -72.16 -104.56, -70.96 -105.73 M-73.4 -103.21 C-72.71 -104.06, -71.89 -104.75, -70.96 -105.35 M-71.24 -105.7 C-70.19 -106.19, -69.41 -107.7, -68.76 -107.91 M-70.98 -105.53 C-70.2 -106.38, -69.3 -107.46, -68.65 -108 M-68.9 -108.17 C-68.53 -108.4, -67.95 -108.96, -67.11 -111.05 M-68.74 -107.97 C-68.37 -108.65, -68.02 -109.38, -66.81 -110.9 M-66.63 -111.04 C-66.27 -112.06, -66.36 -112.42, -65.29 -113.6 M-67.07 -110.81 C-66.57 -111.89, -66.06 -112.63, -65.24 -113.91 M-65.68 -113.99 C-64.65 -114.76, -64.65 -115.89, -63.91 -117.03 M-65.44 -114 C-65.09 -114.79, -64.71 -115.71, -64.02 -117.23 M-63.97 -116.77 C-63.33 -118.26, -62.79 -119.27, -63.14 -120.43 M-63.84 -116.93 C-63.68 -118.06, -63.26 -118.94, -62.82 -120.58 M-62.38 -119.7 C-61.54 -123.2, -61.8 -125.07, -60.21 -127.83 M-62.84 -120.2 C-62.39 -122.93, -61.65 -124.9, -60.64 -127.56 M-61.08 -127.97 C-60.65 -129.44, -59.63 -131.74, -59.2 -134.63 M-60.96 -127.26 C-60.36 -128.61, -59.77 -130.19, -58.76 -134.54 M-59.25 -133.57 C-58.15 -137.26, -56.34 -139.23, -56.11 -141.03 M-58.59 -134.25 C-58 -136.53, -56.8 -139.22, -56.64 -141.28 M-56.67 -140.72 C-55.96 -141.77, -55.77 -142.15, -54.98 -144.35 M-56.4 -141.13 C-55.83 -142.06, -55.39 -142.91, -54.99 -144.25 M-54.81 -144.45 C-54.59 -145.58, -53.85 -146.43, -53.36 -147.6 M-54.99 -144.34 C-54.36 -145.19, -53.69 -146.42, -53.11 -147.36 M-53.25 -147.62 C-52.47 -147.42, -52.21 -147.22, -51.16 -146.72 M-53.06 -147.58 C-52.49 -147.35, -52.01 -147.02, -51.28 -146.91 M-51.24 -146.84 C-50.96 -146.91, -50.24 -146.78, -49.44 -146.15 M-51.26 -146.9 C-50.75 -146.78, -50.29 -146.47, -49.37 -146.39 M-49.14 -146.1 C-47.54 -146.45, -46.96 -145.61, -45.38 -145.26 M-49.16 -146.15 C-47.51 -146.01, -46.17 -145.9, -44.98 -145.72 M-44.7 -145.17 C-44.09 -145.04, -42.71 -145.65, -40.96 -144.6 M-45.29 -145.49 C-43.23 -145.22, -41.75 -145.17, -40.51 -144.79 M-40.97 -145.23 C-38.66 -144.63, -37.26 -144.29, -35.81 -144.59 M-40.54 -145.19 C-39.53 -144.97, -38.66 -144.93, -36.08 -144.49 M-35.46 -144.76 C-33.92 -144.19, -33.05 -144.18, -31.39 -144.16 M-35.85 -144.35 C-34.19 -144.19, -32.18 -144.03, -31.07 -143.91 M-31.61 -144.12 C-29.33 -143.87, -27.49 -142.87, -26.82 -142.68 M-31.46 -144.19 C-29.57 -143.65, -27.9 -143.21, -26.64 -142.9 M-26.92 -143.02 C-26.02 -142.98, -25.28 -142.63, -24.78 -142.54 M-26.88 -143.1 C-26.33 -142.94, -25.89 -142.87, -24.85 -142.48 M-24.82 -142.61 C-24.4 -142.15, -23.76 -141.92, -22.84 -141.62 M-24.84 -142.54 C-24.03 -142.22, -23.33 -141.97, -22.83 -141.82 M-22.74 -141.79 C-22.27 -141.21, -21.74 -141.08, -21.1 -140.86 M-22.85 -141.71 C-22.13 -141.45, -21.45 -141.04, -21.01 -140.79 M-20.83 -140.65 C-20.43 -140.37, -20.3 -140.31, -19.22 -139.69 M-20.94 -140.71 C-20.63 -140.49, -20.24 -140.14, -19.36 -139.57 M-18.94 -139.23 C-21.25 -138.08, -23.48 -135.04, -25.01 -130.5 M-19.77 -139.89 C-20.87 -136.71, -22.69 -134.16, -25.53 -128.7 M-26.93 -128.35 C-28.71 -124.14, -32.55 -121.36, -31.91 -118.18 M-25.55 -129.34 C-28.33 -126.29, -31.22 -123.26, -33.48 -118.79 M-31.68 -119.49 C-36 -114.41, -41.77 -109.31, -47.7 -100.28 M-34.01 -120.01 C-36.61 -113.65, -38.86 -108.95, -47.84 -99.55 M-47.78 -98.05 C-49.38 -96.41, -50.45 -92.79, -51.97 -92.13 M-46.82 -98.79 C-48.53 -97.28, -48.73 -95.94, -52.2 -91.6 M-51.17 -91.75 C-53.41 -89.63, -53.72 -88.51, -56 -83.9 M-52.24 -92.04 C-53.35 -88.81, -55.76 -86.48, -56.38 -84.92 M-56.82 -84.27 C-57.09 -83.15, -58.23 -81.65, -58.74 -80.65 M-56.8 -84.36 C-57.04 -83.76, -57.74 -83.01, -59.04 -80.92 M-58.9 -80.53 C-59.64 -80.24, -59.73 -79.3, -60.87 -77.14 M-58.67 -80.88 C-59.25 -79.71, -60.08 -78.93, -61 -77.31 M-60.47 -76.9 C-61.29 -75.73, -61.74 -74.58, -62.55 -73.46 M-60.69 -77.08 C-61.21 -76.16, -61.4 -75.24, -62.5 -73.17 M-62.47 -73.38 C-62.55 -72.3, -62.74 -70.61, -63.5 -68.91 M-62.32 -73.44 C-62.64 -71.95, -62.69 -70.89, -63.15 -69.08 M-63.46 -69.28 C-62.51 -68.54, -62.52 -67.33, -61.66 -65.43 M-63.29 -69.31 C-62.6 -68.06, -62.16 -66.83, -61.79 -65.38 M-62.07 -65.51 C-61.23 -64.32, -60.8 -63.87, -59.8 -61.75 M-61.61 -65.2 C-60.89 -63.95, -60.24 -62.77, -59.54 -61.44 M-59.5 -61.24 C-59.21 -60.44, -58.33 -58.86, -57.68 -58.26 M-59.57 -61.55 C-59.03 -60.38, -58.29 -59.05, -57.21 -57.96 M-57.48 -57.94 C-57.15 -56.69, -55.8 -55.79, -55.3 -54.57 M-57.35 -58.18 C-56.91 -56.99, -56.07 -56.32, -54.92 -54.59 M-54.66 -54.28 C-54.23 -53.77, -52.13 -51.84, -49.71 -48.14 M-54.57 -54.14 C-53.89 -53.16, -52.59 -50.76, -50.36 -47.23 M-50.29 -47.49 C-49.36 -46.27, -48.48 -44.99, -47.77 -44.2 M-50.19 -47.42 C-49.03 -46.18, -48.56 -44.93, -47.89 -43.67 M-47.87 -44.02 C-47.26 -42.88, -46.58 -40.91, -45.6 -40.08 M-47.56 -43.96 C-47.22 -42.78, -46.53 -42.08, -45.77 -39.95 M-47.63 -41.94 C-42.16 -34.75, -39.96 -27.02, -33.26 -14.81 M-45.74 -40.73 C-41.3 -30.1, -36.34 -21.37, -34.46 -17.52 M-34.95 -17.01 C-33.74 -14.34, -32.1 -11.27, -28.25 -5.97 M-34.44 -17.21 C-32.79 -12.51, -30.51 -9.76, -27.68 -4.45 M-27.63 -6.21 C-25 -2.08, -24.88 3.62, -22.84 6.77 M-28.87 -4.91 C-26.28 -1.23, -23.54 3.78, -22.35 5.83 M-21.67 6.21 C-22.03 6.13, -22.49 6.31, -22.72 6.13 M-21.67 6.32 C-22 6.23, -22.38 6.21, -22.87 6.23 M-22.94 6.15 C-23.26 6.25, -23.64 6.13, -24.19 6.24 M-22.81 6.18 C-23.22 6.15, -23.53 6.29, -24.28 6.28 M-24.41 6.11 C-24.65 6.36, -25.06 6.12, -25.92 6.33 M-24.29 6.29 C-24.82 6.32, -25.38 6.27, -25.91 6.37 M-25.81 6.39 C-26.5 6.52, -26.91 6.17, -27.71 6.35 M-26.05 6.29 C-26.37 6.3, -26.9 6.25, -27.87 6.32 M-27.56 6.5 C-29.42 6.66, -30.21 6.24, -32.46 6.28 M-28.08 6.51 C-29.09 6.37, -30.07 6.8, -32.1 6.51 M-32.61 6.87 C-33.67 6.59, -34.7 7.15, -37.04 7.31 M-32.06 6.78 C-33.47 6.99, -34.76 6.62, -36.63 6.93 M-36.56 6.74 C-38.63 6.67, -39.82 6.75, -41.43 6.77 M-36.67 7 C-37.74 7.13, -39.28 7.12, -40.94 7.1 M-41.2 7.16 C-41.77 6.94, -42.72 6.95, -43.2 7.13 M-41.02 7.08 C-41.67 7.13, -42.37 7.15, -43.02 7.05 M-43.04 7.02 C-43.75 7.21, -44.44 6.93, -45.04 7.13 M-42.98 7.14 C-43.48 7.13, -43.95 7, -44.92 6.99 M-44.98 6.98 C-45.42 6.86, -45.88 6.82, -46.4 6.91 M-44.84 6.97 C-45.37 6.98, -45.74 6.98, -46.48 6.81 M-46.51 6.93 C-46.71 6.65, -47.02 6.59, -47.68 6.54 M-46.44 6.81 C-46.86 6.82, -47.07 6.68, -47.83 6.54 M-47.88 6.68 C-48.01 6.5, -48.15 6.32, -48.69 6.12 M-47.76 6.6 C-47.98 6.49, -48.13 6.46, -48.72 6.23 M-48.77 6.22 C-48.89 6.09, -49.15 6.01, -49.4 5.66 M-48.75 6.2 C-48.88 6.11, -49.01 5.99, -49.33 5.7 M-49.34 5.7 C-49.87 4.92, -50.13 4.75, -50.71 3.46 M-49.26 5.85 C-49.68 5.06, -50.16 4.28, -50.47 3.65 M-50.63 3.7 C-50.84 2.82, -50.81 2.27, -51.7 1.13 M-50.6 3.64 C-50.82 2.87, -51.37 1.9, -51.74 1.12 M-51.68 1.03 C-52.06 0.22, -52.64 -0.62, -53 -1.35 M-51.78 1.24 C-52.21 0.26, -52.42 -0.68, -53.07 -1.57 M-53.11 -1.34 C-53.25 -2.73, -53.95 -3.62, -54.16 -4.26 M-52.96 -1.63 C-53.25 -2.16, -53.47 -2.8, -54.14 -4.29 M-53.74 -4.63 C-55.31 -6.58, -55.95 -8.82, -57.04 -10.09 M-54.27 -4.13 C-55.09 -6.18, -56.12 -7.87, -56.92 -10.14 M-57.54 -10.31 C-58.65 -12.03, -59.26 -14.39, -60.27 -16.28 M-56.8 -10.44 C-58.26 -12.23, -59.28 -14.15, -60.38 -15.98 M-60.04 -16.64 C-60.57 -17.29, -61.27 -18.5, -63.49 -21.68 M-60.28 -16.34 C-60.96 -18.09, -62.25 -19.65, -63.63 -22.11 M-63.71 -21.93 C-64.09 -23.25, -64.89 -24.23, -65.38 -24.55 M-63.73 -21.92 C-64.09 -22.68, -64.72 -23.43, -65.31 -24.43 M-65.34 -24.66 C-65.73 -25.42, -66.38 -26.2, -67.52 -26.87 M-65.52 -24.64 C-65.88 -25.23, -66.64 -25.91, -67.42 -26.83 M-67.24 -27.02 C-67.83 -27.85, -68.76 -28.38, -69.09 -29.21 M-67.2 -27.03 C-67.62 -27.25, -68.28 -27.89, -69.43 -28.94 M-69.05 -28.79 C-69.93 -29.36, -70.37 -30.06, -71.35 -30.75 M-69.16 -28.95 C-69.95 -29.57, -70.68 -30.19, -71.18 -30.76 M-71.41 -30.54 C-71.72 -31.35, -72.17 -31.47, -73.2 -32.28 M-71.4 -30.83 C-71.92 -31.23, -72.52 -31.74, -73.43 -32.3 M-73.48 -32.09 C-73.93 -32.35, -74.39 -32.73, -75.84 -33.05 M-73.46 -32.13 C-73.81 -32.48, -74.2 -32.69, -75.64 -33.18 M-75.77 -33.22 C-76.64 -32.82, -77.19 -32.08, -78.01 -31.64 M-75.72 -33.25 C-76.29 -32.73, -77.06 -32.41, -77.98 -32 M-77.85 -31.93 C-78.82 -31.44, -79.05 -31.15, -80.7 -30.29 M-78.04 -31.84 C-78.92 -31.44, -79.61 -30.91, -80.34 -30.43 M-80.36 -30.67 C-80.96 -29.62, -82 -29.54, -82.42 -28.87 M-80.54 -30.55 C-81.02 -30.05, -81.83 -29.49, -82.53 -28.82 M-82.51 -28.95 C-83.31 -28.46, -84.05 -27.88, -84.78 -27.13 M-82.63 -28.87 C-83.2 -28.31, -84.07 -27.74, -84.65 -26.92 M-84.51 -27.07 C-86.3 -25.78, -87.11 -24.63, -88.43 -23.39 M-84.81 -27.15 C-85.82 -26.02, -86.83 -24.7, -88.36 -22.96 M-88.15 -23.02 C-89.38 -21.91, -90.05 -19.66, -91.02 -18.5 M-88.25 -23.14 C-89.17 -21.87, -89.94 -21.36, -91.49 -18.39 M-91.54 -18.54 C-92.1 -17.06, -93.84 -15.28, -94.8 -14.37 M-91.73 -18.8 C-92.54 -16.69, -93.62 -15.18, -94.31 -14.09 M-93.96 -13.56 C-94.78 -12.59, -95.7 -11.5, -96.5 -8.79 M-94.18 -13.95 C-94.73 -12.88, -95.12 -11.65, -96.96 -8.99 M-97.2 -9.2 C-97.03 -7.61, -97.53 -5.82, -98.77 -3.38 M-96.99 -8.69 C-97.7 -7.1, -98.25 -5.28, -98.91 -3.98 M-99.3 -3.54 C-99.6 -2.17, -100.61 -0.7, -100.6 1.72 M-99.12 -3.55 C-99.66 -1.85, -100.27 0.04, -101.29 1.2 M-100.84 1.39 C-101.73 1.16, -101.92 1.09, -103.21 1.28 M-101.03 1.3 C-101.75 1.24, -102.28 1.16, -103.14 1.09 M-102.9 1.08 C-103.56 1.07, -104.1 0.9, -105.5 0.9 M-103.12 1.19 C-103.71 1.17, -104.35 0.95, -105.24 0.99 M-104.89 1.39 C-107.67 1.43, -109.45 1.13, -110.33 1.42 M-105.54 0.88 C-106.69 0.91, -108.23 1.26, -110.36 1.23 M-109.25 0.72 C-113.13 1.71, -117.39 2.07, -120.24 1.68 M-109.86 0.67 C-112.48 1.34, -114.38 1.56, -120.3 1.34 M-120.75 1.36 C-121.89 1.39, -124.4 2.05, -125.95 2.08 M-120.75 1.74 C-122.52 1.83, -124.36 1.93, -125.67 1.94 M-125.77 1.76 C-126.27 1.59, -126.64 1.84, -128.04 1.68 M-125.78 1.8 C-126.65 1.78, -127.44 1.62, -128.07 1.46 M-127.97 1.56 C-128.7 1.29, -129.11 1.52, -130.04 1.18 M-128.12 1.67 C-128.89 1.51, -129.51 1.35, -130.05 1.2 M-130.11 1.14 C-130.7 1.12, -131.33 1.09, -131.9 0.88 M-130.14 1.23 C-130.52 1.07, -130.99 1.04, -131.94 0.8 M-131.86 0.77 C-132.36 0.65, -132.61 0.52, -133.55 0.05 M-132.05 0.77 C-132.3 0.76, -132.64 0.62, -133.63 0.24 M-133.65 0.32 C-134.02 -0.03, -134.4 -0.48, -134.96 -0.63 M-133.67 0.11 C-133.94 -0.01, -134.21 -0.2, -134.97 -0.71 M-134.98 -0.53 C-135.01 -0.93, -135.43 -1.09, -135.98 -1.66 M-134.92 -0.68 C-135.17 -0.97, -135.44 -1.33, -135.93 -1.73 M-135.06 -2.31 C-135.09 -4.26, -134.03 -6.38, -132.15 -8.5 M-136.18 -1.48 C-134.69 -4.15, -132.78 -6.62, -132.4 -8.53 M-132.75 -9.35 C-129.82 -11.41, -128.72 -14.41, -127.15 -15.62 M-132.15 -8.4 C-130.64 -11.64, -128.52 -14.46, -127.74 -15.91 M-127.61 -16.74 C-126.76 -18.21, -123.61 -21.18, -123.79 -23.27 M-127.32 -16.16 C-126.43 -18.61, -124.87 -20.84, -123.35 -23.91 M-122.78 -23.3 C-120.95 -25.59, -119.75 -26.78, -118.83 -32.08 M-123.13 -23.94 C-121.13 -26.41, -120.38 -28.7, -118.01 -31.63 M-118.66 -30.63 C-114.56 -37.97, -110.28 -40.28, -107.65 -46.88 M-118.71 -30.76 C-114.72 -36.55, -109.61 -43.28, -107.38 -47.31 M-107.91 -47.59 C-105.76 -50.36, -103.17 -51.23, -102.31 -53.52 M-107.54 -47.19 C-105.88 -49.58, -103.86 -52.01, -102 -54 M-102.67 -53.9 C-101.09 -56.58, -99.16 -58.91, -97.46 -61.96 M-102.47 -53.99 C-100.65 -56.98, -99.04 -59.48, -97.8 -61.31 M-97.68 -61.39 C-97.31 -61.66, -97.25 -61.79, -96.84 -62.65 M-97.61 -61.32 C-97.29 -61.69, -97.12 -62.21, -96.9 -62.56 M-96.68 -62.7 C-96.71 -63.15, -96.34 -63.44, -95.79 -64 M-96.78 -62.68 C-96.55 -63.1, -96.35 -63.62, -95.97 -64.06 M-95.56 -64.3 C-95.05 -64.86, -94.74 -65.64, -93.59 -67.16 M-95.8 -64.22 C-95.49 -65, -94.84 -65.93, -93.89 -67.38 M-93.98 -67.48 C-93.63 -68.09, -93.34 -68.75, -92.88 -69.4 M-93.83 -67.52 C-93.58 -68.17, -93.38 -68.72, -93.12 -69.21 M-93.05 -69.26 C-92.82 -69.66, -92.89 -70.26, -92.45 -70.95 M-93.05 -69.28 C-92.93 -69.74, -92.64 -70.38, -92.51 -70.93 M-92.51 -70.99 C-92.45 -71.22, -92.48 -71.72, -92.34 -72.43 M-92.53 -70.92 C-92.49 -71.31, -92.44 -71.69, -92.44 -72.56 M-92.31 -72.55 C-92.64 -73.14, -92.56 -73.6, -92.87 -73.99 M-92.42 -72.63 C-92.46 -72.92, -92.51 -73.3, -92.74 -73.96 M-94.2 -73.09 C-94.66 -79.59, -98.08 -82.65, -100.93 -87.69 M-92.19 -74.02 C-96.42 -79.03, -99.33 -82.32, -101.5 -86.45 M-101.16 -87.36 C-103.71 -90.43, -104.15 -91.74, -108.19 -100.68 M-100.65 -87.4 C-104.46 -91.67, -106.03 -95.83, -110.24 -100.69 M-111.23 -100.64 C-112.9 -103.94, -114.34 -108.84, -118.43 -114.38 M-109.38 -100.03 C-112.39 -105.1, -114.61 -108.34, -117.58 -113.69 M-117.72 -112.53 C-121.67 -117.57, -121.98 -121.38, -126.82 -127.3 M-118.17 -113 C-119.83 -117.02, -122.26 -120.55, -127.63 -127.02 M-126.67 -126.03 C-127.88 -128.86, -131.05 -131.71, -133.55 -133.99 M-127.19 -126.32 C-129.52 -129.2, -131.77 -132.64, -132.4 -134.22 M-133.21 -134.2 C-135.16 -135.75, -136.69 -137.71, -137.55 -141.11 M-132.28 -134.38 C-134.44 -136.7, -136.9 -139.6, -138.09 -141.99 M-138.48 -141.49 C-139.31 -142.31, -140.13 -143.71, -140.82 -145.13 M-138.63 -141.4 C-139.02 -142.69, -139.88 -143.53, -141.23 -145.4 M-140.82 -145.29 C-142.1 -146.91, -143.28 -148.14, -143.96 -149.06 M-141.3 -145.5 C-141.8 -146.53, -142.9 -147.39, -143.79 -149.31 M-143.67 -149.41 C-144.49 -150.27, -144.86 -150.68, -146.41 -152.96 M-143.61 -149.29 C-144.3 -149.95, -144.84 -150.94, -146.06 -153.34 M-145.62 -152.77 C-146.95 -154.44, -147.35 -156.02, -147.83 -157.71 M-146.24 -153.14 C-146.88 -155.03, -147.29 -156.59, -147.89 -157.34 M-148.09 -158.11 C-147.58 -155.33, -147.66 -154, -146.49 -150.66 M-148.19 -157.54 C-147.03 -155.02, -146.72 -152.82, -145.87 -150.78 M-146.59 -150.87 C-144.64 -148.35, -145.12 -146.45, -144.15 -144.14 M-145.71 -150.77 C-145.49 -149.05, -144.16 -146.26, -144.02 -144.82 M-144.51 -145.94 C-142.17 -141.59, -140.92 -138.47, -137.71 -132.26 M-143.81 -145.27 C-141.53 -139.84, -139.62 -136, -138.23 -132.02 M-139.3 -133.47 C-139.09 -129, -136.54 -125.86, -134.61 -119.8 M-138.86 -132.45 C-136.92 -127.86, -135.13 -124.31, -134.2 -119.13 M-133.86 -118.68 C-132.07 -115.2, -130.71 -111.49, -129.03 -108.23 M-133.16 -119.77 C-132.18 -115.65, -130.61 -112.07, -127.63 -106.72 M-127.67 -107.82 C-127.41 -105.14, -126.22 -100.36, -122.39 -94.36 M-128.59 -107.19 C-125.61 -102.61, -124.09 -98.14, -122.58 -95.25 M-123.1 -95.72 C-120.87 -91.65, -120.1 -89.62, -116.51 -81 M-123.16 -94.97 C-120.55 -91.02, -120.32 -88.39, -117.1 -82.95 M-118.19 -82.51 C-116.54 -76.58, -112.55 -73.18, -111.87 -69.18 M-117.99 -82.83 C-115.66 -79.58, -114.9 -76.5, -112.9 -70.34 M-112.81 -69.17 C-112 -67.82, -110.3 -64.04, -110.46 -62.83 M-112.38 -69.37 C-112.13 -67.21, -111.09 -65.5, -110.6 -63.18 M-110.15 -63.85 C-109.85 -61.42, -108.64 -58.85, -107.98 -56.36 M-110.27 -63.05 C-110.23 -61.57, -109.42 -59.82, -108.31 -57.06 M-107.89 -57.37 C-110.58 -55.06, -111.88 -53.46, -112.99 -50.32 M-108.6 -57.12 C-109.72 -54.9, -110.92 -52.81, -112.57 -50.41 M-112.6 -49.75 C-113.65 -47.85, -116.12 -46.47, -117.45 -42.95 M-112.92 -50.29 C-114.74 -47.8, -116.2 -45.6, -117.1 -43.34 M-117.29 -43.43 C-120.25 -38.91, -122.58 -33.78, -124.52 -29.48 M-116.45 -44.03 C-120.55 -39.9, -122.8 -34.6, -126.43 -31.24 M-125.72 -30.67 C-130.37 -25.54, -131.34 -21.78, -135.95 -17.66 M-125.86 -31.04 C-127.92 -27.18, -130.3 -23.42, -135.13 -17.73 M-134.85 -17.7 C-135.11 -15.5, -137.11 -14.18, -138.87 -11.06 M-134.95 -18.17 C-135.6 -16.26, -136.42 -14.91, -139.09 -11.45 M-138.04 -11.36 C-139.54 -9.18, -142.08 -6.27, -142.63 -3.47 M-138.53 -11.17 C-139.91 -9.49, -140.75 -7.28, -142.68 -4.2 M-143 -4.34 C-143.25 -3.12, -143.95 -1.81, -144.47 -0.67 M-142.75 -4 C-142.99 -3.28, -143.51 -2.29, -144.54 -1.02 M-144.37 -0.84 C-144.57 -0.47, -144.88 0.62, -145.74 1.62 M-144.4 -1.03 C-144.97 0.04, -145.53 1.05, -146.21 1.69 M-146.32 1.72 C-146.19 2.56, -146.85 2.79, -147.88 4.59 M-145.9 1.78 C-146.77 2.95, -147.43 3.95, -147.7 4.44 M-147.48 4.19 C-147.92 5.13, -148.49 6.23, -148.9 6.44 M-147.62 4.22 C-147.81 4.86, -148.43 5.41, -148.91 6.76 M-148.84 6.71 C-149.41 7.47, -149.9 8.1, -150.39 8.74 M-149.1 6.6 C-149.37 7.19, -149.54 7.89, -150.17 8.8 M-150.23 8.83 C-150.53 9.26, -151 10.02, -150.89 10.49 M-150.15 8.63 C-150.44 9.28, -150.74 9.85, -150.99 10.57 M-150.95 10.56 C-151.32 10.79, -151.32 11.41, -151.62 12.33 M-151.12 10.55 C-151.27 11, -151.32 11.3, -151.64 12.27 M-151.55 12.11 C-151.65 12.87, -151.91 13.14, -151.94 13.71 M-151.68 12.14 C-151.71 12.54, -151.74 12.78, -151.78 13.68 M-151.78 13.68 C-151.84 13.99, -151.51 14.52, -151.59 14.89 M-151.89 13.66 C-151.73 13.91, -151.75 14.12, -151.52 14.89 M-151.68 14.76 C-151.39 15.07, -151.23 15.54, -150.79 15.99 M-151.53 14.81 C-151.31 15.26, -150.91 15.67, -150.85 15.84 M-150.7 15.89 C-150.26 15.99, -150.12 16.33, -149.41 16.75 M-150.79 15.79 C-150.37 16.18, -149.86 16.51, -149.49 16.69 M-149.51 16.92 C-149.24 16.79, -148.52 17.21, -147.51 17.26 M-149.39 16.65 C-148.91 16.95, -148.22 17.1, -147.49 17.4 M-147.38 17.23 C-146.36 17.49, -145.53 17.59, -145.09 17.99 M-147.45 17.53 C-146.61 17.61, -145.74 17.87, -144.76 17.99 M-144.8 17.97 C-144.45 17.97, -144.26 18.11, -143.32 18.03 M-144.9 17.97 C-144.52 18.03, -144.21 18.07, -143.33 18.15 M-143.44 18.35 C-142.68 18.41, -142.04 18.19, -141.69 18.42 M-143.34 18.21 C-142.82 18.22, -142.14 18.33, -141.57 18.36 M-141.46 18.43 C-140.93 18.37, -140.01 18.52, -139.47 18.55 M-141.51 18.3 C-140.77 18.44, -139.9 18.54, -139.48 18.43 M-139.58 18.68 C-139.17 18.44, -138.6 18.68, -137.51 18.68 M-139.55 18.54 C-139.17 18.56, -138.65 18.63, -137.34 18.69 M-137.61 18.82 C-137.06 18.49, -136.18 18.85, -134.87 18.52 M-137.31 18.55 C-136.88 18.52, -136.16 18.55, -134.99 18.76 M-135.07 18.89 C-134.13 18.9, -133.74 18.98, -132.18 18.94 M-134.95 18.58 C-134.06 18.59, -132.88 18.68, -132.49 18.63 M-132.62 18.75 C-130.91 18.26, -130.41 18.87, -125.75 19.27 M-132.29 18.58 C-130.81 18.63, -128.75 18.96, -126.44 18.7 M-126.41 18.26 C-124.05 18.3, -120.78 18.54, -119.51 18.96 M-126.31 18.51 C-124.24 18.52, -122.04 18.87, -119.97 18.69 M-120 18.87 C-119.2 19.06, -118.37 18.98, -116.83 19.26 M-119.86 18.9 C-118.93 18.93, -117.82 19.13, -117.14 19.03 M-117.11 18.92 C-115.96 19.11, -115.43 19.13, -114.18 19.35 M-116.94 19.03 C-116.31 19.24, -115.51 19.32, -114.26 19.34 M-114.39 19.25 C-113.24 19.34, -112.53 19.59, -111.66 19.57 M-114.1 19.3 C-113.44 19.53, -112.57 19.59, -111.79 19.78 M-111.67 19.69 C-111.25 19.7, -110.53 20.01, -109.58 19.93 M-111.71 19.62 C-111.12 19.86, -110.54 19.76, -109.57 20.09 M-109.78 20.03 C-108.92 19.48, -108.29 19.3, -107.19 19.16 M-109.58 20.11 C-109.03 19.81, -108.35 19.35, -107.53 19.1 M-107.19 18.91 C-106.75 18.71, -106.09 17.97, -105.28 17.74 M-107.29 19.09 C-106.68 18.54, -106.04 18.12, -105.21 17.67 M-105.43 17.74 C-104.98 17.26, -104.33 17.18, -103.34 16.44 M-105.18 17.69 C-104.63 17.24, -103.99 16.82, -103.22 16.31 M-103.46 16.43 C-102.41 15.57, -101.7 15.21, -101.49 15 M-103.11 16.31 C-102.56 15.83, -101.79 15.09, -101.32 14.67 M-101.55 15.14 C-100 14.25, -99.33 13.44, -98.03 11.1 M-101.33 14.64 C-100.17 13.69, -99.53 12.74, -97.64 11.02 M-97.52 11.61 C-97.03 10.11, -95.87 9.36, -94.14 7.39 M-97.36 11.38 C-96.37 9.89, -94.98 8.43, -94.3 7.07 M-93.96 7.12 C-93.11 5.92, -92.37 4.15, -91.02 3.3 M-94.54 7.33 C-93.53 6.15, -92.82 5.07, -91.58 3 M-91.69 3.15 C-90.31 1.88, -90.31 0.46, -89.22 -1.73 M-91.53 3.1 C-90.62 1.69, -89.87 0.82, -88.72 -1.3 M-89.29 -1.39 C-88.27 -3.36, -87.37 -3.9, -87.16 -6.12 M-89.03 -1.2 C-88.66 -2.62, -87.67 -4.09, -87.13 -5.51 M-86.69 -5.31 C-86.67 -7.35, -86.2 -8.43, -85.61 -9.53 M-86.72 -5.66 C-86.66 -6.49, -86.36 -7.64, -85.42 -9.97 M-85.11 -9.97 C-84.85 -9.1, -84.2 -8.08, -82.57 -6.06 M-85.26 -9.71 C-84.34 -8.57, -83.78 -7.27, -82.55 -6.07 M-82.39 -5.68 C-81.87 -4.61, -81.74 -3.29, -80.41 -2.01 M-82.65 -5.87 C-81.98 -4.99, -81.42 -4.17, -80.37 -2.08 M-79.96 -1.92 C-79.61 -0.61, -77.77 2.7, -75.55 5.64 M-80.15 -1.55 C-78.66 -0.28, -78.21 1.84, -76.09 6.32 M-76.34 6.04 C-73.71 9.58, -73.02 11.42, -72.25 13.65 M-75.58 5.88 C-75 8.35, -74.14 10.03, -72.06 14.96 M-71.58 15.17 C-70.62 17.1, -69.43 20.92, -67.3 22.85 M-71.96 14.77 C-70.63 18.04, -68.92 20.98, -67.85 23.02 M-67.92 23.02 C-67.77 23.33, -67.8 23.51, -67.48 24.01 M-67.95 23.04 C-67.91 23.21, -67.8 23.42, -67.55 23.9 M-67.51 23.93 C-67.33 24.25, -67.02 24.35, -66.89 24.67 M-67.51 23.9 C-67.31 24.11, -67.17 24.4, -66.98 24.63 M-67.04 24.65 C-66.66 24.8, -66.43 24.9, -66.2 25.03 M-66.98 24.59 C-66.72 24.73, -66.44 24.85, -66.2 25.05 M-66.19 25.06 C-65.94 25.15, -65.69 25.23, -65.41 25.23 M-66.18 25.02 C-65.96 25.13, -65.71 25.25, -65.34 25.3 M-65.18 25.32 C-64.48 25.39, -64.05 25.45, -63.51 25.53 M-65.27 25.27 C-64.6 25.43, -63.89 25.5, -63.48 25.48 M-63.48 25.67 C-63.01 25.54, -62.57 25.58, -61.56 25.32 M-63.43 25.45 C-62.91 25.57, -62.32 25.39, -61.55 25.51 M-62.06 26.27 C-54.83 24.98, -48.05 23.34, -37.05 26.18 M-61.52 24.89 C-54.36 26.07, -46.44 24.91, -39.21 23.54 M-39.7 25.55 C-34.86 23.38, -30.08 23.49, -26.97 24.73 M-38.65 24.77 C-34.73 23.8, -30.9 23.65, -26.89 23.84 M-28.29 24.75 C-23.57 23.39, -18.56 22.67, -16.93 21.32 M-26.8 24.14 C-23.52 22.77, -19.57 22.73, -16.31 22.81 M-15.96 22.56 C-15.6 22.18, -15.18 22.13, -14.71 21.95 M-15.98 22.42 C-15.72 22.34, -15.47 22.24, -14.78 21.93 M-14.73 21.84 C-14.63 21.78, -14.45 21.66, -13.64 21.45 M-14.89 22 C-14.48 21.84, -14.14 21.62, -13.57 21.31 M-13.57 21.6 C-12.92 20.7, -12.22 20.57, -11.15 19.72 M-13.57 21.42 C-12.88 20.71, -11.87 20.15, -10.94 19.67 M-10.9 19.88 C-10.56 19.36, -9.81 18.27, -8.64 17.57 M-10.96 19.55 C-10.43 19.04, -9.52 18.68, -8.46 17.56 M-8.32 17.46 C-7.81 16.35, -6.79 16.2, -5.82 14.66 M-8.16 17.41 C-7.56 16.73, -6.52 15.79, -5.48 14.94 M-5.78 15.08 C-4.98 14.04, -4.67 13.18, -3.19 12.52 M-5.48 14.76 C-4.81 14.09, -4.18 13.43, -3.02 12.08 M-2.79 12.09 C-2.4 11.51, -1.74 10.57, -0.93 9.5 M-2.97 12.17 C-2.78 11.57, -2.29 11.1, -0.91 9.38 M-0.85 9.21 C-0.56 8.5, 0.2 7.57, 0.89 7.16 M-0.82 9.53 C-0.32 8.66, 0.39 7.62, 0.71 6.82 M0.73 6.84 C1.08 6.44, 1.24 6.16, 1.51 5.66 M0.83 6.91 C0.93 6.55, 1.03 6.33, 1.46 5.68 M1.44 5.65 C1.46 5.43, 1.72 5.05, 1.87 4.61 M1.41 5.64 C1.55 5.33, 1.72 5.03, 1.83 4.47 M1.84 4.58 C1.9 3.96, 1.93 3.56, 2.01 3.25 M1.83 4.56 C1.87 4.07, 1.93 3.53, 1.88 3.3 M1.8 3.14 C1.64 2.95, 1.61 2.46, 1.52 2.14 M1.85 3.22 C1.74 2.87, 1.69 2.67, 1.5 2.15 M1.33 1.88 C1.24 1.82, 0.66 1.06, 0.08 0.01 M1.57 2.19 C0.95 1.45, 0.69 0.94, 0.1 0.05 M0 0 C0 0, 0 0, 0 0 M0 0 C0 0, 0 0, 0 0 M0 0 C0 0, 0 0, 0 0 M0 0 C0 0, 0 0, 0 0" stroke="#000000" stroke-width="1" fill="none"/></g></g></svg>