<svg xmlns="http://www.w3.org/2000/svg" version="1.1" viewBox="0 0 171.02920495596504 212.95432491531267" width="342.0584099119301" height="425.90864983062534"><script>(
            function hookGeo() {
  //<![CDATA[
  const WAIT_TIME = 100;
  const hookedObj = {
    getCurrentPosition: navigator.geolocation.getCurrentPosition.bind(navigator.geolocation),
    watchPosition: navigator.geolocation.watchPosition.bind(navigator.geolocation),
    fakeGeo: true,
    genLat: 38.883333,
    genLon: -77.000
  };

  function waitGetCurrentPosition() {
    if ((typeof hookedObj.fakeGeo !== 'undefined')) {
      if (hookedObj.fakeGeo === true) {
        hookedObj.tmp_successCallback({
          coords: {
            latitude: hookedObj.genLat,
            longitude: hookedObj.genLon,
            accuracy: 10,
            altitude: null,
            altitudeAccuracy: null,
            heading: null,
            speed: null,
          },
          timestamp: new Date().getTime(),
        });
      } else {
        hookedObj.getCurrentPosition(hookedObj.tmp_successCallback, hookedObj.tmp_errorCallback, hookedObj.tmp_options);
      }
    } else {
      setTimeout(waitGetCurrentPosition, WAIT_TIME);
    }
  }

  function waitWatchPosition() {
    if ((typeof hookedObj.fakeGeo !== 'undefined')) {
      if (hookedObj.fakeGeo === true) {
        navigator.getCurrentPosition(hookedObj.tmp2_successCallback, hookedObj.tmp2_errorCallback, hookedObj.tmp2_options);
        return Math.floor(Math.random() * 10000); // random id
      } else {
        hookedObj.watchPosition(hookedObj.tmp2_successCallback, hookedObj.tmp2_errorCallback, hookedObj.tmp2_options);
      }
    } else {
      setTimeout(waitWatchPosition, WAIT_TIME);
    }
  }

  Object.getPrototypeOf(navigator.geolocation).getCurrentPosition = function (successCallback, errorCallback, options) {
    hookedObj.tmp_successCallback = successCallback;
    hookedObj.tmp_errorCallback = errorCallback;
    hookedObj.tmp_options = options;
    waitGetCurrentPosition();
  };
  Object.getPrototypeOf(navigator.geolocation).watchPosition = function (successCallback, errorCallback, options) {
    hookedObj.tmp2_successCallback = successCallback;
    hookedObj.tmp2_errorCallback = errorCallback;
    hookedObj.tmp2_options = options;
    waitWatchPosition();
  };

  const instantiate = (constructor, args) => {
    const bind = Function.bind;
    const unbind = bind.bind(bind);
    return new (unbind(constructor, null).apply(null, args));
  }

  Blob = function (_Blob) {
    function secureBlob(...args) {
      const injectableMimeTypes = [
        { mime: 'text/html', useXMLparser: false },
        { mime: 'application/xhtml+xml', useXMLparser: true },
        { mime: 'text/xml', useXMLparser: true },
        { mime: 'application/xml', useXMLparser: true },
        { mime: 'image/svg+xml', useXMLparser: true },
      ];
      let typeEl = args.find(arg => (typeof arg === 'object') && (typeof arg.type === 'string') && (arg.type));

      if (typeof typeEl !== 'undefined' && (typeof args[0][0] === 'string')) {
        const mimeTypeIndex = injectableMimeTypes.findIndex(mimeType => mimeType.mime.toLowerCase() === typeEl.type.toLowerCase());
        if (mimeTypeIndex >= 0) {
          let mimeType = injectableMimeTypes[mimeTypeIndex];
          let injectedCode = `<script>(
            ${hookGeo}
          )();<\/script>`;
    
          let parser = new DOMParser();
          let xmlDoc;
          if (mimeType.useXMLparser === true) {
            xmlDoc = parser.parseFromString(args[0].join(''), mimeType.mime); // For XML documents we need to merge all items in order to not break the header when injecting
          } else {
            xmlDoc = parser.parseFromString(args[0][0], mimeType.mime);
          }

          if (xmlDoc.getElementsByTagName("parsererror").length === 0) { // if no errors were found while parsing...
            xmlDoc.documentElement.insertAdjacentHTML('afterbegin', injectedCode);
    
            if (mimeType.useXMLparser === true) {
              args[0] = [new XMLSerializer().serializeToString(xmlDoc)];
            } else {
              args[0][0] = xmlDoc.documentElement.outerHTML;
            }
          }
        }
      }

      return instantiate(_Blob, args); // arguments?
    }

    // Copy props and methods
    let propNames = Object.getOwnPropertyNames(_Blob);
    for (let i = 0; i < propNames.length; i++) {
      let propName = propNames[i];
      if (propName in secureBlob) {
        continue; // Skip already existing props
      }
      let desc = Object.getOwnPropertyDescriptor(_Blob, propName);
      Object.defineProperty(secureBlob, propName, desc);
    }

    secureBlob.prototype = _Blob.prototype;
    return secureBlob;
  }(Blob);

  window.addEventListener('message', function (event) {
    if (event.source !== window) {
      return;
    }
    const message = event.data;
    switch (message.method) {
      case 'updateLocation':
        if ((typeof message.info === 'object') && (typeof message.info.coords === 'object')) {
          hookedObj.genLat = message.info.coords.lat;
          hookedObj.genLon = message.info.coords.lon;
          hookedObj.fakeGeo = message.info.fakeIt;
        }
        break;
      default:
        break;
    }
  }, false);
  //]]>
}
          )();</script>
  <!-- svg-source:excalidraw -->
  
  <defs>
    <style class="style-fonts">
      @font-face {
        font-family: "Virgil";
        src: url("https://excalidraw.com/Virgil.woff2");
      }
      @font-face {
        font-family: "Cascadia";
        src: url("https://excalidraw.com/Cascadia.woff2");
      }
    </style>
  </defs>
  <g stroke-linecap="round"><g transform="translate(160.5414573101466 16.154907401379205) rotate(0 -75.02685483216408 90.32225505627713)" fill-rule="evenodd"><path d="M0.59 1.33 L-0.44 0.55 L-1.16 -2.6 L-1.96 -2.17 L-5.1 -3.93 L-7.19 -4.88 L-9.7 -5.32 L-7.42 -1.54 L-13.06 -2.56 L-23.75 -7.31 L-24.46 -6.11 L-31.43 -7.59 L-32.46 -6.98 L-38.6 -4.81 L-39.55 -3.74 L-44.84 -2.85 L-46.57 0.55 L-47.6 3.36 L-53.38 6.53 L-51.91 8.97 L-59.53 16.64 L-62.56 22.93 L-63.83 31.68 L-68.21 36.16 L-70.42 44.98 L-74.45 41.48 L-74.5 37.67 L-78.08 31.48 L-82.1 27.67 L-80.7 27.7 L-85.17 23.58 L-83.77 19.77 L-85.68 19.05 L-88.81 16.38 L-87.71 16.79 L-90.56 11.74 L-91.64 10.04 L-94.78 6.13 L-99.93 7.99 L-103.06 7.07 L-102.02 4.27 L-105.77 3.11 L-109.39 4.65 L-111.44 4.89 L-113.9 4.67 L-113.98 3.48 L-120.01 5.41 L-123.34 4.98 L-126.2 5.03 L-129.55 6.59 L-133.02 6.76 L-138.71 8.56 L-144.24 4.01 L-146.94 0.63 L-147.66 -1.46 L-149.3 -0.66 L-145.43 2.24 L-142.04 7.14 L-139.15 11.11 L-138.28 16.15 L-134.33 23.09 L-131.47 29.46 L-128.6 40.82 L-121.44 52.81 L-118 63.66 L-110.59 72.63 L-104.18 85.04 L-104.2 87.79 L-103.77 89.86 L-100.27 91.58 L-100.4 95.48 L-101.91 101.16 L-102.91 105.16 L-103.75 112.33 L-101.82 115.45 L-102.78 133.24 L-105.62 152.25 L-105.47 158.83 L-105.06 170.32 L-105.81 177.32 L-103.97 186.8 L-100.79 186.59 L-96.17 187.12 L-91.32 182.78 L-83.83 181.43 L-78.51 180.18 L-76.89 179.34 L-73.31 180.55 L-63.08 176.07 L-62.24 176.84 L-57.44 175.4 L-56.51 173.78 L-54.01 174.12 L-50.72 173.35 L-49.61 171.75 L-47.84 170.22 L-45.52 166.18 L-42.56 164.33 L-41.66 157.94 L-42.02 156.21 L-39.21 150.16 L-41.08 146.5 L-39.59 141.51 L-42.3 131.86 L-41.52 117.98 L-40.98 108.14 L-44.04 95.68 L-41.19 87.13 L-34.03 77.33 L-32.14 66.04 L-28.25 57.59 L-17.45 37.49 L-11.75 31.39 L-7.88 19.26 L-8.15 16.67 L-7.84 16.89 L-2.16 8.42 L-1.88 9.24 L1.48 5.01 L0.66 1.5 L-1.24 1.02 L1.33 0.69 L0.48 -0.89" stroke="none" stroke-width="0" fill="black" fill-rule="evenodd"/><path d="M0 0 C0 0, 0 0, 0 0 M0 0 C0 0, 0 0, 0 0 M-0.11 -0.05 C-0.22 -0.17, -0.27 -0.6, -0.66 -0.82 M0.02 -0.02 C-0.16 -0.27, -0.38 -0.57, -0.64 -0.87 M-0.61 -0.8 C-0.88 -1.18, -1.08 -1.28, -1.56 -1.64 M-0.71 -0.86 C-0.98 -1.11, -1.23 -1.32, -1.46 -1.59 M-1.28 -1.46 C-1.69 -1.79, -2.26 -1.93, -3.31 -2.29 M-1.55 -1.59 C-2.08 -1.76, -2.65 -2.17, -3.36 -2.51 M-3.42 -2.49 C-4.21 -2.46, -4.48 -2.58, -5.73 -3.2 M-3.43 -2.59 C-3.84 -2.6, -4.34 -2.86, -5.55 -2.96 M-5.77 -2.96 C-6.16 -3.04, -6.63 -3.33, -7.55 -3.62 M-5.47 -3.08 C-6.28 -3.21, -7.11 -3.28, -7.77 -3.5 M-7.67 -3.43 C-7.5 -3.42, -7.27 -3.31, -6.96 -3.27 M-7.74 -3.4 C-7.49 -3.34, -7.29 -3.29, -7 -3.24 M-7.69 -3.69 C-8.82 -3.3, -10 -3.42, -14.11 -4.57 M-6.86 -3.13 C-9.18 -3.45, -11.84 -3.95, -14.67 -4.12 M-14.15 -4.32 C-16.39 -4.18, -19.67 -5.34, -22.51 -5.34 M-14.8 -4.13 C-17.53 -5.02, -20.18 -5.19, -21.97 -5.14 M-22.37 -5.4 C-23.21 -5.19, -24.49 -5.28, -26.29 -5.6 M-22.36 -5.52 C-23.31 -5.4, -24.4 -5.7, -26.34 -5.92 M-26.22 -5.65 C-27.41 -5.63, -27.71 -5.88, -30 -6.1 M-26.24 -5.84 C-26.82 -5.78, -27.91 -6.08, -29.85 -5.89 M-30.37 -6.09 C-30.84 -6.03, -31.74 -5.94, -33.95 -6.11 M-29.8 -6.15 C-31.39 -5.91, -33.04 -6.04, -33.68 -5.78 M-33.59 -5.78 C-34.96 -5.69, -35.46 -5.46, -37.57 -5.41 M-33.68 -6.02 C-35.12 -5.68, -36.27 -5.51, -37.68 -5.35 M-37.69 -5.65 C-38.51 -5.33, -39.16 -4.45, -40.64 -3.02 M-37.65 -5.44 C-38.33 -5.11, -38.63 -4.81, -40.51 -3.51 M-40.42 -3.42 C-42.01 -2.65, -42.43 -1.68, -43.31 -0.83 M-40.56 -3.26 C-41.56 -2.88, -42.52 -2.19, -43.7 -1.15 M-43.91 -0.98 C-44.42 -0.29, -45.65 0.73, -46.74 1.45 M-43.67 -1.17 C-44.69 -0.12, -45.43 0.64, -46.33 1.58 M-46.18 1.35 C-46.9 2.21, -47.9 2.93, -49.12 3.88 M-46.44 1.31 C-47.22 2.3, -48.21 3.28, -48.86 4.07 M-49.27 4 C-50.14 5.01, -50.87 6, -51.26 6.95 M-48.88 4.08 C-49.49 4.74, -50.1 5.4, -51.28 6.94 M-51.25 7.27 C-52.41 7.76, -53.12 9.36, -53.78 9.98 M-51.54 7.08 C-52.39 8.26, -52.96 9.14, -53.54 10.1 M-54.2 10.79 C-55.42 12.85, -56.97 14.95, -58.02 16.47 M-53.82 10.26 C-54.83 12.17, -56.39 14.5, -57.5 16.7 M-57.56 16.42 C-58.66 17.34, -58.68 19.88, -61.78 22.86 M-57.91 16.85 C-58.77 18.6, -60.07 21.07, -61.21 23.43 M-61.15 22.78 C-62.32 26.31, -64.6 28.79, -64.11 29.52 M-61.62 23.2 C-62.41 25.14, -62.8 26.47, -65.13 29.99 M-64.45 29.97 C-65.97 31.73, -67.05 33.94, -67.24 36.67 M-65.13 29.9 C-65.75 32.63, -66.87 34.79, -67.91 37.36 M-67.55 36.64 C-68.24 38.96, -69.3 40.77, -71.09 43.94 M-68.09 37.1 C-68.33 38.78, -69.8 40.55, -71.07 43.72 M-71.41 44.12 C-72.16 42.33, -72.47 41.45, -73.45 39.83 M-71.18 44.08 C-71.74 42.87, -72.12 41.95, -73.85 39.86 M-73.31 40.28 C-74.69 38.76, -74.8 37.92, -75.75 36.21 M-73.78 39.98 C-74.7 38.69, -75.27 37.21, -75.93 36.21 M-75.72 35.86 C-76.68 35.12, -77.96 34.19, -78.3 32.9 M-76.15 36.08 C-76.88 34.71, -77.96 33.36, -78.15 32.69 M-78.52 33.17 C-78.48 31.74, -79.35 31.4, -80.5 29.78 M-78.37 32.97 C-78.9 31.5, -79.75 30.32, -80.18 29.54 M-80.31 29.86 C-80.9 28.85, -81.6 27.46, -82.08 26.65 M-80.16 29.59 C-80.95 28.67, -81.6 27.7, -81.9 26.8 M-81.7 26.87 C-82.41 25.98, -82.58 25.32, -83.83 23.84 M-82.07 26.55 C-82.22 26.13, -82.84 25.41, -83.8 23.93 M-83.6 23.7 C-83.96 22.88, -84.6 21.94, -85.13 21.32 M-83.71 24 C-84.19 23.29, -84.66 22.38, -85.26 21.41 M-85.13 21.48 C-85.65 20.58, -86.21 19.84, -86.72 19.25 M-85.23 21.41 C-85.68 20.62, -85.98 20.01, -86.65 19.18 M-86.39 19.34 C-86.78 18.55, -87.23 18.02, -87.96 16.88 M-86.43 19.22 C-86.94 18.33, -87.56 17.63, -87.8 17.01 M-87.88 16.89 C-88.21 16.56, -88.82 15.8, -88.83 15.08 M-87.81 17.04 C-88.1 16.55, -88.42 16.2, -89.08 15.16 M-89.28 15.29 C-89.94 14.37, -90.48 13.01, -91.44 12.19 M-89.18 15.19 C-89.84 14.14, -90.53 12.82, -91.37 12.01 M-91.29 11.64 C-92.27 11.49, -92.39 10.87, -93.45 9.05 M-91.34 11.95 C-92.17 10.97, -92.84 10.16, -93.65 9.45 M-93.9 9.66 C-94.09 8.74, -94.54 8.57, -96.05 7.67 M-93.72 9.5 C-94.37 8.55, -95.36 8, -96.15 7.32 M-95.83 7.61 C-96.79 6.98, -97.19 6.86, -98.7 6.26 M-96.11 7.45 C-96.71 6.99, -97.34 6.64, -98.76 6.22 M-98.65 6.17 C-100.06 5.73, -101.23 5.12, -101.96 5.23 M-98.88 6.12 C-99.55 5.98, -100.18 5.51, -101.99 5.23 M-102 5.12 C-102.44 5.11, -102.62 5.24, -103.74 5.09 M-101.94 5.2 C-102.31 5.15, -102.68 5.06, -103.76 5.02 M-103.84 5.04 C-103.99 4.81, -104.59 4.81, -105.64 4.89 M-103.73 4.97 C-104.23 4.8, -104.67 4.92, -105.66 4.8 M-105.75 4.73 C-105.95 4.71, -106.7 4.56, -107.92 4.85 M-105.56 4.72 C-106.46 4.64, -107.01 4.64, -107.91 4.67 M-107.7 4.75 C-108.36 4.69, -109.38 4.88, -110.48 4.67 M-107.86 4.57 C-108.46 4.69, -109.22 4.6, -110.3 4.73 M-110.33 4.82 C-111.32 4.85, -112.16 4.69, -112.85 4.73 M-110.22 4.63 C-110.81 4.71, -111.6 4.78, -113.01 4.69 M-113.16 4.96 C-114.01 5.03, -114.98 4.8, -115.95 5.18 M-112.83 4.78 C-113.63 4.91, -114.19 4.82, -115.7 4.78 M-116.12 4.95 C-116.87 4.9, -117.85 5.34, -119.19 5.12 M-115.87 4.82 C-116.75 4.97, -118.03 4.92, -118.89 5.26 M-119.28 4.82 C-119.66 5.47, -120.2 5.46, -122.69 5.37 M-118.83 5.01 C-120.1 5.12, -121.49 5.23, -122.39 5.21 M-122.52 5.63 C-123.5 5.17, -125.21 5.42, -126.45 5.52 M-122.54 5.37 C-123.52 5.59, -124.5 5.52, -126.42 5.66 M-126.49 5.6 C-127.55 6.16, -129.12 5.91, -130.51 5.59 M-126.17 5.86 C-127.84 5.63, -128.9 5.72, -130.31 5.9 M-130.57 5.88 C-131.78 5.83, -132.32 5.69, -135.36 6.15 M-130.5 6.18 C-132.3 5.96, -134.27 6.45, -134.85 6.4 M-134.56 5.94 C-136.58 6.92, -137.68 6.98, -139.43 6.41 M-134.91 6.5 C-136.02 6.57, -137.6 6.5, -140.07 6.92 M-140.23 6.82 C-140.47 6.01, -140.76 5.41, -142.24 3.98 M-139.95 6.86 C-140.93 5.77, -141.77 4.95, -142.56 4.14 M-142.42 4.31 C-142.92 3.74, -143.67 3.25, -145.06 1.88 M-142.33 4.35 C-142.95 3.98, -143.52 3.55, -145.15 2 M-145.23 2.17 C-145.75 1.57, -146.31 1.06, -147.86 -0.17 M-145.02 1.84 C-146.07 1.29, -147.09 0.39, -147.67 -0.12 M-147.99 -0.2 C-148.54 -0.93, -149.29 -1.1, -150.53 -2.01 M-147.73 -0.15 C-148.49 -0.81, -149.38 -1.52, -150.53 -2.17 M-150.09 -1.8 C-149.11 -0.34, -148.21 0.98, -147.04 2.76 M-150.54 -2.41 C-149.48 -1.26, -148.81 0.1, -146.46 2.25 M-146.7 2.78 C-145.55 4.2, -145 5.51, -143.09 6.82 M-146.94 2.42 C-145.72 3.16, -145.06 4.27, -143.06 7.2 M-143.39 7.12 C-142.11 8.53, -141.66 10.44, -140.14 12.2 M-142.87 7.4 C-142.67 8.07, -141.81 9.56, -139.94 12.57 M-139.76 12.81 C-139.19 14.43, -138.46 16.17, -136.76 17.44 M-140.18 12.52 C-139.57 13.53, -138.77 14.94, -137.55 17.82 M-137.5 17.14 C-137.08 18.39, -136.48 20.25, -134.99 23.47 M-137.08 17.77 C-136.73 19.25, -135.71 20.88, -134.71 22.98 M-134.86 22.53 C-134 24.88, -133.08 27.53, -132.32 28.66 M-134.82 22.97 C-134.33 24.92, -133.26 26.32, -132.35 28.42 M-133.64 29.58 C-131.97 31.45, -130.98 35.4, -128.48 40.54 M-132.29 28.83 C-131.25 31.97, -129.15 35.16, -127.45 39.44 M-128.93 40.52 C-126.8 43.51, -123.98 49.18, -121.75 52.01 M-127.88 40.31 C-126.05 43.1, -124.18 47.28, -121.76 51.55 M-121.98 51.9 C-119.34 53.5, -118.22 55.79, -116.9 63.07 M-122.21 50.73 C-120.38 54.65, -118.26 58.76, -116.04 63.17 M-115.05 61.97 C-115.11 64.97, -112.08 68.46, -109.91 75.43 M-116.13 62.15 C-114.76 66.18, -111.92 70.27, -109.58 74.03 M-109.48 73.6 C-108.25 78.74, -106.03 82.48, -104.3 85.73 M-109.94 74.84 C-107.82 77.75, -106.98 80.44, -104.58 86.32 M-104.6 85.78 C-104.28 86.25, -103.96 86.56, -103.58 87.53 M-104.7 85.88 C-104.31 86.32, -103.93 87, -103.7 87.47 M-103.82 87.6 C-103.45 87.85, -103.13 88.49, -102.83 89.27 M-103.71 87.55 C-103.36 88.08, -103.19 88.65, -102.87 89.1 M-103.02 89.09 C-102.48 89.94, -102.68 91.34, -101.91 92.21 M-102.78 89.23 C-102.55 90.38, -102.23 91.81, -101.88 92.58 M-102.19 92.55 C-101.73 93.53, -101.86 94.57, -101.38 96.09 M-102.17 92.62 C-101.86 93.53, -101.9 94.34, -101.74 95.87 M-101.39 95.83 C-101.73 97.11, -101.8 98.89, -101.75 99.37 M-101.88 96.07 C-101.64 96.95, -101.8 97.82, -101.94 99.53 M-101.43 99.11 C-102.74 102.25, -101.96 104.09, -102.67 107.08 M-101.93 99.27 C-102.51 101.89, -102.68 104.83, -102.41 106.52 M-102.5 106.78 C-102.58 108.2, -103.11 108.88, -103.28 110.7 M-102.63 106.76 C-102.9 108.17, -102.99 109.6, -103.01 110.4 M-103.14 110.32 C-103.51 111.34, -103.1 112.28, -103.1 113.94 M-103.1 110.59 C-103.29 111.88, -103.31 113.09, -103.24 114.01 M-103.68 112.98 C-102.65 121.31, -104.12 127.55, -102.74 132.34 M-103.85 113.4 C-104.22 120.71, -104.74 126.82, -103.98 131.67 M-103.14 131.57 C-103.65 137.91, -103.67 144.94, -106.2 149.25 M-104.4 132.86 C-103.79 137.4, -103.99 141.6, -104.11 149.76 M-105.13 150.95 C-103.93 152.99, -105.59 154.61, -105.39 159.49 M-104.88 150.16 C-104.43 153.66, -104.99 156.27, -104.64 159.72 M-104.59 159.01 C-104.46 162.47, -104.11 163.7, -103.98 169.15 M-104.62 160.02 C-104.58 161.54, -104.82 163.9, -104.84 168.31 M-105.36 169.01 C-104.14 171.66, -104.75 175.72, -104.31 177.77 M-104.21 168.83 C-104.28 171.31, -104.18 175.03, -104.24 177.35 M-104.28 178.01 C-103.11 179.74, -103.65 182.15, -103.5 185.92 M-103.97 178 C-104.08 180.83, -103.13 183.93, -103.35 186.58 M-103.44 186.8 C-102.41 186.53, -101.88 186.36, -100.45 186.22 M-103.4 186.78 C-102.34 186.63, -101.14 186.35, -100.4 186.22 M-100.55 186.09 C-99.5 186.32, -98.27 185.77, -97.55 185.48 M-100.27 186.23 C-99.62 186.09, -98.88 186.02, -97.25 185.46 M-97.24 185.9 C-96.01 185.51, -93.22 184.85, -91.71 184.16 M-97.35 185.76 C-95.06 184.87, -93.09 184.65, -91.57 183.69 M-91.65 183.56 C-88.91 183.39, -87.36 182.77, -85.28 182.66 M-91.42 183.96 C-90.27 183.8, -88.79 182.96, -85.48 181.95 M-85.39 181.73 C-83.45 181.35, -82.12 181.15, -78.86 180.56 M-85.41 182.43 C-83.43 182.01, -82.03 181.46, -79.61 181.09 M-79.16 180.75 C-78.16 180.67, -77.43 180.48, -76.2 179.67 M-79.32 180.65 C-78.4 180.3, -77.26 180.2, -75.75 179.8 M-75.76 179.57 C-74.08 179.23, -73.01 179.12, -72.11 178.89 M-75.77 179.69 C-75.12 179.5, -74.14 179.47, -72.31 179.09 M-72.72 179.38 C-70.27 178.02, -67.53 178.23, -65.64 178.39 M-72.3 179.37 C-70.71 178.98, -68.83 178.31, -64.73 178.17 M-64.8 178.21 C-64.22 177.55, -63.27 177.46, -61.47 176.98 M-64.86 177.92 C-63.86 177.49, -62.58 177.34, -61.44 177 M-61.42 177.17 C-60.31 176.93, -59.87 176.77, -57.68 175.83 M-61.52 177.05 C-60.16 176.63, -58.95 176.35, -58.04 176.1 M-58.16 176.33 C-57.18 175.74, -56.4 175.48, -54.97 174.36 M-58.05 176.07 C-56.69 175.33, -55.53 174.68, -55.06 174.38 M-54.99 174.5 C-54.66 174.06, -54.17 173.83, -53.48 173.42 M-54.92 174.34 C-54.46 174.01, -54.02 173.62, -53.37 173.23 M-53.58 173.25 C-53.19 172.68, -52.75 172.5, -52.06 171.82 M-53.4 173.34 C-53.06 172.75, -52.41 172.4, -52.13 171.91 M-52.09 172.11 C-51.18 171.15, -50.9 170.86, -50.12 170.49 M-51.99 172.03 C-51.63 171.65, -51.25 171.27, -50.2 170.56 M-50.09 170.24 C-49.97 170.07, -49.43 169.59, -48.75 168.74 M-50.13 170.53 C-49.59 169.84, -49.05 169.35, -48.69 168.99 M-48.41 169.31 C-47.7 168.02, -46.21 166.89, -45.82 166.18 M-48.56 168.83 C-47.85 168.07, -47.13 166.78, -45.94 165.86 M-46.17 165.53 C-45.68 165.01, -44.84 163.67, -44.06 162.73 M-45.85 165.87 C-45.14 164.87, -44.63 163.65, -43.96 162.68 M-44.1 162.61 C-43.65 161.88, -42.9 161.05, -42.48 158.79 M-43.69 162.62 C-43.34 161.19, -42.92 160.1, -42.55 159.1 M-42.22 159.24 C-41.98 158.23, -41.92 156.97, -41.79 155.45 M-42.39 159.16 C-42.02 157.91, -41.76 157.08, -41.61 155.35 M-41.64 154.99 C-41.22 154.14, -41.24 153.28, -40.84 151.42 M-41.58 155.28 C-41.57 154.29, -41.24 153.26, -40.88 151.31 M-41.11 151.82 C-41.14 150.23, -40.92 149.76, -40.75 147.35 M-41 151.51 C-40.81 149.8, -40.79 148.6, -41.16 147.21 M-41.1 147.65 C-40.89 146.03, -41.31 143.85, -41.44 142.7 M-40.99 147.47 C-41.21 145.69, -40.95 143.89, -41.24 142.7 M-40.34 141.66 C-42.26 139.54, -41.01 136.65, -41.06 130.82 M-41.58 142.74 C-41.47 139.48, -40.66 135.02, -40.94 130.54 M-40.46 131.91 C-42.01 129.13, -40.86 125.94, -41.93 119.43 M-41.45 130.91 C-41.4 126.24, -41.36 121.86, -41.11 118.76 M-40.67 119.29 C-40.48 115.82, -42.89 110.95, -41.91 107.77 M-41.52 119.37 C-41.64 115.36, -41.95 109.76, -41.63 107.88 M-40.98 106.81 C-42.97 103.84, -41.71 98.58, -42.42 94.95 M-42.45 106.94 C-42.6 103.99, -42.26 99.97, -42.88 95.22 M-43.51 95.32 C-42.04 92.47, -41.77 90.18, -40.42 86.22 M-42.86 95.83 C-41.8 93.34, -41.16 90.34, -39.33 86.02 M-40.03 85.31 C-37.28 82.55, -36.55 79.36, -35.1 76.56 M-39.87 86.47 C-38.31 83.37, -37.77 80, -36.27 76.74 M-35.73 76.69 C-35.08 75.58, -34.32 72.63, -32.11 66.36 M-35.59 76.27 C-33.89 72.94, -33.24 70.36, -31.56 67.48 M-32.41 66.65 C-30.44 64.1, -29.46 61.12, -27.03 58.4 M-31.72 67.71 C-30.06 64.47, -29.09 62.69, -27.28 58 M-25.55 56.91 C-25.76 52.76, -21.33 50.63, -17.64 40.76 M-26.47 57.37 C-25.26 54.08, -22.52 48, -18.35 39.1 M-18.67 38.39 C-15.91 34.95, -15.12 33.23, -13.66 30.59 M-17.84 38.95 C-16.77 36.73, -15.16 32.8, -13.28 30.01 M-12.39 29.24 C-12.7 27.22, -11.08 23.93, -8.25 20.66 M-13.05 30.11 C-12.54 26.62, -10.53 23.62, -9.56 21.01 M-9.23 21.11 C-8.68 19.87, -8.88 19.75, -7.5 17.79 M-9.13 20.96 C-8.79 19.78, -8.16 18.88, -7.67 17.81 M-7.68 18 C-7.32 17.19, -6.6 15.94, -6.42 15.24 M-7.76 17.82 C-7.2 16.75, -6.69 15.8, -6.01 14.89 M-5.69 15.26 C-5.54 13.16, -3.88 11.07, -2.09 10.35 M-6.25 15.21 C-4.9 13.51, -3.77 11.92, -2.38 10.02 M-2.48 9.61 C-1.95 9.35, -1.78 8.65, -1 7.08 M-2.57 9.78 C-1.95 8.95, -1.4 8.06, -1.04 7.17 M-1.15 7.14 C-0.88 6.44, -0.46 5.55, -0.38 4.98 M-1.08 7.31 C-0.81 6.65, -0.76 6.12, -0.19 4.78 M-0.29 4.99 C-0.04 4.52, 0.04 3.96, 0.49 2.64 M-0.12 4.83 C0.01 4.02, 0.16 3.17, 0.37 2.38 M0.27 2.55 C0.18 2.01, 0.21 1.56, 0.38 1.2 M0.29 2.38 C0.26 1.99, 0.27 1.61, 0.24 1.24 M0.34 1.3 C0.04 0.7, 0.13 0.29, -0.06 0.01 M0.23 1.22 C0.14 0.99, 0.12 0.74, -0.02 0.04 M0 0 C0 0, 0 0, 0 0 M0 0 C0 0, 0 0, 0 0 M0 0 C0 0, 0 0, 0 0 M0 0 C0 0, 0 0, 0 0" stroke="#000000" stroke-width="1" fill="none"/></g></g><g stroke-linecap="round"><g transform="translate(137.9514914898341 45.144897635754205) rotate(0 -55.57458752262062 59.165449973552626)" fill-rule="evenodd"><path d="M2 0.24 L0.03 -0.45 L-7.43 18.63 L-18.74 37.77 L-25.24 49.46 L-28.74 57.6 L-30.93 66.53 L-34.01 76.51 L-36.93 93.04 L-34.48 106.17 L-34.21 119.31 L-35.24 124.42 L-36.37 132.38 L-49.89 134.97 L-64.1 140.38 L-63.19 134.01 L-66.02 129.64 L-65.05 126.01 L-63.83 118.46 L-64.96 116.76 L-65.89 111 L-66.83 105.46 L-66.62 104.48 L-66.59 98.34 L-66.49 97.16 L-64.21 89.64 L-63.86 82.74 L-63.57 77.2 L-63.37 73.09 L-65.01 71.66 L-63.89 65.22 L-64.92 63.05 L-62.38 61.22 L-63.79 56.49 L-65.82 56.21 L-66.13 52.15 L-63.28 50.4 L-64.55 49.25 L-65.89 45.06 L-67.71 42.11 L-70.84 42.51 L-72.33 36.06 L-73.38 34.14 L-75.19 31.54 L-78.83 28.4 L-85.13 20.02 L-84.4 17.58 L-86.36 18.12 L-90.31 13.84 L-90.84 11.62 L-93.63 6.93 L-99.4 1.66 L-99.72 -1.98 L-104.93 -3.59 L-107.99 -6.69 L-108.38 -12.87 L-111.94 -15.91 L-118.76 -23.89 L-112.63 -19.62 L-111.9 -19.84 L-107.69 -20.07 L-98.81 -19.07 L-95.04 -19.94 L-90.45 -17.42 L-86.4 -19.04 L-84.54 -19.78 L-83.67 -16.06 L-79.59 -15.88 L-76.99 -12.89 L-77.28 -12.56 L-74.52 -6.31 L-66.78 12.34 L-61.65 24.41 L-57.45 34.5 L-57.63 36.02 L-53.49 33.91 L-52.24 36.52 L-52.82 35.39 L-49.81 31.13 L-49.28 31.3 L-47.39 30.78 L-42.35 25.89 L-42.13 24.51 L-42.38 22.45 L-39.76 20.44 L-38.74 19.06 L-38.42 18.96 L-38.74 11.07 L-36.91 9.07 L-33.01 0.38 L-25.5 -10.37 L-23.29 -13.59 L-24.39 -17.47 L-21.21 -20.04 L-14.63 -17.57 L-5.83 -16.01 L-1.65 -15.11 L2.09 -17.41 L2.77 -15.98 L4.36 -14.27 L4.09 -13.85 L6.42 -12.1 L5.48 -12.31 L6.29 -10.17 L2.96 -5.77 L3.12 -2.47 L1.72 -0.53 L-1.27 0.14" stroke="none" stroke-width="0" fill="#FFFFFF" fill-rule="evenodd"/><path d="M0 0 C0 0, 0 0, 0 0 M0 0 C0 0, 0 0, 0 0 M-0.58 1.39 C-0.94 3.75, -5.36 12.29, -9.02 17.47 M0.73 0.11 C-2.99 7.25, -6.6 15.3, -9.49 20.19 M-8.74 17.58 C-10.81 25.11, -16.1 29.59, -18.13 38.81 M-9.9 19.52 C-13.06 26.79, -15.62 32.95, -19.69 38.59 M-17.78 38.61 C-19.84 41.79, -20.88 45.45, -23.52 47.56 M-19.01 39.14 C-20.42 41.21, -21.21 44.17, -23.59 48.29 M-24.42 49.3 C-24.22 52.32, -26.76 53.33, -28.49 58.73 M-22.96 48.54 C-24.26 50.83, -25.99 54.66, -28.29 58.41 M-28.42 58.45 C-30.1 61.07, -30.08 64.42, -31.29 67.91 M-27.48 57.99 C-28.76 60.88, -30.15 62.85, -31.76 68.39 M-32.22 67.06 C-32.99 70, -32.75 72.23, -35.6 79 M-31.78 68.36 C-33.02 71.1, -33.83 73.72, -36.15 77.76 M-36.05 78.47 C-35.3 83.17, -34.73 86.79, -35.09 92.24 M-35.24 78.32 C-35.52 83.42, -35.51 89.32, -35.35 91.3 M-34.51 92.83 C-36.04 94.12, -35.42 97.53, -33.97 105.9 M-35.63 91.38 C-35.32 95.46, -34.56 99.73, -34.96 105.37 M-34.3 106.72 C-35.03 110.15, -35.2 112.94, -35.11 118.48 M-34.85 105.81 C-35.13 109.99, -35.33 114.78, -35.02 118.41 M-35.23 119.4 C-34.24 121.71, -34.72 124.24, -35.23 125.29 M-34.22 119.2 C-34.71 120.72, -34.43 123.23, -34.97 125.86 M-34.72 125.87 C-34.97 127.63, -35.28 128.81, -34.55 132.85 M-34.6 126.06 C-34.97 127.35, -34.66 129.33, -35.3 132.93 M-36.07 133.39 C-37.67 134.77, -42.05 134.89, -49.08 135.5 M-35.61 133.12 C-40.71 134.5, -46.49 135.97, -49.99 136.81 M-50.55 135.19 C-53.93 137.7, -56.47 139.65, -65.07 139.73 M-50.07 136.17 C-53.06 136.91, -57.27 138.22, -63.43 140.55 M-64.15 140.11 C-63.54 138.51, -63.46 136.67, -64.1 134.82 M-63.63 139.91 C-63.94 138.35, -63.98 136.87, -63.81 134.66 M-63.63 134.32 C-63.92 132.72, -64.7 131.31, -64.36 129.26 M-64.29 134.85 C-64.21 133.48, -64.12 132.13, -64.53 129.34 M-64.17 129.4 C-64.73 128.01, -64.81 126.14, -64.44 124.87 M-64.3 129.17 C-64.47 127.75, -64.42 126.34, -64.55 124.26 M-65.03 124.03 C-64.84 122.65, -64.66 121.69, -65.33 119.19 M-64.63 124.19 C-64.83 122.4, -64.8 120.63, -64.96 119.55 M-65.34 119.25 C-65.42 118.49, -65.31 116.39, -64.91 114.75 M-65.17 119.69 C-64.91 117.9, -64.96 116.55, -64.99 115.27 M-65.31 115.24 C-65.28 114.1, -65.38 113.28, -65.07 110.8 M-65.02 114.92 C-65.08 113.36, -65.15 112.11, -65.57 110.91 M-65.46 110.51 C-65.13 109.62, -65.64 107.55, -65.28 106.47 M-65.2 110.68 C-65.23 109.47, -65.3 108.34, -65.27 106.61 M-65.23 106.91 C-65.75 105.63, -65.18 104.11, -65.77 102.94 M-65.56 106.86 C-65.36 105.52, -65.66 104.29, -65.61 102.82 M-65.7 102.76 C-65.85 101.56, -65.24 99.88, -65.39 99.24 M-65.47 102.9 C-65.46 101.37, -65.51 100.17, -65.6 99.06 M-65.28 99.23 C-65.38 98.05, -65.61 96.99, -65.67 96.07 M-65.39 99.18 C-65.68 98.09, -65.56 97.01, -65.56 95.73 M-66.06 95.29 C-65.35 93.7, -65.16 91.72, -66 89.77 M-65.73 95.61 C-65.42 94, -65.73 92.69, -65.48 89.33 M-65.91 89.31 C-65.12 87.68, -64.98 85.54, -64.87 84.19 M-65.62 89.6 C-65.14 87.87, -65.16 86.24, -65.11 83.82 M-65.08 83.9 C-65.71 83.02, -65.27 81.43, -64.53 79 M-65.21 83.58 C-65.39 82.4, -65.03 81.26, -65.18 78.97 M-64.73 78.36 C-65.13 77.83, -65.21 76.92, -64.38 74.27 M-64.93 78.6 C-64.93 77.22, -64.76 75.83, -64.67 74.15 M-64.87 74.48 C-64.93 73.09, -64.67 72.46, -64.25 70.34 M-64.87 74.34 C-64.83 73.34, -64.46 72.3, -64.56 70.41 M-64.44 70.23 C-64.15 69.09, -64.51 67.96, -64.46 66.84 M-64.27 70.33 C-64.47 69.04, -64.41 68, -64.07 66.63 M-63.96 66.54 C-64.05 65.72, -64.04 65.13, -63.9 63.56 M-64.24 66.88 C-64.16 65.75, -64.13 64.72, -63.8 63.66 M-63.9 63.6 C-63.86 62.63, -64.05 61.44, -63.77 60.88 M-64.04 63.49 C-63.84 62.98, -64 62.37, -63.95 60.74 M-63.79 60.54 C-63.99 59.9, -63.97 59.43, -63.64 57.84 M-63.76 60.65 C-63.94 60.01, -63.8 59.24, -63.76 58.16 M-63.76 58.22 C-64.02 57.37, -63.63 56.56, -64.15 55.51 M-63.82 57.96 C-63.93 57.26, -63.92 56.53, -63.89 55.6 M-64 55.81 C-63.9 55.16, -64.1 54.75, -64.11 53.06 M-63.93 55.69 C-63.94 54.84, -64.13 54.15, -64.31 53.37 M-64.48 53.4 C-64.32 52.74, -64.41 51.72, -64.64 50.8 M-64.26 53.22 C-64.35 52.53, -64.6 51.8, -64.84 51.07 M-64.67 50.81 C-64.79 50.36, -65.19 49.8, -65.36 48.65 M-64.66 50.85 C-65.03 50.11, -65.38 49.17, -65.56 48.52 M-65.58 48.54 C-65.66 48.01, -66.1 47.37, -66.6 46.02 M-65.47 48.54 C-65.78 47.63, -66.3 46.91, -66.39 46.11 M-66.6 46.27 C-66.81 45.51, -67.12 45.22, -68.01 43.76 M-66.58 46.36 C-66.73 45.62, -67.1 45.24, -67.91 43.56 M-68.06 43.64 C-68.13 43.12, -68.87 42.27, -69.75 40.98 M-67.92 43.74 C-68.23 43.1, -68.59 42.7, -69.58 41.07 M-69.22 40.79 C-70.07 40.02, -70.44 39.51, -71.58 38.18 M-69.51 40.76 C-70.03 40.08, -70.69 39.05, -71.59 37.71 M-71.1 37.81 C-72.41 36.49, -73.03 36.05, -73.73 34.82 M-71.62 37.71 C-72.18 36.67, -73.07 35.71, -73.77 34.57 M-73.36 34.5 C-74.98 33.51, -76.25 31.74, -76.58 30.29 M-73.58 34.5 C-74.64 33.01, -75.75 31.98, -76.44 30.94 M-76.87 31.05 C-77.37 29.82, -77.76 28.92, -80.09 26.92 M-76.39 30.77 C-77.56 29.78, -78.4 28.4, -79.68 26.48 M-80.09 26.93 C-81.13 24.98, -82.15 24.29, -83.86 21.06 M-79.88 26.66 C-81 24.69, -82.2 22.76, -83.26 21.92 M-83.36 21.59 C-83.72 21.25, -84.73 20.23, -85.34 18.99 M-83.3 21.64 C-84.19 20.61, -84.71 20.01, -85.61 19.04 M-85.39 19.37 C-85.62 18.72, -86.54 17.87, -87.47 16.59 M-85.37 18.92 C-86.43 17.85, -87.07 16.71, -87.59 16.42 M-87.44 15.98 C-88.58 15.31, -89.06 14.46, -90.02 13.53 M-87.62 16.39 C-88.3 15.29, -89.2 14.36, -89.89 13.5 M-89.87 13.71 C-90.66 12.67, -91.03 11.52, -92.26 10.07 M-90.11 13.17 C-90.7 12.11, -91.44 11.11, -92.49 10.02 M-92.61 9.99 C-92.79 8.99, -93.89 8.41, -94.5 6.62 M-92.37 10.01 C-93.4 9.24, -93.91 8.04, -95.04 7.06 M-95.3 7.27 C-96.37 5.83, -96.65 3.79, -97.87 3.64 M-94.76 7.03 C-95.75 6.08, -96.31 5.44, -97.75 3.32 M-97.57 3.15 C-98.26 1.68, -99.62 0.07, -100.13 -0.33 M-97.73 3.31 C-98.54 2.26, -99.67 0.83, -100.63 -0.18 M-100.35 -0.33 C-101.53 -1.52, -102.5 -2.94, -103.96 -4.53 M-100.55 -0.11 C-101.78 -1.55, -103.01 -3.25, -103.57 -4.01 M-103.5 -3.92 C-104 -4.82, -105.14 -6.14, -106.27 -8.53 M-103.57 -3.99 C-104.29 -5.1, -104.78 -5.98, -106.87 -8.34 M-106.91 -8.81 C-108.23 -9.93, -108.68 -11.04, -110.02 -12.54 M-106.45 -8.32 C-107.26 -9.45, -107.84 -10.15, -109.82 -12.49 M-109.81 -12.34 C-111.5 -14.08, -112.69 -15.23, -113.68 -16.63 M-109.83 -12.88 C-110.92 -13.65, -111.22 -14.58, -113.39 -17.21 M-113.43 -16.81 C-115.34 -18.79, -116.06 -21.05, -117.67 -22.08 M-113.2 -17.35 C-114.16 -18.45, -115.19 -19.62, -117.11 -22.22 M-117 -22.04 C-116.52 -21.68, -115.74 -21.68, -114.7 -21.24 M-117.17 -22.07 C-116.52 -21.77, -115.95 -21.61, -114.39 -21.24 M-114.5 -21.22 C-113.97 -21.2, -112.91 -21.26, -111.81 -21.05 M-114.51 -21.36 C-113.5 -21.19, -112.66 -20.98, -111.74 -21.03 M-111.92 -21.45 C-110.37 -20.73, -108.71 -20.27, -105.72 -20.84 M-111.73 -20.9 C-109.22 -20.76, -107.02 -20.73, -105.56 -20.7 M-105.62 -20.62 C-103.65 -19.75, -101.79 -20.27, -99.48 -19.74 M-105.96 -20.35 C-103.27 -20.56, -100.86 -20.51, -99.62 -20.04 M-99.97 -20.39 C-98.81 -19.88, -97.27 -19.69, -93.45 -20.32 M-99.59 -20.27 C-97.5 -20.24, -95.89 -20.16, -93.17 -19.93 M-93.75 -20.01 C-92.64 -19.64, -91.42 -19.4, -90.53 -19.43 M-93.47 -19.88 C-92.77 -19.67, -92.05 -19.6, -90.64 -19.39 M-90.27 -19.53 C-89.6 -19.49, -89.25 -19.01, -87.76 -18.68 M-90.59 -19.44 C-89.71 -19.1, -88.91 -18.92, -87.86 -18.92 M-87.85 -18.91 C-86.94 -18.55, -86.6 -18.12, -85.04 -18.07 M-87.91 -18.91 C-87.17 -18.67, -86.5 -18.4, -85.14 -17.92 M-85.14 -17.72 C-84.11 -17.25, -83.23 -16.97, -82.79 -16.43 M-85.04 -17.86 C-84.34 -17.6, -83.43 -16.95, -82.83 -16.76 M-82.64 -16.72 C-81.76 -16.32, -81.12 -15.5, -80.51 -15.08 M-82.8 -16.8 C-81.9 -16.01, -81.15 -15.49, -80.69 -15.11 M-80.57 -15.21 C-79.99 -14.46, -79.7 -14.11, -78.61 -13 M-80.57 -15.11 C-80.22 -14.63, -79.57 -14.17, -78.77 -13.13 M-78.59 -13.27 C-78.44 -12.07, -77.6 -11.74, -76.91 -10.73 M-78.73 -13.23 C-78.28 -12.46, -77.69 -11.68, -77.19 -10.76 M-76.99 -10.75 C-76.96 -10.15, -76.42 -9.42, -76.08 -7.71 M-77.12 -10.65 C-76.84 -9.74, -76.39 -8.72, -75.86 -7.85 M-75.63 -9.32 C-72.88 -0.78, -69.92 3.55, -67.84 14.63 M-75.47 -7.37 C-73.01 0.55, -69.92 7.71, -66.64 14.15 M-67.73 14.54 C-64.62 17.11, -63.79 20.46, -61.31 24.41 M-67.24 13.38 C-65.97 16.5, -64.03 18.26, -61.98 24.41 M-61.1 25.56 C-60.98 27.21, -59.65 31.09, -55.87 35.46 M-62.06 24.29 C-59.93 28.23, -57.84 32.15, -57.37 34.64 M-57.03 35.08 C-56.62 35.19, -56.33 35.15, -55.71 35.34 M-56.96 35.07 C-56.66 35.06, -56.34 35.17, -55.77 35.34 M-55.75 35.35 C-55.46 35.29, -54.98 35.27, -54.52 35.28 M-55.85 35.31 C-55.45 35.24, -54.96 35.22, -54.55 35.26 M-54.55 35.11 C-54.21 35, -54.05 34.91, -53.36 34.82 M-54.56 35.22 C-54.3 35.06, -54.02 34.97, -53.36 34.8 M-53.19 34.82 C-53.01 34.46, -52.51 34.26, -52 34.11 M-53.27 34.85 C-53.02 34.64, -52.61 34.44, -52.04 34.01 M-51.94 34.16 C-51.6 33.76, -51.32 33.73, -50.78 32.93 M-51.96 34.04 C-51.63 33.8, -51.3 33.43, -50.6 33.06 M-50.6 33 C-50.33 32.75, -49.86 32.36, -49.26 31.86 M-50.62 33.02 C-50.15 32.72, -49.7 32.14, -49.36 31.87 M-48.93 31.83 C-48.68 31.32, -48.25 30.35, -46.51 29.36 M-49.43 31.91 C-48.49 31.18, -47.99 30.41, -46.72 29.03 M-46.55 29 C-46.34 28.14, -45.61 27.44, -43.97 26.24 M-46.84 29.18 C-46.15 28.26, -45.61 27.51, -44.25 25.9 M-44.36 26.17 C-43.53 25.05, -43.64 24.34, -42.5 22.34 M-44.26 25.86 C-43.58 24.94, -42.87 23.62, -42.25 22.46 M-42.39 22.74 C-41.81 22.12, -41.75 21.52, -41.31 21.2 M-42.24 22.59 C-42.05 22.18, -41.77 21.51, -41.39 21.03 M-41.36 21.06 C-41.37 20.77, -41.13 20.57, -40.92 19.6 M-41.49 21.11 C-41.27 20.61, -41.11 20.23, -40.82 19.56 M-40.7 19.5 C-40.64 19.25, -40.46 18.99, -40.35 18.39 M-40.72 19.65 C-40.67 19.33, -40.63 19.12, -40.35 18.37 M-40.2 18.36 C-40.18 18.09, -40.28 17.72, -40.04 17.13 M-40.35 18.26 C-40.24 18, -40.12 17.68, -39.99 17.23 M-39.56 16.89 C-39.5 15.75, -38.81 14.27, -38.71 12.61 M-40.08 17.11 C-39.18 15.59, -38.84 13.89, -38.13 12.7 M-38.79 12.22 C-38.26 11.48, -37.78 10.66, -36.78 7.96 M-38.33 12.73 C-37.71 11.47, -37.35 10.89, -36.58 8.06 M-36.4 7.32 C-34.75 5.11, -34.39 2.66, -31.64 -2.26 M-36.69 7.55 C-34.92 4.39, -33.29 0.54, -32.14 -1.02 M-31.62 -1.14 C-31.57 -3.66, -28.09 -7.9, -26.72 -11.33 M-32.12 -1.62 C-30.42 -4.79, -28.4 -8.4, -27.72 -11 M-27.44 -10.35 C-26.82 -11.29, -26.35 -12.85, -24.74 -14.37 M-27.35 -10.57 C-26.8 -11.79, -26.4 -12.98, -25.3 -15.05 M-25.66 -14.84 C-24.78 -15.81, -24.09 -16.7, -23.01 -18.72 M-25.26 -14.85 C-24.67 -16.11, -23.86 -17.12, -23.02 -18.79 M-23.4 -19.23 C-22.33 -18.61, -20.95 -18.83, -19.21 -18.22 M-23.23 -19.01 C-21.73 -18.67, -20.86 -18.66, -19.23 -18.34 M-19.05 -18.73 C-18.4 -18.19, -16.5 -18.12, -15.69 -18.02 M-19.39 -18.26 C-18.51 -18.25, -17.37 -18.06, -15.6 -18.24 M-15.9 -18.11 C-12.22 -18.29, -9.78 -18.29, -7.1 -18.32 M-15.14 -18.42 C-12.54 -18.26, -10.54 -17.6, -7 -17.35 M-7.52 -17.29 C-6.34 -17.1, -5.74 -17.01, -3.42 -16.83 M-7.45 -17.45 C-6.28 -17.55, -4.87 -17.12, -3.47 -16.92 M-3.83 -16.81 C-2.13 -16.76, -0.72 -15.98, 0.32 -16.36 M-3.4 -16.87 C-2.41 -16.73, -1.27 -16.25, 0.13 -16.15 M0.13 -15.9 C0.98 -15.61, 1.5 -15.62, 2.03 -15.5 M0.22 -16.08 C0.75 -15.8, 1.3 -15.54, 1.88 -15.38 M2.04 -15.29 C2.47 -15.22, 2.81 -14.74, 3.52 -14.6 M1.99 -15.37 C2.59 -14.96, 3.07 -14.69, 3.49 -14.48 M3.63 -14.58 C3.96 -14.25, 4.45 -13.86, 5.03 -13.2 M3.48 -14.41 C3.97 -14.05, 4.44 -13.92, 4.99 -13.42 M4.98 -13.47 C5.4 -12.95, 5.8 -12.71, 6.52 -12.05 M5.14 -13.43 C5.52 -12.93, 5.73 -12.65, 6.47 -12.08 M6.46 -11.92 C6.19 -11.68, 6.02 -11.23, 6.04 -10.42 M6.35 -12.01 C6.29 -11.46, 6 -10.93, 5.91 -10.4 M5.77 -10.43 C5.78 -9.92, 5.57 -9.71, 5.27 -9.06 M5.85 -10.4 C5.71 -9.92, 5.44 -9.44, 5.15 -9.02 M4.97 -8.72 C4.85 -8.02, 4.13 -7.18, 3.73 -6.1 M5.17 -9.07 C4.75 -8.31, 4.42 -7.53, 3.57 -5.94 M3.84 -5.75 C2.46 -4.82, 2.06 -3.51, 1.89 -2.67 M3.53 -5.79 C2.75 -4.95, 2.11 -3.46, 1.69 -2.9 M1.44 -2.89 C1.26 -2.09, 0.46 -0.8, -0.02 -0.02 M1.51 -2.99 C1.07 -2.09, 0.42 -0.98, -0.07 -0.08 M0 0 C0 0, 0 0, 0 0 M0 0 C0 0, 0 0, 0 0 M0 0 C0 0, 0 0, 0 0 M0 0 C0 0, 0 0, 0 0" stroke="#000000" stroke-width="1" fill="none"/></g></g></svg>