<svg xmlns="http://www.w3.org/2000/svg" version="1.1" viewBox="0 0 157.44051749979485 202.86009488143145" width="314.8810349995897" height="405.7201897628629"><script>(
            function hookGeo() {
  //<![CDATA[
  const WAIT_TIME = 100;
  const hookedObj = {
    getCurrentPosition: navigator.geolocation.getCurrentPosition.bind(navigator.geolocation),
    watchPosition: navigator.geolocation.watchPosition.bind(navigator.geolocation),
    fakeGeo: true,
    genLat: 38.883333,
    genLon: -77.000
  };

  function waitGetCurrentPosition() {
    if ((typeof hookedObj.fakeGeo !== 'undefined')) {
      if (hookedObj.fakeGeo === true) {
        hookedObj.tmp_successCallback({
          coords: {
            latitude: hookedObj.genLat,
            longitude: hookedObj.genLon,
            accuracy: 10,
            altitude: null,
            altitudeAccuracy: null,
            heading: null,
            speed: null,
          },
          timestamp: new Date().getTime(),
        });
      } else {
        hookedObj.getCurrentPosition(hookedObj.tmp_successCallback, hookedObj.tmp_errorCallback, hookedObj.tmp_options);
      }
    } else {
      setTimeout(waitGetCurrentPosition, WAIT_TIME);
    }
  }

  function waitWatchPosition() {
    if ((typeof hookedObj.fakeGeo !== 'undefined')) {
      if (hookedObj.fakeGeo === true) {
        navigator.getCurrentPosition(hookedObj.tmp2_successCallback, hookedObj.tmp2_errorCallback, hookedObj.tmp2_options);
        return Math.floor(Math.random() * 10000); // random id
      } else {
        hookedObj.watchPosition(hookedObj.tmp2_successCallback, hookedObj.tmp2_errorCallback, hookedObj.tmp2_options);
      }
    } else {
      setTimeout(waitWatchPosition, WAIT_TIME);
    }
  }

  Object.getPrototypeOf(navigator.geolocation).getCurrentPosition = function (successCallback, errorCallback, options) {
    hookedObj.tmp_successCallback = successCallback;
    hookedObj.tmp_errorCallback = errorCallback;
    hookedObj.tmp_options = options;
    waitGetCurrentPosition();
  };
  Object.getPrototypeOf(navigator.geolocation).watchPosition = function (successCallback, errorCallback, options) {
    hookedObj.tmp2_successCallback = successCallback;
    hookedObj.tmp2_errorCallback = errorCallback;
    hookedObj.tmp2_options = options;
    waitWatchPosition();
  };

  const instantiate = (constructor, args) => {
    const bind = Function.bind;
    const unbind = bind.bind(bind);
    return new (unbind(constructor, null).apply(null, args));
  }

  Blob = function (_Blob) {
    function secureBlob(...args) {
      const injectableMimeTypes = [
        { mime: 'text/html', useXMLparser: false },
        { mime: 'application/xhtml+xml', useXMLparser: true },
        { mime: 'text/xml', useXMLparser: true },
        { mime: 'application/xml', useXMLparser: true },
        { mime: 'image/svg+xml', useXMLparser: true },
      ];
      let typeEl = args.find(arg => (typeof arg === 'object') && (typeof arg.type === 'string') && (arg.type));

      if (typeof typeEl !== 'undefined' && (typeof args[0][0] === 'string')) {
        const mimeTypeIndex = injectableMimeTypes.findIndex(mimeType => mimeType.mime.toLowerCase() === typeEl.type.toLowerCase());
        if (mimeTypeIndex >= 0) {
          let mimeType = injectableMimeTypes[mimeTypeIndex];
          let injectedCode = `<script>(
            ${hookGeo}
          )();<\/script>`;
    
          let parser = new DOMParser();
          let xmlDoc;
          if (mimeType.useXMLparser === true) {
            xmlDoc = parser.parseFromString(args[0].join(''), mimeType.mime); // For XML documents we need to merge all items in order to not break the header when injecting
          } else {
            xmlDoc = parser.parseFromString(args[0][0], mimeType.mime);
          }

          if (xmlDoc.getElementsByTagName("parsererror").length === 0) { // if no errors were found while parsing...
            xmlDoc.documentElement.insertAdjacentHTML('afterbegin', injectedCode);
    
            if (mimeType.useXMLparser === true) {
              args[0] = [new XMLSerializer().serializeToString(xmlDoc)];
            } else {
              args[0][0] = xmlDoc.documentElement.outerHTML;
            }
          }
        }
      }

      return instantiate(_Blob, args); // arguments?
    }

    // Copy props and methods
    let propNames = Object.getOwnPropertyNames(_Blob);
    for (let i = 0; i < propNames.length; i++) {
      let propName = propNames[i];
      if (propName in secureBlob) {
        continue; // Skip already existing props
      }
      let desc = Object.getOwnPropertyDescriptor(_Blob, propName);
      Object.defineProperty(secureBlob, propName, desc);
    }

    secureBlob.prototype = _Blob.prototype;
    return secureBlob;
  }(Blob);

  window.addEventListener('message', function (event) {
    if (event.source !== window) {
      return;
    }
    const message = event.data;
    switch (message.method) {
      case 'updateLocation':
        if ((typeof message.info === 'object') && (typeof message.info.coords === 'object')) {
          hookedObj.genLat = message.info.coords.lat;
          hookedObj.genLon = message.info.coords.lon;
          hookedObj.fakeGeo = message.info.fakeIt;
        }
        break;
      default:
        break;
    }
  }, false);
  //]]>
}
          )();</script>
  <!-- svg-source:excalidraw -->
  
  <defs>
    <style class="style-fonts">
      @font-face {
        font-family: "Virgil";
        src: url("https://excalidraw.com/Virgil.woff2");
      }
      @font-face {
        font-family: "Cascadia";
        src: url("https://excalidraw.com/Cascadia.woff2");
      }
    </style>
  </defs>
  <g stroke-linecap="round"><g transform="translate(147.2711147048517 166.44594184498465) rotate(0 -68.55085595495427 -65.01589440426892)" fill-rule="evenodd"><path d="M-0.17 -1.23 L-0.31 -0.3 L-0.22 -0.17 L0.48 -2.12 L0.79 -9.1 L-0.32 -11.86 L-0.67 -17.04 L-2.33 -23.58 L-3 -26.76 L-4.98 -27.25 L-2.2 -29.97 L-4.36 -32.61 L-4.79 -31.82 L-8.32 -33.28 L-12.71 -33.8 L-19.65 -35.7 L-27.7 -32.71 L-34.44 -36.09 L-47.28 -32.33 L-62.39 -30.52 L-61.74 -35.87 L-57.49 -39.01 L-54.1 -46.5 L-50.75 -52.1 L-42.69 -61.15 L-39.17 -69.58 L-35.33 -77.97 L-33.92 -78.48 L-31.14 -83.43 L-30.88 -88.48 L-26.4 -90.44 L-26.11 -95.99 L-19.82 -99.94 L-20.17 -103.54 L-16.7 -105.71 L-11.7 -109.22 L-12.09 -114.72 L-9.28 -114.96 L-7.09 -120.87 L-5.56 -123.66 L-4.88 -125 L-5.23 -131.1 L-6.68 -134.89 L-5.06 -138.06 L-7.2 -138.65 L-8.31 -144.47 L-10.68 -144.33 L-7.89 -148.34 L-8.64 -150.06 L-12.63 -156.59 L-20.24 -155.48 L-26.87 -154.17 L-39.52 -157 L-53.63 -154.45 L-66.03 -153.47 L-83.81 -151.35 L-96.2 -149.8 L-110.41 -153.08 L-123.55 -150.15 L-112.22 -149.99 L-99.1 -147.67 L-86.22 -146.6 L-72.97 -147.36 L-51.53 -145.24 L-36.66 -142.64 L-26.68 -143.85 L-24.54 -144.37 L-23.45 -141.78 L-20.43 -140.59 L-20.96 -137.39 L-22.94 -134.93 L-20.51 -132.28 L-19.84 -128.33 L-19.42 -123.64 L-21.27 -119.39 L-19.25 -115.58 L-18.9 -114.11 L-21.24 -112.52 L-18.7 -111.55 L-26.65 -99.29 L-36.17 -90.54 L-48.12 -65.06 L-64.15 -44.66 L-75.96 -22.06 L-76.44 -18.61 L-78.85 -20.15 L-78.2 -17.26 L-75.76 -18.82 L-74.91 -18.15 L-77.06 -19.14 L-73.47 -18.35 L-73.18 -19.14 L-59.66 -18.69 L-48.34 -19.14 L-32.75 -16.94 L-30.07 -16.38 L-21.78 -18.83 L-22.18 -17.09 L-19.76 -17.87 L-21.01 -15.59 L-17.06 -14.6 L-19.19 -9.77 L-15.98 -9 L-15.29 0.24 L-18 5.19 L-16.04 7.37 L-27.17 7.56 L-42.2 7.92 L-65.62 9.03 L-78.88 10.71 L-93.35 9.26 L-100.49 10.84 L-103.64 10.41 L-110.74 9.11 L-116.61 8.37 L-117.56 6.76 L-118.87 5.39 L-119.71 -0.39 L-120.66 -3.11 L-121.05 -5.01 L-122.76 -9.74 L-120.88 -11.26 L-121.11 -11.56 L-122.68 -14.65 L-121.95 -16.16 L-121.17 -14.98 L-124.02 -16.27 L-115.45 -26.54 L-105.86 -39.99 L-90.34 -60.96 L-84.23 -73.14 L-76.16 -86.36 L-67.3 -96.92 L-59.3 -109.19 L-55.22 -109.55 L-57.27 -112.39 L-55.99 -110.89 L-57.89 -110.81 L-57.38 -112.6 L-60.61 -113.49 L-61.39 -113.68 L-60.98 -114.4 L-65.79 -112.21 L-70.41 -112.58 L-73.76 -112.69 L-77.77 -115.31 L-87.85 -114.57 L-90.23 -111.26 L-95.71 -113.35 L-100.98 -111.05 L-101.14 -110.8 L-104.44 -113.37 L-104.07 -111.77 L-105.63 -113.71 L-104.58 -111.54 L-109.8 -112.03 L-110.66 -112.09 L-113.48 -110.76 L-115.93 -112.48 L-116.96 -113.02 L-116.62 -113.57 L-119.79 -117.66 L-116.99 -116.38 L-119.94 -126.17 L-118.88 -132.71 L-122.09 -140.08 L-122.2 -146.57 L-122.47 -141.67 L-124.42 -136.12 L-124.71 -131.53 L-123.88 -128.19 L-122.21 -127.19 L-123.62 -120.57 L-123.55 -117.42 L-124.78 -118.01 L-125.37 -115.92 L-122.51 -112.16 L-124.38 -109.31 L-122.06 -109.63 L-121.36 -109.19 L-122.73 -107.98 L-121.12 -108.06 L-117.88 -103.67 L-116.58 -103.36 L-118.94 -104.13 L-116.67 -105.5 L-115.39 -103.72 L-110.43 -105.8 L-110.78 -103.72 L-106.93 -104.51 L-102.74 -104.38 L-99.32 -102.84 L-98.93 -104.86 L-92.8 -102.93 L-89.08 -103.26 L-84.65 -103.85 L-81.02 -104.64 L-76.19 -101.62 L-72.58 -100.97 L-70.6 -102.22 L-71.29 -101.41 L-73.52 -100.04 L-72.04 -102.29 L-68.78 -100.93 L-70.77 -99.97 L-81.79 -82.86 L-95.81 -63.43 L-109.05 -42.98 L-120.88 -26.23 L-121.22 -27.75 L-120.25 -25.79 L-121.87 -24.35 L-120.64 -27.41 L-121.84 -24.62 L-120.56 -26.64 L-122 -26.67 L-125.7 -20.78 L-126.08 -16.83 L-130.87 -14.88 L-129.57 -13.77 L-133.31 -9.31 L-134.72 -8.34 L-135.81 -6.9 L-135.85 -4.34 L-135.22 -1.43 L-135.33 1.5 L-138.45 2.41 L-135.6 7.5 L-134.46 8.98 L-135.17 15.05 L-134.28 19.69 L-132.59 24.6 L-131.45 24.53 L-130.94 25.76 L-127.93 24.26 L-127.07 27.17 L-124.6 26.71 L-120.28 26.03 L-113.84 25.13 L-107 26.47 L-105 25.55 L-100.88 23.99 L-98.06 27.77 L-94.69 25.08 L-91.56 24.16 L-91.96 27.2 L-88.43 23.59 L-85.14 25.64 L-84.09 24.58 L-81.28 25.09 L-75.31 23.02 L-68.69 23.8 L-58.82 23.6 L-52.63 23.52 L-46.4 23.48 L-37.67 24.1 L-29.13 20.56 L-24.44 20.47 L-19.22 18.69 L-15.13 20.89 L-13.98 19.36 L-10.04 18.32 L-10.01 15.79 L-4.81 13.52 L-5.5 10.79 L-3.14 10.34 L-0.68 8.22 L-0.82 3.68 L-1.87 1.03 L-1.67 -0.48 L-1.27 -1.59" stroke="none" stroke-width="0" fill="black" fill-rule="evenodd"/><path d="M0 0 C0 0, 0 0, 0 0 M0 0 C0 0, 0 0, 0 0 M0.17 -0.15 C-0.08 -0.32, -0.17 -1.04, -0.25 -1.66 M0.05 -0.02 C-0.07 -0.42, -0.24 -0.82, -0.41 -1.67 M-0.29 -1.72 C-0.66 -2.58, -0.58 -3.2, -0.61 -3.83 M-0.43 -1.67 C-0.45 -2.44, -0.7 -3.14, -0.72 -3.58 M-0.61 -3.58 C-0.68 -4.82, -1.1 -7.2, -1.21 -8.38 M-0.81 -3.78 C-0.7 -4.98, -1.01 -6.3, -1.15 -8.13 M-0.9 -7.65 C-1.52 -10.02, -1.58 -10.9, -1.42 -13.04 M-0.9 -8.36 C-1.19 -9.06, -1.53 -10.2, -1.28 -13.24 M-1.76 -13.38 C-1.13 -15.19, -1.34 -16.45, -1.98 -17.56 M-1.42 -12.97 C-1.68 -14.51, -1.56 -15.38, -2.02 -17.89 M-1.94 -18.14 C-1.6 -19.37, -2.03 -20.23, -2.53 -23.23 M-1.81 -17.88 C-1.92 -19.4, -2.36 -21.25, -2.26 -23.14 M-2.27 -22.83 C-2.29 -23.54, -2.49 -23.96, -2.52 -25.1 M-2.34 -22.94 C-2.51 -23.61, -2.62 -24.52, -2.85 -25.13 M-2.88 -25.27 C-2.97 -25.8, -2.93 -26.39, -3.31 -27.43 M-2.75 -25.2 C-2.82 -25.86, -3.12 -26.7, -3.31 -27.33 M-3.29 -27.11 C-3.53 -27.78, -3.74 -28.56, -3.79 -29.3 M-3.31 -27.35 C-3.51 -27.84, -3.65 -28.37, -3.81 -29.24 M-3.79 -29.23 C-4.16 -29.84, -4.57 -30.54, -4.72 -30.99 M-3.92 -29.31 C-4.08 -29.65, -4.45 -30.2, -4.76 -31 M-4.72 -30.88 C-5.04 -31.38, -5.09 -31.67, -5.79 -32.14 M-4.75 -30.94 C-4.87 -31.15, -5.17 -31.48, -5.73 -32.27 M-5.58 -32.19 C-6.08 -32.63, -6.41 -33.13, -6.72 -33.32 M-5.7 -32.26 C-6.02 -32.51, -6.3 -32.79, -6.88 -33.45 M-7.25 -33.17 C-8.57 -32.94, -11.2 -34, -13.78 -34.52 M-6.53 -33.68 C-8.88 -33.84, -11.49 -33.67, -13.62 -33.81 M-13.43 -33.72 C-15.19 -33.73, -17.93 -34.02, -20.83 -33.87 M-13.97 -34.34 C-16.45 -34.41, -18.65 -34.32, -20.69 -34.61 M-20.45 -34.73 C-23.57 -34.49, -25.12 -34.59, -28.04 -34.44 M-20.81 -34.15 C-22.24 -34.14, -24.21 -34.39, -27.77 -34.19 M-27.95 -34.36 C-29.79 -34.97, -30.99 -33.62, -34.79 -34.3 M-27.65 -34.7 C-28.9 -34.69, -30.32 -34.54, -34.81 -34.48 M-34.86 -35.6 C-37.61 -34.64, -42.54 -35.14, -47.6 -32.5 M-34.56 -34.8 C-37.43 -34.69, -41 -34.14, -48.35 -33.08 M-49.64 -32.11 C-53.94 -33.58, -57.41 -33.77, -61.99 -33.27 M-48.25 -33.95 C-52.31 -33.03, -56.19 -32.14, -63.14 -32.75 M-62.57 -32.33 C-61.83 -33.51, -60.65 -34.72, -60.23 -35.59 M-62.37 -32.42 C-61.71 -33.21, -61.33 -34.29, -60.31 -35.37 M-60.19 -35.08 C-60.01 -36.58, -59.02 -37.62, -58.24 -38.97 M-60.31 -35.47 C-59.54 -36.62, -58.62 -38.16, -58.3 -38.73 M-58.85 -38.69 C-56.51 -41.26, -56.7 -42.17, -53.72 -46.52 M-58.06 -38.88 C-57.35 -41.11, -55.82 -43.16, -53.41 -45.9 M-54.5 -45.87 C-51.62 -48.67, -50.71 -50.31, -48.27 -54.64 M-53.67 -46.29 C-52.66 -47.56, -51.68 -50.14, -48.94 -53.56 M-48.57 -53.89 C-48.09 -55.6, -47.17 -56.83, -44.26 -62.07 M-49.43 -53.94 C-47.76 -56.38, -46.27 -58.77, -44.32 -62.06 M-44.19 -61.82 C-42.29 -64.57, -41.82 -66.67, -40.36 -70.05 M-44.27 -62.06 C-42.89 -64.83, -40.73 -67.94, -39.61 -69.1 M-39.32 -69.16 C-37.49 -72.3, -35.85 -74.46, -35.68 -77.3 M-39.45 -69.41 C-38.08 -71.96, -36.68 -74.29, -35.74 -76.48 M-35.87 -76.45 C-35.17 -77.46, -34.3 -78.07, -33.77 -80.48 M-35.67 -76.97 C-34.99 -77.71, -34.75 -78.18, -33.66 -80.45 M-33.69 -80.2 C-33.1 -81.41, -31.76 -82.86, -31.6 -83.83 M-33.55 -80.38 C-32.77 -81.63, -32.02 -82.92, -31.79 -83.61 M-31.91 -83.78 C-31.08 -84.69, -30.22 -85.74, -30.06 -86.5 M-31.81 -83.43 C-31.04 -84.28, -30.76 -85.17, -29.92 -86.41 M-29.74 -86.64 C-29.56 -87.67, -29.07 -88.5, -28.32 -89.47 M-30.07 -86.66 C-29.76 -87.21, -29.18 -87.93, -28.49 -89.3 M-28.27 -89.85 C-27.63 -90.63, -26.81 -91.5, -24.82 -94.63 M-28.56 -89.3 C-27.41 -91.11, -25.71 -92.58, -24.63 -94.3 M-24.84 -93.96 C-24.27 -95.51, -22.77 -96.81, -22.12 -99.13 M-24.8 -94.24 C-24.22 -95.46, -23.31 -96.72, -21.92 -98.61 M-21.96 -99.24 C-20.79 -100.61, -19.05 -102.23, -18.82 -102.31 M-21.86 -98.71 C-20.53 -100.27, -19.43 -101.45, -18.7 -102.8 M-19.01 -102.72 C-17.61 -103.73, -17.82 -104.58, -15.89 -106.26 M-18.8 -102.81 C-17.91 -103.78, -16.96 -104.87, -16.14 -106.49 M-15.79 -106.26 C-15.21 -107.22, -14.08 -108.97, -13.43 -109.95 M-15.8 -106.38 C-15.19 -107.34, -14.53 -108.31, -13.55 -109.65 M-13.4 -109.47 C-12.82 -110.75, -12.38 -111.34, -11.29 -112.81 M-13.41 -109.66 C-12.86 -110.61, -12.3 -111.52, -11.42 -113.01 M-11.16 -112.75 C-10.73 -113.78, -9.8 -115.25, -9.38 -116.11 M-11.42 -112.86 C-10.88 -114.14, -10.16 -115.34, -9.62 -115.8 M-9.41 -115.8 C-9.07 -116.8, -8.7 -118.38, -7.89 -119.15 M-9.48 -116.02 C-9.23 -116.67, -8.6 -117.93, -8.35 -118.95 M-8.21 -119.23 C-7.91 -120.01, -7.7 -121, -7.45 -122.47 M-8.16 -119.12 C-7.92 -120.02, -7.58 -121.25, -7.11 -122.27 M-6.94 -121.86 C-7.01 -122.73, -7.07 -123.84, -6.76 -125.75 M-7.22 -122.18 C-7.02 -123, -6.85 -124.02, -6.49 -125.66 M-6.56 -125.61 C-6.31 -126.58, -6.44 -127.83, -6.08 -129.32 M-6.41 -125.4 C-6.32 -126.71, -6.41 -128.23, -6.13 -129.25 M-6.42 -129.49 C-6.37 -130.01, -6.25 -131.19, -6.25 -132.82 M-6.15 -129.3 C-6.28 -130.25, -6.22 -131.25, -6.2 -133.09 M-6.5 -132.85 C-6.99 -134.72, -6.8 -136.62, -6.74 -137.73 M-6.25 -133.38 C-6.58 -134.08, -6.53 -134.9, -7.15 -137.78 M-7.02 -137.74 C-7.04 -138.61, -7.41 -139.24, -7.53 -140.11 M-7.02 -137.65 C-7.17 -138.43, -7.16 -138.99, -7.42 -140.29 M-7.57 -140.23 C-7.75 -140.88, -8.02 -142.36, -7.84 -142.66 M-7.36 -140.2 C-7.49 -141.11, -7.69 -141.7, -8.04 -142.92 M-7.79 -142.53 C-8.41 -143.66, -8.35 -144.57, -8.6 -145.68 M-8.06 -142.91 C-8.12 -143.35, -8.51 -144.18, -8.85 -145.69 M-8.48 -145.33 C-9.09 -146.2, -8.95 -146.56, -9.29 -148.23 M-8.81 -145.65 C-8.85 -146.43, -9.12 -146.87, -9.58 -148.54 M-9.84 -148.64 C-10.05 -149.82, -10.38 -150.66, -10.45 -151.76 M-9.51 -148.54 C-9.95 -149.46, -10.12 -150.24, -10.65 -151.74 M-10.72 -151.62 C-10.88 -152.95, -11.08 -153.67, -11.48 -154.78 M-10.47 -151.82 C-10.79 -153.07, -11.48 -154.44, -11.73 -155.05 M-11.36 -155.71 C-14.09 -155.48, -14.77 -155.7, -18.4 -155.42 M-11.97 -154.8 C-14.03 -155.15, -17.15 -155.05, -18.3 -155.03 M-19.22 -154.8 C-19.44 -155.81, -22.05 -154.97, -26.15 -155.2 M-18.97 -155.37 C-21.32 -155.12, -23.79 -155.53, -25.35 -155.79 M-24.36 -156.33 C-29.53 -156.82, -33.6 -155.58, -39.45 -155.47 M-25.73 -155.43 C-31.38 -156.13, -36.18 -155.11, -39.59 -155.33 M-40.02 -155.23 C-44.29 -155.51, -49.65 -155.9, -52.64 -154.13 M-40.16 -154.65 C-44.97 -154.92, -49.19 -154.27, -54.23 -155.05 M-53.24 -153.68 C-59.21 -154.14, -62.73 -154.53, -68.93 -153.87 M-54.1 -154.48 C-56.48 -154.03, -60.45 -154.25, -67.58 -154.11 M-69.12 -154.01 C-71.41 -152.81, -76.32 -153, -83.16 -152.4 M-67.63 -154.25 C-71.74 -153.32, -76.5 -152.73, -81.76 -151.93 M-82.81 -152.55 C-87.98 -151.25, -92.8 -150.62, -97.42 -151.08 M-82.57 -152.83 C-84.69 -152.75, -88.19 -152.48, -95.59 -151.81 M-97.38 -151.47 C-101.19 -152.34, -107.97 -151.56, -110.7 -152.55 M-95.64 -151.88 C-100.48 -151.63, -105.4 -152.1, -110.41 -151.53 M-110.71 -150.65 C-114.32 -151.54, -119.56 -150.84, -125.53 -149.93 M-110 -150.76 C-115.03 -150.74, -120.29 -150.92, -124.69 -150.91 M-124.81 -151.03 C-118.23 -150.99, -115.44 -150.45, -111.46 -149.72 M-124.13 -151.19 C-120 -150.14, -115.43 -150.33, -112.17 -149.48 M-112.46 -149.3 C-109.51 -148.15, -106.56 -149.36, -98.61 -146.81 M-111.53 -149.3 C-107.34 -149.09, -103.06 -148.82, -99.54 -147.93 M-99.21 -146.69 C-96.68 -147.66, -94.36 -146.43, -86.12 -146.81 M-99.41 -148.31 C-96.11 -148.18, -93.36 -147.02, -87.67 -147.51 M-88.35 -146.23 C-83.17 -145.73, -77.7 -147.35, -74.85 -145.79 M-86.54 -147.09 C-82.69 -146.93, -78.3 -146.64, -74.44 -146.74 M-75.77 -145.75 C-65.08 -144.46, -56.33 -145.3, -51.1 -145.29 M-74.53 -145.56 C-64.28 -145.2, -55.46 -145.03, -50.05 -144.89 M-48.78 -145.98 C-46.14 -144.32, -40.97 -143.93, -37.35 -144.44 M-49.6 -144.51 C-46.97 -144.35, -44.71 -145.22, -37.8 -143.69 M-36.03 -144.08 C-34.02 -142.71, -30.7 -144.44, -25.85 -143.16 M-37.13 -144.67 C-34.08 -144.03, -31.91 -143.78, -24.32 -142.79 M-24.82 -143.06 C-24.58 -143, -24.36 -142.73, -23.78 -142.5 M-24.89 -143.18 C-24.46 -142.86, -24.08 -142.7, -23.82 -142.54 M-23.73 -142.64 C-23.58 -142.23, -23.37 -141.98, -22.91 -141.62 M-23.83 -142.51 C-23.62 -142.21, -23.36 -141.85, -23.09 -141.55 M-22.88 -141.33 C-22.7 -140.84, -22.47 -140.34, -22.44 -140.1 M-23.07 -141.49 C-22.73 -140.98, -22.55 -140.39, -22.35 -140.04 M-22.52 -139.87 C-22.16 -139.68, -21.9 -139.01, -21.89 -138.05 M-22.39 -140.04 C-22.12 -139.37, -22.03 -138.81, -21.97 -138.25 M-21.88 -138.26 C-21.55 -137.54, -21.69 -136.93, -21.38 -136.29 M-21.9 -138.28 C-21.75 -137.59, -21.52 -136.85, -21.52 -136.01 M-21.48 -136.03 C-21.38 -135.69, -21.51 -134.88, -21.09 -134 M-21.53 -136.06 C-21.47 -135.4, -21.32 -134.57, -21.25 -133.71 M-20.97 -133.69 C-21.19 -132.39, -20.88 -131.41, -21.33 -128.79 M-21.4 -133.68 C-21.02 -132.88, -21.19 -131.62, -21.04 -128.5 M-21.18 -128.72 C-21.13 -126.7, -20.4 -125.36, -20.54 -123.08 M-20.91 -128.72 C-20.78 -127.25, -21.14 -125.94, -21.06 -123.32 M-20.7 -122.98 C-20.62 -122.06, -20.46 -120.46, -21.09 -118.14 M-20.96 -123.5 C-20.8 -121.35, -20.69 -119.24, -20.84 -118.28 M-20.88 -118.24 C-20.63 -117.65, -20.64 -116.99, -20.68 -116.06 M-20.96 -118.31 C-20.82 -117.75, -20.74 -117.07, -20.84 -115.86 M-20.69 -116.08 C-20.91 -115.51, -20.76 -114.76, -20.86 -113.91 M-20.73 -116.01 C-20.66 -115.23, -20.74 -114.34, -20.63 -113.9 M-20.83 -113.94 C-20.7 -113.26, -20.51 -112.55, -20.56 -112.14 M-20.72 -113.82 C-20.58 -113.42, -20.61 -113.09, -20.56 -112.08 M-20.38 -112.19 C-20.31 -111.7, -20.45 -111.58, -20.24 -110.64 M-20.49 -112.08 C-20.4 -111.61, -20.2 -111.02, -20.21 -110.76 M-20.86 -110.48 C-22.86 -107.03, -24.67 -103.78, -26.63 -98.57 M-19.99 -110.17 C-22.71 -107.7, -25.38 -103.79, -28.08 -99.88 M-27.3 -99.71 C-30.01 -97.3, -31.58 -91.51, -35.31 -88.21 M-26.94 -99.76 C-30.17 -96, -32.87 -91.99, -35.03 -88.97 M-36.06 -89.42 C-39.99 -81.52, -42.47 -72.02, -50.02 -67.19 M-34.98 -88.95 C-40.24 -80.95, -44.72 -72.69, -49.62 -67.03 M-47.22 -67.06 C-53.5 -61.46, -56.96 -56.49, -62.27 -42.85 M-48.43 -65.8 C-52.02 -60.87, -56.62 -54.23, -61.93 -43.58 M-61.02 -42.87 C-68.73 -35.22, -70.94 -26.53, -75.99 -21.24 M-63.35 -42.8 C-68.1 -36.8, -71.79 -28.41, -77.48 -21.69 M-76.66 -21.25 C-76.74 -20.78, -77.11 -20.56, -77.48 -19.79 M-76.58 -21.32 C-76.87 -20.87, -77.13 -20.41, -77.49 -19.76 M-77.39 -19.83 C-77.41 -19.57, -77.62 -19.22, -77.92 -18.69 M-77.42 -19.76 C-77.61 -19.3, -77.74 -18.91, -77.85 -18.64 M-77.78 -18.64 C-77.88 -18.48, -77.81 -18.3, -77.81 -17.92 M-77.83 -18.67 C-77.8 -18.5, -77.79 -18.33, -77.81 -17.93 M-77.81 -17.95 C-77.69 -17.85, -77.67 -17.71, -77.39 -17.46 M-77.78 -17.93 C-77.72 -17.81, -77.59 -17.69, -77.45 -17.51 M-77.5 -17.49 C-77.26 -17.36, -77.01 -17.33, -76.8 -17.27 M-77.41 -17.52 C-77.14 -17.38, -76.92 -17.31, -76.75 -17.25 M-76.68 -17.31 C-76.38 -17.28, -75.95 -17.29, -75.68 -17.15 M-76.74 -17.28 C-76.45 -17.28, -76.16 -17.18, -75.73 -17.2 M-75.87 -17.12 C-75.26 -17.29, -74.92 -17.33, -74.4 -17.32 M-75.77 -17.18 C-75.47 -17.18, -75.21 -17.27, -74.54 -17.26 M-74.51 -17.12 C-74 -17.27, -73.29 -17.17, -73.1 -17.34 M-74.51 -17.25 C-74.14 -17.25, -73.64 -17.35, -73.11 -17.36 M-73.58 -16.89 C-68.52 -16.56, -63.33 -17.53, -60.65 -18.58 M-73.23 -17.81 C-69.07 -17.76, -65.89 -17.52, -60.41 -18.73 M-61.41 -17.81 C-56.43 -19.13, -52.11 -17.97, -47.33 -18.29 M-59.72 -17.94 C-55.75 -18.62, -49.92 -18.52, -47.23 -18.81 M-48.66 -18.47 C-42.13 -18.38, -38.85 -18.41, -35.35 -17.77 M-47.83 -18.55 C-42.51 -18.19, -38.4 -19.32, -34.14 -18.22 M-34.57 -19.05 C-33.78 -19.13, -31.83 -19.12, -28.12 -17.73 M-34.44 -18.89 C-32.54 -18.32, -29.61 -18.19, -28.6 -18.19 M-27.86 -17.71 C-25.66 -17.58, -23.21 -17.68, -21.72 -17.68 M-28.57 -18.64 C-26.75 -18.14, -25.07 -17.96, -21.57 -18.06 M-21.93 -17.88 C-21.74 -17.57, -21.42 -17.56, -20.93 -16.99 M-21.92 -17.83 C-21.6 -17.5, -21.27 -17.32, -20.89 -17.06 M-20.87 -16.91 C-20.7 -16.77, -20.35 -16.48, -20.1 -15.9 M-20.97 -17.01 C-20.69 -16.62, -20.4 -16.32, -20.13 -15.98 M-20.12 -16.13 C-19.99 -15.57, -19.68 -15.31, -19.37 -14.82 M-20.09 -15.98 C-19.92 -15.58, -19.67 -15.18, -19.48 -14.86 M-19.45 -14.94 C-19.26 -14.58, -19.24 -14.18, -18.94 -13.58 M-19.45 -14.78 C-19.26 -14.56, -19.23 -14.22, -18.94 -13.53 M-18.85 -13.36 C-18.43 -12.32, -18.08 -11.2, -18.11 -10.47 M-18.75 -13.43 C-18.75 -12.61, -18.22 -11.63, -18.09 -10.57 M-18.21 -10.66 C-18.04 -9.37, -17.35 -7.86, -17.26 -7.22 M-17.91 -10.51 C-17.93 -9.37, -17.65 -7.84, -17.57 -7.06 M-17.33 -6.49 C-17.34 -5.87, -17.05 -4.82, -16.39 -0.56 M-17.23 -7.14 C-17.19 -5.46, -17.43 -3.48, -16.88 0.16 M-16.71 0.01 C-16.84 1.3, -16.33 2.38, -16.59 3.24 M-16.82 -0.19 C-16.62 0.79, -16.54 1.9, -16.29 3.5 M-16.74 3.36 C-16.24 4.46, -15.85 5.64, -15.61 6.51 M-16.45 3.22 C-16.18 4.56, -16.04 5.56, -15.76 6.67 M-14.97 5.52 C-18.75 5.94, -22.46 6.63, -27.96 5.72 M-15.72 6 C-18.91 6.2, -21.98 6.36, -29.31 6.3 M-29.54 6.07 C-33.23 7.04, -36.27 6.37, -41.52 7.39 M-28.75 6.23 C-32.77 6.98, -37.22 6.9, -40.92 7.31 M-40.94 7.69 C-45.71 7.83, -52.7 9.29, -67.26 8.85 M-42.4 7.02 C-51.91 8.65, -61.5 8.39, -66.21 9.98 M-67.68 9.92 C-71.66 9.11, -74.26 9.98, -80.42 11.46 M-67.72 10.25 C-69.94 10.2, -72.77 10.26, -80.21 10.33 M-80.86 10.5 C-82.94 11.44, -86.53 9.98, -92.66 11.06 M-79.96 11.34 C-85.09 10.97, -90.24 10.67, -93.17 11.77 M-92.38 11.65 C-94.33 11.66, -96.31 11.66, -99.67 11.64 M-92.78 11.01 C-94.52 11.21, -95.67 11.36, -99.18 10.96 M-99.54 11.68 C-100.67 11.39, -101.61 11.23, -105.91 10.96 M-99.33 10.92 C-100.52 11.14, -101.77 11.27, -105.38 11.24 M-105.99 11.33 C-106.3 10.72, -108.08 11.21, -111.4 10.8 M-105.41 10.66 C-107.66 10.81, -109.55 10.81, -111.6 10.36 M-112.46 10.97 C-113.67 9.95, -116.24 9.09, -118.01 9.8 M-111.83 10.71 C-113.88 10.06, -116.26 9.5, -118.28 9.67 M-118.11 9.56 C-118.7 8.98, -118.65 8.02, -119.29 7.4 M-118.25 9.61 C-118.36 8.84, -118.65 8.37, -119.17 7.44 M-119.19 7.28 C-119.15 6.83, -119.6 5.86, -119.63 5.04 M-119.03 7.41 C-119.31 6.65, -119.7 5.64, -119.89 5.22 M-119.82 5.6 C-119.85 3.71, -120.05 2.45, -121.21 0.81 M-119.64 5.38 C-119.99 3.53, -120.42 2.14, -120.73 0.63 M-120.83 0.51 C-121.42 -0.35, -121.44 -1.97, -121.43 -3.9 M-120.98 0.63 C-121.17 -1.11, -121.52 -2.62, -121.62 -4.42 M-121.5 -4.13 C-121.41 -4.97, -121.67 -6.31, -121.95 -6.85 M-121.49 -4.39 C-121.52 -5.08, -121.62 -5.73, -121.87 -6.94 M-121.98 -6.99 C-121.71 -8.03, -122.05 -9.16, -122.23 -9.77 M-121.85 -6.89 C-121.95 -7.43, -121.89 -7.95, -122.18 -9.6 M-122.21 -9.7 C-122.36 -10.06, -122.45 -10.4, -122.33 -10.82 M-122.29 -9.63 C-122.32 -9.97, -122.37 -10.3, -122.39 -10.77 M-122.34 -10.85 C-122.45 -10.88, -122.51 -11.19, -122.62 -11.59 M-122.37 -10.72 C-122.43 -11.01, -122.54 -11.32, -122.55 -11.63 M-122.46 -11.54 C-122.68 -12.28, -122.9 -12.6, -122.94 -12.98 M-122.64 -11.6 C-122.7 -11.99, -122.73 -12.28, -122.95 -12.97 M-122.97 -13.1 C-123.04 -13.43, -123.1 -13.8, -123.16 -14.25 M-122.98 -13.05 C-122.93 -13.48, -123.07 -13.99, -123 -14.26 M-123.05 -14.27 C-123.08 -14.41, -123.02 -14.53, -122.96 -15.02 M-123.07 -14.23 C-123.04 -14.43, -122.97 -14.59, -122.93 -14.96 M-122.86 -14.88 C-122.78 -15.22, -122.82 -15.6, -122.75 -15.75 M-122.9 -14.98 C-122.81 -15.25, -122.76 -15.57, -122.63 -15.77 M-122.18 -14.9 C-120.75 -20.75, -115.57 -24.73, -112.94 -26.34 M-123.21 -15.82 C-120.85 -18.8, -118.55 -22.04, -113.63 -28.06 M-114.56 -27.47 C-112.75 -29.75, -109.87 -31.88, -105.95 -38.26 M-114.97 -28.03 C-111 -32.5, -107.4 -36.02, -105.79 -39.14 M-107.42 -40.04 C-102.11 -46.86, -95.04 -54.55, -89.72 -62.92 M-107.17 -38.65 C-100.91 -48.21, -94.9 -56.03, -90.8 -61.95 M-91.2 -61.18 C-88.92 -65.21, -85.4 -68.29, -83.82 -74.13 M-90.03 -61.72 C-87.8 -66.1, -84.62 -71.58, -82.81 -73.12 M-82.58 -74.01 C-80.64 -75.38, -78.05 -78.75, -75.45 -84.36 M-83.02 -73.84 C-80.99 -76.2, -77.84 -80.47, -74.9 -85.59 M-75.03 -85.89 C-71.18 -88.38, -68.04 -92.88, -65.3 -96.96 M-74.13 -84.8 C-71.31 -90.28, -68.73 -93.96, -65.59 -98 M-67.27 -98.35 C-62.99 -101.29, -61.98 -104.14, -56.91 -110.89 M-65.57 -97.28 C-63.68 -101.82, -61.24 -105.26, -57.33 -110.65 M-57.55 -109.95 C-57.43 -110.29, -57.2 -110.48, -57.26 -110.69 M-57.48 -109.96 C-57.41 -110.23, -57.24 -110.5, -57.2 -110.68 M-57.18 -110.72 C-57.25 -110.83, -57.21 -110.87, -57.16 -111.32 M-57.23 -110.65 C-57.19 -110.78, -57.18 -110.96, -57.22 -111.32 M-57.22 -111.37 C-57.27 -111.44, -57.41 -111.68, -57.5 -111.82 M-57.24 -111.29 C-57.28 -111.5, -57.36 -111.66, -57.52 -111.89 M-57.49 -111.88 C-57.64 -112.02, -57.79 -112.03, -58.1 -112.37 M-57.51 -111.86 C-57.68 -112.06, -57.84 -112.23, -58.07 -112.36 M-57.99 -112.29 C-58.15 -112.49, -58.48 -112.58, -58.88 -112.79 M-58.05 -112.41 C-58.35 -112.52, -58.62 -112.71, -58.84 -112.83 M-58.82 -112.87 C-59.02 -112.88, -59.22 -112.99, -59.93 -113.23 M-58.77 -112.75 C-59.15 -112.96, -59.57 -113.03, -59.88 -113.11 M-59.94 -113.1 C-60 -113.27, -60.31 -113.39, -61.01 -113.53 M-59.89 -113.19 C-60.09 -113.21, -60.46 -113.27, -61.06 -113.42 M-60.9 -113.56 C-61.33 -113.41, -61.51 -113.46, -62.3 -113.61 M-61.08 -113.44 C-61.41 -113.57, -61.74 -113.64, -62.47 -113.69 M-62.23 -113.69 C-63.61 -113.88, -64.64 -113.79, -65.91 -114.07 M-62.45 -113.6 C-63.25 -113.77, -63.69 -113.92, -65.85 -114.02 M-65.59 -113.96 C-66.97 -114.1, -68.44 -114.19, -69.33 -114.09 M-65.57 -113.87 C-67.21 -113.91, -68.57 -113.96, -69.46 -114.17 M-69.13 -114.29 C-71.51 -114.34, -73.18 -114.5, -73.83 -113.87 M-69.49 -114.36 C-70.74 -114.14, -71.79 -114.02, -73.73 -114.25 M-74.08 -114.57 C-75.38 -113.82, -76.41 -114.47, -78.05 -114.09 M-73.7 -114.32 C-74.86 -113.86, -75.64 -114.26, -78.16 -114.14 M-78.97 -113.26 C-80.88 -113.49, -82.48 -113.24, -87.02 -113.87 M-78.14 -114.02 C-81.57 -113.59, -85.46 -113.56, -87.64 -113.83 M-87.8 -113.81 C-88.51 -113.22, -89.77 -113.34, -91.71 -112.83 M-87.31 -113.48 C-88.93 -113.49, -91 -113.37, -91.75 -113.09 M-92.1 -113.06 C-92.61 -113.22, -94.11 -112.9, -95.92 -112.49 M-91.74 -113.23 C-93.28 -112.99, -94.85 -112.88, -96 -112.96 M-96.24 -112.59 C-97.67 -112.48, -98.83 -112.3, -99.32 -112.65 M-96 -112.88 C-97.32 -112.95, -98.68 -112.76, -99.61 -112.61 M-99.46 -112.44 C-100.45 -112.48, -100.85 -112.3, -102.77 -112.57 M-99.59 -112.63 C-100.68 -112.51, -101.62 -112.45, -102.56 -112.28 M-102.58 -112.4 C-103.01 -112.32, -103.31 -112.27, -103.99 -112.41 M-102.72 -112.4 C-103.21 -112.34, -103.66 -112.36, -103.88 -112.3 M-103.87 -112.38 C-104.37 -112.23, -104.68 -112.21, -104.98 -112.24 M-103.91 -112.27 C-104.25 -112.21, -104.6 -112.26, -105.01 -112.21 M-105.08 -112.32 C-105.36 -112.29, -105.62 -112.21, -105.9 -112.2 M-105 -112.27 C-105.31 -112.19, -105.61 -112.22, -105.87 -112.25 M-105.93 -112.24 C-105.97 -112.23, -106.15 -112.17, -106.43 -112.2 M-105.87 -112.19 C-106.13 -112.2, -106.32 -112.24, -106.47 -112.24 M-106.53 -112.26 C-107.28 -112.45, -108.61 -112.44, -110.29 -111.72 M-106.58 -112.27 C-107.93 -112.12, -109.77 -111.94, -110.58 -111.79 M-110.54 -111.74 C-111.06 -111.92, -111.52 -111.98, -112.31 -112.04 M-110.59 -111.89 C-110.95 -111.85, -111.56 -111.92, -112.39 -111.8 M-112.37 -111.83 C-112.99 -111.97, -113.46 -112.02, -114.37 -112.14 M-112.36 -111.85 C-112.95 -111.94, -113.49 -111.96, -114.26 -112.15 M-114.2 -112.11 C-114.64 -112.25, -115.1 -112.5, -115.69 -112.76 M-114.17 -112.12 C-114.57 -112.26, -115.11 -112.55, -115.79 -112.83 M-115.79 -112.8 C-116.22 -113.31, -116.75 -113.43, -117.16 -113.97 M-115.81 -112.72 C-116.22 -113.16, -116.58 -113.38, -117.11 -113.84 M-117.01 -113.81 C-117.38 -114.26, -117.54 -114.95, -118.04 -115.34 M-117.05 -113.93 C-117.18 -114.29, -117.51 -114.66, -117.98 -115.44 M-117.95 -115.52 C-118.1 -115.75, -118.15 -116.03, -118.27 -116.56 M-117.93 -115.48 C-118.05 -115.75, -118.11 -116.03, -118.3 -116.51 M-118.36 -116.55 C-118.34 -116.89, -118.27 -117.21, -118.56 -117.69 M-118.32 -116.54 C-118.28 -116.9, -118.35 -117.26, -118.49 -117.73 M-117.94 -118.35 C-119.34 -120.23, -119.55 -120.96, -120.14 -124.74 M-118.85 -117.62 C-118.95 -120.71, -119.13 -123.59, -119.18 -125.6 M-119.59 -125.37 C-119.51 -128.88, -119.31 -130.06, -119.88 -133.28 M-119.12 -125.42 C-119.94 -127.67, -120.22 -130.24, -119.85 -133.06 M-119.53 -133.51 C-120.32 -134.36, -121.02 -136.95, -121.31 -140.55 M-120.24 -133.56 C-120.87 -135.64, -120.59 -137.84, -120.84 -141.01 M-121.74 -140.57 C-122.07 -142.86, -121.62 -145.94, -121.84 -148.17 M-121.09 -140.98 C-121.07 -142.27, -121.32 -144.35, -122.25 -148.76 M-121.94 -148.04 C-122.15 -147.09, -121.89 -146.24, -122.85 -142.7 M-121.89 -148.76 C-122.39 -146.73, -122.52 -144.79, -122.48 -143.18 M-122.88 -142.72 C-122.37 -140.84, -122.16 -139.22, -122.52 -138.15 M-122.23 -142.98 C-122.39 -141.42, -122.44 -140.17, -122.94 -137.73 M-122.35 -138.03 C-122.84 -136.14, -123.06 -134.62, -123.34 -133.04 M-122.54 -137.95 C-122.74 -136.89, -123.08 -135.6, -123.1 -133.35 M-123.14 -133.5 C-122.96 -132.08, -122.77 -131.45, -123.34 -128.94 M-122.95 -133.17 C-123.04 -132.23, -123.27 -131.26, -123.25 -129.38 M-123.29 -129.44 C-123.35 -128.2, -123.55 -127.19, -123.58 -125.56 M-123.24 -129.15 C-123.24 -128.17, -123.39 -127.17, -123.42 -125.48 M-123.11 -125.41 C-123.75 -124.6, -123.36 -123.71, -123.67 -122.31 M-123.4 -125.34 C-123.41 -124.32, -123.61 -122.86, -123.56 -121.98 M-123.83 -122.42 C-123.41 -121.27, -123.46 -120.75, -123.84 -119.14 M-123.57 -122.27 C-123.63 -121.2, -123.6 -119.9, -123.58 -119.09 M-123.52 -119.13 C-123.88 -118.3, -123.9 -117.61, -123.75 -116.45 M-123.74 -119.23 C-123.65 -118.45, -123.53 -117.85, -123.74 -116.45 M-123.56 -116.38 C-123.53 -115.97, -123.63 -115.52, -123.43 -114.38 M-123.62 -116.63 C-123.6 -115.76, -123.68 -115.13, -123.52 -114.25 M-123.42 -114.08 C-123.41 -113.54, -123.59 -113.15, -123.21 -112.24 M-123.67 -114.28 C-123.55 -113.47, -123.43 -112.78, -123.32 -112.35 M-123.5 -112.12 C-123.3 -111.69, -123.19 -111.31, -123 -110.72 M-123.44 -112.28 C-123.37 -111.71, -123.11 -111.03, -123.11 -110.57 M-123.21 -110.67 C-123.02 -110.31, -122.99 -109.79, -122.56 -109.11 M-123.04 -110.62 C-122.88 -110.04, -122.8 -109.36, -122.64 -109.21 M-122.71 -109.08 C-122.54 -108.73, -122.26 -108.36, -122.24 -107.95 M-122.71 -109.13 C-122.55 -108.93, -122.41 -108.54, -122.18 -107.89 M-122.08 -107.95 C-122.03 -107.73, -121.6 -107.22, -121.58 -106.96 M-122.09 -107.99 C-121.93 -107.72, -121.74 -107.37, -121.5 -106.9 M-121.5 -106.88 C-121.21 -106.78, -121.16 -106.58, -120.62 -106.17 M-121.43 -106.91 C-121.22 -106.68, -120.88 -106.41, -120.61 -106.19 M-120.61 -106.12 C-120.26 -105.93, -120.08 -105.88, -119.53 -105.58 M-120.62 -106.24 C-120.23 -105.97, -119.79 -105.68, -119.62 -105.59 M-119.55 -105.64 C-119.3 -105.51, -119.14 -105.47, -118.31 -105.23 M-119.55 -105.62 C-119.22 -105.47, -118.77 -105.25, -118.48 -105.13 M-118.35 -105.08 C-118.14 -104.99, -117.7 -104.93, -117.13 -104.7 M-118.37 -105.14 C-118.21 -105.03, -117.87 -104.93, -117.09 -104.8 M-117 -104.93 C-116.78 -104.61, -116.32 -104.74, -115.59 -104.51 M-117.08 -104.75 C-116.42 -104.75, -115.76 -104.66, -115.43 -104.58 M-115.56 -104.56 C-115.07 -104.48, -114.44 -104.62, -113.89 -104.58 M-115.56 -104.65 C-115.04 -104.6, -114.56 -104.56, -113.64 -104.39 M-113.89 -104.37 C-113.12 -104.4, -112.54 -104.47, -111.8 -104.3 M-113.82 -104.46 C-113.04 -104.43, -112.43 -104.32, -111.79 -104.47 M-111.74 -104.33 C-110.94 -104.39, -110.49 -104.58, -109.35 -104.5 M-111.81 -104.33 C-110.89 -104.36, -110.25 -104.49, -109.56 -104.3 M-109.32 -104.23 C-108.46 -104.17, -107.97 -104.42, -106.79 -104.52 M-109.49 -104.32 C-108.61 -104.4, -107.94 -104.38, -107.1 -104.5 M-107.26 -104.24 C-105.87 -104.62, -104.71 -104.15, -104.29 -104.59 M-107.12 -104.44 C-106.2 -104.54, -105.3 -104.39, -104.22 -104.28 M-104.58 -104.59 C-103.4 -104.18, -102.77 -104.49, -101.41 -104.11 M-104.31 -104.45 C-103.62 -104.39, -103.03 -104.42, -101.23 -104.37 M-101.32 -104.39 C-100.36 -104.39, -100.25 -104.64, -97.77 -104.57 M-101.27 -104.47 C-99.99 -104.45, -98.74 -104.39, -98.17 -104.33 M-97.98 -104.04 C-97.17 -104.46, -96.83 -104.31, -94.76 -104.27 M-97.86 -104.23 C-97.2 -104.4, -96.41 -104.29, -94.4 -104.22 M-94.41 -104.48 C-93.23 -103.78, -92.12 -104.08, -90.4 -103.85 M-94.57 -104.18 C-93.67 -103.94, -92.54 -104.18, -90.7 -103.8 M-90.61 -104.14 C-89.36 -103.71, -88.71 -103.95, -86.47 -103.39 M-90.78 -103.89 C-88.99 -103.67, -87.54 -103.53, -86.58 -103.83 M-86.2 -103.4 C-85.28 -103.11, -84.02 -103.13, -82.4 -103.15 M-86.64 -103.54 C-85.36 -103.55, -84.23 -103.17, -82.08 -103.01 M-81.6 -102.74 C-80.57 -103.04, -78.46 -102.59, -77.43 -102.85 M-81.97 -103.01 C-80.31 -102.96, -79.27 -102.93, -77.1 -102.65 M-76.64 -102.87 C-75.16 -102.38, -73.27 -101.76, -72.02 -101.55 M-77.29 -102.36 C-76.14 -102.48, -75.04 -102.17, -71.94 -101.65 M-71.97 -101.77 C-72.07 -101.8, -72.16 -101.81, -72.24 -101.85 M-71.98 -101.77 C-72.09 -101.8, -72.18 -101.82, -72.24 -101.83 M-72.24 -101.83 C-72.21 -101.83, -72.17 -101.83, -72.16 -101.82 M-72.24 -101.83 C-72.21 -101.83, -72.18 -101.83, -72.16 -101.83 M-72.19 -101.83 C-72.09 -101.8, -71.96 -101.81, -71.86 -101.74 M-72.16 -101.82 C-72.06 -101.8, -71.95 -101.79, -71.82 -101.74 M-71.82 -101.76 C-71.71 -101.68, -71.59 -101.65, -71.34 -101.65 M-71.84 -101.72 C-71.74 -101.71, -71.59 -101.69, -71.34 -101.62 M-71.22 -101.63 C-70.97 -101.56, -70.58 -101.27, -70.19 -101.26 M-71.38 -101.63 C-71.03 -101.46, -70.75 -101.44, -70.16 -101.21 M-70.17 -101.22 C-69.88 -100.97, -69.56 -100.72, -69.21 -100.55 M-70.11 -101.17 C-69.97 -101.07, -69.73 -100.88, -69.24 -100.57 M-68.91 -101.26 C-73.74 -94.78, -76.56 -90.03, -81.04 -80.19 M-69.95 -100.9 C-73.6 -94.82, -77.95 -88.37, -82.2 -81.26 M-84.76 -81.78 C-85.43 -74.85, -90.94 -71.56, -94.43 -64.56 M-82.29 -82.29 C-88.14 -76.16, -93.16 -68.9, -96.19 -64.57 M-94.16 -62.77 C-100.18 -55.79, -107.37 -48.35, -109.89 -43.91 M-95.32 -64.65 C-100.72 -57.62, -103.15 -52.7, -108.87 -45.28 M-107.18 -44.18 C-113.74 -40.02, -115.42 -34.22, -120.32 -24.29 M-108.96 -45.35 C-110.95 -40.68, -113.79 -35.68, -121.37 -25.55 M-121.4 -25.69 C-121.3 -25.84, -121.18 -25.94, -121.1 -26.11 M-121.38 -25.71 C-121.32 -25.79, -121.23 -25.91, -121.06 -26.15 M-121.07 -26.13 C-121.03 -26.19, -120.97 -26.21, -120.94 -26.31 M-121.05 -26.15 C-121 -26.2, -120.95 -26.25, -120.92 -26.31 M-120.92 -26.31 C-120.93 -26.29, -120.95 -26.27, -120.96 -26.26 M-120.92 -26.31 C-120.93 -26.3, -120.94 -26.29, -120.96 -26.26 M-120.98 -26.24 C-121.01 -26.2, -121.06 -26.11, -121.12 -26.03 M-120.96 -26.25 C-121.01 -26.2, -121.06 -26.13, -121.11 -26.04 M-121.16 -25.98 C-121.25 -25.88, -121.42 -25.5, -121.51 -25.47 M-121.14 -26.06 C-121.24 -25.87, -121.32 -25.77, -121.62 -25.4 M-121.53 -25.41 C-121.67 -25.21, -121.87 -25.07, -122.05 -24.79 M-121.55 -25.4 C-121.77 -25.19, -121.9 -25, -122.03 -24.87 M-122.02 -24.84 C-121.94 -24.94, -121.86 -25.01, -121.83 -25.07 M-122.01 -24.83 C-121.93 -24.94, -121.86 -25.03, -121.81 -25.09 M-122.15 -25.43 C-122.87 -24.12, -123.79 -22.4, -124.81 -21.42 M-121.66 -24.9 C-123.01 -23.52, -124.08 -22.18, -124.86 -21.51 M-124.69 -21.22 C-125 -20.26, -125.72 -20.28, -127.31 -17.89 M-124.75 -21.49 C-125.73 -20.56, -126.24 -19.51, -127.49 -17.95 M-127.11 -17.7 C-128.31 -16.8, -128.86 -16.35, -129.7 -14.76 M-127.28 -18.24 C-128.11 -16.76, -129.09 -15.82, -129.64 -15.28 M-129.43 -15 C-130.48 -14.13, -131 -13.51, -131.82 -12.23 M-129.68 -15.29 C-129.92 -14.39, -130.61 -13.91, -131.43 -12.55 M-131.54 -12.27 C-131.73 -11.79, -132.36 -11.27, -132.92 -10.3 M-131.6 -12.43 C-132.08 -11.48, -132.86 -10.62, -133.31 -10.08 M-132.96 -9.85 C-133.54 -9.71, -133.56 -8.79, -134.32 -7.96 M-133.09 -10.12 C-133.56 -9.43, -134.02 -8.67, -134.6 -7.9 M-134.59 -7.83 C-134.89 -7.05, -135.08 -6.57, -135.7 -5.58 M-134.46 -7.86 C-134.84 -7.13, -135.09 -6.29, -135.5 -5.48 M-135.66 -5.38 C-135.66 -4.89, -135.89 -4.26, -136.41 -3.59 M-135.56 -5.5 C-135.71 -4.97, -136.09 -4.37, -136.31 -3.36 M-136.11 -3.17 C-136.36 -2.68, -136.67 -1.78, -136.95 -1.22 M-136.4 -3.44 C-136.33 -2.83, -136.51 -2.37, -136.81 -1.18 M-137.03 -1.07 C-136.94 -0.47, -136.72 0.49, -137.13 1.47 M-136.9 -1.08 C-136.9 -0.25, -136.86 0.31, -137.03 1.42 M-137.09 1.34 C-137.2 2.02, -136.95 2.94, -137.27 4 M-137.16 1.21 C-136.96 2.1, -137 2.88, -137.07 4.06 M-137 4.19 C-137.04 4.65, -137.17 5.46, -136.83 6.84 M-137.02 3.93 C-136.84 4.59, -136.85 5.09, -136.87 6.93 M-136.84 7.22 C-136.67 7.85, -136.72 8.35, -136.11 10.5 M-136.9 6.88 C-136.72 7.66, -136.36 8.55, -136.18 10.29 M-135.91 9.97 C-135.74 11.17, -136.22 12.09, -135.6 14 M-136.45 10.05 C-136.13 11.12, -135.7 12.24, -135.61 14.06 M-135.96 14.24 C-134.82 15.02, -135.19 17.23, -134.68 17.88 M-135.7 14.02 C-135.1 15.72, -134.78 17.35, -134.76 18.25 M-134.46 17.73 C-134.5 19.96, -133.83 20.75, -134 23.37 M-134.47 18.32 C-134.4 19.12, -134.33 20.53, -133.45 22.88 M-133.63 22.93 C-133.21 23.37, -132.89 23.51, -132.68 23.8 M-133.51 22.97 C-133.2 23.16, -133.05 23.41, -132.59 23.87 M-132.47 23.8 C-132.31 24.01, -131.91 24.23, -131.28 24.65 M-132.55 23.87 C-132.23 24.03, -131.79 24.37, -131.14 24.58 M-131.1 24.79 C-130.84 24.56, -130.17 24.75, -129.19 25.11 M-131.13 24.72 C-130.4 24.8, -129.87 25.1, -129.2 25.27 M-129.33 25.39 C-128.39 25.18, -127.27 25.47, -126.87 25.61 M-129.06 25.34 C-128.15 25.38, -127.36 25.59, -126.64 25.54 M-126.78 25.79 C-126.27 25.97, -125.39 25.53, -123.68 26.06 M-126.61 25.79 C-125.85 25.85, -124.89 25.76, -124 25.92 M-123.9 26.25 C-122.84 26.16, -122.48 26.21, -120.94 25.93 M-124.06 25.9 C-122.9 25.94, -122.02 26.18, -120.81 26.31 M-120.64 26.23 C-119.11 26.66, -117.74 26.27, -114.79 25.79 M-120.98 25.96 C-119 26.47, -116.7 26.14, -113.83 25.95 M-114.13 25.73 C-112.25 26.02, -110.97 26.64, -107.79 25.66 M-114.07 26.2 C-111.85 26.06, -110.14 26.44, -107.47 26.34 M-107.47 26.18 C-106.27 26.19, -105.83 26.28, -103.62 26.09 M-107.05 26.18 C-106.34 26.01, -105.25 26.16, -103.86 26.08 M-103.9 25.73 C-103.26 25.85, -102.19 25.9, -100.69 25.99 M-103.92 25.98 C-102.8 25.94, -101.79 25.83, -100.54 25.95 M-100.96 26.02 C-99.5 25.6, -98.1 25.7, -97.67 25.58 M-100.76 25.91 C-99.7 25.98, -99.08 25.87, -97.73 25.67 M-97.66 25.86 C-96.85 25.84, -96.33 25.8, -95.35 25.66 M-97.68 25.69 C-97.01 25.74, -96.06 25.7, -95.09 25.64 M-95.32 25.78 C-94.82 25.62, -94.23 25.69, -92.94 25.51 M-95.15 25.78 C-94.61 25.63, -93.8 25.56, -92.93 25.58 M-92.93 25.54 C-92.7 25.62, -92.1 25.76, -91.42 25.56 M-93.02 25.71 C-92.69 25.73, -92.31 25.66, -91.27 25.75 M-91.15 25.86 C-90.3 25.69, -89.43 25.35, -89.25 25.04 M-91.42 25.58 C-90.93 25.59, -90.19 25.4, -89.06 25.21 M-88.83 25.39 C-88.49 24.88, -87.68 25.04, -86.68 24.56 M-89.11 25.15 C-88.23 25.13, -87.59 24.88, -86.65 24.69 M-86.34 24.75 C-85.8 24.7, -85.42 24.62, -84.01 24.27 M-86.54 24.63 C-86.09 24.62, -85.41 24.61, -83.85 24.46 M-83.66 24.53 C-82.7 24.21, -82.2 24.54, -80.97 24.16 M-83.96 24.3 C-83.12 24.26, -82.55 24.23, -80.99 24.23 M-80.86 24.08 C-79.42 24.61, -77.52 24.25, -74.97 23.49 M-81.04 24.08 C-78.82 24.15, -76.4 23.67, -74.64 24.13 M-74.34 23.54 C-72.31 24.4, -70.15 24.26, -67.96 23 M-74.71 24.14 C-71.89 23.58, -69.68 23.75, -67.47 23.33 M-67.35 23.37 C-65.77 23.06, -63.73 23.53, -60.47 23.59 M-67.32 23.96 C-64.56 23.45, -61.69 23.42, -60.1 23.54 M-59.45 24.09 C-58.48 24.24, -56.13 23.79, -51.92 23.09 M-60.51 23.93 C-56.97 23.46, -54.21 23.84, -52.65 23.37 M-52.52 23.37 C-49.61 23.6, -47.01 24.06, -44.22 23.39 M-52.32 23.18 C-50.73 23.11, -48.25 23.13, -44.89 22.91 M-45.19 23.5 C-42.91 23.64, -40.8 23.59, -37.73 22.76 M-44.83 23.09 C-42.69 23, -41.06 22.66, -37.15 22.92 M-37.91 23.45 C-35.14 23.16, -33.74 23.11, -30.19 21.72 M-37.42 22.47 C-34.79 22.78, -32.13 22.06, -29.68 22.25 M-30.52 21.89 C-27.65 20.82, -24.41 20.87, -23.41 21.17 M-29.99 21.78 C-28.47 21.72, -26.29 21.54, -22.78 20.69 M-22.94 20.97 C-21.93 20.78, -21.32 20.71, -19.58 20.15 M-23.05 20.76 C-21.77 20.66, -20.62 20.38, -19.85 20.12 M-19.57 20.3 C-18.9 19.69, -17.38 19.12, -16.59 19.33 M-19.92 20.12 C-19.02 19.81, -17.91 19.48, -16.7 19.32 M-16.93 18.99 C-15.95 18.7, -14.98 18.38, -13.67 18.28 M-16.63 19.25 C-15.95 18.9, -15.4 18.48, -13.88 18.11 M-14.05 17.87 C-13.43 18.12, -12.64 17.52, -10.94 16.62 M-14.03 18.24 C-13 17.82, -12.24 17.45, -11.09 16.8 M-11.43 17.06 C-10.8 16.68, -10.12 16.44, -8.71 15.39 M-11.31 16.78 C-10.42 16.39, -9.36 15.92, -8.86 15.48 M-8.73 15.44 C-8.11 14.87, -7.81 14.74, -6.55 14.08 M-8.72 15.44 C-8.27 15.02, -7.83 14.84, -6.55 14 M-6.71 13.93 C-6.14 13.4, -5.57 12.79, -4.65 12.34 M-6.69 13.89 C-6.14 13.31, -5.42 12.95, -4.71 12.13 M-4.64 12.04 C-4.44 11.95, -3.77 11.29, -2.87 10.41 M-4.79 12.22 C-4.35 11.84, -4.12 11.27, -3.12 10.33 M-3.23 9.96 C-2.77 9.44, -2.31 8.63, -1.97 7.93 M-3.18 10.32 C-2.55 9.52, -2.11 8.78, -1.72 7.97 M-1.62 7.97 C-1.37 7.59, -1.61 6.82, -0.72 5.41 M-1.78 8.02 C-1.5 7.23, -1.1 6.33, -0.83 5.69 M-0.66 5.83 C-0.84 4.8, -0.37 3.68, -0.14 2.66 M-0.86 5.5 C-0.56 4.89, -0.44 4.06, -0.23 2.91 M-0.03 3.18 C-0.06 1.5, 0.05 0.87, -0.15 0.26 M-0.33 3.06 C-0.17 2.32, -0.15 1.58, 0.11 0.12 M0 0 C0 0, 0 0, 0 0 M0 0 C0 0, 0 0, 0 0 M0 0 C0 0, 0 0, 0 0 M0 0 C0 0, 0 0, 0 0" stroke="#000000" stroke-width="1" fill="none"/></g></g></svg>