<svg version="1.1" xmlns="http://www.w3.org/2000/svg" viewBox="0 0 202.99714666293403 79.1400211140051" width="608.9914399888021" height="237.42006334201528">
  <!-- svg-source:excalidraw -->
  
  <defs>
    <style class="style-fonts">
      @font-face {
        font-family: "Virgil";
        src: url("https://excalidraw.com/Virgil.woff2");
      }
      @font-face {
        font-family: "Cascadia";
        src: url("https://excalidraw.com/Cascadia.woff2");
      }
    </style>
  </defs>
  <g stroke-linecap="round"><g transform="translate(11.297793843335967 66.90146719214863) rotate(0 36.944761086265316 -27.331456635146083)" fill-rule="evenodd"><path d="M-1.16 1.75 L26.48 -25.96 L0.13 -56.85 L18.98 -57.14 L38.67 -37.36 L57.58 -57.41 L73.6 -56.22 L44.46 -26.61 L74.06 2.24 L58.11 -1.38 L37.87 -19.92 L19.76 -1.21 L1.37 1.08" stroke="none" stroke-width="0" fill="#6c1d5f" fill-rule="evenodd"></path><path d="M-0.34 -0.71 C7.42 -9.26, 17.1 -13.59, 27.99 -25.74 M0.72 -0.18 C8.25 -8.3, 18.83 -17.23, 28.53 -26.82 M26.95 -28.29 C22.99 -33.2, 15.8 -42.32, 0.37 -54.45 M28.48 -28.45 C18.34 -37.96, 8.48 -48.53, -0.17 -55.95 M-0.99 -54.7 C6.41 -55.63, 8.99 -55.1, 18.65 -55.28 M0.82 -55.55 C7.61 -57.15, 14.73 -57.02, 18.66 -55.88 M16.54 -55.49 C21.68 -52.97, 26.86 -48.11, 38.62 -38.92 M18.97 -56.7 C24.73 -49.79, 29.46 -43.78, 37.34 -36.3 M35.99 -35.27 C41.09 -41.75, 48.66 -48.98, 54.13 -55.56 M38.18 -37.13 C41.57 -43.25, 46.88 -48.19, 55.23 -55.82 M54.59 -55.24 C62.64 -56.57, 66.24 -57.26, 74.65 -55.36 M55.62 -56.34 C60.28 -56.68, 66.48 -56.96, 73.16 -56.84 M71.55 -56.01 C62.57 -47.06, 51.85 -37.68, 46.74 -27.58 M74.09 -56.9 C67.19 -50.78, 59.29 -43.77, 44.85 -27.11 M46.72 -29.49 C51.13 -20.75, 58.1 -14.06, 75.19 2.24 M46.17 -28.83 C53.75 -17.76, 63.83 -9.38, 74.82 1.24 M73.5 -0.99 C68.01 1.83, 62.17 0.21, 55.04 0.04 M73.44 0.8 C68.16 0.57, 60.85 -0.19, 56.95 -0.37 M57.64 -1.05 C48.64 -5.97, 43.15 -14.25, 36.25 -18.78 M55.34 0.09 C50.75 -4.53, 44.14 -10.8, 36.17 -17.99 M35.94 -20.42 C31.94 -14.38, 26.55 -9.03, 17.36 -0.07 M36.88 -18.84 C31.66 -15.75, 29.67 -11.04, 18.4 0.61 M19.63 1.06 C11.52 -1.68, 6.21 -0.29, -1.3 -0.05 M18.83 -0.3 C14.57 0.65, 10.37 0.58, 0.79 0.48 M0 0 C0 0, 0 0, 0 0 M0 0 C0 0, 0 0, 0 0" stroke="#000" stroke-width="1" fill="none"></path></g></g><g stroke-linecap="round"><g transform="translate(105.05299524766997 45.05654316915184) rotate(0 -14.58299175018874 -7.039812035073169)" fill-rule="evenodd"><path d="M-0.32 -1.59 L-1.29 2.7 L-1.92 5.75 L-5.26 7.68 L-7.18 9.41 L-9.73 8.05 L-13.72 9.07 L-16.66 7.64 L-23.05 9.05 L-27.77 6.51 L-26.96 3.3 L-27.53 2.11 L-29.77 -1.94 L-31.08 -3.02 L-29.59 -11.14 L-26.67 -15.86 L-21.53 -19.78 L-15.31 -24.49 L-12.15 -24.32 L-5.43 -22.38 L-6.05 -18.79 L-1.06 -18.56 L-2.94 -16.17 L-1.23 -14.21 L2.08 -6.6 L-22.37 -3.49 L-24.74 -2.56 L-21.99 2.32 L-18.41 3.65 L-13.97 4.5 L-12.09 3.49 L-8.14 -0.27 L-9.41 0.72 L0.37 -2.32" stroke="none" stroke-width="0" fill="#6c1d5f" fill-rule="evenodd"></path><path d="M-0.01 -0.2 C-0.3 1.12, -1.16 2.04, -1.38 2.08 M-0.13 0.1 C-0.46 0.97, -1.05 1.88, -1.49 2.26 M-1.18 2.54 C-1.66 2.84, -2.36 3.68, -3.07 4.79 M-1.44 2.24 C-1.88 2.63, -2.32 3.33, -3.26 4.49 M-2.94 4.67 C-4.11 5.55, -4.8 6.27, -5.25 6.67 M-3.12 4.4 C-3.71 5.06, -4.46 5.88, -5.54 6.61 M-5.74 6.35 C-6.37 6.7, -6.6 7.09, -7.97 7.89 M-5.38 6.7 C-6.12 7.06, -6.68 7.41, -8.02 8.07 M-8.22 8.17 C-8.67 8.29, -9.97 9.01, -10.88 9.67 M-8.11 7.94 C-9.1 8.49, -10.2 9.16, -10.77 9.38 M-10.49 9.39 C-11.8 9.4, -12.33 10.01, -14.71 9.79 M-10.93 9.4 C-11.97 9.48, -13.45 9.7, -14.54 9.95 M-14.88 9.74 C-15.83 9.47, -16.02 9.69, -18.78 9.5 M-14.56 9.64 C-15.6 9.53, -16.47 9.76, -18.65 9.22 M-18.82 9.35 C-19.75 8.95, -20.14 9.08, -21.56 8.14 M-18.66 9.53 C-19.12 9.21, -19.73 9.06, -21.47 8.46 M-21.38 8.76 C-22.86 7.27, -25.45 6.27, -25.76 6.28 M-21.5 8.48 C-22.87 7.68, -23.51 7, -25.9 6.07 M-26.07 5.88 C-26.47 4.83, -27.15 4.26, -27.65 3.75 M-25.91 5.97 C-26.52 5.15, -27.03 4.5, -27.67 3.71 M-27.56 3.47 C-28.27 2.51, -29.1 1.66, -29.45 1.14 M-27.75 3.51 C-27.88 3.11, -28.41 2.64, -29.11 1.29 M-29.3 0.94 C-29.37 0.52, -29.94 -0.09, -30.51 -1.65 M-29.19 1.26 C-29.54 0.32, -29.87 -0.6, -30.4 -1.56 M-30.37 -1.26 C-30.68 -2.1, -30.56 -2.63, -31.25 -4.2 M-30.29 -1.38 C-30.58 -2.3, -30.77 -3.29, -31.18 -3.93 M-31.26 -3.82 C-31.31 -5.19, -31.27 -6.49, -31.74 -11.03 M-31.09 -3.72 C-30.75 -6.72, -30.77 -9, -31.05 -11.34 M-30.54 -11.1 C-29.41 -14.24, -29.48 -15.37, -28.2 -17.18 M-30.84 -11.04 C-29.87 -13.69, -29.02 -16.11, -27.94 -17.73 M-28.43 -17.83 C-25.41 -19.29, -24.34 -21.1, -23.34 -21.83 M-27.68 -17.84 C-26.19 -19.03, -24.46 -20.33, -23.05 -21.4 M-22.86 -22.07 C-21.21 -22.36, -19.32 -22.28, -17.13 -24.03 M-23.05 -21.36 C-20.9 -22.05, -19.06 -22.93, -17.26 -23.47 M-17.53 -23.39 C-14.78 -23.15, -13.42 -23.49, -11.63 -23.01 M-16.91 -23.61 C-15.35 -23.07, -13.59 -23.28, -11.67 -22.72 M-12.35 -23.21 C-10.13 -22.79, -8.81 -22.15, -7.19 -20.92 M-12.13 -22.69 C-10.4 -22.2, -9.03 -22.01, -7.31 -20.96 M-7.18 -21.05 C-6.49 -20.77, -5.28 -19.93, -4.62 -19.34 M-7.11 -21.29 C-6.58 -20.62, -5.95 -20.4, -4.63 -19.34 M-4.59 -19.62 C-4.27 -18.81, -3.26 -17.57, -2.97 -17.26 M-4.88 -19.4 C-4.35 -18.74, -3.88 -18.26, -2.87 -17.08 M-2.73 -17.06 C-2.6 -16.54, -2.26 -16.01, -1.39 -15.23 M-2.97 -17.2 C-2.2 -16.46, -1.47 -15.69, -1.28 -15.33 M-1.37 -15.48 C-0.67 -14.26, -0.14 -13.73, 0.25 -12.73 M-1.37 -15.4 C-0.83 -14.59, -0.6 -13.78, -0.14 -12.81 M-0.23 -12.04 C0.88 -11.12, 0.97 -8, 0.41 -4.19 M0.01 -12.51 C0.35 -11.15, 0.69 -8.64, 0.99 -4.27 M2.57 -5.97 C-7.71 -4.74, -14.89 -3.78, -25.4 -5.98 M1.47 -5.06 C-4.23 -5.17, -11.44 -4.01, -24.71 -5.44 M-24.04 -4.73 C-24.07 -4.18, -23.95 -3.02, -24.09 -0.87 M-23.8 -4.98 C-23.93 -3.31, -24.06 -1.76, -23.92 -0.76 M-24.36 -0.35 C-22.83 -0.07, -22.11 0.89, -21.21 1.44 M-24.12 -0.73 C-23.39 0.07, -22.41 0.62, -21.44 1.32 M-21.57 1.63 C-20.24 1.85, -19.58 1.98, -18.73 2.44 M-21.16 1.36 C-20.41 1.81, -19.28 2.38, -18.53 2.7 M-18.71 2.4 C-17.11 3.09, -16.17 2.96, -15.5 2.71 M-18.54 2.76 C-17.53 2.63, -16.87 2.93, -15.41 2.91 M-15.22 2.94 C-13.86 2.88, -12.48 2.57, -11.87 2.21 M-15.27 2.85 C-13.99 2.71, -12.73 2.7, -11.89 2.44 M-12.22 2.67 C-11.09 1.99, -10.9 1.86, -9.28 1.21 M-12.17 2.54 C-10.94 2.01, -10.15 1.49, -9.39 1.02 M-9.45 1.31 C-8.69 0.41, -8.11 -0.17, -7.78 -0.61 M-9.33 0.96 C-8.87 0.64, -8.6 0.15, -7.75 -0.89 M-7.53 -0.9 C-5.48 -0.28, -2.4 -0.93, -0.58 -0.7 M-7.46 -0.52 C-5.44 -0.63, -2.9 -0.95, 0.16 -0.44 M-0.04 -0.59 C0.01 -0.45, -0.07 -0.21, 0 0.02 M-0.09 -0.62 C-0.08 -0.48, -0.04 -0.31, 0.03 0.03" stroke="#000" stroke-width="1" fill="none"></path></g></g><g stroke-linecap="round"><g transform="translate(81.06359049090861 35.07478545044842) rotate(0 9.311028319820252 -2.7138670179419933)" fill-rule="evenodd"><path d="M-1.41 -0.34 L18.5 -0.75 L16.7 -0.79 L15.79 -5.04 L12.16 -4.3 L10.19 -6.44 L9.37 -6.3 L6.56 -6.16 L5.18 -6.08 L0.99 -2.8 L-1.14 -0.55 L-0.41 -0.45" stroke="none" stroke-width="0" fill="#fff" fill-rule="evenodd"></path><path d="M1.7 1.42 C4.41 1.78, 9.48 -0.97, 18.81 1.61 M0.52 0.55 C5.19 0.59, 9.36 -0.1, 16.85 -0.16 M17.46 0.37 C17.13 -0.02, 17.17 -0.62, 16.75 -1.9 M17.21 0.25 C17.11 -0.07, 17.06 -0.62, 17 -2.07 M16.86 -1.74 C16.29 -2.52, 15.78 -3.43, 15.22 -3.86 M17.04 -2.03 C16.3 -2.63, 15.54 -3.5, 15.18 -4.05 M15.04 -4.16 C14.67 -4.69, 13.84 -5.16, 13.12 -5.21 M15.2 -3.82 C14.6 -4.26, 14 -4.81, 13.29 -5.46 M13.39 -5.54 C12.38 -5.68, 11.76 -5.94, 11.58 -6.12 M13.24 -5.46 C12.66 -5.64, 12.19 -5.99, 11.35 -6.32 M11.35 -6.36 C10.76 -6.22, 9.71 -6.67, 9.01 -6.97 M11.5 -6.3 C10.78 -6.38, 10.29 -6.45, 8.79 -7.01 M8.68 -7.04 C8.2 -6.86, 7.07 -6.83, 6.26 -6.75 M8.85 -6.99 C8.06 -6.82, 7.34 -7.02, 6.46 -6.85 M6.21 -7.02 C6.06 -6.43, 5.37 -6.68, 3.65 -5.72 M6.55 -6.85 C6.05 -6.56, 5.52 -6.4, 4.03 -5.92 M4.11 -5.91 C3.37 -5.59, 3.23 -5.08, 2.02 -4.69 M3.8 -5.92 C3.38 -5.48, 2.73 -4.85, 2.21 -4.47 M2.29 -4.76 C1.81 -3.95, 1.38 -3.25, 0.64 -2.37 M2.16 -4.5 C1.74 -3.7, 1.23 -3.03, 0.69 -2.12 M0.55 -2.22 C0.25 -1.67, 0.11 -1.21, -0.19 0.21 M0.64 -2.11 C0.3 -1.42, 0.26 -0.74, -0.06 0.03 M0 0 C0 0, 0 0, 0 0 M0 0 C0 0, 0 0, 0 0" stroke="#000" stroke-width="1" fill="none"></path></g></g><g stroke-linecap="round"><g transform="translate(110.50674825346141 54.69476013448934) rotate(0 16.11942314623502 -20.498951379664618)" fill-rule="evenodd"><path d="M-1.22 1.26 L4.67 0.69 L5.6 -2.64 L10.73 -0.99 L10.63 1.28 L19.22 2.34 L29.16 -1.31 L33.31 -10.24 L32.31 -15.15 L32.63 -22.81 L27.91 -28.08 L24.23 -31.92 L16.61 -30.72 L12.59 -31.11 L7.46 -30.82 L5.57 -43.76 L0.94 -43.56 L0.61 1.01" stroke="none" stroke-width="0" fill="#6c1d5f" fill-rule="evenodd"></path><path d="M-0.06 0.58 C1.56 -0.53, 3.44 0.41, 6.28 -0.62 M0.12 0.23 C2.26 -0.11, 4.66 -0.24, 6.27 0.29 M6.37 0.26 C6.69 -0.75, 6.59 -1.94, 6.68 -2.61 M6.3 0.06 C6.48 -0.7, 6.77 -1.51, 7.05 -2.49 M6.99 -2.31 C8.17 -1.87, 8.89 -1.23, 10.06 -0.65 M6.99 -2.43 C7.52 -2.12, 8.15 -1.9, 9.85 -0.94 M9.9 -1.07 C10.38 -0.69, 10.8 0.02, 12.58 0.71 M9.7 -0.66 C10.79 -0.34, 11.94 0.06, 12.71 0.37 M11.82 0.6 C14.99 1.05, 18.6 1.15, 20.87 -0.05 M12.28 0.49 C14.29 0.27, 15.68 0.32, 21.02 0.97 M21.44 1.4 C22.68 -0.3, 24.96 -1.6, 27.38 -3.66 M20.77 0.74 C22.82 0.11, 23.93 -1.53, 28.04 -3.3 M28.27 -2.95 C28.7 -4.66, 29.66 -6.25, 32.1 -9.08 M27.55 -2.76 C28.68 -4.82, 29.77 -5.8, 31.71 -9.78 M32.44 -8.79 C32.58 -12.18, 32.2 -13.33, 32.65 -17.2 M32.31 -9.16 C32.8 -12.24, 33.41 -15.43, 33.06 -16.61 M32.93 -16.85 C32.96 -18.55, 31.64 -21.82, 31.94 -22.69 M33.61 -16.99 C32.95 -18.6, 32.42 -20.73, 31.43 -23.02 M31.73 -22.9 C30.51 -24.24, 29.64 -26.72, 28.09 -27.67 M31.71 -22.66 C30.23 -24.68, 29.25 -26.91, 27.95 -28 M27.72 -28.15 C26.49 -28.91, 25.32 -28.97, 23.52 -31.22 M28 -27.97 C27.19 -28.56, 25.78 -29.29, 23.59 -30.93 M23.09 -30.84 C21.96 -31.52, 21.48 -31.46, 17.78 -32.02 M23.7 -30.68 C21.46 -31.47, 19.6 -31.42, 17.86 -32.06 M18.39 -31.86 C15.74 -32.3, 14.33 -32.31, 12.44 -31.81 M18.24 -32.04 C16.07 -31.72, 14.16 -31.72, 12.44 -32 M12.43 -31.43 C10.16 -31.05, 9.03 -30.66, 7.33 -29.52 M12.79 -32.09 C10.44 -31.25, 8.35 -29.93, 7.14 -29.27 M5.92 -28.53 C6.46 -32.36, 7.88 -36.64, 7.76 -40.69 M6.42 -29.3 C6.97 -33.45, 7.42 -36.87, 7 -42.24 M6.55 -42.2 C4.52 -42.11, 3.23 -42.05, 0.57 -41.19 M7.08 -41.88 C4.99 -41.64, 3.54 -41.82, -0.24 -41.82 M-1.37 -40.13 C-0.34 -34.75, 0.52 -22.67, -1.18 -1.29 M-0.05 -42.4 C-0.43 -26.64, 0.76 -10.16, 0.36 -1.4 M0.12 -0.57 C0.12 -0.37, 0.08 -0.16, 0.03 0.04 M0.11 -0.54 C0.12 -0.38, 0.07 -0.29, -0.01 -0.02" stroke="#000" stroke-width="1" fill="none"></path></g></g><g stroke-linecap="round" transform="translate(118.71091740622614 32.54612761078147) rotate(0 8.1233117720285 6.697607601456298)"><path d="M5.28 -0.55 C6.87 -1.22, 9.06 -0.83, 10.85 -0.23 C12.65 0.38, 15.21 1.73, 16.06 3.08 C16.91 4.43, 16.63 6.23, 15.96 7.87 C15.28 9.51, 13.44 11.87, 12 12.9 C10.56 13.93, 8.78 14.39, 7.31 14.06 C5.84 13.73, 4.22 12.12, 3.16 10.93 C2.1 9.74, 1.09 8.31, 0.96 6.9 C0.83 5.49, 1.34 3.61, 2.38 2.47 C3.41 1.33, 6.28 0.3, 7.16 0.06 C8.05 -0.17, 7.79 0.92, 7.7 1.07 M10.42 -0.24 C12.38 0.45, 14.45 2.79, 15.56 4.04 C16.67 5.29, 17.58 6.26, 17.08 7.25 C16.59 8.24, 14.08 9.19, 12.6 9.98 C11.11 10.78, 9.84 11.68, 8.15 12.05 C6.45 12.41, 3.72 12.98, 2.43 12.18 C1.14 11.38, 0.83 8.81, 0.39 7.24 C-0.05 5.66, -1.01 3.64, -0.21 2.73 C0.58 1.82, 3.51 2.25, 5.18 1.76 C6.85 1.28, 9.08 -0.1, 9.8 -0.16 C10.52 -0.22, 9.21 1.27, 9.49 1.41" stroke="none" stroke-width="0" fill="#fff"></path><path d="M4.98 -0.5 C6.45 -1.1, 9.68 0.28, 11.47 0.95 C13.25 1.63, 14.79 2.52, 15.69 3.56 C16.59 4.61, 17.27 5.96, 16.87 7.24 C16.47 8.52, 14.82 10.28, 13.3 11.24 C11.77 12.21, 9.28 12.75, 7.72 13.01 C6.16 13.28, 5.08 13.67, 3.96 12.84 C2.83 12.01, 1.49 9.44, 0.98 8.04 C0.47 6.65, -0.15 5.63, 0.9 4.47 C1.95 3.31, 6.12 1.75, 7.28 1.08 C8.44 0.41, 8.04 0.52, 7.84 0.45 M5.81 0.76 C7.41 0.68, 9.75 0.42, 11.57 0.84 C13.39 1.25, 15.8 1.66, 16.73 3.24 C17.65 4.83, 17.78 8.84, 17.13 10.33 C16.48 11.83, 14.39 11.68, 12.85 12.22 C11.31 12.75, 9.52 13.58, 7.88 13.55 C6.25 13.52, 4.27 13.23, 3.04 12.04 C1.81 10.86, 0.6 7.82, 0.5 6.44 C0.41 5.05, 1.31 4.96, 2.47 3.72 C3.64 2.49, 6.55 -0.3, 7.51 -0.99 C8.48 -1.68, 8.25 -0.95, 8.26 -0.41" stroke="#000" stroke-width="1" fill="none"></path></g><g stroke-linecap="round"><g transform="translate(146.88809894616134 55.907826430656314) rotate(0 3.4626385014735206 -15.315808810465228)" fill-rule="evenodd"><path d="M0.26 -0.63 L1.38 -29.43 L7.76 -31.21 L5.35 -2.47" stroke="none" stroke-width="0" fill="#6c1d5f" fill-rule="evenodd"></path><path d="M1.8 1.44 C-0.28 -14.03, 1.72 -22.97, 1.61 -30.29 M-0.47 -0.61 C-0.11 -10.62, 1.3 -22.22, 0.36 -31.1 M-0.13 -30.82 C2.26 -31.18, 5.13 -31.48, 6 -31.62 M0.53 -31.28 C2.8 -30.81, 4.84 -31.2, 6.88 -31.12 M6.44 -30.56 C8.92 -18.6, 5.75 -5.89, 6.21 0.21 M6.12 -32.07 C7.3 -19.86, 6.1 -7.61, 6.13 -0.03 M6.58 -0.09 C5.61 0.02, 4.72 -0.65, 0.67 -0.18 M7.06 -0.83 C4.68 -0.62, 1.75 0.04, -0.29 -0.32" stroke="#000" stroke-width="1" fill="none"></path></g></g><g stroke-linecap="round"><g transform="translate(146.94779725554872 21.7055795583301) rotate(0 3.914698370804217 -3.686944935419092)" fill-rule="evenodd"><path d="M0.07 0.73 L-0.32 -4.71 L-0.7 -8.31 L7.69 -8.11 L6.83 -0.95" stroke="none" stroke-width="0" fill="#6c1d5f" fill-rule="evenodd"></path><path d="M-0.06 -0.34 C0.32 -0.58, 0.35 -1.46, 0.61 -3.68 M-0.07 0.16 C0.28 -0.84, 0.22 -1.98, 0.53 -3.45 M0.01 -3.55 C0.44 -5.19, 0.37 -6.8, 0.97 -7.47 M0.54 -3.37 C0.56 -4.66, 0.76 -5.67, 0.95 -7.13 M1.34 -7.04 C2.29 -6.76, 4.36 -7.04, 7.05 -7.42 M0.98 -7.53 C2.45 -7.45, 4.28 -7.04, 6.24 -7.2 M6.52 -6.8 C7.2 -6.11, 7.44 -4.66, 7.9 -1.52 M6.77 -7.44 C6.82 -5.39, 6.77 -4.16, 7.45 -1.45 M7.4 -2 C4.08 -1.18, 1.54 -0.88, 0 0.06 M7.54 -1.07 C5.66 -1.21, 3.96 -0.55, 0.36 -0.05" stroke="#000" stroke-width="1" fill="none"></path></g></g><g stroke-linecap="round"><g transform="translate(191.09146931556097 55.38078996168156) rotate(0 -14.76912540345802 -15.095899176621629)" fill-rule="evenodd"><path d="M1.7 1.33 L-0.27 -30.43 L-2.78 -30.35 L-4.26 -29.58 L-8.49 -28.68 L-7.88 -31.21 L-9.21 -30.9 L-18.69 -29.49 L-22.45 -27.72 L-29.5 -23.5 L-30.37 -19.67 L-32.01 -11.27 L-30.73 -8.45 L-25.06 -3.85 L-21.98 -0.72 L-16.61 -0.08 L-10.96 0.12 L-7.1 -3 L-4.49 -2.03 L-6 -2.58 L-3.29 -1.46" stroke="none" stroke-width="0" fill="#6c1d5f" fill-rule="evenodd"></path><path d="M1.52 1.21 C1.66 -10.6, 2.16 -23.56, 0.5 -31.4 M0.91 0.82 C0.35 -7.37, 1.52 -14.13, 1.91 -31.2 M0.78 -30.64 C-0.89 -30.68, -1.68 -30.53, -3.32 -29.99 M1.02 -30.5 C0.2 -30.33, -0.71 -30.17, -3.22 -30.26 M-3.49 -29.99 C-4.31 -29.92, -4.83 -29.93, -5.97 -29.77 M-3.39 -30.36 C-3.99 -30.07, -4.57 -30.01, -6.15 -29.73 M-5.81 -29.74 C-6.59 -29.1, -7.42 -28.53, -8.28 -28.03 M-6.02 -29.56 C-6.63 -29.42, -6.98 -28.99, -8.16 -27.93 M-8.42 -28.12 C-8.67 -28.82, -8.75 -29.32, -9.12 -29.98 M-8.26 -28.06 C-8.45 -28.37, -8.47 -28.86, -8.96 -29.81 M-9.07 -29.73 C-9.59 -29.99, -9.99 -29.89, -10.79 -30.32 M-8.97 -29.95 C-9.44 -29.86, -9.78 -30.03, -10.94 -30.21 M-11.4 -30.47 C-13.83 -30.77, -15.13 -30.76, -17.82 -30.74 M-10.99 -30.42 C-13.34 -30.18, -15.18 -30.51, -17.56 -30.95 M-16.69 -30.31 C-19.23 -29.79, -21.19 -29.38, -23.22 -28.9 M-17.08 -30.36 C-19.04 -30.54, -20.71 -29.87, -23.23 -29.7 M-23.26 -30.04 C-24.8 -28.03, -26.03 -27.31, -27.5 -25.05 M-23.46 -29.37 C-25.43 -27.95, -26.87 -26.48, -27.86 -25.31 M-27.5 -25.35 C-28.43 -24.06, -28.6 -23.17, -30.22 -19.33 M-28.17 -25.41 C-29.01 -24, -29.71 -22.37, -30.76 -20.17 M-31.25 -19.22 C-30.75 -17.02, -30.62 -12.5, -30.54 -11.6 M-31.08 -19.75 C-30.84 -17.31, -30.93 -14.39, -31.44 -10.87 M-30.9 -10.99 C-30.41 -9.57, -29.84 -9.04, -29.64 -7.16 M-30.95 -11.24 C-30.45 -9.41, -29.65 -8.11, -29.33 -6.78 M-29.04 -6.88 C-28.19 -5.56, -27.65 -5.22, -25.35 -3.15 M-29.11 -6.96 C-27.78 -5.33, -26.43 -3.92, -25.8 -2.58 M-25.27 -2.12 C-25.01 -1.44, -23.53 -1.14, -20.94 0.47 M-25.83 -2.43 C-24.22 -2.01, -21.81 -0.87, -20.32 0.33 M-20.45 0.2 C-18.73 -0.37, -16.68 0.29, -14.93 0.88 M-20.59 0.35 C-18.54 0.09, -16.65 0.14, -14.97 0.44 M-15.05 0.54 C-13.8 0.51, -12.73 0, -10.56 0.23 M-15.03 0.26 C-13.68 0.12, -12.19 0.15, -10.99 0.12 M-10.49 0.16 C-9.47 -0.84, -8.68 -1.96, -7.56 -2.24 M-10.78 0.23 C-9.46 -0.92, -8.37 -1.79, -7.53 -2.37 M-7.6 -2.52 C-6.92 -2.93, -6.69 -3.06, -6.16 -3.43 M-7.54 -2.42 C-7.21 -2.71, -6.86 -3.01, -6.23 -3.46 M-6.09 -3.32 C-5.67 -3.3, -5.52 -3.54, -4.07 -3.34 M-6.23 -3.51 C-5.72 -3.38, -5.01 -3.4, -4.2 -3.51 M-4.54 -3.36 C-3.77 -2.38, -4.03 -1.5, -3.12 0.32 M-4.36 -3.57 C-4.12 -2.26, -3.55 -1.3, -3.35 0.01 M-3.26 -0.08 C-2.01 -0.07, -1.19 0.15, 0.27 -0.08 M-3.22 0.01 C-2.52 -0.11, -1.82 -0.05, 0.04 0.16" stroke="#000" stroke-width="1" fill="none"></path></g></g><g stroke-linecap="round" transform="translate(169.17333213970596 33.569223605232764) rotate(0 6.171003137586013 6.739028365154809)"><path d="M2.83 1.32 C3.92 0.88, 6.19 0.73, 7.73 0.9 C9.27 1.08, 11.14 1.37, 12.06 2.38 C12.99 3.39, 13.38 5.51, 13.27 6.97 C13.16 8.43, 12.52 10.07, 11.42 11.15 C10.31 12.24, 8.21 13.12, 6.63 13.47 C5.04 13.82, 3.1 14.02, 1.91 13.24 C0.71 12.47, -0.39 10.5, -0.53 8.82 C-0.67 7.13, 0.43 4.54, 1.06 3.15 C1.7 1.77, 2.69 0.88, 3.27 0.49 C3.86 0.1, 4.28 0.62, 4.6 0.8 M5.43 -1.32 C6.73 -1.18, 7.91 0.59, 9.06 1.53 C10.22 2.47, 12.1 3.09, 12.36 4.32 C12.61 5.55, 11.16 7.27, 10.57 8.92 C9.98 10.56, 9.97 13.56, 8.83 14.19 C7.68 14.82, 5.13 13.2, 3.68 12.7 C2.24 12.21, 0.52 12.42, 0.16 11.21 C-0.21 10, 1.16 6.94, 1.5 5.43 C1.84 3.92, 1.53 3.22, 2.21 2.16 C2.9 1.11, 5.15 -0.42, 5.61 -0.89 C6.07 -1.35, 4.76 -0.79, 4.99 -0.64" stroke="none" stroke-width="0" fill="#fff"></path><path d="M7.08 -0.36 C8.11 -0.19, 9.29 0.72, 10.31 2.06 C11.34 3.4, 13.01 6.18, 13.24 7.69 C13.47 9.2, 12.71 10.01, 11.69 11.12 C10.67 12.23, 8.49 13.95, 7.12 14.36 C5.75 14.76, 4.74 14.39, 3.48 13.55 C2.23 12.71, 0.28 10.85, -0.39 9.31 C-1.06 7.77, -1.06 5.81, -0.53 4.33 C0.01 2.85, 1.42 1.18, 2.81 0.44 C4.2 -0.29, 6.54 -0.19, 7.82 -0.07 C9.1 0.05, 10.4 0.84, 10.5 1.17 M4.41 0.27 C5.5 -0.54, 7.79 -0.11, 9.13 0.52 C10.48 1.15, 11.88 2.93, 12.49 4.05 C13.11 5.17, 13.07 5.75, 12.82 7.24 C12.57 8.72, 11.89 12.11, 10.98 12.97 C10.06 13.82, 8.48 12.61, 7.31 12.39 C6.14 12.16, 5.05 12.02, 3.96 11.61 C2.87 11.2, 1.42 11.15, 0.77 9.93 C0.11 8.71, -0.3 6.06, 0.05 4.29 C0.4 2.51, 2.11 0.09, 2.87 -0.72 C3.62 -1.54, 4.61 -0.71, 4.59 -0.6" stroke="#000" stroke-width="1" fill="none"></path></g></svg>
