<svg version="1.1" xmlns="http://www.w3.org/2000/svg" viewBox="0 0 340.90744767950684 217.3877222511394" width="340.90744767950684" height="217.3877222511394">
  <!-- svg-source:excalidraw -->
  
  <defs>
    <style class="style-fonts">
      @font-face {
        font-family: "Virgil";
        src: url("https://excalidraw.com/Virgil.woff2");
      }
      @font-face {
        font-family: "Cascadia";
        src: url("https://excalidraw.com/Cascadia.woff2");
      }
    </style>
  </defs>
  <rect x="0" y="0" width="340.90744767950684" height="217.3877222511394" fill="#ffffff"></rect><g stroke-linecap="round"><g transform="translate(12.4762372514449 10.877821333706379) rotate(0 131.92927710199308 97.81603979186332)" fill-rule="evenodd"><path d="M1.62 -0.62 L266.76 0.23 L262.81 196.49 L0.26 193.85 L-1.06 -0.87" stroke="none" stroke-width="0" fill="#32383e" fill-rule="evenodd"></path><path d="M0.37 0.58 C105.33 0.49, 209.13 0.8, 265.78 2.02 M0.71 0.28 C82.36 0.2, 162.57 1.96, 265.29 0.49 M266.33 2.05 C266.35 44.31, 264.53 93.14, 262.44 195.13 M264.96 1.98 C264.58 60.08, 263.49 118.59, 264.13 195.52 M263.61 196.17 C188.37 197.07, 110.92 195.99, -2.46 195.27 M262.85 195.07 C176.45 195.95, 90.84 195.79, -0.47 195.26 M-0.15 195.64 C-3.22 148.56, -3.26 97.73, -0.22 -0.67 M-1.25 195.7 C-0.66 140.7, -1.23 87.01, 0.73 -0.88 M0 0 C0 0, 0 0, 0 0 M0 0 C0 0, 0 0, 0 0" stroke="#000000" stroke-width="1" fill="none"></path></g></g><mask></mask><g stroke-linecap="round" transform="translate(53.4488935014449 29.748651996896115) rotate(0 61.8828125 60.072265625)"><path d="M-0.91 1.06 L123.34 -1.92 L124 118.15 L-0.45 118.68" stroke="none" stroke-width="0" fill="#ced4da"></path><path d="M-1.53 -0.86 C45.52 -0.41, 95.35 -0.88, 124.09 -1.15 M0.84 0.94 C25.55 0.6, 52.4 0.53, 123.7 0.56 M124.48 -1.32 C122.63 30.9, 124.93 62.76, 124.59 119 M123.82 -0.23 C122.71 43.61, 122.48 85.31, 123.57 119.66 M123.99 120.04 C75.31 121.42, 28.56 119.96, 1.32 120.43 M124.72 119.38 C75.59 121.47, 28.04 120.55, -0.55 120.37 M-1.81 119.16 C-0.51 74.93, -0.29 30.13, 0.9 1.72 M0.04 119.19 C0.3 86.81, 0.79 55.52, -0.23 -0.13" stroke="#000000" stroke-width="2" fill="none"></path></g><g stroke-linecap="round" transform="translate(240.798946205815 21.038304101934102) rotate(0 11.494909447902955 11.182362076133643)"><path d="M0 0 C0 0, 0 0, 0 0 M0 0 C0 0, 0 0, 0 0 M0.36 5.86 C1.61 5.09, 2.68 3.45, 5.51 0.26 M-0.4 6.73 C2.07 4.17, 3.79 2.06, 5.1 0.18 M0.8 12.48 C2.84 10.13, 4.48 4.66, 11.79 1.35 M0.69 12.27 C2.34 9.84, 4.88 7.18, 10.31 0.46 M-0.04 17.92 C1.31 12.99, 8.41 11.81, 17.08 -0.42 M-0.4 19.15 C3.21 14.71, 6.2 11.11, 14.98 -0.07 M-1.02 24.49 C4.94 19.36, 10.9 13.14, 22.18 0.88 M0.54 22.44 C5.74 16.7, 11.4 10.3, 21.88 -0.66 M6.51 21.53 C13.42 16.78, 15.83 12.86, 24.35 2.97 M6.17 22.14 C10.69 17.03, 15.03 12.09, 24.97 2.24 M10.53 21.82 C13.88 20.05, 19.4 13.77, 22.68 6.78 M12.1 23.49 C16.06 18.16, 21.96 12.86, 23.86 7.54 M18.29 22.89 C18.2 20.97, 21 20.04, 25.52 12.99 M17.32 22.63 C20.43 19.78, 22.8 15.25, 24.93 13.69 M21.82 23.41 C22.93 22.23, 23.57 21.39, 24.84 20.21 M22.28 23.2 C23.22 22.26, 24.01 21.14, 24.98 20.04 M0.25 22.58 C0.25 22.58, 0.25 22.58, 0.25 22.58 M0.25 22.58 C0.25 22.58, 0.25 22.58, 0.25 22.58 M6.68 22.27 C4.32 19.92, 1.37 18.08, -0.7 16.26 M6.1 22.04 C4.15 20.76, 2.28 19.04, -0.41 17.31 M13.24 21.5 C8.49 18.55, 5.1 17.27, -0.89 13.26 M12.27 22.46 C8.48 18.8, 5.59 17.19, -0.56 11.76 M18.37 23.58 C11.36 15.85, 5.18 10.51, 0.1 5.92 M17.85 21.97 C13.1 17.23, 9.1 14.13, 0.23 5.71 M22.4 23.13 C17.1 16.43, 13.19 11.46, 1.24 0.07 M23.21 21.64 C16.24 15.62, 9.79 10.42, 0.37 0.5 M23.34 18.2 C14.81 8.29, 6.9 3.52, 1.93 -0.55 M23.99 17.03 C19.19 12.22, 15.75 8.44, 2.06 -1.68 M22.31 11.88 C18.34 8.17, 14.69 4.98, 7.12 -3.77 M24.54 10.47 C19.74 6.4, 13.47 3.1, 8.08 -1.64 M24.19 6.92 C21.01 3.84, 16.41 -0.8, 13.99 -3.07 M24.17 6.44 C20.45 2.62, 17.74 -0.43, 14.22 -1.94" stroke="#000000" stroke-width="0.5" fill="none"></path><path d="M1.88 1.83 C8.39 -2.06, 17.37 -1.36, 21.59 1.95 M-0.13 -0.24 C7.84 -0.12, 14.71 0.54, 23.2 -0.72 M23.37 1.16 C23.22 6.28, 24.15 12.61, 21.9 23.04 M22.82 -0.57 C22.43 8.41, 23.26 14.46, 22.45 22.98 M24.93 20.74 C13.8 23.89, 5.39 21.76, 0.37 21.21 M22.49 22.44 C17.59 21.37, 11.85 22.72, 0.64 21.84 M-0.62 22.74 C-0.02 13.31, 1.11 7.67, 1.16 1.75 M0.59 22.6 C0.48 15.03, -0.44 6.74, -0.61 0.54" stroke="#000000" stroke-width="1" fill="none"></path></g><g stroke-linecap="round" transform="translate(239.07239834504423 46.636034347391046) rotate(0 11.494909447902955 11.182362076133643)"><path d="M0 0 C0 0, 0 0, 0 0 M0 0 C0 0, 0 0, 0 0 M-0.76 5.95 C0.23 5.47, 1.82 4.21, 4.97 0.78 M-0.52 6.18 C1.37 3.97, 3.05 2.03, 4.79 0.08 M-1.43 11.83 C3.96 6.6, 9.34 2.75, 10.34 0.56 M0.58 11.78 C2.58 8.2, 5.56 4.92, 10.34 -0.52 M0.07 17.44 C3.54 11.51, 8.03 8.39, 16.17 -0.84 M-0.43 19.26 C3.7 14.91, 6.03 11.52, 16.49 0.92 M-0.62 23.19 C7.34 18.4, 8.8 13.19, 22.08 1.37 M1.3 22.46 C8.16 14.78, 15.07 8, 20.29 -1 M7.1 23.78 C9.87 17.81, 16.32 10.97, 23.44 2.24 M7.15 22.52 C12.72 15.98, 18.35 10.29, 24.47 2.26 M9.69 21.47 C14.94 17.46, 20.71 12.65, 25.87 8.19 M11.48 23.92 C15.24 20.59, 18.17 16.85, 25.37 8.87 M17.46 23.14 C20.97 20.1, 23.17 16.45, 24.72 13.24 M17.74 23.48 C19.4 20.56, 21.33 19.05, 25.65 14.19 M22.11 23.02 C23.01 22.31, 23.35 21.69, 24.85 20.57 M22.22 23.32 C22.76 22.57, 23.28 21.69, 24.85 20.4 M0.25 22.58 C0.25 22.58, 0.25 22.58, 0.25 22.58 M0.25 22.58 C0.25 22.58, 0.25 22.58, 0.25 22.58 M6.42 21.42 C3.39 20.95, 1.53 18.54, 0.28 16.88 M6 22.27 C3.65 20.31, 1.34 18.28, -0.47 16.92 M12.74 23.95 C8.05 20.4, 3.85 14.56, -0.5 12.45 M12.52 22.36 C8.69 19.54, 4.92 15.73, 0.87 11.61 M19.17 22.7 C11.13 18.06, 5.52 12.81, -1.48 6.71 M17.39 22.32 C14.83 17.85, 10.56 14.26, -0.65 6.75 M24.5 22.66 C17.76 17.81, 12.38 12.52, -0.02 0.51 M23.4 20.91 C17.24 16.42, 9.81 9.21, 1.02 0.47 M25.14 16.02 C17.23 8.87, 8.56 2.7, 1.88 -1.1 M23.01 16.91 C17.35 12.18, 11.98 6.18, 1.16 -1.84 M24.7 11.34 C20.57 5.97, 17.77 2.54, 7.68 -0.45 M23.33 11.91 C20.71 8.31, 16.7 4.58, 9.31 -1.73 M23.13 5.59 C21.23 3.62, 20.15 1.85, 13.38 -2.06 M24.32 5.91 C20.27 2.73, 17.58 0.37, 14.09 -2.32" stroke="#000000" stroke-width="0.5" fill="none"></path><path d="M-1.12 -0.88 C7.75 0.25, 16.61 -1.25, 23.97 1.15 M-0.63 -0.04 C8.81 0.12, 16.79 0.39, 22.4 0.06 M23.43 1.11 C23.6 6.16, 24.82 10.66, 22.36 24.14 M22.09 -0.58 C23.89 6.03, 23.49 14.22, 22.31 21.56 M22.44 21.22 C16 20.98, 6.8 23.31, -0.21 23.58 M23.72 21.92 C14.24 23.41, 7.04 22.78, 0.07 23.16 M-0.77 23.11 C0.93 15.59, 0.2 9.08, -1.07 -1.76 M0.71 22.52 C0.5 14.31, -0.31 6.39, 0.08 0.81" stroke="#000000" stroke-width="1" fill="none"></path></g><g stroke-linecap="round" transform="translate(239.6753836282005 73.37843165537316) rotate(0 11.494909447903012 11.182362076133643)"><path d="M0 0 C0 0, 0 0, 0 0 M0 0 C0 0, 0 0, 0 0 M0.2 6.07 C1.74 4.25, 3.33 3.05, 4.61 0.73 M-0.63 6.03 C1.46 4.08, 3.63 1.96, 5.23 0.36 M0.01 13.05 C3.57 10.54, 5.74 7.44, 11.75 1.04 M0.31 12.2 C4.38 8.23, 7.52 3.87, 10.4 -0.44 M1.7 20.38 C4.69 13.47, 8.7 11.22, 17.56 1.49 M-0.3 17.84 C3.98 13.61, 6.98 9.58, 15.72 1.14 M1.29 23.95 C5.39 18, 9.21 10.76, 21.65 1.55 M1.12 24.29 C5.34 19.18, 9.33 13.36, 21.55 -0.14 M6.08 23.09 C12.22 16.2, 18.09 8.46, 26.58 2.76 M7.23 21.97 C12.36 16.57, 18.87 8.59, 25.47 1.73 M12.11 23.73 C15.55 17.97, 19.29 11.75, 23.08 8.1 M11.84 24.23 C15.57 19.15, 19.54 12.77, 24.23 8.51 M17.54 22.77 C19.49 20.75, 21.48 17.01, 26.05 13.33 M17.57 23.09 C19.14 20.46, 21.47 17.58, 24.68 13.96 M21.96 23.36 C23.22 22.32, 23.82 21.66, 24.62 20.42 M22.27 23.36 C22.91 22.58, 23.68 21.79, 24.79 20.16 M0.25 22.58 C0.25 22.58, 0.25 22.58, 0.25 22.58 M0.25 22.58 C0.25 22.58, 0.25 22.58, 0.25 22.58 M5.15 22.38 C3.88 21.46, 2.91 19.55, -0.86 17.35 M6.12 22.25 C4.52 20.49, 3.21 19.15, -0.3 17.27 M11.95 23.85 C10.52 20.43, 6.75 16.77, 1.6 12.54 M11.81 22.17 C9.34 19.87, 7.36 17.63, -0.23 12.21 M19.22 21.66 C10.59 15.22, 6.26 11.37, -0.18 6.84 M18.29 22.56 C13.26 16.44, 6.66 11.97, 0.69 5.49 M23.05 20.42 C15.54 15.35, 5.94 6.12, -1.76 1.85 M23.27 22.6 C19.34 17.87, 13.8 13.6, -0.77 1.86 M23.49 17.65 C15.76 10.59, 7.64 4.83, 2.8 -3.02 M23.34 16.98 C18.46 11.29, 13.2 7.71, 1.74 -2.38 M22.26 9.49 C19.28 9.67, 16.49 5.78, 7.59 -2.58 M23.53 11.37 C17.35 5.1, 12.15 0.82, 8.14 -1.44 M24.18 5.67 C21.86 4.08, 18.41 0.63, 14.8 -1.75 M23.37 6.32 C20.43 3.49, 16.7 -0.15, 14.08 -2.07" stroke="#000000" stroke-width="0.5" fill="none"></path><path d="M-0.82 -0.09 C8.03 1.6, 16.5 0.94, 21.17 1.83 M-0.63 -0.56 C4.47 0.71, 10.35 0.93, 22.97 0.53 M21.68 -1.07 C22.33 5.97, 21.62 14.44, 22.02 20.97 M22.01 -0.13 C22.83 7.38, 23.82 15.79, 22.81 22.74 M24.11 21.71 C15.97 20.65, 10.09 20.61, -0.72 21.14 M23.09 21.86 C15.51 21.58, 8.4 22.77, 0.28 21.78 M-0.59 24.01 C1.25 18.29, -0.4 14.28, 1.75 1.18 M-0.77 22.3 C1.06 17.48, -0.43 12.54, 0.41 0.72" stroke="#000000" stroke-width="1" fill="none"></path></g><g stroke-linecap="round" transform="translate(239.62111495271643 99.10178383482099) rotate(0 11.494909447903012 11.182362076133643)"><path d="M0 0 C0 0, 0 0, 0 0 M0 0 C0 0, 0 0, 0 0 M-0.4 6.54 C2.03 4.04, 3.8 1.38, 4.27 0.52 M0.01 6.48 C2.18 4.2, 4.1 1.83, 4.87 0.48 M-0.39 11.65 C3.32 8.4, 6.13 4.95, 9.63 1.28 M-0.33 12.57 C2.97 7.43, 7.98 3.42, 10.6 0.39 M-0.6 19 C4.82 12.5, 8.97 6.31, 14.69 -1.27 M0.55 18.72 C5.42 12.93, 9.9 7.36, 14.82 -0.12 M-0.99 23.91 C7.46 15.5, 15.14 7.21, 20.2 1.57 M0.4 23.95 C6.48 16.55, 11.82 10.45, 21.43 -0.72 M6.98 21.84 C13.12 18.32, 17.35 11.49, 24 0.87 M7.29 23.39 C13.47 15.79, 19.98 8.91, 25.65 1.7 M12.4 22.94 C13.46 20.27, 19.59 15.18, 23.36 9.87 M12.03 23.9 C14.02 20.18, 16.27 16.11, 23.74 8.12 M17.35 21.79 C20.35 19.22, 24.11 17.11, 25.67 12.78 M16.68 23.25 C20.1 19.93, 22.29 17.04, 24.53 13.61 M22.07 23.17 C23.56 22.32, 24.29 20.89, 24.55 20.59 M22.34 23.14 C23.02 22.16, 23.88 21.31, 24.72 20.13 M0.25 22.58 C0.25 22.58, 0.25 22.58, 0.25 22.58 M0.25 22.58 C0.25 22.58, 0.25 22.58, 0.25 22.58 M6.48 21.98 C4.04 21.4, 3.66 19.91, -0.37 16.16 M6.25 22.06 C4.34 20.8, 2.19 18.94, 0.15 16.56 M11.78 22.09 C8.76 18.05, 3.91 13.61, 0.85 12.55 M13 21.97 C9.36 19.55, 5.34 17.03, 0.7 11.7 M16.15 20.77 C11.11 16.66, 9.14 12.76, 0.93 5.45 M17.35 22.04 C13.16 17.16, 6.92 13.29, -0.42 6 M24.86 22.08 C14.5 15.43, 7.14 6.98, -0.79 2.42 M23.04 20.84 C15.52 14.2, 7.66 6.69, 0.28 1.31 M24.72 17.58 C17.57 10.55, 9.13 3.6, 1.69 -0.64 M23.05 17.39 C18.91 12.3, 12.76 7.44, 1.98 -2.12 M23 10.68 C20.27 7.67, 13.44 1.11, 8.47 -0.2 M24.41 10.08 C17.83 5.44, 11.49 0.46, 7.64 -2.52 M23.9 7.28 C20.51 3.67, 17.03 -1.43, 13.27 -3.29 M24.45 6.14 C19.94 2.6, 16.67 0.51, 14.54 -2.89" stroke="#000000" stroke-width="0.5" fill="none"></path><path d="M1.23 -0.59 C7.2 1.26, 11.51 -0.4, 23.86 1.75 M-0.94 -0.77 C8.19 1.07, 16.5 -0.42, 22.93 0.41 M24.89 0.76 C21.35 8.73, 22.16 17.15, 24.3 20.43 M23.21 0.27 C23.36 3.71, 23.32 9.01, 22.87 21.62 M24.36 23.53 C14.76 23.3, 7.57 23.21, 1.04 21.43 M22.25 21.43 C14.12 21.23, 7.02 21.58, 0.46 22.96 M-1.4 22.21 C1.39 16.89, 1.78 9.76, 1.4 1.39 M0.54 22.59 C0.16 15.13, 0.07 6.66, -0.53 -0.29" stroke="#000000" stroke-width="1" fill="none"></path></g><g stroke-linecap="round" transform="translate(240.3969560170442 123.81413068951014) rotate(0 11.494909447903012 11.182362076133643)"><path d="M0 0 C0 0, 0 0, 0 0 M0 0 C0 0, 0 0, 0 0 M0 5.91 C2.04 3.6, 3.76 1.41, 5.15 -0.17 M-0.16 6.8 C0.64 5.51, 1.81 3.63, 5.17 0.22 M0.94 12.4 C4.76 8.81, 8.44 3.48, 9.98 -0.16 M-0.47 12.37 C3.25 8.85, 4.91 6.57, 9.95 0.13 M-0.78 18.92 C4.04 10.22, 10.02 4.26, 16.87 0.12 M0.11 18.07 C4.55 14.93, 7.77 9.16, 16.13 -0.17 M1.23 24.21 C6.87 16.57, 14.11 5.44, 22.9 -1.68 M1.8 23.94 C9.32 13.94, 16.6 5.54, 21.63 -0.9 M5.87 22.09 C10.71 17.73, 16.13 9.77, 25.59 2.3 M6.37 22.15 C9.76 18.01, 14.56 13.22, 25.2 1.82 M12.57 25.08 C14.41 17.3, 19.73 14.04, 23.03 9.66 M10.94 23.7 C16.73 17.85, 20.64 11.46, 24.94 7.41 M18.33 23.95 C19.81 21.15, 22.16 17, 25.72 14.2 M17.49 22.63 C19.93 19.36, 22.71 17.1, 24.87 13.58 M22.31 23.26 C22.46 22.74, 23.56 21.82, 24.8 19.99 M22.03 23.19 C23.16 22.41, 23.84 21.45, 24.76 20.39 M0.25 22.58 C0.25 22.58, 0.25 22.58, 0.25 22.58 M0.25 22.58 C0.25 22.58, 0.25 22.58, 0.25 22.58 M6.23 22.21 C5.41 20.88, 3.52 19.97, 0.36 16.82 M6.2 22.33 C4.01 20.54, 1.64 18.94, -0.3 17.09 M13.57 23.42 C9.3 20.48, 4.8 16.41, 0.43 12.8 M12.9 22.73 C8.15 18.31, 4.46 16.34, 0.77 11.82 M17.64 20.37 C9.29 14.12, 2.77 9.36, 1.26 7.84 M18.18 22.67 C12.83 16.6, 6.34 12.08, 0.36 7.05 M22.29 20.4 C16.04 17.48, 11.4 8.82, 1.42 1.15 M24.38 20.71 C15.62 15.12, 7.5 7.25, -0.17 1.25 M23.35 15.52 C14.45 11.88, 7.13 3.34, 1.88 -1.17 M23.68 17.37 C15.8 11.1, 9.67 3.32, 1.08 -1.7 M21.94 12.51 C18.81 6.33, 12.22 1.43, 8.14 -3.3 M24.41 12.02 C20.48 7.54, 17.44 6.44, 9.36 -2.31 M22.91 6.99 C20.73 3.07, 16.62 -1.87, 14.12 -2.91 M23.4 6.67 C21.36 3.74, 18.39 1.69, 13.77 -3.1" stroke="#000000" stroke-width="0.5" fill="none"></path><path d="M0.4 1.97 C4.93 1.4, 8.35 -0.64, 21.98 -1.38 M0.97 0.52 C4.57 0.49, 10.48 0.76, 23.57 -0.66 M21.79 1.19 C21.82 8.62, 22.23 17.76, 24.62 20.99 M23.3 -0.02 C22.97 8.08, 22.06 17.27, 23.8 21.4 M24.91 22.81 C18.16 22.52, 9.7 23, -0.15 22.65 M23.07 22.29 C16.46 22.28, 9.45 23.13, 0.48 22.77 M-1.92 21.19 C1.6 16.31, 0.04 12.69, -0.14 1.06 M0.22 22 C0.04 16.24, -0.41 10.95, -0.05 0.19" stroke="#000000" stroke-width="1" fill="none"></path></g><g stroke-linecap="round"><g transform="translate(251.1903925855421 30.903143334371237) rotate(0 38.58450342758101 -0.1612668528622727)"><path d="M1.35 -1.05 C30.67 0.7, 57.63 0.99, 75.66 0.53 M-0.84 0.2 C17.58 0.82, 37.25 0.04, 78.01 -0.28" stroke="#ffba70" stroke-width="4" fill="none"></path></g></g><mask></mask><g stroke-linecap="round"><g transform="translate(250.91957404971254 56.66314540816245) rotate(0 38.651584987030446 -0.3529888405907684)"><path d="M1.01 -1.77 C21.32 -1.42, 41.83 -2.09, 78.2 0.5 M-0.9 -0.38 C27.34 -1.46, 54.03 -0.86, 76.83 1.07" stroke="#ffba70" stroke-width="4" fill="none"></path></g></g><mask></mask><g stroke-linecap="round"><g transform="translate(251.58486781212832 82.01867656488491) rotate(0 38.50798942192 0.28863507499453167)"><path d="M0.79 0.75 C19.02 -0.13, 37.8 2.56, 75.85 0.81 M0.61 -0.31 C23.04 -0.84, 46.02 -1.04, 76.4 -0.58" stroke="#ffba70" stroke-width="4" fill="none"></path></g></g><mask></mask><g stroke-linecap="round"><g transform="translate(251.078360174277 107.79428746887311) rotate(0 38.74052048145336 0.6763666275837119)"><path d="M0.06 1.84 C18.54 -0.08, 37.95 1.04, 76.75 1.08 M0.35 0.54 C26.49 -0.72, 53.16 -0.85, 77.42 0.28" stroke="#ffba70" stroke-width="4" fill="none"></path></g></g><mask></mask><g stroke-linecap="round"><g transform="translate(253.2551370464713 135.32458554684604) rotate(0 38.66012193305892 0.08418257017845576)"><path d="M0.77 -1.72 C29.21 -1.63, 62.03 1.16, 76.77 1.89 M-0.33 0.81 C25.04 -0.07, 49.31 0.52, 77.65 -0.52" stroke="#ffba70" stroke-width="4" fill="none"></path></g></g><mask></mask><g stroke-linecap="round" transform="translate(177.42720289703152 58.284705042498956) rotate(0 7.850868386695083 7.080052199726907)"><path d="M0.31 1.09 L15.7 1.99 L16 13.11 L-0.66 12.66" stroke="none" stroke-width="0" fill="#ced4da"></path><path d="M0.13 1.19 C5.47 -1.5, 11.26 0.79, 15.26 -0.57 M0.26 -0.14 C3.78 0.25, 7.85 0.54, 15.92 -0.11 M17.09 -0.42 C15.51 5.61, 15.66 10.23, 16.85 13.9 M15.47 -0.06 C16.5 5.66, 15.98 11.66, 15.77 14.56 M16.21 12.94 C11.56 12.53, 5.23 15.38, -0.35 14.31 M16.25 14.1 C10.21 13.88, 5.11 14.51, -0.17 14.62 M-0.58 13.91 C-0.48 10.52, -0.44 3.63, 0.04 1.31 M-0.44 14.12 C0.65 10.88, -0.03 6.67, 0.03 -0.38" stroke="transparent" stroke-width="1" fill="none"></path></g><g stroke-linecap="round" transform="translate(35.63722351377078 57.72593868010745) rotate(0 8.26994315848873 7.025783524242854)"><path d="M0.46 0.33 L14.59 -1.09 L16.92 12.56 L-0.43 15.26" stroke="none" stroke-width="0" fill="#ced4da"></path><path d="M0.23 -0.52 C5.91 0.81, 8.94 0.99, 17.21 -1.04 M-0.33 0.69 C3.98 -0.49, 8.6 0.79, 16.14 -0.41 M17.7 0.56 C16.26 2.65, 16.51 6.04, 16.75 14.82 M16.17 -0.23 C16.15 4.14, 17 8.53, 16.78 13.71 M15.4 15.19 C13.09 15.69, 7.6 13.6, -1.44 14.22 M16 14.39 C12.9 13.61, 9.53 14.24, 0.15 14.57 M-0.34 14.2 C-1.17 9.05, 1.39 4.86, 0.61 1.1 M-0.6 14.31 C0.35 8.78, -0.32 4.24, -0.43 -0.29" stroke="transparent" stroke-width="1" fill="none"></path></g><g stroke-linecap="round" transform="translate(36.851233883858754 83.10156934626849) rotate(0 8.125226690531179 7.181554722391581)"><path d="M0.45 -1.05 L17.38 1.05 L17 16.28 L1.44 16.24" stroke="none" stroke-width="0" fill="#ced4da"></path><path d="M-0.85 1.51 C3.73 0.85, 10.23 0.71, 15.16 1.08 M-0.65 -0.48 C3.04 -0.56, 6.66 0.13, 16.38 -0.79 M15.94 0.87 C15.88 2.9, 16.34 8.39, 15.03 14.42 M16.1 -0.04 C15.85 4.6, 16.33 8.56, 16.17 14.38 M15.68 13.45 C11.65 13.83, 7.63 13.92, 0.67 14.37 M16.57 14.5 C12.49 14.25, 8.79 13.45, -0.4 14.44 M0.81 13.33 C-1.45 9.61, 0.47 3.03, 0.43 0.88 M0.09 14.16 C0.14 8.64, -0.24 4.52, -0.68 0.02" stroke="transparent" stroke-width="1" fill="none"></path></g><g stroke-linecap="round" transform="translate(38.70641860503633 108.99375740500017) rotate(0 6.689116741147245 7.999604756540293)"><path d="M-0.97 1.69 L11.49 1.53 L11.66 17.79 L-0.27 15.46" stroke="none" stroke-width="0" fill="#ced4da"></path><path d="M0.57 -0.01 C3.45 0.74, 6.85 0.57, 12.6 0.17 M-0.16 0.35 C3 0.13, 7.41 -0.24, 13.76 0.35 M14.88 -1.33 C12.3 4.68, 12.67 10.31, 14.02 14.73 M13.36 0.78 C14.02 4.55, 13.46 9.89, 13.78 16.61 M13.83 15.48 C8.07 15.08, 3.22 16.07, -0.3 16.34 M13.39 16.3 C9.06 15.38, 6.2 16.29, 0.09 16.34 M-1.51 16.2 C0.85 11.38, -0.87 3.57, 0.66 -0.79 M0.53 16.79 C0.83 10.56, 0.09 5.02, 0.36 -0.21" stroke="transparent" stroke-width="1" fill="none"></path></g><g stroke-linecap="round" transform="translate(178.75578047091926 108.55759805018374) rotate(0 6.678062010956069 8.36742577926563)"><path d="M1.74 -0.6 L14.71 -1.51 L15.24 17.32 L-0.15 18.61" stroke="none" stroke-width="0" fill="#ced4da"></path><path d="M1.12 -1.26 C4.86 0.71, 10.44 -0.73, 12.79 0.55 M0.59 0.44 C4.01 0.69, 7.06 0.07, 13.98 0.3 M11.77 1.28 C11.84 6.09, 13.05 8.73, 11.8 15.31 M12.98 -0.75 C12.92 4.4, 13.38 10.66, 13.06 16.78 M12.32 15.57 C9.44 15.71, 4.69 15.29, -0.06 16.18 M12.81 16.82 C10.19 16.67, 6.71 15.97, -0.63 17.05 M1.49 17.67 C0.28 10.16, -0.23 3.4, -1.28 1.35 M-0.79 16.27 C0.78 11.35, 0.8 7.43, 0.33 -0.57" stroke="transparent" stroke-width="1" fill="none"></path></g><g stroke-linecap="round" transform="translate(203.63826875759207 157.41068350304334) rotate(0 22.498046875 22.498046875)"><path d="M17.19 1.31 C21.42 -0.3, 27.35 -1, 31.58 1.03 C35.81 3.05, 40.53 9.07, 42.6 13.44 C44.66 17.8, 45.28 22.63, 43.99 27.21 C42.69 31.79, 38.81 38.09, 34.82 40.89 C30.82 43.69, 24.69 44.56, 20.02 44.01 C15.35 43.46, 10.2 40.79, 6.79 37.6 C3.37 34.41, 0.15 29.54, -0.47 24.86 C-1.08 20.18, -0.36 13.71, 3.11 9.54 C6.57 5.36, 16.6 1.15, 20.32 -0.2 C24.05 -1.54, 25.42 1.14, 25.44 1.46 M20.01 0.69 C24.34 -0.27, 30.15 1.22, 34.02 3.52 C37.89 5.83, 41.65 9.99, 43.23 14.55 C44.81 19.11, 45.12 26.21, 43.5 30.88 C41.87 35.55, 37.86 40.16, 33.49 42.56 C29.11 44.95, 22.06 46.14, 17.24 45.25 C12.42 44.36, 7.71 40.89, 4.59 37.24 C1.47 33.58, -1.86 28.27, -1.5 23.3 C-1.13 18.33, 3.27 11.47, 6.77 7.41 C10.27 3.35, 17.48 -0.08, 19.51 -1.07 C21.53 -2.07, 18.74 0.95, 18.94 1.43" stroke="none" stroke-width="0" fill="#ffffff"></path><path d="M13.29 1.73 C17.04 -0.36, 22.44 -0.31, 27.11 1.12 C31.78 2.55, 38.48 6.63, 41.31 10.32 C44.14 14, 44.38 18.63, 44.07 23.23 C43.76 27.82, 42.7 34.19, 39.43 37.91 C36.16 41.63, 29.34 44.99, 24.45 45.55 C19.56 46.12, 14.1 43.99, 10.09 41.3 C6.09 38.62, 1.84 34.28, 0.42 29.47 C-1 24.65, -0.96 17.28, 1.58 12.41 C4.12 7.54, 12.7 2.34, 15.68 0.25 C18.66 -1.85, 19.32 -0.59, 19.44 -0.15 M19.82 -0.77 C24.56 -1.74, 30.61 0.7, 34.8 3.48 C39 6.26, 43.74 11.6, 44.99 15.92 C46.24 20.24, 44.47 24.84, 42.3 29.4 C40.13 33.96, 36.18 40.99, 31.99 43.28 C27.79 45.58, 21.63 44.25, 17.13 43.18 C12.64 42.11, 7.81 40.38, 5.03 36.86 C2.25 33.35, 0.38 27.2, 0.46 22.08 C0.54 16.97, 2.57 9.82, 5.49 6.19 C8.42 2.56, 15.49 1.03, 18.02 0.31 C20.55 -0.41, 20.48 1.43, 20.65 1.86" stroke="#000000" stroke-width="1" fill="none"></path></g><g stroke-linecap="round" transform="translate(32.9938364193539 157.19593866480506) rotate(0 22.498046875 22.498046875)"><path d="M16.96 1.03 C21.39 -0.14, 28.45 0.93, 32.85 3.11 C37.26 5.3, 41.48 9.7, 43.37 14.13 C45.26 18.55, 45.49 25.26, 44.2 29.67 C42.9 34.07, 39.58 38.09, 35.6 40.54 C31.61 43, 25.36 44.71, 20.29 44.4 C15.21 44.08, 8.57 42.14, 5.13 38.65 C1.7 35.16, -0.28 28.49, -0.35 23.46 C-0.42 18.42, 1.37 12.46, 4.72 8.44 C8.08 4.43, 16.87 0.56, 19.79 -0.61 C22.7 -1.79, 21.96 0.99, 22.22 1.37 M22.61 0.58 C27.03 0.49, 33.53 3.4, 37.16 6.5 C40.78 9.61, 43.53 14.41, 44.37 19.2 C45.21 24, 44.42 30.91, 42.17 35.26 C39.93 39.6, 35.76 44.02, 30.91 45.28 C26.05 46.54, 17.71 45.01, 13.05 42.83 C8.4 40.64, 5.16 36.18, 2.95 32.16 C0.75 28.15, -1.29 23.5, -0.18 18.75 C0.92 14, 5.59 6.65, 9.59 3.68 C13.59 0.71, 21.67 1.72, 23.8 0.94 C25.94 0.16, 22.33 -1.07, 22.39 -1" stroke="none" stroke-width="0" fill="#ffffff"></path><path d="M20.43 -0.06 C24.81 -0.78, 30.14 1.17, 33.91 3.82 C37.68 6.47, 41.64 11.25, 43.05 15.83 C44.47 20.41, 44.21 26.89, 42.42 31.28 C40.62 35.68, 36.32 39.94, 32.29 42.22 C28.26 44.51, 22.86 46.2, 18.24 44.99 C13.62 43.79, 7.49 38.94, 4.55 34.98 C1.62 31.01, 0.4 25.91, 0.63 21.21 C0.87 16.5, 1.61 10.32, 5.94 6.77 C10.28 3.22, 22.33 0.83, 26.63 -0.07 C30.92 -0.98, 31.8 1.09, 31.7 1.35 M22.28 0.66 C26.58 0.36, 32.98 2.66, 36.71 5.69 C40.44 8.72, 43.62 14.11, 44.65 18.85 C45.68 23.59, 45.47 29.92, 42.88 34.12 C40.28 38.32, 33.97 42.63, 29.1 44.05 C24.23 45.47, 18.14 44.47, 13.66 42.65 C9.18 40.83, 4.19 37.17, 2.21 33.14 C0.23 29.1, 0.55 23.19, 1.78 18.43 C3.01 13.66, 6.23 7.63, 9.59 4.54 C12.96 1.44, 19.87 0.5, 21.98 -0.14 C24.08 -0.78, 22.21 0.32, 22.22 0.68" stroke="#000000" stroke-width="1" fill="none"></path></g><g stroke-linecap="round" transform="translate(55.97748422496386 33.18558584056353) rotate(0 58.010642006664625 56.446314122286765)"><path d="M0 0 C0 0, 0 0, 0 0 M0 0 C0 0, 0 0, 0 0 M0.29 2.71 C1.29 1.45, 1.79 0.89, 2.43 0.02 M0.2 2.86 C1.12 1.67, 2.29 0.54, 2.89 -0.34 M-0.32 5.78 C1.74 3.86, 3.59 1.57, 4.46 0.24 M0.08 6.38 C1.61 4.64, 3.36 2.42, 5.08 0.39 M1.13 8.46 C1.37 7.45, 5.72 2.41, 8.37 -0.67 M-0.4 9.56 C2.61 5.29, 5.48 1.9, 7.83 -0.36 M1.6 13.08 C4.23 6.6, 7.61 3.55, 10.34 -1.02 M-0.07 12.14 C2.96 8.99, 6.07 5.12, 11.01 -0.05 M-0.47 15.05 C3.05 11.16, 6.05 9.78, 14.01 -0.43 M0.34 16.57 C3.38 11.71, 5.31 7.19, 13.82 -1.1 M-0.68 19.61 C4.45 10.47, 9.32 4.05, 13.63 -1.02 M-0.93 18.81 C6.87 10.84, 12.21 4.76, 15.53 1.14 M0.61 21.08 C5.11 14.72, 13.38 7.69, 18.68 0.14 M-0.17 20.71 C7.55 13.58, 14.42 5.49, 18.4 -0.08 M1.27 24.51 C6 15.48, 10.88 9.58, 20.27 -1.23 M-0.38 23.81 C4.42 17.78, 10.1 11.6, 20.48 -0.02 M-1.96 26.01 C6.47 18.59, 18.39 7.14, 23.13 -1.41 M0.71 27.69 C6.68 20.59, 12.52 12.55, 23.64 -0.72 M-1.42 32.16 C7.71 20.15, 18.9 8.71, 25.82 -0.65 M0.45 29.6 C8.66 19.31, 18.54 8.93, 25.46 -0.69 M-0.91 35.09 C6.99 26.86, 13.46 18.41, 28.87 0.3 M0.61 33.85 C9.5 22.93, 19.86 10.91, 29.11 0.76 M-0.27 36.68 C10.65 23.86, 22.76 10.72, 32.3 -0.8 M0.59 36.21 C7.08 29.76, 14 20.76, 32.7 0.85 M0.14 40.81 C12.22 21.63, 25.31 6.14, 35.79 -0.14 M0.64 40.44 C11.92 25.9, 23.3 12.42, 35.11 -0.98 M0.95 44.41 C12.58 29.06, 22.04 14.84, 38.84 0.08 M-0.81 41.54 C13.13 29.12, 24.51 13.34, 35.95 1.22 M-0.7 45.66 C7.68 36.18, 18.77 25.62, 40.91 -0.84 M0.02 46.29 C12.72 31.59, 24.55 15.41, 39.44 -0.39 M0.26 48.23 C13.7 32.8, 23.61 20.68, 42.96 0.95 M-0.45 49.65 C9.26 37.43, 20.12 26.6, 41.71 -0.12 M-1.57 52.36 C11.97 40.13, 21.03 25.05, 43.6 1.3 M0.09 52.12 C12.32 38.62, 23.22 24.49, 44.67 -1.07 M2.04 54.26 C14.8 39.45, 27.03 24.26, 47.28 0.07 M-0.26 55.42 C15.92 34.18, 33.71 15.86, 47.96 1.18 M1.15 58.17 C11.79 45.61, 22.73 36.07, 48.39 0.65 M0.33 58.79 C14.91 40.39, 29.6 22.73, 50.84 0.27 M-0.2 59.85 C21.42 37.6, 40.28 12.4, 52.83 0.92 M-0.7 60.67 C21.41 37.27, 40.7 12.88, 53.46 0.35 M1.49 65.56 C14.92 45.14, 29.33 30.31, 54.15 0.8 M1 64.02 C13.15 48.3, 27.1 31.55, 56.77 -0.21 M0.77 68.36 C14.15 54.29, 26.08 39.55, 57.74 -1.76 M-0.11 66.8 C20.85 42.32, 43.32 17.02, 58.45 -0.52 M-1.42 68.29 C22.42 42.97, 47.52 16.38, 60.91 0.65 M-0.17 70.42 C11.73 54.45, 25.72 41.62, 60.76 0.53 M-0.07 71.42 C22.09 45.64, 43.73 20.76, 62.51 0.01 M-0.71 73.08 C22.37 45.02, 46.07 18.27, 63.91 -0.44 M1.28 78.08 C25.87 49.02, 53.58 19.48, 66.38 1.04 M0.66 76.2 C22.88 50.86, 45.32 24.94, 65.22 1.16 M-1.95 79.13 C24.19 52.73, 46.34 24.41, 68.8 1.48 M-0.57 78.95 C27.47 50.41, 52.62 20.2, 68.36 0.42 M-1.82 82.92 C17.51 62.06, 35.12 41.3, 72.06 -0.92 M-0.53 81.47 C25.19 53.56, 51.41 24.21, 70.66 0.2 M2.26 86.85 C16.75 64.71, 34.46 41.68, 72.6 -0.87 M0.98 84.67 C18.93 65.5, 36.73 43.81, 75.02 -1.2 M-0.32 89.31 C28.93 54.83, 54.79 21.11, 77.19 -1.6 M0.36 88.45 C29.71 56.68, 57.9 22.68, 75.77 0.32 M0.82 93.21 C18.82 70.63, 40.35 48.02, 79.06 0.7 M0.13 91.43 C27.36 60.38, 54.82 27.97, 78.64 0.3 M-1.46 92.98 C33.11 55.09, 64.69 21.55, 83.43 -0.15 M0.21 94.24 C23.92 67.91, 48.03 40.59, 81.99 -0.94 M-0.29 98.81 C34.78 60.49, 66.57 20.6, 83.69 -0.82 M-0.85 98 C24.83 67.58, 50.61 39.11, 84.72 -0.61 M0.65 100.92 C32.63 64.04, 62.62 30.33, 85.53 -0.45 M-0.62 100.81 C34.02 63.59, 65.36 24.39, 86.24 0.83 M0.67 104.52 C27.67 70.2, 55.12 38.93, 91.12 -1.19 M0.45 103.04 C23.63 76.48, 47.54 48.53, 90.26 -0.59 M1.6 106.11 C25.64 74.17, 56.09 44.07, 92.62 -1.14 M0.34 107.77 C29.8 73.9, 60.63 38.42, 92.2 -1.09 M-0.79 109.7 C26.88 79.48, 50.86 50.02, 96.36 1.08 M0.59 109.34 C20.66 85.13, 40.49 61.64, 94.99 0.6 M0.77 113.8 C25.73 82.21, 53.52 49.84, 98.98 -1.61 M-0.33 112.59 C36.6 69.97, 73.83 28.79, 97.06 -0.52 M2.52 113.45 C33.94 75.85, 71.16 38.61, 99.56 -1.28 M2.17 113.06 C30.73 79.72, 60.61 45.14, 100.16 0.06 M3.87 114.44 C41.48 71.57, 80.56 26.88, 105.23 0.01 M4.72 113.58 C41.43 70.62, 81.29 26.23, 102.74 -0.44 M8.24 112.62 C47.13 68.63, 84.51 23.49, 107.22 -2.28 M6.63 113.72 C32.84 83.33, 57.97 51.84, 105.77 -0.26 M9.82 114.3 C36.49 78.71, 68.04 46.99, 109.13 0.83 M10.38 114.51 C29.49 91.68, 48.48 67.71, 108.69 1.08 M13.82 112.85 C42.22 74.74, 77.86 38.02, 110.99 -0.67 M11.6 113.24 C35.71 87.71, 60.39 61.42, 111.3 0.52 M15.92 112.87 C45.99 77.55, 75.05 41.67, 114.84 -0.78 M14.31 113.96 C38.99 88.61, 60.27 60.62, 115.07 0.8 M17.77 114.5 C41.34 84.76, 66.2 56.21, 116.21 -1.22 M18.12 113.93 C49.82 76.16, 82.59 38.17, 116.35 0.87 M20.53 112.39 C55.66 75.2, 86.62 38.25, 116.97 3.8 M19.59 114.92 C48.59 83.28, 75.5 52.66, 116.96 3.43 M20.98 115.19 C47.98 83.8, 72.67 56.01, 114.74 5.58 M22.01 114.94 C46.54 86.36, 71.24 58.07, 117.38 5.15 M23.77 113.59 C54.42 77.18, 86.59 42.32, 114.52 10.2 M25.46 114.49 C59.21 77.39, 90.84 38.84, 116.12 10.24 M29.47 115.78 C59.06 82.44, 85.77 47.33, 114.73 11.71 M28.58 114.32 C54.54 83.19, 80.94 52.61, 115.51 11.83 M32.17 114.47 C62.13 76.83, 97.76 36.29, 116.83 15.24 M29.93 114.64 C52.11 90.1, 73.36 66.32, 117.08 15.37 M31.61 114.39 C62.14 79.92, 93.17 44.13, 116.76 17.14 M33.87 112.96 C63.22 82.57, 91.09 50.55, 116.7 19 M37.35 116.27 C58.73 86.9, 80.19 61.98, 116.42 21.3 M36.48 114.23 C61.41 84.83, 86.38 55.3, 115.89 22.12 M36.92 112.37 C65.44 83.43, 90.32 56.72, 117.21 26.11 M39.44 114.66 C57.98 91.4, 77.56 70.79, 117.04 24.62 M41.34 113.46 C66.32 84.18, 95.41 50.34, 115.52 28.75 M41.36 114.96 C65.52 85.91, 91.32 57.31, 116.71 27.39 M45.28 112.34 C74.24 81.05, 100.44 47.4, 118.2 29.37 M43.61 114.08 C62.55 92.09, 82.03 69.8, 116.78 30.8 M47.26 115.8 C74.04 81.13, 100.04 51.03, 116.11 34.18 M46.31 113.46 C63.5 96.37, 79.32 76.62, 115.81 33.98 M49.72 116.16 C73.86 85.71, 95.11 59.17, 116.25 34.89 M48.17 114.77 C65.7 94.69, 81.63 76.06, 116.9 36.52 M52.63 114.26 C76.23 83.6, 100.78 55.75, 117.96 40.73 M51.83 113.18 C75.53 87.48, 99.32 61.32, 115.62 40.79 M53.61 114.95 C77.22 88.78, 101.72 60.96, 117 41.92 M55.69 113.12 C66.96 99.83, 79.86 84.95, 115.9 43.62 M56.09 115.09 C77.92 89.65, 98 68.93, 115.19 44.74 M57.91 114.49 C69.83 98.92, 84.65 81.69, 117.33 45.61 M61.46 115.07 C77.28 95.45, 91.39 79.54, 115.8 47.7 M60.22 114.43 C80.54 90.76, 102.01 65.73, 116.37 49.59 M62.64 113.78 C77.58 99.53, 88.31 82.66, 115.07 53.84 M63.29 114.59 C82.01 91.97, 101.89 70.39, 115.61 53.11 M64.17 112.13 C78.22 97.16, 94.76 79.97, 115.75 53.71 M64.57 112.86 C82.34 93.33, 100.51 72.25, 117.03 55.76 M66.43 113.06 C85.08 96.99, 103.32 75.09, 114.58 57.63 M68.23 113.61 C80.25 100.91, 91.44 86.69, 115.24 57.58 M69.74 113 C78.94 102.53, 91.01 89.98, 117.74 59.94 M71.04 113.45 C84.96 97.57, 99.97 79.76, 116.73 61.61 M71.96 112.92 C85.91 100.92, 95.25 87.21, 118.45 65.99 M73.71 114.5 C88.97 95.27, 104.61 76.52, 117.13 63.16 M75.91 114.54 C88.84 100.59, 102.37 82.1, 117.04 67.63 M76.04 114.86 C87.49 100.38, 99.02 86.7, 117.11 67.5 M76.88 112.6 C87.46 104.51, 97.36 90.52, 117.19 71.26 M78.22 115.12 C86.2 105.44, 93.78 96.49, 116.32 70.16 M80.15 113.86 C90.75 102.44, 97.74 93.68, 118.03 73.27 M80.09 113.62 C94.63 99.24, 108.23 82.85, 117.28 72.64 M85.18 112.59 C97.81 99.39, 108.24 84.01, 115.69 75.08 M83.02 114.19 C90.08 105.41, 98.92 98.82, 116.63 75.72 M85.73 114.58 C94.12 103.3, 103.64 95.16, 114.81 79.35 M85.87 114.4 C96.99 101.93, 107.28 89.3, 116.45 79.9 M90.02 112.62 C99.51 103.48, 108.94 94.76, 115.97 82.29 M88.85 113.31 C94.09 106.4, 100.76 99.51, 115.36 81.9 M90.29 113.55 C100.9 105.46, 106.93 94.63, 117.25 84.61 M90.82 114.74 C102.3 103.01, 111.05 91.7, 115.95 85.98 M94.91 113.69 C102.84 102.62, 112.51 94.47, 117.74 87.77 M95.19 112.96 C101.59 106.33, 107.15 98.95, 115.92 88.36 M96.58 114.9 C105.42 107.1, 113.76 96.12, 116.98 90.28 M95.86 115.04 C103.74 105.99, 112.87 96.69, 115.3 91.74 M100.47 116.04 C104.65 108.56, 107.5 106.07, 116.5 94.62 M99.05 114.49 C103.72 108.77, 108.16 103.3, 115.82 94.61 M101.74 115.98 C105.64 112.01, 110.19 106.15, 115.35 99.6 M102.68 114.6 C106.34 109.98, 109.13 105.19, 116.07 97.67 M105.62 113.25 C109.31 109.66, 112.36 104.85, 117.31 100.55 M104.31 114.08 C108.37 110.42, 111.5 105.98, 116.67 100.45 M107.8 113.72 C109.99 110.96, 114.63 106.07, 117.15 103.99 M106.69 113.83 C110.78 110.26, 113.87 107.12, 116.11 104.02 M110.43 113.98 C112.15 111.42, 113.42 108.75, 116.5 107.42 M109.93 114.59 C111.97 112.24, 113.65 110.56, 116.88 106.38 M112.69 113.79 C113.8 112.33, 115.79 111.2, 115.68 110.1 M112.94 114.27 C113.96 113.12, 114.99 111.98, 116.34 110.06 M-0.05 112.85 C-0.05 112.85, -0.05 112.85, -0.05 112.85 M-0.05 112.85 C-0.05 112.85, -0.05 112.85, -0.05 112.85 M3.14 112.98 C1.91 111.64, 0.91 110.95, -0.58 109.97 M2.82 112.74 C1.53 111.58, 0.42 110.51, -0.08 109.9 M5.92 112.5 C4.16 111.6, 2.82 109.39, 0.49 107.9 M6.08 113.43 C4.81 111.62, 2.7 110.33, 0.32 107.62 M8.85 112.14 C5.95 108.69, 3.1 107.01, 1.02 103.91 M9.23 112.77 C6.56 110.2, 3.87 107.32, -0.25 104.58 M10.92 113.43 C9.2 109.15, 3.74 105.35, -1.64 101.14 M12.02 113.5 C9 108.9, 4.64 106.69, 0.23 102.81 M14.25 111.49 C8.9 108.74, 4.09 102.01, -1.17 99.27 M16.35 112.34 C11.13 108.38, 6.35 105.37, -0.4 98.93 M16.57 114.5 C13.68 108.73, 7.72 102.69, -0.04 96.97 M17.76 113.73 C11.87 107.23, 7.75 103.14, -0.42 96.97 M23.02 113.61 C12.71 104.6, 4.88 98.13, -1.63 92.87 M20.65 113.45 C17.06 108.16, 10.49 104.46, 0.09 95.12 M25.72 113.42 C16.31 105.47, 8.97 96.26, -1.71 92.6 M24.56 111.68 C14.99 105.8, 5.21 97.1, 0.36 91.4 M26.53 111.92 C18.41 108.31, 11.89 99.54, -2.31 88.39 M26.9 113.23 C18.17 105.44, 10.75 98.1, -0.73 87.88 M31.54 112.43 C21.78 106.58, 14.59 102.09, -0.72 86.91 M31.23 113.71 C22.34 106.53, 15.89 99.55, 0.05 86.83 M33.09 113.97 C24.02 105.26, 17.22 100.96, 1 85.12 M32.98 112.16 C23.21 102.07, 12.45 92.75, 0.58 84.76 M37 111.86 C22.03 102.21, 9.82 87.93, -1.98 80.71 M36.46 113.89 C28.54 104.49, 18.72 97.49, -0.88 81.13 M37.8 114.18 C27.3 103.34, 17.43 92.16, 1.25 79.99 M39.88 113.21 C26.07 100.91, 13.25 89.74, 0.56 78.52 M40.78 112.28 C25.77 99.25, 9.13 83.61, 0.33 77.68 M43.05 112.16 C31.44 104.22, 20.5 94.68, 1.2 76.64 M45.21 113.26 C33.09 101.57, 21.69 90.4, -1.86 72.8 M46.46 113.26 C32.29 102.09, 20.64 91.54, 0.92 72.48 M47.59 112.51 C31.22 97.34, 15.67 84.56, 0.78 71.11 M48.19 112.31 C31.43 97.61, 14.64 83.34, -0.98 70.97 M51.65 112.16 C39.46 103.87, 28.88 91.24, 0.86 69.63 M51.72 113.07 C31.95 96.94, 14.37 80.9, 1.19 67.8 M54.87 112.96 C40.31 100.73, 28.88 91.29, 0.7 65.19 M54.17 113.38 C42.21 101.96, 30.01 90.37, 0.48 66.2 M59.45 114.07 C35.13 94.32, 14.65 74.38, -1.63 60.82 M59.04 113.23 C37.92 94.04, 15.81 76.14, -0.93 61.58 M62.83 112.94 C39.28 94.33, 16.44 75.01, -1.84 57.71 M60.44 112.89 C39.88 94.76, 18.25 76.59, 0.54 59.69 M63.68 111.77 C50.8 100.41, 34.16 86.48, 1.61 58.92 M62.89 113.6 C49.85 100.18, 38.48 89.85, 0.61 56.71 M69.17 114.03 C41.55 88.41, 15.67 66.27, 1.98 53.34 M68.3 112.31 C45.02 93.52, 24.12 73.74, -0.66 55.3 M70.17 112.96 C54.58 97.93, 36.37 82.68, -1.72 50.09 M70.92 112.52 C53.43 97.51, 34.19 81.78, -1.02 51.36 M71.32 114.06 C45.23 85.82, 13.58 60.17, 1.74 50.4 M73.17 112.94 C56.86 97.57, 40.52 83.51, 0.12 48.11 M78.24 111.58 C52.41 92.09, 26.49 69.5, -1.16 47.4 M76.6 112.25 C59.85 98.59, 41.88 82.56, 0.5 46.19 M80.75 113.08 C55.45 93.62, 33.1 71.28, 1.76 46.05 M78.88 113.94 C60.05 96.28, 38.21 78.1, -0.75 43.73 M82.95 113.84 C50.7 85.49, 23.01 59.51, -1.53 41.52 M81.56 112.93 C62.34 95.51, 42.59 77.83, 0.6 41.11 M85.65 112.77 C67.87 98.79, 52.03 84.4, -0.88 39.1 M84.33 111.74 C63.08 93.83, 43.63 76.47, 0.21 39.02 M89.4 112.17 C60.6 91.67, 34.55 69.44, -0.86 38 M87.79 112.53 C54.39 81.82, 18.08 51.33, -0.16 36.54 M92.98 113.67 C70.46 95.75, 48.6 76.48, 1.65 35.22 M91.61 113.23 C57.82 83.42, 25.77 53.79, -0.36 33.31 M95.4 112.62 C72.24 91.48, 50.63 71.63, -0.47 32.01 M94.41 112.26 C55.98 78.42, 18.98 45.77, -0.1 30.14 M99.17 114.63 C69.04 86.17, 37.93 60.76, -2.1 29.71 M98.64 113.25 C76.58 94.36, 54.78 74.91, -0.73 27.21 M101.53 112.12 C68.72 80.83, 33.31 53.6, 1.11 25.6 M99.66 113.86 C69.66 85.17, 37.08 57.53, -0.42 26.07 M104.44 110.72 C83.21 95.65, 58.77 73.38, -0.77 24.75 M103.46 112.47 C64.51 77.89, 26.24 45.16, -0.02 23.81 M105.86 113.86 C66.26 81.12, 31.3 45.02, -1.94 18.46 M107.67 112.96 C85.3 95.12, 62.76 75.53, 0.81 19.74 M110.97 111.25 C78.28 87.27, 48.97 57.59, -2.32 16.14 M110.53 113.45 C65.63 74.18, 24.24 37.95, -0.25 17.48 M114.2 113.32 C81.33 87.42, 52.64 62.49, -0.65 13.13 M112.67 113.06 C75.08 79.71, 36.65 45.91, 0.66 15.06 M113.72 111.13 C83 83.24, 50.71 56.64, 0.09 10.56 M115.38 111.97 C90.51 92.75, 65.21 69.96, -0.28 13.05 M116.9 110.84 C89.82 90.67, 66.91 68.01, -1.34 9.79 M117.79 112.2 C75.26 76.08, 35.22 39.68, -0.71 9.2 M117.86 108.23 C90.07 83.96, 61.32 61.94, -1.21 8.96 M118.18 108.37 C71.8 69.56, 29.25 31.25, 0.86 7.28 M115.48 107.12 C89.92 79.33, 59.22 55.53, 0.44 3.49 M117.73 106.35 C85.71 80.3, 54.55 53.73, 0.04 3.82 M116.86 104.61 C81.49 69.58, 44.53 37.23, 1.83 0.54 M117.75 102.82 C90.92 81.69, 67.58 59.1, 0.31 0.81 M117.82 100.25 C78.72 68.54, 41.95 34.53, -1.34 -0.45 M117.91 100.56 C81.22 70.69, 45.98 39.18, 0.06 -1.52 M117.42 99.88 C79.13 66.4, 38.46 32.85, 2.34 -0.63 M116.53 98.67 C91.99 77.6, 67.16 57.24, 2.57 -1.27 M115.97 94.05 C85.21 66.56, 57.06 41.95, 5.78 1.48 M116.31 95.17 C87.67 69.56, 58.62 42.93, 7.46 0.54 M117.5 93.95 C80.98 62.06, 44.03 30.48, 7.86 -0.86 M116.58 93.2 C84.76 63.83, 52.89 36.26, 9.01 -0.58 M116.77 91.18 C79.61 58.57, 43.96 26.61, 13.22 -2.16 M118.06 91.03 C79.45 58.72, 43.44 27.05, 11.63 0.06 M117.79 85.64 C81.01 55.88, 47.06 28.79, 15.47 -0.15 M117.08 88.21 C83.14 57.63, 48.84 28.66, 16.86 -0.83 M115.79 83.96 C77.97 53.73, 42.75 22.08, 20.44 0.7 M117.39 84.24 C84.11 57.04, 53.02 28.85, 18.38 0.21 M116.5 84.03 C79.16 49.68, 44.48 17.95, 20.23 -0.31 M117.09 83.38 C98.17 64.79, 77.63 48.94, 21.73 0.12 M119.36 79.55 C97.8 62.33, 76.07 45.02, 23.63 -0.28 M117.68 79.4 C83.4 52.57, 49.06 23.31, 24.63 -0.6 M115.57 78.44 C83.58 48.49, 52.25 19.69, 27.22 -0.89 M117.78 76.28 C83.9 49.02, 51.91 21.72, 27.63 0.23 M118.54 74.75 C87.49 49.24, 58.96 23.3, 29.75 -0.53 M117.41 74.36 C99.11 56.92, 80.91 41.21, 30.45 -1.46 M118.95 72.43 C91.63 49.27, 64.54 23.69, 34.25 0.15 M116.72 72.34 C96.1 52.17, 74.13 33.56, 33.67 -1.26 M119.17 69.24 C83.65 43.25, 51.73 12.27, 39.23 -1.24 M118.22 69.46 C100.58 53.89, 80.66 37.79, 37.77 0.45 M115.34 67.17 C89.89 41.9, 59.75 15.15, 41.92 -0.27 M116.59 66.2 C93.12 45.63, 67.33 24.06, 40.09 -0.64 M115.81 64.32 C91.77 41.88, 68.82 24.17, 44.28 0.69 M116.85 64.32 C92.71 43.03, 69.78 22.73, 42.63 -0.18 M116.19 62.72 C89.94 40.08, 62.89 14.94, 48.29 1.06 M117.19 61.03 C89.58 38.03, 61.46 13.83, 47.02 -0.28 M117.8 60.17 C104.08 46.11, 90.21 35.77, 51.11 -1.45 M117.16 59.03 C103.5 45.74, 87.29 32.33, 49.49 -0.8 M117.7 56.75 C97.72 39.28, 79.12 23.76, 51.17 -0.4 M117.45 55.24 C100.92 40.84, 82.57 25.97, 52.69 -0.66 M115.2 54.59 C95.21 34.62, 71.72 12.34, 54.64 -0.74 M116.14 52.93 C104.24 40.78, 90.27 28.72, 55.89 -1.65 M118.82 49.8 C103.23 38.83, 90.71 29.19, 58.42 1.02 M117.44 51.75 C97.32 33.51, 78.13 17.34, 57.73 -0.43 M116.84 48.26 C98.52 31.05, 79.51 17.02, 60.6 0.64 M117.92 47.88 C105.15 36.88, 91.12 26.36, 60.51 -0.41 M115.25 44.07 C100 30.84, 85.87 17.66, 62.58 0.63 M116.32 44.71 C95.82 26.75, 76.4 8.51, 63.88 -1.01 M116.29 43.46 C104.39 33.2, 95.12 22.89, 68.18 -1.24 M117.74 42.98 C103.54 29.35, 87.6 16.13, 67.91 -0.91 M117.44 40.59 C104.63 30.03, 93.27 16.85, 70.99 0.6 M118.42 40.8 C108.1 30.69, 97.65 21.51, 70.02 -1.29 M117.89 37.39 C105.23 26.51, 96.34 16.59, 72.32 -2.05 M117.98 37.82 C102.41 26.07, 89.42 12.42, 72.77 -1.08 M116.58 34.05 C104.14 22.27, 93.38 13.89, 76.47 1.39 M117.16 33.91 C102.57 20.82, 87.59 9.25, 76.88 -0.25 M118.69 32.84 C104.26 19.51, 91.89 10.39, 77.97 0.77 M116.11 31.26 C104.67 21.52, 91.53 10.63, 80.15 -1 M118.63 29.98 C103.76 19.73, 90.41 6.48, 83.6 -0.3 M117.1 30.47 C105.1 18.34, 92.98 7.74, 83.32 -1.03 M118.53 27.49 C110.06 17.51, 99.3 12.35, 86.84 -0.61 M116.77 26.65 C104.4 16.32, 93.83 6.13, 86.23 -1.5 M118.28 23.58 C107.77 16.69, 101.92 11.95, 90.95 -1.53 M117.91 24.13 C106.03 14.56, 95.17 4.6, 88.61 -0.9 M118.74 21.28 C110.17 14.85, 104.92 11.26, 91.38 0.86 M118.45 21.24 C110.3 15.26, 103.03 7.6, 92.32 -0.94 M116.99 16.89 C110.26 12.7, 98.54 2.86, 93.84 -1.77 M118.42 19.06 C111.27 13.67, 102.94 7.41, 95.1 0.12 M116.37 14.45 C112.99 12.28, 103.47 4.84, 97.52 -1.49 M117.76 16.16 C112.14 10.73, 106.35 6.39, 97.6 0.27 M116.95 13.59 C109.84 8.76, 103.88 2.46, 102.35 -1.58 M116.54 12.67 C112.84 9.51, 108.37 5, 100.3 -1.49 M118.43 9.56 C113.48 7.3, 110.27 5.27, 103.08 -1.94 M117.7 10.46 C112.06 6.91, 106.92 2.18, 103.43 -0.47 M118.51 8.23 C114.9 6.37, 110.36 0.68, 107.89 0.39 M117.36 8.65 C114.18 4.55, 110.18 1.59, 107.57 0.31 M117.1 5.76 C116.37 4.69, 113.7 3.2, 110.87 -0.76 M116.84 5.75 C114.54 3.06, 112.79 1.72, 110.81 -0.17 M117.04 2.19 C116.07 1.66, 114.94 0.47, 113.49 -0.72 M116.99 2.65 C116.07 1.46, 114.89 0.46, 113.02 -0.83" stroke="#646262" stroke-width="0.25" fill="none"></path><path d="M0.59 0.14 C36.2 -1.5, 75.31 -1.34, 116.62 0.22 M0.36 -0.29 C37.04 -0.43, 76.06 0.41, 115.71 -0.78 M115.52 1.5 C116.42 39.2, 114.66 75.52, 115.9 113.73 M115.06 0.5 C115.43 30.9, 115.47 64.59, 115.1 112.08 M116.19 112.5 C71.58 113.87, 31.67 112.94, -1.02 112.18 M117 112 C78.48 112.88, 42.59 112.73, -0.8 113.37 M0.63 112.52 C-1.43 74.65, 0.36 38.03, 0.29 0.13 M0.49 112.53 C0.77 71.96, 0.43 28.35, 0.83 0.89" stroke="transparent" stroke-width="0.5" fill="none"></path></g><g stroke-linecap="round" transform="translate(74.6793622514449 49.176407414805055) rotate(0 36.63671875 36.63671875)"><path d="M51.47 2.84 C58.21 5.23, 65.15 11.62, 68.93 17.89 C72.7 24.16, 74.84 33.24, 74.12 40.43 C73.39 47.63, 69.55 55.7, 64.57 61.06 C59.6 66.42, 51.27 70.95, 44.28 72.6 C37.28 74.24, 29.02 73.62, 22.59 70.91 C16.16 68.2, 9.53 62.64, 5.67 56.34 C1.82 50.05, -1.16 40.35, -0.54 33.14 C0.07 25.92, 4.64 18.26, 9.38 13.05 C14.13 7.83, 20.91 3.57, 27.95 1.84 C34.99 0.11, 47.22 1.97, 51.63 2.65 C56.04 3.33, 54.66 5.11, 54.41 5.92 M33.26 0.4 C40.46 -0.49, 51.23 2.94, 57.47 6.63 C63.7 10.33, 68.32 16.12, 70.68 22.56 C73.05 28.99, 73.2 38.16, 71.68 45.24 C70.16 52.32, 66.73 60.53, 61.56 65.03 C56.38 69.54, 47.84 72.04, 40.63 72.27 C33.41 72.5, 24.45 69.84, 18.26 66.42 C12.07 62.99, 6.3 58.16, 3.48 51.71 C0.65 45.26, -0.33 34.97, 1.34 27.72 C3 20.46, 7.95 12.78, 13.47 8.18 C18.98 3.57, 30.98 1.53, 34.44 0.09 C37.9 -1.35, 34.26 -1.17, 34.23 -0.45" stroke="none" stroke-width="0" fill="#ced4da"></path><path d="M31.44 -0.32 C38.18 -1.63, 47.8 1.54, 54.21 5.28 C60.62 9.02, 66.79 15.68, 69.9 22.11 C73 28.53, 74.18 37, 72.83 43.85 C71.47 50.7, 67.14 58.36, 61.78 63.22 C56.41 68.07, 47.76 72.08, 40.65 72.97 C33.53 73.86, 25.23 72.18, 19.07 68.55 C12.91 64.92, 6.67 57.78, 3.68 51.21 C0.69 44.64, -0.27 36.21, 1.13 29.13 C2.52 22.05, 6.49 13.42, 12.06 8.74 C17.63 4.05, 30.69 2.27, 34.54 1.02 C38.38 -0.23, 35.34 0.76, 35.12 1.23 M43.98 1.51 C50.5 2.61, 59.52 7.08, 64.28 12.19 C69.05 17.3, 72.15 25.12, 72.58 32.18 C73 39.24, 70.59 48.09, 66.81 54.56 C63.04 61.03, 56.27 68.04, 49.91 71 C43.55 73.95, 35.66 74.13, 28.63 72.31 C21.6 70.48, 12.29 65.24, 7.72 60.05 C3.16 54.85, 1.64 48.22, 1.25 41.14 C0.86 34.07, 1.64 24.15, 5.39 17.59 C9.14 11.04, 17.36 4.45, 23.75 1.8 C30.14 -0.85, 40.01 1.65, 43.74 1.71 C47.46 1.76, 46.11 1.5, 46.09 2.12" stroke="#000000" stroke-width="1" fill="none"></path></g><g stroke-linecap="round"><g transform="translate(124.9051747831736 53.49097204140634) rotate(0 1.3970890198218626 31.732420034647447)"><path d="M-1.99 -0.09 C-0.1 17.64, 3.58 36.65, 2.25 64.11 M-1 -0.94 C1.61 18.89, 1.43 35.75, 4.79 64.41" stroke="#000000" stroke-width="1" fill="none"></path></g></g><mask></mask><g transform="translate(196.24464713524378 22.945253493325993) rotate(0 22 60)"><text x="22" y="17" font-family="Virgil, Segoe UI Emoji" font-size="19.34198563336554px" fill="#ffffff" text-anchor="middle" style="white-space: pre;" direction="ltr">CLK</text><text x="22" y="41" font-family="Virgil, Segoe UI Emoji" font-size="19.34198563336554px" fill="#ffffff" text-anchor="middle" style="white-space: pre;" direction="ltr">DT</text><text x="22" y="65" font-family="Virgil, Segoe UI Emoji" font-size="19.34198563336554px" fill="#ffffff" text-anchor="middle" style="white-space: pre;" direction="ltr">SW</text><text x="22" y="89" font-family="Virgil, Segoe UI Emoji" font-size="19.34198563336554px" fill="#ffffff" text-anchor="middle" style="white-space: pre;" direction="ltr">+</text><text x="22" y="113" font-family="Virgil, Segoe UI Emoji" font-size="19.34198563336554px" fill="#ffffff" text-anchor="middle" style="white-space: pre;" direction="ltr">GND</text></g></svg>