<svg version="1.1" xmlns="http://www.w3.org/2000/svg" viewBox="0 0 108.10123062360663 443.0972415392273" width="108.10123062360663" height="443.0972415392273">
  <!-- svg-source:excalidraw -->
  
  <defs>
    <style class="style-fonts">
      @font-face {
        font-family: "Virgil";
        src: url("https://excalidraw.com/Virgil.woff2");
      }
      @font-face {
        font-family: "Cascadia";
        src: url("https://excalidraw.com/Cascadia.woff2");
      }
    </style>
  </defs>
  <rect x="0" y="0" width="108.10123062360663" height="443.0972415392273" fill="#ffffff"></rect><g stroke-linecap="round" transform="translate(23.731241974885904 10) rotate(0 30.37549557932151 32.05098214695582)"><path d="M14.35 0.69 L47.29 2.14 L52.94 1.33 L57.47 4.38 L61.65 13.72 L58.58 51.34 L60.48 57.04 L52.88 63.45 L44.71 64.76 L12.48 64.72 L4.56 62.53 L2.31 57.95 L1.93 48.43 L1.79 12.95 L0.57 4.65 L4.15 2.92 L16.46 -0.4" stroke="none" stroke-width="0" fill="#ced4da"></path><path d="M15.19 0 M15.19 0 C22.91 1.34, 30.96 1.32, 45.56 0 M45.56 0 C57.04 0.83, 60.33 4.4, 60.75 15.19 M60.75 15.19 C62.25 23.78, 61.92 30.17, 60.75 48.91 M60.75 48.91 C61.23 59.79, 53.96 62.92, 45.56 64.1 M45.56 64.1 C39.34 64.93, 31.8 62.49, 15.19 64.1 M15.19 64.1 C6.46 65.05, 1.39 58.95, 0 48.91 M0 48.91 C-0.17 38.27, -0.12 26.11, 0 15.19 M0 15.19 C-0.22 3.61, 4.17 -0.05, 15.19 0" stroke="transparent" stroke-width="1" fill="none" stroke-dasharray="1.5 6.5"></path></g><g stroke-linecap="round" transform="translate(38.28561017169963 166.36693080636064) rotate(0 13.482700615667525 133.36515536643333)"><path d="M8.48 1.33 L25.1 1.74 L26.99 5.34 L26.19 6.26 L26.18 259.93 L25.17 264.33 L18.96 264.98 L2.54 264.56 L1.62 267.02 L-1.16 261.79 L0 7.12 L1.17 0.74 L7.11 -1.54" stroke="none" stroke-width="0" fill="#464d53"></path><path d="M6.74 0 M6.74 0 C11.6 0.7, 16.48 0.75, 20.22 0 M20.22 0 C25.14 1.56, 27.58 3.59, 26.97 6.74 M26.97 6.74 C24 95.22, 25.65 186.28, 26.97 259.99 M26.97 259.99 C25.32 266.16, 24.43 264.91, 20.22 266.73 M20.22 266.73 C14.42 267, 11.2 266.86, 6.74 266.73 M6.74 266.73 C1.81 267.31, 1.5 264.24, 0 259.99 M0 259.99 C-2.34 161.28, -2.57 63.67, 0 6.74 M0 6.74 C-0.55 0.47, 2.62 1, 6.74 0" stroke="transparent" stroke-width="1" fill="none" stroke-dasharray="1.5 6.5"></path></g><g stroke-linecap="round" transform="translate(10 58.6817100714336) rotate(0 44.05061531180331 56.715534681010126)"><path d="M22.55 -1.1 L69.76 -1.37 L80.94 1.37 L83.99 7.69 L89.22 20.51 L86.6 90.63 L84.06 105.42 L79.93 112.21 L64.59 115.34 L16.78 111.58 L7.1 110.32 L2.93 105.57 L1.75 92.05 L-0.85 17.43 L1.89 10.53 L7.83 1.24 L21.89 -1.84" stroke="none" stroke-width="0" fill="#32383e"></path><path d="M22.03 0 M22.03 0 C33.37 0.86, 45.51 2.1, 66.08 0 M66.08 0 C82.69 1.13, 87.11 5.41, 88.1 22.03 M88.1 22.03 C88.26 39.94, 88.07 59.33, 88.1 91.41 M88.1 91.41 C87.22 107.82, 82.39 111.71, 66.08 113.43 M66.08 113.43 C47.35 114.96, 32.58 115.09, 22.03 113.43 M22.03 113.43 C5.87 115.07, 1.42 106.53, 0 91.41 M0 91.41 C-0.64 67.31, 1.85 40.78, 0 22.03 M0 22.03 C0.83 5.51, 7.61 1.33, 22.03 0" stroke="transparent" stroke-width="1" fill="none" stroke-dasharray="1.5 6.5"></path></g><g stroke-linecap="round"><g transform="translate(34.16703936392639 22.959134011474532) rotate(0 0.10588565724899013 13.780625547934335)"><path d="M-0.89 -0.03 C-0.57 4.66, 0.73 22.51, 1.1 27.08 M0.85 -1.09 C1.04 3.9, 0 24.27, -0.05 28.65" stroke="#606971" stroke-width="1" fill="none"></path></g></g><mask></mask><g stroke-linecap="round"><g transform="translate(69.82046094152903 23.774072382766434) rotate(0 0.7828268865423667 14.210241386486857)"><path d="M-0.39 0.11 C-0.12 4.86, 1.46 24.34, 1.95 29.3 M1.61 -0.88 C1.68 3.45, 0.88 22.68, 0.95 27.52" stroke="#606971" stroke-width="1" fill="none"></path></g></g><mask></mask></svg>