<svg version="1.1" xmlns="http://www.w3.org/2000/svg" viewBox="0 0 76.67174802140687 87.06147670994264" width="76.67174802140687" height="87.06147670994264">
  <!-- svg-source:excalidraw -->
  
  <defs>
    <style class="style-fonts">
      @font-face {
        font-family: "Virgil";
        src: url("https://excalidraw.com/Virgil.woff2");
      }
      @font-face {
        font-family: "Cascadia";
        src: url("https://excalidraw.com/Cascadia.woff2");
      }
    </style>
  </defs>
  <rect x="0" y="0" width="76.67174802140687" height="87.06147670994264" fill="#ffffff"></rect><g stroke-linecap="round" transform="translate(10 15.798790269802879) rotate(0 28.335874010703435 27.39281338990218)"><path d="M0.92 0.96 L55.93 1.6 L57.53 56.32 L-1.44 54.4" stroke="none" stroke-width="0" fill="#ffffff"></path><path d="M0.16 -0.55 C14.73 1.57, 31.67 1.77, 55.92 -0.31 M0.39 -0.44 C20.14 1.12, 41.21 1.1, 56.16 -0.41 M55.71 1.54 C58.42 12.59, 56.92 25, 58.56 54.28 M57.11 -0.97 C56.85 21.11, 55.83 42.14, 56.01 54.06 M57.73 56.17 C34.61 53.61, 16.02 55.85, -0.04 56.44 M56.09 54.77 C38.01 55.23, 20.3 55.62, 0.11 55.37 M1.12 53.83 C1.67 32.27, 0.37 14.24, -1.77 0.12 M-0.13 55.26 C0.64 40.95, -0.94 28.25, 0.02 -0.01" stroke="#000000" stroke-width="0.5" fill="none"></path></g><g stroke-linecap="round" transform="translate(16.48807350700156 21.569128102384497) rotate(0 21.9010340959222 21.9010340959222)"><path d="M22.66 0.59 C27.3 0.37, 33.95 2.42, 37.33 5.54 C40.72 8.65, 42.51 14.52, 42.97 19.3 C43.42 24.08, 42.54 30.31, 40.06 34.24 C37.58 38.17, 32.33 41.69, 28.11 42.87 C23.88 44.06, 18.93 43.21, 14.69 41.36 C10.46 39.52, 5.02 35.63, 2.68 31.79 C0.33 27.94, -0.28 22.73, 0.64 18.3 C1.55 13.86, 4.13 8.23, 8.19 5.19 C12.26 2.14, 22.22 0.59, 25.04 0.01 C27.86 -0.56, 25.27 1.34, 25.11 1.72 M28.11 1.23 C32.59 1.88, 38.03 4.09, 40.59 7.7 C43.16 11.32, 44.13 17.83, 43.48 22.9 C42.83 27.96, 39.75 34.75, 36.68 38.11 C33.61 41.47, 29.76 42.66, 25.07 43.06 C20.39 43.46, 12.66 42.79, 8.59 40.51 C4.51 38.22, 1.85 34.02, 0.63 29.35 C-0.58 24.69, -0.38 16.92, 1.31 12.53 C3 8.14, 6.52 4.74, 10.78 2.99 C15.04 1.25, 24.33 2.41, 26.87 2.06 C29.42 1.71, 25.89 0.53, 26.04 0.88" stroke="none" stroke-width="0" fill="#ced4da"></path><path d="M17.65 0.23 C21.77 -1, 27.58 0.91, 31.53 2.96 C35.47 5.02, 39.35 8.45, 41.31 12.57 C43.27 16.69, 44.61 22.96, 43.28 27.69 C41.96 32.42, 37.4 38.16, 33.38 40.95 C29.35 43.73, 23.78 45.15, 19.14 44.42 C14.49 43.69, 8.79 40.09, 5.49 36.56 C2.2 33.03, -0.46 27.91, -0.64 23.22 C-0.82 18.52, 0.97 12.08, 4.42 8.39 C7.86 4.69, 17.14 2.34, 20.02 1.04 C22.89 -0.26, 21.79 0.2, 21.68 0.57 M18.47 0.82 C22.4 -0.06, 28.26 1.37, 32.31 3.56 C36.35 5.75, 41.16 9.66, 42.75 13.96 C44.34 18.27, 43.82 24.65, 41.83 29.39 C39.85 34.13, 34.89 40.02, 30.84 42.41 C26.78 44.8, 21.78 44.77, 17.52 43.73 C13.26 42.69, 8.32 40.17, 5.26 36.19 C2.2 32.2, -1.08 24.57, -0.84 19.82 C-0.6 15.07, 3.38 10.76, 6.7 7.69 C10.03 4.63, 16.99 2.72, 19.12 1.41 C21.25 0.1, 19.28 -0.19, 19.49 -0.18" stroke="#ffffff" stroke-width="0.5" fill="none"></path></g><g stroke-linecap="round" transform="translate(13.929189798199673 10.722324777197684) rotate(0 5.718939881472295 2.5428218490802266)"><path d="M-0.74 1.6 L12.3 1.54 L9.99 4.7 L-0.31 3.51" stroke="none" stroke-width="0" fill="#ced4da"></path><path d="M-0.54 0.87 C3.52 1.01, 6.24 -0.14, 12.19 -0.77 M-0.34 0.44 C2.58 0.48, 5.18 -0.19, 11.05 -0.01 M11.89 -0.03 C11.48 1.48, 11.89 3.04, 11.88 5.2 M11.45 -0.01 C11.21 1.25, 11.29 2.41, 11.61 5.16 M10.78 4.31 C8.32 5.67, 3.84 6.11, 0.22 4.49 M11.12 5.12 C7.13 5.34, 3.1 5.42, 0.49 5.08 M0.42 4.74 C0.06 4.32, -0.48 2.68, -0.25 0.09 M0.19 5.06 C-0.21 3.36, 0.01 1.18, 0.12 0.12" stroke="transparent" stroke-width="0.5" fill="none"></path></g><g stroke-linecap="round" transform="translate(31.9928161514747 10.682858493310107) rotate(0 5.925908416743027 2.6203776860220387)"><path d="M1.6 0.86 L13.39 -1.44 L11.47 4.93 L-1.58 6.86" stroke="none" stroke-width="0" fill="#ced4da"></path><path d="M0.9 0.2 C4.67 -0.39, 7.12 0.84, 11.05 -0.72 M0.46 -0.17 C4.46 -0.23, 7.78 -0.33, 11.84 0.07 M11.82 0.07 C11.78 1.81, 11.76 3.09, 11.97 5 M11.84 -0.25 C11.76 1.63, 11.61 3.78, 11.93 5.32 M11.05 5.93 C8.2 5.15, 4.46 5.4, -0.62 6.04 M11.89 5.13 C9.25 5.24, 6.47 5.69, -0.01 4.88 M-0.35 5.34 C0.49 2.91, 0.06 1.25, 0.09 0.44 M-0.03 5.02 C0.21 3.74, -0.03 2.36, 0.13 -0.1" stroke="transparent" stroke-width="0.5" fill="none"></path></g><g stroke-linecap="round" transform="translate(50.79712369305764 10) rotate(0 5.445429355926024 2.9567589196217057)"><path d="M0.86 1.54 L9.45 -0.38 L10.58 4.34 L1.62 6.69" stroke="none" stroke-width="0" fill="#ced4da"></path><path d="M0.18 0.93 C2.56 -0.25, 6.65 -0.82, 10.23 0.42 M-0.15 0.41 C2.51 -0.31, 5.22 -0.09, 10.95 -0.26 M10.97 -0.12 C11.5 2.08, 11.45 4.6, 10.62 6.17 M10.6 -0.05 C10.7 0.99, 11.1 2.49, 10.98 6.07 M11.53 6.4 C6.85 6.74, 3.06 5.27, 0.73 5.28 M10.79 6.16 C7.7 6.24, 4.87 5.91, -0.33 6.22 M0.11 6.44 C-0.57 4.46, -0.34 3.03, 0.5 -0.08 M-0.25 6.18 C-0.04 3.86, 0.09 1.95, -0.11 0.24" stroke="transparent" stroke-width="0.5" fill="none"></path></g><g stroke-linecap="round" transform="translate(15.73087154869404 69.65007572408345) rotate(0 4.726775860950454 3.7057004929295942)"><path d="M1.54 -1.44 L9.07 -0.31 L7.88 9.03 L0.78 6.63" stroke="none" stroke-width="0" fill="#ced4da"></path><path d="M0.81 -0.35 C2.25 0.61, 4.14 -0.59, 9.82 -0.41 M0.36 -0.24 C2.07 -0.3, 4.53 0.08, 9.23 0.36 M9.3 0.7 C9.26 3.51, 9.62 5.42, 9.77 6.69 M9.39 -0.25 C9.18 2.51, 9.56 4.64, 9.65 7.67 M9.87 7.39 C7.94 7.65, 4.38 8.1, -0.55 7.39 M9.67 7.46 C7.43 7.8, 4.84 7.11, 0.27 7.19 M0.66 6.75 C0.09 4.2, 0.18 2.35, -0.1 0.35 M0.33 7.42 C0.01 4.81, 0.19 1.74, 0.3 0.16" stroke="transparent" stroke-width="0.5" fill="none"></path></g><g stroke-linecap="round" transform="translate(31.428356509827154 69.98508022684985) rotate(0 5.501416409812975 3.4757864437707298)"><path d="M-1.44 -0.38 L10.69 -1.58 L12.62 7.73 L-0.78 5.2" stroke="none" stroke-width="0" fill="#ced4da"></path><path d="M-0.41 -0.17 C4.87 -0.84, 7.61 0.33, 10.52 -0.66 M-0.28 -0.23 C3.78 -0.09, 8.38 -0.35, 11.43 0.48 M11.66 -0.18 C11.61 2.21, 10.7 4.39, 10.33 6.99 M10.77 -0.25 C11.18 2.16, 11.04 4.29, 11.24 6.75 M10.98 7.86 C8.66 6.42, 6.63 6.36, -0.02 6.33 M11.06 7.27 C8.11 6.99, 3.94 7.31, -0.26 7.41 M-0.62 6.99 C-0.36 5.46, 0.57 3.62, 0.33 0.51 M0.01 6.95 C0.22 5.12, -0.07 3.23, 0.15 0.27" stroke="transparent" stroke-width="0.5" fill="none"></path></g><g stroke-linecap="round" transform="translate(51.67639578524995 70.04014946018131) rotate(0 4.824982660391527 3.1141651448941303)"><path d="M-0.38 -0.31 L8.07 1.62 L10.43 5.45 L-1.76 6.61" stroke="none" stroke-width="0" fill="#ced4da"></path><path d="M-0.15 0.64 C2.4 -0.55, 6.48 -0.38, 9.07 0.75 M-0.2 -0.33 C2.62 0.11, 5.02 0.42, 10.07 -0.03 M9.49 0.54 C9.78 1.67, 9.91 3.29, 9.68 6.2 M9.43 0.21 C9.74 1.36, 9.8 2.74, 9.47 6.02 M10.45 6.41 C5.68 6.87, 2.17 6.21, -0.54 6.29 M9.93 6.64 C6.92 5.95, 4.48 6.01, 0.4 5.9 M0.04 5.92 C0.06 4.77, -0.14 2.56, 0.46 -0.07 M0 6.37 C0.09 4.77, 0.19 3.67, 0.24 -0.22" stroke="transparent" stroke-width="0.5" fill="none"></path></g><g stroke-linecap="round" transform="translate(34.399341648059476 35.855005049121104) rotate(0 3.5735343329340594 5.1590693426024075)"><path d="M-0.31 -1.58 L8.77 0.78 L6.37 8.56 L0.38 9.92" stroke="none" stroke-width="0" fill="#868e96"></path><path d="M0.47 -0.48 C2.32 0.29, 5.2 -0.42, 7.7 -0.2 M-0.24 -0.01 C2.73 -0.14, 5.64 0.34, 7.13 0.05 M8.04 0.24 C6.78 3.33, 6.24 5.82, 7.1 9.32 M7.5 0.16 C7.24 3.19, 7.44 5.53, 6.8 10.62 M7.28 9.94 C5.16 9.96, 2.21 9.97, 0.04 10.19 M7.46 10.31 C4.46 10.56, 2.04 10.66, -0.24 10.38 M-0.51 10.5 C0.96 6.17, 0.58 3.05, -0.12 -0.87 M0.24 10.56 C-0.19 6.71, 0.22 2.66, -0.37 -0.1" stroke="transparent" stroke-width="0.5" fill="none"></path></g><g stroke-linecap="round"><g transform="translate(54.71438182403563 16.64593864255187) rotate(0 4.914774273552958 5.608537682149398)"><path d="M-1.04 -0.93 C3.41 2.14, 4.71 6.89, 10.34 12.15 M-0.01 0.09 C2.26 3.4, 5.98 5.49, 10.87 10.83" stroke="#000000" stroke-width="0.5" fill="none"></path></g></g><mask></mask></svg>