<svg version="1.1" xmlns="http://www.w3.org/2000/svg" viewBox="0 0 281.64168661211784 281.64168661211784" width="281.64168661211784" height="281.64168661211784">
  <!-- svg-source:excalidraw -->
  
  <defs>
    <style class="style-fonts">
      @font-face {
        font-family: "Virgil";
        src: url("https://excalidraw.com/Virgil.woff2");
      }
      @font-face {
        font-family: "Cascadia";
        src: url("https://excalidraw.com/Cascadia.woff2");
      }
    </style>
  </defs>
  <rect x="0" y="0" width="281.64168661211784" height="281.64168661211784" fill="#ffffff"></rect><g stroke-linecap="round" transform="translate(10.000000000000057 10) rotate(357.65861277348114 130.8208433060589 130.8208433060589)"><path d="M180.87 10.22 C194.14 13.51, 206.98 22.94, 217.55 32.46 C228.12 41.98, 237.22 54.89, 244.3 67.35 C251.37 79.81, 257.46 93.45, 259.98 107.2 C262.5 120.94, 261.78 135.89, 259.41 149.81 C257.05 163.74, 252.2 178.12, 245.79 190.74 C239.38 203.36, 231 215.66, 220.94 225.51 C210.88 235.37, 198.17 243.81, 185.43 249.89 C172.68 255.96, 158.74 260.57, 144.48 261.98 C130.21 263.39, 113.67 261.7, 99.84 258.33 C86.01 254.96, 73.23 249.3, 61.5 241.76 C49.78 234.21, 38.47 224.26, 29.49 213.07 C20.51 201.89, 12.64 188.2, 7.62 174.66 C2.59 161.13, -0.35 145.92, -0.65 131.86 C-0.94 117.8, 1.4 103.76, 5.86 90.3 C10.32 76.85, 17.55 62.47, 26.11 51.13 C34.68 39.79, 45.43 30.17, 57.25 22.28 C69.07 14.39, 83.17 7.3, 97.06 3.77 C110.94 0.24, 125.41 -0.63, 140.57 1.09 C155.73 2.81, 179.11 10.87, 188.01 14.07 C196.92 17.28, 194.69 18.48, 194 20.33 M101.49 2.2 C114.29 -2.66, 130.64 -0.56, 144.61 1.03 C158.58 2.63, 172.74 6.02, 185.31 11.78 C197.87 17.54, 209.8 25.86, 220.01 35.6 C230.22 45.34, 239.69 57.73, 246.55 70.21 C253.41 82.69, 259.19 96.31, 261.2 110.49 C263.2 124.67, 261.54 141.5, 258.59 155.3 C255.65 169.1, 250.21 181.21, 243.54 193.31 C236.88 205.41, 229.11 218.28, 218.62 227.89 C208.13 237.5, 193.58 245.31, 180.62 250.96 C167.66 256.61, 154.74 260.51, 140.88 261.77 C127.03 263.03, 111.24 262.34, 97.48 258.53 C83.72 254.72, 70.36 247.1, 58.35 238.9 C46.34 230.7, 34.18 220.78, 25.41 209.34 C16.65 197.9, 10.18 183.81, 5.75 170.25 C1.33 156.7, -1.52 142.08, -1.14 128.02 C-0.76 113.96, 3.18 98.92, 8.02 85.92 C12.86 72.92, 18.87 61, 27.89 50.02 C36.92 39.04, 50.23 27.66, 62.17 20.03 C74.1 12.41, 93.01 6.42, 99.5 4.27 C106 2.13, 100.34 5.3, 101.13 7.17" stroke="none" stroke-width="0" fill="#32383e"></path><path d="M110.3 1.76 C123.46 -2.33, 140.86 0.08, 155.01 2.71 C169.17 5.34, 182.95 10.61, 195.23 17.53 C207.51 24.44, 219.48 33.85, 228.7 44.2 C237.92 54.55, 245.01 66.72, 250.55 79.64 C256.08 92.57, 260.93 107.77, 261.91 121.76 C262.9 135.75, 260.32 149.95, 256.47 163.59 C252.61 177.23, 246.43 191.55, 238.77 203.61 C231.11 215.66, 221.55 227.43, 210.5 235.91 C199.44 244.39, 186.12 250.25, 172.45 254.48 C158.79 258.7, 142.68 261.31, 128.5 261.26 C114.31 261.22, 100.7 258.91, 87.33 254.2 C73.96 249.49, 59.33 241.89, 48.26 233 C37.19 224.1, 28.44 212.69, 20.92 200.83 C13.4 188.97, 6.49 175.56, 3.13 161.84 C-0.22 148.11, -0.68 132.64, 0.77 118.47 C2.22 104.3, 5.85 89.59, 11.83 76.81 C17.81 64.03, 26.91 52.18, 36.66 41.79 C46.4 31.41, 57.51 21.27, 70.31 14.48 C83.1 7.69, 105.94 2.91, 113.41 1.06 C120.87 -0.8, 114.67 1.25, 115.1 3.33 M130.32 -0.35 C143.71 -2.62, 159.65 1.93, 173.35 6.43 C187.05 10.93, 201.23 18.05, 212.52 26.64 C223.81 35.24, 233.67 46.12, 241.09 58.01 C248.51 69.9, 253.89 84.08, 257.05 97.98 C260.2 111.89, 261.01 127.01, 260.04 141.44 C259.07 155.88, 256.74 171.53, 251.22 184.6 C245.69 197.66, 236.59 209.67, 226.9 219.83 C217.22 229.98, 205.44 238.68, 193.09 245.55 C180.73 252.41, 166.92 258.44, 152.77 261.02 C138.62 263.61, 122.16 263.64, 108.2 261.05 C94.24 258.46, 81.49 252.38, 69.02 245.48 C56.54 238.57, 43.02 230.12, 33.36 219.61 C23.69 209.09, 16.3 195.41, 11.02 182.39 C5.74 169.37, 2.98 155.51, 1.68 141.48 C0.39 127.46, 0.14 111.89, 3.26 98.23 C6.37 84.56, 12.74 71.1, 20.38 59.5 C28.01 47.9, 37.71 37.16, 49.08 28.61 C60.46 20.06, 75.23 12.93, 88.63 8.2 C102.04 3.47, 122.28 1.33, 129.49 0.24 C136.7 -0.84, 131.64 -0.38, 131.9 1.7" stroke="#000000" stroke-width="2" fill="none"></path></g><g stroke-linecap="round" transform="translate(111.68144841044602 110.44840100568013) rotate(357.65861277348114 28.335874010703435 27.392813389902187)"><path d="M0.66 -0.97 L55.48 -0.69 L55.38 55.93 L1.23 54.9" stroke="none" stroke-width="0" fill="#ffffff"></path><path d="M1.29 0.33 C18.52 1.46, 34.25 -1.37, 57.76 0.36 M-0.56 -0.05 C19.25 -0.09, 36.03 -0.25, 55.96 0.98 M57.42 -1.9 C54.88 12.92, 56.21 22.86, 56.48 56.5 M55.94 -0.56 C56.22 16.04, 56.77 29.4, 55.75 54.21 M57.1 54.19 C40.09 54.16, 28.11 55.52, 0.43 55.45 M57.07 55.02 C38.8 54.2, 20.96 55.9, -0.37 55.06 M-1.64 53.68 C1.18 33.26, 1.88 13.82, -0.63 1.7 M0.77 55.76 C-1.31 36.62, -0.7 18.67, -0.93 -0.13" stroke="#000000" stroke-width="0.5" fill="none"></path></g><g stroke-linecap="round" transform="translate(118.18085757850224 116.21633150154025) rotate(357.65861277348114 21.9010340959222 21.9010340959222)"><path d="M15.01 1.78 C18.93 0.18, 25.03 0.3, 29.24 1.79 C33.44 3.27, 37.78 6.82, 40.22 10.71 C42.66 14.59, 44.48 20.54, 43.86 25.09 C43.25 29.65, 40.29 34.77, 36.51 38.03 C32.74 41.29, 26.01 44.46, 21.23 44.65 C16.46 44.83, 11.46 42.23, 7.87 39.14 C4.28 36.05, 0.32 31.03, -0.31 26.12 C-0.94 21.22, 1.45 13.96, 4.09 9.71 C6.74 5.46, 13.46 2.2, 15.56 0.61 C17.67 -0.97, 16.64 -0.26, 16.72 0.2 M15.67 1.5 C20.23 0.26, 28.27 0.61, 32.46 2.32 C36.65 4.03, 39.25 7.5, 40.79 11.76 C42.32 16.01, 42.69 23.34, 41.67 27.85 C40.66 32.36, 38.54 36.13, 34.69 38.82 C30.84 41.51, 23.58 44.12, 18.57 43.99 C13.57 43.86, 7.9 41.46, 4.65 38.03 C1.4 34.6, -0.69 28.33, -0.94 23.41 C-1.2 18.5, 0.39 12.21, 3.13 8.56 C5.87 4.9, 13.43 2.56, 15.49 1.48 C17.56 0.4, 14.99 2.07, 15.51 2.08" stroke="none" stroke-width="0" fill="#ced4da"></path><path d="M30.69 1.79 C34.87 3.42, 39.29 8.26, 41.48 12.28 C43.68 16.3, 44.88 21.28, 43.85 25.93 C42.82 30.58, 39.06 37.27, 35.31 40.16 C31.55 43.05, 25.98 43.72, 21.31 43.26 C16.64 42.81, 10.63 40.64, 7.27 37.44 C3.92 34.23, 2.01 28.51, 1.19 24.03 C0.37 19.55, -0.04 14.55, 2.35 10.57 C4.74 6.58, 10.2 1.03, 15.55 0.11 C20.89 -0.81, 30.55 3.66, 34.42 5.04 C38.29 6.42, 38.9 8.08, 38.77 8.41 M18.23 -0.68 C22.54 -1.11, 29.15 2.44, 33.3 4.93 C37.44 7.42, 41.88 10.13, 43.1 14.25 C44.32 18.38, 42.63 24.91, 40.64 29.68 C38.66 34.44, 35.06 40.53, 31.21 42.84 C27.35 45.15, 22.07 45.06, 17.52 43.54 C12.97 42.03, 6.93 37.4, 3.91 33.75 C0.89 30.09, -1.01 26.01, -0.61 21.59 C-0.21 17.17, 2.91 10.77, 6.32 7.22 C9.72 3.67, 17.89 1.24, 19.82 0.29 C21.75 -0.66, 17.85 1.14, 17.91 1.54" stroke="#ffffff" stroke-width="0.5" fill="none"></path></g><g stroke-linecap="round" transform="translate(114.40363794339726 106.16038032527547) rotate(357.65861277348114 5.718939881472295 2.5428218490802124)"><path d="M-1.3 1.14 L12.67 0.11 L9.92 3.39 L-1.69 4.92" stroke="none" stroke-width="0" fill="#ced4da"></path><path d="M0.6 -0.74 C4.25 0.12, 7.5 0.63, 12.05 -0.65 M-0.3 0.03 C2.97 0.54, 6.25 -0.6, 11.61 0.21 M11.46 -0.09 C11.36 1.48, 11.29 2.04, 11.14 4.72 M11.48 -0.23 C11.18 1.1, 11.32 2.72, 11.55 5.14 M12.14 5.37 C8.6 5.41, 5.36 3.92, 0.72 5.54 M11.06 5.52 C7.53 5.13, 4.37 4.7, 0.2 4.62 M0.41 4.64 C-0.18 4.27, 0.14 2.95, -0.3 0.39 M-0.08 5.14 C-0.19 3.03, 0.13 0.92, -0.15 -0.09" stroke="transparent" stroke-width="0.5" fill="none"></path></g><g stroke-linecap="round" transform="translate(132.45356710157444 105.37446370006239) rotate(357.65861277348114 5.925908416743027 2.6203776860220387)"><path d="M1.23 0.11 L10.34 -1.69 L10.16 5.08 L0.76 3.57" stroke="none" stroke-width="0" fill="#ced4da"></path><path d="M0.65 0.21 C4.74 0.82, 9.58 -0.59, 11.8 1.16 M-0.42 0.58 C3.29 -0.6, 7.8 0.22, 11.29 -0.37 M11.8 0.45 C11.73 1.87, 11.55 3.46, 11.56 5.03 M11.61 -0.15 C11.76 2.29, 11.97 4.14, 11.77 5.02 M12.11 5.63 C8.92 4.11, 6.51 5.74, 0.28 4.82 M11.63 5.4 C9.76 5.04, 7.18 4.84, -0.33 5.51 M-0.16 5.69 C0.12 4.53, -0.35 3.51, 0.51 -0.49 M-0.24 5.21 C0.1 3.55, -0.14 2.02, -0.17 0.15" stroke="transparent" stroke-width="0.5" fill="none"></path></g><g stroke-linecap="round" transform="translate(151.2284220887626 103.94330114188756) rotate(357.65861277348114 5.445429355926024 2.9567589196217057)"><path d="M-1.51 -1.69 L9.2 -0.16 L11.66 4.24 L-1.34 6.33" stroke="none" stroke-width="0" fill="#ced4da"></path><path d="M0.25 0.68 C3.15 -0.63, 5.08 1.04, 11.12 -0.57 M-0.48 -0.54 C3.5 0.1, 6.14 -0.45, 11.25 0.02 M10.75 -0.05 C10.54 1.24, 10.56 3.11, 11.42 6 M10.78 0.27 C10.96 1.31, 10.75 2.25, 10.76 6.1 M10.99 4.85 C8.04 6.38, 4.07 5.57, -1.03 5.19 M11.21 5.65 C6.98 5.5, 2.4 6.19, -0.52 6.35 M0.19 6.32 C-0.33 5.11, 0.6 2.84, -0.01 -0.19 M0.1 5.77 C-0.12 3.92, -0.14 2.3, 0.18 0.02" stroke="transparent" stroke-width="0.5" fill="none"></path></g><g stroke-linecap="round" transform="translate(118.6595590111466 165.00489267205953) rotate(357.65861277348114 4.726775860950454 3.7057004929295942)"><path d="M-1.69 -0.16 L10.22 -1.67 L8.12 7.83 L-1.96 8.67" stroke="none" stroke-width="0" fill="#ced4da"></path><path d="M0.51 -0.53 C2.96 0.86, 6.22 -0.55, 9.51 -0.68 M0.14 0.18 C3.32 -0.2, 7.85 0.11, 9.37 -0.04 M9.03 -0.54 C9.02 2.56, 10.1 5.83, 8.8 6.73 M9.61 0.08 C9.32 1.48, 9.27 3.82, 9.55 7.49 M10.05 7.79 C6.53 6.99, 2.26 6.69, 0.72 7.06 M9.62 7.02 C6.1 7.58, 2.82 7.75, -0.41 7.26 M-0.43 7.98 C0.7 3.87, -0.03 1.47, 0.15 -0.69 M-0.22 7.28 C-0.26 5.5, 0.2 3.18, -0.28 -0.31" stroke="transparent" stroke-width="0.5" fill="none"></path></g><g stroke-linecap="round" transform="translate(134.3475854616321 164.6668647443931) rotate(357.65861277348114 5.501416409812975 3.4757864437707298)"><path d="M0.76 -1.67 L9.66 0.41 L9.04 8.21 L-1.33 6.98" stroke="none" stroke-width="0" fill="#ced4da"></path><path d="M-0.05 1.07 C4.22 -0.51, 8.04 -0.72, 12.09 -0.97 M-0.52 -0.34 C2.57 -0.02, 4.31 -0.09, 11.48 -0.13 M10.62 -0.28 C11.59 2.13, 10.35 3.4, 10.6 6.69 M10.9 -0.29 C10.88 2.94, 11.12 5.53, 11.12 6.98 M11.26 6.57 C7.74 6.26, 7.39 6.59, 0.3 7.59 M10.7 7.2 C7.71 7.31, 4.99 6.69, 0.47 7.12 M0.68 6.3 C0.03 4.16, 0.18 1.18, -0.09 0.23 M-0.23 7.15 C0.26 5.22, -0.22 3.16, -0.29 -0.03" stroke="transparent" stroke-width="0.5" fill="none"></path></g><g stroke-linecap="round" transform="translate(154.5667615560369 163.92262046740126) rotate(357.65861277348114 4.824982660391527 3.1141651448941303)"><path d="M-1.34 0.41 L7.69 1.26 L8.32 6.26 L-1.43 5.64" stroke="none" stroke-width="0" fill="#ced4da"></path><path d="M0.21 -0.51 C2.41 -0.78, 5.65 -0.95, 8.69 0.29 M0.32 0.02 C3.18 0.01, 6.93 -0.05, 9.61 -0.28 M10.21 0.09 C9.06 0.84, 9.26 2.6, 10.23 6.49 M9.52 0.19 C9.71 2.07, 9.73 4.03, 9.35 6.43 M8.74 5.59 C7.11 5.84, 3.35 6.75, -0.47 6.56 M9.19 6.62 C7.13 6.12, 5.86 6.42, 0.33 5.95 M-0.01 6.03 C0.06 3.3, -0.14 1.74, -0.3 -0.37 M0.19 6.25 C-0.2 4.31, -0.22 2.9, 0.12 -0.26" stroke="transparent" stroke-width="0.5" fill="none"></path></g><g stroke-linecap="round" transform="translate(135.99213332248496 130.52126346087823) rotate(357.65861277348114 3.5735343329340594 5.1590693426024075)"><path d="M-1.96 1.26 L5.82 0.03 L5.72 9.73 L-1.53 11.43" stroke="none" stroke-width="0" fill="#868e96"></path><path d="M0.04 -0.51 C3.55 -0.59, 4.97 0.26, 7.42 -0.68 M-0.06 -0.03 C2.01 -0.09, 3.37 -0.21, 6.89 -0.2 M6.23 -0.95 C6.65 2.29, 8.19 5.79, 7.37 10.01 M7.28 0.11 C7.27 2.27, 6.6 4.78, 7.35 10.44 M7.69 10.05 C5.45 10.68, 3.01 10.52, -0.59 9.92 M6.84 10.21 C4.98 10.49, 2.45 10.17, 0.27 10.67 M0.21 9.36 C-0.13 8.53, -0.5 5.44, -0.36 -0.67 M-0.39 9.88 C-0.5 6.59, 0.13 2.51, -0.35 0.11" stroke="transparent" stroke-width="0.5" fill="none"></path></g><g stroke-linecap="round"><g transform="translate(155.51115485446098 110.42883662315126) rotate(357.65861277348114 5.270092360875708 5.333259049874215)"><path d="M-0.46 -0.03 C3.93 3.56, 5.76 5.49, 9.76 10.69 M0.59 0.1 C2.52 3.73, 5.67 6.55, 11 10.23" stroke="#000000" stroke-width="0.5" fill="none"></path></g></g><mask></mask><g stroke-linecap="round" transform="translate(199.56264942056214 106.12425466762375) rotate(357.65861277348114 28.335874010703435 27.392813389902187)"><path d="M-0.55 0.04 L56.24 -0.31 L58.04 53.33 L1.38 55.8" stroke="none" stroke-width="0" fill="#ffffff"></path><path d="M-0.86 0.63 C20.78 0.69, 39.19 0.52, 56.48 0.49 M0.8 0.62 C17.83 0.6, 36.13 -0.37, 57.32 0.3 M56.16 -1.35 C57.59 22.53, 56.81 43.39, 54.72 54.41 M56.65 0.53 C56.71 13.02, 56.39 25.07, 56.02 54.68 M56.84 53.99 C41.02 56.51, 22.66 55.24, -1.57 53.4 M56.85 54.07 C33.7 55.43, 12.34 55.09, 0.66 54.51 M0.98 56.5 C0.16 43.03, -0.31 29.67, 1.12 0.3 M0.86 54.68 C-1.13 41.4, 0.17 29.1, 0.5 0.47" stroke="#000000" stroke-width="0.5" fill="none"></path></g><g stroke-linecap="round" transform="translate(206.06205858861915 111.89218516348421) rotate(357.65861277348114 21.90103409592217 21.9010340959222)"><path d="M25.55 -0.07 C29.89 0.34, 34.49 4.02, 37.37 7.63 C40.26 11.24, 42.42 16.91, 42.86 21.57 C43.31 26.22, 42.74 31.92, 40.05 35.53 C37.37 39.15, 31.55 42.22, 26.77 43.27 C21.99 44.32, 15.54 44.12, 11.38 41.83 C7.21 39.54, 3.35 33.87, 1.77 29.55 C0.18 25.23, 0.3 20.28, 1.85 15.9 C3.41 11.51, 7.22 5.89, 11.1 3.25 C14.99 0.61, 22.47 0.35, 25.18 0.06 C27.89 -0.24, 27.23 0.98, 27.36 1.47 M18.67 1.23 C22.86 0.57, 28.32 2.05, 32.46 4.39 C36.6 6.74, 41.67 10.79, 43.51 15.3 C45.35 19.81, 45.62 26.99, 43.49 31.47 C41.35 35.95, 35.22 40.19, 30.68 42.19 C26.14 44.2, 20.62 44.83, 16.24 43.48 C11.85 42.13, 6.84 37.73, 4.37 34.07 C1.9 30.42, 1.4 25.86, 1.43 21.54 C1.46 17.23, 1.62 11.86, 4.55 8.17 C7.48 4.49, 16.72 0.65, 18.99 -0.56 C21.27 -1.77, 17.95 0.47, 18.18 0.92" stroke="none" stroke-width="0" fill="#ced4da"></path><path d="M26.73 0.36 C31.11 1.09, 36.36 4.82, 39.33 8.57 C42.29 12.32, 44.57 18.11, 44.52 22.86 C44.47 27.61, 42.39 33.5, 39.05 37.09 C35.71 40.67, 29.37 43.81, 24.48 44.36 C19.59 44.9, 13.47 42.89, 9.69 40.35 C5.9 37.8, 2.95 33.38, 1.76 29.09 C0.57 24.79, 0.79 19.01, 2.54 14.56 C4.3 10.1, 7.96 4.53, 12.31 2.36 C16.67 0.2, 25.34 1.48, 28.67 1.56 C32.01 1.64, 32.37 2.69, 32.32 2.83 M19.24 0.06 C23.96 -0.67, 31.04 1.25, 35.12 3.83 C39.19 6.42, 42.6 11.2, 43.71 15.57 C44.81 19.93, 43.84 25.71, 41.75 30.02 C39.65 34.34, 35.42 39.21, 31.15 41.44 C26.87 43.68, 20.6 44.69, 16.11 43.45 C11.61 42.21, 6.8 37.69, 4.19 34.01 C1.57 30.32, 0.28 25.89, 0.41 21.35 C0.54 16.81, 1.92 10.49, 4.96 6.77 C8 3.06, 15.94 -0.11, 18.65 -0.94 C21.36 -1.76, 20.83 1.24, 21.22 1.82" stroke="#ffffff" stroke-width="0.5" fill="none"></path></g><g stroke-linecap="round" transform="translate(202.28483895351258 101.8362339872192) rotate(357.65861277348114 5.718939881472295 2.5428218490802124)"><path d="M-0.43 -0.31 L12.81 -1.45 L12.82 6.1 L0.16 6.82" stroke="none" stroke-width="0" fill="#ced4da"></path><path d="M0.47 0.55 C3.55 0.41, 7.83 0.24, 11.73 0.83 M-0.34 0.45 C3.39 -0.18, 7.97 0.1, 12.01 0.43 M11.57 0.16 C11.36 1.84, 10.93 3.77, 11.08 5.14 M11.43 0.12 C11.35 1.32, 11.27 2.63, 11.4 5.04 M11.7 5.99 C6.72 5.22, 3.15 4.25, 1.04 6.07 M10.96 5.24 C7.23 4.97, 3.47 4.84, -0.44 5.33 M0.1 5.21 C-0.04 3.88, 0.26 3.05, -0.31 0.41 M-0.18 5.01 C0.11 3.32, 0.08 1.44, -0.07 0.01" stroke="transparent" stroke-width="0.5" fill="none"></path></g><g stroke-linecap="round" transform="translate(220.334768111691 101.05031736200647) rotate(357.65861277348114 5.925908416743027 2.6203776860220387)"><path d="M-0.31 1.37 L10.4 1.38 L12.87 5.4 L1.73 6.99" stroke="none" stroke-width="0" fill="#ced4da"></path><path d="M0.57 -0.44 C3.51 -0.16, 6.39 0.25, 12.71 0.38 M0.47 -0.42 C4.38 0.46, 9.17 0.66, 12.29 0.48 M12.02 -0.07 C11.72 0.92, 11.72 2.5, 11.91 5.04 M11.97 -0.09 C11.87 1.39, 11.85 3.08, 11.8 5.3 M12.79 4.19 C8.38 4.34, 3.72 6.34, 1.02 6.01 M12.01 5.2 C8.05 5.53, 4.15 4.69, 0.25 4.69 M0.13 5.22 C-0.2 3.7, 0.03 1.26, 0.42 0.37 M-0.08 5.4 C0.13 3.35, 0.13 1.12, 0.01 -0.06" stroke="transparent" stroke-width="0.5" fill="none"></path></g><g stroke-linecap="round" transform="translate(239.10962309887896 99.61915480383152) rotate(357.65861277348114 5.445429355926024 2.9567589196217057)"><path d="M1.37 -1.45 L12.27 1.02 L11.05 7.64 L1.75 3.97" stroke="none" stroke-width="0" fill="#ced4da"></path><path d="M-0.4 0.43 C3.5 0.21, 7.49 0.74, 11.24 0.87 M-0.39 -0.11 C4.3 0.08, 8.43 0.32, 11.33 -0.14 M10.81 -0.11 C10.33 1.26, 10.49 2.81, 10.66 5.9 M10.79 -0.01 C10.7 2.05, 10.84 4.12, 10.96 5.94 M9.92 6.09 C7.2 5.25, 6.21 6.93, 0.71 6.11 M10.86 5.88 C8.76 5.79, 5.5 6.18, -0.5 6.18 M-0.02 5.74 C0.32 3.72, -0.37 1.82, 0.42 0.51 M0.18 6.05 C0.19 4.34, -0.04 2.5, -0.06 -0.05" stroke="transparent" stroke-width="0.5" fill="none"></path></g><g stroke-linecap="round" transform="translate(206.54076002126203 160.68074633400335) rotate(357.65861277348114 4.726775860950454 3.7057004929295942)"><path d="M-1.45 1.38 L10.47 0.16 L11.18 9.16 L-1.94 8.65" stroke="none" stroke-width="0" fill="#ced4da"></path><path d="M0.37 -0.09 C3.45 0.27, 7.13 0.34, 10.21 0.59 M-0.09 0.31 C2.42 0.54, 4.91 0.45, 9.33 -0.32 M9.31 -0.72 C9.34 1.89, 9.55 4.54, 9.44 7.8 M9.43 -0.24 C9.45 2.15, 9.42 4.5, 9.49 7.26 M9.6 6.67 C5.75 8.18, 4.16 7.94, 0.17 6.74 M9.42 7.72 C7.28 7.05, 5.57 6.97, 0.23 7.82 M-0.22 7.83 C0.09 4.59, 0.57 3.19, 0.64 -0.08 M0.18 7.6 C0.2 5.6, 0.03 3.91, -0.06 0.25" stroke="transparent" stroke-width="0.5" fill="none"></path></g><g stroke-linecap="round" transform="translate(222.22878647174787 160.34271840633662) rotate(357.65861277348114 5.501416409812975 3.4757864437707298)"><path d="M1.38 1.02 L11.16 1.73 L12.75 5.01 L1.24 5.54" stroke="none" stroke-width="0" fill="#ced4da"></path><path d="M-0.11 0.27 C4.1 0.76, 8.01 0.83, 11.69 -0.65 M0.36 0.17 C4.71 0.43, 8.77 -0.12, 10.63 0.14 M10.32 -0.13 C10.5 2.38, 10.72 4.61, 11.37 6.94 M10.78 -0.04 C10.93 2.34, 11.06 4.84, 10.86 7.03 M10.14 6.19 C7.82 7.91, 3.37 7.17, -0.79 6.03 M11.37 6.8 C6.98 7.18, 3.29 7.22, 0.47 7.06 M0.39 7.06 C-0.42 5.25, 0.49 3.03, -0.08 -0.48 M0.17 7.11 C-0.14 5.09, -0.12 3.15, 0.24 -0.25" stroke="transparent" stroke-width="0.5" fill="none"></path></g><g stroke-linecap="round" transform="translate(242.44796256615416 159.59847412934548) rotate(357.65861277348114 4.824982660391527 3.1141651448941303)"><path d="M1.02 0.16 L11.38 1.75 L7.71 7.47 L-1.41 6.45" stroke="none" stroke-width="0" fill="#ced4da"></path><path d="M0.24 0.24 C3.24 0.32, 5.85 0.61, 9.08 0.76 M0.14 0.48 C2.57 0.32, 4.29 -0.39, 9.77 0.16 M9.53 -0.44 C9.7 1.54, 9.62 3.9, 9.64 6.52 M9.62 -0.05 C9.59 1.73, 9.67 3.2, 9.72 6.48 M8.98 7.1 C8.44 6.78, 5.75 5.46, -0.81 6.49 M9.52 5.86 C7.02 5.85, 4.22 6.71, 0.1 6.35 M0.09 5.85 C0.52 4.82, 0.56 2.47, -0.43 -0.19 M0.15 6.14 C-0.02 3.92, -0.08 1.95, -0.23 0.22" stroke="transparent" stroke-width="0.5" fill="none"></path></g><g stroke-linecap="round" transform="translate(223.87333433260073 126.19711712282208) rotate(357.65861277348114 3.5735343329340594 5.1590693426024075)"><path d="M0.16 1.73 L8.9 -1.94 L8.39 8.91 L0.22 10" stroke="none" stroke-width="0" fill="#868e96"></path><path d="M0.18 0.52 C2.65 0.55, 5.29 -0.44, 7.71 -0.51 M0.36 0.27 C2.29 -0.11, 3.77 0.07, 7.26 -0.05 M6.42 0.11 C6.65 2.88, 7.59 5.78, 7.62 9.97 M7.07 -0.1 C7.2 3.09, 6.87 6.21, 7.56 9.86 M7.79 10.93 C5.35 10.4, 2.12 9.67, 0.2 10.27 M6.87 10.47 C4.72 10.47, 3.25 10.37, 0.09 10.3 M-0.63 11.14 C0.67 8.42, -0.17 4.03, -0.32 0.63 M-0.14 10.33 C-0.16 6.65, 0.3 2.77, 0.36 0.26" stroke="transparent" stroke-width="0.5" fill="none"></path></g><g stroke-linecap="round"><g transform="translate(243.40567996289644 106.09007987197083) rotate(357.65861277348114 5.620910057832816 5.66657114236952)"><path d="M1.12 0.49 C4.38 4.12, 5.37 7.56, 9.67 10.69 M0.57 0.62 C3.77 3.39, 8.1 8.17, 10.67 10.84" stroke="#000000" stroke-width="0.5" fill="none"></path></g></g><mask></mask><g stroke-linecap="round" transform="translate(19.837858980381668 116.70120534623265) rotate(177.65861277348114 28.335874010703435 27.392813389902187)"><path d="M-0.76 -1.86 L57.11 0.88 L54.73 52.92 L-0.27 53.51" stroke="none" stroke-width="0" fill="#ffffff"></path><path d="M-1.58 -0.85 C16.64 -1.53, 36.56 1.21, 56.67 -1.33 M0.46 0 C18.94 -1.19, 36.84 -1.17, 56.33 0.2 M57.37 -0.73 C55.62 14.61, 57.62 30.48, 55.68 54.09 M56.53 0.24 C55.93 19.15, 55.59 39.05, 57.02 54.65 M56.9 56.07 C44.83 55.19, 32.5 55.49, -1.31 52.9 M56.27 54.83 C35.25 54.61, 15.37 54.44, -0.03 53.86 M-1.22 54.88 C-1.36 38, 1.4 24.04, -0.79 -0.12 M-0.24 54.72 C-0.09 41.05, 0.3 26.56, 0.79 0.06" stroke="#000000" stroke-width="0.5" fill="none"></path></g><g stroke-linecap="round" transform="translate(26.208129641887638 121.9168334383325) rotate(177.65861277348114 21.9010340959222 21.9010340959222)"><path d="M20.59 -0.88 C24.92 -1.29, 31.07 2.01, 34.69 4.86 C38.31 7.71, 41.18 11.84, 42.32 16.23 C43.46 20.62, 43.64 26.75, 41.52 31.19 C39.41 35.63, 34.03 40.97, 29.64 42.85 C25.24 44.74, 19.49 44.04, 15.14 42.49 C10.8 40.94, 6.01 37.37, 3.55 33.54 C1.08 29.72, -0.18 24.14, 0.34 19.54 C0.85 14.93, 2.96 9.08, 6.63 5.91 C10.3 2.73, 19.37 1.36, 22.33 0.5 C25.29 -0.35, 24.26 0.49, 24.38 0.78 M18.44 -1.06 C22.76 -2.26, 27.34 0, 31.17 2.57 C34.99 5.13, 39.76 10.11, 41.41 14.32 C43.07 18.52, 42.31 23.34, 41.09 27.82 C39.88 32.3, 37.96 38.72, 34.13 41.19 C30.3 43.66, 22.82 43.27, 18.1 42.65 C13.38 42.03, 8.72 40.93, 5.81 37.48 C2.91 34.04, 0.73 26.68, 0.69 21.98 C0.64 17.28, 2.65 13.01, 5.54 9.28 C8.42 5.55, 16.17 1.21, 18.01 -0.39 C19.86 -1.99, 16.53 -0.65, 16.61 -0.34" stroke="none" stroke-width="0" fill="#ced4da"></path><path d="M15.6 1.17 C19.72 -0.55, 24.92 -0.11, 29.15 1.67 C33.37 3.44, 38.5 7.75, 40.95 11.83 C43.4 15.91, 44.59 21.77, 43.84 26.14 C43.1 30.51, 40.12 35.25, 36.5 38.05 C32.88 40.84, 27.04 42.82, 22.15 42.91 C17.25 43, 10.81 41.36, 7.14 38.58 C3.47 35.81, 0.78 30.86, 0.11 26.24 C-0.55 21.63, 0.51 15.3, 3.15 10.92 C5.79 6.53, 13.59 1.58, 15.96 -0.07 C18.34 -1.72, 17.33 0.61, 17.42 1.01 M17.66 0.12 C21.93 -0.8, 29.11 0.26, 33.2 2.48 C37.29 4.7, 40.55 8.87, 42.18 13.44 C43.82 18.01, 44.61 25.51, 43.02 29.9 C41.44 34.3, 36.8 37.49, 32.66 39.8 C28.52 42.11, 22.73 44.22, 18.17 43.75 C13.61 43.27, 8.19 40.56, 5.31 36.95 C2.42 33.35, 0.66 26.92, 0.86 22.14 C1.05 17.36, 3.75 12.15, 6.46 8.28 C9.17 4.41, 14.99 0.42, 17.1 -1.08 C19.22 -2.58, 18.97 -1.21, 19.17 -0.72" stroke="#ffffff" stroke-width="0.5" fill="none"></path></g><g stroke-linecap="round" transform="translate(62.349537705895386 170.68920910827973) rotate(177.65861277348114 5.718939881472295 2.5428218490802266)"><path d="M0.44 0.88 L9.5 -1.87 L11.16 3.81 L0.28 3.09" stroke="none" stroke-width="0" fill="#ced4da"></path><path d="M-0.75 -0.7 C4.44 0.92, 8.13 -0.71, 11.65 -0.16 M0.5 -0.52 C4.39 -0.51, 7.79 0.11, 11.36 0.56 M11.03 -0.26 C11.56 1.32, 11.2 2.86, 11.71 4.67 M11.36 -0.05 C11.27 1.47, 11.52 2.73, 11.26 5.1 M12.09 5.26 C8.82 5.5, 3.4 4.08, 0.77 3.95 M11.09 5.02 C8.32 4.93, 4.79 4.56, -0.16 5.39 M-0.27 4.6 C0.46 3.77, -0.17 2.91, -0.2 0.1 M0 5.21 C0.12 3.54, 0.21 1.88, -0.1 -0.24" stroke="transparent" stroke-width="0.5" fill="none"></path></g><g stroke-linecap="round" transform="translate(43.88567147717583 171.32001405961066) rotate(177.65861277348114 5.925908416743027 2.6203776860220387)"><path d="M0.88 -1.94 L9.98 -0.27 L10.58 5.52 L-1.99 3.56" stroke="none" stroke-width="0" fill="#ced4da"></path><path d="M-0.72 0.39 C3.52 0.08, 4.45 0.3, 11.69 0.58 M-0.54 0.41 C3.57 -0.31, 8.31 -0.19, 12.43 -0.01 M11.58 0.11 C11.62 1.5, 11.65 3.79, 11.42 5.09 M11.8 -0.17 C11.96 1.59, 11.83 2.81, 11.86 5.29 M12.03 6.3 C8.51 4.53, 3.35 6.11, -1.17 5.12 M11.78 5.44 C8.6 5.15, 5.14 5, 0.32 4.71 M-0.5 5.68 C-0.26 3.78, -0.03 2.53, 0.1 0.09 M0.13 5.35 C0.07 4, 0.02 2.24, -0.24 0.06" stroke="transparent" stroke-width="0.5" fill="none"></path></g><g stroke-linecap="round" transform="translate(26.071774611622175 172.07841415058698) rotate(177.65861277348114 5.445429355926024 2.9567589196217057)"><path d="M-1.94 -1.87 L10.62 -1.28 L11.17 3.92 L-1.69 7.25" stroke="none" stroke-width="0" fill="#ced4da"></path><path d="M0.36 0.83 C2.81 -0.66, 5.82 -0.09, 11.42 0.5 M0.38 -0.48 C3.08 0.21, 6.46 0.63, 10.89 0.19 M11.01 -0.24 C10.55 1.35, 11.16 2.63, 10.72 5.83 M10.7 0.11 C10.98 1.88, 10.66 3.84, 10.95 5.95 M11.87 6.24 C6.21 4.9, 3.69 4.85, -0.11 5.48 M11.08 5.76 C7.56 5.4, 4.11 6.19, -0.49 5.58 M0.5 5.63 C-0.2 4.08, -0.21 2.42, 0.1 -0.14 M0.12 5.99 C0.23 4.2, -0.11 2.17, 0.07 0.13" stroke="transparent" stroke-width="0.5" fill="none"></path></g><g stroke-linecap="round" transform="translate(60.07794467918666 109.51893947379745) rotate(177.65861277348114 4.726775860950454 3.7057004929295942)"><path d="M-1.87 -0.27 L8.18 0.28 L7.46 5.73 L1.33 8.06" stroke="none" stroke-width="0" fill="#ced4da"></path><path d="M0.72 0 C1.59 0.15, 4.3 0.43, 9.89 0 M-0.42 -0.16 C3.75 -0.13, 7.77 -0.07, 9.62 -0.17 M9.16 -0.37 C9.16 2.03, 8.81 3.06, 9.35 7.59 M9.59 0.13 C9.39 1.74, 9.45 4.08, 9.5 7.65 M9.74 6.79 C5.19 8.13, 1.77 7.4, -0.38 7.45 M9.32 7.4 C6.75 7.31, 5.17 7.02, -0.29 7.43 M-0.36 7.12 C0.02 5.29, 0.21 3.88, -0.17 -0.05 M0.09 7.7 C-0.02 5.04, -0.38 3.03, 0.16 -0.36" stroke="transparent" stroke-width="0.5" fill="none"></path></g><g stroke-linecap="round" transform="translate(42.84063713097544 110.31679549978276) rotate(177.65861277348114 5.501416409812975 3.475786443770744)"><path d="M-0.27 -1.28 L11.28 -1.99 L9.32 8.28 L0.65 6.53" stroke="none" stroke-width="0" fill="#ced4da"></path><path d="M0 -0.73 C2.84 -0.24, 5.8 0.42, 11 0.95 M-0.19 0.11 C2.22 0.64, 4.58 0.29, 10.8 -0.44 M10.66 -0.24 C11.39 1.16, 10.82 3.36, 11.17 6.75 M11.12 -0.05 C10.71 1.96, 11.02 3.94, 11.23 7.15 M10.28 5.92 C8.28 5.89, 3.96 6.55, 0.05 6.29 M10.99 6.44 C7.68 7.21, 4.17 6.58, 0.03 6.66 M-0.27 6.91 C-0.34 5.66, 0.06 3.93, -0.05 0.01 M0.28 6.97 C-0.16 4.2, 0.05 2.24, -0.34 -0.33" stroke="transparent" stroke-width="0.5" fill="none"></path></g><g stroke-linecap="round" transform="translate(23.974328535413235 111.78428237452852) rotate(177.65861277348114 4.824982660391527 3.114165144894116)"><path d="M-1.28 0.28 L7.66 -1.69 L10.98 6.88 L-0.42 5.07" stroke="none" stroke-width="0" fill="#ced4da"></path><path d="M-0.64 0.18 C3.08 0.47, 6.87 0, 10.49 -0.88 M0.1 -0.07 C4.04 0.03, 7.3 -0.14, 9.27 -0.25 M9.43 0.33 C9.12 1.82, 9.54 4.14, 9.47 6.11 M9.61 -0.22 C9.69 1.53, 9.71 3.14, 9.83 6.28 M8.74 6.88 C4.93 6.07, 1.74 6.2, -0.58 6.12 M9.21 6.09 C6.68 5.8, 2.91 6.25, -0.26 5.77 M-0.04 5.98 C0.15 3.94, -0.12 1.4, 0.01 0.31 M0.02 6.11 C-0.3 4.17, 0.12 1.68, -0.29 -0.04" stroke="transparent" stroke-width="0.5" fill="none"></path></g><g stroke-linecap="round" transform="translate(45.05185342388131 141.09583098563382) rotate(177.65861277348114 3.5735343329340594 5.1590693426024075)"><path d="M0.28 -1.99 L5.46 1.33 L7.8 9.9 L-1.16 10.96" stroke="none" stroke-width="0" fill="#868e96"></path><path d="M0.13 -0.1 C3.04 0.37, 5.38 0.67, 6.49 0.49 M-0.05 0.35 C1.5 0.11, 2.89 -0.3, 6.96 0.07 M7.69 -0.84 C6.8 2.53, 7.34 5.06, 6.94 9.66 M6.78 0.02 C7.28 3.53, 7.52 7.23, 7.22 10.78 M7.63 9.61 C4.72 9.97, 2.46 9.82, -0.08 10.56 M7.05 10.51 C4.89 10.03, 3.29 10.06, -0.34 10.62 M-0.41 10.52 C0.22 7.48, -0.03 5.14, 0.51 0.42 M-0.2 9.84 C0.03 7.2, -0.58 3.14, -0.07 -0.33" stroke="transparent" stroke-width="0.5" fill="none"></path></g><g stroke-linecap="round"><g transform="translate(21.059323674465134 160.85911949074602) rotate(177.65861277348114 5.810485040315854 5.334677578947193)"><path d="M-0.22 0.75 C3.86 3.28, 7.72 5.17, 11.84 9.62 M0.75 -0.01 C3.16 2.66, 5.14 5.46, 10.93 10.68" stroke="#000000" stroke-width="0.5" fill="none"></path></g></g><mask></mask><g stroke-linecap="round" transform="translate(59.80183107844471 35.0666038453557) rotate(237.65861277348105 28.335874010703435 27.392813389902187)"><path d="M-0.49 0.26 L55.52 -1.9 L55.68 53.09 L-0.91 53" stroke="none" stroke-width="0" fill="#ffffff"></path><path d="M-0.71 0.1 C15.81 1.48, 28.4 -0.14, 55.55 -1.99 M0.98 -0.43 C22.1 0.22, 46.08 -1.17, 57.22 -0.25 M58.1 -1.18 C54.99 19.35, 56.44 36.3, 55.28 54.91 M56.34 -0.66 C56.27 20.14, 56.87 39.36, 57.4 55.68 M55.98 53.49 C45.67 53.65, 32.47 53.67, -1 52.98 M55.76 54.21 C36.48 55, 18.29 55.62, -0.52 53.85 M0.18 55.92 C0.12 35.18, 1.73 18.23, 1.71 -0.52 M0.56 53.88 C0.25 38.96, -0.37 24.15, 0.3 -0.75" stroke="#000000" stroke-width="0.5" fill="none"></path></g><g stroke-linecap="round" transform="translate(66.443540322702 40.36438892475553) rotate(237.65861277348105 21.9010340959222 21.9010340959222)"><path d="M19.98 -0.89 C24.48 -1.47, 31.42 1.72, 35.33 4.67 C39.24 7.63, 42.32 12.3, 43.45 16.82 C44.57 21.34, 44.28 27.44, 42.1 31.79 C39.91 36.15, 34.62 40.95, 30.33 42.94 C26.04 44.94, 20.84 45.27, 16.35 43.77 C11.86 42.27, 6.01 38.03, 3.41 33.92 C0.81 29.82, 0.12 23.95, 0.78 19.16 C1.43 14.36, 3.82 8.34, 7.35 5.15 C10.87 1.95, 19.46 0.61, 21.92 0 C24.38 -0.62, 22.16 1.19, 22.12 1.44 M17.78 -0.58 C21.92 -1.38, 28.58 -0.02, 32.54 2.84 C36.49 5.7, 39.7 11.95, 41.5 16.57 C43.3 21.2, 45.11 26.24, 43.33 30.59 C41.54 34.93, 35.13 40.42, 30.77 42.63 C26.4 44.84, 21.65 45.36, 17.13 43.86 C12.62 42.36, 6.54 37.56, 3.67 33.62 C0.8 29.69, -0.4 24.58, -0.06 20.26 C0.28 15.93, 2.59 10.77, 5.69 7.65 C8.79 4.53, 16.1 2.65, 18.52 1.51 C20.94 0.36, 20.03 0.86, 20.23 0.77" stroke="none" stroke-width="0" fill="#ced4da"></path><path d="M31.09 1.38 C34.94 3.12, 38.64 8.98, 40.64 13.4 C42.64 17.82, 43.93 23.59, 43.1 27.9 C42.27 32.21, 39.55 36.52, 35.65 39.26 C31.76 41.99, 24.44 44.71, 19.73 44.29 C15.03 43.87, 10.63 40.14, 7.45 36.72 C4.27 33.31, 1.19 28.48, 0.66 23.82 C0.13 19.16, 1.53 12.49, 4.24 8.78 C6.95 5.06, 12.17 2.56, 16.92 1.53 C21.68 0.5, 29.64 1.98, 32.75 2.6 C35.86 3.21, 35.79 4.94, 35.59 5.24 M23.89 -0.48 C28.02 -0.61, 32.22 1.91, 35.51 5.21 C38.8 8.51, 43.01 14.42, 43.63 19.31 C44.25 24.2, 41.5 30.82, 39.24 34.53 C36.98 38.24, 34.52 40.38, 30.08 41.58 C25.65 42.79, 17.29 43.46, 12.62 41.75 C7.96 40.03, 3.89 35.46, 2.08 31.28 C0.28 27.11, 0.57 21.26, 1.79 16.71 C3 12.17, 6.01 7, 9.35 4 C12.69 0.99, 19.53 -0.89, 21.83 -1.34 C24.13 -1.79, 22.89 0.91, 23.16 1.28" stroke="#ffffff" stroke-width="0.5" fill="none"></path></g><g stroke-linecap="round" transform="translate(67.13187870645288 91.71495571897321) rotate(237.65861277348105 5.718939881472295 2.5428218490802124)"><path d="M-1.15 -1.9 L10.44 -1.7 L10.53 3.3 L1.46 6.76" stroke="none" stroke-width="0" fill="#ced4da"></path><path d="M0.97 1.12 C4.51 0.19, 8.17 -1.15, 12.57 -0.02 M-0.3 0.32 C4.58 -0.43, 8.51 -0.09, 11.68 -0.44 M11.12 0.14 C11.52 1.68, 11.12 4.04, 11.78 4.93 M11.38 0.01 C11.51 1.75, 11.61 4.16, 11.25 4.89 M12.45 4.54 C9.14 4.48, 4.75 3.98, 0.45 5.72 M10.88 5.01 C7.34 5.3, 2.88 4.49, 0.26 5.32 M0.09 4.9 C0.49 3.74, 0.43 1.64, -0.06 0.33 M0.15 5.08 C-0.03 3.98, 0.05 2.17, -0.06 0.03" stroke="transparent" stroke-width="0.5" fill="none"></path></g><g stroke-linecap="round" transform="translate(57.183002886770396 76.18064307934821) rotate(237.65861277348105 5.925908416743027 2.6203776860220387)"><path d="M-1.9 -0.99 L10.16 -0.91 L10.07 6.7 L1.67 5.45" stroke="none" stroke-width="0" fill="#ced4da"></path><path d="M1.16 0.11 C3.34 -0.76, 5.08 1.07, 11.83 0.69 M0.33 0.5 C4.22 0.39, 9.29 0.32, 11.39 0.56 M12 0.05 C11.48 1.58, 11.85 4.25, 11.69 5.7 M11.86 0.09 C11.59 1.59, 12.05 2.61, 11.65 5.15 M11.29 6.03 C8.16 4.75, 4.5 5.81, 0.65 5.96 M11.78 5.28 C9.66 4.82, 6.34 5.39, 0.24 5.4 M-0.19 5.75 C0.29 4.07, -0.17 1.94, 0.34 -0.17 M0 5.24 C0.31 3.45, -0.15 1.44, 0.03 -0.15" stroke="transparent" stroke-width="0.5" fill="none"></path></g><g stroke-linecap="round" transform="translate(47.56818554573101 60.54825820941721) rotate(237.65861277348105 5.445429355926024 2.9567589196217057)"><path d="M-0.99 -1.7 L9.98 -1.78 L12.36 7.59 L0.21 4.45" stroke="none" stroke-width="0" fill="#ced4da"></path><path d="M0.1 0.19 C2.71 -1.19, 7.72 -0.13, 11.52 1.07 M0.46 -0.46 C3.1 -0.19, 5.82 -0.48, 11.4 0.39 M10.95 -0.38 C10.44 1.46, 11.25 2.67, 11.41 5.72 M11 -0.25 C11.09 1.65, 10.66 2.55, 10.79 5.81 M11.61 5.41 C7.78 4.88, 6.2 6.46, 0.66 4.92 M10.92 6.18 C7.96 5.39, 5.85 6.12, 0.14 5.96 M0.58 6.28 C0.5 3.65, -0.08 2.07, -0.19 0.33 M-0.01 6.21 C0.05 4.45, -0.11 3.48, -0.17 -0.28" stroke="transparent" stroke-width="0.5" fill="none"></path></g><g stroke-linecap="round" transform="translate(118.46008921607472 57.72188506512555) rotate(237.65861277348105 4.726775860950454 3.7057004929295942)"><path d="M-1.7 -0.91 L7.67 1.46 L11.13 7.62 L-1.46 9.05" stroke="none" stroke-width="0" fill="#ced4da"></path><path d="M0.16 -0.53 C2.7 0.93, 7.26 0.54, 10.38 -0.41 M-0.4 0.26 C2.23 0.12, 4.33 0.36, 9.79 -0.28 M8.97 -0.52 C9.52 2.25, 9.25 4.16, 9.21 6.93 M9.14 0.27 C9.79 1.77, 9.17 3.97, 9.32 7.17 M9.01 6.94 C4.93 7.84, 2.63 8.05, -0.86 6.87 M9.68 7.16 C7.09 7.63, 5.81 7.54, 0.04 7.68 M0.45 8.04 C-0.17 4.98, 0.5 2.47, 0.42 -0.67 M0.37 7.52 C-0.28 4.65, 0.05 1.86, -0.35 -0.18" stroke="transparent" stroke-width="0.5" fill="none"></path></g><g stroke-linecap="round" transform="translate(108.96226298772967 43.97868226721744) rotate(237.65861277348105 5.501416409812975 3.475786443770744)"><path d="M-0.91 -1.78 L12.47 1.67 L11.21 5.49 L1.64 7.13" stroke="none" stroke-width="0" fill="#ced4da"></path><path d="M-0.62 -1.1 C5.47 -0.04, 9.4 1.06, 10.52 -0.57 M0.3 -0.14 C4.14 -0.33, 8.33 0.49, 10.68 -0.35 M10.52 0.04 C11.47 2.07, 11.61 4.33, 10.55 6.79 M11.26 0.31 C10.77 1.84, 10.91 4.1, 10.78 7.26 M10.45 5.96 C8.66 7.51, 6.12 5.9, -0.63 5.89 M10.71 6.44 C8.09 7.23, 4.83 7.06, 0.31 7.05 M0.59 6.77 C-0.15 5.56, -0.29 3.67, -0.63 0.42 M0.1 6.69 C-0.08 4.92, -0.2 2.47, -0.17 -0.29" stroke="transparent" stroke-width="0.5" fill="none"></path></g><g stroke-linecap="round" transform="translate(98.90961788278742 27.968725023659488) rotate(237.65861277348105 4.824982660391527 3.1141651448941445)"><path d="M-1.78 1.46 L11.32 0.21 L8.19 7.87 L0.18 7.04" stroke="none" stroke-width="0" fill="#ced4da"></path><path d="M-0.96 0.96 C2.96 0.62, 6.91 -0.37, 9.15 0.53 M-0.12 0.21 C3.34 0.4, 7.78 -0.34, 9.35 0.13 M9.69 0.42 C9.42 2.47, 9.41 3.45, 9.5 6.25 M9.93 -0.23 C9.36 1.99, 9.49 3.98, 9.92 6.08 M8.78 6.61 C6.65 6.77, 1.7 5.63, -0.93 6.11 M9.2 6.44 C6.9 6.3, 3.79 6.45, 0.08 6.06 M-0.16 6.16 C0.36 3.55, 0.31 0.7, 0.37 -0.01 M-0.23 6.15 C-0.02 4.19, -0.36 2.36, -0.26 -0.14" stroke="transparent" stroke-width="0.5" fill="none"></path></g><g stroke-linecap="round" transform="translate(82.91861978574889 58.77193318956904) rotate(237.65861277348105 3.5735343329340594 5.1590693426024075)"><path d="M1.46 1.67 L7.35 -1.46 L8.78 10.5 L0.81 9.31" stroke="none" stroke-width="0" fill="#868e96"></path><path d="M0.71 -0.01 C2.68 0.77, 4.22 -0.3, 7.54 0.61 M0.15 -0.28 C1.88 0.27, 2.87 -0.21, 7.25 0.03 M7.84 -0.31 C7.97 2.09, 6.4 4.61, 7.18 10.69 M6.76 -0.4 C7.05 2.04, 6.89 4.89, 6.9 10.66 M7.43 10.71 C5.77 9.6, 3.12 9.56, -0.09 10.36 M7.31 10.47 C4.75 10.28, 2.37 10.31, -0.13 10.67 M-0.12 10.98 C-0.42 7.17, -1.03 3.48, -0.01 -0.02 M-0.13 10.39 C-0.33 5.7, -0.29 1.63, -0.23 -0.46" stroke="transparent" stroke-width="0.5" fill="none"></path></g><g stroke-linecap="round"><g transform="translate(52.871011039977816 49.36548275228995) rotate(237.65861277348105 5.742036162105819 5.606499959109186)"><path d="M-0.03 0.9 C4.03 1.91, 4.35 6.1, 12.08 9.69 M-0.6 0.72 C4.35 3.4, 7.14 7.97, 10.84 10.49" stroke="#000000" stroke-width="0.5" fill="none"></path></g></g><mask></mask><g stroke-linecap="round" transform="translate(152.90447001447615 31.334027649245684) rotate(297.6586127734811 28.335874010703435 27.392813389902187)"><path d="M0.52 1.45 L55.7 1.48 L55.53 54.82 L0.99 53.11" stroke="none" stroke-width="0" fill="#ffffff"></path><path d="M-1.38 1.64 C17.52 -1.59, 35.25 -2.06, 56.95 -1.94 M-0.66 -0.98 C12.24 0.13, 23.1 -0.03, 56.93 -0.72 M57.21 0.01 C56.92 14.91, 56.89 28.39, 54.8 53.19 M56.39 0.2 C57.14 16.32, 56.38 32.05, 57.14 54.09 M58.63 52.89 C42.29 54.33, 23.5 53.34, -1.44 55.59 M56.96 55.11 C37.61 55.12, 18.49 55.58, 0.21 55.57 M1.3 55.73 C1.82 32.22, -0.78 11.88, -1.15 -0.83 M0.56 54.99 C0.58 33.52, -0.53 11.59, 0.19 -0.51" stroke="#000000" stroke-width="0.5" fill="none"></path></g><g stroke-linecap="round" transform="translate(159.61074851200885 36.90796393052551) rotate(297.6586127734811 21.9010340959222 21.9010340959222)"><path d="M26.68 1.27 C31.13 1.76, 37.08 4.61, 39.97 8.29 C42.86 11.96, 44.26 18.48, 44.04 23.34 C43.82 28.19, 41.97 34.14, 38.64 37.44 C35.3 40.74, 28.88 42.75, 24.05 43.16 C19.21 43.57, 13.52 42.14, 9.62 39.89 C5.73 37.63, 2.11 33.85, 0.65 29.63 C-0.81 25.41, -1.06 19.06, 0.86 14.58 C2.78 10.1, 7.21 4.8, 12.19 2.76 C17.18 0.72, 27.26 2.02, 30.75 2.34 C34.25 2.66, 33.31 4.51, 33.16 4.67 M25.87 -0.67 C30.15 -0.12, 35.3 4.25, 38.08 7.85 C40.85 11.44, 42.54 16.43, 42.52 20.9 C42.51 25.36, 40.75 31.05, 37.98 34.63 C35.21 38.22, 30.09 41.43, 25.91 42.4 C21.74 43.37, 16.86 42.62, 12.92 40.45 C8.99 38.29, 4.42 33.42, 2.3 29.39 C0.18 25.37, -1.21 20.71, 0.19 16.31 C1.59 11.92, 6.71 5.68, 10.72 3.04 C14.73 0.4, 21.97 0.79, 24.25 0.47 C26.52 0.14, 24.43 0.54, 24.39 1.09" stroke="none" stroke-width="0" fill="#ced4da"></path><path d="M25.31 0.58 C29.69 0.88, 35.08 3.58, 38.06 7.28 C41.05 10.99, 43.26 18.12, 43.2 22.81 C43.13 27.5, 40.53 31.92, 37.65 35.43 C34.78 38.94, 30.44 43, 25.94 43.89 C21.44 44.77, 14.75 43.36, 10.66 40.74 C6.57 38.11, 2.97 32.68, 1.39 28.14 C-0.19 23.59, -0.63 17.65, 1.2 13.45 C3.03 9.24, 7.65 4.89, 12.38 2.92 C17.12 0.96, 26.24 1.55, 29.62 1.65 C33 1.74, 32.89 3.35, 32.68 3.5 M14.59 1.3 C18.64 -0.84, 24.37 -0.17, 28.67 1.12 C32.96 2.41, 37.99 4.99, 40.35 9.03 C42.71 13.06, 43.59 20.57, 42.83 25.34 C42.06 30.12, 38.99 34.44, 35.74 37.67 C32.48 40.91, 27.56 44.7, 23.29 44.74 C19.02 44.78, 13.73 41.02, 10.13 37.92 C6.53 34.82, 3.13 30.71, 1.67 26.15 C0.22 21.58, -0.39 14.51, 1.38 10.54 C3.16 6.57, 10.19 3.69, 12.33 2.31 C14.47 0.94, 13.93 1.96, 14.21 2.26" stroke="#ffffff" stroke-width="0.5" fill="none"></path></g><g stroke-linecap="round" transform="translate(140.3397730462035 58.84436730163736) rotate(297.6586127734811 5.718939881472295 2.5428218490802124)"><path d="M-0.97 1.48 L10.29 0.04 L12.43 3.41 L-0.07 3.35" stroke="none" stroke-width="0" fill="#ced4da"></path><path d="M0.46 -0.82 C4.77 -1.19, 7.62 -1.21, 10.32 -0.68 M0.45 0.19 C3.94 0.2, 7.79 -0.3, 11.25 -0.25 M11.56 0.06 C11.57 1.76, 10.98 3.6, 11.42 5.43 M11.46 0.01 C11.25 1.79, 11.54 3.67, 11.39 5.14 M12.3 4.62 C6.48 3.94, 2.28 5.44, 0.48 5.2 M11.63 5.33 C8.51 5.63, 5.02 5.57, 0.46 5 M0.44 4.64 C-0.25 3.1, -0.33 1.57, 0.5 -0.38 M0.04 5.22 C-0.27 3.21, 0.02 0.99, 0.07 0.18" stroke="transparent" stroke-width="0.5" fill="none"></path></g><g stroke-linecap="round" transform="translate(148.64779491996853 42.60169387374003) rotate(297.6586127734811 5.925908416743027 2.6203776860220387)"><path d="M1.48 -1.14 L11.89 0.99 L10.18 5.17 L-1.73 4.44" stroke="none" stroke-width="0" fill="#ced4da"></path><path d="M-0.85 1.08 C1.6 0.12, 4.32 -1.21, 11.14 0.41 M0.19 0.12 C2.87 0.06, 5.13 -0.28, 11.6 0.56 M11.91 0.12 C11.6 1.22, 11.43 3.41, 12.21 5.65 M11.86 -0.18 C11.72 1.55, 11.68 2.8, 11.91 5.41 M11.37 4.42 C6.07 4.48, 2.9 5.83, 0.12 5.07 M12.1 5.6 C8.47 5.4, 4.52 5.75, -0.09 5.39 M-0.46 5.01 C-0.37 3.03, -0.24 1.93, -0.39 0.47 M0.14 5 C0.1 3.43, -0.14 1.58, 0.19 -0.13" stroke="transparent" stroke-width="0.5" fill="none"></path></g><g stroke-linecap="round" transform="translate(157.3273535052998 25.87452767923253) rotate(297.6586127734811 5.445429355926024 2.9567589196217057)"><path d="M-1.14 0.04 L11.88 -1.68 L10.82 4.18 L-0.8 4.94" stroke="none" stroke-width="0" fill="#ced4da"></path><path d="M0.99 -1.04 C4.31 -0.98, 7.25 -0.57, 11.27 -0.71 M0.11 0.09 C2.34 -0.43, 4.23 -0.27, 11.4 0.15 M11.02 -0.29 C10.35 1.31, 10.89 3.96, 11.36 5.75 M10.69 -0.16 C11.03 1.68, 10.84 3.84, 11.08 6.2 M10.14 4.93 C7.87 6.31, 6.89 5.98, -0.16 6.23 M11.22 6.39 C7.39 6.39, 4.09 5.88, 0.14 6.27 M-0.26 5.53 C-0.39 3.61, 0.53 1.37, 0.53 0.33 M-0.28 6.04 C0.05 3.87, 0.07 2.33, -0.14 0.22" stroke="transparent" stroke-width="0.5" fill="none"></path></g><g stroke-linecap="round" transform="translate(194.93174060305375 84.85868763842336) rotate(297.6586127734811 4.726775860950454 3.7057004929295942)"><path d="M0.04 0.99 L7.78 -0.07 L7.72 6.61 L-0.97 6.23" stroke="none" stroke-width="0" fill="#ced4da"></path><path d="M-0.9 0.13 C2.3 -1.01, 5.86 0.24, 8.83 -0.93 M0.08 0.12 C3.25 -0.17, 6.97 0.42, 9.58 0 M9.1 -0.69 C8.87 2.38, 9.97 5.39, 9.25 7.56 M9.25 0.17 C9.2 2.22, 9.53 4.83, 9.82 7.06 M8.6 6.73 C6.29 7.74, 2.45 7.21, 0.27 7.71 M9.87 7.51 C6.67 7.84, 3.08 7.59, 0.31 7.64 M-0.48 6.98 C-0.24 5.27, -0.48 2.35, 0.41 0.15 M0.16 7.48 C-0.23 5.16, 0.23 2.53, 0.27 -0.21" stroke="transparent" stroke-width="0.5" fill="none"></path></g><g stroke-linecap="round" transform="translate(201.89658137405934 70.54754286368961) rotate(297.6586127734811 5.501416409812975 3.475786443770744)"><path d="M0.99 -1.68 L10.94 -1.73 L10.2 5.98 L-1.18 8.46" stroke="none" stroke-width="0" fill="#ced4da"></path><path d="M0.15 -1.07 C1.43 -0.55, 5.4 -0.62, 9.92 0.88 M0.14 -0.4 C3.48 -0.26, 7.84 0.13, 11.01 0.13 M10.35 -0.55 C11 2.64, 11.56 4.14, 11.14 7.02 M11.17 -0.24 C10.89 2.18, 11.18 4.55, 10.67 7.21 M10.21 7.39 C8.62 6.96, 5.14 7.17, 0.35 7.32 M11.12 7.39 C7.68 6.97, 3.61 7.41, 0.26 7.43 M-0.4 6.66 C0.71 4.96, 0.66 4.39, 0.14 0.12 M0.07 6.78 C0.16 4.74, -0.1 2.28, -0.2 0.01" stroke="transparent" stroke-width="0.5" fill="none"></path></g><g stroke-linecap="round" transform="translate(211.38667861409908 53.431720044262306) rotate(297.6586127734811 4.824982660391527 3.114165144894116)"><path d="M-1.68 -0.07 L7.92 -0.8 L8.68 5.05 L1.51 5.06" stroke="none" stroke-width="0" fill="#ced4da"></path><path d="M-0.94 -0.95 C3.19 0.32, 6.91 -0.96, 10.42 0.32 M-0.35 -0.15 C2.88 0.43, 6.3 -0.02, 9.77 0.06 M9.15 -0.02 C10.05 2.5, 9.45 4.14, 9.71 6.25 M9.43 -0.06 C9.68 1.65, 9.92 2.61, 9.88 6.1 M10.04 6.64 C7.52 6.02, 5.48 6.47, 0.32 6.63 M10.03 6.61 C6.11 6.37, 3.02 6.48, 0.42 5.8 M-0.26 6.84 C-0.42 5.19, 0.39 3.16, 0.11 0.34 M-0.16 6.31 C0.2 4.79, 0.2 3.48, 0.01 0.15" stroke="transparent" stroke-width="0.5" fill="none"></path></g><g stroke-linecap="round" transform="translate(175.56960395605074 52.87847540135749) rotate(297.6586127734811 3.5735343329340594 5.1590693426024075)"><path d="M-0.07 -1.73 L6.35 -0.97 L5.96 11.83 L-1.17 11.16" stroke="none" stroke-width="0" fill="#868e96"></path><path d="M-0.7 -0.43 C1.71 -0.4, 2.22 0.64, 7.38 0.14 M-0.11 -0.15 C2.59 0.15, 4.52 0.14, 7.19 0.08 M7.12 0.71 C7.86 2.31, 7.26 5.29, 7.18 9.63 M7.05 0.11 C7.53 3.05, 6.71 5.47, 6.94 9.96 M7.45 10.39 C5.55 10.55, 4.38 10.59, 0.3 10.75 M7.43 10.27 C4.46 10.61, 1.77 10.68, -0.32 10.16 M1.01 9.55 C0.99 8.47, 0.27 5.66, 0.57 -0.97 M0.14 10.69 C-0.27 7.16, -0.31 3.24, 0.26 -0.43" stroke="transparent" stroke-width="0.5" fill="none"></path></g><g stroke-linecap="round"><g transform="translate(167.81909481495848 24.249319456948626) rotate(297.6586127734811 5.077462301265598 5.880545677209454)"><path d="M-0.92 0.53 C2.27 2.05, 7.88 7.51, 11.08 11.23 M-0.33 0.72 C3.63 3.62, 7.12 7.28, 10.95 10.62" stroke="#000000" stroke-width="0.5" fill="none"></path></g></g><mask></mask><g stroke-linecap="round" transform="translate(158.71911524631253 190.79291027482444) rotate(57.65861277348111 28.335874010703435 27.392813389902187)"><path d="M1.63 -0.29 L55.82 -0.75 L55.22 55.51 L1.51 56.19" stroke="none" stroke-width="0" fill="#ffffff"></path><path d="M-1.13 -1.14 C19.47 -0.22, 41.95 0.82, 56.07 -0.53 M0.97 -0.83 C18.38 0.21, 36.35 -0.46, 56.42 0.22 M56.87 -1.75 C57.01 16.45, 57.72 28.96, 56.77 53.35 M56.6 0.35 C55.75 11.89, 56.25 22.97, 57 55.24 M58.1 52.96 C36.51 56.31, 20.74 54.1, 0.13 54.67 M55.9 54.58 C40.4 55.31, 22.38 53.8, -0.97 53.93 M-1.01 54.2 C-0.58 33.77, 1.71 11.53, 0.29 -0.36 M0.99 55.59 C-0.85 39.83, 0.19 26.65, 0.44 -0.72" stroke="#000000" stroke-width="0.5" fill="none"></path></g><g stroke-linecap="round" transform="translate(164.94708583161878 196.47868378338487) rotate(57.65861277348111 21.9010340959222 21.9010340959222)"><path d="M29.55 0.91 C33.93 2.45, 40.16 7.35, 42.33 11.6 C44.51 15.85, 43.86 21.81, 42.6 26.38 C41.33 30.95, 38.36 36, 34.74 39.03 C31.11 42.05, 25.53 44.68, 20.83 44.51 C16.14 44.34, 10.07 41.41, 6.6 38.02 C3.12 34.62, 0.43 28.84, -0.02 24.14 C-0.47 19.45, 1.14 13.57, 3.9 9.84 C6.67 6.11, 11.58 2.82, 16.55 1.75 C21.52 0.67, 30.18 2.38, 33.73 3.4 C37.27 4.42, 37.85 7.59, 37.83 7.86 M30.04 0.72 C34.37 2.53, 39.66 8.64, 42.03 13.23 C44.4 17.82, 45.34 23.84, 44.26 28.25 C43.18 32.66, 39.36 36.93, 35.56 39.7 C31.76 42.47, 26.26 45.2, 21.47 44.88 C16.68 44.57, 10.57 41.17, 6.82 37.84 C3.06 34.51, -0.77 29.37, -1.06 24.9 C-1.35 20.42, 2.19 15.25, 5.06 11.01 C7.94 6.77, 12.16 0.75, 16.19 -0.55 C20.23 -1.84, 26.95 2.66, 29.27 3.24 C31.58 3.81, 30 3.01, 30.09 2.9" stroke="none" stroke-width="0" fill="#ced4da"></path><path d="M17.27 0.25 C21.56 -1.07, 27.59 0.43, 31.63 2.7 C35.68 4.97, 39.53 9.72, 41.56 13.86 C43.59 18, 45.14 23.04, 43.8 27.53 C42.46 32.01, 37.78 38.12, 33.52 40.77 C29.26 43.42, 22.9 44.06, 18.24 43.43 C13.59 42.81, 8.66 40.32, 5.59 37.01 C2.53 33.71, -0.02 28.33, -0.15 23.63 C-0.28 18.92, 1.83 12.66, 4.79 8.77 C7.75 4.87, 14.99 1.58, 17.61 0.26 C20.22 -1.06, 20.43 0.5, 20.47 0.87 M15.49 1.3 C19.88 -0.62, 25.39 -1.37, 29.7 0.15 C34.01 1.67, 39.05 6.12, 41.35 10.42 C43.65 14.72, 44.24 21.21, 43.49 25.97 C42.74 30.73, 40.46 36.17, 36.84 38.98 C33.22 41.79, 26.39 43.06, 21.77 42.81 C17.14 42.55, 12.82 40.03, 9.08 37.46 C5.33 34.88, 0.15 31.78, -0.71 27.36 C-1.56 22.94, 1.45 15.26, 3.95 10.92 C6.45 6.58, 12.56 2.73, 14.29 1.32 C16.03 -0.1, 14.37 2.29, 14.36 2.45" stroke="#ffffff" stroke-width="0.5" fill="none"></path></g><g stroke-linecap="round" transform="translate(196.62293587676652 183.84454148285062) rotate(57.65861277348111 5.718939881472295 2.5428218490802266)"><path d="M-0.86 -0.75 L9.99 0.73 L12.95 6.49 L1.69 5.89" stroke="none" stroke-width="0" fill="#ced4da"></path><path d="M-0.51 -0.32 C3.42 0.33, 5.11 -0.24, 11.77 -0.6 M-0.15 0.27 C3.43 -0.02, 7.78 0.22, 11.34 0.37 M11.43 0.25 C11.62 1.2, 11.47 3.04, 10.98 4.9 M11.25 0.1 C11.38 1.96, 11.52 4.05, 11.52 5.02 M10.61 6.17 C9.63 4.8, 6.16 4.92, 0.01 5.57 M11.89 5.55 C8.48 4.66, 5.18 4.57, 0.51 4.85 M-0.21 5.16 C0.4 3.72, 0.1 2.58, -0.18 0.17 M-0.17 4.95 C0.05 3.79, 0.06 1.93, 0.21 -0.04" stroke="transparent" stroke-width="0.5" fill="none"></path></g><g stroke-linecap="round" transform="translate(206.1578746259072 199.2237424485929) rotate(57.65861277348111 5.925908416743027 2.6203776860220387)"><path d="M-0.75 -1.45 L12.58 1.51 L13.26 6.94 L0.8 5.53" stroke="none" stroke-width="0" fill="#ced4da"></path><path d="M-0.33 0.72 C3.16 -0.3, 5.45 0.4, 11.23 0.55 M0.28 -0.55 C4.59 -0.12, 9.54 -0.07, 12.23 0.2 M12.11 0.18 C11.29 1.65, 11.43 2.77, 11.66 5.7 M11.96 -0.06 C11.87 1.62, 11.99 3.15, 11.79 5.07 M12.98 6.14 C7.26 5.24, 2.98 5.17, 0.5 4.64 M12.33 5.13 C8.8 4.76, 6.07 5.86, -0.25 4.87 M0.08 5.63 C-0.15 4.01, -0.08 2.44, 0.18 -0.04 M-0.13 5.34 C0.16 3.26, -0.23 1.27, -0.04 -0.11" stroke="transparent" stroke-width="0.5" fill="none"></path></g><g stroke-linecap="round" transform="translate(216.73365008858093 214.1833648513251) rotate(57.65861277348111 5.445429355926024 2.9567589196217057)"><path d="M-1.45 0.73 L12.4 1.41 L12.59 6.72 L0.29 7.07" stroke="none" stroke-width="0" fill="#ced4da"></path><path d="M0.66 0.26 C2.32 -0.26, 5.61 -0.54, 11.39 1.06 M-0.51 -0.11 C2.22 0.07, 4.62 0.3, 11.08 0.05 M11.1 -0.58 C10.92 0.83, 10.36 2.3, 11.4 5.87 M10.83 0 C10.95 2.12, 10.94 3.89, 10.7 6.13 M11.71 5.74 C8.69 5.95, 6.36 6.48, -0.55 5.07 M10.79 5.53 C7.32 5.53, 5.29 5.78, -0.34 5.64 M0.44 5.72 C0.11 4.21, -0.19 2.91, -0.05 0.59 M0.11 6.14 C0.17 3.45, 0.28 1.37, -0.13 -0.11" stroke="transparent" stroke-width="0.5" fill="none"></path></g><g stroke-linecap="round" transform="translate(147.27905340818847 215.5118548489993) rotate(57.65861277348111 4.726775860950454 3.7057004929295942)"><path d="M0.73 1.51 L10.86 1.69 L10.26 7.7 L1.16 8.91" stroke="none" stroke-width="0" fill="#ced4da"></path><path d="M0.22 -0.28 C2.16 0.22, 4.33 0.38, 10.37 -0.79 M-0.09 -0.12 C2.7 0, 5.49 0.25, 9.5 -0.41 M8.72 0.03 C8.96 1.55, 9.22 5.08, 9.4 7.67 M9.45 0.12 C9.65 1.8, 9.39 3.13, 9.72 7.07 M9.31 7.47 C7.24 7.49, 5.54 7, -0.73 7.22 M9.12 6.95 C5.47 7.81, 2.09 7.1, -0.24 7.27 M-0.24 7.52 C-0.14 5.22, 0.24 3.5, 0.74 0.6 M0.28 7.57 C-0.23 5.99, -0.02 3.8, -0.14 -0.27" stroke="transparent" stroke-width="0.5" fill="none"></path></g><g stroke-linecap="round" transform="translate(155.22759853880768 229.7148857452251) rotate(57.65861277348111 5.501416409812975 3.4757864437707298)"><path d="M1.51 1.41 L12.7 0.8 L11.29 8.11 L1.5 6.9" stroke="none" stroke-width="0" fill="#ced4da"></path><path d="M-0.33 -0.29 C3.31 -0.6, 6.49 1.04, 10.09 -0.28 M-0.14 0.12 C3.72 0.37, 7.82 0.07, 10.52 0 M11.04 -0.5 C10.4 2.17, 11.63 4.8, 11.25 6.45 M11.12 0.16 C11.09 2.28, 10.76 4.98, 10.68 6.7 M11.08 6.89 C6.67 7.4, 1.75 6.08, -0.23 7.82 M10.47 6.48 C7.3 6.65, 2.27 6.6, -0.16 6.73 M0.1 6.83 C-0.3 5, -0.11 3.27, 0.56 -0.47 M0.15 6.7 C0.26 5.17, -0.17 3.37, -0.25 0.13" stroke="transparent" stroke-width="0.5" fill="none"></path></g><g stroke-linecap="round" transform="translate(166.63311114259352 246.4480855865363) rotate(57.65861277348111 4.824982660391527 3.1141651448941303)"><path d="M1.41 1.69 L10.45 0.29 L10.81 7.72 L-0.05 6.26" stroke="none" stroke-width="0" fill="#ced4da"></path><path d="M-0.25 0.28 C2.98 0.47, 7.9 -0.78, 9.4 0.45 M0.11 -0.09 C2.31 0.19, 4.05 -0.4, 9.65 0.24 M9.2 -0.56 C9.36 2.63, 9.55 4.39, 9.2 6.48 M9.79 0.09 C9.57 1.53, 9.87 3.18, 9.43 6.52 M9.6 6.24 C6.44 5.75, 1.65 6.04, 0.76 7.01 M9.24 6.66 C6.73 5.83, 3.96 5.99, -0.19 6.3 M-0.11 6 C0.23 3.85, 0.64 2.07, -0.42 -0.32 M-0.22 6.48 C-0.09 3.99, -0.16 1.79, 0.11 0.24" stroke="transparent" stroke-width="0.5" fill="none"></path></g><g stroke-linecap="round" transform="translate(185.12700589454755 211.55506902521137) rotate(57.65861277348111 3.5735343329340594 5.1590693426024075)"><path d="M1.69 0.8 L7.44 1.16 L8.64 10.27 L0.03 8.71" stroke="none" stroke-width="0" fill="#868e96"></path><path d="M0.21 -0.37 C2.64 0.71, 4.03 -0.17, 7.48 -0.66 M-0.06 0.23 C2.13 0.02, 3.7 -0.02, 7.32 0.12 M6.22 -0.38 C8.05 2.01, 7.51 3.41, 7.56 10.09 M7.3 -0.13 C6.84 3.45, 6.71 5.79, 7.64 10.71 M7.15 10.62 C4.75 9.76, 2.93 10.88, 0.58 10.19 M7.46 10.17 C5.28 10.08, 3.76 10.11, 0.05 10.58 M-0.37 10.66 C-0.1 8.58, 0.82 4.1, -0.53 0.39 M0.42 10.24 C-0.27 6.25, -0.42 2.76, 0.39 0.36" stroke="transparent" stroke-width="0.5" fill="none"></path></g><g stroke-linecap="round"><g transform="translate(211.24029453645562 219.59851115092536) rotate(57.65861277348111 5.115431590005272 5.474777487540123)"><path d="M-0.81 0.71 C4.37 1.65, 5.39 6.62, 9.34 10.68 M0.49 0.27 C3.06 2.37, 5.94 6.44, 11.04 10.23" stroke="#000000" stroke-width="0.5" fill="none"></path></g></g><mask></mask><g stroke-linecap="round" transform="translate(68.2204842782129 191.96091949837532) rotate(117.6586127734811 28.335874010703435 27.392813389902187)"><path d="M-1.61 -0.44 L56.57 -1.93 L56.52 52.82 L-1.69 55.86" stroke="none" stroke-width="0" fill="#ffffff"></path><path d="M1.52 1.98 C18.19 0.74, 34.24 -0.26, 58.19 -0.29 M-0.77 -0.06 C20.31 1.23, 40.69 0.51, 56.79 0.05 M56.06 1 C56.49 15.6, 58.24 34.7, 58.44 53.27 M57.09 0.08 C57.22 14.78, 55.7 30.34, 56.78 55.37 M56.95 53.28 C41.98 53.26, 26.46 54.64, 1.74 55.8 M57.48 53.97 C36.4 55.72, 14.07 54.66, -0.37 53.99 M0.61 53.73 C0.4 37.82, -0.21 22.27, -1.25 -0.86 M0.52 54.39 C-0.22 42.43, -0.84 32.02, -0.26 -0.79" stroke="#000000" stroke-width="0.5" fill="none"></path></g><g stroke-linecap="round" transform="translate(74.38388561024237 197.37054180505535) rotate(117.6586127734811 21.9010340959222 21.9010340959222)"><path d="M28.43 0.32 C32.84 1.69, 38.29 7.2, 40.65 11.38 C43 15.56, 43.36 20.84, 42.57 25.4 C41.78 29.96, 39.26 35.64, 35.92 38.74 C32.58 41.83, 27.01 44, 22.53 43.95 C18.04 43.9, 12.76 41.53, 9.01 38.44 C5.26 35.36, 0.97 30.06, 0.02 25.42 C-0.93 20.77, 0.93 14.63, 3.32 10.59 C5.7 6.54, 9.58 2.66, 14.35 1.15 C19.12 -0.37, 28.69 0.93, 31.93 1.51 C35.18 2.09, 34.06 4.3, 33.83 4.63 M11.86 1.64 C15.66 -0.56, 21.92 -1.72, 26.79 -0.32 C31.66 1.07, 38.02 5.96, 41.06 10 C44.1 14.05, 45.79 19.36, 45.03 23.94 C44.27 28.53, 40 34.34, 36.49 37.5 C32.99 40.66, 28.41 42.84, 23.99 42.93 C19.57 43.02, 14.08 40.55, 9.99 38.04 C5.9 35.52, 0.73 32.18, -0.53 27.84 C-1.79 23.5, 0.06 16.57, 2.43 12 C4.8 7.43, 11.9 1.99, 13.69 0.43 C15.48 -1.13, 13.34 1.94, 13.18 2.64" stroke="none" stroke-width="0" fill="#ced4da"></path><path d="M31.19 2.98 C35.27 4.67, 39.65 9.64, 41.76 13.67 C43.88 17.7, 45.27 22.79, 43.87 27.18 C42.47 31.56, 37.5 37.12, 33.37 40 C29.24 42.88, 23.8 44.95, 19.11 44.48 C14.41 44.01, 8.36 40.69, 5.21 37.19 C2.05 33.69, 0.35 28.04, 0.17 23.47 C0 18.9, 1.54 13.62, 4.17 9.76 C6.8 5.91, 10.36 0.97, 15.96 0.34 C21.55 -0.29, 33.64 3.92, 37.75 5.98 C41.86 8.05, 40.81 12.27, 40.64 12.73 M14.26 2.17 C18.4 0.53, 24.5 1.02, 28.9 2.19 C33.31 3.36, 38.01 5.37, 40.7 9.21 C43.39 13.05, 45.61 20.51, 45.05 25.24 C44.49 29.97, 41.15 34.55, 37.34 37.58 C33.52 40.6, 26.98 43.32, 22.18 43.38 C17.37 43.44, 12.18 40.96, 8.53 37.95 C4.87 34.93, 1.4 29.7, 0.24 25.3 C-0.92 20.89, -0.91 15.34, 1.58 11.51 C4.06 7.68, 12.87 4.05, 15.12 2.31 C17.37 0.56, 15.01 0.61, 15.06 1.03" stroke="#ffffff" stroke-width="0.5" fill="none"></path></g><g stroke-linecap="round" transform="translate(126.0190495049469 214.15056292762736) rotate(117.6586127734811 5.718939881472295 2.5428218490802266)"><path d="M-0.1 -1.93 L11.28 -1.97 L9.74 6.16 L0.08 6.94" stroke="none" stroke-width="0" fill="#ced4da"></path><path d="M1.04 0.21 C3.54 -0.47, 6.24 -0.28, 12.21 1.05 M-0.29 0.46 C2.02 0.05, 5.18 0.03, 11.43 0.42 M11.29 -0.19 C11.72 1.69, 11.87 2, 11.27 4.92 M11.62 0.03 C11.26 1.93, 11.49 3.5, 11.32 5.02 M11.27 4.3 C7.52 5, 6.2 5.58, 0.83 4.38 M11.91 5.45 C7.18 4.75, 3.18 4.54, 0.06 5.64 M0.24 5.09 C0.06 4.43, -0.33 2.83, -0.46 0.35 M0.04 4.87 C-0.14 4.09, -0.09 2.76, -0.21 -0.06" stroke="transparent" stroke-width="0.5" fill="none"></path></g><g stroke-linecap="round" transform="translate(117.2970905606403 230.2381246816408) rotate(117.6586127734811 5.925908416743027 2.6203776860220387)"><path d="M-1.93 -0.15 L9.88 -1.69 L12.93 5.32 L1.85 4.46" stroke="none" stroke-width="0" fill="#ced4da"></path><path d="M0.22 0.89 C4.09 0.79, 8.74 0.69, 12.94 -0.91 M0.47 -0.55 C2.69 0.13, 5.31 0.05, 12.29 -0.39 M11.65 0.31 C12.39 1.87, 11.48 2.65, 11.68 5.4 M11.88 -0.21 C12.11 1.82, 12.01 3.46, 11.79 5.17 M11.04 4.41 C8.13 6.26, 5.01 6.08, -0.73 5.85 M12.23 4.99 C7.1 5.12, 2.37 5.4, 0.57 4.65 M0 5.32 C0.4 3.18, -0.2 1.3, 0.36 -0.48 M-0.22 5.12 C0.09 3.33, -0.19 1.34, -0.06 -0.01" stroke="transparent" stroke-width="0.5" fill="none"></path></g><g stroke-linecap="round" transform="translate(109.57849009694326 246.2925284089489) rotate(117.6586127734811 5.445429355926024 2.9567589196217057)"><path d="M-0.15 -1.97 L9.2 1.08 L10.97 7.76 L-0.78 5.42" stroke="none" stroke-width="0" fill="#ced4da"></path><path d="M0.81 -0.34 C5.17 -0.18, 9.42 0.98, 10.06 -0.84 M-0.51 0.04 C3.27 -0.06, 6.39 0.32, 10.54 -0.17 M11.24 0.58 C11.4 1.62, 10.68 3.95, 11.07 6.16 M10.66 0.29 C10.97 1.99, 10.8 3.57, 10.81 5.95 M10.13 5.92 C9.39 6.39, 6.79 5.16, 0.56 6.79 M10.66 5.69 C8.31 5.55, 6.19 6.51, -0.54 6.08 M0.09 6.33 C-0.4 4.2, -0.56 3.4, -0.54 0.31 M-0.14 5.99 C-0.09 4.14, -0.25 2.77, -0.02 -0.29" stroke="transparent" stroke-width="0.5" fill="none"></path></g><g stroke-linecap="round" transform="translate(73.41140998914011 185.81048530314277) rotate(117.6586127734811 4.726775860950454 3.7057004929295942)"><path d="M-1.97 -1.69 L10.53 0.08 L11.3 6.63 L-0.5 6.89" stroke="none" stroke-width="0" fill="#ced4da"></path><path d="M-0.3 0.72 C3.56 0.57, 8.26 -0.8, 8.72 -0.06 M0.04 0.06 C2.39 0.08, 5.08 -0.22, 9.31 0.24 M10.18 0.65 C8.86 1.77, 9.19 4.23, 9.76 7.47 M9.82 0.04 C9.68 2.59, 9.37 5.41, 9.51 7.13 M9.46 8.23 C7.23 8.03, 3.47 7.84, 0.76 6.64 M9.26 7.24 C5.47 7.42, 2.69 6.9, 0.15 7.16 M0.52 6.95 C-0.32 4.18, 0.51 1.6, 0.38 -0.29 M0.1 7.32 C-0.23 4.78, -0.02 2.72, -0.36 -0.03" stroke="transparent" stroke-width="0.5" fill="none"></path></g><g stroke-linecap="round" transform="translate(64.89728812041005 200.5814581761944) rotate(117.6586127734811 5.501416409812975 3.4757864437707298)"><path d="M-1.69 1.08 L11.09 1.85 L10.22 6.45 L-0.52 8.16" stroke="none" stroke-width="0" fill="#ced4da"></path><path d="M0.83 -0.16 C4.25 1.04, 6.17 -0.81, 10.94 -0.55 M0.07 0.03 C4.17 0.4, 8 -0.18, 11.28 -0.16 M11.62 -0.53 C10.82 1.59, 11.25 3.93, 11.06 7.45 M11.04 0.2 C10.79 2.08, 10.85 4.37, 10.74 6.9 M11.96 7.51 C9.25 6.27, 6.48 7.84, -0.9 7.85 M10.8 6.52 C7.05 7.43, 2.44 7.07, -0.29 7.21 M-0.44 6.65 C-0.64 5.34, -0.64 3.14, -0.27 0.11 M-0.09 6.68 C-0.25 5.38, 0.01 3.62, -0.03 -0.34" stroke="transparent" stroke-width="0.5" fill="none"></path></g><g stroke-linecap="round" transform="translate(56.76005837921298 218.42052359337475) rotate(117.6586127734811 4.824982660391527 3.1141651448941303)"><path d="M1.08 0.08 L11.5 -0.78 L9.15 5.71 L1.21 5.11" stroke="none" stroke-width="0" fill="#ced4da"></path><path d="M-0.14 0.65 C4.5 -0.81, 6.49 -0.13, 9.17 0.77 M0.02 -0.01 C2.35 -0.33, 3.84 0.23, 9.51 -0.18 M9.18 -0.2 C9.51 2.42, 9.97 4.51, 10.1 6.29 M9.83 -0.14 C9.64 1.29, 9.76 2.51, 9.61 6.01 M10.14 6.92 C6.83 6.81, 5.99 5.52, 0.79 6.85 M9.27 6.28 C7.62 5.71, 4.81 5.94, 0.22 6.23 M-0.27 5.67 C0.38 3.7, 0.28 2.05, 0.1 -0.53 M-0.25 5.98 C-0.08 4.63, -0.32 3.04, -0.31 -0.26" stroke="transparent" stroke-width="0.5" fill="none"></path></g><g stroke-linecap="round" transform="translate(95.08002969217648 214.88395984086304) rotate(117.6586127734811 3.5735343329340594 5.1590693426024075)"><path d="M0.08 1.85 L6.36 -0.5 L6.63 11.52 L-1.12 11.97" stroke="none" stroke-width="0" fill="#868e96"></path><path d="M0.48 0.66 C1.37 -0.54, 3.8 -0.35, 7.72 -0.67 M0 0.26 C1.97 -0.11, 4.58 -0.11, 7.01 0.21 M6.82 -0.33 C7.55 4.54, 7.32 8.96, 7.26 9.5 M6.91 -0.12 C7.02 4.19, 6.77 8.16, 6.79 9.96 M7.66 9.88 C5.37 10.93, 2.27 10.94, 0.46 10.02 M7.18 10.66 C4.94 10.37, 3.26 10.43, 0 10.37 M-0.93 11.03 C-0.87 7.03, -0.34 2.82, -0.87 -0.48 M-0.42 10.21 C0 6.46, -0.01 3.08, -0.44 0.28" stroke="transparent" stroke-width="0.5" fill="none"></path></g><g stroke-linecap="round"><g transform="translate(99.15919985494122 243.67259109990576) rotate(117.6586127734811 5.893876310438003 5.2800096439930115)"><path d="M1.41 -1.18 C2.85 3.96, 7.31 9.41, 9.33 11.1 M0.57 -0.5 C3.13 3.82, 6.5 6.57, 11.22 11.74" stroke="#000000" stroke-width="0.5" fill="none"></path></g></g><mask></mask><g stroke-linecap="round" transform="translate(120.36162776077879 15.834495208311239) rotate(357.65861277348114 12.648541753569361 12.648541753569361)"><path d="M7.63 1.51 C9.72 0.1, 12.67 -1.02, 15.17 -0.6 C17.67 -0.18, 20.81 1.63, 22.64 4.02 C24.48 6.42, 26.14 10.82, 26.17 13.75 C26.21 16.69, 24.71 19.69, 22.85 21.64 C20.99 23.59, 17.94 25.11, 15.03 25.45 C12.11 25.8, 7.72 25.15, 5.37 23.7 C3.02 22.25, 1.65 19.25, 0.91 16.75 C0.18 14.25, -0.31 11.21, 0.98 8.68 C2.28 6.15, 7.27 2.9, 8.7 1.57 C10.13 0.24, 9.62 0.75, 9.55 0.7 M12.95 1.05 C15.86 0.69, 20.34 0.72, 22.27 2.7 C24.2 4.69, 24.54 9.85, 24.52 12.94 C24.5 16.02, 23.44 19.26, 22.16 21.2 C20.89 23.15, 19.51 24.25, 16.88 24.6 C14.26 24.95, 9 24.35, 6.42 23.3 C3.84 22.25, 2.5 20.37, 1.42 18.3 C0.34 16.23, -0.57 13.78, -0.07 10.87 C0.43 7.96, 2.25 2.76, 4.42 0.84 C6.59 -1.08, 11.56 -0.43, 12.96 -0.64 C14.37 -0.85, 12.76 -0.6, 12.85 -0.43" stroke="none" stroke-width="0" fill="#ffffff"></path><path d="M15.41 0.29 C17.97 0.32, 21 1.46, 22.78 3.54 C24.56 5.62, 26.11 10.03, 26.08 12.77 C26.06 15.51, 24.61 18.04, 22.65 19.99 C20.69 21.94, 16.99 24, 14.32 24.47 C11.66 24.94, 8.88 23.85, 6.66 22.81 C4.44 21.76, 2.05 20.6, 1.02 18.19 C-0.02 15.78, -0.41 10.98, 0.46 8.36 C1.34 5.73, 3.88 3.91, 6.25 2.44 C8.62 0.98, 12.92 -0.22, 14.68 -0.43 C16.43 -0.65, 16.78 0.94, 16.77 1.16 M13.47 -0.62 C16.1 -0.59, 19.86 1.25, 21.58 3.56 C23.3 5.87, 23.55 10.55, 23.81 13.25 C24.07 15.94, 24.74 18.01, 23.15 19.74 C21.56 21.46, 16.91 22.88, 14.28 23.6 C11.65 24.33, 9.77 25.23, 7.37 24.11 C4.98 22.98, 0.78 19.5, -0.11 16.84 C-0.99 14.18, 1.05 10.74, 2.07 8.14 C3.09 5.54, 4.19 2.59, 6.01 1.26 C7.83 -0.07, 11.44 0.23, 12.97 0.17 C14.5 0.1, 15.1 0.63, 15.19 0.87" stroke="#000000" stroke-width="0.5" fill="none"></path></g><g stroke-linecap="round" transform="translate(133.08404591420936 235.3530887152888) rotate(357.65861277348114 12.648541753569361 12.648541753569361)"><path d="M12.52 0.74 C15.17 0.38, 19.19 0.89, 21.14 2.56 C23.08 4.23, 23.86 8.18, 24.19 10.76 C24.52 13.35, 24.21 15.82, 23.1 18.1 C21.99 20.38, 19.9 23.31, 17.52 24.44 C15.13 25.57, 11.33 25.75, 8.76 24.89 C6.2 24.03, 3.47 21.7, 2.13 19.28 C0.79 16.87, 0.45 13.11, 0.73 10.41 C1.01 7.71, 1.54 4.71, 3.81 3.09 C6.08 1.47, 12.17 1.06, 14.34 0.72 C16.5 0.37, 16.9 0.79, 16.77 1.05 M16.74 2.51 C19.07 3.38, 23.19 5.98, 24.58 7.98 C25.97 9.98, 26.02 11.87, 25.1 14.5 C24.17 17.14, 21.36 21.83, 19.02 23.79 C16.69 25.74, 13.71 26.35, 11.1 26.24 C8.48 26.13, 5.25 25.05, 3.34 23.14 C1.42 21.24, -0.04 17.76, -0.38 14.81 C-0.71 11.85, -0.38 7.72, 1.33 5.41 C3.03 3.1, 7 1.68, 9.87 0.94 C12.74 0.19, 17.33 1.05, 18.55 0.94 C19.76 0.83, 17.21 0.21, 17.15 0.28" stroke="none" stroke-width="0" fill="#ffffff"></path><path d="M14.76 0.33 C17.37 0.85, 21.2 3.46, 22.78 5.52 C24.37 7.58, 24.43 9.87, 24.29 12.69 C24.14 15.51, 23.69 20.19, 21.9 22.42 C20.1 24.66, 16.28 25.85, 13.52 26.1 C10.75 26.34, 7.61 25.6, 5.3 23.89 C3 22.18, 0.36 18.54, -0.3 15.84 C-0.95 13.13, 0.02 10.06, 1.38 7.65 C2.73 5.25, 5.42 2.67, 7.84 1.42 C10.26 0.17, 14.26 0.12, 15.91 0.14 C17.57 0.16, 17.83 1.36, 17.77 1.53 M18.1 0.74 C20.74 1.63, 23.38 4.88, 24.73 7.53 C26.09 10.18, 27.13 13.87, 26.23 16.65 C25.33 19.44, 21.66 22.73, 19.31 24.23 C16.97 25.73, 14.94 25.9, 12.17 25.67 C9.41 25.44, 4.56 25.1, 2.7 22.84 C0.85 20.57, 1.28 15.22, 1.04 12.1 C0.79 8.98, -0.41 6.02, 1.23 4.13 C2.88 2.25, 7.92 1.16, 10.89 0.79 C13.86 0.42, 17.69 1.9, 19.05 1.92 C20.41 1.94, 19.04 0.57, 19.06 0.91" stroke="#000000" stroke-width="0.5" fill="none"></path></g></svg>