<svg version="1.1" xmlns="http://www.w3.org/2000/svg" viewBox="0 0 278.33663131820504 244.92244555181924" width="278.33663131820504" height="244.92244555181924">
  <!-- svg-source:excalidraw -->
  
  <defs>
    <style class="style-fonts">
      @font-face {
        font-family: "Virgil";
        src: url("https://excalidraw.com/Virgil.woff2");
      }
      @font-face {
        font-family: "Cascadia";
        src: url("https://excalidraw.com/Cascadia.woff2");
      }
    </style>
  </defs>
  <g stroke-linecap="round"><g transform="translate(138.77342917762144 11.430983499049944) rotate(0 1.1544044960023712 102.78181032553812)" fill-rule="evenodd"><path d="M0 0 C0 0, 0 0, 0 0 M0 0 C0 0, 0 0, 0 0 M-22.68 37.15 C-13.07 28.11, -3.8 19.18, 4.29 7.37 M-21.03 36.49 C-13.77 27.58, -7.8 21.3, 3.68 6.6 M-40.86 73.9 C-26.13 51.82, -5.18 31.54, 7.44 16.21 M-42.09 71.76 C-23.76 51.95, -5.58 29.29, 8.44 15.05 M-61.52 109.83 C-45.74 89.46, -31.99 72.64, 13.54 22.04 M-62.42 109.34 C-33 74.38, -5.93 42.05, 12.23 22.36 M-84.21 146.39 C-52.83 111.57, -25.54 76.68, 3.95 41.61 M-83.53 145.1 C-56.13 114.5, -31.05 86.55, 5.38 42.7 M5.32 43.96 C10.05 39.5, 11.73 33.89, 17.21 28.11 M4.28 43.6 C7.09 39.52, 10.19 37.57, 17.57 28.86 M-102.95 179.43 C-76.75 148.36, -46.71 112.89, -13.21 77.75 M-104.5 180.79 C-82.43 154.36, -60.09 128.82, -14.9 77.55 M8.07 51 C12.46 46.72, 17.01 41.04, 19.84 37.09 M9.02 49.66 C12.28 46.68, 15.67 41.94, 21.24 37.2 M-115.9 204.44 C-92.18 179.48, -64.7 149.4, -37.32 116.09 M-114.72 206.55 C-93.4 178.89, -69.67 154.02, -35.88 114.09 M12.82 57.36 C14.77 56.45, 18.68 52.37, 23.45 43.52 M12.39 57.52 C15.34 55.46, 18.74 53, 25.6 44.52 M17.72 66.72 C22.12 59.72, 27.34 56.1, 30.76 52.3 M16.92 65.61 C22.03 60.45, 25.45 55.98, 30.01 51.15 M20.48 71.81 C23.94 70.22, 27.61 67.98, 35.59 58.39 M21.2 72.45 C25.76 67.88, 29.01 63.29, 33 57.78 M26.09 80.47 C30.84 74.83, 33.05 74.16, 38.57 64.68 M26.83 80.45 C28.24 76.02, 32.1 72.16, 38.33 66.8 M31.64 87.39 C32.33 84.88, 36.63 79.9, 41.39 73.51 M30.65 86.56 C34.55 81.05, 40.07 77.39, 41.18 73.43 M34.69 94.71 C36.77 90.15, 40.47 85.76, 45.82 79.08 M34.51 94.3 C37.19 90.18, 40.81 85.4, 47.51 79.98 M39.48 100.88 C41.55 99.3, 42.53 94.87, 51.91 87.58 M38.34 101.48 C41.03 99.54, 42.86 96.01, 51.54 88.04 M43.34 110.14 C47.01 106.42, 50.86 100.45, 55.93 94.81 M43.24 110.36 C46.58 105.36, 49.79 102.18, 55.72 94.73 M46.72 117.19 C48.92 111.98, 53.21 111.39, 59.46 103.16 M47.58 116.8 C51.9 111.21, 56.09 107.19, 59.18 103.43 M50.62 124.59 C56.15 120.46, 59.94 113.2, 65.31 109.56 M50.66 124.73 C55.39 119.91, 59.28 114.06, 64.22 110.17 M55.31 130.92 C56.48 127.73, 61.21 124.59, 67.21 118.63 M55.83 131.16 C61.01 126.7, 65.81 121.34, 68.24 117.86 M57.62 140.73 C61.6 134.97, 66.36 132.91, 71.25 123.87 M58.96 138.92 C63.57 134.61, 67.76 129.45, 71.04 125.44 M65.18 145.35 C68.86 140.87, 73.44 136.39, 74.36 132.27 M63.66 147.37 C67.32 142.02, 70.19 137.32, 76.31 132.81 M66.13 156.04 C71.44 150.95, 74.59 147.47, 78.99 140.89 M68.41 154.43 C71.23 149.78, 72.68 148.11, 81.02 138.39 M74.53 161.01 C74.42 157.89, 80.79 154.48, 83.59 145.88 M72.78 159.82 C77.19 155.59, 80.01 151.25, 84.49 146.24 M77.95 166.81 C81.89 159.36, 87.94 155.05, 87.71 154.6 M78.81 165.28 C81.7 161.42, 84.36 158.83, 88.25 154.48 M84.68 171.47 C87.45 168.46, 90.41 164.01, 93.27 161.2 M83.83 171.81 C86.99 168.51, 89.98 165.86, 92.95 161.38 M89.85 176.23 C90.82 174.83, 92.47 172.53, 98.53 167.24 M90.77 176.96 C93.27 173.81, 95.71 170.59, 97.23 168.56 M95.9 182.58 C97.36 181.82, 97.55 179.59, 102.01 175.61 M95.98 182.71 C97.98 180.49, 99.46 177.69, 101.73 175.76 M102.12 187.38 C103.21 185.87, 104.95 185.07, 106.07 183.3 M102.02 187.85 C103.12 185.91, 104.87 184.7, 105.55 183.3 M106.99 193.8 C107.52 193.34, 108.82 191.82, 109.52 190.68 M107 193.75 C107.96 193.05, 108.72 192.03, 109.82 190.74 M113.29 199.13 C113.58 198.51, 113.86 198.2, 114.5 197.4 M113.1 199.06 C113.54 198.63, 114.02 198.18, 114.38 197.55 M118.54 205.07 C118.54 205.07, 118.54 205.07, 118.54 205.07 M118.54 205.07 C118.54 205.07, 118.54 205.07, 118.54 205.07 M-117.77 204.07 C-117.77 204.07, -117.77 204.07, -117.77 204.07 M-117.77 204.07 C-117.77 204.07, -117.77 204.07, -117.77 204.07 M-111.65 198.78 C-112.09 198.28, -112.5 198.05, -113.28 197.47 M-111.71 198.59 C-112.15 198.38, -112.67 197.85, -113.27 197.33 M-106.31 193.02 C-107.35 191.75, -107.98 191.24, -109.22 190.27 M-106.66 192.6 C-107.44 191.65, -108.52 190.73, -109.35 189.88 M-100.31 187.96 C-101.86 185.31, -104.56 184.6, -105.25 182.76 M-100.52 187.54 C-101.77 186.34, -103.06 185.01, -105.48 182.52 M-95.02 181.75 C-97.54 179.44, -99.41 177.57, -101 176.11 M-95.5 181.31 C-96.83 180.13, -98.52 178.34, -101.01 176.25 M-89.04 175.27 C-92.46 172.96, -93.26 171.55, -98.57 167.57 M-89.8 175.8 C-90.97 174.02, -92.93 172.74, -97.3 168.98 M-82.96 169.81 C-87.11 168.55, -89.07 165.24, -92.46 162.76 M-84.45 169.72 C-87.92 166.28, -91.28 163.61, -92.57 162.06 M-78.61 164.61 C-81.31 161.96, -85.51 157.37, -88.64 154.69 M-78.65 165.14 C-79.9 162.93, -82.26 160.27, -89.57 153.91 M-72.61 159.22 C-75.76 155.28, -80.88 152.36, -84.76 147.22 M-72.39 157.84 C-76.05 155, -80.29 152.46, -85.32 148.68 M-67.42 151.17 C-68.81 150.43, -76.09 145.44, -81.5 141.38 M-67.43 152.32 C-71.2 148.96, -75.87 145.69, -81.78 140.18 M-63.13 147.2 C-68.38 142.51, -72.97 139.37, -75.21 132.13 M-61.08 146.5 C-67.14 143.24, -71.89 138.83, -77.59 133.79 M-55.5 139.32 C-60.79 135.27, -64.32 133.64, -72.16 128.07 M-55.52 141.1 C-61.37 135.15, -68.04 130.66, -71.9 126.68 M-52.3 134.44 C-55.8 128.41, -64.5 126.19, -69.06 118.27 M-52.2 135.07 C-55.88 130.58, -59.7 126.08, -69.44 120.05 M-48.68 125.84 C-54.34 120.23, -60.5 115.43, -63.08 112.66 M-47.87 126.63 C-53.2 123.4, -58.14 118.34, -64.35 111.6 M-42.96 119.88 C-48.59 113.47, -56.86 109.6, -59.91 104.95 M-44.2 119.42 C-49.75 115.06, -57.17 108.15, -61.08 104.61 M-39.24 112.14 C-44.45 108.39, -49.61 101.16, -56.31 100 M-39.16 112.83 C-43.85 109.07, -48.67 104.72, -56.7 98.65 M-37.47 104.31 C-43.47 99.56, -47.74 95.15, -51.94 89.44 M-36.89 106.21 C-40.72 101.3, -43.55 97.49, -53.51 91.37 M-29.97 97.54 C-36.31 91.8, -45.13 86.72, -47.15 83.68 M-30.94 98.52 C-37.61 92.98, -43.58 87.38, -48.62 83.91 M-27.29 90.05 C-30.83 87.76, -36.97 84.77, -42.84 75.48 M-28 91.18 C-34.44 87.02, -40.56 81.71, -44.56 76.7 M-22.71 82.48 C-29.22 81.14, -34.85 75.57, -38.95 71.39 M-23.11 83.75 C-30.14 77.89, -36.76 73.99, -41.62 70.16 M124.27 202.81 C101.78 184.46, 81.1 165.27, 66.54 150.47 M123.03 202.07 C110.69 190.37, 97.24 178.95, 64.46 151.75 M-21.03 76.5 C-24.82 71.42, -28.68 66.28, -37.81 64.94 M-19.66 76.74 C-24.49 73.6, -31.11 67.07, -36.8 63.87 M112.34 182.04 C91.97 165.88, 76.02 150.51, 53.33 128.78 M110.39 179.93 C94.13 166.18, 76.39 150.95, 52.89 130.73 M-14.35 69.58 C-21.83 67.71, -25.1 61.58, -32.65 55.59 M-15.72 70.25 C-22.6 63.93, -28.34 58.41, -31.92 55.53 M97.37 160.13 C77.14 141.06, 52.15 120.77, 42.46 110.49 M99.77 159.31 C85.11 146.21, 69.37 132.28, 41.55 108.6 M-13.06 61.5 C-16.06 58.28, -20.2 57.1, -26.39 49.37 M-11.75 63.87 C-15.68 58.73, -21.01 54.33, -27.56 47.97 M86.81 138.5 C69.15 124.09, 55 107.61, 27.12 86.43 M85.01 137.37 C67.39 121.09, 46.81 103.11, 28.15 87.17 M-8.87 55.14 C-11.69 51.73, -16.52 45.04, -24.25 40.44 M-6.86 56.41 C-13.25 50.59, -19.95 44.48, -24.43 40.75 M75.08 115.31 C62.12 105.68, 47.52 93.32, 16.2 67.24 M73.1 116.63 C52.15 96.07, 28.71 76.42, 15.82 67.13 M-3.52 47.18 C-7.96 43.69, -14.02 39.23, -21.72 34.39 M-4.48 49.52 C-8.51 44.44, -14.36 39.3, -20.34 34.44 M61.04 95.56 C46.31 81.96, 33.94 70.62, 5.06 45.97 M62.67 95.97 C48.9 83.89, 35.29 73.08, 4.82 45.68 M-1 40.06 C-5.24 38.6, -11.37 32.05, -16.59 28.95 M0.34 42.73 C-5.8 37.72, -11.47 31.51, -15.21 28.3 M48.3 75.02 C36.28 61.92, 23.26 50.64, -9.99 21.58 M49.23 73.65 C30.58 58.72, 13.48 44.62, -11.98 20.97 M36.55 51.59 C25.45 39.49, 8.42 30.65, -9.16 13.91 M36.1 52.01 C21.32 38.99, 6.8 26.59, -8.33 13.27 M25.32 31.07 C17.2 22.39, 5.3 17.38, -3.51 6.98 M24.33 31.13 C15.02 22.68, 6.05 15.74, -3.9 5.22" stroke="#f3b636" stroke-width="1" fill="none"></path><path d="M1.02 -1.43 C25.92 47.16, 52.96 91.97, 120.21 204.72 M-0.14 0.29 C28.67 51.29, 59.07 102.57, 118.92 205.67 M118.53 206.99 C109.12 192.95, 95.75 184.28, 64.58 149.89 M119.18 206.69 C101.02 188.74, 83.91 171.56, 65.05 150.64 M66.11 152.97 C48.12 125.83, 31.98 96.8, 0.98 40.05 M63.94 151.74 C42.94 116.69, 23.02 80.55, 1.09 39.61 M1 41.16 C-24.45 82.14, -49.65 124.14, -61.47 147.53 M0.73 38.93 C-20.36 73.78, -39.59 109.28, -61.37 146.35 M-61.57 145.12 C-74.71 160.2, -87.92 175.87, -117.62 204.51 M-60.09 145.79 C-77.27 164.16, -93.81 180.29, -117.91 204.28 M-117.63 205.23 C-76.69 132.39, -35.23 58.54, -1.24 -0.72 M-117.65 203.75 C-90.28 158.36, -64.02 113.42, 0.37 -0.69 M0 0 C0 0, 0 0, 0 0 M0 0 C0 0, 0 0, 0 0" stroke="#f3b636" stroke-width="2" fill="none"></path></g></g><mask></mask><g stroke-linecap="round"><g transform="translate(140.01070611342902 127.62756147415371) rotate(0 -0.5302676637916193 29.308970528454438)" fill-rule="evenodd"><path d="M-118.34 87.93 C-118.34 87.93, -118.34 87.93, -118.34 87.93 M-118.34 87.93 C-118.34 87.93, -118.34 87.93, -118.34 87.93 M-110.18 84.61 C-103.28 73.42, -95.84 67.82, -77.67 46.41 M-109.15 83.59 C-101.88 76.3, -94.6 67.95, -77.77 46.69 M-102.75 81.16 C-81.3 54.48, -58.08 33.38, -36.61 8.4 M-100.46 79.49 C-88.6 65.23, -76.73 49.7, -37.28 8.66 M-93.22 76.37 C-63.7 44.83, -34.76 10.28, 0.37 -27.65 M-92.19 76.84 C-68.75 51.1, -47.46 25.11, -1.29 -28.66 M-85.03 72.54 C-64.53 49.87, -45.13 32.42, 2.24 -28.01 M-83.13 72.58 C-60.65 45.91, -38.57 19.1, 2.25 -25.53 M-74.47 68.5 C-58.09 46.43, -40.7 25.28, 3.37 -25.18 M-75.22 69.16 C-48.76 38.27, -23.03 9.44, 5.05 -23.49 M-65.83 64.57 C-45.51 39.17, -19.27 14.07, 7.97 -18.26 M-67.45 66.78 C-45.44 40.31, -23.64 14.6, 7.15 -19.42 M-35.07 34.56 C-16.62 13.77, -1.55 -3.9, 9.65 -16.98 M-35.21 35.57 C-16.56 14.08, 1.15 -6.26, 9.76 -16.47 M0.21 0.22 C2.96 -6.36, 7.98 -10.15, 12.28 -13.04 M1.01 -0.74 C3.29 -2.75, 5.07 -6.77, 12.44 -15.09 M1.78 1.98 C5.27 -0.85, 11.59 -5.1, 14.85 -12.09 M2.85 2.15 C7.28 -1.17, 9.41 -5.59, 15.17 -11.86 M4.63 5.59 C9.13 0.93, 13.29 -2.45, 17.99 -8.09 M5.44 5.01 C8.88 1.42, 12.13 -1.81, 19.26 -9.46 M10.44 9.49 C12.49 5.67, 14.59 -1.1, 23.18 -7.97 M8.82 8.48 C14.05 2.3, 17.52 -3.25, 21.88 -6.62 M13.26 10.53 C17.9 6.38, 23.21 -0.17, 24.1 -3.29 M11.03 12.33 C16.96 6.25, 20.47 0.19, 25.3 -2.68 M15.79 12.95 C19.78 10.75, 21.6 4.86, 27.93 -1.82 M14.88 14.31 C18.89 9.28, 24.33 2.38, 27.99 -0.86 M19.44 15.32 C23.67 11.06, 27.68 7.66, 31.04 1.03 M16.97 16.72 C20.43 12.5, 25.16 9.73, 30.37 3.13 M19.59 20.46 C24.27 16.18, 27.56 9.01, 33.74 5.42 M19.18 20.15 C23.44 18.13, 26.37 14.28, 32.66 5.43 M22.7 22.72 C26.37 18.36, 29.26 14.56, 35.6 8.14 M23.83 22.01 C26.42 17.2, 31.38 13.15, 36.87 6.76 M27.7 24.33 C29.18 21.53, 31.96 16.11, 37.3 10.09 M26.38 25.38 C30.63 20.82, 34.92 14.88, 39.48 11.84 M27.57 26.69 C30.14 25.87, 34.42 20.01, 43.43 13.44 M28.49 27.45 C32.68 23.88, 35.63 19.07, 41.37 12.78 M32.31 31.35 C35.48 25.53, 38.98 21.93, 46.49 16.71 M32.08 30.55 C35.86 26.58, 40.17 21.23, 45.38 16.4 M32.89 35.28 C37.87 31.33, 40.91 27.6, 48.43 20.41 M35.22 34.54 C38 30.57, 40.49 27.09, 46.29 19.34 M38.83 35.6 C43.01 31.82, 45.37 26.12, 50.11 22.96 M37.63 36.12 C39.96 34.33, 43.01 31.39, 49.85 22.32 M39.01 39.97 C44.6 32.28, 48.26 27.47, 51.98 25.5 M40.66 38.5 C43.56 34.71, 48.41 30.75, 52.85 25.63 M42.99 41.01 C47.03 38.97, 51.99 34.29, 55.54 27.05 M43.33 41.15 C48.62 36.14, 51.56 32.3, 55.3 27.35 M44.42 46.39 C48.71 43.13, 53.37 36.61, 59 30.06 M46.83 44.55 C50.4 39.48, 56 33.84, 58.29 31.05 M47.19 49.5 C53.52 41.19, 55.84 38.62, 62.58 31.84 M48.63 47.57 C51.05 45.55, 54.8 42.06, 60.94 32.62 M52.83 51.18 C56.14 47.12, 59.41 40.97, 65.37 36.89 M52.03 51.44 C55.77 45.87, 62.09 39.29, 65.19 36.63 M56.25 53.09 C59.52 47.28, 63.57 42.98, 66.8 36.92 M54.51 53.29 C59.68 46.69, 64.42 42.29, 67.03 39.45 M59.11 56.72 C62 51.14, 63.98 46.43, 69.9 42.95 M58.62 55.84 C61.24 50.87, 64.89 47.08, 69.6 42.51 M58.85 60.75 C62.92 53.37, 69.49 51.39, 71.4 46.52 M61.08 59.08 C63.61 56.29, 66.81 53.23, 72.49 44.99 M64.78 63.43 C68.5 59.07, 68.47 54.01, 77.57 46.83 M62.78 62.36 C68.2 57.17, 71.14 52.02, 76.64 46.7 M65.17 63.98 C71.19 58.84, 73.1 56.9, 78.45 50.92 M66.23 63.63 C70.93 59.84, 74.82 54.18, 78.55 51.08 M69.89 65.21 C71.5 62.21, 74.81 61.1, 81.06 52.51 M68.56 67.08 C74.43 61.07, 79.08 57.21, 81.16 53.81 M73.98 69.58 C78.57 63.95, 81.74 58.84, 85.05 57.16 M73.85 68.75 C76.37 66.28, 78.95 62.58, 84.02 56.22 M76.83 69.72 C81.74 68.04, 85.3 62.29, 86.89 57.97 M76.77 70.98 C79.29 67.54, 81.48 65.06, 87.12 58.83 M80.75 73.7 C83.48 70.42, 87.06 66.24, 90.75 62.99 M79.8 73.27 C84.26 68.02, 87.17 64.27, 89.65 62.34 M83.2 74.84 C87.38 70.74, 89.27 68.98, 92.77 65.91 M84.69 74.8 C87.67 71.31, 90.13 66.57, 92.1 65.09 M89.25 75.86 C90.67 73.54, 91.63 73.02, 94.62 68.39 M88.09 75.17 C91.04 72.53, 92.61 70.31, 96.21 67.24 M92.76 78.4 C93.34 75.68, 97.2 73.6, 99.08 69.01 M91.96 77.63 C94.55 74.97, 96.98 71.57, 98.4 70.32 M95.97 79.78 C97.5 77.23, 99.86 76.09, 100.69 73.57 M95.59 79.5 C96.76 78.15, 97.8 77.17, 101.3 72.9 M98.84 81.47 C101.36 80.18, 102.22 78.03, 103.41 76.45 M99.75 81.5 C100.8 79.09, 102.68 77.78, 104.07 75.78 M103.01 83.56 C104.36 81.35, 105.98 80.72, 107.09 78.74 M102.9 83.11 C104.46 81.61, 105.79 80.23, 107.2 78.68 M107.81 84.34 C108.3 83.28, 108.91 82.52, 109.58 81.66 M107.48 84.1 C108.21 83.31, 108.89 82.75, 109.63 82.04 M111.25 86.15 C111.65 85.55, 111.86 85.13, 112.6 84.62 M111.27 86.14 C111.58 85.76, 111.77 85.39, 112.49 84.59 M114.79 87.84 C115.12 87.66, 115.15 87.48, 115.47 87.24 M114.91 87.97 C115.09 87.69, 115.28 87.47, 115.55 87.18 M-118.39 87.42 C-118.39 87.42, -118.39 87.42, -118.39 87.42 M-118.39 87.42 C-118.39 87.42, -118.39 87.42, -118.39 87.42 M-114.27 85.78 C-114.43 85.54, -114.73 85.36, -115.07 85.08 M-114.28 85.73 C-114.41 85.59, -114.58 85.4, -115.03 85.06 M-110.17 83.87 C-110.44 83.75, -111.19 83.21, -112.4 81.96 M-110.01 83.94 C-110.85 83.65, -111.17 83.06, -112.47 82.18 M-106.17 82.24 C-107.91 81.45, -108.46 79.41, -109.64 79.02 M-106.1 82.44 C-106.96 81.38, -108.08 80.79, -110.01 78.81 M-102.3 81 C-103.67 78.8, -105.14 77.66, -106.29 76.81 M-102.04 80.6 C-103.29 79.75, -104.05 78.45, -106.44 76.61 M-97.42 78.83 C-98.83 77.22, -102.07 75.09, -103.95 74.17 M-97.71 79.04 C-98.91 77.72, -100.77 76.36, -103.61 73.95 M-93.1 77.83 C-96.24 75.39, -100.02 72.21, -100.41 69.86 M-93.19 77.35 C-96.32 74.66, -97.88 73.19, -100.78 70.4 M-88.87 75.56 C-91.98 73.27, -95.32 69.95, -97.68 67.72 M-89.14 75.61 C-92.46 72.12, -96.85 68.69, -98.99 67.7 M-84.07 73.35 C-88.42 70.51, -92.35 67.62, -94.19 65.79 M-84.81 74.05 C-88.31 71.35, -91.65 69.08, -94.66 65.37 M-82.38 71.89 C-85.02 68.45, -87.93 67.09, -92.98 63.1 M-82.02 71.98 C-85.43 68.49, -89.19 64.51, -92.63 61.84 M-77.83 70.32 C-81.27 66.1, -84.87 62.82, -90.53 58.26 M-77.78 69 C-80.96 67.56, -84.25 63.86, -89.28 58.58 M-73.44 69.21 C-77.02 66.08, -82.16 61.44, -86.91 55.99 M-74.25 68.31 C-79.14 63.29, -83.59 59.14, -86.79 56.81 M-69.98 67.69 C-74.08 63.81, -75.6 59.84, -83.54 55.09 M-70.41 65.49 C-75.6 62.55, -79.88 58.13, -84.76 54.25 M-67.5 63.6 C-71.42 60.09, -73.25 58.14, -81.87 50.64 M-66.61 63.25 C-69.48 60.65, -74.12 58.4, -80.9 51.59 M-62.72 59.05 C-65.56 57.58, -68.58 57.21, -79.21 48.8 M-64.18 61.03 C-68.08 55.59, -74.1 50.57, -78.28 46.94 M-62.43 58.77 C-65.85 53.23, -68.18 50.17, -74.39 45.57 M-61.47 57.6 C-66.6 53.74, -70.59 48.81, -74.99 45.95 M-55.75 53.67 C-61.4 50.71, -65.46 46.92, -71.03 42.65 M-57.45 55.05 C-61.53 51.71, -65.78 48.27, -72.05 43.37 M-56.79 52.62 C-58.4 49.83, -61.65 45.75, -68.67 39.61 M-55.66 52.29 C-60.04 49.32, -63.95 44.04, -69.9 39.09 M-52.1 51.07 C-56.95 45.84, -58.9 43.38, -66.47 37.47 M-52.88 49.25 C-57.35 44.31, -62.47 39.7, -67.26 37.27 M-47.72 47.04 C-53.12 45.45, -54.37 39.09, -65.17 32.23 M-49.15 46.41 C-53.22 43.17, -56.4 39.92, -64.51 33.83 M-46.73 43.38 C-52.02 39.13, -59.58 32.69, -63.22 30.38 M-46.99 43.21 C-50.48 39.4, -54.85 36.36, -60.68 31.36 M-41.88 41.87 C-49.09 37.06, -55.32 30.33, -59.42 29.06 M-42.72 41.4 C-46.53 37.34, -49.52 34.46, -57.78 27.38 M-41.07 37.48 C-42.67 36.97, -47.38 30.25, -56.44 24.24 M-39.69 39.47 C-45.7 33.58, -51.79 28.14, -54.99 25.8 M-38.79 34.56 C-43.19 31.8, -44.41 29.7, -54.2 21.02 M-38.44 36.07 C-43.07 30.42, -48.5 26.83, -51.81 23.41 M-34.03 31.63 C-38.94 28.25, -40.97 25.08, -50.54 19.64 M-34.29 33.07 C-41.41 27.41, -47.93 22.81, -49.49 19.14 M-33.49 30.32 C-37.07 27.43, -39.4 24.56, -47.49 17.15 M-31.32 29.64 C-37.47 25.68, -42.84 22.19, -46.88 15.89 M-29.49 28.14 C-33.79 24.56, -36.14 23.39, -42.87 14.84 M-29.98 27.32 C-34.62 22.55, -39.61 17.3, -44.89 13.25 M-27.44 26.73 C-31.92 21.34, -34.22 18.14, -40.52 11.84 M-25.26 25.39 C-30.66 19.99, -37.75 15.68, -42.37 11.28 M-23.28 22.02 C-29.6 16.05, -35.13 11.96, -39 7.22 M-23.84 21.37 C-27.77 18.87, -31.49 13.35, -39.53 7.83 M-20.11 18.43 C-25.95 14.89, -31.98 7.91, -36.98 6.22 M-19.52 18.33 C-24.76 15.43, -29.61 10.22, -35.07 4.99 M-17.71 15.03 C-23.82 11.7, -27.71 4.76, -32.72 4.47 M-16.35 17.31 C-21.43 12.01, -25.84 9.7, -32.38 2.54 M-15.91 13.77 C-16.44 11.58, -23.79 6.05, -30.76 0.13 M-14.78 12.82 C-19.79 7.96, -26.69 4.19, -29.9 0.28 M-13.32 11.64 C-16.57 5.14, -23.72 1.63, -26.06 -2.59 M-12.12 11.11 C-15.81 6.31, -19.36 3.94, -28.07 -3.18 M-6.73 8.83 C-11.71 5.4, -16.45 1.52, -25.74 -3.89 M-8.6 7.65 C-13.9 3.49, -19.31 -1.72, -24.69 -4.7 M-4.59 7 C-9.78 -1, -17.8 -5.32, -21.24 -8.83 M-6.65 5.58 C-11.49 -0.65, -17.34 -4, -21.86 -7.84 M69.3 65.08 C69.3 65.08, 69.3 65.08, 69.3 65.08 M69.3 65.08 C69.3 65.08, 69.3 65.08, 69.3 65.08 M-1.88 3.4 C-8.68 -2.21, -11.15 -4.08, -19.34 -10.98 M-3.22 1.86 C-6.94 -1.77, -10.37 -4.11, -19.29 -11.22 M82.83 71.5 C49.36 42.62, 17.95 15.57, -15.51 -12.83 M82.53 71.97 C59.55 50.99, 37.34 32.63, -14.73 -13.29 M95.22 77.44 C68.94 53.65, 42.88 31.3, -13.77 -16.5 M94.71 77.54 C70.65 56.14, 45.6 34.37, -12.65 -16.11 M109.56 82.39 C75.43 53.6, 41.04 24.24, -9.51 -20.73 M108.39 82.49 C79.1 57.19, 49.3 32.12, -10.69 -20.81 M119.87 86.49 C77.82 51.39, 37.09 15.5, -6.06 -24.69 M118.56 86.2 C78.86 53.55, 40.84 20.52, -7.74 -22.47 M75.18 43.27 C47.87 19.87, 20.45 -3.02, -4.38 -26.47 M76.69 45.18 C50.24 21.74, 25.25 -0.08, -5.28 -26.38 M35.52 3.72 C20.87 -8.09, 6.74 -20.9, -3.3 -27.53 M35.04 3.36 C22.47 -7.12, 9.18 -17.79, -2.38 -29.28" stroke="#d74231" stroke-width="0.5" fill="none"></path><path d="M-1 -1.1 C21.4 21.33, 38.85 37.62, 68.52 67.7 M-0.69 0.17 C26.47 25.73, 52.35 50.7, 68.96 65.92 M69.09 66.84 C83.9 75.72, 102.59 80.43, 118.53 87.9 M67.86 66.72 C85.89 74.21, 104.45 84.03, 117.31 89.09 M117.28 88.48 C80.97 52.47, 45.3 17.25, 0.69 -30.47 M115.97 88.86 C76 49.09, 37.01 10.02, -1.1 -28.63 M-2.98 -27.82 C-41.2 7.24, -79.64 44.86, -118.84 88.46 M-1.66 -28.63 C-42.08 12.05, -85.5 54.39, -118.68 86.7 M-119.6 88.66 C-100.06 79.99, -83.14 73.31, -69.5 66.04 M-118.25 88.64 C-100.99 80.67, -85.48 73.44, -67.45 65.69 M-68.57 66.57 C-48.97 48.11, -25.74 26.93, -1.11 -0.88 M-68.43 65.49 C-50.43 47.46, -31.33 31.06, 0.42 -0.07 M0 0 C0 0, 0 0, 0 0 M0 0 C0 0, 0 0, 0 0" stroke="#d74231" stroke-width="1" fill="none"></path></g></g><mask></mask><g stroke-linecap="round"><g transform="translate(139.49832087833101 183.63792731926492) rotate(0 -0.33000521922849657 14.856442395026534)" fill-rule="evenodd"><path d="M-117.3 31.86 C-117.3 31.86, -117.3 31.86, -117.3 31.86 M-117.3 31.86 C-117.3 31.86, -117.3 31.86, -117.3 31.86 M-125.95 48.4 C-119.66 42.63, -115.67 36.2, -108.19 27.63 M-126.86 49.35 C-122 43.08, -117.89 37.26, -108.34 29.43 M-124.11 51.22 C-117.27 44.67, -113.98 38.55, -100.54 22.8 M-121.99 48.97 C-116.37 43.04, -111.83 36.67, -101.08 23.46 M-115.32 48.15 C-105.94 37.34, -97.3 28.27, -93.64 20.31 M-116.9 48.72 C-107.78 38.7, -98.78 29.44, -92.6 20.54 M-113.15 49.1 C-99.95 37.86, -88.85 25.45, -81.24 15.05 M-112.09 49.78 C-100.54 38.76, -90.66 26.12, -82.93 17.62 M-104.5 49.39 C-94.09 36.39, -82.34 20.03, -73.94 14.68 M-107.13 49.04 C-95.34 37.69, -85.28 25.2, -74.75 14.27 M-96.72 44.06 C-87.76 33.95, -76.28 23.06, -65.82 8.38 M-96.55 45.68 C-85.59 32, -72.66 17.93, -65.77 8.63 M-89.3 43.75 C-77.82 28.51, -68.45 15.89, -57.48 5.71 M-89.33 42.32 C-80.07 31.42, -71.15 22.73, -56.52 6.64 M-79.91 37.93 C-70.98 27.05, -58.39 11.34, -46.6 1.37 M-79.7 38.53 C-71.75 27.68, -62.89 18.7, -48.75 2.05 M-71.99 34.74 C-63.28 24.98, -57.15 17.68, -38.98 -1.9 M-72.55 33.99 C-64.58 27.22, -57.92 18.17, -41.24 -2.45 M-63.42 31.81 C-53.77 20.03, -41.29 6.76, -31.81 -3.86 M-62.82 29.53 C-55.48 22.97, -48.89 13.91, -32.81 -4.41 M-55.52 25.09 C-41.75 15.54, -34.72 3.66, -21.41 -7.64 M-54.35 27.29 C-46.98 17.82, -38.37 8.97, -22.87 -10.26 M-45.62 23.6 C-38.2 14.39, -29.45 0.5, -13.02 -14.69 M-45.17 21.75 C-38.76 14.38, -31.47 5.24, -15 -12.96 M-35.48 17.57 C-29.12 10.16, -22.38 2.72, -6.03 -17.23 M-35.76 19.1 C-26.99 7.29, -15.64 -5.01, -4.94 -16.19 M-27.13 16.94 C-19.52 3.51, -10.64 -6.98, 0.31 -20.67 M-27.62 14.1 C-15.54 1.96, -3.96 -11.81, 1.89 -19.45 M-20.71 11.98 C-13.15 4.07, -6.73 -1.28, 3.71 -17.8 M-18.9 9.89 C-10.25 1.13, -1.8 -8.43, 4.47 -17.98 M-12.87 7.29 C-3.31 -1.79, 2.14 -9.08, 10.23 -14.29 M-11.63 8.36 C-2.88 -1.17, 3.28 -10.48, 9.73 -15.03 M-0.68 -0.34 C2.9 -3.52, 5.17 -5.52, 13.9 -15.7 M0.6 1.17 C2.82 -3.55, 7.05 -6.34, 13.51 -14.56 M3.99 2.11 C9.46 -2.1, 13.53 -9.36, 17.15 -13.57 M3.75 2.42 C7.42 -2.48, 11.7 -6.6, 16.98 -11.91 M9.27 3.74 C11.43 1.97, 14.98 -1.9, 21.21 -12.83 M7.67 3.13 C10.36 0.11, 14.01 -3.62, 20.52 -11.08 M10.07 5.21 C15.17 2.98, 19.09 -3.96, 23.87 -10.19 M10.88 5.6 C16.38 -0.44, 21.06 -5.46, 23.57 -10.06 M16.99 7.82 C21.04 2.89, 25.61 -3.19, 29.67 -6.09 M15.3 7.55 C19.78 1.79, 23.55 -0.82, 28.08 -7.91 M20.1 9.53 C24.13 6.35, 26.44 -1.14, 31.68 -6.34 M19.05 8.42 C23.27 3.11, 29.22 -2.41, 32.16 -5.9 M24.57 10.92 C28.48 6.99, 33.81 -1.84, 33.68 -2.96 M22.9 10.51 C27.65 6.09, 32.79 0.78, 36.24 -3.03 M26.84 11.31 C32.15 8.2, 35.75 1.33, 38.73 -2.13 M26.95 13.51 C30.29 7.95, 35.38 3.66, 39.45 -1.79 M30.79 14.4 C35.54 7.79, 38.37 1.51, 44.42 -1.32 M29.81 13.88 C32.23 11.31, 36.22 7.98, 43.56 -0.26 M34.52 17.83 C40.22 11.07, 42.43 7.55, 47.78 1.36 M33.81 15.41 C37.79 10.74, 42.55 5.05, 46.94 1.41 M38.88 18.44 C42.33 12.09, 48.88 7.64, 51.66 3.05 M38.26 17.13 C41.83 13.47, 47.72 8.52, 51.76 3.39 M43.16 20.64 C45.67 16.4, 50.11 11.94, 54.47 6.01 M42.1 19.12 C46.31 14.28, 50.04 10.27, 54.06 5.34 M45.23 22.42 C47.86 15.94, 53.37 15.1, 56.67 6.02 M46.31 20.24 C48.44 16.5, 52.29 12.82, 57.28 6.73 M48.76 23.28 C50.73 19.92, 53.62 16.58, 61.06 10.29 M48.8 23.93 C54.51 17.27, 57.88 12.74, 61.11 8.84 M52.56 26.18 C56.45 20.27, 58.7 17.37, 67.95 11 M53.06 24.2 C58.06 19.97, 62.16 13.89, 65.46 9.29 M56.56 26.53 C61.35 20.96, 68.71 13.9, 68.41 13.5 M56.13 25.89 C60.33 23.1, 64.75 17.85, 70.22 10.99 M61.9 26.9 C63.13 23.41, 67.72 19.64, 74.39 13.74 M60.62 29.36 C65.49 22.73, 69.69 17.63, 72.52 12.79 M65.85 29.14 C70.2 25.31, 74.57 19.38, 76.41 15.66 M64.88 30.57 C69.18 24.55, 74.1 20.34, 76.63 14.6 M67.61 32 C72.5 26.89, 76.32 23.89, 82.14 15.42 M68.79 32.42 C72.68 27.25, 76.73 23.23, 81.78 17.53 M73.65 31.9 C74.05 28.43, 77.68 25.26, 85.26 19.64 M71.19 33.06 C75.59 29.42, 79.93 23.42, 85.14 18.46 M76.57 35.89 C79.89 31.02, 82.34 27.42, 86.85 19.48 M75.32 34.97 C80.76 29.98, 84.62 24.87, 88.5 20.48 M80.68 38.93 C83.37 32.04, 87.68 29.62, 92.34 23.02 M79.38 37.62 C84.34 31.16, 88.88 26.43, 91.8 22.78 M82.81 37.52 C88.28 33.15, 90.71 32.13, 95.83 24.65 M82.64 39.35 C89.01 32.83, 93.14 26.44, 95.76 24.55 M87.14 38.58 C91.1 38.52, 91.95 35.73, 99.39 26.3 M87.47 39.72 C92.18 35.5, 97.64 30.03, 100.26 26.45 M90.63 40.62 C92.75 37.59, 97.22 33.58, 104.8 25.91 M91.27 42.53 C93.63 38.28, 97.06 36.66, 103.18 27.02 M93.25 42.69 C98.97 42.21, 98.85 38.25, 106.95 30.64 M95.67 44.7 C98.38 38.99, 103.61 34.9, 107.23 29.47 M99.21 45.73 C103.57 41.01, 104.76 38.7, 111.04 31.16 M98.56 45.11 C102.2 41.73, 105.58 37.15, 111.65 31.48 M100.63 48.94 C105.33 43.22, 112.43 38.52, 114.36 34.01 M101.74 46.78 C108.01 42.08, 113.04 36.53, 115.2 32.02 M104.64 48.31 C109.13 42.03, 114.71 36.31, 117.29 34.65 M105.72 49.52 C110.34 44.38, 116.08 37.64, 118.68 33.65 M108.41 49.7 C114.66 47.66, 117.19 42.94, 122.95 36.02 M108.97 50.55 C111.46 48.17, 115.55 45.86, 121.03 36.83 M115.66 53.16 C116.06 48.25, 120.57 46.2, 125.77 39.14 M113.76 51.27 C118.04 48.62, 121 45.25, 124.8 40.47 M119.16 52.1 C122.61 48.89, 124.33 47.51, 126.47 43.68 M119.75 51.53 C121.57 49.39, 124.14 46.76, 126.62 43.62 M125.71 51.15 C126.41 50.02, 127 49.37, 128.09 47.61 M125.93 51.09 C126.17 50.58, 126.94 49.84, 128.36 47.9" stroke="#4375ef" stroke-width="0.5" fill="none"></path><path d="M-1.1 1.95 C36.45 18.64, 71.26 33.67, 105.57 51.05 M0.06 0.68 C35.99 16.5, 72.5 31.71, 106.43 49.84 M107.93 51.28 C111.39 51.19, 118.88 50.57, 128 49.12 M106.67 49.2 C112.18 49.98, 118.24 48.55, 128.31 50.09 M127.14 48.01 C125.7 45.57, 124.07 40.43, 119.48 33.95 M128.84 48.99 C124.9 45.33, 122.45 39.93, 119.64 35.78 M120.22 36.74 C77.47 13.38, 30.73 -3.77, 0.62 -20.32 M120.81 35.15 C73.1 12.66, 26.59 -8.97, 0.58 -19.46 M2.55 -21.57 C-38.32 -2.21, -75.61 14.72, -117.73 31.99 M1.47 -19.61 C-26.93 -8.77, -54.85 4.51, -117.64 31.27 M-117.19 30.78 C-121.91 35.91, -126.53 43.91, -127.82 47.58 M-117.27 31.75 C-119.5 36.45, -123.7 38.6, -129.5 48.75 M-128.32 47.15 C-123.34 47.72, -117.43 50.22, -107.64 49.13 M-129.36 47.71 C-125.93 47.97, -120.67 48.7, -106.75 48.84 M-109.5 50.12 C-69.14 31.83, -31.51 13.36, -0.87 2.71 M-108.37 48.34 C-71.04 31.32, -33.18 14.67, -2.18 1.72 M-1.31 1.05 C-1.02 0.61, -0.51 0.42, 0.07 0.13 M-1.36 0.97 C-0.86 0.59, -0.28 0.19, -0.06 -0.02" stroke="#4375ef" stroke-width="1" fill="none"></path></g></g><mask></mask><g stroke-linecap="round"><g transform="translate(203.3303764528505 214.42589212209145) rotate(0 -63.25305564247037 8.935709374241924)" fill-rule="evenodd"><path d="M-169.89 19.27 C-169.89 19.27, -169.89 19.27, -169.89 19.27 M-169.89 19.27 C-169.89 19.27, -169.89 19.27, -169.89 19.27 M-163.87 19.33 C-163.35 17.92, -162.2 16.25, -161.07 14.85 M-164.31 18.65 C-163.37 17.58, -162.2 16.48, -160.97 15.21 M-158.18 19.62 C-157.31 15.42, -154.44 13.22, -151.18 11.86 M-159.78 19.48 C-157.33 17.23, -155.89 15.53, -151.6 10.99 M-154.26 18.29 C-151.01 17.13, -147.27 12.07, -142.3 5.63 M-152.83 18.11 C-150.79 15.15, -148.44 12.67, -142.94 6.76 M-150.11 18.24 C-146.25 15.05, -140.36 8.85, -133.69 1.73 M-149.44 20.02 C-145.84 15.14, -141.57 11.42, -133.59 1.89 M-143.54 19.98 C-138.77 11.88, -134.14 6.78, -128.54 0.63 M-143.31 19.59 C-138.43 13.53, -134.84 8.32, -128.06 2.41 M-139.64 20.28 C-133.24 12.7, -127.82 6.32, -121.15 3.13 M-137.07 20.06 C-133.43 12.48, -126.65 7.04, -123.14 2.2 M-130.95 19.35 C-128.32 16.09, -126.94 9.44, -116.93 2.85 M-131.37 19.04 C-127.12 14.03, -122.83 7.52, -118.23 2.47 M-128.1 20.87 C-122.65 14.01, -116.22 8.4, -113.41 3.3 M-127.85 19.72 C-122.15 12.99, -118.05 8.99, -112.26 1.46 M-121.72 18.18 C-117.06 16.85, -116.24 12.37, -105.46 0.62 M-120.78 19.27 C-115.2 10.84, -109.9 5, -107.54 2.28 M-116.9 18.51 C-113.24 15, -107.45 10.68, -102.45 1.49 M-116.22 18.29 C-111.64 14.57, -108.12 9.14, -100.72 1.11 M-111.11 17.1 C-105.62 12.54, -101.91 5.57, -95.48 3.07 M-111.66 19.16 C-105.9 13.27, -102.3 9.26, -96.68 2.34 M-104.67 17.46 C-99.17 11.77, -95.97 6.02, -88.5 1.69 M-105.22 19.48 C-100.62 12.1, -94.62 4.78, -89.43 1.48 M-98.64 17.47 C-98.15 14.88, -93.92 12.44, -85.55 0.78 M-101.26 18.47 C-94.66 12.66, -88.4 5.37, -86.01 2.31 M-97.29 17.66 C-90.66 14.23, -86.71 8.4, -79.95 0.83 M-95.56 18.37 C-89.87 14.24, -85.11 7.62, -79.42 1.04 M-90.02 19.34 C-85.77 13.39, -78.75 9.34, -76.12 2.8 M-88.98 18.86 C-85.06 11.78, -79.18 7.89, -75.17 0.97 M-85.81 20.8 C-83.31 16.65, -76.39 9.47, -67.47 2.32 M-84.59 18.44 C-78.7 11.6, -74.14 6.44, -68.88 0.9 M-79.17 19.51 C-74.41 13.77, -67.46 4.58, -62.21 1.14 M-79.35 18.87 C-73.91 13.06, -69.21 6.11, -62.81 -0.24 M-72.55 20.28 C-69.27 14.77, -65.27 9.71, -56.58 1.05 M-73.28 18.56 C-69.86 13.77, -66.18 8.86, -58.8 0.81 M-70.27 17.47 C-65.9 14.07, -61.26 12.57, -54.02 -0.19 M-69.06 18.96 C-63.23 11.23, -57.16 5.23, -52.18 0.75 M-65 19.2 C-59.35 12.5, -52.63 6.58, -49.02 0.62 M-63.25 17.99 C-59.32 14.65, -53.99 8.55, -47.3 1.42 M-59.67 17.46 C-50.31 12.53, -45.42 2.43, -43 0.26 M-57.92 18.44 C-53.35 12.86, -49.04 7.31, -42.19 1.16 M-53.9 20.4 C-46.81 11.8, -43.65 6.85, -36.11 -1.41 M-53.78 19.37 C-48.23 13.36, -42.45 8.23, -36.01 0.5 M-45.97 18.42 C-40.51 11.72, -36.46 6.31, -30.47 -1.58 M-47.88 18.53 C-42.13 11.28, -35.58 5.69, -31.05 1.33 M-43.21 20.44 C-36.47 14.64, -33.76 7.65, -27.35 -0.51 M-42.75 19.75 C-37.11 12.23, -29.71 5.42, -25.64 0.98 M-35.98 20.01 C-30.74 11.59, -25.64 5.4, -20.98 1.92 M-36.05 19.35 C-31.88 12.4, -25.93 5.21, -20.64 1 M-32.09 19.58 C-27.02 13.46, -22.41 10.85, -16.47 0.35 M-31.72 19.56 C-25.69 12.19, -20.66 6.14, -15.1 -0.57 M-26.73 16.6 C-24.27 12.81, -19.86 9.07, -11.63 -0.61 M-25.66 18.9 C-20.04 12.27, -15.08 6.89, -8.78 -0.44 M-20.92 19.81 C-15.43 15.56, -12.77 6.74, -6.12 -0.38 M-20.87 19.62 C-16.76 14.83, -12.71 10.18, -5.07 0.04 M-15.46 19.31 C-9.85 10.35, -4.6 4.9, -1.38 2.17 M-15.11 18.07 C-10.51 11.68, -3.02 5.17, 0.42 0.8 M-9.33 18.85 C-6.01 12.59, 0.31 6.17, 4.91 0.77 M-10.03 18.14 C-4.51 12.94, -0.85 8.23, 3.65 1.18 M-5.65 17.94 C1.25 12.14, 6.88 4.5, 6.92 1.82 M-4.89 17.64 C-1.58 14.96, 2.01 10.48, 7.52 3.38 M1.71 19.97 C1.25 16.14, 4.34 14.43, 12.78 4.29 M0.32 17.83 C2.62 15.88, 4.97 13.58, 12.35 4.41 M6.73 18.86 C10.23 15.13, 12.21 9.97, 16.78 7.26 M5.44 19.05 C9.44 14.71, 12.62 10.53, 15.48 7.08 M12 18.73 C13.54 14.26, 16.6 10.12, 18.78 9.95 M10.37 18.48 C13.95 16.35, 16.42 12.19, 19.14 8.53 M16.57 19.14 C18.93 15.31, 21.38 13.72, 23.86 9.71 M16.05 18.45 C17.7 16.65, 20.23 14.19, 24.05 10.08 M21.57 19.09 C23.67 16.71, 26.13 14.27, 27.44 11.75 M21.07 18.56 C23.37 16.34, 25.59 13.74, 27.48 11.7 M26.51 18.28 C28.92 16.64, 30.05 15.61, 31.41 13.72 M27.17 18.16 C28.69 16.67, 30.4 14.44, 30.82 13.55 M32.21 18.8 C32.49 17.43, 33.22 16.53, 34.95 15.2 M31.9 18.4 C32.95 17.88, 33.74 16.91, 35.56 14.69 M37.56 18.32 C38.16 17.82, 38.62 17.04, 39.16 16.66 M37.67 18.18 C38.09 17.72, 38.61 17.37, 39.07 16.64 M42.72 18.58 C42.72 18.58, 42.72 18.58, 42.72 18.58 M42.72 18.58 C42.72 18.58, 42.72 18.58, 42.72 18.58 M-170.1 18.86 C-170.1 18.86, -170.1 18.86, -170.1 18.86 M-170.1 18.86 C-170.1 18.86, -170.1 18.86, -170.1 18.86 M-163.63 19.36 C-164.39 18.36, -164.92 17.89, -165.97 17.35 M-163.61 19.05 C-164.43 18.41, -165.44 17.54, -166.07 17.08 M-157.88 18.9 C-158.03 18.45, -159.86 17.35, -161.87 15.05 M-157.53 19.2 C-158.73 17.92, -160.9 16.27, -161.62 15.71 M-151.23 19.19 C-153.33 17.84, -153.44 17.42, -158.13 13.46 M-151.72 19.01 C-153.51 16.97, -155.97 15.09, -157.39 13.64 M-145.45 19.14 C-147.31 18.63, -149.14 15, -153.41 12.25 M-145.27 19.54 C-147.69 17.77, -150.43 15.5, -153.96 12.3 M-138.64 20.08 C-142.1 14.95, -147.64 11.08, -148.87 9.89 M-140.03 19.43 C-143.79 14.71, -148.29 11.26, -150.78 9.02 M-133.07 20.45 C-135.86 16.03, -139.48 13.5, -146.72 8.81 M-133.93 19.46 C-138.31 15.16, -142.3 10.77, -145.69 8.44 M-128.66 17.31 C-132.3 16.32, -135.91 10.72, -143.73 6.27 M-127.85 18.29 C-132.88 14.58, -136.66 10.99, -142.51 5.84 M-122.97 18.95 C-128.49 15.7, -135.38 7.03, -136.26 5.33 M-121.19 18.77 C-128.36 12.92, -134.77 8.84, -137.17 4.08 M-115.13 18.94 C-120.83 15.16, -130 7.77, -135.91 2.97 M-115.26 18.57 C-121.08 12.76, -129.1 7.14, -134.22 1.45 M-111.05 16.85 C-116.14 13.44, -120.51 7.92, -131.47 2.2 M-109.61 18.24 C-117.31 11.73, -124.31 5.76, -130.62 0.7 M-101.98 19.03 C-109.2 12.25, -115.47 7.87, -125.8 -0.82 M-101.77 18.79 C-111.71 12.06, -119.77 4.9, -128.45 -3.5 M-97.14 18.11 C-103.05 13.4, -112.48 5.34, -121.79 -0.76 M-97.4 19.49 C-102.13 12.89, -109.5 9.47, -121.54 -1.43 M-90.75 20.48 C-97.58 12.02, -104.36 6.98, -114.91 -2.02 M-90.17 18.49 C-95.88 14.11, -101.97 9.49, -115.71 -2.98 M-83.34 17.18 C-94.26 10.56, -105.73 1.02, -111.3 -3.45 M-84.74 18.01 C-90.61 13.86, -95.49 8.54, -109.63 -3.07 M-76.87 19.36 C-86.96 10.81, -97.01 2.91, -104.23 -2.7 M-78.6 18.96 C-85.01 13.64, -89.39 9.75, -102.95 -1.91 M-71.21 17.86 C-82.97 8.79, -93.86 -0.22, -97.56 -4.05 M-72.25 18.8 C-80.04 12.17, -88.74 4.35, -98.52 -3.52 M-67.03 19.42 C-74.51 14.06, -78.17 7.7, -91.65 -1.6 M-66.86 18.88 C-72.73 13.24, -80.54 7.39, -91.97 -2.74 M-58.78 20.74 C-68.05 12.89, -77.79 4.31, -86.58 -2.35 M-60.91 18.81 C-66.99 12.87, -75.27 5.31, -85.7 -3.07 M-53.11 18.16 C-61.3 11.87, -68.14 6.33, -79.3 -4.75 M-55.38 19.31 C-61.07 13.94, -66.28 9.35, -79.71 -3.01 M-50.05 17.06 C-58.24 11.08, -69.59 2.1, -74.85 -1.76 M-48.61 19.83 C-58.34 9.8, -68.32 2.69, -73.56 -3.92 M-42.22 16.79 C-52.7 11.31, -59.94 4.67, -68.27 -4.1 M-42.24 18.73 C-49.88 10.91, -58.01 4.51, -68.01 -3.02 M-35.98 20.14 C-46.3 8.83, -56.65 3.19, -60.06 -3.99 M-36.11 18.91 C-41.69 13.65, -46.96 10.12, -61.14 -3.93 M-29.92 18.89 C-34.99 14.21, -43.53 9.2, -57.61 -4.94 M-29.4 18.64 C-35.92 14.99, -40.37 9.81, -55.58 -4.24 M-23.76 20.02 C-29.32 13.22, -35.2 9.25, -51.13 -3 M-23.32 17.94 C-31.87 11.78, -40.37 5.35, -49.1 -3.53 M-17.28 17.8 C-28.43 12.09, -36.49 2.12, -42.86 -3.79 M-16.72 17.97 C-25.37 12.08, -34.58 3.97, -43.55 -4.19 M-10.8 17.45 C-22.21 12.51, -27.5 2.39, -38.21 -3.07 M-12.3 18.77 C-21.83 8.85, -31.96 1.24, -36.75 -4.77 M-4.3 18.53 C-14.47 9.28, -22.94 1, -31.01 -3.8 M-6.46 18.01 C-13.03 11.93, -19.85 6.23, -31.41 -4.85 M1.29 17.91 C-12.46 8.21, -20.6 1.54, -27.41 -5.38 M-0.25 18.08 C-7.19 11.36, -16.4 5.58, -25.79 -4.98 M5.03 17.18 C1.43 12.71, -7.34 8.69, -19.29 -5.4 M6.76 18.78 C-1.13 12.02, -8.94 4.66, -20.82 -4.32 M13.43 18.25 C4.26 10.27, -8.19 2.32, -15.78 -3.45 M12.27 19.13 C2.82 9.85, -5.64 3.11, -14.31 -5.12 M17.53 19.53 C9.39 9.67, -1.73 0.54, -9.12 -4.31 M17.65 18.71 C9.15 9.95, -2.21 0.88, -8.56 -3.8 M24.03 18.06 C18.05 12.86, 6.61 3.69, 1.89 -1.76 M25.27 18.09 C18.22 13.51, 11.22 7.6, 1.47 -1.44 M28.76 19.12 C26.45 13.96, 18.65 10.76, 12.9 2.35 M31.31 17.6 C24.92 12.75, 19.81 9.6, 13.5 3.28 M35.89 17.87 C34.05 15.14, 29.76 12.76, 26.72 9.86 M36.88 18.89 C32.61 14.75, 28.7 12.35, 26.06 9.31 M42.01 18.52 C42.08 16.76, 40.13 15.93, 37.09 13.4 M42.38 17.98 C41.14 16.89, 39.95 15.69, 37.23 13.46" stroke="#4b9e4e" stroke-width="0.5" fill="none"></path><path d="M-1.23 0.3 C15.03 5.62, 34.14 13.37, 41.45 20.04 M0.98 0.7 C9.35 4.59, 19.9 9.43, 44 17.68 M43.06 20.08 C-6.49 17.43, -53.65 18.68, -170.13 18.85 M43.81 18.61 C-21.6 18.18, -84.51 17.29, -170.32 19.44 M-169.79 17.84 C-159.27 14.07, -148.48 10.35, -130.5 -1.11 M-170.51 19.41 C-158.48 14.19, -147.89 8.38, -130.39 -0.17 M-130.71 -0.86 C-97.36 -1.46, -67.44 -2.32, 1.74 -0.47 M-129.55 0.58 C-101.48 -0.77, -71.4 -1.2, 0.27 -2.21 M0.61 -2.09 C0.33 -1.66, 0.34 -1.12, -0.19 -0.08 M0.59 -1.85 C0.41 -1.32, 0.15 -0.79, 0.02 0.07" stroke="#4b9e4e" stroke-width="1" fill="none"></path></g></g><mask></mask></svg>