<svg version="1.1" xmlns="http://www.w3.org/2000/svg" viewBox="0 0 268.7235117343912 271.3623594469584" width="268.7235117343912" height="271.3623594469584">
  <!-- svg-source:excalidraw -->
  
  <defs>
    <style class="style-fonts">
      @font-face {
        font-family: "Virgil";
        src: url("https://excalidraw.com/Virgil.woff2");
      }
      @font-face {
        font-family: "Cascadia";
        src: url("https://excalidraw.com/Cascadia.woff2");
      }
    </style>
  </defs>
  <g stroke-linecap="round"><g transform="translate(185.88987803095142 213.51995652406436) rotate(0 -63.11818810322825 -91.71775033261054)" fill-rule="evenodd"><path d="M-153.66 -158.75 C-153.66 -158.75, -153.66 -158.75, -153.66 -158.75 M-153.66 -158.75 C-153.66 -158.75, -153.66 -158.75, -153.66 -158.75 M-160.14 -145.29 C-147.82 -155.71, -138.18 -167.59, -135.62 -173.73 M-159.61 -146.46 C-153.26 -153.3, -146.17 -159.81, -134.75 -174.02 M-163.38 -134.43 C-148.39 -153.38, -134.78 -171.21, -123.64 -180.02 M-162.93 -136.12 C-150.17 -151.55, -137.28 -166.58, -124.23 -180.3 M-170.06 -121.39 C-159.9 -135.98, -145.18 -149.27, -115.74 -185.49 M-170.43 -121.62 C-152.47 -140.08, -135.49 -161.69, -114.51 -186.5 M-171.29 -114.05 C-155.9 -134.05, -135.55 -154.03, -103.29 -192.32 M-172.25 -111.9 C-147.15 -143.45, -118.75 -175.9, -105.6 -189.88 M-174.31 -105.47 C-156.3 -125.25, -140.99 -142.62, -96 -194.48 M-173.27 -105.22 C-150.24 -131.6, -125.25 -159.6, -96.97 -194.72 M-173.9 -99.8 C-143.55 -130.95, -118.98 -162.15, -88.38 -198.13 M-174.31 -98.92 C-154.25 -121.42, -136.02 -141.5, -88.77 -197.39 M-176.13 -90.59 C-146.98 -126.02, -119.78 -157.94, -81.61 -198.32 M-174.55 -92.38 C-142.93 -126.23, -114.78 -160.01, -81.32 -198.94 M-173.62 -85.11 C-158.42 -102.54, -143.85 -121.05, -126.59 -140.07 M-174.54 -87.21 C-161.44 -101.81, -146.43 -116.28, -128.99 -138.86 M-114.69 -156.71 C-101.7 -171.54, -84.2 -190.14, -75.65 -201.54 M-114.05 -154.37 C-100.69 -170.95, -84.33 -188.94, -73.52 -202.13 M-174.18 -80.16 C-161.36 -95.76, -147 -110.15, -136.83 -120.2 M-174.62 -79.31 C-165.69 -91.96, -155.96 -102.9, -139.12 -122.1 M-103.55 -159.55 C-96.84 -167.5, -88 -179.3, -70.77 -199.69 M-104.36 -160.62 C-93.34 -172.08, -84.22 -183.39, -69.01 -201.15 M-173.47 -76.85 C-165.56 -84.44, -158.01 -91.58, -139.99 -113.54 M-174.3 -74.38 C-164.05 -87.19, -153.81 -99.2, -141.45 -111.2 M-98.39 -161.64 C-86.38 -178.09, -73.46 -193.73, -64.85 -200.51 M-95.61 -162.67 C-88.05 -172.67, -79.89 -183.56, -63.41 -200.84 M-172.62 -69.03 C-165.22 -79.24, -154.09 -90.31, -146.13 -101.62 M-171.48 -69.3 C-162.51 -82.68, -152.11 -93.89, -145.86 -101.1 M-90.78 -166.99 C-77.66 -178.33, -69.6 -190.92, -58.63 -199.75 M-88.25 -165.87 C-79.97 -177.17, -69.32 -187.2, -59.1 -200.88 M-169.64 -65.31 C-163.25 -76.85, -152.36 -86.74, -145.44 -95.38 M-170.93 -64.55 C-164.05 -74.46, -157.44 -81.41, -145.75 -93.46 M-82.78 -167.86 C-73.3 -181.25, -64.79 -190.64, -55.72 -197.92 M-80.63 -169.14 C-75.55 -174.81, -68.73 -183.12, -54.26 -199.57 M-170.13 -62.34 C-162.2 -68.84, -157.65 -76.88, -145.21 -87.2 M-169.84 -60.52 C-164.5 -68.23, -156.94 -75.33, -146.09 -89.73 M-77.6 -166.51 C-67.05 -177.31, -60.86 -186.37, -49.31 -197.59 M-76.7 -167.74 C-67.08 -180.84, -56.53 -192.63, -50.58 -198.08 M-167.87 -55.8 C-163.3 -63.37, -156.14 -68.19, -143.25 -82.28 M-167.56 -55.39 C-163.52 -60.82, -159.04 -67.66, -145.77 -83.49 M-69.15 -171.06 C-60.93 -177.77, -53.63 -191.18, -43.48 -198.11 M-70.48 -170.11 C-60.5 -179.99, -51.3 -190.29, -43.55 -200.16 M-166.23 -51.66 C-161.1 -62.27, -150.92 -69.18, -145.34 -77.84 M-165.94 -51.52 C-161.65 -57.24, -157.7 -64.7, -144.05 -78.68 M-63.78 -171.83 C-59.75 -178.3, -51.09 -183.88, -39.12 -196.56 M-62.9 -171.25 C-57.92 -178.8, -50.62 -186.14, -39.39 -198.18 M-164.78 -46.92 C-162.07 -53.09, -153.47 -60.55, -142.46 -73.4 M-164.94 -49.08 C-158.67 -55.3, -151.93 -63.38, -142.83 -72.86 M-57.71 -168.72 C-53.04 -175.84, -50.64 -181.73, -37.43 -198.38 M-60.16 -169 C-51.45 -178.65, -42.83 -188.4, -35.57 -196.63 M-162.62 -42.59 C-157.83 -49.71, -149.3 -58.86, -141.46 -68.01 M-162.99 -44.11 C-158.01 -51.14, -152.51 -56.16, -142.33 -69.45 M-53.81 -171.14 C-45.56 -178.78, -39.5 -185.98, -29.8 -193.73 M-53.54 -169.1 C-49.8 -175.28, -43.7 -181.07, -31.64 -195.6 M-161.12 -40.98 C-156.67 -46.66, -146.26 -53.7, -139.07 -66.22 M-160.68 -40.78 C-154.21 -46.63, -148.41 -55.7, -140.03 -64.71 M-51.44 -167.04 C-45.7 -174.51, -41.9 -178.3, -27.15 -192.84 M-50.22 -169.15 C-42.18 -175.95, -35.16 -184.19, -27.64 -195.04 M-161.82 -35.69 C-155.04 -44.78, -146.18 -51.67, -138.6 -61.65 M-159.74 -36.34 C-153.27 -43.94, -146.33 -51.37, -138.42 -60.27 M-44.5 -169.41 C-40.86 -173, -34.6 -179.68, -23.29 -194.44 M-44.36 -168.07 C-39.23 -174.53, -33.31 -181.57, -24.4 -192.26 M-156.51 -29.58 C-152.99 -38.03, -146.55 -44.57, -135.89 -58.94 M-158.03 -32.17 C-153.59 -37.91, -146.78 -44.13, -135.96 -58.13 M-40.81 -168.75 C-31.87 -172.93, -26.03 -184.24, -18.94 -190.06 M-39.43 -167.68 C-36.63 -172.88, -32.48 -177.18, -20.58 -191.19 M-156.52 -29.56 C-149.01 -34.41, -142.03 -43.83, -136 -52.73 M-155.89 -27.52 C-150.21 -34.68, -144.96 -40.68, -134.72 -52.63 M-34.7 -164.59 C-30.6 -171.64, -26.83 -177.22, -17.7 -187.77 M-35.89 -165.13 C-30.52 -171.16, -26.83 -175.84, -15.64 -189.11 M-152.73 -26.3 C-147.28 -29, -144.84 -35.09, -130.55 -51 M-153.14 -24.2 C-147.37 -31.69, -140.2 -39.93, -132.81 -48.74 M-32.46 -164.28 C-26.33 -173.46, -18.66 -178.42, -11.37 -186.89 M-31.51 -164.71 C-27.51 -168.57, -24.06 -173.55, -12.19 -186.4 M-151.57 -22.52 C-144.43 -27.38, -137.9 -33.8, -129.03 -46.95 M-152.05 -21.94 C-145.77 -27.14, -141.14 -31.82, -130.57 -45.01 M-30.18 -164.4 C-19.89 -168.63, -17.07 -178.32, -9.33 -184.8 M-28.34 -162.28 C-22.47 -167.99, -18.04 -174.94, -8.29 -186.32 M-150.36 -17.46 C-142.45 -21.86, -138.15 -27.8, -128.83 -41.6 M-149.71 -17.78 C-141.35 -24.55, -134.32 -34.66, -129.69 -41.14 M-22.57 -162.86 C-18.75 -170.42, -11.01 -176.07, -3.13 -183.9 M-24.43 -162.36 C-17.72 -170.15, -9.87 -176.32, -5.15 -184.97 M-147.99 -12.66 C-143.92 -18.59, -137.02 -25.88, -128.59 -38.5 M-145.72 -14.91 C-140.13 -22.56, -132.76 -31.46, -127.54 -37.66 M-22.16 -158.8 C-16.91 -163.01, -13.79 -167.15, -1.25 -181.36 M-20.11 -159.02 C-12.66 -167.99, -5.59 -176.04, -0.79 -182.06 M-144.88 -11.17 C-136.2 -20.34, -131.05 -25.23, -122.79 -36.48 M-143.1 -12.85 C-139.91 -15.79, -134.38 -21.13, -122.72 -33.73 M-16.76 -155.93 C-9.7 -166.96, -2.17 -175.55, 0.96 -179.16 M-16.39 -158.23 C-12.03 -161.55, -9 -166.97, 2.94 -179.93 M-140.32 -8.82 C-134.15 -15.08, -127.01 -24.68, -121.79 -29.87 M-140.7 -9.74 C-134.65 -14.91, -129.88 -22.99, -122.15 -30.33 M-14.69 -156.73 C-8.59 -163.75, 0.46 -168.43, 7.91 -178.29 M-13.2 -155.07 C-9.7 -159.9, -4.79 -164.99, 6.09 -176.77 M-135.86 -6.73 C-128.53 -13.45, -123.17 -22.91, -118.53 -30.33 M-137.5 -5.83 C-132.29 -12.96, -128.61 -18.08, -118.79 -29.1 M-11.52 -152.21 C-5.45 -159.11, -0.2 -164.9, 8.51 -175.77 M-9.17 -152.45 C-5.82 -158.34, -0.23 -164.03, 10.22 -176.61 M-133.24 -5.31 C-129.71 -10, -124.24 -14.83, -115.82 -26.75 M-133.65 -4.47 C-126.66 -11.85, -120.65 -19.09, -115.81 -25.25 M-8.68 -150.65 C-1.65 -157.91, 5.46 -164.37, 12.08 -172.41 M-7.19 -150.93 C-1.92 -156.97, 5.33 -164.8, 11.42 -172.11 M-131.76 -2.99 C-122.95 -9.87, -118 -15.04, -111.03 -21.34 M-130.74 -1.89 C-124.1 -9.04, -119.17 -14.3, -112.45 -22.62 M-2.17 -149.65 C2.67 -155.9, 7.22 -163.46, 15.03 -168.05 M-4.17 -149.64 C4.22 -155.68, 9.74 -165.15, 15.95 -170.79 M-128.93 0.77 C-123.49 -5.22, -115.67 -10.49, -110.1 -19.1 M-127.51 0.84 C-122.39 -5.66, -116.8 -10.83, -108.87 -20.16 M-1.87 -148.04 C5.28 -151.05, 9.54 -158.06, 16.94 -168.82 M-1.26 -145.34 C3.42 -150.37, 7.26 -156.29, 17.28 -167.27 M-125.83 2.22 C-117.38 -6.58, -109.28 -13.51, -104.8 -18.51 M-124.2 1.53 C-120.22 -3.87, -115.66 -7.68, -106.53 -19.67 M2.49 -144.45 C7.08 -152.25, 14.24 -157.64, 21.81 -164.85 M1.02 -141.9 C6.4 -149, 12.07 -152.96, 20.4 -164.04 M-121.75 4.59 C-112.55 -4.13, -105.68 -9.95, -102.17 -14.37 M-120.15 3.14 C-116.02 0.39, -112.64 -4.74, -102.54 -15.55 M2.55 -138.57 C7.21 -144.7, 14.29 -147.45, 22.76 -162.83 M5.2 -138.54 C8.34 -144.78, 12.72 -149.47, 23.52 -160.93 M-118.18 5.83 C-112.45 1.85, -106.93 -4.87, -99.8 -14.76 M-116.86 6.51 C-111.95 -0.03, -105.68 -6.1, -98.03 -14.84 M8.14 -135.58 C12.96 -140.05, 17.33 -147.99, 26.01 -158.22 M6.51 -135.35 C10.29 -140.26, 14.93 -145.82, 25.01 -158.4 M-114.88 10.34 C-110.13 2, -105.28 0.09, -94.45 -11.53 M-112.98 9.13 C-107.33 1.29, -100.65 -6.75, -93.7 -12.67 M10.47 -133.73 C19 -142.1, 23.12 -151.12, 26.92 -155.03 M9.17 -133.77 C13.85 -139.11, 20.12 -145.7, 28.43 -154.26 M-112.42 12.25 C-105.9 6.46, -102.32 1.08, -88.83 -10.56 M-109.94 11.38 C-104.22 3.85, -96.48 -4.68, -89.6 -11.52 M12.3 -129.75 C17.95 -136.97, 25.58 -142.85, 28.6 -152.53 M11.5 -129.1 C15.89 -132.88, 21.13 -138.85, 30.23 -151.43 M-104.35 10.66 C-101.4 3.58, -92.86 -3.88, -87.49 -11.02 M-107.04 12.75 C-100.53 6.75, -95.67 -0.29, -86.05 -9.49 M14.38 -122.7 C19.74 -131.88, 26.14 -137.5, 31.97 -147.26 M13.43 -125.26 C17.48 -130.21, 24.76 -138.34, 32.68 -146.94 M-102.34 15.9 C-98.02 6.28, -90.04 -0.69, -81.55 -9.36 M-101.62 13.19 C-94.44 5.34, -88.42 -3.51, -81.41 -9.3 M12.99 -122.15 C18.04 -125.57, 26.17 -132.73, 33.71 -143.08 M14.96 -120.03 C20.29 -127.48, 24.66 -132.54, 34.95 -144.93 M-99.02 15.23 C-94.69 8.86, -88.2 0.91, -78.7 -8.82 M-98.93 15.71 C-93.86 9.58, -87.98 3.78, -76.97 -8.77 M17.83 -114.7 C20.17 -121.08, 25.02 -127.05, 35.64 -140.35 M15.11 -116.52 C23.11 -124.78, 30.54 -131.22, 37.39 -140.9 M-95.2 16.93 C-89.36 9.79, -80.62 3.11, -73.12 -9.38 M-94.28 15.52 C-88.96 10.16, -83.11 3.47, -71.97 -7.82 M16.73 -112.5 C22.87 -119.22, 30.81 -128.09, 36.68 -136.22 M17.59 -110.74 C23.81 -118.65, 30.89 -127.48, 38.51 -136.95 M-91.24 17.22 C-83.05 9.83, -77.58 5.1, -67.62 -6.36 M-89.5 17.94 C-83.8 9.83, -75.78 2.07, -68.67 -8 M19.62 -105.44 C24.58 -112.74, 29.14 -118.17, 41.5 -133.13 M17.81 -106.78 C26.65 -115.85, 33.7 -124.54, 40.72 -133.32 M-85.76 19.03 C-78.39 13.32, -75.47 5.47, -63.52 -7.83 M-84.55 18.2 C-80.35 14.37, -76.36 8.01, -61.3 -6.94 M18.54 -101 C25.29 -109.78, 34.63 -120.3, 44.62 -126.53 M19.86 -101.6 C25.08 -106.7, 30.37 -114.4, 43.29 -129.06 M-82.19 18.79 C-77.14 15.2, -71.98 7.75, -58.02 -9.38 M-81.18 21.16 C-73.21 10.33, -63.99 0.67, -56.36 -8.16 M17.67 -94.13 C25.77 -103.64, 34.96 -113.35, 44.28 -123.43 M19.54 -96.02 C25.27 -102.13, 32.53 -108.84, 45.31 -123.62 M-75.62 20.62 C-68.54 10.75, -56.43 -0.22, -52.23 -10.41 M-76.67 20.55 C-70.69 14.19, -66.9 8.01, -49.69 -10.27 M20.62 -90.85 C28.66 -99.05, 34.13 -106.57, 45.21 -120.59 M18.67 -89.22 C24.85 -95.11, 30.45 -103.17, 45.44 -120.04 M-72.6 21.11 C-62.44 9.17, -50.53 0.19, -44.44 -8.32 M-70.69 20.78 C-65.24 13.38, -58.27 6.01, -44.76 -10.25 M21.1 -82.96 C27.94 -91.3, 32.95 -101.61, 47.87 -114.33 M18.72 -84.49 C26.1 -89.41, 31.39 -96.69, 46.16 -115.73 M-67.94 21.34 C-58.48 12.97, -49.25 -0.44, -41.51 -7.55 M-65.13 19.88 C-58.39 13.45, -52.2 5.4, -40.98 -9.41 M20.97 -77.52 C28.13 -86.53, 37.77 -97.99, 49.9 -109.23 M19.93 -77.73 C29.39 -89.61, 41.47 -102.99, 48.19 -110.2 M-62.63 21.35 C-49.61 6.05, -38.77 -5.4, -30.3 -13.14 M-60.95 21.03 C-49.38 6.88, -37.01 -5.63, -30.22 -14.01 M22.15 -73.66 C24.9 -78.82, 31.58 -87.2, 48.02 -104.65 M20.15 -73.19 C26.8 -78.33, 32.7 -86.45, 49.4 -104.58 M-57.27 20.88 C-40.37 5.38, -28.26 -11.21, -20.72 -21.06 M-54.64 20.28 C-46.49 10.3, -36.34 0.41, -18.82 -20.57 M18.14 -64.46 C26.16 -73.08, 35.45 -84.26, 48.03 -100.77 M17.39 -62.47 C24.12 -71.21, 31.93 -78.83, 49.87 -100.59 M-50.63 18.67 C-34.8 4.34, -17.75 -16.17, -11.89 -25.33 M-49.81 20.84 C-38.06 6.98, -26.95 -5.02, -10.73 -23.96 M3.25 -38.78 C17.62 -56.7, 29.81 -74.21, 50.27 -95.25 M2.07 -39.22 C13.97 -53.21, 26.37 -67.59, 50.21 -94.34 M-43.06 19.41 C-32.66 7.25, -26.12 -2.98, -3.59 -28.03 M-43.53 19.06 C-35.22 8.95, -25.1 -1.76, -2.01 -28.49 M0.01 -30.77 C17.43 -50.99, 36.73 -72.32, 49.43 -88.05 M1.38 -31.72 C12.53 -45.34, 25.25 -59.81, 48.55 -86.01 M-38.47 19.75 C-27.22 9.08, -20 -0.2, 1.28 -26.49 M-37.37 19.42 C-24.43 3.65, -12.05 -11.56, 1.77 -26 M2.38 -27.32 C16.09 -42.75, 28.25 -57.95, 46.7 -81.18 M1.53 -27.34 C11.65 -37.89, 21.8 -49.96, 47.54 -80.68 M-31.62 15.82 C-20.5 4.97, -8.31 -8.87, 3.15 -22.13 M-31.7 17.04 C-20.28 5.7, -12.45 -3.88, 4.92 -23.76 M4.86 -25.44 C11.86 -33.71, 20.03 -42.02, 47.06 -71.4 M5.87 -24.86 C14.78 -35.42, 25.77 -48.01, 46.71 -72.01 M-23.5 14.75 C-14.56 5.03, -3.75 -6.88, 7.29 -20.11 M-25.99 16.21 C-13.54 3.92, -2.82 -10.76, 6.18 -19.12 M6.83 -21.89 C19.12 -32.47, 27.6 -42.78, 42.55 -62.78 M8.15 -21.2 C21.1 -35, 33.07 -50.02, 44.75 -63.78 M-12.74 8.54 C-8.78 2.48, -0.77 -4.66, 11.06 -17.38 M-13.33 9.28 C-6.43 1.35, -0.09 -6.91, 8.95 -16.55 M11.02 -21.01 C25.23 -35.01, 33.96 -46.45, 41.06 -54.15 M12.11 -20.12 C23.44 -33.46, 34.31 -46.3, 41.24 -54.39 M-2.69 4.28 C2.28 -4.04, 9.95 -11.96, 11.29 -13.68 M-4.4 3.84 C1.9 -3.58, 8.38 -9.49, 13.7 -15.62 M13.67 -15.65 C22.21 -23.47, 28.74 -30.6, 40.16 -50.15 M14.55 -16.24 C22.79 -26.77, 29.96 -36.81, 41.56 -48.85 M4.36 4 C7 -1.85, 13.45 -7.14, 14.27 -13.5 M3.24 1.62 C5.89 -1.49, 11.44 -7.19, 16.92 -11.99 M17.07 -12.69 C21.73 -19.33, 24.08 -22.08, 34.76 -34.62 M16.89 -13.57 C20.12 -17.65, 24.69 -22.42, 35.46 -35.2" stroke="#6791ee" stroke-width="0.5" fill="none"></path><path d="M-0.63 0.3 C-6.86 3.55, -21.83 16.79, -38.2 19.06 C-54.57 21.33, -80.1 19.91, -98.84 13.94 C-117.58 7.96, -138.41 -2.93, -150.66 -16.8 C-162.91 -30.67, -168.46 -53.79, -172.35 -69.29 C-176.24 -84.79, -177.12 -94.91, -174 -109.79 C-170.87 -124.67, -163.28 -145.26, -153.6 -158.54 C-143.92 -171.83, -131.24 -182.07, -115.91 -189.51 C-100.59 -196.95, -82.64 -205.35, -61.67 -203.17 C-40.7 -200.99, -7.83 -189.97, 9.91 -176.43 C27.65 -162.89, 38.36 -137.96, 44.8 -121.95 C51.23 -105.93, 49.88 -93.7, 48.52 -80.33 C47.17 -66.96, 40.05 -50.93, 36.68 -41.74 C33.31 -32.54, 31.61 -30.23, 28.29 -25.14 C24.97 -20.06, 21.87 -9.79, 16.76 -11.23 C11.64 -12.66, -2.12 -25.61, -2.39 -33.74 C-2.66 -41.87, 11.58 -50.67, 15.15 -60.01 C18.72 -69.36, 20.43 -77.19, 19.04 -89.79 C17.64 -102.38, 13.58 -123.5, 6.77 -135.59 C-0.04 -147.67, -9.81 -156.43, -21.83 -162.3 C-33.85 -168.16, -50.07 -171.94, -65.35 -170.8 C-80.64 -169.67, -101.06 -163.54, -113.54 -155.49 C-126.02 -147.44, -134.68 -135.26, -140.26 -122.5 C-145.83 -109.74, -150.02 -94.28, -146.99 -78.93 C-143.97 -63.57, -132.81 -41.88, -122.12 -30.37 C-111.43 -18.86, -96.18 -12.99, -82.83 -9.86 C-69.49 -6.73, -55.21 -8.58, -42.05 -11.6 C-28.88 -14.63, -13.71 -28.02, -3.84 -28 C6.04 -27.98, 16.66 -16.3, 17.21 -11.48 C17.75 -6.66, 2.19 -1.18, -0.55 0.92 M1.24 -0.59 C-5.04 2.35, -22.15 14.72, -39 17.26 C-55.85 19.81, -81.21 20.68, -99.85 14.68 C-118.49 8.68, -138.56 -4.83, -150.85 -18.73 C-163.14 -32.62, -169.97 -53.33, -173.57 -68.69 C-177.18 -84.04, -175.9 -95.68, -172.47 -110.84 C-169.05 -126.01, -162.23 -147.02, -153.01 -159.68 C-143.8 -172.34, -132.73 -179.9, -117.19 -186.81 C-101.65 -193.72, -81.14 -202.73, -59.78 -201.15 C-38.42 -199.58, -6.56 -190.67, 10.98 -177.34 C28.52 -164, 39.33 -137.3, 45.44 -121.14 C51.54 -104.97, 49.04 -93.51, 47.6 -80.36 C46.16 -67.21, 40.07 -51.46, 36.79 -42.23 C33.52 -33.01, 31.21 -30.19, 27.96 -25.02 C24.71 -19.85, 22.25 -9.87, 17.27 -11.22 C12.3 -12.57, -1.34 -25.08, -1.9 -33.1 C-2.45 -41.12, 10.71 -49.94, 13.96 -59.33 C17.2 -68.72, 19.01 -76.75, 17.58 -89.45 C16.14 -102.14, 12.36 -123.63, 5.35 -135.5 C-1.67 -147.36, -12.57 -154.62, -24.51 -160.62 C-36.46 -166.62, -51.61 -172.17, -66.32 -171.52 C-81.02 -170.87, -100.38 -164.77, -112.73 -156.7 C-125.07 -148.63, -134.9 -135.96, -140.39 -123.12 C-145.88 -110.28, -148.91 -95.18, -145.66 -79.64 C-142.4 -64.1, -130.97 -41.5, -120.86 -29.89 C-110.74 -18.27, -98.33 -12.82, -84.95 -9.92 C-71.56 -7.03, -53.78 -9.31, -40.54 -12.51 C-27.3 -15.72, -15.21 -29.58, -5.49 -29.14 C4.22 -28.69, 16.68 -14.7, 17.74 -9.84 C18.79 -4.97, 3.66 -1.56, 0.82 0.06" stroke="#6791ee" stroke-width="1" fill="none"></path></g></g><mask></mask><g stroke-linecap="round"><g transform="translate(70.22751732011398 122.08011431635828) rotate(0 10.262534791017515 24.957135652972966)" fill-rule="evenodd"><path d="M0 0 C0 0, 0 0, 0 0 M0 0 C0 0, 0 0, 0 0 M-0.41 5.72 C2.21 3.56, 2.81 2.35, 6.13 -0.07 M0.08 6.07 C0.87 4.54, 2.98 2.79, 5.83 -0.05 M-0.35 12.55 C4.75 7.4, 8.41 4.69, 12.45 -1.51 M0.24 12.81 C2.56 9.34, 5.16 6.77, 11.35 -0.44 M0.6 16.8 C6.71 11.31, 11.71 2.59, 15.18 -2.31 M-0.52 17.68 C4.23 13.57, 9.26 8.64, 17.02 -1.51 M1.76 25.87 C4.72 17.37, 10.19 10.61, 22.36 -1.63 M0.71 23.64 C6.04 18.7, 12.01 11.16, 21.63 -0.21 M-0.41 30.36 C7.53 22.22, 12.74 18.88, 23.16 1.7 M0.12 30.11 C7.38 23.22, 12.44 15.74, 24.45 3.4 M4.95 32.67 C9.39 29.58, 10.21 22.31, 23.42 9.81 M2.91 33.12 C10.99 24.6, 18.73 14.02, 24.23 8.47 M7.34 34.6 C11.69 30.3, 15.98 23.73, 22.56 15.22 M4.88 37.26 C10.94 31.44, 16.17 24.05, 24.16 14.2 M8.41 42.12 C12.91 32.73, 19.23 26.68, 23.17 22.94 M8.07 39.65 C14.2 32.89, 19.61 24.71, 24.71 20.25 M8.7 45.41 C14.96 36.58, 22.49 32.64, 23.86 28.55 M8.79 44.36 C14.92 38.83, 19.96 32.77, 24.69 28.04 M12 46.34 C16.48 41.84, 21.04 40.03, 22.24 34.18 M12.15 47.03 C15.65 41.94, 20.82 37.23, 23.34 33.17 M14.8 50.59 C16.18 46.38, 18.72 45.7, 22.7 39.79 M14.82 49.98 C16.5 48.2, 18.69 45.78, 22.86 39.55 M19.24 51.71 C19.9 48.74, 22.43 47.85, 23.47 45.78 M18.76 51.51 C19.22 50.93, 21.04 49.6, 23.61 46.15" stroke="#aac3f5" stroke-width="0.5" fill="none"></path><path d="M-0.56 -0.67 C-0.54 4.76, -3.27 22.91, 0.15 31.59 C3.57 40.27, 16.66 55.23, 19.95 51.41 C23.24 47.6, 19.75 17.47, 19.89 8.7 C20.03 -0.07, 24.12 0.31, 20.81 -1.21 C17.49 -2.73, 3.48 -0.44, 0 -0.41 M1.35 1.59 C1.73 7.3, -0.67 25.01, 2.35 32.98 C5.36 40.94, 16.57 53.31, 19.43 49.36 C22.3 45.42, 19.53 17.7, 19.54 9.32 C19.55 0.93, 22.52 0.86, 19.5 -0.97 C16.48 -2.8, 4.58 -1.94, 1.42 -1.66" stroke="#aac3f5" stroke-width="1" fill="none"></path></g></g><mask></mask><g stroke-linecap="round"><g transform="translate(108.72973560275204 183.3913596867668) rotate(0 13.535541764593518 -45.94112623445716)" fill-rule="evenodd"><path d="M0.19 -92.59 C0.19 -92.59, 0.19 -92.59, 0.19 -92.59 M0.19 -92.59 C0.19 -92.59, 0.19 -92.59, 0.19 -92.59 M0.28 -85.95 C0.97 -87.32, 1.88 -89.3, 4.61 -92.91 M-0.38 -85.96 C1.49 -87.89, 2.92 -90, 5.17 -92.16 M0.42 -79.99 C2.99 -85.25, 7.58 -88.09, 12.16 -92.07 M0.07 -80.31 C2.3 -82.64, 4.35 -86.2, 10.54 -92.29 M1.97 -72.8 C6.68 -79.26, 11.41 -87.09, 17.25 -90.83 M-0.74 -74.77 C3.79 -78.08, 6.29 -81.55, 15.58 -93.09 M-0.06 -69.6 C7.19 -75.96, 15.89 -88.81, 21.97 -91.97 M0.08 -68.37 C5.16 -73.94, 10.6 -79.71, 21.25 -93.52 M-1.45 -63.02 C10.65 -72.44, 17.26 -80.97, 24.85 -91.57 M0.23 -61.12 C10.9 -73.93, 20.24 -83.9, 26.09 -92.51 M0.42 -56.94 C7.02 -64.44, 14.28 -71.15, 26.57 -87.76 M0.23 -56.32 C10.56 -67.24, 21.06 -79.27, 26.96 -86.09 M0.06 -51.46 C10.25 -60.62, 15.61 -71.32, 26.85 -78.27 M1.03 -49.37 C10.62 -61.82, 19.78 -74.09, 26.89 -79.82 M1.39 -42.69 C4.98 -50.62, 15.19 -60.51, 27.56 -71.87 M0.85 -44.27 C7.13 -50.85, 12.84 -58.92, 26.43 -73.94 M-0.83 -35.82 C10.35 -49.62, 21.34 -62.21, 25.34 -69.49 M-1.15 -36.59 C5.91 -44.92, 14.58 -52.7, 27.58 -67.3 M-0.18 -32.71 C5.12 -39.48, 12.74 -43.07, 27.24 -61.98 M-0.69 -31.71 C7.98 -41.01, 15.56 -49.86, 25.65 -60.96 M0.28 -25.36 C7.87 -34.66, 14.64 -42.31, 26.03 -57.23 M0.69 -24.23 C6.92 -34.38, 14.82 -42.35, 25.94 -56 M-0.57 -19.12 C5.01 -23.87, 12.68 -31.44, 27.11 -49.72 M0.37 -19.77 C6.01 -25.9, 11.37 -32.38, 26.86 -48.9 M1.62 -14.35 C8.55 -18.98, 15.02 -29.15, 25.36 -44.04 M0.46 -12.59 C7.96 -23.18, 15.51 -30.68, 26.07 -43.84 M0.1 -5.6 C6.25 -12.82, 12.93 -22.12, 26.47 -36.03 M0.5 -7.41 C9.25 -17.66, 20.25 -30.84, 26.16 -37.59 M-0.15 -3.1 C8.01 -8.82, 16.39 -18.16, 24.6 -32.5 M0.58 -0.81 C8.97 -11.78, 17.47 -21.29, 25.48 -32.08 M1.06 0.64 C7.78 -3.51, 14.08 -12.88, 27.72 -24.37 M2.09 1.5 C7.82 -4.67, 13.38 -10.44, 25.86 -25.24 M6.62 4.51 C10.56 -3.01, 17.28 -8.87, 26.47 -18.2 M7.53 2.54 C13.89 -4.32, 19.8 -9.34, 26.69 -19.36 M14.32 4.07 C17.01 -2.67, 22.26 -8.37, 25.02 -13.74 M11.92 2.5 C16.3 -0.48, 19.25 -4.73, 26.09 -12.41 M16.91 3.58 C20.43 0.15, 25.48 -4.04, 27.84 -7.11 M18.4 1.94 C20.17 0.38, 22.07 -2.34, 27.27 -7.68 M23.43 2.94 C23.46 1.85, 24.31 1.42, 26.42 -0.68 M23.28 3.08 C24.35 1.78, 25.35 0.26, 26.31 -0.77" stroke="#6691ee" stroke-width="0.5" fill="none"></path><path d="M1.58 0.7 C9.34 -1.35, 17.99 2.17, 26.43 2.53 M0.49 0.6 C4.7 0.06, 10.28 0.88, 26.27 1.44 M28.04 1.72 C27.56 -23.22, 26.85 -48.26, 26.71 -93.47 M26.52 0.21 C26.7 -18.19, 26.97 -36.13, 25.86 -92.17 M27.83 -94.41 C14.77 -92.34, 7.2 -93.01, 0 -92.6 M26.24 -91.94 C19.77 -92.49, 11.65 -92.26, -0.37 -92.21 M0.37 -92.34 C-1.13 -68.5, 1.88 -47.03, 0.24 -0.92 M0.52 -93.12 C1.46 -57.72, 0.37 -23.36, -0.96 0.37 M0 0 C0 0, 0 0, 0 0 M0 0 C0 0, 0 0, 0 0" stroke="#6691ee" stroke-width="1" fill="none"></path></g></g><mask></mask><g stroke-linecap="round"><g transform="translate(176.46024748694367 133.0449726433351) rotate(0 -11.139419683816982 19.71806676936103)" fill-rule="evenodd"><path d="M-20.18 1.01 C-20.18 1.01, -20.18 1.01, -20.18 1.01 M-20.18 1.01 C-20.18 1.01, -20.18 1.01, -20.18 1.01 M-21.28 9.32 C-20.45 7.17, -17.21 3.66, -14.24 -0.37 M-22.11 9.71 C-19.59 6.07, -17.28 4.14, -14.74 0.88 M-19.68 13.32 C-19.31 10.45, -16.9 7.35, -10.2 -0.05 M-20.24 13.78 C-16.57 10.21, -14.05 4.78, -9 1.11 M-19.34 18.61 C-15.71 11.76, -7.84 6.23, -3.2 2.76 M-20.38 19.67 C-16.41 15.51, -13.08 10.32, -4.54 0.75 M-22.16 27.53 C-12.85 18.43, -4.14 8.94, 2.18 1.83 M-20.59 26.53 C-16.83 20.59, -11.77 15.89, 1.75 0.93 M-19.74 32.06 C-14.6 25.38, -5.94 13.07, -1.3 8.47 M-21.03 31.82 C-15.54 26.91, -10.68 21.8, -0.02 7.41 M-20.14 38.81 C-12.36 30.44, -5.74 20.66, 1.14 15.69 M-22.48 39.38 C-15.49 33.66, -11.31 27.82, -0.28 14.8" stroke="#aac3f5" stroke-width="0.5" fill="none"></path><path d="M-0.65 -0.63 C-0.97 2.57, 1.22 12.8, -2.04 19.53 C-5.3 26.25, -16.7 38.88, -20.21 39.71 C-23.73 40.54, -23.22 30.87, -23.15 24.51 C-23.08 18.14, -23.52 5.77, -19.81 1.5 C-16.1 -2.78, -4.16 -0.73, -0.91 -1.14 M1.21 1.66 C0.82 5.02, 1.13 14.53, -2.55 21.03 C-6.23 27.53, -17.47 39.92, -20.87 40.67 C-24.27 41.42, -22.9 31.97, -22.94 25.55 C-22.98 19.14, -24.96 6.3, -21.13 2.19 C-17.3 -1.92, -3.52 1.11, 0.03 0.88" stroke="#aac3f5" stroke-width="1" fill="none"></path></g></g><mask></mask><g stroke-linecap="round"><g transform="translate(235.88324983567236 260.1225681171014) rotate(0 -11.905129053059454 -34.34651516667964)" fill-rule="evenodd"><path d="M-44.5 -50.61 C-44.5 -50.61, -44.5 -50.61, -44.5 -50.61 M-44.5 -50.61 C-44.5 -50.61, -44.5 -50.61, -44.5 -50.61 M-42.83 -45.48 C-35.46 -53.27, -31.71 -60.38, -22.12 -67.82 M-43.87 -45.85 C-36.47 -54.81, -29.81 -61.86, -23.93 -68 M-42.87 -41.2 C-33.63 -51.56, -27.05 -58.62, -19.25 -67.25 M-41.87 -41.72 C-36.76 -48.02, -32.62 -52.87, -19.35 -66.08 M-40.59 -40.07 C-33.46 -45.14, -29.64 -52.54, -16.08 -63.21 M-37.8 -38.32 C-29.54 -48.91, -21.31 -57.98, -16.11 -65.43 M-36.46 -37.55 C-28.14 -47.32, -20.17 -57.62, -14.85 -63.82 M-34.86 -35.96 C-28.61 -44.73, -20.44 -55.37, -14.18 -61.19 M-32.49 -33.18 C-27.5 -40.05, -20.23 -48.56, -12.1 -60.11 M-34.03 -33.07 C-28.49 -39.98, -21.26 -45.84, -9.51 -59.48 M-32.1 -30.4 C-25.41 -36.08, -18.12 -43.63, -7.75 -55.53 M-30.67 -30.8 C-20.83 -41.18, -12.28 -50.51, -6.92 -56.74 M-28.63 -26.36 C-19.79 -34.76, -11.5 -46.33, -5.04 -53.34 M-28.75 -26.62 C-21.89 -32.38, -16.45 -38.81, -4.64 -55.81 M-25.22 -23.71 C-16.68 -34.83, -9.17 -40.91, -0.31 -53.34 M-25.45 -24.92 C-16.33 -33.72, -9.35 -43.02, 0.09 -52.56 M-22.65 -21.2 C-16.4 -27.89, -11.6 -32.8, 3.74 -50.25 M-22.68 -21.36 C-14.44 -31.68, -4.97 -39.49, 3.09 -48.93 M-17.85 -18.46 C-12.61 -25.81, -6.74 -31.32, 4.24 -46.49 M-18.34 -18.42 C-11.52 -27.16, -3.7 -36.66, 5.72 -47.58 M-15.75 -15.08 C-8.73 -25.1, 1.26 -35.71, 8.97 -41.98 M-15.94 -16.29 C-9.4 -24.94, -2.1 -32.26, 6.94 -44.44 M-15.17 -11.65 C-6.43 -21.49, -1.73 -29.6, 11.78 -41 M-13.09 -12.7 C-3.69 -25.19, 6.01 -34.36, 11.04 -41.35 M-9.33 -8.63 C-4.26 -17.34, 3.26 -27.43, 15.49 -37.45 M-9.83 -9.52 C-2.02 -20.1, 6.07 -29.74, 13.81 -38.09 M-7 -7.58 C-1.92 -15.14, 3.3 -20.91, 14.63 -36.94 M-8.45 -8.82 C-2.55 -14.77, 3.79 -19.97, 15.61 -34.27 M-5.04 -6.05 C1.13 -11.15, 7.04 -18.9, 19.62 -32.1 M-3.8 -5.52 C4.08 -14, 11.66 -23.97, 18.73 -31.43 M-2.96 -1.82 C6.94 -10.26, 12.08 -18.58, 19.57 -28.15 M-2.47 -2.42 C3.93 -7.16, 8.12 -13.13, 20.56 -28.36 M0.62 0.21 C7.98 -7.14, 16.46 -17.89, 21.77 -25.42 M0.91 1.14 C4.97 -6.1, 11.62 -11.72, 22.33 -24.43" stroke="#4978eb" stroke-width="0.5" fill="none"></path><path d="M-0.96 -0.5 C2.62 -4.74, 25.5 -13.8, 22.58 -24.72 C19.67 -35.65, -9.99 -59.07, -18.45 -66.06 C-26.91 -73.05, -24.64 -68.87, -28.19 -66.66 C-31.74 -64.45, -37.3 -56.38, -39.74 -52.79 C-42.18 -49.2, -49.5 -53.78, -42.81 -45.1 C-36.12 -36.42, -6.59 -8.06, 0.4 -0.7 M0.73 -1.8 C4.1 -6.42, 25.28 -15.81, 21.9 -26.28 C18.52 -36.75, -11.22 -58.03, -19.55 -64.65 C-27.87 -71.26, -24.97 -67.96, -28.04 -65.94 C-31.12 -63.93, -35.24 -56.39, -37.98 -52.57 C-40.73 -48.74, -51.06 -51.94, -44.52 -42.97 C-37.98 -34.01, -6.39 -6.23, 1.25 1.24" stroke="#4978eb" stroke-width="1" fill="none"></path></g></g><mask></mask></svg>