<svg version="1.1" xmlns="http://www.w3.org/2000/svg" viewBox="0 0 241.09789620459674 249.42401941432263" width="241.09789620459674" height="249.42401941432263">
  <!-- svg-source:excalidraw -->
  
  <defs>
    <style class="style-fonts">
      @font-face {
        font-family: "Virgil";
        src: url("https://excalidraw.com/Virgil.woff2");
      }
      @font-face {
        font-family: "Cascadia";
        src: url("https://excalidraw.com/Cascadia.woff2");
      }
    </style>
  </defs>
  <g stroke-linecap="round"><g transform="translate(52.2721178721622 28.750105875552208) rotate(0 -8.263038331590053 38.37074272022994)" fill-rule="evenodd"><path d="M-41.41 -17.45 C-41.41 -17.45, -41.41 -17.45, -41.41 -17.45 M-41.41 -17.45 C-41.41 -17.45, -41.41 -17.45, -41.41 -17.45 M-40.02 -13.31 C-38.59 -14.04, -38.06 -15.36, -36.84 -16.29 M-39.78 -13.15 C-38.83 -14.41, -37.73 -15.67, -37.24 -16.45 M-38.76 -7.94 C-35.95 -10.62, -34.48 -13.73, -33.83 -14.35 M-38.79 -8.65 C-37.54 -9.57, -35.86 -11.26, -33.12 -14.43 M-37.58 -3.79 C-35.88 -4.9, -34.33 -8.6, -29.75 -13.02 M-37.59 -3.3 C-34.84 -7.22, -31.67 -10.19, -30.01 -12.8 M-35.43 1.07 C-33.41 -0.52, -32.29 -4.49, -26.12 -11.94 M-36.16 1.25 C-34.21 -1.78, -31.03 -5.65, -25.53 -11.29 M-32.98 5.06 C-29.35 -1.54, -24.13 -6.37, -23.7 -9.62 M-34.1 6.17 C-31.23 2.19, -28.35 -3.33, -22.13 -9.02 M-34.36 12.29 C-27.77 6.76, -23.5 0.68, -18.83 -8.01 M-33.01 10.73 C-27.38 2.64, -22.23 -2.58, -18.18 -7.04 M-34.35 13.77 C-28.83 8.39, -24.61 4.19, -16.01 -7.75 M-32.4 15.45 C-25.86 7.41, -17.96 -0.6, -15.04 -5.44 M-30.27 21.35 C-25.25 14.42, -22.03 8.29, -11.62 -3.79 M-32.47 19.56 C-23.53 10.59, -16.1 2.31, -10.4 -5.43 M-30.17 23 C-23.14 16.06, -19.59 10.46, -7.71 -4.64 M-29.2 24.51 C-22.6 14.91, -16.06 7.81, -5.77 -3.11 M-27.25 28.62 C-20.21 18.92, -14.62 13.26, -1.87 -0.1 M-28.61 29.1 C-19.52 16.84, -8.85 7.32, -3.07 -0.95 M-29.8 34.34 C-16.04 21.67, -6.1 8.85, 2.32 0.59 M-27.45 34.06 C-17.13 22.86, -6.82 10.07, 1.1 1.41 M-27.57 40.35 C-16.75 30.04, -10.77 18.43, 3.49 3.82 M-27.33 39.12 C-16.5 26.77, -7.44 16.16, 2.92 6.41 M-24.31 42.18 C-13.02 30.58, -2.61 18.58, 3.25 8.61 M-26.09 42.64 C-18.77 36.24, -12.14 27.52, 4.27 8.95 M-24.17 48.55 C-16.18 37.21, -5.69 26.42, 5.84 15.5 M-23.99 48.71 C-19.11 41.77, -12.86 33.39, 5.66 15.49 M-21.62 53.67 C-12.69 41.18, 0.12 28.1, 4.89 17.81 M-22.32 53.7 C-13.49 42.32, -6.81 32.73, 5.18 20.64 M-23.87 59.03 C-12.45 46.72, 0.11 33.01, 6.96 25.49 M-21.69 57.37 C-12.26 47.94, -5.02 38.9, 7.3 25.25 M-19.36 60.75 C-12.11 54.63, -6.22 46.12, 9.1 30.4 M-19.28 62.48 C-11.06 51.12, -1.29 39.77, 8.56 28.99 M-20.19 67.36 C-11.68 60.03, -5.32 53.68, 10.34 34.14 M-19.05 65.9 C-11.05 57.05, -2.71 47.91, 10.38 34.49 M-20.02 72.14 C-9.37 61.03, -0.97 53.77, 11.86 38.37 M-18.39 71.15 C-11.82 63.98, -6.63 57.7, 11.39 38.89 M-16.51 74.91 C-7.75 65.11, 1.76 52.14, 12.56 44.59 M-16.37 77.52 C-8.76 67.02, -0.77 57.8, 12.21 43.93 M-15.78 81.35 C-5.07 68.82, 4.27 58.44, 14.5 47.47 M-15.01 81.67 C-4.98 68.99, 5.67 57.34, 13.17 46.56 M-14.9 84.81 C-8 77.28, -0.21 67.11, 14.54 50.72 M-13.47 84.75 C-3.91 73.76, 4.33 62.59, 15.11 53.07 M-11.71 90.65 C-2.39 78.46, 9.79 64.28, 16.42 57.27 M-12.76 90.92 C-4.49 81.03, 4.5 71.18, 15.68 56.62 M-11.31 94.01 C-6.7 88.46, -0.15 79.48, 18.97 60.48 M-11.91 94.52 C-2.93 83.61, 7.23 74.42, 16.82 60.59 M-9.22 97.61 C1.3 84.23, 10.95 72.56, 18.37 65.09 M-9.94 98.1 C0.1 85.85, 10.86 75.51, 19.18 67 M-2.47 98.39 C2.34 87.92, 10.32 79.31, 18.24 71.6 M-2.79 98.3 C2.34 89.65, 8.11 82.96, 19.48 71 M1.95 99.28 C7.13 90.7, 9.96 86.58, 19.21 74.05 M1.52 97.98 C7.94 90.92, 13.7 83.48, 20.24 76.03 M7.82 98.23 C11.26 90.27, 19.39 85.2, 22.44 79.33 M7.82 98.49 C10.95 93.93, 13.06 89.02, 22.57 79.4 M13.17 96.69 C17.42 93.36, 18.53 90.38, 23.14 85.04 M12.61 96.47 C16.12 93.05, 21.23 88.06, 23.76 85.32 M17.38 96.54 C18.92 95, 20.92 92.75, 24.48 90.83 M18.04 97.18 C19.85 94.25, 22.7 91.98, 23.8 89.87" stroke="#aac3f5" stroke-width="0.5" fill="none"></path><path d="M-0.35 1.24 C-11.41 -4.93, -20.88 -11.29, -39.48 -17.27 M0.47 -0.49 C-15.97 -6.23, -32.3 -12.74, -40.82 -18.62 M-41.48 -18.75 C-31.2 23.5, -19.03 64.96, -10.13 94.5 M-42.08 -18.29 C-33.01 13.24, -26.34 43.92, -11.31 95.49 M-11.59 94.13 C1.63 94.45, 12.85 94.6, 24.1 94.31 M-11.55 95.41 C-4.71 94.33, 2.81 94.16, 24.2 94.64 M25.55 93.77 C15.49 62.89, 8.44 30.58, -1.8 -1.82 M24.26 95.02 C16.05 61.96, 7.95 28.67, -0.47 -0.54 M0 0 C0 0, 0 0, 0 0 M0 0 C0 0, 0 0, 0 0" stroke="#aac3f5" stroke-width="1" fill="none"></path></g></g><mask></mask><g stroke-linecap="round"><g transform="translate(42.08975766773824 121.13881054890612) rotate(0 1.9111601989020528 58.45668074552589)" fill-rule="evenodd"><path d="M0 0 C0 0, 0 0, 0 0 M0 0 C0 0, 0 0, 0 0 M-3.08 8.96 C-0.36 6.48, 1.07 4.98, 5.92 0.44 M-2.24 9.2 C-0.78 6.62, 1.13 4.22, 4.45 0.84 M-3.83 16.74 C-0.41 13.09, 4.09 4.68, 8.9 -0.11 M-3.59 18.28 C-0.9 12.13, 4.16 7.7, 9.1 0.1 M-7.67 24.99 C-0.76 18.78, 3.9 14.8, 14.02 -1.03 M-6.41 26.1 C1.53 17.63, 8.4 8.93, 15.94 -0.11 M-9.07 33.49 C1.58 23, 13.54 9.51, 22.33 -0.1 M-10.3 36.32 C-2.51 26.2, 5.55 18.11, 20.95 1.33 M-13.76 45.53 C-0.41 31.88, 8.46 20.2, 25.75 -0.69 M-10.96 44.08 C-2.78 35.13, 5.06 27.16, 25.03 0.44 M-12.66 51.94 C-0.21 33.36, 17.91 17.88, 31.39 0.25 M-13.21 53.54 C-3.87 39.93, 6.35 29.31, 30.3 0.58 M-16.32 60.69 C4.65 36.6, 26.16 15.07, 35.08 1.41 M-16.19 61.75 C-2.94 44.32, 11.8 28.43, 35.85 1.07 M-18.75 71.63 C-3.04 51.94, 13.59 31.32, 33.01 10.03 M-19.02 70.69 C-6.96 55.84, 5.88 42.84, 32.65 10.37 M-19.89 78.13 C-5.53 60.11, 8.59 41.21, 29.54 21.06 M-22 79.17 C-7.01 64.19, 6.83 47.98, 29.49 20.44 M-22.77 86.84 C-3.11 67.01, 17.72 43.07, 29.09 28.07 M-23.58 87.87 C-4.82 67.98, 11.54 47.98, 28.16 30.05 M-27.31 95.04 C-14.31 82.4, -0.08 63.95, 24.86 40.34 M-24.92 96.97 C-10.75 80.41, 3.16 63.78, 24.37 39.06 M-27.46 106.41 C-16.75 92.17, -4.98 79.25, 21.73 46.89 M-28.84 105.26 C-7.75 84.24, 10.94 60.31, 21.86 46.75 M-29.7 112.63 C-16.81 97.15, -1.55 82.72, 17.73 58.26 M-31.07 113.93 C-14.66 95.65, 1.67 77.49, 20.09 56.93 M-30.2 121.18 C-12.78 100.39, 1.75 83.4, 18.27 66.87 M-29.22 119.68 C-11.41 99.6, 6.93 78.44, 15.68 66.53 M-19.34 114.57 C-14.31 106.98, -3.96 99.56, 13.59 76.82 M-20.08 114.3 C-8.07 100.81, 3.58 86.8, 14.14 74.68 M-9.22 111.91 C-2.26 100.79, 1.33 93.01, 9.72 83.93 M-10.86 109.41 C-4.3 100.96, 3.53 92.11, 9.92 85.07 M-2.17 104.94 C1.76 100.84, 5.17 97.27, 9.09 93.79 M-0.95 104.89 C1.28 101.89, 3.35 99.82, 9.32 93.37 M-31.21 118.21 C-31.21 118.21, -31.21 118.21, -31.21 118.21 M-31.21 118.21 C-31.21 118.21, -31.21 118.21, -31.21 118.21 M-27.78 115.98 C-28.36 115.18, -29.26 114.58, -30.3 113.63 M-27.97 115.94 C-28.45 115.42, -29.06 114.96, -30.14 113.96 M-23.55 113.78 C-24.95 112.53, -26.54 111.76, -28.94 108.89 M-23.34 114.33 C-25.18 112.89, -26.95 111.46, -28.71 109.79 M-20.41 111.5 C-22.61 110.15, -23.36 109.35, -27.35 104.5 M-19.2 111.96 C-22.41 110.4, -25.09 107.31, -28.29 105.26 M-16.31 110.8 C-19.58 107.64, -21.91 105.36, -27.13 100.43 M-15.92 109.84 C-19.85 107.35, -23.08 104.86, -26.23 101.4 M-11.02 107.86 C-15.83 104.31, -21.43 98.7, -24.67 97.29 M-11.5 108.16 C-16.35 104.53, -22.04 99.53, -25.7 97.27 M-10.01 104.63 C-15.81 101.51, -19.84 98.04, -24.13 90.3 M-8.27 105.55 C-13.29 100.7, -19.7 97.53, -24.95 92.01 M-6.25 105.8 C-12.71 96.92, -18.45 90.47, -21.97 87.03 M-3.78 104.95 C-11.68 97.3, -19.27 90.95, -24.35 88.48 M-0.51 102.1 C-7.71 94.43, -17.11 89.72, -22.44 85.45 M-1.35 102.99 C-8.93 94.92, -16.44 89, -22.46 84.13 M2.43 101.66 C-3.48 93.23, -12.35 85.87, -22.11 80.11 M3.38 101.06 C-1.5 96.33, -6.48 91.72, -21.42 78.94 M8.33 98.78 C-3.46 91.55, -11.55 82.12, -19.55 75.03 M7.27 99.34 C-2.82 90.11, -10.66 82.79, -19.54 74.55 M8.17 96.14 C3.83 87.96, -3.22 84.68, -19.19 70.58 M7.44 93.37 C1.26 88, -7.27 80.32, -18.87 70.37 M10.38 90.12 C1.88 81.12, -6.96 75.11, -17.07 68.18 M9.8 90.59 C0.84 81.56, -8.85 74.05, -17.83 66.69 M9.24 87.08 C0.71 76.99, -8.89 66.5, -16.7 61.21 M10.68 84.97 C2.96 78.65, -4.69 73.12, -16.76 62.76 M12.82 81.49 C0.68 74.33, -6.66 63.55, -14.86 55.79 M12.92 82.31 C4.25 75.74, -2.81 68.01, -16.57 57.86 M14.16 78.05 C7.58 70.57, 1.08 67.21, -13.42 53.56 M14.33 76.75 C4.69 70.25, -6.21 61.66, -14.27 53.45 M15.98 74.51 C6.93 67.97, -2.73 57.87, -13.12 48.56 M14.62 72.82 C6.99 67.62, 0.76 61.66, -13.61 48.2 M13.87 67.81 C5.34 60.85, -1.46 55.18, -13.41 45.96 M15.73 67.86 C9.84 63.65, 3.21 57.89, -12.66 44.14 M17.19 65.55 C12.89 58.87, 5.87 54.78, -10.27 38.95 M17.07 64.82 C9.6 57.63, 0.62 50.79, -10.41 39.72 M20.06 59.5 C13.59 55.57, 4.51 48.05, -12.01 35.51 M19.61 59.94 C7.46 52.17, -2.25 43.33, -10.34 35.91 M18.49 57.74 C11.67 50.56, 5.2 43.91, -8.3 31.89 M19.31 56.32 C11.09 49.6, 4.35 43.32, -8.29 31.96 M21.12 53.44 C16.63 48.94, 9.09 41.97, -5.07 28.77 M21.07 52.85 C10.04 42.9, 0.58 34.64, -7.04 28.84 M22.37 49.04 C15.97 42.7, 10.78 37.22, -5.73 24.08 M22.04 47.76 C13.64 41.81, 6.38 34.79, -6.43 24.31 M21.41 41.71 C11.84 35.89, 3.66 28.05, -6.02 21.1 M23.88 44.3 C15.25 35.22, 6.32 30.09, -3.89 18.38 M22.32 38.16 C14.71 31.16, 5.48 22.35, -3.08 14 M25.08 38.89 C16.75 33.41, 9 27.26, -4.36 15.04 M25.03 36.14 C15.25 29.34, 6.01 19.3, -3.27 10.61 M25.19 34.84 C18.54 29.73, 12.13 22.73, -1.84 10.36 M26.53 32.58 C15.98 23.1, 6.57 13.08, 0.05 5.25 M28.16 31.82 C18.82 24.94, 12.43 18.07, -1.99 5.59 M27.52 28.39 C19.85 19.61, 7.96 7.23, -1.3 1.54 M28.29 26.91 C22.22 20.26, 15.11 16.46, 0.28 1.26 M29.65 20.6 C20.62 16.82, 13.8 7.52, 0.59 -2.14 M29.63 22.05 C21.8 15.73, 11.8 7.65, 0.94 -1.08 M30.4 19.88 C23.53 10.73, 13.46 4.97, 8.2 0.15 M30.12 17.8 C22.99 12.16, 14.41 3.85, 7.56 -0.8 M32.07 13.94 C25.43 11.15, 22.86 5.92, 13.44 -3.14 M32.75 14.07 C26.36 9.7, 20.35 2.96, 13.36 -0.93 M33.01 9.84 C31.28 7.81, 26.65 5.97, 22.38 0.65 M33.92 10.57 C29.54 6.94, 27.18 3.54, 20.5 -0.92 M35.27 5.15 C31.98 3.65, 28.5 0.25, 26.75 -1.02 M34.66 5.48 C32.09 3.68, 29.48 1.16, 26.93 -1.08 M35.77 1.77 C35.5 1.04, 34.81 0.47, 33.78 -0.29 M35.86 1.52 C35.3 1.19, 34.69 0.64, 33.62 -0.44" stroke="#4979ea" stroke-width="0.5" fill="none"></path><path d="M1.43 1.79 C11.01 1.56, 20.76 0.64, 35.89 2.37 M0.01 -0.01 C11.58 -0.05, 25.22 1.16, 35.91 1.64 M34.71 -0.56 C25.29 31.55, 18.17 64.45, 6.09 98.47 M35.52 1.44 C26.2 28.1, 19.68 53.5, 6.52 97.74 M5.43 100.48 C-5.14 104.09, -17.32 110.41, -31.91 116.83 M6.41 99.08 C-1.51 102.11, -9.87 106.83, -32.09 117.07 M-29.99 118.29 C-20.63 78.95, -9.87 41.46, -1.2 -1.37 M-31.23 117.68 C-21.57 84.58, -12.19 53.35, -0.2 -1 M0 0 C0 0, 0 0, 0 0 M0 0 C0 0, 0 0, 0 0" stroke="#4979ea" stroke-width="1" fill="none"></path></g></g><mask></mask><g stroke-linecap="round"><g transform="translate(231.0156253869261 123.94809673474151) rotate(0 -76.56484635653919 -55.6115866429335)" fill-rule="evenodd"><path d="M-151.31 -112.99 C-151.31 -112.99, -151.31 -112.99, -151.31 -112.99 M-151.31 -112.99 C-151.31 -112.99, -151.31 -112.99, -151.31 -112.99 M-150.08 -108.3 C-149.58 -108.84, -149.63 -108.82, -148.21 -110.07 M-150.17 -108.12 C-149.83 -108.61, -149.19 -109.22, -148.16 -110.24 M-148.81 -103.8 C-147.82 -105.17, -146.93 -106.11, -144.84 -107.25 M-148.53 -104 C-147.58 -104.86, -146.46 -105.86, -145.28 -107.73 M-146.09 -100.21 C-144.64 -101.73, -143.26 -105.11, -141.81 -106.02 M-147.24 -99.75 C-145.26 -101.36, -143.75 -103.35, -141.36 -105.8 M-145.72 -95.9 C-143.54 -97.6, -142.38 -99.37, -139.45 -103.19 M-145.86 -94.71 C-144.52 -97.56, -142.62 -98.88, -138.46 -102.76 M-143.89 -91.84 C-141.15 -92.15, -139.66 -96.8, -136.15 -99.37 M-144.58 -90.42 C-141.28 -95.03, -137.29 -98.45, -135.36 -100.62 M-142.12 -85.67 C-137.8 -90.84, -136.1 -93.62, -133.57 -97.26 M-142.39 -86.08 C-140.5 -89.12, -138.33 -91.31, -132.98 -98 M-142.95 -82.98 C-139.75 -86.84, -135.27 -87.65, -127.38 -95.37 M-141.01 -82.3 C-136.96 -86.53, -132.71 -92.36, -129.51 -96.72 M-140.49 -79.17 C-132.47 -82.31, -130.96 -88.34, -125.16 -92.82 M-139.63 -76.88 C-136.51 -80.89, -131.77 -84.83, -125.72 -94.46 M-138.38 -72.82 C-134.14 -77.7, -129.41 -84.12, -123.01 -88.95 M-138.7 -74.39 C-132.23 -80.77, -127.25 -85.26, -122.51 -91.1 M-138.09 -68.62 C-131.96 -74.76, -126.32 -77.7, -120.51 -89.01 M-135.98 -68.12 C-132.8 -72.84, -127.7 -78.78, -119.3 -88.44 M-135.7 -62.79 C-130.25 -72.27, -122.65 -76.91, -116.59 -87.68 M-135.5 -63.64 C-130.46 -70.54, -126.22 -75.57, -115.83 -86.32 M-135.08 -60.43 C-127.37 -67.34, -122.82 -71.31, -112.75 -85.34 M-133.46 -60.81 C-129.68 -65.28, -124.55 -69.5, -113.21 -82.76 M-133.11 -53.59 C-122.62 -65.03, -115.71 -77.29, -108.2 -83.65 M-133.1 -55.72 C-125.5 -63.64, -119.6 -69.83, -109.78 -82.38 M-130.92 -49.35 C-124.22 -60.36, -117.03 -65.59, -104.97 -79.08 M-130.69 -51.48 C-124.1 -57.76, -116.77 -65.94, -105.97 -79.6 M-128.96 -49.11 C-117.98 -58.61, -109.24 -68.68, -105.23 -77.27 M-128.34 -47.36 C-119.69 -57.43, -109.94 -69.58, -104.28 -75.88 M-126.3 -40.67 C-121.38 -51.14, -112.16 -56.55, -100.39 -74.55 M-127.97 -41.56 C-116.41 -54.9, -107.17 -66.59, -100.17 -74.98 M-125.78 -36.29 C-119.06 -46.79, -111.82 -53.94, -98.31 -73.51 M-126.2 -39.14 C-118.67 -46.16, -110.79 -54.43, -95.92 -71.3 M-123.81 -33.22 C-112.77 -44.54, -105.92 -57.15, -94.5 -71.32 M-124.89 -33.31 C-116.42 -42.2, -108.29 -53.27, -93.58 -70.03 M-124.34 -27.58 C-114.63 -40.44, -104.28 -52.99, -91.94 -66.57 M-122.79 -29.03 C-112.21 -42.75, -101.35 -56.01, -91.55 -66.69 M-120.58 -26.86 C-110.09 -42.87, -95.41 -54.93, -87 -64.52 M-122.02 -24.37 C-112.12 -35.13, -103.6 -47.82, -86.12 -64.27 M-120.29 -19.99 C-105.83 -38.01, -93.13 -53.01, -85.18 -63.98 M-121.04 -20.33 C-113.14 -30.2, -103.07 -39.07, -84.05 -62.75 M-120.94 -17.46 C-110.09 -24.22, -102.61 -36.91, -80.45 -61.55 M-118.55 -15.73 C-109.11 -27.49, -98.84 -39.77, -81.49 -59.28 M-116.86 -10.54 C-106.82 -27.27, -94.69 -37.72, -78.31 -59.27 M-116.37 -12.23 C-107.31 -21.38, -99.43 -32.85, -77.9 -58.49 M-114.46 -7.44 C-101.27 -22.91, -87.99 -39.56, -73.01 -54.09 M-115.34 -7.23 C-99.23 -26.23, -82.89 -44.22, -74.9 -55.81 M-113.44 -3.29 C-104.26 -15.34, -93.44 -25.12, -72.79 -52.27 M-114.29 -3.73 C-98.13 -22.12, -81.2 -40.64, -72.23 -52.58 M-111.93 2.5 C-99.69 -13.56, -87.91 -25.42, -69.02 -50.86 M-111.88 1.65 C-100.51 -12.93, -86.12 -28.58, -66.65 -51.42 M-107.1 -1.1 C-94.39 -13.81, -86.55 -25.07, -63.37 -49.33 M-106.92 1.48 C-93.33 -15.04, -81.17 -29.71, -63.82 -48.52 M-101.47 0.57 C-89.03 -14.01, -73.26 -30.43, -63.05 -45.85 M-101.41 2.05 C-90.33 -12.11, -80.72 -24.55, -61.22 -45.79 M-95.68 -0.59 C-89.4 -6.45, -82.5 -15.31, -56.62 -44.09 M-97.03 1.17 C-84.98 -12, -73.41 -26.3, -58.74 -42.41 M-89.53 -0.19 C-79.03 -14.87, -67.77 -29.29, -55.89 -42.58 M-90.92 0.6 C-76.89 -16.22, -64.34 -30, -54.23 -41.97 M-87.21 0.61 C-79.86 -6.14, -70.29 -14.75, -51.7 -37.46 M-86.56 0.24 C-76.09 -9.25, -66.36 -21.14, -52.06 -38 M-80.52 -1.05 C-70.11 -12.54, -60.34 -25.57, -49.2 -34.86 M-79.79 1.25 C-71.01 -9.96, -63.92 -20.1, -48.07 -36.13 M-76.65 -0.18 C-67.02 -8.42, -55.61 -21.62, -46.98 -34.4 M-76.27 1.73 C-68.5 -6.01, -62.28 -15.38, -45.46 -34.37 M-70.11 0.16 C-61.65 -11.55, -48.94 -20.65, -42.24 -30.78 M-70.1 0.11 C-59.06 -12.78, -47.43 -25.23, -41.66 -30.51 M-63.19 -0.92 C-56.7 -5.65, -52.75 -13.86, -40.04 -28.12 M-64.06 1.57 C-57.73 -8.32, -49.41 -17.45, -38.28 -29.2 M-57.86 2.07 C-51.64 -6.84, -42.94 -17.04, -34.44 -25.47 M-58.2 -0.57 C-50.07 -11.4, -40.15 -20.59, -36.02 -27.26 M-52.23 -0.85 C-47.37 -8.82, -39.05 -16.45, -31.68 -24.4 M-54 1.57 C-46.39 -9.31, -37.74 -18.8, -32.51 -24.05 M-48.51 1.07 C-43.66 -7.62, -37.38 -12.08, -29.44 -21.31 M-49.07 -0.17 C-43.08 -5.58, -38.74 -10.87, -29.31 -21.59 M-45.4 1.5 C-37.83 -5.8, -35.16 -8.97, -23.94 -19.02 M-43.27 0.43 C-38.52 -6.49, -32.65 -11.57, -25.75 -18.84 M-38.06 1.22 C-30.57 -6.21, -24.59 -13.86, -23.16 -16.25 M-37.37 -0.65 C-33.99 -4.76, -29.88 -7.97, -21.86 -17.11 M-34.53 2.31 C-26.96 -5.61, -20.98 -12.28, -20.04 -14.05 M-33.21 0.75 C-30.24 -2.84, -26.83 -5.1, -20.26 -15.09 M-27.59 0.32 C-24.06 -2.71, -20 -5.81, -18 -12.36 M-26.53 0.36 C-24.59 -2.71, -21.24 -7.57, -15.95 -11.57 M-23.23 1.94 C-18.28 -2.7, -16.09 -6.37, -12.62 -10.06 M-22.26 0.19 C-19.09 -2.87, -17.4 -4.91, -13.66 -9.41 M-17.18 0.07 C-15.1 -2.55, -11.89 -4.47, -9.64 -7.94 M-16.75 0.49 C-14.39 -2.27, -13.05 -3.25, -10.31 -7.46 M-11.4 0.98 C-9.51 -1.1, -8.24 -2.54, -6.45 -4.13 M-11.39 0.23 C-10.05 -0.95, -9.34 -2.37, -6.61 -4.49 M-5.94 0 C-5.26 -0.74, -4.21 -1.86, -3.54 -3.05 M-6.07 0.28 C-5.36 -0.42, -4.51 -1.24, -3.26 -2.88 M-0.83 0.53 C-0.66 0.44, -0.51 0.14, -0.24 -0.21 M-0.93 0.5 C-0.73 0.34, -0.54 0.16, -0.26 -0.22" stroke="#aac3f5" stroke-width="0.5" fill="none"></path><path d="M-1.67 -1.2 C-48.83 -37.28, -101.76 -74.27, -150.54 -112.52 M-0.26 0.16 C-30.74 -23.43, -61.39 -47.09, -150.87 -111.9 M-153.21 -112.31 C-136.12 -74.53, -123.41 -31.31, -115.25 1.3 M-151.21 -111.99 C-138.35 -75.65, -126.67 -39.32, -114.24 -0.8 M-111.8 0.41 C-78.35 -0.23, -44.2 1.28, -0.69 0.76 M-113.71 -0.81 C-83.46 -0.7, -52.5 -0.43, -1.41 0.39 M-1.56 -0.53 C-1.18 -0.55, -0.7 -0.19, 0.08 0.05 M-1.59 -0.54 C-1.15 -0.33, -0.68 -0.26, 0.03 0.01" stroke="#aac3f5" stroke-width="1" fill="none"></path></g></g><mask></mask><g stroke-linecap="round"><g transform="translate(228.84422360604526 123.2444034665125) rotate(0 -74.2949915231917 55.97873834548204)" fill-rule="evenodd"><path d="M-112.27 0.46 C-112.27 0.46, -112.27 0.46, -112.27 0.46 M-112.27 0.46 C-112.27 0.46, -112.27 0.46, -112.27 0.46 M-115.66 8.58 C-111.86 6.4, -109.21 1.31, -107.56 -0.03 M-114.62 10.39 C-113.43 7.38, -111.46 4.71, -106.28 0.5 M-118.23 21.25 C-114.68 15.63, -107.02 9.08, -99.83 0.08 M-118.14 19.29 C-114.7 15.98, -112.15 11.1, -102.24 1.2 M-121.98 29.82 C-113.4 22.48, -107.27 11.49, -95.03 1.05 M-122.26 30.27 C-112.3 19.91, -104.05 8.39, -97.02 0.25 M-124.15 38.93 C-110.89 24.96, -99.64 8.16, -91.24 1.11 M-125.67 40.3 C-115.58 29.04, -106.31 17.86, -91.33 1.12 M-126.9 48.42 C-115.83 33.82, -98.15 15.29, -85.93 0.67 M-127.8 49.08 C-113.43 31.44, -97.36 13.88, -85.65 0.64 M-132.14 59.54 C-117.52 44.36, -107.72 29.69, -81.01 -0.73 M-130.86 58.4 C-117.84 41.08, -102.08 24.49, -81.37 -0.59 M-135.98 71.15 C-114.85 46, -89.14 17.62, -75.27 1.73 M-134.94 69.57 C-122.67 54.65, -110.92 42.01, -74.96 0.24 M-139.32 78.66 C-116.82 50.9, -91.92 22.67, -68.33 -1.64 M-138.39 78.61 C-112.25 49.1, -84.09 16.49, -70.62 -0.5 M-143.02 90.44 C-115.49 61.9, -91.52 33.29, -65.1 -0.86 M-141.63 89.83 C-122.3 67.97, -103.76 46.77, -64.43 1.56 M-145.05 98.32 C-118.42 66.66, -90.88 38.06, -60.3 2.66 M-144.1 98.6 C-122.75 70.78, -98.06 44.33, -59.67 0.94 M-149.08 110.44 C-109.48 66.09, -75.38 23.77, -55.7 2.54 M-147.49 109.37 C-121.69 77.77, -96.79 49.19, -53.67 0.96 M-148.97 112.99 C-124.82 91.14, -106 67.18, -47.23 -0.1 M-148.03 113.66 C-114.67 77.06, -82.34 41.34, -49.75 1.42 M-130.11 103.34 C-100.13 65.05, -67.93 28.06, -43.58 2.26 M-132.46 102.39 C-97.09 60.71, -61.4 20.16, -43.44 -0.29 M-116.67 91.7 C-98.92 69.81, -82.53 52.79, -36.64 -0.22 M-117.08 89.79 C-91.69 62.65, -66.89 32.33, -37.72 0.28 M-103.46 79.79 C-81.39 56.05, -56.4 27.97, -31.45 -0.62 M-102.29 79.24 C-74.76 47.41, -48 17.36, -32.63 0.97 M-87.61 67.37 C-66.42 45.58, -44.23 19.74, -28.6 1 M-85.96 68.07 C-66.2 45.82, -45.73 22.33, -28.44 0.5 M-69.63 54.94 C-55.08 38.53, -37.14 20.82, -22.23 -0.31 M-71.3 55.43 C-53.93 37.15, -37.11 18.47, -21.28 0.79 M-54.03 44.91 C-46.03 34.83, -39.86 27.07, -18.41 1.93 M-55.09 43.73 C-46.05 35.01, -37.14 24.85, -16.37 0.45 M-39.17 32.56 C-29.86 22.16, -23.64 14.4, -13.75 0.45 M-40.3 32.76 C-34.01 27.32, -28.86 19.16, -12.23 1.86 M-25.04 22.97 C-17.31 16.1, -13.46 6.17, -6.58 2.71 M-25.63 22.9 C-19.42 14.3, -11.98 8.15, -6.64 0.88 M-8.54 10.21 C-5.98 6.29, -3.21 3.3, -1.89 1.31 M-9.07 9.78 C-7.87 8.37, -6.22 6.35, -1.54 1.39 M-149.47 112.5 C-149.47 112.5, -149.47 112.5, -149.47 112.5 M-149.47 112.5 C-149.47 112.5, -149.47 112.5, -149.47 112.5 M-145.83 110.11 C-146.74 109.43, -147.61 108.9, -148.42 108.46 M-145.99 110.13 C-147.1 109.39, -147.68 108.71, -148.37 108.17 M-142.88 107.73 C-143.78 106.29, -145.6 105.27, -146.68 104.5 M-142.91 107.99 C-143.52 107.23, -144.36 106.28, -146.62 104.35 M-138.79 106.06 C-140.76 103.56, -143.09 102.2, -145.87 100.67 M-139.21 105.18 C-140.51 103.73, -142.67 102.49, -145.14 99.91 M-137.01 102.28 C-139.11 101.69, -141.37 98.3, -144.22 95.95 M-136.46 102.72 C-138.1 101.11, -139.96 99.15, -144.55 96.23 M-132.27 99.53 C-134.59 97.58, -137.29 95.72, -142.96 93.05 M-132.82 100.12 C-136.57 97.29, -139.92 93.51, -142.66 92.1 M-131.27 97.07 C-133.1 94.47, -133.83 93.25, -141.02 89.26 M-129.84 98.13 C-133.5 94.72, -137.52 91.15, -141.19 87.55 M-127.56 95.36 C-131.56 92.23, -132.44 87.93, -141.77 82.34 M-125.74 94.56 C-128.94 92.96, -133.19 91.01, -139.38 83.49 M-124.22 91.76 C-129.49 88.58, -133.9 86.27, -138.91 79.6 M-122.59 92.78 C-127.11 90.63, -131.3 86.59, -138.03 79.41 M-118.26 90.24 C-127.29 85.68, -133.8 80.94, -137.4 75.25 M-120.28 91.46 C-127.13 85.65, -133.26 79.35, -136.63 75.4 M-117.92 86.29 C-120.83 83.07, -128.05 81.31, -136.67 69.44 M-116.28 87.5 C-121.81 83.46, -127.12 77.28, -136.19 71.96 M-112.55 84.2 C-118.82 81.44, -122.85 79.73, -135.12 67.64 M-114.78 85.27 C-119.91 79.48, -125.74 74.75, -134.79 68.31 M-108.87 83.95 C-118.31 78.53, -122.92 69.64, -133.75 64.7 M-110.47 83.64 C-115.61 76.63, -122.55 71.36, -133.72 63.89 M-108.69 79.34 C-113.26 74.54, -120.27 69.41, -130.79 56.98 M-106.95 81.39 C-113.69 75.94, -118.82 70.02, -131.82 58.64 M-105.09 76.93 C-112.9 72.2, -121.71 63.96, -129.17 54.58 M-104.64 78.27 C-109.16 73.46, -116.67 67.67, -129.64 54.46 M-100.34 77.49 C-109.45 66.29, -123.72 56.95, -130 51.56 M-99.46 75.74 C-105.21 70.47, -111.25 65.76, -128.65 51.65 M-97.09 72.2 C-108.59 65.19, -119.6 52.19, -129.17 48.03 M-97.68 73.38 C-103.88 67.03, -110.75 60.42, -128.58 46.26 M-91.59 72.85 C-99.94 65.83, -107.75 59.19, -126.86 44.42 M-93.9 70.28 C-105.3 59.72, -117.95 49.86, -126.62 42.52 M-89.58 67.39 C-98.13 58.44, -107.35 52.46, -122.94 37.65 M-90.62 68.83 C-104.52 56.67, -118.08 44.76, -125.56 38.28 M-88.52 64.7 C-100.72 54.7, -111.14 45.72, -123.67 33.3 M-87.23 64.71 C-100.9 54.11, -114.67 41.49, -124.21 33.34 M-85.25 62.87 C-94.64 54.49, -101.27 46.85, -121.15 29.81 M-83.36 63.38 C-95.2 54.15, -104.89 45.14, -121.51 30.92 M-82.18 62 C-94.96 47.98, -111.71 35.04, -122.72 24.66 M-79.8 60.09 C-95.57 47.51, -110.4 34.24, -121.77 26.05 M-79.25 59.73 C-90.63 49.33, -101.32 36.08, -119.7 20.58 M-78.19 57.67 C-88.07 50.12, -98.18 40.94, -119.99 20.96 M-75.08 57.45 C-83.4 48.3, -93.78 37.73, -116.75 19.69 M-74.87 55.89 C-89.22 43.53, -103.61 32.11, -117.07 17.5 M-70.95 51.79 C-89.48 36.04, -108.28 21.59, -115.42 15.75 M-70.58 53.25 C-86.52 41.74, -100.77 28.82, -115.94 14.56 M-68.95 51.48 C-81.25 38.29, -94.17 28.13, -116.74 10.3 M-67.33 50.98 C-79.07 41.17, -88.65 33.11, -116 10.45 M-63.69 49.56 C-80.93 31.31, -99 19.73, -112.67 4.84 M-63.84 47.53 C-75.69 39.84, -84.6 30.86, -113.22 6.3 M-60.49 44.21 C-79.75 32.03, -97.95 14.59, -111.6 3.08 M-60.44 46.59 C-79.87 28.27, -100.12 12.65, -113.35 0.51 M-59.29 42.28 C-73.52 27.64, -91.81 15.8, -109.46 -1.61 M-58.71 42.84 C-77.92 25.96, -98.33 8.04, -109.78 -0.57 M-55.87 41.5 C-65.42 31.71, -76.55 23.17, -105.47 -2.01 M-55.39 41.37 C-74.12 25.6, -90.83 8.45, -105 -2.2 M-53.02 38.6 C-61.03 29.53, -74.9 19.41, -98.28 -1.43 M-51.29 38.06 C-59.96 30.13, -70.16 20.35, -97.47 -2.46 M-50.49 34.93 C-63.53 22.44, -74.57 11.88, -91.96 -0.92 M-47.98 36.35 C-61.41 25.59, -72.57 14.77, -91.29 -1.25 M-45.14 35.2 C-55.7 23.13, -62.87 17.26, -86.65 -2.48 M-45.6 34.29 C-55.41 25.14, -66.46 14.54, -85.59 -2.19 M-40.68 29.78 C-53.12 22.15, -60.24 14.01, -79.47 -2.8 M-41.4 31.95 C-52.3 21.61, -63.19 13.12, -79.2 -2.27 M-39.85 29.47 C-49.27 21.68, -55.95 13.58, -74.27 -3.07 M-37.53 28.51 C-52.55 16.4, -64.72 5.46, -73.05 -0.33 M-34.29 27.07 C-42.03 21.18, -53.22 10.01, -66.53 -2.81 M-35.75 26.97 C-43.68 19.43, -49.84 13.61, -66.83 -0.73 M-31.84 25.53 C-39.12 18.47, -44.44 14.19, -62.31 0.27 M-32.36 24.6 C-43.82 14.55, -55.44 3.77, -60.64 -1.99 M-29.61 20.19 C-35.78 15.46, -45.06 4.8, -53.94 -1.44 M-28.02 22.3 C-35.28 15.57, -41.36 10.41, -54.41 -0.24 M-26.02 18.24 C-35.79 10.93, -41.18 3.29, -50.92 -1.32 M-25.52 18.36 C-30.39 13.96, -36.26 9.06, -49.55 -1.95 M-22.9 15.6 C-31.18 9.3, -38.12 5.45, -40.93 -0.38 M-22.58 16.52 C-26.34 12.68, -29.86 10.11, -43.59 -1.46 M-17.25 13.12 C-21.09 9.18, -25.37 9.75, -36.2 -1.64 M-19.33 14.42 C-22.47 11.27, -27.03 6.33, -37.36 -2.25 M-15.39 13.44 C-19.16 8.67, -22.77 5.47, -30.73 -0.68 M-15.18 11.61 C-21.03 7.28, -27.63 2.15, -29.87 -1.21 M-12.72 8.65 C-15.86 8.27, -16.88 3.88, -23 -0.3 M-12.41 9.34 C-16.96 4.98, -20.23 2.01, -23.65 -1.74 M-8.1 6.09 C-12.17 4.54, -16.1 0.82, -19.16 -2.68 M-8.56 7.6 C-10.96 4.3, -12.93 2.78, -18.62 -1.88 M-4.61 4.31 C-8.36 2.45, -10.23 0.76, -12.3 -1.77 M-5.68 4.89 C-6.82 2.83, -8.6 1.6, -11.79 -0.9 M-2.96 1.22 C-3.58 1.17, -4.27 0.63, -5.56 -1.19 M-2.72 1.53 C-3.56 1.13, -4.01 0.23, -5.54 -1.24" stroke="#4979ea" stroke-width="0.5" fill="none"></path><path d="M1.95 1.16 C-53.62 40.44, -105.14 77.44, -149.95 111.53 M-0.02 1 C-45.1 33.66, -89.43 67.18, -149.27 113.44 M-150.54 113.4 C-136 70.13, -122.12 27.98, -111.25 -0.04 M-149.59 111.8 C-142.54 86.43, -134.37 62.42, -111.25 0.41 M-114.14 -1.49 C-70.04 3.47, -26.01 2.43, 0.38 1.34 M-112.03 1.32 C-76.84 -0.88, -38.83 0.82, 1.84 0.35 M0.88 0.97 C0.5 0.79, 0.28 0.33, -0.1 -0.05 M0.82 1 C0.76 0.83, 0.52 0.6, -0.05 -0.01" stroke="#4979ea" stroke-width="1" fill="none"></path></g></g><mask></mask></svg>