<svg version="1.1" xmlns="http://www.w3.org/2000/svg" viewBox="0 0 328.40231207052193 230.66009717869088" width="328.40231207052193" height="230.66009717869088">
  <!-- svg-source:excalidraw -->
  
  <defs>
    <style class="style-fonts">
      @font-face {
        font-family: "Virgil";
        src: url("https://excalidraw.com/Virgil.woff2");
      }
      @font-face {
        font-family: "Cascadia";
        src: url("https://excalidraw.com/Cascadia.woff2");
      }
    </style>
  </defs>
  <g stroke-linecap="round"><g transform="translate(14.714535923043059 128.4923610078995) rotate(0 149.4866201122178 -58.36590072851004)" fill-rule="evenodd"><path d="M-1.19 -105.71 C-1.19 -105.71, -1.19 -105.71, -1.19 -105.71 M-1.19 -105.71 C-1.19 -105.71, -1.19 -105.71, -1.19 -105.71 M-1.82 -100.41 C3.64 -102.82, 4.34 -108.98, 12.83 -113.08 M-2.09 -97.84 C3.48 -105, 8.62 -109.06, 11.58 -113.3 M-4.62 -91.14 C1.29 -95.99, 4.78 -104.35, 15.41 -114.38 M-2.31 -90.58 C1.44 -97.3, 7.55 -102.21, 16.72 -114.85 M-3.79 -85.17 C6.33 -94.75, 13.71 -105.56, 24.49 -114.65 M-2.53 -85.83 C1.63 -91.6, 7.02 -99.11, 24.53 -116.78 M-2.33 -81.36 C10.29 -94.5, 20.16 -102.47, 31.85 -116.97 M-0.6 -80.69 C9.62 -93.05, 18.77 -104.1, 29.59 -116.74 M0.69 -74.46 C14.72 -91.95, 28.12 -110.09, 37.09 -116.13 M-0.24 -76.05 C11.06 -91.06, 24.49 -104.53, 36.06 -117.05 M-1.91 -68.18 C13.48 -87.03, 31.15 -106.95, 40.42 -118.7 M-0.89 -69.56 C10.74 -83.36, 24.96 -99.34, 41.63 -117.6 M-1.17 -61 C10.57 -76.9, 21.06 -86.47, 44.2 -115.06 M-2.07 -62.13 C12.94 -78.34, 26.24 -94.78, 45.42 -117.63 M0.17 -57.75 C15.98 -76.59, 34.06 -94.33, 49.64 -115.99 M-1.04 -57.32 C18.24 -79.75, 37.33 -102.26, 51.95 -117.16 M0.46 -53.12 C12.46 -67.16, 27.69 -82.45, 57.1 -118.74 M-0.66 -51.64 C18.81 -75.55, 39.64 -97.97, 55.67 -116.72 M-2.05 -45.78 C21.71 -66.63, 40.35 -91.94, 60.11 -117.05 M-0.32 -46.43 C20.18 -69.61, 42.15 -93.67, 60.32 -116.27 M0.94 -39.38 C16.91 -57.14, 31.68 -77.55, 67.57 -118.02 M-0.52 -39.71 C14.51 -56.73, 28.37 -73.59, 67.4 -117.81 M0.58 -34.45 C20.58 -57.15, 37.69 -79.91, 72.58 -117.6 M0.22 -33.73 C19.84 -55.49, 38.76 -76.51, 72.25 -115.63 M1.72 -30.13 C18.4 -49.48, 38.91 -73.71, 77.19 -117 M1.48 -27.6 C28.67 -59.59, 56.24 -91.82, 77.11 -116.52 M-0.33 -24.03 C26.72 -50.78, 47.17 -76.39, 80.59 -117.41 M2.01 -22.89 C20.28 -44.58, 36.09 -63.26, 82.6 -115.28 M3.04 -18.01 C31.59 -50.67, 64.53 -90.15, 89.26 -117.36 M1.84 -18.18 C24.86 -43.66, 47.41 -69.36, 88.1 -115.85 M2.58 -10.03 C23.59 -39.38, 48.08 -62.86, 93.1 -115.51 M1.36 -10.71 C30.85 -46.95, 59.95 -80.48, 93.24 -114.89 M1.93 -7.93 C33.7 -40.95, 64.9 -78.22, 98.26 -115 M1.43 -6.92 C38.47 -47.75, 75.49 -91.4, 96.92 -115.89 M1.82 -0.51 C27.2 -32.8, 53.34 -62.63, 103.88 -114.98 M1.79 0.66 C40.09 -43.24, 78.51 -88.37, 103.42 -115.49 M6.11 0.38 C34.17 -26.79, 58.22 -57.74, 109.06 -116.16 M6.4 0.57 C43.82 -42.05, 81.16 -85.75, 107.58 -114.83 M12.84 0.38 C46.23 -40.38, 80.77 -81.64, 111.48 -115.17 M12.81 1.13 C49.61 -41.8, 85.98 -83.09, 112.76 -114.69 M18.13 1.18 C58.53 -43.46, 94.77 -87.27, 118.35 -114.08 M17.31 0.32 C45.75 -30.75, 73.36 -61.64, 118.01 -114.75 M21.15 1.81 C61.65 -44.1, 99.67 -91.99, 123.19 -115.97 M22.14 1.14 C56.06 -38.64, 90.5 -78.08, 124.19 -115.99 M26.8 0.25 C59.51 -35.19, 91.14 -68.39, 126.61 -113.27 M27.53 0.58 C57.77 -31.27, 87.53 -66.19, 128.98 -114.79 M31.96 0.66 C73.57 -44.19, 112.84 -91.97, 133.14 -115.3 M32.19 0.97 C68.99 -42.78, 107.29 -85.37, 135.04 -115.25 M36.92 2.8 C68.06 -37.03, 104.68 -74.28, 138.06 -113.8 M38.02 2.68 C66.42 -30, 94.03 -63.63, 139.1 -114.52 M41.55 2.99 C66.24 -19.92, 85.09 -46.36, 147.51 -114.85 M42.58 3.27 C62.52 -21.09, 84.78 -46.65, 145.32 -115.43 M52.65 -1.53 C64.29 -16.58, 73.81 -25, 87.74 -44.31 M53.69 -2.93 C58.85 -11.62, 66.24 -18.82, 86.87 -41.85 M94.2 -53.37 C105.58 -65.68, 117.73 -80.35, 150.35 -114.7 M93.99 -51.37 C117.58 -75.83, 138.71 -100.87, 150.43 -116.19 M100.21 -49.93 C113.93 -66.31, 124.04 -79.43, 157.41 -115.14 M99.05 -50.98 C116.65 -70.19, 132.79 -88.84, 157.59 -117.26 M103.98 -49.75 C117.94 -66.43, 129.7 -79.05, 161.4 -114.41 M102.95 -48.33 C121.38 -71.68, 141.88 -93.7, 162.07 -116.01 M106.05 -46.23 C132.81 -75.61, 154.92 -103.8, 165.71 -115.59 M105.46 -46.14 C125.69 -66.68, 144 -87.61, 166.52 -116.01 M109.45 -45.11 C121.04 -57.61, 135.66 -72.25, 173.55 -118.12 M109.6 -42.49 C124.96 -62.21, 141.07 -79.26, 172.68 -116.27 M112.41 -40.53 C130.33 -60.71, 149.46 -83.06, 177.99 -115.67 M111.62 -39.7 C126.86 -58.03, 141.44 -75.63, 177.7 -116.9 M113.3 -38.29 C137.92 -61.85, 162.82 -91.73, 183.5 -115.9 M114.24 -37.39 C132.67 -57.72, 152.29 -78.67, 183.04 -115.63 M118.65 -35.77 C136.69 -58.47, 158.92 -86.17, 188.06 -118.34 M117.93 -35.12 C132.14 -51.51, 145.39 -70.07, 188.73 -117.49 M119.38 -32.38 C146.73 -61.36, 170.53 -89.45, 192.69 -118.12 M119.45 -32.68 C140.23 -54.58, 158.99 -77.46, 194.29 -117.34 M123.59 -29.69 C151.3 -58.61, 176.42 -91.05, 199.52 -115.85 M121.86 -28.97 C140.57 -48.13, 158.58 -67.83, 199.04 -117.49 M128 -26.24 C155.04 -62.13, 188.08 -98.03, 206.01 -118.15 M126.32 -26.6 C146.25 -47.29, 163.47 -67.98, 205.59 -117.03 M130.17 -23.8 C157.76 -54.27, 182.7 -85.88, 211.75 -115.72 M129.53 -24.94 C160.02 -60.61, 189.47 -96.02, 210.94 -117.67 M169.31 -65.79 C187.65 -83.01, 203.46 -103.45, 215.18 -115.41 M168.86 -64.28 C184.3 -81.34, 199.72 -100.68, 216.5 -116.65 M177.46 -69.2 C186.66 -77.38, 197.73 -89.5, 221.9 -118.76 M178.79 -68.61 C189.26 -80.84, 198.44 -91.58, 220.61 -116.96 M183.59 -70.98 C193.75 -78.23, 203.07 -88.11, 224.64 -117.85 M183.31 -69.71 C192.86 -81.35, 203.12 -91.29, 225.88 -118.05 M189.92 -67.62 C202.31 -85.38, 219.66 -102.74, 230.91 -117.06 M187.48 -67.55 C200.47 -81.48, 213.28 -97.83, 231.06 -117.35 M190.79 -66.2 C210.57 -84.67, 226.64 -108.29, 234.98 -116.94 M190.64 -65.12 C208.62 -85.5, 226.33 -104.69, 236.33 -116.92 M192.95 -62.67 C205.57 -74.64, 216.36 -86.84, 241.51 -115.99 M193.92 -63.51 C207.09 -77.33, 220.78 -93.44, 241.19 -116.98 M197.58 -59.72 C210.16 -74.94, 219.7 -84.41, 245.56 -118.46 M198.61 -61.5 C214.54 -79.11, 231.11 -96.02, 247.77 -116.57 M201.9 -58.51 C214.85 -73.95, 226.7 -89.08, 252.85 -116.94 M200.98 -58.13 C213.42 -74.18, 228.69 -88.41, 253.39 -117.83 M202.51 -54.07 C220.29 -74.43, 237.8 -97.44, 256.52 -116.43 M203.97 -53.88 C222.18 -76.84, 243.93 -101.59, 258.52 -116.9 M206.29 -52.55 C225.74 -75.9, 244.57 -95.19, 263.91 -116.36 M205.29 -50.65 C225.79 -74.06, 246.93 -97.6, 263.95 -117.74 M209.88 -49.56 C221.08 -64.13, 233.65 -76.03, 266.79 -119.18 M209.25 -47.93 C229.82 -72.45, 250.92 -97.86, 268.23 -117.45 M210.43 -44.49 C226.33 -60.84, 236.83 -76.98, 275.41 -116.2 M210.8 -43.88 C235.21 -74.12, 259.14 -102.05, 274.01 -117.91 M212.46 -42.05 C228.5 -61.75, 245.79 -79.17, 278.76 -117.81 M214.59 -42.67 C231.45 -61.86, 249.68 -82.62, 277.6 -116.83 M216.7 -39.82 C234.09 -58.81, 250.33 -76.5, 282.57 -115.94 M215.17 -38.8 C234.18 -59.39, 252.88 -80.76, 283.24 -115.89 M216.83 -36.63 C238.26 -59.62, 260.68 -84.07, 288.23 -112.72 M217.96 -35.22 C234.7 -54.07, 251.22 -73.56, 287.32 -114.3 M220.32 -32.05 C241.2 -52.52, 258.95 -75.54, 291.6 -114.63 M221.42 -31.68 C238.21 -52.04, 254.86 -71.9, 291.44 -114.63 M223.29 -27.97 C250.02 -60.99, 278.46 -93.52, 299.12 -115.81 M224.16 -30.06 C247.4 -55.53, 271.21 -82.37, 297.8 -112.95 M225.91 -27.71 C245.93 -50.39, 265.36 -74.74, 302.64 -111.57 M227.62 -26.21 C251.49 -55.72, 275.76 -82.72, 300.36 -112.13 M227.97 -21.75 C248.96 -46.85, 269.18 -70.35, 302.92 -105 M229.9 -23.54 C249.24 -46.95, 271.52 -71.6, 301.56 -107.2 M232.26 -18.87 C258.16 -46.42, 281.29 -77.45, 300.32 -101.55 M232.5 -20.89 C256.94 -49.59, 282.63 -80.47, 301.34 -99.74 M235.44 -15.68 C258.28 -45.74, 282.09 -72.37, 301.09 -93.03 M235.38 -17.85 C256.64 -42.02, 279.28 -67.9, 302.68 -94.64 M236.88 -12.15 C251.98 -33.35, 271.17 -51.53, 301.48 -89.23 M237.15 -13.12 C250.81 -29.78, 264.31 -45.01, 302.01 -89.51 M240.05 -12.75 C252.92 -25.38, 267.6 -41.96, 302.52 -83.69 M240.69 -11.32 C256.67 -28.82, 271.41 -48.21, 303.26 -83.22 M242.76 -6.94 C259.89 -27.69, 276.31 -45, 304.84 -79.79 M242.7 -8.38 C254.87 -22.45, 268.53 -38.88, 304.97 -79.82 M244.57 -8 C269.63 -29.47, 290.03 -54.81, 306.91 -74.77 M245.4 -6.1 C265.37 -29.03, 286.93 -51.89, 305.79 -73.24 M249 -2.14 C261.93 -16.94, 272.1 -33.88, 304.34 -68.12 M249.98 -4.02 C261.11 -16.59, 273.73 -31.9, 306.09 -67.59 M253.58 -1.74 C272.25 -26.92, 292.58 -50.04, 304.16 -61.07 M252.97 -2.5 C269.81 -19.49, 284.96 -39.54, 305.52 -61.33 M256.79 -2.72 C272.81 -19.32, 287.91 -35.95, 304.92 -56.7 M258.46 -0.78 C276.52 -22.11, 292.9 -41.55, 305.35 -57.18 M262.76 -0.8 C277.99 -20.07, 295.35 -37.25, 306.19 -51.72 M263.05 0.86 C272.57 -12.94, 284.97 -26.4, 305.31 -50.74 M268.14 -1.4 C276.62 -9.98, 283.07 -18.48, 306.02 -41.54 M268.03 -1.46 C278.22 -12.97, 288.05 -26.07, 305.28 -43.27 M274.24 -2.07 C280.23 -9.14, 292.67 -20.65, 305.74 -35.85 M271.81 0.46 C280.2 -9.44, 288.74 -16.23, 305.42 -38.1 M276.5 -1.93 C287.83 -12.81, 300.83 -24.23, 304.84 -32.15 M278.6 -1.23 C285.4 -9.2, 294.72 -18.79, 305.26 -31.92 M283.31 1.33 C289.49 -10.82, 298.05 -16.62, 303.67 -26.11 M283.64 0.72 C292.1 -9.62, 299.69 -20.73, 305.79 -25.89 M288.12 -0.36 C294.08 -2.88, 294.33 -10.08, 306.36 -21.1 M288.45 0.11 C295.28 -8.85, 302.34 -15.85, 304.54 -19.01 M294.04 -0.4 C297.69 -4.67, 299.05 -6.26, 302.79 -9.22 M295.11 -1.02 C296.12 -2.66, 298.6 -6.07, 302.86 -9.64 M0 0 C0 0, 0 0, 0 0 M0 0 C0 0, 0 0, 0 0 M2.09 -3.63 C1.64 -4.32, 0.93 -4.49, -0.59 -5.49 M1.82 -3.61 C1.24 -4.31, 0.78 -4.66, -0.45 -5.56 M7.27 -2.74 C4.43 -7.23, 0.93 -10.06, -1.12 -10.27 M7.78 -3.66 C5.38 -5.7, 2.7 -8.42, -0.6 -11.53 M14.67 -4.63 C10.87 -5.92, 6.27 -10.39, -0.03 -16.94 M14.59 -3.7 C12.22 -6.22, 7.08 -8.54, -1.63 -16.94 M21.32 -3.4 C14.53 -11.92, 3.71 -18.76, -2.84 -23.53 M21.42 -2.88 C16.78 -8, 10.65 -10.49, -1.1 -23.49 M26.39 -3.66 C19.55 -8.09, 13.77 -14.04, -1.41 -28.66 M26.78 -2.03 C20.05 -9.56, 13.14 -14.91, -1.51 -28.94 M35.42 0.27 C25.72 -9.27, 15.46 -20.02, -1.16 -33.83 M34.71 -2.4 C24.36 -11.53, 13.66 -20.04, -2.17 -33.46 M41.43 -1.59 C29.44 -8.84, 20.41 -19.13, -2.45 -40.57 M40.54 -1.99 C24.29 -16.09, 7.86 -29.56, -3.01 -40.38 M45.95 -2.75 C26.89 -16.46, 12.02 -33.86, -3.77 -46.23 M45.25 -2.24 C35.15 -11.75, 22.81 -20.75, -3.46 -45.8 M48.44 -4.1 C33.68 -20.06, 17.75 -33.08, -2.94 -49.79 M49.11 -3.67 C35.32 -18.35, 19.6 -30.56, -4.37 -51.15 M56.74 -6.97 C32.87 -25.98, 9.84 -45.12, -4.3 -55.7 M55.41 -5.65 C35.59 -22.58, 16.91 -37.99, -4.9 -56.81 M58.17 -6.95 C43.1 -23.62, 27.66 -35.96, -3.88 -63.69 M57.9 -8.08 C41.41 -21.94, 25.82 -36.72, -4.45 -62.72 M60.38 -10.44 C39.25 -27.38, 20.77 -47.01, -3.12 -67.22 M60.85 -10.7 C44.12 -26.06, 27.57 -39.96, -4.04 -66.62 M62.12 -11.77 C48.49 -27.82, 30.52 -43.54, -3.26 -71.97 M64.15 -13.94 C48.56 -25.78, 34.64 -38.66, -3.51 -71.25 M67.3 -15.61 C40.11 -42.34, 10.39 -64.52, -1.83 -77.66 M66.64 -16.2 C44.84 -34.76, 25.58 -51.77, -1.61 -76.05 M69.57 -21.51 C47.04 -36.91, 26.48 -57, -2.29 -83.87 M68.97 -20.12 C42.82 -43.39, 17.13 -65.14, -2.47 -81.71 M71.15 -21.76 C53.37 -38.7, 34.54 -54.09, -0.75 -85.85 M69.69 -23.17 C50.31 -42.18, 29.04 -59.55, -1.95 -85.76 M71.1 -25.07 C48.94 -47.68, 26.22 -67.43, -2.63 -90.98 M71.83 -27.23 C51.76 -43.8, 32.31 -60.74, -1.11 -91.8 M74.16 -29.18 C43.86 -56.64, 16.03 -82.15, -2.39 -95.92 M75.02 -29.9 C52.9 -48.59, 29.9 -69.05, -1.56 -96.48 M77.55 -33.93 C57.66 -53.83, 33.97 -72.14, 0.33 -99.13 M76.56 -33.35 C58.86 -47.64, 41.02 -64.36, -0.37 -100.76 M79.81 -37.77 C53.25 -58.46, 27.38 -80.09, -1.51 -107.26 M79.52 -37.65 C52.81 -59.1, 26.63 -81.68, -0.05 -106.08 M79.56 -38.88 C59.74 -61.01, 38.18 -79.98, 2.24 -108.45 M81.83 -39.64 C57.54 -61.14, 34.66 -82.77, 1.42 -108.47 M84.37 -43.69 C65.39 -56.8, 49.41 -71.11, 5.45 -112.62 M84.4 -44.26 C65.06 -58.67, 47.46 -76.66, 5.32 -112.59 M85.52 -47.97 C66.82 -63.64, 44.53 -84.18, 8.54 -114.75 M86.19 -47.38 C68.14 -62.46, 47.58 -78.92, 8.33 -113.81 M87.63 -48.73 C69.21 -64.87, 51.94 -84.65, 10.28 -118.59 M89.04 -48.53 C74.27 -64.2, 59.03 -77.48, 12.62 -117.71 M93.9 -50.57 C67.57 -72.81, 41.67 -96.96, 17.92 -116.64 M93.3 -51.01 C64.15 -77.42, 33.46 -103.99, 17.22 -118.8 M126.51 -27.54 C125.69 -28.05, 124.78 -29.27, 123.07 -31.83 M127.39 -27.22 C125.98 -28.26, 125.08 -29.4, 122.83 -31.3 M97.02 -54.91 C68.55 -77.11, 42.35 -101.83, 20.98 -116.75 M96.78 -54.61 C68 -79.82, 38.87 -103.62, 21.48 -118.8 M130.99 -29.47 C96.75 -57.93, 62.97 -88.54, 25.15 -117.59 M133.32 -28.09 C96.53 -59.28, 58.71 -91.4, 27.06 -118.6 M137.35 -28.09 C95.7 -67.54, 52.51 -101.6, 33 -123.04 M137.47 -29 C110.23 -53.3, 84.21 -77.31, 30.71 -120.81 M138.5 -31.37 C104.84 -61.83, 71 -92.44, 39.57 -120.63 M139.38 -31.22 C110.08 -59.4, 78.5 -86.27, 37.54 -120.76 M142.38 -36.64 C108.27 -64.71, 74.64 -94.81, 43.92 -121.39 M143.29 -35.24 C115.65 -59.58, 87.01 -83.59, 43.78 -119.13 M145.72 -39.61 C123.23 -57.43, 100.36 -78.2, 50.46 -119.64 M146.14 -38.57 C121.97 -57.95, 96.06 -79.37, 50.41 -119.61 M149.37 -39.48 C127.67 -56.83, 111.77 -71.83, 58.04 -120.88 M149.05 -40.63 C128.98 -57.88, 110.26 -72.67, 57.5 -119.53 M149.85 -44.09 C132.84 -58.92, 116.74 -77.45, 65.76 -120.25 M150.27 -44.69 C116 -74.17, 81.98 -102.55, 64.29 -120.06 M152.18 -45.72 C134.96 -66.64, 112.23 -85.19, 67.73 -120.28 M154.19 -47.45 C120.78 -74.8, 88.07 -103.19, 69.29 -118.83 M156.65 -50.94 C137.48 -65.69, 116.82 -84.18, 76.97 -120.13 M155.51 -49.68 C137.36 -64.75, 120.68 -81.45, 76.41 -118.85 M159.68 -52.38 C138.04 -69, 121.47 -84.91, 83.63 -117.31 M158.27 -53.75 C143.01 -68.62, 125.49 -82.56, 82.48 -119.12 M160.62 -54.57 C145.58 -69.58, 132.92 -80.87, 86.88 -120.89 M161.99 -56.28 C137.44 -76.13, 114.54 -97.13, 89.4 -119.51 M161.79 -58.41 C147.78 -73.3, 128.22 -90.29, 96.92 -117.95 M163.96 -60.34 C137.72 -80.07, 114.72 -102.53, 95.46 -118.08 M166.32 -64.34 C144 -83.88, 117.42 -103.99, 99.05 -118.06 M166.41 -63.47 C140.44 -84.61, 117.06 -104.58, 101.71 -119.3 M166.44 -64.1 C156.18 -75.75, 141.45 -86.87, 107.54 -120.46 M169.04 -65.17 C151.58 -80.26, 136.33 -94.66, 107.01 -118 M170.08 -67.26 C156.91 -79.68, 143.73 -92.43, 113.84 -117.82 M170.88 -68.23 C153.47 -84.98, 134.39 -101.56, 112.66 -118.96 M249.46 -6.39 C244.76 -9.14, 243.12 -11.16, 238.86 -16.12 M249.3 -5.86 C247.09 -8.27, 243.23 -10.76, 238.12 -15.67 M176.64 -68.89 C154.43 -88.85, 133.96 -108.72, 118.72 -119.86 M174.45 -69.41 C160.37 -83.15, 146.78 -95.38, 119.79 -118.59 M260.46 -2.03 C248.02 -10.46, 235.7 -24.07, 220.74 -36.57 M261.16 -0.97 C247.41 -11.8, 234.52 -25.08, 222.86 -33.96 M180.52 -69.81 C169.82 -78.16, 160.02 -90.52, 124.5 -119.98 M181.55 -71.22 C164.37 -84.63, 149.61 -96.41, 126.05 -117.21 M266.09 1.3 C215.7 -46.73, 163.22 -91.96, 134.19 -116.08 M268.55 0.13 C228.71 -35.21, 186.73 -69.77, 132.55 -118.6 M275.04 0.64 C234.25 -37.02, 191.89 -72.02, 137.01 -117.92 M273.99 0.06 C238.26 -30.27, 203.98 -60.33, 138.46 -117.6 M278.74 0.75 C249.67 -25.2, 221.44 -50.85, 147.36 -117.8 M279.91 -0.21 C235.73 -37.85, 192.45 -76.43, 146.23 -115.92 M285.5 -0.3 C238.65 -42.69, 189.05 -87.11, 150.08 -116.58 M285.12 -1.61 C250.29 -32.47, 213.79 -62.13, 152.17 -116.55 M291.35 0.07 C243.53 -40.81, 197.55 -84.46, 158.36 -116.29 M290.42 -2.07 C246.46 -40.34, 200.58 -80.05, 157.69 -117.16 M295.12 -4.12 C259.3 -30.24, 225.57 -64.12, 162.46 -118.49 M296.83 -2.34 C247.56 -45.28, 199.99 -85.21, 164.27 -116.29 M301.53 -5.32 C265.04 -38.71, 227.28 -69.31, 172.09 -115.52 M301 -3.67 C271.34 -32.25, 240.14 -58.84, 171.12 -117.29 M300.92 -6.79 C254.13 -48.65, 210.63 -87.91, 175.18 -115.52 M302.31 -9 C252.91 -52.42, 202.12 -94.73, 176.24 -117.23 M302.42 -11.27 C265.71 -43.13, 230.12 -76.44, 182.72 -115.06 M304.18 -11.33 C258.15 -52, 211.16 -92.95, 182.55 -116.21 M304.68 -17.26 C280.3 -36.26, 253.95 -58.77, 187.56 -116.14 M304.19 -16.84 C280.64 -36.06, 257.12 -57.62, 188.94 -118.2 M301.73 -22.98 C269.56 -49.93, 239.75 -76.54, 193.22 -118.78 M304.13 -22.57 C264.82 -55.86, 224.09 -90.38, 194.39 -116.42 M303.52 -26.12 C282.7 -47.01, 257.9 -67.27, 200.7 -118.08 M303.91 -27.02 C281.5 -45.87, 259.15 -66.62, 201.05 -118.13 M304.95 -34.96 C272.57 -57.69, 243.64 -83.36, 205.31 -116.8 M302.86 -33.01 C283.26 -51.19, 261.14 -70.76, 206.37 -118.04 M302.79 -36.92 C283.31 -56.28, 264.51 -74.7, 211.47 -118.38 M303.83 -39 C282.04 -56.69, 261.89 -75.53, 212.14 -117.07 M302.34 -43.61 C270.49 -70.13, 238.5 -101.7, 217.52 -115.55 M302.26 -44 C285.01 -59.01, 268.18 -74.71, 218.61 -117.79 M302.39 -47.43 C277.52 -72.38, 253.55 -92.99, 222.53 -119.35 M304.34 -48.83 C281.07 -69.34, 257.6 -87.14, 223.61 -117.18 M302.67 -53.95 C275.33 -76.24, 248.92 -101.62, 231.14 -115.72 M304.8 -54.36 C285.48 -70.68, 265.71 -87.89, 230.59 -118.02 M304.99 -57.74 C278.73 -79.87, 253.15 -104.47, 236.32 -118.56 M303.25 -60.13 C281.5 -78.92, 258.65 -98.23, 235.75 -117.71 M304.27 -64.25 C286.44 -79.68, 267.75 -95.17, 244.25 -118.28 M303.57 -63.97 C283.77 -80.95, 266.52 -97.51, 242.14 -117.65 M302.06 -68.19 C290.36 -81.67, 281.32 -88.09, 249.07 -118.89 M302.7 -69.18 C282.18 -87.56, 262.11 -106.34, 248.7 -118.04 M305.46 -76.11 C287.4 -89.53, 269.99 -106.12, 252.97 -119.17 M303.77 -74.88 C285.55 -91.04, 267.79 -107.3, 253.68 -117.91 M303.83 -81.43 C286.74 -94.22, 273.32 -106.14, 260.77 -118.49 M304.18 -79.84 C286.85 -94.85, 269.46 -110.36, 259.44 -118.66 M304.4 -86.39 C294.26 -93.18, 279.24 -106.25, 264.44 -116.6 M305.46 -84.21 C296.61 -93.08, 286.71 -100.26, 266.28 -118.65 M306.07 -91.71 C297.39 -98.64, 287.94 -103.27, 273.21 -116.8 M304.31 -89.93 C293.24 -100.9, 282.59 -109.77, 272.83 -118.16 M301.97 -95.88 C293.92 -103.82, 282.51 -111.63, 277.58 -117.7 M303.54 -95.84 C293.28 -105.6, 283.94 -114.2, 277.34 -119.94 M304.31 -102.21 C298.65 -107.64, 289.17 -113.51, 283.95 -116.52 M304.06 -101.49 C296.33 -108.05, 290.81 -112.76, 284.59 -118.23 M302.69 -109.01 C298.76 -111.15, 295.68 -112.1, 292.26 -118.01 M303.42 -107.51 C298.31 -110.82, 295.27 -113.86, 291.09 -118.47" stroke="#6791ee" stroke-width="0.5" fill="none"></path><path d="M0.79 0.4 C0.2 -13.45, -5.75 -64.51, -3.08 -83.97 C-0.42 -103.43, -8 -111.16, 16.78 -116.36 C41.56 -121.56, 112.57 -114.97, 145.62 -115.17 C178.68 -115.37, 190.89 -117.45, 215.12 -117.58 C239.34 -117.71, 276.73 -119.09, 290.97 -115.94 C305.21 -112.78, 298.83 -113.69, 300.57 -98.66 C302.31 -83.64, 301.52 -41.51, 301.38 -25.8 C301.24 -10.08, 303.94 -8.45, 299.74 -4.38 C295.53 -0.32, 285.44 -1.04, 276.15 -1.41 C266.85 -1.78, 259.74 4.93, 243.95 -6.63 C228.15 -18.19, 200.16 -67.42, 181.37 -70.76 C162.58 -74.11, 145.95 -29.87, 131.19 -26.69 C116.44 -23.52, 106.02 -55.73, 92.83 -51.72 C79.65 -47.71, 67.37 -11.17, 52.1 -2.63 C36.83 5.91, 9.91 -0.67, 1.21 -0.48 M-0.25 -0.43 C-1 -14.57, -7 -66.78, -3.76 -85.87 C-0.53 -104.95, -5.77 -109.74, 19.16 -114.94 C44.09 -120.15, 113.31 -116.66, 145.83 -117.11 C178.35 -117.55, 190.38 -117.7, 214.26 -117.63 C238.14 -117.55, 274.72 -120.16, 289.13 -116.66 C303.53 -113.15, 298.27 -111.79, 300.68 -96.6 C303.09 -81.41, 303.99 -41.18, 303.6 -25.53 C303.21 -9.89, 303.31 -6.67, 298.35 -2.73 C293.4 1.21, 282.84 -0.84, 273.85 -1.87 C264.86 -2.9, 259.5 2.66, 244.41 -8.9 C229.31 -20.47, 202.17 -68.12, 183.28 -71.25 C164.38 -74.38, 145.72 -30.99, 131.03 -27.7 C116.35 -24.41, 108.32 -55.66, 95.17 -51.51 C82.02 -47.36, 68.13 -10.98, 52.12 -2.79 C36.11 5.39, 8.06 -2.74, -0.88 -2.4" stroke="#6791ee" stroke-width="1" fill="none"></path></g></g><mask></mask><g stroke-linecap="round"><g transform="translate(261.8462883302143 143.06520244567537) rotate(0 -97.16729263767343 -12.74500931185105)" fill-rule="evenodd"><path d="M-246.92 3.99 C-246.92 3.99, -246.92 3.99, -246.92 3.99 M-246.92 3.99 C-246.92 3.99, -246.92 3.99, -246.92 3.99 M-246.76 9.7 C-244.83 8.5, -243.71 4.99, -238.02 0.12 M-247.5 10.52 C-245.74 8.54, -242.94 5.65, -238.38 0.95 M-249 20.34 C-247 15.33, -240 11.48, -232.43 2.8 M-250.41 18.96 C-245.59 14.98, -242.94 11.36, -233.58 0.99 M-248.98 25.3 C-245.49 18.61, -239.5 15.48, -230.59 -0.68 M-247.62 23.59 C-242.71 16.6, -236.17 8.49, -228.07 0.7 M-248.64 30.02 C-239.31 23.45, -235.31 14.41, -221.31 1.6 M-246.46 28.09 C-239.5 19.24, -229.51 7.92, -222.76 1.47 M-243.71 29.73 C-233.6 20.24, -227.95 9.41, -219.83 2.25 M-243.61 30.6 C-235.34 19.65, -224.61 9.49, -217.18 1.01 M-244.5 37.12 C-235.3 28.79, -230.72 21.76, -212.76 -0.05 M-241.91 36.05 C-235.09 25.86, -226.18 16.57, -213.29 2.4 M-240.57 38.19 C-232.52 29.14, -224.62 19.96, -207.86 2.69 M-239.77 37.22 C-228.04 25.76, -217.95 14.12, -209.04 1.54 M-235.08 37.27 C-226.28 26.52, -213.32 16.31, -202.62 1.19 M-235.3 37.98 C-224.87 28.22, -216.53 18.22, -203.62 1.79 M-228.08 40.4 C-217.47 25.6, -205.11 10.47, -200.06 1.86 M-230.26 39.88 C-222.24 29.77, -213.66 20.73, -198.99 3.12 M-226.32 38.57 C-215.18 29.6, -203.94 14.81, -193.99 0.41 M-225.62 39.64 C-213.37 27.17, -200.3 12.58, -191.87 3.03 M-157.68 -37.7 C-157.68 -37.7, -157.68 -37.7, -157.68 -37.7 M-157.68 -37.7 C-157.68 -37.7, -157.68 -37.7, -157.68 -37.7 M-222.09 42 C-191.68 6.01, -163.26 -26.13, -146.09 -41.72 M-219.64 40.84 C-196.67 14.22, -175.53 -10.12, -147.72 -44.23 M-213.15 41.34 C-191.11 13.23, -170.66 -11.34, -143.92 -42.8 M-214.2 40.76 C-197.48 20.19, -179.48 -1.18, -142.47 -42.48 M-210.2 40.8 C-194.91 21.09, -178.92 3.31, -138.46 -41.63 M-209.04 39.84 C-186.13 14.05, -162.09 -12.55, -139.59 -39.75 M-203.45 39.75 C-176.85 12.28, -152.87 -17.77, -138.36 -37.39 M-203.82 38.44 C-185.12 18.13, -168.12 -1.09, -136.27 -37.36 M-197.6 40.12 C-175.4 13.69, -151.53 -14.93, -134.12 -33.98 M-198.53 37.98 C-174.64 13.41, -152.59 -11.7, -134.79 -34.86 M-193.06 36.58 C-176.6 21.17, -158.48 -0.73, -132.64 -33.16 M-191.36 38.37 C-171.1 12.99, -149.51 -10.95, -130.83 -30.96 M-185.81 37.45 C-169.81 18.41, -154.71 0.63, -127.05 -27.07 M-186.33 39.1 C-171.77 22.67, -158.33 6.9, -128.02 -28.85 M-181.89 39.92 C-162.11 13.57, -139.25 -9.29, -126.58 -24.06 M-180.5 37.71 C-157.87 11.96, -136.39 -12.49, -125.52 -25.77 M-176.61 38.72 C-160.18 19.63, -142.41 0.05, -123.07 -20.48 M-174.85 38.65 C-154.48 14.61, -134.7 -9.16, -123.24 -21.63 M-168.41 36.56 C-158.58 25.04, -150.92 11.38, -120.2 -19.29 M-168.91 36.98 C-159.25 25.5, -149.43 12.62, -118.82 -21.36 M-165.98 36.85 C-152.97 22.3, -137.81 6.99, -117.92 -19.57 M-163.59 37.26 C-146.54 17.04, -130.98 -3.33, -116.76 -17.21 M-159.57 39.05 C-138.9 14.5, -122.2 -8.2, -71.08 -64.16 M-159.17 38.15 C-140.04 16.34, -120.96 -6.84, -70.73 -64.21 M-152.09 35.46 C-128.34 8.95, -101.02 -21.95, -67.22 -63.53 M-154.19 37.42 C-133.63 15.61, -115.64 -7.69, -66.16 -64.77 M-149.64 38.85 C-130.66 16.43, -110.9 -6.38, -63.04 -62.85 M-148.6 36.77 C-128.76 14.63, -107.32 -8.95, -62.37 -61.54 M-144.04 37.41 C-111.34 1.89, -78.56 -38.83, -59.71 -58.41 M-144.12 37.02 C-126.48 18.78, -108.47 -1.83, -58.61 -60.65 M-139.37 38.94 C-114.13 6.71, -88.05 -22.2, -56.67 -59.94 M-137.41 37.54 C-114.94 9.79, -92.5 -15.62, -55.58 -57.77 M-134.46 37.77 C-103.02 4.25, -70.76 -32.5, -51.44 -53.95 M-132.33 37.36 C-111.13 14.46, -90.53 -10.57, -51.98 -56.25 M-126.1 39.22 C-96.98 4.86, -67.3 -31.93, -48.88 -53.77 M-127.84 36.83 C-101.44 8.21, -76.09 -21.73, -49.44 -52.92 M-122.2 38.06 C-99.99 13.11, -78.87 -12.54, -44.32 -51.13 M-122.89 38.34 C-100.46 11.57, -75.17 -15.83, -46.44 -50.5 M-118.37 39.36 C-104.04 18.71, -86.71 4.66, -42.13 -48.72 M-117.73 38.38 C-88.36 5.38, -58.66 -27.79, -42.5 -47.88 M-110.34 36.79 C-87 9.81, -62.89 -20.3, -40.86 -45.98 M-112.03 38.03 C-86.39 7.23, -60.02 -23.4, -40.14 -44.73 M-105.93 36.72 C-84.4 8.16, -59.09 -18.41, -36.44 -42.94 M-105.59 38.31 C-79.11 6.48, -52.3 -25.75, -37.76 -43.11 M-101.49 36.45 C-80.17 15.87, -63.32 -10.5, -35.39 -38.03 M-100.44 38.64 C-85.66 19.14, -71.75 2.02, -33.55 -40.08 M-94.44 37.13 C-79.03 18.48, -64.8 2.29, -30.66 -35.11 M-96.2 38.92 C-74.38 12.69, -52.34 -12.13, -31.03 -36.47 M-92.5 38.22 C-67.2 11.54, -45.69 -14.35, -28.15 -32.34 M-90.94 38.26 C-67.1 10.09, -41.93 -17.46, -28.39 -34.58 M-84.78 37.89 C-63.31 14.94, -46.11 -8.67, -26.57 -28.7 M-85.03 38.61 C-65.66 13.4, -43.98 -9.41, -25.93 -30.41 M-80.42 36.01 C-63.95 17.63, -46.93 1.25, -21.29 -27.79 M-79.51 37.88 C-61.13 15.55, -40.67 -5.92, -22.75 -28.36 M-75.02 38.28 C-57.07 18.17, -38.11 -3.95, -20.84 -23.69 M-75.17 37.43 C-54.24 14.66, -32.55 -9.47, -20.9 -24.74 M-69.2 39.2 C-58.5 22.84, -45.31 10.22, -19.47 -19.99 M-70.92 39.13 C-57.17 23.7, -46.21 11.44, -18.66 -21.66 M-63.8 38.52 C-46.63 18.17, -26.66 -2.21, -14.32 -19.37 M-63.66 37.08 C-48.1 18.09, -30.09 -0.23, -15.49 -18.38 M-61.01 39.65 C-46.98 24.1, -30.75 7.33, -12.6 -15.13 M-59.12 38.26 C-49.31 26.04, -37.09 10.96, -13.82 -15.6 M-52.98 38.59 C-34.09 18.27, -17.65 -3.51, -10.12 -12.3 M-53.22 38.66 C-37.94 19.4, -20.28 -0.48, -9.42 -12.36 M-50.24 38.17 C-36.5 26.79, -26.54 16.77, -5.8 -7.4 M-48.16 37.7 C-38.46 26.73, -30.32 15.73, -8.54 -8.61 M-42.29 36.92 C-34.74 30.17, -27.05 18.6, -3.55 -6.31 M-43.82 38.39 C-28.93 22.1, -15.6 5.08, -3.54 -6.82 M-38.81 39.54 C-23.74 25.18, -13.84 8.23, -2.74 -4.02 M-38.57 37.98 C-31.92 29.8, -24.84 20.73, -2.1 -2.54 M-32.72 37.38 C-24.72 28.37, -17.6 19.18, -0.78 -1.76 M-33.16 39.63 C-27.23 30.99, -20.18 23.18, 0.51 0.74 M-26.87 39.28 C-14.84 24.31, -6.68 12.92, 6.32 -1.53 M-27.03 37.54 C-18.44 26.67, -7.76 14.7, 6.17 0.19 M-24.43 39.85 C-14.76 29.03, -10.42 23.37, 10.99 1.39 M-23.5 38.4 C-9.74 22.97, 4.01 8.8, 11.15 -0.58 M-19.47 38.36 C-9.01 27.72, -0.06 18.52, 17.28 -1.72 M-18.02 38.48 C-8.76 28.89, 0.02 20.37, 16.7 -0.47 M-12.15 39.17 C1.34 25.5, 11.6 8.9, 21.89 0.25 M-12.11 39.34 C0.53 24.14, 14.69 7.76, 22.22 0.55 M-5.86 38.21 C6.5 25.62, 19.7 9.79, 26.18 -1.64 M-6.18 38.49 C2.23 30.41, 9.54 20.51, 26.66 -1.15 M0.17 39.88 C9.53 28.36, 18.25 17.63, 31.74 1.87 M-0.88 39.5 C7.29 26.99, 16.97 16.57, 32.3 -0.45 M2.46 39.26 C17.61 24.48, 29.37 8.97, 36.48 -1.64 M2.74 38.45 C12.43 27.6, 21.1 18.7, 38.18 -0.1 M8.69 39.01 C18.44 26.7, 30.41 13.17, 40.83 1.5 M7.97 40.06 C18.81 28.01, 26.85 18.29, 40.53 1.24 M12.49 39.87 C22.82 30.65, 27.33 23.04, 43.79 2.65 M13.5 38.36 C22.02 31.9, 27.24 24.34, 46.14 1.82 M18.35 41.05 C30.91 27.62, 41.63 13.75, 51.18 4.87 M19.58 38.34 C27.03 31.32, 35.14 22.72, 50.87 3.07 M22.97 39.16 C32.91 31.59, 37.12 26.4, 53.1 6.07 M25.71 39.1 C33.97 26.58, 45.19 14.74, 52.38 5.89 M28.87 40.45 C36.04 31.21, 42.43 27.29, 55.33 8.19 M29.46 39.3 C35.1 32.06, 42.1 25.3, 55.86 10.15 M33.78 39.69 C42.92 31.25, 48.89 24.81, 54.27 15.93 M34.19 40.22 C40.24 33.02, 45.08 26.78, 56.18 14.54 M39.45 40.64 C47.49 34.83, 50.8 25.74, 56.23 21.37 M41.15 39.54 C47.76 31.81, 54.08 23.11, 57.53 19.47 M46.38 38.65 C50.48 36.57, 53.73 29.91, 56.52 27.58 M44.74 39.83 C49.16 36.25, 51.94 32.92, 55.87 26.16 M50.52 40.04 C52.07 37.03, 54.13 33.94, 57.35 30.8 M50.81 39.09 C52.97 37.07, 54.32 35.99, 58.01 31.28 M-244.07 33.85 C-244.07 33.85, -244.07 33.85, -244.07 33.85 M-244.07 33.85 C-244.07 33.85, -244.07 33.85, -244.07 33.85 M-236.89 33.41 C-239.96 31.2, -243.81 29.03, -245.73 26.6 M-238.11 33.67 C-239.41 32.71, -240.44 31.47, -245.53 27.95 M-225.36 37.75 C-231.73 31.85, -239.64 26.63, -251.31 20.44 M-226.58 39.07 C-234.47 31.85, -243.54 25.04, -249.43 18.44 M-222.6 38.86 C-228.78 32.47, -236.47 25.15, -249.74 14.06 M-221.68 37.68 C-227.39 32.43, -234.79 25.24, -248.44 13.21 M-214.33 37.28 C-225.66 30.71, -235.98 21.05, -246.74 8.36 M-216.06 37.8 C-226.7 27.1, -240 16.28, -248.66 9.25 M-209.06 36.77 C-216.7 32.71, -225.04 22.58, -246.37 3.98 M-209.82 37.8 C-217.61 29.94, -228.1 21.77, -247.11 3.97 M-202.18 37.82 C-213.91 29.43, -220.65 21.36, -245.99 1.87 M-203.57 38.08 C-220.36 22.37, -236.53 9.7, -245.22 0.43 M-196.65 35.73 C-216.96 22.18, -233.1 7.62, -241.78 -2.4 M-197.84 36.41 C-214.49 22.85, -232 8.4, -242.02 -2.23 M-193.2 38.2 C-204.05 28.01, -216.13 17.26, -235.82 -3.27 M-192.97 35.72 C-201.68 28.94, -210.11 20.3, -237.98 -2.11 M-186.74 36.15 C-204.34 22.48, -219.54 7.75, -230.09 -2.88 M-186.3 36.13 C-195.83 28.08, -205.87 18.99, -230.74 -2.1 M-181.61 35.92 C-192.46 24.37, -204.55 14.21, -225.43 -2.92 M-181.02 35.4 C-196.86 19.89, -213.48 6.77, -224.7 -2.42 M-175.94 34.12 C-186.65 25.38, -199.64 15.32, -218.42 -2.46 M-175.4 36.95 C-186.21 26.23, -199.06 15.14, -217.74 -2.35 M-168.65 34.54 C-186.55 20.49, -203.57 4.67, -212.83 -1.76 M-169.37 35.02 C-178.94 26.12, -189.59 18, -213.31 -2.71 M-165.08 32.87 C-177.03 25.65, -185.34 16.05, -207.83 -3.44 M-162.99 34.62 C-176.34 24.14, -188.97 12.59, -206.38 -2.85 M-158.98 35.01 C-166.98 26.63, -175.36 17.39, -198.91 -1.56 M-158.05 34.03 C-172 21.3, -188.48 8.18, -199.09 -0.56 M-152.19 36.57 C-167.37 19.18, -183.87 5.72, -194.61 -2.78 M-150.53 35.54 C-160.22 26.57, -171.56 18.23, -193.17 -2.93 M-144.28 36.34 C-159.05 21.33, -173.28 9.65, -189.36 -4.93 M-143.97 35.14 C-162.14 21.09, -180.05 4.72, -189.52 -3.75 M-139.29 33.21 C-149.31 26.24, -160.44 17.75, -186.26 -3.36 M-138.91 34.61 C-153.05 20.91, -168.9 9.45, -184.72 -3.67 M-133.9 36.94 C-145.99 24, -162.43 10.72, -182.26 -8.83 M-132.73 34.59 C-142.83 24.7, -153.63 17.12, -180.9 -6.77 M-127.12 34.43 C-142.88 17.88, -161.78 2.49, -179.76 -8.67 M-126.13 36.03 C-144.69 21.04, -160.3 5.56, -179.09 -9.61 M-121.2 35.9 C-141.64 15.11, -164.59 -1.32, -176.93 -12.53 M-119.77 34.53 C-136.95 23.35, -150.22 8.93, -174.2 -11.69 M-112.62 34.98 C-125.48 25.32, -139.17 14.79, -171.79 -17.55 M-113.86 35.78 C-132.93 20, -150.05 4.5, -172.91 -16.43 M-107.73 37.04 C-122.98 22.95, -136.09 9.55, -170.93 -18.21 M-107.68 35.96 C-132.14 15.25, -156.88 -7.08, -171.03 -17.83 M-101.72 35.28 C-129.83 11.72, -155.73 -9.37, -168.23 -20.74 M-103.14 35.19 C-125.53 14.35, -147.4 -5.59, -167.98 -22.59 M-95.53 36.93 C-115.03 21.2, -130.83 3.14, -167.25 -27.01 M-95.48 35.83 C-114.55 19.44, -132.62 2.42, -165.88 -24.84 M-89.55 37.48 C-109.89 18, -132.11 -3.96, -162.46 -27.61 M-89.65 36 C-111.36 18.02, -133.71 -1.29, -164.49 -28.97 M-84.59 34.84 C-101 19.54, -117.06 8.18, -162.38 -30.37 M-83.02 35.93 C-99.24 22.75, -116.99 8.9, -161.12 -32.95 M-76.73 37.48 C-104.31 10.25, -131.66 -12.85, -158.82 -37.47 M-76.97 35.35 C-96.78 19.47, -113.49 4.47, -159.53 -35.22 M-69.11 36.72 C-96.93 12.44, -123.12 -11.05, -158.02 -37.98 M-70.33 35.95 C-104.35 7.92, -137.75 -22.42, -157.8 -37.99 M-66.06 35.51 C-95.53 6.86, -129.81 -19.17, -152.36 -39.6 M-64.31 35.41 C-95.73 9.71, -127.77 -18.53, -153.8 -40.79 M-57.8 35.3 C-87.62 9.11, -117.14 -13.53, -149.57 -42.5 M-58.84 36.5 C-96.32 3.18, -131.86 -27.61, -151.06 -45.09 M-50.62 36.9 C-71.69 19.15, -91.41 0.47, -117.94 -21.59 M-53.53 35.11 C-76.45 16.92, -99.18 -3.35, -117.75 -20.3 M-122.39 -23.95 C-131.81 -32.77, -143.3 -40.72, -147.32 -46.49 M-122.9 -23.91 C-128.67 -29.79, -135.32 -35.86, -148.36 -46.6 M-48.03 35.08 C-63.99 20.35, -80.98 6.44, -113.77 -20.78 M-46.52 36.14 C-73.49 13.51, -99.38 -8.87, -112.11 -21.89 M-40.9 36.7 C-59.22 22.38, -77.26 5.12, -110.15 -23.67 M-40.13 35.71 C-61.33 18.26, -82.33 0.24, -108.19 -22.35 M-35.01 37.34 C-51.14 22.82, -68.55 5.66, -106.18 -25.33 M-34.63 35.72 C-58.22 15.26, -82.18 -5.81, -105.62 -25.41 M-26.37 37.43 C-47.3 18.13, -68.87 -1, -102.45 -28.22 M-27.06 35.93 C-42.98 22.66, -59.07 8.4, -103.93 -29.99 M-22.4 37.87 C-41.72 21.84, -60.75 4.02, -99.21 -31.94 M-22.79 36.68 C-48.74 10.93, -76.15 -11.2, -99.69 -33.03 M-14.93 38.2 C-44.53 15.55, -70.47 -11.01, -96.04 -33.72 M-16.22 37.28 C-42.78 12.61, -68.52 -10.72, -98.86 -34.87 M-9.86 34.86 C-36.04 14.35, -60.61 -8.63, -95.02 -36.28 M-9.16 37.47 C-29.66 19.34, -50.28 1.76, -95.73 -38.75 M-3.35 35.96 C-31.66 8.5, -62.94 -15.98, -94.69 -42.23 M-2.73 36.45 C-28.22 14.28, -52.39 -7.16, -93.59 -42.14 M3.47 38.22 C-24.57 11.63, -48.46 -7.56, -90.22 -43.3 M3.2 36.98 C-30.92 8.82, -65.34 -20.23, -90.58 -45.65 M8.35 37.73 C-24.47 7.67, -56.47 -21.24, -87.12 -46.08 M10.15 36.39 C-18.2 14.58, -44 -9.54, -88.14 -47.6 M14.22 36.23 C-17.89 8.65, -50.4 -20.78, -85.4 -49.23 M14.59 36.1 C-16.11 10.55, -45.22 -14.68, -84.92 -50.95 M20.23 35.25 C-8.51 11.65, -34.1 -15.11, -81.54 -53.89 M21.28 35.92 C-1.64 17.89, -23.12 -1.78, -83.41 -54.6 M26.83 36.26 C-9.33 3.34, -49.27 -31.83, -80.39 -56.23 M27.66 37.5 C-16.31 -1.53, -60.75 -37.97, -81.61 -57.59 M32.09 36.95 C-3.89 4.32, -44.92 -29.58, -77.37 -62.55 M34.38 36.74 C-8.3 0.95, -48.36 -35.07, -77.95 -61.12 M40.75 35.36 C15.47 15.49, -5.26 -3.5, -72.68 -63.79 M39.68 37.21 C13.29 14.18, -11.45 -6.64, -75.14 -62.71 M47.28 36.03 C38.11 29.57, 28.1 20.43, 1.72 -0.29 M46.75 36.49 C31.4 23.75, 15.97 11.17, 2.03 -1.82 M3.29 -2.68 C-15.23 -16.38, -33.9 -31.75, -72.68 -64.92 M2.36 -1.33 C-19.15 -18.38, -38.04 -36.59, -71.76 -64.76 M54.29 37.42 C37.45 26.68, 22.92 11.41, 7.59 -2.17 M53.96 38.68 C41.7 26.87, 29.48 16.84, 7.42 -0.51 M-17.49 -24.64 C-35.81 -39.03, -51.45 -54.99, -65.7 -66.69 M-16.26 -23.59 C-32.47 -36.3, -46.96 -49.88, -64.61 -65.11 M54.37 32.76 C44.42 26.16, 35.1 13.71, 12.73 -3.26 M54.39 32.75 C44.58 25.49, 36.03 17.66, 14.31 -2.34 M54.78 29.7 C48.04 20.37, 39.15 13.31, 18.41 -1.14 M54.7 28.64 C48.78 23.74, 40.12 16.64, 19.74 -1.9 M58.39 26.95 C49.43 19.6, 41.81 12.75, 24.75 -4.01 M57.1 25.54 C48.83 18.3, 40.77 11.75, 25.51 -2.14 M56.8 20.87 C53.56 16.52, 46.58 8.24, 33.44 -3.05 M58.1 21.54 C50.23 14.29, 41.2 5.51, 32.43 -0.86 M60.66 17.75 C55.32 11.11, 48.64 7.23, 37.98 1.01 M58.72 15.93 C52.04 11.51, 47.89 5.24, 39.11 -0.22 M55.14 7.49 C53.58 5.43, 52.45 5.41, 48.09 1.41 M55.16 7.75 C53.94 6.71, 52.01 5.1, 48.32 2.15" stroke="#4978eb" stroke-width="0.5" fill="none"></path><path d="M-0.12 -1.08 C-11.24 -11.75, -46.63 -60.57, -65.59 -63.75 C-84.55 -66.92, -99.75 -23.08, -113.88 -20.12 C-128.01 -17.16, -138.1 -48.93, -150.39 -45.97 C-162.69 -43.01, -171.99 -10.16, -187.67 -2.34 C-203.35 5.49, -235.81 -5.67, -244.46 0.99 C-253.11 7.64, -251.69 31.56, -239.57 37.59 C-227.46 43.63, -192.2 37.2, -171.76 37.2 C-151.32 37.21, -150.6 37.45, -116.94 37.63 C-83.29 37.82, 1.87 38.87, 30.17 38.32 C58.47 37.77, 49.67 40.37, 52.87 34.33 C56.07 28.29, 58.21 7.65, 49.39 2.08 C40.58 -3.48, 8.15 1.45, -0.01 0.95 M-1.64 0.97 C-13.02 -10.06, -47.75 -62.21, -66.6 -65.5 C-85.44 -68.79, -100.67 -22.13, -114.69 -18.78 C-128.71 -15.43, -138.86 -48.18, -150.71 -45.42 C-162.57 -42.67, -170.41 -9.77, -185.81 -2.23 C-201.21 5.32, -234.34 -6.67, -243.12 -0.16 C-251.91 6.34, -250.8 30.54, -238.54 36.81 C-226.29 43.07, -190.13 37.42, -169.58 37.43 C-149.04 37.43, -148.16 36.79, -115.25 36.83 C-82.35 36.87, -0.18 37.99, 27.84 37.65 C55.86 37.31, 49.53 40.84, 52.88 34.79 C56.24 28.75, 56.73 7.08, 47.96 1.39 C39.18 -4.31, 8.22 1.11, 0.21 0.62" stroke="#4978eb" stroke-width="1" fill="none"></path></g></g><mask></mask><g stroke-linecap="round"><g transform="translate(180.8963448947893 207.86553594825864) rotate(0 -16.984368987370715 -14.382150202431149)" fill-rule="evenodd"><path d="M-34.39 -25.92 C-34.39 -25.92, -34.39 -25.92, -34.39 -25.92 M-34.39 -25.92 C-34.39 -25.92, -34.39 -25.92, -34.39 -25.92 M-35.63 -19.61 C-33.13 -21.7, -31.4 -23.31, -29.98 -24.98 M-35.63 -18.71 C-33.26 -21.09, -31.59 -22.69, -29.79 -25.84 M-34.14 -11.74 C-32.17 -15.7, -30.3 -17.31, -24.56 -26.48 M-36.2 -12.44 C-30.21 -17.2, -25.73 -22.68, -23.84 -25.92 M-34.64 -6.45 C-27.72 -14.97, -19.16 -25.12, -15.1 -30.1 M-36.37 -6.38 C-29.39 -14.1, -23.5 -21.74, -15.23 -29.81 M-33.22 0.41 C-23.98 -10.25, -14.3 -24.7, -9.15 -28.24 M-34.51 -0.76 C-28.54 -7.1, -25.01 -13.38, -11.19 -28.6 M-31.35 2.34 C-26.54 -6.95, -21.59 -10.65, -5.99 -27.68 M-31.27 2.47 C-22.08 -8.92, -13.57 -19.43, -6.76 -28.4 M-25.15 2.42 C-17.94 -9.37, -8.51 -19.12, -3.43 -28.35 M-27.04 0.4 C-17.19 -9.27, -7.72 -21.21, -1.2 -26.14 M-20.42 2.04 C-14.3 -8.82, -3.2 -19.88, 0.33 -24.49 M-20.87 2.07 C-13.73 -7.37, -6.77 -16.59, 1.39 -23.44 M-17.35 1.3 C-7.13 -8.75, -2.47 -16.16, 2.73 -20.14 M-15.81 2.07 C-11.09 -3.14, -7.24 -7.65, 2.48 -19.89 M-8.36 -1.07 C-8.38 -4.31, -3.35 -8.01, 1.18 -12.07 M-10.32 0.53 C-5.4 -4.27, -0.97 -9.99, 2.5 -12.73 M-4.72 0.14 C-2.43 -0.84, -0.14 -2.67, 2.51 -7.21 M-4.69 0.6 C-3.16 -1.24, -1.05 -3.31, 1.92 -6.78" stroke="#6791ee" stroke-width="0.5" fill="none"></path><path d="M0.46 0.55 C0.53 -3.99, 5.14 -22.22, -0.37 -27 C-5.88 -31.78, -26.8 -30.56, -32.57 -28.13 C-38.35 -25.7, -35.16 -17.18, -35.03 -12.43 C-34.9 -7.69, -37.67 -1.9, -31.82 0.32 C-25.96 2.54, -5.17 0.99, 0.09 0.89 M-0.75 -0.21 C-0.76 -4.63, 3.7 -21.46, -1.19 -25.88 C-6.08 -30.3, -24.48 -29.16, -30.08 -26.73 C-35.68 -24.29, -34.31 -15.85, -34.77 -11.29 C-35.24 -6.73, -38.91 -1.3, -32.86 0.64 C-26.8 2.57, -3.97 0.71, 1.56 0.32" stroke="#6791ee" stroke-width="1" fill="none"></path></g></g><mask></mask><g stroke-linecap="round"><g transform="translate(212.47315216485617 208.32659725091207) rotate(0 -50.65421512226044 5.0283939920968805)" fill-rule="evenodd"><path d="M-103.16 3.07 C-103.16 3.07, -103.16 3.07, -103.16 3.07 M-103.16 3.07 C-103.16 3.07, -103.16 3.07, -103.16 3.07 M-100.32 6.88 C-99.65 5.15, -98.81 4.61, -97.83 2.96 M-100.71 6.38 C-99.68 5.04, -98.75 3.86, -97.43 2.62 M-96.24 7.94 C-94.79 4.48, -93.11 3.18, -91.19 1.79 M-96.73 7.66 C-94.84 5.67, -93.23 4.45, -91.05 1.37 M-91.59 8.08 C-90.25 5.22, -86.28 2.17, -84.75 0.2 M-91.83 9.08 C-89.48 5.97, -87.3 2.95, -85.73 1.25 M-88.3 10.39 C-85.55 7.78, -85.75 4.79, -80.95 1.45 M-88.56 10.46 C-86.09 7.09, -82.73 3.98, -79.92 0.74 M-82.22 10.4 C-81.43 7.54, -78.77 6.21, -75.07 2.21 M-83.07 10.77 C-81.92 8.47, -79.32 5.99, -75.58 1.64 M-78.54 12.44 C-76.45 7.02, -71.12 4.52, -70.4 1.38 M-78.17 11.4 C-75.32 7.43, -71.75 3.08, -69.9 1.12 M-73.62 11.46 C-69.88 7.06, -68.59 4.22, -63.7 0.29 M-72.9 11.11 C-69.89 7.35, -65.67 2.69, -64.54 1.35 M-67.43 10.07 C-66 9.86, -62.83 5.09, -58.75 0.35 M-67.37 11.7 C-66.72 8.9, -65.07 7.5, -59.4 0.98 M-61.52 10.56 C-59.92 9.4, -58.45 6.38, -52.65 1.07 M-62.23 10.99 C-60.05 9.55, -57.99 6.38, -54.23 0.53 M-57.06 11.62 C-55.32 9.79, -53.29 4.93, -48.43 2.66 M-56.76 11.47 C-54.44 7.95, -51.16 4.32, -48.56 1.37 M-52.75 12.56 C-48.84 7.29, -44.88 2.58, -42.59 2.26 M-52.33 11.99 C-48.95 8.14, -45.24 4.49, -42.55 0.98 M-47.7 13.3 C-45.33 9.54, -40.11 3.78, -38.51 2.25 M-47.51 12.32 C-43.82 8.23, -40.49 4.04, -37.42 0.85 M-43.27 12.11 C-38.34 7.48, -36.43 4.33, -34.11 1.83 M-42.35 12.42 C-40.92 9.86, -37.65 7.2, -33.42 2.12 M-37.08 11.11 C-34.03 9.35, -30.82 7.12, -26.09 1.68 M-37.18 11.84 C-34.3 10.16, -32.41 6.69, -26.95 1.19 M-30.67 11.06 C-30.35 8.6, -26.47 7.87, -21.15 2.32 M-31.66 11.65 C-29.24 9.9, -26.16 6.55, -22.22 1.32 M-26.37 13.9 C-22.34 9.55, -21.5 4.84, -17.46 2.44 M-26.34 12.31 C-24.26 9.32, -21.3 7.42, -18.14 1.4 M-20.91 11.92 C-18.85 9.14, -14.59 6.28, -13.15 2.84 M-21.72 12.71 C-18.92 9.14, -15.74 6.2, -11.64 2.03 M-16.4 13.26 C-11.69 8.32, -9.63 5.84, -7.28 2.76 M-15.49 12.58 C-12.57 9.42, -9.45 4.88, -7.3 2.32 M-10.58 13.72 C-7.95 8.01, -2.53 5.61, -1.56 1.31 M-11.48 12.75 C-8.23 9.76, -5.11 7.32, -0.14 -0.04 M-5.89 13.37 C-2.98 10.35, -1.78 7.58, 1.98 4.11 M-5.56 13.35 C-4.67 10.86, -2.35 9.12, 1.08 5.1" stroke="#4978eb" stroke-width="0.5" fill="none"></path><path d="M-0.85 -1.03 C-15.68 -1.1, -73.26 -1.91, -89.28 -0.29 C-105.29 1.34, -107.71 6.66, -96.93 8.74 C-86.14 10.81, -40.72 11.89, -24.56 12.19 C-8.41 12.49, -4.28 12.49, -0.01 10.54 C4.25 8.59, 1.21 2.08, 1.03 0.51 M0.91 1.04 C-13.98 0.6, -73.27 -3.08, -89.77 -2.12 C-106.26 -1.15, -108.97 4.82, -98.05 6.84 C-87.13 8.86, -40.9 9.87, -24.23 10.02 C-7.56 10.18, -1.94 9.49, 1.98 7.78 C5.91 6.06, -0.18 0.97, -0.68 -0.27" stroke="#4978eb" stroke-width="1" fill="none"></path></g></g><mask></mask></svg>