<svg version="1.1" xmlns="http://www.w3.org/2000/svg" viewBox="0 0 218.00264818776463 213.40323257844057" width="218.00264818776463" height="213.40323257844057">
  <!-- svg-source:excalidraw -->
  
  <defs>
    <style class="style-fonts">
      @font-face {
        font-family: "Virgil";
        src: url("https://excalidraw.com/Virgil.woff2");
      }
      @font-face {
        font-family: "Cascadia";
        src: url("https://excalidraw.com/Cascadia.woff2");
      }
    </style>
  </defs>
  <g stroke-linecap="round"><g transform="translate(12.006060403825131 86.63881565816246) rotate(0 38.397878179509235 19.234736141346502)" fill-rule="evenodd"><path d="M0 0 C0 0, 0 0, 0 0 M0 0 C0 0, 0 0, 0 0 M-0.58 5.69 C1.13 4.96, 2.41 3.61, 4.35 1.01 M-0.37 6.28 C1.32 4.25, 3.59 2.43, 5.31 0.4 M1.4 11.03 C3.41 7.72, 4.23 5.05, 9.3 0.67 M-0.25 11.89 C2.86 9.31, 5.64 5.24, 10.79 0.3 M32.94 -25.69 C32.94 -25.69, 32.94 -25.69, 32.94 -25.69 M32.94 -25.69 C32.94 -25.69, 32.94 -25.69, 32.94 -25.69 M-1.95 17.29 C4.03 13.25, 12.13 3.77, 16.77 -0.75 M-0.68 18.73 C3.01 14, 6.5 11.54, 16.6 -0.43 M32.71 -19.28 C33.87 -19.91, 33.96 -20.95, 35.5 -23.46 M32.64 -19.53 C33.48 -20, 34.35 -21.08, 36.17 -23.13 M0.46 26.61 C4.56 18.78, 9.96 12.55, 20.23 0.12 M0.16 24.08 C6.93 15.43, 15.6 5.97, 22.2 -0.64 M32.34 -12.86 C33.64 -15.72, 35.28 -16.6, 38.64 -20.07 M32.86 -13.37 C34.92 -15.41, 36.45 -17.57, 38.5 -19.65 M0.07 30.67 C8.89 17.01, 19.07 7.83, 25.61 2.14 M-0.57 30.69 C5.89 22.49, 13.72 15.69, 26.97 -0.21 M32.81 -6.99 C35.33 -8.76, 36.37 -12.73, 40.65 -16.87 M32.57 -7.5 C35.96 -10.09, 37.48 -13.7, 41.72 -16.86 M0.37 36.4 C14.75 16.24, 33.97 -2.58, 45.01 -12.6 M0.44 37.45 C11.47 22.78, 23.92 9.19, 45.2 -14.1 M1.99 39.64 C12.88 29.11, 19.39 18.02, 47.28 -12.75 M0.97 40.04 C14.36 26.38, 28.68 11.02, 46.33 -11.49 M8.21 40.12 C16.05 28.33, 23.39 19.74, 51.63 -7.52 M6.53 40.74 C23.65 20.33, 39.75 2.45, 50.49 -8.21 M12.19 38.99 C23.43 28.05, 32.3 17.81, 54.02 -4.87 M12 39.74 C23.82 26.41, 36.55 12, 52.03 -5.88 M16.84 40.46 C27.02 30.17, 37.29 19.92, 56.6 -2.59 M19.11 40.3 C31.69 25.91, 43.71 10.57, 55.52 -3.43 M23.15 39.16 C34.48 30.66, 40.84 20.16, 56.58 2.03 M24.88 39.42 C33.59 30.09, 42.62 18.98, 57.83 -0.49 M28.97 40.22 C36.68 30.11, 44.81 23.02, 61.08 3.99 M29.72 38.13 C40.08 26.97, 50.87 15.26, 61.18 3.71 M28.72 43.86 C43.06 29.8, 55.51 18.8, 65.35 3.89 M29.26 45.41 C41.6 31.58, 52.87 17.27, 64.58 5.94 M29.84 48.57 C40.9 38.27, 52.52 22.09, 66.92 8.54 M30.1 49.65 C43.65 34.69, 55.96 19.6, 66.23 8.81 M30.06 56.3 C43.77 39.6, 58.72 23.97, 69.81 9.45 M29.25 57.11 C41.08 44.99, 51.85 33.61, 68.88 11.57 M30.69 60.5 C40.92 52.56, 50.25 40.14, 72.7 14.19 M30.68 62.23 C43.57 46.99, 57.82 31.37, 72.31 14.79 M31.61 66.92 C38.48 57.33, 46.53 47.06, 73.14 16.95 M30.45 69.73 C47.64 50.12, 61.68 31.97, 74.7 17.12 M29.86 67.77 C29.86 67.77, 29.86 67.77, 29.86 67.77 M29.86 67.77 C29.86 67.77, 29.86 67.77, 29.86 67.77 M32.52 64.94 C31.34 63.8, 30.74 63.37, 29.32 62.07 M32.48 64.92 C31.45 64.03, 30.8 63.18, 29.35 62.23 M0.79 37.2 C0.79 37.2, 0.79 37.2, 0.79 37.2 M0.79 37.2 C0.79 37.2, 0.79 37.2, 0.79 37.2 M34.51 62.02 C33.67 60.49, 31.61 57.82, 28.84 56.18 M34.71 61.61 C34.17 60.56, 32.19 59.2, 28.81 56.83 M6.5 36.12 C4.53 35.79, 2.16 33.53, 0.75 31.75 M6.24 36.89 C5.14 35.34, 4.14 34.74, 1.26 31.87 M38.27 58.21 C34.62 56.08, 31.12 53.1, 29.6 51.7 M37.52 58.52 C34.99 55.89, 31.4 53.34, 28.91 51.91 M11.68 36.33 C7.82 33.61, 4.59 28.2, 0.14 25.59 M11.69 36.93 C10.18 34.81, 7.71 32.14, 1.15 26.11 M41.9 56.66 C38.4 54.62, 33.54 50.55, 28.5 46.87 M40.33 56.45 C37.13 52.07, 32.34 48.33, 28.56 45.19 M18.12 37.7 C13.01 32.72, 8.49 29.23, 2.23 21.15 M18.06 36.51 C13.15 31.48, 6.89 25.6, 1.5 20.82 M42.48 55.02 C39.96 49.49, 34.44 45.09, 29.04 42.61 M44.08 54.21 C39.52 49.7, 32.9 43.89, 29.07 41.69 M24.59 35.02 C20.06 31.22, 14.88 27.82, 2.36 16.45 M23.82 37.05 C16.37 30.8, 9.42 23.84, 0.72 16.01 M45.25 49.48 C33.54 37.62, 22.77 30.06, 1.09 12.72 M45.99 49.51 C32.68 38.57, 19.72 27.33, 1.54 10.46 M50.37 45.4 C31.17 34.04, 14.92 18.01, 2.87 4.86 M48.15 46.77 C36.67 37.91, 24.78 27.57, 1.74 5.08 M53.56 46.22 C40.26 33.39, 27.65 24.38, 1.33 -1.8 M53.12 45.41 C40.17 36.63, 28.48 25.37, 1.15 0.28 M54.56 43.85 C39.98 27.14, 25.19 15.39, 5.11 -1.28 M54.69 41.67 C40.21 29.42, 25.99 17.06, 6.38 0.84 M59.5 38.49 C38.36 23.67, 23.23 9.19, 11.32 0.91 M58.14 38.54 C40.67 25.88, 26.27 10.58, 11.61 0.08 M60.16 36.77 C51.06 27.21, 43.48 22.09, 16.96 -1.76 M60.67 36.18 C50.62 27.59, 41.03 18.62, 18.12 -0.47 M63.58 31.9 C52.67 25, 42.38 13.34, 24.97 1.4 M63.25 33.43 C54.45 24.17, 45.05 17.22, 25.66 -0.41 M67.3 29.86 C52.61 18.39, 37.7 6.03, 30.73 -0.82 M67.1 30.16 C57.01 22.03, 46.34 12.39, 31.08 -0.48 M68.02 28.17 C58.07 16.09, 43.65 6.39, 31.69 -4.74 M68.53 27.38 C56.31 16.11, 42.19 5.01, 31.23 -5.32 M72.8 26.01 C56.14 14.6, 43.95 3.13, 32.17 -10.49 M71.38 23.68 C58.47 13.5, 47.05 3.09, 29.96 -11.03 M76.76 20.44 C57.21 8.31, 41.33 -6.5, 29.17 -14.94 M74.94 22.65 C60.75 9.7, 44.35 -4.31, 31.17 -15.73 M78.23 20.5 C62.75 3.79, 44.67 -10.72, 31.88 -23.03 M78.31 19.33 C59.98 3.26, 41.11 -13.29, 30.51 -21.64 M39.73 -17.54 C38.33 -20.61, 36.23 -21.86, 30.78 -27.18 M39.65 -18.6 C38.07 -20.1, 36.31 -22.51, 31.33 -26.59" stroke="#4979ea" stroke-width="0.5" fill="none"></path><path d="M1.15 0.47 C10.9 1.26, 22.63 1.8, 31 0.79 M0.76 0.96 C7.92 0.66, 16.42 -0.54, 29.49 -0.61 M30.56 -1.14 C28.87 -7.32, 29.46 -17.23, 31.11 -28.99 M30.59 0.65 C29.56 -7.48, 30.39 -16.11, 29.91 -28.58 M29.82 -27.51 C42.28 -15.67, 56.83 1, 77.03 19.95 M28.96 -27.37 C41.68 -16.58, 54.11 -5.75, 77.14 19.8 M78.8 19.01 C59.73 35.63, 44.42 49.49, 30.42 65.8 M76.13 18.61 C66.85 31.27, 55.44 40.97, 29.46 67.46 M28.49 66.52 C29.33 60.42, 28.61 48.45, 27.78 37.47 M29.61 66.7 C29.97 55.57, 29.27 43.8, 29.07 36.57 M29.22 37.36 C24.13 37.27, 18.83 37.72, -2.01 39.92 M28.54 38.48 C21.77 37.5, 16.49 37.5, -1.15 40.08 M0.18 37.41 C-1.41 30.79, 1.21 19.23, 0.84 1.63 M-1.49 38.55 C-0.08 27.67, -0.63 15.22, -0.94 0.47 M0 0 C0 0, 0 0, 0 0 M0 0 C0 0, 0 0, 0 0" stroke="#4979ea" stroke-width="1" fill="none"></path></g></g><mask></mask><g stroke-linecap="round"><g transform="translate(108.55432070148049 10.693464564159513) rotate(0 0.847792621893916 37.54953126944065)" fill-rule="evenodd"><path d="M-47.63 46.04 C-47.63 46.04, -47.63 46.04, -47.63 46.04 M-47.63 46.04 C-47.63 46.04, -47.63 46.04, -47.63 46.04 M-42.44 46.62 C-34.51 36.35, -26.07 30.31, -15.25 13.67 M-42.91 47.06 C-34.5 38.49, -27.01 28.31, -13.71 14.26 M-39.22 45.4 C-23.56 27.75, -6.65 11.78, 1.88 0.73 M-36.95 46.42 C-27.86 35.63, -17.32 24.69, 1.31 0.56 M-33.97 45.42 C-18.68 31.64, -3.97 15.72, 4.52 4.79 M-32.83 46.88 C-24.28 36.34, -14.63 26.65, 5.25 4.54 M-25.72 47.9 C-21.41 39.92, -13.63 28.95, 8.24 5.97 M-27.63 46.58 C-17.88 38.17, -11.2 27.12, 7.75 6.93 M-20.73 45.67 C-11.2 33.67, -3.9 22.97, 11.54 8.2 M-21.33 47.57 C-12.5 37.33, -3.59 25.01, 10.18 10.68 M-18.41 49.48 C-9.16 34.95, 3.29 25.58, 13.79 12.87 M-17.46 47.5 C-6.05 36.86, 3.87 22.58, 13.95 12.71 M-19.09 53.57 C-11.26 46.83, -4.66 38.89, 16.69 13.95 M-16.58 53.28 C-8.73 44.69, -0.85 35.61, 15.18 16.33 M-19.34 58.46 C-4.08 45.89, 8.65 31.64, 19.79 19.71 M-18.35 61.18 C-5.95 48.2, 4.4 34.11, 18.53 19.2 M-15.76 65 C-6.68 51.34, 6.27 39.2, 21.9 19.9 M-16.99 65.01 C-7.52 54.43, 3.69 42.86, 21.92 21.64 M-18.07 72.52 C-3.83 56.74, 12.57 39.8, 25.96 22.45 M-17.15 71.6 C-1.66 54.85, 13.86 35.47, 23.63 23.62 M-17.09 75.26 C-2.97 60.34, 11.22 43.37, 28.5 24.63 M-15.56 77.36 C-4.25 63.52, 6.16 50.42, 27.08 27.12 M-12.59 75.07 C3.63 62.05, 19.24 45.36, 31.13 30.78 M-11.59 76.21 C-0.34 66.09, 9.24 53.45, 30.58 30.06 M-5.67 76.12 C2.82 69.51, 9.96 60.19, 21.51 45.79 M-5.41 76.56 C-0.16 69.15, 6.56 62.62, 19.61 47.03 M21.16 47.48 C23.98 44.58, 26.56 41.34, 33.5 33.45 M21.26 47.06 C25.11 41.27, 29.47 35.77, 33.21 31.92 M0.98 76.07 C6.02 68.82, 12.51 63.36, 21.1 51.11 M0.44 77.73 C7.59 66.96, 15.4 57, 21.18 53.39 M25.64 48.01 C27.96 43.86, 31.46 41.69, 36.93 34.01 M26.14 47.02 C28.43 43.87, 31.53 41.46, 35.46 35.69 M3.61 78.97 C9.76 73.98, 10.73 69.49, 21.52 59.28 M5.36 76.55 C7.92 73.54, 12.16 69.42, 20.11 59.84 M32.1 45.98 C32.68 44.95, 34.92 43.14, 38.78 39.48 M30.84 46.82 C32.69 44.52, 34.98 42.81, 38.36 38.79 M9.9 76.98 C13.48 73.4, 15.1 69.08, 19.57 63.93 M10.54 77.11 C13.1 73.67, 14.89 71.06, 20.6 64.5 M36.34 47.76 C37.22 45.46, 39.4 43.73, 40.73 41.88 M36.26 47.28 C37.82 45.35, 39.64 43.2, 41.57 41.48 M15.19 76.44 C17.21 74.17, 19.18 73.14, 19.96 70.91 M15.34 76.67 C16.99 75.04, 18.59 73.56, 20.93 70.92 M41.54 46.88 C42.23 45.95, 43.07 45.04, 44.61 43.51 M41.58 46.85 C42.86 45.57, 43.54 44.66, 44.33 43.96 M-17.62 75.15 C-17.62 75.15, -17.62 75.15, -17.62 75.15 M-17.62 75.15 C-17.62 75.15, -17.62 75.15, -17.62 75.15 M-11.52 74.6 C-13.82 73.47, -15.55 70.99, -18.79 70.27 M-11.72 74.48 C-14.02 72.96, -15.19 71.89, -17.76 69.87 M-46.7 44.57 C-46.7 44.57, -46.7 44.57, -46.7 44.57 M-46.7 44.57 C-46.7 44.57, -46.7 44.57, -46.7 44.57 M-4 74.08 C-9.28 70.61, -14.52 67.2, -17.1 63.82 M-6.4 75.84 C-8.29 72.58, -12.71 69.86, -17.81 63.63 M-40.38 44.46 C-41.63 43.97, -42.32 43.19, -43.37 41.88 M-40.39 44.63 C-41.18 43.97, -41.72 43.55, -43.29 42.1 M1.6 75.54 C-6.53 69.74, -11.22 64.23, -20.74 56.47 M1.66 75.88 C-4.04 71.68, -9.66 67.07, -19.24 58.84 M-33.06 45.09 C-35.87 42.78, -38.09 41.78, -41.32 39.63 M-34.07 45.34 C-35.29 43.68, -37.03 42.67, -40.36 39 M6.82 74.75 C0.41 69.81, -8.17 63.44, -16.61 52.7 M6.48 75.33 C-0.64 69.85, -7.17 63.69, -18.83 53.45 M-27.75 44.46 C-30.94 42.96, -31.24 41.73, -37.12 36.54 M-27.03 44.75 C-31.76 42.13, -34.08 38.85, -37.72 35.71 M12.63 76.78 C3.83 67.33, -7.63 58.04, -18.03 48.58 M13.67 75.25 C4.32 66.84, -5.09 59.82, -19.72 46.61 M-22.64 45.91 C-23.23 42.67, -26.11 39.63, -34.15 35.58 M-21.72 45.56 C-24.97 42.88, -28.6 39.77, -34.03 33.87 M20.28 74.58 C0.04 60.09, -19.32 41.26, -33.31 31.72 M20.11 75.01 C9.35 65.78, -3.62 55.18, -32.87 31.21 M21.57 72.56 C4.21 57.74, -16.62 38.73, -27.71 29.77 M23.59 72.07 C2.35 56.6, -16.1 39.05, -30.34 28.27 M21.12 69.2 C9.42 54.27, -6.28 44.18, -24.86 25.49 M22.37 67.74 C9.7 55.75, -2.83 45.68, -25.24 25.1 M23.08 64.17 C6.08 45.38, -12.27 31.57, -22.52 21.45 M23.51 62.81 C5.82 47.1, -9.21 32.77, -22.79 22.11 M21.1 57.36 C10.51 43.84, -5 33.12, -19.35 19.37 M22.2 56.87 C6.64 43.41, -7.68 31.12, -20.97 18.39 M23.44 52.32 C10.12 40.84, 0.01 29.91, -18.32 16.31 M21.12 52.01 C12.37 42.85, 0.66 34.07, -16.67 17.23 M20.04 43.13 C6.82 33.89, -4.77 22.73, -16.17 14.92 M20.8 44.89 C6.35 33.47, -6.75 21.37, -14.86 14.45 M25.9 43.8 C16.37 37.83, 7.95 28.46, -12.11 9.54 M27.24 44.35 C16.99 37.02, 6.86 27.39, -11.98 11.86 M34.93 44.78 C19.41 32.96, 2.74 18.06, -9.21 8.45 M33.1 45.16 C21.33 33.56, 9.24 24.48, -9.11 9.59 M40.22 45.51 C22.15 28.41, 5.51 14.44, -5.88 6.06 M40.23 44.77 C24.73 34.49, 12.24 21.9, -6.11 5.59 M46.05 46.71 C28.51 33.34, 11.19 19.15, -2.55 3.02 M46.93 46.82 C26.84 30.04, 8.28 12.99, -4.05 1.98 M5.19 5.18 C4.16 3.43, 1.88 1.77, -0.49 -0.39 M5.33 4.84 C3.73 3.93, 2.74 2.44, 0.12 0.29" stroke="#4979ea" stroke-width="0.5" fill="none"></path><path d="M1.38 -0.69 C18.7 18.25, 34.17 33.08, 46.06 46.14 M0.46 0.27 C17.29 17.49, 34.84 35.61, 47.77 47.28 M48.97 46.64 C39.39 47.7, 27.72 45.76, 19.25 45.7 M47 47.28 C35.57 46.48, 25.53 46.25, 19.93 47.07 M18.89 45.13 C21.59 54.83, 21.08 62.23, 22.4 75.79 M20.17 46.7 C19.58 52.29, 21.01 58.33, 19.89 75.26 M20.68 74.52 C3.38 75.67, -11.42 73.22, -19.37 75.6 M21.29 75.54 C11.67 75.38, 3.67 75.4, -17.15 75.33 M-16.09 74.34 C-19.17 66.57, -18.33 62.8, -17.77 48.49 M-18.52 74.98 C-18.93 66.27, -19.25 56.99, -19.52 46.31 M-19.22 48.77 C-27.79 45.64, -35.53 45.19, -46.79 47.45 M-19.44 47.51 C-26.54 46.15, -31.47 45.81, -47.25 45.46 M-47.28 48.12 C-33.28 31.65, -13.48 15.38, -1.79 0.64 M-47.08 45.6 C-36.95 35.66, -27.06 26.89, -0.84 0.02 M-0.12 -0.01 C-0.08 0.01, -0.05 0, 0 0 M-0.11 0 C-0.07 0, -0.04 0, 0 0" stroke="#4979ea" stroke-width="1" fill="none"></path></g></g><mask></mask><g stroke-linecap="round"><g transform="translate(176.45929264471192 59.98038838543289) rotate(0 -8.343618460541961 47.285458716065705)" fill-rule="evenodd"><path d="M-47.29 46.35 C-47.29 46.35, -47.29 46.35, -47.29 46.35 M-47.29 46.35 C-47.29 46.35, -47.29 46.35, -47.29 46.35 M-45.87 50.6 C-33.33 36.36, -24.23 24.94, -12.08 10.12 M-43.46 49.06 C-36.03 39.27, -26.26 29.02, -12.09 11.69 M-43.57 53.23 C-32.29 41.56, -22.81 29.2, 1.69 1.38 M-41.7 52.76 C-24.74 33.27, -10.01 15.71, 2.08 1.55 M-38.01 55.1 C-27.36 43.65, -18.36 31.52, 2.26 8.52 M-39.05 54.87 C-26.47 42.27, -14.84 27.31, 1.87 6.76 M-34.71 56.52 C-23.84 43.08, -9.82 24.82, 2.77 13.43 M-34.88 56.84 C-27.13 47.41, -18.08 36.31, 2.22 14.6 M-34.67 58.64 C-20.77 46.58, -8.56 29.96, 0.74 19.76 M-31.99 59.97 C-20.79 45.17, -6.17 30.39, 3.47 19.68 M-31.52 63.79 C-20.45 54.73, -13.54 45.37, 0.14 24.66 M-29.54 63.03 C-20.51 52.25, -9.34 38.49, 2.66 25.91 M-26.67 65.27 C-19.29 58.57, -14.39 48.69, 8.05 27.27 M-27.01 66.33 C-13.54 50.39, -0.75 37.04, 6.37 26.3 M-25.09 70.69 C-17.23 60.96, -7.55 50.9, 11.19 26.42 M-23.73 68.34 C-17.23 59.37, -8.02 49.93, 12.49 26.93 M-22.48 71.78 C-6.7 55.52, 6.05 37.88, 16.51 28.61 M-20.84 71.79 C-7.94 57.93, 3.94 43.65, 17.04 26.19 M-18.41 76.69 C-10.06 65.22, -1.33 53.98, 23.42 27.03 M-18.22 75.2 C-9.15 61.35, 2.33 50.01, 21.58 28.13 M-15.49 75.79 C-5.68 67.04, 2.7 53.4, 25.98 26.69 M-16.43 77.05 C-3.45 60.87, 11.96 45.83, 27.66 26.83 M-11.13 81.02 C-1.17 70.37, 7.31 57.06, 33.15 27.46 M-12.28 80.33 C-3.31 69.11, 7.15 56.78, 32.28 27.74 M-8.74 83.67 C-6.46 79.6, -4.02 73, 2.14 66.4 M-10.74 82.66 C-7.1 77.92, -2.89 73.95, 3.43 67.27 M3.94 68.23 C13.71 56.69, 23.73 46.15, 33.58 35.21 M2.85 67.39 C13.93 54.91, 24.91 41.22, 32.5 34.55 M-8.97 87.67 C-4.34 81.7, -0.95 78.41, 3.48 74.61 M-7.91 85.53 C-4.6 81.84, 0.85 76.43, 4.33 73.33 M8.68 68.41 C15.35 61.3, 19.51 51.52, 32.06 39.88 M8.78 68.14 C16.15 58.37, 23.47 50.15, 31.96 40.6 M-3.93 87.8 C-2.31 87.08, -0.81 83.42, 4.12 79.6 M-4.38 89.03 C-1.67 85.29, 1.43 82.24, 2.72 79.21 M14.13 67.32 C22.26 60.24, 29.85 50.46, 30.76 47.35 M13.44 67.59 C18.99 62.46, 23.36 57.01, 31.9 46.21 M-1.51 90.56 C-0.54 89.06, 0.78 87.45, 3.95 85.39 M-1.88 91.4 C-0.38 89.29, 1.48 87.68, 3.27 85.51 M19.5 67.32 C23.79 61.09, 29.04 57.99, 31.6 51.3 M19.14 67.89 C22.72 62.82, 28.48 57.99, 30.97 52.58 M24.13 66.56 C27.37 63.87, 28.36 63, 32.56 60.15 M24.91 66.65 C27.2 65.08, 28.38 62.88, 32.09 59.06 M0.6 93.81 C0.6 93.81, 0.6 93.81, 0.6 93.81 M0.6 93.81 C0.6 93.81, 0.6 93.81, 0.6 93.81 M0.23 88.54 C-10.43 78.31, -23.47 69.24, -41.14 49.45 M0.36 89.34 C-14.55 76.57, -29.93 62.29, -42.82 50.41 M1.22 82.97 C-17.32 67.13, -29.82 54.79, -46.26 43.77 M-0.09 83.83 C-15.27 69.04, -31.41 53.23, -44.36 44.68 M0.34 77.42 C-16.79 63.28, -29.55 48.69, -42.69 42.52 M0.27 79.04 C-10.2 68.09, -22.84 56.97, -43.07 40.88 M-0.6 71.24 C-16.09 60.47, -30.77 44.14, -39 38.01 M0.86 71.58 C-7.61 66.4, -16.35 59.11, -39.93 37.5 M1.19 67.93 C-8.2 58.03, -21.22 48.49, -36.79 35.94 M-0.06 68.32 C-7.9 59.26, -18.31 50.6, -36.14 35.15 M1.19 61.93 C-11.73 50.48, -23.86 40.92, -32.09 33.65 M2.53 62.63 C-11.69 50.98, -24.87 40.03, -33.27 33.05 M7.74 64.76 C-5.33 48.87, -21.48 34.88, -30.59 30.86 M7.81 62.65 C-2.26 55.29, -12.77 45.44, -30.32 29.14 M15.16 62.67 C1.73 53.69, -12.85 39.56, -27.79 28.55 M14.44 62.34 C1.19 51.54, -10.96 40.36, -26.57 27.14 M20.07 65.2 C8.85 53.32, -4.33 41.57, -23 25.76 M20.1 64.22 C3.52 48.98, -13.18 34.24, -25.46 24.71 M26.97 62.82 C12.3 51.91, -1.16 38.38, -20.66 20.37 M25.33 62.38 C7.32 46.21, -11.75 30.53, -22.63 20.46 M31.74 64.34 C20.65 54.06, 11.92 43.29, -20.43 17.94 M32.19 62.08 C20.53 52.92, 8.44 42.71, -19.78 18.09 M33.52 56.48 C14.35 41.42, -0.76 26.23, -17.26 14.53 M32.4 56.7 C13.01 41.08, -4.54 26.31, -15.57 15.51 M32.74 50.47 C22.45 47.13, 18.49 40.27, 1.71 23.95 M32.56 52.56 C20.02 40.24, 7.95 30.27, 1.73 25.35 M-0.75 23.89 C-2.84 23.21, -6.28 18.46, -14.04 12.61 M0.46 25.91 C-2.87 21.98, -8.56 18.2, -13.77 12.1 M31.05 48.33 C24.76 41.05, 14.78 34.17, 6.43 23.33 M31.33 47.5 C21.3 38.97, 12.22 29.82, 7.6 25.11 M-0.21 18.89 C-2.74 18.82, -4.46 15.95, -9.74 10.47 M0.66 19.86 C-2.34 16.91, -6.4 14.08, -10.81 10.31 M32.26 43.31 C24.22 34.81, 17.23 28.71, 13.38 26.54 M32.95 41.5 C28.66 39.11, 23.77 35.08, 13.24 25.52 M0.7 14.15 C-1.62 11.66, -3.18 11.41, -7.95 7.91 M0.89 14.34 C-1.83 12.06, -4.24 9.59, -7.39 7.51 M33.96 38.1 C30.23 34.16, 25 30.63, 19.02 25.93 M33.55 37.57 C28.82 33.46, 25.03 30.11, 19.89 24.35 M1.65 9.62 C-1.17 7.36, -3.48 5.47, -5.58 3.43 M0.77 9.4 C-0.2 7.9, -1.71 7.02, -5.29 3.98 M31.86 32.09 C30.52 29.6, 28.27 27.65, 26.09 26.11 M32.76 31.73 C30.37 29.32, 27.84 27.46, 25.91 25.83 M0.86 3.57 C0.38 3.43, -0.39 3.02, -1.5 2.09 M0.66 3.78 C-0.05 3.12, -0.73 2.56, -1.43 1.87" stroke="#4979ea" stroke-width="0.5" fill="none"></path><path d="M1.34 0.43 C-0.52 8.6, -0.5 20.7, 2.28 25.72 M-0.17 -0.97 C0.55 9.72, 0.79 18.44, -0.39 25.67 M1.54 25.27 C11.94 24.97, 24.12 27.71, 31.54 25.54 M0.34 25.68 C9.38 26.16, 19.29 26.3, 31.35 25.33 M31.05 26.81 C29.4 37.37, 30.76 42.76, 31.43 64.14 M31.16 26.65 C31.1 37.46, 30.45 50.84, 29.55 64.21 M30.54 63.08 C19.2 63.28, 12.4 63.15, -0.61 67.26 M29.58 64.74 C18.54 65.7, 7.91 64.5, 0.22 65.33 M-0.72 65.25 C2.34 77.83, 2.16 88.15, -0.66 95.55 M0.58 64.36 C-0.17 71.81, 0.02 79.55, 0.89 94.57 M-0.46 94.9 C-14.81 81.53, -25.86 65.45, -45.29 44.53 M0.39 95.06 C-11.93 82.44, -24.11 70.31, -48.15 45.99 M-46.45 47.98 C-31.8 29.83, -15.81 14.39, -1.18 0 M-48.23 46.82 C-28.91 27.68, -10.92 10.76, -0.22 -0.51 M0 0 C0 0, 0 0, 0 0 M0 0 C0 0, 0 0, 0 0" stroke="#4979ea" stroke-width="1" fill="none"></path></g></g><mask></mask><g stroke-linecap="round"><g transform="translate(89.74786924957925 124.53433426104857) rotate(0 19.727549571779036 39.18738221804938)" fill-rule="evenodd"><path d="M-28.51 30.87 C-28.51 30.87, -28.51 30.87, -28.51 30.87 M-28.51 30.87 C-28.51 30.87, -28.51 30.87, -28.51 30.87 M-25.66 33.35 C-24.62 32.68, -24.57 32.13, -23.49 31.26 M-25.43 33.43 C-24.85 32.7, -24.24 31.91, -23.56 31.32 M2.06 1.79 C2.06 1.79, 2.06 1.79, 2.06 1.79 M2.06 1.79 C2.06 1.79, 2.06 1.79, 2.06 1.79 M-22.6 36.55 C-22.41 35.82, -20.19 33.29, -18.4 30.15 M-22.85 36.83 C-21.52 34.91, -20.19 33.63, -17.94 30.73 M2.24 8.61 C3.36 6.08, 3.76 4.88, 7.57 2.62 M1.48 8.42 C2.58 6.71, 4.12 5.56, 6.81 2.09 M-20.67 40.29 C-17.78 36.09, -14.01 33.4, -11.45 29.58 M-20.46 39.92 C-17.85 36.31, -15.08 33.32, -11.81 30.72 M0.75 13.96 C6.17 10.9, 9.85 6.9, 12.13 2.78 M2.89 14.1 C4.57 11.67, 6.16 7.85, 12.89 1.19 M-18.21 43.35 C-13.85 36.91, -8.92 33.3, -8.58 30.59 M-16.75 42.32 C-14.99 38.7, -11.26 36.11, -6.7 30.37 M3.82 18.3 C9.39 14.52, 12.45 6.01, 15.91 0.33 M1.47 20.87 C8.18 13.61, 12.85 6.88, 16.9 3.05 M-15.15 44.79 C-9.21 40.11, -5.64 36.07, -0.26 29.56 M-14 44.92 C-11.59 40.8, -8.16 38.37, -1.43 29.57 M3.17 27.41 C6.93 21.63, 10.73 13.92, 21.39 3.46 M1.41 27.34 C6.22 20.93, 12.95 13.89, 22.3 2.55 M-13.6 46.29 C-0.37 34.18, 11.44 20.96, 26.96 0.92 M-11.78 48.59 C-4.28 38.15, 4.29 28.68, 28.49 3.03 M-10.52 49.78 C5.44 37.18, 16.84 21.03, 31.45 0.73 M-7.76 51.35 C3.4 36, 15.29 22.68, 32.45 1.88 M-6.64 54.69 C10.2 34.18, 24.93 17.13, 39.03 1.03 M-5.69 53.88 C8.76 34.77, 24.19 17.25, 39.29 1.47 M-3.85 54.25 C6.3 44.77, 15.21 35.87, 40.05 8.25 M-2.27 56.29 C11.87 40.17, 26.18 23.78, 40.16 7.81 M-0.48 59.18 C10.86 44.22, 23.88 33.24, 40.17 13.41 M-0.05 58.73 C13 44.13, 26.75 29.07, 39.64 15.07 M0.83 62.61 C14.01 49.88, 23.94 40.36, 38.82 21.67 M3 62.64 C12.11 49.45, 22.96 38.25, 39.49 20.35 M6.58 63.29 C16.69 51.75, 24.44 42.93, 37.95 27.99 M6.2 65.07 C17.63 50.31, 30.18 37.3, 39.7 25.57 M9.3 66.24 C18.89 56.6, 24.01 45.81, 42.07 29.31 M9.35 67.65 C17.65 57.54, 24.35 48.94, 39.77 30.84 M12.95 69.99 C20.26 60.87, 26.9 51.63, 44.48 31.71 M11.42 68.97 C21.06 58.03, 31.66 47.84, 45.28 31.88 M12.48 72.24 C27.27 58.14, 38.93 43.86, 51.48 32.19 M14.35 72.47 C23.48 63.47, 31.1 52.72, 51.3 30.98 M15.22 77.01 C31.05 62.43, 40.55 46.11, 55.11 29.77 M17.73 74.89 C27.8 64.14, 39.32 52.95, 55.48 30.35 M21.74 79.41 C31.04 65.58, 44.89 51.83, 59.88 31.68 M20.03 79.13 C28.87 68.46, 38.57 56.61, 60.05 31.51 M62.61 35.73 C64.33 34.28, 65.74 32.25, 66.26 31.47 M62.58 35.71 C63.74 34.22, 65.63 32.43, 66.65 31.52 M20.4 78.65 C20.4 78.65, 20.4 78.65, 20.4 78.65 M20.4 78.65 C20.4 78.65, 20.4 78.65, 20.4 78.65 M23.98 76.92 C13.96 64.73, 1.62 58.2, -26.98 32.84 M22.2 75.1 C10.47 62.84, -3.83 53.1, -28.49 30.21 M26.94 74.06 C15.2 63.74, 2.19 54.24, -20.79 29.54 M25.11 73.39 C10.92 58.75, -3.77 46.43, -23.62 31.6 M28.93 71.02 C11.86 56.45, -4.24 41.25, -16.64 29 M28.77 69.47 C17.22 60.45, 7.53 52.27, -16.68 29.89 M32.43 67.5 C20.36 57.83, 10.74 48.62, -9.82 30.76 M30.82 66.27 C22.44 59.06, 15.51 52.82, -9.76 31.1 M34.57 63.35 C23.27 54.47, 10.35 44.3, -2.35 30.74 M35.12 63.52 C21.58 51.92, 7.9 42.07, -4.59 31.31 M36.52 62.68 C25.4 51.12, 16.44 41.57, 1.04 29.58 M37.33 62.11 C23.6 49.53, 10.84 39.53, 0.7 30.15 M39.2 57.42 C30.76 48.67, 23.02 42.36, -0.07 22.78 M39.99 58.86 C30.58 50.83, 21.95 43.29, 0.96 23.2 M41.67 56.82 C32.81 48.92, 24 42.15, 0.42 20.72 M43.16 56.22 C28.32 42.52, 13.68 29.54, 1.45 19.19 M44.89 51.04 C29.41 38.86, 16.1 26.38, -0.71 14.41 M45.45 53.1 C30.3 38.73, 12.31 24.68, 0.32 14.02 M49.08 51.24 C35.88 40.3, 21.6 27.23, 1.64 7.62 M47.69 49.16 C35.7 37.71, 22.1 27.04, 1.46 8.06 M50.26 45.81 C32.13 30.69, 12.47 11.85, -0.1 2.98 M50.7 48.28 C35.58 33.26, 18.33 17.42, 1.93 2.49 M54.78 42.6 C41.77 32.99, 29.72 22.73, 0.97 0.93 M54.17 45 C36.24 27.86, 17.65 12.26, 2.21 -0.53 M58.69 43.03 C50.81 38.72, 45.62 31.12, 41.42 29.36 M57.27 41.84 C50.39 36.8, 44.5 30.07, 41.84 28 M39.06 28.9 C32.84 20.98, 26.57 13.95, 6.62 -0.67 M40.23 28.33 C29.22 17.37, 17.56 6.7, 7.72 -1.16 M59.28 38.11 C55.13 35.89, 52.62 33.69, 48.63 28.82 M59.04 38.01 C55.66 35.13, 52.41 32.8, 46.78 28.57 M42.04 23.49 C30.58 13.97, 19.25 3.9, 13.51 -2.7 M40.38 21.28 C34.95 17.49, 28.09 12.02, 14.27 -0.94 M62.93 35.93 C61.13 33.5, 58.75 32.86, 52.22 26.63 M63.02 36.02 C59.54 33.47, 57.22 31.6, 53.09 26.99 M41.5 17.38 C35.71 12.49, 28.67 3.43, 21.99 -1.31 M40.88 16.77 C32.85 10.09, 24.31 2.46, 20.17 -0.93 M66.02 32.74 C64.54 32.26, 61.4 29.63, 59.52 27.69 M65.54 33.04 C63.68 31.44, 61.95 30.1, 59.52 27.39 M41.45 11.46 C37.37 9.47, 35.61 7.76, 26.06 -0.32 M41.31 11.78 C37.34 9.09, 34.06 6.33, 26.86 -0.22 M40.35 5.8 C38.37 4.37, 38.25 3.55, 32.7 -0.27 M40.4 6.09 C37.3 3.17, 34.77 0.78, 32.92 -0.82" stroke="#4979ea" stroke-width="0.5" fill="none"></path><path d="M1.86 -0.48 C1.4 11.66, 0.1 20.27, 1.25 29.81 M-0.28 -0.49 C-0.18 12.61, 1.07 23.56, 0.33 30.78 M0.59 31.95 C-5.34 31.22, -13.95 29.76, -26.68 30.8 M-0.4 30.08 C-11.25 31.51, -21.58 30.47, -28.66 31.44 M-28.64 30.65 C-16.62 41.05, -7.3 49.56, 18.89 77.3 M-29.14 31.96 C-10.54 47.12, 7.78 65.04, 20.17 78.87 M20.76 77.27 C30.5 69.59, 40.38 56.2, 67.98 29.73 M19.37 77.7 C29.83 68.34, 38.34 60.54, 68.59 30.75 M67.74 32.08 C61.25 29.18, 51.72 30.25, 40.56 29.42 M68.55 30.97 C61.26 30.31, 52.63 30.87, 38.13 30.06 M36.68 28.73 C37 23.78, 38.58 18.55, 38.37 2.67 M37.85 30.46 C39.42 20.83, 39.86 12.19, 38.15 1.42 M37.24 2.34 C28.75 2.11, 20.66 0.52, 1.1 2.38 M38.79 0.23 C31.3 0.39, 22.73 1.19, 1.29 -0.14 M0.49 0.54 C0.32 0.38, 0.12 0.13, -0.02 -0.06 M0.48 0.59 C0.36 0.45, 0.21 0.3, 0.03 -0.02" stroke="#4979ea" stroke-width="1" fill="none"></path></g></g><mask></mask></svg>