<svg version="1.1" xmlns="http://www.w3.org/2000/svg" viewBox="0 0 225.9601179804938 298.4421957082976" width="225.9601179804938" height="298.4421957082976">
  <!-- svg-source:excalidraw -->
  
  <defs>
    <style class="style-fonts">
      @font-face {
        font-family: "Virgil";
        src: url("https://excalidraw.com/Virgil.woff2");
      }
      @font-face {
        font-family: "Cascadia";
        src: url("https://excalidraw.com/Cascadia.woff2");
      }
    </style>
  </defs>
  <g stroke-linecap="round"><g transform="translate(12.97660562053943 235.35342279303393) rotate(0 49.60880971145548 5.618705646379965)" fill-rule="evenodd"><path d="M-0.24 -39.96 C-0.24 -39.96, -0.24 -39.96, -0.24 -39.96 M-0.24 -39.96 C-0.24 -39.96, -0.24 -39.96, -0.24 -39.96 M0.31 -34.22 C0.67 -35.77, 1.58 -36.7, 3.62 -38.09 M0.24 -34.24 C1.67 -35.93, 2.69 -37.11, 3.35 -38.27 M-0.17 -27.32 C2.27 -32.13, 6.38 -34.32, 7.72 -35.32 M0.11 -28.3 C2.4 -30.81, 4.93 -33.99, 7.08 -36 M0.36 -22.39 C3.26 -24.42, 5.64 -28.26, 11.82 -34.06 M-0.27 -22.21 C4.11 -26.73, 7.5 -32.15, 10.95 -35.12 M1.45 -16.33 C2.49 -20.83, 7.28 -26.39, 16.34 -33.71 M-0.23 -16.8 C3.22 -19.39, 5.93 -22.96, 13.94 -32.74 M-1.44 -8.48 C3.7 -14.69, 9.68 -19.66, 17.21 -32 M0.15 -8.5 C6.82 -18.18, 14.16 -26.27, 17.42 -30.9 M-0.16 -4.67 C7.47 -11.06, 11.41 -19.51, 20.33 -27.9 M0.01 -4.21 C5.88 -9.94, 11.57 -16.72, 21.54 -28.99 M-0.77 0.3 C9.6 -9.37, 18.33 -17.33, 26.69 -25.06 M2.05 2.04 C7.68 -6.71, 12.48 -12.16, 24.99 -27.67 M4.94 3.71 C13.13 -4.96, 17.1 -11.37, 30.44 -23.66 M5.06 2.94 C9 -3.08, 13.91 -9.28, 29.17 -24.12 M6.82 6.63 C16.89 -7.26, 25.11 -16.87, 32.85 -24.26 M9.4 4.48 C16.6 -4.4, 25.89 -13.15, 32.2 -23.11 M13.37 5.72 C18.93 -1.8, 26.63 -12.22, 36.1 -19.68 M12.32 6.54 C17.37 0.73, 21.83 -5.82, 37.02 -22.06 M15.09 8.37 C21.48 -0.79, 27.89 -8.01, 41.21 -18.89 M15.37 8.82 C24.57 -2.98, 34.5 -13.74, 39.44 -20.11 M18.28 8.84 C29.92 0.08, 38.47 -12.91, 41.92 -18.85 M20.46 9.83 C28.56 -0.42, 39.67 -11.91, 44.19 -17.16 M22.93 12.38 C31.71 3.83, 34.92 -1.3, 46.5 -16.43 M23.94 11.81 C31.6 2.75, 37.99 -6.29, 47.02 -14.97 M28.62 15.35 C35.72 2.52, 43.13 -7.76, 51.7 -12.24 M26.65 13.65 C36.53 4.05, 45.4 -5.78, 50.71 -14.18 M32.37 17.34 C38.46 8.91, 45 2.63, 56.6 -10.54 M29.99 15.84 C38.71 5.39, 48.77 -4.79, 55.16 -11.4 M34.54 17.33 C41.12 10.73, 50.45 -0.25, 60.44 -11.09 M33.98 17.41 C38.73 11.11, 44.62 6.92, 59.48 -10.28 M36.67 17.75 C46.84 9.56, 53.78 0.63, 60.59 -9.07 M37.32 18.86 C47.25 9.79, 55.89 -1.67, 61.99 -8.52 M43.38 20.68 C47.3 13.63, 54.89 5.32, 66.32 -6.87 M41.46 21.11 C46.45 14.67, 52.06 9.21, 66.33 -7.01 M44.25 23.91 C48.74 17.26, 56.66 9.76, 68.76 -6.06 M44.64 24.43 C52.38 15.78, 59.09 6.16, 69.52 -4.84 M47.67 25.11 C57.19 13.12, 68.01 2.69, 74.71 -3.19 M49.98 25.38 C59.02 13.35, 69.24 3.34, 74 -2.37 M50.73 25.94 C56.81 21.7, 65.25 12.42, 76.56 -1.73 M53.53 27.72 C59.95 18.69, 65.64 11.86, 77.7 -0.29 M56.44 28.91 C63.38 21.07, 69.63 14.01, 82.14 0.12 M55.69 30.15 C64.07 19.46, 72.96 7.49, 80.12 1.28 M58.25 30.52 C65.17 26.2, 68.82 17.86, 84.63 1.5 M59.87 32.2 C63.95 25.64, 70.27 19.88, 84.37 3.8 M61.92 33.9 C69.11 23.22, 80.6 14.54, 88.38 3.05 M62.63 33.71 C69.01 27.34, 75.11 18.96, 87.23 5.15 M66.12 33.9 C75.47 27.36, 83.32 16.13, 90.82 7.02 M66.38 34.73 C75.77 24.72, 86.52 13.06, 91.26 6.68 M71.54 37.98 C76.97 28.29, 82.19 23.97, 96.34 9.41 M70.76 37.21 C79.02 25.31, 89.73 15.59, 94.79 8.05 M74.86 38.37 C79.99 31.02, 86.68 25.41, 98.15 12.07 M74.72 39.97 C83.08 28.53, 91.74 17.45, 98.03 10.22 M78.56 40.12 C82.46 32.98, 90.43 30.33, 103.49 11.58 M78.6 41.62 C83.02 35.09, 87.75 29.03, 102.49 13.13 M80.83 41.3 C85.9 35.25, 92 29, 102.23 20.93 M82.14 43.47 C88.04 34.31, 94.94 26.78, 101.66 20.14 M85.44 45.09 C89.84 40, 95.19 31.3, 100.57 24.53 M84.6 44.52 C91.95 36.76, 97.66 29.46, 101.03 25.93 M87.66 47.83 C91.86 42.26, 96.38 39.76, 101.74 32.91 M88.77 46.36 C91.58 43.38, 95.89 39.28, 100.93 32 M92.05 47.85 C94.23 46.51, 96.85 43.66, 99.87 39.04 M92.86 48.24 C94.83 45.64, 97.56 42.58, 101.51 38.1 M96.73 50.66 C97.7 48.36, 99.57 46.35, 101.38 45.78 M95.95 50.73 C96.96 49.45, 98.43 47.71, 100.61 45.3" stroke="#aac3f5" stroke-width="0.5" fill="none"></path><path d="M0.23 -1.11 C0.96 -17.5, -0.55 -30.83, 0.53 -41.85 M-0.95 -0.4 C0.4 -15.93, -0.52 -31.61, 0.01 -41.08 M-0.56 -40.74 C29.64 -25.15, 60.95 -6.89, 100.13 9.94 M0.81 -41.01 C35.31 -23.19, 71.85 -4.17, 101.04 11.47 M98.66 11.64 C102.03 27.57, 99.48 39.64, 99.77 53.09 M100.85 11.91 C99.83 21.65, 99.92 29.5, 98.65 51.31 M98.58 52.91 C75.35 40.38, 50.51 26.38, -1.82 -0.74 M98.89 52.48 C79.94 41.13, 58.75 32.25, 0.43 -0.18 M0 0 C0 0, 0 0, 0 0 M0 0 C0 0, 0 0, 0 0" stroke="#aac3f5" stroke-width="1" fill="none"></path></g></g><mask></mask><g stroke-linecap="round"><g transform="translate(214.9313549894482 194.8215302795585) rotate(0 -51.1498688075709 45.307046632173126)" fill-rule="evenodd"><path d="M-100.69 51.59 C-100.69 51.59, -100.69 51.59, -100.69 51.59 M-100.69 51.59 C-100.69 51.59, -100.69 51.59, -100.69 51.59 M-100.6 58.62 C-98.76 53.84, -93.56 50.29, -91.04 47.22 M-100.93 57.36 C-97.05 53.87, -93.02 48.68, -90.45 46.21 M-99.44 65.2 C-97.66 57.42, -93.02 51.41, -81.27 43.29 M-99.93 64.55 C-95.14 56.34, -88.93 49.86, -81.1 41.31 M-100.66 70.06 C-93.23 59.28, -81.06 47.75, -70.44 35.1 M-101.1 70.26 C-90.39 57.84, -79.34 45.15, -72.72 36.31 M-101.06 77.16 C-86.97 63.04, -74.26 44.22, -63.81 33.83 M-101.23 76.07 C-91.75 65.94, -83.67 55.84, -62.68 31.89 M-99.73 82.78 C-85.95 64.59, -69.16 45.43, -51.08 27.21 M-101.81 82.88 C-84.14 63.85, -67.19 44.04, -52.21 27.77 M-101.12 88.93 C-80.53 64.75, -62.58 42.89, -42.2 21.53 M-101.41 90.05 C-89.31 75.4, -77.46 63.06, -43.16 22.69 M-101 94.91 C-76.96 64.43, -55.8 40.08, -35.24 15.54 M-100.77 93.16 C-84.25 75.43, -69.26 59.07, -33.11 16.44 M-88.33 88.97 C-64.19 62.11, -40.37 31.1, -24.31 10.3 M-89.91 87.82 C-67.48 64.46, -47.14 37.55, -24.39 11.92 M-79.52 83.26 C-64.74 67.27, -48.64 47.34, -15.38 7.07 M-81.58 84.84 C-68.35 67.94, -53.16 50.29, -15.2 7.24 M-70.68 80.57 C-50.97 57.95, -32.44 31.91, -6.21 1.21 M-72.67 79.19 C-56.48 62.66, -40.9 44.69, -4.62 1.71 M-62.67 74.77 C-44.68 54.85, -26.13 35.91, 2.55 -0.23 M-62.46 74.54 C-40.35 49.5, -17.08 25.27, 1.02 1.77 M-54.98 70.95 C-35.13 48.54, -11.35 21.35, 2.71 7.64 M-53.67 71.66 C-33.09 46.63, -11.03 22.46, 0.37 7.19 M-45.61 66.73 C-27.98 45.04, -9.4 22.49, 1.23 13.33 M-45.58 65.91 C-34.76 53.92, -23.3 41.98, 2.48 13.1 M-36.98 60.47 C-27.71 54.87, -20.51 43.06, 1.24 20.74 M-35.05 61.59 C-28.33 52.29, -21.01 44.38, 0.72 19.97 M-25.72 59.34 C-21.56 48.6, -12.93 42.81, 1.38 26.2 M-25.57 58.25 C-17.95 48.57, -9.9 39.58, 0.89 24.76 M-17.98 51.95 C-12.17 45.04, -5.34 38.75, 2.64 30.37 M-17.71 53.49 C-9.85 45.6, -4.38 37.62, 0.88 31.11 M-6.91 48.35 C-5.83 45.62, -4.38 44.32, 1.77 37.92 M-7.59 48.94 C-5.45 44.71, -1.96 40.78, 1.08 37.3 M-101.22 92.06 C-101.22 92.06, -101.22 92.06, -101.22 92.06 M-101.22 92.06 C-101.22 92.06, -101.22 92.06, -101.22 92.06 M-97.57 90.94 C-98.2 89.77, -99.64 87.79, -101.31 86 M-97.21 90.14 C-98.4 89.08, -100.01 87.73, -101.75 86.64 M-94.25 88.61 C-95.57 87.05, -96.5 85.98, -100.8 81.41 M-93.48 87.56 C-95.59 86.14, -96.79 85.71, -100.77 81.22 M-89.37 87.77 C-93.15 84.61, -96.76 79.85, -99.9 76.87 M-88.99 86.17 C-92.14 83.78, -95.04 82.16, -100.49 76.62 M-84.61 84.94 C-88.97 81.51, -93.26 78.59, -100.16 69.7 M-85.41 84.76 C-90.35 80.36, -97.06 74.6, -101.8 70.66 M-82.4 80.35 C-88.32 75.45, -96.13 72.92, -99.87 65.72 M-81.46 82.62 C-86.28 78.58, -91.01 73.49, -100.59 65.46 M-77.21 81.03 C-82.92 73.81, -89.5 70.51, -100.75 61.65 M-77.26 80.82 C-83.96 76.05, -87.95 72.55, -100.73 61.75 M-72.86 76.85 C-82.26 72.26, -87.55 65.97, -102.71 56.31 M-74.69 78.13 C-83.79 71.08, -93.07 61.56, -101.06 54.35 M-72.05 76.9 C-79.71 66.7, -92.73 58.55, -100.44 51.19 M-69.96 77 C-81.92 65.65, -93.45 55.51, -99.32 50.99 M-66 73.29 C-75.09 64.88, -88.71 56.67, -95.73 48.41 M-66.4 75.6 C-74.87 66.49, -86.14 59.02, -95.69 48.36 M-62.8 71.13 C-71.81 63.68, -81.4 57.97, -94.19 47.98 M-62.08 73.92 C-71.01 65.88, -78.52 57.81, -92.69 47.57 M-56.33 73 C-64.61 65.86, -72.39 58.39, -90.03 44.22 M-57.85 70.49 C-63.67 65.79, -70.66 60, -89.11 44.81 M-55.57 67.54 C-66.5 58.32, -78.06 47.39, -86.74 43.07 M-53.88 69.11 C-67.23 59.09, -77.3 47.74, -83.94 42.77 M-49.54 65.89 C-58.18 61.36, -66 51.49, -82.68 41.87 M-49.75 67.55 C-57.74 62.18, -64.72 54.84, -81.1 40.65 M-47.63 63.73 C-56.32 56.75, -70.63 44.04, -76.23 38.63 M-45.99 65.66 C-55.57 57.37, -66.23 48.41, -77.81 37.67 M-41.26 65.01 C-51.24 54.35, -64.01 44.75, -71.64 35.23 M-42.94 63.4 C-51.45 55.87, -58.75 48.34, -73.6 36.34 M-37.47 61.89 C-50.46 51.69, -57.17 42.73, -68.21 34.64 M-39.47 60.91 C-50.97 51.85, -62.29 41.95, -68.67 35.94 M-35.32 60.6 C-41.57 55.03, -49.12 47.74, -65.84 32.76 M-34.66 60.57 C-42.63 53.56, -49.6 46.86, -64.68 32.56 M-31.5 57.34 C-41.48 46.75, -55.56 37.54, -62.7 30.3 M-30.53 57.1 C-42.48 46.78, -53.66 38.74, -61.56 31.15 M-25.96 54.11 C-38.37 43.75, -52.76 33.43, -55.61 30.71 M-26.85 55.53 C-34.88 48.36, -43.86 41.83, -57.08 29.59 M-22.31 52.63 C-31.32 49.48, -36.8 40.86, -53.64 28 M-22.77 53.36 C-32.98 44.73, -43.37 35.42, -53.67 26.78 M-20.64 50.83 C-25.46 45.72, -29.61 42.6, -51.75 26.58 M-18.81 53.26 C-26.95 44.77, -35.26 39.41, -49.2 24.62 M-14.95 51.47 C-28.73 40.23, -39.53 28.07, -47.92 22.61 M-15.47 49.78 C-22.57 44.13, -30.83 36.91, -47.34 23.53 M-9.99 46.58 C-15.99 43.07, -22.65 38.86, -40.99 23.02 M-11.26 48.05 C-20.46 41.36, -27.84 33.01, -42.59 21.73 M-5.64 47.43 C-15.74 41.36, -22.31 33.79, -39.85 18.89 M-6.3 45.94 C-18.97 36.78, -29.86 25.93, -38.59 18.7 M-2.57 44.36 C-10.07 38.47, -18.05 31.25, -32.99 17.21 M-3.09 44.05 C-15.04 33.41, -27.21 23.2, -34.96 17.24 M0.2 42.63 C-5.37 37, -14.12 30.87, -30.19 16.79 M0.65 41.76 C-7.93 35.66, -15.08 28.75, -30.07 15.49 M3.35 39.04 C-3.52 35.15, -9.1 26.17, -27.6 13.51 M2.91 40.02 C-6.12 30.81, -14.69 23.64, -27.41 12.39 M4.69 36.4 C-4.81 26.52, -13.15 22.35, -21.64 11.43 M3.61 34.04 C-4.87 25.82, -13.84 18.02, -22.6 10.99 M4.04 30.07 C-3.03 24.41, -8 18.8, -18.1 8.13 M2.27 27.99 C-1.57 23.27, -8.05 19.93, -19.72 9.96 M5.07 23.85 C-2.45 16.89, -8.84 12.9, -13.82 6.47 M2.7 23.11 C-2.63 18.01, -9.85 12.56, -16.15 7.55 M4.33 17.3 C-2.78 15.13, -3.19 12.66, -10.3 6.46 M2.92 19.06 C-0.37 15.19, -5.42 12.56, -11.34 5.69 M1.49 12.12 C-0.4 9.4, -1.22 8.85, -7.05 2.9 M1.69 12.76 C-0.75 9.43, -3.22 7.29, -8.83 3.39 M2.58 7.6 C0.91 6.38, -0.19 4.16, -4.77 2.33 M3.14 7.96 C1.09 5.8, 0.01 4.86, -4.39 1.87" stroke="#6791ee" stroke-width="0.5" fill="none"></path><path d="M0.67 -0.17 C-25.71 12.36, -49.72 24.73, -102.06 51.89 M0.73 -0.86 C-28.36 14.06, -55.38 28.81, -99.96 51.32 M-102.22 49.73 C-101.87 62.8, -101.82 70.73, -103.03 90.18 M-101.26 51.87 C-101.17 65.84, -101.92 80.21, -101.7 91.98 M-100.09 90.68 C-77 80.95, -51.15 67.42, 0.17 42.09 M-101.11 91.97 C-69.14 77.23, -34.75 59.95, 0.09 41.77 M-0.39 40.87 C1.11 31.73, 0.78 23.11, -1.27 -1.37 M0 42.37 C0.61 26.33, -1.24 12.73, 0.57 0.03 M0 0 C0 0, 0 0, 0 0 M0 0 C0 0, 0 0, 0 0" stroke="#6791ee" stroke-width="1" fill="none"></path></g></g><mask></mask><g stroke-linecap="round"><g transform="translate(213.58314885106483 128.96349702728992) rotate(0 -49.70395286081657 47.654798050074135)" fill-rule="evenodd"><path d="M-99.29 54.14 C-99.29 54.14, -99.29 54.14, -99.29 54.14 M-99.29 54.14 C-99.29 54.14, -99.29 54.14, -99.29 54.14 M-98.18 59.94 C-98.01 57.44, -95.09 54.92, -90.38 49.38 M-99.54 60.02 C-96.72 57.77, -94.18 54.21, -90.36 49.69 M-98.7 66.46 C-92.53 59.47, -86.66 48.39, -80.51 44.39 M-98.8 66.39 C-94.25 61.55, -92.06 56.33, -78.52 42.85 M-100.15 73.46 C-90.49 60.68, -80.46 49.94, -69.28 38.21 M-99.45 72.56 C-90.76 62.64, -82.47 52.49, -69.13 38.45 M-98.92 78.23 C-83.6 61.64, -69.36 48, -57.43 33.09 M-99.18 78.47 C-90.14 66.15, -79.81 56.4, -59.27 31.21 M-97.63 84.75 C-87.61 70.53, -72.76 56.38, -47.51 27.52 M-98.51 84.83 C-80.44 61.02, -59.2 37.99, -49.57 25.82 M-99.29 91.29 C-79.86 68.5, -57.61 46.66, -40.59 22.96 M-98.63 90.91 C-82.88 72.59, -69.18 54.72, -40.15 21.91 M-99.08 96.84 C-74.22 68.65, -56.02 45.26, -29.54 14.69 M-98.35 95.21 C-80.92 76.19, -65.67 57.23, -29.07 15.08 M-87.11 88.4 C-61.19 59.16, -36.34 27.78, -18.83 10.18 M-88.03 90.88 C-67.64 66.23, -48.89 42.49, -19.3 9.52 M-80.51 86.8 C-54.3 60.19, -31.18 32.18, -9.79 3.99 M-78.89 85.77 C-55.73 59.72, -32.1 32.8, -9.21 5.01 M-70.38 79.86 C-53.84 63.57, -35.43 43.26, 1.54 1.87 M-69.14 79.78 C-41.32 50.05, -15.54 18.23, 0.45 1.28 M-57.57 73.36 C-40.58 54.06, -21.85 32.59, -0.03 7.96 M-58.92 73.99 C-41.67 53.74, -24.53 33.79, 0.87 5.36 M-51.16 67.92 C-38 55.46, -24.76 44.26, 0.26 10.47 M-50.02 69.73 C-38.37 58.35, -29.87 46.85, 1.11 11.47 M-40.37 64.34 C-28.19 48.41, -13.35 32.85, 1.59 16.48 M-38.92 64.14 C-30.86 53.65, -20.16 41.51, 1.41 17.98 M-29.13 60.49 C-21.44 50.24, -12.15 38.84, -0.37 25.32 M-30.57 59.22 C-20.11 47.67, -9.22 36.77, 0.04 24.98 M-18.57 55.71 C-12.48 45.86, -6.61 37.29, -0.08 28.33 M-20.11 54.39 C-12.56 44.94, -4.11 36.33, 1.48 30.28 M-9.64 47.82 C-8.66 45.72, -6.92 41.65, 1.4 36.07 M-10.49 49.57 C-7.66 46.44, -5.82 43.7, 0.88 34.86 M-99.2 94.3 C-99.2 94.3, -99.2 94.3, -99.2 94.3 M-99.2 94.3 C-99.2 94.3, -99.2 94.3, -99.2 94.3 M-95.41 92.64 C-96.05 91.45, -97.22 90.8, -98.46 88.85 M-94.91 92.51 C-95.84 91.87, -96.67 91.12, -98.84 89.1 M-91.87 90.21 C-93.97 89.46, -93.78 88.63, -99.69 83.17 M-90.38 90.66 C-93.56 87.78, -97.4 86.02, -99.08 83.27 M-87.78 88.64 C-92.14 84.58, -94.94 82.43, -98.52 77.98 M-87.41 88.66 C-89.89 86.55, -92.03 84.89, -99.28 78.98 M-83.04 87.84 C-87.29 80.82, -94.51 76.99, -99.54 73.8 M-84.35 86.86 C-88.55 82.26, -91.48 79.59, -99.31 72.67 M-79.22 85.79 C-84.05 82.18, -90.45 76.82, -100.36 66.47 M-79.78 84.84 C-87.09 79.21, -92.32 73.87, -99.24 66.63 M-75.28 81.02 C-84.57 76.1, -91.08 68.13, -97.45 61.38 M-76.88 81.84 C-82.22 77.45, -88.45 71.53, -98.73 63.14 M-73.86 80.46 C-77.87 75.97, -86.14 67.99, -101.35 58.13 M-72.3 81.18 C-81.44 72.29, -89.52 64.73, -99.53 57.72 M-67.26 78.63 C-75.86 72.98, -82.79 67.91, -97.54 54.08 M-69.11 79.6 C-78.89 69.38, -88.46 61.63, -97.86 53.19 M-63.27 78.22 C-75.61 64.87, -85.21 58.87, -94.69 51.02 M-65.96 76.11 C-71.82 70.6, -76.72 64.57, -93.85 50.52 M-59.08 73.27 C-66.24 69.8, -73.86 63.3, -88.73 48.3 M-60.03 75.26 C-67.88 68.65, -76.15 60.04, -90.74 48.18 M-58.39 74.41 C-63.49 66.78, -71.48 57.66, -87.45 48.07 M-57.45 72.61 C-67.19 63.48, -77.92 54.19, -86.75 47.54 M-53.04 68.75 C-60.74 64.89, -71.58 57.74, -82.68 44.44 M-54.04 70.81 C-61.11 64.08, -70.62 55.48, -82.37 44.21 M-48.62 67.64 C-54.05 61.56, -63.77 56.21, -80.12 44.07 M-50.14 69.57 C-56.07 61.49, -64.89 56.15, -79.43 42.86 M-45.62 68.06 C-52.5 60.57, -60.34 52.5, -77.98 40.67 M-44.94 67.18 C-54.86 58.6, -63.86 52.85, -76.89 39.87 M-41.27 63.65 C-49.52 58.13, -58.62 50.13, -73.1 38.93 M-41.51 63.78 C-50.76 57.91, -59.73 50.27, -72.2 39.43 M-39.46 61.39 C-43.78 56.42, -49.63 51.47, -67.11 34.34 M-37.92 62.2 C-46.23 54.05, -55.71 47.18, -68.58 35.63 M-32.59 60.7 C-45.87 51.71, -57.87 41.98, -65 35.77 M-34.24 61.26 C-46.4 49.6, -57.85 39.84, -64.82 35.11 M-31.43 58.09 C-41.52 50.46, -47.13 43.36, -61.03 34 M-31.62 58.59 C-37.53 52.27, -43.59 48.83, -60.39 31.88 M-27.03 58.26 C-37.09 48.92, -45.1 40.68, -56.6 28.9 M-27.38 55.95 C-33.8 49.92, -43.01 43.13, -56.43 30.65 M-23.81 55.38 C-32.33 46.61, -42.9 39.14, -54.13 26.04 M-23.29 54.66 C-29.78 49.62, -35.31 42.11, -52.9 27.6 M-17.22 52.97 C-32.59 42.16, -41.15 33.59, -50.89 27.81 M-18.41 51.68 C-26.2 46.1, -34.24 39.78, -49.58 25.72 M-15.33 51.69 C-21.84 42.42, -32.16 33.84, -44.96 22.05 M-15.86 51.62 C-21.24 45.99, -27.13 40.37, -45.14 23.64 M-11.99 46.66 C-17.29 42.9, -26.1 36.64, -41.02 21.17 M-11.2 48.21 C-23.06 38.63, -35.45 27.21, -42.22 22.91 M-8.65 46.59 C-18.71 37.32, -32.75 25.41, -40.29 18.8 M-7.42 47.59 C-18.13 37.87, -29.64 28.43, -38.5 20.8 M-4.33 46.37 C-12.49 39.16, -20.28 29.68, -34.34 16.86 M-4.06 45.18 C-11.51 37.98, -18.84 31.79, -33.72 17.68 M-1.38 42.22 C-11.18 34.22, -22.29 25.41, -31.05 14.25 M-0.21 42.92 C-9.81 34.65, -21.64 24.83, -30.8 15.76 M3.8 39.65 C-7.55 32.39, -15.55 23.69, -28.4 13.93 M3.59 39.5 C-5.64 32.52, -12.28 26.96, -26.85 14.44 M2.18 35.93 C-5.13 30.01, -11.99 24.62, -24.4 11.55 M3.6 34.94 C-3.37 29.52, -10.63 22.8, -24.27 11.1 M0.99 30.64 C-5.86 22.26, -10.04 16.37, -18.92 10.61 M2.59 29.38 C-5.59 23.08, -12.28 17.36, -19.79 10.46 M0.8 24.87 C-4.02 18, -9.79 11.83, -15.63 7.04 M1.72 22.47 C-1.99 20.76, -5.75 16.89, -15.54 7.33 M4.35 19.76 C-1.35 13.67, -4.16 11.65, -11.8 4.42 M2.27 18.13 C-2.77 15.07, -6.35 11.17, -12.1 5.96 M2.63 12.7 C-0.66 11.99, -1.74 7.39, -8.31 2.64 M2.19 12.61 C-1.39 9.78, -5.71 5.85, -7.88 3.07 M2.51 6.82 C-0.07 6.58, -0.61 4.46, -3.84 2.63 M1.8 6.81 C-0.04 5.88, -1.68 4.48, -4.5 1.95 M1.92 2.03 C1.2 1.45, 0.87 0.99, -1.13 -0.41 M2.18 2.21 C1.34 1.69, 0.59 0.88, -0.74 -0.39" stroke="#6791ee" stroke-width="0.5" fill="none"></path><path d="M0.65 0.01 C-0.44 8.8, -0.53 18.88, 1.12 41.05 M-0.64 -0.12 C0.09 16.54, -0.19 32.39, 0.84 42.37 M1.09 40.47 C-26.28 58.65, -57.6 72.09, -100.35 92.77 M0.23 42.43 C-24.32 54.81, -48.7 66.88, -99.6 95.12 M-99.15 96.09 C-101.26 76.96, -98.4 64.31, -99.54 55.61 M-99.61 93.59 C-98.36 81, -98.57 66.98, -100.12 53.56 M-100.53 53.81 C-75.28 41.21, -49.04 28.11, -1.23 -0.78 M-99.94 54.21 C-60.75 35.26, -22.81 14.93, -0.19 0.9 M0 0 C0 0, 0 0, 0 0 M0 0 C0 0, 0 0, 0 0" stroke="#6791ee" stroke-width="1" fill="none"></path></g></g><mask></mask><g stroke-linecap="round"><g transform="translate(113.6784891415 184.40320272381757) rotate(0 -51.3244359513551 -8.24185775619469)" fill-rule="evenodd"><path d="M-101.08 -54.75 C-101.08 -54.75, -101.08 -54.75, -101.08 -54.75 M-101.08 -54.75 C-101.08 -54.75, -101.08 -54.75, -101.08 -54.75 M-101.1 -48.23 C-100.33 -49.86, -98.56 -51.12, -97.07 -53.35 M-101.23 -48.41 C-100.24 -49.52, -99.64 -50.58, -97.6 -53.08 M-101.35 -43.28 C-97.13 -45.24, -94.96 -48.39, -93.18 -50 M-101.21 -42.65 C-98.75 -44.75, -96.89 -47, -94.23 -51.02 M-102.51 -35.36 C-97.29 -38.99, -94.09 -45.38, -90.29 -48.78 M-101.65 -36.67 C-97.06 -40.85, -93.61 -46.85, -90.33 -49.29 M-100.01 -30.85 C-95.9 -36.07, -95.21 -38.48, -84.65 -45.45 M-100.79 -29.7 C-96.54 -36.11, -91.65 -40, -86.56 -47.57 M-99.83 -24.83 C-96.87 -30.18, -87.39 -38.71, -83.51 -45.24 M-101.24 -23.1 C-96.66 -29.03, -92.78 -33.88, -83.09 -46.01 M-101.15 -16.46 C-95.93 -25.81, -86.27 -31.4, -79.54 -44.71 M-101.2 -18.77 C-93.23 -27.46, -86.33 -36.62, -80.27 -43.03 M-100.71 -14.82 C-91.94 -23.3, -80.31 -35.09, -75.38 -40.41 M-100.65 -13.26 C-94.6 -19.51, -86.87 -26.89, -75.18 -40.16 M-98.29 -11.97 C-89.4 -20.61, -80.73 -29.37, -71.55 -38.46 M-95.91 -10.76 C-88.75 -20.67, -81.16 -29.65, -72.74 -39.51 M-91.17 -9.46 C-88.88 -13.36, -82.63 -22.26, -67.67 -35.64 M-93.2 -9.47 C-86.96 -15.29, -82.53 -22.02, -68.09 -36.66 M-90.74 -8.79 C-84.4 -12.2, -77.53 -21.14, -63.01 -36.78 M-88.53 -7.89 C-82.92 -15.16, -77.46 -21.03, -64.35 -35.93 M-85.04 -6.52 C-79.18 -11.22, -74.25 -16.86, -60.32 -32.9 M-85.37 -5.71 C-76.36 -13.74, -68.3 -23.23, -61.64 -34.23 M-82.62 -4.37 C-78.98 -9.19, -71.46 -16.29, -57.76 -31.3 M-81.71 -3.75 C-76.89 -9.39, -70.12 -17.66, -58.2 -31.06 M-76.41 -3.38 C-72.84 -8.97, -68.96 -14.8, -52.75 -29.73 M-79.15 -1.9 C-69.43 -13.37, -58.57 -24.4, -53.4 -30.42 M-75.62 2 C-66.4 -7.42, -59.61 -15.19, -49.85 -26.47 M-73.91 0.96 C-67.08 -8.76, -59.46 -16.97, -50.82 -28.76 M-70.23 2.51 C-65.07 -2.98, -59.04 -12.3, -49.27 -25.73 M-70.59 1.75 C-63.3 -6.58, -55.05 -16.88, -47.99 -26.15 M-68.29 4.96 C-60.68 -1.3, -57.22 -6.85, -44.15 -22.78 M-68.61 4.23 C-59.52 -4.89, -51.54 -15.79, -42.79 -23.24 M-63.66 6.63 C-59.68 -0.1, -53.19 -7.33, -40.37 -21.57 M-65.19 5.63 C-58.91 -0.6, -54.06 -6.32, -40.49 -20.68 M-61.37 10.1 C-50.35 -1.54, -40.9 -11.42, -37.77 -19.83 M-59.77 7.66 C-50.9 -1.82, -41.41 -13.66, -36.13 -20.06 M-58.03 9.92 C-53.06 4.65, -46.85 -0.5, -30.72 -18.48 M-57.8 9.33 C-49.3 1.9, -41.95 -6.95, -32.32 -17.1 M-53.78 10.45 C-44.27 1.3, -34.71 -11.77, -27.97 -15.74 M-53.71 13.03 C-46.86 6.22, -41.2 -1.47, -28.23 -15.59 M-48.17 15.75 C-42.92 7.1, -34.87 -4, -24.52 -13.25 M-50.04 14.57 C-44.01 8.24, -37.81 1.77, -24.7 -13.34 M-43.97 15.45 C-39.45 8.45, -30.58 -0.26, -21.53 -10.21 M-46.48 15.27 C-36.74 6.4, -29.35 -2.23, -21.25 -12.09 M-43.13 18.66 C-33.25 8.94, -27.12 -1.88, -18.14 -9.48 M-42.93 18 C-35.01 10.4, -29.38 2.8, -17.2 -9.46 M-38.57 19.77 C-35.15 13.97, -27.34 8.09, -16.08 -6.99 M-38.56 19.24 C-32.15 12.43, -23.47 3.44, -15.37 -8.13 M-34.13 20.4 C-27.19 12.08, -18.11 2.32, -12.82 -4.83 M-34.89 21.16 C-31.08 16.62, -24.71 10.72, -10.5 -4.81 M-32.4 23.23 C-22.99 12.53, -15.64 5.29, -9.47 -4.91 M-30.84 23.67 C-23.42 15.56, -15.91 6.3, -8.26 -3.64 M-27.25 26.65 C-22.1 16.9, -15.45 11.06, -3.99 -2.04 M-28.42 25.25 C-20.04 18.09, -13.46 7.71, -3.7 -1.14 M-25.11 27.61 C-13.92 17.98, -5.25 9.02, 0.28 -1.35 M-25.24 27.98 C-15.01 16.15, -5.65 5.46, -0.94 0.61 M-20.77 28.02 C-14.48 18.9, -4.85 11.87, 2.09 4.37 M-21.44 30.12 C-12 19.99, -3.94 10.42, 3.09 2.76 M-18.6 29.62 C-14.13 28.01, -5.99 20.24, 1.06 10.03 M-16.16 31.2 C-10.38 24.07, -4.58 16.57, 2.25 9.3 M-13.14 32.57 C-9.86 29.89, -5.92 23.11, 2.38 14.33 M-13.25 32.79 C-7.74 26.84, -0.67 19.44, 2.72 15.27 M-8.94 33.49 C-6.98 31.45, -2.68 27.58, 1.17 19.28 M-10.32 34.6 C-7.08 32.14, -4.68 28.28, 2.11 20.47 M-4.84 38.3 C-5.12 35.7, -0.8 33.49, 2.42 26.61 M-5.95 36.63 C-2.36 33.22, -0.36 29.49, 2.43 26.4 M-2.86 39.22 C-1.98 37.25, -0.28 37.1, 2.96 33.61 M-2.35 38.78 C-0.49 36.53, 1.12 34.45, 2.76 32.67" stroke="#aac3f5" stroke-width="0.5" fill="none"></path><path d="M1.03 0.65 C0.62 11.45, 1.57 27.35, 0.48 39.36 M-0.89 0.68 C-0.54 11.45, -0.42 21.54, -0.45 39.6 M0.34 38.21 C-34.27 23.73, -65.86 3.12, -102.77 -14.95 M0.18 39.02 C-20.18 29.48, -40.46 18.37, -101.6 -14.2 M-103.68 -13.03 C-102.71 -22.75, -103.39 -31.99, -99.91 -52.98 M-101.75 -13.8 C-101.19 -24.6, -100.15 -32.91, -100.04 -54.61 M-100.96 -56.08 C-75.47 -40.82, -49.92 -25.62, -0.4 -1.4 M-101.92 -55.46 C-78.78 -43.78, -55.05 -31.2, 0.45 0.31 M0 0 C0 0, 0 0, 0 0 M0 0 C0 0, 0 0, 0 0" stroke="#aac3f5" stroke-width="1" fill="none"></path></g></g><mask></mask><g stroke-linecap="round"><g transform="translate(13.628261261594389 66.79228379017684) rotate(0 49.21909908853661 47.737758455051676)" fill-rule="evenodd"><path d="M0 0 C0 0, 0 0, 0 0 M0 0 C0 0, 0 0, 0 0 M3.06 2.72 C3.13 2.47, 3.23 2.33, 3.58 1.78 M3.06 2.64 C3.21 2.48, 3.39 2.28, 3.66 1.83 M1.37 10.15 C3.61 7.58, 4.86 6.73, 6.92 4.5 M1.99 10.04 C4 7.7, 5.43 5.35, 7.62 4.1 M1.71 16.67 C4.35 12.91, 5.47 10.11, 10.27 6.48 M2.41 16.54 C4.65 13.52, 7.3 10.54, 11.67 5.48 M3.54 22.6 C6.5 19.7, 7.56 15.35, 13.39 6.39 M2.34 22.88 C6.7 17.08, 12.05 11.45, 14.21 7.96 M0.83 28.7 C7.74 21.88, 14.05 15.77, 16.82 9.98 M1.53 29.64 C8.44 20.74, 13.93 14.46, 18.33 9.45 M0.36 34.9 C5.71 30.51, 9.66 23.61, 21.87 10.59 M0.21 35.6 C4.68 30.92, 10.97 24.43, 22.38 10.7 M1.37 40.88 C7.31 33.35, 14.01 27.01, 25.54 12.55 M0.38 43.2 C6.21 36.88, 11.08 29.31, 25.09 13.05 M5.39 42.42 C10.19 36.61, 17.18 28.32, 29.98 15.71 M4.14 43.63 C11.52 35.41, 19.97 26.09, 29.83 15.32 M8.95 46.1 C14.15 39.06, 19.84 31.66, 32.44 15.49 M6.55 46.39 C16.94 36.82, 25.57 26.47, 32.73 16.74 M12.56 48.57 C20.1 38.04, 31.99 24.43, 35.12 19.07 M10.84 47.35 C19.58 39.85, 27.14 30.68, 36.74 17.88 M14.72 49.22 C22.97 44.03, 25.22 36.36, 38.39 22.25 M14.58 50.22 C23.3 39.9, 30.37 32.04, 39.01 20.36 M17.71 50.32 C24.73 45.68, 27.44 40.49, 45.28 22.54 M17.67 51.51 C27.59 41.54, 36.17 31.58, 43.58 22.78 M21.54 53.12 C28.53 47.71, 36.31 37.32, 47.42 23.84 M22.46 53.46 C29.06 46.04, 34.4 40.1, 47.53 24.12 M25.79 53.96 C30.9 46.52, 38.73 41.46, 49.56 25.53 M25.8 54.95 C31.78 47.71, 38.41 41.35, 51.66 27.76 M31.48 56.46 C34.59 52.21, 40.55 46.02, 54.76 27.36 M29.08 56.48 C38.87 45.9, 47.66 36.77, 53.87 29.06 M34.96 59.58 C40.05 54.48, 42.18 48.33, 58.29 29.56 M32.33 59.08 C40.43 51.24, 49.13 42.69, 57.25 30.41 M37.77 61.75 C42.71 51.83, 51.08 44.73, 61.5 32.96 M36.23 61.25 C45.86 51.7, 53.85 42.86, 62.13 32.07 M40.54 65.06 C50.42 55.2, 58.34 43.7, 65.66 35.17 M40.24 63.91 C45.49 57.03, 50.98 50.56, 66.17 35.17 M44.18 64.05 C48.32 59.53, 53.86 53.68, 69.91 34.61 M43.95 66.08 C51.69 58.11, 58.37 48.39, 68.36 36.62 M46.41 66.88 C55.12 59.54, 63.17 49.52, 73.04 38.72 M47.8 66.8 C55.84 57.22, 65.22 47.02, 73.15 38.06 M51.65 67.96 C60.63 57.79, 70.01 46.36, 75.45 40.06 M51.17 68.6 C59.86 59.21, 69.92 47.48, 76.48 40.79 M55.58 73.06 C61.75 60.75, 69.81 52.88, 80.97 40.41 M55.11 71.44 C63.89 60.92, 72.48 50.12, 79.84 42.71 M58.32 72.17 C69.01 60.5, 78.8 52.68, 82.77 42.92 M57.73 72.33 C65.74 64.55, 73.44 57.03, 84.33 43.25 M62.31 75.68 C70.49 67.24, 77.68 56.21, 89.2 44.23 M62.24 74.37 C71.01 64.77, 79.48 54.49, 86.76 46.32 M66.18 78.43 C73.74 67.09, 78.17 58.84, 89.7 46.59 M65.05 77.6 C73.65 69.17, 79.9 60.18, 91.67 47.25 M70.66 79.89 C74.32 70.76, 84.26 62.95, 96.65 49.98 M69.81 77.99 C75.11 71.15, 82.7 61.81, 95.39 49.71 M72.41 80.28 C78.75 73.5, 84.59 67.93, 99.27 52.26 M73.46 80.35 C82.61 69.1, 93.82 57.15, 98.14 50.66 M77.93 80.66 C83.21 75.26, 87.05 70.14, 100.79 54.03 M76.34 83.27 C85.94 72.27, 93.92 61.24, 101.4 54.04 M81.38 83.1 C87.8 76.57, 93.6 69.75, 103.09 60.25 M80.2 84.09 C88.73 74.95, 95.91 66.85, 100.7 61.21 M82.55 86.76 C90.79 77.22, 98.18 71.58, 101.02 66.6 M84.28 85.79 C89.43 79.98, 92.96 73.95, 102.17 66.09 M88.64 88.07 C89.53 82.96, 93.12 80.79, 100.53 73.14 M87.39 87.96 C93.47 82.3, 98.93 76.67, 100.8 71.67 M92.02 89.03 C94.1 87.34, 98.69 80.21, 100.68 79.11 M91.84 89.77 C94.78 85.67, 98.52 80.43, 102.3 77.91 M95.98 92.03 C96.86 90.16, 98.15 88.48, 101.19 83.45 M94.56 92.27 C97.05 89.8, 99.09 87.23, 102.01 84.5 M98.9 94.03 C99.31 92.26, 100.76 91.52, 101.44 91.03 M98.89 93.76 C99.49 92.94, 100.18 92.15, 101.18 90.87" stroke="#aac3f5" stroke-width="0.5" fill="none"></path><path d="M-1.01 1.22 C30.83 18.84, 62.82 34.59, 97.79 51.8 M-0.2 0.57 C21.4 10.97, 44.33 22.83, 99.08 53.01 M99.61 52.51 C100.98 68.06, 101.6 82.75, 100.93 95.57 M100.18 51.54 C98.63 64.5, 98.99 77.18, 100.26 93.74 M99.37 91.86 C68.93 79.05, 39.7 62.3, -0.18 38.44 M99.87 93.13 C71.86 78.46, 47.26 65.87, -2.3 40.58 M-0.46 39.85 C-0.6 25.98, 0.59 9.75, -0.78 0.13 M-2.76 41.21 C-1.35 28.54, -0.44 18.04, 0.96 0.95 M0.72 0.84 C0.53 0.59, 0.43 0.45, -0.11 -0.09 M0.68 0.84 C0.54 0.64, 0.25 0.39, -0.02 0.05" stroke="#aac3f5" stroke-width="1" fill="none"></path></g></g><mask></mask><g stroke-linecap="round"><g transform="translate(213.9314240997296 68.75269251410248) rotate(0 -49.4459541583044 44.49512347923036)" fill-rule="evenodd"><path d="M-99.67 49.83 C-99.67 49.83, -99.67 49.83, -99.67 49.83 M-99.67 49.83 C-99.67 49.83, -99.67 49.83, -99.67 49.83 M-100.54 55.58 C-98.32 51.87, -95.22 50.54, -89.14 43.5 M-100.23 55.93 C-96.11 52.42, -91.82 48.44, -90.33 45.46 M-100.63 61.51 C-92.33 54.2, -86.44 47.99, -79.46 38.68 M-99.28 62.75 C-92.97 55.12, -86.34 47, -80.64 39.67 M-98.09 67.03 C-87.69 58.3, -80.42 43.82, -71.73 34.8 M-99.49 67.92 C-90.38 57.84, -81.19 48.87, -70 33.83 M-100.77 74.82 C-84.96 57.05, -73.06 42.78, -59.74 29.31 M-99.27 73.45 C-90.12 65.1, -82.36 54.88, -60.98 29.2 M-97.84 78.25 C-83.56 60.88, -64.79 38.57, -50.28 23.23 M-99.88 78.82 C-87.14 66.97, -75.29 53.14, -50.51 24.16 M-100.13 87.09 C-85.47 68.54, -72.4 53.54, -38.98 19.08 M-99.44 85.56 C-80.38 62.96, -59.38 40.86, -41.82 19.56 M-99.66 92.53 C-74.94 65.56, -51.61 36.21, -30.33 15.23 M-98.26 91.13 C-82.5 73.83, -69.83 58.58, -30.38 13.91 M-89.78 85.14 C-64.38 57.45, -40.84 33.05, -19.92 9.55 M-88.82 87.65 C-75.34 71.59, -61.59 56.11, -21.87 9.82 M-81.67 80.05 C-53.97 54.97, -28.76 24.06, -10.51 1.75 M-80.07 81.91 C-54.73 53.79, -29.14 23.07, -12.11 3.18 M-70.11 77.71 C-50.7 54.43, -28.49 28.73, -0.12 -0.17 M-71.04 76.95 C-44.02 47.32, -15.54 16.85, -0.95 -1.63 M-62.2 71.55 C-46.14 55.38, -26.74 34.82, 1.18 -0.87 M-61.31 72.55 C-46.05 53.73, -29.13 37.37, 1.15 0.22 M-53.49 65.87 C-41.11 53.95, -27.38 41.97, -0.35 5.97 M-51.01 67.86 C-34.92 48.27, -17.07 28.48, 1.64 6.34 M-42.05 64.46 C-29.9 48.75, -14.75 31.63, -0.12 11.24 M-42.67 62.92 C-28.08 47.81, -14.58 30.1, 2.11 13.62 M-32.63 60.47 C-22.17 44.54, -9.89 33.53, 0.01 17.12 M-33.22 59.29 C-21.94 47.33, -12.92 34.74, 1.69 17.7 M-24.8 54.28 C-14.94 44.11, -11.25 37.69, -0.36 23.39 M-23.93 52.76 C-17.47 47.09, -12.98 39.2, 1.11 24.16 M-15.68 50.9 C-9.11 45.91, -6.43 40.81, 2.93 29.57 M-14.94 49.51 C-10.12 43.55, -6.17 38.73, 2.04 31.38 M-4.95 45.35 C-3.72 43.58, -1.45 41.53, 2.37 37.07 M-5.52 44.87 C-2.3 41.83, 0.06 38.76, 1.71 37.33 M-98.81 90.81 C-98.81 90.81, -98.81 90.81, -98.81 90.81 M-98.81 90.81 C-98.81 90.81, -98.81 90.81, -98.81 90.81 M-94.54 89.66 C-96.43 88.02, -97.36 86.13, -98.91 84.67 M-94.95 89.04 C-96.61 87.76, -98.06 85.99, -99.03 84.88 M-90.62 86.01 C-93.32 85.48, -95.87 83.88, -98.33 79.61 M-91.67 87.2 C-92.58 84.99, -95.07 84.14, -98.6 79.98 M-88.09 84.51 C-89.99 81.54, -91.85 78.68, -98.29 73.41 M-87.22 85.09 C-90.71 82.82, -93.2 80.55, -99.36 74.35 M-84.1 83.41 C-87.91 79.9, -92.16 75.27, -100.23 70.5 M-82.97 83.41 C-86.78 79.92, -90.24 77.75, -99.47 69.12 M-77.82 80.03 C-86.62 74.3, -91.92 71.84, -98.6 63.51 M-78.89 80.79 C-86.31 74.67, -93.15 69.04, -99.57 64 M-75.71 80.44 C-83.38 70.18, -94.18 66.03, -100.74 58.26 M-76.11 78.27 C-84.71 70.28, -94.67 62.85, -100.15 58.09 M-73.04 74.98 C-78.86 70.82, -88.14 64.08, -101.11 50.71 M-72.47 76.15 C-80.12 68.77, -88.76 62.64, -100.52 52.78 M-66.26 75.48 C-78.26 68.03, -86.7 58.01, -100.74 49.44 M-68.42 76.12 C-79.92 66.03, -90.78 55.55, -98.3 47.35 M-64.36 74.78 C-71.4 65.84, -75.99 60.44, -94.08 47.16 M-64.24 73.63 C-73.07 66.07, -82.35 56.58, -94.13 47.24 M-60.77 72.82 C-68.6 65.42, -73.87 58.81, -91.64 44.87 M-59.73 70.79 C-69.33 64.17, -78.07 56.56, -90.11 45.05 M-57.22 70.77 C-62.89 61.66, -68.47 59.55, -87.37 41.91 M-55.84 69.28 C-65.63 60.32, -75.25 53.3, -86.97 43.39 M-50.36 67.19 C-59.03 60.95, -67.14 53.06, -84.74 40.07 M-53.18 67.35 C-59.96 59.41, -69.34 52.43, -83.97 39.82 M-47.64 64.12 C-58.45 58.65, -64.85 53.49, -80.17 39.14 M-49.69 64.73 C-55.47 58.18, -63.41 52.47, -80.17 39.16 M-43.19 65.18 C-58.75 51.46, -69.59 43.67, -75.11 38.26 M-44.3 63.51 C-56.63 53.4, -67.86 42.9, -76.29 35.74 M-40.43 63.78 C-48.67 55.5, -58.9 47.53, -72.2 34.82 M-41.36 61.18 C-52.29 50.56, -64.32 39.94, -72.71 35.02 M-35.98 61.16 C-50.54 49.37, -59.06 38.84, -67.38 33.82 M-36.41 59.52 C-44.52 52.84, -54.57 46.17, -67.35 31.84 M-31.48 56.56 C-43.88 48.48, -59.48 37.81, -66.01 30.73 M-33.75 57.48 C-44.87 48.58, -56.82 38.73, -65.65 30.05 M-28.28 55.32 C-41.2 46.24, -50.65 34.59, -59 28.91 M-28.97 56.23 C-37.05 46.93, -46.1 40.2, -60.5 28.74 M-27.24 55.04 C-36.28 44.03, -46.73 35.63, -58.19 27.09 M-24.59 54.03 C-37.4 44.49, -48.11 32.42, -57.4 26.57 M-20.68 51.66 C-29.99 45.16, -39.5 33.59, -52.23 25.53 M-21.76 51.13 C-29.87 46.01, -36.86 38.23, -52.2 24.66 M-18.96 51.63 C-24.44 43.44, -34.37 37.67, -50.42 24.01 M-16.71 50.82 C-30.37 39.1, -42.03 29.93, -48.72 23.53 M-14.36 46.01 C-25.76 37.62, -34.33 28.2, -46.14 21.48 M-14.41 48.26 C-27.14 37.59, -37.84 26.55, -46.01 21.4 M-8.97 44.57 C-16.74 39.6, -22.07 35.78, -40.92 17.35 M-10.28 45.47 C-19.59 37.41, -29.74 29.98, -42.21 18.43 M-5.29 43.98 C-18.61 31.41, -29.33 21.56, -36.62 14.4 M-6.63 44.26 C-13.41 38.23, -21.97 29.94, -38.56 16.37 M-2.15 41.88 C-14.4 31.58, -21.11 25.36, -35.48 16.14 M-2.34 43.18 C-8.86 35.68, -15.58 30.16, -33.29 14.74 M0.73 38.37 C-9.7 30.67, -25.44 17.75, -32.35 13.7 M0.74 39.73 C-10.42 29.52, -23.18 18.65, -29.6 12.56 M3.29 35.47 C-4.99 29.62, -12.8 23.39, -26.7 11.2 M0.5 34.77 C-6.71 26.02, -17.16 19.84, -25.52 10.49 M0.07 29.18 C-4.5 22.9, -10.57 21.04, -22.85 8.62 M1.76 29.25 C-5.09 22.75, -12.44 17.91, -23.95 8.55 M0.07 24.32 C-5.18 19.02, -12.54 11.43, -18.01 7.19 M2.27 23.96 C-3.63 20.52, -8.82 15.23, -18.52 6.31 M2.35 16.71 C-1.39 14.59, -5.27 13.35, -13.69 4.89 M0.48 18.48 C-5.24 13.63, -11.69 7.9, -14.8 5.2 M0.14 14.39 C-1.52 11.58, -2.24 7.75, -11.58 2.56 M1.65 13.39 C-3.5 9.03, -7.07 6.28, -11.92 3.3 M0.23 8.64 C-1.34 4.64, -5.92 3.33, -6.31 1.48 M0.48 7.87 C-1.44 6.09, -4.13 3.52, -6.94 0.87 M0.78 2.85 C-0.69 1.17, -1.85 -0.47, -4.11 -1.83 M0.39 2.59 C-0.64 1.38, -2.08 0.06, -3.87 -1.81" stroke="#6791ee" stroke-width="0.5" fill="none"></path><path d="M-0.88 -0.07 C1.99 11.72, 2.49 21.31, 1.68 42.84 M0.52 0.39 C-0.74 10.63, -0.7 20.28, 1.2 41.22 M0.09 40.39 C-27.07 56.85, -59.89 70.44, -98.87 89.7 M1.67 40.55 C-33.67 58.04, -67.78 75.47, -99.47 89.86 M-97.99 91.65 C-100.13 78.5, -97.73 65.15, -99.6 50.78 M-99.55 91.55 C-100.16 76.79, -99.35 62.09, -99.67 49.47 M-100.55 48.6 C-64.4 31.55, -30.74 15.11, 0.9 -1.29 M-100.92 49.4 C-63.4 31.34, -25.51 11.63, -0.23 -2.11 M0.32 -2.66 C0.16 -1.78, 0.27 -0.34, 0.19 0.15 M0.35 -2.66 C0.31 -2.21, 0.3 -1.54, 0.07 -0.11" stroke="#6791ee" stroke-width="1" fill="none"></path></g></g><mask></mask><g stroke-linecap="round"><g transform="translate(111.76676022062475 14.453340480665815) rotate(0 -47.50586775552438 34.989991022654294)" fill-rule="evenodd"><path d="M-97.66 50.26 C-97.66 50.26, -97.66 50.26, -97.66 50.26 M-97.66 50.26 C-97.66 50.26, -97.66 50.26, -97.66 50.26 M-94.19 52.81 C-93.02 50.55, -91.11 49.52, -87.13 45.19 M-94.63 52.62 C-92.82 50.93, -90.71 49.13, -87.74 45.19 M-91.96 54.87 C-85.67 49.03, -81.06 43.79, -75.93 40 M-91.16 55.67 C-87.18 49.26, -83.33 44.57, -77.45 40 M-86.37 58.15 C-82.42 51.12, -77.38 45.23, -68.04 34.14 M-86.36 56.53 C-80.95 50.37, -76.48 42.6, -67.34 34.2 M-84.87 58.07 C-78.64 50.76, -70.07 40.79, -57.62 28.09 M-84.53 58.8 C-77.78 51.57, -68.86 42.49, -57.28 28.53 M-79.32 60.46 C-75.52 54.59, -69.15 46.9, -47.48 23.22 M-80.79 61.99 C-70.37 49.37, -59.56 38.47, -48.3 23.24 M-75.56 62.16 C-61.56 46.73, -47.86 32.62, -36.97 19.75 M-76.89 62.74 C-67.91 53.49, -61.51 45.34, -38.95 18.83 M-73.65 64.87 C-58.75 49.09, -42.5 32.46, -29.37 14.9 M-73.22 65.47 C-56.2 46.06, -40.22 28.08, -28.44 13.06 M-71.97 69.01 C-55.26 49.32, -37.34 31.34, -16.77 8.99 M-70.8 67.05 C-52.58 48.62, -37.66 30.24, -17.4 7.83 M-65.92 71.15 C-51.81 53.04, -37.37 35.25, -7.41 3.6 M-67.74 71.04 C-44.53 44.39, -21.36 18.31, -9 2.15 M-64.88 70.07 C-47.49 54.71, -31.32 34.17, -0.59 -2.08 M-63.98 72.58 C-51.1 56.21, -37.7 42.3, 0.36 -0.67 M-59.48 72.91 C-40.27 52.62, -19.12 27.95, 3.36 1.39 M-60.49 75.36 C-37 46.43, -15.09 20.19, 3.17 2.42 M-52.65 70.51 C-31.41 45.98, -10.46 23.66, 2.69 6.52 M-49.99 69.75 C-38.99 57.5, -28.88 44.14, 2.74 7.83 M-40.01 63.18 C-29.1 49.67, -15.19 33.89, 0.99 13.33 M-41.26 65.36 C-24.82 45.02, -9.78 27.93, 2.02 14.57 M-31.69 61.41 C-19.3 47.43, -5.85 29.58, 4.99 21.43 M-32.71 60.62 C-25.19 51.66, -16.24 41.23, 3.67 19.21 M-20.98 53.53 C-14.92 44.84, -4.67 34.72, 5.17 23.7 M-22.87 55.24 C-15.77 46.43, -8.11 39.43, 2.83 26.29 M-15.12 50.66 C-7.7 46.22, -4.47 40.18, 4.21 31.39 M-13 49.89 C-7.35 44.47, -2.97 38.3, 3.77 30.27 M-98.07 50.32 C-98.07 50.32, -98.07 50.32, -98.07 50.32 M-98.07 50.32 C-98.07 50.32, -98.07 50.32, -98.07 50.32 M-74.76 63.02 C-84.46 57.09, -88.09 53.1, -95.67 50.46 M-76.76 62.87 C-81.31 59.12, -87.45 53.29, -93.53 47.9 M-60.91 71.69 C-72.01 60.44, -84.51 53.14, -88.95 46.78 M-63.2 70.3 C-74.11 61.22, -83.73 53.51, -90.69 45.99 M-58.95 67.82 C-68.01 59.09, -77.73 53.66, -86.56 43.75 M-58.63 69.22 C-70.16 59.35, -80.81 50.36, -86 44.82 M-56.04 66.1 C-62.65 61.8, -67.91 55.22, -81.32 40.72 M-55.23 67.29 C-62.61 60.05, -70.89 54.41, -83.28 42.92 M-51.95 62.77 C-57.12 60.65, -60.63 54.59, -80.19 39.55 M-51.47 64.81 C-59.54 56.71, -68.54 51.18, -78.46 39.72 M-48.38 62.9 C-55.43 53.88, -69.26 44.23, -76.47 39.45 M-47.17 62.85 C-56.63 55.91, -63.72 46.72, -75.57 37.23 M-44.33 59.92 C-54.29 53.67, -62.88 44.33, -69.84 38.37 M-42.75 61.59 C-52.17 53.68, -60.93 45.72, -70.61 36.28 M-40.22 57.02 C-49.08 52.31, -60.14 41.18, -66.58 35.9 M-39.09 58.47 C-47.43 52.02, -56.56 44.45, -67.56 34.15 M-33.28 58.63 C-44.28 51.03, -55.2 41.84, -63.62 30.57 M-34.81 56.58 C-44.77 49.28, -53.9 40.86, -64.24 32.8 M-33.42 56.55 C-41.82 46.86, -49.15 38.29, -60.68 30.81 M-31.9 55.56 C-40.5 48.52, -48.1 41.28, -60.32 30.53 M-27.08 52.06 C-36.87 45.48, -44.63 37.36, -56.43 28.28 M-27.39 52.45 C-36.66 44.68, -46.68 37.37, -57.21 28.17 M-23.88 52.05 C-32.96 42.9, -43.11 37.04, -51.82 25.4 M-23.84 50.78 C-34.6 42.46, -47.04 31.35, -51.27 27.45 M-20.53 47.18 C-31.02 39.3, -40.39 29.08, -50.01 25.47 M-21.01 49.4 C-28.52 41.54, -38.45 33.92, -49.5 23.87 M-16.6 45.91 C-21.89 41.35, -29.53 34.23, -44.16 22.72 M-15.52 47.44 C-23.09 41.32, -30.12 35.68, -45.2 21.63 M-14.02 46.1 C-21.11 37.68, -30.81 29.55, -40.89 21.91 M-12.09 44.59 C-18.45 40.3, -25.38 34.15, -41.18 19.97 M-9.1 44.32 C-18.01 35.75, -26.52 27.04, -36.37 19.62 M-9.39 43.38 C-15.01 38.03, -21.46 32.34, -37.7 19.35 M-3.99 43.42 C-11.39 33.3, -17.75 27.88, -32.44 15.19 M-5.34 41.42 C-13.41 34.22, -24.09 24.35, -34.41 15.14 M-2.49 38.61 C-7.86 33.37, -14.46 28.05, -28.73 16.07 M-0.72 38.4 C-7.97 32.97, -17.22 25.29, -30.25 13.81 M2.04 39.57 C-5.27 28.98, -17.2 21.03, -26.81 12.71 M3.14 36.92 C-6.11 29.39, -14.78 21.29, -25.44 12.63 M3.54 30.66 C-6.25 23.4, -12.84 18.63, -22.29 11.9 M3.34 31.6 C-6.15 25.71, -13.61 18.32, -21.38 9.84 M1.7 25.53 C-4.61 22.21, -11.55 14.83, -16.98 7.68 M2.12 26.45 C-5.8 19.39, -13.14 14.09, -18.61 8.32 M1.51 18.76 C-4.16 13.6, -9.21 8.96, -14.95 6.71 M2.56 21.31 C-1.26 18.04, -5.57 13.98, -14.74 5.82 M0.6 14.66 C-0.95 13.87, -6.21 6.88, -10.8 3.2 M1.94 15.45 C-1.42 11.7, -4.1 9.52, -10.47 4.55 M2.66 8.98 C-0.21 8.69, -1.71 5.59, -6.11 3.22 M2.35 9.83 C-0.26 7.9, -2.28 5.77, -7.11 1.91 M1.05 3.72 C0 3.48, -0.95 1.72, -3.4 -0.18 M1.36 4.12 C-0.33 2.58, -2.3 0.82, -3.6 0.08" stroke="#6791ee" stroke-width="0.5" fill="none"></path><path d="M1.93 -0.75 C-1.9 9.46, 0.94 15.29, -0.43 38.47 M-0.63 -0.53 C0.86 8.69, 1.19 16.03, 2.13 39.59 M2.83 38.39 C-14.65 47.63, -32.36 55.07, -65.23 72.47 M1.87 39.11 C-22.07 50.69, -46.06 63.66, -63.14 72.79 M-64.69 70.07 C-72.93 66.21, -83.69 58.99, -97.84 51.32 M-63.89 71.17 C-75.45 63.66, -88.05 56.45, -97.7 50.68 M-96.44 51.73 C-64.37 31.76, -36.54 15.9, -0.02 -2.81 M-97.23 50.74 C-59.16 30.21, -21.76 10.87, -1.61 -0.9 M-1.03 -1.55 C-0.84 -1.26, -0.54 -0.86, -0.17 0.1 M-0.96 -1.34 C-0.9 -1.11, -0.59 -0.88, 0.04 0.04" stroke="#6791ee" stroke-width="1" fill="none"></path></g></g><mask></mask><g stroke-linecap="round"><g transform="translate(173.57775056115543 85.3841960880028) rotate(0 -9.908280897427062 -36.98391892216438)" fill-rule="evenodd"><path d="M-60.21 -73.54 C-60.21 -73.54, -60.21 -73.54, -60.21 -73.54 M-60.21 -73.54 C-60.21 -73.54, -60.21 -73.54, -60.21 -73.54 M-61.07 -67.34 C-59.33 -67.81, -58.72 -69.73, -56.81 -71.68 M-60.45 -67.19 C-59.52 -68.82, -57.74 -69.88, -56.76 -71.45 M-60.16 -60.46 C-58.59 -63.85, -57.3 -65.38, -52.13 -69.73 M-60.18 -61.91 C-56.7 -64.27, -54.68 -68.11, -53.35 -69.42 M-60.98 -55.33 C-54.2 -58.92, -50.1 -63.91, -47.51 -67.52 M-59.57 -54.85 C-56.81 -58.19, -53.84 -61.53, -49.29 -67.68 M-61.9 -49.69 C-53.92 -56.34, -52.4 -58.17, -44.32 -65.55 M-60.45 -49.49 C-57.14 -53.86, -54.52 -55.96, -46.06 -65.12 M-58.85 -43.04 C-53.97 -50.66, -50.28 -54.32, -44.26 -62.82 M-60.89 -43.03 C-53.92 -49.76, -48 -57.52, -42.03 -63.11 M-58.82 -37.24 C-55.1 -41.03, -50.02 -49, -37.98 -62.02 M-59.82 -37.61 C-55.71 -42.34, -51.6 -46.64, -38.26 -61.54 M-60.56 -32.04 C-50.2 -42.05, -41.31 -53.65, -35.13 -58.96 M-60.16 -31.32 C-54.78 -37.38, -48.8 -43.93, -35.24 -59.64 M-55.18 -30.46 C-49.01 -41.19, -39.11 -48.21, -32.63 -55.87 M-56.45 -29.3 C-45.36 -41.27, -36.98 -50.88, -30.58 -57.18 M-54.02 -28.44 C-45.39 -35.3, -39.56 -45.13, -26.52 -55.56 M-51.79 -27.18 C-44.78 -36.19, -37.05 -45.41, -28.12 -56.34 M-49.9 -24.5 C-40.5 -32.93, -33.84 -42.22, -23.89 -55.47 M-48.38 -26.54 C-41.41 -35.92, -33.58 -44.49, -24.98 -53.71 M-44.33 -22.06 C-35.22 -32.68, -25.55 -44.49, -19.32 -53.12 M-45.84 -23.08 C-37.68 -32.29, -31.14 -40.25, -21.26 -51.41 M-40.73 -22.62 C-36.47 -28.11, -32.53 -32.37, -16.23 -51.21 M-41.67 -21.61 C-32.06 -32.56, -22.72 -43.95, -16.5 -50.12 M-36.25 -19.32 C-30.8 -28.63, -21.01 -38.84, -14.62 -47.22 M-38.25 -19.42 C-31.62 -26.74, -27.56 -33.04, -14.67 -48.41 M-35.02 -18.13 C-27.06 -26.11, -19.47 -33.18, -8.35 -46.58 M-35.23 -17.22 C-26.03 -28.32, -19.01 -37.23, -10.61 -45.76 M-28.68 -15.19 C-22.73 -27.9, -14.05 -36.44, -5.68 -44 M-31.33 -16.4 C-23.08 -25.41, -15.56 -33.49, -5.75 -43.72 M-28.27 -14.93 C-19.77 -23.17, -9.06 -33.76, -1.11 -41.62 M-27.33 -14.88 C-17.86 -23.9, -9.96 -32.52, -3.17 -41.84 M-24.08 -12.21 C-12.55 -22.23, -5.13 -30.6, 0.71 -39.15 M-23.16 -13.1 C-18.26 -18.81, -11.89 -23.92, 1.35 -39.59 M-21.54 -10.45 C-13.75 -18.21, -5.45 -28.34, 5.12 -39.94 M-18.98 -9.95 C-11.79 -19.18, -5.3 -27.57, 4.23 -38.37 M-17.08 -7.73 C-8.96 -15.01, -7.38 -20.2, 6.92 -36.42 M-16.21 -8.68 C-9.92 -15.57, -1.85 -23.64, 8.43 -36.6 M-14.03 -6.95 C-4.1 -14.8, 0.94 -22.02, 13.11 -35.19 M-12.61 -6.88 C-7.74 -12.44, -3.37 -17.93, 10.93 -34.73 M-10.49 -5.92 C-1.84 -12.61, 2.39 -18.38, 15.09 -30.64 M-9.36 -4.38 C0.43 -14.73, 9.23 -24.96, 15.84 -32.66 M-3.83 -2.75 C-0.83 -7.5, 5.69 -15.1, 19.41 -30.11 M-4.72 -2.47 C1.93 -11.59, 9.65 -20.46, 17.84 -30.66 M0.02 -1 C4.89 -9.59, 10.06 -17.19, 23.23 -27.2 M-2.54 -0.81 C5.03 -7.46, 10.39 -14.86, 22.56 -28.56 M2.78 0.75 C8.4 -5.14, 12.33 -8.8, 26.44 -27.98 M0.78 1.12 C7.6 -3.53, 11.27 -11.32, 25.47 -25.72 M9.82 -2.31 C14.82 -6.77, 19.59 -14.16, 27.79 -25.04 M11.1 -2.94 C16.42 -8.83, 23.87 -16.94, 28.82 -24.91 M17.2 -7.7 C22.33 -10.71, 28.41 -14.94, 33.04 -23.66 M18.42 -6.4 C24.47 -12.03, 27.75 -16.25, 32.6 -22.31 M26.79 -9.39 C30.54 -12.36, 33.89 -15.12, 35.09 -19.47 M28.06 -10.61 C30.85 -13.56, 33.97 -16.97, 36.65 -20.44 M37.16 -14.56 C38.02 -15.23, 38.87 -16.29, 40.36 -18.14 M36.83 -14.63 C37.32 -15.21, 38.04 -16.13, 40.29 -18.18 M-60.55 -32.47 C-60.55 -32.47, -60.55 -32.47, -60.55 -32.47 M-60.55 -32.47 C-60.55 -32.47, -60.55 -32.47, -60.55 -32.47 M-43.8 -23.81 C-46.93 -28.01, -53.39 -28.55, -60.71 -36.19 M-44.66 -23.72 C-49.97 -29.08, -55.47 -33.09, -59.79 -36.48 M-28.58 -16.93 C-38.6 -24.69, -45.93 -32.17, -60.5 -41.67 M-28.77 -14.67 C-38.41 -23.52, -47.07 -30.71, -60.25 -42.92 M-13.61 -5.97 C-21.52 -13.8, -29.8 -24.3, -59.4 -48.9 M-13.57 -7.5 C-30.7 -22.87, -50.38 -38.7, -60.93 -47.44 M-0.14 -0.87 C-18.2 -14.83, -35.37 -34.11, -60.76 -52.7 M0.33 -1.5 C-19.55 -17.96, -37.37 -34.05, -61.03 -53.42 M3.18 -4.13 C-10.26 -14.59, -24.6 -25.85, -60.91 -58.95 M4.84 -1.42 C-19.25 -24.75, -44.99 -45.41, -59.51 -58.51 M9.77 -5.76 C-15.46 -26.16, -38.36 -48.91, -58.34 -63.29 M8.67 -4.23 C-13.23 -21.7, -34.34 -40.98, -59.45 -63.17 M11.12 -6.47 C-7.6 -21.44, -24.45 -37.07, -59.31 -71.27 M12.17 -6.11 C-5.77 -22.67, -23.98 -36.61, -60.8 -68.58 M17.21 -8.54 C-2.09 -25.34, -20.26 -37.01, -59.43 -74.54 M16.5 -7.15 C-13.07 -33.84, -42 -60.07, -59.24 -74.66 M19.62 -11.34 C4.21 -25.82, -16.29 -39.99, -43.49 -66.47 M19.65 -10.66 C-3.51 -30.24, -25.25 -49.26, -43.1 -65.51 M23.17 -13.38 C3.29 -28.2, -13.58 -44.3, -24.89 -57.59 M24.8 -11.04 C11.78 -23.73, -3.45 -35.6, -26.04 -56.65 M29.06 -11.82 C15.21 -24.19, -0.02 -37.41, -9.42 -48.43 M28.3 -13.13 C19.45 -21.24, 10.95 -29.5, -9.98 -45.7 M34.21 -13.23 C23.34 -20.26, 15.32 -31.1, 7.01 -38.73 M31.85 -14.75 C26.55 -20.34, 18.46 -27.39, 5.91 -37.36 M35.5 -15.79 C31.85 -21.01, 29.49 -20.98, 23.63 -28.93 M37.43 -16.67 C33.19 -19.74, 29.97 -22.49, 23.43 -28.75" stroke="#4978eb" stroke-width="0.5" fill="none"></path><path d="M-0.07 0.16 C-15.53 -11.82, -32.73 -18.68, -59.98 -31.92 M-0.84 0.63 C-20.35 -11.11, -40.74 -21.66, -61.1 -32.11 M-58.33 -31.74 C-60.39 -46.3, -58.16 -65.66, -62.06 -74.13 M-59.88 -32.43 C-59.59 -43.84, -59.58 -57.89, -59.81 -72.99 M-60.93 -75.38 C-37.19 -60.56, -11.66 -49.55, 42.24 -18.02 M-61.09 -72.86 C-35.71 -59.91, -12.24 -45.95, 39.68 -17.69 M41.56 -17.4 C23.26 -12.36, 8.92 -2.05, 0.53 1.42 M40.17 -19.29 C25.89 -12.35, 12.98 -5.8, -0.27 0.51 M0 0 C0 0, 0 0, 0 0 M0 0 C0 0, 0 0, 0 0" stroke="#4978eb" stroke-width="1" fill="none"></path></g></g><mask></mask></svg>