<svg version="1.1" xmlns="http://www.w3.org/2000/svg" viewBox="0 0 262.5196288627495 260.110934427541" width="262.5196288627495" height="260.110934427541">
  <!-- svg-source:excalidraw -->
  
  <defs>
    <style class="style-fonts">
      @font-face {
        font-family: "Virgil";
        src: url("https://excalidraw.com/Virgil.woff2");
      }
      @font-face {
        font-family: "Cascadia";
        src: url("https://excalidraw.com/Cascadia.woff2");
      }
    </style>
  </defs>
  <g stroke-linecap="round"><g transform="translate(71.61349593105194 13.950673506897829) rotate(0 12.210629812295736 15.444743482178637)" fill-rule="evenodd"><path d="M0 0 C0 0, 0 0, 0 0 M0 0 C0 0, 0 0, 0 0 M-0.67 5.8 C1.97 4.4, 4.02 2.71, 5.74 -1 M-0.63 6.16 C1.94 4.56, 3.94 2.25, 5.95 -0.52 M-0.89 10.58 C6.35 4.87, 7.47 -0.39, 10.26 -0.35 M-0.64 11.51 C4.54 7.84, 7.99 3.27, 12.27 -1.69 M0.62 18.99 C6.73 9.19, 12 1.8, 15.87 -0.72 M-0.14 18.6 C5.6 12.58, 11.19 4.49, 18.57 -1.67 M1.3 23.92 C7.91 15.91, 16.38 4.95, 21.9 -3.89 M0.7 24.92 C9.71 13.25, 18.59 1.8, 22.93 -3.64 M-1 30.4 C11.32 18.4, 19.64 8.14, 27.9 -1.61 M0.15 30.84 C6.82 21.05, 15.12 14.5, 26.72 -1.15 M2.07 33.6 C7.38 26.72, 17.08 16.71, 29.27 3.88 M2.16 34.73 C9.96 25.16, 18.01 15.06, 27.7 4.82 M6.2 35.85 C13.93 26.83, 22.48 17.32, 28.67 9.96 M7.51 34.32 C12.85 27.08, 20.97 18.94, 26.94 11.08 M13.86 36.13 C16.79 31.38, 18.88 27.96, 26.17 16.78 M12.59 35.42 C15.92 29.85, 20.47 26.73, 27.23 17.61 M17.33 35.06 C20.39 30.47, 25.5 25.96, 27.34 23.88 M18.25 33.69 C21.07 29.64, 25.46 26.36, 26.72 23.53" stroke="#6691ee" stroke-width="0.5" fill="none"></path><path d="M0.38 0.25 C0.66 10.85, 1.74 22.41, 1.02 33.07 M0.85 -0.28 C0.2 13.78, 0.64 25.03, 0.97 31.59 M0.62 34.11 C7.95 33.36, 17.92 30.97, 23.87 33.86 M0.51 32.43 C7.02 33.33, 15.3 32.48, 24.1 33.54 M22.81 34.44 C22.52 24.75, 24.05 15.1, 23.28 -2.98 M25.32 32.91 C23.34 23.75, 23.92 11.88, 23.89 -3.55 M23.72 -1.43 C19.19 -1.87, 10.8 0.06, -0.16 -1.62 M23.7 -2.04 C19.71 -2.07, 13.41 -1.98, -0.9 -0.06 M0 0 C0 0, 0 0, 0 0 M0 0 C0 0, 0 0, 0 0" stroke="#6691ee" stroke-width="1" fill="none"></path></g></g><mask></mask><g stroke-linecap="round"><g transform="translate(121.0578437803905 12.999296617545951) rotate(0 11.359154360687342 16.42395376006357)" fill-rule="evenodd"><path d="M-0.18 -0.15 C-0.18 -0.15, -0.18 -0.15, -0.18 -0.15 M-0.18 -0.15 C-0.18 -0.15, -0.18 -0.15, -0.18 -0.15 M2.8 2.16 C3.86 1.44, 4.6 0.24, 5.14 -0.91 M2.85 2.37 C3.63 1.5, 4.58 0.48, 5.55 -0.62 M3.08 8.68 C3.67 6.96, 6.42 5.21, 11.52 0.81 M2.7 8.91 C5.56 5.8, 8.43 2.53, 10.41 -0.7 M1.59 14.27 C6.05 9.45, 11.06 2.7, 16.31 -2.03 M2.29 15.84 C5.42 11.24, 9.41 6.6, 15.49 -0.71 M3.48 20.71 C11.26 15.31, 17.11 7.22, 23.67 0.84 M3.31 20.94 C8.03 14.03, 14.03 8.07, 21.41 -0.56 M1.35 28.23 C11.11 18.94, 17.53 6.81, 24.29 0.06 M2.65 27.5 C9.67 18.45, 18.35 8.01, 24.57 0.77 M0.32 34.74 C7.55 26.93, 12.6 17.68, 26.01 9.24 M0.98 34.77 C8.54 26.65, 15.89 17.85, 24.29 8.25 M5.06 34.67 C15.29 28.27, 22.28 19.31, 25.27 12.85 M6.83 35.32 C12.15 28.22, 18.11 22.68, 25.74 13.02 M10.37 35.28 C14.91 32.19, 18.68 27.62, 24.83 17.42 M11.39 34.55 C14.47 31.22, 16.67 29.69, 24.92 19.81 M17.05 35.5 C20.46 32.79, 22.46 28.67, 25.53 25.43 M17.35 34.52 C19.2 31.68, 22.6 28.96, 24.95 25.89" stroke="#6691ee" stroke-width="0.5" fill="none"></path><path d="M-1.06 1.54 C-1.01 7.64, 0.49 17.89, -0.14 33.28 M0.43 0.3 C-0.85 8.85, 0.52 17.89, -1.35 34.63 M-2.5 33.78 C9.11 34.7, 19.08 34.31, 25.22 32.96 M-0.68 33.43 C6.69 33.92, 11.96 33.67, 23 32.97 M21.58 33.44 C22.19 22.72, 21.45 11.21, 22.79 -0.27 M23.74 32.9 C23.64 27.04, 23.61 19.46, 22.83 -1.22 M24.43 -1.78 C14.68 1.16, 4.22 -0.86, 0.42 -0.29 M24.05 -0.16 C17.86 -0.24, 12.2 -0.76, -0.76 -0.61 M-0.01 -0.34 C-0.05 -0.19, 0 -0.07, -0.02 -0.02 M-0.02 -0.34 C-0.01 -0.25, -0.02 -0.16, -0.01 -0.01" stroke="#4979ea" stroke-width="1" fill="none"></path></g></g><mask></mask><g stroke-linecap="round"><g transform="translate(165.65592246855624 11.113038228824735) rotate(0 13.52880012609478 18.627419221004516)" fill-rule="evenodd"><path d="M0 0 C0 0, 0 0, 0 0 M0 0 C0 0, 0 0, 0 0 M0.82 5.06 C2.07 3.86, 3.39 2.84, 4.36 1.05 M0.68 5.94 C1.11 4.38, 2.33 3.33, 4.53 1.27 M0.23 10.64 C3.22 9.16, 7.77 5.37, 8.4 0.47 M0.97 11.92 C2.84 8.37, 4.83 6.12, 9.22 0.97 M0.51 17.68 C5.25 12.71, 9.39 8.44, 14.82 0.88 M0.78 16.32 C4.74 11.46, 9.34 7.62, 14.43 2.31 M2.54 24.32 C7.12 17.03, 10.75 12.27, 18.9 1.73 M1.18 21.95 C6.26 17.21, 10.94 12.02, 18.9 1.78 M2.14 26.5 C6.65 21.18, 9.34 17.88, 24.33 2.02 M1.34 29.19 C11.05 19.33, 18.5 8.67, 23.9 1.98 M1.43 34.59 C11.89 23.65, 22.62 9.67, 27.95 1.75 M1.72 33.38 C8.09 26.92, 13.86 19.58, 29.37 3.51 M4.64 37.64 C10.4 30.53, 15.19 26.19, 29.43 8.62 M3.65 37.06 C10.45 30.97, 14.68 24.46, 28.33 10.12 M10.91 35.65 C15.72 30.96, 25.45 19.18, 30.55 13.87 M10.36 38.39 C14.98 31.93, 18.83 26.45, 29.43 15.74 M16.61 39.51 C18.78 33.3, 25 27.1, 28.91 21.83 M14.59 38.34 C18.07 35.31, 21.49 32.01, 28.99 22.29 M20.92 36.61 C21.5 34.85, 24.23 33.53, 30.05 28.77 M20.64 37.87 C23.6 33.51, 26.1 29.99, 28.94 28.11" stroke="#6691ee" stroke-width="0.5" fill="none"></path><path d="M1.01 -1.11 C1.74 12.82, 0.96 26.6, 1.39 38.37 M0.96 -0.46 C0.82 7.41, 0.57 14.71, 2.23 37.92 M1.36 35.25 C13.9 38.36, 22.36 35.54, 25.71 35.04 M3.36 36.8 C12.02 36.04, 20.2 35.72, 27.15 36.36 M26.29 36.02 C27.02 24.67, 26.29 13.18, 25.56 1.86 M25.9 35.61 C25.31 22.2, 26.49 9.95, 25.47 1.43 M23.73 0.79 C21.35 -0.17, 16.25 2.35, 1.19 0.05 M25.22 0.58 C19.5 0.88, 14.71 0.1, 2.58 -0.78 M2.76 -0.98 C1.9 -0.77, 0.75 -0.42, 0.03 0.14 M2.59 -0.72 C1.65 -0.43, 0.89 -0.39, -0.1 -0.04" stroke="#6691ee" stroke-width="1" fill="none"></path></g></g><mask></mask><g stroke-linecap="round"><g transform="translate(251.52259004478503 72.17889727449915) rotate(0 -18.66446576386636 10.62659427659446)" fill-rule="evenodd"><path d="M-37 -0.37 C-37 -0.37, -37 -0.37, -37 -0.37 M-37 -0.37 C-37 -0.37, -37 -0.37, -37 -0.37 M-37.11 4.82 C-35.3 3.7, -33.26 1.36, -31.65 -0.52 M-36.47 5.06 C-35.5 3.99, -34.8 2.73, -32 -0.12 M-36.87 11.19 C-34.06 8.99, -31.99 4.49, -26.32 0.9 M-36.12 11.73 C-34.83 8.03, -30.82 5.24, -26.45 -0.96 M-35.23 18.49 C-32.38 13.64, -26.88 7.18, -22.69 -1.85 M-36.44 16.98 C-31.76 10.62, -25.44 4.59, -21.09 0.23 M-35.19 24.03 C-30.73 18.34, -28.73 12.96, -17.68 -0.32 M-34.84 22.43 C-30.38 15.59, -25.02 10.29, -15.98 -1.37 M-31.42 23.66 C-27.01 16.24, -24.27 13.34, -12.06 -1.15 M-29.63 22.73 C-22.9 13.92, -15.51 3.93, -10.64 0.09 M-26.91 21.75 C-18.6 13.91, -11.75 4.25, -4.38 2.2 M-25.05 22.63 C-19.45 14.96, -13.44 7.76, -6.35 0.78 M-20.28 21.69 C-13.77 16, -5.77 6, 1.84 -1.71 M-20.2 21.76 C-11.73 13.31, -3.99 5.19, 0.03 0.72 M-13.61 23.59 C-7.64 13.17, -1.09 7.01, 3.02 2.35 M-15.48 23.59 C-8.58 16.77, -3.42 9.02, 3.21 2.67 M-11.53 23.97 C-4.55 19.66, -2.61 13.2, 0.94 7.04 M-9.62 23.34 C-5.57 18.42, -1.97 15.64, 2.1 8.09 M-5.21 24.42 C-3.08 20.54, 0.1 16.66, 1.33 16.06 M-4.44 24.03 C-2.4 21.43, -0.52 19.27, 2.25 15.57 M-36.2 21.82 C-36.2 21.82, -36.2 21.82, -36.2 21.82 M-36.2 21.82 C-36.2 21.82, -36.2 21.82, -36.2 21.82 M-31.05 21.78 C-33.18 20.13, -34.74 17.94, -37 15.67 M-30.83 21.36 C-32.13 19.72, -33.61 18.39, -36.58 16.49 M-25.15 21.57 C-25.34 17.85, -30.26 18.16, -36.64 12.15 M-23.89 22.21 C-27.61 19.05, -31.73 14.7, -37.31 9.77 M-19.62 20.35 C-25.42 16.74, -29.72 11.15, -36.49 4.41 M-17.69 21.19 C-23.54 17.48, -29.31 11.74, -37.58 5.85 M-10.83 23.97 C-16.01 16.08, -23.67 12.82, -37.38 1.43 M-10.73 22.4 C-18.25 16.77, -24.98 10.07, -37.68 0.36 M-6.06 21.65 C-12.03 16.54, -21.38 7.13, -35.63 -1.67 M-5.52 23.21 C-13.15 14.03, -22.48 7.33, -34.62 -3.98 M-0.08 21.47 C-6.05 17.49, -10.92 10.8, -29.5 -2.79 M0.39 20.84 C-8.34 14.12, -16.08 8.47, -28.03 -2.03 M-0.47 16.56 C-3.13 10.27, -8.62 8.96, -20.51 -2.39 M0.49 15.85 C-7.68 8.06, -16.87 0.73, -21.39 -3.96 M2.2 13.16 C-5.11 5.19, -12.93 1.42, -15.37 -3.47 M1.52 12.42 C-2.35 9.03, -5.44 5.39, -16.64 -3.95 M1.11 6.36 C-3.37 2.07, -6.66 -0.11, -9.47 -2.6 M1.33 7.02 C-1.21 4.41, -4.52 1.72, -9.4 -2.96 M1.02 0.37 C-1.41 -1.01, -2.98 -1.48, -4.43 -2.64 M0.55 0.96 C-0.5 -0.29, -1.7 -0.88, -4.04 -3.33" stroke="#4979ea" stroke-width="0.5" fill="none"></path><path d="M-0.82 1.74 C-1.12 6.44, -0.94 9.54, -2.64 21.51 M0.92 0.75 C0.5 6.14, -0.25 14.06, -0.86 23.28 M-2.91 20.84 C-15.7 21.62, -26.93 22.18, -38.33 22.54 M-1.72 22.42 C-13.6 22.06, -28.22 22.2, -37.23 21.46 M-37.8 20.39 C-38.5 14.14, -36.98 9.76, -36.01 -2.03 M-37.44 22.07 C-37.07 12.99, -35.92 4.91, -37.64 -0.91 M-36.59 -0.69 C-28.61 -0.56, -21.1 -0.5, 0.76 1.07 M-37.01 -0.24 C-22.75 -0.28, -7.09 0.54, 1 0.06 M0 0 C0 0, 0 0, 0 0 M0 0 C0 0, 0 0, 0 0" stroke="#4979ea" stroke-width="1" fill="none"></path></g></g><mask></mask><g stroke-linecap="round"><g transform="translate(251.43341340300287 119.83435493010074) rotate(0 -18.868138805880562 10.412498100786593)" fill-rule="evenodd"><path d="M-36.85 -1.56 C-36.85 -1.56, -36.85 -1.56, -36.85 -1.56 M-36.85 -1.56 C-36.85 -1.56, -36.85 -1.56, -36.85 -1.56 M-37.44 4.3 C-36.35 3.98, -34.07 1.64, -31.52 -0.61 M-37.23 4.67 C-35.61 3.22, -34.19 1.79, -31.7 -1.26 M-36.21 10.91 C-33.82 7.08, -33.21 4.21, -28.04 -0.64 M-36.22 9.87 C-34.18 7.24, -30.29 3.26, -26.34 -0.25 M-37.97 15.95 C-30.33 8.31, -23.91 1.39, -21.72 -1.59 M-35.7 16.02 C-29.71 10.3, -24.52 2.43, -22.46 -0.12 M-37.53 22.45 C-27.64 16.42, -21.99 8.28, -14.39 -0.71 M-35.12 21.86 C-31.07 16.33, -26.97 10.32, -16.34 -0.93 M-35.52 25.05 C-25.83 19.02, -19.46 9.85, -13.2 -1.78 M-33.8 25.45 C-25.6 15.96, -19.71 7.75, -11.77 0.4 M-26.28 26.3 C-23.86 20.4, -18.34 13.19, -6.09 1.67 M-28.12 24.08 C-22.47 18.48, -17.45 10.81, -5.37 -0.35 M-24.02 26.88 C-17.17 19.34, -15.94 14.65, -0.62 0.33 M-22.56 24.46 C-17.6 20.51, -14.64 15.51, -0.58 0.52 M-16.14 24.4 C-14.66 18.07, -8.66 13.6, 1.57 2.6 M-16.81 24.71 C-10.15 16.79, -3.96 10.73, 3.03 2.55 M-12.31 22.41 C-5.63 18.75, -2.15 15.16, 0.95 9.46 M-11.56 23.78 C-8.14 19.94, -2.93 16.32, 2.23 9.18 M-5.78 23.04 C-5.32 22.14, -4 20.3, 1.38 15.26 M-5.71 24.24 C-4.38 22.5, -2.35 20.15, 0.92 16.13 M-35.88 22.98 C-35.88 22.98, -35.88 22.98, -35.88 22.98 M-35.88 22.98 C-35.88 22.98, -35.88 22.98, -35.88 22.98 M-29.59 23.28 C-30.89 21.75, -33.7 19.43, -36.78 16.98 M-30.41 22.54 C-32.28 20.88, -34.04 19.74, -36.23 17.32 M-23.9 23.48 C-27.46 17.4, -31.33 14.73, -36.02 10.71 M-25.14 22.06 C-28.26 18.65, -32.84 14.95, -36.72 11.63 M-18.55 23.06 C-25.47 17.48, -30.53 11.84, -35.71 6.49 M-18.14 22.57 C-23.97 18.12, -28.26 13.49, -36.41 5.34 M-11.26 23.09 C-20.32 15.99, -26.88 8.79, -36.78 0.49 M-13.51 21.28 C-21.91 15.28, -29.14 6.69, -36.84 1.91 M-6.73 20.29 C-17.59 12.49, -28.8 2.85, -34.79 -1.49 M-6.54 21.49 C-14.84 15.13, -22.59 7.91, -35.94 -2.83 M-1.35 20.63 C-8.71 13.67, -15.42 8.01, -28.01 -3.93 M-0.94 21.2 C-11.96 12.47, -20.5 3.16, -28.24 -3.99 M0.63 14.52 C-7.1 9.85, -15.2 4.67, -21.41 -1.45 M-1.11 17.21 C-4.55 12.78, -9.83 8.63, -21.81 -2.94 M1.14 11.43 C-3.16 9.55, -7.83 2.93, -15.38 -2.93 M-0.82 11.98 C-5.59 6.71, -9.26 3.85, -16.75 -2.12 M0.33 5.41 C-4 3.67, -6.52 0.64, -9.23 -2.9 M-0.52 6.1 C-3.81 2.78, -6.86 -0.49, -9.39 -2.44 M0.5 1.5 C-0.55 -0.05, -2.47 -0.71, -3.45 -1.6 M0.24 1.33 C-0.76 0.67, -1.64 -0.16, -3.77 -1.91" stroke="#4979ea" stroke-width="0.5" fill="none"></path><path d="M-1.76 0.56 C1.33 5.97, 1.36 8.89, 0.33 21.64 M0.72 0.48 C-0.16 5.05, -0.61 12.45, -0.89 21.62 M0.35 20.98 C-11.22 21.6, -21.58 20.55, -38 23.72 M-1.89 22.33 C-13.76 22.71, -25.29 23.34, -35.92 23.11 M-35.73 21.14 C-37.65 16.36, -36.16 9.48, -36.02 -2.15 M-36.69 22.98 C-37.23 15.36, -36.12 7.23, -37.64 -0.8 M-38.68 -2.89 C-24.55 0.31, -12.61 1.4, 0.08 -0.47 M-36.89 -0.67 C-28.29 -2.02, -18.07 -0.57, 0.87 0.48 M0 0 C0 0, 0 0, 0 0 M0 0 C0 0, 0 0, 0 0" stroke="#4979ea" stroke-width="1" fill="none"></path></g></g><mask></mask><g stroke-linecap="round"><g transform="translate(251.13922254977854 165.10395772883544) rotate(0 -18.282399316537067 11.561320782090888)" fill-rule="evenodd"><path d="M-36.02 0.49 C-36.02 0.49, -36.02 0.49, -36.02 0.49 M-36.02 0.49 C-36.02 0.49, -36.02 0.49, -36.02 0.49 M-36.04 6.81 C-35.38 4.13, -33.25 3.6, -29.49 -0.02 M-36.46 6.73 C-34.61 4.58, -32.94 3.03, -30.44 0.13 M-36.11 14.15 C-32.24 8.67, -29.71 4.33, -26.44 -1.01 M-37.15 13.61 C-33.69 9.63, -30.59 6.14, -24.81 0.58 M-35.1 18.44 C-29.54 11.94, -25.77 4.91, -18.65 -1.86 M-35.6 18.22 C-28.73 10.52, -22.23 4.15, -19.17 1 M-37.37 26.15 C-28.57 17.7, -19 7.42, -14.89 0.44 M-35.51 23.69 C-26.52 15.14, -18.31 6.39, -14.42 -0.24 M-29.76 24.08 C-23.24 17.09, -16.2 6.06, -8.17 1.08 M-29.27 24.86 C-24.25 17.03, -19.45 11.45, -8.88 0 M-23.92 24.32 C-18.52 15.08, -9.79 5.93, -2.23 -1.15 M-24.62 24.88 C-16.15 15.43, -7.79 4.69, -5.06 0.07 M-21.02 23.46 C-12.45 16.66, -7.12 9.64, -0.3 0.74 M-19.27 24.51 C-14.94 19.67, -10.66 13.99, 1.17 1.6 M-14.17 23.32 C-9.06 16.64, -2.77 9.54, -0.13 7.19 M-14 24.13 C-9.97 19.18, -7.74 16.59, -0.25 7.05 M-9.4 24.67 C-5.75 20.18, -4.38 19.1, 0.93 14.87 M-9.38 23.93 C-7.22 21.3, -4.23 19.74, 0.78 13.98 M-2.85 23.89 C-2.41 21.95, -1.74 20.89, 0.8 19.74 M-3.09 24.01 C-1.87 22.36, -0.93 21.29, 0.95 19.38 M-36.43 23.62 C-36.43 23.62, -36.43 23.62, -36.43 23.62 M-36.43 23.62 C-36.43 23.62, -36.43 23.62, -36.43 23.62 M-30.76 23.3 C-33.1 22.54, -34.01 20.11, -35.8 19.27 M-30.9 23.33 C-32.24 21.58, -34.6 20.12, -35.79 18.43 M-25.35 24.84 C-28.48 21.91, -28.17 18.18, -35.29 14.05 M-23.61 23.34 C-27.66 19.94, -31.91 16.24, -37.12 13.04 M-19.47 22.58 C-25.1 15.8, -32.81 11.39, -37.43 8.42 M-19.21 22.95 C-25.02 17.07, -31.7 13.23, -35.92 7.62 M-14.19 24.13 C-19.12 16.78, -27.69 8.76, -37.61 4.48 M-12.21 24.14 C-19.36 16.25, -27.65 10.23, -35.9 2.8 M-6.08 24.21 C-14.08 17.17, -25.44 7.49, -35.13 -2.33 M-7.5 22.51 C-13.5 16.82, -21.93 10.41, -33.99 -1.77 M0.17 23.82 C-13.49 13.65, -20.52 2.43, -29.17 0.81 M-1.14 22.63 C-11 14.08, -19.08 5.86, -28.56 -0.52 M1.01 20.21 C-3.4 13.71, -8.59 9.53, -23.98 0.07 M2.59 20.89 C-3.48 15.37, -9.83 11.01, -22.88 -2.04 M2.65 14.32 C-2.6 8.44, -10.22 4.77, -15.97 -3.07 M2.12 15.09 C-3.63 9.71, -9.73 4.39, -16.89 -1.87 M1.3 9.58 C0.72 5.77, -3.77 3.84, -11.3 -0.96 M2 10.4 C-2.59 5.03, -7.11 1, -10.68 -1.36 M3.16 5.33 C0.15 2.4, -1.13 1.22, -4.87 -0.62 M2.52 4.56 C0.89 3.02, -1.29 1.1, -4.28 -1.08" stroke="#4979ea" stroke-width="0.5" fill="none"></path><path d="M-1.88 -1.34 C0.18 4.42, -1.08 10.9, 1.32 24.31 M-0.51 0.34 C0.21 6.27, -0.89 14.08, -1.36 22.64 M-0.86 22.65 C-10.77 23.95, -23.32 24.69, -35.27 23.54 M0.24 22.19 C-8.68 23.75, -17.31 22.37, -36.21 22.99 M-37.88 24.46 C-36.58 18.6, -38.23 15.58, -35.35 -1.05 M-37.38 23.52 C-35.7 16.16, -35.39 7.58, -36.81 -0.31 M-35.18 0.26 C-28.39 0.18, -20.44 -0.63, -1.54 0.89 M-36.12 0.36 C-24.45 1.03, -13 -0.73, 0.81 -0.28 M0 0 C0 0, 0 0, 0 0 M0 0 C0 0, 0 0, 0 0" stroke="#4979ea" stroke-width="1" fill="none"></path></g></g><mask></mask><g stroke-linecap="round"><g transform="translate(167.60705418486293 212.3218437867995) rotate(0 11.293126288809049 18.039759665841757)" fill-rule="evenodd"><path d="M0 0 C0 0, 0 0, 0 0 M0 0 C0 0, 0 0, 0 0 M0.36 5.78 C1.63 3.85, 3.3 2.23, 5.44 0.78 M-0.37 6.11 C1.47 3.98, 3.28 2.34, 4.81 0.01 M-1.22 10.91 C2.51 7.89, 4.92 6.17, 9.75 -0.75 M0.34 12.23 C3.06 8.29, 6.12 5.35, 10.03 0.02 M-1.96 18.43 C5.63 15.13, 10.24 8.81, 16.68 2.58 M0.03 18.35 C3.69 14.73, 5.35 10.39, 15.33 0.77 M0.75 23.31 C7.52 16.24, 13.58 11.32, 18.4 0.09 M-0.61 24.4 C3.79 18.53, 8.97 14.44, 19.29 2.34 M-0.37 31.23 C5.37 24.32, 11.03 16.96, 26.22 3.5 M-1.44 30.81 C4.82 25.08, 8.68 19.54, 23.73 1.85 M0.8 36.21 C8.5 28.01, 16.69 19.88, 25.84 9.23 M0.07 37.65 C8.81 25.98, 18.13 17.56, 23.76 9.59 M0.79 39.7 C11.47 28.38, 18.08 19, 23.94 14.46 M2.6 40.36 C10.57 30.58, 18.58 21.96, 23.74 14.52 M9.46 41.26 C13.12 32.19, 20.55 23.63, 24.48 19.73 M7.17 39.65 C12.4 33.61, 17.68 29.21, 23.89 21.07 M12.85 40.31 C17.12 35.77, 17.88 32.5, 25.19 28.52 M14.05 39.65 C15.98 36.83, 17.6 34.67, 24.28 28.11 M19.62 38.63 C20.35 38.22, 21.16 36.69, 23.73 33.29 M19 39.39 C19.86 38.28, 20.86 37, 23.87 33.75 M-0.53 37.19 C-0.53 37.19, -0.53 37.19, -0.53 37.19 M-0.53 37.19 C-0.53 37.19, -0.53 37.19, -0.53 37.19 M5.2 37.18 C3.43 34.66, 1.8 33.18, 0.47 31.85 M5.46 36.72 C3.16 35.7, 1.65 34.18, -0.24 32.42 M11.58 36.44 C6.62 32.2, 1.79 30.26, -0.02 27.09 M11 36.83 C5.59 32.16, 1.45 28.23, -0.27 26.78 M16.71 36.65 C13.7 30.33, 5.19 28.34, 0.55 21.63 M16.37 37.19 C11.1 32.67, 5.8 27.94, -1.13 21.34 M23.1 34.97 C14.51 29.34, 4.31 19.65, 0.03 15.09 M23.51 37.2 C16.06 30.51, 8.01 23.86, 0.04 16.06 M20.89 29.24 C15.38 25.02, 6.82 18.61, -1.45 11.34 M21.94 31.2 C17.32 27.02, 13.7 23.25, 0.24 11.58 M23.25 24.58 C14.96 18.39, 8.8 12.25, 0.36 6.6 M21.99 25.81 C16.26 19.95, 8.47 13.18, 0.72 6.1 M21.1 21.89 C12.81 14.17, 3.02 4.23, 1.08 -0.24 M22.59 19.78 C15.51 13.84, 7.81 7.89, 0.5 -0.21 M23.22 15.84 C18.06 8.6, 11.17 6.53, 3 -1.52 M23.68 14.22 C16 8.54, 9.62 4.16, 2.95 -1.81 M21.19 8 C19.41 4.43, 12.01 2.29, 8.45 -3.05 M22.26 8.82 C19.28 6.03, 16.75 4.57, 9.29 -2.07 M23.1 3.98 C19.63 2.01, 18.35 0.25, 16.67 -2.19 M23.07 4.76 C21.04 2.88, 19.26 1.08, 16.05 -1.83" stroke="#4979ea" stroke-width="0.5" fill="none"></path><path d="M0.25 -1.68 C-1.22 12.35, -1.81 25.94, 0.49 37.59 M-0.17 -0.79 C-1.13 12.77, -0.31 23.88, -0.1 37.67 M0.77 37.46 C7.9 35.92, 13.12 37.91, 22.81 37.1 M0.13 36.83 C4.71 36.95, 9.98 36.35, 22.48 35.84 M23.63 37.76 C20.98 22.11, 21.88 8.04, 21.74 0.4 M22.71 36.49 C21.88 27.1, 23.36 17.14, 23.37 1.76 M20.61 1.92 C19.26 -0.39, 12.03 2.87, 0.78 0.18 M21.82 1.21 C17.69 0.66, 11.68 1.35, -0.7 0.5 M0 0 C0 0, 0 0, 0 0 M0 0 C0 0, 0 0, 0 0" stroke="#4979ea" stroke-width="1" fill="none"></path></g></g><mask></mask><g stroke-linecap="round"><g transform="translate(121.109440960396 213.15605902702282) rotate(0 10.579477484627034 18.084350048212855)" fill-rule="evenodd"><path d="M0 0 C0 0, 0 0, 0 0 M0 0 C0 0, 0 0, 0 0 M-0.66 5.89 C1.15 4.81, 3.44 1.23, 5.46 0.22 M-0.65 6.36 C0.95 4.74, 2.3 3.32, 5.19 0.6 M0.88 13.51 C2.3 7.48, 6 5.35, 9.97 2.08 M-1.01 13.45 C2.56 10.51, 4.63 8.02, 10.11 0.99 M-0.45 19.67 C0.96 16.67, 6.34 10.47, 15.02 1.8 M-1.33 20.57 C1.48 15.94, 6.45 9.79, 13.99 0.53 M-0.94 24.42 C7.05 19.45, 15.05 7.62, 18.09 1.5 M-0.72 27 C3.49 20.59, 7.58 16.26, 20.94 1.28 M-1.33 32.47 C6.35 25.53, 14.63 16.85, 24.51 3.88 M-1.61 33.45 C5.19 23.97, 13.22 14.8, 24.44 3.24 M1.03 35.83 C9.6 27.46, 16.27 15.77, 25.74 8.09 M-0.38 37.75 C6.11 30.93, 11.35 23.36, 23.26 9.5 M4.64 36.79 C12.61 28.41, 18.38 21.1, 25.41 13.37 M4.94 37.12 C11.3 30.83, 15.94 23.74, 24.75 15.85 M12.26 36.05 C13.79 30.68, 18.53 24.15, 22.97 20.14 M10.21 36.58 C15.81 32.76, 19.49 27.28, 24.73 21.2 M15.04 37.7 C17.79 35.08, 17.94 34.5, 22.6 28.15 M15.39 37.36 C17.87 33.91, 20.61 30.12, 23.24 28.03 M-2.33 36.21 C-2.33 36.21, -2.33 36.21, -2.33 36.21 M-2.33 36.21 C-2.33 36.21, -2.33 36.21, -2.33 36.21 M3.61 35.72 C1.44 34.38, -0.27 32.78, -2.42 31.54 M3 35.54 C1.87 34.3, 0.29 32.98, -2.29 30.9 M8.25 34.38 C5.96 32.95, 2.91 31.35, -2.03 25.3 M8.78 35.31 C6.14 33.73, 4.41 31.9, -1.22 25.73 M15.4 37.28 C9.94 33.82, 7.26 30.41, -2.39 22.35 M15.81 36.3 C9.25 29.16, 1.54 25.09, -0.81 20.79 M22.91 36.9 C14.01 28.83, 9.61 24.34, -2.28 16.75 M20.85 35.97 C12.59 27.95, 6.1 21.38, 0.09 15.27 M26.33 31.21 C16.7 27.7, 13.21 23.76, 0.75 12.75 M24.55 32.51 C17.95 26.24, 11.13 19.97, -0.77 11.33 M23.1 26.45 C18.84 23.71, 13.78 16.55, -1.38 6.17 M24.69 27.65 C16.21 19.48, 7.54 11.81, -0.15 6.66 M22.49 20.8 C13.8 15.41, 5.95 6.86, -1.27 0.8 M24.49 21.95 C14.82 14.65, 8.08 6.67, 0.27 1.41 M24.48 15.32 C16.33 10.3, 7.82 3.8, 1.66 -3.43 M24.74 18.04 C15.72 9.35, 6.99 1.64, 1.84 -2.45 M25.21 13.4 C19.82 8.4, 14.97 5.44, 7.36 -1.69 M23.48 11.36 C21.05 7.76, 16.17 4.13, 8.29 -2.02 M25.18 7.19 C20.89 2.91, 16.34 0.36, 14.48 -1.48 M25.3 6.98 C22.91 4.88, 21.21 3.01, 15.03 -1.46" stroke="#4979ea" stroke-width="0.5" fill="none"></path><path d="M-1.99 -0.45 C-0.82 13.5, -3.36 21.95, -1.74 36.95 M-0.33 -0.79 C-0.15 10.11, -0.66 21.13, -1.68 35.27 M-2.59 36.5 C3.16 36.18, 11.81 34.28, 20.51 35.83 M-2.74 36.91 C4.94 36.32, 10.84 35.1, 22.21 35.84 M23.9 33.69 C20.83 24.52, 22.64 12.44, 22.49 0.12 M22.26 34.74 C23.14 24.13, 23.15 14.44, 23.3 1.81 M22.9 1.82 C13.16 0.46, 5.17 1.17, -0.65 0.24 M21.37 0.56 C15.1 1.78, 8.44 0.92, 0.6 0.6 M0 0 C0 0, 0 0, 0 0 M0 0 C0 0, 0 0, 0 0" stroke="#4979ea" stroke-width="1" fill="none"></path></g></g><mask></mask><g stroke-linecap="round"><g transform="translate(97.63970796471324 213.320295152442) rotate(0 -13.263783297685222 17.528475185275852)" fill-rule="evenodd"><path d="M-25.81 0.09 C-25.81 0.09, -25.81 0.09, -25.81 0.09 M-25.81 0.09 C-25.81 0.09, -25.81 0.09, -25.81 0.09 M-26.41 6.74 C-23.73 4.84, -22.75 1.7, -20.87 0.91 M-25.92 6.84 C-24.49 4.86, -22.89 2.61, -20.67 0.83 M-26.88 11.23 C-22.11 9.87, -19.85 5.42, -15.58 1 M-25.96 11.36 C-23.43 9.91, -21.19 6.22, -15.09 0.43 M-27.93 18.07 C-20.93 11.48, -15.39 6.2, -11.25 2.12 M-25.2 18.13 C-22.85 13.86, -19.28 9.78, -10.27 0.2 M-24.47 24.8 C-19.95 17.79, -13.43 10.75, -4.13 -0.96 M-26.51 25.64 C-20.59 17.55, -14.36 10.2, -4.46 0.94 M-25.02 30.57 C-20.83 23.01, -14.06 17.13, -0.96 0.7 M-25.35 30.9 C-18.97 23.21, -12.3 14.79, -0.94 2.04 M-24.51 36.62 C-16.71 25.89, -7.14 17.41, -1.87 8.82 M-23.82 35.16 C-18.37 29.25, -14.42 22.47, -0.92 8.99 M-19.87 37.75 C-14.38 27.47, -6.32 20.46, -2.96 13.82 M-19.69 35.6 C-14.98 30.99, -11.49 27.19, -0.74 14.33 M-13.69 36.49 C-10.83 30.84, -9.72 29.59, -2.14 22.07 M-14.79 36.75 C-11.9 32.99, -7.03 28.39, -1.42 21.09 M-10.1 35.24 C-6.31 32.87, -4.68 30.21, -1.91 27.75 M-10.44 36.26 C-5.96 32.59, -3.08 29.71, -0.77 26.57 M-4.78 36.54 C-3.92 35.55, -2.43 33.67, -1.58 33.48 M-4.86 36.7 C-3.4 35.3, -2.3 33.97, -1.74 33.1 M-25.8 34.25 C-25.8 34.25, -25.8 34.25, -25.8 34.25 M-25.8 34.25 C-25.8 34.25, -25.8 34.25, -25.8 34.25 M-19.46 34.04 C-21.76 32.51, -23.7 30.75, -26.89 28.17 M-19.09 34.51 C-22.25 32.17, -23.95 30.4, -25.88 28.52 M-12.22 34.39 C-17.06 31.32, -20.34 27.52, -24.08 23.39 M-11.65 34.62 C-15.74 30.99, -20.07 27.55, -26.3 23.21 M-6.02 35.83 C-9.45 31.17, -13.25 29.59, -25.24 18.73 M-6.51 36.3 C-10.25 31.04, -14.97 27.9, -26.33 18.09 M-2.77 33.15 C-9.36 27.92, -18.49 20.13, -26.72 14.35 M-1.47 34.14 C-6.01 28.89, -11.68 24.76, -25.7 12.64 M-3.24 27.57 C-9.33 22.22, -14.4 18.18, -24.92 8.88 M-1.59 28.14 C-9.76 21.81, -17.2 15.09, -26.98 6.62 M-1.54 22.16 C-7.89 19.34, -12.62 16.63, -25.23 2.47 M-1.18 23.61 C-7.35 19.38, -12.25 14.66, -26.84 2.87 M0.32 16.77 C-7.46 13.75, -14.86 5.34, -24.8 -2.34 M-1.02 17.47 C-10.91 9.65, -20.32 3.08, -24.78 -1.64 M-0.13 13.41 C-4.98 10.47, -13.14 5.24, -19.49 -0.47 M-0.69 13.82 C-6.19 8.11, -12.24 2.86, -18.78 -2.39 M-1.19 8.78 C-4.28 5.41, -7.52 2.85, -13.28 -1.84 M-0.79 8 C-5.58 3.59, -9.34 0.49, -12.67 -1.03 M-1.27 2.44 C-3.05 1.85, -3.14 0.81, -6.72 -1.25 M-0.85 2.75 C-2.56 1.27, -4.23 0.31, -6.49 -1.61" stroke="#4979ea" stroke-width="0.5" fill="none"></path><path d="M0.81 -1.5 C-9.42 -1.69, -17.99 -1.7, -26.97 -0.92 M-0.1 0.01 C-8.11 0.09, -17.78 -0.48, -26.07 0.8 M-26.3 0.26 C-25.35 11.89, -25.32 21.63, -24.96 34.3 M-26.8 0.76 C-26.23 9.87, -25.96 17.44, -26.78 33.54 M-27.34 33.46 C-18.88 33.38, -10.67 34.99, -3.82 34.5 M-26.01 33.3 C-20.77 34.54, -15.74 35.65, -3.2 35.38 M-0.88 34.36 C-1.2 25.7, -1.52 15.9, -1.57 3.29 M-1.86 36.67 C-3.51 26.1, -1.89 17.72, -3.12 0.71 M-2.42 1.04 C-2.39 0.86, -1.83 0.54, 0.07 0.17 M-2.56 1.24 C-2.06 1.09, -1.31 0.77, -0.15 -0.08" stroke="#4979ea" stroke-width="1" fill="none"></path></g></g><mask></mask><g stroke-linecap="round"><g transform="translate(48.78182604073288 165.1000473448969) rotate(0 -18.98470053463342 11.93682172698584)" fill-rule="evenodd"><path d="M-35.24 1.17 C-35.24 1.17, -35.24 1.17, -35.24 1.17 M-35.24 1.17 C-35.24 1.17, -35.24 1.17, -35.24 1.17 M-36.58 9 C-34.5 4.74, -31.29 2.3, -30.1 1.26 M-36.07 8.14 C-34.81 6.27, -33.83 4.55, -29.95 0.54 M-35.21 16.09 C-32.83 12.4, -29.05 6.37, -26.16 0.53 M-37.06 14.06 C-34.27 10.86, -29.91 7.58, -25.44 0.29 M-36.66 21.97 C-33.32 14.86, -26.77 9.45, -19.78 -0.51 M-38.27 22.37 C-30.81 14.28, -25.24 8.1, -19.77 1.41 M-36.4 24.97 C-25.01 16.54, -18.18 6.3, -15.13 -0.63 M-36.38 25.68 C-30.68 20.95, -27.06 15.7, -13.31 1.06 M-31.09 26.84 C-20.54 14.95, -11.67 5.93, -6.8 0.81 M-30.38 24.92 C-24.15 20.18, -19.02 12.77, -6.94 0.32 M-26.18 24.64 C-15.15 16.72, -7.67 9.89, -1.96 0.37 M-25.31 25.8 C-20.37 20.27, -15.13 14.44, -3.13 -0.58 M-20.4 27.27 C-12.94 16.52, -7.11 10.4, 1.63 1.16 M-19.75 26.24 C-13.83 19.47, -9.39 13.54, 2.34 0.51 M-14.29 25.16 C-9.62 19.59, -5.66 13.22, 1.82 8.31 M-13.98 24.34 C-9.87 21.49, -5.41 16.87, 1.93 8.36 M-8.11 25.68 C-4.25 21.33, -2.88 17.39, 1.95 13.91 M-8.56 25.16 C-4.46 21.36, -1.75 16.6, 2.36 13.62 M-3.06 24.58 C-1.78 24.48, -1.06 22.3, 1.73 19.18 M-3.32 24.95 C-1.37 23.34, -0.16 21.08, 1.58 20.1" stroke="#6691ee" stroke-width="0.5" fill="none"></path><path d="M-1 1.58 C1.59 6.83, -1.94 9.24, -1.02 25.5 M0.77 -0.24 C1.02 5.49, 0.12 12.13, -0.9 22.65 M-0.38 24.94 C-10.89 24.66, -22.87 23.31, -38.78 25.54 M-1.04 23.42 C-9.62 23.75, -17.9 24.54, -37.43 23.54 M-37.73 23.78 C-38.56 18.97, -35.4 12.98, -36.94 1.57 M-36.31 23.41 C-37.06 18.03, -36.11 11.76, -35.92 0.85 M-36.93 0.36 C-24.82 -0.15, -15.13 2.22, 0 -1.67 M-34.7 1.15 C-26.41 1.42, -17.55 0.55, -0.58 -0.23 M0 0 C0 0, 0 0, 0 0 M0 0 C0 0, 0 0, 0 0" stroke="#6691ee" stroke-width="1" fill="none"></path></g></g><mask></mask><g stroke-linecap="round"><g transform="translate(46.95461481456971 117.10306633080404) rotate(0 -17.39962410783096 13.036992176946342)" fill-rule="evenodd"><path d="M-34.68 1.65 C-34.68 1.65, -34.68 1.65, -34.68 1.65 M-34.68 1.65 C-34.68 1.65, -34.68 1.65, -34.68 1.65 M-35.5 8.55 C-33.07 6.49, -33.31 5.31, -29.14 1.47 M-35.17 8.03 C-32.81 5.97, -30.82 3.05, -28.73 1.49 M-36.24 14.61 C-31.18 11.2, -30.33 9.57, -24.13 1.7 M-35.77 15.31 C-33.11 12.37, -30.75 8.89, -23.89 0.06 M-34.46 21.64 C-32.44 16.71, -25.71 9.12, -16.31 1.42 M-34.54 21.59 C-31.37 16.22, -28.76 13.5, -17.8 0.64 M-33.55 24.93 C-28.19 16.68, -22.64 9.71, -10.53 1.66 M-35.17 25.85 C-28.19 17.38, -20.6 10.23, -11.58 0.47 M-28.65 26.46 C-23.85 20.32, -18.36 14.91, -6.09 0.39 M-28.55 26.04 C-21.34 16.68, -12.91 7.92, -7.5 0.82 M-25.78 26.54 C-14.8 16.15, -7.35 6.79, 0.36 -1.92 M-23.56 24.94 C-18.57 18.62, -12.25 12.16, -2.26 -0.25 M-19.87 27.57 C-13.86 19.01, -8.75 12.59, 1.06 3.38 M-17.81 26.3 C-15.47 21.76, -9.78 15.83, 1.41 0.96 M-13.95 24.12 C-6.04 19.08, -3.91 14.65, 3.85 8.7 M-12.63 26.2 C-9.5 20.72, -5.13 16.84, 2.81 7.55 M-9.01 25.05 C-6.51 22.67, -2.6 20.52, 2.31 14.12 M-8.04 25.37 C-3.99 21.42, -0.46 16.86, 1.7 13.52 M-3.18 25.68 C-0.08 23.23, 1.32 21.58, 1.86 19.83 M-2.79 25.48 C-1.18 24.4, 0.2 22.53, 2.15 20.37" stroke="#6691ee" stroke-width="0.5" fill="none"></path><path d="M0.78 1.23 C1.87 10.31, 0.31 20.32, -0.04 23.37 M0.61 0.65 C0.51 7.87, -0.45 16.01, 0.27 24.22 M-1.16 26.25 C-10.04 25.14, -21.21 25.86, -33.65 24.89 M0.48 25.48 C-8.2 23.97, -18.89 25.19, -35.15 24.65 M-35.19 24.93 C-36.58 21.52, -36.02 14.27, -33.99 2.77 M-35.89 25.79 C-35.68 16.8, -34.33 5.85, -34.9 1.61 M-34.57 0.16 C-23.43 -0.33, -16.56 0.44, -1.45 1.38 M-34.07 2.02 C-27.99 0.72, -21.24 0.16, -0.66 -0.06 M-0.33 -0.18 C-0.22 -0.12, -0.14 -0.07, -0.03 -0.01 M-0.34 -0.17 C-0.27 -0.11, -0.18 -0.09, 0 0" stroke="#6691ee" stroke-width="1" fill="none"></path></g></g><mask></mask><g stroke-linecap="round"><g transform="translate(49.09856713975512 72.39802864408603) rotate(0 -18.45544614350098 10.061878634635264)" fill-rule="evenodd"><path d="M-36.1 -0.9 C-36.1 -0.9, -36.1 -0.9, -36.1 -0.9 M-36.1 -0.9 C-36.1 -0.9, -36.1 -0.9, -36.1 -0.9 M-36.47 5.52 C-33.64 3.56, -32.32 0.85, -29.66 -1.55 M-36.21 5.17 C-34.17 3.14, -31.71 0.09, -30.43 -1.18 M-37.3 9.87 C-32.04 6.46, -29.09 0.37, -26.61 -0.15 M-36.7 11.91 C-32.64 7.51, -28.94 4.35, -25.43 -0.83 M-37.37 17.59 C-28.64 10.58, -24.49 1.97, -19.58 -0.25 M-36.4 17.27 C-30.19 11, -24.24 5.36, -21.07 -1.26 M-33.79 21.94 C-29.87 14.79, -24.12 7.99, -13.82 1.25 M-34.78 22.08 C-28.28 12.8, -20.81 5.34, -14.99 -0.67 M-30.34 21.98 C-22.93 15.59, -15.97 7.08, -8.49 0.68 M-29.65 22.45 C-23.55 15.7, -17.94 7.81, -9.62 -1.53 M-23.01 22.82 C-19.37 15.83, -16.64 12.96, -6.72 -1.79 M-24.92 22.3 C-20.34 17.15, -15.94 10.95, -5.38 -0.57 M-18.3 23.01 C-13.3 12.63, -5.25 5.15, 0.25 0.26 M-19.51 23.58 C-15.24 17.51, -11.15 13.12, -0.4 0.89 M-15.59 20.42 C-8.5 17.59, -3.3 9.94, -1.26 6.18 M-13.54 21.37 C-8.61 15.95, -4.42 12.05, -1.55 7.81 M-8.17 23.5 C-7.19 19.24, -4.22 17.52, -0.53 13.35 M-9.34 22.29 C-6.11 19.77, -3.27 15.63, -1.07 13.65 M-4.03 23.25 C-3.18 22.33, -2.83 21.93, -2.1 20.74 M-4.01 23.01 C-3.34 22.56, -3.12 21.95, -1.9 20.82" stroke="#6691ee" stroke-width="0.5" fill="none"></path><path d="M-1.24 0.77 C0.69 5.26, -2.24 10.09, -0.65 22.61 M-0.73 0.43 C-1.17 8.14, -1.72 15.16, -1.5 21.06 M-1.77 22.21 C-14.32 20.98, -29.29 20.4, -35.27 22.49 M-2.63 21.52 C-8.39 21.41, -16.68 20.49, -36.7 21.34 M-34.64 21.01 C-36.02 17.33, -35.44 11.34, -34.69 -2.49 M-36.9 19.98 C-37.03 16.23, -35.94 10.39, -36.54 -1.97 M-35.98 -0.32 C-24.51 -0.65, -14.69 0.35, -1.35 -1.28 M-35.54 -1.28 C-27.41 -1.21, -20.01 -0.09, -0.49 0.65 M0 0 C0 0, 0 0, 0 0 M0 0 C0 0, 0 0, 0 0" stroke="#6691ee" stroke-width="1" fill="none"></path></g></g><mask></mask><g stroke-linecap="round"><g transform="translate(215.23629274517896 48.03633670693398) rotate(0 -83.36364328632567 82.89749095367642)" fill-rule="evenodd"><path d="M-165.93 0.19 C-165.93 0.19, -165.93 0.19, -165.93 0.19 M-165.93 0.19 C-165.93 0.19, -165.93 0.19, -165.93 0.19 M-166.04 7.27 C-165.56 5.95, -163.3 4.17, -160.3 0.57 M-165.99 6.26 C-164.21 4.63, -163.12 3.1, -160.76 0.44 M-166.38 13.26 C-163.01 9.68, -157.87 3.99, -156.69 1.44 M-166.28 12.37 C-163.75 10.51, -160.85 7.34, -155.79 0.28 M-165.13 20.16 C-163.5 14.92, -158.32 10.25, -150.94 2.5 M-165.13 18.43 C-159.32 11.44, -154.77 3.95, -149.88 0.72 M-165.21 26.73 C-160.86 17.57, -150.79 8.75, -144.54 -0.1 M-166.92 24.1 C-158.79 15.86, -148.77 5.33, -144.82 -0.17 M-165.86 30.66 C-161.26 22.39, -156 15.66, -138.98 2.2 M-165.82 31.02 C-155.2 19.07, -145.19 8.23, -140.04 -0.48 M-164.9 37.59 C-156.62 25.91, -147.58 15.14, -135.52 -0.63 M-166.72 36.27 C-159.06 29.49, -152.52 22.42, -133.48 -0.36 M-165.34 44.08 C-154.6 31.6, -145.94 18.41, -129.22 -1.52 M-165.57 43.45 C-156.82 33.66, -149.17 24.07, -128.24 -1.28 M-166.49 50.03 C-159.58 41.23, -156.12 37.93, -142.49 25.08 M-165.24 48.28 C-159.72 42.46, -153.91 34.7, -143.82 23.49 M-142.59 25.1 C-135.49 14.59, -130.89 8.09, -124.25 -1.52 M-143.81 23.24 C-137.57 17.4, -132.52 10.99, -124 -0.58 M-164.61 56.27 C-157.14 46.7, -152.73 39.94, -143.49 30.29 M-167.13 56.36 C-160.29 48.43, -152.94 39.88, -144.14 29.53 M-137.01 21.15 C-131.33 17.47, -126.8 9.98, -115.98 1.24 M-137.25 22.77 C-131.83 15.01, -123.16 6.15, -118.57 0.32 M-168.38 63.53 C-161.88 55.13, -155.75 50.1, -144.02 34.52 M-165.88 61.43 C-161.66 56.89, -156.21 49.24, -144.1 35.4 M-133.54 23.03 C-129.07 15.03, -120.83 8.55, -113.79 -1.03 M-134.09 23.01 C-126.75 15.99, -120.97 10.36, -112.08 -0.1 M-167.82 66.37 C-160.69 62.62, -154.06 54.39, -141.69 42.06 M-165.37 68.39 C-158.43 58.23, -149.05 46.54, -142.43 41.64 M-128.44 23.67 C-124.78 16.45, -118.41 15.17, -107.67 0.53 M-126.73 23.2 C-121.12 15.51, -113.11 6.03, -107.72 -1 M-166.18 73.31 C-161.17 67.06, -153.67 62.01, -142.97 46.92 M-167.08 73.83 C-158.92 65.23, -151.77 57.71, -142.62 47.69 M-122.79 21.68 C-115.75 16.17, -110.17 9.75, -102.79 -1.19 M-122.35 23.46 C-115.69 16.81, -110.39 8.84, -101.27 -0.84 M-165.27 79.59 C-160.52 74.47, -155.62 67.84, -144.57 53.57 M-166.5 79.67 C-159.89 74.03, -153.74 66.21, -143.32 53.62 M-115.28 21.43 C-111.63 16.24, -106.27 12.51, -95.53 -1.61 M-116.64 23.81 C-112.07 16.44, -106.88 11.07, -96.13 -0.72 M-164.77 87.18 C-157.3 75.94, -152.18 68.64, -141.43 61.2 M-165.4 86.26 C-157.91 75.71, -150.68 67.44, -143.33 59.41 M-113.44 24.97 C-106.14 19.66, -103.88 13.99, -89.53 -0.68 M-112.06 23.16 C-107.97 18.33, -103.13 12.96, -90.41 -1.63 M-167.6 93.48 C-159.82 86.29, -153.33 79.07, -142.67 63.97 M-166.21 92.07 C-160.89 85.03, -154.75 77.27, -144.58 66.18 M-107.04 24.85 C-97.78 13.63, -92.24 4.65, -86.27 0.37 M-106.25 23.06 C-101.76 17.91, -95.34 11.42, -86.46 -0.1 M-167.89 99.66 C-161.93 92.27, -155.25 87.97, -145.01 71.77 M-167.01 98.96 C-159.14 89.55, -152.68 82.27, -142.49 71.91 M-100.09 24.31 C-95.82 16.22, -91.69 11.77, -81.83 -0.98 M-100.96 22.93 C-97 17.1, -92.05 13.26, -80.65 -1.34 M-166.97 102.82 C-160.78 97.51, -151.52 87.87, -144.01 78.19 M-166.48 103.47 C-160.47 99.16, -154.92 91.17, -144.25 78.5 M-94.76 25.59 C-90.78 16.3, -85.26 12.01, -74.13 -0.5 M-97.08 23.38 C-92.11 18.55, -86.37 13.16, -75.62 -0.12 M-166.76 108.81 C-161.17 101.37, -155.71 96.54, -143.47 85.31 M-166.32 110.46 C-157.9 100.33, -148.82 89.5, -143.21 83.49 M-88.85 22.62 C-83.03 13.34, -74.73 7.21, -67.69 0.71 M-91.01 23.85 C-84.25 16.74, -79.96 9.77, -70.02 -1.85 M-165.02 116.16 C-159.67 108.47, -152.62 102.98, -143.43 91.9 M-165.5 116.26 C-157 107.42, -149.92 96.43, -143.9 89.3 M-86.96 25.07 C-79.75 16.06, -75.01 11.69, -64.19 -0.43 M-84.91 23.73 C-78.92 16.12, -74.38 11.34, -64.12 -0.28 M-164.77 120.92 C-158.49 112.11, -149.37 106.13, -144.11 97.73 M-166.66 122.27 C-161.48 116.74, -154.89 110.79, -142.93 96.48 M-81.32 22.32 C-72.09 15.92, -65.11 8.06, -58.57 -1.31 M-80.46 23.24 C-72.86 14.87, -66.78 7.94, -58.82 -0.77 M-166.24 128.8 C-159.29 119.23, -153.71 112.39, -143.31 100.26 M-167.07 128.32 C-157.62 119.02, -149.61 109.17, -143.41 101.5 M-74.98 23.47 C-70.74 16.74, -61.56 7.82, -54.99 -1.85 M-75.09 24.55 C-69.35 17.23, -63.53 10.91, -52.7 -1.56 M-166.84 135.52 C-161.11 129.01, -157.42 122.05, -143.68 106.7 M-165.63 135.89 C-157.98 126.15, -149.51 115.21, -143.26 107.71 M-70.61 21.33 C-64.26 15.78, -55.81 7.15, -49.46 -1.25 M-69.76 22.67 C-65.35 18.73, -59.5 13.02, -47.59 -1.46 M-166.59 139.51 C-162.07 133.52, -156.67 129.69, -141.48 113.94 M-165.23 139.8 C-160.54 134.14, -155.14 129.25, -142.87 114.32 M-65.69 24.45 C-56.01 18.32, -51.37 8.75, -42.6 -2 M-65.21 24.54 C-57.46 15.42, -49.53 5.65, -42.35 -0.94 M-167.35 145.92 C-159.87 138.38, -154.8 131.41, -141.8 120.63 M-167.05 147.32 C-157.48 136.92, -150.65 127.4, -143.44 121.48 M-57.32 25.07 C-52.1 12.05, -43.86 6.01, -38.85 -1.83 M-59.67 23.96 C-54.48 17.47, -48.43 11.95, -37.11 -1.04 M-166.23 151.36 C-160.21 142.85, -152.52 134.35, -143.97 127.87 M-166.92 153.83 C-160.06 145.48, -152.58 137.11, -143.3 125.95 M-53.44 23.17 C-45.24 12.13, -36.66 6.07, -31.25 -1.81 M-53.14 22.65 C-48.25 17.13, -41.33 9.69, -33.01 -0.43 M-167.54 160.16 C-161.46 153.61, -154.8 149.09, -141.56 131.46 M-166.34 158.09 C-161.06 153.94, -155.76 147.56, -142.95 132.39 M-50.23 23.2 C-42.23 18.02, -36.68 9.39, -28.04 -3 M-47.8 23.94 C-40.51 14.06, -30.56 3.13, -25.78 -1.13 M-166.16 163.87 C-159.71 159.47, -156.61 155.27, -142.31 138.2 M-166.72 164.77 C-159.97 155.91, -152.89 148.76, -143.98 138.59 M-44.09 22.31 C-40.4 20.69, -35.66 13.73, -23.3 0.27 M-42.98 24.07 C-38.39 19.08, -33.01 13.7, -23.45 1.25 M-23.87 1.48 C-23.55 1.01, -22.84 0.53, -22.6 0.3 M-23.97 1.7 C-23.73 1.14, -23.51 0.8, -22.79 0.16 M-161.64 163.02 C-152.97 157.2, -147.43 148.78, -141.16 141.19 M-160.11 163.8 C-156.04 159.74, -151.74 153.95, -141.5 143.31 M-39.29 23.79 C-34.28 20.6, -28.1 16.06, -21.86 7.1 M-37.86 22.98 C-32.9 17.56, -26.6 11.11, -22.76 7.17 M-22.49 6.7 C-21.95 5.84, -21.27 4.25, -18.17 0.75 M-23.23 6.78 C-22.01 4.81, -20.42 3.47, -18.21 0.87 M-154.62 163.34 C-149.11 157.25, -144.28 153.36, -137.13 142.99 M-154.68 164.43 C-150.6 158.63, -146.48 154.28, -136.29 143.17 M-33.6 23.62 C-30.24 19.37, -26.09 16.23, -24.85 13.11 M-31.92 23.41 C-30.58 21.01, -29.02 19.56, -23.98 14.02 M-23.31 13.59 C-21.02 9.53, -15.56 5.37, -11.39 0.38 M-23.12 13.33 C-19.21 8.51, -16.55 5.64, -13.21 0.91 M-151.31 163.54 C-147.38 161.85, -140.56 154.5, -129.22 144.2 M-150.36 164.43 C-142.86 157.96, -136.69 149.73, -130.81 142.87 M-27.83 23.73 C-25.56 22.78, -24.98 21, -23.38 19.36 M-27.34 23.86 C-26.26 22.37, -24.84 20.75, -23.29 19.48 M-24.39 18.39 C-17.58 10.45, -12.11 4.31, -5.99 0.22 M-23.91 19.21 C-18.61 12.1, -12.59 7.04, -7.96 0.49 M-142.97 162.92 C-138.89 159.06, -133.94 150.86, -123.9 140.9 M-144.92 164.36 C-139.25 157.71, -132.51 151.08, -125.69 143.33 M-25.04 23.71 C-17.47 18.07, -13.82 12.92, -4 -0.12 M-23.31 26.26 C-15.44 17.25, -8.21 7.69, -1.26 -0.17 M-138.06 164.59 C-136.49 161.93, -129.02 155.84, -119.52 142.77 M-139.14 165.18 C-131.31 157.21, -124.34 148.1, -120.41 143.76 M-24.31 29.6 C-13.74 21.63, -6.11 10.83, 3.81 3.14 M-22.97 31.97 C-14.14 20.32, -4.14 10.56, 1.45 1.25 M-135.28 164.72 C-125.72 154.79, -120.19 146.68, -116.35 142.46 M-132.97 165.05 C-126.51 155.71, -120.09 147.74, -114.56 142.89 M-22.32 37.26 C-18.71 29.38, -10.63 25.72, 1.62 9.4 M-23.31 37.99 C-14.36 25.53, -4.54 14.17, 1.05 8.27 M-127.09 165.08 C-121.58 157.02, -115.02 149.2, -110.1 143.22 M-129.26 163.92 C-121.75 156.84, -114.56 146.93, -108.99 143.55 M-22.79 43.55 C-16.77 37.38, -9.72 31.18, 0.9 14.01 M-24.24 42.79 C-15.87 35.23, -9.88 27.4, 2.27 12.99 M-125.24 166.91 C-117.9 158, -109.77 151.44, -106.75 142.78 M-123.55 165.85 C-120.59 160.51, -115.64 156.09, -105.75 143.2 M-24.27 49.07 C-14.78 40.82, -4.92 29.84, 3.37 19.54 M-23.48 50.77 C-14.67 40.98, -7.76 30.03, 1.68 20.44 M-116.68 163.16 C-112.29 160.77, -107.46 154.92, -98.47 141.57 M-119 164.31 C-112.19 158.44, -108.23 152.95, -99.02 143.16 M-25.58 54.9 C-14.08 43.92, -5.38 35.15, 3.48 28.05 M-22.87 55.97 C-17.29 47.39, -8.92 39.4, 1.14 25.79 M-111.54 166.77 C-105.34 158.89, -99.75 148.29, -95.64 143.01 M-113.39 165.39 C-108.86 159.93, -104.19 155.18, -94.08 143.94 M-21.75 62.81 C-14.43 53.71, -8.26 44.36, 0.47 33.31 M-23.42 61.3 C-15.07 51.69, -6.45 43.55, 2.9 31.58 M-108.56 163.38 C-99.93 156.56, -91.35 147.03, -88.22 142.22 M-107.52 165.59 C-102.34 158.55, -98.18 154.25, -87.73 142.89 M-23.99 67.57 C-16.8 59.48, -6.85 51.09, 2.38 37.05 M-24.26 67.84 C-17.88 60.82, -11.42 52.84, 2.58 39.03 M-102.3 163.36 C-96.18 158.4, -93.7 156.02, -85.03 142.07 M-103.44 164.8 C-96.05 157.58, -89.02 148.51, -84.54 143.31 M-25.12 73.64 C-13.65 65.34, -5.93 52.77, 0.02 46.5 M-23 74.53 C-16.23 64.01, -7.29 54.25, 2.14 44.46 M-96.61 166.53 C-91.69 161.76, -91.25 155.59, -79.12 141.86 M-96.89 166.03 C-91.42 159.23, -84.07 150.29, -79.24 144.09 M-22.77 79.22 C-17.12 74.14, -10.24 66.33, 2.97 50.56 M-24.05 81.23 C-18.09 73.9, -10.72 65.71, 2.89 50.59 M-92.52 166.46 C-85.43 159.68, -82.94 155.45, -71.77 141.63 M-92.24 164.71 C-85.08 157.23, -78.96 149.52, -73.73 143.02 M-24.22 84.22 C-15.17 78.05, -9.19 73.09, 3.61 56.15 M-22.32 85.65 C-15.97 76.97, -6.82 66.89, 2.54 57.81 M-88.26 166.66 C-81.82 158.05, -76.26 153.65, -68.46 142.39 M-87.47 165.89 C-81.34 157.56, -73.56 151.37, -67.99 144.06 M-21.54 94.28 C-16.16 83.85, -5.49 71.04, 3.1 61.62 M-23.48 92.44 C-14.06 81.93, -5.47 72.5, 2.13 62.62 M-81.31 166.12 C-72.37 159.18, -67.07 149.31, -64.23 142.86 M-81.24 166.77 C-76.99 159.22, -70.67 152.7, -62.52 143.02 M-24.41 96.74 C-19.07 94.01, -12.88 87.39, 2.7 69.82 M-23.72 98.11 C-16.24 88.54, -7.9 81.39, 0.38 69.66 M-76.38 163.54 C-69.34 158.24, -63.92 151.43, -59 143.49 M-75.83 165.93 C-69.88 158.53, -63.9 150.8, -56.6 142.63 M-23.38 104.67 C-15.07 93.29, -4.72 83.84, 3.12 76.53 M-24.01 104.07 C-16.41 95.66, -9.63 87.32, 2.06 75.23 M-73.36 165.62 C-63.58 156.74, -54.31 149.81, -50.91 143.19 M-72.16 166.61 C-67.15 161.37, -63.24 156.77, -52.67 144.24 M-22.56 108.85 C-17.45 104.25, -12.98 96.47, -0.13 83.53 M-23.82 109.61 C-15.16 99.71, -6.14 91.07, 2.3 81.26 M-64.72 163.74 C-58.35 158.45, -53.72 150.27, -48.35 143.57 M-66.13 166.41 C-61.68 160.82, -56.55 155.35, -47.3 143.11 M-22.92 117.79 C-15.06 106.24, -7.45 96.46, 1.22 88.07 M-23.38 116.93 C-17.95 111, -13.4 103.94, 1.58 87.83 M-58.79 166.02 C-57.87 160.05, -52.23 155.45, -41.86 145.26 M-60.95 166.35 C-56.12 158.52, -49.52 153.18, -42.2 143.64 M-23.67 122.47 C-16.63 114.05, -8.49 104.31, 0.23 95.09 M-24.12 122.85 C-17.83 115.86, -10.84 109, 0.74 94.38 M-57.16 166.04 C-47.21 158.67, -43.69 151.66, -37.61 144.56 M-55.45 166.59 C-49.28 158.49, -42.56 151.69, -36.57 143.1 M-22.25 128.58 C-17.04 123.44, -13.61 119.02, 2.75 101.53 M-23.57 128.09 C-15.64 120.22, -9.98 113.21, 1.98 101.03 M-50.6 167.1 C-46.84 160.55, -39.1 153.41, -32.59 145.51 M-51.15 165.65 C-42.98 156.42, -36.78 149.4, -31.39 144.66 M-22.28 136.78 C-17.46 128.04, -11.06 121.25, 1.39 105.79 M-22.41 134.52 C-14.8 124.92, -6.88 115.52, 1.86 107.03 M-47.11 166.49 C-39.26 162.86, -37.96 154.99, -28.04 144.62 M-45.14 165.72 C-37.88 158.35, -31.43 150.77, -25.8 145.15 M-22.98 139.44 C-17.62 134.52, -10.37 128.81, -0.45 111.96 M-22.8 140.87 C-14.59 131.39, -8.31 122.84, 2.29 111.99 M-41.91 164.92 C-25.66 149.98, -8.6 131.05, 0.2 118.19 M-39.21 167.13 C-27.96 152.92, -16.25 138.73, 1.56 119.35 M-33.83 167.91 C-23.97 150.03, -8.57 139.01, -0.82 124.56 M-34.12 167.04 C-24.06 154.22, -14.3 141.5, 1.3 125.6 M-28.47 167.23 C-19.79 153.34, -10.4 143.36, 2.35 129.94 M-29.79 165.93 C-20.94 157.04, -12.07 147.18, 2.15 130.61 M-23.4 165.85 C-19.54 162.15, -13.02 155.62, 0.14 137.96 M-24.74 166.4 C-17.09 157.56, -8.72 148.78, 1.45 138.12 M-20.76 164.72 C-9.67 158.74, -2.68 147.26, 0.33 144.66 M-19.23 167.39 C-12.8 158.99, -6.47 152.05, 0.24 143.58 M-13.86 165.72 C-9.14 161.95, -4.23 155.03, 0.86 150.95 M-13.55 167.31 C-10.44 161.5, -5.72 156.83, 1.4 149.86 M-6.92 167.55 C-6.65 163.49, -3.01 159.66, 0.75 156.64 M-8.01 165.92 C-6.01 163.19, -2.5 160.09, 0.81 155.86 M-3.9 166.74 C-1.35 164.45, 0.17 163.03, 1.21 162.75 M-3.29 166.53 C-2.44 165.4, -1.04 164.49, 0.8 162 M-166.23 163.79 C-166.23 163.79, -166.23 163.79, -166.23 163.79 M-166.23 163.79 C-166.23 163.79, -166.23 163.79, -166.23 163.79 M-159.51 164.28 C-162.78 161.61, -165.08 159.21, -166.45 158.53 M-159.43 163.77 C-162.84 162.06, -164.94 159.56, -166.43 158.45 M-154.6 162.94 C-157.93 159.06, -161.01 156.4, -166.9 152.36 M-153.79 164.22 C-157.54 160.96, -158.91 158.55, -166.33 153.79 M-147.48 164.51 C-155.52 159.28, -159.98 153.79, -166.1 147.38 M-148.13 163.28 C-154.58 157.3, -161.66 152.41, -166.41 147.79 M-141.38 163.22 C-146.95 156.69, -156.03 153.28, -166.57 142.89 M-141.41 164.3 C-151.27 157.01, -160.1 148.24, -167.19 142.48 M-134.99 164.96 C-144.43 158.15, -154.8 149.22, -166.07 136.62 M-135.91 164.5 C-144.14 157.3, -152.56 147.98, -165.9 136.11 M-128.44 164.63 C-137.63 157.83, -146.61 150.14, -165.67 131.7 M-128.94 163.35 C-140.45 153.85, -149.88 145.82, -167.1 132.5 M-123.17 166.21 C-138.15 149.72, -157.53 133.76, -164.41 125.99 M-122.13 165.13 C-139.76 149.38, -156.71 134.72, -165.79 125.94 M-116.03 163.55 C-138.5 147.69, -154.75 129.11, -168.22 122.3 M-116.33 165.02 C-130.6 151.33, -144.52 140.41, -166.14 121.6 M-112.03 163.29 C-120.53 157.73, -129.9 148.52, -139.95 138.15 M-110.05 164.13 C-120.37 156.62, -129.15 147.46, -140.19 138.53 M-143.09 139.12 C-148.76 129.92, -154.5 125.71, -167.93 114.79 M-140.88 137.09 C-149.38 130.28, -159.29 122.13, -166.14 116.88 M-103.19 164.32 C-114.82 155.63, -122.07 146.94, -134.76 137.41 M-104.45 164.71 C-114.95 154.47, -125.04 146.44, -133.87 137.4 M-141.45 132.82 C-147.08 124.32, -155.5 118.21, -168.25 110.02 M-140.18 132.34 C-146.87 126.48, -152.98 122.75, -165.59 110.41 M-99.92 164.69 C-105.61 159.43, -113.45 150.89, -129.79 137.65 M-98.74 165.52 C-109.58 155.53, -119.8 146.59, -128.92 137.35 M-142.08 126.74 C-149.24 117.73, -160.42 112.15, -164.2 107.19 M-141.38 127.83 C-148.52 120.12, -158.09 113.97, -166.47 105.75 M-93.38 166.91 C-103.86 154.18, -116.38 144.94, -123.43 137.65 M-92.09 165.49 C-101.88 156.89, -110.91 148.83, -122.26 138.75 M-141.96 124.31 C-148.36 114.74, -160.37 106.49, -166.04 99.59 M-141.09 122.64 C-148.78 115.58, -155.42 110.24, -166.91 100.72 M-87.7 165.54 C-95.06 154.77, -106.61 146.01, -115.54 137.99 M-85.57 163.81 C-92.69 158.95, -98.81 152.59, -116.72 137.41 M-140.35 118.05 C-147.01 108.9, -158.07 101.71, -167.23 93.84 M-140.57 116.6 C-148.19 109.83, -156.68 104.04, -166.19 95.69 M-78.97 163.84 C-88.6 155.91, -101.07 146.24, -110.43 137.57 M-80.13 165.5 C-88.76 157.5, -98.5 148.29, -109.01 138.2 M-142.68 112.83 C-147.79 105.73, -154.94 97.72, -168.46 90.67 M-140.73 112.56 C-147.12 106.85, -152.09 102.54, -165.72 89.24 M-73.74 163.82 C-85.85 156.77, -92.9 146.82, -104.42 138.4 M-74.12 164.51 C-79.31 158.63, -85.95 152.65, -104.25 138.68 M-140.63 106.61 C-147.44 98.34, -154.77 95.27, -165.62 84.15 M-141.11 106.15 C-146.22 100.47, -152.05 96.41, -166.04 84.52 M-68.05 166.85 C-78.04 154.76, -90.77 143.6, -96.75 138.15 M-67.28 165.36 C-76.45 157.86, -86.13 149.39, -97.93 138.81 M-140.09 101.68 C-148.23 97.52, -153.3 88.49, -165.85 78.45 M-140.9 102 C-148.55 93.82, -156.8 87.23, -165.86 78.91 M-62.89 166.39 C-74.03 156.12, -84.42 143.63, -92.16 140.25 M-61.25 164.77 C-69.82 159.47, -76.71 152.46, -91.43 137.96 M-141.17 93.45 C-148.93 89.73, -157.3 79.37, -167.47 75.05 M-141.93 95.5 C-146.68 90.02, -153 85.21, -166.99 74.32 M-55.23 164.55 C-65.48 156.19, -77.47 146.25, -84.61 137.83 M-55.54 165.34 C-65.04 157.15, -74.51 149.06, -84.8 137.89 M-142.18 89.64 C-145.21 85.85, -153.6 79.41, -168.07 69.57 M-141.65 91.08 C-147.65 84.67, -152.48 81.43, -167.43 68.92 M-48.5 166.22 C-55.38 159.12, -62.09 151.89, -81 137.75 M-49.07 164.59 C-56.85 158.68, -65.08 152.09, -79.44 137.71 M-139.68 83.11 C-147.86 80.08, -152.81 74.74, -164.41 62.94 M-142.18 83.91 C-151.02 76.57, -159.42 68.48, -166.28 63.4 M-43.62 167.66 C-51.13 156.33, -62.54 148.49, -71.73 138.58 M-42.13 166.58 C-54.6 155.6, -66.01 143.84, -73.66 138.97 M-140.42 79.01 C-151.43 73.9, -158.48 63.14, -168.48 58.21 M-141.26 80.18 C-146.75 73.92, -153.88 68.63, -166.8 56.72 M-34.44 165.18 C-47.31 157.96, -54.16 150.05, -65.66 139.27 M-36.92 165.61 C-47.21 154.47, -60.54 145.97, -66.66 139.25 M-141.39 75.64 C-146.93 68.87, -153.06 64.12, -167.51 51.76 M-141.28 74.88 C-150.12 65.81, -160.19 57.62, -165.38 52.35 M-30.82 163.79 C-43.53 156.19, -52.8 145.03, -61.61 139.86 M-29.53 165.83 C-35.45 159.29, -43.41 154.35, -61.05 137.87 M-141.79 67.59 C-145.55 62.31, -153.67 59.26, -167.94 46.05 M-140.27 69.96 C-150.11 61.77, -160.05 52.37, -166.57 46.02 M-25.06 167.24 C-34.52 154.61, -44.79 146.68, -55.38 138.04 M-23.42 166.33 C-29.93 159.22, -36.96 154.48, -54.79 139.52 M-143.05 62.58 C-148.9 55.25, -159.33 51.13, -167.41 40.9 M-140.9 64.17 C-149.93 54.38, -160.94 46.13, -166.03 41.98 M-19.69 166.01 C-29.48 154.49, -39.96 147.94, -46.22 139.28 M-18.21 166.07 C-26.81 159.33, -33.74 152.26, -48.77 139.3 M-140.78 56.65 C-148.18 55.03, -150.57 49.52, -166.04 34.9 M-141.48 59.28 C-147.7 52.33, -153.08 48.17, -166.83 37.41 M-11.2 165.26 C-24.57 157.11, -34.87 143.83, -40.63 140.75 M-12.41 164.89 C-23.59 156.46, -33.5 145.27, -43.49 139.69 M-140.87 50.97 C-151.93 43.31, -159.65 36.9, -166.19 29.31 M-140.96 53.8 C-150.37 44.67, -159.85 36.71, -166.19 31.37 M-4.57 166.9 C-13.58 158.97, -26.13 147.31, -36.04 139.33 M-4.91 166.53 C-13.25 158.54, -22.16 151.1, -35.85 139.56 M-139.37 47.01 C-150.3 39.52, -160.4 32.32, -164.15 28.11 M-141.93 47.28 C-149.17 40.1, -157.25 33.54, -166.19 25.78 M-1.74 164.9 C-6.36 157.87, -12.3 153.41, -31.39 137.61 M-0.5 164.99 C-7.8 158.2, -14.81 151.38, -30.66 139.18 M-142.59 43.36 C-149.1 38.15, -156.36 32.06, -165.47 19.38 M-141.62 42.03 C-148.08 37.2, -155.45 29.99, -166.1 19.83 M-1.14 158 C-6.41 155.85, -12.58 149.17, -21.3 141.26 M-0.4 160.16 C-8.61 151.55, -15.83 144.67, -21.84 140.53 M-143.03 38.94 C-150.71 27.94, -160.29 23.93, -164.88 14.52 M-140.9 37.36 C-150 28.63, -159.52 20.27, -165.27 16.23 M0.4 154.16 C-4.9 149.75, -9.66 145.4, -23.93 136.41 M-1.12 153.39 C-8.74 147.76, -15.82 141.31, -21.26 135.75 M-143.44 29.79 C-146.39 26.18, -154.03 20.46, -166.35 9.04 M-141.3 31.36 C-150.71 23.08, -161.91 13.97, -166.23 10.94 M1.04 150.17 C-9.8 140.19, -18.48 132.14, -21.07 130.74 M-0.14 149.97 C-7.89 141.9, -14.6 136.04, -21.85 129.21 M-140.75 28.25 C-151.02 19.58, -159.62 11.54, -167.06 5.79 M-141.94 27.13 C-147.9 20.99, -153.95 16.88, -165.65 5.46 M-1.3 143.53 C-7.15 137.4, -10.91 134.25, -22.25 123.72 M-0.05 144.12 C-8.42 136.38, -14.88 131.8, -22.71 124.69 M-142.15 19.8 C-147.52 16.27, -153.15 9.47, -164.68 0.37 M-140.65 20.55 C-147.24 14.69, -155.19 8.89, -166.57 -0.81 M-0.63 140.44 C-4.09 132.73, -9.19 129.15, -21.24 117.89 M0.67 137.9 C-8.44 131.88, -15.93 123.93, -22.6 119.79 M-135.73 18.82 C-144.43 15.86, -149.56 9.47, -159.03 -1.66 M-135.56 21.09 C-144.35 13.37, -153.68 5.72, -159.15 -0.33 M-2.21 133.19 C-9.6 126.36, -18.75 118.72, -24.02 114.15 M-0.63 133.65 C-7.52 126.04, -13.71 120.19, -22.9 114.07 M-128.87 20.93 C-138.72 13.86, -148.68 3.08, -154 -0.54 M-128.53 21.12 C-135.73 15.82, -141.51 10, -153.52 -0.19 M1.51 127.4 C-8.76 122.4, -15.34 115.14, -20.8 108.49 M0.3 128.19 C-6.1 122.68, -12.54 118.56, -22.64 108.91 M-122.42 18.75 C-132.48 13.2, -143.54 6.49, -146.64 -1.17 M-124.29 20.68 C-129.18 16.28, -134.81 11.78, -147.89 0.05 M-1.17 122.81 C-10.46 115.68, -18.18 109.56, -22.74 102.58 M-0.47 122.65 C-4.83 118.49, -10.49 113.06, -22.23 103 M-117.42 19.24 C-124.89 12.93, -132.24 7, -141.24 0.89 M-118.18 19.82 C-126.3 12.34, -135.09 5.36, -141.63 -0.69 M-1.15 116.47 C-8.18 108.82, -17.05 100.05, -22.22 95.83 M0.02 116.65 C-6.62 112.57, -12.4 105.06, -22.74 97.45 M-110.36 21.09 C-117.84 14.59, -124.41 7.52, -137.29 0.18 M-110.46 21.02 C-118.78 13.69, -126.56 8.13, -136.24 -1.2 M0.2 112.2 C-5.47 106.38, -11.24 100.96, -21.12 93.38 M-0.68 112.74 C-7.83 103.96, -17.31 95.45, -23.12 92.79 M-105.01 18.75 C-111.19 17.41, -117.02 8.84, -129.5 0.59 M-105.01 20.16 C-113.96 12.3, -123.12 4.62, -130.38 0.24 M-0.72 108.55 C-6.36 100.11, -14.59 94.95, -23.49 88.71 M0.85 107.36 C-6.26 100.41, -13.51 94.55, -21.95 86.55 M-100.04 22.32 C-105.98 14.66, -115.29 9.48, -123.82 0.07 M-98.11 21.46 C-107.3 12.44, -116.76 5.44, -124.82 -0.38 M-1.45 102.73 C-8.59 93.62, -18.64 85.38, -23.65 80.42 M1.14 101.81 C-4.89 96.96, -10.76 92.1, -22.48 81.05 M-91.63 19.67 C-97.17 15.15, -106.15 8.52, -117.39 -2.04 M-91.93 20.56 C-101.71 14.79, -108.48 7.54, -117.5 -0.57 M-0.79 96.06 C-7.6 87.95, -16.47 83.05, -22.09 75.42 M-0.43 96.64 C-4.83 91.98, -10 86.56, -23.57 75.6 M-85.17 20.39 C-95.82 13.53, -104.03 6.82, -110.59 -0.34 M-87.28 21.52 C-93.97 13.49, -102.24 7.25, -112.48 -1.55 M1.27 89.21 C-9.38 85.28, -18.55 76.3, -21.55 69.75 M-0.61 91.95 C-8.31 83.79, -16.2 76.54, -22.74 70.29 M-79.02 19.74 C-86.17 13.73, -92.53 10.88, -107.01 -0.07 M-80.37 21.72 C-88.42 14.4, -95.75 7.5, -104.96 -0.04 M0.27 87.59 C-8.98 80.79, -15.15 72.48, -22.99 67.76 M1.45 85.72 C-7.12 78.32, -16.83 71.28, -23.13 66.22 M-75.75 20.09 C-80.26 15.21, -86.64 10.99, -101.46 -0.38 M-75.02 20.34 C-83.23 13.2, -92.53 5.84, -100.31 -0.5 M-0.49 81.33 C-5.78 77.12, -10.02 71.69, -21.57 58.91 M-0.54 80.86 C-8.8 72.73, -18.42 64.18, -22.55 59.27 M-70.15 22.14 C-75.69 12.89, -84.09 8.74, -91.97 0.92 M-67.73 20.56 C-74.23 16.55, -79.25 11.78, -93 -0.85 M2.35 77.24 C-5.2 69.29, -11.27 66.85, -22.67 57.01 M1.25 76.1 C-5.89 71.03, -10.53 65.52, -22.43 54.31 M-60.48 22.37 C-70.02 12.13, -79.47 5.21, -87.79 0.12 M-61.87 21.97 C-69.46 15.36, -75.93 8.77, -87.68 -0.79 M0.92 68.23 C-7.65 61.19, -16.8 58.15, -21.92 48.95 M0.5 70.48 C-7.62 62.89, -16.71 54.7, -22.84 48.99 M-56.25 20.93 C-61.32 16.7, -69.03 12.27, -81.37 -1.16 M-56.44 21.57 C-65.68 12.84, -74.01 6.9, -82.1 -1.44 M0.11 64.57 C-4.96 58.15, -13.07 51.52, -21.13 45.97 M-0.25 65.53 C-6.42 60.63, -11.88 53.81, -23.5 43.99 M-49.88 21.71 C-60.43 11.91, -67.19 6.06, -76.42 -3.18 M-50.86 20.72 C-57.86 14.42, -67.6 5.64, -76.19 -1.72 M1.63 58.6 C-5.93 53.73, -12.41 47.29, -24.35 40.4 M-0.6 59.03 C-9.99 51.56, -18.89 43.36, -22.77 38.73 M-43.3 22.31 C-51.54 13.9, -54.19 11.86, -68.58 -1.54 M-44.41 22.18 C-50.22 15.36, -55.02 10.3, -69.74 -2.64 M-0.06 56.02 C-6.8 50.89, -11.72 43.55, -21.83 32.93 M0.72 53.31 C-8.8 45.68, -17.53 38.52, -22.64 33.66 M-39.65 22.06 C-47.13 13.74, -56.85 4.92, -61.72 -3.11 M-37.04 21.13 C-45.93 14.23, -56.12 5.09, -63.69 -2.34 M-0.95 49.26 C-6.74 42.8, -11.19 38.66, -22.07 29.32 M1.58 49.6 C-7.17 42.4, -17.03 33.18, -23.75 27.98 M-31.04 21.99 C-42.2 14.85, -51.23 5.21, -56.19 -2 M-32.06 22.09 C-37.29 15.03, -44.8 11.33, -57.38 -1.05 M0.73 45.49 C-5.07 40.15, -11.63 33.47, -23.76 23.69 M-0.31 43.02 C-5.73 38.09, -9.99 32.96, -22.39 23.94 M-24.28 23.53 C-34.13 14.69, -42.44 7.81, -53.54 -1 M-24.94 22.66 C-34.45 12.85, -45.55 2.65, -52.28 -1.47 M0.81 38.56 C-6.59 30.83, -12.79 27.13, -23.83 19.24 M-0.1 39.57 C-5.33 32.68, -9.73 29.06, -23.46 18.52 M-24.97 17.25 C-31.57 9.52, -39.7 3.27, -44.56 -2.78 M-24.33 17.28 C-31.44 10.12, -39.16 3.15, -45.01 -1.02 M1.87 34.41 C-5.58 24.72, -15.46 18.53, -21.4 11.53 M-0.08 32.49 C-7.03 27.41, -12.16 21.35, -23.53 11.73 M-25.58 11.93 C-29.6 7.22, -37.9 0.8, -41.24 -2.68 M-23.19 11.22 C-29.73 6.14, -36.7 0.96, -40.32 -1.64 M1.31 26.32 C-8.4 18.8, -14.46 14.32, -21.85 5.21 M1.29 28.55 C-6.54 20.24, -14.67 14.77, -23.8 6.34 M-24.22 6.43 C-27.52 4.24, -28.54 3.22, -33.14 -3.4 M-23.04 7.22 C-25.81 5.57, -27.51 3.84, -34.06 -2.02 M0.02 24.34 C-3.93 17.3, -10.55 10.28, -24.73 1.26 M1.19 22.43 C-8.79 15.03, -18.06 7.13, -23.11 2.15 M-22.62 1.53 C-24.65 0.71, -25.58 0.27, -26.98 -2.04 M-23.16 2.24 C-24.23 1.07, -25.19 -0.11, -27.8 -1.65 M2.69 19.22 C-8.02 10.92, -13.34 5.95, -23.11 -1.58 M1.63 17.73 C-5.84 12.77, -11.31 6.65, -22.2 -3.63 M-0.07 13.52 C-6.49 6.18, -9.12 1.18, -17.86 -2.48 M1.11 13.11 C-3.52 9.68, -5.6 4.94, -16.76 -3.49 M1.43 8.27 C-1.94 3.07, -3.73 0.53, -10.75 -1.76 M0.45 6.37 C-2.2 4.91, -4.77 1.69, -10.15 -3.68 M0.78 2.38 C0.03 -0.07, -1.55 -1.55, -4.1 -3.22 M0.94 1.67 C-0.78 0.28, -2.13 -1.14, -4.18 -2.82" stroke="#aac3f5" stroke-width="0.5" fill="none"></path><path d="M-1.59 -1.53 C0.68 42.07, -2.01 81.06, -1.79 167.74 M-0.85 0.44 C0 37.4, -1.34 73.15, -0.56 166.43 M-0.39 164.49 C-36.39 166.13, -69.36 165.52, -165.28 164.57 M-0.75 165.21 C-61.42 167.39, -121.77 165.09, -166.94 163.26 M-165.11 164.21 C-168.89 109.09, -167.71 50.36, -164.64 -0.97 M-165.83 163.93 C-166.45 102.6, -165.43 40.9, -167.02 0.32 M-164.67 -1.41 C-109.6 0.02, -53.33 -0.51, -22.75 0.3 M-165.39 0.96 C-133.76 1.93, -102.89 1.55, -24.07 -1.95 M-24.01 -0.38 C-24.46 9.19, -25.47 18.51, -25.5 23.46 M-23.53 -0.82 C-24.2 6.59, -24.2 15.1, -24.69 24.3 M-23.61 21.71 C-57.26 23.32, -87.57 25.77, -144.29 24.26 M-25.44 22.65 C-69.57 23.79, -112.37 23.01, -142.96 23.26 M-141.95 24.45 C-145.48 50.59, -143.37 79.74, -141.94 142.45 M-143.56 23.54 C-144.71 67.15, -143.88 113.2, -143.11 140.05 M-145.41 139.9 C-98.95 139.49, -52.47 142.51, -25.68 140.68 M-144.16 140.66 C-113.95 140.53, -84.39 141.19, -24.21 141.81 M-25.33 143.54 C-24.8 103.7, -23.67 63.47, -24.54 0.44 M-24.18 142.63 C-25.08 108.17, -25.47 72.61, -24.26 0.91 M-23.29 2.2 C-16.38 -1.17, -7.77 -0.25, 0.75 1.72 M-25.2 1.02 C-18.09 -0.06, -12.92 0.35, 0.15 0.77 M0 0 C0 0, 0 0, 0 0 M0 0 C0 0, 0 0, 0 0" stroke="#aac3f5" stroke-width="1" fill="none"></path></g></g><mask></mask><g stroke-linecap="round"><g transform="translate(167.87281042365578 94.37162958707063) rotate(0 -36.05411367158155 36.03436931538272)" fill-rule="evenodd"><path d="M-71.22 0.36 C-71.22 0.36, -71.22 0.36, -71.22 0.36 M-71.22 0.36 C-71.22 0.36, -71.22 0.36, -71.22 0.36 M-71.43 6.63 C-70.42 4.95, -68.06 3.3, -65.65 0.09 M-70.7 6.24 C-69.26 4.07, -67.23 1.26, -65.43 0.02 M-70.42 10.91 C-67.35 7.49, -63.94 1.45, -59.31 1.79 M-71.29 12.27 C-68.88 8.94, -65.63 6.78, -61.16 -0.15 M-70.77 20.23 C-67.33 14.03, -62.7 7.83, -56.4 0.29 M-70.41 17.9 C-68.1 14.86, -65.15 10.53, -54.94 -1.03 M-71.8 22.82 C-63.5 16.65, -53.99 7.45, -48.83 1.23 M-70.55 25.22 C-65.36 17.19, -56.86 8.99, -50.03 0.46 M-72.34 32.29 C-62.07 21.12, -53.35 11.09, -45.83 -0.62 M-71.68 31.23 C-63.92 23.25, -56.37 12.92, -45.29 -0.2 M-69.63 37.96 C-61.72 23.16, -53.01 11.93, -40.82 1.82 M-70.84 36.21 C-60.89 24.6, -51.24 15.34, -39.18 -0.31 M-72.25 41.34 C-58.05 30.33, -46.08 16.54, -35.6 -0.87 M-70.99 43.77 C-61.4 31.04, -49.92 18.84, -33.17 -0.98 M-73.33 47.68 C-54.63 28.75, -39.41 12.34, -29.43 2.18 M-71.07 48.72 C-61.45 37.26, -49.49 25.49, -28.6 0.93 M-72.33 55 C-55.94 35.71, -40.24 20.18, -23.58 0.94 M-71.49 55.36 C-57.35 37.93, -42.01 21.27, -22.07 -0.06 M-70.83 61.22 C-58.44 48.49, -48.21 36.33, -18.4 1.32 M-70.75 60.88 C-60.14 48.8, -48.6 37.17, -18.21 0.04 M-72.37 66.4 C-54.79 48.65, -39.44 29.59, -13.89 -0.05 M-71.08 66.91 C-57.14 51.81, -44 35.47, -13.11 -0.26 M-68.97 70.36 C-44.46 44.73, -21.43 15.62, -6.75 1.03 M-69.66 71.39 C-50.38 48.12, -30.46 26.74, -7.07 0.24 M-28.77 34.43 C-19.57 21.02, -8.44 8.24, -2.96 -0.89 M-30.12 33.66 C-19.27 20.46, -8.22 9.11, -2.02 0.43" stroke="#aac3f5" stroke-width="0.5" fill="none"></path><path d="M-0.49 -0.49 C-29.55 0.08, -56.61 -1.74, -69.52 1.16 M-0.72 -0.61 C-19.15 0.05, -40.13 1.33, -70.68 -0.35 M-70.22 1.07 C-70.88 19.53, -70.61 39.16, -72.27 72.68 M-71.41 0.99 C-70.88 15.16, -71.2 29.91, -71.46 71.39 M-69.44 71.95 C-47.06 46.04, -20.46 21.02, -1.94 0.48 M-72.21 69.99 C-46.38 45.48, -21.41 21.09, -2.03 0.5 M-1.29 1.51 C-1.03 0.87, -0.38 0.48, 0.16 -0.05 M-1.52 1.41 C-1.11 1.04, -0.82 0.66, -0.06 0.06" stroke="#aac3f5" stroke-width="1" fill="none"></path></g></g><mask></mask><g stroke-linecap="round"><g transform="translate(132.68196189935145 129.8987711300897) rotate(0 16.898526519167604 0.7150432972622411)" fill-rule="evenodd"><path d="M0 0 C0 0, 0 0, 0 0 M0 0 C0 0, 0 0, 0 0 M1.35 3.34 C11.09 -8.02, 22.39 -19.33, 34.7 -31.34 M2.1 1.78 C16.17 -10.89, 27.97 -26.18, 33.64 -32.4 M4.76 7.96 C14.1 -4.8, 23.31 -14.7, 33.2 -27.57 M5.42 5.48 C15.58 -5.16, 25.68 -17.41, 34.1 -26.44 M9.17 9.7 C14.21 -0.5, 22.47 -8.46, 34.47 -19.9 M9.38 9.47 C14.3 1.12, 21.8 -7.26, 33.89 -20.21 M12.2 9.97 C16.94 3.26, 25.98 -4.45, 34.14 -15.02 M10.43 11.27 C20.89 0.23, 29.62 -9.27, 35.34 -14.26 M13.83 13.26 C17.82 7.64, 25.51 3.47, 35.24 -10.13 M13.65 14.26 C18.26 8.9, 23.4 3.23, 33.49 -8.41 M18.55 15.77 C24.26 8.19, 29.31 2.81, 35.67 -2.27 M17.15 17.51 C23.09 9.25, 30.14 1.33, 34.71 -2.69 M21.61 18.67 C24.01 14.85, 32.27 7.52, 35.1 4.64 M19.56 19.43 C24.61 13.93, 29.72 9.06, 33.85 2.78 M23.13 24.6 C23.37 19.4, 29.2 16.02, 34.48 10.42 M22.33 23.54 C25.25 18.94, 29.91 14.26, 34.91 8.86 M24.68 24.93 C28.46 20.96, 31.22 18.29, 35.41 14.99 M25.21 25.52 C28.87 21.94, 31.2 19.7, 34.94 14.7 M28.2 28.63 C30.51 26.51, 33.75 23.16, 33.89 20.91 M28.41 28.8 C29.99 26.9, 31.33 24.44, 34.94 20.89 M30.47 32.39 C32.09 31.02, 33.49 28.26, 35.73 26.06 M30.74 31.99 C31.78 30.95, 32.85 29.68, 35.29 26.57 M33.68 34.37 C33.83 33.88, 34.43 33.68, 34.76 33.12 M33.59 34.61 C34.16 33.94, 34.51 33.28, 34.99 32.95 M33.47 34.66 C33.47 34.66, 33.47 34.66, 33.47 34.66 M33.47 34.66 C33.47 34.66, 33.47 34.66, 33.47 34.66 M34.27 30.59 C25.04 19.98, 15.95 14.43, 1.82 2.13 M33.27 29.24 C23.85 22.16, 14.12 13.17, 1.95 1.58 M35.16 23.96 C23.86 17.14, 15.63 6.95, 4.32 -1.67 M32.44 24.63 C24 15.02, 15.51 8.02, 1.53 -3.61 M34.23 17.37 C24.85 10.07, 12.55 0.3, 4.84 -4.68 M34.46 18.99 C24.48 11.14, 16.75 3.23, 5.09 -6.27 M33.52 13.96 C24.04 3.94, 15.59 -1.95, 9.4 -10.48 M33.04 13.34 C26.4 5.7, 18.4 -0.65, 6.81 -9.21 M34.12 6.55 C27.84 1.12, 22.85 -0.03, 12.74 -11.72 M32.1 7.76 C27.68 3.74, 22.18 -1.9, 10.75 -11.34 M32.11 4.42 C24.93 -2.88, 19.07 -8.07, 14.02 -15.18 M32.89 2.49 C26.54 -4.44, 18.22 -9.6, 14.66 -13.51 M32.48 -1.81 C29.09 -7.76, 20.56 -10.83, 15.51 -17.1 M32.14 -1.9 C26.46 -8.64, 19.76 -13.65, 15.98 -17.5 M32.62 -6.84 C28.35 -11.27, 25.28 -14.35, 19.75 -19.01 M32.77 -6.91 C28.97 -12.12, 22.5 -16.7, 19.18 -20.52 M32.47 -13.01 C28.52 -17.02, 26.32 -18.27, 20.9 -22.26 M32.33 -13.13 C29.57 -17.17, 25.23 -20.46, 21.89 -23.47 M33.85 -19.32 C31.41 -19.82, 30.11 -22.1, 24.49 -26.7 M33.52 -18.11 C31.25 -21, 27.76 -23.37, 24.68 -26.03 M33.32 -24.18 C31.59 -25.79, 29.18 -26.77, 27.54 -28.26 M33.03 -24.3 C31.34 -25.69, 29.16 -27.38, 27.52 -28.9 M32.37 -29.57 C31.86 -30.24, 31.01 -31.2, 30.5 -31.86 M32.37 -29.69 C31.88 -30.31, 31.24 -31, 30.09 -31.64" stroke="#4979ea" stroke-width="0.5" fill="none"></path><path d="M0.05 -0.79 C13.52 12.05, 24.9 24.44, 34.39 36.71 M-0.06 -0.51 C7.11 7.65, 15.41 15.36, 32.78 34.59 M33.82 35.7 C35.24 13.14, 32.81 -7.97, 34.45 -35.28 M32.84 34.09 C33.35 10.66, 34.15 -14.99, 32.24 -34.56 M34.65 -32.89 C24.11 -22.56, 13.77 -13.1, 0.82 0.84 M33.07 -33.28 C20.93 -23.32, 11.51 -10.3, -0.86 -0.38 M0 0 C0 0, 0 0, 0 0 M0 0 C0 0, 0 0, 0 0" stroke="#4979ea" stroke-width="1" fill="none"></path></g></g><mask></mask><g stroke-linecap="round"><g transform="translate(133.18770488873736 131.0653690050899) rotate(0 -0.21837792422076063 18.49065736584521)" fill-rule="evenodd"><path d="M-35.71 33.88 C-35.71 33.88, -35.71 33.88, -35.71 33.88 M-35.71 33.88 C-35.71 33.88, -35.71 33.88, -35.71 33.88 M-30.85 35.56 C-23.94 25.13, -15.05 13.12, -6.41 4.48 M-31.33 34.29 C-25.75 27.49, -18.03 21.2, -6.02 5.02 M-25.09 33.97 C-15.32 24.5, -8.96 14.33, 2.32 3.05 M-24.26 32.99 C-17.34 24.85, -9.37 16.61, 2.02 2.94 M-20.66 35.75 C-10.99 22.7, 1.6 13.26, 7.03 5.17 M-19.57 34.98 C-9.95 21.92, 0.83 10.81, 5.59 5.68 M-13.16 34.27 C-10.45 28.3, -4.18 22.49, 8.11 7.73 M-14.57 34.38 C-6.46 25.32, 2.62 15.21, 9.2 7.95 M-7.47 35.63 C-3.66 26.59, 1.46 22.16, 10.45 10.48 M-9.14 33.34 C-5.42 28.69, 0.3 22.97, 11.59 11.16 M-3.5 35.75 C-0.49 28.41, 4.98 23.1, 13.56 11.76 M-5.23 34.45 C0.96 28.96, 5.43 22.25, 12.99 13.46 M2.55 35.88 C4.41 27.11, 8.41 22.4, 15.73 15.85 M1.09 34.51 C6.54 26.57, 12.8 20.72, 17.58 16.32 M5.17 35.49 C9.67 28.34, 12.61 24.74, 18.92 18.74 M6.83 34.67 C10.87 29.01, 14.15 25.06, 19.54 18.66 M12.12 35.61 C16.09 31.52, 19.05 23.94, 23.39 20.73 M11.89 34.34 C14.14 31.31, 17.9 28.14, 22.18 22.35 M15.96 33.25 C20.37 31.66, 23.16 26.67, 25.45 23.6 M16.41 34.88 C18.38 32.48, 20.55 29.39, 25.63 24.63 M22.05 35.38 C22.84 33.25, 26.37 30.77, 28.21 26.36 M21.82 34.88 C23.24 32.48, 25.27 30.7, 28.39 27.66 M27.28 35.38 C28.22 33.3, 29.37 32.12, 31.24 29.87 M26.76 35.09 C28.66 32.99, 30.15 31.3, 31.47 29.67 M32.46 34.64 C32.9 34.37, 32.82 34.14, 33.68 33.3 M32.49 34.81 C32.79 34.34, 33.21 33.96, 33.73 33.37" stroke="#6691ee" stroke-width="0.5" fill="none"></path><path d="M1.91 1.41 C12.8 11.29, 24.18 27.34, 34.77 36.98 M0.83 0.14 C9.49 9.3, 19.18 18.54, 34.73 35.98 M34.68 33.12 C7.7 36.23, -21.73 32.45, -34.67 33.45 M36.15 35.32 C6.55 34.99, -20.64 34.49, -35.37 33.78 M-36.59 33.23 C-21.3 19.98, -9.33 9.5, 0.22 0.35 M-35.74 33.99 C-24.02 24.32, -14.13 14.14, 0.6 0.04 M0 0 C0 0, 0 0, 0 0 M0 0 C0 0, 0 0, 0 0" stroke="#6691ee" stroke-width="1" fill="none"></path></g></g><mask></mask></svg>