<svg version="1.1" xmlns="http://www.w3.org/2000/svg" viewBox="0 0 160.74512904585026 134.44154533338155" width="482.2353871375508" height="403.32463600014466">
  <!-- svg-source:excalidraw -->
  
  <defs>
    <style class="style-fonts">
      @font-face {
        font-family: "Virgil";
        src: url("https://excalidraw.com/Virgil.woff2");
      }
      @font-face {
        font-family: "Cascadia";
        src: url("https://excalidraw.com/Cascadia.woff2");
      }
    </style>
  </defs>
  <g stroke-linecap="round"><g transform="translate(25.86355376909887 114.9760077779572) rotate(0 19.546717132372578 -35.76252652904407)" fill-rule="evenodd"><path d="M0 0 L-7.41 -7.79 L-12.9 -17.58 L-14.95 -23.13 L-15.86 -29.65 L-14.78 -38.37 L-12.19 -47.28 L-8.28 -54.63 L-3.01 -60.85 L3.95 -65.93 L11.57 -69.55 L18.85 -71.25 L25.96 -71.48 L39.13 -68.48 L49.14 -62.76 L53.15 -59.6 L54.94 -56.1 L52.01 -52.06 L38.1 -38.8 L36.66 -39.45 L35.74 -41.67 L30.8 -45.34 L24.16 -47.49 L21.62 -47.24 L12.19 -41.98 L10.18 -39.29 L8.29 -30.95 L9.77 -25.62 L12.59 -21.72 L18.35 -18.61 L18.14 -16.47 L14.84 -12.76 L0 0" stroke="none" stroke-width="0" fill="#fbbc05" fill-rule="evenodd"></path><path d="M0 0 C-1.24 -1.3, -5.26 -4.86, -7.41 -7.79 C-9.56 -10.72, -11.5 -13.94, -12.9 -17.58 C-14.31 -21.22, -15.98 -24.7, -15.86 -29.65 C-15.74 -34.6, -14.33 -42.08, -12.19 -47.28 C-10.05 -52.48, -6.97 -57.14, -3.01 -60.85 C0.95 -64.56, 6.74 -67.78, 11.57 -69.55 C16.39 -71.32, 21.37 -71.66, 25.96 -71.48 C30.56 -71.31, 35.27 -69.94, 39.13 -68.48 C42.99 -67.03, 46.51 -64.83, 49.14 -62.76 C51.78 -60.7, 55.26 -58.61, 54.94 -56.1 C54.61 -53.6, 50.02 -50.62, 47.21 -47.73 C44.41 -44.85, 40.01 -39.81, 38.1 -38.8 C36.19 -37.79, 36.96 -40.58, 35.74 -41.67 C34.52 -42.76, 32.4 -44.47, 30.8 -45.34 C29.2 -46.21, 27.64 -46.57, 26.11 -46.89 C24.58 -47.2, 23.94 -48.06, 21.62 -47.24 C19.3 -46.42, 14.25 -43.76, 12.19 -41.98 C10.12 -40.2, 9.88 -38.39, 9.23 -36.56 C8.58 -34.72, 8.2 -32.78, 8.29 -30.95 C8.38 -29.13, 9.05 -27.16, 9.77 -25.62 C10.48 -24.08, 11.19 -23.24, 12.59 -21.72 C13.98 -20.19, 20.23 -20.09, 18.14 -16.47 C16.04 -12.86, 3.02 -2.75, 0 0 M0 0 C-1.24 -1.3, -5.26 -4.86, -7.41 -7.79 C-9.56 -10.72, -11.5 -13.94, -12.9 -17.58 C-14.31 -21.22, -15.98 -24.7, -15.86 -29.65 C-15.74 -34.6, -14.33 -42.08, -12.19 -47.28 C-10.05 -52.48, -6.97 -57.14, -3.01 -60.85 C0.95 -64.56, 6.74 -67.78, 11.57 -69.55 C16.39 -71.32, 21.37 -71.66, 25.96 -71.48 C30.56 -71.31, 35.27 -69.94, 39.13 -68.48 C42.99 -67.03, 46.51 -64.83, 49.14 -62.76 C51.78 -60.7, 55.26 -58.61, 54.94 -56.1 C54.61 -53.6, 50.02 -50.62, 47.21 -47.73 C44.41 -44.85, 40.01 -39.81, 38.1 -38.8 C36.19 -37.79, 36.96 -40.58, 35.74 -41.67 C34.52 -42.76, 32.4 -44.47, 30.8 -45.34 C29.2 -46.21, 27.64 -46.57, 26.11 -46.89 C24.58 -47.2, 23.94 -48.06, 21.62 -47.24 C19.3 -46.42, 14.25 -43.76, 12.19 -41.98 C10.12 -40.2, 9.88 -38.39, 9.23 -36.56 C8.58 -34.72, 8.2 -32.78, 8.29 -30.95 C8.38 -29.13, 9.05 -27.16, 9.77 -25.62 C10.48 -24.08, 11.19 -23.24, 12.59 -21.72 C13.98 -20.19, 20.23 -20.09, 18.14 -16.47 C16.04 -12.86, 3.02 -2.75, 0 0" stroke="#cccccc" stroke-width="1" fill="none"></path></g></g><g stroke-linecap="round"><g transform="translate(27.355119415540685 50.488055743250015) rotate(0 44.400469726199844 -20.244027871625008)" fill-rule="evenodd"><path d="M0 0 L17.77 -6.71 L29.82 -6.38 L35.4 -10.76 L41.63 -14.13 L47.78 -16.23 L53.64 -16.27 L63.44 -14.49 L70.67 -10.24 L72.5 -10.3 L88.78 -26.5 L88.17 -28.08 L81.08 -32.77 L72.3 -37.2 L61.88 -40.16 L42.13 -39.58 L32.61 -36.9 L20.37 -30.1 L11.02 -21.25 L5.65 -14.58 L0 0" stroke="none" stroke-width="0" fill="#ea4335" fill-rule="evenodd"></path><path d="M0 0 C2.5 -0.99, 11.79 -4.8, 14.98 -5.93 C18.17 -7.06, 17.85 -6.61, 19.14 -6.78 C20.44 -6.96, 21.57 -7.06, 22.77 -7 C23.97 -6.95, 25.16 -6.57, 26.34 -6.47 C27.51 -6.36, 28.31 -5.67, 29.82 -6.38 C31.33 -7.1, 33.43 -9.46, 35.4 -10.76 C37.37 -12.05, 39.56 -13.22, 41.63 -14.13 C43.69 -15.04, 45.78 -15.87, 47.78 -16.23 C49.79 -16.58, 51.03 -16.55, 53.64 -16.27 C56.25 -15.98, 60.85 -15.27, 63.44 -14.49 C66.03 -13.71, 67.65 -12.27, 69.16 -11.57 C70.67 -10.87, 70.55 -9.15, 72.5 -10.3 C74.46 -11.45, 78.77 -16.35, 80.89 -18.47 C83 -20.58, 83.96 -21.37, 85.17 -22.97 C86.39 -24.57, 90.32 -25.71, 88.17 -28.08 C86.03 -30.45, 76.68 -35.19, 72.3 -37.2 C67.92 -39.22, 65.26 -39.64, 61.88 -40.16 C58.49 -40.69, 55.26 -40.44, 51.97 -40.34 C48.68 -40.25, 45.36 -40.15, 42.13 -39.58 C38.91 -39, 35.65 -38.09, 32.61 -36.9 C29.56 -35.71, 26.54 -34.12, 23.87 -32.44 C21.2 -30.76, 19.63 -29.78, 16.59 -26.8 C13.55 -23.82, 8.41 -19.04, 5.65 -14.58 C2.88 -10.11, 0.94 -2.43, 0 0 M0 0 C2.5 -0.99, 11.79 -4.8, 14.98 -5.93 C18.17 -7.06, 17.85 -6.61, 19.14 -6.78 C20.44 -6.96, 21.57 -7.06, 22.77 -7 C23.97 -6.95, 25.16 -6.57, 26.34 -6.47 C27.51 -6.36, 28.31 -5.67, 29.82 -6.38 C31.33 -7.1, 33.43 -9.46, 35.4 -10.76 C37.37 -12.05, 39.56 -13.22, 41.63 -14.13 C43.69 -15.04, 45.78 -15.87, 47.78 -16.23 C49.79 -16.58, 51.03 -16.55, 53.64 -16.27 C56.25 -15.98, 60.85 -15.27, 63.44 -14.49 C66.03 -13.71, 67.65 -12.27, 69.16 -11.57 C70.67 -10.87, 70.55 -9.15, 72.5 -10.3 C74.46 -11.45, 78.77 -16.35, 80.89 -18.47 C83 -20.58, 83.96 -21.37, 85.17 -22.97 C86.39 -24.57, 90.32 -25.71, 88.17 -28.08 C86.03 -30.45, 76.68 -35.19, 72.3 -37.2 C67.92 -39.22, 65.26 -39.64, 61.88 -40.16 C58.49 -40.69, 55.26 -40.44, 51.97 -40.34 C48.68 -40.25, 45.36 -40.15, 42.13 -39.58 C38.91 -39, 35.65 -38.09, 32.61 -36.9 C29.56 -35.71, 26.54 -34.12, 23.87 -32.44 C21.2 -30.76, 19.63 -29.78, 16.59 -26.8 C13.55 -23.82, 8.41 -19.04, 5.65 -14.58 C2.88 -10.11, 0.94 -2.43, 0 0" stroke="#cccccc" stroke-width="1" fill="none"></path></g></g><g stroke-linecap="round"><g transform="translate(99.67991620870998 40.59791754741536) rotate(0 15.61477226133411 33.260685445684544)" fill-rule="evenodd"><path d="M0 0 L14.95 -14.48 L16.89 -15.99 L19.4 -15.22 L29.08 -1.77 L33.9 9.65 L42.03 17.34 L46.91 24.55 L49.12 31.68 L51.05 42.85 L48.65 55.72 L43.18 66.68 L38.43 71.89 L33.29 76.22 L22.29 81.3 L9.76 82.36 L-19.36 82.69 L-16.44 77.37 L-16.51 70.43 L-19.84 57.86 L9.19 57.81 L16.35 57.1 L20.43 55.56 L22.81 53.42 L25.29 48.47 L26.56 42.98 L25.97 37.61 L23.52 33.28 L19.95 29.95 L11.57 27.06 L10.79 15.86 L9.23 11.67 L0 0" stroke="none" stroke-width="0" fill="#4285f4" fill-rule="evenodd"></path><path d="M0 0 C1.65 -1.62, 7.42 -7.31, 9.92 -9.72 C12.41 -12.14, 13.37 -13.57, 14.95 -14.48 C16.53 -15.4, 17.04 -17.34, 19.4 -15.22 C21.75 -13.1, 26.67 -5.91, 29.08 -1.77 C31.5 2.38, 31.74 6.46, 33.9 9.65 C36.06 12.83, 39.86 14.86, 42.03 17.34 C44.2 19.82, 45.47 20.97, 46.91 24.55 C48.36 28.13, 50.08 35.22, 50.71 38.84 C51.33 42.45, 51.02 43.44, 50.68 46.25 C50.33 49.07, 49.9 52.32, 48.65 55.72 C47.4 59.13, 45.74 63.27, 43.18 66.68 C40.62 70.1, 36.36 73.98, 33.29 76.22 C30.22 78.45, 27.5 79.1, 24.75 80.08 C22.01 81.07, 23.57 81.68, 16.84 82.1 C10.11 82.52, -9.71 82.61, -15.64 82.61 C-21.57 82.62, -18.6 82.98, -18.74 82.11 C-18.87 81.24, -16.81 79.31, -16.44 77.37 C-16.07 75.42, -16.19 72.72, -16.51 70.43 C-16.83 68.15, -17.89 65.63, -18.36 63.66 C-18.84 61.68, -19.71 59.57, -19.34 58.57 C-18.97 57.58, -22.09 57.95, -16.15 57.71 C-10.2 57.46, 9.44 58.64, 16.35 57.1 C23.25 55.56, 23.69 51.72, 25.29 48.47 C26.89 45.22, 26.86 40.7, 25.97 37.61 C25.08 34.52, 22.35 31.71, 19.95 29.95 C17.55 28.19, 13.02 28.8, 11.57 27.06 C10.12 25.33, 11.64 22.09, 11.24 19.53 C10.85 16.96, 11.1 14.92, 9.23 11.67 C7.35 8.41, 1.54 1.94, 0 0 M0 0 C1.65 -1.62, 7.42 -7.31, 9.92 -9.72 C12.41 -12.14, 13.37 -13.57, 14.95 -14.48 C16.53 -15.4, 17.04 -17.34, 19.4 -15.22 C21.75 -13.1, 26.67 -5.91, 29.08 -1.77 C31.5 2.38, 31.74 6.46, 33.9 9.65 C36.06 12.83, 39.86 14.86, 42.03 17.34 C44.2 19.82, 45.47 20.97, 46.91 24.55 C48.36 28.13, 50.08 35.22, 50.71 38.84 C51.33 42.45, 51.02 43.44, 50.68 46.25 C50.33 49.07, 49.9 52.32, 48.65 55.72 C47.4 59.13, 45.74 63.27, 43.18 66.68 C40.62 70.1, 36.36 73.98, 33.29 76.22 C30.22 78.45, 27.5 79.1, 24.75 80.08 C22.01 81.07, 23.57 81.68, 16.84 82.1 C10.11 82.52, -9.71 82.61, -15.64 82.61 C-21.57 82.62, -18.6 82.98, -18.74 82.11 C-18.87 81.24, -16.81 79.31, -16.44 77.37 C-16.07 75.42, -16.19 72.72, -16.51 70.43 C-16.83 68.15, -17.89 65.63, -18.36 63.66 C-18.84 61.68, -19.71 59.57, -19.34 58.57 C-18.97 57.58, -22.09 57.95, -16.15 57.71 C-10.2 57.46, 9.44 58.64, 16.35 57.1 C23.25 55.56, 23.69 51.72, 25.29 48.47 C26.89 45.22, 26.86 40.7, 25.97 37.61 C25.08 34.52, 22.35 31.71, 19.95 29.95 C17.55 28.19, 13.02 28.8, 11.57 27.06 C10.12 25.33, 11.64 22.09, 11.24 19.53 C10.85 16.96, 11.1 14.92, 9.23 11.67 C7.35 8.41, 1.54 1.94, 0 0" stroke="#cccccc" stroke-width="1" fill="none"></path></g></g><g stroke-linecap="round"><g transform="translate(26.49658151768199 114.95906258011928) rotate(0 28.87296692460859 -4.310700783657353)" fill-rule="evenodd"><path d="M0 0 L12.69 -13.39 L18.5 -18.02 L21.66 -16.92 L26.53 -16.57 L53.55 -16.67 L54.57 -16.08 L55.25 -14.05 L57.51 -3.17 L57.48 3.11 L54.74 7.44 L47.78 9.2 L37.77 9.43 L18.55 7.76 L7.01 3.9 L0 0" stroke="none" stroke-width="0" fill="#34a853" fill-rule="evenodd"></path><path d="M0 0 C2.73 -2.8, 12.78 -13.99, 16.39 -16.81 C20 -19.63, 19.97 -16.96, 21.66 -16.92 C23.35 -16.88, 24.18 -16.62, 26.53 -16.57 C28.88 -16.52, 32.47 -16.61, 35.74 -16.63 C39.01 -16.65, 43.58 -16.7, 46.15 -16.7 C48.72 -16.7, 49.63 -17.05, 51.15 -16.61 C52.67 -16.17, 54.66 -18.06, 55.25 -14.05 C55.85 -10.05, 60.85 3.8, 54.74 7.44 C48.62 11.07, 27.67 9, 18.55 7.76 C9.42 6.52, 3.09 1.29, 0 0 M0 0 C2.73 -2.8, 12.78 -13.99, 16.39 -16.81 C20 -19.63, 19.97 -16.96, 21.66 -16.92 C23.35 -16.88, 24.18 -16.62, 26.53 -16.57 C28.88 -16.52, 32.47 -16.61, 35.74 -16.63 C39.01 -16.65, 43.58 -16.7, 46.15 -16.7 C48.72 -16.7, 49.63 -17.05, 51.15 -16.61 C52.67 -16.17, 54.66 -18.06, 55.25 -14.05 C55.85 -10.05, 60.85 3.8, 54.74 7.44 C48.62 11.07, 27.67 9, 18.55 7.76 C9.42 6.52, 3.09 1.29, 0 0" stroke="#cccccc" stroke-width="1" fill="none"></path></g></g></svg>
