<svg version="1.1" xmlns="http://www.w3.org/2000/svg" viewBox="0 0 190.65233727487794 158.44046937127519" width="571.9570118246338" height="475.32140811382556">
  <!-- svg-source:excalidraw -->
  
  <defs>
    <style class="style-fonts">
      @font-face {
        font-family: "Virgil";
        src: url("https://excalidraw.com/Virgil.woff2");
      }
      @font-face {
        font-family: "Cascadia";
        src: url("https://excalidraw.com/Cascadia.woff2");
      }
    </style>
  </defs>
  <g stroke-linecap="round"><g transform="translate(30.306916777997685 136.76669245994822) rotate(0 22.400131672325188 -42.074997646653514)" fill-rule="evenodd"><path d="M1.74 -1.5 L-7.73 -10.22 L-15.86 -21.96 L-18.67 -34.63 L-15.78 -55.64 L-10.72 -65.87 L-5.05 -70.75 L13.15 -82.09 L32.77 -83.81 L46.84 -82.85 L62.65 -70.99 L64.24 -65.19 L46.87 -46.93 L38.66 -52.86 L27.53 -58.65 L13.15 -49.83 L13.41 -46.78 L9.26 -36.05 L10.78 -31.79 L15.61 -25.51 L19.96 -21.77 L22.1 -20.39 L-0.33 0.63" stroke="none" stroke-width="0" fill="#fbbc05" fill-rule="evenodd"></path><path d="M1.08 -0.89 C-0.42 -2.5, -7.14 -5.41, -9.73 -8.92 C-12.31 -12.43, -12.72 -17.38, -14.43 -21.93 C-16.14 -26.48, -19.81 -30.62, -19.99 -36.24 C-20.17 -41.86, -18.19 -49.77, -15.52 -55.67 C-12.84 -61.57, -8.66 -67.04, -3.96 -71.61 C0.73 -76.19, 6.89 -81.04, 12.65 -83.14 C18.42 -85.25, 24.89 -84.67, 30.61 -84.25 C36.33 -83.83, 42.37 -82.16, 46.98 -80.62 C51.59 -79.07, 55.25 -77.15, 58.25 -75.01 C61.26 -72.87, 65.31 -70.6, 65.02 -67.78 C64.73 -64.97, 59.64 -61.76, 56.51 -58.15 C53.39 -54.53, 48.69 -47.5, 46.28 -46.12 C43.87 -44.74, 43.58 -48.58, 42.04 -49.88 C40.5 -51.17, 38.84 -53.02, 37.04 -53.88 C35.23 -54.74, 33.14 -54.56, 31.21 -55.02 C29.29 -55.49, 28.26 -57.6, 25.48 -56.66 C22.7 -55.72, 17.03 -51.71, 14.54 -49.38 C12.04 -47.05, 11.39 -44.91, 10.51 -42.68 C9.63 -40.45, 9.25 -38.16, 9.27 -35.99 C9.28 -33.82, 9.53 -31.22, 10.59 -29.65 C11.65 -28.08, 13.69 -28.43, 15.64 -26.6 C17.59 -24.77, 25.1 -22.94, 22.3 -18.67 C19.5 -14.4, 2.75 -4.04, -1.16 -0.99 M0.19 1.26 C-0.87 -0.78, -5 -7.11, -7.48 -10.84 C-9.96 -14.57, -12.55 -16.98, -14.69 -21.11 C-16.82 -25.23, -20.45 -29.95, -20.3 -35.58 C-20.16 -41.2, -16.76 -48.78, -13.83 -54.87 C-10.91 -60.96, -7.17 -67.17, -2.75 -72.11 C1.67 -77.06, 7.34 -82.56, 12.69 -84.55 C18.05 -86.53, 23.92 -84.55, 29.38 -84.02 C34.84 -83.5, 40.54 -82.82, 45.44 -81.4 C50.35 -79.98, 55.54 -77.87, 58.8 -75.51 C62.07 -73.14, 65.64 -70.55, 65.04 -67.22 C64.44 -63.89, 58.2 -58.92, 55.18 -55.52 C52.16 -52.12, 49.29 -47.74, 46.92 -46.84 C44.56 -45.94, 42.58 -48.89, 41.01 -50.13 C39.44 -51.38, 38.97 -53.17, 37.51 -54.3 C36.05 -55.43, 34.51 -56.64, 32.27 -56.93 C30.02 -57.22, 27.22 -57.43, 24.05 -56.05 C20.88 -54.67, 15.17 -50.99, 13.25 -48.63 C11.33 -46.28, 13.16 -43.81, 12.52 -41.92 C11.88 -40.02, 9.41 -39.19, 9.42 -37.27 C9.44 -35.34, 11.46 -32.45, 12.6 -30.34 C13.74 -28.24, 14.58 -26.53, 16.25 -24.64 C17.92 -22.76, 25.35 -23.33, 22.62 -19.01 C19.89 -14.7, 3.66 -1.85, -0.14 1.26" stroke="#495057" stroke-width="1" fill="none"></path></g></g><g stroke-linecap="round"><g transform="translate(32.0876227562494 59.777736601885636) rotate(0 52.88583974094854 -24.697662682785108)" fill-rule="evenodd"><path d="M-0.46 -0.97 L21.48 -7.24 L34.37 -6.81 L41.43 -13.5 L55.59 -17.48 L75.08 -16.36 L88.33 -10.76 L106.12 -32.73 L96 -38.97 L84.98 -42.63 L75.25 -48.56 L52.2 -45.97 L37.61 -46 L22.92 -35.65 L14.41 -25.24 L6.11 -16.49 L-0.88 -1.2" stroke="none" stroke-width="0" fill="#ea4335" fill-rule="evenodd"></path><path d="M-0.88 0.38 C2.08 -0.81, 15.08 -6.47, 18.86 -8.02 C22.64 -9.57, 20.57 -9.01, 21.79 -8.94 C23.02 -8.87, 24.67 -7.96, 26.22 -7.58 C27.76 -7.21, 29.7 -6.66, 31.07 -6.69 C32.44 -6.71, 32.65 -6.88, 34.45 -7.73 C36.25 -8.57, 39.29 -10.42, 41.87 -11.75 C44.46 -13.08, 47.5 -14.44, 49.96 -15.72 C52.42 -17.01, 54.38 -18.7, 56.63 -19.45 C58.88 -20.2, 60.26 -20.39, 63.47 -20.22 C66.67 -20.06, 72.57 -19.56, 75.89 -18.46 C79.2 -17.36, 81.69 -14.61, 83.36 -13.61 C85.04 -12.6, 83.69 -11.06, 85.93 -12.42 C88.18 -13.78, 94.2 -19.45, 96.83 -21.79 C99.47 -24.13, 100.37 -24.47, 101.72 -26.47 C103.07 -28.47, 107.5 -30.91, 104.93 -33.78 C102.36 -36.65, 91.57 -41.48, 86.31 -43.68 C81.05 -45.88, 77.51 -46.4, 73.36 -46.99 C69.21 -47.58, 65.43 -47.31, 61.41 -47.2 C57.39 -47.09, 52.88 -46.72, 49.23 -46.31 C45.59 -45.9, 42.89 -46.15, 39.54 -44.72 C36.2 -43.29, 32.63 -39.69, 29.15 -37.73 C25.66 -35.77, 22.57 -36.3, 18.64 -32.99 C14.71 -29.67, 8.49 -23.16, 5.56 -17.82 C2.62 -12.47, 1.86 -3.78, 1.04 -0.9 M0.86 -0.46 C3.66 -1.45, 14.55 -5.71, 18.42 -6.98 C22.3 -8.24, 22.88 -7.6, 24.13 -8.06 C25.39 -8.52, 24.47 -9.51, 25.96 -9.73 C27.45 -9.96, 31.52 -9.56, 33.07 -9.41 C34.62 -9.26, 33.71 -8.31, 35.25 -8.83 C36.79 -9.35, 40.01 -11.42, 42.31 -12.53 C44.61 -13.63, 46.39 -14.07, 49.07 -15.46 C51.75 -16.85, 55.93 -19.94, 58.4 -20.88 C60.88 -21.82, 60.96 -21.57, 63.94 -21.1 C66.92 -20.63, 73.21 -19.28, 76.28 -18.08 C79.36 -16.89, 80.78 -14.72, 82.37 -13.92 C83.96 -13.13, 83.52 -11.99, 85.83 -13.31 C88.15 -14.63, 93.56 -19.65, 96.27 -21.85 C98.98 -24.05, 100.48 -24.73, 102.07 -26.53 C103.66 -28.33, 108.63 -29.39, 105.79 -32.67 C102.96 -35.95, 90.1 -43.36, 85.05 -46.21 C79.99 -49.06, 79.09 -49.74, 75.47 -49.78 C71.86 -49.82, 67.74 -46.8, 63.35 -46.44 C58.97 -46.08, 53.25 -48.24, 49.16 -47.6 C45.06 -46.96, 42.01 -44.11, 38.78 -42.6 C35.55 -41.09, 33.24 -40.54, 29.78 -38.56 C26.31 -36.58, 21.88 -33.99, 18.01 -30.71 C14.14 -27.44, 9.64 -23.86, 6.57 -18.92 C3.5 -13.98, 0.93 -4.07, -0.41 -1.08" stroke="#495057" stroke-width="1" fill="none"></path></g></g><g stroke-linecap="round"><g transform="translate(118.4325974696003 47.97039292039517) rotate(0 18.81460358570348 39.57232245851924)" fill-rule="evenodd"><path d="M1.77 1.53 L20.29 -20.17 L24.95 -15.13 L33.38 -0.32 L41.86 10.91 L52.07 21.98 L54.69 27.36 L59.56 51.44 L59.35 66.65 L50.92 80.51 L45 84.63 L40.33 91.41 L24.67 97.51 L-22.67 98 L-19.95 92.99 L-20.72 85.24 L-22.28 69.16 L17.55 69.04 L27.71 64.54 L31.41 58.33 L33.67 53.08 L29.02 46.06 L22.52 35.19 L13.5 31.66 L12.26 18.16 L10.32 12.55 L0.47 -0.14" stroke="none" stroke-width="0" fill="#4285f4" fill-rule="evenodd"></path><path d="M0.97 -0.94 C2.92 -3.08, 8.13 -9.85, 10.78 -12.45 C13.43 -15.04, 14.89 -15.73, 16.89 -16.51 C18.89 -17.29, 20.01 -19.51, 22.79 -17.13 C25.57 -14.75, 30.69 -7.18, 33.57 -2.22 C36.45 2.74, 37.27 8.59, 40.08 12.61 C42.89 16.62, 47.86 19.07, 50.44 21.85 C53.03 24.62, 54 25.28, 55.59 29.23 C57.18 33.18, 59.12 41.42, 59.97 45.56 C60.81 49.7, 60.83 50.53, 60.65 54.06 C60.47 57.59, 60.5 62.49, 58.88 66.73 C57.26 70.97, 54.07 75.4, 50.92 79.48 C47.78 83.57, 43.57 88.4, 40.02 91.25 C36.46 94.09, 32.96 95.48, 29.59 96.56 C26.22 97.65, 27.82 97.29, 19.77 97.76 C11.73 98.22, -11.58 99.15, -18.69 99.36 C-25.79 99.56, -22.61 99.99, -22.87 98.99 C-23.13 97.98, -20.6 95.66, -20.25 93.33 C-19.9 91, -20.6 88.03, -20.78 85.03 C-20.95 82.02, -21.03 77.67, -21.31 75.32 C-21.59 72.97, -22.59 72.16, -22.44 70.93 C-22.3 69.69, -27.23 68.43, -20.44 67.9 C-13.64 67.37, 9.72 69.57, 18.33 67.75 C26.94 65.93, 29.01 60.87, 31.24 56.97 C33.46 53.07, 32.95 47.98, 31.67 44.35 C30.39 40.72, 26.49 37.1, 23.54 35.17 C20.59 33.24, 15.79 34.67, 13.98 32.78 C12.17 30.88, 13.26 27.01, 12.69 23.8 C12.11 20.59, 12.77 17.31, 10.51 13.54 C8.25 9.76, 0.94 3.3, -0.88 1.14 M0.02 1.18 C2.4 -0.86, 9.72 -8.08, 12.93 -11.35 C16.14 -14.62, 17.63 -17.15, 19.28 -18.45 C20.93 -19.75, 20.2 -21.9, 22.84 -19.14 C25.49 -16.38, 32.08 -7.1, 35.15 -1.89 C38.23 3.33, 38.61 8.31, 41.29 12.14 C43.97 15.97, 49.05 18.32, 51.22 21.1 C53.4 23.89, 52.61 24.46, 54.35 28.85 C56.09 33.23, 60.47 42.78, 61.66 47.41 C62.85 52.05, 61.83 53.26, 61.49 56.66 C61.15 60.06, 61.06 64.1, 59.62 67.82 C58.17 71.54, 56.05 75.2, 52.84 78.99 C49.64 82.78, 44.37 87.58, 40.39 90.56 C36.4 93.54, 32.31 95.79, 28.91 96.87 C25.5 97.96, 27.69 96.99, 19.93 97.06 C12.17 97.14, -10.88 97.41, -17.66 97.33 C-24.43 97.25, -20.64 97.71, -20.73 96.58 C-20.82 95.45, -18.49 92.34, -18.21 90.54 C-17.93 88.74, -18.68 88.06, -19.07 85.77 C-19.45 83.49, -19.81 79.44, -20.5 76.85 C-21.19 74.27, -23.14 71.46, -23.19 70.27 C-23.23 69.07, -27.57 70.29, -20.76 69.69 C-13.95 69.09, 9.27 68.4, 17.69 66.66 C26.11 64.93, 27.7 62.98, 29.76 59.27 C31.81 55.55, 30.88 48.44, 30.02 44.35 C29.15 40.26, 26.97 36.68, 24.55 34.72 C22.14 32.76, 17.33 34.63, 15.52 32.58 C13.71 30.53, 14.56 25.38, 13.7 22.43 C12.84 19.49, 12.58 18.57, 10.36 14.9 C8.13 11.22, 2.22 3.03, 0.33 0.39" stroke="#495057" stroke-width="1" fill="none"></path></g></g><g stroke-linecap="round"><g transform="translate(31.062657096228577 136.7464624317463) rotate(0 33.942947141715194 -5.519592055019757)" fill-rule="evenodd"><path d="M0.06 1.59 L21.53 -21.95 L31.66 -18.56 L63.08 -18.3 L64.92 -15.17 L66.88 -2.22 L69.65 2.59 L66.43 10.54 L55.11 9.32 L20.16 8.57 L16.35 5.91 L1.12 -0.92" stroke="none" stroke-width="0" fill="#34a853" fill-rule="evenodd"></path><path d="M-1.06 -0.84 C1.88 -3.9, 14.18 -16.24, 18.6 -19.29 C23.03 -22.35, 23.5 -19.07, 25.49 -19.17 C27.48 -19.27, 27.72 -19.96, 30.52 -19.89 C33.32 -19.82, 38.14 -18.95, 42.28 -18.76 C46.42 -18.58, 52.3 -18.6, 55.36 -18.79 C58.42 -18.98, 58.98 -20.11, 60.65 -19.91 C62.33 -19.7, 64.59 -22.19, 65.4 -17.59 C66.2 -12.98, 72.57 3.21, 65.49 7.72 C58.42 12.23, 33.95 10.77, 22.93 9.47 C11.91 8.16, 3.15 1.41, -0.62 -0.13 M0.58 1.34 C3.8 -1.98, 16.82 -17.29, 20.81 -21.01 C24.8 -24.73, 22.97 -21.33, 24.53 -20.97 C26.09 -20.61, 26.87 -18.76, 30.16 -18.84 C33.45 -18.92, 39.81 -21.4, 44.26 -21.46 C48.72 -21.53, 54.1 -19.26, 56.91 -19.23 C59.71 -19.2, 59.27 -21.44, 61.08 -21.29 C62.88 -21.15, 67.26 -23.46, 67.73 -18.35 C68.2 -13.24, 71.78 4.81, 63.9 9.39 C56.02 13.97, 31.21 10.55, 20.46 9.12 C9.7 7.69, 2.94 2.32, -0.63 0.79" stroke="#495057" stroke-width="1" fill="none"></path></g></g></svg>
