<svg version="1.1" xmlns="http://www.w3.org/2000/svg" viewBox="0 0 190.65233727487794 158.44046937127519" width="571.9570118246338" height="475.32140811382556">
  <!-- svg-source:excalidraw -->
  
  <defs>
    <style class="style-fonts">
      @font-face {
        font-family: "Virgil";
        src: url("https://excalidraw.com/Virgil.woff2");
      }
      @font-face {
        font-family: "Cascadia";
        src: url("https://excalidraw.com/Cascadia.woff2");
      }
    </style>
  </defs>
  <g stroke-linecap="round"><g transform="translate(30.306916777997685 136.76669245994822) rotate(0 22.400131672325188 -42.074997646653514)" fill-rule="evenodd"><path d="M-3.9 -72.29 C-3.9 -72.29, -3.9 -72.29, -3.9 -72.29 M-3.9 -72.29 C-3.9 -72.29, -3.9 -72.29, -3.9 -72.29 M-13.95 -53.44 C-7.4 -62.42, -5.74 -68.12, 7.93 -78.22 M-13.79 -55.93 C-6.55 -62.61, -1.39 -69.99, 7.87 -79.84 M-13.77 -46.02 C-6.39 -59.08, 2.95 -66.48, 16.02 -80.92 M-15.91 -46.84 C-6.15 -59.2, 4.1 -70.47, 14.94 -82.52 M-16.63 -39.75 C-4.52 -52.71, 4.82 -60.63, 19.63 -81.58 M-16.31 -39.83 C-5.54 -51.8, 7.17 -65.34, 20.6 -82.48 M-16.95 -33.49 C-2.16 -49.93, 9.58 -62.91, 25.53 -85.26 M-17.09 -33.46 C-6.14 -44.46, 4.1 -57.09, 27.14 -84 M-13.8 -29.59 C-1.62 -43.55, 9.17 -60.36, 32.04 -82.32 M-16.23 -27.62 C-4.54 -38.81, 5.48 -51.2, 31.95 -84.21 M-14.43 -24.41 C-2.38 -38.95, 7.36 -48.91, 37.54 -83.56 M-13.82 -24.3 C1.97 -40.65, 16.29 -57.41, 37.16 -82.42 M-14.33 -18.3 C4.96 -41.13, 25.15 -63.86, 41.63 -83.64 M-13.04 -19.65 C3.09 -38.23, 18.82 -55.28, 42.02 -81.7 M-10.11 -13.2 C-1.28 -25.82, 6.9 -33.42, 14.25 -42.91 M-11.76 -15.87 C-1.76 -25.62, 8.75 -37.54, 15.18 -44.95 M18.27 -45.78 C26.74 -54.64, 30.9 -63.26, 46.65 -81.82 M16.37 -48.51 C28.17 -61.83, 40.95 -73.83, 46.88 -81.44 M-7.51 -10.39 C-3.74 -16.14, 1.19 -23.55, 11.64 -35.8 M-7.94 -11.55 C-1.9 -20.72, 6.49 -28.63, 12.38 -35.89 M29.25 -55.05 C37.38 -62.75, 43.61 -72.72, 48.26 -81.33 M29.06 -55.66 C33.87 -62.75, 40.68 -67.03, 49.77 -78.78 M-5.82 -7.68 C0.3 -14.91, 4.49 -20.81, 11.12 -30.67 M-6.88 -8.56 C-3.67 -12.5, 2.59 -17.05, 12.57 -29.21 M34.15 -54.34 C40.27 -58.7, 45.58 -65.98, 54.8 -76.69 M33.62 -53.47 C38.81 -60.44, 45.32 -66.79, 53.3 -77.9 M-5.82 -6.61 C1.21 -12.89, 8.7 -15.92, 13.64 -28.61 M-4.44 -4.68 C-0.14 -10.7, 5.05 -14.52, 14.39 -27.22 M36.66 -53.34 C41.06 -57.99, 46.82 -62.76, 56.8 -73.36 M38.01 -53.5 C42.37 -58.25, 47.05 -64.13, 56.49 -74.6 M-0.02 -1.36 C3.06 -5.07, 6.04 -11.71, 15.71 -23.42 M-2.04 -1.09 C5.14 -9.44, 10.23 -15.15, 17.14 -22.68 M42.84 -51.35 C49.03 -59.27, 55.08 -68.11, 58.95 -72.25 M41.77 -50.61 C44.58 -55.76, 48.78 -60.04, 60.76 -72.86 M2.51 0.89 C6 -4.26, 13.15 -13.56, 22.59 -23.09 M0.62 1.36 C6.53 -4.77, 11.92 -9.89, 20.22 -22.27 M44.24 -46.6 C48.56 -51.81, 54.9 -57.48, 63.51 -72.43 M43.15 -48.37 C50.08 -54.96, 55.63 -61.69, 63.31 -71.52 M0 0 C0 0, 0 0, 0 0 M0 0 C0 0, 0 0, 0 0 M1.57 -4.1 C-2.24 -5.66, -4.6 -10.96, -6.98 -11.83 M2.35 -3.25 C0.35 -6, -2.54 -7.61, -7.76 -11.31 M6.02 -5.51 C3.17 -9.92, -1.46 -14.71, -12.15 -23.01 M5.41 -5.47 C-2.13 -11.53, -8.52 -18.04, -13.29 -23.13 M7.25 -9.42 C3.04 -12.86, -5.05 -20.09, -16.06 -31.23 M8.2 -8.18 C1.47 -13.68, -4.76 -19.18, -15.88 -29.4 M11.45 -11.71 C1.74 -21.48, -8.82 -28.19, -17.25 -36 M11.77 -11.27 C4.58 -17.8, -4.67 -25.57, -19.08 -37.1 M16.51 -12.75 C5.71 -23.46, -6.85 -31.78, -15.57 -39.5 M15.02 -13.19 C2.67 -23.08, -7.94 -33.17, -18.03 -41.43 M17.35 -14.61 C3.72 -28.31, -9.31 -39.27, -14.27 -44.29 M17.67 -15.88 C7.9 -23.67, -0.47 -31.65, -16.82 -45.51 M19.76 -20.17 C12.42 -28.27, 5.05 -34.11, -16.08 -48.75 M21.23 -20.08 C7.84 -29.91, -5.9 -43.04, -15.39 -49.91 M10.99 -31.63 C3.71 -38.75, -3.3 -45.12, -15.09 -56.21 M12.82 -32.01 C4.05 -37.87, -3.58 -45.94, -14.21 -53.99 M10.33 -38.14 C7.25 -43.72, 0.46 -48.58, -12.87 -56.79 M10.93 -39.21 C4.89 -43.18, -0.8 -48.77, -13.22 -58 M10.96 -41.77 C8.01 -47.54, -0.67 -52.07, -9.85 -60.71 M12.46 -42.66 C2.63 -50.18, -5.36 -57.74, -10.01 -62.47 M10.72 -46.91 C5.93 -55.85, -4.89 -62.99, -7.73 -66.02 M12.65 -48.43 C5.3 -53.73, -3.24 -60.65, -9.04 -66.22 M15.47 -51.64 C9 -55.06, 3.81 -60.94, -6.52 -69.94 M15.67 -51.17 C7.39 -57.65, -0.18 -63.78, -5.56 -69.82 M20.44 -50.77 C10.5 -58.19, 0.28 -65.95, -3.77 -73.32 M19.13 -51.37 C12.05 -57.89, 5.89 -62.56, -3.53 -72.27 M25.13 -55.08 C14.61 -59.92, 7.98 -65.65, -0.37 -76.55 M22.17 -54.81 C14.86 -60.33, 7.11 -67.68, -0.33 -75.1 M27.44 -55.25 C18.62 -62.26, 11.11 -70.52, 3.31 -77.44 M26.77 -56.62 C22.45 -59.95, 15.58 -66.58, 2.33 -78.43 M29.25 -57.67 C21.65 -65.72, 11.93 -71.67, 5.02 -79.06 M30.56 -57.34 C25.02 -63.4, 18.44 -68.52, 5.16 -78.99 M48.2 -48.59 C40.04 -56.34, 28.75 -64.07, 11.53 -81 M47.72 -49.19 C32.43 -60.73, 18.5 -73.65, 9.44 -81.57 M52.15 -49.79 C43.04 -58.63, 35.3 -63.75, 15.49 -83.84 M50.69 -52 C40.08 -60.31, 31.31 -68.24, 15.01 -83.71 M51.65 -55.02 C43.38 -62.02, 33.01 -72.23, 18.33 -84.45 M53.79 -53.8 C39.27 -65.41, 26.77 -76.58, 18.38 -85.13 M55.88 -56.44 C48.56 -66.26, 35.52 -74.49, 23.85 -83.79 M56.36 -57.41 C50.2 -62.87, 41.86 -69.03, 25.51 -83.75 M59.92 -60.58 C50.57 -70.13, 41.27 -77.95, 30.1 -84.8 M59.23 -60.68 C48.62 -69.64, 36.76 -78.94, 30.87 -85.79 M61.14 -62.37 C55.09 -69.44, 47.67 -76.31, 31.78 -87.58 M62.25 -62.62 C55.17 -68.23, 50.28 -73.83, 33.04 -87.1 M63.99 -65.57 C55.25 -73.18, 47.33 -80.41, 42.4 -86.83 M64.34 -66.08 C56.79 -71.41, 49.43 -78.4, 42.03 -86.77" stroke="#fbbc05" stroke-width="0.5" fill="none"></path><path d="M1.08 -0.89 C-0.42 -2.5, -7.14 -5.41, -9.73 -8.92 C-12.31 -12.43, -12.72 -17.38, -14.43 -21.93 C-16.14 -26.48, -19.81 -30.62, -19.99 -36.24 C-20.17 -41.86, -18.19 -49.77, -15.52 -55.67 C-12.84 -61.57, -8.66 -67.04, -3.96 -71.61 C0.73 -76.19, 6.89 -81.04, 12.65 -83.14 C18.42 -85.25, 24.89 -84.67, 30.61 -84.25 C36.33 -83.83, 42.37 -82.16, 46.98 -80.62 C51.59 -79.07, 55.25 -77.15, 58.25 -75.01 C61.26 -72.87, 65.31 -70.6, 65.02 -67.78 C64.73 -64.97, 59.64 -61.76, 56.51 -58.15 C53.39 -54.53, 48.69 -47.5, 46.28 -46.12 C43.87 -44.74, 43.58 -48.58, 42.04 -49.88 C40.5 -51.17, 38.84 -53.02, 37.04 -53.88 C35.23 -54.74, 33.14 -54.56, 31.21 -55.02 C29.29 -55.49, 28.26 -57.6, 25.48 -56.66 C22.7 -55.72, 17.03 -51.71, 14.54 -49.38 C12.04 -47.05, 11.39 -44.91, 10.51 -42.68 C9.63 -40.45, 9.25 -38.16, 9.27 -35.99 C9.28 -33.82, 9.53 -31.22, 10.59 -29.65 C11.65 -28.08, 13.69 -28.43, 15.64 -26.6 C17.59 -24.77, 25.1 -22.94, 22.3 -18.67 C19.5 -14.4, 2.75 -4.04, -1.16 -0.99 M0.19 1.26 C-0.87 -0.78, -5 -7.11, -7.48 -10.84 C-9.96 -14.57, -12.55 -16.98, -14.69 -21.11 C-16.82 -25.23, -20.45 -29.95, -20.3 -35.58 C-20.16 -41.2, -16.76 -48.78, -13.83 -54.87 C-10.91 -60.96, -7.17 -67.17, -2.75 -72.11 C1.67 -77.06, 7.34 -82.56, 12.69 -84.55 C18.05 -86.53, 23.92 -84.55, 29.38 -84.02 C34.84 -83.5, 40.54 -82.82, 45.44 -81.4 C50.35 -79.98, 55.54 -77.87, 58.8 -75.51 C62.07 -73.14, 65.64 -70.55, 65.04 -67.22 C64.44 -63.89, 58.2 -58.92, 55.18 -55.52 C52.16 -52.12, 49.29 -47.74, 46.92 -46.84 C44.56 -45.94, 42.58 -48.89, 41.01 -50.13 C39.44 -51.38, 38.97 -53.17, 37.51 -54.3 C36.05 -55.43, 34.51 -56.64, 32.27 -56.93 C30.02 -57.22, 27.22 -57.43, 24.05 -56.05 C20.88 -54.67, 15.17 -50.99, 13.25 -48.63 C11.33 -46.28, 13.16 -43.81, 12.52 -41.92 C11.88 -40.02, 9.41 -39.19, 9.42 -37.27 C9.44 -35.34, 11.46 -32.45, 12.6 -30.34 C13.74 -28.24, 14.58 -26.53, 16.25 -24.64 C17.92 -22.76, 25.35 -23.33, 22.62 -19.01 C19.89 -14.7, 3.66 -1.85, -0.14 1.26" stroke="transparent" stroke-width="1" fill="none"></path></g></g><g stroke-linecap="round"><g transform="translate(32.0876227562494 59.777736601885636) rotate(0 52.88583974094854 -24.697662682785108)" fill-rule="evenodd"><path d="M13.3 -25.54 C13.3 -25.54, 13.3 -25.54, 13.3 -25.54 M13.3 -25.54 C13.3 -25.54, 13.3 -25.54, 13.3 -25.54 M7.81 -16.76 C16.4 -21.44, 22.71 -30.78, 27.07 -35.11 M8.79 -15.14 C13.86 -20.29, 17.41 -24.14, 25.66 -33.66 M1.84 1.32 C16.04 -14.03, 30.07 -29.77, 41.45 -45.67 M0.81 0.52 C14.8 -15.37, 28.62 -31.62, 39.92 -43.75 M9.77 -0.03 C17.9 -13.16, 30.43 -26.86, 45.32 -45.22 M8.73 -0.86 C18.87 -13.91, 29.53 -25.47, 46.11 -45.68 M15.84 -3.65 C24.94 -18.05, 35.3 -26.82, 53 -46.65 M17.19 -5.13 C26 -16.65, 35.23 -27.13, 52.37 -45.03 M21.27 -7.66 C30.13 -13.75, 36.97 -26.43, 56.99 -46.67 M23.84 -6.42 C34.31 -20.97, 46.77 -35.05, 57.64 -45.84 M26.33 -4.04 C38.38 -17.75, 47.66 -30.19, 61.08 -45.67 M28.46 -5.89 C37.56 -16.65, 47.93 -28.69, 62 -46.71 M32.27 -6.2 C46.3 -22.05, 58.03 -32.5, 69.59 -46.58 M34.14 -5.51 C42.94 -16.35, 51.47 -27.37, 69.05 -45.85 M45.11 -10.92 C55.37 -23.8, 69.24 -40.86, 74.55 -48.59 M44.3 -12.13 C51.17 -19.83, 56.88 -28.26, 74.32 -46.91 M50.43 -13.59 C62.58 -28.04, 74.75 -41.61, 78.98 -47.65 M52.57 -14.95 C58.33 -21.44, 62.53 -28.23, 79.7 -45.76 M60.34 -18.98 C67.97 -28.13, 77.99 -38.83, 83.97 -42.7 M59 -16.48 C67.82 -26.74, 74.87 -35.41, 83.73 -44.86 M63.38 -16.8 C70.53 -28.45, 79.56 -35.62, 88.6 -45 M65.2 -16.27 C72.24 -25.47, 80.84 -35.2, 86.72 -42.79 M69.08 -16.33 C73.98 -24.41, 80.32 -31.04, 91.24 -41 M69.98 -15.76 C73.86 -20.74, 77.71 -26.21, 91.22 -41.27 M75.26 -15.07 C80.61 -21.96, 85.53 -31.44, 93.97 -39.49 M73.9 -15.04 C81.27 -25.18, 89.83 -34.72, 93.6 -40.56 M80.42 -13.83 C81.58 -21.72, 85.82 -23.28, 99.87 -38.43 M78.86 -14.24 C84.53 -22.9, 90.75 -29.36, 98.58 -38.44 M82.45 -12.62 C87.86 -18.07, 92.46 -26.99, 100.85 -34.88 M81.97 -13.48 C87.1 -18.89, 91.93 -26.09, 100.24 -34.34 M85.69 -12.76 C90.45 -18.62, 98.12 -26.05, 103.55 -33.1 M85.77 -11.31 C92.49 -18.41, 99.51 -26.06, 105.04 -31.61 M0 0 C0 0, 0 0, 0 0 M0 0 C0 0, 0 0, 0 0 M4.11 -1.79 C3.74 -2.49, 2.68 -2.91, 2.15 -3.86 M4.24 -1.6 C3.28 -2.46, 2.54 -2.89, 2 -3.65 M8.91 -2.9 C6.3 -5.7, 4.55 -6.42, 2.45 -8.51 M7.92 -3.08 C6.8 -4.91, 5.45 -5.53, 2.92 -8.23 M12.6 -4.71 C10 -6.55, 9.51 -7.23, 4.87 -11.66 M12.53 -4.96 C9.39 -7.88, 7.63 -10.01, 4.51 -12.09 M17.76 -7.55 C15.16 -8.56, 12.21 -10.91, 7.15 -16.64 M17.71 -5.98 C13.56 -8.61, 10.63 -10.93, 6.37 -16 M22.55 -9.49 C18.81 -11.69, 14.92 -13.2, 7.54 -20.03 M21.4 -7.92 C18.06 -11.69, 13.71 -14.47, 8.73 -19.62 M26.76 -8.35 C23.09 -12.96, 18.75 -12.76, 10.97 -22.91 M27.33 -7.33 C22.2 -12.23, 17.58 -17.44, 10.59 -22.33 M32.88 -7.53 C29.26 -11.65, 22.81 -17.74, 14.21 -26.21 M33.7 -8.22 C27.31 -12.48, 23.25 -17.46, 14.02 -24.78 M35.69 -10.84 C31.59 -14.49, 23.88 -23.18, 16.16 -27.3 M37.85 -9.16 C29.15 -16.26, 23.46 -22.11, 16.74 -28.42 M40.57 -12.07 C34.48 -17.95, 23.88 -24.92, 19.51 -31.78 M40.84 -11.91 C33.12 -18.08, 26.29 -24.9, 19.61 -31.54 M45.24 -15.14 C36.86 -18.79, 34.3 -25.21, 22 -32.93 M44.15 -15.43 C38.36 -18.75, 34.23 -23.5, 21.3 -34.98 M46.74 -17.28 C40.02 -24.41, 35.03 -26.85, 25.22 -36.24 M47.81 -17.32 C41.99 -20.99, 36.19 -25.82, 24.31 -36.72 M51.17 -20.24 C44.24 -23.05, 36.13 -33.11, 29.06 -38.57 M51.43 -19.17 C46.4 -22.16, 41.63 -27.77, 28.54 -39.32 M54.96 -19.51 C48.64 -25.57, 41.61 -35.43, 34.51 -39.44 M56.52 -19.97 C49.82 -26.44, 42.86 -31.45, 33.35 -41.33 M58.38 -24.2 C52.46 -29.6, 44.72 -36.3, 35.85 -42.14 M59.28 -22.2 C53.87 -27.15, 48.72 -31.57, 36.86 -42.63 M67.5 -21.64 C59.42 -28.41, 53.6 -32.6, 40.97 -43.72 M65.74 -22.61 C60.52 -28.61, 53.94 -33.9, 39.56 -44.57 M75.52 -16.45 C64.19 -29.82, 51.62 -39.71, 45.81 -46.11 M76.23 -17.46 C64.02 -29.67, 50.88 -41.63, 43.82 -45.34 M86.36 -13.16 C78.93 -23.69, 69.53 -29.35, 50.41 -49.35 M88.22 -13.33 C79.57 -21.23, 70.21 -28.05, 49.24 -47.31 M90.06 -17.95 C79.53 -27.22, 64.71 -39.17, 53.82 -50.78 M90.86 -17.1 C82.35 -24.22, 74.47 -30.21, 52.66 -50.45 M91.75 -18.26 C81.5 -28.61, 69.47 -38.86, 59.27 -50.36 M93.16 -19.65 C79.46 -30.34, 65.84 -43.15, 58.55 -49.86 M94.43 -22.94 C88.09 -30.29, 78.32 -37.39, 63.47 -49.71 M95.93 -22.29 C88.03 -29.13, 79.78 -36.29, 65.51 -48.93 M100.09 -23.58 C88.88 -35.89, 74.98 -43.21, 69.76 -49.4 M98.13 -26.24 C92.31 -32.83, 83.63 -40.09, 70.59 -50.89 M103.12 -27.06 C94.05 -34.23, 88.53 -40.2, 74.24 -48.85 M101.45 -27.34 C91.54 -37.47, 81.63 -44.75, 76.64 -50.86 M103.14 -32.07 C98.25 -35, 91.56 -41.1, 88.72 -45.6 M104.32 -30.79 C101.04 -33.88, 95.79 -38.03, 88.36 -45.29" stroke="#ea4335" stroke-width="0.5" fill="none"></path><path d="M-0.88 0.38 C2.08 -0.81, 15.08 -6.47, 18.86 -8.02 C22.64 -9.57, 20.57 -9.01, 21.79 -8.94 C23.02 -8.87, 24.67 -7.96, 26.22 -7.58 C27.76 -7.21, 29.7 -6.66, 31.07 -6.69 C32.44 -6.71, 32.65 -6.88, 34.45 -7.73 C36.25 -8.57, 39.29 -10.42, 41.87 -11.75 C44.46 -13.08, 47.5 -14.44, 49.96 -15.72 C52.42 -17.01, 54.38 -18.7, 56.63 -19.45 C58.88 -20.2, 60.26 -20.39, 63.47 -20.22 C66.67 -20.06, 72.57 -19.56, 75.89 -18.46 C79.2 -17.36, 81.69 -14.61, 83.36 -13.61 C85.04 -12.6, 83.69 -11.06, 85.93 -12.42 C88.18 -13.78, 94.2 -19.45, 96.83 -21.79 C99.47 -24.13, 100.37 -24.47, 101.72 -26.47 C103.07 -28.47, 107.5 -30.91, 104.93 -33.78 C102.36 -36.65, 91.57 -41.48, 86.31 -43.68 C81.05 -45.88, 77.51 -46.4, 73.36 -46.99 C69.21 -47.58, 65.43 -47.31, 61.41 -47.2 C57.39 -47.09, 52.88 -46.72, 49.23 -46.31 C45.59 -45.9, 42.89 -46.15, 39.54 -44.72 C36.2 -43.29, 32.63 -39.69, 29.15 -37.73 C25.66 -35.77, 22.57 -36.3, 18.64 -32.99 C14.71 -29.67, 8.49 -23.16, 5.56 -17.82 C2.62 -12.47, 1.86 -3.78, 1.04 -0.9 M0.86 -0.46 C3.66 -1.45, 14.55 -5.71, 18.42 -6.98 C22.3 -8.24, 22.88 -7.6, 24.13 -8.06 C25.39 -8.52, 24.47 -9.51, 25.96 -9.73 C27.45 -9.96, 31.52 -9.56, 33.07 -9.41 C34.62 -9.26, 33.71 -8.31, 35.25 -8.83 C36.79 -9.35, 40.01 -11.42, 42.31 -12.53 C44.61 -13.63, 46.39 -14.07, 49.07 -15.46 C51.75 -16.85, 55.93 -19.94, 58.4 -20.88 C60.88 -21.82, 60.96 -21.57, 63.94 -21.1 C66.92 -20.63, 73.21 -19.28, 76.28 -18.08 C79.36 -16.89, 80.78 -14.72, 82.37 -13.92 C83.96 -13.13, 83.52 -11.99, 85.83 -13.31 C88.15 -14.63, 93.56 -19.65, 96.27 -21.85 C98.98 -24.05, 100.48 -24.73, 102.07 -26.53 C103.66 -28.33, 108.63 -29.39, 105.79 -32.67 C102.96 -35.95, 90.1 -43.36, 85.05 -46.21 C79.99 -49.06, 79.09 -49.74, 75.47 -49.78 C71.86 -49.82, 67.74 -46.8, 63.35 -46.44 C58.97 -46.08, 53.25 -48.24, 49.16 -47.6 C45.06 -46.96, 42.01 -44.11, 38.78 -42.6 C35.55 -41.09, 33.24 -40.54, 29.78 -38.56 C26.31 -36.58, 21.88 -33.99, 18.01 -30.71 C14.14 -27.44, 9.64 -23.86, 6.57 -18.92 C3.5 -13.98, 0.93 -4.07, -0.41 -1.08" stroke="transparent" stroke-width="1" fill="none"></path></g></g><g stroke-linecap="round"><g transform="translate(118.4325974696003 47.97039292039517) rotate(0 18.81460358570348 39.57232245851924)" fill-rule="evenodd"><path d="M0 0 C0 0, 0 0, 0 0 M0 0 C0 0, 0 0, 0 0 M2.81 3.83 C7.86 -3.97, 15.46 -11.85, 22.54 -17.11 M2.6 3.76 C8.98 -3.13, 15.14 -9.14, 20.4 -17.93 M4.07 6.13 C8.65 0.77, 12.66 -3.38, 24.27 -16.11 M5.62 6.12 C13.03 -2.01, 20.13 -11.59, 24.59 -16.19 M9.66 8.79 C11.93 4.66, 16.64 -1.59, 27.24 -13.64 M8.53 8.55 C13.97 0.94, 22.19 -5.98, 27.09 -13.6 M10.31 12.65 C16.19 4.27, 23.78 -2.99, 31.69 -11.24 M9.47 12.36 C17.58 4.4, 22.4 -2.39, 29.26 -9.27 M13.04 13.61 C19.65 5.75, 26.78 -0.03, 31.72 -6.82 M14.12 15.57 C18.7 8.84, 23.9 1.46, 32.33 -6.7 M14.43 20.25 C22.89 12.69, 28.84 0.87, 33.14 -2.22 M14.28 20.34 C17.33 15.66, 23.1 11.55, 34.43 -3.57 M-23.48 69.69 C-23.48 69.69, -23.48 69.69, -23.48 69.69 M-23.48 69.69 C-23.48 69.69, -23.48 69.69, -23.48 69.69 M12.99 27.59 C20.02 17.59, 25.51 9.92, 38.18 2 M15.53 25.99 C22.82 17.15, 30.66 6.17, 36.28 -0.73 M-21.44 74.06 C-20.84 72.33, -20.32 72.14, -17.43 69.69 M-22.01 73.85 C-20.6 72.55, -19.42 70.98, -17.56 69.34 M16.16 34.15 C17.78 27.63, 22.57 22.46, 38.01 5.56 M14.44 31.36 C20.63 23.3, 29.22 16, 37.81 4.95 M-19.71 78.2 C-17.75 76.56, -16.33 73.83, -11.32 68.82 M-20.61 78.26 C-17.59 74.51, -14.11 71.35, -12 68.25 M19.84 34.32 C24.4 28, 27.94 24.39, 40.94 8.53 M18.24 34.66 C26.82 23.96, 34.24 14.08, 40.41 9.41 M-18.67 82.57 C-16.89 79.69, -14.05 74.57, -8.79 67.67 M-19.02 83.02 C-16.75 78.7, -11.52 75.89, -7.48 69.5 M24.27 34.33 C26.87 27.84, 33.94 23.9, 40.82 12.55 M22.68 35.27 C27.99 29.17, 31.6 23.95, 42.17 12.4 M-16.93 85.49 C-11.48 79.92, -9.69 74.64, 0.21 69.06 M-16.92 85.46 C-11.88 81.03, -7.58 74.76, -1.81 69.33 M27.82 36.99 C34.28 31.29, 39.72 23.68, 47 14.55 M25.9 36.38 C32.91 28.9, 39.49 22.4, 45.93 15.28 M-22.98 99.88 C-14.52 91.19, -6.25 81.86, 4.71 69.05 M-23.11 100.26 C-17.48 91.66, -10.61 85.75, 2.82 69.52 M29.72 39.16 C33.37 31.77, 42.67 27.36, 48.4 19.3 M29.08 40.53 C33.33 33.64, 40.8 25.62, 47.31 17.53 M-15.29 98.53 C-11.46 90.24, -0.51 81.46, 7.77 67.23 M-16.77 98.3 C-8.72 89.4, 0.75 78.94, 9.09 69.33 M31.35 42.25 C33.63 40.53, 38.82 32.13, 48.78 19.62 M29.8 44.09 C34.66 38.76, 38.81 34.77, 49.98 20.93 M-11.03 96.87 C-0.73 85.66, 9.8 77.07, 14.73 68.31 M-12.48 99.36 C-1.68 87.6, 9.37 74.8, 14.12 68.35 M32.97 47.97 C35.93 41.62, 41.31 37.78, 51.38 23.65 M32.71 47.04 C38.65 39.44, 47.15 32.09, 52.33 24.89 M-5.98 98.27 C-0.34 92.62, 4.83 83.37, 19.14 67.85 M-6.31 99.45 C1.79 90.15, 8.58 82.17, 19.46 68.29 M33.05 51.15 C41.88 43.21, 49.38 34.92, 57 29.08 M32.91 53.7 C41.9 45.32, 48.12 36.12, 55.52 28.63 M0.2 96.67 C12.75 83.83, 28.57 66.04, 57.49 32.2 M-0.9 99.43 C15.55 80.5, 31.19 63.16, 57.8 30.93 M5.07 96.46 C16.72 83.55, 27.34 72.08, 58.32 34.55 M4.72 97.57 C23.13 78.76, 39.52 58.27, 59.79 34.63 M9.73 96.69 C28.5 75.98, 45.4 54.13, 58.54 40.18 M10.15 97.12 C20.68 85.42, 33.32 72.72, 60.37 39.8 M14.34 97.19 C27.74 82.47, 39.33 69.03, 60.83 45.51 M14.51 98.03 C33.34 78.47, 48.21 60.06, 61.44 44.45 M19.71 96.55 C32.63 85.24, 40.3 74.37, 60.09 52.62 M21.37 98.21 C37.41 80.96, 51.61 62.99, 61.59 51.73 M27.16 98.83 C34.9 88.95, 45.6 79.05, 58.57 59.62 M25.85 97.94 C40.02 83.12, 53.19 67.34, 60.5 58.1 M36.34 92.85 C43.59 83.07, 52.35 75.23, 59.12 65.81 M35.59 93.07 C42.07 85.36, 49.98 77.71, 59.32 66.28 M-23.36 98.51 C-23.36 98.51, -23.36 98.51, -23.36 98.51 M-23.36 98.51 C-23.36 98.51, -23.36 98.51, -23.36 98.51 M-16.56 98.83 C-18.14 97.78, -19.61 96.66, -20.89 94.53 M-16.84 98.87 C-18.16 98.02, -18.74 97.24, -21.78 94.61 M-10.72 99.05 C-13.73 96.42, -15.31 94.47, -18.79 92.08 M-11.73 98.61 C-13.22 96.37, -15.37 95.37, -19.12 91.4 M-7.14 97.88 C-12.84 94.04, -15.89 89.03, -20.53 86.6 M-5.2 97.65 C-9.02 94.06, -12.84 91.93, -19.36 86.9 M0.03 97.04 C-3.75 91.36, -12.04 88.26, -17.58 81.95 M0.42 99.06 C-5.49 93.2, -11.33 86.23, -18.06 81.35 M6.43 96.94 C-0.11 90.85, -6.81 88.86, -18.15 76.82 M7.25 98.58 C-2.94 89.65, -10.66 82.13, -19.61 74.6 M10.23 99.43 C4.03 91.13, -4.14 85.46, -23.94 66.98 M12.33 97.16 C0 88.19, -11.35 76.55, -21.8 68.21 M18.39 95.99 C8.71 90.59, 5.2 86.14, -16.69 68.19 M16.98 96.7 C4.82 84.26, -9.16 73.98, -16.2 67.23 M23.91 99.22 C12.47 86.26, -1.08 75.58, -9.62 66.67 M23.42 97.27 C11.33 87.11, -2.07 74.81, -10.32 66.58 M29.13 96.96 C14.33 83.59, 4.28 75.9, -4.64 68.16 M27.32 95.09 C18.14 85.54, 7.01 77.92, -3.53 67.91 M30.7 94.33 C27.23 88.59, 17.15 81.42, 1.24 67.59 M31.88 94.36 C24.59 87.38, 18.67 81.01, 1.58 67.09 M35.11 92.63 C25.91 83.88, 19.75 79.35, 9.01 67.77 M36.66 91.98 C25.94 83.47, 17.7 76.03, 7.61 66.67 M40.67 88.71 C35.49 86.24, 26.03 76.79, 15.31 67.56 M40.62 90.72 C33.06 84.26, 26 77.06, 13.11 65.92 M44.25 89.22 C36.58 83.53, 32.31 78.69, 18.78 66.7 M44.13 87.3 C36.77 81.54, 30.95 76.98, 20.14 67.43 M46.07 83.87 C40.56 80.72, 31.38 71.86, 23.94 63.9 M46.9 85.47 C39.21 79.59, 34.2 74.71, 23.36 65.04 M50.16 81.78 C41.9 78.85, 38.95 72.64, 26.33 63.59 M49.69 82.13 C41.42 74.57, 33.08 68, 26.34 62.37 M51.1 79.42 C41.76 71.45, 33.96 62.63, 30.38 60.78 M52.17 79.12 C45.39 73.97, 39.35 69.48, 28.59 59.52 M54.11 75.51 C47.99 70.38, 45.86 66.18, 30.55 55.77 M54.23 75.95 C46 68.56, 36.1 60.07, 31.93 55.6 M53.9 71.78 C49.59 67.18, 44.06 63.64, 30.89 53.08 M56.04 72.3 C45.7 62.96, 36.33 55.25, 31.24 51.44 M56.34 69.09 C47.34 60.34, 40.03 53.93, 29.99 43.44 M56.83 68.01 C49.25 59.9, 38.77 51.91, 30.55 45.41 M15.18 31.31 C15.18 31.31, 15.18 31.31, 15.18 31.31 M15.18 31.31 C15.18 31.31, 15.18 31.31, 15.18 31.31 M57.4 65.66 C43.27 49.02, 26.75 34.8, 15.5 24.01 M60.06 64.31 C43.12 50.99, 27.5 37.22, 14.3 26.62 M59.15 60.43 C44.29 45.63, 26.89 29.84, 11.45 18.29 M60.86 59.79 C42.58 45.38, 25.56 29.14, 13.06 18.16 M63.36 56.19 C45.84 41.53, 31.99 32.89, 12.9 11.6 M61.27 54.96 C48.39 44.63, 33.88 31.7, 12.51 11.95 M60.67 51.99 C46.28 38.31, 27.86 21.67, -0.18 -0.02 M60.91 50.16 C44.52 35.89, 27.39 21.77, 1.05 -2.47 M60.13 42.83 C45.83 32.58, 32.78 19.87, 5.87 -5.3 M60.85 43.52 C44.93 31.24, 28.66 18.23, 4.57 -4.15 M58.33 38.29 C43.78 25.26, 32.4 12.47, 8.65 -8.7 M57.98 37.5 C46.96 27.97, 34.46 16.51, 7.85 -7.83 M58.21 28.82 C40.17 15.71, 25.42 1.38, 10.09 -9.54 M56.99 30.93 C47.11 21.12, 36.41 14.01, 10.1 -9.32 M41.39 9.31 C29.95 0.29, 19.42 -7.14, 12.75 -14.5 M39.89 10.39 C32.55 3.69, 24.53 -3.86, 12.55 -12.09 M36.9 3.11 C32.68 0.72, 27.55 -3.85, 17.72 -16.69 M37.93 2.11 C31.45 -1.41, 26.31 -6.89, 15.42 -14.64 M34.53 -4.05 C30.18 -7.58, 26.46 -9.5, 17.71 -16.96 M36.11 -4.39 C31.17 -8.57, 24.89 -12.42, 18.28 -17.89" stroke="#4285f4" stroke-width="0.5" fill="none"></path><path d="M0.97 -0.94 C2.92 -3.08, 8.13 -9.85, 10.78 -12.45 C13.43 -15.04, 14.89 -15.73, 16.89 -16.51 C18.89 -17.29, 20.01 -19.51, 22.79 -17.13 C25.57 -14.75, 30.69 -7.18, 33.57 -2.22 C36.45 2.74, 37.27 8.59, 40.08 12.61 C42.89 16.62, 47.86 19.07, 50.44 21.85 C53.03 24.62, 54 25.28, 55.59 29.23 C57.18 33.18, 59.12 41.42, 59.97 45.56 C60.81 49.7, 60.83 50.53, 60.65 54.06 C60.47 57.59, 60.5 62.49, 58.88 66.73 C57.26 70.97, 54.07 75.4, 50.92 79.48 C47.78 83.57, 43.57 88.4, 40.02 91.25 C36.46 94.09, 32.96 95.48, 29.59 96.56 C26.22 97.65, 27.82 97.29, 19.77 97.76 C11.73 98.22, -11.58 99.15, -18.69 99.36 C-25.79 99.56, -22.61 99.99, -22.87 98.99 C-23.13 97.98, -20.6 95.66, -20.25 93.33 C-19.9 91, -20.6 88.03, -20.78 85.03 C-20.95 82.02, -21.03 77.67, -21.31 75.32 C-21.59 72.97, -22.59 72.16, -22.44 70.93 C-22.3 69.69, -27.23 68.43, -20.44 67.9 C-13.64 67.37, 9.72 69.57, 18.33 67.75 C26.94 65.93, 29.01 60.87, 31.24 56.97 C33.46 53.07, 32.95 47.98, 31.67 44.35 C30.39 40.72, 26.49 37.1, 23.54 35.17 C20.59 33.24, 15.79 34.67, 13.98 32.78 C12.17 30.88, 13.26 27.01, 12.69 23.8 C12.11 20.59, 12.77 17.31, 10.51 13.54 C8.25 9.76, 0.94 3.3, -0.88 1.14 M0.02 1.18 C2.4 -0.86, 9.72 -8.08, 12.93 -11.35 C16.14 -14.62, 17.63 -17.15, 19.28 -18.45 C20.93 -19.75, 20.2 -21.9, 22.84 -19.14 C25.49 -16.38, 32.08 -7.1, 35.15 -1.89 C38.23 3.33, 38.61 8.31, 41.29 12.14 C43.97 15.97, 49.05 18.32, 51.22 21.1 C53.4 23.89, 52.61 24.46, 54.35 28.85 C56.09 33.23, 60.47 42.78, 61.66 47.41 C62.85 52.05, 61.83 53.26, 61.49 56.66 C61.15 60.06, 61.06 64.1, 59.62 67.82 C58.17 71.54, 56.05 75.2, 52.84 78.99 C49.64 82.78, 44.37 87.58, 40.39 90.56 C36.4 93.54, 32.31 95.79, 28.91 96.87 C25.5 97.96, 27.69 96.99, 19.93 97.06 C12.17 97.14, -10.88 97.41, -17.66 97.33 C-24.43 97.25, -20.64 97.71, -20.73 96.58 C-20.82 95.45, -18.49 92.34, -18.21 90.54 C-17.93 88.74, -18.68 88.06, -19.07 85.77 C-19.45 83.49, -19.81 79.44, -20.5 76.85 C-21.19 74.27, -23.14 71.46, -23.19 70.27 C-23.23 69.07, -27.57 70.29, -20.76 69.69 C-13.95 69.09, 9.27 68.4, 17.69 66.66 C26.11 64.93, 27.7 62.98, 29.76 59.27 C31.81 55.55, 30.88 48.44, 30.02 44.35 C29.15 40.26, 26.97 36.68, 24.55 34.72 C22.14 32.76, 17.33 34.63, 15.52 32.58 C13.71 30.53, 14.56 25.38, 13.7 22.43 C12.84 19.49, 12.58 18.57, 10.36 14.9 C8.13 11.22, 2.22 3.03, 0.33 0.39" stroke="transparent" stroke-width="1" fill="none"></path></g></g><g stroke-linecap="round"><g transform="translate(31.062657096228577 136.7464624317463) rotate(0 33.942947141715194 -5.519592055019757)" fill-rule="evenodd"><path d="M0 0 C0 0, 0 0, 0 0 M0 0 C0 0, 0 0, 0 0 M2.71 2.13 C11.56 -7.37, 18.6 -15.04, 22.7 -22.23 M4.56 2.64 C11.58 -7.7, 18.89 -16.02, 22.69 -19.88 M8.63 2.42 C12.98 -6.49, 22.73 -12.47, 27.81 -20.29 M7.64 3.95 C13.5 -3.99, 21.72 -12.66, 27.52 -19.34 M11.11 3.64 C17.15 -0.27, 22.44 -5.74, 33.14 -17.34 M10.37 5.32 C19.53 -4.52, 27.79 -14.26, 32.33 -19.99 M16.46 5.78 C23.34 0.74, 28.32 -8.64, 37.94 -19.06 M13.88 8.46 C20.18 2.31, 25.12 -4.78, 37.79 -18.68 M20.02 7.35 C24.05 3.31, 29.4 -6.76, 42.04 -18.22 M19.53 9.37 C27.63 -0.62, 35.4 -10.43, 43.06 -19.3 M24.08 9.83 C28.91 -0.27, 37.71 -6.1, 46.41 -20.78 M24.03 10.56 C31.34 1.3, 36.91 -7.01, 47.55 -19.02 M28.37 8.71 C35.26 2.14, 46.08 -10.39, 53.69 -21.03 M29.09 10 C33.96 4.1, 38.96 -1.62, 54.56 -19.66 M31.35 10.69 C37.37 4.37, 44.36 -3.78, 58.78 -17.44 M33.92 10.03 C42.73 1.08, 51.88 -10.03, 59.09 -19.67 M39.99 9.49 C49.08 0.4, 56.42 -8.97, 65.94 -20.59 M38.19 11.06 C46.9 1.6, 54.29 -6.66, 64.19 -20.3 M45.05 12.77 C47.11 6.15, 54.95 -2.8, 68.84 -17.95 M42.5 10.26 C50.61 4.05, 57.57 -4.34, 66.1 -16.54 M48.89 12.25 C56.17 1.84, 62.17 -5.26, 69.56 -12.62 M47.38 11.47 C54.85 4.35, 63.01 -5.43, 68.52 -12.07 M53.42 13.81 C58.59 5.01, 63.63 -3.97, 67.92 -5.65 M52.43 11.21 C60.23 5.84, 64.7 -0.81, 69.05 -5.73 M59.83 11.67 C61.22 8.93, 63.18 4.51, 69.39 -1.9 M57.33 12.5 C62.93 8.66, 66.24 4.16, 70.33 -1.62 M0 0 C0 0, 0 0, 0 0 M0 0 C0 0, 0 0, 0 0 M14.58 5.99 C13.8 6.31, 8.82 1.61, 1.63 -1.78 M14.43 7.15 C10.37 4.27, 5.1 -0.84, 2.08 -2.6 M21.52 9.46 C17.34 4.9, 11.43 1.07, 4.93 -6.09 M22.38 9.4 C17.68 4.82, 12.88 1.42, 5.24 -6.06 M29.45 10.51 C23.91 5.24, 19.14 2.24, 9.29 -9.49 M29.48 8.65 C22.89 5.63, 18.16 0.78, 9.42 -8.22 M36.16 9.65 C25.4 1.34, 15.31 -5.42, 9.39 -10.12 M35.21 9.11 C27.99 3.28, 21.14 -2.46, 11.36 -10.57 M40.64 11.5 C34.22 2.89, 28.74 -4.38, 13.69 -14.26 M42.07 9.92 C31.96 1.33, 19.92 -9.32, 14.01 -13.05 M48.37 11.84 C37.99 1.35, 24.13 -12.33, 17.79 -15.82 M48.09 10.37 C40.5 4.91, 34.33 -2.93, 17.1 -16.01 M55.23 11.76 C45.41 2.4, 33.8 -7.01, 20.78 -18.38 M53.88 9.82 C44.37 1.75, 32.81 -8.53, 20.79 -20.33 M57.09 9.83 C51.44 -0.58, 42.96 -6.28, 22.92 -22.9 M59.45 7.66 C45.98 -2.9, 31.12 -14.46, 22.47 -21.44 M65.25 6.73 C53.74 -4.06, 42.68 -12.46, 33.24 -18.44 M62.79 7.82 C56.21 0.97, 49.04 -6.22, 31.54 -20.09 M68.46 6.89 C57.32 -3.3, 48.3 -12.69, 36.82 -18.38 M67.15 6.17 C58.7 -1.3, 50.14 -9.13, 37.94 -20.91 M69.4 0.55 C63.01 -2.71, 58.43 -7.49, 43.59 -20.69 M70.61 2.4 C60.77 -6.06, 50.5 -13.89, 44.08 -20.74 M69.25 -5.47 C59.29 -11.31, 55.56 -14.55, 51.58 -20.22 M67.9 -3.38 C63.51 -7.9, 57.14 -13.03, 51.29 -19.17 M66.77 -10.86 C63.34 -13.51, 61.2 -15.71, 55.5 -19.04 M66.7 -10.17 C63.62 -13.38, 59.43 -16.55, 55.59 -20.56 M66.25 -17.11 C65.27 -17.86, 63.22 -18.7, 62.81 -20.06 M66.35 -16.43 C65.1 -17.82, 63.64 -18.75, 62.37 -20.14" stroke="#34a853" stroke-width="0.5" fill="none"></path><path d="M-1.06 -0.84 C1.88 -3.9, 14.18 -16.24, 18.6 -19.29 C23.03 -22.35, 23.5 -19.07, 25.49 -19.17 C27.48 -19.27, 27.72 -19.96, 30.52 -19.89 C33.32 -19.82, 38.14 -18.95, 42.28 -18.76 C46.42 -18.58, 52.3 -18.6, 55.36 -18.79 C58.42 -18.98, 58.98 -20.11, 60.65 -19.91 C62.33 -19.7, 64.59 -22.19, 65.4 -17.59 C66.2 -12.98, 72.57 3.21, 65.49 7.72 C58.42 12.23, 33.95 10.77, 22.93 9.47 C11.91 8.16, 3.15 1.41, -0.62 -0.13 M0.58 1.34 C3.8 -1.98, 16.82 -17.29, 20.81 -21.01 C24.8 -24.73, 22.97 -21.33, 24.53 -20.97 C26.09 -20.61, 26.87 -18.76, 30.16 -18.84 C33.45 -18.92, 39.81 -21.4, 44.26 -21.46 C48.72 -21.53, 54.1 -19.26, 56.91 -19.23 C59.71 -19.2, 59.27 -21.44, 61.08 -21.29 C62.88 -21.15, 67.26 -23.46, 67.73 -18.35 C68.2 -13.24, 71.78 4.81, 63.9 9.39 C56.02 13.97, 31.21 10.55, 20.46 9.12 C9.7 7.69, 2.94 2.32, -0.63 0.79" stroke="transparent" stroke-width="1" fill="none"></path></g></g></svg>
