<svg version="1.1" xmlns="http://www.w3.org/2000/svg" viewBox="0 0 160.74512904585026 134.44154533338155" width="482.2353871375508" height="403.32463600014466">
  <!-- svg-source:excalidraw -->
  
  <defs>
    <style class="style-fonts">
      @font-face {
        font-family: "Virgil";
        src: url("https://excalidraw.com/Virgil.woff2");
      }
      @font-face {
        font-family: "Cascadia";
        src: url("https://excalidraw.com/Cascadia.woff2");
      }
    </style>
  </defs>
  <g stroke-linecap="round"><g transform="translate(25.86355376909887 114.9760077779572) rotate(0 19.546717132372578 -35.76252652904407)" fill-rule="evenodd"><path d="M-2.98 -60.89 C-2.98 -60.89, -2.98 -60.89, -2.98 -60.89 M-2.98 -60.89 C-2.98 -60.89, -2.98 -60.89, -2.98 -60.89 M-10.46 -46.19 C-5.92 -51.41, -1.38 -56.63, 5.29 -64.3 M-10.46 -46.19 C-7.15 -50, -3.84 -53.8, 5.29 -64.3 M-13.34 -36.77 C-4.06 -47.45, 5.23 -58.13, 13.56 -67.72 M-13.34 -36.77 C-5.37 -45.95, 2.61 -55.12, 13.56 -67.72 M-14.92 -28.87 C-0.99 -44.88, 12.93 -60.9, 20.51 -69.62 M-14.92 -28.87 C-2.17 -43.52, 10.57 -58.18, 20.51 -69.62 M-14.52 -23.22 C0.24 -40.2, 15 -57.18, 26.81 -70.77 M-14.52 -23.22 C0.29 -40.26, 15.1 -57.3, 26.81 -70.77 M-13.47 -18.33 C-2.48 -30.98, 8.52 -43.63, 31.14 -69.65 M-13.47 -18.33 C1.66 -35.74, 16.79 -53.14, 31.14 -69.65 M-10.45 -15.71 C-4.48 -22.58, 1.5 -29.46, 12.51 -42.13 M-10.45 -15.71 C-5.16 -21.8, 0.13 -27.88, 12.51 -42.13 M12.51 -42.13 C19.26 -49.89, 26.01 -57.65, 35.47 -68.54 M12.51 -42.13 C17.94 -48.37, 23.37 -54.61, 35.47 -68.54 M-8.74 -11.58 C-3.43 -17.69, 1.89 -23.81, 12.91 -36.48 M-8.74 -11.58 C-3.76 -17.31, 1.23 -23.05, 12.91 -36.48 M22.09 -47.05 C27.79 -53.61, 33.49 -60.17, 39.8 -67.43 M22.09 -47.05 C28.26 -54.15, 34.44 -61.25, 39.8 -67.43 M-7.04 -7.44 C-0.7 -14.73, 5.63 -22.02, 11.33 -28.57 M-7.04 -7.44 C0.03 -15.57, 7.09 -23.7, 11.33 -28.57 M26.42 -45.93 C30.81 -50.98, 35.2 -56.04, 43.48 -65.56 M26.42 -45.93 C32.94 -53.44, 39.47 -60.94, 43.48 -65.56 M-4.02 -4.82 C-0.24 -9.17, 3.54 -13.51, 12.38 -23.69 M-4.02 -4.82 C-0.25 -9.16, 3.52 -13.5, 12.38 -23.69 M30.75 -44.82 C36.79 -51.76, 42.83 -58.71, 47.15 -63.69 M30.75 -44.82 C34.91 -49.61, 39.08 -54.39, 47.15 -63.69 M-1.66 -1.44 C1.87 -5.5, 5.4 -9.56, 14.75 -20.31 M-1.66 -1.44 C1.82 -5.44, 5.29 -9.43, 14.75 -20.31 M34.43 -42.95 C38.73 -47.89, 43.03 -52.84, 50.83 -61.82 M34.43 -42.95 C39.15 -48.38, 43.87 -53.82, 50.83 -61.82 M1.36 1.18 C5.67 -3.77, 9.98 -8.73, 18.42 -18.44 M1.36 1.18 C6.23 -4.41, 11.09 -10.01, 18.42 -18.44 M36.79 -39.57 C41.71 -45.23, 46.63 -50.89, 53.85 -59.19 M36.79 -39.57 C40.54 -43.88, 44.29 -48.2, 53.85 -59.19 M0 0 C0 0, 0 0, 0 0 M0 0 C0 0, 0 0, 0 0 M3.38 -2.36 C0.33 -5.01, -2.72 -7.66, -5.68 -10.24 M3.38 -2.36 C-0.18 -5.46, -3.75 -8.56, -5.68 -10.24 M6 -5.38 C-0.17 -10.75, -6.35 -16.12, -14.37 -23.1 M6 -5.38 C0.42 -10.23, -5.15 -15.08, -14.37 -23.1 M9.38 -7.74 C3.49 -12.87, -2.4 -17.99, -15.52 -29.39 M9.38 -7.74 C0.37 -15.58, -8.65 -23.42, -15.52 -29.39 M12.01 -10.76 C5.85 -16.11, -0.3 -21.46, -15.16 -34.38 M12.01 -10.76 C5.33 -16.57, -1.35 -22.38, -15.16 -34.38 M15.39 -13.13 C4.81 -22.32, -5.76 -31.5, -14.05 -38.71 M15.39 -13.13 C6.89 -20.51, -1.61 -27.9, -14.05 -38.71 M18.01 -16.14 C11.11 -22.15, 4.2 -28.15, -12.93 -43.04 M18.01 -16.14 C11.1 -22.15, 4.19 -28.16, -12.93 -43.04 M11.58 -27.04 C6.53 -31.43, 1.48 -35.81, -11.82 -47.37 M11.58 -27.04 C3.49 -34.07, -4.6 -41.1, -11.82 -47.37 M10.43 -33.34 C5.34 -37.76, 0.25 -42.18, -9.95 -51.05 M10.43 -33.34 C4.15 -38.8, -2.13 -44.25, -9.95 -51.05 M11.54 -37.67 C6.47 -42.08, 1.4 -46.48, -8.08 -54.72 M11.54 -37.67 C5.37 -43.03, -0.79 -48.39, -8.08 -54.72 M12.66 -42 C7.16 -46.78, 1.66 -51.55, -5.46 -57.74 M12.66 -42 C7.01 -46.91, 1.37 -51.81, -5.46 -57.74 M16.04 -44.36 C10.76 -48.95, 5.48 -53.54, -2.83 -60.76 M16.04 -44.36 C8.76 -50.69, 1.48 -57.02, -2.83 -60.76 M20.17 -46.07 C15.8 -49.86, 11.44 -53.66, 0.55 -63.12 M20.17 -46.07 C13.22 -52.11, 6.26 -58.16, 0.55 -63.12 M24.3 -47.77 C19.96 -51.55, 15.62 -55.32, 3.93 -65.49 M24.3 -47.77 C16.96 -54.16, 9.61 -60.55, 3.93 -65.49 M39 -40.3 C29.74 -48.34, 20.49 -56.39, 6.55 -68.51 M39 -40.3 C30.35 -47.81, 21.71 -55.33, 6.55 -68.51 M42.38 -42.66 C31.61 -52.03, 20.83 -61.39, 9.93 -70.87 M42.38 -42.66 C34.34 -49.65, 26.29 -56.65, 9.93 -70.87 M45.01 -45.68 C38.48 -51.35, 31.94 -57.03, 14.06 -72.58 M45.01 -45.68 C33.02 -56.09, 21.04 -66.51, 14.06 -72.58 M47.63 -48.7 C40.61 -54.8, 33.59 -60.9, 19.71 -72.97 M47.63 -48.7 C40.16 -55.19, 32.7 -61.68, 19.71 -72.97 M51.01 -51.06 C42.33 -58.61, 33.64 -66.16, 26.86 -72.05 M51.01 -51.06 C42.18 -58.73, 33.35 -66.41, 26.86 -72.05 M53.63 -54.08 C47.48 -59.43, 41.33 -64.77, 34.77 -70.48 M53.63 -54.08 C48.97 -58.13, 44.31 -62.19, 34.77 -70.48" stroke="#fbbc05" stroke-width="0.5" fill="none"></path><path d="M0 0 C-1.24 -1.3, -5.26 -4.86, -7.41 -7.79 C-9.56 -10.72, -11.5 -13.94, -12.9 -17.58 C-14.31 -21.22, -15.98 -24.7, -15.86 -29.65 C-15.74 -34.6, -14.33 -42.08, -12.19 -47.28 C-10.05 -52.48, -6.97 -57.14, -3.01 -60.85 C0.95 -64.56, 6.74 -67.78, 11.57 -69.55 C16.39 -71.32, 21.37 -71.66, 25.96 -71.48 C30.56 -71.31, 35.27 -69.94, 39.13 -68.48 C42.99 -67.03, 46.51 -64.83, 49.14 -62.76 C51.78 -60.7, 55.26 -58.61, 54.94 -56.1 C54.61 -53.6, 50.02 -50.62, 47.21 -47.73 C44.41 -44.85, 40.01 -39.81, 38.1 -38.8 C36.19 -37.79, 36.96 -40.58, 35.74 -41.67 C34.52 -42.76, 32.4 -44.47, 30.8 -45.34 C29.2 -46.21, 27.64 -46.57, 26.11 -46.89 C24.58 -47.2, 23.94 -48.06, 21.62 -47.24 C19.3 -46.42, 14.25 -43.76, 12.19 -41.98 C10.12 -40.2, 9.88 -38.39, 9.23 -36.56 C8.58 -34.72, 8.2 -32.78, 8.29 -30.95 C8.38 -29.13, 9.05 -27.16, 9.77 -25.62 C10.48 -24.08, 11.19 -23.24, 12.59 -21.72 C13.98 -20.19, 20.23 -20.09, 18.14 -16.47 C16.04 -12.86, 3.02 -2.75, 0 0 M0 0 C-1.24 -1.3, -5.26 -4.86, -7.41 -7.79 C-9.56 -10.72, -11.5 -13.94, -12.9 -17.58 C-14.31 -21.22, -15.98 -24.7, -15.86 -29.65 C-15.74 -34.6, -14.33 -42.08, -12.19 -47.28 C-10.05 -52.48, -6.97 -57.14, -3.01 -60.85 C0.95 -64.56, 6.74 -67.78, 11.57 -69.55 C16.39 -71.32, 21.37 -71.66, 25.96 -71.48 C30.56 -71.31, 35.27 -69.94, 39.13 -68.48 C42.99 -67.03, 46.51 -64.83, 49.14 -62.76 C51.78 -60.7, 55.26 -58.61, 54.94 -56.1 C54.61 -53.6, 50.02 -50.62, 47.21 -47.73 C44.41 -44.85, 40.01 -39.81, 38.1 -38.8 C36.19 -37.79, 36.96 -40.58, 35.74 -41.67 C34.52 -42.76, 32.4 -44.47, 30.8 -45.34 C29.2 -46.21, 27.64 -46.57, 26.11 -46.89 C24.58 -47.2, 23.94 -48.06, 21.62 -47.24 C19.3 -46.42, 14.25 -43.76, 12.19 -41.98 C10.12 -40.2, 9.88 -38.39, 9.23 -36.56 C8.58 -34.72, 8.2 -32.78, 8.29 -30.95 C8.38 -29.13, 9.05 -27.16, 9.77 -25.62 C10.48 -24.08, 11.19 -23.24, 12.59 -21.72 C13.98 -20.19, 20.23 -20.09, 18.14 -16.47 C16.04 -12.86, 3.02 -2.75, 0 0" stroke="transparent" stroke-width="1" fill="none"></path></g></g><g stroke-linecap="round"><g transform="translate(27.355119415540685 50.488055743250015) rotate(0 44.400469726199844 -20.244027871625008)" fill-rule="evenodd"><path d="M10.84 -21.05 C10.84 -21.05, 10.84 -21.05, 10.84 -21.05 M10.84 -21.05 C10.84 -21.05, 10.84 -21.05, 10.84 -21.05 M8.62 -12.39 C13.38 -17.86, 18.14 -23.34, 22.39 -28.24 M8.62 -12.39 C13.21 -17.67, 17.8 -22.95, 22.39 -28.24 M1.79 1.56 C9.5 -7.3, 17.2 -16.17, 33.94 -35.42 M1.79 1.56 C13.98 -12.46, 26.16 -26.48, 33.94 -35.42 M9.4 -1.1 C17.7 -10.64, 25.99 -20.18, 42.86 -39.59 M9.4 -1.1 C21.24 -14.71, 33.07 -28.32, 42.86 -39.59 M18.98 -6.02 C27.78 -16.14, 36.57 -26.25, 47.85 -39.23 M18.98 -6.02 C28.73 -17.24, 38.48 -28.45, 47.85 -39.23 M23.97 -5.66 C31.81 -14.68, 39.64 -23.69, 53.49 -39.62 M23.97 -5.66 C31.73 -14.59, 39.49 -23.51, 53.49 -39.62 M29.61 -6.06 C35.92 -13.31, 42.23 -20.57, 59.14 -40.02 M29.61 -6.06 C38.6 -16.4, 47.59 -26.74, 59.14 -40.02 M41.82 -14 C49.74 -23.11, 57.66 -32.23, 63.47 -38.9 M41.82 -14 C47.81 -20.89, 53.8 -27.78, 63.47 -38.9 M48.77 -15.9 C55.99 -24.21, 63.22 -32.52, 67.8 -37.79 M48.77 -15.9 C53.05 -20.83, 57.33 -25.75, 67.8 -37.79 M53.76 -15.54 C58.66 -21.18, 63.57 -26.82, 72.79 -37.43 M53.76 -15.54 C57.96 -20.37, 62.16 -25.2, 72.79 -37.43 M58.75 -15.18 C63.28 -20.4, 67.82 -25.62, 76.46 -35.56 M58.75 -15.18 C65.02 -22.4, 71.3 -29.62, 76.46 -35.56 M63.73 -14.82 C70.12 -22.17, 76.51 -29.52, 80.14 -33.69 M63.73 -14.82 C69.14 -21.04, 74.54 -27.25, 80.14 -33.69 M66.75 -12.2 C72.29 -18.57, 77.82 -24.93, 83.15 -31.07 M66.75 -12.2 C70.96 -17.04, 75.17 -21.88, 83.15 -31.07 M70.43 -10.33 C75.95 -16.68, 81.48 -23.04, 86.17 -28.44 M70.43 -10.33 C74.32 -14.8, 78.21 -19.28, 86.17 -28.44 M0 0 C0 0, 0 0, 0 0 M0 0 C0 0, 0 0, 0 0 M4.13 -1.71 C3.52 -2.24, 2.9 -2.78, 1.87 -3.67 M4.13 -1.71 C3.62 -2.15, 3.11 -2.6, 1.87 -3.67 M8.27 -3.41 C6.71 -4.76, 5.16 -6.12, 2.98 -8.01 M8.27 -3.41 C6.23 -5.18, 4.19 -6.95, 2.98 -8.01 M12.4 -5.12 C10.71 -6.59, 9.03 -8.05, 4.85 -11.68 M12.4 -5.12 C9.89 -7.3, 7.39 -9.48, 4.85 -11.68 M17.29 -6.17 C13.47 -9.49, 9.66 -12.81, 6.72 -15.36 M17.29 -6.17 C14.25 -8.81, 11.21 -11.45, 6.72 -15.36 M19.91 -9.19 C17.62 -11.18, 15.33 -13.17, 9.35 -18.37 M19.91 -9.19 C17.43 -11.35, 14.95 -13.5, 9.35 -18.37 M26.31 -8.93 C23.05 -11.76, 19.79 -14.59, 11.22 -22.05 M26.31 -8.93 C21.57 -13.05, 16.83 -17.17, 11.22 -22.05 M31.95 -9.32 C28.41 -12.4, 24.87 -15.48, 14.6 -24.41 M31.95 -9.32 C28.2 -12.59, 24.44 -15.85, 14.6 -24.41 M36.09 -11.03 C29.38 -16.86, 22.67 -22.7, 17.22 -27.43 M36.09 -11.03 C28.98 -17.21, 21.87 -23.38, 17.22 -27.43 M39.47 -13.39 C34.22 -17.95, 28.98 -22.51, 20.6 -29.79 M39.47 -13.39 C32.52 -19.43, 25.58 -25.46, 20.6 -29.79 M42.85 -15.76 C36.6 -21.19, 30.35 -26.62, 23.22 -32.81 M42.85 -15.76 C37.05 -20.8, 31.25 -25.84, 23.22 -32.81 M47.73 -16.81 C42 -21.79, 36.27 -26.77, 26.6 -35.18 M47.73 -16.81 C39.5 -23.97, 31.26 -31.13, 26.6 -35.18 M54.13 -16.54 C47.51 -22.3, 40.9 -28.05, 30.74 -36.88 M54.13 -16.54 C49.43 -20.63, 44.73 -24.72, 30.74 -36.88 M62.04 -14.97 C52.03 -23.67, 42.03 -32.37, 34.12 -39.24 M62.04 -14.97 C51.1 -24.48, 40.16 -33.99, 34.12 -39.24 M72.97 -10.77 C63.86 -18.68, 54.76 -26.6, 39 -40.3 M72.97 -10.77 C61.68 -20.58, 50.4 -30.39, 39 -40.3 M75.59 -13.79 C67.56 -20.77, 59.52 -27.76, 43.89 -41.35 M75.59 -13.79 C66.31 -21.86, 57.03 -29.93, 43.89 -41.35 M78.97 -16.15 C69.15 -24.69, 59.32 -33.23, 49.53 -41.74 M78.97 -16.15 C71.96 -22.25, 64.95 -28.34, 49.53 -41.74 M81.59 -19.17 C76.16 -23.9, 70.73 -28.62, 55.93 -41.48 M81.59 -19.17 C75.91 -24.11, 70.23 -29.05, 55.93 -41.48 M84.22 -22.19 C75.89 -29.43, 67.56 -36.67, 62.33 -41.22 M84.22 -22.19 C75.97 -29.37, 67.71 -36.54, 62.33 -41.22 M86.84 -25.21 C83.56 -28.07, 80.27 -30.92, 72.5 -37.68 M86.84 -25.21 C82.32 -29.14, 77.8 -33.07, 72.5 -37.68" stroke="#ea4335" stroke-width="0.5" fill="none"></path><path d="M0 0 C2.5 -0.99, 11.79 -4.8, 14.98 -5.93 C18.17 -7.06, 17.85 -6.61, 19.14 -6.78 C20.44 -6.96, 21.57 -7.06, 22.77 -7 C23.97 -6.95, 25.16 -6.57, 26.34 -6.47 C27.51 -6.36, 28.31 -5.67, 29.82 -6.38 C31.33 -7.1, 33.43 -9.46, 35.4 -10.76 C37.37 -12.05, 39.56 -13.22, 41.63 -14.13 C43.69 -15.04, 45.78 -15.87, 47.78 -16.23 C49.79 -16.58, 51.03 -16.55, 53.64 -16.27 C56.25 -15.98, 60.85 -15.27, 63.44 -14.49 C66.03 -13.71, 67.65 -12.27, 69.16 -11.57 C70.67 -10.87, 70.55 -9.15, 72.5 -10.3 C74.46 -11.45, 78.77 -16.35, 80.89 -18.47 C83 -20.58, 83.96 -21.37, 85.17 -22.97 C86.39 -24.57, 90.32 -25.71, 88.17 -28.08 C86.03 -30.45, 76.68 -35.19, 72.3 -37.2 C67.92 -39.22, 65.26 -39.64, 61.88 -40.16 C58.49 -40.69, 55.26 -40.44, 51.97 -40.34 C48.68 -40.25, 45.36 -40.15, 42.13 -39.58 C38.91 -39, 35.65 -38.09, 32.61 -36.9 C29.56 -35.71, 26.54 -34.12, 23.87 -32.44 C21.2 -30.76, 19.63 -29.78, 16.59 -26.8 C13.55 -23.82, 8.41 -19.04, 5.65 -14.58 C2.88 -10.11, 0.94 -2.43, 0 0 M0 0 C2.5 -0.99, 11.79 -4.8, 14.98 -5.93 C18.17 -7.06, 17.85 -6.61, 19.14 -6.78 C20.44 -6.96, 21.57 -7.06, 22.77 -7 C23.97 -6.95, 25.16 -6.57, 26.34 -6.47 C27.51 -6.36, 28.31 -5.67, 29.82 -6.38 C31.33 -7.1, 33.43 -9.46, 35.4 -10.76 C37.37 -12.05, 39.56 -13.22, 41.63 -14.13 C43.69 -15.04, 45.78 -15.87, 47.78 -16.23 C49.79 -16.58, 51.03 -16.55, 53.64 -16.27 C56.25 -15.98, 60.85 -15.27, 63.44 -14.49 C66.03 -13.71, 67.65 -12.27, 69.16 -11.57 C70.67 -10.87, 70.55 -9.15, 72.5 -10.3 C74.46 -11.45, 78.77 -16.35, 80.89 -18.47 C83 -20.58, 83.96 -21.37, 85.17 -22.97 C86.39 -24.57, 90.32 -25.71, 88.17 -28.08 C86.03 -30.45, 76.68 -35.19, 72.3 -37.2 C67.92 -39.22, 65.26 -39.64, 61.88 -40.16 C58.49 -40.69, 55.26 -40.44, 51.97 -40.34 C48.68 -40.25, 45.36 -40.15, 42.13 -39.58 C38.91 -39, 35.65 -38.09, 32.61 -36.9 C29.56 -35.71, 26.54 -34.12, 23.87 -32.44 C21.2 -30.76, 19.63 -29.78, 16.59 -26.8 C13.55 -23.82, 8.41 -19.04, 5.65 -14.58 C2.88 -10.11, 0.94 -2.43, 0 0" stroke="transparent" stroke-width="1" fill="none"></path></g></g><g stroke-linecap="round"><g transform="translate(99.67991620870998 40.59791754741536) rotate(0 15.61477226133411 33.260685445684544)" fill-rule="evenodd"><path d="M0 0 C0 0, 0 0, 0 0 M0 0 C0 0, 0 0, 0 0 M2.36 3.38 C6.4 -1.26, 10.44 -5.91, 18.11 -14.73 M2.36 3.38 C8.53 -3.71, 14.69 -10.81, 18.11 -14.73 M4.73 6.76 C9.85 0.86, 14.97 -5.03, 21.78 -12.86 M4.73 6.76 C9.35 1.43, 13.98 -3.89, 21.78 -12.86 M7.74 9.38 C13.93 2.26, 20.12 -4.85, 24.15 -9.49 M7.74 9.38 C12.86 3.5, 17.97 -2.38, 24.15 -9.49 M10.11 12.76 C16.64 5.25, 23.17 -2.26, 26.51 -6.11 M10.11 12.76 C13.56 8.79, 17.02 4.81, 26.51 -6.11 M11.81 16.89 C17.07 10.85, 22.32 4.81, 28.87 -2.73 M11.81 16.89 C15.29 12.9, 18.76 8.91, 28.87 -2.73 M-19.28 58.76 C-19.28 58.76, -19.28 58.76, -19.28 58.76 M-19.28 58.76 C-19.28 58.76, -19.28 58.76, -19.28 58.76 M12.21 22.54 C19.48 14.18, 26.74 5.82, 31.23 0.65 M12.21 22.54 C17.29 16.69, 22.37 10.85, 31.23 0.65 M-17.58 62.9 C-16.15 61.26, -14.73 59.62, -13.64 58.37 M-17.58 62.9 C-16.62 61.8, -15.66 60.69, -13.64 58.37 M12.6 28.18 C18.16 21.79, 23.71 15.41, 32.94 4.78 M12.6 28.18 C18.95 20.87, 25.31 13.57, 32.94 4.78 M-16.52 67.79 C-14.76 65.75, -12.99 63.72, -8.65 58.73 M-16.52 67.79 C-14.11 65.01, -11.7 62.24, -8.65 58.73 M16.93 29.3 C23.68 21.53, 30.43 13.77, 33.99 9.67 M16.93 29.3 C23.04 22.27, 29.15 15.24, 33.99 9.67 M-14.82 71.92 C-10.78 67.27, -6.74 62.63, -3.01 58.33 M-14.82 71.92 C-11.33 67.91, -7.84 63.9, -3.01 58.33 M20.61 31.17 C25.61 25.42, 30.6 19.67, 37.01 12.3 M20.61 31.17 C24.43 26.77, 28.26 22.37, 37.01 12.3 M-19.02 82.85 C-12.43 75.26, -5.84 67.68, 1.98 58.69 M-19.02 82.85 C-11.27 73.94, -3.53 65.03, 1.98 58.69 M23.63 33.79 C28.49 28.2, 33.35 22.61, 40.03 14.92 M23.63 33.79 C29.78 26.71, 35.93 19.63, 40.03 14.92 M-14.03 83.21 C-5.78 73.71, 2.48 64.22, 7.62 58.3 M-14.03 83.21 C-5.49 73.39, 3.04 63.57, 7.62 58.3 M25.99 37.17 C29.38 33.27, 32.77 29.37, 42.39 18.3 M25.99 37.17 C29.79 32.8, 33.58 28.44, 42.39 18.3 M-8.39 82.81 C-3.94 77.7, 0.5 72.59, 11.3 60.17 M-8.39 82.81 C-1.53 74.92, 5.33 67.03, 11.3 60.17 M29.01 39.79 C32.36 35.94, 35.71 32.08, 44.75 21.68 M29.01 39.79 C33.08 35.11, 37.15 30.43, 44.75 21.68 M-2.74 82.42 C5.75 72.65, 14.24 62.87, 20.22 56 M-2.74 82.42 C4.56 74.02, 11.86 65.62, 20.22 56 M26.12 49.21 C31 43.59, 35.89 37.98, 47.12 25.06 M26.12 49.21 C32.89 41.43, 39.65 33.65, 47.12 25.06 M2.24 82.78 C19.78 62.6, 37.31 42.43, 48.82 29.19 M2.24 82.78 C16.12 66.81, 30.01 50.84, 48.82 29.19 M7.89 82.38 C21.69 66.5, 35.5 50.62, 50.53 33.33 M7.89 82.38 C20.59 67.76, 33.3 53.15, 50.53 33.33 M11.56 84.25 C21.53 72.79, 31.5 61.32, 51.58 38.21 M11.56 84.25 C27.33 66.12, 43.09 47.98, 51.58 38.21 M17.21 83.86 C27.14 72.43, 37.07 61.01, 51.98 43.86 M17.21 83.86 C26.62 73.03, 36.03 62.2, 51.98 43.86 M23.5 82.71 C29.74 75.53, 35.98 68.36, 50.4 51.76 M23.5 82.71 C29.42 75.9, 35.34 69.09, 50.4 51.76 M33.74 77.03 C38.13 71.98, 42.52 66.93, 50.8 57.41 M33.74 77.03 C39.44 70.47, 45.14 63.91, 50.8 57.41 M-19.09 82.93 C-19.09 82.93, -19.09 82.93, -19.09 82.93 M-19.09 82.93 C-19.09 82.93, -19.09 82.93, -19.09 82.93 M-13.45 82.53 C-14.65 81.49, -15.86 80.44, -17.22 79.25 M-13.45 82.53 C-14.93 81.25, -16.41 79.96, -17.22 79.25 M-7.05 82.8 C-9.6 80.57, -12.16 78.35, -15.35 75.58 M-7.05 82.8 C-9.27 80.87, -11.49 78.94, -15.35 75.58 M-1.4 82.4 C-5.6 78.75, -9.79 75.11, -15.74 69.94 M-1.4 82.4 C-6.53 77.95, -11.66 73.49, -15.74 69.94 M4.99 82.66 C-1.64 76.9, -8.27 71.13, -17.65 62.98 M4.99 82.66 C-0.99 77.46, -6.97 72.26, -17.65 62.98 M9.88 81.61 C0.19 73.19, -9.49 64.77, -18.8 56.68 M9.88 81.61 C-0.22 72.83, -10.32 64.05, -18.8 56.68 M15.52 81.22 C5.17 72.21, -5.19 63.21, -12.4 56.94 M15.52 81.22 C5.96 72.9, -3.61 64.58, -12.4 56.94 M21.17 80.82 C11.19 72.15, 1.21 63.47, -6.76 56.55 M21.17 80.82 C12.57 73.35, 3.98 65.88, -6.76 56.55 M24.55 78.46 C14.84 70.03, 5.14 61.59, -0.36 56.81 M24.55 78.46 C17.97 72.75, 11.4 67.03, -0.36 56.81 M28.68 76.75 C19.46 68.74, 10.25 60.73, 5.28 56.42 M28.68 76.75 C20.13 69.32, 11.58 61.89, 5.28 56.42 M33.57 75.7 C28.21 71.04, 22.85 66.38, 10.93 56.02 M33.57 75.7 C26.81 69.82, 20.04 63.94, 10.93 56.02 M36.95 73.34 C32.42 69.41, 27.9 65.47, 17.33 56.28 M36.95 73.34 C31.54 68.64, 26.14 63.94, 17.33 56.28 M39.57 70.32 C35.21 66.53, 30.85 62.74, 21.46 54.58 M39.57 70.32 C35.46 66.75, 31.35 63.17, 21.46 54.58 M42.2 67.3 C35.11 61.14, 28.02 54.98, 24.08 51.56 M42.2 67.3 C34.99 61.04, 27.79 54.78, 24.08 51.56 M44.82 64.28 C37.82 58.19, 30.81 52.1, 25.95 47.88 M44.82 64.28 C38.44 58.74, 32.06 53.19, 25.95 47.88 M46.69 60.61 C40 54.8, 33.32 48.98, 27.07 43.55 M46.69 60.61 C40.79 55.48, 34.88 50.35, 27.07 43.55 M48.56 56.93 C43.18 52.25, 37.79 47.58, 25.92 37.25 M48.56 56.93 C43.32 52.38, 38.09 47.83, 25.92 37.25 M12.33 25.44 C12.33 25.44, 12.33 25.44, 12.33 25.44 M12.33 25.44 C12.33 25.44, 12.33 25.44, 12.33 25.44 M50.43 53.26 C39.24 43.53, 28.05 33.81, 11.94 19.8 M50.43 53.26 C42.19 46.1, 33.95 38.94, 11.94 19.8 M51.54 48.93 C37.17 36.43, 22.79 23.94, 12.3 14.81 M51.54 48.93 C36.87 36.17, 22.19 23.41, 12.3 14.81 M52.66 44.6 C41.14 34.58, 29.62 24.57, 0.58 -0.67 M52.66 44.6 C36.82 30.82, 20.97 17.05, 0.58 -0.67 M53.77 40.27 C39.89 28.2, 26 16.13, 3.21 -3.69 M53.77 40.27 C37.14 25.81, 20.51 11.35, 3.21 -3.69 M49.61 31.34 C34.08 17.85, 18.55 4.35, 6.59 -6.05 M49.61 31.34 C39.76 22.79, 29.92 14.23, 6.59 -6.05 M47.7 24.39 C38.63 16.5, 29.56 8.61, 9.21 -9.07 M47.7 24.39 C38.65 16.52, 29.6 8.65, 9.21 -9.07 M35.23 8.25 C28.63 2.51, 22.03 -3.23, 11.84 -12.09 M35.23 8.25 C29.99 3.69, 24.76 -0.86, 11.84 -12.09 M29.55 -1.99 C26.44 -4.7, 23.32 -7.41, 15.21 -14.45 M29.55 -1.99 C25.13 -5.84, 20.7 -9.68, 15.21 -14.45" stroke="#4285f4" stroke-width="0.5" fill="none"></path><path d="M0 0 C1.65 -1.62, 7.42 -7.31, 9.92 -9.72 C12.41 -12.14, 13.37 -13.57, 14.95 -14.48 C16.53 -15.4, 17.04 -17.34, 19.4 -15.22 C21.75 -13.1, 26.67 -5.91, 29.08 -1.77 C31.5 2.38, 31.74 6.46, 33.9 9.65 C36.06 12.83, 39.86 14.86, 42.03 17.34 C44.2 19.82, 45.47 20.97, 46.91 24.55 C48.36 28.13, 50.08 35.22, 50.71 38.84 C51.33 42.45, 51.02 43.44, 50.68 46.25 C50.33 49.07, 49.9 52.32, 48.65 55.72 C47.4 59.13, 45.74 63.27, 43.18 66.68 C40.62 70.1, 36.36 73.98, 33.29 76.22 C30.22 78.45, 27.5 79.1, 24.75 80.08 C22.01 81.07, 23.57 81.68, 16.84 82.1 C10.11 82.52, -9.71 82.61, -15.64 82.61 C-21.57 82.62, -18.6 82.98, -18.74 82.11 C-18.87 81.24, -16.81 79.31, -16.44 77.37 C-16.07 75.42, -16.19 72.72, -16.51 70.43 C-16.83 68.15, -17.89 65.63, -18.36 63.66 C-18.84 61.68, -19.71 59.57, -19.34 58.57 C-18.97 57.58, -22.09 57.95, -16.15 57.71 C-10.2 57.46, 9.44 58.64, 16.35 57.1 C23.25 55.56, 23.69 51.72, 25.29 48.47 C26.89 45.22, 26.86 40.7, 25.97 37.61 C25.08 34.52, 22.35 31.71, 19.95 29.95 C17.55 28.19, 13.02 28.8, 11.57 27.06 C10.12 25.33, 11.64 22.09, 11.24 19.53 C10.85 16.96, 11.1 14.92, 9.23 11.67 C7.35 8.41, 1.54 1.94, 0 0 M0 0 C1.65 -1.62, 7.42 -7.31, 9.92 -9.72 C12.41 -12.14, 13.37 -13.57, 14.95 -14.48 C16.53 -15.4, 17.04 -17.34, 19.4 -15.22 C21.75 -13.1, 26.67 -5.91, 29.08 -1.77 C31.5 2.38, 31.74 6.46, 33.9 9.65 C36.06 12.83, 39.86 14.86, 42.03 17.34 C44.2 19.82, 45.47 20.97, 46.91 24.55 C48.36 28.13, 50.08 35.22, 50.71 38.84 C51.33 42.45, 51.02 43.44, 50.68 46.25 C50.33 49.07, 49.9 52.32, 48.65 55.72 C47.4 59.13, 45.74 63.27, 43.18 66.68 C40.62 70.1, 36.36 73.98, 33.29 76.22 C30.22 78.45, 27.5 79.1, 24.75 80.08 C22.01 81.07, 23.57 81.68, 16.84 82.1 C10.11 82.52, -9.71 82.61, -15.64 82.61 C-21.57 82.62, -18.6 82.98, -18.74 82.11 C-18.87 81.24, -16.81 79.31, -16.44 77.37 C-16.07 75.42, -16.19 72.72, -16.51 70.43 C-16.83 68.15, -17.89 65.63, -18.36 63.66 C-18.84 61.68, -19.71 59.57, -19.34 58.57 C-18.97 57.58, -22.09 57.95, -16.15 57.71 C-10.2 57.46, 9.44 58.64, 16.35 57.1 C23.25 55.56, 23.69 51.72, 25.29 48.47 C26.89 45.22, 26.86 40.7, 25.97 37.61 C25.08 34.52, 22.35 31.71, 19.95 29.95 C17.55 28.19, 13.02 28.8, 11.57 27.06 C10.12 25.33, 11.64 22.09, 11.24 19.53 C10.85 16.96, 11.1 14.92, 9.23 11.67 C7.35 8.41, 1.54 1.94, 0 0" stroke="transparent" stroke-width="1" fill="none"></path></g></g><g stroke-linecap="round"><g transform="translate(26.49658151768199 114.95906258011928) rotate(0 28.87296692460859 -4.310700783657353)" fill-rule="evenodd"><path d="M0 0 C0 0, 0 0, 0 0 M0 0 C0 0, 0 0, 0 0 M3.67 1.87 C7.01 -1.97, 10.35 -5.81, 20.08 -17 M3.67 1.87 C10.11 -5.54, 16.55 -12.95, 20.08 -17 M7.35 3.74 C12.59 -2.28, 17.82 -8.31, 23.75 -15.13 M7.35 3.74 C13.9 -3.79, 20.45 -11.33, 23.75 -15.13 M11.02 5.61 C16.87 -1.12, 22.71 -7.84, 28.74 -14.77 M11.02 5.61 C16.61 -0.81, 22.19 -7.24, 28.74 -14.77 M15.36 6.72 C20.7 0.57, 26.05 -5.58, 33.73 -14.41 M15.36 6.72 C21.1 0.12, 26.84 -6.49, 33.73 -14.41 M19.03 8.59 C26.24 0.3, 33.45 -7.99, 39.37 -14.8 M19.03 8.59 C23.9 3, 28.76 -2.6, 39.37 -14.8 M24.02 8.95 C29.59 2.54, 35.17 -3.88, 44.36 -14.44 M24.02 8.95 C28.33 3.99, 32.65 -0.98, 44.36 -14.44 M29 9.31 C35.58 1.75, 42.16 -5.82, 50 -14.84 M29 9.31 C33.45 4.2, 37.9 -0.91, 50 -14.84 M33.99 9.67 C41.57 0.96, 49.15 -7.76, 55.64 -15.23 M33.99 9.67 C39.94 2.82, 45.9 -4.02, 55.64 -15.23 M38.98 10.03 C46.28 1.64, 53.58 -6.76, 58 -11.85 M38.98 10.03 C44.49 3.7, 49.99 -2.64, 58 -11.85 M43.97 10.39 C47.6 6.21, 51.24 2.03, 59.05 -6.96 M43.97 10.39 C49.81 3.67, 55.65 -3.05, 59.05 -6.96 M48.95 10.75 C51.92 7.34, 54.89 3.92, 59.45 -1.32 M48.95 10.75 C52.5 6.67, 56.06 2.58, 59.45 -1.32 M0 0 C0 0, 0 0, 0 0 M0 0 C0 0, 0 0, 0 0 M8.66 2.23 C7.03 0.81, 5.41 -0.6, 2.62 -3.02 M8.66 2.23 C7.25 1, 5.84 -0.22, 2.62 -3.02 M19.59 6.43 C14.41 1.93, 9.24 -2.57, 5.25 -6.04 M19.59 6.43 C15.97 3.28, 12.35 0.14, 5.25 -6.04 M26.74 7.34 C20.54 1.95, 14.34 -3.44, 8.63 -8.4 M26.74 7.34 C22.03 3.25, 17.31 -0.85, 8.63 -8.4 M33.14 7.61 C27.94 3.09, 22.74 -1.43, 11.25 -11.42 M33.14 7.61 C26.04 1.43, 18.94 -4.74, 11.25 -11.42 M39.54 7.87 C33.35 2.49, 27.17 -2.88, 13.88 -14.44 M39.54 7.87 C31.53 0.91, 23.52 -6.06, 13.88 -14.44 M45.18 7.47 C38.9 2.02, 32.63 -3.44, 17.25 -16.8 M45.18 7.47 C37.22 0.56, 29.27 -6.36, 17.25 -16.8 M50.07 6.42 C43.22 0.47, 36.37 -5.48, 22.14 -17.85 M50.07 6.42 C41.89 -0.68, 33.72 -7.79, 22.14 -17.85 M55.71 6.03 C48.78 0, 41.85 -6.02, 27.79 -18.25 M55.71 6.03 C45.46 -2.88, 35.22 -11.79, 27.79 -18.25 M57.58 2.35 C48.78 -5.29, 39.99 -12.94, 34.18 -17.98 M57.58 2.35 C50.21 -4.05, 42.85 -10.45, 34.18 -17.98 M57.94 -2.63 C52.98 -6.94, 48.03 -11.25, 39.83 -18.38 M57.94 -2.63 C52.27 -7.56, 46.6 -12.49, 39.83 -18.38 M59.81 -6.31 C54.45 -10.97, 49.08 -15.63, 46.22 -18.12 M59.81 -6.31 C55.72 -9.86, 51.63 -13.42, 46.22 -18.12" stroke="#34a853" stroke-width="0.5" fill="none"></path><path d="M0 0 C2.73 -2.8, 12.78 -13.99, 16.39 -16.81 C20 -19.63, 19.97 -16.96, 21.66 -16.92 C23.35 -16.88, 24.18 -16.62, 26.53 -16.57 C28.88 -16.52, 32.47 -16.61, 35.74 -16.63 C39.01 -16.65, 43.58 -16.7, 46.15 -16.7 C48.72 -16.7, 49.63 -17.05, 51.15 -16.61 C52.67 -16.17, 54.66 -18.06, 55.25 -14.05 C55.85 -10.05, 60.85 3.8, 54.74 7.44 C48.62 11.07, 27.67 9, 18.55 7.76 C9.42 6.52, 3.09 1.29, 0 0 M0 0 C2.73 -2.8, 12.78 -13.99, 16.39 -16.81 C20 -19.63, 19.97 -16.96, 21.66 -16.92 C23.35 -16.88, 24.18 -16.62, 26.53 -16.57 C28.88 -16.52, 32.47 -16.61, 35.74 -16.63 C39.01 -16.65, 43.58 -16.7, 46.15 -16.7 C48.72 -16.7, 49.63 -17.05, 51.15 -16.61 C52.67 -16.17, 54.66 -18.06, 55.25 -14.05 C55.85 -10.05, 60.85 3.8, 54.74 7.44 C48.62 11.07, 27.67 9, 18.55 7.76 C9.42 6.52, 3.09 1.29, 0 0" stroke="transparent" stroke-width="1" fill="none"></path></g></g></svg>
