<svg version="1.1" xmlns="http://www.w3.org/2000/svg" viewBox="0 0 224.69546107838323 255.5446943170482" width="224.69546107838323" height="255.5446943170482">
  <!-- svg-source:excalidraw -->
  
  <defs>
    <style class="style-fonts">
      @font-face {
        font-family: "Virgil";
        src: url("https://excalidraw.com/Virgil.woff2");
      }
      @font-face {
        font-family: "Cascadia";
        src: url("https://excalidraw.com/Cascadia.woff2");
      }
    </style>
  </defs>
  <g stroke-linecap="round"><g transform="translate(192.5715582305961 172.77224783997644) rotate(0 -80.2238276914045 -44.999900681452345)" fill-rule="evenodd"><path d="M-181.49 -103.45 C-181.49 -103.45, -181.49 -103.45, -181.49 -103.45 M-181.49 -103.45 C-181.49 -103.45, -181.49 -103.45, -181.49 -103.45 M-181.04 -92.78 C-176.49 -98.12, -170.26 -105.7, -158.75 -115.18 M-181.73 -91.72 C-175.96 -97.19, -171.05 -102.71, -159.06 -116.29 M-179.9 -80.76 C-173.94 -88.26, -161.75 -98.82, -138.49 -129.58 M-181.25 -79.6 C-171.32 -90.14, -161.76 -101.46, -138.86 -127.53 M-179.31 -65.58 C-161.31 -92.05, -136.13 -115.31, -118.27 -140.04 M-180.64 -67.78 C-161.15 -91.44, -140.74 -114.4, -115.92 -140.36 M-182.62 -54.4 C-174.47 -64.55, -163.82 -72.83, -152.81 -85.22 M-181.4 -54.7 C-172.85 -65.24, -163.23 -74.37, -153.66 -87.25 M-152.78 -87.66 C-139.95 -104.75, -124.19 -122.13, -96.4 -153.83 M-153.26 -87.33 C-135.73 -107.93, -117.28 -127.2, -94.75 -153.48 M-182.04 -40.79 C-171.89 -55.13, -162.22 -66.66, -155.55 -73.7 M-181.7 -41.72 C-173.97 -51.05, -167.44 -57.72, -154.48 -73.98 M-130.65 -101.12 C-116.14 -117.61, -103.08 -135.79, -79 -159.74 M-131.42 -99.52 C-114.71 -119.14, -98.68 -137.19, -80.65 -159.93 M-78.48 -160.98 C-78.48 -160.98, -78.48 -160.98, -78.48 -160.98 M-78.48 -160.98 C-78.48 -160.98, -78.48 -160.98, -78.48 -160.98 M-180.64 -29.33 C-174.46 -37.44, -165.16 -49.87, -152.32 -61.98 M-180.84 -30.72 C-171.28 -42.55, -162.31 -52.3, -152.99 -62.45 M-110.78 -110.15 C-103.44 -120.22, -94.03 -131.7, -80.61 -147.94 M-111.24 -111.92 C-100.71 -121.9, -93.36 -132.66, -78.89 -147.89 M-77.65 -149.22 C-76.9 -152.05, -72.84 -155.22, -72.61 -156.45 M-78.18 -148.49 C-77.13 -150.26, -75.14 -151.98, -72.25 -156.15 M-181.67 -16.92 C-171.58 -27.79, -163.07 -36.27, -154.04 -51.16 M-180.91 -18.48 C-173.11 -26.76, -166.12 -34.1, -153.68 -50.14 M-82.48 -132.28 C-81.36 -132.7, -80.66 -133.92, -79.28 -135.1 M-82.28 -132.23 C-81.06 -133.48, -80.27 -134.88, -79.53 -135.37 M-77.41 -136.43 C-74.23 -143.07, -69.08 -145.1, -65.75 -150.99 M-78.63 -136.12 C-75.51 -140.66, -71.62 -143, -64.45 -152.43 M-182.46 -7.84 C-174.04 -16.44, -163.06 -25.42, -155.56 -38.28 M-180.49 -5.48 C-171.09 -15.83, -162.69 -26.38, -154.68 -37.4 M-120.73 -75.8 C-120.73 -75.8, -120.73 -75.8, -120.73 -75.8 M-120.73 -75.8 C-120.73 -75.8, -120.73 -75.8, -120.73 -75.8 M-83.44 -120.92 C-80.3 -122.96, -78.12 -124, -73.67 -131.26 M-83 -120.23 C-80.45 -122.5, -79.1 -124.2, -73.19 -130.48 M-71.29 -131.97 C-65.41 -139.2, -60.28 -142.05, -55.78 -147.84 M-71.95 -131.69 C-68.1 -136.86, -64.52 -141.07, -57.52 -149.86 M-181.28 4.8 C-172.36 -6.97, -160.07 -19.41, -154.19 -22.64 M-181.94 5.37 C-171.81 -4.21, -162.47 -14.78, -155.2 -23.92 M-115.91 -72.76 C-110.06 -76.48, -103.74 -81.08, -100.04 -88.48 M-113.51 -71.35 C-109.36 -75.86, -105.45 -81.09, -98.44 -89.63 M-83.26 -107.91 C-78.17 -111.29, -74.59 -114.92, -70.73 -120.75 M-82.35 -108.24 C-78.86 -111.44, -74.92 -117.33, -71.79 -119.44 M-63.86 -125.18 C-62.87 -131.76, -55.71 -136.18, -50.6 -145.38 M-64.6 -126.87 C-62.27 -131.06, -58.76 -136.25, -50.76 -145.07 M-178.45 14.84 C-173.26 5.66, -167.52 2.03, -156.11 -14.09 M-177.7 14.43 C-171.37 6.71, -163.01 -1.96, -154.18 -12.68 M-107.28 -66.34 C-97.31 -79.09, -88.7 -88.13, -72.27 -108.26 M-107.17 -66.9 C-95.84 -81.12, -85.13 -92.61, -71.97 -109.21 M-58.89 -124.77 C-54.25 -125.63, -53.41 -131.35, -43.94 -138.8 M-57.32 -122.56 C-53.77 -128.11, -51.37 -131.16, -42.94 -140.64 M-170.65 16.8 C-167.8 15.36, -162.35 11.87, -156.57 1.86 M-171.36 18.65 C-166.07 12.09, -161.62 6.58, -156.58 0.69 M-101.07 -63.1 C-88.79 -76.46, -78.51 -86.42, -70.12 -100.48 M-100.42 -62.94 C-92.87 -72.26, -85.06 -79.12, -68.76 -98.93 M-51.37 -119.46 C-44.85 -123.54, -42.15 -127.61, -34.88 -136.14 M-51.01 -119.31 C-45.8 -124.27, -40.5 -130.51, -36.3 -136.64 M-164.35 24.01 C-161.88 18.05, -159.1 15.84, -149.25 6.71 M-162.59 22.25 C-159.96 16.66, -156.11 13.81, -148.58 6.56 M-91.39 -58.96 C-83.51 -69.51, -71.46 -80.46, -61.78 -95.03 M-92.4 -59.38 C-82.62 -68.94, -73.49 -79.97, -62.35 -95.02 M-43.38 -114.19 C-38.73 -119.44, -33.83 -128.9, -27.34 -130.59 M-43.11 -115.88 C-40.17 -120.99, -33.68 -127.25, -29.63 -131.66 M-156.24 27.93 C-151.39 20.08, -145.32 12.7, -143.04 7.88 M-156.17 26.81 C-152.59 23.64, -150.56 20.28, -142.48 9.24 M-87.86 -54.85 C-76.37 -65.2, -69.64 -74.48, -56.19 -89.24 M-85.55 -54.55 C-78.18 -63.01, -73.24 -70.43, -54.72 -90.07 M-35.78 -111.41 C-30.7 -115.63, -25.7 -123.93, -23.3 -130.56 M-37.15 -111.98 C-32.44 -116.85, -29.25 -119.46, -21.66 -128.94 M-147.95 31.53 C-145.47 26.32, -144.11 24.44, -133.76 12.86 M-150.36 30.78 C-144.57 24.6, -139.27 17.1, -135.65 13.47 M-77.17 -53.21 C-69.85 -60.69, -61 -71.13, -49.4 -85.08 M-78.28 -51.04 C-66.9 -64.44, -56.67 -78.43, -48.35 -86.11 M-30.53 -107.21 C-24.47 -111.33, -17.85 -119.72, -15.21 -125.77 M-29.97 -106.94 C-25.61 -112.58, -21 -118.27, -15.26 -125.97 M-143.74 36.74 C-140.68 32.14, -136.92 29.16, -125.94 16.37 M-142.51 35.35 C-138.62 28.82, -132.61 23.86, -127.12 17.03 M-54.98 -61.98 C-54.18 -67.94, -47.55 -72.17, -39.5 -80.18 M-57.68 -64.46 C-51.96 -69.37, -45.55 -76.62, -41.03 -81.26 M-21.24 -104.08 C-18.52 -108.62, -18.08 -111.87, -6.44 -122.03 M-22.03 -102.23 C-20.57 -106.7, -16.94 -109.7, -6.77 -120.03 M-135.64 37.89 C-128.13 33.36, -124.32 28.25, -121.8 23.1 M-135.04 39.16 C-128.97 30.81, -122.45 25.29, -120.44 21.78 M-16.79 -100.64 C-12.67 -105.72, -5.82 -109.18, 0.91 -116.14 M-16.21 -99.09 C-9.24 -106.78, -4.42 -112.15, -1.14 -116.76 M-126.96 44.87 C-125.29 37.36, -118.42 33.36, -115.11 24.53 M-128.07 43.72 C-124.78 37.01, -118.72 32.19, -113.66 25.94 M-8.47 -93.73 C-2.86 -103.52, 4.02 -107.68, 6.33 -113.22 M-8.26 -94.75 C-4.02 -101.54, 1.15 -105.62, 7.06 -111.93 M-122.78 47.53 C-118.58 42.73, -111.99 37.97, -107.43 28.7 M-121.5 47.21 C-116.43 40.72, -112.29 36.28, -105.68 28.7 M-2.38 -91.48 C4.04 -96.89, 4.86 -98.57, 13.02 -109.14 M-1.18 -91.53 C3.48 -96.48, 8.47 -102.31, 13.76 -107.86 M-113.87 50.38 C-109.78 47.62, -104.27 40.87, -99.42 31.64 M-115.31 50.63 C-111.91 46.54, -108.42 44.15, -98.97 32.55 M-1.1 -80.94 C7.99 -85.83, 13.11 -96.55, 19.95 -103.74 M-1.33 -79.07 C3.35 -85.09, 9.36 -88.94, 21.31 -104.75 M-106.7 56.7 C-99.55 49.71, -97.35 40.43, -90.99 36.14 M-106.51 55.84 C-100.78 48.47, -95.72 40.54, -93.1 37.34 M-0.06 -67 C6.5 -75.87, 12.58 -84.8, 29.14 -100.32 M0.3 -68.26 C8.96 -78.07, 17.04 -88.19, 26.79 -99.2 M-102.61 60.57 C-95.54 55.99, -90.65 51.21, -85.4 39.54 M-101.32 60.54 C-95.53 53.38, -89.39 48.41, -85.78 41.02 M0.79 -57.44 C9.14 -65.81, 20.22 -79.37, 29.05 -88.63 M-0.65 -55.34 C6.77 -62.81, 11.51 -69.11, 26.42 -88.17 M-94.61 62.81 C-90.37 58.88, -88.01 55.51, -79.14 44.2 M-92.95 63.32 C-88.18 58.86, -85.63 53.55, -77.83 45.16 M-1.75 -45.28 C7.67 -54.81, 15.36 -62.25, 26.35 -74.71 M0.37 -43.18 C10.48 -55.9, 21.44 -68.95, 28.26 -75.82 M-86.63 67.08 C-80.78 61.01, -72.64 49.14, -55.56 32.67 M-85.85 68.59 C-76.56 55.86, -67.49 45.35, -55.7 33.09 M-0.18 -30.75 C10.4 -42.03, 17.27 -53.6, 26.87 -63.26 M-0.2 -32.29 C7 -39.83, 13.49 -47.04, 26.24 -62.92 M-78.23 71.75 C-62.68 55.94, -51.63 40.38, -37.49 22.71 M-79.44 71.66 C-70.83 60.99, -59.85 49.46, -35.19 21.94 M1.73 -19.3 C5.3 -28.44, 15.15 -35.48, 26.15 -49.49 M0.97 -19.82 C10.86 -31.98, 19.91 -42.72, 27.63 -51.65 M-71.89 78.05 C-53.67 52.42, -35.74 31.11, -13.95 11.53 M-72.38 75.68 C-50.48 49.71, -28.7 25.3, -15.1 9.85 M-1.08 -7.61 C9.54 -15.29, 18.15 -26.99, 26.78 -39.79 M1.1 -8.57 C8.86 -17.69, 18.98 -28.57, 27.47 -37.29 M-51.97 62.07 C-27.95 35.78, -3.64 10.01, 27.74 -25.03 M-50.55 64.81 C-20.06 28.17, 10.83 -7.32, 27.62 -25.83 M-31 49.21 C-12.55 31.81, 1.6 14.26, 25.22 -14.99 M-29.75 50.78 C-10.18 27.45, 11.59 1.54, 26.3 -12.5 M-6.86 40.81 C-2.95 30.11, 6.56 24.45, 25.18 0.54 M-8.16 39.14 C3.88 25.59, 16.86 11.89, 26.14 -0.48" stroke="#aac3f5" stroke-width="1" fill="none"></path><path d="M1.46 -0.58 C-25.14 13.67, -48.37 29.39, -77.18 44.38 M0.54 0.17 C-19.22 10.46, -38.82 20.92, -78.4 43.75 M-79.23 45.23 C-103.2 30.81, -125.09 17.81, -160.11 -0.67 M-77.74 44.67 C-98.67 33.6, -119.62 21.62, -159.87 -1.71 M-158.26 -1.58 C-161.25 -25.81, -157.93 -48.59, -158.63 -92.95 M-159.44 -1.76 C-158.87 -30.44, -159.11 -59.08, -158.41 -91.5 M-156.64 -90.54 C-136.97 -102.45, -114.48 -117.3, -86.44 -134.17 M-158.5 -92.2 C-139.04 -104.76, -117.69 -115.12, -85.49 -133.65 M-86.24 -133.94 C-85.58 -124.42, -85.78 -119.67, -86.51 -101.15 M-85.43 -133.27 C-85 -124.8, -86.16 -113.73, -85.5 -102.55 M-83.71 -103.66 C-96.44 -95.16, -106.92 -89.34, -123.11 -78.3 M-85.91 -103.69 C-97.62 -94.23, -110.68 -87.93, -125.66 -78.15 M-126.49 -79.7 C-107.49 -68.03, -91.12 -59.31, -81.05 -51.99 M-124.71 -79.49 C-108.65 -69.23, -91.29 -59.14, -80 -52.03 M-80.07 -52.51 C-68.45 -59.04, -60.58 -63.18, -34.02 -79.08 M-79.63 -52.1 C-63.07 -61.21, -46.51 -71.49, -33.45 -78.69 M-34.3 -79.54 C-41.5 -85.82, -51.53 -89.4, -73.37 -101.03 M-33.66 -79.6 C-48.12 -88.17, -63.49 -95.71, -73.47 -103.31 M-72.2 -103.3 C-72.29 -115.48, -73.17 -123.1, -75.2 -132.67 M-72.52 -102.49 C-73.52 -114.05, -75.75 -123.43, -74.85 -133.3 M-76.22 -132.46 C-77.24 -133.88, -78.15 -136.25, -80.2 -137.92 M-75.67 -132.86 C-77.31 -134.87, -79.37 -137.33, -80.28 -138.58 M-79.78 -139.65 C-82.55 -147.88, -81.24 -155.06, -80.45 -160.49 M-79.94 -139.28 C-80.12 -146.97, -82.15 -155.65, -81.46 -160.69 M-79.95 -161.76 C-107.37 -147.52, -130.34 -132.86, -182.57 -102.06 M-81.36 -161 C-118.77 -141.84, -153.66 -120.41, -181.9 -103.3 M-180.54 -105.45 C-181.06 -64.54, -180.47 -24.84, -179.33 11.88 M-181.66 -104.03 C-180.85 -78.61, -180.34 -52.76, -181.47 11.83 M-179.91 11.59 C-158.09 25.12, -134.06 36.8, -77.02 72.77 M-180.55 10.3 C-150.22 29.2, -117.4 47.44, -77.95 71.6 M-77.05 72.73 C-55.95 57.1, -28.62 42.52, 19.34 13 M-77.62 71.07 C-55.25 56.47, -29.94 43.59, 19.84 13.69 M18.87 13.78 C21.88 -25.68, 21.68 -61.19, 21.88 -102.97 M20.29 14.35 C19.8 -21.88, 21.67 -58.37, 21.16 -104.02 M20.29 -105.88 C-5.88 -122.84, -37.9 -139.83, -80.76 -161.22 M22.12 -105.29 C-13.54 -125.11, -47.39 -144.69, -81.12 -162.77 M-79.3 -161.9 C-80.27 -151.78, -80.97 -143.88, -81.07 -134.78 M-79.76 -162.2 C-81.02 -152.41, -79.39 -144.05, -80.87 -137.07 M-79.09 -137.41 C-59.01 -124.56, -36.06 -111.61, -0.63 -92.98 M-80.03 -135.71 C-56.33 -124.06, -31.7 -110.39, -0.48 -92.74 M-2.8 -92.29 C0.47 -66.22, -1.57 -38.54, 0.5 0.16 M-0.12 -92.23 C-0.83 -59.6, 0.64 -27.39, 0.94 0.95 M0 0 C0 0, 0 0, 0 0 M0 0 C0 0, 0 0, 0 0" stroke="#aac3f5" stroke-width="2" fill="none"></path></g></g><mask></mask><g stroke-linecap="round"><g transform="translate(119.25686767189791 182.19025805208798) rotate(0 37.17350735165394 -38.94844749719505)" fill-rule="evenodd"><path d="M0.02 -51.66 C0.02 -51.66, 0.02 -51.66, 0.02 -51.66 M0.02 -51.66 C0.02 -51.66, 0.02 -51.66, 0.02 -51.66 M-1.07 -39.61 C5.09 -48.57, 11.74 -56.03, 20.22 -63.15 M-0.14 -40.37 C6.69 -46.98, 13.87 -55.54, 21.51 -63.55 M0.94 -27.65 C12.34 -41.3, 23.29 -53.12, 43.23 -75.6 M0.47 -28.27 C11.78 -40.39, 22.45 -52.97, 43.54 -76.35 M-1.09 -15.9 C9.49 -27.28, 20.55 -42.29, 52.16 -72.45 M1.29 -16.08 C17.45 -35.34, 34.02 -56.29, 51.64 -73.48 M1 -2.54 C15.02 -21.66, 34.02 -42.11, 49.45 -60.62 M0.86 -3.81 C20 -25.58, 37.19 -45.37, 49.89 -61.67 M4.77 3.38 C15.31 -8.6, 25.34 -20.54, 51.55 -49.5 M3.87 3.03 C17.88 -12.84, 31.25 -26.99, 50.73 -47.74 M25.87 -6.5 C32.16 -14.27, 38.61 -23.93, 43.99 -30.65 M24.17 -6.68 C31.81 -12.97, 38.72 -21.06, 45.24 -31.06 M45.62 -17.72 C48.25 -21.57, 50.28 -22.35, 53.72 -26.78 M44.45 -18.16 C47.12 -20.13, 49.36 -23.67, 52.58 -26.52 M51.25 -13.33 C54.4 -17.97, 57.33 -19, 59.31 -22.04 M52.08 -13.78 C54.9 -16.93, 57.6 -19.81, 59.5 -22.4 M59.5 -10.72 C60.63 -11.13, 63.7 -14.71, 66.79 -18.22 M59.38 -10.21 C61.66 -12.91, 63.83 -15.75, 66.81 -18.98 M66.41 -6.46 C67.89 -9.85, 70.45 -12.33, 73.11 -14.74 M66.52 -6.19 C69.35 -8.87, 70.91 -10.97, 74.18 -15.28 M0.34 1.13 C0.34 1.13, 0.34 1.13, 0.34 1.13 M0.34 1.13 C0.34 1.13, 0.34 1.13, 0.34 1.13 M4.86 -5.42 C3.5 -7.44, 1.38 -8.05, -0.28 -9.26 M4.91 -5.53 C2.91 -6.95, 1.55 -8.51, 0.27 -9.51 M11.17 -10.8 C8.81 -14.35, 5.68 -16.77, 0.91 -18.67 M12.61 -9.54 C9.41 -12.62, 7.4 -14.8, -0.3 -20.43 M19.17 -13.67 C10.99 -21.21, 3.37 -28.05, -0.93 -29.64 M20.46 -14.11 C14.13 -18.13, 7.78 -23.08, -0.58 -30.74 M28.32 -16.99 C18.09 -25.51, 11.21 -31.72, 0.35 -43.01 M26.41 -18.64 C18.44 -25.63, 10.46 -33.7, 0.33 -42.09 M33.23 -23.54 C25.36 -29.2, 19.74 -34.85, 0.54 -51.39 M35.8 -22 C25.64 -30.52, 15.11 -39.86, -0.03 -52.28 M45.49 -22.64 C31.83 -34.54, 21.04 -45.25, 7.32 -57.62 M44.7 -23.88 C36.7 -30.16, 28.64 -36.89, 7.74 -55.88 M72.49 -9.79 C63.34 -19.03, 54.67 -24.97, 46.77 -33.72 M71.49 -11.87 C66.13 -16.74, 61.44 -20.44, 44.39 -34.42 M45.92 -34.35 C38.55 -41.39, 31.5 -45.82, 16.35 -60.1 M44.54 -33.96 C36.97 -41.33, 29.47 -48.15, 15.34 -59.36 M46.94 -45.33 C36.55 -51.39, 28.27 -60.58, 23.37 -64.49 M45.67 -44.07 C35.4 -52.96, 26.17 -60.52, 22.36 -65.82 M44.79 -55.72 C40.78 -57.89, 39.2 -62.9, 29.82 -69.1 M46.13 -55.22 C41.98 -57.63, 39.25 -61.15, 28.76 -69.53 M44.88 -64.08 C43.17 -68.11, 42.24 -68.97, 36.22 -73.3 M46.05 -65.73 C44.7 -67.01, 41.8 -68.27, 37.56 -72.66 M46.71 -75.4 C46.33 -75.61, 45.81 -76.35, 43.87 -77.9 M46.91 -75.2 C46.13 -75.66, 45.36 -76.52, 43.59 -77.88" stroke="#4979ea" stroke-width="1" fill="none"></path><path d="M-1.5 -1.52 C8.63 -4.17, 18.07 -9.01, 40.82 -20.2 M0.74 -0.39 C16.47 -9.09, 32.12 -16.7, 40.07 -21.84 M39.14 -20.71 C45.19 -19.82, 52.57 -16.35, 68.44 -7.01 M40.28 -21.76 C47.37 -16.94, 54.58 -13.87, 68.57 -6.54 M68.76 -7.95 C69.98 -10.05, 71.85 -12.15, 75.85 -14.14 M68.27 -6.76 C70.82 -9.3, 72.58 -12.16, 74.93 -15.04 M73.72 -15.17 C66.85 -19.22, 59.78 -21.12, 42.97 -30.71 M74.59 -15.58 C66.5 -20.18, 55.99 -25.71, 43.81 -32.55 M43.3 -31.11 C43.19 -45.13, 43.98 -57.25, 45.48 -77.59 M44.16 -31.76 C44.3 -41.63, 45.57 -51.56, 44.82 -78.29 M44.7 -79.06 C26.45 -66.14, 8.9 -57.09, 1.66 -50.75 M44.41 -77.06 C32.81 -71.84, 22.45 -64.88, 0.64 -51.53 M-0.83 -50.89 C1.92 -31.64, 0.38 -15.21, 0.04 1.17 M0.15 -51.11 C0.53 -32.78, 0.46 -12.86, 0.47 0.57 M0.19 1.14 C0.14 0.82, 0.03 0.38, 0.1 0.1 M0.32 1.03 C0.15 0.74, 0.16 0.48, -0.01 -0.04" stroke="#4979ea" stroke-width="2" fill="none"></path></g></g><mask></mask><g stroke-linecap="round"><g transform="translate(65.39858988794799 148.21496401897502) rotate(0 5.526473443875716 -3.566236961168215)" fill-rule="evenodd"><path d="M-2.65 -44.7 C-2.65 -44.7, -2.65 -44.7, -2.65 -44.7 M-2.65 -44.7 C-2.65 -44.7, -2.65 -44.7, -2.65 -44.7 M-3.31 -31.79 C-0.85 -34.55, 1.02 -37.58, 3.3 -39.79 M-2.09 -32.69 C-0.37 -34.88, 0.7 -36.92, 4 -40.64 M-0.7 -22.13 C1.33 -26.08, 7.9 -30.16, 11.6 -35.44 M-2.51 -21.08 C0.58 -24.16, 2.91 -27.28, 10.82 -36.08 M-30.71 24.13 C-29.65 22.82, -28.56 21.64, -27.9 20.57 M-30.65 23.89 C-29.36 22.84, -28.58 21.69, -27.67 20.75 M-0.98 -9.02 C1.97 -12.62, 8.12 -18.8, 15.65 -32.45 M-2.9 -9.5 C4.58 -16.72, 10.29 -22.6, 17.96 -30.51 M-22.3 28.4 C-11.6 13.35, 3.7 -1.6, 24.57 -28.63 M-23.07 28.83 C-5.74 8.49, 11.04 -12.13, 25.24 -27.78 M0.99 12.09 C10.07 -1.81, 21.27 -11.89, 31.82 -22.79 M2.3 11.3 C11.95 0.04, 19.64 -10.64, 31.45 -23.51 M10.51 16.47 C14.8 7.18, 21.75 0.53, 37.59 -16.85 M8.47 14.63 C19.04 2.79, 29.49 -9.33, 38.77 -19.35 M16.24 19.81 C24.23 7.73, 32.44 -0.38, 45.78 -14.29 M14.38 19.23 C24.9 9.04, 33.51 -2.91, 43.93 -13.7 M21.02 24.45 C30.16 15.75, 40.94 5.09, 44.9 -3.2 M21.44 23.69 C28.13 17.09, 34.33 10.01, 44.47 -1.49 M30.97 28.34 C34.58 22.16, 38.3 20.14, 44.55 9.28 M29.31 27.46 C33.93 21.56, 40.73 15.52, 45.46 9.52 M37.26 32.36 C39.98 29.94, 41.87 27.59, 46.2 21.89 M36.27 32.43 C38.51 29.78, 41.63 26.81, 45.72 22.65" stroke="#6691ee" stroke-width="1" fill="none"></path><path d="M-1.73 -1.45 C-4.87 2.33, -14.65 6.04, -30.63 17.19 M-0.88 0.61 C-7.65 3.7, -13.95 8.55, -31.21 17.73 M-31.28 17.6 C-31.67 19.23, -32.25 20.96, -32.53 22.26 M-30.96 17.19 C-31.46 18.63, -31.58 19.93, -32.25 22.29 M-32.44 22.1 C-29.63 24.1, -28.32 25.49, -26.01 26.02 M-32.34 22.09 C-30.13 23.71, -27.71 25.06, -25.71 26.03 M-23.97 25.85 C-19.52 22.77, -14.28 21.25, 0.16 9.75 M-25.31 25.67 C-19.71 23.02, -13.27 18.71, 0.86 9.56 M2.14 10.52 C10.8 18.46, 20.77 21.79, 43.59 36.52 M-0.09 9.56 C12.89 18.62, 26.31 25.14, 41.7 37.38 M41.04 38.02 C40.89 16.98, 43.38 -4.37, 42.82 -15.11 M41.98 36.01 C42.95 18.52, 41.99 -0.84, 40.73 -16.26 M40.3 -17.13 C30.84 -25.41, 16.95 -33.45, -4.2 -45.15 M42.07 -16.66 C32.07 -22.61, 21.12 -29.2, -2.47 -44.29 M-1.73 -42.6 C-3.36 -33.01, -2.11 -18.93, -3.58 2.22 M-2.31 -43.7 C-2.48 -33.18, -2.15 -22.06, -1.3 1.81 M-2.3 1.34 C-1.12 0.88, -0.67 0.22, -0.18 -0.1 M-2.2 1.18 C-1.62 0.73, -0.94 0.4, -0.1 -0.02" stroke="#6691ee" stroke-width="2" fill="none"></path></g></g><mask></mask></svg>