<svg version="1.1" xmlns="http://www.w3.org/2000/svg" viewBox="0 0 249.70452366908694 247.70563648097482" width="249.70452366908694" height="247.70563648097482">
  <!-- svg-source:excalidraw -->
  
  <defs>
    <style class="style-fonts">
      @font-face {
        font-family: "Virgil";
        src: url("https://excalidraw.com/Virgil.woff2");
      }
      @font-face {
        font-family: "Cascadia";
        src: url("https://excalidraw.com/Cascadia.woff2");
      }
    </style>
  </defs>
  <g stroke-linecap="round"><g transform="translate(198.57964405575308 92.6704869936741) rotate(0 -30.180300545048567 24.59116256475545)" fill-rule="evenodd"><path d="M-48.63 -19.75 C-48.63 -19.75, -48.63 -19.75, -48.63 -19.75 M-48.63 -19.75 C-48.63 -19.75, -48.63 -19.75, -48.63 -19.75 M-58.82 -1.65 C-53.34 -8.16, -49.61 -10.78, -42.12 -18.42 M-59.23 -1.67 C-53.83 -8.17, -46.19 -15.44, -43.97 -19.3 M-69.09 19.08 C-63.61 7.35, -54.34 -2.16, -38.66 -21.49 M-71.62 18.63 C-61.14 5.83, -51.62 -5.03, -38.7 -19.77 M-79.63 33.69 C-60.78 13.08, -43.72 -5.71, -31.27 -17.42 M-79.71 33.79 C-65.99 18.47, -53.88 5.35, -32.17 -19.81 M-77.15 38.42 C-60.69 18.51, -45.38 1.17, -25.89 -20.62 M-77.34 38.24 C-60.69 19.74, -44.17 0.82, -28.19 -20.06 M-76.48 42.01 C-55.1 21.18, -36.15 -2.85, -23.47 -19.09 M-74.5 40.62 C-55.09 16.33, -33.95 -6.9, -23.05 -19.12 M-73.53 44.02 C-61.1 29.81, -49.08 14.05, -19.29 -18.84 M-72.9 45.28 C-51.18 17.97, -29.14 -5.9, -16.54 -19.66 M-68.95 48.79 C-50.46 25.33, -32.91 6.42, -10.07 -19.37 M-71.49 48.51 C-54.29 28.05, -35.59 8.22, -11.79 -18.8 M-67.37 53.39 C-51.97 35.85, -38.65 15.16, -7.12 -19.26 M-68.32 51.68 C-52.26 32.82, -35.44 13.45, -6.16 -19.36 M-64.56 56.32 C-50.08 40.52, -35.29 20.16, -1.64 -18.48 M-65.44 56.15 C-45.96 31.86, -26.23 9.13, -1.22 -19.05 M-62.57 57.43 C-38.24 31.14, -11.88 0.6, 2.19 -19.98 M-64.8 58.43 C-38.9 31.21, -15.82 1.61, 4.42 -19.76 M-63.03 63.86 C-37.52 37.11, -16.27 8.46, 7.99 -17.2 M-61.22 62.35 C-44.52 43.37, -29.87 24.24, 9.17 -17.93 M-60.88 65.5 C-35.64 39.78, -11.33 8.55, 10.67 -16.9 M-60.84 67.67 C-45.02 47.01, -29.14 29.54, 12.24 -17.09 M-57.67 68.38 C-34.69 44.62, -14.01 21.09, 2.09 2.08 M-58.19 69.8 C-42.56 52.53, -26.91 33.61, 2.56 0.54 M-51.35 70.16 C-39.46 52.91, -26.06 41.1, 5.03 3.91 M-52.63 70.39 C-38.9 55.47, -27.56 40.66, 5.06 5.42 M-48.74 69.79 C-28.8 48.3, -7.04 26.13, 5.96 8.31 M-46.61 69.32 C-30.38 51.53, -13.56 31.2, 6.72 8.36 M-41.49 71.71 C-28.78 56.63, -18.88 41.15, 8.34 13.78 M-42.28 70.02 C-25.84 53.82, -11.97 35.35, 8.12 12.1 M-37.87 71.27 C-23.53 58.95, -15.75 44.47, 9.65 16.23 M-37.04 69.18 C-23.95 55.23, -12.66 41.51, 9.77 17 M-31.35 71.69 C-16.9 55.6, -5.8 38.28, 11.49 19.06 M-30.82 68.87 C-22.16 58.85, -13.82 49.23, 12.52 19.49 M-25.02 70.23 C-12 51.53, 6.54 33.4, 13.13 25.44 M-26.24 71 C-15.25 57.72, -4.17 46.85, 14.33 23.45 M-19.56 70.35 C-7.58 54.8, 2.81 41.51, 17.6 28.45 M-21.3 70.66 C-10.58 59.07, -2.33 48.79, 16.69 26.66 M-13.67 71.99 C-4.28 57.57, 5.82 48.37, 17.85 30.53 M-15.49 70.56 C-5.45 57.68, 3.76 46.88, 18.05 31.37 M-7.99 71.65 C-2.52 57.77, 6.71 49.58, 19.59 33.42 M-10.45 70.46 C2.72 57.54, 13.54 44.16, 20.94 34.58 M-5.54 68.64 C1.64 64.29, 6.86 56.99, 12.85 48.63 M-4.16 69.52 C2.56 61.45, 9.08 53.14, 12.78 49.62 M0.61 69.47 C2.44 66.85, 4.58 63.89, 7.51 62.69 M0.66 69.69 C2.51 67.55, 3.54 65.86, 6.73 63.14" stroke="#8099dd" stroke-width="0.5" fill="none"></path><path d="M-1.29 -0.41 C6.98 8.4, 10.37 20.19, 20.1 35.63 M-0.4 -0.64 C5.15 7.94, 9.1 16.04, 18.35 34.55 M19.8 34.96 C13.3 42.34, 7.93 55.27, 3.82 70.04 M19.04 34.09 C12.83 45.26, 7.93 55.38, 1.62 69.14 M1.32 69.05 C-15.33 67.14, -34.4 67.05, -58.07 67.52 M1.47 69.15 C-10.21 68.65, -23.51 68.19, -59.86 68.22 M-58.32 68.55 C-64.73 56.39, -74.08 43.31, -78.9 31.2 M-59.22 67.95 C-64.95 56.63, -72.25 43.84, -80.46 32.51 M-79.02 31.93 C-67.89 16.21, -60.93 -0.45, -48.29 -20.86 M-79.99 33.47 C-72.16 18.15, -62.45 3.65, -47.82 -19.64 M-49.47 -18.94 C-34.91 -19.48, -22.28 -19.54, 9.7 -17.82 M-48.8 -20.02 C-29.89 -19.22, -10.63 -18.93, 10.25 -19.16 M10.69 -16.87 C9.27 -14.15, 4.67 -9.3, 1.64 0.88 M10.44 -17.72 C7.92 -12.88, 3.83 -8.27, -0.87 0.83 M0 0 C0 0, 0 0, 0 0 M0 0 C0 0, 0 0, 0 0" stroke="#8099dd" stroke-width="1" fill="none"></path></g></g><mask></mask><g stroke-linecap="round"><g transform="translate(226.64999429326463 143.02980571673174) rotate(0 -7.94421317956062 -33.42112032115597)" fill-rule="evenodd"><path d="M-16.04 -66.94 C-16.04 -66.94, -16.04 -66.94, -16.04 -66.94 M-16.04 -66.94 C-16.04 -66.94, -16.04 -66.94, -16.04 -66.94 M-25.83 -49.91 C-24.39 -52.77, -20.81 -58.34, -15.11 -63.82 M-26.91 -49.37 C-20.94 -53.7, -17.26 -59.62, -14.37 -63.93 M-24.31 -45.46 C-22.21 -48.84, -19.1 -53.26, -12.41 -58.99 M-23.83 -45.38 C-20.83 -49.9, -18.32 -51.91, -12.63 -59.81 M-23.55 -42.09 C-15.74 -46.39, -13.77 -50.79, -7.98 -55.37 M-21.46 -41.31 C-18.84 -44.64, -16.61 -48.8, -9.82 -55.45 M-20.18 -39.96 C-13.82 -41.42, -11.55 -47.96, -7.44 -51.28 M-19.44 -37.55 C-16.24 -40.94, -14.81 -43.97, -7.07 -52.3 M-18.59 -34.34 C-13.51 -37.77, -12.75 -43.38, -6.06 -49.77 M-17.57 -33.35 C-12.64 -40.04, -9.93 -44.93, -5.36 -48.93 M-16.97 -32.1 C-11.5 -32.16, -8.75 -36.48, -2.21 -44.16 M-15.4 -31.18 C-13.09 -34.4, -8.55 -38.56, -2.69 -45.51 M-13.89 -25.5 C-11.5 -30.73, -7.5 -36.15, -2.05 -42.55 M-13.4 -26.95 C-9.61 -32.67, -4.98 -38.12, -2.03 -40.24 M-9.85 -24.15 C-7.81 -26.91, -5.54 -33.15, 0.25 -37.79 M-12.49 -23.5 C-7.62 -28.2, -1.83 -33.27, -0.03 -37.73 M-9.77 -20.47 C-6.46 -21.52, -4.35 -26.24, 4.19 -33.07 M-9.63 -19.41 C-6.29 -23.88, -1.49 -28.84, 2.49 -34.68 M-5.67 -14.24 C-4.42 -19.88, 0.38 -23.84, 3.55 -31 M-6.82 -16.45 C-4.47 -19.76, 0.29 -25.11, 4.75 -30.16 M-5.79 -12.79 C-1.29 -19.32, 4.36 -21.37, 8.65 -27.52 M-6.68 -12.41 C-3.44 -15.93, 0.59 -18.65, 6.62 -25.76 M-1.97 -9.28 C-0.57 -12.48, 6.72 -17.92, 9.46 -24.01 M-4.14 -8.3 C1.6 -13.02, 5.29 -17.34, 8.53 -22.84 M-2.72 -6.03 C3.88 -7.04, 6.24 -14.51, 12.96 -17.88 M-1.51 -3.32 C1.84 -8.07, 6.17 -13.58, 11.47 -20.19 M-0.34 -0.22 C5.93 -5.42, 9.85 -9.03, 13.54 -14.22 M0.1 -0.25 C4.51 -4.85, 8.74 -10.52, 12.9 -15.24" stroke="#5a79d3" stroke-width="0.5" fill="none"></path><path d="M1.76 1.58 C-10.63 -17.69, -20.73 -39.58, -28.94 -49.64 M-0.85 -0.29 C-11.41 -19.47, -20.4 -39.58, -27.15 -51.21 M-25.15 -51.36 C-21.94 -57.06, -21.82 -62.23, -15.82 -67.44 M-27.03 -50.48 C-24.57 -54.33, -20.94 -59.49, -15.47 -66.71 M-17.16 -68.7 C-6.25 -52.18, 4.03 -36.13, 12.34 -15.86 M-15.63 -66.4 C-10.57 -57, -5.93 -46.85, 13.05 -16.99 M11.66 -18.13 C10.35 -11.54, 5.7 -9.5, -1.26 1.86 M11.84 -18.16 C8.01 -11.92, 3.68 -4.45, -0.31 0.06 M0 0 C0 0, 0 0, 0 0 M0 0 C0 0, 0 0, 0 0" stroke="#5a79d3" stroke-width="1" fill="none"></path></g></g><mask></mask><g stroke-linecap="round"><g transform="translate(139.50675297907287 162.30797224698813) rotate(0 44.147500570600755 -8.685816909591722)" fill-rule="evenodd"><path d="M0 0 C0 0, 0 0, 0 0 M0 0 C0 0, 0 0, 0 0 M1.97 4.1 C2.53 2.44, 3.61 1.82, 5.2 -0.81 M1.47 4.42 C2.97 2.74, 3.65 1.55, 5.64 -0.54 M4.85 6.71 C6.97 3.68, 9.16 1.25, 11.19 -0.09 M4.36 7.64 C6.03 5.35, 7.29 3.43, 10.57 0.33 M5.65 11.8 C8.18 9.51, 10.72 4.68, 16.3 -1.97 M5.77 12.08 C8.84 8.18, 12.32 3.74, 16.59 -0.07 M9.31 16.62 C12.6 8.18, 16.77 3.49, 20.53 0.92 M7.45 14.83 C11.99 11.69, 15.9 5.92, 22.15 -1.54 M11.78 17.65 C13.88 14.85, 19.67 9.67, 28.77 -2.68 M10.62 17.53 C15 13.72, 17.72 9.17, 27.59 -0.52 M16.6 19.88 C23.47 12.06, 26.44 4.75, 32.51 0.46 M16.38 18.7 C20.98 13.72, 24.63 7.21, 32.97 -0.5 M22.04 19.27 C26.48 11.64, 34.46 3.96, 37.79 -0.89 M21.49 17.97 C26.11 14.07, 29.69 8.37, 37.35 -0.71 M27.08 16.43 C33.2 12.79, 40.2 2.51, 44.13 -0.08 M26.7 18.09 C33.24 11.53, 37.18 4.78, 43.06 -2.1 M31 19.07 C37.97 11.75, 42.59 4.97, 47.94 -3.42 M31.57 18.57 C39.01 11.1, 44.12 3.17, 49.36 -1.91 M35.44 16.22 C41.72 8.68, 49.49 4.47, 56.02 -2.5 M36.86 18.11 C40.56 13.78, 45.48 9.34, 55.27 -0.84 M80.05 -31.12 C80.05 -31.12, 80.05 -31.12, 80.05 -31.12 M80.05 -31.12 C80.05 -31.12, 80.05 -31.12, 80.05 -31.12 M41.14 19.3 C47.51 13.86, 50.07 8.53, 58.54 -3.53 M43.16 18.14 C49.1 10.08, 54.33 4.53, 59.79 -2.49 M68.05 -13.5 C73.79 -18.73, 75.63 -20.51, 82.11 -29.36 M70.52 -13.36 C74.2 -16.76, 77.78 -20.88, 82.23 -27.15 M46.74 17.93 C59.1 5.2, 67.24 -5.99, 85.19 -22.57 M47.06 16.92 C58.91 5.47, 68.12 -5.22, 84.51 -24.8 M55.06 16.47 C63.28 3.96, 75.65 -7.52, 86.65 -19.55 M54.65 17.23 C63.74 7.71, 73.53 -4.11, 86.67 -20.7 M60.52 18.8 C65.9 8.57, 77.13 -1, 91.27 -18.87 M58.85 17.82 C66.81 8.07, 76.77 -2.01, 88.71 -17.7 M65.67 17.22 C70.15 11.3, 76.47 4.87, 82.1 -3.95 M64.9 18.04 C68.92 11.82, 74 7.29, 83.19 -5.18 M7.43 15.85 C7.43 15.85, 7.43 15.85, 7.43 15.85 M7.43 15.85 C7.43 15.85, 7.43 15.85, 7.43 15.85 M14.07 14.99 C11.03 13.18, 6.66 11.14, 3 5.55 M13.39 16.67 C10.77 12.31, 7.22 9.9, 2.68 6.97 M18.2 17.34 C14.7 11.94, 10.61 5.08, 0.2 -1.05 M18.99 15.59 C14.61 11.32, 10.03 8.75, -0.27 -1.44 M27.42 14.82 C20.17 10.85, 12.72 2.44, 4.34 -1.52 M25.47 16.02 C18.07 10.69, 11.61 2.92, 6.01 -1.78 M32.87 14.3 C25.16 11.41, 20.23 4.85, 11.15 -0.94 M30.51 14.94 C26.29 9.97, 21.37 6.31, 13.49 -0.31 M36.89 14.51 C28.95 7.66, 22.52 1.41, 20.18 -2.11 M38.79 16.16 C33.13 11.99, 29.47 7.39, 19.02 -0.9 M43.91 16.48 C40.48 13.04, 32.73 7.39, 25.61 -3.27 M42.84 15.77 C39.08 11.24, 34.48 7.11, 24.45 -0.96 M48.57 14.28 C45.63 10.49, 40.65 7.01, 30.14 -0.51 M48.41 14.07 C43.27 10.28, 37.37 4.58, 28.65 -1.61 M54.24 13.32 C50.18 9.51, 46.35 6.52, 37.26 -0.29 M55.3 16.05 C48.26 8.96, 41.49 4.3, 35.16 -0.98 M61.54 14.49 C54.41 7.59, 46.5 0.71, 41.05 -1.87 M61.18 14.84 C54.64 9.55, 47.27 2.86, 42.23 -2.43 M66.53 14.98 C62.32 7.18, 53.04 2.33, 45.55 -3.17 M68.01 14.66 C61.47 8.45, 54.52 3.65, 47.49 -3.18 M72.62 12.58 C65.66 8.96, 58.84 2.61, 55.25 -2.59 M73.3 14.35 C66.43 8.94, 62.2 5.35, 52.72 -1.94 M75.98 9.76 C70.28 5.17, 66.8 1.67, 59.71 -2.73 M73.73 9.73 C68.87 5.43, 65.67 2.76, 59.71 -3.37 M76.13 7.1 C72.25 4.93, 70.84 0.92, 65.06 -3.77 M76.92 6.34 C71.89 1.75, 66.85 -1.63, 64.25 -5.04 M77.26 1.5 C74.39 0.88, 69.12 -5.6, 65.46 -9.11 M77.65 2.93 C74.09 0.39, 71.68 -1.68, 66.01 -7.31 M81.25 0.75 C75.21 -3.91, 71.03 -6.32, 68.07 -12.53 M79.46 0.01 C75.48 -5.15, 70.19 -9.92, 67.8 -12.41 M81.93 -4.5 C78.05 -7.96, 72.43 -11.04, 70.47 -13.9 M80.67 -4.49 C76.72 -8.94, 72.36 -11.95, 69.78 -14.19 M84.2 -8.65 C80.68 -10.17, 77.61 -13.1, 71.26 -19.09 M82.48 -9.22 C78.38 -11.56, 74.68 -15.34, 71.41 -18.4 M86.16 -12.53 C80.32 -16.86, 76.27 -17.49, 72.52 -22.05 M85.49 -12.28 C80.73 -15.27, 76.17 -19.22, 74.04 -21.37 M88.05 -15.13 C83.74 -18.12, 79.69 -20.45, 74.92 -25.76 M86.58 -16.19 C84.17 -17.85, 81.16 -20.9, 76.06 -26.29 M88.97 -20.22 C84.49 -21.67, 81.41 -23.49, 78.23 -29.98 M88.04 -19.35 C85.57 -21.37, 83.87 -23.46, 77.41 -28.8" stroke="#385bc9" stroke-width="0.5" fill="none"></path><path d="M-1.7 -1.05 C3.5 4.2, 3.54 9.8, 9.31 15.29 M-0.8 -0.31 C2.36 5.59, 5.38 9.29, 6.83 15.89 M8.45 14.12 C23.41 13.46, 41.48 14.53, 71.93 13.58 M7.31 16.54 C30.1 15.69, 50.88 14.43, 72.06 14.64 M70.83 13.35 C75.1 5.88, 78.54 -3.31, 90 -17.36 M71.65 14.13 C75.95 5.39, 81.05 -3.44, 88.78 -19.68 M87.09 -19.35 C85.98 -20.68, 83.1 -24.31, 79.19 -33.41 M88.82 -18.45 C85.48 -23.29, 83.9 -26.41, 78.47 -33.1 M78.41 -33.91 C76.35 -23.16, 70.51 -18.81, 63.1 -3.27 M79.66 -32.27 C74.93 -25.67, 71.3 -20.06, 60.82 -2.24 M63.03 -3.3 C38.27 -1.13, 14.64 -1.5, -1 -1.88 M61.03 -1.44 C39.35 -1.44, 15.13 -0.99, 0.22 0.83 M0 0 C0 0, 0 0, 0 0 M0 0 C0 0, 0 0, 0 0" stroke="#385bc9" stroke-width="1" fill="none"></path></g></g><mask></mask><g stroke-linecap="round"><g transform="translate(41.43309692602952 11.01711849682033) rotate(0 20.147603096168382 44.36490063535223)" fill-rule="evenodd"><path d="M0 0 C0 0, 0 0, 0 0 M0 0 C0 0, 0 0, 0 0 M-10.6 16.7 C-9.15 15.13, -2.45 10.75, 1.77 2.82 M-9.12 17.16 C-7.13 13.27, -3.77 10.73, 3.99 3.47 M-17.84 36.16 C-7.41 21.67, 1.84 9.32, 9.5 4.05 M-20.03 34.05 C-12.16 27.14, -6.22 18.63, 7.02 3.73 M-29.58 53.49 C-19.76 42.33, -10.52 28.9, 14.18 3.5 M-29.11 51.82 C-14.18 34.52, 0.42 16.96, 14.59 2.58 M-28.94 57.41 C-10.21 37.36, 8.95 18.01, 20.51 2.42 M-26.46 55.11 C-16.74 41.92, -3.51 28.95, 19 2.62 M-26.03 60.9 C-10.66 41.18, 2.88 23.76, 26.15 1.21 M-25.22 60.01 C-10.39 42.05, 5.21 24.2, 24.35 3.24 M-23.69 64.31 C-0.84 39.32, 19.41 14.5, 30.58 2.28 M-23.13 62.35 C-6.91 44.66, 9.54 26.17, 28.7 3.8 M-20.45 67.21 C-8.92 50.33, 5.27 35.53, 35.93 3.56 M-20.27 65.88 C-8.32 52.58, 3.76 40.26, 35.1 2.39 M-19.68 68.21 C-0.8 49.44, 17.68 30.44, 39.22 1.62 M-17.99 69.37 C3.54 44.75, 26.08 18.57, 38.95 3.26 M-16.04 75.03 C-0.95 57.97, 16.86 39.11, 46.49 4.69 M-16.11 74.97 C-3.08 58.98, 8.95 43.32, 44.52 3.08 M-14 77.34 C3.21 59.28, 20.74 39.57, 51.67 4.23 M-15.3 78.27 C1.25 61.49, 14.33 44.8, 50.92 2.85 M-10.29 80.78 C3 63.44, 16.98 48.93, 55.49 3.78 M-12.21 80.68 C9.68 57.76, 29.55 33.59, 55.24 3.97 M-11.68 83.53 C11.61 59.44, 35.42 32.89, 61.56 0.93 M-11.13 85.27 C18.86 53.3, 47.1 20.09, 61.87 2.54 M-7.56 87.64 C7.44 72.94, 23.36 52.39, 54.25 19.87 M-9.25 88.32 C9.81 68.02, 28.36 46.13, 52.63 19.16 M-3.74 87.57 C10.35 75.39, 22.08 59.97, 56.53 22.94 M-2.33 89.19 C19.57 62.85, 43.93 37.34, 53.75 22.78 M4.61 87.79 C17.14 70.48, 31.03 54.86, 58.19 26.05 M3.61 88.2 C17.04 72.53, 31.79 56.01, 56.38 25.4 M8.24 88.82 C25.81 69.22, 44.96 47.43, 60.5 29.42 M7.81 87.96 C25.77 68.27, 43.45 45.69, 58.45 29.05 M12.73 89.53 C27.52 73.91, 41.88 54.91, 59.28 34.91 M12.9 87.88 C26.31 74.81, 39.46 59.91, 61.91 32.47 M18.75 86.45 C32.96 70.49, 45.43 57.85, 63.09 35.37 M19.31 88.89 C34.78 69.72, 50.5 52.01, 64.22 36.71 M22.84 87.63 C38.74 72.66, 50.85 58.43, 64.08 38.47 M25.38 87.45 C34 75.83, 45.48 63.84, 65.36 40.22 M28.99 88.14 C37.42 79.85, 47.27 67.35, 66.83 44.98 M31.03 86.42 C41.96 74.6, 52.24 60.95, 67.92 43.42 M34.75 86.93 C50.8 71.93, 60.66 54.7, 71.2 48.58 M35.23 86.14 C48.98 70.55, 61.4 55.75, 70.14 47.85 M38.87 86.35 C47.71 81.18, 51.97 73.42, 69.91 49.97 M41.71 87.3 C48.51 78.86, 54.51 69.76, 70.73 52.44 M45.99 86.01 C51.87 81.73, 55.46 78.95, 62.15 67.19 M47.02 87.01 C51.09 81.99, 54.82 77.63, 62.7 69.26" stroke="#8099dd" stroke-width="0.5" fill="none"></path><path d="M-0.79 -1.02 C-11.42 16.68, -22.28 36.28, -31.39 54.89 M-0.21 0.89 C-7.69 12.97, -15.58 27.3, -30.56 53.74 M-28.53 53.36 C-22.45 66.37, -15.18 75.08, -9.69 89.75 M-30.45 52.29 C-25.55 60.4, -21.94 67.65, -10.76 88.58 M-11.58 87.44 C11.85 88.09, 34.83 86.75, 52.1 85.73 M-9.91 87.28 C12.22 87.51, 37.03 86.82, 52.3 84.23 M52.65 83.8 C56.48 73.44, 63.82 63.33, 71.64 52.07 M52.62 84.86 C59.62 71.77, 65.42 58.92, 71.69 49.96 M69.62 51.09 C62.56 38.78, 54.62 25.8, 49.56 16.36 M70.19 50.72 C64.36 40.41, 58.72 29.34, 50.44 17.54 M48.43 15.89 C52.57 14.35, 53.86 8.03, 59.55 -0.75 M49.58 17.28 C52.29 12.96, 54.49 8.29, 59.72 1.06 M59.2 0.94 C44.15 0.89, 32.54 0.71, 0.59 1.6 M59.27 1.62 C43 0.14, 25.22 0.81, 0.41 -0.93 M0.16 0.01 C0.11 0, 0.04 0, -0.01 0 M0.17 -0.01 C0.12 -0.01, 0.06 0, 0 0" stroke="#8099dd" stroke-width="1" fill="none"></path></g></g><mask></mask><g stroke-linecap="round"><g transform="translate(131.85510674565103 62.30349764602056) rotate(0 -20.117800842851352 -15.664617890956606)" fill-rule="evenodd"><path d="M-31.02 -49.49 C-31.02 -49.49, -31.02 -49.49, -31.02 -49.49 M-31.02 -49.49 C-31.02 -49.49, -31.02 -49.49, -31.02 -49.49 M-40.53 -34.63 C-35.92 -38.08, -29.95 -42.12, -27.77 -44.91 M-38.91 -34.1 C-37.48 -36.55, -35.3 -39.61, -28.2 -46.28 M-37.58 -30.06 C-33.19 -33.41, -32.54 -36.35, -26.37 -40.93 M-37.48 -31.3 C-33.79 -33.48, -31.15 -37.08, -27.23 -42.66 M-36.52 -25.21 C-32.94 -30.74, -29.94 -32.32, -23.45 -39.44 M-34.64 -27.01 C-31.27 -30.59, -27.58 -33.61, -25.22 -38.91 M-33.27 -21.9 C-30.55 -26.59, -25.77 -31.86, -23.72 -33.98 M-33.13 -23.55 C-30.57 -25.08, -28.31 -28.92, -23.49 -34 M-29.7 -19.93 C-28.66 -23.07, -25.42 -28.16, -21.89 -30.06 M-31.27 -19.75 C-27.98 -22.49, -24.03 -26.95, -20.98 -30.99 M-28.73 -14.31 C-26.28 -17.26, -24.49 -21.42, -20.23 -28.35 M-28.99 -15.81 C-25.17 -19.24, -21.54 -23.5, -18.62 -26.98 M-27.9 -10.68 C-24.32 -13.5, -22.56 -16.75, -16.54 -22.09 M-26.62 -11.92 C-23.45 -15.28, -19.13 -19.26, -17.37 -22.12 M-24.39 -6.84 C-23.32 -12.44, -17.98 -14.94, -14.48 -18.16 M-24.61 -7.37 C-22.66 -10.57, -19.85 -13.46, -14.87 -18.82 M-23.13 -2.6 C-19.89 -6.9, -15.63 -13.03, -12.21 -15.48 M-22.48 -3.5 C-18.66 -7.6, -15.22 -11.93, -12.54 -14.89 M-20.9 0.8 C-19.03 -3.5, -17.16 -5.32, -11.98 -11.92 M-20.01 0.12 C-17.88 -4.47, -14.22 -6.97, -10.09 -12.49 M-17.45 2.82 C-14.05 1.31, -11.19 -4.58, -8.74 -6.64 M-19.18 2.79 C-15.22 -1.09, -11.12 -4.76, -9.7 -8.29 M-17.61 7.22 C-14.74 3.61, -9.36 -1.49, -5.74 -4.06 M-16.39 6.43 C-12.72 2.69, -10.06 -0.73, -5.96 -3.93 M-15.37 12.17 C-12.56 8.87, -8.79 5.47, -6.15 -1.15 M-14.87 11.24 C-11.27 6.18, -7.15 2.25, -5.05 -0.67 M-10.72 13.73 C-6.09 9.25, -4.13 3.82, 1.16 -0.58 M-12.42 15.07 C-9.02 11.01, -6.2 8.82, -0.16 0.81" stroke="#5a79d3" stroke-width="0.5" fill="none"></path><path d="M-1.28 -0.3 C-4.25 7.31, -6.06 10.43, -9.69 16.73 M-0.67 -0.66 C-5.04 6.44, -8.52 13.45, -11.56 17.15 M-12.13 15.73 C-18.49 5.59, -24.26 -7.72, -39.21 -34.93 M-11.38 17.82 C-21.92 -0.76, -30.24 -18.82, -40.45 -34.11 M-38.65 -36.09 C-38.41 -40.14, -32.87 -44.98, -31.13 -49.15 M-40.2 -35.36 C-37.55 -39.2, -33.84 -44.08, -31.07 -48.82 M-30.84 -48.25 C-20.53 -33.43, -11.63 -13.01, -1.07 1.12 M-30.93 -48.6 C-21.88 -32.05, -12.38 -14.82, -2.34 3.62 M-3.15 3.49 C-2.07 2.18, -0.9 1.34, 0.21 -0.3 M-2.89 3.14 C-2.16 2.2, -1.19 1.44, 0.17 0.18" stroke="#5a79d3" stroke-width="1" fill="none"></path></g></g><mask></mask><g stroke-linecap="round"><g transform="translate(31.6580663986158 100.86161066354293) rotate(0 45.22117808944836 -9.917016543481395)" fill-rule="evenodd"><path d="M0 0 C0 0, 0 0, 0 0 M0 0 C0 0, 0 0, 0 0 M2.02 3.36 C3.4 2.38, 3.75 1.63, 5.44 -0.16 M2.22 3.37 C3.17 2.28, 4.3 1.23, 5.52 -0.34 M3.05 6.45 C5.91 5.52, 7.38 4.11, 10.41 0.28 M4.35 7.52 C6.56 4.07, 9.93 1.22, 11.56 -0.93 M5.76 10.49 C9.12 8.49, 11.67 4.16, 17.68 0.4 M6.02 10.37 C9.86 6.84, 14.51 1.74, 16.97 -0.99 M9.26 12.32 C14.3 10.65, 17.01 5, 23.06 -1.4 M8.77 14.15 C11.76 10.76, 14.16 7.15, 21.84 -2.31 M12.88 15.43 C20.15 7.88, 20.8 3.72, 28.88 -1.75 M13.1 13.92 C17.13 11.23, 20.67 6.72, 27.87 -1.96 M17.9 13.07 C23.87 10.79, 25.64 8.49, 35.05 -3.19 M20.39 13.41 C24.07 8.48, 29.39 3.59, 34.33 -1.98 M23.07 14.74 C26.05 11.74, 29.51 6.36, 37.58 -4.5 M24.3 14.72 C28.1 8.58, 33.64 3.91, 38.68 -3.61 M29.88 15.33 C33.45 10.72, 34.33 7.72, 46.97 -3.48 M28.41 14.76 C34.41 9.2, 40.2 2.39, 45.93 -2.18 M34.81 14.2 C37.92 7.45, 42.87 3.65, 52.37 -2.11 M35.6 14.62 C39.73 9.29, 44.57 4.17, 51.13 -2.97 M39.55 16.31 C44.81 8.16, 49.63 2.95, 55.83 -5.78 M40.56 13.93 C44.61 8.36, 50.04 3.69, 56.7 -4.17 M82.67 -34.13 C82.67 -34.13, 82.67 -34.13, 82.67 -34.13 M82.67 -34.13 C82.67 -34.13, 82.67 -34.13, 82.67 -34.13 M45.01 15.94 C57.92 2.38, 71.41 -12.02, 85.69 -29.81 M45.51 14.93 C54.52 3.31, 65.07 -7.95, 84.4 -31.35 M49.6 15.25 C59.2 2.8, 69.43 -5.87, 86.86 -28.03 M50.19 14.18 C59.26 3.84, 69.79 -5.62, 85.78 -25.73 M56.07 13.99 C64.36 2.92, 73.27 -3.82, 89.16 -25.19 M55.8 16.21 C69.48 -0.33, 80.97 -13.98, 89.01 -23.94 M60.74 15.54 C71.03 1.47, 82.48 -8.4, 93.03 -20.67 M60.79 14.15 C71.42 2.11, 82.3 -10.07, 90.95 -20.41 M68.25 15.67 C69.38 9.91, 73.43 8.64, 83.14 -0.79 M66.83 15.23 C70.89 9.08, 76.18 4.18, 81.48 -1.33 M8.65 14.44 C8.65 14.44, 8.65 14.44, 8.65 14.44 M8.65 14.44 C8.65 14.44, 8.65 14.44, 8.65 14.44 M14.2 14.38 C10.61 11.19, 6.63 7.13, 3.58 2.33 M13.51 14.25 C11.42 11.32, 8.59 9.37, 1.92 3.64 M21.03 15.67 C12.44 10.19, 7.99 2.43, 1.07 -1.22 M20.65 13.55 C14.82 9.28, 8.8 3.63, 1.87 -1.83 M27.88 15.84 C23.45 11.75, 15.93 5.7, 8.93 -3.67 M26.54 15.3 C20.36 8.94, 14.62 3, 7.91 -3.25 M32.2 15.68 C25.35 9.42, 20.13 7.02, 13.32 -3.61 M32.2 14.2 C25.27 8.99, 19.74 1.97, 12.56 -3.54 M39.17 14.88 C33.28 9.37, 27.33 3.82, 17.15 -3.7 M39.73 14.28 C32.21 8.48, 27.32 3.73, 18.71 -4.18 M47.3 13.04 C37.9 10.84, 32.07 3.01, 22.66 -5.44 M44.99 14.06 C40.58 10.61, 36.55 6.14, 23.97 -4.3 M51.64 15.09 C47.19 12.34, 40.87 5.09, 29.58 -4.34 M51.05 15.33 C43.41 7.7, 36.6 2.43, 30.01 -3.62 M56.48 14.78 C47.6 5.84, 42.34 0.36, 35.28 -3.11 M58.01 14.88 C51.95 9.45, 48.22 5.44, 34.99 -4.31 M62.55 16.15 C60.54 10.58, 51.92 4.2, 41 -6.85 M64.54 15.26 C55.2 7.1, 46.29 -0.04, 40.98 -3.94 M67.9 13.69 C65.52 11.45, 58.49 7.32, 48.03 -4.22 M69.88 15.25 C63.83 8.07, 56.14 3.59, 46.36 -5.38 M69.64 12.55 C64.51 5.63, 62.44 0.01, 51.89 -6.68 M71.86 11.28 C66.19 4.59, 59.45 1.15, 53.2 -5.68 M75.13 9.12 C70.32 2.54, 61.89 0.08, 58.52 -5.6 M73.3 8.4 C69.62 2.34, 63.31 -0.92, 57.71 -5.99 M76.5 2.53 C74.79 2.67, 70.25 -0.21, 62.75 -7.31 M76.68 4.45 C73.62 1.09, 69.76 -0.61, 63.68 -6.48 M77.8 0.61 C73.89 -0.85, 73.04 -4.86, 66.99 -10.48 M78.55 0.79 C73.7 -4.19, 69.7 -6.47, 65.01 -9.64 M78.95 -3.66 C76.66 -6.91, 73.85 -11.08, 67.22 -13.83 M79.95 -2.87 C75.65 -6.53, 73.22 -9.66, 67.98 -14.54 M82.79 -7.41 C76.94 -9.93, 73.59 -13.83, 71.68 -16.01 M81.1 -6.33 C76.71 -11.08, 72.51 -13.89, 70.7 -16.25 M83.37 -11.38 C80.21 -12.13, 74.8 -16.55, 71.84 -20.53 M84 -9.81 C81.04 -13.37, 76.67 -16, 71.67 -20.2 M86.28 -15.14 C83.42 -17.54, 81.01 -18.09, 75.58 -23.1 M86.12 -14.37 C83.76 -15.38, 80.5 -18.44, 75.05 -23.42 M88.53 -17.99 C85.49 -20.97, 81.91 -23.46, 75.44 -28.27 M88.1 -17.73 C84.03 -20.73, 81.1 -23, 76.53 -26.61 M89.78 -20.19 C87.75 -22.27, 86.32 -23.87, 79 -30.03 M90.38 -20.75 C87.08 -23.86, 84.64 -25.3, 79 -30.42 M84.46 -30.88 C82.73 -32.12, 81.63 -33.23, 80.9 -34.03 M84.05 -31.33 C83.06 -32.14, 81.62 -33.32, 81.17 -33.86" stroke="#385bc9" stroke-width="0.5" fill="none"></path><path d="M-1.1 -0.76 C2.27 3.48, 2.04 6.68, 7.89 12.96 M-0.51 0.3 C2.46 3.48, 4.56 7.46, 8.65 14.17 M8.79 14.49 C30.16 13.48, 48.93 16.02, 69.98 13.51 M8.74 14.8 C28.28 13.75, 48.52 14.97, 68.85 14.7 M68.85 16.1 C74.96 8.13, 78.69 1.14, 91.54 -21.78 M68.75 15.58 C75.74 4.51, 81.65 -5.65, 90.01 -20.21 M88.8 -21.51 C88.14 -22.75, 85.13 -26.28, 82.11 -35.94 M90.01 -21.13 C86.04 -27.03, 82.75 -31.43, 81.64 -35.67 M81.17 -33.74 C74.14 -26.25, 71.55 -15.44, 59.89 -6.25 M82.32 -34.56 C75.36 -25.38, 68.5 -15.72, 62.11 -4.23 M60.24 -5.71 C41.03 -2.56, 18.57 -3.16, -0.52 -0.2 M61.85 -4.46 C39.14 -2.39, 17.52 -1.01, 0.6 0.18 M0 0 C0 0, 0 0, 0 0 M0 0 C0 0, 0 0, 0 0" stroke="#385bc9" stroke-width="1" fill="none"></path></g></g><mask></mask><g stroke-linecap="round"><g transform="translate(43.8012186719634 134.9136383055063) rotate(0 17.363906277120805 43.43434797736995)" fill-rule="evenodd"><path d="M0 0 C0 0, 0 0, 0 0 M0 0 C0 0, 0 0, 0 0 M-10.35 18.25 C-6.42 11.42, 1.45 6.88, 3.18 1.41 M-12.85 19.73 C-6.27 14.64, -2.54 7.85, 4.89 0.87 M-23.27 41.47 C-14.67 28.18, -2.93 16.59, 12.37 -0.28 M-24.08 40.62 C-10.81 24.82, 3.1 9.65, 9.81 0.35 M-29.8 52.7 C-20.61 39.91, -4.98 26.03, 17.31 -1.31 M-31.05 54.8 C-20.49 40.83, -7.95 26.92, 15.7 -0.38 M-28.35 56.67 C-11.81 37.09, 8.17 16.92, 20.11 -0.77 M-30.04 57.7 C-13.56 40.24, 1.25 24.02, 19.89 1.49 M-27.88 63.71 C-10.5 43.81, 8.32 23.63, 26.08 1.18 M-27.81 61.41 C-10.59 42.01, 7.67 23.88, 26.54 1.78 M-26.84 65.97 C-9.58 44.27, 10.43 23.5, 31.88 -0.01 M-24.23 65.21 C-3.29 39.58, 18.61 15.65, 32.05 1.21 M-23.47 70.72 C-0.42 43.38, 22.61 18.69, 35.65 1.9 M-23.28 68.02 C-1.5 43.74, 20.06 21.25, 35.54 0.8 M-20.37 73.54 C-5.77 58.6, 6.06 41.13, 39.85 1.62 M-21.38 71.83 C0.15 50.97, 18.07 27.93, 40.86 0.78 M-18.35 77.23 C-4.85 58, 9.94 42.53, 45.34 1.56 M-17.92 75.83 C3.92 52, 25.18 26.18, 47.07 2.01 M-15.6 80 C8.51 54.14, 29.24 28.94, 51.6 0.45 M-16.16 78.84 C4.21 56.47, 24.08 31.54, 51.85 1.85 M-12.89 81.69 C3.26 64.36, 17.8 45.22, 54.86 0.61 M-13.17 82.69 C4.83 61.15, 22.43 40.28, 55.98 1.62 M-13.41 84.67 C7.71 66.79, 25.56 44.26, 49.09 17.39 M-11.36 87.4 C4.04 69.26, 21.2 49.13, 47.55 17.3 M-8.66 88.29 C8.49 71.36, 20.57 52.11, 48.03 22.83 M-9.13 88.82 C10.58 69.32, 26.76 46.94, 50.31 21.37 M-5.63 89.55 C17.46 65.17, 38.42 39.91, 52.47 26.05 M-3.69 89.53 C15.05 66.92, 35.08 45.89, 52.21 26.42 M3.44 90.12 C17.08 69.29, 35.27 50.91, 53.7 28.41 M2.37 89.04 C14.68 73.34, 28 59.24, 53.18 30.55 M7.77 90.16 C23.73 67.08, 44.83 49.09, 54.46 32.48 M6.13 89.91 C21.78 72.02, 37.74 54.57, 55.28 33.57 M10.85 88.34 C29.07 70.32, 49.42 47.39, 57.12 35.51 M12.41 88.91 C22.94 76.13, 35.93 62.7, 59.22 36.64 M17.29 88.24 C28.07 78.69, 37.28 67.6, 60.46 41.38 M16.89 89.66 C33.63 70.73, 48.78 53.14, 60.43 39.47 M21.64 90.79 C36.61 74.85, 49.55 61.35, 62.5 42.47 M22.27 90.33 C33.05 78.37, 43.43 66.85, 62.09 44.43 M29.84 89.23 C35.13 80.14, 46.56 68.7, 62.65 47.18 M27.9 88.74 C36.37 80.6, 42.55 72.18, 64.69 47.23 M32.71 89.27 C44.03 76.65, 55.32 62.23, 67.83 50.05 M32.66 89.83 C46.58 73.85, 60.01 60.56, 66.29 51.33 M40.1 91.29 C46.31 78.27, 58.01 68.58, 70.64 55.27 M39.29 90.01 C46.58 79.23, 56.58 69.2, 68.11 54.58 M42.39 90.55 C52.34 84.16, 58.63 73.54, 61.69 70.61 M43.27 90.6 C49.77 82.32, 57.24 73.89, 61.02 71.48" stroke="#8099dd" stroke-width="0.5" fill="none"></path><path d="M-1.25 -1.28 C21.54 -0.46, 39.88 2.38, 55.26 -0.12 M-0.69 0.23 C10.97 0.73, 23.38 0.31, 56.55 1.84 M55.88 2 C52.49 6.31, 51.77 13.22, 47.9 17.02 M57.95 1.49 C53.89 4.97, 51.82 9.12, 47.01 17.87 M48.1 16.31 C52.68 24.97, 55.71 33.96, 68.53 52.84 M47.92 17.43 C52.07 27.87, 57.87 36.82, 66.53 51.91 M65.43 51.31 C59.51 59.82, 56.12 70.3, 48.92 87.57 M65.65 51.43 C62.16 59.62, 58.42 67.84, 46.3 87.06 M47.58 87.95 C34.11 87.09, 23.25 88.39, -11.42 87.79 M46.43 88.12 C34.61 87.81, 21.26 87.18, -11.94 87.16 M-10.55 86.2 C-19.17 73.91, -27.55 61.13, -32.25 55.46 M-11.52 88.54 C-18.73 76.09, -25.05 65.1, -32.26 53.7 M-33.8 53.84 C-25.64 42.21, -18.44 30.77, -1.72 -1.67 M-33.63 53.13 C-23.52 39.55, -14.98 24.77, -0.48 -0.52 M0 0 C0 0, 0 0, 0 0 M0 0 C0 0, 0 0, 0 0" stroke="#8099dd" stroke-width="1" fill="none"></path></g></g><mask></mask><g stroke-linecap="round"><g transform="translate(129.15737078175403 186.98860486295848) rotate(0 -18.48165753651847 -16.36459715925139)" fill-rule="evenodd"><path d="M-27.34 -50.27 C-27.34 -50.27, -27.34 -50.27, -27.34 -50.27 M-27.34 -50.27 C-27.34 -50.27, -27.34 -50.27, -27.34 -50.27 M-37.58 -35.37 C-33.2 -38.56, -27.6 -43.1, -25.72 -47.44 M-36.72 -34.84 C-31.29 -39.23, -28.41 -43.82, -24.18 -47.02 M-32.48 -31.2 C-29.03 -34.67, -25.64 -38.59, -21.81 -42.68 M-34.1 -30.76 C-30.52 -34.89, -26.21 -37.62, -23.82 -42.78 M-31.43 -27.23 C-27.38 -31.38, -24.11 -35.79, -21.9 -39.42 M-32.29 -26.97 C-28.94 -30.73, -26.89 -33.63, -21.7 -40.2 M-30.36 -23.77 C-25.05 -25.22, -22.71 -30.65, -18.35 -35.22 M-30.26 -21.99 C-27.69 -25.86, -25.04 -29.63, -19.56 -35.46 M-27.9 -18.24 C-23.31 -21.64, -22.46 -25.46, -17.73 -32.97 M-28.63 -19 C-24.92 -22.21, -22.98 -26.43, -16.64 -32.69 M-25.31 -14.49 C-22.45 -20.53, -18.41 -22.95, -15.19 -27.94 M-26.33 -15.53 C-23.63 -18.57, -20.52 -22.05, -15.52 -27.39 M-25.24 -10.17 C-19.65 -16.88, -16.71 -20.78, -14.01 -25.63 M-24.22 -11.08 C-21.58 -14.96, -19.02 -18.6, -13.46 -24.88 M-20.89 -6.38 C-18.96 -11.46, -13.17 -16.56, -9.43 -21.62 M-22.02 -6.99 C-18.48 -12.12, -16.07 -15.82, -11.64 -20.16 M-21.54 -4.98 C-19.54 -6.28, -15.15 -7.39, -8.9 -16.61 M-20.85 -4 C-18.46 -7.19, -15.24 -9.38, -8.49 -16.68 M-18.31 2.52 C-15.16 -2.93, -11.34 -8.68, -8.79 -13.06 M-19.33 1.59 C-14.72 -3.04, -12.2 -6.39, -7.1 -12.87 M-17.03 5.68 C-12.38 1.2, -9.39 -3.16, -3.63 -9.22 M-16.28 4.57 C-12.13 -0.39, -9.48 -5.13, -4.85 -8.7 M-16.37 7.85 C-12.61 4.19, -8.5 1.66, -1.98 -6.98 M-14.43 8.63 C-11.89 5.05, -9.44 1.62, -2.89 -4.67 M-14.03 10.92 C-9.3 7.4, -5.8 4.25, -0.45 -1.55 M-13.77 13.28 C-8.77 7.03, -3.22 1.79, -0.88 -1.14 M-9.4 16.52 C-5.92 10.1, -3.94 5.44, 1.5 2.33 M-11.44 15.3 C-8.59 12.39, -5.28 10.64, 1.3 1.73" stroke="#5a79d3" stroke-width="0.5" fill="none"></path><path d="M0.37 -0.58 C-5.05 5.06, -6.49 11.98, -12.02 18.34 M-0.11 0.33 C-3.57 6.07, -7.4 11.57, -10.59 17.76 M-9.3 17.99 C-21.16 -0.7, -28.54 -20.06, -36.21 -34.02 M-10.57 16.86 C-19.16 -0.33, -26.91 -17.78, -37.33 -34.62 M-35.55 -33.63 C-34.44 -40.78, -29.25 -47.43, -28.6 -49.34 M-36.22 -35.03 C-33.41 -40.86, -30.36 -44.4, -27.57 -51.07 M-26.11 -50 C-19.19 -33.59, -12.18 -20.55, -0.33 -3.26 M-26.17 -50.55 C-21.99 -39.88, -16.13 -29.46, -1.06 -1.4 M-0.66 -2.4 C-0.9 -1.7, -0.65 -1.25, 0.18 0.2 M-0.82 -2.14 C-0.56 -1.44, -0.25 -0.74, -0.07 -0.09" stroke="#5a79d3" stroke-width="1" fill="none"></path></g></g><mask></mask><g stroke-linecap="round"><g transform="translate(91.78336920972356 223.58909199671257) rotate(0 -14.595759547262674 -11.162322462478187)" fill-rule="evenodd"><path d="M-59.3 0.12 C-59.3 0.12, -59.3 0.12, -59.3 0.12 M-59.3 0.12 C-59.3 0.12, -59.3 0.12, -59.3 0.12 M-57.79 3.73 C-57.15 3.5, -55.2 2.35, -54.24 0.32 M-57.69 4.23 C-56.72 3.11, -55.43 1.49, -53.68 -0.3 M-55.66 7.32 C-52.7 5.84, -50.9 3.97, -49.33 -0.49 M-54.81 7.67 C-53.3 4.91, -51.28 2.36, -48.33 0.39 M-54.33 12.16 C-50.95 9.02, -48.54 7.61, -44.21 -0.74 M-54.2 10.98 C-49.7 7.1, -45.86 3.81, -43.7 -1.04 M-52.94 16.4 C-47.58 12.3, -41.98 5.99, -36.12 1.75 M-51.33 14.53 C-47.8 10.59, -44.27 7.15, -37.7 -0.63 M-46.43 13.1 C-42.89 10.88, -41.36 8.27, -32.88 -2.2 M-46.49 14.33 C-40.16 10.01, -35.99 4.49, -32.41 0.37 M-38.85 14.83 C-35.71 9.62, -31.82 8.15, -26.32 0.34 M-40.6 14.36 C-35.06 10.49, -30.27 3.37, -27.69 0.58 M-34.23 15.4 C-29.88 7.97, -25.28 3.66, -23.45 0.48 M-35.07 14.34 C-31.66 11.32, -28.06 6.18, -22.63 -0.95 M-29.75 13.29 C-26.1 11.45, -20.51 3.59, -15.16 1.66 M-29.7 16.06 C-25.24 11.53, -21.45 5.89, -15.91 -0.47 M-25.7 13.77 C-21.56 9.86, -16.82 3.87, -12.78 0.5 M-24.37 13.77 C-20.63 9.58, -14.38 4.43, -11.12 0.59 M19.04 -35.13 C19.04 -35.13, 19.04 -35.13, 19.04 -35.13 M19.04 -35.13 C19.04 -35.13, 19.04 -35.13, 19.04 -35.13 M-19.44 15.92 C-17.72 10.51, -15.01 6.59, -7.78 0.25 M-18.21 14.9 C-13.66 9.44, -10.68 5.59, -6.95 -0.39 M11.4 -19.9 C14.43 -20.66, 13.75 -25.73, 22.41 -30.24 M10.31 -19.35 C15.35 -23.38, 18.13 -28.89, 21.35 -32.49 M-14.64 14.38 C-10.59 11.09, -6.35 7.42, -1.26 -0.34 M-13.14 13.8 C-9.15 10.6, -7.12 6.22, -0.87 0.69 M5.23 -6.72 C9.44 -10.32, 14.58 -18.15, 21.22 -29.39 M4.36 -4.27 C9.6 -12.53, 17.59 -20.7, 23.34 -27.12 M-9.94 15.02 C-0.21 4.03, 6.55 -1.63, 25.67 -25.37 M-7.88 14.27 C-1.03 5.41, 7.8 -3.87, 25.8 -23.49 M-2.61 14.45 C10.6 1.58, 20.63 -11.76, 27.58 -20.61 M-2.42 14.76 C8.61 0.67, 19.98 -11.07, 26.88 -21.4 M0.99 13.53 C7.32 7.04, 14.95 1.39, 28.55 -19.08 M3.61 15.07 C11.54 3.46, 20.64 -7.96, 30.94 -18.19 M-52.04 14.13 C-52.04 14.13, -52.04 14.13, -52.04 14.13 M-52.04 14.13 C-52.04 14.13, -52.04 14.13, -52.04 14.13 M-45.31 12.69 C-49.89 9.37, -52.03 8, -58.13 5.29 M-46.56 13.71 C-48.81 11.28, -50.69 9.15, -57.34 4.55 M-39.25 14.1 C-43.68 9.89, -49.31 7.06, -57.65 -3.56 M-40.5 14.96 C-43.87 10, -49.82 5, -58.62 -1.21 M-35.25 13.83 C-41.16 6.85, -48.23 1.08, -52.87 -1.79 M-33.36 13.2 C-37.69 9.84, -43.24 5.23, -52 -2.2 M-28 13.9 C-34.88 7.69, -40.49 3.6, -45.81 0.1 M-27.42 13.97 C-32.26 8.94, -37.91 5.29, -44.95 -0.54 M-24.03 12.56 C-27.73 11.42, -30.14 3.7, -40.24 -2.7 M-22.28 14.37 C-26.47 9.15, -32.01 5.63, -40.53 -0.7 M-16.46 15.28 C-19.82 11.65, -22.94 7.34, -33.97 -0.75 M-16.82 13.61 C-22.62 8.59, -28.61 1.85, -32.99 -0.97 M-10.17 13.73 C-16.62 9.22, -21.59 1.99, -29.25 -0.74 M-10.15 14.24 C-13.91 9, -18.91 4.72, -26.94 -2.7 M-4.97 13.16 C-8.88 9.32, -10.52 8.2, -21.96 -0.06 M-3.44 12.75 C-7.53 9.93, -13.51 5.07, -22.22 -0.6 M3.16 11.39 C-1.68 10.45, -4.41 7.44, -16.05 -1.22 M1.1 12.74 C-1.51 10.04, -6.47 6.85, -15.13 -1.98 M6.94 14.19 C3.93 8.78, -1.02 5.24, -8.53 -1.69 M8.37 13.62 C2.86 7.99, -4.01 4.03, -9 -2.31 M11.46 11.54 C6.92 5.25, 3.68 3.26, -4.15 -1.69 M10.45 11 C8.3 8.12, 5.05 5.88, -2 -1.85 M12.13 8.48 C10.22 4.74, 6.55 2.63, 2.43 -1.69 M12.98 7.07 C11 5.85, 7.99 3.55, 2.33 -2.65 M15.68 2.98 C9.74 -1.17, 5.18 -2.63, 4.08 -6.56 M15.13 4.38 C11.43 0.84, 9.36 -1.44, 3.4 -6.83 M18.26 1.34 C14.19 -2.5, 9.82 -5.66, 6.91 -9.7 M16.72 -0.46 C13.39 -3.1, 8.87 -7.13, 5.64 -9.83 M20.51 -3.24 C14.83 -6.92, 11.06 -10.92, 8.66 -13.15 M20.19 -2.31 C15.25 -6.95, 11 -11.83, 7.09 -13.72 M20.96 -7.13 C19.45 -8.75, 13.91 -13.67, 8.11 -15.84 M22.41 -6.73 C18.95 -8.82, 16.11 -11.4, 9.31 -16.5 M24.98 -10.21 C19.95 -14.95, 15.64 -17.51, 11.29 -21.16 M22.97 -10.31 C20.76 -12.85, 16.94 -15.18, 11.12 -20.41 M25.16 -13.35 C21.9 -16.8, 19.92 -19.94, 12.48 -24.05 M25.35 -14.13 C23.79 -15.9, 21.12 -17.98, 12.63 -23.64 M28.87 -16.95 C22.3 -22.06, 19.27 -25.31, 16.03 -28.58 M27.65 -17.2 C24.2 -19.75, 20.29 -23.41, 15.58 -27.3 M29 -21.76 C24.73 -24.03, 22.24 -29.75, 17.13 -31.4 M30.08 -21.48 C26.06 -23.8, 21.02 -27.66, 17.26 -31.74" stroke="#385bc9" stroke-width="0.5" fill="none"></path><path d="M-0.18 -0.45 C5.71 -10.34, 7.94 -18.05, 19.92 -36.11 M-0.76 -0.14 C4.71 -8.61, 8.92 -19.44, 18.19 -35.47 M17.49 -35.05 C18.76 -30.98, 21.91 -29.06, 29.67 -19.52 M19.17 -36.44 C21.38 -30.36, 23.49 -27.04, 28.93 -19.29 M30.36 -19.52 C24.92 -12.4, 19.73 -4.66, 7.58 13.3 M28.16 -18.49 C21.69 -8.56, 15.69 3.44, 8.5 12.43 M10.11 11.51 C-15.38 14.5, -35.51 12.07, -51.09 14.12 M8.25 13.99 C-9.1 13.99, -24.79 14.44, -52.8 13.57 M-53.59 12.91 C-53.37 8.84, -56.45 6.21, -59.55 -0.13 M-52.85 13.42 C-54.82 10.39, -56.24 5.14, -59.13 0.12 M-57.78 0.07 C-43.14 -0.25, -27.67 1.04, 1.31 0.27 M-58.33 -0.36 C-45.3 -0.97, -33.66 0.2, 0.69 0.29 M0 0 C0 0, 0 0, 0 0 M0 0 C0 0, 0 0, 0 0" stroke="#385bc9" stroke-width="1" fill="none"></path></g></g><mask></mask></svg>