<svg version="1.1" xmlns="http://www.w3.org/2000/svg" viewBox="0 0 236.5871309202621 256.15090151236154" width="236.5871309202621" height="256.15090151236154">
  <!-- svg-source:excalidraw -->
  
  <defs>
    <style class="style-fonts">
      @font-face {
        font-family: "Virgil";
        src: url("https://excalidraw.com/Virgil.woff2");
      }
      @font-face {
        font-family: "Cascadia";
        src: url("https://excalidraw.com/Cascadia.woff2");
      }
    </style>
  </defs>
  <g stroke-linecap="round" transform="translate(92.95044477999272 10) rotate(0 26.16495513164398 25.708191432037438)"><path d="M5.8 10.34 C5.8 10.34, 5.8 10.34, 5.8 10.34 M5.8 10.34 C5.8 10.34, 5.8 10.34, 5.8 10.34 M3.84 19.88 C7.63 17.96, 11.23 12.27, 15.58 3.08 M2.7 19.59 C6.07 16.9, 7.63 14.54, 16.8 4.35 M-1.26 27.03 C6.04 19.54, 11.81 15.39, 21.85 0.6 M0.73 27.71 C9.23 19.7, 18.03 9.33, 23.45 3.01 M4.02 34.53 C9.98 24.43, 12.35 19.63, 29.03 4.96 M1.57 32.23 C8.22 26.88, 14.29 20.21, 27.37 3.81 M2.69 35.32 C12.36 29.16, 19.51 17.19, 30.37 5.2 M4.2 37.01 C10.96 30.94, 14.7 24.39, 32.73 4.17 M7.21 38.87 C18.01 29.97, 27.17 19.13, 37.68 5.46 M5.13 39.9 C14.44 30.26, 23.21 21.19, 38.28 3.65 M7.06 43 C20.21 32.08, 28.67 19.39, 41.56 8.34 M9.16 44.88 C19.73 29.88, 31.98 16.56, 41.84 6.54 M12.26 45.44 C18.9 35.24, 28.27 26.64, 44.74 10.89 M11.16 46.85 C21.31 34.43, 32.43 21.96, 42.83 10.14 M13.59 46.95 C24.93 37.97, 35 26.92, 47.74 10.95 M15.49 47.08 C25.7 36.5, 33.3 27.57, 46.15 12.41 M18.08 50.3 C24.9 42.07, 33.9 36.21, 49.68 13.51 M19.69 49.43 C25.49 42.99, 32.96 34.74, 50.23 14.56 M21.85 50.63 C32.62 39.14, 44.24 27.14, 50.51 19.22 M22.56 51.03 C30.59 43.41, 38.38 32.85, 51.46 18.9 M28.93 51.26 C34.75 43.54, 40.51 34.28, 52.48 25.96 M29.23 51.33 C35.89 40.86, 44.68 32.47, 52.9 24.66 M33.62 49.49 C40.26 43.4, 49.89 35.81, 51.66 31.92 M34.65 50.22 C38.66 44.33, 42.74 39.89, 51.96 30.31" stroke="#aac3f5" stroke-width="0.5" fill="none"></path><path d="M37.82 3.88 C42.75 6.25, 48.69 12.26, 50.79 17.13 C52.89 22, 52.08 28.08, 50.41 33.1 C48.74 38.11, 45.49 44.22, 40.75 47.21 C36.01 50.19, 27.81 51.9, 21.98 51 C16.15 50.11, 9.4 45.77, 5.76 41.83 C2.12 37.88, 0.11 32.57, 0.12 27.31 C0.14 22.06, 2.24 14.69, 5.86 10.27 C9.48 5.86, 15.94 1.62, 21.85 0.82 C27.76 0.02, 37.69 4.22, 41.35 5.49 C45.01 6.75, 43.91 8.02, 43.79 8.4 M39.65 3.46 C44.61 5.44, 47.77 11.02, 49.47 16.08 C51.17 21.13, 51.49 28.39, 49.85 33.79 C48.22 39.2, 44.19 45.51, 39.68 48.51 C35.16 51.5, 28.03 52.6, 22.75 51.76 C17.47 50.91, 11.67 47.43, 7.99 43.44 C4.31 39.46, 1.24 33.17, 0.67 27.84 C0.09 22.52, 1.08 16, 4.52 11.5 C7.96 6.99, 15.47 2.05, 21.33 0.83 C27.19 -0.4, 36.73 3.75, 39.67 4.15 C42.6 4.55, 39.31 2.97, 38.95 3.25" stroke="#aac3f5" stroke-width="1" fill="none"></path></g><g stroke-linecap="round" transform="translate(181.0131155953252 63.62770719017476) rotate(0 20.050882047705727 20.736041595547363)"><path d="M5.53 6.13 C5.53 6.13, 5.53 6.13, 5.53 6.13 M5.53 6.13 C5.53 6.13, 5.53 6.13, 5.53 6.13 M3.5 17.83 C6.3 13.12, 6.96 8.59, 12.21 2.2 M2.62 16.11 C3.81 14.26, 7.24 10.8, 13.61 1.99 M2.42 19.06 C7.79 15.71, 13.74 5.73, 21.21 -0.35 M3.81 20.92 C8.01 15.95, 10.65 13.31, 19.33 0.76 M5.71 24.5 C7.98 19.4, 16.57 14.35, 22.99 3.36 M4.18 26.88 C8.81 22.15, 12.08 17.15, 24.25 3.13 M4.26 34.37 C13.63 20.27, 22.05 10.66, 27.44 1.9 M4.81 33.23 C10.12 24.75, 18.78 15.58, 29.59 2.92 M8.79 35.69 C12.85 30.72, 17.01 24.73, 32.49 3.19 M6.48 34.52 C14.62 26.64, 23.08 17.09, 33.11 4.21 M11.72 37.31 C20.47 24.63, 30.7 16.65, 36.6 7.76 M9.59 36.75 C16.38 29.22, 23.56 22.53, 35.07 8.79 M11.86 38.71 C17.92 33.93, 24.27 29.92, 38.38 12.32 M12.12 40.39 C18.83 33.02, 24.05 27.25, 37.98 11.06 M15.32 44.51 C25.28 34.03, 36.34 19.96, 40.09 13.57 M16.71 42.24 C24.22 33.63, 33.74 22.38, 39.36 14.07 M20.97 41.55 C29.03 36.89, 33.67 27.51, 41.8 16.73 M21.38 42.75 C26.36 37.31, 32.1 30.84, 44.13 17.41 M3.39 32.68 C3.39 32.68, 3.39 32.68, 3.39 32.68 M3.39 32.68 C3.39 32.68, 3.39 32.68, 3.39 32.68 M15.72 39.27 C11.31 34.47, 9.56 34.25, 2.97 27.82 M15.78 38.09 C12.9 35.39, 9.64 32.82, 3.09 26.08 M19.82 39.23 C16.2 32.89, 7.35 26.98, -0.27 19.3 M20.78 37.06 C15.87 32.52, 11.01 28.47, 0.09 20.89 M27.31 36.08 C22.23 31.03, 17.04 26.48, 1.99 15.22 M27.09 37.9 C21.87 33.31, 15.48 26.26, 2.45 16.38 M31.45 36.64 C20.98 25.95, 10.27 20.96, 4.13 13.04 M31.38 35.42 C23.73 27.76, 15.29 22.48, 3.5 12.35 M32.9 34.48 C24.38 22.63, 13.5 14.74, 6.03 6.93 M34.72 33.35 C24.93 25.15, 16.8 19.03, 6.01 8.07 M36.4 30.17 C32.04 23.23, 23.41 16.56, 7.06 5.41 M37.33 29.88 C25.13 20.7, 14.76 11.72, 7.33 4.09 M38.65 26.16 C28.55 17.06, 16.4 6.41, 10.53 1.4 M39.76 26.71 C31.3 19.12, 21.96 11.98, 12.06 1.58 M40.24 24.85 C36.43 19.6, 29.52 13.68, 14.58 3.17 M41.06 22.51 C32.85 15.36, 24.77 7.79, 16.18 1.59 M40.67 18.07 C33.37 13.72, 27.57 7.5, 19.14 -0.92 M40.94 18.59 C36.45 12.91, 30.53 8.93, 20.23 -0.98 M41.75 13.23 C38.85 11.81, 32.66 6.89, 29.35 2.88 M43.35 14.37 C37.66 9.06, 33.01 6.53, 27.99 0.38" stroke="#6691ee" stroke-width="0.5" fill="none"></path><path d="M19.17 0.84 C23.28 0.08, 27.93 0.86, 31.49 3.3 C35.05 5.75, 39.48 11.09, 40.52 15.53 C41.55 19.97, 39.91 26.04, 37.69 29.94 C35.47 33.83, 31.07 36.96, 27.19 38.9 C23.31 40.84, 18.35 42.6, 14.39 41.57 C10.43 40.54, 5.66 36.54, 3.43 32.72 C1.2 28.89, 0.61 23.08, 0.99 18.61 C1.37 14.15, 2.36 8.96, 5.71 5.92 C9.06 2.89, 17.91 1.14, 21.09 0.4 C24.27 -0.34, 24.56 1.35, 24.8 1.5 M26.04 1.46 C29.52 2.63, 33.94 6.73, 36.14 10.73 C38.34 14.72, 39.78 21.04, 39.24 25.45 C38.71 29.86, 35.95 34.44, 32.94 37.17 C29.92 39.9, 25.35 41.75, 21.17 41.83 C16.98 41.91, 11.43 40.3, 7.81 37.63 C4.19 34.95, 0.14 30.28, -0.57 25.77 C-1.29 21.27, 0.99 14.47, 3.52 10.59 C6.05 6.72, 10.56 4.08, 14.62 2.51 C18.67 0.93, 25.75 1.18, 27.85 1.14 C29.95 1.11, 27.48 1.9, 27.22 2.31" stroke="#6691ee" stroke-width="1" fill="none"></path></g><g stroke-linecap="round" transform="translate(174.05472247059447 152.07571283812263) rotate(0 26.266204224833814 26.39481265807308)"><path d="M3.02 13.22 C3.02 13.22, 3.02 13.22, 3.02 13.22 M3.02 13.22 C3.02 13.22, 3.02 13.22, 3.02 13.22 M3.63 20.69 C5.06 14.55, 8.64 9.94, 16.26 3.14 M1.3 21.32 C5.34 17.09, 8.29 12.1, 18.4 1.29 M-0.08 28.64 C5.19 19.77, 13.09 13.53, 21.86 1.95 M2.58 26.3 C6.55 21.98, 10.94 14.48, 23.35 2.68 M1.16 31.87 C13.9 21.97, 21.61 9.08, 26.61 0.58 M3.21 32.51 C9.09 24.27, 16.37 16.16, 29.38 1.52 M4.21 34.9 C9.42 28.61, 16.23 18.63, 33.81 2.04 M3.64 36.53 C14.48 24.23, 24.05 12.88, 33.15 2.53 M7.2 41.42 C12.05 34.12, 18.11 23.43, 37.78 2.35 M6.02 40.26 C13.32 32.38, 19.57 24.32, 38.72 3.15 M9.07 41.62 C16.62 36.37, 24.9 25.1, 39.94 8.31 M8.91 42.52 C21.45 30.1, 32.02 16.94, 39.83 6.53 M10.44 46.72 C21.15 38.22, 29.47 27.29, 43.09 6.84 M10.38 46.91 C23.07 32.88, 36.64 17.13, 45.36 7.23 M13.76 51.05 C23.92 37.89, 30.83 28.29, 48.93 10.77 M13.34 50.13 C20.67 41.28, 27.21 32.14, 47.13 10.26 M18.9 52.64 C28.9 37.4, 37.85 25.8, 48.89 14.43 M17.42 51.86 C27.48 40.46, 36.15 30.84, 49.9 12.93 M20.6 53.73 C28.26 44.76, 36.09 34.17, 50.99 18.47 M21.56 51.58 C28.71 44.68, 35.63 36.66, 50.49 18.97 M24.04 52.87 C34.82 46.05, 43.84 35.82, 50.66 24.86 M25.89 53.91 C36.46 43.73, 46.31 31.69, 51.77 23.81 M36.91 50.44 C40.26 44.76, 44.12 36.82, 50.96 28.75 M34.91 48.44 C41.83 41.91, 47.04 35.67, 51.15 29.73" stroke="#aac3f5" stroke-width="0.5" fill="none"></path><path d="M35.19 0.97 C40.42 2.38, 47.46 8.15, 50.22 13.22 C52.99 18.29, 53.14 25.9, 51.77 31.38 C50.39 36.85, 46.28 42.34, 41.96 46.07 C37.64 49.8, 31.32 53.63, 25.85 53.76 C20.38 53.9, 13.24 50.71, 9.12 46.87 C5.01 43.04, 2.16 36.4, 1.17 30.76 C0.18 25.12, 0.54 17.86, 3.19 13.02 C5.85 8.18, 11.43 3.44, 17.1 1.74 C22.76 0.04, 33.57 2.7, 37.18 2.81 C40.79 2.92, 38.85 1.91, 38.74 2.38 M29.86 0.82 C35.23 1.64, 42.25 6.38, 46.03 10.79 C49.8 15.2, 52.31 21.74, 52.52 27.26 C52.73 32.79, 50.85 39.59, 47.29 43.96 C43.73 48.32, 37.05 52.35, 31.16 53.44 C25.28 54.54, 16.79 53.54, 11.99 50.52 C7.18 47.51, 3.8 40.71, 2.32 35.35 C0.84 29.98, 1.12 23.67, 3.12 18.33 C5.13 12.98, 9.61 6.15, 14.36 3.28 C19.1 0.41, 28.8 1.44, 31.58 1.13 C34.37 0.81, 31.49 1.07, 31.09 1.38" stroke="#aac3f5" stroke-width="1" fill="none"></path></g><g stroke-linecap="round" transform="translate(98.61984227484209 204.78862435198607) rotate(0 20.147150348610012 20.681138580187735)"><path d="M2.35 9.99 C2.35 9.99, 2.35 9.99, 2.35 9.99 M2.35 9.99 C2.35 9.99, 2.35 9.99, 2.35 9.99 M-0.34 17.07 C4.19 11.2, 9.67 6.55, 12.69 3.45 M0.88 18.33 C4.53 12.54, 9.13 7.96, 13.85 1.41 M-1.29 22.88 C6.4 16.95, 8.21 13.71, 18.76 1.89 M0.31 25.29 C6.44 15.68, 13.93 9.41, 21.18 2.46 M3.92 29.51 C6.75 22.48, 11.4 14.31, 25.18 1.44 M2.26 28.36 C11.34 17.88, 21.15 6.69, 25.15 1.48 M2.64 32.77 C12.77 19.16, 24.53 8.89, 30.81 4.35 M4.99 31.74 C14.64 20.45, 23.1 10.22, 29.19 3.34 M6.67 36.81 C14.85 23.32, 24.07 13.76, 31.35 4.27 M7.27 35 C13.4 27.09, 20.65 19.93, 32.58 5.92 M10.54 39.68 C18.21 29.27, 23.33 23.56, 36.9 7.84 M10.83 37.88 C14.7 32.55, 19.27 26.29, 35.23 7.86 M15.04 40.72 C19.49 34.33, 22.82 26.22, 39.47 10.23 M13.13 39.97 C21.19 30.7, 29.27 21.86, 37.41 11.46 M18.69 40.03 C25.42 30.49, 35.1 22.53, 37.23 18.26 M17.1 41.49 C21.58 34.75, 26.92 29.53, 39.21 16.03 M21.29 41.84 C24.73 36.29, 29.75 32.16, 38.59 20.65 M21.84 42.89 C29.21 34.72, 34.86 26.18, 38.83 21.43 M26.71 42.26 C31.67 35.01, 36.46 31.21, 39.77 25.59 M27.67 41.94 C32.83 36.13, 37.51 30.07, 41.43 25.97 M7.13 36 C7.13 36, 7.13 36, 7.13 36 M7.13 36 C7.13 36, 7.13 36, 7.13 36 M19.35 42.91 C11.06 34.74, 4.66 27.8, 2.38 23.74 M19.66 41.31 C14.38 38.46, 10.55 33.31, -0.2 24.83 M25.64 39.66 C18.9 35.13, 14.66 32.65, 3.59 19.22 M25.42 40.02 C17.38 35.03, 12 29.41, 1.67 20.88 M26.78 40.72 C19.8 31.79, 10.7 24.86, 2.86 16.72 M28.79 39.41 C20.88 32.71, 15.21 25.42, 2.83 15.96 M32.9 37.2 C21.54 25.71, 10.16 18.91, 5.67 13.82 M32.3 37.49 C22.38 27.38, 11.18 17.6, 4.46 11.69 M35.03 32.12 C25.52 26.9, 18.25 17.14, 6.33 7.29 M34.85 34.34 C27.33 26.67, 20.12 20.45, 4.01 6.52 M34.86 27.83 C28.87 22.57, 22.79 18.9, 9.49 4.55 M36.61 29.67 C30.26 22.7, 21.76 16.77, 6.9 4.39 M38.08 26.84 C26 18.8, 17.47 6.86, 12.99 2.56 M38.69 25.1 C31.5 20.13, 24.42 14.53, 10.6 2.06 M38.87 22.7 C31.73 15.37, 24.53 11.08, 14.6 -0.13 M40.77 23.13 C31.02 13.91, 21.76 7.05, 15.57 0.32 M37.82 16.75 C35.82 14.08, 29.57 6.6, 22.47 2.16 M39.29 17.37 C32.62 9.53, 25.91 4.97, 20.95 -0.18 M38.28 11.78 C37.58 9.64, 35.32 7.65, 26.16 -0.08 M38.78 10.68 C34.94 7.16, 30.96 3.12, 27.39 0.05" stroke="#6691ee" stroke-width="0.5" fill="none"></path><path d="M28.99 1.21 C32.91 2.73, 36.17 7.31, 37.84 11.19 C39.51 15.06, 39.9 19.97, 38.99 24.47 C38.08 28.97, 35.67 35.28, 32.37 38.19 C29.07 41.1, 23.4 42.29, 19.21 41.94 C15.03 41.59, 10.52 39.18, 7.25 36.1 C3.97 33.02, 0.33 27.86, -0.45 23.46 C-1.23 19.07, 0.07 13.39, 2.58 9.72 C5.08 6.05, 9.53 2.58, 14.56 1.45 C19.6 0.32, 29.3 1.85, 32.78 2.95 C36.27 4.04, 35.76 7.68, 35.47 8.01 M21.05 1.18 C25.37 1.25, 30.8 3.44, 34.17 6.4 C37.55 9.36, 40.75 14.45, 41.3 18.94 C41.84 23.42, 40.21 29.45, 37.46 33.29 C34.7 37.14, 28.89 40.93, 24.77 42 C20.65 43.08, 16.29 41.61, 12.74 39.77 C9.19 37.92, 5.31 34.99, 3.45 30.95 C1.59 26.91, 0.67 19.91, 1.57 15.52 C2.46 11.13, 5.45 7.1, 8.8 4.58 C12.15 2.07, 19.78 1.15, 21.67 0.45 C23.55 -0.24, 20.09 0.24, 20.13 0.39" stroke="#6691ee" stroke-width="1" fill="none"></path></g><g stroke-linecap="round" transform="translate(15.938550812028552 64.28654337448802) rotate(0 21.080501609720272 20.342695334821656)"><path d="M3 10.56 C3 10.56, 3 10.56, 3 10.56 M3 10.56 C3 10.56, 3 10.56, 3 10.56 M0.41 17.16 C4.6 14.07, 8.27 10.04, 14.14 1.85 M1.89 16.95 C7.52 11.07, 11.25 5.72, 13.9 2.46 M2.28 22.94 C7.22 16.47, 14.9 8.01, 21.17 4.47 M0.4 24.05 C5.87 19.96, 11.8 14.44, 19.4 2.11 M2.09 28.92 C8.85 17.95, 17.4 11.34, 28.75 1.71 M3.35 28.69 C13.68 16.92, 21.19 7.39, 28.09 0.88 M3.92 30.48 C12.05 24.59, 19.19 19.24, 31.67 1.78 M6.07 31.5 C13.87 21.9, 22.94 11.74, 30.46 4.15 M7.65 33.27 C17.86 22.42, 25.63 12.01, 32.68 5.01 M8.28 34.3 C17.61 24.68, 24.61 16.36, 33.63 5.77 M11.11 38.6 C14.79 34.2, 22.81 25.01, 34.91 8.69 M9.59 39.64 C14.65 32.48, 21.27 24.92, 36.04 8.23 M14.86 40.9 C19.44 30.99, 29.15 23.06, 39.96 10.84 M14.46 39.64 C21.62 31.95, 26.57 25.36, 40.65 10.67 M18.53 39.88 C28.51 31.55, 33.98 23.29, 39.46 14.3 M17.81 40.38 C26.81 31.03, 35.94 21.18, 40.79 16.29 M21.56 41.54 C28.38 35.45, 36.35 24.67, 43.84 19.98 M23.89 42.21 C29.13 34.02, 36.24 25.63, 42.16 19.86 M30.7 37.53 C36.01 33.1, 39.34 27.58, 45.18 23.8 M31.08 39.29 C33.69 35.63, 37.29 32.04, 43.9 23.93 M7.69 36.88 C7.69 36.88, 7.69 36.88, 7.69 36.88 M7.69 36.88 C7.69 36.88, 7.69 36.88, 7.69 36.88 M15.74 38.99 C10.67 33.3, 7.4 28.6, -0.23 25.19 M16.11 40.58 C13.05 36.07, 9.24 33.41, 0.27 26.14 M21.78 38.18 C17.6 35.76, 15.64 30.1, 2.8 23.71 M22.23 39.34 C15.61 32.7, 7.45 26.35, 3.6 21.97 M26.93 38.63 C21.69 35.12, 16.52 29.06, 3.68 19.32 M26.3 37.94 C23.02 32.92, 17.66 29.44, 5.14 18.32 M31.85 35.15 C24.84 32.17, 19.76 26.51, 5.95 11.94 M31.83 36.28 C24.76 30.13, 19.24 24.98, 4.53 13.9 M36.66 36.91 C30.07 27.59, 22.33 21.46, 4.08 6.43 M36.92 35.58 C27.8 28.07, 17.04 18.61, 4.39 7.85 M37.87 30.93 C30.94 26.05, 24.38 17.43, 7.17 6.74 M39.39 31.1 C30.69 25.03, 23.44 19.2, 9.28 6.14 M38.14 29.41 C29.18 17.18, 19.15 8.4, 10.04 2.84 M39.74 27.83 C32.57 21.97, 25.19 14.96, 11.01 1.78 M40.44 23.35 C30.92 16.95, 20.84 5.6, 14.81 1.37 M41.52 23.3 C33.07 17.49, 25.56 9.74, 13.37 -0.19 M45.43 22.65 C35.16 11.49, 26.89 6.22, 20.76 -1.52 M44 20.02 C39.05 17.06, 33.36 11.07, 18.3 -0.66 M43.93 15.67 C39.52 11.92, 31.58 5.28, 26.24 -2.55 M42.75 14.34 C36.75 8.43, 29.83 2.46, 24.97 -0.5" stroke="#6691ee" stroke-width="0.5" fill="none"></path><path d="M12.47 1.53 C16.02 -0.42, 21.97 -1.46, 26.36 -0.03 C30.75 1.41, 36.18 6.26, 38.81 10.15 C41.45 14.04, 42.56 19.1, 42.16 23.32 C41.76 27.54, 39.81 32.52, 36.39 35.46 C32.98 38.39, 26.46 40.68, 21.7 40.94 C16.93 41.19, 11.27 39.54, 7.8 36.98 C4.32 34.42, 1.62 30.02, 0.85 25.57 C0.09 21.13, 0.78 14.27, 3.21 10.32 C5.64 6.38, 13.09 3.57, 15.43 1.89 C17.76 0.21, 17.23 0.23, 17.24 0.25 M23.64 0.71 C28.21 0.83, 34.41 3.57, 37.6 6.83 C40.79 10.09, 42.87 15.75, 42.77 20.28 C42.68 24.81, 39.72 30.66, 37.04 34.01 C34.35 37.36, 30.68 39.43, 26.66 40.38 C22.65 41.33, 16.95 41.75, 12.94 39.72 C8.94 37.69, 4.56 32.3, 2.63 28.19 C0.7 24.08, 0.2 19.15, 1.37 15.06 C2.55 10.98, 6.19 6.18, 9.66 3.68 C13.13 1.18, 19.8 0.72, 22.2 0.08 C24.6 -0.57, 23.75 -0.58, 24.04 -0.2" stroke="#6691ee" stroke-width="1" fill="none"></path></g><g stroke-linecap="round" transform="translate(10 151.09949209926594) rotate(0 25.996953820742533 26.366233006242055)"><path d="M5.76 11.63 C5.76 11.63, 5.76 11.63, 5.76 11.63 M5.76 11.63 C5.76 11.63, 5.76 11.63, 5.76 11.63 M1.29 21.92 C5.77 17.23, 11.78 8.96, 22.49 0.88 M3.43 20.08 C8.31 13.55, 14.41 6.22, 21.52 -0.23 M0.32 28.28 C5.65 22.59, 13.32 17.79, 23.96 1.38 M1.81 29.01 C12.33 18.63, 19.74 6.39, 25.02 2.31 M1.8 30.69 C13.25 20.89, 25.54 9.81, 30.94 1.67 M4.56 31.63 C12.46 21.59, 23.52 10.33, 28.8 1.93 M5.06 36.67 C16.16 27.3, 26.85 12.1, 35.05 4.85 M4.4 37.17 C12.63 27.94, 22.18 17.88, 34.33 3.88 M7.06 39.25 C17.35 26.34, 30.02 12.71, 39.23 5.03 M8 40.04 C15.32 31.56, 24.57 20.65, 37.72 4.67 M7.25 47.48 C22.43 29.88, 32.3 15.77, 40.01 8.73 M7.14 45.7 C18.24 32.98, 28.02 21.7, 41.22 7.7 M10.4 46 C24.58 32.71, 34.41 21.24, 42.88 9.37 M12.67 46.4 C21.83 35.08, 33.69 23.05, 44.82 11.07 M16.91 49.17 C20.82 42.96, 28.13 31.82, 48.6 12.59 M15.1 48.67 C25.27 38.27, 34.15 28.83, 47.7 13.16 M17.51 52.08 C25.3 41.94, 34.58 35.3, 50.68 18.1 M18.52 50.59 C25.76 41.75, 33.92 33.3, 50.04 15.77 M22.9 52.35 C31.58 40.93, 44.4 29.32, 50.91 18.46 M22.39 52.85 C33.37 40.8, 43.35 28.76, 51.7 19.18 M28.47 51.94 C39.89 39.29, 45.95 30.65, 52.24 26.18 M29.58 50.89 C37.3 41.45, 46.32 33.45, 53.34 24.54 M35.33 48.29 C44.21 41.35, 47.35 34.66, 51.53 30.47 M35.52 49.27 C40.15 44.01, 44.83 38.95, 52.38 30.88" stroke="#aac3f5" stroke-width="0.5" fill="none"></path><path d="M19.49 -0.24 C24.64 -1.56, 32.92 1.07, 38.03 3.91 C43.13 6.75, 47.84 11.69, 50.12 16.79 C52.39 21.89, 53.45 29.16, 51.68 34.51 C49.9 39.85, 44.4 45.77, 39.45 48.83 C34.51 51.89, 27.4 53.52, 22.02 52.85 C16.64 52.17, 10.69 49.16, 7.19 44.81 C3.68 40.45, 1.18 32.32, 0.99 26.74 C0.79 21.16, 2.06 15.89, 6.01 11.34 C9.95 6.8, 20.92 1.41, 24.65 -0.51 C28.39 -2.44, 28.43 -0.69, 28.43 -0.21 M36.62 2.19 C41.77 3.91, 47.15 9.63, 49.48 14.77 C51.81 19.92, 51.67 27.63, 50.6 33.04 C49.52 38.44, 47 43.72, 43.03 47.21 C39.06 50.7, 32.31 54.17, 26.76 53.98 C21.21 53.78, 14.07 49.86, 9.73 46.02 C5.4 42.18, 1.72 36.45, 0.74 30.94 C-0.23 25.44, 1.29 17.94, 3.88 13 C6.47 8.06, 10.94 3.28, 16.29 1.29 C21.63 -0.7, 32.69 0.87, 35.95 1.07 C39.22 1.27, 36.09 2.2, 35.88 2.51" stroke="#aac3f5" stroke-width="1" fill="none"></path></g><g stroke-linecap="round" transform="translate(85.95268102902082 98.4963866161213) rotate(0 33.65103583872826 32.550719243237154)"><path d="M12.28 6.7 C12.28 6.7, 12.28 6.7, 12.28 6.7 M12.28 6.7 C12.28 6.7, 12.28 6.7, 12.28 6.7 M4.08 24.63 C9.41 16.89, 13.24 11.14, 17.29 3.4 M3.11 23.52 C5.64 20.51, 9.41 14.5, 19.28 4.08 M1.62 29.66 C11.8 19.89, 15.54 12.67, 27.82 4.87 M2.68 30.59 C12.71 19.19, 21.14 8.62, 25.37 2.57 M4.67 34.48 C13.19 24.77, 21.84 16.42, 31.08 0.38 M2.52 34.73 C12.63 23.85, 21.08 13.75, 32.59 2.07 M4.84 42.18 C16.3 26.67, 29.52 9.02, 38.22 0.91 M4.11 41.21 C17.35 25.61, 28.97 10.61, 36.15 1.94 M5.08 46.89 C13.97 35.24, 22.62 25.9, 40.04 2.77 M3.57 46.53 C19.86 30.14, 33.09 12.54, 42.15 4.65 M5.2 51.35 C17.92 36.62, 29.35 23.24, 45.9 4.46 M6.42 50.32 C17.29 38.81, 26.73 26.75, 44.8 5.87 M8.73 51.23 C19.46 42.11, 26.76 33.04, 48.54 4.46 M10.67 52.93 C19.69 39.58, 30.73 27.66, 50.44 4.58 M14.45 54.45 C28.79 35.41, 42.69 18.18, 53.03 7.81 M13.54 55.02 C21.94 42.59, 32.12 31.12, 54.64 6.94 M16.53 59.96 C22.7 49.87, 32.24 36.36, 55.49 9.65 M15.89 57.63 C24.33 48.07, 32.02 38.18, 56.2 10.05 M16.76 60.32 C29.38 48.47, 39.68 35.6, 59.29 14.05 M17.55 61.04 C29.55 49.48, 39.92 36.65, 59.59 14.12 M22.02 63.51 C32.45 53.95, 39.21 43.32, 60.04 16.81 M23.12 61.88 C31.47 51.13, 38.94 41.59, 61.08 17.54 M25.25 63.28 C35.59 51.12, 46.43 41.85, 63.62 17.53 M26.1 63.69 C37.26 50.63, 47.43 38.86, 65.05 20.21 M32.18 66.89 C37.89 54.29, 46.87 46.98, 67.14 22.42 M29.85 64.06 C42.71 52.02, 53.6 38.82, 68.17 22.67 M32.88 66.48 C46.57 52.86, 56.1 43.63, 65.77 28.15 M34.37 66.17 C42.85 56.52, 50.29 46.93, 68.39 29.16 M37.34 67.11 C50.33 55.45, 59.87 41.35, 65.52 35.57 M38.09 68.17 C45.38 59.13, 54.12 51.35, 67.04 35.71 M46.85 65.05 C54.91 58.25, 59.07 52.31, 67.53 41.11 M46.47 63.74 C50.7 58.83, 55.85 53.88, 67.2 42.75" stroke="#aac3f5" stroke-width="0.5" fill="none"></path><path d="M31.67 1.04 C38.05 0.47, 46.15 2.37, 51.84 5.68 C57.53 8.99, 63.5 15.02, 65.8 20.89 C68.1 26.77, 67.54 34.77, 65.64 40.95 C63.74 47.12, 59.34 53.86, 54.4 57.97 C49.47 62.07, 42.34 65.39, 36.03 65.59 C29.73 65.79, 22.06 62.5, 16.56 59.14 C11.07 55.79, 5.58 51.34, 3.05 45.47 C0.53 39.59, -0.12 30.34, 1.43 23.87 C2.98 17.39, 6.82 10.65, 12.36 6.61 C17.9 2.57, 30.39 0.6, 34.65 -0.36 C38.92 -1.33, 37.93 0.1, 37.94 0.83 M36.78 1.66 C43.09 1.82, 52.16 4.59, 57.37 8.9 C62.59 13.21, 66.81 21.3, 68.1 27.51 C69.39 33.71, 68.08 40.44, 65.14 46.13 C62.21 51.82, 56.41 58.46, 50.5 61.65 C44.59 64.84, 36.56 66.15, 29.7 65.27 C22.84 64.39, 14.09 60.87, 9.32 56.34 C4.55 51.81, 2.02 44.3, 1.08 38.09 C0.14 31.88, 0.96 24.95, 3.67 19.06 C6.38 13.17, 11.65 6.03, 17.36 2.73 C23.07 -0.57, 34.51 -0.57, 37.92 -0.74 C41.33 -0.91, 37.95 0.86, 37.83 1.72" stroke="#aac3f5" stroke-width="1" fill="none"></path></g><g stroke-linecap="round"><g transform="translate(112.73779537562132 89.67091997472721) rotate(0 6.610592914697577 -13.70407094598977)" fill-rule="evenodd"><path d="M-2.05 -29.61 C-2.05 -29.61, -2.05 -29.61, -2.05 -29.61 M-2.05 -29.61 C-2.05 -29.61, -2.05 -29.61, -2.05 -29.61 M-1.03 -24.58 C-0.27 -25.65, 1.04 -26.95, 1.81 -28.41 M-1.02 -24.56 C-0.1 -25.47, 0.49 -26.38, 2.09 -28.48 M0.26 -19.43 C2.16 -20.27, 3.95 -23.19, 6 -27.84 M-0.37 -19.59 C1.33 -20.9, 2.03 -22.02, 6.67 -27.14 M-2.72 -14.01 C1.52 -18.06, 4.39 -18.99, 9.89 -28.36 M-0.83 -13.36 C3.81 -17.22, 8.85 -23.24, 11.4 -26.07 M1.15 -5.07 C4.97 -12.81, 5.29 -15.25, 16.97 -24.07 M-1.3 -7.36 C3.29 -10.39, 7.26 -14.65, 15.31 -25.22 M-4.12 0.26 C3.37 -3.28, 8.3 -12.68, 15.69 -20.8 M-2.6 1.95 C2.52 -2.31, 4.67 -7.04, 18.05 -21.83 M3.68 0.03 C9.04 -2.8, 12.79 -7.41, 17.09 -13.75 M1.61 1.07 C6.14 -3.28, 10.3 -7.06, 17.7 -15.56 M8.63 -0.58 C12.5 -2.72, 13.88 -5.94, 16.77 -7.19 M9.78 0.45 C11.69 -3.39, 14.56 -6.26, 16.93 -8.18 M-2.46 1.3 C-2.46 1.3, -2.46 1.3, -2.46 1.3 M-2.46 1.3 C-2.46 1.3, -2.46 1.3, -2.46 1.3 M0.63 -1.21 C0.13 -1.43, -0.54 -2.03, -1.14 -3.26 M0.92 -1.19 C0.39 -1.74, -0.51 -2.08, -1.37 -3.04 M4.61 -2.57 C3.3 -4.04, 2.94 -4.5, -0.86 -8.65 M5.25 -2.92 C3.36 -3.65, 2.18 -4.96, -0.64 -8.23 M7.77 -5.81 C3.48 -8.32, -0.22 -10.98, -2.18 -13.17 M8.23 -5.55 C5.56 -6.94, 2.84 -10.24, -1.56 -13.38 M16.11 -2.83 C10.24 -7.68, 4.3 -13.9, -1.42 -17.46 M16.4 -2.76 C9.24 -9.74, 4.12 -14.53, -1.01 -18.76 M14.85 -8.43 C8.05 -13.15, 4.25 -19.52, -1.62 -22.89 M15.89 -7.7 C11.88 -13, 7.97 -16.72, -1.32 -24.49 M15.77 -15.33 C12.6 -18.9, 9.67 -21.73, -0.62 -30.73 M17.2 -12.64 C11.64 -17.88, 8.36 -21.02, -0.84 -30.37 M17.29 -18.8 C13.87 -20.75, 9.23 -26.33, 0.51 -29.67 M18.31 -18.55 C12.93 -22.78, 8.89 -27.46, 2.53 -30.99 M15.98 -24.27 C14.47 -24.86, 13.36 -28.14, 8.82 -31.29 M17.43 -23.71 C15.02 -25.99, 11.74 -28.89, 8.49 -31.13" stroke="#4979ea" stroke-width="0.5" fill="none"></path><path d="M-0.15 -0.94 C0.8 -1.28, 2.56 -2.38, 5.18 -2.38 C7.8 -2.38, 13.71 -0.01, 15.57 -0.94 C17.43 -1.86, 16.35 -3.54, 16.33 -7.94 C16.32 -12.33, 17.25 -23.75, 15.47 -27.3 C13.7 -30.85, 8.82 -29.26, 5.69 -29.22 C2.56 -29.18, -1.96 -31.99, -3.32 -27.04 C-4.68 -22.1, -2.84 -4.2, -2.46 0.44 C-2.08 5.09, -1.66 0.84, -1.06 0.84 M-1.69 1.19 C-0.33 1.09, 4.49 -0.65, 7.34 -0.77 C10.19 -0.89, 13.82 2, 15.42 0.47 C17.03 -1.06, 17.17 -5.33, 16.96 -9.95 C16.76 -14.58, 16.42 -24.44, 14.2 -27.29 C11.97 -30.13, 6.4 -26.88, 3.62 -27.03 C0.84 -27.18, -1.35 -32.83, -2.47 -28.21 C-3.6 -23.59, -3.61 -3.98, -3.14 0.71 C-2.66 5.39, 0.05 -0.03, 0.38 -0.11" stroke="#4979ea" stroke-width="1" fill="none"></path></g></g><mask></mask><g stroke-linecap="round"><g transform="translate(159.77004176251558 142.60686538588925) rotate(0 9.207461557260672 13.754521577707237)" fill-rule="evenodd"><path d="M-0.19 -0.16 C-0.19 -0.16, -0.19 -0.16, -0.19 -0.16 M-0.19 -0.16 C-0.19 -0.16, -0.19 -0.16, -0.19 -0.16 M2.78 2.5 C2.98 2.31, 3.01 2.17, 3.42 1.72 M2.86 2.49 C3.06 2.22, 3.26 1.92, 3.47 1.72 M-4.28 20.37 C-1.16 15.13, -0.43 10.1, 5.4 3 M-5.26 18.46 C-3.93 16.41, -0.12 12.56, 6.96 2.77 M-3.5 19.24 C0.46 17.3, 5.01 9.09, 11.24 4.38 M-2.17 21 C1.14 17.04, 2.96 15.31, 9.46 5.43 M2.36 21.59 C2.63 18.93, 9.16 16.25, 12.42 8.75 M0.83 23.97 C3.89 20.93, 5.67 17.65, 13.68 8.52 M4.85 26.93 C9.25 18.34, 12.81 14.32, 15.56 8.8 M5.4 25.79 C7.17 21.43, 12.28 16.34, 17.71 9.82 M9.93 27.46 C11.37 25.53, 12.78 22.74, 19.98 10.92 M7.74 26.35 C11.65 23.04, 15.95 18.26, 20.57 11.89 M12.78 28.55 C14.86 24.63, 17.79 23.33, 19.61 20.18 M11.61 28.24 C13.66 26.16, 15.85 24.51, 18.77 20.75 M18.57 19.82 C20.05 18.98, 21.64 18.47, 24.45 14.7 M18.67 20.49 C20.23 18.83, 21.23 17.77, 24.29 14.19 M-8.6 15.99 C-8.6 15.99, -8.6 15.99, -8.6 15.99 M-8.6 15.99 C-8.6 15.99, -8.6 15.99, -8.6 15.99 M7.2 25.18 C5.79 23.58, 1.2 17.42, -7.3 12.08 M7.59 26.32 C4.89 23.31, 2.86 19.44, -5.08 12.72 M15.32 28.02 C10.83 24.79, 6.22 19.9, -3.9 8.33 M16.61 28.45 C10.41 21.44, 4.43 17.21, -3.5 10.18 M17.24 23.77 C11.63 17.89, 8.82 16.82, 0.04 8.44 M17.3 22.53 C13.26 18.85, 8.82 15.26, 0.17 6.62 M17.61 20.44 C14.49 14.54, 6.17 9.09, -0.98 1.82 M18.57 18.26 C14.04 14.05, 9.58 10.35, -0.61 3.41 M22.08 14.67 C17.9 10.45, 13.63 6.7, 0.54 -2.92 M21.86 16.48 C17.66 12.74, 12.27 6.57, 0.99 -1.76" stroke="#4979ea" stroke-width="0.5" fill="none"></path><path d="M-1.06 0.14 C-1.25 1.77, -0.15 6.03, -1.31 8.83 C-2.47 11.62, -8.11 14.96, -8.01 16.9 C-7.9 18.84, -4.54 18.5, -0.66 20.44 C3.23 22.39, 12.05 28.51, 15.3 28.58 C18.55 28.64, 17.09 22.94, 18.84 20.84 C20.59 18.75, 27.08 18.06, 25.79 16 C24.5 13.94, 15.19 11.12, 11.08 8.47 C6.97 5.82, 3.09 1.52, 1.13 0.08 M0.58 -0.84 C0.35 1.09, -0.14 7.8, -1.64 10.46 C-3.13 13.11, -8.63 13.31, -8.39 15.1 C-8.15 16.88, -3.95 18.93, -0.21 21.17 C3.52 23.41, 11.18 28.73, 14.01 28.53 C16.85 28.34, 14.67 22.2, 16.8 19.98 C18.93 17.77, 27.39 17.16, 26.78 15.26 C26.17 13.36, 17.61 11.29, 13.16 8.57 C8.7 5.85, 2.29 0.45, 0.05 -1.07" stroke="#4979ea" stroke-width="1" fill="none"></path></g></g><mask></mask><g stroke-linecap="round"><g transform="translate(69.56891412211826 148.21345131715748) rotate(0 0.485389772366716 10.581394185537192)" fill-rule="evenodd"><path d="M-16.25 9.73 C-16.25 9.73, -16.25 9.73, -16.25 9.73 M-16.25 9.73 C-16.25 9.73, -16.25 9.73, -16.25 9.73 M-14.54 13.59 C-11.98 11.17, -11.62 9.31, -6.2 3.51 M-13.54 13.52 C-10.96 9.92, -8.29 6.12, -5.62 3.53 M-9.27 17.34 C-6.31 12.37, -5.61 7.59, -0.07 0.84 M-10.2 15.53 C-8.94 13.58, -5.32 9.92, 1.4 0.63 M-9.12 16.98 C-3.03 12.84, 3.62 2.05, 11.64 -4.7 M-7.73 18.84 C-3.1 13.39, -0.03 10.25, 9.76 -3.59 M-5.17 21.67 C-3.45 17.23, 4.58 12.82, 10.14 2.79 M-6.71 24.04 C-2.5 19.78, 0.36 15.24, 11.4 2.56 M-4.65 29.27 C1.84 18.36, 7.45 11.98, 11.31 5.1 M-4.1 28.13 C-0.84 22.04, 5.76 15.22, 13.46 6.12 M3.81 26.06 C5.57 23.74, 7.33 20.49, 15.7 7.14 M1.5 24.89 C6.02 20.97, 10.94 15.48, 16.32 8.16 M-8.06 24.52 C-8.06 24.52, -8.06 24.52, -8.06 24.52 M-8.06 24.52 C-8.06 24.52, -8.06 24.52, -8.06 24.52 M-3.58 22.81 C-4.37 22.1, -5.05 21.75, -8.98 18.48 M-3.48 23.48 C-4.52 22.09, -6.12 21.22, -9.14 17.97 M0.38 23.3 C-5.33 18.09, -9.79 9.5, -14.98 6.5 M1.77 21.03 C-5.63 17.32, -11.02 11.33, -15.7 7 M3.11 19.13 C1.43 17.28, -3.6 10.62, -12.9 4.68 M3.52 20.33 C0.51 17.01, -1.78 12.8, -10.57 5.35 M6.01 17.39 C2.75 15.27, -0.6 11.48, -7.93 2.3 M7.31 17.82 C2.69 12.23, -1.68 9.4, -7.53 4.15 M10.19 15.11 C5.55 10.06, 3.71 9.83, -3.23 3.06 M10.25 13.87 C7.22 11.04, 3.79 8.32, -3.11 1.24 M12.91 13.67 C11.16 9.15, 4.49 5.04, -1.16 -0.9 M13.83 11.6 C10.43 8.39, 7.14 5.69, -0.81 0.61 M18.31 9.52 C16.8 7.93, 15.26 6.57, 9.77 2.73 M18.18 10.51 C16.76 9.2, 14.69 6.57, 10.02 3.37 M10.39 3.76 C7.9 0.98, 5.32 0.46, 4.29 -1.48 M10.36 3.27 C8.76 1.45, 6.8 0.56, 4.04 -1.75 M9.77 -1.99 C9.19 -3.14, 8.27 -3.7, 7.66 -4.45 M10.04 -2.16 C9.15 -2.91, 8.5 -3.33, 7.66 -4.28" stroke="#4979ea" stroke-width="0.5" fill="none"></path><path d="M1.17 0.17 C2.96 -0.43, 8.06 -4.02, 9.63 -3.48 C11.2 -2.95, 9.3 0.98, 10.59 3.37 C11.89 5.76, 20.03 7.13, 17.42 10.84 C14.81 14.56, -0.68 24.42, -5.08 25.66 C-9.47 26.9, -6.95 20.84, -8.96 18.29 C-10.96 15.73, -18.79 13.31, -17.11 10.34 C-15.43 7.37, -1.6 2.14, 1.14 0.45 M0.33 -0.78 C2.11 -1.71, 7.45 -5.92, 9.07 -5.07 C10.68 -4.22, 8.56 1.55, 10.02 4.31 C11.49 7.08, 20.58 7.86, 17.85 11.51 C15.12 15.17, -1.56 25.17, -6.34 26.23 C-11.13 27.29, -9.08 20.65, -10.86 17.85 C-12.64 15.05, -18.95 12.35, -17.02 9.43 C-15.1 6.51, -2.29 2.1, 0.71 0.34" stroke="#4979ea" stroke-width="1" fill="none"></path></g></g><mask></mask></svg>