<svg version="1.1" xmlns="http://www.w3.org/2000/svg" viewBox="0 0 191.75307503551812 188.48162783040289" width="383.50615007103625" height="376.96325566080577">
  <!-- svg-source:excalidraw -->
  
  <defs>
    <style class="style-fonts">
      @font-face {
        font-family: "Virgil";
        src: url("https://excalidraw.com/Virgil.woff2");
      }
      @font-face {
        font-family: "Cascadia";
        src: url("https://excalidraw.com/Cascadia.woff2");
      }
    </style>
  </defs>
  <g stroke-linecap="round"><g stroke-opacity="0.8" fill-opacity="0.8" transform="translate(12.216603645189025 161.77883182409823) rotate(0 25.339421907241558 -66.97699409163693)" fill-rule="evenodd"><path d="M-1.11 -133.46 C-1.11 -133.46, -1.11 -133.46, -1.11 -133.46 M-1.11 -133.46 C-1.11 -133.46, -1.11 -133.46, -1.11 -133.46 M-3.24 -122.63 C-0.65 -125.39, 6.18 -132.37, 14.27 -138.63 M0.06 -121.49 C4.29 -125.94, 11.17 -132.83, 12.69 -138.52 M2.14 -108.91 C4.94 -114.35, 7.99 -126.17, 28.25 -135.01 M-0.36 -110.39 C7.69 -118.41, 12.4 -124.8, 26.12 -139.08 M-2.72 -99.32 C16.42 -116.21, 23.67 -128.96, 42.68 -144.68 M1.22 -98.48 C7.83 -106.05, 17.25 -116.17, 39.42 -142.52 M-3.04 -85.43 C10.88 -98.88, 28.63 -115.1, 52.04 -144.34 M-0.51 -85.98 C16.04 -103.98, 34.69 -126.23, 53.55 -148.11 M0.67 -74.9 C19.47 -97.69, 38.03 -111.86, 50.52 -137.24 M1.23 -74.48 C15.02 -89.48, 30.32 -108.65, 51.09 -135.6 M0.85 -63.76 C13.65 -75.66, 22.98 -90.01, 49.84 -122.91 M-0.82 -62.83 C18.86 -78.89, 33.4 -99.02, 51.78 -122.53 M-0.8 -48.63 C10.88 -69.61, 30.22 -84.15, 52.73 -109.39 M-2.12 -51.02 C19.28 -71.36, 38.01 -90.17, 51.6 -112.14 M-1.1 -38.99 C11.11 -46.24, 24.01 -65.87, 49.65 -99.82 M-0.41 -36.06 C22.08 -60.78, 39.9 -84.15, 53.09 -99.52 M-3.18 -21.4 C13.61 -48.38, 38.46 -64.75, 51.01 -88.68 M-1.87 -23.84 C14.13 -41.8, 26.51 -54.16, 51.24 -87.55 M-0.15 -11.81 C17.61 -28.11, 34.04 -49.99, 55.49 -74.07 M0.76 -13 C19.05 -32.87, 34.17 -53.1, 51.37 -74.73 M0.42 -2.98 C11.07 -18.54, 29.98 -37.08, 50.22 -61.94 M1.45 -2.08 C17.08 -18.99, 31.45 -35.13, 55 -63.09 M9.32 5.4 C19.12 -7.24, 27.68 -23.87, 51.06 -46.32 M7.2 4.81 C18.47 -9.92, 28.91 -25.12, 53.71 -50.02 M12.91 8.38 C21.12 -3.3, 33.9 -13.1, 54.84 -37.62 M12.94 8.03 C28.88 -6.99, 41.18 -22.04, 55.05 -36.2 M25.84 9.14 C35.05 2.21, 40.51 -12.33, 55.64 -26.83 M23.88 10.14 C33.62 -1.68, 44.65 -17.33, 52.37 -25.43 M27.96 14 C38.86 2.83, 39.96 0.16, 52.99 -13.8 M29.99 11.31 C38.24 2.92, 45.98 -3.39, 54.75 -12.52 M36.57 12.17 C44.85 6.69, 44.14 6.29, 52.16 -3.49 M39.95 13.43 C42.63 8.08, 49.7 5.92, 52.82 -3.17 M0 0 C0 0, 0 0, 0 0 M0 0 C0 0, 0 0, 0 0 M19.08 7.77 C9.41 2.4, 1.28 -3, -3.29 -14.59 M18.57 7.1 C13.35 2.25, 7.84 -2.73, -0.76 -12.45 M36.96 11.01 C25.24 1.08, 21.98 -7.1, -2.2 -19.57 M34.67 11.42 C29.94 5.28, 20.1 -3.29, -0.09 -21.67 M49.34 15.02 C31.88 -3.56, 12.88 -15.5, -3.95 -31.08 M52.82 10.82 C32.98 -3.6, 10.51 -23.36, 0.06 -31.64 M49.23 6.01 C29.04 -11.31, 15.01 -35.41, -2.9 -39.34 M51.89 4.02 C39.06 -7.16, 24.74 -22.64, -1.67 -40.61 M53.83 -6.55 C35.12 -23.28, 15.9 -37.75, -2.15 -57.15 M49.89 -9.89 C35.08 -21.05, 17.78 -36.83, -1.83 -52.98 M54.45 -22.9 C38.47 -30.54, 21.41 -45.56, 2.63 -60.18 M51.56 -20.1 C31.06 -35.2, 11.15 -54.16, 1.75 -63.16 M47.88 -28.15 C43.33 -37.74, 29.25 -52.86, -0.47 -71.19 M49.35 -30.79 C35.01 -44.2, 13.37 -59.7, -0.22 -75.44 M52.64 -36.5 C37.68 -52.23, 23.96 -66.08, 0.61 -84.3 M49.27 -41.04 C31.42 -56.79, 15.84 -70, 1.47 -83.89 M52.47 -48.15 C30.01 -66.16, 13.69 -88.16, 2.15 -93.22 M52.01 -53.35 C38.38 -62.17, 26.38 -69.75, 0.3 -96.19 M47.6 -58.95 C35.87 -76.66, 18.83 -95.97, 0.92 -103.53 M49.88 -62.88 C29.69 -78.92, 11.67 -92.19, -0.02 -105.55 M50.47 -76.57 C38.85 -82.39, 27.5 -88.48, 2.38 -120.89 M52.11 -73.27 C31.9 -89.04, 12.08 -103.37, 0.29 -118.56 M49.01 -82.1 C32.59 -95.35, 16.04 -111.46, -2.98 -131.32 M49.75 -81.9 C36.6 -94.91, 23.96 -105.13, -1.03 -127.08 M54.11 -91 C39.38 -102.12, 22.26 -114.13, 2.79 -135.49 M48.83 -92.41 C39.34 -104.56, 25.27 -114.95, 3.81 -138.14 M51.91 -101.35 C38.22 -114.76, 26.47 -127.88, 9.37 -136.92 M48.16 -106.56 C36.04 -119.98, 19.34 -131.06, 10.61 -137.79 M52.01 -114.05 C44.04 -126.29, 29.56 -130.97, 20.87 -142.1 M49.28 -116.13 C37.76 -125.84, 27.27 -137.16, 19.4 -142.83 M47.73 -129.11 C42.35 -132.05, 41.44 -134.71, 24.65 -142.28 M50.29 -126.81 C42.84 -131.6, 35.12 -139.7, 28.93 -146.23 M47.79 -134.84 C47.01 -143.92, 43.68 -141.54, 37.82 -150.82 M50.83 -138.55 C45.23 -141.57, 37.38 -145.22, 36.94 -150.19 M48.46 -148.04 C48.14 -148.87, 47.46 -150.05, 45.27 -151.28 M49.38 -147.87 C48.32 -149.2, 45.72 -151.09, 44.66 -151.94" stroke="#fd7e14" stroke-width="1" fill="none"></path><path d="M-0.08 1.45 C-3.07 -46.92, -3.09 -97.09, 0.93 -137.56 M-1.13 1.25 C-2.01 -53.56, -2.58 -104.33, 1.11 -134.34 M0.69 -133.68 C8.18 -134.68, 17.61 -142.39, 19.26 -140.46 M-1.21 -134.13 C4.29 -136.65, 10.85 -139.23, 22.97 -139.33 M23.44 -139.2 C28.58 -144.75, 35.41 -144.77, 51.37 -149.19 M22.53 -141.99 C28.4 -141.99, 38.08 -146.37, 47.65 -150.66 M46.94 -149.41 C50.28 -104.2, 48.29 -54.86, 50.55 16.7 M46.89 -149.78 C49.5 -97.63, 51.01 -43.75, 50.55 13.4 M52.9 10.69 C30.92 5.69, 14.13 7.79, 0.71 1.87 M51.54 12.46 C34.82 8.36, 15.17 3.2, 0.34 -1.73 M0 0 C0 0, 0 0, 0 0 M0 0 C0 0, 0 0, 0 0" stroke="#000" stroke-width="2" fill="none"></path></g></g><g stroke-linecap="round"><g stroke-opacity="0.8" fill-opacity="0.8" transform="translate(131.29827243413456 176.72467466141507) rotate(0 21.885703092288168 -82.84465294180177)" fill-rule="evenodd"><path d="M-2.8 -166.74 C-2.8 -166.74, -2.8 -166.74, -2.8 -166.74 M-2.8 -166.74 C-2.8 -166.74, -2.8 -166.74, -2.8 -166.74 M-4.65 -152.51 C-1.79 -159.32, 1.83 -163.28, 5.41 -163.28 M-2.45 -154.13 C-1.45 -158.01, 0.59 -158.8, 4.81 -164.67 M-3.74 -145.25 C3.37 -148.63, 6.32 -155.96, 12.61 -156.77 M-2.61 -143.32 C3.62 -146.96, 7.35 -152.76, 12.72 -162.2 M-1.93 -130.26 C8.1 -143.5, 11.78 -147.64, 25.02 -159.58 M-3.41 -129.07 C1.3 -137.03, 7.64 -141.39, 20.95 -157.01 M-4.25 -115.37 C3.63 -131.87, 15.67 -136.13, 28.67 -157.88 M-3.41 -119.39 C7.93 -129.42, 16.72 -139.25, 30.83 -155.57 M-2.27 -108.65 C13.09 -119.19, 25.8 -136.32, 39.32 -150.7 M-2.82 -106.85 C12.66 -121.06, 23.84 -136.39, 35.55 -151.01 M-2.99 -93.42 C8.97 -109.26, 29.56 -129.8, 42.38 -149.34 M-2.57 -95.08 C13.92 -111.84, 26.23 -129.65, 44.02 -149.94 M-3.76 -81.05 C20.42 -109.41, 42.21 -135.24, 51.37 -143.59 M-2.83 -81.87 C12.74 -97.84, 24.13 -111.69, 51.74 -144.96 M-0.53 -75.16 C7.49 -84.51, 22.05 -100.35, 52.98 -130.53 M-2.93 -69.82 C14.63 -87.63, 33.62 -110.04, 50.23 -133.85 M-2.8 -60.41 C16.89 -74.28, 24.08 -92.74, 50.64 -116.3 M0.12 -57.47 C18.99 -82.66, 39.13 -102.93, 50.94 -119.77 M2.88 -50.98 C10.96 -60.03, 29.66 -83.47, 49.87 -110.79 M0.44 -46.14 C10.19 -60.71, 25.68 -78.97, 51 -108.24 M0.56 -34.32 C15.06 -48.15, 24.04 -61.77, 52.57 -94.93 M-0.63 -34.08 C14.62 -53.88, 29.44 -71.39, 51.91 -96.86 M-3.27 -26.89 C9.42 -36.11, 19.17 -53.71, 52.8 -84.39 M-2.37 -22.59 C9.84 -37.51, 22.79 -47.55, 51.65 -85.38 M-0.01 -9.96 C11.64 -26.6, 19.29 -40.2, 56.51 -73.38 M-0.59 -10.16 C19.92 -36.62, 39.72 -58.24, 52.81 -73.87 M1.53 -2.04 C10.81 -10.18, 21.88 -24.18, 53.3 -58.39 M1.18 0.67 C13.29 -13.3, 25.53 -24.82, 54.72 -60.81 M15.94 -1.79 C29.65 -17.95, 35.73 -30.57, 52.18 -45.91 M16.94 -5.89 C29.41 -19.73, 38.17 -34.97, 53.59 -49.24 M33.04 -9.16 C33.02 -18.74, 41.47 -22.86, 53.3 -36.24 M30.35 -10.5 C36.72 -17.34, 45.18 -26.26, 54.59 -36.88 M46.23 -16.4 C47.79 -20.72, 51.63 -22.83, 52.56 -23.59 M46.8 -18.02 C48.11 -18.45, 50.85 -20.81, 52.7 -23.17 M0 0 C0 0, 0 0, 0 0 M0 0 C0 0, 0 0, 0 0 M9.73 -4.66 C7.29 -7.6, 5.05 -9.28, -2.21 -10.8 M9.36 -3.17 C7.01 -5.12, 4.65 -7.52, -1.03 -11.23 M18.07 -8.37 C10.13 -6.78, 4.95 -16.46, 1.62 -24.64 M18.48 -5.18 C15.74 -10.57, 10.39 -12.64, -0.48 -19.89 M27.85 -10.05 C16.57 -17.14, 13.3 -27.2, -0.05 -29.05 M23.65 -8.26 C19.66 -16.47, 10.23 -21.09, -0.61 -30.99 M38.5 -14.34 C24.23 -21.24, 3.29 -39.25, 2.29 -44.51 M36.51 -11.6 C28.51 -18.42, 17.53 -26.48, 1.01 -42.13 M44.84 -13.79 C32.79 -25.35, 21.37 -39.16, -4.93 -53.39 M41.49 -15.61 C28.01 -30.13, 11.58 -43.17, -0.76 -53.89 M46.62 -17.66 C37.45 -30.16, 22.43 -39.08, 2.64 -61.14 M49.43 -19.96 C36.11 -34.85, 17.13 -47.33, -0.34 -65.89 M51.97 -26.89 C37.34 -41.8, 18.93 -54.83, 2.22 -72.75 M49.33 -28.89 C40.26 -42.76, 29.57 -50.73, -2.03 -75.57 M54.22 -39.46 C31.78 -56.67, 9.47 -75.81, -1.04 -85.15 M49.68 -42.99 C28.71 -60.1, 10.04 -75.35, -0.63 -84.91 M53.82 -53.19 C37.21 -63.4, 16.28 -75.24, 0.63 -100.31 M48.62 -52.31 C32.17 -67.64, 16.62 -80.6, -2.33 -96.01 M53.61 -58.95 C36.14 -73.14, 15.94 -89.96, 0.92 -104.95 M49.68 -63.98 C31.17 -79.06, 16.29 -93.05, -1.1 -109.09 M46.6 -72.35 C30.39 -88.41, 15.58 -102.59, -5.85 -115.64 M49.89 -72.28 C30.32 -88.9, 13.33 -103.81, -3.52 -118.03 M51.66 -85.54 C35.3 -99.83, 17.71 -112.78, -5.69 -131.25 M51.85 -84.81 C33.07 -100, 16.75 -113.43, -1.44 -129.13 M53.35 -90.93 C36.19 -107.81, 19.34 -121.6, -1.98 -141.32 M51.94 -92.59 C38.94 -104.35, 28.33 -113.1, -4.62 -139.89 M52.84 -105.64 C40.28 -114.57, 26.39 -126.43, -0.69 -147.18 M47.64 -104.85 C38.05 -116.88, 29.18 -126.04, -1.55 -150.54 M50.74 -112.55 C30.35 -132.14, 16.56 -144.73, -3.15 -157.67 M48.66 -116.51 C33.57 -129.52, 16.47 -145.04, -3.87 -162.05 M46.27 -128.07 C29.63 -139.66, 13.64 -162.44, 2.98 -168.28 M48.58 -126.27 C36.04 -137.54, 21.49 -148.09, -0.97 -169.7 M52.08 -135.22 C38.59 -140.33, 38.51 -147.22, 18.77 -159.03 M47.96 -136.12 C41.29 -145.52, 34.25 -149.39, 19.46 -163.38" stroke="#fd7e14" stroke-width="1" fill="none"></path><path d="M1.45 -2.49 C1.36 -53.88, 0.2 -101.59, -6.68 -163.14 M1.25 -1.27 C-5.18 -54.18, -5.18 -103.33, -3.46 -164.77 M-2.8 -166.64 C18.02 -159.75, 32.39 -156.3, 48.53 -151.09 M-3.25 -166.72 C13.05 -159.23, 28.67 -153.95, 49.66 -148.74 M49.79 -149.03 C47.35 -113.99, 50.2 -74.73, 50.45 -18.63 M47 -149.57 C49.21 -99.39, 48.04 -52.81, 48.99 -18.37 M50.23 -18.75 C29.42 -15.05, 12.8 -5, 2.43 1.04 M49.86 -19.45 C30.82 -12.74, 13.44 -5.51, -0.87 0.57 M0 0 C0 0, 0 0, 0 0 M0 0 C0 0, 0 0, 0 0" stroke="#000" stroke-width="2" fill="none"></path></g></g><g stroke-linecap="round"><g stroke-opacity="0.8" fill-opacity="0.8" transform="translate(66.59259370721338 45.09867648919271) rotate(0 5.817830028230674 0.3073451342700082)"><path d="M-1.39 1.65 C2.34 1.58, 8.1 -1.86, 13.02 0.83 M-0.71 -1.04 C3.27 -0.48, 9.31 -0.08, 12.12 1.34" stroke="#000" stroke-width="2" fill="none"></path></g></g><g stroke-linecap="round"><g stroke-opacity="0.8" fill-opacity="0.8" transform="translate(92.0549979450916 45.86207149445045) rotate(0 5.25331672930588 0.3325360728422311)"><path d="M1.59 -1.18 C4.64 1.14, 4.36 2.13, 11.01 1.78 M-1 -0.82 C2.1 1.22, 4.92 1.23, 11.51 -0.06" stroke="#000" stroke-width="2" fill="none"></path></g></g><g stroke-linecap="round"><g stroke-opacity="0.8" fill-opacity="0.8" transform="translate(116.57111045769489 46.104608449245916) rotate(0 6.108544310032812 0.13744533022531868)"><path d="M-1.31 1.61 C5.01 -2.4, 10 0.2, 13.53 -1.34 M-0.91 -0.56 C5.43 -0.1, 9.66 1.15, 11.49 0.44" stroke="#000" stroke-width="2" fill="none"></path></g></g><g stroke-linecap="round"><g stroke-opacity="0.8" fill-opacity="0.8" transform="translate(100.535839331631 117.74843448958063) rotate(0 8.499711758413468 -26.029438937175883)"><path d="M2.72 1.74 C-0.47 -9.2, 8 -22.63, 14.93 -51.54 M-0.94 1.92 C4.54 -10.69, 10.7 -25.88, 17.94 -53.98" stroke="#000" stroke-width="4" fill="none"></path></g></g><g stroke-linecap="round"><g stroke-opacity="0.8" fill-opacity="0.8" transform="translate(91.88005325638369 70.0521507235635) rotate(0 -6.936611774421181 7.6966379148566375)"><path d="M1.74 -3.76 C-2.7 8.03, -9.23 12.31, -13.36 16.63 M1.92 -0.54 C-1.74 5.37, -7.43 8.52, -15.8 19.15" stroke="#000" stroke-width="4" fill="none"></path></g></g><g stroke-linecap="round"><g stroke-opacity="0.8" fill-opacity="0.8" transform="translate(76.0197268190168 89.22052218371437) rotate(0 6.6390177513221715 10.699503155927005)"><path d="M-3.76 3.46 C5.06 7.28, 6.34 11.49, 14.51 14.93 M-0.54 1.83 C5.2 3.26, 8.19 8.07, 17.03 19.57" stroke="#000" stroke-width="4" fill="none"></path></g></g><g stroke-linecap="round"><g stroke-opacity="0.8" fill-opacity="0.8" transform="translate(66.86296277157453 140.31629933252088) rotate(0 6.6129237364802975 -0.7999911618449005)"><path d="M2.01 0.37 C5.94 -1.36, 10.02 -1.8, 9.45 -2.51 M1.07 0.91 C2.59 0.32, 5.91 -0.32, 12.16 -0.65" stroke="#000" stroke-width="2" fill="none"></path></g></g><g stroke-linecap="round"><g stroke-opacity="0.8" fill-opacity="0.8" transform="translate(88.35730338836947 140.17316276903466) rotate(0 7.729640299325183 0.07478940729833994)"><path d="M0.47 2.13 C3.44 1.51, 8.35 -3.23, 12.61 -1.67 M1.16 -0.43 C6.46 -0.33, 11.79 0.19, 14.99 -1.42" stroke="#000" stroke-width="2" fill="none"></path></g></g><g stroke-linecap="round"><g stroke-opacity="0.8" fill-opacity="0.8" transform="translate(115.30276146458709 139.15132674637243) rotate(0 6.9055614298195 0.39108522003425605)"><path d="M2.21 -1.74 C5.11 -2.07, 3.47 -2.53, 14 2.7 M-0.45 0.58 C4.26 -0.33, 9.13 -0.3, 14.26 -1.55" stroke="#000" stroke-width="2" fill="none"></path></g></g></svg>
