<svg version="1.1" xmlns="http://www.w3.org/2000/svg" viewBox="0 0 320.91760732557947 200.5340623068981" width="641.8352146511589" height="401.0681246137962">
  <!-- svg-source:excalidraw -->
  
  <defs>
    <style class="style-fonts">
      @font-face {
        font-family: "Virgil";
        src: url("https://excalidraw.com/Virgil.woff2");
      }
      @font-face {
        font-family: "Cascadia";
        src: url("https://excalidraw.com/Cascadia.woff2");
      }
    </style>
  </defs>
  <g stroke-linecap="round"><g transform="translate(94.76205913775419 75.47754813371412) rotate(0 -33.750242372832986 -18.431061079019173)" fill-rule="evenodd"><path d="M-65.45 -56.89 C-65.45 -56.89, -65.45 -56.89, -65.45 -56.89 M-65.45 -56.89 C-65.45 -56.89, -65.45 -56.89, -65.45 -56.89 M-64.55 -52.17 C-62.03 -53.58, -59.73 -57.05, -55.37 -61.09 M-64.41 -52.42 C-62 -55.78, -58.98 -58.29, -56.57 -61.51 M-65.9 -45.79 C-60.81 -52.5, -55.21 -57.47, -50.71 -63.68 M-64.62 -44.78 C-59.76 -51.16, -54.32 -57.23, -49.93 -63.42 M-59.23 -46.67 C-56.94 -48.9, -54.02 -53.8, -43.96 -61.34 M-58.87 -46.24 C-53.28 -51.74, -47.15 -60, -44.98 -62.87 M-52.94 -48.48 C-49.46 -50.65, -44.95 -53.68, -38.23 -65.02 M-52.94 -47.3 C-47.95 -51.56, -43 -56.76, -38.13 -64.07 M-44.89 -49.85 C-41.14 -53.27, -40.23 -55.39, -31.72 -62.71 M-46.47 -48.85 C-43.5 -52.05, -39.2 -55.97, -33.4 -63.9 M-41.77 -49.01 C-38.35 -53.41, -33.7 -58.09, -29.83 -63.81 M-41.64 -49.05 C-38.35 -52.05, -35.58 -55.01, -27.9 -63.8 M-69.72 -8.04 C-67.37 -12.62, -61.13 -17.18, -61.2 -19.41 M-69.92 -8.58 C-67.52 -12.75, -65.21 -14.53, -60.79 -19.96 M-33.38 -49.51 C-30.48 -54.3, -29.51 -56.76, -24.04 -63.49 M-33.05 -50.26 C-29.31 -54.88, -25.61 -60.23, -22.56 -62.76 M-71.15 0.68 C-65.55 -9.54, -58.24 -14.68, -52.6 -25.16 M-71.52 -1.81 C-64.92 -10.04, -56.68 -18.55, -51.9 -24.65 M-30.25 -50.95 C-27.6 -53.85, -22.98 -53.7, -17.49 -63.45 M-28.69 -50.84 C-25.28 -54.38, -23.55 -57.19, -17.98 -61.71 M-70.39 6.04 C-64.21 -2.9, -58.74 -11.73, -45.75 -26.49 M-71.91 5.23 C-64.88 -3.85, -57.18 -11.92, -46.44 -24.55 M-23.59 -49.11 C-21.4 -49.62, -18.97 -54.69, -13.66 -59.34 M-25.52 -48.13 C-21.93 -51.7, -19.55 -54.05, -14.34 -60.26 M-70.67 10.74 C-64.52 1.77, -60.35 -3.15, -42.21 -25.68 M-70.03 10.76 C-63 2.22, -58.17 -5.35, -40.76 -24.96 M-21.68 -46.94 C-19.19 -50.7, -13.54 -56.21, -10.22 -57.06 M-21.23 -46.65 C-18.05 -51.55, -14.79 -55.39, -11.62 -57.84 M-68.77 13.25 C-58.9 2.39, -50.5 -11.08, -34.34 -23.73 M-69.25 14.19 C-58.51 3.56, -49.37 -8.73, -34.63 -25.03 M-18.6 -43.19 C-13.04 -49.7, -9.36 -54.61, -8.49 -56.72 M-18.91 -44.63 C-15.44 -46.35, -13.78 -49.53, -8.59 -55.88 M-68.3 17.35 C-58.17 6.71, -46.79 -5.87, -29.66 -23.82 M-67.81 18.49 C-55.21 4.9, -43.93 -7.96, -30.47 -24.32 M-16.27 -39.51 C-11.69 -42.68, -9.06 -47.61, -6.09 -54.16 M-16.24 -40.24 C-14.71 -42.86, -11.65 -46.86, -4.05 -53.68 M-64.43 20.66 C-55.25 9.62, -43.49 -2.27, -27.52 -22.77 M-64.44 21.7 C-55.5 9.99, -45.83 -2.23, -25.03 -23.3 M-15.33 -33.96 C-13.6 -36.36, -10.58 -40.78, -4.59 -47.69 M-16.63 -35.4 C-10.38 -40.85, -4.83 -45.42, -3.01 -48.32 M-63.81 22.92 C-52.65 11.87, -41.1 0.56, -21.12 -25.05 M-61.38 24.2 C-50.63 11.1, -36.69 -2.99, -20.39 -22.36 M-15.23 -30.63 C-10.86 -32.58, -6.1 -38.08, 0.63 -44.28 M-14.51 -29.67 C-11.12 -35.06, -4.85 -41.33, -0.03 -45.78 M-57.95 27.2 C-38.6 4.2, -18.51 -20.33, -0.43 -42.16 M-58.65 26.93 C-45.04 10.05, -30.67 -4.76, 0.14 -40.2 M-54.13 27.25 C-37.7 8.67, -17.48 -15.92, -0.13 -36.08 M-55 27.51 C-33.51 3.41, -11 -20.93, 0.44 -34.74 M-48.85 27.02 C-40.11 16.74, -28.98 2.16, 2.61 -31.75 M-48.83 27.55 C-35.22 12.1, -18.57 -5.02, 1.78 -29.91 M-44.19 29.81 C-34.13 17.85, -24.67 7.24, 0.92 -26.53 M-44.98 29.54 C-30.08 12.26, -15.44 -5.74, 2.55 -24.12 M-39.37 28.27 C-28.63 18.76, -21.23 7.89, 1.26 -17.78 M-40.28 29.3 C-29.5 17.33, -17.63 5.19, 2.46 -18.17 M-32.84 27.29 C-20.53 10.97, -7.98 0.09, 2.56 -13.14 M-31.03 26.76 C-20.21 13.2, -9.03 0.56, 1.4 -12.68 M-20.99 20.5 C-15.49 14.88, -10.09 8.52, 0.92 -5.61 M-21.99 21.31 C-12.02 11.06, -4.21 1.31, 2.76 -5.33 M-11.52 16.95 C-10.49 11.17, -3.25 8.81, 0.04 0.4 M-13.18 18.27 C-8.41 11.7, -3.95 5.19, 1.56 -0.08 M-12.29 22.24 C-7.82 16.84, -5.66 11.84, -0.11 5.59 M-11.09 20.99 C-8.42 17.51, -6.63 14.36, 1.62 7.11 M-10.27 24.74 C-6.72 20.67, -4.3 18.1, 2.43 10.5 M-8.78 24.58 C-5.19 20.14, -1.98 15.85, 3.34 10.33 M-6.87 26.85 C-2.12 23.2, -2.73 20.89, 6.04 15.43 M-5.74 26.63 C-2.29 22.19, 1.64 18.93, 4.71 14.69" stroke="#252f3e" stroke-width="0.5" fill="none"></path><path d="M0 0 C0 0, 0 0, 0 0 M0 0 C0 0, 0 0, 0 0 M0.01 -0.21 C-0.06 0.85, 0.16 1.34, 0.27 2.55 M0.13 -0.04 C-0.11 0.73, -0.1 1.44, 0.14 2.54 M-0.03 2.69 C0.34 3.48, 0.42 3.95, 0.51 5.07 M-0.02 2.67 C0.2 3.58, 0.23 4.35, 0.23 5.03 M0.19 5.17 C0.55 5.63, 0.55 6.03, 0.43 7.06 M0.19 4.97 C0.43 5.85, 0.5 6.57, 0.69 7.03 M0.66 7.26 C0.61 7.37, 0.79 7.91, 0.92 8.93 M0.57 7.05 C0.74 7.76, 0.97 8.31, 1.08 8.81 M1.3 8.87 C1.72 10.27, 2.31 10.92, 2.74 12.6 M1.25 9.07 C1.59 9.85, 1.8 10.79, 2.54 12.23 M2.7 12.44 C3.2 13.23, 3.32 14.85, 4.22 16.24 M2.52 12.24 C3.2 13.41, 3.75 14.84, 4.17 16.17 M4.38 16.21 C4.4 16.39, 4.67 16.87, 4.75 17.16 M4.27 16.07 C4.42 16.42, 4.59 16.68, 4.85 17.25 M4.75 17.19 C4.79 17.58, 4.88 17.93, 4.99 18.39 M4.84 17.26 C4.87 17.62, 4.89 17.99, 4.96 18.4 M4.95 18.46 C4.9 18.63, 4.93 18.81, 4.96 19.18 M5 18.41 C4.93 18.58, 4.9 18.77, 4.86 19.13 M4.83 19.07 C4.87 19.42, 4.68 19.52, 4.46 19.93 M4.9 19.16 C4.72 19.43, 4.62 19.74, 4.51 19.89 M4.48 19.82 C4.47 19.98, 4.23 20.3, 3.88 20.62 M4.55 19.89 C4.42 20.04, 4.28 20.28, 3.91 20.65 M3.87 20.56 C3.56 20.88, 3.26 21.15, 3.01 21.41 M3.99 20.7 C3.6 20.92, 3.31 21.21, 3.11 21.45 M2.92 21.85 C2.18 22.93, 0.43 22.85, -2.74 26.15 M3.47 21.6 C0.67 22.82, -0.82 23.99, -2.87 25.92 M-3.2 25.6 C-3.2 25.6, -3.2 25.6, -3.2 25.6 M-3.2 25.6 C-3.2 25.6, -3.2 25.6, -3.2 25.6 M-3.18 25.59 C-3.7 25.96, -4.25 26.08, -4.43 26.13 M-3.16 25.62 C-3.64 25.85, -4.22 26.1, -4.48 26.31 M-4.59 26.4 C-5.04 26.28, -5.43 26.41, -5.77 26.49 M-4.51 26.32 C-4.96 26.4, -5.36 26.39, -5.76 26.55 M-5.73 26.36 C-6.21 26.28, -6.76 26.33, -7.28 26.24 M-5.76 26.51 C-6.42 26.4, -6.88 26.28, -7.37 26.07 M-7.29 26.19 C-7.9 25.79, -8.03 25.65, -8.77 25.08 M-7.23 26.17 C-7.65 25.81, -8.1 25.58, -8.8 25.11 M-8.85 25.17 C-9.11 24.69, -9.93 24.15, -10.52 22.63 M-8.95 25.02 C-9.44 24.34, -10.04 23.69, -10.74 22.7 M-10.54 22.56 C-11.56 21.83, -12.12 21.4, -12.61 20.17 M-10.87 22.66 C-11.36 22.12, -11.71 21.49, -12.4 20.35 M-12.61 20.6 C-12.9 19.76, -13.31 18.63, -14.15 17.62 M-12.36 20.49 C-12.91 19.4, -13.41 18.6, -13.76 17.63 M-14.2 17.73 C-14.4 17.07, -14.69 16, -15.24 14.24 M-13.74 17.71 C-14.5 16.84, -14.8 15.75, -15.62 14.32 M-15.88 14.42 C-16.48 15.12, -16.84 16, -18.67 17.68 M-15.34 14.44 C-16.36 15.57, -17.07 16.45, -18.65 17.92 M-18.3 17.46 C-19.42 18.81, -20.74 19.6, -21.75 20.82 M-18.56 17.62 C-19.66 18.71, -21.14 19.75, -21.68 20.67 M-21.94 20.7 C-22.72 21.06, -23.08 22.07, -24.78 23.09 M-21.56 20.64 C-22.42 21.25, -23.63 21.84, -25.11 22.75 M-24.98 22.77 C-26.2 23.22, -27.1 23.64, -29.01 24.91 M-25.02 22.96 C-25.8 23.46, -26.68 23.72, -28.79 24.68 M-28.81 24.53 C-29.5 25.52, -30.49 25.71, -32.87 26.36 M-28.82 24.93 C-29.55 25.23, -30.5 25.75, -32.5 26.35 M-32.48 26.21 C-33.72 26.94, -34.14 27.12, -36.78 27.31 M-32.49 26.46 C-33.9 26.48, -34.82 26.94, -36.43 27.5 M-36.72 27.55 C-37.77 28.02, -39.85 27.6, -40.95 27.95 M-36.57 27.44 C-37.24 27.63, -38.13 27.89, -40.39 27.98 M-40.91 28.28 C-42.06 28.54, -43.47 28.21, -45.26 28.02 M-40.52 28.03 C-42.08 27.96, -43.52 28.27, -44.74 28.24 M-44.7 28.22 C-45.87 28.01, -46.39 28.03, -48.1 28.28 M-44.94 28.31 C-45.7 28.35, -46.44 28.14, -48.09 28.05 M-48.13 27.9 C-48.95 27.87, -49.98 28.23, -50.59 27.98 M-48.01 28.21 C-48.77 28.25, -49.56 27.99, -50.77 27.9 M-50.77 28.11 C-51.81 27.87, -52.49 27.76, -53.76 27.1 M-50.91 27.89 C-51.85 27.67, -52.47 27.56, -53.56 27.23 M-53.44 27.52 C-54.12 27.22, -54.87 27.11, -56.41 26.6 M-53.65 27.2 C-54.48 26.96, -55.62 26.61, -56.26 26.37 M-56.17 26.33 C-56.66 26.02, -57.36 25.87, -58.77 25.48 M-56.34 26.58 C-57.06 26.12, -57.93 25.76, -58.63 25.5 M-58.5 25.29 C-59.01 25.35, -59.73 25.07, -60.67 24.2 M-58.6 25.43 C-59.35 25.07, -60.36 24.66, -60.79 24.22 M-60.97 24.19 C-61.2 24.03, -61.9 23.59, -62.79 22.8 M-60.77 24.24 C-61.43 23.87, -61.82 23.74, -62.88 22.75 M-63.23 22.78 C-63.56 22.2, -63.96 21.75, -65.01 20.98 M-63.01 22.88 C-63.47 22.35, -63.85 21.98, -64.9 21.19 M-64.97 21.33 C-65.61 20.47, -65.62 19.94, -66.62 18.98 M-64.97 21 C-65.41 20.79, -65.67 20.13, -66.68 19.21 M-66.63 19.4 C-67.24 18.54, -67.4 17.77, -68.28 17.07 M-66.72 19.13 C-67.18 18.59, -67.46 18.16, -68.25 17.31 M-68.32 17.43 C-68.3 16.78, -68.7 16.02, -69.21 14.8 M-68.1 17.27 C-68.58 16.36, -69.04 15.82, -69.33 14.97 M-69.49 14.93 C-69.89 14.52, -69.91 14.06, -70.62 12.65 M-69.52 14.91 C-69.81 14.33, -70.13 13.54, -70.43 12.65 M-70.41 12.68 C-70.71 11.95, -70.99 11.01, -71.31 10.26 M-70.48 12.72 C-70.75 11.86, -70.91 10.92, -71.27 10.29 M-71.28 10.41 C-71.41 9.48, -71.77 8.73, -71.71 7.55 M-71.34 10.35 C-71.37 9.74, -71.4 9.11, -71.95 7.49 M-71.7 7.4 C-72.11 6.56, -72.04 5.77, -72 5 M-71.85 7.49 C-71.82 6.56, -72.2 5.64, -72.05 4.81 M-72.42 4.96 C-72.3 3.95, -72.45 3.15, -72.01 2.19 M-72.23 4.93 C-72.18 4.14, -72.25 3.63, -72.16 1.9 M-72.5 2.09 C-72.3 1.32, -72.21 0.59, -72 -0.96 M-72.39 1.76 C-72.3 0.91, -72.13 -0.02, -72.22 -1.29 M-72.29 -1.47 C-71.79 -2.01, -72.12 -2.69, -71.99 -4.18 M-72.2 -1.3 C-71.99 -1.96, -71.9 -2.52, -71.78 -4.26 M-71.74 -4.01 C-71.68 -4.68, -71.58 -5.1, -70.75 -7.13 M-71.62 -4.14 C-71.6 -5.22, -71.22 -6.07, -70.97 -6.87 M-71.13 -7.06 C-70.76 -7.68, -70.34 -8, -69.94 -9.75 M-70.98 -7.1 C-70.61 -7.66, -70.49 -8.47, -69.97 -9.77 M-69.86 -9.62 C-69.71 -10.23, -69.14 -11.37, -68.95 -12.36 M-70.17 -9.77 C-69.75 -10.6, -69.11 -11.31, -68.7 -12.2 M-68.88 -11.92 C-68.16 -12.53, -68.01 -12.89, -67.22 -14.51 M-68.69 -12 C-68.02 -13.15, -67.4 -13.88, -67.21 -14.55 M-67.29 -14.73 C-66.4 -15.18, -66.11 -15.74, -65.52 -16.89 M-67.08 -14.62 C-66.86 -14.8, -66.29 -15.36, -65.39 -16.74 M-65.29 -16.79 C-65.13 -17, -64.66 -17.53, -63.08 -18.41 M-65.28 -16.78 C-64.82 -17.36, -64.13 -17.76, -63.31 -18.77 M-63.04 -18.69 C-62.44 -19.4, -61.94 -19.8, -60.66 -20.42 M-63.27 -18.71 C-62.47 -19.39, -61.68 -19.86, -60.73 -20.43 M-60.89 -20.81 C-59.9 -20.83, -59.06 -21.81, -58.14 -22.05 M-60.76 -20.67 C-60.32 -20.82, -59.68 -21.38, -58.31 -21.99 M-58.04 -22.06 C-57.38 -22.3, -56.43 -23.07, -55.24 -23.39 M-58.2 -22.05 C-57.54 -22.48, -56.73 -22.75, -55.41 -23.35 M-55.72 -23.18 C-54.92 -23.4, -54.25 -24.14, -52.71 -24.84 M-55.49 -23.61 C-54.77 -23.57, -54.23 -23.97, -52.43 -24.66 M-52.29 -24.85 C-51.43 -24.53, -50.57 -25.18, -49.47 -25.42 M-52.39 -24.67 C-51.76 -24.76, -51.15 -25.01, -49.52 -25.43 M-49.67 -25.32 C-48.03 -25.35, -47.21 -25.59, -46.25 -25.9 M-49.21 -25.35 C-48.45 -25.46, -47.7 -25.75, -46.08 -26.04 M-46.25 -26.18 C-44.64 -26.36, -43.36 -26.12, -42.68 -26.55 M-45.93 -25.95 C-44.52 -26.12, -43.44 -26.41, -42.61 -26.36 M-42.26 -26.7 C-41.21 -26.23, -40.21 -26.75, -38.38 -26.22 M-42.45 -26.42 C-40.85 -26.25, -39.57 -26.61, -38.57 -26.61 M-38.56 -26.27 C-36.76 -26.1, -34.72 -25.84, -33.71 -26.06 M-38.84 -26.6 C-37.55 -26.33, -36.39 -26.55, -33.59 -26.36 M-33.49 -26.71 C-31.77 -26.31, -30.87 -25.65, -27.59 -25.49 M-33.41 -26.09 C-32.3 -25.89, -30.74 -26.11, -28.25 -25.64 M-28.48 -25.75 C-26.88 -25.45, -26.18 -25.14, -22.09 -24.18 M-28.27 -25.68 C-27.1 -25.32, -25.44 -25.09, -22.21 -24.52 M-21.89 -24.29 C-20.92 -24.2, -18.86 -24.15, -16.9 -23.82 M-22.41 -24.72 C-20.53 -24.54, -19.33 -24.25, -16.52 -23.4 M-17.03 -23.37 C-17.2 -25.43, -16.49 -27.23, -16.33 -31.48 M-16.31 -23.19 C-16.33 -25.46, -16.89 -26.96, -16.96 -30.84 M-16.6 -30.8 C-16.6 -30.8, -16.6 -30.8, -16.6 -30.8 M-16.6 -30.8 C-16.6 -30.8, -16.6 -30.8, -16.6 -30.8 M-16.74 -30.61 C-16.4 -31.92, -16.87 -32.43, -16.88 -33.75 M-16.64 -30.78 C-16.67 -31.6, -16.69 -32.42, -16.73 -33.66 M-16.49 -33.33 C-16.89 -34.38, -16.9 -35.41, -17.06 -36.19 M-16.57 -33.57 C-16.75 -34.29, -16.78 -35.22, -16.78 -36.12 M-16.99 -36.29 C-16.81 -37.06, -17.11 -37.93, -17.44 -38.44 M-16.79 -36.05 C-17.1 -36.85, -17.04 -37.72, -17.24 -38.47 M-17.27 -38.31 C-17.53 -39.21, -17.69 -39.65, -17.58 -40.32 M-17.38 -38.29 C-17.3 -38.84, -17.63 -39.31, -17.8 -40.43 M-17.8 -40.48 C-17.87 -41.14, -18.2 -41.82, -18.63 -42.46 M-17.7 -40.46 C-18.04 -41.18, -18.32 -41.84, -18.46 -42.31 M-18.58 -42.53 C-18.82 -42.87, -18.9 -43.26, -19.32 -44.07 M-18.53 -42.38 C-18.71 -43.11, -19.02 -43.58, -19.34 -44.04 M-19.31 -43.95 C-19.57 -44.4, -19.96 -44.9, -20.05 -45.66 M-19.2 -44.07 C-19.7 -44.6, -20.07 -45.29, -20.25 -45.52 M-20.23 -45.51 C-20.44 -46, -20.76 -46.34, -21.33 -46.95 M-20.17 -45.46 C-20.52 -45.9, -20.78 -46.23, -21.36 -46.78 M-21.28 -46.65 C-21.53 -47.13, -21.82 -47.45, -22.7 -47.86 M-21.37 -46.85 C-21.71 -47.12, -22.06 -47.42, -22.67 -47.87 M-22.72 -47.81 C-22.95 -48.19, -23.55 -48.4, -23.95 -48.73 M-22.69 -47.81 C-23.16 -48.27, -23.62 -48.53, -24.13 -48.81 M-24.19 -49 C-24.7 -49.2, -25.47 -49.58, -26.01 -49.79 M-24.15 -48.86 C-24.79 -49.08, -25.32 -49.33, -25.88 -49.63 M-26.03 -49.8 C-26.46 -49.83, -27.5 -50.26, -27.68 -50.35 M-25.89 -49.6 C-26.53 -49.73, -27.11 -50.1, -27.78 -50.18 M-27.64 -50.09 C-28.54 -50.43, -29.03 -50.36, -29.76 -50.82 M-27.82 -50.27 C-28.18 -50.29, -28.8 -50.48, -29.93 -50.78 M-29.71 -50.79 C-30.93 -51.08, -31.51 -50.94, -32.04 -51.17 M-30 -50.74 C-30.66 -50.98, -31.58 -50.99, -32.14 -51 M-32.1 -51.22 C-32.98 -51.11, -33.33 -51.19, -34.62 -51.49 M-32.23 -51.09 C-33.01 -51.22, -33.97 -51.27, -34.85 -51.43 M-34.8 -51.32 C-36.07 -51.42, -36.97 -51.6, -37.87 -51.41 M-34.81 -51.46 C-35.51 -51.22, -36.26 -51.3, -37.51 -51.34 M-38.01 -51.25 C-38.69 -51.37, -40.83 -50.98, -42.66 -51.1 M-37.73 -51.59 C-38.88 -51.28, -40.06 -51.01, -42.84 -50.87 M-42.44 -51.3 C-44.14 -51.13, -46.26 -50.98, -48.09 -50.65 M-42.66 -50.93 C-44.58 -50.61, -46.08 -50.62, -48.68 -50.34 M-48.87 -50.19 C-49.93 -50.33, -51.13 -48.88, -53.63 -49.08 M-48.56 -50.11 C-50.37 -49.69, -52.33 -49.06, -53.72 -48.58 M-53.43 -48.4 C-55.79 -47.97, -56.76 -47.43, -59.58 -47.26 M-54.15 -48.31 C-55.39 -47.82, -56.77 -47.48, -59.26 -46.65 M-59.3 -46.65 C-59.56 -46.6, -59.84 -46.53, -60.34 -46.33 M-59.21 -46.69 C-59.48 -46.61, -59.82 -46.45, -60.28 -46.25 M-60.33 -46.18 C-60.54 -46.18, -60.82 -45.99, -61.27 -45.84 M-60.3 -46.22 C-60.58 -46.12, -60.8 -46.02, -61.32 -45.83 M-61.36 -45.83 C-61.45 -45.79, -61.56 -45.67, -62.12 -45.58 M-61.32 -45.86 C-61.6 -45.73, -61.8 -45.68, -62.04 -45.61 M-62.07 -45.57 C-62.3 -45.57, -62.52 -45.5, -62.69 -45.39 M-62.09 -45.57 C-62.22 -45.58, -62.34 -45.49, -62.7 -45.38 M-62.62 -45.48 C-62.93 -45.29, -63.27 -45.16, -63.53 -45.13 M-62.72 -45.37 C-63 -45.34, -63.27 -45.26, -63.65 -45.15 M-63.63 -45.16 C-63.91 -45.21, -64.1 -45.16, -64.35 -45.09 M-63.59 -45.16 C-63.78 -45.18, -63.94 -45.11, -64.29 -45.08 M-64.36 -45.06 C-64.55 -45.22, -64.94 -45.14, -65.13 -45.23 M-64.3 -45.14 C-64.47 -45.14, -64.74 -45.19, -65.18 -45.28 M-65.16 -45.23 C-65.41 -45.43, -65.6 -45.59, -65.9 -45.92 M-65.18 -45.29 C-65.43 -45.45, -65.58 -45.6, -65.85 -45.89 M-65.89 -45.95 C-66.03 -46.15, -66.1 -46.27, -66.36 -46.87 M-65.83 -45.86 C-66.04 -46.23, -66.12 -46.53, -66.22 -46.83 M-66.36 -46.71 C-66.21 -47.29, -66.48 -47.58, -66.31 -48.13 M-66.32 -46.86 C-66.34 -47.18, -66.3 -47.57, -66.38 -48.26 M-66.26 -48.11 C-66.06 -49.68, -66.77 -51.68, -66.07 -53.07 M-66.59 -48.37 C-66.22 -50.07, -66.49 -51.67, -66.29 -53.19 M-66.4 -53.1 C-66.4 -53.1, -66.4 -53.1, -66.4 -53.1 M-66.4 -53.1 C-66.4 -53.1, -66.4 -53.1, -66.4 -53.1 M-66.61 -53.15 C-66.23 -53.86, -66.12 -54.59, -66.4 -55.34 M-66.39 -53.03 C-66.25 -53.82, -66.26 -54.5, -66.26 -55.12 M-66.18 -55.2 C-66.19 -55.47, -66.18 -55.68, -66.01 -56.04 M-66.21 -55.2 C-66.15 -55.37, -66.14 -55.6, -66.05 -55.98 M-66.07 -55.96 C-65.93 -56.14, -65.87 -56.4, -65.69 -56.58 M-66.05 -56 C-65.91 -56.17, -65.82 -56.3, -65.72 -56.57 M-65.66 -56.45 C-65.29 -56.87, -64.95 -57.16, -64.7 -57.53 M-65.68 -56.64 C-65.43 -56.82, -65.21 -57.03, -64.7 -57.66 M-64.53 -57.81 C-64.19 -57.83, -63.81 -58.4, -63.08 -58.54 M-64.73 -57.61 C-64 -58.07, -63.48 -58.38, -62.84 -58.7 M-63.09 -58.48 C-61.95 -59.26, -61.05 -59.84, -60.4 -60.05 M-62.93 -58.74 C-61.93 -59.24, -61.15 -59.64, -60.24 -59.92 M-60.42 -59.91 C-59.26 -60.29, -58.29 -60.91, -57.22 -61.14 M-60.12 -59.99 C-59.35 -60.14, -58.43 -60.71, -57.23 -61.16 M-57.03 -61.02 C-56.33 -61.29, -55.48 -61.6, -53.69 -62.56 M-56.95 -61.21 C-55.84 -61.59, -54.57 -61.99, -53.92 -62.41 M-53.95 -62.13 C-53.28 -62.7, -52.32 -62.34, -50.32 -63.11 M-53.88 -62.21 C-52.96 -62.73, -51.79 -62.87, -50.19 -63.04 M-50.29 -63.1 C-48.81 -63.23, -47.38 -64.04, -46.52 -64.18 M-50.14 -63.18 C-48.84 -63.7, -47.82 -63.93, -46.6 -63.99 M-46.63 -63.88 C-45 -64.43, -44 -64.58, -42.96 -64.28 M-46.52 -63.92 C-45.64 -64.37, -44.56 -64.28, -42.84 -64.51 M-43.09 -64.69 C-41.41 -64.53, -39.83 -64.55, -38.38 -65.13 M-42.63 -64.63 C-41.66 -64.76, -40.46 -64.93, -38.79 -64.95 M-39.08 -64.66 C-37.41 -65.35, -36.32 -65.24, -34.61 -64.9 M-38.9 -64.92 C-37.29 -64.9, -35.76 -65.18, -34.69 -65.24 M-34.44 -65.21 C-33.19 -65.3, -30.95 -64.77, -30.03 -65.23 M-34.63 -65.03 C-33.48 -64.82, -32.23 -64.86, -30.31 -64.79 M-30.12 -65.05 C-28.63 -64.74, -27.33 -64.57, -26.3 -64.21 M-30.46 -64.94 C-29.12 -64.67, -27.62 -64.54, -26.58 -64.73 M-26.65 -64.62 C-25.15 -64.21, -24.5 -63.89, -22.81 -63.8 M-26.22 -64.52 C-25.36 -64.32, -24.42 -64.23, -22.79 -64.09 M-22.32 -64.3 C-21.36 -63.9, -20.56 -63.69, -19.38 -63.4 M-22.76 -63.91 C-21.6 -63.76, -20.38 -63.31, -19.27 -62.96 M-19.13 -63.32 C-18.25 -62.43, -17.23 -62.18, -16.03 -61.81 M-19.3 -63.21 C-18.49 -62.83, -17.94 -62.59, -16.18 -61.8 M-16.08 -61.87 C-14.96 -61.76, -14.2 -61.23, -13.16 -60.8 M-16.2 -61.81 C-15.45 -61.62, -15.03 -61.23, -13.22 -60.54 M-13.1 -60.5 C-12.4 -59.69, -11.58 -59.38, -10.78 -58.88 M-13.18 -60.5 C-12.67 -59.95, -12.05 -59.61, -10.78 -58.95 M-10.74 -58.84 C-10.1 -58.17, -8.96 -57.77, -8.79 -56.89 M-10.68 -58.77 C-9.94 -58.12, -9.26 -57.67, -8.56 -57.07 M-8.62 -57.1 C-8.12 -56.22, -7.57 -55.84, -6.38 -54.69 M-8.64 -56.88 C-7.86 -56.24, -7 -55.57, -6.43 -54.83 M-6.6 -54.81 C-6.09 -54.19, -5.48 -53.51, -5.01 -52.62 M-6.64 -54.87 C-5.92 -53.9, -5.39 -53.19, -4.8 -52.44 M-4.82 -52.23 C-4.58 -51.26, -3.75 -50.42, -3.23 -49.75 M-4.92 -52.36 C-4.47 -51.62, -4 -50.89, -3.46 -49.8 M-3.2 -49.69 C-3.13 -48.53, -2.72 -47.81, -2.08 -46.97 M-3.52 -49.74 C-3.14 -48.67, -2.55 -47.59, -2.34 -46.86 M-2.26 -46.62 C-1.99 -45.71, -1.8 -44.77, -1.54 -43.35 M-2.41 -46.73 C-2.21 -45.94, -1.87 -45.15, -1.31 -43.63 M-1.72 -43.3 C-0.9 -42.64, -0.73 -41.96, -0.53 -40.18 M-1.31 -43.61 C-1.1 -42.56, -1.05 -41.81, -0.84 -40.22 M-0.58 -39.94 C-0.18 -38.64, -0.56 -37.55, -0.21 -36.27 M-0.69 -39.99 C-0.73 -39.38, -0.69 -38.27, -0.44 -36.56 M0.03 -36.54 C-0.65 -34.98, -0.63 -34.13, -0.2 -32.31 M-0.14 -36.59 C-0.37 -34.94, -0.23 -33.8, -0.34 -32.39 M1.39 -31.9 C-0.07 -19.88, 0.43 -9.06, -0.95 0.89 M-0.06 -31.74 C-0.38 -20.29, 0.29 -6.53, 0.67 0.31 M-0.2 0.01 C-0.13 0.01, -0.1 0.02, -0.01 0 M-0.21 0.01 C-0.13 0, -0.05 0, -0.01 0 M0 0 C0 0, 0 0, 0 0 M0 0 C0 0, 0 0, 0 0" stroke="#000000" stroke-width="1" fill="none"></path></g></g><g stroke-linecap="round"><g transform="translate(134.46205608599843 101.47754813371424) rotate(0 30.641860031460453 -44.207936872087046)" fill-rule="evenodd"><path d="M-29.68 -88.07 C-29.68 -88.07, -29.68 -88.07, -29.68 -88.07 M-29.68 -88.07 C-29.68 -88.07, -29.68 -88.07, -29.68 -88.07 M-29.03 -83.21 C-27.59 -84.35, -27.49 -85.53, -24.94 -86.67 M-28.54 -83.14 C-27.63 -84.63, -26.39 -85.55, -25.35 -86.84 M-25.61 -79.8 C-24.62 -82.22, -23.01 -85.13, -20.54 -86.27 M-26.38 -79.7 C-25.2 -81.71, -23.76 -83.18, -20.13 -86.36 M-24.79 -75.93 C-21.92 -79.42, -20.28 -81.47, -13.86 -88.47 M-25.2 -74.83 C-20.74 -78.28, -18.5 -83.85, -14.01 -88.07 M-22.73 -71.11 C-18.98 -75.45, -15.43 -78.63, -13.91 -82.51 M-23.7 -70.37 C-20.89 -73.25, -18.22 -77.49, -13.18 -84.07 M-21.93 -67.31 C-19.55 -71.45, -12.82 -75.08, -10.87 -78.98 M-22.32 -66.51 C-20.29 -69.33, -16.53 -72.56, -10.58 -77.9 M-20.32 -61.78 C-16.82 -65, -16.32 -67.52, -10.2 -73.65 M-20.65 -61.14 C-17.67 -67.11, -13.43 -71.09, -9.36 -74.22 M-18.98 -55.81 C-18.15 -59.87, -15.58 -63.21, -6.97 -70.57 M-19.16 -57.04 C-18.18 -59.18, -14.84 -62.69, -8 -69.07 M-18.2 -53.44 C-14.25 -56.17, -11 -57.49, -8.06 -64.7 M-17.96 -53.33 C-14.49 -57.55, -11.19 -61.05, -7.34 -65.1 M-15.67 -46.72 C-15.5 -49.81, -12.17 -53.85, -5.67 -58.88 M-16.69 -47.88 C-14.08 -50.39, -12.64 -53.21, -6.99 -59.24 M-15.66 -44.3 C-12.31 -46.68, -6.66 -51.35, -5.68 -56.12 M-14.97 -43.68 C-11.78 -46.48, -9.49 -49.38, -4.07 -55.44 M20.79 -84.95 C21.63 -85.84, 22.36 -86.82, 23.1 -87.32 M20.87 -85.35 C21.53 -85.95, 22.09 -86.66, 22.71 -87.51 M-14.28 -38.22 C-10.33 -43.35, -6.75 -46.3, -3 -51.11 M-13.87 -39.05 C-10.81 -43.11, -8.21 -46.32, -4.24 -50.58 M21.79 -80.8 C23.95 -83.93, 25.72 -85.98, 27.06 -86.65 M22.67 -81.48 C23.56 -82.9, 25.12 -84.02, 28.07 -87.09 M-13.59 -34.6 C-8.52 -37.42, -6.35 -40.44, -2.09 -47.46 M-13.08 -34.23 C-9.12 -38.37, -5.79 -42.57, -2.02 -45.85 M21.38 -71.73 C23.84 -78.02, 28.97 -83.09, 32.49 -90.07 M21.77 -72.83 C25.95 -79.39, 31.33 -83.79, 34.11 -87.89 M-11.23 -29.78 C-6.25 -34.3, -3.73 -38.63, -1.48 -41.71 M-11.21 -30.02 C-8.19 -33.12, -6.17 -35.7, -1.86 -40.54 M19.15 -66.04 C26.55 -73.12, 32.26 -84.52, 39.18 -86.02 M19.62 -64.48 C24.53 -71.19, 28.08 -76.73, 37.93 -87.78 M-10.19 -26.16 C-4.87 -29.76, -1.98 -32.87, 0.23 -35.58 M-9.16 -25.89 C-6.54 -28.46, -3.84 -32.06, -0.47 -36.13 M17.4 -57.14 C24.87 -66.28, 32.76 -76.95, 38.81 -81.92 M17 -56.37 C25.28 -65.34, 31.7 -73.2, 40.05 -82.7 M-7.69 -21.58 C-4.75 -22.82, -2.42 -25.59, 1.14 -31.96 M-8.36 -20.9 C-6.05 -23.96, -3.78 -27.17, 0.91 -31.68 M15.31 -48.7 C22.54 -56.39, 26.96 -61.78, 30.95 -66.19 M14.98 -48.7 C19.87 -53.48, 24.88 -59.96, 31.6 -67.38 M32.83 -67.53 C35.22 -71.31, 37.68 -74.93, 42.94 -79.6 M32.33 -68.18 C34.53 -70.24, 36.68 -72.47, 41.7 -79.33 M-5.81 -15.41 C-3.55 -18.6, -1.32 -22.44, 2.02 -27.65 M-7.01 -16.29 C-3.64 -20.21, -1.43 -23.9, 1.85 -26.82 M13.68 -37.3 C19.78 -47.33, 24.77 -53.19, 30.41 -60.1 M13.42 -39.86 C17.13 -46.16, 23.46 -51.86, 28.91 -58.63 M32.51 -64.06 C36.37 -67.6, 37.56 -69.5, 43.22 -73.49 M32.34 -62.92 C35.89 -65.54, 37.64 -69.03, 42.92 -73.44 M-5.56 -11.65 C-2.99 -14.45, -1.26 -18.51, 3.9 -21.05 M-5.45 -11.85 C-3.77 -14.36, -0.44 -17.11, 3.49 -22.39 M11.89 -30.65 C15.48 -37.57, 20.79 -41.23, 28.13 -49.98 M12.11 -31.81 C17.34 -37.89, 24.36 -46.71, 28.57 -50.31 M33.1 -57.66 C37.18 -60.33, 37.98 -63.91, 43.92 -67.86 M34.36 -57.37 C37.13 -61.24, 40.83 -64.56, 43.26 -69.71 M-4.25 -7.06 C-2.45 -10.87, -0.85 -12.56, 3.27 -17.24 M-3.95 -8.19 C-1.22 -10.53, 1.03 -12.91, 3.75 -17.43 M8.64 -22.89 C14.34 -27.05, 16.63 -28.85, 25.92 -41.24 M8.23 -23.52 C11.66 -27.39, 16.53 -31.3, 25.22 -42.06 M34.45 -53.49 C36.29 -55.92, 39.44 -59.28, 44.46 -63.82 M35.21 -52.5 C38.75 -56.81, 42.52 -62.16, 44.66 -64.95 M-5.14 -2.21 C2.65 -9.88, 7.82 -15.93, 25 -31.73 M-4.7 -1.11 C7.16 -13.02, 16.16 -26.19, 23.47 -34.3 M35.93 -49.12 C39.28 -50.74, 42.03 -53.73, 45.69 -59.36 M36.76 -48.69 C39.56 -50.83, 41.71 -54.05, 46.36 -59.54 M-2.35 2.48 C7.29 -10.59, 18.16 -18.44, 22.85 -26.51 M-1.35 0.01 C5.04 -5.69, 10.81 -12.58, 21.66 -25.84 M37.68 -44.84 C40 -46.89, 42.12 -50.61, 46.53 -55.19 M37.65 -44.33 C41.31 -48.21, 44.99 -50.97, 46.54 -53.97 M74.21 -85.62 C74.72 -85.78, 75.23 -86.98, 76.17 -87.78 M74.1 -85.45 C74.35 -86.07, 75.07 -86.67, 76.06 -87.73 M4.16 3.19 C8.88 -6.57, 16.37 -14.11, 19.86 -15.13 M3.28 2.45 C7.63 -2.85, 11.07 -6.05, 20.72 -16.81 M40.27 -39.39 C41.18 -42.13, 45.68 -46.15, 47.21 -48.72 M38.53 -39.45 C40.89 -41.4, 43.04 -44.59, 47.57 -50.24 M75.35 -81.73 C76.67 -82.22, 79.52 -84.36, 80.38 -87.41 M75.4 -80.99 C76.99 -83.5, 78.94 -84.82, 81.25 -87.5 M10.74 0.2 C11.85 -1.9, 12.99 -3.73, 13.97 -4.78 M10.5 -0.29 C11.72 -1.77, 13.23 -3.53, 14.56 -4.89 M39.37 -33.05 C43.21 -35.27, 43.07 -37.62, 50.17 -45.34 M40.23 -33.69 C41.84 -36.26, 44.53 -38.55, 49.36 -45.38 M74.08 -72.23 C76.76 -79.4, 83.38 -85.03, 84.93 -88.55 M74.1 -71.76 C75.79 -76.49, 78.36 -79.04, 85.61 -86.49 M40.65 -30.55 C43.62 -31.59, 44.94 -34.36, 52.33 -39.86 M40.92 -29.31 C44.03 -34.05, 48.12 -38.58, 51.59 -40.48 M70.26 -63.96 C78.42 -74.04, 83.89 -79.06, 91.45 -86.68 M71.2 -63.12 C79.1 -71.96, 85.25 -79.33, 90.15 -85.72 M42.76 -23.09 C43.71 -26.53, 46.18 -31.01, 51.24 -36.82 M41.41 -23.67 C45.48 -27.9, 48.19 -32.17, 52.02 -35.83 M67.99 -56.33 C75.89 -62.96, 81.93 -70.17, 91.39 -80.51 M69.14 -54.87 C76.7 -64, 85.01 -72.53, 90.9 -81.02 M43.36 -18.19 C46.15 -21.34, 47.47 -25.32, 52.31 -31.54 M42.75 -20.1 C47.21 -24.44, 50.52 -27.55, 52.72 -30.96 M65.7 -48.16 C71.61 -52.52, 76.72 -59.19, 89.2 -72.5 M66.74 -47.23 C72.45 -54.34, 77.52 -59.8, 88.67 -72.25 M45.53 -15.84 C49.03 -19.03, 51.05 -22.94, 55.17 -24.53 M44.47 -15.08 C46.93 -17.19, 50.05 -20.34, 54.7 -26.34 M63.1 -38.11 C70.81 -44.71, 78.18 -55.68, 83.67 -62.14 M64.38 -38.8 C72.64 -45.72, 80.06 -54.77, 86.36 -62.35 M44.93 -10.05 C49.97 -13.17, 52.51 -16.72, 56.18 -20.34 M45.6 -10.89 C49.48 -14.23, 52.74 -18.24, 55.13 -20.58 M63.28 -30.69 C69.21 -37.25, 73.65 -41.13, 80.67 -54 M63.01 -29.48 C68.48 -36.17, 75.86 -43.82, 82.64 -52.36 M44.8 -5.15 C59.6 -17.33, 68.29 -32.77, 78.32 -40.78 M45.06 -4.82 C52.94 -12.07, 60.61 -21.18, 79.67 -43.35 M46.57 -2.29 C57.53 -12.16, 64.24 -19.38, 74.88 -33.32 M47.1 -1.56 C54.93 -7.25, 61.22 -15.37, 76.72 -33.95 M53.33 1.19 C60.69 -8.12, 69.18 -18.06, 71.57 -23.4 M53.06 0.62 C60.25 -7.91, 66.58 -16.14, 73.98 -24.24 M56.42 1.75 C62.65 -5.87, 67.66 -9.41, 71.04 -15.26 M57.45 0.26 C60.31 -1.78, 63.27 -5.66, 70.65 -13.72" stroke="#252f3e" stroke-width="0.5" fill="none"></path><path d="M0 0 C0 0, 0 0, 0 0 M0 0 C0 0, 0 0, 0 0 M-0.1 -0.04 C-0.28 0.04, -0.74 0.06, -1.28 -0.06 M-0.02 -0.05 C-0.29 -0.06, -0.58 0.02, -1.29 -0.06 M-1.22 0.04 C-1.41 0, -1.73 -0.04, -2.25 -0.15 M-1.23 -0.04 C-1.57 -0.13, -1.98 -0.21, -2.27 -0.27 M-2.21 -0.15 C-2.4 -0.26, -2.6 -0.46, -3.14 -0.49 M-2.3 -0.23 C-2.48 -0.35, -2.73 -0.39, -3.15 -0.58 M-3.05 -0.61 C-3.43 -0.74, -3.63 -0.97, -3.79 -0.97 M-3.14 -0.57 C-3.29 -0.67, -3.51 -0.82, -3.84 -0.98 M-3.81 -0.96 C-3.91 -1.09, -4.19 -1.26, -4.32 -1.62 M-3.76 -0.97 C-3.92 -1.12, -4.04 -1.22, -4.41 -1.59 M-4.36 -1.56 C-4.61 -1.92, -4.66 -2.14, -4.89 -2.44 M-4.41 -1.55 C-4.54 -1.76, -4.61 -2.02, -4.91 -2.46 M-4.82 -2.52 C-5.13 -2.72, -5.16 -3.16, -5.55 -3.65 M-4.95 -2.47 C-5.04 -2.78, -5.22 -3.14, -5.46 -3.58 M-5.55 -3.68 C-5.57 -3.92, -5.64 -4.17, -5.91 -4.87 M-5.47 -3.59 C-5.58 -3.98, -5.69 -4.31, -5.91 -4.94 M-4.37 -6.73 C-11.64 -28.05, -18.52 -48.23, -28.72 -83.15 M-5.69 -5.87 C-10.44 -22.77, -15.69 -39.36, -29.8 -82.54 M-29.4 -82.2 C-29.4 -82.2, -29.4 -82.2, -29.4 -82.2 M-29.4 -82.2 C-29.4 -82.2, -29.4 -82.2, -29.4 -82.2 M-29.52 -82.12 C-29.66 -82.75, -29.54 -83.23, -29.84 -83.65 M-29.41 -82.16 C-29.62 -82.69, -29.69 -83.3, -29.79 -83.5 M-29.89 -83.62 C-29.95 -83.97, -30.07 -84.42, -30.06 -84.63 M-29.74 -83.62 C-29.89 -84.01, -29.96 -84.34, -30.02 -84.71 M-30.02 -84.6 C-30.07 -84.88, -30.25 -85.15, -30.18 -85.53 M-30.05 -84.73 C-30.14 -84.97, -30.23 -85.3, -30.21 -85.6 M-30.29 -85.61 C-30.2 -85.83, -30.29 -86.03, -30.3 -86.23 M-30.22 -85.54 C-30.26 -85.75, -30.28 -85.96, -30.28 -86.18 M-30.31 -86.21 C-30.14 -86.68, -30.18 -86.97, -30.25 -87.19 M-30.29 -86.16 C-30.26 -86.62, -30.2 -86.94, -30.12 -87.25 M-30.06 -87.33 C-30.08 -87.53, -29.91 -87.68, -29.71 -88.02 M-30.12 -87.28 C-29.94 -87.56, -29.83 -87.82, -29.66 -88.04 M-29.78 -88 C-29.49 -88.2, -29.13 -88.37, -28.89 -88.47 M-29.69 -88.09 C-29.47 -88.16, -29.27 -88.35, -28.99 -88.54 M-28.92 -88.62 C-28.6 -88.5, -28.14 -88.63, -27.91 -88.74 M-28.93 -88.51 C-28.61 -88.61, -28.23 -88.66, -27.9 -88.72 M-27.68 -87.99 C-23.46 -88.97, -19.44 -87.93, -18.63 -88.66 M-28.15 -88.8 C-24.36 -88.73, -20.55 -88.59, -18.38 -88.5 M-18.1 -88.7 C-18.1 -88.7, -18.1 -88.7, -18.1 -88.7 M-18.1 -88.7 C-18.1 -88.7, -18.1 -88.7, -18.1 -88.7 M-18.02 -88.73 C-17.73 -88.7, -17.56 -88.76, -16.81 -88.62 M-18.06 -88.71 C-17.7 -88.7, -17.23 -88.6, -16.81 -88.66 M-16.77 -88.67 C-16.46 -88.57, -16.27 -88.47, -15.78 -88.45 M-16.78 -88.67 C-16.45 -88.58, -16.2 -88.6, -15.75 -88.48 M-15.72 -88.5 C-15.44 -88.29, -15.12 -88.26, -14.85 -88.17 M-15.71 -88.46 C-15.48 -88.37, -15.3 -88.36, -14.8 -88.12 M-14.89 -88.1 C-14.7 -88.04, -14.62 -87.98, -14.15 -87.63 M-14.86 -88.13 C-14.69 -88.05, -14.52 -87.89, -14.17 -87.72 M-14.17 -87.73 C-14.05 -87.46, -13.8 -87.28, -13.6 -87.14 M-14.18 -87.67 C-13.98 -87.52, -13.78 -87.27, -13.67 -87.13 M-13.67 -87.15 C-13.57 -86.97, -13.47 -86.8, -13.11 -86.3 M-13.62 -87.07 C-13.43 -86.77, -13.29 -86.5, -13.17 -86.28 M-13.22 -86.23 C-12.88 -85.95, -12.77 -85.67, -12.65 -85.2 M-13.1 -86.22 C-12.95 -85.83, -12.73 -85.44, -12.66 -85.18 M-12.7 -85.26 C-12.41 -84.74, -12.3 -84.51, -12.24 -83.78 M-12.62 -85.2 C-12.56 -84.59, -12.35 -84.14, -12.18 -83.75 M-11.65 -82.92 C-4.41 -62, -1.6 -38.58, 3.95 -19.36 M-12.19 -83.51 C-6.32 -61.64, -0.18 -39.26, 4.11 -17.11 M5.52 -17.5 C11.32 -36.38, 14.07 -58.14, 18.91 -82.6 M4.35 -17.37 C7.67 -32.42, 12.4 -48.09, 19.92 -84.54 M20.2 -83.8 C20.2 -83.8, 20.2 -83.8, 20.2 -83.8 M20.2 -83.8 C20.2 -83.8, 20.2 -83.8, 20.2 -83.8 M20.06 -83.74 C20.24 -84.23, 20.62 -84.7, 20.66 -85.22 M20.21 -83.82 C20.36 -84.16, 20.37 -84.4, 20.62 -85.16 M20.71 -85.19 C20.86 -85.55, 21.06 -86.09, 20.96 -86.26 M20.61 -85.21 C20.72 -85.49, 20.9 -85.9, 21.01 -86.33 M21.12 -86.26 C21.23 -86.64, 21.43 -86.95, 21.57 -87.06 M21 -86.24 C21.19 -86.6, 21.33 -86.87, 21.49 -87.12 M21.48 -87.04 C21.63 -87.19, 21.82 -87.46, 22.1 -87.65 M21.56 -87.11 C21.69 -87.27, 21.84 -87.44, 22.1 -87.74 M22.04 -87.67 C22.33 -87.87, 22.51 -87.85, 22.79 -88.05 M22.08 -87.67 C22.31 -87.83, 22.52 -87.89, 22.8 -88.14 M22.79 -88.06 C23.1 -88.24, 23.33 -88.22, 23.73 -88.5 M22.8 -88.13 C23.11 -88.23, 23.52 -88.31, 23.71 -88.42 M23.72 -88.42 C23.95 -88.37, 24.24 -88.56, 24.77 -88.7 M23.77 -88.45 C23.94 -88.45, 24.2 -88.51, 24.87 -88.64 M24.95 -88.75 C25.07 -88.54, 25.37 -88.66, 25.98 -88.78 M24.78 -88.67 C25.37 -88.62, 25.74 -88.7, 26.09 -88.68 M26.67 -89.1 C27.79 -88.01, 29.22 -89.19, 33.67 -88.78 M25.81 -89.05 C28.71 -88.49, 31.96 -89.04, 34.46 -88.84 M34.1 -88.7 C34.1 -88.7, 34.1 -88.7, 34.1 -88.7 M34.1 -88.7 C34.1 -88.7, 34.1 -88.7, 34.1 -88.7 M34.05 -88.83 C34.49 -88.69, 34.9 -88.76, 35.39 -88.64 M34.04 -88.76 C34.46 -88.73, 34.77 -88.65, 35.39 -88.63 M35.4 -88.64 C35.83 -88.59, 36.17 -88.54, 36.53 -88.4 M35.42 -88.66 C35.7 -88.55, 35.94 -88.56, 36.54 -88.48 M36.58 -88.47 C36.73 -88.46, 36.95 -88.26, 37.39 -88.24 M36.56 -88.45 C36.89 -88.29, 37.21 -88.25, 37.37 -88.13 M37.35 -88.2 C37.6 -88, 37.87 -87.82, 38.15 -87.65 M37.37 -88.12 C37.57 -88.07, 37.77 -87.88, 38.09 -87.72 M38.14 -87.72 C38.26 -87.55, 38.43 -87.21, 38.76 -87.19 M38.13 -87.69 C38.29 -87.47, 38.53 -87.21, 38.68 -87.14 M38.74 -87.12 C38.85 -86.87, 38.97 -86.6, 39.28 -86.25 M38.63 -87.11 C38.83 -86.78, 38.99 -86.54, 39.18 -86.28 M39.1 -86.13 C39.27 -85.94, 39.39 -85.64, 39.64 -85.21 M39.16 -86.21 C39.28 -85.93, 39.44 -85.69, 39.61 -85.18 M39.73 -85.18 C39.77 -84.89, 39.94 -84.37, 39.93 -83.76 M39.66 -85.18 C39.66 -84.79, 39.78 -84.45, 40.05 -83.85 M39.46 -83.58 C44.11 -65.22, 50.2 -49.03, 55.03 -16.75 M39.19 -82.96 C45.58 -63.38, 50.41 -41.68, 54.86 -16.78 M55.93 -17.35 C60.89 -31.1, 61.97 -48.19, 71.54 -83.05 M54.82 -17.67 C61.56 -41.43, 69.07 -67.04, 72.67 -84.75 M73.1 -83.8 C73.1 -83.8, 73.1 -83.8, 73.1 -83.8 M73.1 -83.8 C73.1 -83.8, 73.1 -83.8, 73.1 -83.8 M72.98 -83.68 C73.19 -84.15, 73.35 -84.59, 73.45 -85.3 M73.03 -83.83 C73.28 -84.08, 73.35 -84.51, 73.53 -85.23 M73.52 -85.26 C73.77 -85.62, 73.89 -85.85, 74.18 -86.27 M73.52 -85.22 C73.68 -85.53, 73.91 -85.87, 74.03 -86.27 M74.07 -86.27 C74.19 -86.62, 74.41 -86.78, 74.61 -87.09 M74.06 -86.29 C74.22 -86.6, 74.46 -86.88, 74.61 -87.08 M74.5 -87.14 C74.8 -87.34, 74.85 -87.41, 75.12 -87.75 M74.54 -87.15 C74.73 -87.28, 74.81 -87.43, 75.13 -87.7 M75.11 -87.68 C75.35 -87.76, 75.45 -87.88, 75.81 -88.12 M75.12 -87.73 C75.25 -87.81, 75.43 -87.86, 75.82 -88.13 M75.87 -88.16 C76.07 -88.24, 76.12 -88.29, 76.59 -88.5 M75.75 -88.09 C76.05 -88.19, 76.21 -88.23, 76.64 -88.43 M76.57 -88.36 C77.13 -88.45, 77.37 -88.61, 77.74 -88.73 M76.63 -88.39 C76.89 -88.45, 77.09 -88.57, 77.74 -88.59 M77.77 -88.58 C78.19 -88.74, 78.53 -88.74, 79.04 -88.76 M77.76 -88.6 C78.04 -88.66, 78.25 -88.69, 78.99 -88.65 M78.56 -88.58 C81.96 -88.66, 86.43 -89.2, 87.84 -87.94 M79.16 -88.33 C82.37 -89.12, 85.23 -89.14, 88.33 -88.76 M88.3 -88.7 C88.3 -88.7, 88.3 -88.7, 88.3 -88.7 M88.3 -88.7 C88.3 -88.7, 88.3 -88.7, 88.3 -88.7 M88.35 -88.67 C88.79 -88.57, 89.26 -88.62, 89.41 -88.61 M88.28 -88.73 C88.58 -88.71, 88.77 -88.64, 89.35 -88.59 M89.3 -88.46 C89.58 -88.37, 89.91 -88.19, 90.19 -88.14 M89.4 -88.57 C89.56 -88.44, 89.66 -88.39, 90.16 -88.13 M90.14 -88.08 C90.3 -87.93, 90.46 -87.57, 90.73 -87.38 M90.15 -88.13 C90.36 -87.79, 90.53 -87.49, 90.67 -87.28 M90.72 -87.41 C90.68 -87.14, 90.65 -86.81, 90.74 -86.21 M90.64 -87.26 C90.62 -87.1, 90.65 -86.77, 90.82 -86.21 M90.83 -86.33 C90.77 -85.69, 90.77 -85.16, 90.45 -84.67 M90.87 -86.15 C90.73 -85.85, 90.76 -85.44, 90.59 -84.58 M90.57 -84.69 C90.62 -84.24, 90.43 -83.89, 90.29 -83.48 M90.57 -84.56 C90.58 -84.34, 90.47 -84.13, 90.31 -83.53 M90.47 -83.41 C90.07 -83.18, 90.12 -82.7, 89.79 -82.13 M90.37 -83.55 C90.15 -82.99, 89.95 -82.44, 89.84 -82.06 M91.59 -83.1 C82.8 -57.19, 73.81 -32.76, 64.84 -4.47 M89.71 -82.16 C83.86 -60.12, 76.1 -37.84, 65.44 -4.15 M65.8 -4.8 C65.8 -4.8, 65.8 -4.8, 65.8 -4.8 M65.8 -4.8 C65.8 -4.8, 65.8 -4.8, 65.8 -4.8 M65.85 -4.86 C65.49 -4.33, 65.44 -3.61, 65.44 -3.54 M65.87 -4.73 C65.62 -4.34, 65.45 -3.75, 65.37 -3.43 M65.34 -3.36 C65.12 -3.1, 64.9 -2.86, 64.78 -2.28 M65.35 -3.45 C65.15 -3.15, 64.98 -2.77, 64.87 -2.36 M64.74 -2.42 C64.63 -2.14, 64.49 -1.91, 64.28 -1.4 M64.82 -2.3 C64.63 -2.08, 64.58 -1.92, 64.29 -1.47 M64.33 -1.48 C64.2 -1.39, 64.06 -1.13, 63.64 -0.82 M64.28 -1.51 C64.15 -1.36, 63.95 -1.2, 63.71 -0.91 M63.71 -0.87 C63.39 -0.74, 63.15 -0.63, 62.94 -0.53 M63.73 -0.91 C63.4 -0.75, 63.13 -0.6, 63.02 -0.51 M63.09 -0.44 C62.66 -0.31, 62.31 -0.31, 62.15 -0.17 M62.98 -0.49 C62.67 -0.35, 62.35 -0.28, 62.15 -0.19 M62.18 -0.14 C61.75 -0.19, 61.42 0.06, 61.15 0.07 M62.19 -0.21 C61.8 -0.13, 61.53 -0.07, 61.11 0.07 M60.99 0.08 C60.62 0.03, 60.14 -0.04, 59.79 0.16 M61.07 -0.02 C60.81 0.04, 60.53 0.03, 59.89 0.16 M59.14 0.69 C57.12 -0.57, 53.41 0.37, 50.92 0.3 M59.97 -0.24 C57.92 -0.08, 54.87 -0.04, 51.67 0.06 M51.3 0.1 C51.3 0.1, 51.3 0.1, 51.3 0.1 M51.3 0.1 C51.3 0.1, 51.3 0.1, 51.3 0.1 M51.28 0 C50.73 0.15, 50.4 0.19, 49.96 0.1 M51.31 0.12 C50.83 0.03, 50.49 0.11, 50.05 0 M49.94 -0.02 C49.65 0.04, 49.3 0.02, 48.82 -0.11 M50 0.07 C49.63 -0.04, 49.29 -0.08, 48.84 -0.11 M48.89 -0.23 C48.66 -0.26, 48.41 -0.36, 47.99 -0.46 M48.84 -0.1 C48.63 -0.19, 48.31 -0.32, 48.02 -0.46 M48.02 -0.39 C47.74 -0.65, 47.56 -0.72, 47.3 -0.94 M47.97 -0.44 C47.73 -0.58, 47.49 -0.78, 47.33 -0.89 M47.27 -0.82 C47.1 -1.02, 46.93 -1.15, 46.64 -1.54 M47.32 -0.91 C47.13 -1.11, 46.88 -1.39, 46.68 -1.57 M46.71 -1.59 C46.44 -1.9, 46.46 -2.12, 46.11 -2.38 M46.72 -1.56 C46.56 -1.82, 46.45 -1.97, 46.2 -2.42 M46.24 -2.51 C46.07 -2.81, 45.91 -3.31, 45.63 -3.54 M46.26 -2.41 C46.09 -2.76, 45.9 -3.19, 45.76 -3.53 M45.81 -3.56 C45.56 -3.99, 45.35 -4.53, 45.28 -4.92 M45.77 -3.48 C45.58 -3.88, 45.51 -4.25, 45.38 -4.96 M46.46 -5.23 C40.92 -21.94, 39.4 -34.97, 30.35 -71.01 M45.59 -5.78 C40.6 -27.44, 35.78 -48.67, 30.49 -70.2 M30.65 -69.03 C26.4 -50.26, 23.84 -35.75, 14.63 -4.17 M29.96 -70.36 C25.05 -45.21, 18.36 -21.44, 14.02 -4.31 M14.5 -5 C14.5 -5, 14.5 -5, 14.5 -5 M14.5 -5 C14.5 -5, 14.5 -5, 14.5 -5 M14.38 -4.88 C14.44 -4.54, 14.4 -4.08, 14.17 -3.58 M14.55 -4.99 C14.33 -4.42, 14.19 -4.04, 14.14 -3.58 M14.13 -3.69 C13.86 -3.22, 13.75 -3, 13.69 -2.57 M14.12 -3.62 C13.96 -3.33, 13.94 -3.08, 13.69 -2.5 M13.71 -2.46 C13.42 -2.25, 13.39 -1.79, 13.23 -1.73 M13.62 -2.48 C13.48 -2.23, 13.27 -1.81, 13.17 -1.63 M13.22 -1.62 C13.06 -1.43, 12.93 -1.33, 12.55 -1.02 M13.16 -1.68 C13.01 -1.47, 12.87 -1.28, 12.58 -1.02 M12.53 -1.04 C12.35 -0.89, 12.23 -0.81, 11.86 -0.52 M12.6 -1.02 C12.31 -0.81, 12.06 -0.63, 11.89 -0.57 M11.98 -0.48 C11.44 -0.52, 11.11 -0.25, 11.02 -0.27 M11.87 -0.57 C11.61 -0.43, 11.3 -0.34, 10.93 -0.23 M11 -0.16 C10.71 -0.28, 10.32 -0.06, 9.88 0 M10.94 -0.19 C10.58 -0.21, 10.25 -0.1, 9.85 -0.07 M9.8 0.04 C9.48 -0.09, 9.47 -0.12, 8.56 0.12 M9.87 -0.03 C9.52 -0.1, 9.09 -0.03, 8.59 0.03 M8.4 0.43 C6.14 0.59, 3.79 -0.75, -0.61 0.38 M8.87 0.3 C6.84 0.03, 5.29 -0.08, 0.26 0.05 M0 0 C0 0, 0 0, 0 0 M0 0 C0 0, 0 0, 0 0 M0 0 C0 0, 0 0, 0 0 M0 0 C0 0, 0 0, 0 0" stroke="#000000" stroke-width="1" fill="none"></path></g></g><g stroke-linecap="round"><g transform="translate(262.96206371538955 104.17754508195665) rotate(0 2.3429704706248913 -46.98142062450843)" fill-rule="evenodd"><path d="M-23.97 -83.12 C-23.97 -83.12, -23.97 -83.12, -23.97 -83.12 M-23.97 -83.12 C-23.97 -83.12, -23.97 -83.12, -23.97 -83.12 M-29.5 -70.43 C-24.92 -79.44, -15.29 -85.08, -11.87 -89.85 M-28.66 -69.78 C-22.81 -78.21, -15.49 -86.46, -10.91 -91.32 M-26.11 -67.99 C-19.58 -76.41, -14.46 -83.66, -7.02 -91.76 M-26.89 -66.22 C-19.82 -75.56, -12.88 -84.12, -5.7 -92.11 M-29.09 -60.37 C-21.26 -68.51, -14.07 -74.8, 1.26 -92.56 M-27.62 -60.07 C-19.64 -68.97, -11.11 -79.81, 0.74 -94.2 M-24.66 -54.97 C-22.13 -60.06, -20.71 -64.96, -12.27 -71.61 M-27.19 -55.85 C-24.01 -60.07, -19.15 -63.56, -11.5 -74.26 M-9.5 -77.01 C-5.15 -80.34, -3.12 -84.2, 4.18 -92.79 M-8.57 -77.15 C-3.63 -83.99, 2.94 -88.94, 4.44 -92.12 M-24.65 -50.89 C-20.14 -57.05, -16.55 -61.31, -10.43 -67.12 M-23.67 -52.87 C-18.75 -56.59, -15.2 -61.43, -12.75 -65.69 M-1.14 -80.1 C4.84 -84.96, 6.95 -90.25, 10.77 -91.75 M-1.76 -78.57 C2.1 -81.32, 4.03 -84.01, 10.58 -92.21 M-20.51 -49.07 C-17 -53.06, -13.98 -55.36, -9.71 -60.58 M-21.48 -50.15 C-17.96 -53.51, -15.18 -55.91, -9.99 -62.46 M4.25 -78.93 C6.63 -82.78, 11.01 -88.29, 14.15 -91.14 M5.15 -80.48 C9.22 -83.88, 12.59 -88.09, 15.38 -91.05 M-18.83 -45.79 C-13.59 -52.85, -10.99 -56.64, -6.04 -60.69 M-18.56 -47.56 C-14.48 -50.88, -11.82 -53.98, -8.1 -59.45 M9.13 -79.2 C11.67 -83.34, 16.04 -86.6, 19.31 -91.44 M9.64 -79.63 C12.98 -82.05, 14.55 -84.29, 18.87 -89.99 M-14.29 -43.91 C-10.37 -48.27, -6.99 -56.54, -3.52 -56.63 M-14.78 -44.29 C-10.66 -50.04, -6.26 -53.68, -4.23 -57.41 M15.87 -78.84 C16.15 -80.67, 19.09 -83.84, 23.15 -90.06 M14.9 -79.7 C17.7 -81.87, 19.3 -83.41, 24.15 -88.67 M-10.82 -45.13 C-7.9 -45.61, -5.19 -49.8, 0.43 -55.21 M-10.14 -43.92 C-7.32 -47.14, -5.19 -50.67, -0.51 -56.22 M19.75 -77.84 C22.22 -80.81, 24.51 -84.32, 28.95 -89.09 M20.2 -78.44 C21.54 -80.49, 23.84 -81.97, 28.13 -88.27 M-30.22 -15.69 C-28.57 -16.13, -28.21 -17.69, -26.33 -19.12 M-29.87 -15.32 C-28.87 -16.85, -27.4 -18.31, -26.61 -18.94 M-6.57 -42.13 C-3.73 -47.53, 0.6 -52.59, 2.5 -55.2 M-6.63 -42.4 C-4.41 -45.9, 0.24 -49.25, 2.96 -53.84 M22.23 -76.14 C24.1 -78.09, 26.12 -80.27, 30.42 -84.29 M22.7 -75.86 C24.14 -77.94, 26.01 -79.66, 30.02 -84.25 M-28.61 -10.31 C-28.4 -12.37, -24.65 -13.88, -22.76 -17.33 M-29.41 -10.21 C-26.74 -12.47, -24.96 -14.99, -22.42 -17.37 M-1.74 -39.07 C1.07 -44.47, 5 -47.58, 9.29 -52.14 M-2.6 -40.86 C1.21 -44.11, 4.63 -48.45, 8.22 -52.61 M27.32 -75.28 C28.57 -75.96, 29.05 -77.29, 29.96 -78.31 M27.48 -75.24 C28.27 -76.2, 29.27 -77.37, 30.3 -78.39 M-25.85 -6.34 C-23.48 -9.79, -22.29 -12.68, -19.09 -16.23 M-26.78 -6.42 C-25.06 -8.5, -23.65 -11.15, -18.5 -16.07 M2.45 -38.13 C4.02 -41.22, 6.63 -45.1, 11.63 -52.86 M1.89 -38.16 C5.31 -42.98, 8.35 -47.46, 11.81 -52.28 M-23.01 -3.7 C-19.45 -9.38, -16.23 -11.07, -14.79 -15.99 M-24.07 -4.03 C-20.37 -8.4, -17.4 -11.31, -14.35 -14.72 M5.64 -38.19 C10.35 -42.45, 10.9 -44.01, 15.6 -50.43 M6.23 -38.65 C9.77 -42.39, 14.09 -47.24, 17.17 -50.17 M-21.84 -1.8 C-18.33 -5.39, -13.47 -9.34, -9.9 -13.11 M-19.72 -1.21 C-17.95 -4.25, -15.23 -7.74, -10.08 -13.34 M10.67 -34.87 C10.57 -38.56, 15.22 -41.27, 20.1 -49.13 M9.99 -37.17 C11.69 -39.73, 14.39 -42.78, 20.61 -49.19 M-15.69 -1.88 C-11.79 -5.41, -9.99 -9.91, -4.64 -13.5 M-14.82 -2.05 C-11.11 -5.6, -8.43 -10.65, -5.4 -12.08 M14.7 -33.76 C18.9 -37.59, 21.32 -44.8, 25.48 -46.04 M12.6 -35.41 C18.1 -39.43, 22.15 -44, 24.51 -47.63 M-10.27 0.45 C-9.64 -3.67, -3.41 -8.69, 1.5 -12.17 M-11.58 0.4 C-7.44 -3.72, -4.9 -8.11, 0.09 -13.32 M17.05 -33.43 C21.34 -36.4, 25.81 -39.78, 26.8 -44.64 M17.02 -32.71 C20.76 -37.75, 25.68 -42.16, 27.92 -44.8 M-8.49 1.24 C-1.56 -5.42, 3.57 -9.01, 6.55 -12.54 M-7.01 0.34 C-2.76 -2.44, -0.23 -6.46, 5.15 -12.47 M20.37 -30.13 C20.77 -33.14, 22.23 -33.66, 28.95 -42.89 M17.94 -29.47 C20.45 -32.11, 23.92 -35.01, 30.75 -41.97 M-3.6 2.74 C2.55 -3.67, 5.16 -6.58, 14.82 -16.39 M-0.98 0.59 C2.29 -4.8, 7.87 -10.78, 14.2 -17.37 M19.63 -24.18 C25.98 -27.11, 29.59 -36.43, 33.98 -39.59 M19.45 -22.97 C24.14 -28.9, 27.21 -32.53, 32.35 -39.44 M6.12 0.89 C12.92 -7.85, 18.47 -17.34, 35.71 -36.18 M5.44 0.52 C14.92 -12.74, 24.24 -23.76, 35.51 -34.12 M8.51 2.36 C18.55 -9.21, 25.89 -17.34, 37.57 -30.39 M8.88 0.1 C19.75 -11.04, 27.89 -20.96, 36.86 -31.63 M17.62 -4.59 C20.84 -7.41, 24.42 -12.86, 36.26 -23.14 M18.33 -3.83 C22.64 -8.66, 26.26 -14.57, 36.1 -24.63" stroke="#252f3e" stroke-width="0.5" fill="none"></path><path d="M0 0 C0 0, 0 0, 0 0 M0 0 C0 0, 0 0, 0 0 M-0.11 0.21 C-0.77 -0.16, -1.62 -0.22, -3.92 -0.45 M-0.16 -0.08 C-1.37 -0.22, -2.27 -0.23, -3.9 -0.28 M-3.54 0.1 C-4.59 -0.38, -5.7 -0.2, -7.45 -0.32 M-3.84 -0.07 C-5.08 -0.39, -6.3 -0.28, -7.91 -0.63 M-7.41 -0.21 C-8.58 -0.48, -10.19 -0.8, -11.37 -1.1 M-7.73 -0.31 C-9.22 -0.58, -10.44 -1, -11.77 -0.86 M-11.9 -1.27 C-12.99 -1.21, -14.5 -1.43, -15.25 -1.87 M-11.72 -0.91 C-12.89 -1.32, -14.34 -1.78, -15.32 -1.86 M-15.24 -1.61 C-16.15 -2.4, -17.19 -2.09, -19.03 -3.07 M-15.26 -1.79 C-16.8 -2.12, -18.08 -2.6, -18.93 -2.72 M-18.82 -2.94 C-19.97 -2.82, -20.62 -3.11, -21.98 -3.92 M-18.81 -2.84 C-19.55 -2.9, -20.47 -3.13, -22.05 -3.73 M-22.18 -3.82 C-22.98 -3.94, -24.31 -4.73, -24.89 -4.69 M-22.06 -3.6 C-22.66 -3.93, -23.39 -4.3, -24.72 -4.83 M-24.89 -4.78 C-25.4 -5.04, -25.95 -5.36, -26.85 -5.89 M-24.74 -4.76 C-25.41 -5.05, -25.95 -5.31, -26.97 -5.81 M-27.02 -5.73 C-27.26 -5.93, -27.44 -6.16, -28.07 -6.6 M-26.96 -5.81 C-27.19 -5.96, -27.4 -6.11, -28.03 -6.52 M-27.89 -6.39 C-28.22 -6.7, -28.51 -6.78, -28.79 -7.17 M-28.05 -6.51 C-28.19 -6.65, -28.44 -6.81, -28.95 -7.18 M-28.85 -7.28 C-29.18 -7.36, -29.42 -7.72, -29.63 -7.83 M-28.87 -7.24 C-29.1 -7.42, -29.38 -7.67, -29.52 -7.89 M-29.61 -7.96 C-29.69 -8.15, -29.85 -8.26, -29.96 -8.56 M-29.61 -7.91 C-29.75 -8.11, -29.86 -8.33, -30.02 -8.6 M-29.86 -8.51 C-30.01 -9.1, -30.15 -9.23, -30.39 -9.89 M-30.06 -8.6 C-30.08 -9.03, -30.2 -9.31, -30.51 -9.98 M-30.56 -9.87 C-30.64 -10.48, -30.66 -10.93, -30.67 -11.38 M-30.41 -10 C-30.47 -10.41, -30.52 -10.78, -30.55 -11.33 M-30.67 -10.97 C-30.89 -12.58, -30.22 -14.23, -30.25 -16.17 M-30.42 -11.42 C-30.77 -13.21, -30.43 -14.87, -30.53 -16.55 M-30.6 -16.5 C-30.6 -16.5, -30.6 -16.5, -30.6 -16.5 M-30.6 -16.5 C-30.6 -16.5, -30.6 -16.5, -30.6 -16.5 M-30.52 -16.58 C-30.55 -16.75, -30.52 -17.06, -30.35 -17.93 M-30.66 -16.45 C-30.54 -16.75, -30.6 -17.17, -30.46 -17.84 M-30.54 -17.89 C-30.27 -18, -30.25 -18.29, -30.05 -18.79 M-30.43 -17.9 C-30.36 -18.1, -30.26 -18.31, -30.03 -18.79 M-29.95 -18.78 C-29.85 -18.91, -29.55 -19.2, -29.29 -19.34 M-30.02 -18.85 C-29.87 -18.95, -29.7 -19.1, -29.27 -19.41 M-29.38 -19.46 C-29.05 -19.39, -28.71 -19.61, -28.31 -19.68 M-29.34 -19.4 C-29.02 -19.42, -28.74 -19.52, -28.3 -19.63 M-28.34 -19.52 C-27.68 -19.62, -27.15 -19.43, -26.47 -19.22 M-28.31 -19.67 C-27.96 -19.58, -27.48 -19.51, -26.52 -19.37 M-26.52 -19.21 C-26.08 -19.13, -25.63 -19.09, -25.38 -18.92 M-26.53 -19.24 C-26.13 -19.15, -25.86 -19.1, -25.42 -18.84 M-25.47 -18.96 C-24.87 -18.76, -24.56 -18.52, -24.03 -18.43 M-25.4 -18.82 C-24.88 -18.63, -24.51 -18.42, -23.95 -18.37 M-23.6 -18.21 C-22.5 -18.01, -21.47 -16.92, -18.17 -16.43 M-23.84 -18.47 C-22.44 -17.87, -20.53 -16.8, -18.84 -16.31 M-18.91 -16.34 C-16.93 -15.42, -15.57 -15.36, -13.24 -14.45 M-18.44 -16.16 C-17.2 -15.77, -15.24 -15.64, -13.16 -15.04 M-13.27 -15.08 C-11.18 -14.83, -9.23 -14.05, -7.45 -13.54 M-12.78 -14.67 C-10.83 -14.67, -9.11 -14.45, -7.31 -13.87 M-7.03 -13.41 C-5.31 -13.46, -3.64 -13.65, -1.45 -13.22 M-6.97 -13.85 C-5.5 -13.57, -4.02 -13.79, -1.34 -13.66 M-1.52 -13.26 C0.7 -13.39, 2 -13.88, 3.42 -13.48 M-1.32 -13.82 C0.26 -13.78, 1.35 -13.67, 3.52 -13.69 M3.54 -13.5 C4.37 -14.35, 5.71 -14.37, 6.94 -14.31 M3.42 -13.76 C4.67 -13.84, 6.04 -14.3, 7.39 -14.44 M7.3 -14.1 C8.26 -14.71, 8.73 -15.2, 10.88 -15.68 M7.33 -14.57 C8.32 -14.65, 9.2 -15.01, 10.54 -15.41 M10.38 -15.75 C11.5 -16.17, 12.43 -16.32, 13.4 -16.66 M10.7 -15.36 C11.51 -15.92, 12 -16.33, 13.62 -16.77 M13.62 -17.11 C14.53 -17.29, 15.47 -18.12, 15.64 -18.91 M13.46 -16.76 C14.2 -17.56, 15.14 -18.1, 15.77 -18.6 M15.69 -18.53 C16.28 -19.04, 16.43 -20.05, 17.41 -20.82 M15.64 -18.77 C16.52 -19.57, 17.09 -20.53, 17.25 -20.86 M17.42 -20.86 C17.57 -21.8, 17.92 -22.81, 18.54 -23.38 M17.47 -20.99 C17.61 -21.94, 18.02 -22.84, 18.35 -23.56 M18.64 -23.68 C18.71 -24.14, 18.36 -24.75, 18.87 -26.46 M18.39 -23.52 C18.52 -24.44, 18.61 -25.33, 18.56 -26.46 M18.77 -26.3 C18.51 -26.83, 18.78 -27.45, 18.67 -28.46 M18.78 -26.36 C18.6 -26.8, 18.69 -27.38, 18.44 -28.41 M18.63 -28.35 C18.25 -29.18, 18.28 -29.85, 17.88 -30.12 M18.49 -28.46 C18.33 -29, 18.21 -29.81, 18.04 -30.3 M18.03 -30.29 C17.9 -30.81, 17.37 -31.49, 17.07 -32.05 M17.99 -30.27 C17.73 -30.86, 17.4 -31.4, 17.15 -31.95 M16.99 -32 C16.93 -32.52, 16.37 -33.11, 15.88 -33.26 M17.12 -31.8 C16.8 -32.53, 16.28 -33.02, 16.03 -33.48 M15.89 -33.41 C15.58 -33.99, 14.65 -34.53, 14.33 -34.7 M15.91 -33.43 C15.69 -33.61, 15.18 -33.93, 14.31 -34.8 M14.51 -34.63 C13.83 -35.16, 13.3 -35.74, 12.2 -36.3 M14.31 -34.9 C13.71 -35.02, 13.29 -35.5, 12.04 -36.15 M11.81 -36.03 C11.47 -36.19, 10.64 -36.76, 9.3 -37.47 M11.98 -36.09 C11.27 -36.56, 10.69 -36.84, 9.31 -37.26 M9.3 -37.36 C7.97 -38.05, 6.66 -38.25, 6.1 -38.81 M9.24 -37.32 C8.6 -37.69, 7.6 -37.88, 5.86 -38.68 M5.83 -38.71 C-0.22 -40.27, -3.3 -41.86, -9.98 -41.66 M6.05 -38.25 C2.77 -39.73, -2.33 -41.44, -8.25 -43.01 M-8.6 -43.1 C-8.6 -43.1, -8.6 -43.1, -8.6 -43.1 M-8.6 -43.1 C-8.6 -43.1, -8.6 -43.1, -8.6 -43.1 M-8.67 -43.25 C-9.74 -43.67, -10.24 -43.48, -11.52 -43.79 M-8.55 -43.19 C-9.21 -43.31, -9.7 -43.51, -11.35 -44.07 M-11.29 -43.91 C-11.79 -44.15, -12.22 -44.24, -13.74 -44.94 M-11.27 -44.09 C-11.95 -44.46, -12.88 -44.75, -13.83 -45.01 M-13.48 -45.17 C-14.41 -45.52, -15.09 -45.63, -16.18 -46.27 M-13.67 -45.09 C-14.28 -45.3, -14.96 -45.71, -16.11 -46.23 M-16.1 -46.07 C-16.72 -46.25, -16.93 -46.95, -18.04 -47.51 M-16.09 -46.27 C-16.45 -46.48, -16.91 -46.61, -18.18 -47.43 M-18.07 -47.44 C-18.67 -47.72, -19.52 -48.52, -20.01 -48.68 M-18 -47.27 C-18.66 -47.65, -19.07 -48.21, -20.01 -48.79 M-20.07 -48.57 C-20.44 -49.3, -21.18 -49.71, -21.65 -49.95 M-20.11 -48.8 C-20.43 -49.12, -20.95 -49.59, -21.84 -50.18 M-21.53 -50.07 C-22.08 -50.39, -22.6 -51, -23.08 -51.85 M-21.65 -50.22 C-22.03 -50.46, -22.53 -50.94, -23.27 -51.71 M-23.09 -51.69 C-23.79 -52.28, -24.43 -53.11, -24.8 -53.41 M-23.31 -51.56 C-23.61 -52.17, -24.15 -52.76, -24.7 -53.27 M-24.91 -53.19 C-25.37 -54.1, -25.4 -54.41, -26.77 -56.71 M-24.77 -53.42 C-25.25 -53.99, -25.83 -55.08, -26.76 -56.64 M-26.74 -56.88 C-27.44 -57.55, -27.37 -58.32, -28.24 -59.94 M-26.81 -56.8 C-27.35 -57.94, -27.8 -59.19, -28.17 -60.3 M-28.43 -59.87 C-28.86 -61.28, -28.67 -62.05, -29.55 -64.15 M-28.47 -60.13 C-28.78 -61.78, -29.14 -62.89, -29.31 -63.98 M-29.19 -63.74 C-29.1 -65.09, -29.15 -65.63, -29.64 -68.14 M-29.42 -63.95 C-29.5 -64.83, -29.37 -65.91, -29.71 -67.97 M-29.76 -67.51 C-29.76 -68.64, -29.69 -69.42, -29.69 -71.03 M-29.53 -67.66 C-29.56 -68.99, -29.38 -70.24, -29.45 -70.78 M-29.25 -70.64 C-29.19 -71.68, -29.3 -72.25, -29.21 -73.98 M-29.33 -70.89 C-29.23 -71.82, -29.28 -72.61, -28.83 -73.76 M-28.83 -73.5 C-28.88 -74.29, -28.61 -75.19, -28.22 -76.67 M-28.86 -73.65 C-28.69 -74.59, -28.48 -75.42, -27.98 -76.3 M-28.05 -76.57 C-27.74 -76.97, -27.58 -77.92, -26.67 -78.76 M-27.97 -76.38 C-27.85 -77.25, -27.5 -77.9, -26.92 -78.92 M-26.77 -78.78 C-26.48 -79.69, -25.96 -79.82, -25.19 -81.12 M-26.79 -78.8 C-26.62 -79.51, -26.18 -79.97, -25.37 -81.09 M-25.37 -81.06 C-24.76 -81.58, -24.57 -82.35, -23.9 -83.57 M-25.5 -81.14 C-24.94 -82.06, -24.25 -82.81, -23.85 -83.38 M-23.48 -83.43 C-22.91 -83.9, -22.03 -84.76, -21.99 -85.6 M-23.81 -83.26 C-23.21 -83.96, -22.86 -84.36, -21.96 -85.35 M-21.82 -85.32 C-21.4 -85.79, -20.37 -86.11, -19.91 -86.94 M-21.97 -85.25 C-21.05 -85.83, -20.27 -86.41, -19.62 -87.17 M-19.95 -87.07 C-19.46 -87.63, -18.81 -87.99, -17.4 -88.89 M-19.59 -87.2 C-19.36 -87.56, -18.72 -87.71, -17.39 -88.71 M-17.6 -88.65 C-16.59 -88.95, -15.8 -89.8, -15 -90.22 M-17.28 -88.75 C-16.67 -89.1, -15.84 -89.69, -14.84 -90.1 M-15.12 -89.9 C-13.72 -90.68, -12.56 -91.25, -12.04 -91.48 M-14.75 -90.02 C-13.95 -90.56, -13.19 -91.04, -12.16 -91.26 M-11.93 -91.59 C-11.48 -91.53, -10.54 -92.2, -9.36 -92.02 M-12.22 -91.34 C-11.54 -91.63, -10.91 -91.9, -9.23 -92.26 M-9.46 -92.25 C-8.29 -92.73, -7.33 -93.03, -6.21 -93.14 M-9.31 -92.24 C-8.25 -92.66, -7.11 -92.87, -6.16 -93.19 M-5.99 -93.26 C-5.51 -93.38, -5.12 -93.34, -2.98 -93.88 M-6.38 -93.03 C-5.04 -93.28, -4.05 -93.56, -3.15 -93.46 M-3.27 -93.88 C-2.4 -93.68, -1.1 -93.53, -0.2 -93.62 M-2.99 -93.56 C-2.66 -93.64, -1.88 -93.66, 0.04 -93.89 M0.23 -94.03 C0.89 -94.24, 1.48 -94.09, 3.42 -94 M-0.01 -94.01 C1.11 -94.1, 2.45 -93.87, 3.2 -94.06 M2.98 -94.18 C4.28 -94.1, 5.39 -93.93, 6.93 -94.02 M3.38 -94.17 C4.49 -93.81, 5.36 -93.9, 6.69 -94.01 M6.64 -93.65 C7.54 -93.6, 9.09 -93.97, 10.32 -93.75 M6.52 -93.82 C7.34 -93.96, 8.2 -93.73, 9.94 -93.51 M10.13 -93.85 C10.82 -93.75, 11.46 -93.66, 13.15 -92.78 M9.94 -93.7 C10.72 -93.63, 11.4 -93.35, 13.23 -92.98 M13.5 -93.21 C14.52 -93.16, 15.08 -92.71, 16.51 -92.19 M13.31 -93.05 C14.24 -92.82, 14.86 -92.73, 16.45 -92.43 M16.7 -92.67 C17.69 -92.08, 20.31 -91.29, 22.41 -90.94 M16.32 -92.68 C17.72 -92.2, 18.91 -91.79, 22.45 -90.72 M22.31 -90.99 C22.9 -90.8, 23.46 -90.55, 24.73 -90.13 M22.1 -90.88 C23.12 -90.49, 23.99 -90.21, 24.72 -89.95 M24.74 -89.96 C25.08 -89.81, 25.92 -89.45, 26.45 -89.15 M24.52 -89.91 C25.14 -89.78, 25.72 -89.34, 26.39 -89.02 M26.25 -89.13 C26.94 -88.55, 27.64 -88.44, 28.03 -87.96 M26.46 -89.03 C26.91 -88.69, 27.57 -88.31, 28.27 -87.82 M28.07 -88.02 C28.6 -87.48, 28.99 -87.25, 29.47 -86.58 M28.23 -87.97 C28.58 -87.42, 29.14 -86.87, 29.34 -86.59 M29.31 -86.58 C29.74 -86.03, 30.07 -85.56, 30.11 -85.15 M29.45 -86.62 C29.55 -86.21, 29.75 -85.88, 30.12 -85.24 M29.89 -85.24 C30.05 -84.59, 30.07 -83.68, 30.27 -83.23 M30.14 -85.09 C30.24 -84.57, 30.27 -84.03, 30.28 -83.27 M30.63 -83.39 C30.01 -81.28, 30.49 -79.63, 30.09 -78.22 M30.36 -83.28 C30.5 -81.51, 30.35 -79.89, 30.35 -78.74 M30.3 -78.6 C30.3 -78.6, 30.3 -78.6, 30.3 -78.6 M30.3 -78.6 C30.3 -78.6, 30.3 -78.6, 30.3 -78.6 M30.23 -78.73 C30.19 -78.12, 30.28 -78.04, 30.2 -77.27 M30.27 -78.63 C30.18 -78.15, 30.23 -77.7, 30.13 -77.17 M30.06 -77.19 C30.07 -76.96, 29.89 -76.87, 29.7 -76.17 M30.15 -77.17 C30.04 -76.9, 29.86 -76.58, 29.71 -76.18 M29.69 -76.25 C29.45 -76.07, 29.14 -75.82, 28.98 -75.62 M29.75 -76.25 C29.46 -76.01, 29.21 -75.77, 28.95 -75.63 M28.98 -75.63 C28.56 -75.45, 28.34 -75.44, 27.92 -75.36 M28.95 -75.58 C28.64 -75.5, 28.35 -75.45, 27.96 -75.42 M28.01 -75.4 C27.79 -75.37, 27.42 -75.45, 27.34 -75.43 M27.97 -75.37 C27.83 -75.43, 27.64 -75.46, 27.33 -75.47 M27.32 -75.55 C27.04 -75.63, 26.73 -75.62, 26.36 -75.66 M27.3 -75.51 C27.11 -75.49, 26.9 -75.55, 26.45 -75.71 M26.53 -75.67 C26.12 -75.75, 25.79 -75.93, 25.44 -75.99 M26.44 -75.71 C26.26 -75.78, 25.93 -75.84, 25.44 -76.06 M25.33 -76.18 C25.12 -76.29, 24.64 -76.34, 24.14 -76.68 M25.4 -76.11 C25.12 -76.16, 24.79 -76.31, 24.21 -76.56 M24.44 -76.91 C22.7 -76.66, 22.14 -77.25, 19.38 -77.94 M24.35 -76.54 C23.05 -77.02, 22.49 -77.32, 19.83 -78.4 M19.88 -78.06 C18.43 -78.33, 16.54 -79.39, 14.99 -79.72 M19.59 -78.33 C18.51 -78.64, 17.42 -79.09, 15 -79.53 M14.87 -79.73 C13.63 -79.44, 11.97 -80.16, 10.35 -79.95 M15.01 -79.71 C14.09 -79.82, 13.03 -79.88, 10.06 -80.02 M10.58 -80.74 C8.18 -80.56, 7.47 -80.1, 4.83 -80.41 M10.06 -80.19 C8.44 -80.41, 6.49 -80.69, 5.05 -80.6 M5.27 -80.43 C3.07 -80.71, 2.06 -80.33, 1.17 -80.22 M5.16 -80.62 C3.65 -80.49, 2.53 -80.49, 0.91 -80.52 M1.22 -80.69 C-0.14 -79.87, -1.23 -80.17, -2.29 -79.86 M1.03 -80.3 C-0.41 -80.28, -1.51 -80.01, -2.53 -79.85 M-2.46 -79.84 C-3.54 -79.5, -5.2 -79.39, -5.57 -79.26 M-2.51 -79.82 C-3.41 -79.52, -4.24 -79.25, -5.7 -78.96 M-5.77 -79.06 C-6.97 -78.45, -7.67 -78.17, -8.43 -77.67 M-5.6 -78.86 C-6.32 -78.7, -6.95 -78.38, -8.32 -77.66 M-8.28 -77.62 C-9.06 -77.45, -9.55 -76.61, -10.38 -76.04 M-8.22 -77.76 C-8.86 -77.09, -9.66 -76.61, -10.35 -76.18 M-10.19 -76.03 C-10.57 -75.4, -11.3 -74.69, -11.99 -74.08 M-10.3 -76.05 C-10.78 -75.39, -11.35 -74.88, -11.86 -74.14 M-11.82 -73.95 C-12.23 -73.45, -12.68 -72.12, -12.55 -71.56 M-11.79 -74.13 C-12.19 -73.39, -12.25 -72.75, -12.64 -71.6 M-12.7 -71.78 C-12.84 -71.21, -13.11 -70.33, -12.89 -69 M-12.67 -71.74 C-12.92 -70.75, -12.99 -69.67, -12.92 -68.89 M-13.12 -68.73 C-13.15 -68.32, -12.97 -67.7, -12.9 -66.72 M-12.99 -68.71 C-12.85 -68.42, -12.98 -67.87, -12.85 -66.74 M-12.85 -66.7 C-12.73 -66.32, -12.48 -66.16, -12.12 -65.02 M-12.76 -66.78 C-12.52 -66.16, -12.46 -65.63, -12.3 -64.86 M-12.41 -65.04 C-12.16 -64.36, -11.85 -64.12, -11.34 -63.25 M-12.32 -65.01 C-11.87 -64.27, -11.46 -63.5, -11.22 -63.28 M-11.31 -63.07 C-11.07 -63.01, -10.75 -62.67, -9.89 -61.59 M-11.24 -63.31 C-10.93 -62.75, -10.41 -62.14, -9.96 -61.79 M-9.86 -61.79 C-9.34 -61.2, -8.72 -60.38, -8.3 -60.49 M-10.02 -61.81 C-9.49 -61.33, -9.15 -60.92, -8.1 -60.32 M-8.31 -60.1 C-7.45 -59.56, -6.32 -59.46, -5.72 -58.77 M-8.29 -60.28 C-7.51 -59.88, -6.61 -59.35, -5.79 -58.92 M-5.5 -59.18 C-4.86 -58.8, -4.38 -58.16, -2.45 -57.75 M-5.74 -58.79 C-4.96 -58.66, -4.23 -58.33, -2.53 -57.4 M-2.82 -57.73 C-1.15 -56.88, -0.08 -56.92, 0.92 -56.42 M-2.66 -57.32 C-1.81 -57.11, -1 -56.79, 1.09 -56.08 M2.37 -55.84 C6.07 -54.43, 9.23 -52.22, 16.07 -51.92 M0.38 -55.64 C4.43 -54.45, 7.95 -54.29, 15.12 -51.81 M15.2 -51.7 C15.2 -51.7, 15.2 -51.7, 15.2 -51.7 M15.2 -51.7 C15.2 -51.7, 15.2 -51.7, 15.2 -51.7 M15.3 -51.9 C15.72 -51.7, 16.48 -51.45, 17.97 -50.96 M15.07 -51.77 C16.07 -51.32, 17.19 -50.91, 17.82 -50.84 M17.82 -50.58 C18.48 -50.39, 19.1 -50.18, 19.97 -49.71 M17.89 -50.8 C18.4 -50.54, 18.9 -50.2, 20.25 -49.74 M20.4 -50.04 C20.74 -49.77, 21.23 -49.57, 22.23 -48.57 M20.27 -49.78 C20.8 -49.4, 21.62 -49.17, 22.5 -48.64 M22.46 -48.51 C22.97 -48.4, 23.5 -48.11, 24.4 -47.69 M22.42 -48.62 C22.83 -48.45, 23.31 -48.28, 24.58 -47.46 M24.32 -47.55 C25.26 -47.3, 25.73 -46.51, 26.46 -46.43 M24.49 -47.5 C24.96 -47.31, 25.55 -46.91, 26.26 -46.24 M26.26 -46.15 C26.68 -45.95, 27.18 -45.63, 28.08 -44.93 M26.3 -46.33 C26.78 -46.12, 27.14 -45.76, 28 -44.93 M27.93 -45.08 C28.44 -44.7, 28.8 -44.27, 29.55 -43.54 M28.01 -44.95 C28.39 -44.64, 28.9 -44.18, 29.47 -43.63 M29.34 -43.43 C29.87 -43.11, 30.19 -42.89, 30.72 -42.13 M29.42 -43.61 C29.87 -43.17, 30.3 -42.6, 30.76 -42.02 M30.56 -41.91 C31.15 -41.4, 32.13 -40.49, 32.99 -38.92 M30.56 -42.1 C31.52 -40.89, 32.19 -39.71, 32.76 -38.93 M32.74 -38.84 C32.99 -38.08, 33.29 -36.91, 33.99 -35.76 M32.58 -38.86 C33.1 -37.89, 33.63 -36.94, 34.06 -35.49 M34.49 -35.4 C34.66 -34.78, 34.71 -33.98, 34.9 -31.83 M34.26 -35.41 C34.41 -34.46, 34.6 -33.33, 35.12 -31.78 M35.4 -31.75 C34.98 -30.79, 35.33 -29.36, 35.07 -28.08 M34.91 -32.06 C34.94 -30.75, 35.07 -29.89, 35.36 -28.11 M35.01 -28.02 C34.97 -27.47, 35.23 -26.2, 35.24 -25.1 M35.25 -28.01 C35.29 -26.95, 35.09 -25.68, 35.25 -24.97 M35.16 -24.9 C35.11 -24.22, 34.75 -23.05, 34.91 -22.02 M35.12 -25.04 C35.05 -23.87, 34.94 -22.89, 34.62 -22.08 M34.75 -21.9 C34.17 -21.02, 34.08 -20.66, 33.98 -18.92 M34.58 -21.98 C34.44 -20.87, 33.94 -19.9, 33.93 -19.19 M33.85 -19.04 C33.53 -18.42, 33.01 -17.22, 32.94 -16.46 M33.91 -19.14 C33.38 -18.04, 33.01 -17.32, 32.59 -16.59 M32.83 -16.57 C32.1 -16.04, 31.86 -15.5, 31.28 -14.07 M32.58 -16.37 C32.13 -15.54, 31.72 -14.91, 31.24 -14.16 M31.21 -13.74 C30.62 -13.15, 30.37 -12.49, 29.7 -11.96 M31.12 -14.16 C30.63 -13.25, 30.12 -12.66, 29.58 -11.8 M29.43 -11.97 C28.87 -11.17, 28.14 -10.5, 27.68 -9.34 M29.62 -11.77 C29.02 -11.08, 28.2 -10.37, 27.46 -9.7 M27.45 -9.53 C26.74 -9.15, 26.27 -8.2, 25.68 -7.47 M27.61 -9.5 C27.14 -9.28, 26.48 -8.73, 25.31 -7.82 M25.33 -7.61 C24.81 -6.99, 24 -6.85, 22.96 -6.15 M25.42 -7.59 C24.86 -7.15, 24.08 -6.75, 22.92 -5.82 M23.24 -6.09 C22.16 -5.42, 21.83 -5.09, 20.19 -4.61 M22.87 -5.9 C22 -5.35, 20.96 -4.93, 20.29 -4.5 M20.09 -4.53 C19.33 -4.2, 18.21 -3.77, 17.25 -3 M20.2 -4.42 C19.27 -3.95, 18.63 -3.82, 17.52 -3.18 M17.17 -3.05 C17.11 -2.89, 15.91 -2.5, 14.18 -2.27 M17.36 -3.33 C16.43 -2.75, 15.53 -2.46, 14.23 -1.97 M14.42 -2.18 C12.89 -1.67, 11.73 -1.48, 11.24 -1.47 M14.29 -1.94 C13.4 -1.78, 12.85 -1.55, 10.94 -1.16 M10.79 -1.37 C10.17 -0.77, 9.21 -1.1, 7.59 -0.66 M10.77 -1.3 C9.85 -1.17, 8.61 -0.93, 7.2 -0.53 M7.17 -0.77 C6.42 -0.05, 4.95 -0.52, 3.71 -0.1 M7.5 -0.7 C6.43 -0.49, 5.89 -0.25, 3.67 0.02 M3.97 -0.23 C2.65 -0.41, 1.49 -0.32, -0.06 0.16 M3.67 -0.19 C2.29 -0.04, 0.74 0.05, -0.13 -0.18 M0 0 C0 0, 0 0, 0 0 M0 0 C0 0, 0 0, 0 0 M0 0 C0 0, 0 0, 0 0 M0 0 C0 0, 0 0, 0 0" stroke="#000000" stroke-width="1" fill="none"></path></g></g><g stroke-linecap="round"><g transform="translate(281.8620576118739 152.69530415375723) rotate(0 -134.71101903778057 6.662933726550591)" fill-rule="evenodd"><path d="M-271.2 -23.75 C-271.2 -23.75, -271.2 -23.75, -271.2 -23.75 M-271.2 -23.75 C-271.2 -23.75, -271.2 -23.75, -271.2 -23.75 M-270.22 -18.89 C-268.24 -20.05, -267.53 -22.53, -266.41 -23.19 M-269.95 -19.1 C-269.18 -20.06, -268.28 -20.9, -266.03 -23.51 M-267.65 -15.91 C-265.1 -17.6, -263.76 -19.94, -262.46 -21.07 M-267.46 -16.44 C-266.12 -17.09, -264.77 -18.83, -262.49 -21.18 M-264.03 -13.34 C-262.44 -14.93, -261.23 -17.22, -259.4 -19.07 M-264.18 -13.78 C-262.66 -15.44, -261.44 -16.86, -259.81 -18.55 M-261.36 -11.49 C-260.18 -13.58, -257.88 -14.79, -255.56 -17.07 M-260.72 -10.59 C-259.24 -12.62, -257.66 -14.81, -255.71 -16.66 M-258.25 -8.86 C-256.44 -9.47, -255.49 -11.83, -251.44 -14.78 M-258.04 -7.94 C-256.19 -9.94, -254.69 -11.71, -252.43 -14.92 M-255.03 -6.22 C-252.98 -8.68, -250.68 -11.84, -248 -13.67 M-254.07 -6.34 C-252.26 -9.62, -250.15 -12.19, -248.24 -13.54 M-252.34 -4.31 C-248.95 -5.05, -249.38 -6.76, -245.19 -11.17 M-251.57 -4.3 C-249.75 -5.41, -248.16 -7.66, -244.49 -11.79 M-247.47 -1.92 C-244.97 -5.48, -243.75 -7.78, -240.73 -9.47 M-247.31 -1.71 C-246.43 -3.62, -245.06 -5.04, -240.86 -9.14 M-245.13 0.87 C-244.18 -1.53, -242.26 -3.47, -237.06 -7.59 M-245.21 0.86 C-242.79 -1.61, -240.39 -5.12, -237.2 -8.19 M-242.03 2.08 C-238.15 0.6, -236.34 -3.63, -232.68 -6.45 M-241.37 2.61 C-238.17 -0.48, -235.34 -4.06, -233.34 -5.92 M-237.98 6.47 C-234.97 2.22, -234.06 1.21, -227.89 -5.71 M-237.36 5.65 C-236.12 3.6, -234.35 1.11, -228.8 -5.17 M-235.48 7.49 C-232.64 3.83, -228.31 -1.01, -224.54 -4.52 M-234.9 7.06 C-231.31 3.98, -228.71 1.24, -225.22 -3.18 M-230.23 9.47 C-226.17 6.19, -223.41 1.67, -221.13 -1.96 M-230.78 9.43 C-228.48 5.71, -225.98 4.23, -221.98 -1.09 M-228.86 12.1 C-225.69 7.3, -221.79 4.46, -218.74 -0.48 M-228.03 11.85 C-223.44 7.45, -220 3.2, -217.33 0.05 M-224.99 12.5 C-220.12 11.89, -217.95 6.11, -212.2 -0.1 M-223.76 12.64 C-220.81 10.29, -217.46 6.22, -213.77 1.54 M-219.42 15.91 C-215.03 9.98, -213.23 5.26, -209.83 1.88 M-220.34 15.19 C-215.93 10.9, -212.06 4.93, -209.15 2.2 M-217.34 16.63 C-211.96 11.77, -210.48 10.04, -203.69 2.3 M-217.28 17.52 C-212.56 12.75, -207.67 6.33, -203.93 3.45 M-213.93 16.5 C-210.62 16.08, -206.03 11.22, -200.15 5.79 M-212.05 18.68 C-209.64 15.46, -207.62 12.23, -200.81 5.5 M-208.27 18.55 C-205.86 16.56, -200.3 11.55, -195.59 6.03 M-209.14 19.76 C-205.78 17.2, -203.28 13.39, -197.02 5.45 M-206.15 20.54 C-198.96 15.8, -197.81 14.87, -192.04 7.71 M-204.1 20.55 C-202.36 18.19, -199.24 15.66, -192.01 7.57 M-201.42 25.38 C-198.51 19.02, -197.09 18.26, -189.45 7.09 M-201.31 23.86 C-196.71 18.55, -192.12 13.92, -187.62 8.85 M-197.77 23.11 C-191.73 19.41, -188.03 12.37, -182.9 7.48 M-196.36 24.61 C-192.08 18.38, -186.79 13.26, -182.86 9.17 M-191.98 25.12 C-191.26 22.41, -185.39 18.12, -177.78 9.56 M-193.05 26.68 C-188.64 21.92, -185.83 19.22, -178.88 9.36 M-188.47 29.52 C-183.84 21.8, -178.36 15.98, -175.13 12.22 M-188.6 28 C-183.58 21.77, -179.94 17.06, -175.64 12.69 M-183.58 28.19 C-181.51 21.67, -173.16 19.06, -170.08 12.66 M-185.04 28.19 C-181.68 26.31, -178.99 22.94, -170.41 12.59 M-181.77 30.57 C-179.2 25.11, -174.3 23.44, -167.23 14.23 M-181.49 30.11 C-177 25.38, -171.87 21.64, -166.41 13.21 M-175.9 30.23 C-173.8 27.67, -169.66 23.52, -160.29 12.47 M-175.7 33 C-172.39 25.66, -166.6 20.22, -160.49 13.04 M-171.42 32.71 C-166.53 28.08, -163.8 22.55, -157.63 15.68 M-172.3 34.02 C-166.02 25.4, -160.59 18.06, -155.94 14.22 M-168.62 32.28 C-161.15 28.61, -158.26 23.51, -151.88 17.24 M-168.25 33.66 C-163.11 29.13, -157.58 24.4, -152.18 14.43 M-161.49 34.32 C-159.06 29.16, -153.77 24.31, -145.45 16.66 M-163.87 33.75 C-157.26 27.07, -150.11 20.47, -147.45 16.65 M-158.7 34.55 C-153.81 28.28, -146.83 23.11, -143.41 15.14 M-158.93 35.4 C-152.48 28.28, -146.74 23.47, -141.88 16.37 M-151.71 34.92 C-147.68 33.4, -146.77 27.66, -135.77 16.9 M-152.98 34.49 C-147.6 28.77, -141.32 21.93, -136.89 15.56 M-149.78 37.14 C-145.58 31.78, -139.81 28.43, -133.02 15.73 M-147.44 35.86 C-144.83 31.32, -140.99 27.68, -130.88 16.9 M-144.78 38.73 C-136.34 31.43, -132.45 22.29, -127.68 15.54 M-142.64 37.08 C-137.42 30.65, -131.58 24.26, -125.98 16.97 M-139.47 40.09 C-132.54 31.11, -124.54 24.19, -121.88 16.97 M-139.2 38.12 C-134.36 32.2, -130.91 27.47, -121.74 18.5 M-133.74 37.58 C-128.68 33.17, -125.5 28.8, -116.27 17.13 M-134.47 38.07 C-127.81 30.08, -121.29 22.86, -115.21 16.8 M-131.43 38.05 C-123.88 29.51, -115.99 22.54, -111.51 18.48 M-130.46 38.4 C-125.07 33.98, -119.93 28.81, -110.62 16.28 M-123.31 40.2 C-116.79 32.21, -110.16 21.8, -103.27 14.36 M-125.03 39.88 C-119.25 32.84, -112.87 27.06, -103.47 14.64 M-121.26 39.85 C-114.32 32.49, -108.04 22.48, -97.04 15.3 M-119.17 38.6 C-113.62 33.71, -109.2 27.79, -97.57 14.82 M-111.18 38.01 C-105.47 29.5, -98.24 20.51, -93.73 13.11 M-112.13 37.64 C-105.24 29.35, -98.42 21.71, -91.73 15.76 M-107.22 38.22 C-103.61 29.34, -95.17 25.82, -89.22 15.89 M-106.71 37.07 C-101.94 29.89, -95.11 22.24, -87.54 15.11 M-101.31 38.84 C-96.91 34.24, -91.41 27.86, -81.99 13.89 M-103.09 39.91 C-99.76 35.23, -95.01 29.78, -82.05 15.63 M-96.87 37.07 C-91.43 29.24, -85.38 24.27, -74.59 12.8 M-95.53 36.81 C-91.33 31.5, -85.69 25.25, -75.52 12.26 M-87.46 36.37 C-81.4 29.21, -76.28 20.38, -69.18 12.6 M-89.31 35.12 C-84.52 28.71, -78.47 22.91, -68 11.56 M-82.49 33.93 C-76.66 26.95, -68.65 17.82, -62.55 12.31 M-83.53 35 C-78.13 28.22, -72.94 22.43, -62.61 10.13 M-78.81 35.28 C-73.19 27.62, -65.27 20.42, -60.2 12.37 M-78.88 35.7 C-74.53 31.06, -70.2 24.74, -58.71 11.65 M-70.95 35.02 C-68.06 29.48, -64.04 23.16, -51.49 10.84 M-71.02 32.98 C-65.43 24.83, -58.87 18.43, -51.21 10.73 M-63.82 30.54 C-58.59 24.08, -50.81 14.6, -44.85 8.38 M-65.44 30.41 C-58.2 23.6, -53.14 17.28, -44.97 8.54 M-56.51 26.67 C-51.3 20.23, -41.63 12.37, -38.94 8.42 M-56.42 28.76 C-49.62 19.26, -41.64 12.02, -38.08 6.67 M-49.05 26.61 C-43.48 17.17, -34.62 11.73, -31.42 5.54 M-49.97 26.51 C-43.27 20.21, -37.7 12.63, -31.82 4.14 M-41.36 21.42 C-34.73 16.08, -31.6 12.37, -21.92 3.27 M-41.89 24.04 C-37.07 17.61, -32.83 13.95, -23.77 2.83 M-32.8 20.6 C-28.83 12.61, -20.93 7.18, -16.22 1.65 M-33.49 19.89 C-29.21 16.06, -27.51 10.95, -17.12 -0.25 M-26.37 15.69 C-22.15 10.97, -17.88 6.34, -4.58 -6.75 M-24.98 16.94 C-20.55 12.26, -17.32 6.43, -5.21 -7.32 M-15.66 13.51 C-11.58 9.68, -7.12 2.79, -0.95 -6.85 M-18.55 13.39 C-11.75 7.59, -7.32 1.67, 0.17 -7.17 M-5.71 4.92 C-3.17 2.26, -1.23 0.95, 3.46 -2.8 M-4.96 5.58 C-2.38 1.81, 0.28 -1.58, 2.08 -3.06" stroke="#ff9900" stroke-width="0.5" fill="none"></path><path d="M0 0 C0 0, 0 0, 0 0 M0 0 C0 0, 0 0, 0 0 M0.43 0.37 C-2.18 1.89, -4.17 2.64, -7.01 4.45 M-0.15 -0.36 C-2.86 1.89, -5.33 3.44, -6.66 4.34 M-5.91 5.2 C-8.39 6.27, -9.53 7.26, -12.73 8.56 M-6.25 4.37 C-8.2 5.19, -9.25 6.04, -13.35 8.44 M-12.51 9.02 C-14.55 8.86, -16.67 11.12, -20.12 12.94 M-12.7 8.43 C-14.26 9.6, -16.14 9.88, -19.63 12.58 M-20.47 12.2 C-22.1 12.76, -24.27 14.98, -27.28 16.5 M-19.73 12.58 C-21.67 13.16, -23.72 14.28, -27.25 16.02 M-26.71 16.68 C-30.5 17.86, -31.85 18.26, -35.33 20.09 M-27.11 16.01 C-29.94 17.54, -33.05 18.71, -34.54 19.23 M-35.1 18.84 C-36.88 20.34, -39.66 21.75, -42.74 21.87 M-34.86 19.65 C-36.88 20.2, -39.35 21.44, -42.26 22.81 M-42.54 22.76 C-44.57 22.85, -48.51 23.87, -49.87 24.87 M-41.92 22.65 C-44.04 23.21, -46.31 23.81, -50.27 25.13 M-50.15 24.9 C-51.76 25.63, -53.56 26.46, -58.14 27.43 M-50.11 24.84 C-52.54 25.72, -54.91 26.53, -57.86 27.72 M-57.36 27.52 C-59.22 28.94, -61.25 28.27, -66.49 29.15 M-57.87 27.3 C-60.39 28.04, -62.94 28.86, -66.03 29.61 M-65.06 29.78 C-67.97 29.67, -69.26 31.66, -73.64 31.14 M-65.93 29.95 C-68.6 30.19, -71.43 30.79, -73.72 31.98 M-74.56 31.33 C-75.14 31.69, -78.15 32.23, -81.26 33.72 M-74.24 32.06 C-76.34 32.12, -78.96 33.32, -81.81 33.28 M-82.45 33.33 C-84.5 33.12, -85.61 34.45, -89.64 35.1 M-81.93 33.14 C-84.68 33.96, -87.57 34.2, -90.08 34.66 M-89.55 35.41 C-93.01 35.66, -93.9 35.77, -97.52 35.66 M-90.05 35.15 C-93.53 35.5, -96.14 35.24, -97.99 35.98 M-97.36 35.1 C-100.97 35.48, -103.69 35.93, -106 36.55 M-98.12 35.95 C-100.29 36.16, -102.23 36.56, -105.73 36.32 M-105.44 36.16 C-108.59 37.32, -111.8 37.41, -113.5 37.46 M-106.15 36.38 C-108.95 37.12, -111.54 37.09, -114.1 37.25 M-114.49 36.68 C-116.16 37.23, -118.16 37.3, -121.23 36.92 M-113.66 37.09 C-116.79 37.34, -118.93 37.25, -121.63 36.96 M-122.4 37.4 C-124.95 37.32, -128.5 37.87, -132.96 36.12 M-121.45 37.46 C-125.07 36.54, -129.72 36.89, -132.27 36.47 M-132.71 37.84 C-135.03 36.83, -139.12 36, -142.62 35.45 M-132.81 36.89 C-136.56 36.72, -140.44 36.25, -142.66 36.04 M-142.42 35.91 C-145.15 36.76, -149.61 35.64, -152.78 34.09 M-143.25 36.08 C-145.21 35.97, -147.67 35.91, -153.52 35.17 M-154.1 34.11 C-156.55 33.52, -162.05 33.56, -164.62 33.07 M-153.43 34.94 C-155.39 34.55, -158.12 34.13, -164.15 33.62 M-163.35 33.17 C-166.83 32, -168.74 32.48, -173.49 30.19 M-164.22 33.18 C-167.3 33.11, -170.52 31.8, -174.29 31.48 M-173.17 31.4 C-175.9 31.35, -179.03 30.18, -184.25 28.64 M-173.43 31.46 C-177.64 29.76, -182.29 28.9, -183.5 28.7 M-184.38 29.14 C-186.39 27.57, -188.09 27.04, -194.42 25.92 M-183.45 28.91 C-187.1 27.16, -190.61 26.69, -194.04 25.27 M-193.37 25.94 C-197.26 24.37, -199.52 24.15, -203.31 22.34 M-193.85 25.32 C-196.64 24.76, -198.56 23.41, -203.09 21.78 M-203.13 22.88 C-204.44 21.96, -207.24 19.76, -211.75 18.27 M-202.83 21.73 C-206.42 20.78, -210.48 19.01, -212.76 18.54 M-212.81 17.78 C-215.98 16.03, -218.24 14.7, -220.81 14.38 M-212.13 18.52 C-215.78 16.62, -219.09 14.93, -221.37 14.18 M-220.6 13.56 C-223.3 11.73, -226.21 10.86, -229.61 8.92 M-221.33 14.01 C-223.1 12.82, -225.75 11.35, -230.34 9.79 M-229.49 9.47 C-232.17 6.89, -235.64 6.39, -238.1 4.05 M-230.74 9.62 C-232.99 7.77, -235.13 6.66, -238.56 4.52 M-238.06 3.42 C-241.55 2.19, -243 0.96, -246.87 -0.93 M-238.72 4.42 C-240.34 3.49, -242.92 2.06, -247.18 -1.34 M-246.25 -0.83 C-248.97 -3.22, -251.38 -3.07, -255.86 -7.26 M-247.57 -0.73 C-249.64 -2.61, -252.48 -5.2, -255.08 -6.73 M-256.12 -7.24 C-258.8 -9.62, -260.62 -11.78, -262.25 -13.47 M-254.93 -6.55 C-257.65 -8.96, -259.95 -9.89, -262.61 -12.67 M-263.72 -12.4 C-263.86 -13.62, -266.18 -16.55, -271.1 -19.11 M-262.52 -13.27 C-265.16 -14.43, -266.91 -16.48, -270.05 -19.73 M-270.4 -19.43 C-270.68 -19.94, -271.21 -20.22, -271.34 -20.45 M-270.52 -19.43 C-270.73 -19.78, -271.03 -20.18, -271.36 -20.52 M-271.36 -20.66 C-271.5 -21.07, -271.66 -21.32, -271.75 -21.62 M-271.42 -20.63 C-271.55 -20.91, -271.67 -21.21, -271.82 -21.73 M-271.86 -21.58 C-271.79 -22.05, -271.77 -22.27, -271.78 -22.68 M-271.81 -21.67 C-271.8 -21.89, -271.78 -22.15, -271.78 -22.73 M-271.71 -22.77 C-271.57 -22.93, -271.48 -23.25, -271.38 -23.64 M-271.74 -22.73 C-271.59 -22.95, -271.5 -23.31, -271.35 -23.53 M-271.32 -23.62 C-271.17 -23.68, -270.95 -23.99, -270.56 -24.14 M-271.37 -23.57 C-271.01 -23.78, -270.79 -24.07, -270.65 -24.19 M-270.65 -24.13 C-270.41 -24.32, -270.27 -24.41, -269.71 -24.46 M-270.64 -24.2 C-270.36 -24.3, -270.04 -24.4, -269.66 -24.51 M-269.69 -24.44 C-269.37 -24.5, -269.09 -24.56, -268.35 -24.38 M-269.57 -24.51 C-269.38 -24.53, -269.06 -24.47, -268.49 -24.42 M-268.44 -24.33 C-268.1 -24.38, -267.72 -24.13, -267.04 -24.02 M-268.46 -24.43 C-268.06 -24.39, -267.76 -24.22, -267.11 -23.92 M-266.52 -23.57 C-265.36 -22.28, -264.29 -21.63, -259.7 -19.86 M-267.51 -24.19 C-264.18 -22.2, -262.09 -21.24, -259.18 -19.75 M-258.8 -19.44 C-256.23 -18.85, -254.9 -17.06, -251.04 -15.55 M-258.98 -19.8 C-257.66 -18.43, -255.84 -17.54, -250.4 -14.79 M-250.71 -15.25 C-248.66 -14.11, -245.32 -12.1, -242.8 -11.64 M-250.6 -14.8 C-248.5 -14.12, -245.95 -13.06, -242.47 -10.93 M-242.33 -11.86 C-239.88 -9.61, -237.42 -9.81, -232.67 -7.7 M-242.04 -10.71 C-240.23 -10.65, -238.5 -9.14, -233.52 -7.42 M-233.82 -7.2 C-230.19 -5.46, -226.85 -4.35, -225.08 -3.61 M-233.77 -7.79 C-231.01 -5.95, -228.59 -5.7, -224.49 -3.54 M-225.23 -4.49 C-223.57 -2.17, -219.8 -3.35, -214.88 -1.24 M-225 -3.83 C-222.28 -2.54, -219.79 -2.47, -215.85 -0.95 M-215.28 -0.56 C-213.2 0.61, -210.54 0.72, -206.1 2.58 M-215.92 -0.29 C-213.79 -0.05, -211.43 0.46, -206.38 2.16 M-206.98 1.95 C-204.78 2.17, -201.7 2.99, -197.54 4.74 M-206.65 2.54 C-203.71 2.95, -201.59 3.41, -197.4 4.97 M-196.77 4.53 C-193.33 6.78, -191.92 6.8, -188.14 6.75 M-197.55 5.21 C-193.71 6.27, -189.48 6.64, -187.82 7.94 M-187.86 8.22 C-184.31 8.36, -182.92 8.6, -177.87 9.26 M-187.16 7.29 C-183.99 8.34, -181.62 8.82, -178.35 9.56 M-177.39 9.97 C-175.22 9.6, -171.66 11.3, -167.46 11.28 M-178.41 9.89 C-175.99 10.24, -174.27 9.93, -168.45 11.29 M-167.96 11.72 C-164.98 11.61, -163.27 12.92, -159.25 12.42 M-168.66 11.86 C-164.59 11.77, -161.56 12.33, -158.63 13.33 M-158.55 12.85 C-155.6 12.49, -153.88 12.51, -149 14.21 M-157.92 13.32 C-154.54 13.23, -151.14 13.37, -148.35 13.67 M-148.23 13.36 C-145.43 14.81, -141.17 14.69, -138.53 14.37 M-148.79 13.8 C-144.7 14.06, -141.93 14.77, -138.35 14.66 M-138.98 14.23 C-134.88 15.62, -131.03 15.52, -127.63 16.11 M-138.76 14.87 C-135.77 15.35, -133.07 15.62, -128.55 15.18 M-127.43 14.65 C-125.88 15.84, -122.65 14.85, -118.8 16.37 M-128.11 15.22 C-125.34 15.36, -121.15 15.55, -118.36 15.23 M-117.91 16.1 C-116.24 16.09, -113.1 15.44, -112.02 15.31 M-118.28 15.39 C-115.74 15.78, -113.54 15.4, -111.71 15.23 M-110.76 15.01 C-110.25 15.07, -108.94 14.84, -104.85 15.81 M-111.09 15.46 C-109.39 15.62, -107.5 15.27, -104.28 15.04 M-103.41 15.91 C-99.86 14.31, -93.99 12.98, -91.61 14.2 M-104.63 15.6 C-99.55 14.08, -93.8 14.77, -90.54 14.1 M-89.2 13.01 C-86.23 12.73, -83.8 12.62, -77.43 12.51 M-89.96 14.14 C-84.94 13.14, -79.32 13.24, -75.52 12.21 M-76.95 12.34 C-72.06 10.88, -70.02 12.36, -60.94 9.85 M-75.93 11.79 C-71.55 10.76, -65.96 10.39, -61.79 9.45 M-61.08 10.25 C-57.87 9.9, -50.44 8.8, -46.75 5.32 M-61.16 9.7 C-57.98 9.26, -53.38 8.12, -46.58 6.52 M-46.4 7.65 C-41.16 4.68, -37.26 3.14, -34.01 3.5 M-46.87 5.91 C-44.13 5.48, -40.48 4.14, -32.99 3.23 M-33.28 3.21 C-27.45 2.42, -23.69 -1.22, -20.22 -2.81 M-32.34 2.92 C-28.58 0.64, -23.24 -1.21, -18.82 -2.14 M-18.71 -2.71 C-16.92 -2.26, -14.76 -3.92, -11.33 -4.5 M-18.53 -1.97 C-16.82 -2.36, -15.11 -3.12, -11.94 -5.05 M-11.67 -5.47 C-9.43 -6.2, -6.67 -7.01, -5.27 -8.33 M-12.01 -5.12 C-9.9 -5.63, -7.2 -6.68, -4.78 -7.63 M-4.78 -7.58 C-4.49 -7.64, -4.41 -7.82, -3.82 -7.93 M-4.81 -7.65 C-4.38 -7.8, -4.04 -7.87, -3.78 -7.92 M-3.71 -7.94 C-3.51 -7.96, -3.24 -8.02, -2.85 -8.12 M-3.75 -7.96 C-3.52 -8.07, -3.27 -8.07, -2.78 -8.14 M-2.96 -8.3 C-2.27 -8.28, -2.02 -8.14, -0.8 -8.15 M-2.81 -8.17 C-2.35 -8.16, -1.89 -8.04, -0.95 -7.98 M-0.94 -8.07 C-0.46 -7.88, 0.1 -7.48, 0.52 -7.29 M-0.94 -8.01 C-0.44 -7.69, 0.18 -7.45, 0.5 -7.42 M0.47 -7.32 C0.73 -7.18, 1.11 -6.69, 1.55 -6.16 M0.58 -7.28 C0.99 -6.88, 1.39 -6.47, 1.76 -6.26 M1.55 -6.3 C1.88 -5.67, 2.18 -5.51, 2.44 -4.97 M1.71 -6.31 C1.85 -5.97, 1.99 -5.67, 2.31 -4.85 M2.24 -4.83 C2.16 -4.49, 2.24 -3.82, 2.3 -3.11 M2.25 -4.89 C2.24 -4.21, 2.36 -3.64, 2.27 -3.2 M2.26 -3.26 C2.19 -3.07, 2.17 -2.77, 2.01 -2.38 M2.26 -3.2 C2.28 -3.08, 2.19 -2.85, 2.01 -2.39 M2.11 -2.45 C1.98 -2.09, 1.72 -1.87, 1.53 -1.63 M2.06 -2.44 C1.83 -2.13, 1.7 -1.82, 1.59 -1.61 M1.49 -1.56 C1.29 -1.36, 1.09 -1.17, 0.99 -0.85 M1.54 -1.59 C1.31 -1.34, 1.12 -1.05, 0.93 -0.77 M0.85 -0.69 C0.54 -0.59, 0.36 -0.28, 0.11 -0.04 M0.91 -0.74 C0.74 -0.65, 0.52 -0.46, 0.03 -0.01 M0 0 C0 0, 0 0, 0 0 M0 0 C0 0, 0 0, 0 0 M0 0 C0 0, 0 0, 0 0 M0 0 C0 0, 0 0, 0 0" stroke="#000000" stroke-width="1" fill="none"></path></g></g><g stroke-linecap="round"><g transform="translate(295.5620698189052 137.09531330903067) rotate(0 -12.933150366672066 12.691155672740337)" fill-rule="evenodd"><path d="M-40.47 -4.71 C-40.47 -4.71, -40.47 -4.71, -40.47 -4.71 M-40.47 -4.71 C-40.47 -4.71, -40.47 -4.71, -40.47 -4.71 M-37.89 -2.19 C-36.06 -4.83, -34.21 -5.44, -31.68 -9.13 M-38.25 -1.71 C-35.7 -4.35, -32.84 -7.31, -30.87 -9.57 M-32.06 -2.01 C-30.23 -5.08, -25.52 -8.25, -23.84 -13.6 M-32.74 -0.54 C-31.28 -3.59, -28.54 -6.2, -23.38 -12.77 M-28.6 -1.41 C-22.76 -4.42, -20.24 -9.19, -18.88 -14.07 M-27.49 -1.34 C-23.69 -5.58, -19.08 -9.7, -17.54 -12.99 M-22.16 -3.09 C-21.15 -5.96, -16.34 -8, -9.2 -15.15 M-21.88 -1.44 C-19.28 -5.19, -15.13 -8.07, -10.28 -15.39 M-17.29 -3.28 C-13.4 -5.43, -11.46 -7.67, -5.41 -15.08 M-16.45 -2.68 C-12.94 -5.39, -9.51 -9.29, -5.68 -13.77 M-10.62 -1.29 C-6.05 -6.91, -4.56 -11.04, -0.9 -13.9 M-11.12 -2.54 C-8.07 -5.85, -4.73 -8.43, -1.64 -12.54 M-4.87 -1.6 C-1.32 -5.68, 0.8 -8.46, 5.24 -14.7 M-6 -2.16 C-1.79 -4.96, 0.11 -9.18, 5.01 -13.07 M-0.65 -1.05 C2.56 -4.94, 4.27 -6.71, 8.23 -12.05 M-1.59 -1.1 C1.7 -5.33, 5.51 -9.03, 9.36 -12.33 M0.73 0.05 C3.64 -2.35, 8.41 -5.6, 12.84 -11.18 M2.63 1.97 C4.54 -0.85, 6.11 -3.58, 13.72 -11.94 M1.09 7.95 C7.35 2.22, 9.77 -1.04, 16.15 -8.86 M3.13 7.96 C5.47 4.55, 8.34 -0.31, 15.83 -7.02 M-0.75 15.39 C4.05 10.36, 7.35 8.28, 14.84 -0.34 M-1.03 17.02 C3.78 9.36, 10.15 3.76, 15.13 -3.08 M-2.5 25.74 C4.18 16.63, 8.88 12.05, 15.93 3.04 M-2.49 23.8 C4.05 18.06, 8.28 12.93, 14.69 4.93 M-8.29 38.26 C-2.82 27.88, 5.07 22.89, 12.04 12.34 M-7.87 37.78 C-0.54 28.37, 7.78 19.43, 12.71 13.51 M-5.03 38.47 C-1.42 33.9, 2.92 30.15, 8.36 25.68 M-5.05 39.83 C-0.93 35.62, 1.57 30.68, 7.43 25.98" stroke="#ff9900" stroke-width="0.5" fill="none"></path><path d="M0 0 C0 0, 0 0, 0 0 M0 0 C0 0, 0 0, 0 0 M0.06 -0.04 C-0.12 -0.24, -0.45 -0.52, -1 -0.79 M-0.06 -0.06 C-0.23 -0.3, -0.53 -0.55, -1.02 -0.95 M-0.85 -0.99 C-1.32 -1.11, -1.78 -1.33, -2.42 -1.78 M-1.02 -1 C-1.5 -1.14, -1.97 -1.46, -2.45 -1.7 M-2.32 -1.62 C-3.27 -1.9, -3.64 -2.13, -4.08 -2.41 M-2.45 -1.62 C-2.83 -1.86, -3.4 -1.87, -4.17 -2.22 M-4.26 -2.22 C-5.2 -2.38, -5.71 -2.62, -6.17 -2.8 M-4.16 -2.24 C-4.73 -2.43, -5.18 -2.47, -6.29 -2.61 M-6.1 -2.88 C-6.8 -2.58, -7.72 -3.05, -8.43 -2.76 M-6.3 -2.66 C-7.17 -2.85, -8.12 -2.89, -8.68 -2.89 M-8.81 -2.84 C-9.52 -2.94, -10.24 -3.26, -11.39 -3.07 M-8.55 -2.91 C-9.36 -2.98, -9.91 -3.09, -11.09 -3.05 M-11 -2.88 C-13.74 -3.7, -15.88 -3.14, -17.05 -3.43 M-11.07 -3.06 C-12.58 -3.25, -14.07 -3.35, -16.87 -3.37 M-17.04 -3.19 C-18.14 -3.17, -19.2 -3.29, -22.92 -2.81 M-17.08 -3.25 C-18.47 -3.14, -19.92 -3.07, -22.72 -3.08 M-22.86 -2.57 C-24.37 -2.47, -27.4 -2.97, -29.1 -2.35 M-23.01 -2.95 C-24.8 -2.85, -26.58 -2.73, -28.78 -2.61 M-28.65 -2.59 C-30.16 -2.07, -30.26 -1.97, -34.4 -1.61 M-28.54 -2.42 C-30.5 -2.3, -32.25 -1.96, -33.85 -1.99 M-34.1 -1.62 C-34.63 -1.89, -35.11 -1.53, -36.28 -1.52 M-33.88 -1.81 C-34.72 -1.77, -35.21 -1.65, -36.41 -1.64 M-36.39 -1.73 C-36.98 -1.49, -37.18 -1.35, -38.42 -1.15 M-36.44 -1.49 C-37.18 -1.35, -38.09 -1.36, -38.54 -1.33 M-38.42 -1.4 C-38.82 -1.21, -39.23 -1.21, -39.6 -1.19 M-38.45 -1.33 C-38.83 -1.25, -39.3 -1.28, -39.55 -1.27 M-39.65 -1.3 C-39.82 -1.34, -39.99 -1.39, -40.39 -1.56 M-39.56 -1.29 C-39.86 -1.36, -40.13 -1.43, -40.41 -1.53 M-40.42 -1.54 C-40.49 -1.74, -40.65 -1.75, -40.89 -1.96 M-40.4 -1.54 C-40.53 -1.67, -40.73 -1.84, -40.91 -2.01 M-40.96 -2 C-41.01 -2.25, -41.11 -2.44, -41.21 -2.59 M-40.92 -2.01 C-41 -2.2, -41.11 -2.44, -41.21 -2.6 M-41.17 -2.57 C-41.18 -2.72, -41.13 -2.95, -41.22 -3.31 M-41.17 -2.58 C-41.21 -2.88, -41.17 -3.06, -41.2 -3.35 M-41.09 -3.29 C-41.04 -3.62, -40.98 -3.84, -40.91 -4.09 M-41.17 -3.35 C-41.06 -3.61, -40.97 -3.85, -40.86 -4.16 M-40.88 -4.06 C-40.57 -4.48, -40.45 -4.62, -40.32 -5.09 M-40.86 -4.15 C-40.69 -4.39, -40.52 -4.57, -40.21 -4.95 M-40.33 -4.89 C-40.11 -5.26, -39.82 -5.43, -39.33 -5.91 M-40.24 -4.94 C-40.02 -5.18, -39.83 -5.37, -39.26 -5.84 M-39.36 -6.07 C-38.3 -6.73, -36.56 -7.3, -36.06 -7.98 M-39.36 -5.88 C-37.79 -6.65, -36.74 -7.55, -35.52 -8.25 M-35.55 -8 C-34.09 -9.03, -33.13 -9.49, -31.74 -9.57 M-35.52 -7.99 C-34.53 -8.94, -33.21 -9.2, -31.71 -10.17 M-31.53 -10.2 C-30.76 -10.45, -29.57 -11.21, -27.56 -11.23 M-31.63 -9.84 C-30.78 -10.26, -29.39 -11.08, -27.84 -11.43 M-27.55 -11.71 C-26.77 -11.55, -25.36 -12.24, -23.46 -12.85 M-27.82 -11.73 C-26.65 -11.68, -25.78 -12.14, -23.69 -12.88 M-23.22 -12.37 C-21.76 -12.89, -20.85 -13.14, -19.33 -13.36 M-23.72 -12.7 C-22.06 -13.28, -20.71 -13.62, -19.21 -13.62 M-19.54 -13.96 C-18.53 -13.78, -17.36 -13.76, -14.96 -14.14 M-19.22 -13.81 C-18.07 -14.1, -16.8 -14.11, -15.05 -14.4 M-15.31 -14.14 C-14.62 -14.47, -13.53 -14.29, -11.15 -14.98 M-15.12 -14.15 C-13.74 -14.5, -12.48 -14.66, -10.79 -14.74 M-10.92 -14.49 C-10.26 -14.94, -8.8 -14.56, -7.05 -14.93 M-10.86 -14.82 C-9.58 -14.7, -8.03 -14.7, -6.86 -15.04 M-7.29 -15.21 C-6.03 -15.04, -4.77 -14.79, -3.03 -15.12 M-6.9 -14.74 C-5.63 -14.99, -4.54 -14.89, -3.19 -15.01 M-2.99 -14.86 C-2.15 -15.05, -0.38 -14.97, 0.38 -14.55 M-2.96 -14.82 C-1.98 -14.82, -1.25 -14.65, 0.57 -14.51 M0.39 -14.88 C1.28 -14.4, 2.21 -14.14, 3.68 -14.33 M0.63 -14.73 C1.4 -14.68, 2.67 -14.29, 3.95 -14.34 M4.02 -13.97 C4.73 -13.99, 4.92 -14.2, 6.92 -13.82 M3.76 -14.29 C4.87 -14.07, 5.71 -13.82, 6.73 -13.67 M6.92 -13.47 C7.67 -13.68, 8.84 -13.15, 9.6 -13.16 M6.92 -13.7 C7.7 -13.58, 8.36 -13.23, 9.47 -13.01 M9.22 -13 C10.01 -12.75, 11.12 -12.46, 11.55 -12.43 M9.27 -13.2 C9.81 -13.04, 10.32 -12.82, 11.35 -12.37 M11.61 -12.4 C11.74 -12.2, 12.3 -12.05, 13.05 -11.78 M11.46 -12.4 C12.02 -12.1, 12.5 -11.86, 12.97 -11.57 M12.93 -11.56 C13.35 -11.46, 13.54 -11.29, 13.92 -10.77 M12.98 -11.56 C13.32 -11.42, 13.47 -11.2, 14.06 -10.82 M13.94 -10.83 C14.26 -10.48, 14.23 -10.1, 14.67 -9.54 M14.01 -10.74 C14.21 -10.48, 14.34 -10.18, 14.61 -9.72 M14.72 -9.65 C14.62 -9.23, 14.7 -8.78, 15.08 -8.01 M14.6 -9.67 C14.71 -8.96, 14.83 -8.43, 15 -7.98 M15.14 -8.08 C15.01 -7.31, 14.93 -6.07, 15.28 -5.89 M15.01 -8.03 C14.93 -7.5, 15.06 -7.1, 15.21 -5.77 M15.36 -5.88 C14.94 -4.93, 15.06 -3.71, 14.88 -3.33 M15.18 -5.64 C14.96 -5.05, 15.04 -4.59, 15.06 -3.24 M15.2 -3.17 C15.22 -2.24, 15 -1.01, 14.68 -0.08 M14.99 -3.04 C15.06 -2.15, 14.81 -1.07, 14.71 -0.2 M14.81 0.09 C14.43 0.66, 14.54 1.5, 14.19 2.84 M14.68 -0.25 C14.7 0.5, 14.61 1.39, 14.46 3.18 M14.29 2.95 C14.04 4.24, 14.12 5.01, 13.41 6.59 M14.47 3.15 C14.07 4.37, 13.83 5.31, 13.69 6.68 M13.31 6.65 C13.43 8.01, 12.55 9.83, 12.51 10.19 M13.78 6.69 C13.08 8.01, 12.96 9.65, 12.62 10.53 M12.71 10.58 C12.62 11.58, 12.3 12.04, 11.53 14.23 M12.46 10.46 C12.61 11.27, 12.03 12.24, 11.56 14.12 M11.16 13.92 C11.33 16.04, 10 17.31, 9.69 18.08 M11.44 14.27 C11.09 15.74, 10.19 17.13, 9.81 18.06 M9.98 18.32 C9.55 19.96, 8.67 21.18, 8.33 21.86 M10.1 18.04 C9.51 18.92, 9.04 19.88, 8.14 22.01 M8.05 21.79 C7.48 22.91, 7.11 23.55, 6.09 25.84 M8.31 22.18 C7.71 22.89, 7.1 23.81, 6.19 25.94 M5.99 26.35 C5.83 27.05, 4.71 28.36, 3.64 30.01 M6.3 25.84 C5.56 27.29, 4.59 28.23, 4.17 29.58 M4.29 29.99 C3.41 30.45, 2.58 31.62, 1.26 33.33 M3.88 29.83 C3.53 30.24, 2.87 31.05, 1.39 33.32 M1.57 32.83 C0.22 33.86, -0.19 35.54, -1.5 36.02 M1.53 33.19 C0.89 33.72, 0.01 34.38, -1.5 36.35 M-1.31 36.76 C-2.65 37.53, -3.44 38.33, -4.8 39.62 M-1.25 36.53 C-2.71 37.49, -3.95 38.67, -4.41 39.33 M-4.6 39.42 C-4.89 39.45, -5.14 39.64, -5.58 40.2 M-4.55 39.41 C-4.83 39.52, -5.07 39.71, -5.65 40.11 M-5.67 40.09 C-5.81 40.31, -6.09 40.3, -6.6 40.54 M-5.63 40.14 C-5.86 40.16, -6.03 40.29, -6.57 40.52 M-6.61 40.5 C-6.76 40.55, -7.04 40.62, -7.34 40.56 M-6.55 40.51 C-6.77 40.55, -7.01 40.54, -7.42 40.59 M-7.46 40.58 C-7.52 40.59, -7.75 40.5, -8.06 40.47 M-7.41 40.58 C-7.56 40.6, -7.7 40.53, -8.14 40.46 M-8.06 40.39 C-8.23 40.32, -8.46 40.12, -8.66 40.05 M-8.13 40.47 C-8.27 40.32, -8.49 40.13, -8.67 40 M-8.69 39.99 C-8.8 39.72, -8.93 39.49, -8.89 39.39 M-8.65 40.02 C-8.68 39.88, -8.77 39.79, -8.97 39.41 M-8.91 39.35 C-8.98 39.21, -9.05 38.96, -8.98 38.61 M-8.92 39.36 C-9 39.19, -8.94 38.99, -8.98 38.5 M-9.07 38.62 C-8.97 38.23, -8.86 37.76, -8.69 37.6 M-8.98 38.52 C-8.91 38.18, -8.76 37.89, -8.71 37.47 M-8.7 37.59 C-8.63 36.89, -8.12 36.61, -7.9 35.61 M-8.79 37.43 C-8.54 36.84, -8.19 36.15, -7.96 35.56 M-7.83 35.3 C-7.51 35.2, -7.31 34.63, -7.21 33.27 M-7.92 35.4 C-7.59 34.81, -7.36 34.38, -7.02 33.3 M-6.62 33.8 C-6.56 31.75, -5.97 29.39, -4.74 27.91 M-7.25 33.14 C-6.55 31.86, -6.18 30.61, -4.84 28.22 M-4.82 28.66 C-4.13 27.22, -4.55 25.19, -3.35 22.91 M-4.94 28.06 C-4.47 26.2, -3.83 24.07, -3.09 22.48 M-3.54 22.85 C-2.17 21.63, -2.48 19.73, -1.06 16.67 M-2.96 22.9 C-2.21 21.17, -1.75 19.04, -1.5 17.31 M-1.8 16.72 C-0.97 14.67, -0.2 12.57, -0.4 11.69 M-1.53 16.76 C-0.8 15.44, -0.48 13.68, 0.12 11.42 M0.19 11.74 C0.42 10.54, 0.37 9.88, 0.74 9.25 M0.03 11.68 C0.2 10.59, 0.55 9.64, 0.78 9.06 M0.72 8.97 C0.9 8.24, 0.97 7.61, 1.06 6.66 M0.67 9 C0.61 8.36, 0.81 7.94, 1 6.64 M0.81 6.79 C0.84 5.76, 1.01 5.33, 0.96 4.52 M0.96 6.64 C0.97 5.95, 1.11 5.4, 1.16 4.66 M1.05 4.5 C0.95 3.78, 1.06 3.12, 1.06 2.88 M1.12 4.52 C1.16 4.03, 1.1 3.47, 0.92 2.69 M1.03 2.61 C0.8 2.37, 0.92 1.95, 0.72 1.33 M1.06 2.72 C0.92 2.19, 0.78 1.82, 0.62 1.18 M0.58 1.19 C0.56 0.89, 0.12 0.51, -0.13 -0.13 M0.57 1.21 C0.37 0.76, 0.13 0.26, -0.02 0 M0 0 C0 0, 0 0, 0 0 M0 0 C0 0, 0 0, 0 0 M0 0 C0 0, 0 0, 0 0 M0 0 C0 0, 0 0, 0 0" stroke="#000000" stroke-width="1" fill="none"></path></g></g><g stroke-linecap="round"><g transform="translate(53.75014803626783 89.5926524347216) rotate(0 5.1627534895004885 -14.849173134824468)" fill-rule="evenodd"><path d="M-1.07 -0.52 L0.31 0.71 L3.81 1.17 L6.14 -1.26 L8.11 -1.3 L8.77 -0.05 L12.07 -4.74 L15.61 -2.35 L17.44 -7.26 L20.66 -6.93 L19.27 -8.77 L21.37 -12.32 L21.29 -14.63 L25.15 -12.64 L21.63 -14.88 L22.59 -19.16 L25.63 -20.17 L22.93 -23.26 L23.97 -25.63 L24.14 -29.01 L18.88 -29.94 L13.69 -27.98 L9.96 -28.88 L5.66 -29.23 L4.18 -28.14 L0.7 -28.85 L-0.78 -30.37 L-4.86 -29.19 L-6.03 -27 L-8 -28.38 L-8.97 -28.47 L-9.02 -26.7 L-12.34 -25.27 L-11.12 -22.02 L-14.79 -19.28 L-15.87 -14.34 L-15.38 -11.92 L-13.98 -8.62 L-13.32 -4.92 L-11.36 -3.05 L-7.82 -2.65 L-7.26 -2.64 L-4.52 -0.66 L-0.04 1.14 L-0.81 0.66" stroke="none" stroke-width="0" fill="#FFFFFF" fill-rule="evenodd"></path><path d="M0 0 C0 0, 0 0, 0 0 M0 0 C0 0, 0 0, 0 0 M-0.07 0.18 C0.59 -0.05, 1.13 -0.06, 2.73 -0.2 M-0.11 0.06 C0.44 0, 0.97 -0.05, 2.44 -0.09 M2.38 0.13 C3.55 -0.06, 4.58 -0.41, 4.84 -0.4 M2.37 -0.17 C3.35 -0.31, 4.05 -0.38, 4.98 -0.35 M5.1 -0.71 C6 -0.52, 7.02 -0.75, 7.39 -1.13 M5.1 -0.38 C5.79 -0.73, 6.82 -0.76, 7.65 -0.9 M7.66 -1.28 C8.29 -1.07, 8.79 -1.21, 10.12 -1.95 M7.63 -1.05 C8.15 -1.16, 8.9 -1.42, 10.38 -1.81 M10.04 -1.6 C11.39 -2.26, 11.83 -2.32, 13.16 -2.62 M10.3 -1.75 C11.2 -2.2, 12.29 -2.68, 13 -2.85 M13.05 -2.94 C13.86 -3.3, 14.4 -4.04, 15.45 -4.47 M12.97 -2.97 C13.92 -3.45, 14.78 -3.87, 15.47 -4.2 M15.51 -4.52 C15.7 -4.97, 16.58 -5.36, 17.55 -6.24 M15.42 -4.3 C15.98 -4.87, 16.61 -5.42, 17.57 -6.23 M17.67 -6.14 C18.14 -6.51, 18.53 -7.15, 19.84 -8.35 M17.64 -6.2 C18.26 -6.74, 18.84 -7.23, 19.7 -8.09 M19.9 -8.03 C20.09 -8.59, 20.11 -8.98, 20.94 -9.63 M19.78 -8.26 C19.99 -8.52, 20.21 -8.85, 20.86 -9.75 M20.86 -9.83 C21.34 -10.1, 21.71 -11.04, 21.95 -11.18 M20.92 -9.73 C21.12 -10.1, 21.39 -10.33, 21.82 -11.29 M22.04 -11.34 C22.09 -11.89, 22.59 -12.31, 22.67 -12.88 M21.9 -11.27 C22.17 -11.71, 22.47 -12.42, 22.58 -12.93 M22.49 -12.99 C22.81 -13.21, 23.03 -13.67, 23.33 -14.43 M22.7 -12.84 C22.84 -13.25, 22.86 -13.6, 23.18 -14.54 M23.02 -14.48 C23.49 -15.27, 23.65 -16.14, 23.8 -16.39 M23.14 -14.52 C23.37 -15.09, 23.41 -15.39, 23.66 -16.56 M23.59 -16.64 C23.66 -17.06, 23.76 -17.44, 23.86 -18.44 M23.61 -16.48 C23.78 -17.17, 23.94 -18.05, 23.94 -18.58 M23.92 -18.4 C23.75 -19.07, 24.17 -19.76, 24.25 -20.79 M23.92 -18.49 C24.06 -19.38, 24.06 -20.19, 24.08 -20.73 M24.09 -20.78 C24.13 -21.34, 24.36 -22.08, 24.29 -23.11 M24.08 -20.76 C24.23 -21.49, 24.2 -22.29, 24.26 -23.41 M24.42 -23.24 C24.51 -24.48, 24.05 -26.6, 24.39 -27.43 M24.38 -23.49 C23.98 -24.24, 24.28 -25.32, 24.21 -27.43 M24.2 -27.5 C24.2 -27.5, 24.2 -27.5, 24.2 -27.5 M24.2 -27.5 C24.2 -27.5, 24.2 -27.5, 24.2 -27.5 M24.61 -27.15 C22.28 -27.85, 21.19 -28.63, 19.27 -28.7 M24.21 -27.49 C22.81 -27.69, 21.7 -27.98, 19.88 -28.65 M20.09 -28.81 C18.33 -28.7, 17.34 -28.93, 14.59 -29.62 M19.88 -28.46 C18.68 -28.64, 17.67 -28.62, 14.84 -29.05 M14.71 -29.57 C13.61 -29.25, 12.59 -29.91, 10.38 -29.38 M14.91 -28.97 C13.56 -29.4, 12.08 -29.34, 10.07 -29.61 M10.35 -29.3 C8.61 -29.61, 7.47 -29.7, 6.05 -29.7 M10.36 -29.8 C8.89 -29.74, 8.12 -29.65, 5.4 -29.84 M5.48 -29.88 C4.95 -29.82, 4.15 -29.67, 3.34 -29.8 M5.68 -29.87 C4.97 -29.69, 4.01 -29.82, 3.23 -29.82 M3.08 -29.75 C2.48 -29.45, 1.44 -29.55, 0.87 -29.68 M3.07 -29.71 C2.44 -29.75, 1.55 -29.7, 0.85 -29.51 M1.11 -29.38 C0.46 -29.54, -0.06 -29.38, -1.02 -29.14 M0.94 -29.55 C0.02 -29.51, -0.79 -29.28, -1.15 -29.28 M-1.31 -29.4 C-1.65 -29.28, -2.06 -28.96, -3.03 -28.77 M-1.24 -29.29 C-1.99 -29.16, -2.62 -28.88, -3.15 -28.89 M-3.03 -29 C-3.66 -28.76, -4.08 -28.56, -5.01 -28.18 M-3.04 -28.83 C-3.71 -28.71, -4.3 -28.36, -4.9 -28.29 M-4.79 -28.41 C-5.28 -28.09, -5.44 -28.01, -6.54 -27.48 M-4.94 -28.26 C-5.21 -28.04, -5.52 -27.93, -6.58 -27.54 M-6.66 -27.71 C-7.07 -27.44, -7.48 -26.98, -8.1 -26.75 M-6.45 -27.49 C-7.04 -27.25, -7.49 -27.06, -8.05 -26.71 M-7.99 -26.88 C-8.48 -26.36, -8.88 -26.22, -9.26 -25.84 M-7.97 -26.69 C-8.44 -26.49, -8.82 -26.1, -9.25 -25.82 M-9.53 -25.93 C-9.68 -25.44, -9.99 -25.01, -11.53 -23.55 M-9.39 -25.92 C-10.1 -24.96, -10.53 -24.26, -11.54 -23.72 M-11.17 -23.27 C-11.87 -22.77, -12.71 -21.62, -13.08 -20.87 M-11.5 -23.45 C-11.8 -22.82, -12.14 -22.18, -12.93 -20.77 M-12.67 -21.07 C-13.43 -20, -13.34 -18.88, -13.97 -17.73 M-12.95 -20.84 C-13.27 -20.36, -13.31 -19.37, -13.79 -17.69 M-13.73 -18.08 C-13.85 -16.49, -13.93 -15.43, -14.26 -14.54 M-14.05 -17.89 C-14.2 -16.54, -14.21 -15.37, -14.17 -14.41 M-14.23 -14.47 C-14.14 -12.81, -14.11 -11.63, -14.28 -10.8 M-14.22 -14.29 C-14.11 -13.42, -14.13 -12.31, -13.89 -11.13 M-13.86 -10.75 C-13.79 -9.84, -13.59 -9.28, -13.22 -8.26 M-13.86 -10.89 C-13.73 -10.02, -13.44 -8.66, -13.34 -8.17 M-13.35 -7.94 C-12.87 -7.48, -12.31 -6.22, -11.88 -5.74 M-13.15 -8.03 C-13.04 -7.51, -12.81 -6.84, -12.26 -5.71 M-12.12 -5.82 C-11.77 -5.27, -11.36 -4.32, -10.57 -3.5 M-12.15 -5.71 C-11.62 -5.22, -11.36 -4.6, -10.53 -3.58 M-10.65 -3.69 C-10.36 -3.55, -9.5 -2.88, -8.64 -2.28 M-10.59 -3.76 C-10.03 -3.28, -9.65 -2.85, -8.5 -1.98 M-8.61 -2.23 C-8.03 -1.83, -7.17 -1.72, -6.27 -1.11 M-8.36 -2.2 C-7.86 -1.88, -7.49 -1.62, -6.18 -0.79 M-6.11 -0.7 C-5.3 -0.57, -4.23 -0.57, -3.18 -0.07 M-5.98 -0.84 C-5.4 -0.8, -4.63 -0.64, -3.3 -0.28 M-3.02 -0.45 C-2.66 -0.17, -2.04 -0.28, -0.31 -0.28 M-3.34 -0.22 C-2.6 -0.13, -1.72 0.02, 0.02 -0.02 M0 0 C0 0, 0 0, 0 0 M0 0 C0 0, 0 0, 0 0 M0 0 C0 0, 0 0, 0 0 M0 0 C0 0, 0 0, 0 0" stroke="#000000" stroke-width="1" fill="none"></path></g></g></svg>