<svg version="1.1" xmlns="http://www.w3.org/2000/svg" viewBox="0 0 320.854911831972 200.59725617137155" width="962.564735495916" height="601.7917685141147">
  <!-- svg-source:excalidraw -->
  
  <defs>
    <style class="style-fonts">
      @font-face {
        font-family: "Virgil";
        src: url("https://excalidraw.com/Virgil.woff2");
      }
      @font-face {
        font-family: "Cascadia";
        src: url("https://excalidraw.com/Cascadia.woff2");
      }
    </style>
  </defs>
  <g stroke-linecap="round"><g transform="translate(94.72317608997986 75.54132761967699) rotate(0 -33.66676701891916 -18.415806313461417)" fill-rule="evenodd"><path d="M0.54 1.7 L0.55 -1.55 L-1.39 0.66 L0.94 4.57 L0.69 8.63 L2.36 8.23 L3 11.32 L2.52 14.72 L4.03 15.57 L6.17 19.83 L3.99 19.74 L6.11 18.89 L3.07 20.85 L3.79 23.11 L-1.28 26.21 L-1.6 24.77 L-2.56 24.77 L-4.6 26.65 L-5.69 25.89 L-10.6 25.72 L-11.83 22.2 L-11.29 20.13 L-14.08 19.42 L-15.23 14.32 L-20.43 17.9 L-21.91 18.96 L-25.89 24.22 L-26.99 25.1 L-31.84 27.34 L-34.71 28.64 L-41.11 28.27 L-43.48 28.68 L-47.27 29.28 L-50.66 27.91 L-52.47 26.38 L-56.91 28.2 L-57.19 24.21 L-59.19 26.2 L-61 24.54 L-64.65 21.77 L-67.62 18.32 L-66.54 18.07 L-68.83 13.92 L-72.28 13.48 L-72.71 8.67 L-71.58 9.39 L-71.6 5.07 L-72.37 2.39 L-73.97 -1.22 L-72.63 -3.5 L-72.37 -8.44 L-68.57 -8.34 L-67.65 -10.18 L-66.65 -13.97 L-64.88 -15.17 L-63.54 -19.04 L-61.37 -18.95 L-58.28 -22.84 L-54.86 -23.61 L-52.11 -25.48 L-51.02 -26.32 L-44.24 -24.07 L-43.66 -27.08 L-40.07 -24.51 L-33.55 -24.6 L-28.73 -25.21 L-22.82 -24.14 L-18.41 -21.59 L-17.16 -31.18 L-17.47 -28.9 L-15.89 -34.06 L-16.88 -36.77 L-16.35 -40.27 L-17.31 -40.35 L-17.56 -43.73 L-17.27 -42.43 L-18.64 -44.14 L-21.5 -46.61 L-23 -48.05 L-25.11 -49.44 L-26.32 -48.94 L-29.26 -52.24 L-28.32 -50.98 L-33.28 -53.07 L-32.9 -53.12 L-38.63 -50.78 L-42.47 -52.89 L-49.6 -52.02 L-52.95 -49.39 L-58.59 -44.75 L-61.44 -44.41 L-60.92 -46.9 L-60.4 -45.71 L-62.88 -46.39 L-63.11 -44.81 L-65.73 -45.92 L-66.88 -45.81 L-67.87 -46.11 L-64.28 -48.26 L-65.08 -48 L-68.35 -52.88 L-64.85 -53.93 L-65.28 -55.03 L-64.5 -57.48 L-64.75 -57.27 L-62.77 -58.42 L-62.82 -58.85 L-59.09 -58.43 L-56.92 -60.14 L-54.5 -61.33 L-51.3 -63.82 L-47.75 -64.19 L-40.78 -64.07 L-39.39 -64.8 L-36.34 -65.63 L-31.66 -66.1 L-25.04 -64.44 L-22.28 -63.91 L-19.43 -63.22 L-14.44 -62.87 L-14.77 -59.53 L-9.01 -60.44 L-6.5 -57.75 L-5.02 -54.91 L-6.25 -53.05 L-3.6 -49.35 L-1.71 -47.42 L-0.12 -43.66 L-0.89 -41.66 L-0.2 -34.56 L-0.01 -31.41 L0.49 0.56 L1.27 0.51" stroke="none" stroke-width="0" fill="#252f3e" fill-rule="evenodd"></path><path d="M0 0 C0 0, 0 0, 0 0 M0 0 C0 0, 0 0, 0 0 M0.16 -0.18 C-0.11 0.82, 0.27 1.58, -0.14 2.72 M-0.01 -0.01 C0.12 0.57, 0.07 1.47, 0.09 2.64 M-0.13 2.42 C0.22 3.02, 0.01 3.59, 0.07 5.07 M-0.02 2.54 C0.03 3.42, 0.16 4.25, 0.18 5.05 M0.35 5.15 C0.28 5.75, 0.52 6.24, 0.65 7.16 M0.28 5.1 C0.35 5.8, 0.51 6.42, 0.69 7.07 M0.56 7.16 C0.7 7.4, 0.77 7.91, 1.11 8.72 M0.68 7.12 C0.87 7.75, 0.94 8.49, 1.16 8.87 M1.02 8.88 C1.46 9.89, 1.72 10.64, 2.3 12.39 M1.28 8.97 C1.41 9.73, 1.64 10.64, 2.61 12.53 M2.8 12.41 C3.04 13.88, 3.46 15.58, 4.19 15.88 M2.47 12.52 C2.81 13.53, 3.74 14.8, 4.34 16.13 M4.25 15.99 C4.45 16.6, 4.65 17.07, 4.88 17.32 M4.29 16.16 C4.44 16.46, 4.57 16.77, 4.81 17.23 M4.9 17.29 C4.99 17.6, 5.01 17.91, 4.97 18.4 M4.8 17.28 C4.94 17.67, 4.98 18.12, 4.99 18.36 M5.04 18.37 C4.98 18.55, 4.93 18.67, 4.92 19.12 M4.98 18.43 C4.97 18.7, 4.92 18.93, 4.86 19.12 M4.88 19.12 C4.79 19.32, 4.71 19.53, 4.51 19.93 M4.87 19.11 C4.78 19.39, 4.7 19.58, 4.55 19.92 M4.48 19.88 C4.31 20.12, 4.17 20.37, 4.01 20.59 M4.51 19.86 C4.38 20.1, 4.27 20.27, 3.91 20.68 M4.04 20.55 C3.74 20.8, 3.45 21.19, 3.01 21.4 M3.91 20.62 C3.76 20.82, 3.56 20.99, 3.14 21.37 M3.8 21.5 C2.13 21.75, -0.19 23.96, -3.84 25.11 M3 21.46 C1.33 22.34, 0.33 23.55, -2.94 25.79 M-3.2 25.6 C-3.2 25.6, -3.2 25.6, -3.2 25.6 M-3.2 25.6 C-3.2 25.6, -3.2 25.6, -3.2 25.6 M-3.17 25.6 C-3.71 25.9, -4.18 26.03, -4.68 26.21 M-3.16 25.67 C-3.59 25.86, -4.13 26, -4.55 26.34 M-4.58 26.33 C-4.94 26.32, -5.61 26.42, -5.92 26.57 M-4.56 26.32 C-4.88 26.39, -5.07 26.37, -5.74 26.46 M-5.77 26.54 C-6.36 26.3, -6.68 26.3, -7.22 26.23 M-5.74 26.52 C-6.17 26.39, -6.62 26.32, -7.25 26.19 M-7.46 26.26 C-7.95 25.68, -8.4 25.23, -8.94 24.93 M-7.27 26.22 C-7.57 25.92, -8 25.57, -8.89 25.11 M-8.75 24.91 C-9.56 24.76, -9.63 23.79, -10.47 22.58 M-8.91 24.99 C-9.13 24.45, -9.81 23.84, -10.72 22.8 M-10.91 22.65 C-11.36 22.07, -11.27 21.34, -12.68 20.33 M-10.72 22.93 C-11.3 21.91, -11.82 21.02, -12.52 20.36 M-12.61 20.7 C-12.52 19.89, -13.01 19.22, -13.68 17.98 M-12.42 20.55 C-12.59 19.86, -13.11 19.27, -14.05 17.76 M-13.81 17.38 C-14 17.11, -14.73 16.1, -15.23 14.8 M-13.77 17.53 C-14.44 16.44, -14.9 15.43, -15.43 14.59 M-15.93 14.62 C-16.19 15.77, -17.16 16.66, -18.77 17.47 M-15.44 14.62 C-16.4 15.75, -17.73 16.8, -18.63 17.79 M-18.41 17.82 C-19.02 18.51, -19.95 19.46, -21.46 20.57 M-18.7 17.95 C-19.23 18.56, -19.71 19.11, -21.68 20.66 M-21.43 20.45 C-22.9 21.25, -23.36 21.57, -25.27 23.19 M-21.52 20.39 C-22.78 21.44, -23.87 22.14, -24.98 23.05 M-25.5 22.77 C-26.73 24.01, -28.12 24.38, -29.06 25.05 M-25.24 22.72 C-26.48 23.66, -27.39 24.24, -28.6 24.87 M-28.74 24.64 C-30.01 25.07, -31.25 26.01, -32.85 26.08 M-28.56 24.98 C-29.86 25.3, -30.72 25.57, -32.56 26.46 M-32.64 26.74 C-33.6 26.88, -35.71 27.16, -36.14 27.67 M-32.61 26.16 C-33.46 26.51, -34.31 26.78, -36.53 27.35 M-36.33 27.74 C-38.26 27.91, -39.95 27.65, -40.36 28.21 M-36.3 27.44 C-37.45 27.54, -38.48 27.57, -40.5 27.92 M-40.7 28 C-41.34 28.4, -43.04 28.14, -44.91 28.41 M-40.56 28.02 C-42.17 27.94, -43.86 28.13, -44.92 28.15 M-45.07 28.39 C-46.2 27.98, -46.84 28.35, -48.02 28.48 M-44.87 28.45 C-45.68 28.21, -46.7 28.25, -47.87 28.13 M-47.84 28.35 C-48.42 28.11, -49.56 28.12, -50.98 28.08 M-47.97 28.32 C-49 28.16, -50.14 28.03, -50.75 27.83 M-51.07 27.95 C-51.74 27.73, -52.81 27.72, -53.61 27.02 M-50.94 27.73 C-51.89 27.66, -53 27.41, -53.68 27.22 M-53.64 27.23 C-54.43 27.05, -55.13 26.81, -56.08 26.75 M-53.73 27.24 C-54.66 26.85, -55.7 26.58, -56.23 26.49 M-56.27 26.63 C-57.1 26.22, -58.19 25.73, -58.82 25.68 M-56.09 26.55 C-56.91 26.12, -57.48 26.12, -58.68 25.48 M-58.78 25.63 C-59 25.11, -59.79 25.1, -61.04 24.45 M-58.76 25.47 C-59.33 25.2, -59.89 24.92, -60.78 24.27 M-60.67 24.17 C-61.46 23.8, -61.65 23.46, -62.82 22.93 M-60.98 24.31 C-61.56 23.92, -62.13 23.5, -62.9 22.89 M-63.2 22.85 C-63.57 22.63, -63.93 21.81, -65.07 21.05 M-62.97 22.89 C-63.45 22.29, -64.11 21.82, -64.89 21.02 M-64.75 21.19 C-65.41 20.46, -66.04 19.83, -66.52 19.11 M-64.95 21.02 C-65.66 20.27, -66.15 19.64, -66.66 19.12 M-66.49 19.42 C-67.36 18.43, -67.63 17.88, -68.29 16.95 M-66.55 19.31 C-66.89 18.61, -67.38 18.18, -68.09 17.27 M-68.32 17.27 C-68.47 16.45, -69.11 15.42, -69.4 14.78 M-68.17 17.09 C-68.38 16.64, -68.65 16.31, -69.42 14.95 M-69.39 15.12 C-70 13.96, -69.97 13.41, -70.28 12.88 M-69.38 15.13 C-69.64 14.44, -69.94 13.81, -70.36 12.79 M-70.69 12.87 C-70.84 12.01, -71.18 10.83, -71.3 10.43 M-70.52 12.67 C-70.82 11.98, -70.82 11.31, -71.15 10.31 M-71.45 10.14 C-71.58 9.34, -71.75 8.58, -71.73 7.76 M-71.31 10.18 C-71.36 9.46, -71.55 8.66, -71.75 7.7 M-71.72 7.63 C-71.69 6.76, -71.8 5.85, -72.35 4.56 M-71.96 7.55 C-71.95 7, -71.96 6.13, -72.16 4.75 M-71.93 4.76 C-72.14 3.83, -72.4 3.36, -72.3 1.86 M-72.28 4.92 C-72.12 3.81, -72.22 3.08, -72.28 1.91 M-72.38 2.12 C-72.04 1.14, -72.27 0.43, -72.34 -1.08 M-72.33 1.75 C-72.2 1.02, -72.18 0.51, -72.01 -1.34 M-71.96 -1.17 C-72.21 -1.96, -71.81 -2.4, -71.46 -4.47 M-72.28 -1.14 C-72.01 -2.23, -71.91 -3.41, -71.78 -4.19 M-71.82 -4.23 C-71.39 -4.88, -71.29 -5.46, -71.13 -7.02 M-71.65 -4.13 C-71.47 -5.24, -71.19 -6.29, -71.12 -6.92 M-71.18 -6.79 C-70.87 -7.42, -70.53 -8.18, -69.85 -9.62 M-70.98 -6.86 C-70.72 -7.85, -70.39 -8.63, -70.05 -9.69 M-69.79 -9.56 C-70 -10.06, -69.37 -10.95, -68.52 -11.91 M-70.16 -9.64 C-69.51 -10.56, -69.28 -11.14, -68.88 -12.01 M-68.97 -12.25 C-68.68 -12.83, -68.06 -13.13, -66.96 -14.39 M-68.86 -12.06 C-68.24 -12.96, -67.83 -13.51, -67.2 -14.39 M-67.17 -14.39 C-66.63 -15.25, -66.08 -16.03, -65.06 -16.94 M-67.27 -14.38 C-66.55 -15, -66.05 -15.76, -65.43 -16.75 M-65.61 -16.77 C-64.62 -17.15, -63.89 -18.1, -63.43 -18.52 M-65.33 -16.74 C-64.83 -17.07, -64.29 -17.8, -63.28 -18.61 M-63.17 -18.81 C-62.45 -19.52, -61.86 -19.65, -61.1 -20.26 M-63.2 -18.83 C-62.43 -19.4, -61.44 -20.08, -60.73 -20.56 M-61.1 -20.54 C-60.26 -21.11, -59.07 -21.26, -58.37 -22.39 M-60.81 -20.43 C-60.15 -20.88, -59.51 -21.3, -58.19 -22.25 M-58.27 -22.35 C-57.29 -22.52, -56.6 -22.71, -55.72 -23.19 M-58.3 -22.11 C-57.48 -22.44, -56.56 -22.9, -55.37 -23.31 M-55.33 -23.46 C-54.91 -24.03, -53.59 -24.21, -52.57 -24.77 M-55.47 -23.45 C-54.72 -23.63, -54 -24.12, -52.68 -24.56 M-52.34 -24.68 C-51.27 -24.69, -50.83 -25.07, -49.16 -25.38 M-52.59 -24.51 C-51.81 -24.95, -50.62 -25.04, -49.52 -25.25 M-49.49 -25.54 C-48.5 -25.4, -48.22 -25.84, -46.01 -25.91 M-49.31 -25.25 C-48.19 -25.61, -46.96 -25.86, -45.97 -25.85 M-46.33 -25.81 C-44.8 -26.22, -44 -26.17, -42.59 -26.42 M-46.09 -25.86 C-45.22 -26.04, -44.06 -26.31, -42.38 -26.21 M-42.46 -26.68 C-41.26 -26.22, -40.2 -26.79, -38.62 -26.34 M-42.37 -26.47 C-41 -26.56, -39.45 -26.34, -38.84 -26.49 M-38.24 -26.79 C-37.15 -26.69, -35.88 -26.76, -33.73 -26.17 M-38.81 -26.28 C-37.69 -26.28, -36.49 -26.16, -33.27 -26.49 M-33.5 -26.57 C-31.81 -25.71, -29.26 -25.9, -27.79 -25.97 M-33.66 -26.49 C-31.1 -26.2, -29.3 -25.88, -28.22 -25.88 M-28.61 -25.21 C-26.78 -25.4, -25.7 -25.45, -21.9 -25.14 M-28.07 -25.86 C-26.16 -25.28, -23.92 -24.89, -22.44 -25.02 M-22.86 -25.02 C-19.87 -24.1, -17.37 -23.34, -16.94 -23.06 M-22.54 -24.6 C-21.1 -24.18, -19.71 -24.37, -16.82 -23.24 M-17.15 -22.81 C-16.04 -25.79, -16.05 -27.37, -17.03 -30.94 M-16.58 -23.57 C-16.67 -25.5, -16.49 -27.03, -16.28 -30.47 M-16.6 -30.8 C-16.6 -30.8, -16.6 -30.8, -16.6 -30.8 M-16.6 -30.8 C-16.6 -30.8, -16.6 -30.8, -16.6 -30.8 M-16.39 -31.03 C-16.58 -31.94, -16.45 -32.58, -16.8 -33.33 M-16.5 -30.89 C-16.78 -31.67, -16.55 -32.56, -16.72 -33.51 M-16.72 -33.63 C-16.75 -34.39, -16.88 -34.92, -16.85 -36.19 M-16.56 -33.42 C-16.7 -34.15, -16.8 -34.75, -16.8 -36.1 M-17.06 -35.98 C-17.09 -36.87, -17.01 -37.79, -17.47 -38.45 M-16.93 -36.13 C-16.97 -36.49, -17.05 -36.92, -17.24 -38.41 M-17.34 -38.39 C-17.28 -39.1, -17.79 -39.92, -17.98 -40.37 M-17.3 -38.32 C-17.52 -39.18, -17.59 -40.09, -17.72 -40.5 M-17.69 -40.3 C-17.87 -40.97, -18.14 -41.39, -18.63 -42.28 M-17.86 -40.51 C-17.96 -41.1, -18.21 -41.58, -18.47 -42.47 M-18.41 -42.25 C-18.55 -42.8, -18.9 -43.58, -19.15 -43.95 M-18.49 -42.33 C-18.68 -42.91, -19 -43.38, -19.26 -44.09 M-19.22 -43.96 C-19.74 -44.6, -19.87 -44.98, -20.32 -45.65 M-19.28 -44.07 C-19.48 -44.42, -19.56 -44.63, -20.14 -45.62 M-20.12 -45.37 C-20.54 -45.88, -20.71 -46.19, -21.4 -46.81 M-20.21 -45.48 C-20.43 -45.89, -20.6 -45.99, -21.24 -46.82 M-21.26 -46.74 C-21.69 -47.09, -21.79 -47.22, -22.44 -48.05 M-21.28 -46.85 C-21.55 -47, -21.82 -47.28, -22.66 -47.93 M-22.46 -47.83 C-22.92 -48.15, -23.57 -48.24, -24.05 -48.79 M-22.63 -47.88 C-23.02 -48.15, -23.56 -48.59, -24.17 -48.74 M-24.01 -48.68 C-24.85 -49.09, -25.32 -49.35, -25.83 -49.5 M-24.13 -48.8 C-24.85 -49.18, -25.57 -49.44, -25.75 -49.66 M-25.77 -49.46 C-26.7 -50.01, -27.12 -50.27, -27.68 -50.17 M-25.93 -49.53 C-26.39 -49.76, -26.85 -49.97, -27.68 -50.27 M-27.91 -50.31 C-28.27 -50.54, -29.06 -50.57, -29.94 -50.84 M-27.72 -50.23 C-28.58 -50.5, -29.43 -50.55, -29.9 -50.85 M-30.05 -50.6 C-30.86 -50.74, -31.7 -51.26, -32.12 -51.31 M-29.92 -50.73 C-30.72 -50.96, -31.29 -50.96, -32.22 -51.18 M-32.1 -50.92 C-33.15 -51.1, -34.33 -51.35, -34.64 -51.33 M-32.25 -51.17 C-32.77 -51.13, -33.43 -51.18, -34.93 -51.38 M-34.97 -51.09 C-35.85 -51.09, -36.63 -51.52, -37.6 -51.35 M-34.69 -51.26 C-35.65 -51.36, -36.23 -51.45, -37.68 -51.29 M-37.23 -51.18 C-39.67 -51.01, -41.07 -50.78, -42.9 -51.11 M-37.8 -51.35 C-38.91 -51.53, -40.3 -51.4, -42.97 -51.35 M-43.39 -50.82 C-45.36 -50.73, -46.44 -50.46, -48.44 -49.68 M-43.2 -51.36 C-44.36 -50.92, -45.23 -50.42, -48.32 -49.89 M-48.44 -49.61 C-49.62 -49.49, -51.46 -49.1, -53.65 -48.42 M-48.67 -50.02 C-50.1 -49.7, -51.91 -49.11, -54.15 -48.34 M-53.83 -49.08 C-55.8 -48.17, -57.17 -47.14, -59.39 -46.93 M-53.92 -48.5 C-55.19 -48.01, -56.66 -47.41, -59.37 -46.53 M-59.11 -46.74 C-59.61 -46.64, -59.89 -46.41, -60.4 -46.22 M-59.16 -46.69 C-59.58 -46.55, -59.97 -46.39, -60.37 -46.25 M-60.22 -46.15 C-60.59 -46.07, -60.94 -45.93, -61.23 -45.78 M-60.28 -46.23 C-60.55 -46.15, -60.73 -46.07, -61.31 -45.88 M-61.31 -45.88 C-61.54 -45.75, -61.92 -45.57, -62.11 -45.51 M-61.29 -45.85 C-61.45 -45.77, -61.66 -45.75, -62.07 -45.56 M-62.1 -45.59 C-62.21 -45.49, -62.41 -45.5, -62.69 -45.42 M-62.07 -45.57 C-62.23 -45.52, -62.35 -45.48, -62.69 -45.43 M-62.76 -45.43 C-62.94 -45.27, -63.19 -45.33, -63.7 -45.1 M-62.74 -45.35 C-63.01 -45.29, -63.34 -45.26, -63.65 -45.13 M-63.68 -45.22 C-63.74 -45.15, -63.96 -45.1, -64.29 -45.14 M-63.64 -45.17 C-63.83 -45.13, -64.08 -45.14, -64.27 -45.08 M-64.25 -45.01 C-64.67 -45.24, -64.99 -45.23, -65.17 -45.3 M-64.27 -45.06 C-64.56 -45.19, -64.95 -45.23, -65.26 -45.29 M-65.28 -45.26 C-65.38 -45.43, -65.56 -45.48, -65.87 -45.85 M-65.21 -45.33 C-65.43 -45.47, -65.62 -45.7, -65.89 -45.89 M-65.87 -45.77 C-66.04 -46.15, -66.12 -46.53, -66.27 -46.92 M-65.9 -45.83 C-65.99 -46.24, -66.11 -46.55, -66.29 -46.8 M-66.37 -46.78 C-66.35 -47.14, -66.32 -47.55, -66.42 -48.25 M-66.22 -46.84 C-66.26 -47.26, -66.41 -47.61, -66.46 -48.25 M-66.06 -48.2 C-66.5 -49.65, -66.92 -52, -66.17 -53.31 M-66.59 -48.42 C-66.56 -49.04, -66.17 -50.41, -66.34 -52.93 M-66.4 -53.1 C-66.4 -53.1, -66.4 -53.1, -66.4 -53.1 M-66.4 -53.1 C-66.4 -53.1, -66.4 -53.1, -66.4 -53.1 M-66.49 -53.03 C-66.35 -53.85, -66.19 -54.29, -66.18 -55.02 M-66.47 -53 C-66.28 -54.01, -66.21 -54.75, -66.24 -55.25 M-66.17 -55.16 C-66.23 -55.43, -66.03 -55.71, -66 -55.93 M-66.22 -55.21 C-66.11 -55.52, -66.09 -55.77, -66.01 -56.01 M-66.04 -56.03 C-65.88 -56.19, -65.81 -56.26, -65.66 -56.54 M-66.01 -56.01 C-65.95 -56.2, -65.81 -56.39, -65.73 -56.57 M-65.7 -56.66 C-65.38 -56.91, -65.02 -57.27, -64.49 -57.57 M-65.65 -56.63 C-65.24 -56.95, -64.85 -57.34, -64.57 -57.72 M-64.56 -57.72 C-64 -58.07, -63.59 -58.14, -62.95 -58.7 M-64.61 -57.55 C-64.07 -58, -63.6 -58.36, -62.97 -58.68 M-62.75 -58.53 C-62.35 -58.95, -61 -59.64, -60.27 -59.97 M-62.9 -58.68 C-62 -59.05, -61.16 -59.45, -60.1 -60.07 M-59.88 -60.13 C-58.92 -60.1, -58.2 -60.65, -57.34 -61.47 M-60.02 -60.11 C-59.04 -60.41, -57.9 -60.86, -57.21 -61.22 M-56.86 -60.87 C-56.46 -61.78, -54.96 -61.97, -53.75 -62.25 M-57.06 -61.09 C-55.96 -61.72, -54.76 -62.05, -53.68 -62.15 M-53.69 -61.96 C-52.65 -62.29, -52.24 -62.4, -50.38 -63.44 M-53.68 -62.36 C-52.63 -62.42, -51.23 -63, -50.24 -63.05 M-50.09 -62.95 C-49.56 -63.81, -48.28 -63.58, -46.79 -63.89 M-50.44 -63.36 C-49.24 -63.46, -48.28 -63.67, -46.59 -63.97 M-46.32 -63.97 C-44.76 -64.39, -43.3 -64.48, -42.42 -64.52 M-46.45 -63.93 C-45.06 -64.1, -43.57 -64.34, -42.8 -64.64 M-42.48 -64.51 C-41.43 -64.54, -40.01 -64.67, -38.97 -64.63 M-42.86 -64.68 C-41.2 -64.94, -39.75 -64.99, -38.69 -65.12 M-39.16 -64.87 C-38.03 -64.91, -36.46 -65.14, -35.08 -65.1 M-38.76 -64.93 C-37.42 -65.04, -36.22 -65.26, -34.55 -64.93 M-34.35 -64.77 C-33.08 -65.38, -31.12 -64.57, -29.96 -64.81 M-34.53 -65.31 C-33.03 -64.93, -31.64 -65.01, -30.34 -65.02 M-30.67 -64.62 C-28.47 -64.66, -27.09 -65.07, -26.18 -64.26 M-30.4 -64.96 C-28.95 -64.7, -27.32 -64.84, -26.31 -64.59 M-26.33 -64.86 C-25.69 -64.29, -24.46 -64.46, -22.45 -64.25 M-26.51 -64.46 C-25.13 -64.56, -23.56 -64, -22.74 -63.93 M-22.95 -64.24 C-21.89 -63.43, -20.9 -63.32, -19.27 -63.21 M-22.8 -64.06 C-21.47 -63.66, -20.22 -63.37, -19.15 -63.2 M-19.06 -63.22 C-18.44 -62.6, -17.78 -62.51, -15.82 -62.19 M-19.29 -63.12 C-18.59 -62.82, -17.91 -62.63, -15.96 -62.09 M-15.96 -61.96 C-15.14 -61.3, -13.66 -61.03, -13.47 -60.67 M-16.22 -61.92 C-15.39 -61.37, -14.28 -61.05, -13.15 -60.62 M-13.51 -60.63 C-12.5 -60.02, -11.21 -59.12, -10.49 -59.03 M-13.21 -60.54 C-12.5 -59.83, -11.37 -59.32, -10.84 -59.03 M-10.98 -59.17 C-9.79 -58.23, -9.07 -57.84, -8.48 -56.88 M-10.71 -58.92 C-10.01 -58.16, -9.25 -57.83, -8.47 -56.9 M-8.35 -56.94 C-7.69 -56.14, -7.16 -55.88, -6.77 -54.61 M-8.58 -56.89 C-8.14 -56.44, -7.68 -56.06, -6.53 -54.97 M-6.76 -54.8 C-6.31 -53.93, -5.26 -53.53, -4.85 -52.42 M-6.56 -54.75 C-6.32 -54.22, -5.89 -53.85, -4.74 -52.46 M-5 -52.43 C-4.08 -51.64, -4.01 -50.69, -3.68 -49.46 M-4.91 -52.42 C-4.23 -51.47, -3.81 -50.4, -3.57 -49.75 M-3.77 -49.76 C-3.32 -48.91, -2.67 -48.06, -2.03 -46.5 M-3.53 -49.69 C-3.14 -48.86, -2.79 -48.19, -2.16 -46.95 M-1.96 -46.68 C-1.73 -45.86, -1.56 -44.21, -1.42 -43.81 M-2.27 -46.93 C-1.91 -45.8, -1.57 -44.61, -1.25 -43.52 M-1.2 -43.31 C-1.48 -42.67, -1.09 -41.49, -0.51 -40.11 M-1.43 -43.76 C-0.99 -42.44, -0.96 -40.96, -0.55 -40.19 M-0.66 -40.48 C-0.52 -39.2, -0.19 -37.67, -0.23 -36.08 M-0.64 -40.02 C-0.43 -38.64, -0.36 -37.31, -0.48 -36.44 M-0.3 -36.26 C-0.1 -35.38, -0.31 -34.71, 0.19 -32.21 M-0.33 -36.21 C-0.52 -35.47, -0.34 -34.65, -0.21 -32.42 M-0.69 -32.02 C-0.56 -24.16, 1.18 -17.23, -0.71 -0.72 M0.02 -32.83 C1.06 -22.07, 0.85 -13.03, -0.57 0.91 M-0.2 -0.01 C-0.15 0.01, -0.07 0, 0.01 0 M-0.2 0 C-0.15 0, -0.09 0, 0 -0.01 M0 0 C0 0, 0 0, 0 0 M0 0 C0 0, 0 0, 0 0" stroke="#000000" stroke-width="1" fill="none"></path></g></g><g stroke-linecap="round"><g transform="translate(134.42317303822205 101.54132761967699) rotate(0 30.28374681223798 -44.424769390937364)" fill-rule="evenodd"><path d="M0.81 0.05 L-0.78 0.26 L-1.31 0.95 L-3.07 1.73 L-2.08 0.83 L-2.24 0.66 L-3.01 -2.52 L-2.98 -1.12 L-3.45 -2.33 L-4.1 -6.65 L-29.68 -82.02 L-28.99 -81.42 L-30.52 -82.18 L-31.24 -84.16 L-29.12 -86.01 L-30.3 -85.94 L-28.58 -88.73 L-29.12 -86.11 L-28.22 -89.14 L-28.79 -89.96 L-19.57 -88.3 L-18.18 -89.71 L-18.09 -87.68 L-14.56 -90.24 L-14.05 -86.43 L-15.45 -88.56 L-13.48 -86.63 L-14.63 -86.58 L-12.66 -84.91 L-12.23 -82.93 L3.87 -16.45 L20.77 -84.76 L21 -83.18 L20.09 -83.52 L20.22 -85.06 L23.3 -87.77 L22.95 -89.04 L21.01 -86.14 L23.77 -86.52 L26.3 -90.08 L24.91 -87.64 L32.1 -87.41 L33.1 -89.26 L35.5 -87.03 L34.81 -86.92 L39.2 -90.05 L36.3 -86.65 L37.7 -86.57 L39.19 -85.41 L41.12 -83.25 L40.79 -82.85 L56.46 -18.52 L74.62 -85.14 L75.03 -82.71 L72.49 -84.78 L74.48 -85.45 L76.12 -85.36 L76.17 -88.48 L77.54 -88.53 L75.35 -87.27 L77.45 -88.78 L80.8 -89.96 L87.7 -86.96 L89.14 -89.46 L90.02 -86.9 L90.15 -86.96 L89.68 -86.19 L92.11 -88.15 L88.63 -85.7 L90.95 -84.68 L90.73 -83.17 L65.28 -5.23 L64.3 -6.48 L66.78 -4.02 L66.72 -2.93 L64.04 -0.71 L65.39 0.74 L64.49 0.77 L62.53 1.57 L60.63 1.67 L60.17 1.68 L51.9 1.99 L50.76 0.31 L51.19 1.19 L48.77 1.74 L47.67 1.31 L46.57 -0.89 L46.89 -0.27 L45.37 -1.17 L46.39 -3.16 L46.35 -3.52 L30.74 -70.42 L16.28 -3.58 L12.86 -4.82 L12.76 -4.09 L14.26 -4.26 L13.53 -2.52 L13.35 -2.33 L11.42 0.17 L12.82 -2.16 L10.44 -1.97 L9.31 0.32 L-0.27 -1.85 L-0.02 0.42" stroke="none" stroke-width="0" fill="#252f3e" fill-rule="evenodd"></path><path d="M0 0 C0 0, 0 0, 0 0 M0 0 C0 0, 0 0, 0 0 M-0.05 0.07 C-0.34 0.09, -1.02 -0.01, -1.29 -0.03 M0.05 -0.05 C-0.46 0.03, -0.93 -0.05, -1.3 -0.12 M-1.19 -0.1 C-1.6 -0.13, -1.95 -0.15, -2.26 -0.22 M-1.29 -0.04 C-1.57 -0.07, -1.91 -0.16, -2.25 -0.22 M-2.33 -0.23 C-2.48 -0.39, -2.67 -0.35, -3.08 -0.51 M-2.3 -0.21 C-2.48 -0.32, -2.64 -0.38, -3.14 -0.52 M-3.15 -0.63 C-3.4 -0.76, -3.56 -0.92, -3.74 -0.94 M-3.1 -0.56 C-3.39 -0.68, -3.59 -0.89, -3.8 -1.01 M-3.81 -1.01 C-4.04 -1.28, -4.24 -1.4, -4.42 -1.66 M-3.8 -1.01 C-4.02 -1.19, -4.15 -1.34, -4.35 -1.59 M-4.41 -1.57 C-4.6 -1.68, -4.64 -2, -4.92 -2.53 M-4.43 -1.59 C-4.53 -1.86, -4.76 -2.2, -4.88 -2.46 M-4.98 -2.43 C-5.14 -2.75, -5.17 -3.07, -5.45 -3.69 M-4.93 -2.44 C-5.12 -2.84, -5.3 -3.28, -5.46 -3.55 M-5.3 -3.53 C-5.49 -3.92, -5.79 -4.44, -5.8 -4.94 M-5.38 -3.6 C-5.57 -4.06, -5.78 -4.62, -5.95 -4.86 M-5.96 -5.35 C-14.32 -31.46, -20.46 -55.07, -28.01 -83.16 M-5.48 -4.23 C-13.12 -30.92, -21.83 -56.84, -30.07 -81.27 M-29.4 -82.2 C-29.4 -82.2, -29.4 -82.2, -29.4 -82.2 M-29.4 -82.2 C-29.4 -82.2, -29.4 -82.2, -29.4 -82.2 M-29.43 -82.26 C-29.44 -82.72, -29.55 -83.16, -29.87 -83.59 M-29.43 -82.19 C-29.51 -82.74, -29.76 -83.24, -29.78 -83.52 M-29.73 -83.66 C-29.82 -83.74, -30.01 -84.04, -30.18 -84.58 M-29.82 -83.55 C-29.9 -83.83, -29.9 -84.19, -30.1 -84.67 M-30 -84.77 C-30.13 -84.82, -30.23 -85.12, -30.29 -85.52 M-30.1 -84.71 C-30.09 -85.01, -30.17 -85.31, -30.22 -85.52 M-30.24 -85.59 C-30.26 -85.74, -30.25 -85.94, -30.35 -86.24 M-30.22 -85.55 C-30.29 -85.81, -30.28 -86.01, -30.28 -86.21 M-30.31 -86.17 C-30.23 -86.66, -30.3 -87.04, -30.11 -87.31 M-30.25 -86.17 C-30.28 -86.45, -30.25 -86.58, -30.1 -87.32 M-30.08 -87.3 C-30.02 -87.59, -29.9 -87.8, -29.76 -87.97 M-30.18 -87.22 C-29.98 -87.5, -29.84 -87.75, -29.71 -88.07 M-29.78 -88.11 C-29.43 -88.25, -29.06 -88.39, -28.97 -88.51 M-29.67 -88.06 C-29.44 -88.2, -29.17 -88.35, -28.92 -88.51 M-29 -88.57 C-28.69 -88.65, -28.56 -88.72, -27.96 -88.8 M-28.9 -88.51 C-28.71 -88.61, -28.55 -88.61, -27.92 -88.69 M-28.65 -87.82 C-23.8 -88.85, -20.3 -89.32, -18.66 -89.21 M-27.48 -89 C-24.79 -89.11, -21.11 -88.58, -18.37 -89.18 M-18.1 -88.7 C-18.1 -88.7, -18.1 -88.7, -18.1 -88.7 M-18.1 -88.7 C-18.1 -88.7, -18.1 -88.7, -18.1 -88.7 M-18.02 -88.67 C-17.71 -88.71, -17.25 -88.55, -16.91 -88.73 M-18.06 -88.69 C-17.77 -88.7, -17.41 -88.65, -16.85 -88.64 M-16.71 -88.62 C-16.52 -88.68, -16.06 -88.43, -15.62 -88.56 M-16.78 -88.66 C-16.3 -88.53, -15.89 -88.46, -15.71 -88.5 M-15.66 -88.4 C-15.37 -88.29, -15.13 -88.29, -14.78 -88.2 M-15.66 -88.45 C-15.4 -88.37, -15.13 -88.24, -14.85 -88.17 M-14.76 -88.15 C-14.63 -88.02, -14.51 -87.95, -14.26 -87.65 M-14.84 -88.12 C-14.57 -87.97, -14.36 -87.8, -14.23 -87.67 M-14.28 -87.67 C-14.01 -87.51, -13.84 -87.24, -13.62 -87.04 M-14.2 -87.66 C-14.08 -87.54, -13.92 -87.41, -13.61 -87.14 M-13.71 -87.01 C-13.58 -86.82, -13.42 -86.53, -13.09 -86.21 M-13.68 -87.08 C-13.44 -86.79, -13.27 -86.5, -13.11 -86.28 M-13.14 -86.31 C-13.03 -85.92, -13.02 -85.8, -12.69 -85.17 M-13.17 -86.22 C-12.98 -85.94, -12.87 -85.56, -12.61 -85.07 M-12.55 -85.09 C-12.62 -84.66, -12.24 -84.11, -12.29 -83.81 M-12.67 -85.16 C-12.51 -84.76, -12.43 -84.36, -12.14 -83.74 M-13.42 -82.69 C-9.03 -66.53, -1.57 -45.9, 3.51 -17.6 M-12.25 -84.05 C-7.17 -65.95, -1.97 -47.17, 4.14 -16.74 M6.11 -16.45 C8.58 -39.23, 14.84 -59.84, 22.08 -84.29 M5.08 -18.51 C8.77 -33.26, 11.72 -48.86, 20.7 -84.73 M20.2 -83.8 C20.2 -83.8, 20.2 -83.8, 20.2 -83.8 M20.2 -83.8 C20.2 -83.8, 20.2 -83.8, 20.2 -83.8 M20.3 -83.8 C20.17 -84.16, 20.38 -84.49, 20.68 -85.1 M20.2 -83.76 C20.28 -84.22, 20.53 -84.72, 20.62 -85.14 M20.61 -85.14 C20.67 -85.37, 20.85 -85.89, 21.14 -86.37 M20.62 -85.17 C20.78 -85.61, 20.92 -86.05, 21.05 -86.28 M21.04 -86.27 C21.23 -86.51, 21.37 -86.67, 21.63 -87.2 M21.03 -86.31 C21.13 -86.47, 21.25 -86.63, 21.56 -87.11 M21.53 -87.1 C21.64 -87.33, 21.84 -87.43, 22.05 -87.65 M21.51 -87.16 C21.65 -87.24, 21.82 -87.43, 22.07 -87.72 M22.14 -87.73 C22.24 -87.77, 22.45 -87.87, 22.79 -88.17 M22.08 -87.68 C22.3 -87.77, 22.53 -87.92, 22.77 -88.14 M22.75 -88.17 C23.14 -88.29, 23.48 -88.26, 23.71 -88.35 M22.79 -88.08 C23.16 -88.21, 23.55 -88.32, 23.7 -88.41 M23.67 -88.32 C24.14 -88.58, 24.48 -88.6, 24.83 -88.56 M23.78 -88.43 C24.14 -88.49, 24.53 -88.62, 24.88 -88.67 M24.91 -88.58 C25.4 -88.56, 25.82 -88.75, 26.22 -88.64 M24.79 -88.67 C25.14 -88.62, 25.33 -88.7, 26.14 -88.76 M25.43 -88.88 C28.06 -88.38, 29.17 -89.55, 33.78 -89.03 M26.48 -89 C28.56 -88.75, 31.07 -88.52, 34.44 -88.41 M34.1 -88.7 C34.1 -88.7, 34.1 -88.7, 34.1 -88.7 M34.1 -88.7 C34.1 -88.7, 34.1 -88.7, 34.1 -88.7 M33.99 -88.8 C34.48 -88.63, 34.75 -88.59, 35.35 -88.53 M34.12 -88.7 C34.55 -88.71, 35.03 -88.63, 35.46 -88.65 M35.37 -88.54 C35.71 -88.6, 36.11 -88.44, 36.5 -88.38 M35.36 -88.64 C35.77 -88.57, 36.09 -88.5, 36.52 -88.46 M36.46 -88.48 C36.72 -88.36, 37.04 -88.23, 37.4 -88.2 M36.53 -88.46 C36.81 -88.35, 37.12 -88.22, 37.41 -88.17 M37.48 -88.15 C37.73 -88.01, 37.86 -87.9, 38.06 -87.7 M37.4 -88.12 C37.57 -88.06, 37.71 -87.98, 38.1 -87.7 M38.12 -87.74 C38.23 -87.46, 38.43 -87.37, 38.7 -87.02 M38.14 -87.72 C38.3 -87.47, 38.48 -87.32, 38.66 -87.11 M38.75 -87.1 C38.79 -86.88, 38.87 -86.65, 39.14 -86.22 M38.7 -87.14 C38.88 -86.75, 39.1 -86.52, 39.16 -86.21 M39.15 -86.29 C39.39 -85.94, 39.53 -85.81, 39.71 -85.21 M39.19 -86.23 C39.26 -86.06, 39.36 -85.79, 39.61 -85.13 M39.73 -85.15 C39.78 -84.83, 39.75 -84.57, 40.08 -83.92 M39.64 -85.15 C39.77 -84.77, 39.83 -84.28, 39.97 -83.75 M39.53 -82.17 C44.71 -62.18, 50.75 -42.23, 56.51 -15.42 M39.97 -83.69 C44.16 -66, 48.15 -50.23, 54.98 -16.62 M54.13 -15.85 C62.85 -44.7, 70.51 -67.92, 73.59 -83.53 M56.63 -17.55 C62.53 -41.45, 68.71 -66.97, 72.17 -83.99 M73.1 -83.8 C73.1 -83.8, 73.1 -83.8, 73.1 -83.8 M73.1 -83.8 C73.1 -83.8, 73.1 -83.8, 73.1 -83.8 M73.1 -83.85 C73.23 -84.32, 73.53 -84.77, 73.53 -85.19 M73.17 -83.75 C73.36 -84.38, 73.43 -84.94, 73.59 -85.12 M73.58 -85.09 C73.73 -85.5, 73.75 -85.69, 74.03 -86.26 M73.54 -85.11 C73.63 -85.43, 73.76 -85.63, 74.09 -86.31 M74.04 -86.34 C74.13 -86.45, 74.31 -86.74, 74.62 -87.08 M74.05 -86.3 C74.25 -86.55, 74.39 -86.77, 74.58 -87.08 M74.52 -87.14 C74.82 -87.26, 74.94 -87.63, 75.07 -87.64 M74.58 -87.1 C74.76 -87.31, 74.96 -87.57, 75.1 -87.69 M75.13 -87.7 C75.3 -87.76, 75.44 -87.86, 75.79 -88.17 M75.09 -87.68 C75.32 -87.82, 75.54 -87.91, 75.79 -88.13 M75.71 -88.2 C76.03 -88.22, 76.13 -88.3, 76.64 -88.43 M75.79 -88.08 C76.02 -88.23, 76.24 -88.29, 76.68 -88.45 M76.76 -88.39 C76.83 -88.47, 77.25 -88.51, 77.72 -88.71 M76.62 -88.47 C77.12 -88.5, 77.4 -88.52, 77.69 -88.63 M77.81 -88.59 C77.91 -88.72, 78.25 -88.61, 79.08 -88.71 M77.73 -88.62 C78.12 -88.66, 78.54 -88.63, 78.96 -88.68 M79.91 -89.02 C82.35 -88.71, 83.91 -88.85, 87.92 -88.04 M78.67 -88.47 C82.56 -89.02, 85.75 -88.33, 88.26 -88.74 M88.3 -88.7 C88.3 -88.7, 88.3 -88.7, 88.3 -88.7 M88.3 -88.7 C88.3 -88.7, 88.3 -88.7, 88.3 -88.7 M88.3 -88.75 C88.64 -88.71, 89.03 -88.56, 89.28 -88.61 M88.27 -88.67 C88.52 -88.63, 88.83 -88.68, 89.42 -88.6 M89.3 -88.49 C89.56 -88.44, 89.81 -88.36, 90.24 -88.13 M89.41 -88.57 C89.57 -88.42, 89.79 -88.31, 90.11 -88.09 M90.17 -88.08 C90.26 -87.92, 90.48 -87.75, 90.69 -87.27 M90.13 -88.08 C90.3 -87.86, 90.41 -87.71, 90.68 -87.35 M90.68 -87.28 C90.76 -86.88, 90.67 -86.53, 90.74 -86.21 M90.62 -87.26 C90.66 -86.99, 90.7 -86.53, 90.79 -86.21 M90.92 -86.24 C90.83 -85.5, 90.54 -84.98, 90.54 -84.56 M90.79 -86.22 C90.78 -85.72, 90.77 -85.3, 90.55 -84.63 M90.71 -84.71 C90.44 -84.24, 90.33 -83.71, 90.31 -83.47 M90.63 -84.55 C90.49 -84.33, 90.49 -83.92, 90.39 -83.58 M90.38 -83.65 C90.37 -83.16, 90.09 -82.77, 89.95 -81.98 M90.29 -83.51 C90.3 -83.07, 90.07 -82.66, 89.9 -82.04 M89.97 -82.85 C84.35 -65.02, 80.03 -50.78, 64.9 -4.99 M90.15 -81.83 C81.9 -53.47, 74.1 -26.58, 66.26 -5.16 M65.8 -4.8 C65.8 -4.8, 65.8 -4.8, 65.8 -4.8 M65.8 -4.8 C65.8 -4.8, 65.8 -4.8, 65.8 -4.8 M65.93 -4.75 C65.58 -4.37, 65.39 -3.91, 65.47 -3.34 M65.78 -4.78 C65.72 -4.42, 65.56 -3.97, 65.26 -3.48 M65.35 -3.49 C65.15 -3.22, 64.97 -2.8, 64.8 -2.21 M65.35 -3.48 C65.18 -3.19, 65.06 -2.95, 64.84 -2.27 M64.92 -2.25 C64.72 -2.14, 64.58 -1.79, 64.3 -1.49 M64.84 -2.32 C64.62 -2, 64.46 -1.78, 64.32 -1.51 M64.22 -1.48 C64.1 -1.18, 63.79 -1.09, 63.62 -0.95 M64.26 -1.51 C64.15 -1.29, 63.98 -1.18, 63.68 -0.89 M63.67 -0.92 C63.48 -0.77, 63.17 -0.61, 62.94 -0.54 M63.7 -0.94 C63.57 -0.76, 63.4 -0.71, 62.98 -0.46 M62.96 -0.51 C62.85 -0.36, 62.63 -0.41, 62.07 -0.14 M63.04 -0.46 C62.82 -0.4, 62.53 -0.35, 62.13 -0.15 M62.2 -0.17 C61.84 -0.02, 61.73 -0.06, 61.13 -0.07 M62.18 -0.14 C61.92 -0.17, 61.62 -0.03, 61.11 0.07 M60.98 0.01 C60.58 0.04, 60.2 0.17, 60.01 0.21 M61.07 -0.01 C60.57 0.06, 60.21 0.06, 59.95 0.12 M59.38 -0.56 C57.84 -0.52, 54.4 0.57, 51 -0.42 M59.71 0.19 C56.93 0.09, 54.32 0.12, 51.3 0.22 M51.3 0.1 C51.3 0.1, 51.3 0.1, 51.3 0.1 M51.3 0.1 C51.3 0.1, 51.3 0.1, 51.3 0.1 M51.28 0.19 C50.89 -0.04, 50.51 -0.04, 49.99 -0.07 M51.25 0.06 C51.06 0.12, 50.78 0.05, 50.04 0.09 M50.03 0.08 C49.58 -0.04, 49.32 -0.07, 48.81 -0.23 M50.02 0.06 C49.68 0, 49.33 -0.09, 48.91 -0.1 M48.87 -0.05 C48.64 -0.28, 48.31 -0.32, 47.95 -0.49 M48.85 -0.14 C48.66 -0.24, 48.41 -0.25, 48.01 -0.48 M47.95 -0.41 C47.79 -0.53, 47.54 -0.74, 47.26 -0.91 M48 -0.48 C47.82 -0.58, 47.63 -0.72, 47.32 -0.89 M47.23 -0.89 C47.24 -1.04, 47.06 -1.1, 46.66 -1.52 M47.27 -0.91 C47.14 -1.09, 46.93 -1.31, 46.7 -1.55 M46.74 -1.49 C46.53 -1.66, 46.54 -1.87, 46.23 -2.42 M46.74 -1.55 C46.61 -1.77, 46.4 -1.96, 46.23 -2.42 M46.19 -2.46 C46.21 -2.62, 45.97 -2.93, 45.68 -3.63 M46.19 -2.39 C46.01 -2.71, 45.88 -3.1, 45.77 -3.57 M45.71 -3.63 C45.7 -3.9, 45.47 -4.23, 45.48 -4.98 M45.78 -3.55 C45.68 -3.97, 45.48 -4.37, 45.41 -4.87 M46.11 -4.12 C40.27 -21.83, 37.09 -40.07, 28.29 -67.57 M44.97 -4.78 C40.87 -22.56, 36 -40.64, 30.61 -69.52 M31.01 -69.23 C22.68 -42.62, 17.16 -17.88, 13.61 -5.75 M30.87 -68.76 C27.06 -54.35, 22.7 -37.5, 14.22 -4.48 M14.5 -5 C14.5 -5, 14.5 -5, 14.5 -5 M14.5 -5 C14.5 -5, 14.5 -5, 14.5 -5 M14.53 -4.9 C14.42 -4.63, 14.09 -3.97, 14.15 -3.72 M14.5 -4.94 C14.32 -4.59, 14.19 -4.07, 14.08 -3.67 M14.21 -3.62 C14.04 -3.3, 13.91 -3.18, 13.74 -2.46 M14.16 -3.58 C14.07 -3.43, 13.97 -3.15, 13.69 -2.48 M13.6 -2.59 C13.44 -2.24, 13.42 -1.99, 13.19 -1.55 M13.71 -2.53 C13.51 -2.3, 13.39 -2.11, 13.12 -1.62 M13.15 -1.66 C12.91 -1.37, 12.79 -1.2, 12.63 -1.07 M13.16 -1.63 C12.99 -1.45, 12.74 -1.21, 12.6 -0.98 M12.57 -0.99 C12.38 -0.91, 12.14 -0.78, 11.95 -0.56 M12.62 -1.01 C12.49 -0.87, 12.27 -0.78, 11.87 -0.53 M11.86 -0.53 C11.55 -0.46, 11.18 -0.35, 10.96 -0.19 M11.93 -0.58 C11.62 -0.47, 11.38 -0.43, 11 -0.19 M10.96 -0.18 C10.59 -0.29, 10.47 -0.19, 9.76 -0.15 M10.93 -0.2 C10.79 -0.26, 10.53 -0.13, 9.9 -0.01 M9.78 -0.15 C9.5 -0.05, 9.19 0.08, 8.6 0.12 M9.88 -0.01 C9.59 -0.09, 9.35 -0.05, 8.61 -0.01 M8.57 -0.35 C7.07 0.59, 4.94 0.73, 0.82 -0.61 M8.77 -0.33 C6.63 0.08, 4.27 -0.16, 0.18 -0.37 M0 0 C0 0, 0 0, 0 0 M0 0 C0 0, 0 0, 0 0 M0 0 C0 0, 0 0, 0 0 M0 0 C0 0, 0 0, 0 0" stroke="#000000" stroke-width="1" fill="none"></path></g></g><g stroke-linecap="round"><g transform="translate(262.9231806676166 104.24132456791918) rotate(0 2.215013402130026 -46.937519560023375)" fill-rule="evenodd"><path d="M1.19 1.57 L1.88 -1.9 L-4.88 0.24 L-9.1 -0.18 L-11.18 -2.36 L-13.66 -3.06 L-20.67 -2.87 L-21.75 -4.69 L-23.6 -4.2 L-25.55 -4.12 L-26.61 -8.13 L-27.16 -8.57 L-30.21 -7.55 L-29.9 -7.72 L-31.4 -11.39 L-29.71 -12.75 L-30.28 -18.07 L-32.21 -15.17 L-31.59 -19.56 L-29.35 -17.31 L-31.13 -17.46 L-26.69 -20.59 L-25 -21.1 L-24.46 -18.14 L-23.99 -17.16 L-18.52 -15.41 L-12.39 -16.79 L-8.42 -13.13 L-3.07 -12.36 L4.82 -12.87 L6.11 -13.97 L10.3 -14.37 L14.86 -18.44 L17.64 -18.6 L17.19 -21.68 L17.2 -23.32 L18.86 -26.36 L17.38 -29.93 L18.23 -31.07 L17.32 -32.39 L17.56 -33.2 L13.09 -35.87 L13.77 -36.22 L9.75 -37.83 L7.63 -38.43 L-7.65 -43.66 L-9.78 -42.94 L-9.58 -44.22 L-11.91 -44.86 L-14.11 -45.12 L-18.75 -45.67 L-21.32 -49.98 L-21.8 -50.7 L-24.31 -52.02 L-24.73 -52.06 L-27.37 -54.9 L-29.07 -60.07 L-30.74 -65.68 L-31.55 -69.29 L-28.71 -69.38 L-28.97 -74.08 L-28.02 -77.5 L-26.36 -78.67 L-24.91 -79.94 L-24.6 -85.32 L-21.95 -86.84 L-20.73 -86.97 L-15.64 -89.06 L-15.89 -91.49 L-12.75 -90.27 L-11.3 -93.37 L-6.04 -94.98 L-4.52 -94.01 L1.14 -92.42 L2.59 -93.64 L7.56 -92.86 L8.22 -95.42 L13.61 -91.26 L17.96 -93.34 L23.89 -90.87 L23.5 -91.39 L27.78 -90.05 L28.39 -86.85 L30.85 -85.11 L28.9 -85.06 L32.09 -82.18 L30.4 -79.87 L30.41 -79.69 L31.29 -76.29 L29.62 -77.2 L27.85 -75.65 L26.54 -74.63 L25.31 -77.22 L25.58 -76.99 L24.51 -76.62 L22.86 -78.06 L18.34 -77.96 L15 -78.34 L10.69 -81.32 L4.36 -81.79 L1.89 -81.92 L-3.11 -81.4 L-6.05 -79.8 L-7.75 -78.95 L-10.04 -77.4 L-11.35 -72.7 L-14.42 -71.86 L-13.89 -69.67 L-12 -68.39 L-14.13 -64.87 L-12.34 -63.61 L-9.05 -62.37 L-8.58 -58.52 L-4.87 -59.48 L-1.28 -57.18 L1.96 -54.37 L14.03 -51.69 L13.32 -52.29 L16 -52.13 L19.27 -49.7 L24.08 -49.36 L24.75 -48.51 L25.36 -47.97 L28.09 -46.38 L29.59 -42.53 L29.41 -41.77 L31.27 -40.79 L32.2 -34.63 L34.58 -30.57 L37.15 -27.91 L35.52 -25.25 L34.38 -20.62 L35.82 -19.74 L31.79 -17.89 L32.43 -14.22 L30.64 -10.25 L26.19 -8.13 L26.21 -9.12 L21.59 -7.79 L19.34 -2.68 L18.94 -2.37 L12.73 -4.02 L10.22 0.33 L6.81 1.18 L3.68 1.46 L0.34 -1.94 L-1.04 -0.44" stroke="none" stroke-width="0" fill="#252f3e" fill-rule="evenodd"></path><path d="M0 0 C0 0, 0 0, 0 0 M0 0 C0 0, 0 0, 0 0 M0.36 0.37 C-1.21 0.12, -1.97 0.04, -3.6 -0.16 M0.04 0.17 C-1.1 -0.07, -2.45 -0.29, -3.9 -0.28 M-4.11 -0.14 C-5.06 -0.11, -5.44 -0.22, -7.77 -0.76 M-3.98 0.06 C-4.91 -0.11, -5.48 -0.17, -7.9 -0.39 M-7.8 -0.82 C-9.14 -0.54, -10.37 -0.69, -11.89 -1.05 M-7.82 -0.54 C-9.15 -0.7, -10.79 -0.76, -11.56 -1.09 M-11.88 -1.34 C-12.84 -1.69, -13.83 -1.27, -15.17 -1.61 M-11.72 -0.88 C-12.69 -1.34, -14.01 -1.55, -15.32 -1.84 M-15.59 -2.12 C-16.61 -2.03, -17.66 -2.62, -18.87 -2.36 M-15.53 -1.8 C-16.45 -1.94, -17.63 -2.42, -19.12 -2.58 M-19.26 -2.44 C-20 -3.19, -20.87 -3.53, -21.87 -3.69 M-18.81 -2.59 C-20.09 -3.06, -21.15 -3.43, -22.07 -3.75 M-22.22 -3.6 C-22.51 -3.83, -23.23 -4.39, -24.57 -4.77 M-22.1 -3.69 C-23.14 -4.19, -24.17 -4.4, -24.67 -4.64 M-24.53 -4.57 C-25.45 -5.03, -25.86 -5.42, -26.72 -5.96 M-24.65 -4.68 C-25.35 -5.12, -26.05 -5.27, -26.88 -5.73 M-26.93 -5.92 C-27.12 -6.03, -27.37 -6.22, -27.96 -6.56 M-26.89 -5.84 C-27.38 -6.12, -27.8 -6.27, -28.05 -6.5 M-28.03 -6.45 C-28.28 -6.63, -28.45 -6.85, -28.89 -7.24 M-27.96 -6.54 C-28.17 -6.6, -28.34 -6.81, -28.89 -7.24 M-28.85 -7.26 C-29.02 -7.46, -29.33 -7.62, -29.48 -7.96 M-28.87 -7.2 C-29.07 -7.32, -29.17 -7.46, -29.62 -7.87 M-29.54 -7.87 C-29.73 -8.06, -29.83 -8.12, -30.03 -8.65 M-29.6 -7.89 C-29.65 -8.09, -29.79 -8.23, -30.03 -8.56 M-30.01 -8.51 C-30.28 -9.14, -30.37 -9.41, -30.35 -10.04 M-29.93 -8.6 C-30.08 -9.01, -30.24 -9.42, -30.48 -9.95 M-30.43 -10.01 C-30.42 -10.38, -30.63 -10.65, -30.53 -11.37 M-30.51 -10.07 C-30.5 -10.56, -30.53 -11.12, -30.55 -11.39 M-30.5 -11.71 C-31.1 -13.12, -30.39 -14.67, -31.11 -16.2 M-30.64 -11.56 C-30.68 -13.19, -30.4 -15.64, -30.42 -16.58 M-30.6 -16.5 C-30.6 -16.5, -30.6 -16.5, -30.6 -16.5 M-30.6 -16.5 C-30.6 -16.5, -30.6 -16.5, -30.6 -16.5 M-30.65 -16.51 C-30.47 -16.86, -30.52 -17.36, -30.4 -17.77 M-30.58 -16.48 C-30.52 -16.91, -30.46 -17.36, -30.5 -17.93 M-30.43 -17.94 C-30.37 -18.32, -30.18 -18.68, -30.1 -18.81 M-30.44 -17.9 C-30.34 -18.25, -30.13 -18.62, -29.99 -18.83 M-29.94 -18.86 C-29.75 -19.04, -29.72 -19.16, -29.25 -19.48 M-30.03 -18.88 C-29.85 -18.96, -29.72 -19.14, -29.3 -19.44 M-29.2 -19.51 C-29.14 -19.48, -28.74 -19.48, -28.33 -19.58 M-29.26 -19.44 C-28.94 -19.5, -28.55 -19.57, -28.31 -19.63 M-28.29 -19.62 C-27.45 -19.3, -27.04 -19.49, -26.53 -19.33 M-28.36 -19.6 C-27.67 -19.44, -26.97 -19.36, -26.5 -19.27 M-26.56 -19.4 C-26.17 -19.11, -25.94 -19.22, -25.28 -18.78 M-26.45 -19.27 C-26.24 -19.17, -26.03 -19.15, -25.36 -18.93 M-25.37 -18.78 C-25.03 -18.79, -24.39 -18.6, -23.93 -18.26 M-25.4 -18.9 C-24.94 -18.66, -24.42 -18.51, -24.06 -18.28 M-23.5 -18.05 C-21.92 -17.62, -21.02 -16.64, -18.3 -16.78 M-23.72 -18.15 C-21.82 -17.38, -19.94 -16.54, -18.57 -16.09 M-18.77 -16.42 C-17.33 -15.5, -15.46 -15.05, -13.5 -14.21 M-18.73 -16.09 C-17.17 -15.79, -15.88 -15.9, -13 -15.07 M-13.57 -14.7 C-11.96 -14.33, -9.67 -14.2, -6.8 -14.27 M-12.87 -14.74 C-11.64 -14.6, -10.46 -14.72, -7.26 -13.93 M-7.13 -13.61 C-6.14 -14.2, -4.29 -13.92, -1.15 -13.18 M-7.04 -14.03 C-5.02 -13.66, -2.53 -13.42, -0.94 -13.73 M-1.48 -13.62 C0.96 -13.44, 2.12 -13.81, 3.36 -14.11 M-1.06 -13.7 C-0.3 -13.72, 0.91 -13.48, 3.32 -13.75 M3.02 -14.07 C5.02 -13.94, 6.07 -14.29, 7.22 -14.19 M3.34 -13.98 C4.6 -14.14, 5.62 -14, 7.33 -14.48 M7.07 -14.48 C8.23 -14.65, 9.51 -15.11, 10.43 -15.45 M7.39 -14.5 C8.18 -14.8, 9.2 -15.12, 10.82 -15.56 M10.88 -15.35 C11.56 -15.6, 12.46 -16.07, 13.2 -16.83 M10.54 -15.42 C11.89 -16.08, 12.78 -16.73, 13.49 -16.83 M13.22 -16.82 C14.19 -17.32, 15.25 -18.07, 15.84 -18.73 M13.4 -16.83 C14.51 -17.65, 15.3 -18.29, 15.71 -18.84 M15.63 -18.49 C16.31 -19.74, 17.08 -20.44, 17.62 -21.06 M15.77 -18.76 C16.04 -19.28, 16.47 -19.7, 17.36 -20.94 M17.51 -20.91 C17.79 -21.4, 18.18 -22.6, 18.12 -23.7 M17.32 -21 C17.63 -21.61, 17.97 -22.23, 18.39 -23.53 M18.08 -23.56 C18.27 -24.3, 18.43 -25.33, 18.6 -26.12 M18.27 -23.36 C18.45 -24.49, 18.49 -25.53, 18.67 -26.48 M18.56 -26.28 C18.51 -26.96, 18.53 -27.98, 18.49 -28.6 M18.69 -26.3 C18.75 -26.96, 18.52 -27.62, 18.56 -28.32 M18.59 -28.56 C18.53 -28.8, 18.25 -29.24, 18.19 -30.38 M18.51 -28.35 C18.42 -28.97, 18.13 -29.64, 18.1 -30.32 M18.02 -30.36 C17.63 -30.8, 17.49 -31.2, 17.3 -31.88 M18.05 -30.21 C17.7 -30.92, 17.46 -31.58, 17.25 -31.84 M17.34 -31.75 C16.86 -32.49, 16.56 -32.81, 15.81 -33.47 M17.27 -31.88 C16.88 -32.34, 16.69 -32.71, 15.93 -33.35 M16.04 -33.3 C15.25 -34.14, 14.68 -34.54, 14.36 -34.66 M16.01 -33.4 C15.41 -33.86, 14.87 -34.35, 14.38 -34.87 M14.36 -34.91 C13.61 -35.47, 12.7 -35.68, 12.06 -36.2 M14.42 -34.67 C13.85 -35.16, 13.5 -35.35, 12 -36.11 M12.35 -35.97 C11.36 -36.34, 10.08 -36.73, 9.41 -37.34 M12.11 -36.16 C11.13 -36.49, 10.07 -37.1, 9.34 -37.53 M9.1 -37.4 C7.99 -37.51, 6.78 -37.99, 5.86 -38.84 M9.43 -37.33 C8.5 -37.6, 7.46 -38.04, 5.86 -38.74 M5.21 -38.37 C2.62 -38.93, -1.85 -41.84, -8.23 -43.74 M6.1 -38.54 C2.51 -39.17, -1.74 -41.29, -8.12 -42.81 M-8.6 -43.1 C-8.6 -43.1, -8.6 -43.1, -8.6 -43.1 M-8.6 -43.1 C-8.6 -43.1, -8.6 -43.1, -8.6 -43.1 M-8.75 -42.86 C-9.34 -43.41, -10.02 -43.35, -11.19 -44.2 M-8.54 -42.97 C-9.55 -43.43, -10.62 -43.8, -11.33 -44.05 M-11.28 -43.95 C-12.32 -44.28, -13.23 -44.72, -13.56 -45.09 M-11.2 -43.91 C-11.62 -44.35, -12.36 -44.37, -13.79 -44.94 M-13.56 -44.96 C-14.2 -45.64, -15.02 -45.93, -16.24 -46.35 M-13.77 -45.13 C-14.56 -45.43, -15.4 -45.82, -16.1 -46.19 M-15.9 -46.14 C-16.68 -46.53, -17.04 -47.05, -18.08 -47.23 M-15.99 -46.24 C-16.77 -46.51, -17.45 -46.87, -18.09 -47.44 M-18.08 -47.26 C-18.65 -47.83, -19.42 -48.17, -20.12 -48.63 M-18.11 -47.27 C-18.85 -47.93, -19.68 -48.38, -19.9 -48.6 M-19.92 -48.87 C-20.37 -48.98, -21.07 -49.6, -21.55 -50.33 M-20.06 -48.6 C-20.64 -49.04, -21.16 -49.59, -21.65 -50.21 M-21.7 -50.13 C-21.94 -50.47, -22.47 -50.96, -23.13 -51.82 M-21.8 -50.02 C-22.29 -50.62, -22.82 -51.25, -23.26 -51.66 M-23.28 -51.82 C-23.5 -52.41, -24.21 -52.79, -24.39 -53.41 M-23.17 -51.71 C-23.84 -52.32, -24.23 -52.79, -24.63 -53.4 M-24.54 -53.42 C-25.5 -53.94, -25.88 -55.05, -27.07 -56.67 M-24.75 -53.35 C-25.24 -54.01, -25.59 -55.1, -26.72 -56.67 M-27.15 -56.31 C-27.54 -57.29, -27.41 -58.42, -28.37 -60.24 M-26.62 -56.84 C-26.98 -57.49, -27.39 -58.04, -28.19 -60.43 M-28.16 -59.88 C-28.75 -61.7, -29.03 -62.13, -29.06 -63.94 M-28.34 -60.17 C-28.62 -61.76, -29.03 -62.87, -29.31 -63.97 M-29.29 -63.7 C-29.67 -64.48, -29.46 -65.98, -29.61 -67.93 M-29.22 -63.96 C-29.23 -64.93, -29.49 -66.38, -29.79 -67.7 M-29.4 -67.96 C-29.57 -68.91, -29.6 -69.62, -29.5 -70.83 M-29.65 -67.9 C-29.7 -68.74, -29.48 -69.75, -29.53 -70.77 M-29.69 -70.86 C-29.14 -71.59, -29.26 -72.58, -28.74 -73.84 M-29.29 -70.86 C-29.37 -71.65, -29.21 -72.74, -29.07 -73.77 M-29.11 -73.91 C-28.71 -74.34, -28.31 -75.16, -28.05 -76.3 M-28.97 -73.73 C-28.55 -74.64, -28.34 -75.78, -28.11 -76.53 M-27.87 -76.39 C-27.79 -77.32, -27.37 -77.99, -26.76 -79.02 M-28 -76.48 C-27.55 -77.24, -27.16 -78.35, -26.8 -78.9 M-26.85 -79.13 C-26.53 -79.3, -26.05 -80.11, -25.17 -81.09 M-26.77 -78.78 C-26.64 -79.47, -26.17 -80.08, -25.35 -81.1 M-25.57 -81.41 C-25.14 -81.68, -24.82 -82.43, -23.95 -83.49 M-25.5 -81.11 C-24.65 -82.17, -23.99 -83.02, -23.82 -83.37 M-23.75 -83.42 C-23.1 -84.01, -22.52 -84.5, -21.88 -85.48 M-23.79 -83.41 C-23.4 -83.9, -23.03 -84.24, -21.9 -85.46 M-21.85 -85.43 C-20.74 -86.21, -20.02 -86.59, -19.79 -87.07 M-21.78 -85.29 C-21.3 -85.9, -20.66 -86.34, -19.68 -87.19 M-19.5 -86.9 C-19.28 -87.31, -18.67 -87.95, -17.29 -88.78 M-19.78 -87.21 C-18.98 -87.56, -18.08 -88.28, -17.24 -88.82 M-17.16 -88.58 C-16.57 -89.31, -15.52 -89.75, -14.99 -90.09 M-17.32 -88.6 C-16.54 -88.97, -16.05 -89.55, -14.76 -90.01 M-15.08 -90.25 C-14.08 -90.34, -12.89 -90.85, -12.21 -91.55 M-14.96 -90.22 C-13.74 -90.46, -12.74 -91.17, -12.3 -91.19 M-11.99 -91.19 C-11.71 -91.26, -10.84 -91.47, -9.31 -92.08 M-12.06 -91.21 C-11.55 -91.51, -10.83 -91.66, -9.44 -92.33 M-9.36 -92.15 C-8.44 -92.64, -7.82 -92.73, -6.08 -92.78 M-9.31 -92.2 C-7.97 -92.65, -6.81 -92.98, -6.31 -93.18 M-6.08 -93.23 C-5.47 -93.34, -4.47 -93.6, -2.87 -93.68 M-6.29 -92.97 C-5.44 -93.25, -4.59 -93.27, -3.16 -93.65 M-3.33 -93.55 C-2.49 -93.53, -0.95 -93.6, 0.06 -93.99 M-3 -93.68 C-1.91 -93.74, -1.02 -93.94, -0.03 -93.82 M-0.12 -94.11 C1.04 -93.77, 2.55 -93.65, 3.12 -94.24 M-0.02 -93.97 C0.91 -94.06, 1.9 -93.78, 3.27 -93.96 M3.46 -94.18 C4.74 -93.79, 5.86 -93.99, 6.75 -94.06 M3.24 -93.86 C4.46 -94.03, 5.76 -94.03, 6.79 -93.88 M6.82 -93.6 C7.62 -94.01, 8.72 -93.88, 9.97 -93.68 M6.81 -93.83 C7.74 -93.96, 8.47 -93.69, 10.08 -93.51 M10.09 -93.66 C11.11 -93.41, 12.33 -93.39, 13.1 -93.11 M10.13 -93.43 C11.33 -93.42, 12.31 -93.05, 13.27 -93.05 M13.56 -92.92 C14.68 -93.19, 15.2 -92.55, 16.37 -92.44 M13.47 -93.05 C13.99 -93.04, 14.81 -92.74, 16.36 -92.37 M16.05 -91.91 C18.61 -91.85, 20.48 -91.98, 21.8 -91.09 M16.62 -92.74 C18.08 -91.77, 20.07 -91.29, 22.42 -90.73 M22.05 -90.95 C23.1 -90.39, 24.24 -89.99, 24.84 -90.05 M22.07 -90.9 C23.08 -90.65, 23.86 -90.25, 24.65 -89.96 M24.8 -90.16 C25.35 -89.55, 25.88 -89.43, 26.49 -89.28 M24.6 -90.02 C25.37 -89.67, 25.99 -89.28, 26.32 -89.17 M26.38 -89.09 C26.87 -88.83, 27.57 -88.58, 28.08 -87.81 M26.32 -89 C27 -88.78, 27.68 -88.26, 28.23 -87.96 M28.23 -88.06 C28.74 -87.57, 29.1 -87.1, 29.23 -86.63 M28.24 -87.85 C28.6 -87.51, 29.04 -86.98, 29.43 -86.55 M29.35 -86.65 C29.77 -86.07, 29.8 -85.66, 30.04 -85.17 M29.4 -86.58 C29.52 -86.27, 29.79 -85.81, 30.1 -85.22 M30.16 -85.28 C30.16 -84.42, 30.16 -83.82, 30.21 -83.12 M30.09 -85.23 C30.08 -84.45, 30.25 -83.93, 30.32 -83.24 M30.41 -82.95 C30.3 -81.72, 30.05 -80.16, 30.1 -78.95 M30.29 -83.42 C30.26 -82.03, 30.44 -80.22, 30.09 -78.8 M30.3 -78.6 C30.3 -78.6, 30.3 -78.6, 30.3 -78.6 M30.3 -78.6 C30.3 -78.6, 30.3 -78.6, 30.3 -78.6 M30.19 -78.52 C30.3 -78.02, 30.23 -77.54, 30.11 -77.35 M30.32 -78.6 C30.19 -78.08, 30.25 -77.69, 30.09 -77.21 M30.25 -77.18 C30.02 -77.05, 29.9 -76.88, 29.74 -76.23 M30.11 -77.16 C29.97 -76.85, 29.87 -76.59, 29.69 -76.17 M29.75 -76.22 C29.46 -76.04, 29.38 -75.95, 28.99 -75.54 M29.74 -76.24 C29.45 -76.04, 29.26 -75.81, 28.99 -75.56 M28.99 -75.54 C28.67 -75.45, 28.15 -75.35, 27.97 -75.32 M29 -75.6 C28.68 -75.56, 28.44 -75.49, 28.04 -75.42 M27.96 -75.33 C27.78 -75.35, 27.58 -75.47, 27.27 -75.47 M28.03 -75.42 C27.78 -75.4, 27.54 -75.43, 27.32 -75.49 M27.31 -75.49 C27.07 -75.56, 26.71 -75.58, 26.41 -75.65 M27.29 -75.44 C27 -75.59, 26.68 -75.59, 26.45 -75.73 M26.48 -75.77 C26.06 -75.71, 25.92 -75.96, 25.41 -76.16 M26.4 -75.72 C25.98 -75.79, 25.6 -76.02, 25.36 -76.13 M25.45 -75.99 C25.13 -76.27, 24.9 -76.26, 24.07 -76.71 M25.46 -76.11 C25.09 -76.19, 24.69 -76.34, 24.2 -76.56 M23.85 -76.59 C22.72 -77.34, 20.86 -77.54, 19.46 -77.96 M23.97 -76.58 C22.24 -77.3, 20.55 -77.86, 19.87 -78.48 M19.46 -77.99 C18.31 -78.63, 16.86 -79.51, 15.42 -79.39 M19.97 -78.51 C18.72 -78.73, 17.84 -78.7, 15.17 -79.52 M15.16 -79.85 C13.2 -80.23, 11.65 -80.16, 9.77 -80.45 M15.36 -79.39 C13.19 -79.68, 11.36 -79.99, 10.39 -80.44 M10.26 -80.41 C8.37 -80.52, 6.64 -80.14, 4.79 -80.11 M9.98 -80.25 C8.51 -80.56, 7.38 -80.17, 4.88 -80.32 M4.61 -80.84 C3.98 -80.6, 2.19 -80.72, 0.58 -80.65 M5.15 -80.67 C4.2 -80.3, 3.41 -80.24, 0.81 -80.46 M0.72 -80.32 C-0.24 -79.89, -0.88 -79.76, -2.95 -79.48 M0.92 -80.44 C0.22 -80.2, -0.58 -80.12, -2.76 -79.89 M-2.48 -79.6 C-3.58 -79.27, -4.38 -79.47, -5.87 -79.16 M-2.55 -79.81 C-3.84 -79.58, -5 -79.28, -5.71 -78.81 M-5.55 -78.85 C-6.52 -78.35, -7.28 -78.32, -8.19 -77.55 M-5.77 -78.97 C-6.27 -78.78, -6.99 -78.45, -8.18 -77.74 M-8.11 -77.58 C-8.61 -77.13, -9.2 -76.95, -10.33 -76.04 M-8.24 -77.79 C-8.88 -77.24, -9.24 -76.88, -10.29 -76.08 M-10.22 -76.18 C-10.48 -75.43, -10.94 -74.84, -11.61 -73.9 M-10.22 -76.01 C-10.58 -75.67, -11.09 -75.04, -11.79 -74.03 M-11.74 -73.93 C-12.09 -73.44, -12.23 -72.6, -12.89 -71.58 M-11.87 -74.16 C-12.25 -73.09, -12.52 -72.22, -12.79 -71.59 M-12.45 -71.83 C-12.96 -70.61, -12.87 -69.83, -13.05 -68.8 M-12.75 -71.57 C-12.75 -70.83, -12.83 -69.83, -13.04 -68.68 M-13.07 -68.71 C-13.08 -68.46, -12.69 -67.75, -12.62 -66.63 M-13.1 -68.73 C-13.02 -68.37, -12.92 -67.8, -12.9 -66.7 M-12.71 -66.87 C-12.56 -66.05, -12.31 -65.18, -12.07 -64.84 M-12.74 -66.84 C-12.52 -66.07, -12.47 -65.46, -12.23 -64.87 M-12.33 -64.74 C-11.92 -64.41, -11.42 -63.67, -11.33 -63.04 M-12.21 -64.95 C-12 -64.44, -11.81 -64.06, -11.36 -63.16 M-11.42 -63.16 C-10.96 -62.57, -10.48 -62.15, -10.04 -61.85 M-11.22 -63.25 C-11.03 -62.85, -10.65 -62.48, -9.93 -61.64 M-9.81 -61.67 C-9.22 -61.17, -8.61 -60.85, -8.16 -60.14 M-10.02 -61.6 C-9.39 -61.21, -8.69 -60.63, -8.23 -60.21 M-7.99 -60.16 C-7.51 -59.57, -6.36 -59.59, -5.71 -59.07 M-8.16 -60.34 C-7.45 -59.96, -6.86 -59.43, -5.61 -59.01 M-5.68 -58.92 C-5.05 -58.44, -3.67 -57.81, -2.5 -57.49 M-5.79 -59.02 C-4.6 -58.28, -3.55 -57.81, -2.7 -57.37 M-2.52 -57.13 C-0.91 -56.84, 0.32 -56.35, 0.87 -55.89 M-2.7 -57.53 C-1.88 -57.31, -1.02 -56.98, 1.14 -56.34 M1.83 -57.53 C7.25 -53.29, 12.95 -52.03, 14.11 -51.82 M1.65 -56.84 C5.56 -54.89, 9.42 -53.75, 15.38 -51.62 M15.2 -51.7 C15.2 -51.7, 15.2 -51.7, 15.2 -51.7 M15.2 -51.7 C15.2 -51.7, 15.2 -51.7, 15.2 -51.7 M14.94 -51.61 C15.74 -51.62, 16.46 -51.5, 17.69 -51.02 M15.28 -51.73 C15.9 -51.58, 16.42 -51.13, 17.82 -50.72 M17.6 -50.84 C18.66 -50.75, 18.88 -50.49, 20.32 -49.89 M17.7 -50.86 C18.58 -50.65, 19.22 -50.17, 20.1 -49.74 M20.42 -49.96 C20.72 -49.59, 21.55 -49.15, 22.38 -48.89 M20.28 -49.8 C21 -49.55, 21.72 -49.04, 22.47 -48.82 M22.47 -48.64 C23.19 -48.51, 23.68 -48.17, 24.4 -47.46 M22.52 -48.71 C22.99 -48.5, 23.69 -48.1, 24.44 -47.67 M24.7 -47.68 C24.9 -47.23, 25.3 -47.21, 26.14 -46.29 M24.56 -47.68 C25.04 -47.16, 25.52 -46.87, 26.39 -46.28 M26.53 -46.37 C26.73 -45.75, 27.21 -45.68, 28.05 -45.12 M26.35 -46.3 C26.98 -45.94, 27.57 -45.29, 27.96 -45.08 M28.17 -45.11 C28.45 -44.57, 28.7 -43.95, 29.49 -43.59 M27.95 -45.02 C28.59 -44.53, 29.1 -43.92, 29.53 -43.64 M29.31 -43.74 C29.69 -42.96, 30.35 -42.88, 30.86 -42.14 M29.46 -43.58 C29.77 -43.14, 30.25 -42.62, 30.65 -42.2 M30.72 -42.37 C31.58 -40.79, 31.76 -40.19, 32.99 -39.1 M30.74 -42.14 C31.53 -41.24, 32.22 -40.09, 32.73 -38.73 M32.76 -38.82 C33.18 -38, 33.92 -36.93, 33.94 -35.47 M32.83 -39.02 C33.2 -38.06, 33.34 -37.53, 34 -35.42 M34.11 -35.35 C34.69 -34.13, 35.06 -32.94, 34.69 -32.03 M34.11 -35.49 C34.55 -34.84, 34.52 -34.22, 35.09 -31.87 M35.36 -31.61 C35.19 -30.8, 35.37 -30.5, 35.54 -27.93 M35.12 -31.76 C35 -30.6, 35.1 -29.26, 35.22 -28.09 M35.28 -28.15 C35.57 -26.9, 34.92 -26.15, 34.91 -24.95 M35.27 -28.04 C35.19 -26.88, 35.08 -25.64, 35.09 -24.99 M35.35 -25.22 C34.89 -24.11, 34.82 -22.77, 34.34 -21.9 M35.25 -24.98 C34.98 -24.04, 34.95 -23.43, 34.65 -21.94 M34.63 -22.02 C34.54 -21.21, 34.1 -20.62, 33.85 -19.03 M34.72 -21.96 C34.3 -21.16, 34.14 -20.27, 33.72 -19.22 M33.67 -19.12 C33.35 -18.45, 32.81 -17.36, 32.49 -16.43 M33.71 -19.21 C33.32 -18.25, 33.01 -17.01, 32.74 -16.61 M32.64 -16.49 C32.56 -15.75, 31.92 -15.3, 31.09 -14.28 M32.78 -16.4 C32.29 -15.9, 32.13 -15.44, 31.17 -14.01 M31.32 -13.8 C30.57 -12.96, 29.91 -12.3, 29.56 -11.49 M31.16 -14.07 C30.81 -13.38, 30.23 -12.57, 29.56 -11.74 M29.31 -11.84 C29.33 -11.05, 28.78 -10.77, 27.74 -9.36 M29.64 -11.7 C28.88 -10.88, 28.15 -10.19, 27.68 -9.67 M27.41 -9.36 C27.31 -8.8, 26.7 -8.54, 25.5 -7.85 M27.64 -9.69 C26.92 -9.06, 26.38 -8.74, 25.42 -7.57 M25.47 -7.97 C24.6 -7.26, 23.9 -6.75, 22.74 -5.73 M25.44 -7.66 C24.56 -6.93, 23.61 -6.43, 22.92 -5.83 M22.94 -5.89 C22.02 -5.75, 21.23 -4.78, 20.6 -4.63 M22.96 -5.82 C22.2 -5.49, 21.51 -5.08, 20.16 -4.3 M20.6 -4.33 C19.43 -4.11, 18.62 -3.62, 17.11 -3.1 M20.46 -4.32 C19.54 -3.97, 18.52 -3.67, 17.38 -3.18 M17.52 -3.42 C16.3 -2.65, 15.81 -2.81, 13.98 -1.78 M17.45 -3.32 C16.65 -3.1, 16.17 -2.78, 14.35 -1.94 M14.12 -1.8 C13.45 -1.9, 12.47 -1.56, 10.95 -1.43 M14.12 -2.12 C13.58 -2, 12.64 -1.62, 10.71 -1.16 M10.91 -0.91 C9.29 -0.75, 8.11 -0.34, 7.24 -0.51 M10.9 -1.09 C9.8 -0.88, 8.74 -0.82, 7.27 -0.54 M7.41 -0.82 C5.84 -0.61, 4.29 0.02, 3.78 -0.06 M7.53 -0.61 C6.14 -0.32, 5.34 -0.43, 3.94 -0.2 M3.64 -0.16 C2.41 0, 0.81 0.18, -0.01 -0.03 M3.77 -0.04 C2.98 -0.02, 2.2 0.01, 0.09 0.17 M0 0 C0 0, 0 0, 0 0 M0 0 C0 0, 0 0, 0 0 M0 0 C0 0, 0 0, 0 0 M0 0 C0 0, 0 0, 0 0" stroke="#000000" stroke-width="1" fill="none"></path></g></g><g stroke-linecap="round"><g transform="translate(281.87148365033727 152.74601052054703) rotate(0 -134.7385818446764 6.519560554968962)" fill-rule="evenodd"><path d="M-1.53 1.99 L-1.6 0.79 L-5.4 3.73 L-14.2 9.48 L-21.76 14.18 L-27.99 16.47 L-34.56 19.01 L-40.52 22.21 L-49.94 25.76 L-59.51 26.33 L-66.21 31.16 L-74.89 31.67 L-81.9 33.12 L-90.74 36.23 L-99.69 34.76 L-105.38 37.21 L-114.47 36.36 L-123.26 38.99 L-132.42 35.31 L-141.33 36.77 L-152.96 33.73 L-162.43 33 L-172.62 31.48 L-185.78 29.74 L-195.2 25.7 L-204.79 20.22 L-212.71 18.73 L-223.02 12.87 L-229.31 10.09 L-238.27 3.29 L-245.37 0.47 L-254.48 -5.7 L-261.47 -12.22 L-269.82 -20.13 L-272.02 -19.19 L-271.82 -23.08 L-273.47 -23.17 L-271.34 -24.4 L-269.55 -23.62 L-269.63 -23.97 L-270.1 -25.31 L-266.14 -22.5 L-258.52 -20.47 L-249.03 -15.59 L-240.43 -10.23 L-234.64 -7.32 L-224.35 -4.71 L-216.61 -1.54 L-204.52 3.36 L-198.77 5.1 L-187.36 6.39 L-179.14 11.13 L-167.48 10.03 L-157.9 14.26 L-147.68 13.07 L-137.46 15.4 L-126.93 15.52 L-118.39 14.64 L-111.69 14.65 L-105.96 15.62 L-90.1 12.75 L-76.15 11.39 L-62.06 7.88 L-46.15 7.28 L-34.75 0.92 L-17.83 -3.86 L-11.57 -3.35 L-4.91 -7.73 L-2.27 -9.43 L-2.42 -7.38 L-2.96 -10 L-0.83 -7.91 L2.98 -4.78 L2.91 -3.31 L1.09 -3.65 L0.23 -2.56 L3.28 -1.26 L1.94 -2.31 L1.14 0.8 L0.57 0.57" stroke="none" stroke-width="0" fill="#fab005" fill-rule="evenodd"></path><path d="M0 0 C0 0, 0 0, 0 0 M0 0 C0 0, 0 0, 0 0 M-0.62 0.24 C-2.56 1.78, -3.89 3.13, -6.42 4.99 M0.06 -0.02 C-1.76 0.65, -2.78 1.66, -6.7 4.62 M-7.07 4.6 C-7.93 5.59, -9.76 5.92, -13.66 7.85 M-6.7 4.55 C-8.35 5.99, -10.93 7.3, -12.75 8.33 M-12.94 8.81 C-14.76 10.04, -17.86 10.84, -19.26 11.97 M-12.79 8.47 C-15.57 10.13, -17.77 11.11, -19.82 12.31 M-19.9 11.67 C-20.84 13.74, -22.38 14.24, -27 16.46 M-19.67 12.31 C-21.96 13.45, -23.79 14.43, -27.15 16.02 M-27.51 16.16 C-29.69 16.36, -31.31 18.73, -34.26 19.35 M-26.83 16.45 C-28.9 17.01, -31.7 18.24, -34.49 19.26 M-34.78 18.96 C-36.97 19.92, -38.99 21.41, -41.5 21.68 M-34.48 19.46 C-36.57 20.48, -39.42 21.25, -42.51 22.26 M-41.86 22.66 C-44.83 22.58, -46.82 24.1, -49.22 25.2 M-42.33 22.11 C-45 23.57, -47.31 24.54, -49.93 25.6 M-50.18 25.21 C-51.97 25.89, -54.54 26.4, -57.97 28.34 M-49.99 24.93 C-52.26 26.09, -53.91 26.76, -58.01 27.7 M-57.47 27.36 C-59.47 27.85, -62.01 28.41, -65.08 30.26 M-58.14 27.35 C-61.04 28.86, -63.97 29.23, -65.99 29.8 M-66.13 30.26 C-68.13 30.59, -70.58 30.81, -74.66 31.84 M-65.68 30.14 C-68.16 30.21, -70.86 30.81, -73.94 31.76 M-73.32 31.33 C-76.41 32.06, -77.24 32.18, -82.73 33.17 M-74.17 32.09 C-76.37 32.63, -79.44 33.25, -82.35 33.7 M-82.59 33.46 C-84.56 34.6, -85.9 33.56, -90.54 34.49 M-81.7 33.26 C-84.84 34.08, -87.71 34.78, -90 35.15 M-90.74 34.28 C-92.16 35.49, -92.86 35.07, -98 35.38 M-89.77 35.01 C-91.93 35.44, -94.37 35.65, -98.51 35.87 M-97.8 35.33 C-100.77 35.56, -101.71 36.41, -105.37 37.26 M-98.02 35.8 C-100.55 35.94, -103.29 36.35, -106.13 36.58 M-106.89 36.28 C-108.35 36.33, -112.02 37.3, -113.3 37.78 M-106.16 36.92 C-108.52 36.33, -111.42 36.74, -113.84 37.36 M-114.76 37.48 C-116.54 37.71, -118.1 36.84, -121.25 36.61 M-113.65 36.83 C-117.18 36.9, -119.77 37.23, -121.69 36.83 M-121.27 37.85 C-124.44 37.43, -126.28 37.86, -132.23 37.74 M-121.45 37.54 C-124.43 37.46, -128.28 36.61, -132.17 36.71 M-133.35 35.96 C-135.99 35.66, -139.17 36.79, -142.11 37.18 M-133.04 36.99 C-136.41 36.76, -139.76 36.47, -143.46 35.81 M-142.14 35.48 C-147.8 35.18, -150.83 34.51, -154.32 35.89 M-143.02 36.27 C-145.89 35.31, -148.23 35.25, -153.8 34.58 M-154.54 34.73 C-155.65 34.74, -159.17 34.22, -162.81 33.61 M-153.98 34.87 C-156.93 34.4, -159.43 33.65, -163.32 33.64 M-163.07 34.34 C-168.04 31.94, -170.48 31.77, -172.93 31.86 M-164.27 33.59 C-167.52 32.69, -170.24 32.12, -174.35 31.52 M-173.15 32.05 C-176.32 29.36, -179.21 30.29, -184.69 28.8 M-173.71 31.44 C-176.63 30.22, -178.86 29.37, -183.69 28.82 M-184.4 27.99 C-186.81 26.94, -190.61 26.7, -192.99 26.55 M-184.08 28.71 C-187.11 27.33, -190.62 26.71, -193.44 26.07 M-192.9 25.64 C-197.25 25.22, -198.66 22.64, -202.04 22.04 M-193.44 25.85 C-197.58 24.65, -200.71 23.31, -203.16 21.65 M-203.42 22.8 C-206.01 21.55, -210.11 20.53, -213.04 18.23 M-202.7 22.48 C-206.34 20.26, -210.26 18.72, -212.52 17.89 M-213.23 18.74 C-215.6 16.89, -219.08 14.28, -222.35 13.08 M-212.11 18.32 C-215.35 16.36, -218.97 15.28, -221.67 13.93 M-222.35 13.32 C-223.82 12.59, -225.69 12.53, -229.61 8.63 M-221.63 14.23 C-223.95 12.9, -226.89 10.71, -229.78 9.71 M-229.55 9.91 C-233.61 7.61, -235.79 5.37, -239.78 4.08 M-230.5 9.11 C-231.97 8.44, -234.59 6.91, -238.47 3.99 M-238.34 4.59 C-242.28 2.32, -244.87 0.98, -247.16 -1.17 M-238.66 3.9 C-241.34 3.16, -243.29 1.09, -247.25 -0.75 M-247.17 -0.88 C-249.07 -3.44, -253.57 -5.25, -255.51 -6.42 M-247.2 -1.48 C-248.63 -2.83, -250.14 -3.86, -255.07 -7.27 M-255.39 -5.96 C-257.08 -7.14, -259.31 -9.12, -262.06 -12.66 M-254.88 -7.09 C-257.75 -9.06, -259.62 -10.13, -262.73 -12.69 M-263.34 -12.24 C-264.64 -14.49, -267.14 -16.88, -269.6 -19.44 M-262.56 -13.1 C-265.49 -15.1, -268.42 -17.94, -270.33 -19.42 M-270.49 -19.63 C-270.66 -19.96, -270.96 -20.26, -271.51 -20.53 M-270.53 -19.53 C-270.76 -19.84, -271.06 -20.16, -271.41 -20.58 M-271.34 -20.47 C-271.42 -21.02, -271.75 -21.34, -271.84 -21.7 M-271.4 -20.59 C-271.45 -20.81, -271.56 -21.08, -271.77 -21.68 M-271.87 -21.6 C-271.83 -21.95, -271.8 -22.25, -271.72 -22.78 M-271.81 -21.68 C-271.83 -21.91, -271.79 -22.13, -271.73 -22.68 M-271.82 -22.63 C-271.67 -23.01, -271.56 -23.25, -271.36 -23.63 M-271.72 -22.7 C-271.66 -23.05, -271.46 -23.28, -271.37 -23.6 M-271.29 -23.52 C-271.19 -23.64, -270.92 -23.95, -270.57 -24.25 M-271.32 -23.54 C-271.12 -23.79, -270.79 -24.07, -270.61 -24.23 M-270.69 -24.23 C-270.23 -24.27, -269.77 -24.45, -269.54 -24.44 M-270.61 -24.24 C-270.28 -24.35, -269.99 -24.38, -269.61 -24.5 M-269.58 -24.59 C-269.12 -24.46, -268.95 -24.54, -268.51 -24.52 M-269.64 -24.58 C-269.3 -24.57, -269.1 -24.47, -268.39 -24.51 M-268.53 -24.6 C-268.12 -24.37, -267.69 -24.07, -267 -23.76 M-268.41 -24.42 C-268.07 -24.28, -267.82 -24.26, -267.08 -23.86 M-267.11 -24.81 C-265.06 -22.48, -261.93 -21.2, -259.87 -19.13 M-267.21 -24.18 C-264.7 -22.81, -263.36 -21.67, -258.87 -19.8 M-258.47 -18.75 C-257.58 -17.7, -254.93 -17.42, -250 -14.83 M-258.75 -19.09 C-256.18 -18.15, -253.88 -17.24, -250.45 -15.32 M-250.94 -14.4 C-247.59 -12.91, -244.28 -12.63, -242.47 -12.06 M-250.4 -14.82 C-248.1 -13.93, -245.78 -13.13, -242.41 -11.36 M-241.9 -10.56 C-239.81 -10.56, -237.1 -9.39, -233.92 -6.97 M-241.98 -10.75 C-239.5 -10.15, -236.47 -8.57, -233.51 -6.95 M-234.15 -8.25 C-231.29 -6.29, -229.01 -6.06, -225.03 -4 M-233.49 -7.62 C-230.22 -6.01, -226.89 -4.24, -224.8 -3.72 M-224.69 -3.98 C-222.22 -2.15, -219.94 -2.9, -215.02 0.25 M-224.62 -3.79 C-222.65 -3.17, -220.41 -2.41, -215.32 -0.25 M-216.2 -0.19 C-213.41 0.45, -209.51 1, -207.39 2.82 M-215.19 -1 C-213.99 0.26, -211.79 0.98, -206.37 2.19 M-205.55 1.43 C-203.48 2.36, -202.49 2.98, -196.59 4.96 M-206.6 2.34 C-203.84 3.29, -200.98 4, -197.19 5.38 M-197.44 4.94 C-193.85 4.89, -191.69 6.99, -187.3 7.43 M-197.4 5.29 C-194.87 6.16, -192.11 6.13, -187.27 7.36 M-186.95 7.55 C-183.57 8.92, -180.7 9.35, -177.11 9.56 M-187.65 7.28 C-185.01 8.14, -181.16 9.14, -177.85 9.18 M-177.14 10.39 C-174.35 10.42, -170.4 10.06, -168.25 12.21 M-178.41 10.05 C-176.25 9.81, -173.23 9.94, -168.44 10.96 M-167.4 11.74 C-165.75 11.67, -163.08 11.36, -157.84 12.96 M-168.26 11.71 C-165.66 11.59, -163.1 12.11, -158.25 12.87 M-157.42 11.97 C-156.04 13.13, -152.15 13.05, -147.79 15.03 M-158.73 12.6 C-154.56 13.73, -151.19 13.34, -148.65 14.11 M-149.27 14.69 C-145.11 14.53, -141.93 14.77, -138.99 14.45 M-148.76 14.35 C-144.36 14.1, -140.48 14.81, -138.67 14.8 M-139.42 15.81 C-135.65 15.33, -133.84 15.07, -129.32 15.1 M-138.19 14.8 C-135.86 15.52, -133 14.78, -128.44 15.03 M-128.84 14.51 C-126.03 16.21, -122.2 15.49, -117.67 15.73 M-128.24 14.97 C-124.91 15.62, -121.48 15.46, -118.69 15.81 M-118.83 16.2 C-116.3 14.98, -114.23 15.26, -111.41 15.27 M-118.06 15.92 C-116.01 15.36, -113.95 15.71, -111.43 15.21 M-111.52 15.04 C-110.26 15.47, -108.7 15.51, -104.43 15.24 M-111.76 15.49 C-108.82 15.25, -106.53 15.55, -104.6 15.52 M-103.54 15.32 C-100.1 13.77, -94.14 13.98, -89.98 12.78 M-105.11 15.91 C-102.17 14.95, -99.23 14.55, -90.63 14.55 M-90.31 14.6 C-84.72 13.5, -80.83 13.62, -74.76 11.95 M-90.18 14.85 C-86.32 13.84, -81.61 12.43, -75.67 13.08 M-76.62 12.22 C-72.87 12.73, -67.69 10.39, -60.44 8.81 M-75.76 13.08 C-71.14 11.51, -65.54 10.68, -62.28 10.05 M-61.4 10.47 C-55.42 7.83, -49.92 8.36, -48 6.95 M-62.27 9.9 C-58.24 8.83, -54.24 8.78, -47.72 6.62 M-47.93 6.94 C-44.7 4.77, -40.97 4, -31.68 1.7 M-46.62 6.02 C-41.57 4.38, -37.6 3.7, -33.36 2.04 M-32.1 1.86 C-26.41 0.19, -23 -1.55, -19.91 -0.67 M-33.29 2.11 C-30.13 1.51, -26.36 -0.33, -18.13 -1.98 M-18.04 -2.64 C-16.13 -2.63, -14.62 -3.67, -12.18 -5.02 M-18.74 -2.47 C-16.16 -3.37, -14.22 -4.1, -11.92 -4.6 M-12.18 -4.22 C-9.89 -5.79, -7.02 -6.85, -4.42 -7.84 M-12.03 -4.44 C-9.05 -5.91, -5.93 -7.22, -4.45 -7.32 M-4.86 -7.62 C-4.56 -7.68, -4.29 -7.8, -3.8 -7.99 M-4.75 -7.55 C-4.55 -7.73, -4.2 -7.78, -3.73 -7.92 M-3.87 -7.9 C-3.63 -7.94, -3.39 -8.12, -2.71 -8.1 M-3.74 -7.92 C-3.38 -8.07, -3.05 -8.07, -2.84 -8.15 M-2.88 -8.01 C-2.31 -7.99, -1.96 -7.97, -1.09 -8.2 M-2.82 -8.13 C-2.18 -8.05, -1.65 -8.1, -1 -8.03 M-0.94 -8.11 C-0.65 -7.87, -0.07 -7.52, 0.72 -7.31 M-0.9 -8.05 C-0.43 -7.85, 0 -7.65, 0.59 -7.37 M0.43 -7.39 C0.75 -7.09, 1.38 -6.72, 1.61 -6.25 M0.58 -7.37 C1 -6.94, 1.32 -6.63, 1.69 -6.17 M1.55 -6.16 C2.03 -5.68, 2.1 -5.34, 2.39 -4.87 M1.74 -6.25 C1.83 -5.83, 2.07 -5.27, 2.38 -4.81 M2.16 -4.74 C2.26 -4.26, 2.21 -4.13, 2.27 -3.18 M2.29 -4.9 C2.32 -4.4, 2.28 -4.09, 2.36 -3.15 M2.35 -3.18 C2.23 -2.93, 2.13 -2.65, 2.08 -2.37 M2.3 -3.24 C2.25 -2.99, 2.17 -2.7, 2.06 -2.44 M1.97 -2.46 C1.81 -2.2, 1.75 -1.93, 1.55 -1.62 M2.07 -2.45 C1.9 -2.19, 1.84 -1.98, 1.61 -1.59 M1.51 -1.58 C1.29 -1.42, 1.13 -1.14, 0.97 -0.78 M1.61 -1.59 C1.4 -1.36, 1.28 -1.22, 0.91 -0.8 M1.01 -0.88 C0.56 -0.5, 0.35 -0.31, -0.07 0.07 M0.86 -0.8 C0.57 -0.46, 0.21 -0.17, 0.02 0.03 M0 0 C0 0, 0 0, 0 0 M0 0 C0 0, 0 0, 0 0 M0 0 C0 0, 0 0, 0 0 M0 0 C0 0, 0 0, 0 0" stroke="#000000" stroke-width="1" fill="none"></path></g></g><g stroke-linecap="round"><g transform="translate(295.61458233968733 137.1460196758205) rotate(0 -12.986454282708934 12.79710453653496)" fill-rule="evenodd"><path d="M1.88 -1.3 L-1.27 -1.88 L-2.13 -1.12 L-2.88 -1.97 L-5.02 -3.41 L-4.43 -1.73 L-6.99 -4.87 L-12.25 -2.85 L-15.86 -2.07 L-20.81 -3.58 L-28.97 -1.89 L-34.33 -3.05 L-36.49 -3.32 L-39.71 -2.61 L-39.7 0.01 L-40.45 -3.36 L-39.38 -0.02 L-39.8 -3.03 L-42.54 -1.66 L-41.55 -3.72 L-39.57 -5.94 L-39.69 -4.35 L-34.63 -6.2 L-33.66 -11.45 L-26.85 -12.36 L-23.19 -13.99 L-18.16 -12.58 L-13.37 -13.89 L-12.2 -15.65 L-7.44 -13.87 L-4.84 -13.23 L1.16 -13.47 L3.89 -15.75 L8.79 -13.04 L9.77 -12.48 L9.63 -13.75 L12.38 -11.47 L15.68 -9.57 L15.37 -11.31 L13.71 -6.09 L15.48 -4.02 L16.57 -2 L16.36 -2.12 L14.1 1.98 L13.26 6.75 L13.95 12.32 L13.24 16.16 L9.57 18.67 L7.15 20.85 L4.26 25.89 L5.69 28.78 L3.08 33.98 L-0.66 37.04 L-3.05 38.19 L-7.13 42.1 L-8.15 41.28 L-6.47 39.91 L-9.32 41.34 L-10.47 41.75 L-9.81 39.79 L-8.99 38.15 L-7.06 37.26 L-7.91 36.04 L-8.69 31.88 L-5.46 29.45 L-4.09 22.52 L-1.21 16.68 L-0.54 13.01 L-0.92 7.96 L1.71 7.31 L0.65 3.89 L-0.47 4.51 L0.75 -0.46 L1.79 0.55 L0.59 -1.27" stroke="none" stroke-width="0" fill="#fab005" fill-rule="evenodd"></path><path d="M0 0 C0 0, 0 0, 0 0 M0 0 C0 0, 0 0, 0 0 M-0.06 0.03 C-0.28 -0.37, -0.8 -0.62, -1.12 -0.89 M-0.07 -0.07 C-0.39 -0.41, -0.84 -0.68, -1.04 -0.96 M-0.98 -0.9 C-1.41 -1.26, -1.97 -1.5, -2.38 -1.72 M-0.97 -0.89 C-1.6 -1.18, -2.05 -1.54, -2.41 -1.66 M-2.33 -1.58 C-2.92 -1.79, -2.99 -2.01, -4.1 -2.28 M-2.45 -1.61 C-2.85 -1.85, -3.29 -1.99, -4.29 -2.3 M-4.05 -2.07 C-4.52 -2.25, -5.06 -2.34, -6.33 -2.78 M-4.2 -2.25 C-4.92 -2.42, -5.74 -2.57, -6.29 -2.72 M-6.4 -2.84 C-6.74 -2.49, -7.2 -2.8, -8.68 -3.12 M-6.19 -2.66 C-7.1 -2.64, -7.67 -2.85, -8.61 -3.07 M-8.62 -3.12 C-9.48 -3.04, -10.41 -3.34, -11.16 -2.92 M-8.52 -2.94 C-9.62 -3.06, -10.69 -3.14, -11.17 -3.2 M-11.3 -3.66 C-12.79 -3.24, -14.42 -3.15, -16.6 -3.36 M-11.34 -3 C-12.82 -3.04, -14.59 -2.94, -16.72 -2.95 M-16.4 -3.31 C-18.49 -3.44, -21.17 -2.52, -22.97 -2.6 M-17.03 -3.01 C-18.66 -2.94, -20.75 -3.03, -22.79 -2.96 M-22.32 -3.16 C-23.75 -3.13, -24.63 -2.46, -28.17 -2.32 M-22.92 -2.61 C-24.33 -2.86, -25.66 -2.79, -28.56 -2.48 M-28.49 -2.36 C-30.32 -2.38, -32.7 -2, -33.84 -1.45 M-28.42 -2.57 C-29.63 -2.43, -30.84 -2.19, -34.06 -1.69 M-34.08 -1.88 C-34.29 -1.92, -35.32 -1.81, -36.3 -1.43 M-33.92 -1.76 C-34.8 -1.63, -35.54 -1.58, -36.44 -1.51 M-36.56 -1.35 C-37.19 -1.61, -38 -1.46, -38.43 -1.47 M-36.4 -1.53 C-37.21 -1.38, -37.88 -1.29, -38.6 -1.31 M-38.55 -1.24 C-38.81 -1.33, -39.25 -1.36, -39.62 -1.19 M-38.47 -1.25 C-38.84 -1.25, -39.2 -1.29, -39.6 -1.29 M-39.64 -1.34 C-39.77 -1.35, -39.96 -1.37, -40.35 -1.62 M-39.54 -1.3 C-39.71 -1.34, -39.91 -1.4, -40.37 -1.53 M-40.35 -1.57 C-40.58 -1.61, -40.57 -1.69, -40.89 -2 M-40.35 -1.57 C-40.49 -1.65, -40.62 -1.72, -40.94 -2.01 M-40.97 -1.94 C-40.99 -2.18, -41.01 -2.37, -41.12 -2.56 M-40.93 -2.01 C-40.97 -2.16, -41.07 -2.38, -41.21 -2.62 M-41.2 -2.59 C-41.16 -2.77, -41.16 -2.99, -41.18 -3.33 M-41.16 -2.59 C-41.21 -2.89, -41.15 -3.11, -41.18 -3.34 M-41.21 -3.43 C-41.16 -3.51, -40.93 -3.64, -40.8 -4.13 M-41.18 -3.34 C-41.06 -3.54, -41.03 -3.78, -40.81 -4.12 M-40.91 -4.21 C-40.64 -4.45, -40.59 -4.53, -40.29 -5.04 M-40.88 -4.21 C-40.74 -4.35, -40.62 -4.53, -40.25 -4.94 M-40.16 -4.96 C-40.07 -5.13, -39.72 -5.28, -39.32 -5.71 M-40.29 -5 C-40 -5.23, -39.7 -5.35, -39.29 -5.8 M-39.7 -6.09 C-38.32 -6.56, -36.79 -6.87, -35.57 -8.36 M-39.52 -5.78 C-38.19 -6.44, -37.26 -7.05, -35.6 -8.19 M-35.33 -8.46 C-34.4 -8.16, -34.36 -8.84, -31.91 -9.58 M-35.67 -8.22 C-34.13 -8.99, -32.82 -9.36, -31.6 -9.94 M-31.48 -10.23 C-30.08 -10.4, -28.57 -10.67, -27.59 -11.56 M-31.8 -10.09 C-30.84 -10.36, -29.52 -10.62, -27.7 -11.35 M-28.05 -11.26 C-25.99 -12.34, -24.43 -12.43, -23.17 -12.34 M-27.85 -11.39 C-26.15 -11.84, -24.82 -12.64, -23.47 -12.8 M-23.49 -12.45 C-22.74 -12.62, -21.51 -13.32, -18.95 -13.76 M-23.41 -12.95 C-22.01 -13.34, -20.54 -13.64, -19.12 -13.9 M-19.21 -13.57 C-17.82 -14.18, -17.06 -14.52, -14.93 -14.15 M-19.27 -13.88 C-18.14 -13.93, -16.76 -14.14, -15.26 -14.37 M-15.25 -14.48 C-13.71 -14.16, -11.97 -14.88, -10.87 -14.72 M-14.98 -14.15 C-13.95 -14.55, -12.81 -14.41, -10.92 -14.91 M-11.23 -14.77 C-9.78 -15.08, -8.97 -14.94, -7.16 -14.82 M-10.81 -14.58 C-9.99 -14.71, -8.79 -14.92, -6.84 -15.07 M-7.16 -14.9 C-6.12 -14.67, -5.15 -14.91, -3.2 -14.9 M-7.04 -14.73 C-6.08 -14.92, -5.34 -14.71, -2.99 -14.98 M-2.76 -14.95 C-2.32 -14.8, -1.14 -14.56, 0.18 -14.42 M-3.01 -15.02 C-2.01 -14.88, -1.18 -14.85, 0.33 -14.51 M0.42 -14.31 C1.31 -14.46, 3.05 -14.28, 3.77 -14.52 M0.38 -14.78 C1.57 -14.42, 2.76 -14.26, 3.83 -14.41 M4 -14.11 C4.9 -14.1, 6.05 -13.92, 6.97 -13.93 M3.87 -14.19 C4.84 -14.17, 5.97 -13.86, 6.84 -13.8 M7.03 -13.95 C8.03 -13.58, 8.57 -13.11, 9.37 -13.06 M6.82 -13.74 C7.5 -13.55, 8.21 -13.36, 9.36 -13.04 M9.56 -13.29 C9.81 -13.07, 10.57 -12.72, 11.27 -12.48 M9.42 -13.08 C9.91 -12.95, 10.47 -12.75, 11.48 -12.5 M11.35 -12.28 C11.82 -12.02, 12.38 -12.1, 12.85 -11.73 M11.37 -12.43 C12.04 -12.14, 12.72 -11.74, 12.98 -11.68 M12.99 -11.71 C13.33 -11.46, 13.7 -11.12, 14.07 -10.81 M12.95 -11.66 C13.44 -11.24, 13.79 -11, 13.96 -10.78 M13.99 -10.7 C14.25 -10.65, 14.32 -10.35, 14.65 -9.68 M13.96 -10.77 C14.27 -10.44, 14.44 -10.01, 14.64 -9.66 M14.58 -9.55 C14.77 -9.24, 14.88 -8.7, 14.95 -7.9 M14.66 -9.73 C14.76 -9.04, 14.86 -8.48, 14.99 -7.89 M15.16 -7.86 C14.82 -7.21, 14.96 -6.42, 15 -5.56 M15.02 -8.06 C14.92 -7.2, 15.15 -6.65, 15.1 -5.74 M15.02 -5.87 C15.11 -4.69, 15.26 -3.69, 14.89 -3.12 M15.24 -5.67 C15.15 -5.08, 15.15 -4.11, 15.13 -3.14 M14.88 -3.17 C14.96 -2.48, 14.68 -1.52, 14.69 0 M15.19 -3.13 C14.85 -1.95, 14.93 -0.9, 14.71 -0.03 M14.67 0.14 C14.81 1.04, 14.78 2.25, 14.35 3.16 M14.95 -0.17 C14.76 0.59, 14.69 1.57, 14.48 3.07 M14.29 3.41 C14.08 3.97, 13.83 4.88, 13.6 6.99 M14.37 3.17 C14.09 4.19, 13.83 5.4, 13.59 6.62 M13.61 6.5 C13.42 7.73, 12.88 9.22, 12.71 10.54 M13.62 6.62 C13.46 7.94, 13.07 9.17, 12.65 10.6 M12.48 10.43 C11.96 11.13, 11.82 12.47, 11.76 14.44 M12.64 10.43 C12.3 11.65, 11.96 12.56, 11.34 14.18 M11.53 14.7 C10.96 15.53, 10.58 17.67, 9.77 18.39 M11.33 14.26 C10.74 15.79, 10.43 17.53, 9.98 18.17 M9.73 18.27 C9.63 19.38, 8.41 20.93, 7.91 22.25 M9.79 18.31 C9.23 19.81, 8.72 21.07, 8.15 22.23 M8.47 21.79 C7.21 23, 7.18 24.55, 6.3 25.74 M8.09 22.1 C7.6 22.9, 7.29 23.95, 6.19 26.04 M6.49 25.57 C5.56 27.33, 4.96 28.19, 3.78 29.71 M6.13 26.12 C5.72 26.68, 5.32 27.59, 4.14 29.68 M4.11 29.96 C2.9 31.02, 2.59 32.09, 1.45 33.15 M3.78 29.7 C3.17 31.21, 2.02 32.2, 1.5 33.27 M1.51 33.24 C1.14 33.56, 0.14 35.03, -1.78 36.25 M1.2 33.14 C0.42 34.32, -0.94 35.57, -1.6 36.48 M-1.36 36.42 C-2.1 37.02, -3.06 38.25, -4.77 39.15 M-1.44 36.41 C-2.7 37.66, -3.9 38.82, -4.67 39.38 M-4.63 39.38 C-4.7 39.48, -4.96 39.83, -5.51 40.21 M-4.58 39.44 C-4.88 39.52, -5.14 39.76, -5.56 40.11 M-5.63 40.11 C-5.94 40.22, -6.17 40.27, -6.45 40.42 M-5.58 40.07 C-5.85 40.22, -6.14 40.31, -6.58 40.45 M-6.51 40.53 C-6.9 40.55, -7.31 40.56, -7.44 40.67 M-6.54 40.53 C-6.71 40.48, -6.93 40.51, -7.41 40.62 M-7.43 40.66 C-7.64 40.53, -7.92 40.47, -8.08 40.44 M-7.4 40.61 C-7.65 40.54, -7.91 40.5, -8.11 40.44 M-8.12 40.38 C-8.31 40.27, -8.5 40.12, -8.61 40.05 M-8.12 40.42 C-8.31 40.34, -8.44 40.17, -8.67 40.05 M-8.67 40.02 C-8.73 39.87, -8.79 39.71, -8.9 39.36 M-8.64 40.01 C-8.73 39.9, -8.79 39.76, -8.93 39.35 M-8.97 39.32 C-8.91 39.1, -8.95 38.79, -9.06 38.62 M-8.99 39.38 C-8.99 39.12, -8.97 38.9, -8.97 38.51 M-8.91 38.52 C-8.9 38.33, -8.75 38.02, -8.69 37.47 M-9.01 38.55 C-8.91 38.18, -8.78 37.97, -8.72 37.54 M-8.79 37.65 C-8.34 36.8, -8.02 36.13, -7.79 35.64 M-8.71 37.49 C-8.43 37, -8.4 36.53, -7.83 35.53 M-7.71 35.35 C-7.47 35.14, -7.63 34.59, -7.14 33.5 M-7.9 35.49 C-7.46 34.74, -7.25 33.76, -7.06 33.21 M-7.41 32.94 C-6.93 31.86, -5.62 30.59, -4.79 27.96 M-6.76 33.01 C-6.45 31.37, -5.72 29.24, -4.9 28.21 M-4.49 27.92 C-4.63 26.35, -4.42 25.67, -3.41 22.49 M-5.31 28.22 C-4.62 26.44, -3.7 25.24, -3.04 22.67 M-2.73 22.92 C-2.84 21.24, -2.51 19.45, -1.15 17.27 M-2.79 22.39 C-2.43 20.59, -2 19.01, -1.2 17.24 M-1.57 16.99 C-0.56 14.87, 0.09 12.82, 0.67 11.28 M-1.31 16.96 C-0.66 15.58, -0.33 14.78, 0.08 11.79 M0.05 11.64 C0.23 10.72, 0.46 9.79, 0.59 9.14 M0.07 11.53 C0.42 10.71, 0.63 9.79, 0.52 8.96 M0.54 9.2 C0.74 8.26, 1.04 8, 1.18 6.56 M0.7 8.96 C0.62 8.62, 0.68 8.01, 0.89 6.78 M1.05 6.87 C1.02 6.14, 0.93 5.07, 1.18 4.76 M0.97 6.79 C0.93 5.92, 1.04 5.17, 1.06 4.56 M1.02 4.56 C1.17 4.11, 1.21 3.33, 1.05 2.71 M1.14 4.55 C1.02 3.84, 1.05 3.2, 1 2.78 M0.84 2.64 C1.06 2.3, 0.75 1.94, 0.7 1.16 M1.05 2.77 C0.86 2.14, 0.73 1.68, 0.66 1.14 M0.76 1.27 C0.46 0.78, 0.33 0.4, 0.04 0.12 M0.57 1.14 C0.44 0.93, 0.38 0.61, -0.03 -0.03 M0 0 C0 0, 0 0, 0 0 M0 0 C0 0, 0 0, 0 0 M0 0 C0 0, 0 0, 0 0 M0 0 C0 0, 0 0, 0 0" stroke="#000000" stroke-width="1" fill="none"></path></g></g><g stroke-linecap="round"><g transform="translate(53.73121585292961 89.35108526586649) rotate(0 5.012726591838174 -14.930715990619191)" fill-rule="evenodd"><path d="M-1.88 -0.86 L-0.03 -1.64 L0.74 -0.82 L4.69 1.15 L8.39 -1.62 L10.65 -2.93 L12.78 -2.97 L15.06 -2.59 L17.25 -5.6 L18.85 -9.25 L22.64 -9.66 L21.58 -10.78 L24.6 -12.41 L21.9 -13.28 L25.35 -17.45 L24.82 -16.66 L24.46 -20.65 L23.16 -23.58 L23.01 -28 L25.59 -26.09 L19.79 -28.73 L15.48 -30.34 L11.09 -30.79 L5.94 -28.66 L2.76 -31.7 L1.81 -31.07 L-0.49 -27.65 L-1.23 -30.48 L-6.62 -27.18 L-7.65 -26.26 L-7.68 -27.56 L-10.1 -24.59 L-10.92 -21.74 L-14.94 -19.86 L-15.34 -19.72 L-15.79 -13.29 L-14.21 -10.72 L-14.22 -9.67 L-12.77 -5.88 L-11.84 -3.74 L-10.13 -2.67 L-6.48 0.34 L-3.64 0.61 L0.11 -0.73 L-0.28 1.16" stroke="none" stroke-width="0" fill="#FFFFFF" fill-rule="evenodd"></path><path d="M0 0 C0 0, 0 0, 0 0 M0 0 C0 0, 0 0, 0 0 M0.19 -0.03 C0.8 0.14, 1.45 -0.03, 2.71 -0.07 M0 -0.11 C0.62 0.06, 1.42 -0.11, 2.49 -0.23 M2.5 -0.32 C3.1 -0.46, 4.2 -0.44, 5.26 -0.69 M2.41 -0.07 C3.42 -0.31, 4.19 -0.35, 4.92 -0.44 M4.85 -0.48 C6.12 -0.81, 6.88 -0.89, 7.51 -0.88 M5.07 -0.5 C5.79 -0.67, 6.33 -0.86, 7.52 -1.01 M7.8 -0.88 C8.21 -1.05, 8.65 -1.5, 10.49 -1.62 M7.69 -1.04 C8.33 -1.23, 9.02 -1.5, 10.18 -1.87 M10.35 -1.52 C11.22 -2.13, 11.88 -2.66, 12.92 -2.68 M10.16 -1.69 C11.35 -2.27, 12.39 -2.79, 13.04 -2.92 M13.09 -2.89 C13.76 -3.49, 14.19 -3.35, 15.61 -4.28 M12.91 -2.94 C13.57 -3.41, 14.5 -3.88, 15.43 -4.27 M15.52 -4.39 C16.39 -4.89, 16.99 -5.56, 17.69 -6.23 M15.43 -4.25 C15.89 -4.59, 16.44 -5, 17.77 -6.15 M17.91 -6.29 C18.25 -6.5, 18.81 -7.21, 19.86 -8.24 M17.71 -6.02 C18.11 -6.6, 18.63 -7.11, 19.66 -8.14 M19.86 -8.3 C20.24 -8.5, 20.49 -8.92, 20.81 -9.81 M19.74 -8.21 C20.01 -8.55, 20.29 -8.85, 20.96 -9.7 M20.94 -9.73 C21.07 -10.19, 21.6 -10.59, 21.71 -11.15 M20.94 -9.72 C21.24 -10.22, 21.55 -10.71, 21.82 -11.15 M22.05 -11.31 C21.9 -11.67, 22.29 -11.9, 22.66 -12.99 M21.79 -11.13 C22.06 -11.76, 22.36 -12.37, 22.69 -12.92 M22.57 -12.98 C22.72 -13.45, 23.05 -14.04, 23.31 -14.48 M22.56 -12.77 C22.8 -13.22, 22.85 -13.74, 23.25 -14.68 M23.34 -14.65 C23.33 -15.16, 23.32 -15.32, 23.62 -16.36 M23.17 -14.53 C23.24 -15.26, 23.43 -15.92, 23.6 -16.45 M23.71 -16.44 C23.9 -16.81, 23.86 -17.66, 23.72 -18.52 M23.69 -16.48 C23.68 -17.1, 23.8 -17.67, 23.86 -18.68 M23.7 -18.44 C24.18 -18.95, 24.14 -19.79, 23.98 -20.87 M24.01 -18.61 C24.03 -19.35, 24.01 -20.36, 24.09 -20.95 M24.1 -20.92 C24.34 -21.91, 24.43 -22.39, 24.16 -23.06 M24.25 -20.82 C24.18 -21.56, 24.08 -22.08, 24.19 -23.24 M24.36 -22.99 C24.33 -24.51, 24.14 -26.22, 24.31 -27.23 M24.04 -23.49 C24.31 -24.92, 24.11 -26.31, 24.06 -27.66 M24.2 -27.5 C24.2 -27.5, 24.2 -27.5, 24.2 -27.5 M24.2 -27.5 C24.2 -27.5, 24.2 -27.5, 24.2 -27.5 M24.39 -27.82 C22.84 -27.35, 21.86 -28.19, 19.26 -28.37 M24.14 -27.62 C22.7 -28.03, 21.32 -27.93, 19.49 -28.68 M19.57 -28.38 C18.88 -28.52, 17.04 -28.51, 14.75 -29.6 M19.68 -28.62 C18.66 -28.52, 17.19 -28.85, 14.98 -29.03 M14.93 -29.27 C13.57 -29.1, 11.31 -29.9, 10.27 -30.06 M14.99 -29.13 C13.14 -29.2, 11.71 -29.63, 10.06 -29.47 M10.73 -29.26 C8.07 -29.66, 6.51 -29.37, 5.87 -29.61 M10.41 -29.88 C8.68 -29.63, 7.15 -29.74, 5.75 -29.93 M5.71 -29.73 C5.15 -29.57, 4.5 -29.8, 3.1 -29.86 M5.5 -29.77 C4.84 -29.67, 4.03 -29.67, 3.22 -29.66 M3.32 -29.94 C2.7 -29.69, 1.98 -29.38, 1.03 -29.51 M3.22 -29.66 C2.34 -29.76, 1.6 -29.61, 0.88 -29.6 M0.73 -29.34 C-0.01 -29.43, -0.44 -29.35, -1.05 -29.1 M0.91 -29.65 C0.1 -29.54, -0.54 -29.45, -1.17 -29.34 M-1.11 -29.37 C-2.05 -29.27, -2.44 -28.85, -3.09 -28.72 M-1.26 -29.26 C-1.84 -29.14, -2.46 -29.01, -3.08 -28.91 M-3.14 -28.68 C-3.42 -28.82, -3.9 -28.55, -4.98 -28.33 M-3.07 -28.85 C-3.65 -28.53, -4.33 -28.49, -4.91 -28.19 M-4.9 -28.37 C-5.65 -28.05, -6.16 -27.73, -6.6 -27.66 M-4.92 -28.23 C-5.25 -28.12, -5.67 -27.96, -6.58 -27.52 M-6.55 -27.46 C-7.01 -27.3, -7.53 -27.04, -8.13 -26.69 M-6.5 -27.59 C-6.86 -27.31, -7.12 -27.24, -8 -26.75 M-8.1 -26.74 C-8.45 -26.37, -8.98 -26.04, -9.37 -25.81 M-7.92 -26.79 C-8.26 -26.6, -8.66 -26.27, -9.27 -25.81 M-9.59 -25.73 C-9.86 -24.78, -11.06 -24.26, -11.38 -23.35 M-9.31 -25.73 C-9.79 -25.13, -10.44 -24.8, -11.41 -23.62 M-11.36 -23.56 C-11.74 -22.54, -12.43 -21.75, -12.83 -20.64 M-11.5 -23.67 C-11.83 -22.78, -12.29 -22.11, -12.85 -20.9 M-12.7 -21.06 C-13.41 -20.16, -13.32 -19.61, -13.96 -17.94 M-13.01 -20.92 C-13.25 -20.12, -13.44 -19.26, -13.88 -17.75 M-14.22 -18.09 C-14.12 -16.52, -14.38 -15.2, -14.36 -14.33 M-13.87 -17.87 C-13.88 -16.81, -14.01 -15.94, -14.24 -14.43 M-14.31 -13.98 C-14 -13.32, -14.37 -12.06, -13.67 -11.11 M-14.23 -14.39 C-14.07 -13.26, -14.16 -12.49, -13.88 -11.1 M-14.04 -11.29 C-13.76 -10.09, -13.31 -8.85, -13 -7.88 M-13.93 -10.87 C-13.83 -10.18, -13.66 -9.14, -13.41 -8.04 M-13.05 -8.34 C-12.75 -7.39, -12.32 -6.47, -11.97 -5.55 M-13.18 -8.25 C-12.83 -7.29, -12.31 -6.32, -12.22 -5.8 M-11.97 -5.68 C-11.46 -4.91, -11.22 -4.5, -10.42 -3.68 M-12.04 -5.63 C-11.68 -5.13, -11.28 -4.62, -10.4 -3.65 M-10.75 -3.8 C-10.14 -3.44, -9.62 -2.65, -8.44 -2.13 M-10.6 -3.63 C-9.95 -3.43, -9.64 -2.94, -8.43 -2.15 M-8.48 -1.9 C-7.83 -1.57, -7.72 -1.57, -6.07 -0.84 M-8.46 -2.17 C-7.58 -1.59, -6.71 -1.26, -6.13 -0.91 M-6.14 -1.02 C-5.77 -0.68, -5.07 -0.49, -2.97 -0.3 M-6.2 -0.91 C-5.34 -0.87, -4.83 -0.47, -3.18 -0.14 M-3.12 -0.19 C-1.78 -0.06, -0.84 -0.08, -0.1 0.2 M-3.2 -0.38 C-1.95 -0.2, -0.72 -0.14, -0.01 -0.03 M0 0 C0 0, 0 0, 0 0 M0 0 C0 0, 0 0, 0 0 M0 0 C0 0, 0 0, 0 0 M0 0 C0 0, 0 0, 0 0" stroke="#000000" stroke-width="1" fill="none"></path></g></g></svg>
