<svg version="1.1" xmlns="http://www.w3.org/2000/svg" viewBox="0 0 138.3791355063508 131.68808487789119" width="276.7582710127016" height="263.37616975578237">
  <!-- svg-source:excalidraw -->
  
  <defs>
    <style class="style-fonts">
      @font-face {
        font-family: "Virgil";
        src: url("https://excalidraw.com/Virgil.woff2");
      }
      @font-face {
        font-family: "Cascadia";
        src: url("https://excalidraw.com/Cascadia.woff2");
      }
    </style>
  </defs>
  <g stroke-linecap="round"><g transform="translate(59.739931776331 64.53977642532747) rotate(0 8.964817259707909 -4.28913558740647)" fill-rule="evenodd"><path d="M-0.46 -0.86 L0.25 -0.21 L-0.91 1.87 L-0.21 13.39 L6.19 4.2 L7.25 7.18 L9.62 6.57 L20.58 11.59 L19.19 2.19 L18.67 2.13 L19.4 -0.85 L26.83 -6.81 L16.76 -8 L14.11 -11.84 L11.92 -9.47 L7.67 -21.63 L2.09 -8.96 L2.11 -12.7 L3.78 -10.05 L-7.59 -7.78 L-1.98 -1.89 L-1.09 -1.01 L-0.07 0.76" stroke="none" stroke-width="0" fill="#FFF" fill-rule="evenodd"></path><path d="M0 0 C0 0, 0 0, 0 0 M0 0 C0 0, 0 0, 0 0 M0.18 -0.19 C0.07 0.65, 0.64 1.61, 0.65 1.92 M-0.01 -0.1 C0.29 0.69, 0.57 1.57, 0.71 2.05 M-0.36 2.63 C0.16 3.72, -0.78 7.02, -0.56 12.51 M0.37 2.37 C0.26 4.58, -0.73 6.85, -1.73 11.95 M-1.21 12.54 C2.61 10.16, 6.24 7.4, 8.55 6.28 M-1.92 11.88 C2.44 9.9, 5.7 7.89, 7.84 5.77 M7.97 6.04 C7.97 6.04, 7.97 6.04, 7.97 6.04 M7.97 6.04 C7.97 6.04, 7.97 6.04, 7.97 6.04 M8.01 6.11 C8.87 5.85, 9.56 6.23, 9.95 6.04 M7.98 6.04 C8.77 5.98, 9.46 5.96, 10.17 5.96 M9.82 6.49 C11.73 6.95, 15.28 9.31, 20.01 11.09 M10.47 6.51 C11.9 7.27, 14.99 8.5, 20.01 12.15 M19.16 11.01 C18.75 8.84, 18.09 5.03, 18.06 2.85 M19.59 11.56 C19.6 9.68, 18.69 7.85, 16.98 2.35 M17.47 1.95 C17.47 1.95, 17.47 1.95, 17.47 1.95 M17.47 1.95 C17.47 1.95, 17.47 1.95, 17.47 1.95 M17.29 1.94 C17.77 1.14, 17.81 0.69, 18.05 -0.01 M17.43 1.94 C17.76 1.18, 17.83 0.59, 18 0 M17.7 -0.11 C20.23 -2.05, 22.25 -4.68, 25.78 -7.68 M18.66 0.24 C20.02 -1.82, 22.75 -3.99, 27.01 -7.24 M26.42 -7.75 C22.71 -8.92, 18.43 -9.19, 15.99 -9.16 M26.35 -7.71 C23.62 -8.26, 21.17 -8.25, 15.2 -10.26 M15.38 -9.85 C15.38 -9.85, 15.38 -9.85, 15.38 -9.85 M15.38 -9.85 C15.38 -9.85, 15.38 -9.85, 15.38 -9.85 M15.52 -9.8 C14.96 -10.2, 14.24 -10.76, 14.08 -11.14 M15.38 -9.91 C14.99 -10.17, 14.5 -10.58, 13.91 -11.02 M13.05 -12.01 C12.65 -14.12, 10.85 -19.49, 8.98 -21.12 M13.86 -11.22 C12.7 -13.61, 11.78 -16.5, 9.11 -20.54 M10.05 -20.35 C6.18 -18.45, 5.61 -13.58, 3.94 -10.76 M8.54 -20.4 C6.83 -17.63, 5.58 -13.5, 3.95 -10.89 M4.05 -10.94 C4.05 -10.94, 4.05 -10.94, 4.05 -10.94 M4.05 -10.94 C4.05 -10.94, 4.05 -10.94, 4.05 -10.94 M3.93 -10.91 C3.76 -10.82, 3.42 -10.54, 2.71 -9.93 M4.03 -10.9 C3.46 -10.49, 3.03 -10.15, 2.64 -9.9 M2.66 -9.24 C0.13 -10.27, -3.19 -8.13, -8.91 -6.95 M2.21 -10.15 C-0.02 -8.73, -2.93 -8.29, -8.67 -8 M-9.08 -8.52 C-5.77 -4.88, -2.52 -1.13, -0.67 -1.05 M-8.56 -8.24 C-5.71 -5.63, -3.37 -3.66, 0.16 -0.19 M0 0 C0 0, 0 0, 0 0 M0 0 C0 0, 0 0, 0 0 M0 0 C0 0, 0 0, 0 0 M0 0 C0 0, 0 0, 0 0 M0 0 C0 0, 0 0, 0 0 M0 0 C0 0, 0 0, 0 0" stroke="#000000" stroke-width="1" fill="none"></path></g></g><g stroke-linecap="round"><g transform="translate(53.13997634842996 80.26689158105779) rotate(0 15.735175599978486 -20.366180087215536)" fill-rule="evenodd"><path d="M1.52 1.63 L4.66 -12.83 L-6.26 -22.81 L-6.61 -24.07 L-9.9 -25.89 L-7.75 -24.73 L-5.48 -26.99 L8.42 -30.25 L15.41 -40.45 L13.15 -43.77 L14.57 -44.85 L16.56 -44.27 L17.21 -41.75 L24.01 -31.38 L38.99 -26.28 L39.65 -26.9 L38.57 -24.61 L40.68 -24.64 L40.6 -22.4 L30.29 -12.97 L30.77 -1.55 L31.84 0.89 L30.92 2.46 L30 1.45 L26.59 2.35 L15.73 -5.6 L4.37 1.62 L4.97 2.08 L-0.43 0.98 L0.12 1.22 L1.92 -0.26 L-1.99 1.77" stroke="none" stroke-width="0" fill="#fab005" fill-rule="evenodd"></path><path d="M-0.46 0.75 C1.19 -5.5, 1.36 -8.78, 1.94 -12.5 M-0.15 0.36 C0.53 -3.7, 1.93 -6.98, 3.58 -12.86 M1.56 -14.44 C1.53 -15.27, -1.4 -17.98, -6.53 -23.96 M3.32 -13.99 C0.88 -15.79, -1.93 -17.98, -8.33 -22.67 M-7.77 -23.11 C-7.77 -23.11, -7.77 -23.11, -7.77 -23.11 M-7.77 -23.11 C-7.77 -23.11, -7.77 -23.11, -7.77 -23.11 M-7.64 -23.02 C-7.85 -23.92, -8.16 -24.61, -8.27 -25.27 M-7.69 -23.08 C-7.89 -23.63, -8.15 -24.3, -8.42 -25 M-8.51 -25.02 C-8.06 -25.45, -7.58 -25.91, -6.82 -26.77 M-8.33 -25.02 C-7.81 -25.62, -7.3 -26.18, -6.98 -26.61 M-6.98 -26.65 C-6.91 -26.63, -6.88 -26.67, -6.77 -26.7 M-7 -26.64 C-6.93 -26.66, -6.84 -26.68, -6.79 -26.68 M-8.12 -27.67 C-3.34 -27.42, 0.89 -29.1, 6.5 -28.95 M-7.45 -26.92 C-2.45 -28, 1.61 -27.93, 7.65 -29.82 M7.16 -28.98 C9.25 -33.58, 12.23 -36.05, 12.74 -42.93 M8.06 -29.34 C9.42 -32.71, 10.65 -36.81, 13.82 -42.19 M13.8 -42.29 C13.8 -42.29, 13.8 -42.29, 13.8 -42.29 M13.8 -42.29 C13.8 -42.29, 13.8 -42.29, 13.8 -42.29 M13.86 -42.4 C14.04 -42.59, 14.32 -42.88, 14.69 -43.17 M13.83 -42.31 C13.99 -42.5, 14.23 -42.81, 14.6 -43.17 M14.59 -43.17 C14.85 -43.29, 15.11 -43.32, 15.61 -43.45 M14.59 -43.17 C14.92 -43.26, 15.19 -43.27, 15.69 -43.44 M15.69 -43.51 C16.05 -43.15, 16.64 -42.77, 17.42 -42.18 M15.65 -43.44 C16.24 -43, 16.68 -42.85, 17.44 -42.27 M16.89 -42.23 C19.73 -38.63, 21.8 -32.42, 24.73 -28.17 M17.14 -41.85 C18.75 -38.93, 21.87 -35.19, 24.45 -29.4 M25.03 -28.78 C28.67 -28.87, 34.58 -28.92, 37.88 -27.2 M24.09 -29.46 C28.49 -29.03, 33.49 -27.83, 38.66 -27.41 M37.95 -26.71 C37.95 -26.71, 37.95 -26.71, 37.95 -26.71 M37.95 -26.71 C37.95 -26.71, 37.95 -26.71, 37.95 -26.71 M37.76 -26.9 C38.32 -26.38, 38.59 -26.12, 39.68 -25.43 M37.9 -26.81 C38.56 -26.29, 39.01 -25.76, 39.58 -25.38 M39.61 -25.37 C39.25 -24.66, 39.24 -24.35, 38.92 -23.27 M39.49 -25.32 C39.36 -24.9, 39.19 -24.22, 39.03 -23.29 M39.11 -23.32 C39.06 -23.26, 39.02 -23.21, 38.97 -23.16 M39.1 -23.29 C39.06 -23.25, 39.02 -23.22, 38.96 -23.14 M39.98 -24.57 C36.27 -19.26, 31.1 -15.45, 27.43 -12.09 M38.92 -22.52 C34.27 -18.84, 30.32 -15.96, 28.83 -13.22 M27.91 -13.41 C29.07 -7.31, 29.58 -4.86, 31.01 -0.64 M28.86 -13.57 C29.79 -8.86, 30.64 -3.77, 31.24 -0.54 M31.22 -0.01 C31.22 -0.01, 31.22 -0.01, 31.22 -0.01 M31.22 -0.01 C31.22 -0.01, 31.22 -0.01, 31.22 -0.01 M31.22 0.07 C30.86 0.85, 30.85 1.4, 30.46 1.86 M31.28 -0.11 C31.1 0.46, 30.94 1.14, 30.56 1.98 M30.4 1.84 C29.84 2.08, 28.76 2.08, 28.33 2.2 M30.61 2.05 C29.93 2.23, 29.09 2.19, 28.5 2.34 M28.52 2.42 C28.42 2.28, 28.21 2.24, 28.12 2.17 M28.54 2.39 C28.39 2.32, 28.26 2.24, 28.1 2.2 M26.64 0.73 C24.53 -1.73, 18.34 -4.99, 17.1 -6.9 M28.43 2.14 C24.68 -0.15, 22.37 -1.45, 15.63 -5.2 M14.34 -6.59 C11.57 -1.89, 7.35 1.01, 2.67 2.78 M15.61 -6.17 C11.27 -2.75, 7.03 -0.78, 2.43 1.78 M3.12 2.21 C3.12 2.21, 3.12 2.21, 3.12 2.21 M3.12 2.21 C3.12 2.21, 3.12 2.21, 3.12 2.21 M2.96 2.16 C2.46 2.4, 1.67 2.36, 0.86 2.18 M3.14 2.3 C2.35 2.25, 1.48 2.25, 0.87 2.14 M1 2.3 C0.83 1.8, 0.34 0.92, 0.05 -0.13 M0.81 2.06 C0.61 1.45, 0.12 0.7, -0.03 -0.04 M0 0 C0 0, 0 0, 0 0 M0 0 C0 0, 0 0, 0 0 M0 0 C0 0, 0 0, 0 0 M0 0 C0 0, 0 0, 0 0 M0 0 C0 0, 0 0, 0 0 M0 0 C0 0, 0 0, 0 0" stroke="#000000" stroke-width="1" fill="none"></path></g></g><g stroke-linecap="round"><g transform="translate(127.45322071809079 118.3673719581177) rotate(0 -58.2636529649154 -52.5233295191721)" fill-rule="evenodd"><path d="M-1.68 -0.29 L0.13 0.67 L-0.07 2.95 L-3.6 1.92 L-18.57 3.62 L-16.31 -3.03 L-2.38 -1.8 L-3.55 -90.2 L-113.51 -88.7 L-112.34 -3.01 L-33.03 -3.44 L-33.95 2.85 L-113.04 2.39 L-113.16 2.39 L-115.91 2.25 L-116.79 1.29 L-116.58 -102.74 L-116.8 -103.53 L-117.8 -104.48 L-114.09 -106.39 L-3.5 -105.58 L-1.23 -105.03 L0.71 -104.06 L1.34 -105.25 L-1.8 0.47 L-1.12 1.12" stroke="none" stroke-width="0" fill="#fd7e14" fill-rule="evenodd"></path><path d="M0 0 C0 0, 0 0, 0 0 M0 0 C0 0, 0 0, 0 0 M0.01 -0.06 C0.01 0.25, -0.35 0.67, -0.76 1.56 M0.05 0.04 C-0.19 0.38, -0.31 0.59, -0.56 1.47 M-0.46 1.58 C-1.11 1.59, -1.34 1.71, -1.96 2.12 M-0.64 1.49 C-1.12 1.73, -1.66 1.97, -2.03 2.13 M-1.3 2.39 C-6.25 0.73, -12.46 0.96, -16.91 3.32 M-2.26 1.71 C-7.06 2.82, -11.74 2.74, -16.27 1.68 M-17.02 2.34 C-16.59 0.41, -16.62 -0.94, -17.1 -1.77 M-16.92 2.24 C-16.95 0.6, -16.93 -0.94, -16.91 -1.88 M-18.12 -2.1 C-13.49 -2.86, -10.77 -2.17, -4.23 -1.93 M-16.86 -2.55 C-13.94 -1.97, -10.93 -2.18, -3.89 -2.66 M-3.32 -3.44 C-5.34 -21.65, -4.62 -41.45, -2.58 -91.28 M-3.33 -1.52 C-4.35 -25.96, -4.66 -49.2, -5.08 -89.6 M-3.1 -87.68 C-41.77 -90.51, -76.12 -89.48, -113.94 -87.59 M-5.24 -88.67 C-38.31 -88.29, -72.14 -89.02, -113.8 -89.24 M-112.5 -90.75 C-111.34 -66.87, -113.36 -43.14, -112.6 -1.42 M-113.52 -89.53 C-112.4 -54.9, -112.24 -21.7, -112.87 -1.55 M-113.3 -2.06 C-94.94 -1.9, -79.86 -2.95, -33.93 -1 M-113.76 -1.99 C-93.07 -2.67, -73.15 -3.04, -33.66 -2.23 M-33.84 -2.06 C-33.8 -0.86, -33.79 0.87, -33.39 1.94 M-33.4 -1.9 C-33.44 -0.78, -33.69 0.52, -33.59 2.1 M-32.5 3.3 C-56.18 2.99, -77.14 1.57, -114.93 1.75 M-33.9 1.35 C-58.65 2.87, -81.54 2.14, -114.45 1.64 M-114.89 2.08 C-114.89 2.08, -114.89 2.08, -114.89 2.08 M-114.89 2.08 C-114.89 2.08, -114.89 2.08, -114.89 2.08 M-114.74 1.94 C-115.4 1.81, -115.84 1.66, -116.46 1.54 M-114.88 2.04 C-115.25 1.81, -115.7 1.64, -116.43 1.52 M-116.36 1.45 C-116.64 1, -116.9 0.37, -117.03 0.05 M-116.35 1.53 C-116.52 0.95, -116.82 0.62, -116.92 -0.07 M-117.16 0.33 C-115.51 -22.83, -116.14 -45.66, -115 -105.4 M-117.15 0.11 C-117.07 -21.93, -118.23 -43.62, -116.47 -103.98 M-116.96 -104.45 C-116.96 -104.45, -116.96 -104.45, -116.96 -104.45 M-116.96 -104.45 C-116.96 -104.45, -116.96 -104.45, -116.96 -104.45 M-116.86 -104.53 C-116.75 -104.87, -116.69 -105.17, -116.28 -106.06 M-116.92 -104.5 C-116.73 -104.95, -116.46 -105.56, -116.31 -105.86 M-116.41 -105.82 C-116.17 -105.89, -115.62 -106.28, -114.97 -106.54 M-116.38 -105.96 C-115.73 -106.14, -115.16 -106.44, -114.94 -106.55 M-116.06 -108.36 C-80.89 -108.44, -44.93 -107.71, -4.2 -105.1 M-114.61 -106.86 C-82.7 -106.69, -51.04 -105.75, -3.01 -107.38 M-2.21 -106.53 C-2.21 -106.53, -2.21 -106.53, -2.21 -106.53 M-2.21 -106.53 C-2.21 -106.53, -2.21 -106.53, -2.21 -106.53 M-2.15 -106.52 C-1.8 -106.41, -1.26 -106.17, -0.69 -105.81 M-2.15 -106.48 C-1.91 -106.38, -1.54 -106.35, -0.77 -105.98 M-0.88 -106.08 C-0.74 -105.71, -0.37 -105.22, -0.04 -104.38 M-0.78 -105.98 C-0.52 -105.41, -0.27 -104.83, -0.2 -104.46 M-1.98 -105.17 C1.85 -66.89, 1.3 -27.25, -0.25 1.72 M0.51 -104.87 C0.69 -71.44, 1.27 -38.4, -0.64 -1 M0 0 C0 0, 0 0, 0 0 M0 0 C0 0, 0 0, 0 0 M0 0 C0 0, 0 0, 0 0 M0 0 C0 0, 0 0, 0 0" stroke="#000000" stroke-width="1" fill="none"></path></g></g><g stroke-linecap="round"><g transform="translate(123.01619657711763 25.65032167151671) rotate(0 -54.180128594450544 -4.623155797049832)" fill-rule="evenodd"><path d="M0.8 -1.85 L-1.37 -8.92 L-108.53 -7.95 L-109.91 -1.23 L0.68 -0.48 L1.15 1.68" stroke="none" stroke-width="0" fill="#FFF" fill-rule="evenodd"></path><path d="M0.08 -0.52 C-0.43 -1.98, -0.61 -4.12, -0.58 -8.48 M-0.07 -0.34 C0.39 -3.25, 0.43 -5.3, -0.44 -8.41 M1.18 -8.44 C-22.71 -10.22, -43.96 -10.7, -109.54 -8.97 M0.85 -8.52 C-21.18 -9.02, -44.47 -8.98, -109.19 -9.77 M-109 -8.21 C-107.72 -5.01, -109.24 -2.65, -108.44 -0.47 M-108.88 -8.35 C-108.71 -5.4, -108.27 -2.16, -108.15 0.12 M-106.82 -0.37 C-68.28 -0.04, -28.84 -2.24, -0.25 -1.47 M-108.02 0.42 C-75.81 -0.77, -42.77 0.63, 0.05 0.8 M0 0 C0 0, 0 0, 0 0 M0 0 C0 0, 0 0, 0 0 M0 0 C0 0, 0 0, 0 0 M0 0 C0 0, 0 0, 0 0" stroke="#000000" stroke-width="1" fill="none"></path></g></g><g stroke-linecap="round"><g transform="translate(31.443661124796627 107.7527829159054) rotate(0 8.14109731548261 -2.145429261240416)" fill-rule="evenodd"><path d="M0.02 0.83 L15.23 -1.23 L17.28 -4.63 L1.15 -2.47 L-1.84 -0.65 L1.23 -1.21" stroke="none" stroke-width="0" fill="#fab005" fill-rule="evenodd"></path><path d="M-1.19 1.14 C2.92 0.48, 8.39 -0.44, 17.47 -0.28 M0.78 0.71 C2.89 0.86, 6.64 -0.63, 16.03 0.5 M16.96 -0.24 C16.39 -1.35, 16.19 -2.4, 16.29 -3.79 M16.44 0.13 C16.44 -1.55, 16.7 -2.71, 16.51 -4.26 M15.29 -4.62 C10.75 -4.92, 5.75 -3.63, 1.35 -5.43 M17.08 -4.07 C10.76 -3.89, 3.93 -3.57, 0.35 -3.43 M0.26 -4.52 C-0.03 -3.28, 0.04 -1.47, 0.11 0.22 M-0.04 -3.96 C0 -2.56, 0.18 -1.42, 0.07 -0.07 M0 0 C0 0, 0 0, 0 0 M0 0 C0 0, 0 0, 0 0 M0 0 C0 0, 0 0, 0 0 M0 0 C0 0, 0 0, 0 0" stroke="#000000" stroke-width="1" fill="none"></path></g></g><g stroke-linecap="round"><g transform="translate(56.34805463774415 107.84885324944955) rotate(0 14.329973215188588 -1.744752885833904)" fill-rule="evenodd"><path d="M-1.37 -1.23 L29.73 -0.48 L30.21 -2.47 L-1.84 -4.8 L1.23 -1.21 L1.64 1.1" stroke="none" stroke-width="0" fill="#fab005" fill-rule="evenodd"></path><path d="M-1.3 0.67 C10.44 -0.64, 21 -0.53, 27.5 1.72 M-0.97 0.85 C5.09 -1.2, 11.29 0.35, 29.22 0.07 M28.85 -0.04 C28.61 -0.88, 28.71 -1.84, 29.16 -3.87 M28.92 -0.21 C29.22 -1.49, 28.99 -3.06, 29.19 -3.95 M29.28 -5.21 C19.93 -3.73, 9.45 -5.78, 1.94 -5.02 M29.96 -3.88 C20.38 -3.47, 10.91 -3.26, -0.18 -3.63 M-0.05 -4.45 C0.04 -2.47, 0.13 -1.27, 0.17 -0.1 M0.01 -3.98 C0.19 -3.22, 0.06 -2.14, 0.12 -0.02 M0 0 C0 0, 0 0, 0 0 M0 0 C0 0, 0 0, 0 0 M0 0 C0 0, 0 0, 0 0 M0 0 C0 0, 0 0, 0 0" stroke="#000000" stroke-width="1" fill="none"></path></g></g><g stroke-linecap="round"><g transform="translate(31.443661124796627 95.31729170528158) rotate(0 8.548135446022018 -1.6285896390567132)" fill-rule="evenodd"><path d="M-0.9 0.2 L16.73 -1.13 L18.46 -3.87 L0.15 -2.27 L-1.96 1.55 L0.07 0.27 L0.58 -1.2" stroke="none" stroke-width="0" fill="#fab005" fill-rule="evenodd"></path><path d="M0.39 -0.37 C7 -0.33, 10.96 1.38, 15.04 1.57 M-0.74 -0.79 C5.83 0.36, 12.93 -0.08, 16.31 0.72 M16.19 0.22 C16.31 -0.64, 16.73 -1.72, 16.83 -4.47 M16.73 -0.01 C16.53 -1.6, 16.76 -2.8, 16.74 -4.31 M17.84 -3.74 C13.44 -5.52, 9.21 -4.96, 0.32 -3.18 M17.11 -3.6 C11.81 -3.39, 6.17 -3.67, 0.17 -3.63 M0.02 -3.8 C0.1 -3.06, 0.17 -2.5, -0.21 -0.07 M0.19 -4.26 C0.07 -2.6, 0.12 -0.93, 0.13 0.19 M0 0 C0 0, 0 0, 0 0 M0 0 C0 0, 0 0, 0 0 M0 0 C0 0, 0 0, 0 0 M0 0 C0 0, 0 0, 0 0 M0 0 C0 0, 0 0, 0 0 M0 0 C0 0, 0 0, 0 0" stroke="#000000" stroke-width="1" fill="none"></path></g></g><g stroke-linecap="round"><g transform="translate(56.34805463774415 95.31729170528158) rotate(0 23.23679271974858 -2.257971501757808)" fill-rule="evenodd"><path d="M0.13 -1.13 L47.51 0.28 L45.8 -2.27 L-1.96 -2.6 L0.07 0.27 L0.58 -1.2 L-1.98 0.4" stroke="none" stroke-width="0" fill="#fab005" fill-rule="evenodd"></path><path d="M1.05 -0.33 C13.67 1.82, 28.57 1.99, 47.36 -1.93 M-0.68 0.6 C17.73 0.5, 34.77 1.29, 45.07 -0.5 M45.35 0.36 C45.8 -0.93, 45.93 -2.73, 45.91 -4.42 M45.56 -0.11 C45.76 -0.64, 45.77 -1.83, 45.6 -4.12 M47.28 -5.7 C36.33 -4.9, 23.52 -2.87, 0.19 -2.34 M46.08 -3.29 C30.54 -3.33, 16.01 -3.23, -0.89 -4.27 M0.11 -3.93 C0.18 -3.31, -0.2 -2.34, 0.38 0.02 M0.07 -4.22 C0.16 -2.59, 0.17 -0.81, -0.14 0.17 M0 0 C0 0, 0 0, 0 0 M0 0 C0 0, 0 0, 0 0 M0 0 C0 0, 0 0, 0 0 M0 0 C0 0, 0 0, 0 0 M0 0 C0 0, 0 0, 0 0 M0 0 C0 0, 0 0, 0 0" stroke="#000000" stroke-width="1" fill="none"></path></g></g></svg>