<svg version="1.1" xmlns="http://www.w3.org/2000/svg" viewBox="0 0 677.9112439401051 708.644709031747" width="1355.8224878802102" height="1417.289418063494">
  <!-- svg-source:excalidraw -->
  
  <defs>
    <style class="style-fonts">
      @font-face {
        font-family: "Virgil";
        src: url("https://excalidraw.com/Virgil.woff2");
      }
      @font-face {
        font-family: "Cascadia";
        src: url("https://excalidraw.com/Cascadia.woff2");
      }
    </style>
  </defs>
  <g stroke-linecap="round"><g transform="translate(527.4430013829515 353.92770098267465) rotate(0 -33.216602828190844 171.35009875634387)" fill-rule="evenodd"><path d="M-175.06 67.77 C-175.06 67.77, -175.06 67.77, -175.06 67.77 M-175.06 67.77 C-175.06 67.77, -175.06 67.77, -175.06 67.77 M-164.96 84.22 C-157.73 70.4, -147.52 55.73, -125.05 32 M-166.38 81.83 C-152.61 67.94, -143.73 57.88, -124.54 31.99 M-200.12 145.37 C-200.12 145.37, -200.12 145.37, -200.12 145.37 M-200.12 145.37 C-200.12 145.37, -200.12 145.37, -200.12 145.37 M-156.53 91.42 C-141.48 77.98, -127.54 58.87, -112.05 46.18 M-154.21 91.97 C-146.9 82.73, -137.08 70.48, -113.01 44.3 M-197.78 167.1 C-166.05 133.51, -132.22 95.78, -101.69 56.13 M-200.56 167.51 C-179.33 143.74, -154.35 115.1, -100.36 56.22 M-60.11 8.7 C-60.11 8.7, -60.11 8.7, -60.11 8.7 M-60.11 8.7 C-60.11 8.7, -60.11 8.7, -60.11 8.7 M-196.59 194.7 C-159.42 148.8, -121.45 111.4, -36.73 10.39 M-200.45 193.46 C-158.11 141.79, -115.22 94.38, -39.76 9.11 M-193.23 211.75 C-156.4 171.31, -119.97 127.49, -18.77 11.1 M-197.27 212.57 C-154.87 163.87, -114.75 115.61, -18.05 9.16 M-172.37 209.91 C-102.15 136.12, -44.78 66, 8.38 3.05 M-169.28 206.72 C-121.74 148.54, -71.5 93.74, 5.25 4.7 M-162.65 225.65 C-117.81 170.88, -69.82 115.07, 6.92 31.08 M-164.59 226.51 C-123.36 177.94, -83.53 130.03, 3.15 31.29 M-156.6 238.66 C-88.73 168.94, -22.83 91.23, 21.64 35.89 M-155.79 242.57 C-115.52 198.11, -75.94 155.97, 19.2 39.61 M-168.47 277.25 C-98.93 203.59, -34.54 127.92, 34.26 44.72 M-168.64 277.91 C-108.31 209.74, -48.81 138.5, 35.01 44 M-155.62 291.24 C-77.75 196.88, 1.1 110.18, 67.87 32.45 M-157.18 289.15 C-95.95 223.97, -38.33 157.44, 70.81 29.25 M-141.62 298.29 C-63.15 206.21, 10.12 117.7, 80.18 39.4 M-145.05 299.17 C-95.68 241.88, -43.58 183.96, 81.57 42.04 M-130.18 310.19 C-85.34 252.7, -34.68 196.7, 93.89 53.98 M-131.66 311.34 C-82.71 253.64, -30.38 195.27, 92.08 52.02 M-97.86 299.02 C-34.61 225.94, 31.54 153.84, 105.53 63.76 M-99.81 297.62 C-47.81 234.91, 3.31 172.9, 105.19 64.1 M-85.48 305.27 C-19.71 228.36, 43.21 154.61, 98.24 94.36 M-86.68 305.98 C-48.99 260.77, -11.81 218.16, 97.32 95.24 M-71.86 312.13 C-9.95 247.01, 48.05 178.21, 105.84 110.44 M-69.76 313.54 C-15.79 253.55, 38.96 187.7, 105.3 114.11 M-56.26 322.17 C-20.45 276.01, 18.3 237.97, 112.86 127.83 M-54.91 321.08 C-3.06 259.4, 52.05 197.31, 110.9 128.82 M-58.47 349.86 C-12.77 295.49, 35.31 243.16, 119.66 145.77 M-58.87 348.52 C1.98 280.05, 62.7 213.43, 116.89 145.59 M-33.65 350.05 C10.19 291.51, 59 240.71, 142.16 140.95 M-37.95 348.6 C31.25 270.88, 96.13 197.42, 144.6 139.37 M-11.26 345.43 C-10.24 337.35, -3.36 328.36, 7.81 322.61 M-13.99 345.74 C-7.73 336.88, 2.95 327.76, 6.87 322.69 M11 324.73 C31.76 289.09, 59.43 260.54, 109.29 204.72 M7.86 322.34 C42.89 281.38, 78.7 241.09, 111.28 203.85 M108.38 200.62 C118.17 194.38, 126.36 185.34, 145.71 165.91 M110.9 204.17 C122.99 190.63, 137 175.2, 145.75 164.72 M46.29 300.14 C61.83 282.2, 80.23 266.68, 96.28 239.5 M48.15 298.45 C65.32 280.24, 84.58 261.62, 97.91 242.96 M134.32 205.05 C138.94 196.57, 143.29 191.02, 145.41 185.25 M133.09 203.82 C136.24 197.27, 141.98 192.3, 146.88 185.43 M62.62 306.12 C78.81 292.66, 94.7 271.61, 103.61 259.29 M62.09 306.59 C74.61 295.62, 87.69 277.19, 102.2 259.97 M-127.55 315.93 C-127.55 315.93, -127.55 315.93, -127.55 315.93 M-127.55 315.93 C-127.55 315.93, -127.55 315.93, -127.55 315.93 M-119.96 303.3 C-125.58 295.31, -140.3 284.02, -170.12 256.9 M-115.23 302.63 C-126.98 293.22, -138.21 286.71, -167.74 260.43 M-56.75 335.08 C-56.75 335.08, -56.75 335.08, -56.75 335.08 M-56.75 335.08 C-56.75 335.08, -56.75 335.08, -56.75 335.08 M-102.64 293.68 C-117.03 284.59, -134.24 268.71, -157.03 246.37 M-105.01 290.8 C-120.36 278.65, -130.41 270.61, -153.52 250.12 M-203.92 207.14 C-203.92 207.14, -203.92 207.14, -203.92 207.14 M-203.92 207.14 C-203.92 207.14, -203.92 207.14, -203.92 207.14 M-36 330.4 C-61.93 306.69, -91.81 280.85, -165.71 214.87 M-32.79 333.48 C-78.65 293.93, -125.03 252.46, -168.2 218.92 M-183.52 205.85 C-190.02 196.26, -195.56 198.88, -206.82 185.52 M-184.59 204.85 C-191.12 199.06, -197.83 192.24, -204.01 183.36 M-7.87 336.3 C-90.68 268.48, -162.44 204.52, -203.16 165.68 M-11.51 334.23 C-55.04 297, -97.04 261.73, -205.65 164.21 M11.29 330 C-59.2 268.17, -131.54 202.85, -206.56 142.87 M12.68 333.07 C-50.31 272.55, -116.79 216.7, -206.84 140.6 M7.95 310.2 C-72.01 235.06, -154.48 164.24, -198.81 128.36 M9.06 306.62 C-36.86 265.44, -84.12 224.02, -196.33 130.61 M24.48 297.1 C-18.85 261.79, -63.06 221.73, -171.99 133.32 M25.96 300.75 C-20.24 256.11, -68.23 214.12, -170.4 129.44 M39.9 290.58 C-3.66 256.94, -51.13 213.93, -164.32 118.13 M40.76 293.14 C-5.66 253.92, -49.23 216.26, -162.08 116.45 M82.43 305.47 C18.16 252.66, -41.41 204.79, -153.59 100.54 M80.6 305.55 C21.29 257.61, -34.18 207.3, -154.4 101.71 M92.87 294.44 C-12.54 200.52, -120.29 110.38, -172.97 63.02 M89.93 293.28 C23.61 234.39, -46.72 174.51, -173.33 64.25 M100.37 278.76 C9.43 203.4, -84.98 123.71, -163.08 54.24 M100.46 279.75 C47.62 232.36, -9.99 182.32, -160.25 52.05 M113.32 270.89 C51.7 215.03, -5.09 167.28, -147.41 43.99 M109.79 268.6 C30.78 202.89, -48.36 134.01, -149.05 41.81 M102.15 239.92 C16 168.43, -74.22 92.67, -136.49 29.33 M101.08 238.86 C31.38 175.67, -43.03 112.05, -138.36 31.73 M110.49 222.92 C44.54 168.74, -24.64 112.51, -108.32 40.95 M108.61 223.97 C42.59 168.57, -21.83 113.64, -106.41 37.12 M113.81 204.48 C55.02 155.99, -5.31 110.16, -89.9 29.26 M112.2 207.47 C46.34 150.76, -16.37 96.43, -88.36 32.55 M119.18 189.48 C70.98 151.31, 18.86 106.78, -63.85 32.33 M119.35 191.99 C62.59 147.89, 12.22 99.06, -66.35 29.44 M145.82 195.22 C86.78 134.76, 23.02 81.45, -68.18 5.83 M146.65 193.05 C81.25 137.74, 17.58 81.26, -68.81 5.94 M145.93 171.38 C100.68 134.19, 58.46 97.67, -64.83 -11.64 M145.68 170.42 C74.71 106.98, 4.46 45.18, -61.39 -8.54 M141.03 149.21 C134.4 146.13, 131.37 132.81, 119.24 126.52 M144.43 150.48 C134.84 141.91, 123.68 131.34, 118.25 126.12 M116.64 128.25 C87.92 107.36, 68.04 86.45, 0.82 25.26 M118.61 125 C90.56 105.97, 69.61 88.51, 2.22 28.46 M5.23 27.65 C-12.43 18.09, -26.18 6.47, -40.75 -11.89 M2.64 25.56 C-6.65 15.2, -19.8 5.73, -36.28 -10.16 M91.91 84.38 C76.89 74.56, 57.97 55.78, 47.99 46.01 M93.98 84.62 C83.18 74.74, 70.71 65.17, 45.38 44.84 M6.32 5.09 C-5.21 1.72, -4.95 2.27, -13.67 -10.89 M2.94 4.9 C0.79 3.32, -4.14 -3.17, -14.06 -10.09 M106.55 74.7 C84.65 58.78, 71.35 40.84, 54.06 31.7 M106.56 74.17 C90.05 60.2, 77.65 46.41, 56.97 30.34" stroke="#fd7e14" stroke-width="2" fill="none"></path><path d="M-0.13 -0.19 C-12.91 1.29, -31.04 2.52, -67.11 -1.52 M1.43 -1.44 C-24.92 -1.83, -47.58 -0.13, -69.29 -0.98 M-66.08 -2.02 C-70.83 7.01, -67.03 12.63, -65.26 26.83 M-67.76 1.78 C-68.26 9.95, -69.14 17.6, -65.4 29.56 M-70.65 33.43 C-88.09 33.67, -99.57 45.53, -112.39 44.48 M-67.59 29.83 C-76.25 34.79, -89.48 40.57, -111.35 44.81 M-109.73 47.19 C-122.51 42.63, -127.62 37.87, -135.18 29.53 M-113.25 44.82 C-116.64 39.75, -124.05 36.51, -132.29 24.12 M-131 22.4 C-145.6 37.71, -158.49 50.79, -172.38 71.28 M-131.38 27.61 C-142.46 34.8, -154.1 47.22, -175.12 68.72 M-178.21 69.33 C-169.97 79, -162.1 83.64, -155.72 91.62 M-174.38 68.92 C-171.31 75.18, -165.18 81.18, -155.41 93.13 M-156.1 90.88 C-161.33 105.26, -168.55 120.32, -181.12 139.6 M-155.33 92.78 C-162.34 106.39, -170.38 122.1, -178.61 141.7 M-181.57 141.11 C-188.25 143.83, -195.24 143.87, -202.63 139.57 M-181.17 141.04 C-189.22 141.37, -194.58 139.73, -204 138.8 M-205.69 141.36 C-203.92 165.1, -207.61 183.67, -201.7 208.25 M-204.68 139.54 C-206.6 161.17, -205.76 181.14, -203.91 207.81 M-206.9 205.35 C-195.26 204.7, -183.1 202.61, -173.62 205.07 M-203.71 209.21 C-195.75 206.51, -186.16 204.46, -176.23 203.55 M-177.49 205.51 C-170.87 217.33, -164.6 241.73, -156.24 250.64 M-173.62 202.33 C-168.98 219.06, -162.88 238.79, -155.09 252.68 M-160.3 251.45 C-163.32 259.36, -172.26 266.92, -179.57 267.76 M-158.06 251.08 C-162.22 257.45, -169.93 263.57, -178.49 272.76 M-174.37 270.98 C-161.73 280.79, -153.09 295.27, -124.86 318.69 M-176.52 270.51 C-157.72 287.03, -139.2 304.44, -129.29 315.47 M-129.92 315.34 C-125.69 308.97, -117.53 303.16, -105.43 293.82 M-129.38 317.81 C-125.37 311.42, -118.05 303.99, -106.19 293.33 M-105.28 295.94 C-92.41 300.65, -76.65 310.41, -63.34 313.68 M-108.81 291 C-98.46 300.1, -86.37 302.2, -62.26 315.69 M-63.52 314.3 C-58.36 321.17, -63.6 329.06, -66.14 342.95 M-61.4 312.91 C-63.84 323.61, -61.31 336.55, -63.78 344.72 M-61.18 340.1 C-41.06 338.32, -27.51 343.37, 0.69 343.72 M-62.92 343.23 C-42.88 344.54, -19.1 343.61, 3.38 338.69 M3.27 340.43 C1.21 335.18, 0.07 322.65, 2.28 314.25 M3.26 341.72 C5.3 332.22, 2.66 328.64, 0.25 316.74 M-2.06 318.54 C11.45 310.14, 25.94 299.62, 50.3 298.15 M0.66 317.03 C17.54 306.87, 32.18 300.96, 44.73 294.04 M45.51 291.07 C52.08 300.87, 55.35 302.75, 67.15 319.31 M45.68 293.82 C52.89 298.86, 57.1 306.08, 69.73 318.72 M71.37 318.88 C80.87 300.64, 98.52 287.15, 112.48 265.06 M69.75 317.73 C80.09 303.32, 94.69 284.29, 111.77 269.06 M114.19 270.31 C107.6 265.66, 101.37 259.66, 92.79 247.36 M111.86 268.54 C107.12 264.88, 100.92 259.56, 94.51 252.64 M91.46 254.33 C95.88 233.95, 101.44 216.43, 109.07 202.38 M94.19 251.32 C98 233.1, 105.61 215.96, 110.39 203.93 M107.16 204.1 C119.49 206.02, 128.34 204.56, 137.48 200.27 M107.68 202.03 C121.21 200.66, 130.53 202.05, 139.37 200.09 M140.47 202.77 C139.25 187.77, 139.61 165.75, 137.78 137.68 M138.78 203.36 C138.32 186.55, 139.13 173.53, 135.29 135.44 M138.13 135.99 C126.25 139.16, 115.68 136.71, 109.38 136.49 M135.84 135.11 C129.1 135.57, 123.2 135.05, 107.98 138.25 M110.56 138.64 C105.2 127.73, 101.95 115.07, 88.88 86.4 M107.19 139.06 C103.33 123.7, 97.3 106.76, 90.76 91.27 M89.36 89.42 C98.52 88.14, 98.34 78.84, 111.33 71.96 M92.64 91.44 C95.7 86.29, 100.15 81.31, 111.71 72.81 M112.58 69.88 C96.95 56.29, 84.43 39, 61.91 22.95 M110.78 72.09 C98.39 60.93, 89.04 46.99, 63.37 25.06 M60.4 22.8 C58.62 33.57, 53.18 40.91, 39.49 47.4 M60.63 24.68 C58.84 30.68, 50.98 34.17, 44.24 49.21 M42.69 45.23 C32.57 44.34, 20.47 36.15, -1.78 26.87 M43.22 47.9 C26.41 40.72, 9.68 34.19, 2.46 30.6 M0.59 31.69 C3.53 21.63, 1.9 12.76, -0.67 3.04 M1.18 28.59 C0.1 15.96, -2.16 5.97, 1.54 -0.58 M0 0 C0 0, 0 0, 0 0 M0 0 C0 0, 0 0, 0 0" stroke="#000000" stroke-width="4" fill="none"></path></g></g><g stroke-linecap="round" transform="translate(376.71836370179153 409.00016475079065) rotate(0 118.11594202898596 118.11594202898596)"><path d="M81.37 7.66 C93.29 1.68, 108.78 -1.25, 121.97 -1.08 C135.16 -0.92, 148.31 3.64, 160.5 8.64 C172.7 13.64, 185.03 20.23, 195.11 28.94 C205.19 37.64, 214.69 48.89, 220.98 60.85 C227.28 72.82, 230.45 87.09, 232.86 100.71 C235.28 114.33, 238 129.23, 235.45 142.57 C232.9 155.92, 224.45 169.78, 217.57 180.78 C210.69 191.78, 204.41 200.59, 194.17 208.57 C183.93 216.54, 169.18 224.13, 156.11 228.63 C143.05 233.13, 129.05 235.31, 115.79 235.56 C102.53 235.81, 88.82 235.15, 76.56 230.12 C64.29 225.1, 52.58 214.31, 42.21 205.39 C31.84 196.46, 21.06 188.34, 14.33 176.57 C7.61 164.79, 3.8 148.11, 1.85 134.75 C-0.11 121.39, 0.04 109.39, 2.59 96.4 C5.14 83.42, 10.43 68.31, 17.14 56.84 C23.85 45.37, 31.07 36.48, 42.83 27.59 C54.6 18.7, 78.57 7.33, 87.73 3.5 C96.89 -0.33, 97.56 2.66, 97.79 4.61 M55.2 15.78 C65.13 7.78, 80.56 7.5, 93.66 5.19 C106.77 2.88, 120.12 -0.01, 133.83 1.91 C147.53 3.82, 163.84 10.63, 175.88 16.68 C187.92 22.72, 197 28.93, 206.08 38.2 C215.16 47.47, 225.41 59.46, 230.35 72.32 C235.29 85.18, 235.84 102.14, 235.73 115.38 C235.62 128.62, 233.44 138.75, 229.69 151.75 C225.95 164.75, 221.89 182.43, 213.27 193.37 C204.65 204.31, 189.44 210.34, 177.98 217.39 C166.52 224.44, 157.63 233.2, 144.53 235.66 C131.43 238.12, 112.94 234.74, 99.39 232.16 C85.84 229.57, 74.24 225.97, 63.22 220.17 C52.21 214.38, 42.19 207.31, 33.31 197.38 C24.43 187.46, 15.67 173.43, 9.96 160.62 C4.25 147.81, -0.74 133.95, -0.95 120.52 C-1.16 107.09, 4.85 92.98, 8.71 80.03 C12.57 67.08, 14.48 53.55, 22.19 42.82 C29.9 32.09, 49.47 19.08, 54.97 15.66 C60.47 12.25, 54.31 20.26, 55.21 22.34" stroke="none" stroke-width="0" fill="#ffffff"></path><path d="M171.26 13.61 C183.58 17.9, 195.23 28.22, 204.08 37.54 C212.93 46.86, 219.34 57.34, 224.37 69.53 C229.4 81.72, 233.34 96.94, 234.26 110.65 C235.17 124.37, 233.66 138.86, 229.86 151.82 C226.06 164.78, 218.87 177.91, 211.46 188.42 C204.05 198.93, 196.34 207.75, 185.42 214.87 C174.5 222, 159.4 227.43, 145.92 231.17 C132.45 234.91, 117.59 238.59, 104.56 237.32 C91.52 236.04, 79.47 229.69, 67.73 223.52 C56 217.35, 44.07 210.18, 34.14 200.29 C24.2 190.41, 13.6 176.33, 8.11 164.22 C2.62 152.11, 1.58 140.99, 1.2 127.65 C0.82 114.32, 2.5 97.12, 5.82 84.19 C9.14 71.27, 13.57 60.52, 21.1 50.12 C28.62 39.72, 39.41 29.29, 50.96 21.78 C62.5 14.27, 76.9 8.54, 90.37 5.08 C103.84 1.63, 111.17 -5.92, 131.79 1.06 C152.42 8.05, 197.11 30.53, 214.14 46.99 C231.17 63.46, 236.05 98.89, 233.99 99.85 M17.98 53 C24.05 41.61, 39.94 31.3, 51.44 22.71 C62.95 14.11, 74.66 5.44, 87.01 1.44 C99.36 -2.57, 112.49 -2.4, 125.52 -1.31 C138.56 -0.22, 152.93 2.14, 165.23 7.98 C177.53 13.83, 189.27 24.33, 199.33 33.76 C209.4 43.19, 219.19 52.47, 225.62 64.57 C232.05 76.68, 237.28 92.13, 237.91 106.39 C238.55 120.65, 233.43 136.66, 229.43 150.12 C225.44 163.57, 221.07 176.67, 213.96 187.14 C206.85 197.61, 197.2 205.69, 186.78 212.94 C176.35 220.19, 164.17 226.73, 151.42 230.64 C138.67 234.54, 124.35 237.72, 110.28 236.39 C96.21 235.07, 79.57 228.86, 67.03 222.69 C54.49 216.52, 44.58 208.74, 35.06 199.39 C25.53 190.03, 15.45 178.26, 9.88 166.55 C4.31 154.84, 2.99 142.31, 1.65 129.13 C0.3 115.95, -1.58 100.37, 1.8 87.47 C5.18 74.56, 18.57 57.83, 21.92 51.72 C25.28 45.62, 20 49.5, 21.91 50.84" stroke="#000000" stroke-width="4" fill="none"></path></g><g stroke-linecap="round"><g transform="translate(592.6603926872958 298.85523721455866) rotate(0 -290.2610133686394 -6.689243915190218)"><path d="M2.14 1.77 C1.86 -70.03, 2.15 -131.76, 1.95 -283.9 M-1.39 0.63 C-0.94 -75.58, -0.08 -149.63, -0.83 -285.07 M1.44 -286.58 C-125 -290.31, -251.57 -289.74, -581.76 -282.75 M-0.63 -286.16 C-133.56 -280.85, -267.32 -281.12, -581.39 -283.75 M-582.61 -282.95 C-582.12 -85, -584.41 115.75, -578.65 272.68 M-581.03 -284.57 C-581.98 -129.52, -580.86 26.16, -580.24 273.52 M-578.96 274.57 C-517.38 274.52, -451.73 272.72, -346.82 271.69 M-581 275.48 C-523.66 271.35, -469.01 268.82, -350.79 271.91" stroke="#000000" stroke-width="4" fill="none"></path></g></g><g stroke-linecap="round"><g transform="translate(139.03720428150336 277.1161067797766) rotate(0 -27.85268173775239 109.82947105677476)"><path d="M3.23 -2.32 C-1.28 52.42, -5.83 105.22, -0.04 221.98 M0.05 0.45 C-0.03 80.82, -1.15 162.24, -3.52 221.48 M-6.44 216.84 C-15.55 219.88, -31.01 220.74, -58.94 220.7 M-2.33 219.89 C-24.82 217.03, -43.23 217.8, -55.66 218.3 M-58.1 217.63 C-51.94 144.45, -51.41 75.04, -52.95 0.03 M-56.75 218.13 C-57.84 166.87, -58.34 111.55, -56.3 0.04" stroke="#000000" stroke-width="4" fill="none"></path></g></g><g stroke-linecap="round"><g transform="translate(159.32705935396734 197.40596185223876) rotate(0 -47.776611405872245 34.41122291269585)" fill-rule="evenodd"><path d="M1.61 -3.27 L-97.63 0.19 L-94.93 66.91 L0.88 69.52 L-1.91 2.47" stroke="none" stroke-width="0" fill="#fd7e14" fill-rule="evenodd"></path><path d="M2.84 0.57 C-19.75 -1.44, -39.29 -0.96, -100.37 0.09 M0.32 1.31 C-34.65 -2.53, -66.85 0.6, -98.68 0.31 M-98.57 -1.44 C-94.83 25.69, -94.72 49.52, -98.65 70.81 M-96.76 -1.98 C-94.26 29.72, -94.75 55.2, -98.18 69.21 M-101 69.51 C-57.53 69.36, -21.48 70.73, 5.45 68.64 M-95.12 67.61 C-64.41 67.6, -32.11 66.74, 0.81 66.26 M3.97 67.05 C4.96 46.17, -0.63 16.1, 2.22 0.27 M3.23 68.88 C1.67 44.48, -0.82 18.28, -1.67 -1.88 M0 0 C0 0, 0 0, 0 0 M0 0 C0 0, 0 0, 0 0" stroke="#000000" stroke-width="4" fill="none"></path></g></g><g stroke-linecap="round"><g transform="translate(137.58792891918347 188.71030967832667) rotate(0 -24.892524531353956 -49.23987790942192)"><path d="M3.77 2.8 C0.01 -33.99, 1.6 -68.94, 0.46 -98.88 M1.48 1.53 C-2.27 -19.58, -3.78 -43.42, -1.17 -100.31 M-6.48 -99.71 C-21.31 -99.52, -35.95 -99.16, -49.32 -98.04 M-3.3 -103.29 C-19.89 -102.32, -41.29 -100.24, -53.56 -101.95 M-51.22 -96.82 C-50.53 -79.24, -48.03 -60.42, -52.75 4.81 M-50.65 -101.63 C-50.93 -76.17, -51.89 -49.66, -52.19 -0.54" stroke="#000000" stroke-width="4" fill="none"></path></g></g><g stroke-linecap="round"><g transform="translate(315.8487984843996 256.8262517073126) rotate(0 -26.997870453890755 -82.14904101128286)"><path d="M-0.96 -2.01 C4.33 -56.49, -2.32 -113.74, 1.62 -164.89 M0.65 0.66 C-0.3 -35.02, 2.01 -66, -3.4 -166.95 M-3.73 -169.2 C-11.16 -166.74, -25.85 -167.47, -52.99 -164.47 M-0.06 -168.19 C-17.99 -165.71, -33.13 -165.85, -52.14 -165.68 M-52.87 -160.18 C-47.63 -112.34, -47.79 -64.43, -55.61 2.51 M-53.48 -165.42 C-52.11 -98.28, -51.99 -28.46, -53.15 4.91" stroke="#000000" stroke-width="4" fill="none"></path></g></g><g stroke-linecap="round"><g transform="translate(262.22561007859986 353.92770098267465) rotate(0 1.2623282670974731 72.98843753640176)"><path d="M-1.26 -2.2 C0.61 59.48, -3.24 115.99, 3.79 147.17 M1.71 0.56 C0.51 30.33, 0.93 61.69, -0.68 148.17" stroke="#000000" stroke-width="4" fill="none"></path></g></g><g stroke-linecap="round"><g transform="translate(315.8487984843996 355.3769763449927) rotate(0 -0.030604588829191925 22.626062539608938)"><path d="M1.96 0.15 C1.44 9.61, -2.67 18.4, -1.94 46.03 M-0.56 -0.78 C-0.32 9.69, 2.41 21.12, 0.54 43.97" stroke="#000000" stroke-width="4" fill="none"></path></g></g><g stroke-linecap="round"><g transform="translate(339.03720428150336 268.4204546058627) rotate(0 -49.92851825943944 37.48000044090577)" fill-rule="evenodd"><path d="M1.6 2.44 L1.17 72.89 L-103.34 78.2 L-102.97 0.16 L-0.37 2.36" stroke="none" stroke-width="0" fill="#fd7e14" fill-rule="evenodd"></path><path d="M2.52 -1.89 C-2.12 31.67, 1.41 61.22, -1.79 74.77 M-1.05 -1.93 C0.77 21.6, 3.3 44.4, 1.82 73.77 M3.18 76.84 C-31.17 77.1, -70.5 76.32, -101.15 75.83 M1.49 74.71 C-37.25 74.75, -74.78 75.43, -102.14 74.75 M-101.43 73.73 C-100.55 59.12, -103.35 41.6, -101.11 -1.14 M-103.04 76.85 C-100.71 48.08, -103.06 15.48, -100.71 1.7 M-100.61 -0.94 C-67.07 -1.68, -32.52 2.99, 2.22 3.19 M-100.44 0.97 C-61.7 -0.36, -23.17 0.37, -0.31 0.99 M0 0 C0 0, 0 0, 0 0 M0 0 C0 0, 0 0, 0 0" stroke="#000000" stroke-width="4" fill="none"></path></g></g><g stroke-linecap="round"><g transform="translate(491.21111732497957 152.47842562035476) rotate(0 -24.907615932866065 -28.921670385891957)"><path d="M3.38 -3.34 C-2.4 -16.22, -1.14 -28.3, -1.98 -58.81 M-1.63 -0.86 C1.76 -21.52, 0.15 -41.01, -0.05 -60.91 M1.94 -60.72 C-13.88 -58.99, -34.12 -56.01, -53.2 -60.13 M0.22 -62.8 C-16.58 -61.2, -31.79 -58.09, -50.87 -60.55 M-47.34 -62.4 C-46.78 -35.05, -49.35 -20.36, -49.03 2.83 M-50.26 -59.7 C-47.67 -36.05, -52.57 -11.13, -51.89 4.96" stroke="#000000" stroke-width="4" fill="none"></path></g></g><g stroke-linecap="round"><g transform="translate(440.4864796438196 258.2755270696307) rotate(0 -1.1162697866657254 22.905766412832236)"><path d="M-2.89 -1.52 C-1.36 16.39, -2.95 26.74, -1.95 47.33 M-0.7 1.13 C1.14 15.27, 1.44 32.09, -1.9 45.13" stroke="#000000" stroke-width="4" fill="none"></path></g></g><g stroke-linecap="round"><g transform="translate(492.6603926872958 255.37697634499273) rotate(0 -1.8105097752240908 25.652317079945533)"><path d="M-0.72 -1.92 C-3.89 13.22, 1.81 21.32, -4.06 53.23 M-1.97 1.03 C0.73 11.24, 0.67 24.61, 0.15 50.69" stroke="#000000" stroke-width="4" fill="none"></path></g></g><g stroke-linecap="round"><g transform="translate(515.8487984843996 168.4204546058627) rotate(0 -48.76422677653409 38.42192982876759)" fill-rule="evenodd"><path d="M3.45 -3.02 L-0.92 77.07 L-98.2 80.41 L-95.52 -3.61 L0.87 2.94" stroke="none" stroke-width="0" fill="#fd7e14" fill-rule="evenodd"></path><path d="M-1.64 -1.13 C2.01 31.53, -0.43 55.69, -2.88 80.01 M-1.46 1.18 C0.83 15, 1.3 34.18, 1.55 77.64 M-1.79 79.58 C-40.16 80.25, -76.34 78.49, -99.47 78.78 M0.94 75.84 C-21.16 79.7, -40.22 78.68, -97.27 75.39 M-94.14 73.29 C-92.87 58.2, -92.56 39.38, -97.88 0.68 M-95.18 77.43 C-96.57 50.98, -95.62 23.08, -95.13 -0.87 M-96.85 2.16 C-63.39 -3.82, -33.63 1.27, -0.12 -2.85 M-94.82 -0.26 C-74.59 -4.68, -50.91 -3.03, 1.94 -1.89 M0 0 C0 0, 0 0, 0 0 M0 0 C0 0, 0 0, 0 0" stroke="#000000" stroke-width="4" fill="none"></path></g></g><g stroke-linecap="round"><g transform="translate(579.6169144264313 471.31900533050066) rotate(0 -26.03164552735325 16.11836389700602)"><path d="M-3.72 -1.66 C-8.01 9.2, -8.14 18.21, -15.83 33.9 M-0.93 -1.18 C-3.96 7.12, -5.83 15, -14.08 32.66 M-13.38 30.45 C-23.68 27.72, -37.16 28.98, -51.13 28.55 M-13.94 32.82 C-27.19 33.34, -38.89 28.7, -51.07 26.75" stroke="#000000" stroke-width="4" fill="none"></path></g></g><g stroke-linecap="round"><g transform="translate(566.5734361655632 501.7537879391966) rotate(0 -73.76864545968056 -21.57690040571424)"><path d="M1.84 -0.66 C-5.32 -7.44, -26.34 -33.05, -42.89 -41.36 C-59.45 -49.66, -81.86 -53.51, -97.49 -50.47 C-113.12 -47.44, -128.41 -32.96, -136.67 -23.16 C-144.94 -13.35, -145.42 3.48, -147.09 8.35 M-0.61 -3.48 C-7.95 -11.1, -28.85 -38.71, -44.02 -46 C-59.2 -53.29, -76.27 -51.34, -91.66 -47.23 C-107.04 -43.11, -126.71 -29.53, -136.33 -21.32 C-145.95 -13.11, -147.01 -2.15, -149.38 2.02" stroke="#000000" stroke-width="4" fill="none"></path></g></g><g stroke-linecap="round"><g transform="translate(420.1966245713593 553.9277009826747) rotate(0 73.07571630732855 19.320563547908932)"><path d="M2.65 2.72 C11.2 9.89, 32.95 38.27, 49.74 44.11 C66.52 49.95, 90.16 41.77, 103.36 37.77 C116.56 33.77, 121.93 27.66, 128.96 20.11 C135.98 12.57, 143.24 -2.74, 145.5 -7.5 M0.65 1.73 C10.18 8.04, 37.82 33.69, 54.81 40.23 C71.8 46.76, 90.01 45.17, 102.59 40.93 C115.17 36.68, 123.55 22.71, 130.31 14.77 C137.07 6.83, 140.62 -2.33, 143.12 -6.72" stroke="#000000" stroke-width="4" fill="none"></path></g></g><g stroke-linecap="round"><g transform="translate(454.9792332670113 549.5798748957186) rotate(0 -21.52169705948927 15.08833460013102)"><path d="M2.68 0.27 C-4.26 -0.03, -16.61 -4.32, -33.66 -6.55 M1.08 -0.11 C-12.62 0.17, -26.49 -2.37, -35.64 -3.35 M-35.85 -2.47 C-42.04 6.98, -39.52 18.14, -45.43 36.73 M-38.15 -2.6 C-38.32 6.27, -39.75 18.39, -45.72 35.35" stroke="#000000" stroke-width="4" fill="none"></path></g></g><g stroke-linecap="round" transform="translate(457.87778399164745 491.60886040296464) rotate(0 35.50724637681196 35.50724637681196)"><path d="M13.54 6.47 C13.54 6.47, 13.54 6.47, 13.54 6.47 M13.54 6.47 C13.54 6.47, 13.54 6.47, 13.54 6.47 M4.3 27.16 C12.51 20.8, 19.54 12.61, 27.42 1.26 M4.67 28.25 C10.24 22.34, 16.28 16.27, 28.6 1.48 M5.86 40.64 C14.1 27.45, 26.65 16.66, 33.9 0.63 M8.5 37.1 C13.44 28.35, 21.03 21.12, 37.06 3.62 M9.86 53.14 C15.19 34.88, 32.95 21.42, 48.4 7.84 M7.26 51.96 C16.95 40.47, 23.9 29.35, 45.89 6.79 M13.94 60.22 C22.9 43.13, 36.88 25.28, 58.07 7.36 M12.49 59.3 C26.7 41, 39.59 26.57, 54.95 4.5 M11.66 64.65 C29.59 52.28, 40.61 41.67, 58.62 10.09 M13.97 63.42 C32.01 43.89, 47.54 26.52, 60.98 13.41 M22.32 69.04 C38.14 54.48, 52.41 28.93, 66.06 15.23 M19.53 73.19 C29.09 61.56, 39.51 48.1, 67.34 17.15 M25.6 76.83 C44.38 55.1, 61.57 39.36, 68.91 27.87 M27.69 72.98 C40.18 60.86, 47.94 50.85, 70.22 25.94 M39.75 72.16 C47.24 67.03, 55.74 55.25, 76.27 35.53 M39.88 72.56 C47.54 63.89, 55.69 54.15, 72.67 35.11 M14.62 67.02 C14.62 67.02, 14.62 67.02, 14.62 67.02 M14.62 67.02 C14.62 67.02, 14.62 67.02, 14.62 67.02 M33.38 66.42 C24.27 60.73, 10.62 52.66, 0.64 49.38 M31.22 70.01 C23.85 62.48, 17.23 56.42, 3.89 48.71 M38.51 70.18 C27.28 57.24, 13.09 50.48, 3.68 37.98 M37.9 69.38 C33.4 61.1, 24.47 54.21, 4.19 34.62 M44.43 64.09 C33.06 53.77, 19.88 37.03, 0.39 27 M46.29 64.52 C32.81 52.86, 20.1 38.6, 4.24 24.42 M58.5 63.44 C37.27 43.82, 19.73 34.14, 4.5 15.56 M54.43 61.77 C43.5 50.2, 26.69 33.86, 9.3 20.48 M60.14 59.78 C49.52 44.1, 32.52 31.42, 10.07 11.78 M60.82 56.44 C41.99 37.9, 23.29 21.21, 11.28 12.86 M65.45 52.84 C45.55 31.52, 29.36 14.22, 19.04 3.29 M66.88 50.68 C51.12 32.09, 29.27 16.1, 14.28 3.8 M75.15 46.53 C60.94 31.59, 53.08 23.19, 23.06 1.78 M74.98 43.54 C60.85 31.06, 45.3 20.38, 26.4 2.33 M70.28 29.75 C65.05 26.19, 55.89 13.75, 38.53 1.37 M74.15 33.72 C60.45 21.42, 43.83 5.38, 36.85 0.54 M72.07 18.12 C67.36 15.01, 64.75 12.78, 46.81 3.57 M69.9 19.35 C64.95 18.03, 62.64 10.97, 50.09 4.62" stroke="#fd7e14" stroke-width="1" fill="none"></path><path d="M34.67 0.97 C41.23 -0.03, 49.74 0.95, 55.69 4.51 C61.63 8.07, 67.74 15.33, 70.31 22.34 C72.89 29.35, 73.16 39.97, 71.12 46.58 C69.08 53.18, 63.81 57.88, 58.08 61.96 C52.35 66.04, 44.02 70.22, 36.74 71.04 C29.47 71.85, 20.01 70.69, 14.43 66.86 C8.85 63.03, 5.16 55.2, 3.27 48.07 C1.38 40.94, 1.4 31, 3.1 24.08 C4.79 17.17, 2.58 7.43, 13.45 6.58 C24.33 5.73, 59.9 10.66, 68.34 18.98 C76.78 27.29, 64.57 56.25, 64.09 56.49 M15.73 7.09 C20.89 3.39, 29.14 1.52, 36.55 1.77 C43.97 2.02, 54.47 4.22, 60.22 8.6 C65.96 12.98, 70.05 21.93, 71.04 28.06 C72.04 34.19, 68.96 39.03, 66.21 45.4 C63.45 51.77, 59.66 62.35, 54.51 66.27 C49.35 70.2, 42.47 69.36, 35.28 68.96 C28.1 68.56, 17.08 68.12, 11.4 63.87 C5.73 59.62, 2.7 49.75, 1.23 43.45 C-0.23 37.14, -0.2 31.91, 2.59 26.05 C5.38 20.19, 15.24 11.39, 17.97 8.31 C20.7 5.22, 19.46 7.84, 18.96 7.56" stroke="#000000" stroke-width="2" fill="none"></path></g></svg>
