<svg version="1.1" xmlns="http://www.w3.org/2000/svg" viewBox="0 0 676.7165651576433 311.781936899863" width="2030.14969547293" height="935.345810699589">
  <!-- svg-source:excalidraw -->
  
  <defs>
    <style class="style-fonts">
      @font-face {
        font-family: "Virgil";
        src: url("https://excalidraw.com/Virgil.woff2");
      }
      @font-face {
        font-family: "Cascadia";
        src: url("https://excalidraw.com/Cascadia.woff2");
      }
    </style>
  </defs>
  <g stroke-linecap="round"><g transform="translate(67.73819290457504 284.29327715958016) rotate(0 22.248313706664703 -24.804541320394094)" fill-rule="evenodd"><path d="M2.07 -1.88 L-0.66 -64.97 L42.54 -47.91 L40.01 11.48 L3.66 0.74" stroke="none" stroke-width="0" fill="#f68e09" fill-rule="evenodd"></path><path d="M-2.89 -0.07 C0.73 -12.69, -2.1 -29.9, 2.24 -64.97 M0.08 -1.09 C1.22 -23.72, 0.07 -51.31, 1.21 -66.3 M-0.67 -60.56 C14.54 -59.25, 33.58 -50.9, 47.38 -54.96 M0.77 -64.55 C13 -60.9, 27.4 -55.3, 45.19 -52.75 M41.17 -49.89 C41.15 -38.59, 42.23 -15.94, 47.03 11.17 M42.91 -52 C43.41 -33.38, 42.21 -12.2, 43.66 15.79 M42.62 16.7 C30.88 9.08, 19.19 6.73, -2.51 0.49 M43.23 15.15 C32.49 12.79, 19.72 8.68, 1.91 -0.59 M0 0 C0 0, 0 0, 0 0 M0 0 C0 0, 0 0, 0 0" stroke="#e67700" stroke-width="1" fill="none"></path></g></g><g stroke-linecap="round"><g transform="translate(77.17867292334631 212.8486064235932) rotate(0 39.47939367210438 -2.0207060672563557)" fill-rule="evenodd"><path d="M-0.19 -0.53 L38.78 14.98 L76.34 -2.53 L43.34 -11.72 L3.75 -3.09" stroke="none" stroke-width="0" fill="#f68e09" fill-rule="evenodd"></path><path d="M1.36 3.75 C12.17 6.95, 29.92 7.41, 44.03 11.47 M1.35 1.9 C8.89 2.81, 18.67 3.49, 42.1 11.44 M37.48 10.95 C48.02 10.66, 61.96 1.92, 79.55 1.3 M40.57 11.08 C52.72 9.77, 63.01 3.96, 78.69 0.94 M76.76 -2.91 C67.44 0.81, 62.22 -9.3, 39.79 -15.51 M80.49 -1.71 C65.33 -5.13, 51.72 -7.5, 38.94 -12.03 M38.55 -13.29 C29.05 -8.52, 18.71 -5.71, -1.53 -1.75 M39.92 -11 C22.9 -6.13, 10.38 -2.91, 0.39 -0.25 M0 0 C0 0, 0 0, 0 0 M0 0 C0 0, 0 0, 0 0" stroke="#e67700" stroke-width="1" fill="none"></path></g></g><g stroke-linecap="round"><g transform="translate(123.14331885138927 232.8936790764401) rotate(0 21.242431055808993 27.272983617936575)" fill-rule="evenodd"><path d="M-1.35 3.35 L-3.71 63.7 L47.4 51.89 L47.83 -15.48 L2.32 -0.58" stroke="none" stroke-width="0" fill="#f68e09" fill-rule="evenodd"></path><path d="M-1.34 2.97 C3.11 19.3, 4.23 39.5, -3.73 66.62 M0.39 -0.09 C2.53 14.47, 2.78 32.48, -1.59 66.37 M-1.48 68.89 C20.94 56.85, 34.57 55.52, 42.67 53.64 M1.68 67.67 C13.97 60.71, 24.43 58.39, 43.04 49.79 M41.8 54.81 C48.34 26.83, 45.06 5.62, 46.22 -14.34 M43.29 50.56 C43.57 35.97, 42.78 18.15, 42.72 -12.85 M42.71 -11.83 C25.59 -7.62, 10.65 -5.38, 3.71 -0.6 M42.93 -11.31 C30.82 -8.07, 14.11 -3.45, -1.73 -1.23 M0 0 C0 0, 0 0, 0 0 M0 0 C0 0, 0 0, 0 0" stroke="#e67700" stroke-width="1" fill="none"></path></g></g><g stroke-linecap="round"><g transform="translate(12.704408824982238 190.92678138317933) rotate(0 22.344107866314516 -26.30599208440941)" fill-rule="evenodd"><path d="M-3.52 -2.77 L3.19 -63.7 L47.64 -54.35 L45.85 13.67 L3.65 -0.17" stroke="none" stroke-width="0" fill="#f68e09" fill-rule="evenodd"></path><path d="M2.71 -0.53 C4.14 -25.52, -3.47 -50.57, -2.64 -61.73 M1.68 -1.87 C1.54 -25.63, -2.01 -50.99, 1.47 -65.76 M3.03 -68.13 C11.68 -60.19, 23.47 -55.04, 43.66 -50.38 M0.84 -65.93 C10.7 -60.69, 23.25 -59.15, 44.57 -52.81 M47.39 -54.34 C43.28 -39.82, 45.23 -24.23, 42.05 15.52 M44.02 -49.73 C42.78 -37.58, 42.08 -25.21, 44.74 13.69 M41.02 14.74 C29.94 8.65, 23.04 5.82, 1.79 0.47 M45.43 13.66 C27.86 9.17, 9.52 2.87, 0.85 0.07 M0 0 C0 0, 0 0, 0 0 M0 0 C0 0, 0 0, 0 0" stroke="#e67700" stroke-width="1" fill="none"></path></g></g><g stroke-linecap="round"><g transform="translate(22.144888843755325 119.48211064719226) rotate(0 39.595161449070474 -0.7593685485643391)" fill-rule="evenodd"><path d="M3.66 0.74 L43.88 8.54 L82.18 -0.34 L43.33 -12.62 L3.49 2.88" stroke="none" stroke-width="0" fill="#f68e09" fill-rule="evenodd"></path><path d="M3.9 -0.16 C11.64 4.61, 28.02 11.52, 43.93 12.41 M1.97 -0.19 C10.67 4.09, 25.86 6.3, 39.79 10.99 M39.82 12.69 C53.19 10.74, 68.35 5.03, 78.76 4 M38.96 12.32 C53.59 6.77, 69.28 2.48, 78.28 -0.72 M79.96 -2.81 C66.04 -7.3, 46.7 -9.05, 35.77 -13.36 M79.12 0.67 C67.62 -3.03, 59.34 -6.57, 39.26 -13.14 M38.15 -14.21 C30.77 -9.04, 16.38 -4.06, 2.91 -2.3 M40.08 -12.7 C24.14 -9.51, 12.68 -3.81, -0.77 -0.2 M0 0 C0 0, 0 0, 0 0 M0 0 C0 0, 0 0, 0 0" stroke="#e67700" stroke-width="1" fill="none"></path></g></g><g stroke-linecap="round"><g transform="translate(68.1095347718001 139.52718330003927) rotate(0 22.129918611381072 28.09225904368361)" fill-rule="evenodd"><path d="M3.75 -3.09 L2.13 65.89 L47.39 50.99 L47.57 -9.52 L-2.17 -2.33" stroke="none" stroke-width="0" fill="#f68e09" fill-rule="evenodd"></path><path d="M-3.54 0.15 C-0.93 21.76, 4.98 38.88, -0.37 69.83 M-1.39 -0.1 C3.21 12.41, 0.89 26.82, 1.01 68.22 M-1.26 68.95 C8.72 63.93, 16.97 63.63, 46.14 53.77 M-0.89 65.11 C10.57 61.16, 18.22 58.29, 45.57 52.91 M45.87 49.2 C42.3 38.26, 39.95 21.92, 42.9 -12.11 M42.38 50.7 C45.56 26.66, 44.05 2.61, 44.36 -13.65 M47.8 -12.99 C32.02 -8.44, 19.37 -7.34, 2.16 3.82 M42.35 -13.62 C33.07 -9.09, 19.53 -6, -1.44 0.36 M0 0 C0 0, 0 0, 0 0 M0 0 C0 0, 0 0, 0 0" stroke="#e67700" stroke-width="1" fill="none"></path></g></g><g stroke-linecap="round"><g transform="translate(123.02512834455229 190.382818099749) rotate(0 21.19006776607057 -25.631243795941884)" fill-rule="evenodd"><path d="M2.32 -0.58 L3.18 -64.6 L47.38 -48.39 L41.36 11.92 L-0.36 0.98" stroke="none" stroke-width="0" fill="#f68e09" fill-rule="evenodd"></path><path d="M-2.17 2.71 C4.8 -18.29, 0.68 -34.77, -4.2 -60.49 M1.94 -1.32 C0.42 -19.37, 1.83 -35.7, -2.32 -64.59 M-0.7 -63.56 C12.84 -56.93, 30.82 -53.77, 40.9 -53.6 M0.22 -65.99 C12.7 -60.39, 30.95 -53.26, 42.34 -51.21 M42.41 -50 C40.6 -37.52, 43.24 -21.68, 46.58 12.78 M45.11 -51.83 C42.46 -30.9, 43.04 -10.43, 43.77 13.49 M45.32 14.72 C35.01 8.17, 23.11 10.64, -1.19 0.79 M44.38 14.32 C30.48 9.42, 17.29 5.88, -1.47 -0.07 M0 0 C0 0, 0 0, 0 0 M0 0 C0 0, 0 0, 0 0" stroke="#e67700" stroke-width="1" fill="none"></path></g></g><g stroke-linecap="round"><g transform="translate(132.46560836332173 118.93814736376214) rotate(0 40.374660460184714 0.10333215219554859)" fill-rule="evenodd"><path d="M3.65 -0.17 L43.62 14.51 L77.69 -2.09 L39.32 -11.48 L-0.41 -3.52" stroke="none" stroke-width="0" fill="#f68e09" fill-rule="evenodd"></path><path d="M3.8 0.78 C11.89 6.36, 20.52 10.47, 39.75 8.85 M-0.34 -0.64 C13.28 5.71, 22.06 7.24, 40.66 11.1 M39.03 15.39 C56.93 9.95, 65.93 0.88, 81.24 -1.14 M38.55 10.66 C51.1 11.36, 56.95 7.01, 78.33 1.31 M75.95 -0.66 C68.67 -2.41, 62.82 -7.36, 40.53 -15.18 M79.44 -0.44 C68.84 -4.76, 57.66 -7.79, 38.81 -10.6 M42.59 -14.76 C30.64 -4.99, 15.98 -4.47, -0.49 -3.47 M38.91 -12.65 C28.88 -9.1, 19.37 -6.55, 1.66 -1.83 M0 0 C0 0, 0 0, 0 0 M0 0 C0 0, 0 0, 0 0" stroke="#e67700" stroke-width="1" fill="none"></path></g></g><g stroke-linecap="round"><g transform="translate(178.43025429136287 138.98322001660893) rotate(0 21.89455965790512 29.155085259904467)" fill-rule="evenodd"><path d="M3.49 2.88 L-2.36 64.14 L43.37 52.13 L43.67 -15.92 L-1.14 1.98" stroke="none" stroke-width="0" fill="#f68e09" fill-rule="evenodd"></path><path d="M-0.18 3.37 C-2.55 28.39, 0.74 46.1, -0.39 70.34 M1.21 1.75 C-2.12 15.38, 0.21 30.54, 1.05 66.35 M2.21 69.08 C11.05 58.38, 29.56 54.39, 41.02 52.52 M1.63 68.22 C8.28 63.54, 18.07 61.14, 42.76 50.41 M42.55 51.43 C48.15 28.61, 46.06 6.28, 43.18 -9.95 M44.02 49.9 C44.34 33.12, 43.31 18.48, 43.78 -11.5 M46.24 -8.57 C29.33 -8.25, 16.28 -8.64, -2.45 1.71 M42.64 -12.03 C29.14 -8.79, 18.9 -6.8, 1.72 1.78 M0 0 C0 0, 0 0, 0 0 M0 0 C0 0, 0 0, 0 0" stroke="#e67700" stroke-width="1" fill="none"></path></g></g><g stroke-linecap="round"><g transform="translate(179.6085953665788 97.38315350567518) rotate(0 21.605424922256134 -25.531940848420675)" fill-rule="evenodd"><path d="M-2.17 -2.33 L-0.83 -63.46 L43.48 -54.78 L42.39 16.23 L1.84 0.69" stroke="none" stroke-width="0" fill="#f68e09" fill-rule="evenodd"></path><path d="M-3.74 3.94 C-0.47 -23.36, -0.44 -37.29, -3.12 -65.12 M-1.85 -0.16 C-0.38 -17.79, 0.21 -34.63, -0.03 -64.99 M-3.45 -66.77 C18.55 -61.22, 31.92 -53.27, 40.79 -54.42 M-2.01 -64.38 C9.41 -60.83, 21.12 -59.32, 44.52 -53.22 M46.95 -52.74 C44.25 -35.81, 42.39 -12.47, 42.39 13.42 M44.13 -52.03 C43.1 -32, 43.58 -15.55, 43.76 15.71 M42.33 15.04 C32.32 8.16, 19.81 9.88, 0.13 -1.55 M42.05 14.19 C32.75 8.44, 20.19 7.92, 0.1 -1.8 M0 0 C0 0, 0 0, 0 0 M0 0 C0 0, 0 0, 0 0" stroke="#e67700" stroke-width="1" fill="none"></path></g></g><g stroke-linecap="round"><g transform="translate(189.0490753853519 25.938482769688335) rotate(0 39.43541420614292 -0.9353085853380207)" fill-rule="evenodd"><path d="M-0.36 0.98 L39.72 8.11 L78.72 2.22 L41.52 -11.76 L0.89 0.49" stroke="none" stroke-width="0" fill="#f68e09" fill-rule="evenodd"></path><path d="M-0.38 -2.78 C15 7.55, 27.96 7.46, 38.85 14.05 M0.53 -0.53 C16.57 4.46, 31.32 8.53, 42.01 12.83 M41.51 10.24 C52.1 9.31, 66.23 0.62, 77.92 3.91 M38.6 12.7 C54.73 6.46, 71.74 0.83, 79.41 -0.35 M80.71 -2.48 C66.43 -1.51, 53.87 -8.68, 38.31 -11.89 M78.98 2.1 C70 -2.18, 61 -4.64, 38.53 -11.38 M39.19 -15.92 C21.46 -5.66, 8.35 -3.99, -0.39 -2.88 M41.34 -14.29 C28.6 -6.74, 14.35 -6.36, -1.84 1.16 M0 0 C0 0, 0 0, 0 0 M0 0 C0 0, 0 0, 0 0" stroke="#e67700" stroke-width="1" fill="none"></path></g></g><g stroke-linecap="round"><g transform="translate(235.01372131339667 45.98355542253512) rotate(0 22.166351989533723 27.425034278859698)" fill-rule="evenodd"><path d="M-0.41 -3.52 L-1.33 68.44 L45.58 51.85 L44.97 -11.91 L1.11 -2.88" stroke="none" stroke-width="0" fill="#f68e09" fill-rule="evenodd"></path><path d="M-0.2 3.88 C-2.85 25.81, -1.56 55.41, 3.3 62.77 M1.24 -0.11 C0.73 18.87, 2.11 40.04, 1.11 64.98 M-2.91 67.84 C7.21 59.92, 18.99 63.03, 47.24 48.07 M-1.17 65.73 C13.97 59.41, 26.18 56.14, 43.88 52.68 M42.83 53.59 C42.43 33.6, 42.28 18.28, 41.57 -11.91 M43.44 52.05 C44.62 35.97, 43.32 18.97, 45.99 -12.99 M41.63 -10.68 C30.09 -10.74, 15.47 -8.11, 0.72 -2.95 M45.8 -10.61 C31.31 -11.33, 16.3 -4.69, 1.65 0.36 M0 0 C0 0, 0 0, 0 0 M0 0 C0 0, 0 0, 0 0" stroke="#e67700" stroke-width="1" fill="none"></path></g></g><g stroke-linecap="round"><g transform="translate(290.771216565483 96.7805053866881) rotate(0 20.37157368942644 -26.791951031278188)" fill-rule="evenodd"><path d="M-1.14 1.98 L1.37 -63.74 L44.78 -50.78 L44.64 11.37 L-2.92 1.5" stroke="none" stroke-width="0" fill="#f68e09" fill-rule="evenodd"></path><path d="M-2.65 -0.69 C-1.33 -12.43, 3.34 -33.4, -0.78 -63.38 M0.44 -0.55 C0.95 -16.41, 0.25 -36.71, -1.64 -63.75 M-3.57 -67.59 C9.18 -57.59, 26.39 -60.83, 43.99 -54.32 M0.16 -66.39 C14.62 -60.05, 30.89 -53.27, 43.15 -50.84 M42.75 -52.1 C42.13 -35.5, 40.91 -20.39, 41.99 12.51 M44.12 -49.81 C42.4 -24.44, 45.32 -0.37, 43.92 14.01 M43.66 12.71 C34.02 8.71, 25.85 5.6, -0.14 3.31 M43.62 12.45 C32.38 13.22, 26.8 9.45, 1.04 -0.94 M0 0 C0 0, 0 0, 0 0 M0 0 C0 0, 0 0, 0 0" stroke="#e67700" stroke-width="1" fill="none"></path></g></g><g stroke-linecap="round"><g transform="translate(300.2116965842524 25.33583465070126) rotate(0 39.1628184000956 -0.021683583430672115)" fill-rule="evenodd"><path d="M1.84 0.69 L41.02 12.12 L80.97 -2.64 L36.76 -10.96 L-2.42 2.94" stroke="none" stroke-width="0" fill="#f68e09" fill-rule="evenodd"></path><path d="M-1.28 2.42 C19.27 1.06, 31.39 10.43, 39.06 14.11 M1.88 1.2 C13.17 2.15, 22.5 7.76, 39.44 10.27 M38.2 15.29 C57.09 5.37, 66.97 1.59, 82 -1.7 M39.68 11.04 C50.65 10.94, 60.23 6.84, 78.5 -0.21 M78.49 0.81 C62.92 -4.02, 49.39 -10.84, 43.4 -13.05 M78.71 1.33 C67.89 -4.14, 52.52 -8.18, 37.95 -13.68 M39.29 -15.34 C26.81 -11.44, 12.35 -0.91, -3.67 3.44 M37.84 -11.3 C25.91 -7.97, 9.86 -4.42, -0.1 -0.26 M0 0 C0 0, 0 0, 0 0 M0 0 C0 0, 0 0, 0 0" stroke="#e67700" stroke-width="1" fill="none"></path></g></g><g stroke-linecap="round"><g transform="translate(346.17634251229356 45.38090730354804) rotate(0 22.74206829985269 26.328494245042407)" fill-rule="evenodd"><path d="M0.89 0.49 L0.92 63.59 L40.81 52.65 L41.66 -9.46 L2.39 -3.61" stroke="none" stroke-width="0" fill="#f68e09" fill-rule="evenodd"></path><path d="M3.5 -3.69 C-0.79 19.86, -1.61 40.09, -0.42 67.34 M1.31 -1.49 C0.03 18.81, 0.45 34.87, 0.49 64.92 M3.31 63.38 C9.77 59.22, 21.52 56.94, 42.26 52.42 M-0.06 68 C8.02 64.05, 16.29 60.08, 44.96 50.59 M41.23 51.64 C42.74 31.66, 48.08 15.08, 45.87 -11.92 M45.65 50.56 C44.99 27.22, 42.99 2.56, 44.94 -12.33 M44.8 -15.34 C32.4 -6.48, 17.35 -3.12, 3.56 0.19 M45.73 -12.04 C35.64 -10.22, 25.26 -6.95, -0.67 1.67 M0 0 C0 0, 0 0, 0 0 M0 0 C0 0, 0 0, 0 0" stroke="#e67700" stroke-width="1" fill="none"></path></g></g><g transform="translate(231.2794324228089 104.52287889337686) rotate(0 211.57810473615518 71.7213914359848)"><text x="0" y="100.44278287196954" font-family="Virgil, Segoe UI Emoji" font-size="114.7542262975755px" fill="#000000" text-anchor="start" style="white-space: pre;" direction="ltr">Amazon</text></g><g transform="translate(230.24047969708408 199.8997552017761) rotate(0 218.23804273027963 42.791773084368515)"><text x="0" y="59.58354616873706" font-family="Virgil, Segoe UI Emoji" font-size="68.46683693498966px" fill="#000000" text-anchor="start" style="white-space: pre;" direction="ltr">Web Services</text></g></svg>
