<svg version="1.1" xmlns="http://www.w3.org/2000/svg" viewBox="0 0 220.09141002301567 214.14783908780186" width="440.18282004603134" height="428.2956781756037">
  <!-- svg-source:excalidraw -->
  
  <defs>
    <style class="style-fonts">
      @font-face {
        font-family: "Virgil";
        src: url("https://excalidraw.com/Virgil.woff2");
      }
      @font-face {
        font-family: "Cascadia";
        src: url("https://excalidraw.com/Cascadia.woff2");
      }
    </style>
  </defs>
  <g stroke-linecap="round"><g transform="translate(28.883296201564008 200.00444336204214) rotate(0 1.7817620057253407 -92.85736686095241)"><path d="M-0.65 1.48 C-0.15 -29.55, 1.68 -155.6, 2.4 -187.19 M4.2 -0.19 C4.46 -30.69, 0.84 -152.94, 0.67 -183.87" stroke="#000000" stroke-width="2" fill="none"></path></g></g><g stroke-linecap="round"><g transform="translate(30.362578024078175 13.370019516191974) rotate(0 -9.441762965785529 0.24469204777192743)"><path d="M1.48 0.92 C-1.32 1.4, -14.46 2.43, -17.82 2.24 M-1.16 -1.04 C-4.29 -1.26, -17.01 -2.19, -20.36 -1.56" stroke="#000000" stroke-width="2" fill="none"></path></g></g><g stroke-linecap="round"><g transform="translate(13.10102457195535 13.370019516191974) rotate(0 1.6156266382376998 22.02569163591626)"><path d="M0.92 -0.56 C1.91 6.62, 4.94 37.11, 5.25 44.54 M-2.02 -3.33 C-1.15 4.06, 3.75 39.15, 4.23 47.38" stroke="#000000" stroke-width="2" fill="none"></path></g></g><g stroke-linecap="round"><g transform="translate(15.486488967866535 59.97719349375939) rotate(0 7.173481871233889 -1.6511465272260466)"><path d="M-0.56 2.24 C1.37 1.16, 10.86 -4.71, 13.04 -5.54 M-4.31 0.99 C-1.58 0.28, 14.89 -0.73, 18.65 -2.04" stroke="#000000" stroke-width="2" fill="none"></path></g></g><g stroke-linecap="round"><g transform="translate(32.81661839851404 54.73113113643126) rotate(0 18.664154588948804 14.79742232086376)"><path d="M2.24 -1.44 C8.3 3.4, 31.01 23.62, 37.32 28.48 M0.01 3.94 C5.6 9.14, 28.34 26.8, 34.95 31.04" stroke="#000000" stroke-width="2" fill="none"></path></g></g><g stroke-linecap="round"><g transform="translate(70.37666149467805 85.81074426177724) rotate(0 -19.932834220247514 21.33387956478256)"><path d="M-1.44 -0.24 C-8.49 6.97, -35.81 38.49, -42.83 45.51 M2.97 -2.84 C-3.14 3.44, -30.64 34.01, -37.5 41.88" stroke="#000000" stroke-width="2" fill="none"></path></g></g><g stroke-linecap="round"><g transform="translate(29.064532716243775 126.57426521199409) rotate(0 19.692227009976705 17.783453684096546)"><path d="M-0.24 -1.97 C6.59 4.17, 36.57 28.72, 43.2 35.39 M-3.82 3.13 C2.67 9.63, 35.52 31.22, 42.34 37.54" stroke="#000000" stroke-width="2" fill="none"></path></g></g><g stroke-linecap="round"><g transform="translate(69.72518969866906 164.6829161363737) rotate(0 -18.979008973150485 18.635017514710377)"><path d="M-1.97 2.54 C-8.42 8.05, -34.19 27.79, -40.11 32.79 M2.15 1.45 C-3.34 7.36, -28.27 30.24, -35.18 35.82" stroke="#000000" stroke-width="2" fill="none"></path></g></g><g stroke-linecap="round"><g transform="translate(29.549462850112832 202.17438325400917) rotate(0 21.221278172951315 -2.078948204069434)"><path d="M2.54 -2.72 C9.57 -3.41, 35.44 -5.24, 41.97 -6.13 M0.47 1.97 C7.06 1.93, 32.68 -1.22, 39.13 -2.55" stroke="#000000" stroke-width="2" fill="none"></path></g></g><g stroke-linecap="round"><g transform="translate(72.62987221771073 196.13969714361838) rotate(0 -2.8624449606945745 -73.34408993931955)"><path d="M-2.72 -1.11 C-3.13 -25.8, -3.83 -121.69, -4.43 -145.58 M1 -4.18 C0.38 -27.3, -6.46 -119.81, -6.72 -142.69" stroke="#000000" stroke-width="2" fill="none"></path></g></g><g stroke-linecap="round"><g transform="translate(26.488035237294753 48.95605408760866) rotate(0 91.24575840168427 -0.07927332436303658)"><path d="M-1.11 -0.1 C28.12 0.34, 147.91 -0.17, 177.95 -0.08 M3.48 -2.62 C33.43 -1.63, 154.66 1.57, 183.6 2.46" stroke="#000000" stroke-width="2" fill="none"></path></g></g><g stroke-linecap="round"><g transform="translate(205.8044225174599 50.88107977054938) rotate(0 -18.200381426862805 -13.346303911153662)"><path d="M-0.1 -1.37 C-5.69 -6.31, -30.35 -26.35, -36.3 -30.75 M-3.59 4.06 C-8.06 -0.32, -25.18 -21.27, -30.99 -27.25" stroke="#000000" stroke-width="2" fill="none"></path></g></g><g stroke-linecap="round"><g transform="translate(171.50663668551897 20.36476932596247) rotate(0 -70.00968973170393 -1.255748044339029)"><path d="M-1.37 -2.01 C-24.64 -2.92, -118 -5.56, -140.74 -5.59 M3.08 3.08 C-20.48 2.51, -119.57 -1.15, -143.1 -2.78" stroke="#000000" stroke-width="2" fill="none"></path></g></g><g stroke-linecap="round"><g transform="translate(31.954520382745613 46.66855537530955) rotate(0 14.502562221340668 -13.649197138860082)"><path d="M-2.01 -0.23 C2.25 -3.93, 20.29 -19.12, 25.43 -23.55 M2.1 -2.83 C7.29 -7.11, 26.69 -23.55, 31.01 -27.07" stroke="#000000" stroke-width="2" fill="none"></path></g></g><g stroke-linecap="round"><g transform="translate(58.904879943918786 19.747585519217978) rotate(0 16.31213908271593 14.785700060832419)"><path d="M-0.23 -1.52 C6.07 4, 30.86 25.87, 36.43 31.09 M-3.8 3.83 C2.5 8.74, 29.86 22.19, 35.68 27.1" stroke="#000000" stroke-width="2" fill="none"></path></g></g><g stroke-linecap="round"><g transform="translate(92.58548196911761 48.95605408760866) rotate(0 12.632904163497642 -11.3169343327462)"><path d="M-1.52 2.75 C3.28 -1.44, 22.28 -20.61, 26.78 -25.38 M2.85 1.77 C7.63 -1.96, 22.04 -17.83, 25.57 -22.01" stroke="#000000" stroke-width="2" fill="none"></path></g></g><g stroke-linecap="round"><g transform="translate(117.48835874283577 23.42619693878237) rotate(0 12.295983487127614 12.360531213995529)"><path d="M2.75 1.88 C6.75 6.18, 20.38 20.23, 23.8 24.29 M0.79 0.43 C4.4 3.97, 17.94 16, 21.3 19.61" stroke="#000000" stroke-width="2" fill="none"></path></g></g><g stroke-linecap="round"><g transform="translate(141.47035809062254 46.52160684989417) rotate(0 17.00337726278576 -13.582507746352235)"><path d="M1.88 -0.48 C7.89 -5.38, 28.78 -22.38, 34.55 -26.69 M-0.54 -3.21 C5.29 -6.53, 26.54 -20.2, 32.64 -23.6" stroke="#000000" stroke-width="2" fill="none"></path></g></g><g stroke-linecap="round"><g transform="translate(144.59546339778717 50.70963982423177) rotate(0 -4.295736207673599 17.82644504436346)"><path d="M-0.48 0.61 C-1.83 6.49, -4.58 31.28, -5.33 37.18 M-4.18 -1.53 C-6.24 3.46, -7.62 28.1, -8.11 33.55" stroke="#000000" stroke-width="2" fill="none"></path></g></g><g stroke-linecap="round"><g transform="translate(140.25558361385447 85.3405089804478) rotate(0 -23.363538180865817 9.18053912391654)"><path d="M0.61 -0.99 C-7.45 2.27, -38.44 15.27, -46.48 19.09 M-2.5 -4 C-10.88 -0.28, -39.63 18.77, -47.34 22.36" stroke="#000000" stroke-width="2" fill="none"></path></g></g><g stroke-linecap="round"><g transform="translate(91.22375896693484 105.08549251208979) rotate(0 51.08972032695419 0.8107638310610792)"><path d="M-0.99 2.55 C16.28 2.94, 85.34 3.11, 103.17 2.95 M3.66 1.46 C20.55 0.97, 83.63 -1.87, 100.58 -1.32" stroke="#000000" stroke-width="2" fill="none"></path></g></g><g stroke-linecap="round"><g transform="translate(195.05268874123612 106.67743487075631) rotate(0 -24.24307641139012 -13.073195606099521)"><path d="M2.55 -0.65 C-5.81 -4.1, -40.64 -18.08, -49.54 -21.66 M0.49 -3.48 C-8.17 -7.59, -42.18 -21.61, -51.04 -25.49" stroke="#000000" stroke-width="2" fill="none"></path></g></g><g stroke-linecap="round" transform="translate(89.36241097834136 107.46605862381807) rotate(0 55.19141700391356 33.43323867408143)"><path d="M2.69 0.59 L110.29 -3.02 L112.93 70.63 L1.56 65.53" stroke="none" stroke-width="0" fill="#fab005"></path><path d="M1.95 3.11 C29.25 2.95, 55.59 -1.03, 107.57 2.75 M1.58 1.42 C25.75 -0.56, 53.48 -0.07, 112.26 -0.44 M109.68 3.56 C110.13 19.74, 107.55 42.46, 111.31 64.49 M111.77 -0.46 C113.53 15.42, 111.23 33.14, 109.03 66.93 M109.33 70.54 C68.89 66.36, 29.58 64.79, -2.21 66.73 M111.95 67.72 C83.96 65.94, 57.44 67.74, -0.18 64.92 M1.03 63.62 C3.23 41.1, -3.44 20.43, 3.39 -3.53 M1.37 66.72 C1.08 48.48, 1.98 30.07, 0.92 -0.35" stroke="#000000" stroke-width="2" fill="none"></path></g><g stroke-linecap="round" transform="translate(11.117219478846891 10) rotate(0 8.488726484826657 25.975601009252706)"><path d="M0.59 -0.1 L13.96 2.55 L20.74 53.51 L-1.33 50.07" stroke="none" stroke-width="0" fill="#fab005"></path><path d="M2.64 0.05 C8.7 -2.54, 11.97 -2.55, 19.31 -1.7 M1.21 -1.56 C5.88 -1.71, 11.95 1.33, 16.6 0.8 M20.54 -1.18 C14.49 15.41, 14 39.27, 14.61 50.27 M16.52 1.98 C16.07 19.8, 16.54 38.88, 17.04 53.27 M20.09 51.03 C10.57 51.87, 3.78 49.98, -0.12 50.03 M17.7 52.33 C9.71 52.9, 5.2 52.07, -1.65 52.79 M-3.25 54.74 C-2.55 34.21, 0.13 27.62, -3.53 -1.2 M-0.15 51.93 C-0.85 41.53, -1.2 30.28, -0.35 1.34" stroke="#000000" stroke-width="2" fill="none"></path></g><g stroke-linecap="round" transform="translate(120.97792765748818 109.20814129236237) rotate(90.5965581106519 24.25710044502739 31.832888694879717)"><path d="M-0.1 -3.02 L51.06 3.76 L50.08 62.33 L-1.88 67.18" stroke="none" stroke-width="0" fill="#fff"></path><path d="M0.06 2.43 C10.63 -2.3, 24.03 1.99, 46.51 1.34 M-1.84 0.25 C14.63 0.04, 34.53 -1.13, 49.46 1.38 M47.34 -3.48 C44.54 21.23, 49.22 48.03, 46.83 67.16 M50.5 -1.83 C49.07 23.39, 48.04 49.56, 49.84 64.09 M47.43 62.55 C32.62 61.86, 14.49 64.42, -2.26 65.88 M48.96 62.22 C33.61 64.43, 16.92 62.13, 0.99 63 M2.79 61.26 C-4.21 43.94, 3.06 20.13, -1.2 -3.3 M-0.02 63.33 C0 40.7, 0.05 18.75, 1.34 0.3" stroke="#000000" stroke-width="1" fill="none"></path></g><g stroke-linecap="round" transform="translate(155.1192124942081 125.78043279932558) rotate(90.5965581106519 4.318864611395838 5.201380030739886)"><path d="M-3.02 2.55 L12.4 1.56 L7.3 8.53 L3.51 6.42" stroke="none" stroke-width="0" fill="#fab005"></path><path d="M1.05 -1.21 C2.35 -1.22, 7.21 -0.87, 9.22 0.63 M0.11 -0.73 C3.59 0.97, 6.35 0.57, 9.23 0.83 M6.83 -1.95 C6.76 3.42, 7.59 5, 10.45 12.25 M7.68 -0.17 C7.88 3.14, 8.62 8.37, 8.86 10.69 M8.15 10.41 C5.11 9.4, 3.85 9.38, 0.96 10.81 M8.01 10.75 C5.52 10.36, 1.26 10.87, -0.29 10.53 M-1.25 8.38 C0.31 8.78, -1.67 3, -1.72 1.04 M-0.17 10.86 C-0.34 7.05, -0.17 3.44, 0.15 -0.03" stroke="#000000" stroke-width="1" fill="none"></path></g><g stroke-linecap="round" transform="translate(139.30741993529045 124.25958062063046) rotate(90.5965581106519 4.318864611395838 5.201380030739886)"><path d="M2.55 3.76 L10.2 -1.33 L6.76 13.91 L-3.98 12.22" stroke="none" stroke-width="0" fill="#fd7e14"></path><path d="M-1.21 -0.67 C2.05 1.08, 5.66 0.48, 9.27 1.36 M-0.73 0.32 C4.02 -0.21, 6.82 0.57, 9.47 -0.15 M6.68 -2.07 C9.06 2.81, 7.7 9.91, 10.48 11.84 M8.47 -0.71 C8.14 2.91, 9.53 5.99, 8.93 10.13 M8.64 9.24 C4.3 10.29, 0.89 11.31, 0.41 11.76 M8.99 10.55 C5.6 9.44, 3.14 9.99, 0.12 10.63 M-2.02 10.55 C1.62 6.29, -0.77 4.13, 1.04 1.42 M0.45 10.05 C0.48 7.18, 0.7 4.47, -0.03 -0.78" stroke="#000000" stroke-width="1" fill="none"></path></g><g stroke-linecap="round" transform="translate(123.28862236048553 124.0122211734656) rotate(90.5965581106519 4.318864611395838 5.201380030739886)"><path d="M3.76 1.56 L7.3 -1.88 L12.15 6.42 L1.81 8.43" stroke="none" stroke-width="0" fill="#fab005"></path><path d="M-0.67 -1.21 C3.79 -0.74, 5.79 0.75, 10 1.23 M0.32 0.81 C1.61 0.55, 4.19 0.97, 8.49 0.77 M6.57 0.48 C7.22 1.94, 10.27 7.48, 10.08 9.93 M7.93 -0.7 C8.48 4.84, 8.67 8.6, 8.36 11.36 M7.47 9.45 C6.22 9.43, 4.88 10.81, 1.36 11.14 M8.79 10.33 C5.01 10.9, 2.78 10.59, 0.22 9.7 M0.15 12.17 C-1.71 5.93, -1.59 3.75, 1.42 -0.15 M-0.36 10.88 C-0.15 7.99, 0.19 4.16, -0.78 0.66" stroke="#000000" stroke-width="1" fill="none"></path></g><g stroke-linecap="round"><g transform="translate(150.08106183844757 148.8831993762551) rotate(90.5965581106519 10.327607189473383 0.7007313367260135)"><path d="M-1.08 -1.97 C2.26 -1.82, 18.1 -1.62, 21.73 -1.07 M3.53 3.13 C6.52 3.81, 17.89 2.92, 20.54 1.8" stroke="#000000" stroke-width="1" fill="none"></path></g></g><g stroke-linecap="round"><g transform="translate(134.65213081842558 150.01389327356833) rotate(90.5965581106519 9.434091612662996 -0.896322583616957)"><path d="M-1.97 1.92 C0.89 2.23, 11.93 0.73, 15.2 0.74 M2.16 0.5 C6.13 0.03, 18.47 -3.29, 20.84 -3.76" stroke="#000000" stroke-width="1" fill="none"></path></g></g><g stroke-linecap="round"><g transform="translate(116.61665686017113 149.48566367931994) rotate(90.5965581106519 9.129321643894855 0.2867495530843742)"><path d="M1.92 -1.4 C5.23 -0.9, 15.72 0.46, 18.74 1.02 M-0.48 4.01 C2.64 3.82, 13.7 -2.36, 17.01 -3.43" stroke="#000000" stroke-width="1" fill="none"></path></g></g><g stroke-linecap="round"><g transform="translate(180.6566315347136 139.82902220445794) rotate(0 -7.320120534407579 -7.656936497716712)"><path d="M0.94 1.02 C-1.8 -0.81, -11.17 -9.89, -14.54 -12.41 M-1.99 -0.89 C-5.08 -3.38, -13.6 -14.69, -15.58 -16.34" stroke="#000000" stroke-width="2" fill="none"></path></g></g></svg>
