<svg version="1.1" xmlns="http://www.w3.org/2000/svg" viewBox="0 0 635.7768867513842 625.6513410940956" width="1271.5537735027683" height="1251.3026821881913">
  <!-- svg-source:excalidraw -->
  
  <defs>
    <style class="style-fonts">
      @font-face {
        font-family: "Virgil";
        src: url("https://excalidraw.com/Virgil.woff2");
      }
      @font-face {
        font-family: "Cascadia";
        src: url("https://excalidraw.com/Cascadia.woff2");
      }
    </style>
  </defs>
  <g stroke-linecap="round"><g transform="translate(65.87138248720294 607.532651413972) rotate(0 2.252495239649761 -293.49395206884674)"><path d="M-0.37 1.73 C-0.06 -96.7, 2.25 -490.73, 3.01 -588.72 M-4.02 0.2 C-2.9 -98.08, 7.49 -488.9, 8.52 -586.06" stroke="#000000" stroke-width="2" fill="none"></path></g></g><g stroke-linecap="round"><g transform="translate(70.52347995374112 20.59815581780913) rotate(0 -27.169074257653847 1.1553809147017091)"><path d="M1.73 -1.64 C-7.93 -1.65, -46.85 -0.9, -56.07 -0.44 M-0.77 3.64 C-9.7 4.1, -41.6 4.19, -50.64 2.95" stroke="#000000" stroke-width="2" fill="none"></path></g></g><g stroke-linecap="round"><g transform="translate(16.238739979962702 20.59815581780913) rotate(0 3.69496698963394 71.7605010456789)"><path d="M-1.64 -1.78 C-0.08 22.14, 6.99 121.32, 9.03 145.31 M2.66 3.42 C3.85 26.3, 5.43 117.26, 6.55 140.68" stroke="#000000" stroke-width="2" fill="none"></path></g></g><g stroke-linecap="round"><g transform="translate(23.74063225216196 167.17003460625892) rotate(0 22.22798646404317 -10.201400666977406)"><path d="M-1.78 -0.44 C5.63 -2.76, 38.76 -12.91, 46.24 -15.55 M2.44 -3.15 C9.4 -6.18, 36.7 -18.32, 44.38 -19.96" stroke="#000000" stroke-width="2" fill="none"></path></g></g><g stroke-linecap="round"><g transform="translate(78.24103237339477 150.67203332591907) rotate(0 57.55369159764814 47.11252320915082)"><path d="M-0.44 0.71 C19.7 16.55, 99.42 77.25, 119.23 93.31 M-4.13 -1.38 C15.9 14.89, 97.44 80, 117.6 95.61" stroke="#000000" stroke-width="2" fill="none"></path></g></g><g stroke-linecap="round"><g transform="translate(196.36117599397767 248.41229301196427) rotate(0 -65.12777283762625 69.26689397311952)"><path d="M0.71 1.11 C-20.82 23.76, -109.64 113.04, -130.96 135.47 M-2.36 -0.75 C-22.88 22.45, -104.9 115.97, -125.89 139.29" stroke="#000000" stroke-width="2" fill="none"></path></g></g><g stroke-linecap="round"><g transform="translate(66.44134144833151 376.60684637796203) rotate(0 63.24322681423928 59.34103940271211)"><path d="M1.11 -2.46 C22.56 17.61, 106.99 100.49, 128.21 121.14 M-1.73 2.38 C19.41 21.55, 104.71 97.77, 126.16 116.83" stroke="#000000" stroke-width="2" fill="none"></path></g></g><g stroke-linecap="round"><g transform="translate(194.31240459314904 496.4522711781865) rotate(0 -58.2092015532362 52.636039222582895)"><path d="M-2.46 0.34 C-21.96 18.03, -97.36 89.81, -116.29 107.21 M1.4 -1.94 C-18.42 14.74, -98.1 84.38, -117.82 102.52" stroke="#000000" stroke-width="2" fill="none"></path></g></g><g stroke-linecap="round"><g transform="translate(67.96636677676725 614.3567546513123) rotate(0 66.57405602742983 -10.119339102997856)"><path d="M0.34 1.29 C22.84 -1.19, 113.85 -13.87, 136.06 -17.39 M-2.91 -0.47 C19.16 -3.55, 110.42 -18.75, 134.14 -21.53" stroke="#000000" stroke-width="2" fill="none"></path></g></g><g stroke-linecap="round"><g transform="translate(203.4471522675085 595.3786616752341) rotate(0 -6.060364056127582 -227.39486578490755)"><path d="M1.29 0.58 C-0.3 -75.37, -9.41 -379.69, -12.04 -455.37 M-1.45 -1.57 C-3.05 -77.24, -10.87 -377.96, -13.42 -452.76" stroke="#000000" stroke-width="2" fill="none"></path></g></g><g stroke-linecap="round"><g transform="translate(58.338681622510194 132.51036805092463) rotate(0 282.44595043568097 4.1877089001563945)"><path d="M0.58 1.59 C94.2 2.24, 468.16 4.83, 562.05 5.21 M-2.55 -0.01 C91.94 0.93, 473.32 7.41, 567.44 8.39" stroke="#000000" stroke-width="2" fill="none"></path></g></g><g stroke-linecap="round"><g transform="translate(622.2591586259296 138.56425647592232) rotate(0 -54.90117685855512 -46.32955472281924)"><path d="M1.59 -1.87 C-16.74 -17.96, -90.1 -80.23, -108.7 -95.95 M-0.99 3.29 C-19.89 -12.37, -94.17 -76.23, -111.39 -92.31" stroke="#000000" stroke-width="2" fill="none"></path></g></g><g stroke-linecap="round"><g transform="translate(514.3982763057265 42.595490858261655) rotate(0 -220.87466593080535 -7.887118803722387)"><path d="M-1.87 -0.84 C-75.61 -3.59, -368.47 -12.87, -441.83 -14.93 M2.31 -3.76 C-71.85 -6.37, -369.68 -11.36, -444.06 -12.46" stroke="#000000" stroke-width="2" fill="none"></path></g></g><g stroke-linecap="round"><g transform="translate(75.52987623395711 125.31656170366159) rotate(0 43.512373012948956 -41.44109959829234)"><path d="M-0.84 0.02 C12.67 -13.48, 68.43 -69.25, 82.62 -82.9 M3.9 -2.43 C18.14 -15.31, 74.81 -65.3, 87.86 -79.39" stroke="#000000" stroke-width="2" fill="none"></path></g></g><g stroke-linecap="round"><g transform="translate(160.2843141839312 40.65454953116296) rotate(0 51.147773784914534 46.32516500455381)"><path d="M0.02 -2.13 C17.95 13.24, 87.92 75.46, 105.71 91.4 M-3.41 2.88 C14.3 18.77, 85.22 80.45, 103.35 94.78" stroke="#000000" stroke-width="2" fill="none"></path></g></g><g stroke-linecap="round"><g transform="translate(266.20425517703734 132.51036805092463) rotate(0 37.86361686960663 -41.147229024143144)"><path d="M-2.13 -0.21 C10.98 -13.14, 64.18 -64.11, 77.86 -77.51 M1.9 -2.8 C14.68 -16.61, 62.52 -69.42, 75.38 -82.08" stroke="#000000" stroke-width="2" fill="none"></path></g></g><g stroke-linecap="round"><g transform="translate(344.5196972958456 52.22317601252189) rotate(0 36.688107204810876 36.4719932409771)"><path d="M-0.21 -0.45 C12.64 12.59, 64.78 64.01, 77.15 76.11 M-3.77 -3.17 C8.78 9.26, 61.45 59.14, 75.35 72" stroke="#000000" stroke-width="2" fill="none"></path></g></g><g stroke-linecap="round"><g transform="translate(419.93913172025714 124.85443281625658) rotate(0 52.11988692922023 -41.14744142903237)"><path d="M-0.45 0.81 C17.97 -13.01, 90.91 -69.44, 108.39 -83.1 M-4.15 -1.22 C14.24 -14.74, 88.02 -67.89, 107.04 -80.73" stroke="#000000" stroke-width="2" fill="none"></path></g></g><g stroke-linecap="round"><g transform="translate(429.76707272572276 138.02510610728496) rotate(0 -7.573777759098448 54.51191616499227)"><path d="M0.81 1.65 C-1.82 19.49, -13.48 89.17, -15.96 106.58 M-2.2 0.08 C-3.94 18.23, -8.5 91.01, -10.81 108.95" stroke="#000000" stroke-width="2" fill="none"></path></g></g><g stroke-linecap="round"><g transform="translate(416.1188662510431 246.93348057226876) rotate(0 -77.43734255135769 31.424243263491235)"><path d="M1.65 -2.31 C-24.36 7.85, -130.08 50.9, -156.52 61.73 M-0.9 2.61 C-26.01 13.14, -126.25 54.58, -151.38 65.16" stroke="#000000" stroke-width="2" fill="none"></path></g></g><g stroke-linecap="round"><g transform="translate(261.9218608204228 309.02819874318175) rotate(0 161.9247079905972 0.9977969755539107)"><path d="M-2.31 -2.33 C51.92 -2.23, 271.26 1.26, 326.16 2.21 M1.64 2.58 C55.38 2.76, 269.73 3.82, 323.72 4.32" stroke="#000000" stroke-width="2" fill="none"></path></g></g><g stroke-linecap="round"><g transform="translate(588.4467283641679 314.03459502339774) rotate(0 -80.62795145651853 -39.75523034392245)"><path d="M-2.33 -0.37 C-29.74 -12.39, -136.3 -62.41, -162.86 -74.43 M1.61 -3.04 C-25.15 -15.76, -131.75 -66.87, -157.98 -79.14" stroke="#000000" stroke-width="2" fill="none"></path></g></g><g stroke-linecap="round" transform="translate(256.0682282466332 316.51468671913335) rotate(0 173.56790796099358 105.14202403263903)"><path d="M2.57 2.62 L347.25 -0.94 L343.47 214.1 L1.02 209.58" stroke="none" stroke-width="0" fill="#fab005"></path><path d="M-2.62 0.52 C74 2.94, 153.12 3.02, 348.97 -0.41 M0.68 -1 C73.53 -3.91, 147.43 -3.84, 347.31 -0.57 M346.64 -0.53 C347.42 81.59, 347.45 160.49, 344.1 209.91 M347.74 -1.34 C345.11 49.72, 346.27 98.43, 347.05 210.79 M347.45 210.6 C218.27 214.2, 92.19 211.65, 2.05 211.69 M347.22 209.21 C251.66 209.34, 157.38 210.15, -0.66 210.39 M1.81 210.35 C3.35 147.04, 0.9 81.43, 2.59 -0.61 M-1.01 208.97 C0.93 157.44, 3.67 103.12, 0.89 -0.09" stroke="#000000" stroke-width="2" fill="none"></path></g><g stroke-linecap="round"><g transform="translate(365.7314132277115 449.1918902929551) rotate(0 -20.62583462043858 -17.1620237420625)"><path d="M-2.8 0.56 C-9.43 -4.59, -36.22 -25.95, -42.13 -31.23 M0.88 -1.61 C-4.62 -7.45, -29.99 -29.27, -36.63 -34.88" stroke="#000000" stroke-width="2" fill="none"></path></g></g><g stroke-linecap="round"><g transform="translate(325.24892269108204 415.4564815124304) rotate(0 19.461116067634066 -23.49840990721964)"><path d="M0.56 -1.65 C7.54 -8.98, 34.67 -39.23, 41.51 -46.79 M-2.59 3.62 C4.28 -4.22, 33.33 -41.44, 40.63 -50.62" stroke="#000000" stroke-width="2" fill="none"></path></g></g><g stroke-linecap="round"><g transform="translate(455.3690130879313 364.5452824167055) rotate(0 -25.665641842583682 64.12176011355723)"><path d="M-1.65 2.51 C-10.01 23.55, -44.34 106.63, -52.92 126.85 M2.65 1.4 C-5.63 21.67, -44.56 102.36, -53.98 123.24" stroke="#000000" stroke-width="2" fill="none"></path></g></g><g stroke-linecap="round"><g transform="translate(485.761689582896 462.57822373143927) rotate(0 30.214032775795204 -22.049459949391576)"><path d="M2.51 2.18 C12.41 -4.6, 50.93 -34.18, 60.01 -42.33 M0.42 0.89 C10.14 -6.52, 50.09 -38.65, 59.18 -46.28" stroke="#000000" stroke-width="2" fill="none"></path></g></g><g stroke-linecap="round"><g transform="translate(543.1735016947787 418.2908720218443) rotate(0 -24.86080102860069 -21.55817333495156)"><path d="M2.18 2.59 C-6 -5.44, -41.18 -37.32, -50.72 -45.71 M-0.08 1.53 C-8.31 -4.85, -43.65 -34.41, -51.9 -42.32" stroke="#000000" stroke-width="2" fill="none"></path></g></g><g stroke-linecap="round" transform="translate(10 10) rotate(0 26.695645395730935 81.6889829968627)"><path d="M1.02 -0.71 L50.78 0.28 L52.89 165.89 L1.64 162.75" stroke="none" stroke-width="0" fill="#fab005"></path><path d="M2.8 -0.62 C17.36 -4.49, 43.98 1.08, 50.35 -2.46 M0.26 -0.88 C12.91 2.57, 23.45 0.64, 53.09 -1.57 M49.95 -0.42 C48.12 46.73, 52.27 95.93, 50.36 159.93 M53.29 0.57 C54.04 57.87, 54.19 115.82, 53.64 161.79 M56.53 165.53 C35.12 162.26, 18.77 162.85, -3.27 162.67 M52.38 163.53 C40.8 162.1, 26.5 164.41, 0.04 163.92 M2.93 162.68 C-0.3 105.62, 3.92 50.18, -2.98 -2.74 M1.01 163.28 C-1.54 102.71, -2.77 38.94, -1.83 1.91" stroke="#000000" stroke-width="2" fill="none"></path></g></svg>
