<svg version="1.1" xmlns="http://www.w3.org/2000/svg" viewBox="0 0 163.09124122556022 163.69915663707616" width="326.18248245112045" height="327.3983132741523">
  <!-- svg-source:excalidraw -->
  
  <defs>
    <style class="style-fonts">
      @font-face {
        font-family: "Virgil";
        src: url("https://excalidraw.com/Virgil.woff2");
      }
      @font-face {
        font-family: "Cascadia";
        src: url("https://excalidraw.com/Cascadia.woff2");
      }
    </style>
  </defs>
  <g stroke-linecap="round" transform="translate(10.349621739875147 10) rotate(0 71.37080974284254 71.84957831853808)"><path d="M55.72 1.89 C65.03 -1.28, 76.89 -0.7, 86.85 1.65 C96.81 4, 107.28 9.54, 115.48 15.99 C123.67 22.44, 131.48 31.07, 136.03 40.37 C140.59 49.68, 142.73 61.37, 142.78 71.83 C142.84 82.29, 140.85 93.9, 136.39 103.12 C131.92 112.34, 124.26 120.77, 116 127.15 C107.73 133.54, 96.95 138.92, 86.79 141.41 C76.63 143.89, 65.04 144.33, 55.02 142.07 C45.01 139.8, 34.85 134.32, 26.7 127.79 C18.56 121.26, 10.49 112.19, 6.16 102.88 C1.83 93.57, 0.46 82.4, 0.74 71.93 C1.02 61.46, 3.55 49.57, 7.83 40.04 C12.11 30.52, 16.8 21.37, 26.41 14.79 C36.02 8.21, 57.24 2.92, 65.48 0.56 C73.72 -1.8, 75.71 -0.69, 75.84 0.62 M86.83 0.79 C96.55 1.82, 106.49 9.34, 114.46 15.98 C122.43 22.61, 129.85 31.31, 134.64 40.6 C139.43 49.89, 143.27 61.33, 143.2 71.73 C143.14 82.13, 138.59 93.54, 134.26 103 C129.93 112.45, 124.87 122.2, 117.21 128.48 C109.54 134.77, 98.55 138.24, 88.25 140.71 C77.95 143.18, 65.6 145.55, 55.42 143.31 C45.25 141.08, 35.26 133.89, 27.21 127.31 C19.16 120.73, 11.61 112.84, 7.13 103.83 C2.65 94.82, 0.57 83.56, 0.33 73.25 C0.09 62.95, 1.37 51.71, 5.67 41.99 C9.97 32.27, 17.76 21.44, 26.15 14.95 C34.55 8.46, 46 5.38, 56.03 3.04 C66.07 0.7, 81.04 0.82, 86.36 0.92 C91.67 1.03, 88.16 2.15, 87.94 3.67" stroke="#000000" stroke-width="2" fill="none"></path></g><g stroke-linecap="round"><g transform="translate(48.368858552599704 145.80769452221693) rotate(0 -3.9086364476534072 -24.276137402030372)"><path d="M0.49 -0.54 C-0.61 -4.97, -6.06 -17.5, -7.02 -25.8 C-7.97 -34.1, -5.42 -46.21, -5.25 -50.34 M-0.71 1.79 C-1.96 -2.56, -7.3 -16.2, -8.15 -24.66 C-9 -33.12, -6.18 -44.83, -5.81 -48.98" stroke="#000000" stroke-width="2" fill="none"></path></g></g><g stroke-linecap="round"><g transform="translate(101.53828671217707 150.72768189931594) rotate(0 4.279828917229679 -9.641949382998291)"><path d="M-0.54 -0.36 C0.05 -1.62, 2.7 -4, 4.3 -7.1 C5.91 -10.19, 8.34 -16.95, 9.1 -18.93 M1.37 -1.59 C2.29 -3.27, 5.45 -6.31, 6.62 -9.01 C7.78 -11.71, 7.98 -16.3, 8.38 -17.8" stroke="#000000" stroke-width="2" fill="none"></path></g></g><g stroke-linecap="round"><g transform="translate(10.355956166236865 77.74155319171223) rotate(0 9.43264162680498 -0.7152622863238776)"><path d="M-0.36 -0.76 C0.44 -0.82, 3.68 -0.67, 5.27 -0.88 C6.86 -1.09, 7.75 -1.81, 9.18 -2.02 C10.61 -2.22, 12.19 -1.96, 13.87 -2.11 C15.54 -2.26, 18.4 -2.85, 19.22 -2.93 M1.66 1.46 C2.29 1.66, 3.44 1.07, 4.53 0.7 C5.62 0.33, 6.66 -0.54, 8.22 -0.78 C9.79 -1.03, 12.28 -0.46, 13.92 -0.77 C15.55 -1.08, 16.95 -2.2, 18 -2.67" stroke="#000000" stroke-width="2" fill="none"></path></g></g><g stroke-linecap="round"><g transform="translate(66.18428848331314 80.0233297497848) rotate(0 15.90177338214562 10.27966817877882)"><path d="M-0.76 0.39 C2.22 1.82, 11.8 4.96, 17.36 8.21 C22.91 11.46, 29.93 17.8, 32.56 19.89 M1.04 -0.45 C3.92 1.18, 11.34 5.98, 16.45 9.56 C21.56 13.14, 28.85 19.53, 31.72 21.01" stroke="#000000" stroke-width="2" fill="none"></path></g></g><g stroke-linecap="round"><g transform="translate(116.09832158515565 94.19180869501633) rotate(0 -8.416177347166013 -22.770656130946463)"><path d="M0.39 0.08 C-0.53 -3.73, -3.11 -16.4, -5.88 -23.66 C-8.66 -30.93, -14.67 -40.09, -16.26 -43.52 M-0.86 -0.92 C-1.94 -4.48, -4.29 -14.76, -7.02 -22.21 C-9.75 -29.66, -15.91 -42.12, -17.22 -45.63" stroke="#000000" stroke-width="2" fill="none"></path></g></g><g stroke-linecap="round"><g transform="translate(58.921293896877614 59.03754774473737) rotate(0 5.647479069793917 -8.626574261357746)"><path d="M0.08 -0.36 C1.05 -1.88, 2.95 -6.33, 5.04 -8.74 C7.13 -11.14, 11.48 -13.72, 12.62 -14.8 M-1.33 -1.6 C-0.47 -2.98, 1.77 -4.85, 4.01 -7.4 C6.25 -9.95, 10.76 -15.77, 12.1 -16.89" stroke="#000000" stroke-width="2" fill="none"></path></g></g><g stroke-linecap="round"><g transform="translate(60.64663962263512 13.634432410038698) rotate(0 6.934444708238516 4.277652759120883)"><path d="M-0.36 -0.16 C0.71 0.58, 4.39 3, 6.82 4.47 C9.25 5.94, 13.07 7.9, 14.23 8.65 M1.65 -1.28 C2.5 -0.92, 3.66 0.73, 5.67 2.58 C7.69 4.44, 12.32 8.58, 13.72 9.84" stroke="#000000" stroke-width="2" fill="none"></path></g></g><g stroke-linecap="round"><g transform="translate(103.761142639647 24.049395752999317) rotate(0 5.791426021294683 -2.4256105913275405)"><path d="M-0.16 -0.38 C1.08 -0.56, 5.23 -0.75, 7.47 -1.44 C9.71 -2.12, 12.25 -4.09, 13.28 -4.47 M-1.7 -1.62 C-0.59 -2.13, 4.42 -3.05, 6.76 -3.3 C9.11 -3.56, 11.19 -2.7, 12.38 -3.13" stroke="#000000" stroke-width="2" fill="none"></path></g></g><g stroke-linecap="round" transform="translate(77.79756048604395 21.019103517547137) rotate(0 11.817404218892989 11.509710244625012)"><path d="M8.47 -0.28 C10.82 -1.05, 15.47 0.19, 17.76 1.53 C20.05 2.88, 21.31 5.52, 22.22 7.8 C23.14 10.07, 23.89 12.94, 23.27 15.2 C22.64 17.45, 20.54 20.16, 18.46 21.31 C16.38 22.47, 13.41 22.48, 10.81 22.14 C8.22 21.8, 4.65 20.95, 2.91 19.29 C1.17 17.63, 0.61 14.54, 0.36 12.18 C0.12 9.82, -0.31 7.27, 1.43 5.11 C3.17 2.95, 9.13 -0.06, 10.79 -0.78 C12.44 -1.49, 11.34 0.49, 11.35 0.83 M5.9 0.58 C7.91 -0.31, 13.13 -0.19, 15.81 0.57 C18.5 1.32, 20.77 2.98, 22.02 5.13 C23.26 7.27, 23.67 10.82, 23.28 13.46 C22.89 16.1, 21.44 19.42, 19.7 20.97 C17.96 22.51, 15.35 22.92, 12.83 22.74 C10.31 22.55, 6.5 21.5, 4.59 19.86 C2.69 18.21, 2.14 15.16, 1.39 12.86 C0.64 10.56, -0.97 7.89, 0.11 6.04 C1.19 4.19, 6.73 2.57, 7.88 1.77 C9.03 0.97, 6.86 1.28, 7.02 1.25" stroke="none" stroke-width="0" fill="#fd7e14"></path><path d="M14.27 0.9 C16.72 1.23, 19.84 2.68, 21.26 4.4 C22.69 6.13, 23 8.9, 22.82 11.27 C22.65 13.63, 21.71 16.69, 20.19 18.58 C18.67 20.48, 16.17 22.35, 13.69 22.65 C11.22 22.94, 7.55 21.49, 5.33 20.36 C3.11 19.23, 1.12 17.93, 0.37 15.88 C-0.39 13.84, -0.05 10.56, 0.81 8.08 C1.66 5.6, 3.1 2.28, 5.47 1.01 C7.84 -0.26, 12.95 0.4, 15.02 0.47 C17.08 0.54, 17.93 1.2, 17.86 1.41 M18.43 0.91 C20.34 1.81, 20.96 3.62, 21.78 5.82 C22.59 8.01, 23.95 11.42, 23.3 14.08 C22.66 16.73, 20.12 20.53, 17.89 21.77 C15.67 23.01, 12.43 21.71, 9.93 21.51 C7.43 21.3, 4.49 21.97, 2.91 20.53 C1.33 19.1, 0.69 15.59, 0.43 12.89 C0.17 10.19, -0.39 6.4, 1.35 4.35 C3.09 2.3, 8.29 1.1, 10.86 0.62 C13.43 0.14, 15.53 1.25, 16.75 1.46 C17.97 1.68, 17.91 2, 18.17 1.92" stroke="#000000" stroke-width="2" fill="none"></path></g><g stroke-linecap="round" transform="translate(81.5309105974593 24.55284944833238) rotate(0 8.158479095447547 7.8840233470755265)"><path d="M8.9 0.74 C10.47 0.94, 13.29 1.11, 14.66 2.31 C16.04 3.51, 17.13 6.14, 17.16 7.93 C17.19 9.72, 16.06 11.7, 14.84 13.04 C13.62 14.39, 11.75 15.78, 9.84 16.01 C7.92 16.24, 4.92 15.28, 3.35 14.44 C1.78 13.61, 0.88 12.68, 0.4 11 C-0.08 9.32, -0.21 5.93, 0.47 4.35 C1.15 2.77, 3.02 2.25, 4.48 1.51 C5.95 0.76, 8.12 0, 9.25 -0.1 C10.37 -0.2, 11.14 0.85, 11.25 0.9 M11.58 1.5 C13.27 2.41, 15.07 3.78, 15.78 5.2 C16.5 6.61, 16.31 8.47, 15.87 9.99 C15.43 11.51, 14.42 13.31, 13.14 14.32 C11.85 15.33, 10.04 16.25, 8.16 16.03 C6.28 15.82, 3.38 14.17, 1.87 13.04 C0.37 11.92, -0.63 11.14, -0.87 9.29 C-1.12 7.44, -0.77 3.32, 0.4 1.92 C1.56 0.53, 4.05 1.13, 6.11 0.92 C8.17 0.71, 11.79 0.46, 12.77 0.68 C13.74 0.91, 12.23 1.92, 11.96 2.29" stroke="none" stroke-width="0" fill="#fff"></path><path d="M7.97 0.23 C9.61 -0.19, 11.52 -0.3, 12.76 0.54 C14.01 1.37, 15.06 3.45, 15.44 5.24 C15.82 7.02, 15.71 9.66, 15.05 11.23 C14.39 12.8, 13.13 13.99, 11.49 14.67 C9.86 15.35, 6.77 15.66, 5.24 15.3 C3.7 14.93, 3.03 13.95, 2.3 12.5 C1.56 11.05, 0.89 8.46, 0.83 6.62 C0.76 4.78, 0.59 2.5, 1.91 1.46 C3.23 0.42, 7.34 0.7, 8.74 0.38 C10.15 0.06, 10.33 -0.69, 10.35 -0.45 M9.51 -0.83 C11.07 -0.69, 12.26 1.9, 13.22 3.4 C14.17 4.89, 15.02 6.55, 15.25 8.16 C15.48 9.77, 15.84 11.84, 14.6 13.08 C13.35 14.33, 9.36 15.32, 7.78 15.63 C6.19 15.94, 6.17 16.03, 5.1 14.93 C4.04 13.82, 2.16 10.45, 1.41 9 C0.66 7.55, 0.06 7.71, 0.63 6.24 C1.19 4.77, 3.25 1.05, 4.82 0.19 C6.4 -0.68, 9.15 0.78, 10.06 1.05 C10.97 1.32, 10.56 1.6, 10.27 1.81" stroke="#000000" stroke-width="2" fill="none"></path></g><g stroke-linecap="round" transform="translate(36.81278955216112 63.21590580681686) rotate(0 11.817404218892989 11.509710244625012)"><path d="M17.23 1.29 C19.53 2.34, 20.95 5.05, 21.98 7.28 C23.01 9.51, 23.93 12.36, 23.42 14.65 C22.91 16.93, 20.94 19.73, 18.94 20.99 C16.94 22.25, 14 22.41, 11.4 22.19 C8.79 21.98, 5.15 21.27, 3.32 19.69 C1.49 18.12, 0.78 15.1, 0.41 12.75 C0.04 10.39, -0.33 7.77, 1.09 5.57 C2.52 3.38, 6.17 0.13, 8.94 -0.41 C11.72 -0.95, 15.97 1.79, 17.75 2.34 C19.54 2.89, 19.82 2.68, 19.63 2.9 M8.77 0.64 C11.27 -0.17, 14.37 -0.24, 16.57 0.77 C18.77 1.79, 20.88 4.34, 21.98 6.71 C23.08 9.08, 23.58 12.72, 23.16 14.98 C22.73 17.25, 21.41 19.13, 19.42 20.32 C17.44 21.51, 13.65 22.39, 11.24 22.13 C8.84 21.87, 7.03 20.32, 4.98 18.77 C2.93 17.21, -0.63 14.9, -1.04 12.81 C-1.45 10.73, 1.03 8.27, 2.53 6.24 C4.03 4.22, 6.8 1.64, 7.96 0.66 C9.11 -0.32, 9.18 -0.01, 9.49 0.35" stroke="none" stroke-width="0" fill="#fd7e14"></path><path d="M12.26 0.05 C14.52 -0.25, 17.01 0.77, 18.8 2.29 C20.6 3.82, 22.48 6.7, 23.03 9.19 C23.57 11.68, 23.35 15.19, 22.07 17.23 C20.78 19.27, 17.78 20.5, 15.32 21.45 C12.86 22.41, 9.61 23.57, 7.3 22.97 C4.98 22.37, 2.73 20.2, 1.44 17.85 C0.14 15.51, -0.83 11.48, -0.5 8.89 C-0.16 6.29, 1.06 3.78, 3.47 2.27 C5.88 0.77, 12.21 0.13, 13.99 -0.14 C15.77 -0.41, 14.07 0.34, 14.15 0.66 M7.16 -0.89 C9.28 -1.85, 14.03 -1.46, 16.53 -0.21 C19.03 1.03, 21.03 4.46, 22.14 6.59 C23.25 8.71, 23.73 9.97, 23.2 12.53 C22.68 15.09, 20.9 20.05, 19 21.97 C17.1 23.89, 14.53 24.38, 11.81 24.06 C9.09 23.74, 4.41 21.8, 2.7 20.03 C0.98 18.27, 1.8 15.9, 1.54 13.47 C1.28 11.05, -0.12 7.57, 1.13 5.48 C2.38 3.38, 7.61 1.91, 9.04 0.89 C10.47 -0.13, 9.57 -0.65, 9.71 -0.65" stroke="#000000" stroke-width="2" fill="none"></path></g><g stroke-linecap="round" transform="translate(40.52426523282702 66.7277773068472) rotate(0 8.158479095447547 7.8840233470755265)"><path d="M5.93 -0.06 C7.72 -0.74, 10.41 -0.03, 12.04 0.7 C13.68 1.43, 15.02 2.8, 15.74 4.33 C16.45 5.86, 16.88 8.31, 16.32 9.89 C15.77 11.46, 13.82 12.75, 12.39 13.78 C10.96 14.82, 9.38 16.26, 7.77 16.11 C6.16 15.95, 3.92 13.96, 2.72 12.84 C1.51 11.72, 0.95 10.98, 0.56 9.4 C0.17 7.83, -0.92 4.9, 0.37 3.39 C1.66 1.89, 6.72 1.02, 8.29 0.37 C9.85 -0.28, 9.71 -0.47, 9.78 -0.5 M4.96 0.99 C6.49 0.1, 8.62 -0.34, 10.38 0.04 C12.15 0.43, 14.39 1.78, 15.55 3.29 C16.71 4.79, 17.68 7.39, 17.35 9.08 C17.01 10.77, 15.12 12.13, 13.53 13.42 C11.94 14.71, 9.72 16.88, 7.8 16.82 C5.89 16.77, 3.35 14.14, 2.03 13.09 C0.72 12.03, 0 11.97, -0.06 10.49 C-0.12 9, 0.84 5.61, 1.68 4.18 C2.52 2.75, 4.5 2.26, 4.97 1.92 C5.45 1.57, 4.28 2.4, 4.51 2.1" stroke="none" stroke-width="0" fill="#fff"></path><path d="M8.53 -0.8 C9.99 -0.95, 11.9 0.29, 13.09 1.58 C14.28 2.88, 15.39 5.27, 15.68 6.97 C15.97 8.67, 15.81 10.43, 14.81 11.8 C13.81 13.16, 11.19 14.59, 9.69 15.15 C8.19 15.71, 7.13 15.88, 5.8 15.16 C4.48 14.44, 2.74 12.48, 1.74 10.83 C0.74 9.18, -0.39 6.73, -0.19 5.26 C0 3.78, 1.33 3.01, 2.9 1.99 C4.48 0.96, 8.01 -0.79, 9.28 -0.87 C10.55 -0.95, 10.42 1.32, 10.51 1.5 M9.38 0.7 C10.88 1.28, 12.88 2.34, 14.1 3.71 C15.32 5.09, 17.01 7.29, 16.68 8.96 C16.35 10.64, 13.28 12.56, 12.11 13.77 C10.94 14.97, 11 16.35, 9.66 16.19 C8.32 16.03, 5.65 13.7, 4.06 12.8 C2.47 11.9, 0.57 12.37, 0.13 10.8 C-0.31 9.23, 0.54 4.94, 1.41 3.37 C2.28 1.8, 3.7 1.62, 5.33 1.37 C6.95 1.12, 10.49 1.79, 11.16 1.89 C11.83 1.99, 9.58 2.18, 9.35 1.94" stroke="#000000" stroke-width="2" fill="none"></path></g><g stroke-linecap="round" transform="translate(104.0273106847053 102.20571147469718) rotate(0 11.817404218892989 11.509710244625012)"><path d="M7.91 1.34 C10.09 0.53, 14.13 0.44, 16.56 1.29 C18.99 2.15, 21.31 4.47, 22.5 6.47 C23.69 8.47, 24.35 10.94, 23.71 13.3 C23.06 15.65, 20.65 18.97, 18.62 20.58 C16.6 22.2, 14.17 23.04, 11.54 23.01 C8.91 22.98, 4.69 22.23, 2.85 20.41 C1.01 18.58, 0.71 14.48, 0.5 12.05 C0.29 9.62, 0.04 7.8, 1.58 5.84 C3.12 3.87, 8.4 1.03, 9.74 0.27 C11.09 -0.5, 9.77 1.22, 9.65 1.27 M10.75 0.02 C12.97 -0.32, 15.99 0.94, 18.02 2.49 C20.05 4.03, 22.08 7.05, 22.91 9.27 C23.74 11.49, 24 13.85, 23.01 15.79 C22.02 17.73, 19.11 19.97, 16.98 20.91 C14.84 21.84, 12.81 21.88, 10.18 21.42 C7.55 20.95, 2.77 19.72, 1.2 18.1 C-0.38 16.48, 0.45 14.09, 0.75 11.69 C1.05 9.29, 1.18 5.73, 3 3.72 C4.82 1.71, 10.22 0.02, 11.68 -0.36 C13.14 -0.73, 12.15 1.3, 11.74 1.47" stroke="none" stroke-width="0" fill="#fd7e14"></path><path d="M14.9 0.08 C17.11 0.61, 20.04 2.88, 21.5 5.05 C22.95 7.22, 24 10.73, 23.63 13.1 C23.25 15.47, 21.22 17.49, 19.24 19.27 C17.26 21.04, 14.23 23.43, 11.74 23.76 C9.26 24.08, 6.37 22.98, 4.33 21.24 C2.28 19.49, 0.12 15.89, -0.51 13.29 C-1.14 10.69, -0.86 7.77, 0.55 5.63 C1.96 3.5, 5.33 1.2, 7.96 0.47 C10.59 -0.25, 14.39 0.88, 16.35 1.28 C18.3 1.69, 19.72 2.6, 19.69 2.89 M10.25 -0.92 C12.75 -1.11, 15.7 0.9, 17.79 2.11 C19.89 3.33, 22 3.9, 22.83 6.38 C23.66 8.87, 23.58 14.32, 22.77 17.02 C21.96 19.73, 20.36 21.67, 17.96 22.63 C15.56 23.59, 10.67 23.37, 8.35 22.79 C6.03 22.2, 5.56 21.03, 4.05 19.12 C2.55 17.22, -0.63 13.85, -0.68 11.38 C-0.72 8.9, 1.74 6.39, 3.76 4.28 C5.78 2.17, 10.17 -0.5, 11.44 -1.28 C12.71 -2.06, 11.71 -0.9, 11.38 -0.39" stroke="#000000" stroke-width="2" fill="none"></path></g><g stroke-linecap="round" transform="translate(107.76066079612428 105.73945740548152) rotate(0 8.158479095447547 7.8840233470755265)"><path d="M11.55 0.52 C13.17 1.03, 14.66 2.41, 15.47 3.88 C16.28 5.36, 16.86 7.79, 16.42 9.38 C15.97 10.98, 14.15 12.33, 12.8 13.45 C11.44 14.57, 9.91 16.15, 8.3 16.11 C6.68 16.06, 4.4 14.2, 3.12 13.17 C1.85 12.14, 1.15 11.46, 0.65 9.9 C0.15 8.35, -0.74 5.33, 0.11 3.83 C0.95 2.34, 3.87 1.6, 5.72 0.92 C7.58 0.24, 10.08 -0.14, 11.22 -0.25 C12.36 -0.35, 12.76 0.07, 12.57 0.28 M9.71 -0.12 C11.45 0.01, 13.86 1.33, 15.14 2.75 C16.42 4.17, 17.58 6.72, 17.39 8.42 C17.21 10.11, 15.5 11.55, 14.01 12.94 C12.53 14.33, 10.39 16.67, 8.49 16.75 C6.59 16.84, 4 14.4, 2.61 13.46 C1.21 12.52, 0.33 12.57, 0.13 11.13 C-0.07 9.68, 0.69 6.28, 1.4 4.79 C2.1 3.3, 3.03 2.77, 4.35 2.21 C5.68 1.65, 8.25 1.98, 9.34 1.44 C10.43 0.91, 10.95 -1.01, 10.91 -1" stroke="none" stroke-width="0" fill="#fff"></path><path d="M8.36 -0.44 C9.92 -0.23, 12.11 1.26, 13.4 2.49 C14.68 3.71, 15.96 5.32, 16.04 6.94 C16.12 8.56, 14.71 10.78, 13.86 12.2 C13.02 13.63, 12.36 15.14, 10.96 15.49 C9.57 15.84, 7.24 15.17, 5.48 14.29 C3.71 13.41, 1.27 11.59, 0.37 10.23 C-0.54 8.87, -0.45 7.77, 0.03 6.14 C0.51 4.5, 1.47 1.21, 3.24 0.42 C5 -0.38, 9.03 1.34, 10.6 1.36 C12.16 1.39, 12.55 0.67, 12.63 0.58 M4.36 0.33 C6.21 -0.37, 9.88 -0.27, 11.47 0.33 C13.05 0.92, 12.85 2.35, 13.86 3.92 C14.88 5.48, 17.47 8.26, 17.56 9.73 C17.65 11.21, 15.99 11.52, 14.41 12.76 C12.83 14, 9.94 17.12, 8.08 17.19 C6.22 17.27, 4.57 14.4, 3.25 13.21 C1.94 12.02, 0.49 11.36, 0.19 10.05 C-0.1 8.74, 0.82 6.72, 1.45 5.35 C2.09 3.98, 3.46 2.72, 4 1.82 C4.55 0.91, 4.35 -0.2, 4.72 -0.09" stroke="#000000" stroke-width="2" fill="none"></path></g></svg>
