<svg version="1.1" xmlns="http://www.w3.org/2000/svg" viewBox="0 0 498.178920219827 591.6455505147733" width="996.357840439654" height="1183.2911010295466">
  <!-- svg-source:excalidraw -->
  
  <defs>
    <style class="style-fonts">
      @font-face {
        font-family: "Virgil";
        src: url("https://excalidraw.com/Virgil.woff2");
      }
      @font-face {
        font-family: "Cascadia";
        src: url("https://excalidraw.com/Cascadia.woff2");
      }
    </style>
  </defs>
  <g stroke-linecap="round"><g transform="translate(13.64352419351053 564.9560098091229) rotate(0 -0.7580643692308513 -276.5475194184712)"><path d="M-0.1 -2.79 C-0.2 -94.5, 2.32 -459.47, 2.12 -550.96 M-3.6 1.86 C-4.14 -90.56, 1.02 -461.86, 0.96 -554.96" stroke="#000000" stroke-width="2" fill="none"></path></g></g><g stroke-linecap="round"><g transform="translate(14.619938991923846 12.115023233294778) rotate(0 234.50865835824243 2.5139464836240677)"><path d="M-2.79 2 C75.97 2.28, 392.84 1.44, 471.81 1.57 M0.88 0.62 C79.51 1.26, 392.44 3.55, 470.59 4.41" stroke="#000000" stroke-width="2" fill="none"></path></g></g><g stroke-linecap="round"><g transform="translate(486.1775637779265 13.509901516739319) rotate(0 -2.7999781526159495 283.0690232754639)"><path d="M2 1.88 C0.75 96.63, -6.2 471.75, -7.6 565.71 M-0.36 0.43 C-0.66 94.57, -0.66 467.92, -1.99 561.29" stroke="#000000" stroke-width="2" fill="none"></path></g></g><g stroke-linecap="round"><g transform="translate(479.60895513407013 577.7128057468094) rotate(0 -231.58114316465526 -4.816822942836097)"><path d="M1.88 -1.45 C-74.89 -4.05, -385.84 -11.78, -463.39 -13.57 M-0.55 3.93 C-77.34 1.62, -387.68 -6.56, -465.04 -10.07" stroke="#000000" stroke-width="2" fill="none"></path></g></g><g stroke-linecap="round" transform="translate(93.83634477991836 77.81379038354316) rotate(0 40.61631947157821 48.91584525807434)"><path d="M0.26 -3.27 L80.52 -2.46 L83.45 97.87 L-2.03 98.14" stroke="none" stroke-width="0" fill="#fab005"></path><path d="M1.56 -0.34 C31.65 2.46, 58.48 2.53, 83.94 -0.53 M-0.32 0.5 C30.19 -0.72, 59.03 1.96, 81.65 1.14 M78.18 -0.31 C80 23.97, 83 42.34, 77.91 97.31 M83.02 1.56 C83.47 20.98, 81.31 37.44, 79.48 99.02 M77.56 94.03 C49.2 97.36, 22.32 100.43, 3.3 100.26 M81.02 96.27 C56.06 94.84, 34.58 95.19, -0.27 98.54 M2.15 97.02 C3.5 64.94, 2.62 35.05, 0.17 2.92 M0.46 96.8 C-1.73 68.87, 0.84 36.26, -0.16 -0.06" stroke="#000000" stroke-width="2" fill="none"></path></g><g stroke-linecap="round" transform="translate(91.46505169806187 239.67039410980533) rotate(0 43.425097105969144 45.32720385612083)"><path d="M-3.27 -0.71 L84.39 2.22 L86.89 88.63 L0.31 90.95" stroke="none" stroke-width="0" fill="#fd7e14"></path><path d="M-0.34 1.47 C33.49 -2.54, 65.44 2.03, 86.32 2.47 M0.5 0.79 C19.2 0.52, 42.85 0.69, 87.99 -1.34 M86.54 -0.65 C88.02 26.83, 83.57 45.63, 86.32 86.66 M88.41 1.85 C87.18 28.68, 84.06 56.24, 88.04 91.69 M83.05 87.2 C67.93 87.3, 51.56 92.36, 2.43 90.09 M85.29 88.7 C60.37 90.26, 35.97 90.2, 0.71 91.34 M-0.81 92.68 C1.37 71.46, 4.17 50.16, 2.92 0.48 M-1.03 89.16 C3 63.42, 0.92 33.88, -0.06 0.13" stroke="#000000" stroke-width="2" fill="none"></path></g><g stroke-linecap="round" transform="translate(92.27661724479367 410.25132746343206) rotate(0 40.24223847738085 42.37259803755137)"><path d="M-0.71 -2.46 L82.7 0.04 L78.46 85.06 L0.29 82.17" stroke="none" stroke-width="0" fill="#fab005"></path><path d="M1.47 1.61 C18.11 1.82, 42.65 -0.39, 82.96 -2.35 M0.79 -1.76 C19.26 0.52, 38.45 0.73, 79.15 -0.6 M79.84 1.15 C81.55 22.2, 75.87 50.46, 76.49 85.54 M82.34 1.4 C81.69 18.71, 80.25 42.05, 81.52 83.22 M77.03 85.27 C59.52 86.81, 45.37 85.65, -0.57 84.15 M78.53 83.02 C62.45 82.13, 44.56 84.2, 0.68 83.23 M2.02 84.55 C0.23 69.23, -0.74 51.42, 0.48 0.49 M-1.49 86.31 C0.69 65.52, -0.55 47.25, 0.13 -1.64" stroke="#000000" stroke-width="2" fill="none"></path></g><g stroke-linecap="round"><g transform="translate(220.87171426673194 145.6429170939614) rotate(0 91.57854016114743 1.741939686828573)"><path d="M1.03 1.13 C31.69 1.89, 153.81 4.04, 185.01 4.31 M-1.85 -0.72 C28.21 -0.8, 150.51 -1.12, 182.06 -0.06" stroke="#000000" stroke-width="2" fill="none"></path></g></g><g stroke-linecap="round"><g transform="translate(243.32925463019274 307.82921932358295) rotate(0 77.78911496188812 0.0990074912815544)"><path d="M1.13 -1.31 C27.38 -1.48, 131.51 -0.17, 157.28 0.03 M-1.7 4.15 C24.31 3.11, 129.78 -2.48, 155.68 -3.96" stroke="#000000" stroke-width="2" fill="none"></path></g></g><g stroke-linecap="round"><g transform="translate(240.28588382995076 467.3272106796571) rotate(0 83.96568573873901 1.2054204824567023)"><path d="M-1.31 1.18 C26.73 0.93, 140.84 0.1, 169.24 -0.37 M3.18 -0.65 C30.92 -0.55, 140.52 2.85, 168.03 3.06" stroke="#000000" stroke-width="2" fill="none"></path></g></g></svg>
