<svg version="1.1" xmlns="http://www.w3.org/2000/svg" viewBox="0 0 357.8534034895383 319.9480525464346" width="715.7068069790766" height="639.8961050928692">
  <!-- svg-source:excalidraw -->
  
  <defs>
    <style class="style-fonts">
      @font-face {
        font-family: "Virgil";
        src: url("https://excalidraw.com/Virgil.woff2");
      }
      @font-face {
        font-family: "Cascadia";
        src: url("https://excalidraw.com/Cascadia.woff2");
      }
    </style>
  </defs>
  <g stroke-linecap="round"><g transform="translate(117.38974041922484 215.68740753777502) rotate(0 -53.609755274199415 -24.042668387666936)"><path d="M0.17 -0.43 C-7.86 0.64, -33.34 7.58, -47.77 5.37 C-62.21 3.15, -76.56 -3.68, -86.44 -13.74 C-96.32 -23.79, -103.76 -48.04, -107.05 -54.96 M-1.2 -1.71 C-9.44 -0.4, -34.59 8.81, -48.85 6.5 C-63.11 4.19, -77.01 -5.46, -86.77 -15.57 C-96.53 -25.68, -104.49 -47.53, -107.39 -54.15" stroke="#000000" stroke-width="2" fill="none"></path></g></g><g stroke-linecap="round"><g transform="translate(11.893226474803669 159.9534813796563) rotate(0 25.61802263253594 -28.7065880875748)"><path d="M-0.43 -0.25 C0.25 -3.96, 0.01 -15.2, 2.99 -22.1 C5.97 -29.01, 12.54 -36.73, 17.45 -41.7 C22.36 -46.67, 27.05 -49.35, 32.47 -51.93 C37.88 -54.5, 47.02 -56.2, 49.93 -57.17 M1.54 -1.42 C2.7 -5.48, 2.7 -17.2, 5.3 -23.79 C7.91 -30.38, 12.67 -36.44, 17.19 -40.97 C21.71 -45.5, 26.67 -48.34, 32.41 -50.96 C38.16 -53.59, 48.59 -55.37, 51.67 -56.71" stroke="#000000" stroke-width="2" fill="none"></path></g></g><g stroke-linecap="round"><g transform="translate(62.76282277291466 101.9353903836618) rotate(0 34.97649574045681 -44.41621744104236)"><path d="M-0.25 -0.76 C-0.1 -6.2, -0.18 -24.77, 1.04 -33.07 C2.25 -41.37, 4.52 -45.46, 7.04 -50.55 C9.55 -55.65, 10.29 -58.39, 16.14 -63.64 C21.98 -68.9, 35.57 -77.96, 42.1 -82.07 C48.64 -86.17, 50.77 -87.04, 55.35 -88.26 C59.93 -89.48, 67.07 -89.11, 69.58 -89.4 M1.83 1.45 C1.87 -4.27, -0.73 -26.19, 0.53 -34.69 C1.78 -43.19, 6.73 -44.82, 9.35 -49.53 C11.97 -54.25, 11.02 -57.55, 16.24 -62.99 C21.47 -68.42, 33.99 -78.28, 40.7 -82.13 C47.42 -85.99, 51.62 -84.76, 56.53 -86.12 C61.45 -87.48, 68 -89.61, 70.2 -90.29" stroke="#000000" stroke-width="2" fill="none"></path></g></g><g stroke-linecap="round"><g transform="translate(132.4228115785627 10.700835076993371) rotate(0 45.604431951947845 32.73697243735705)"><path d="M-0.76 0.84 C4.33 0.89, 20.37 -2.04, 30.12 0.06 C39.87 2.17, 50.98 9.51, 57.73 13.47 C64.47 17.43, 66.84 20.06, 70.58 23.83 C74.33 27.6, 76.78 29.02, 80.19 36.08 C83.6 43.14, 88.93 61.03, 91.03 66.17 M1.04 0.23 C6.1 0.41, 20.41 -1.39, 29.68 1.01 C38.95 3.42, 49.88 10.65, 56.66 14.65 C63.45 18.64, 66.18 21.4, 70.39 25 C74.6 28.6, 78.33 29.55, 81.92 36.24 C85.52 42.93, 90.58 60.15, 91.97 65.11" stroke="#000000" stroke-width="2" fill="none"></path></g></g><g stroke-linecap="round"><g transform="translate(226.71751016343478 76.51950948396598) rotate(0 18.936918092704218 -9.062053660377387)"><path d="M0.84 0.97 C1.52 -0.75, 0.75 -7.81, 3.86 -11.07 C6.97 -14.33, 13.86 -17.35, 19.51 -18.58 C25.16 -19.81, 34.8 -18.45, 37.74 -18.44 M-0.19 0.44 C0.87 -1.06, 2.85 -6.81, 5.98 -9.83 C9.12 -12.86, 13.26 -16.39, 18.6 -17.71 C23.95 -19.04, 34.64 -17.65, 38.06 -17.79" stroke="#000000" stroke-width="2" fill="none"></path></g></g><g stroke-linecap="round"><g transform="translate(265.4177512286551 59.300361452359994) rotate(0 12.406843912302065 23.390674564476512)"><path d="M0.97 -1.12 C3.09 -0.41, 8.69 2.1, 11.97 5.09 C15.26 8.08, 18.55 12.38, 20.68 16.81 C22.81 21.25, 24.39 26.56, 24.75 31.68 C25.11 36.8, 22.86 44.76, 22.84 47.53 M0.02 0.91 C2 1.73, 6.88 3.6, 10.73 6.48 C14.58 9.36, 20.83 13.86, 23.13 18.2 C25.43 22.55, 24.31 27.61, 24.54 32.56 C24.78 37.51, 24.83 45.38, 24.55 47.9" stroke="#000000" stroke-width="2" fill="none"></path></g></g><g stroke-linecap="round"><g transform="translate(290.4842194049488 107.18103235218905) rotate(0 25.71009844251239 14.725966563902603)"><path d="M-1.12 -0.57 C0.97 -1.15, 8.07 -3.24, 13.34 -2.54 C18.62 -1.84, 25.86 0.99, 30.55 3.61 C35.24 6.24, 37.82 8.59, 41.48 13.2 C45.15 17.82, 50.56 28.37, 52.54 31.28 M0.5 1.75 C2.33 1.21, 7.36 -1.9, 12.25 -1.45 C17.15 -0.99, 24.98 1.93, 29.86 4.48 C34.73 7.02, 37.97 9.22, 41.5 13.83 C45.03 18.44, 49.38 29.47, 51.05 32.13" stroke="#000000" stroke-width="2" fill="none"></path></g></g><g stroke-linecap="round"><g transform="translate(343.95549387921346 139.2402061140233) rotate(0 -4.5848941808289965 31.41893160550967)"><path d="M-0.57 -0.27 C-0.47 2.55, 1.5 10.63, 1.59 15.84 C1.68 21.04, 0.8 25.51, -0.02 30.97 C-0.84 36.43, -1.33 43.15, -3.34 48.57 C-5.35 54, -10.5 60.99, -12.05 63.51 M1.33 -1.46 C1.73 1.68, 3.67 11.86, 3.86 17.44 C4.04 23.03, 3.66 26.69, 2.42 32.06 C1.18 37.43, -0.99 44.28, -3.57 49.66 C-6.15 55.03, -11.81 62.04, -13.07 64.3" stroke="#000000" stroke-width="2" fill="none"></path></g></g><g stroke-linecap="round" transform="translate(150.98397153508267 138.1919679438165) rotate(0 70.8540010738343 70.58248290660481)"><path d="M73.98 0.07 C84 -0.29, 96.63 4.32, 105.77 9.39 C114.91 14.45, 122.93 22.38, 128.81 30.46 C134.7 38.54, 139.52 47.96, 141.08 57.86 C142.64 67.76, 141.2 79.93, 138.18 89.86 C135.15 99.79, 129.54 109.86, 122.94 117.41 C116.35 124.96, 107.88 131.33, 98.63 135.15 C89.38 138.98, 77.76 140.64, 67.45 140.34 C57.14 140.04, 45.83 138.12, 36.77 133.34 C27.7 128.56, 18.87 119.98, 13.08 111.67 C7.29 103.36, 3.76 93.66, 2 83.46 C0.24 73.27, -0.09 60.6, 2.53 50.47 C5.16 40.35, 10.83 30.29, 17.77 22.73 C24.71 15.17, 34.11 8.85, 44.17 5.13 C54.23 1.4, 72.29 0.85, 78.14 0.38 C83.98 -0.08, 79.35 1.24, 79.26 2.34 M102.31 6.28 C111.66 9.65, 120.76 17.87, 126.84 25.79 C132.93 33.71, 136.45 43.7, 138.84 53.82 C141.22 63.93, 143.08 76.6, 141.16 86.48 C139.24 96.36, 133.81 105.13, 127.31 113.09 C120.81 121.05, 111.35 129.65, 102.14 134.23 C92.92 138.8, 82.27 140.69, 72.02 140.56 C61.77 140.43, 49.9 137.72, 40.64 133.46 C31.38 129.21, 22.86 122.84, 16.47 115.05 C10.08 107.25, 4.55 96.52, 2.31 86.67 C0.07 76.83, 0.8 66.18, 3.04 56 C5.27 45.82, 9.83 33.51, 15.74 25.62 C21.65 17.72, 29.36 13.02, 38.49 8.63 C47.63 4.25, 60.12 -0.44, 70.54 -0.69 C80.96 -0.95, 96.2 5.82, 101.03 7.09 C105.85 8.37, 99.82 6.14, 99.51 6.95" stroke="#000000" stroke-width="2" fill="none"></path></g><g stroke-linecap="round" transform="translate(172.11565184529172 161.86746190274562) rotate(0 48.46376729175063 46.195922927758374)"><path d="M70.9 5.5 C78.42 8.56, 85.47 15.59, 89.9 22.66 C94.34 29.74, 97.88 39.53, 97.5 47.92 C97.12 56.31, 92.8 66.26, 87.61 73.02 C82.41 79.79, 74.46 85.45, 66.34 88.51 C58.22 91.56, 47.41 92.81, 38.89 91.35 C30.36 89.9, 21.5 85.56, 15.18 79.78 C8.85 74, 2.96 64.71, 0.93 56.67 C-1.1 48.62, 0.18 39.39, 3.02 31.5 C5.86 23.6, 11.16 14.35, 17.96 9.29 C24.77 4.24, 34.61 1.68, 43.85 1.16 C53.09 0.64, 68.48 5.06, 73.39 6.19 C78.31 7.32, 73.71 7.33, 73.34 7.94 M65.87 2.73 C73.83 4.58, 81.15 10.42, 86.22 17.02 C91.29 23.62, 95.56 33.73, 96.29 42.35 C97.02 50.96, 94.64 61.4, 90.59 68.71 C86.53 76.03, 79.75 82.11, 71.96 86.24 C64.17 90.36, 52.66 93.85, 43.86 93.45 C35.06 93.06, 25.76 89.24, 19.17 83.89 C12.57 78.53, 7.26 69.37, 4.29 61.34 C1.32 53.31, -0.32 43.49, 1.35 35.7 C3.02 27.91, 8.11 20.47, 14.32 14.59 C20.53 8.72, 30.31 2.4, 38.6 0.46 C46.89 -1.48, 59.49 2.23, 64.06 2.96 C68.64 3.68, 66.07 3.92, 66.04 4.82" stroke="none" stroke-width="0" fill="#fd7e14"></path><path d="M31.27 3.72 C38.95 0.48, 50.47 -0.44, 59.15 1.23 C67.83 2.9, 77.38 8.07, 83.35 13.76 C89.32 19.44, 93.21 27.43, 94.95 35.36 C96.69 43.29, 96.68 53.28, 93.78 61.32 C90.88 69.36, 84.6 78.38, 77.57 83.61 C70.53 88.85, 60.37 92.18, 51.56 92.73 C42.76 93.29, 32.17 91, 24.74 86.96 C17.31 82.92, 11.06 75.64, 6.99 68.5 C2.91 61.36, -0.31 52.46, 0.28 44.12 C0.86 35.79, 4.74 25.59, 10.49 18.49 C16.24 11.39, 30.03 4.23, 34.78 1.51 C39.53 -1.2, 38.69 1.32, 38.97 2.19 M51.16 -0.51 C59.92 -0.92, 70.58 3.47, 77.34 8.47 C84.1 13.48, 88.66 21.74, 91.72 29.52 C94.77 37.3, 97.02 47.32, 95.66 55.16 C94.3 63.01, 89.52 70.45, 83.56 76.6 C77.61 82.75, 68.2 89.69, 59.92 92.06 C51.64 94.44, 42.25 93.63, 33.87 90.85 C25.49 88.08, 15.2 81.89, 9.64 75.41 C4.08 68.93, 1.39 60.25, 0.53 51.97 C-0.33 43.69, 0.77 33.2, 4.48 25.75 C8.18 18.29, 15.12 11.47, 22.74 7.26 C30.36 3.04, 45.66 1.29, 50.2 0.46 C54.75 -0.36, 49.95 1.51, 50.02 2.3" stroke="#000000" stroke-width="2" fill="none"></path></g><g stroke-linecap="round"><g transform="translate(267.3789999050532 267.6332216932992) rotate(0 24.04462045447508 20.68071333454941)"><path d="M-1.45 -0.73 C11.81 11.14, 28.4 23.7, 49.54 42.16 M-0.18 -0.8 C16.18 14.73, 32.36 28.39, 48.37 40.68" stroke="#000000" stroke-width="2" fill="none"></path></g></g><g stroke-linecap="round"><g transform="translate(315.2658160615283 309.61785605064915) rotate(0 9.523798432044714 -1.8986697008797364)"><path d="M-0.4 -0.82 C2.44 0.81, 5.61 0.23, 11.64 0.22 M-0.43 -0.07 C2.67 -0.35, 4.97 -0.46, 10.84 0.31 M11.74 -0.41 C12.76 -1.72, 15.15 -2.27, 19.37 -3.84 M11.14 -0.38 C13.98 -1.43, 15.78 -2.45, 19.48 -4.13" stroke="#000000" stroke-width="2" fill="none"></path></g></g><g stroke-linecap="round"><g transform="translate(334.80084768446613 304.67236027943864) rotate(0 2.0721040871885634 -10.535122584952205)"><path d="M-0.93 -0.04 C2.38 -2.79, 3.16 -6.14, 4.98 -12.48 M-0.09 0.36 C0.64 -2.21, 1.57 -4.98, 5.08 -11.5 M4.29 -12.15 C3.26 -15.47, 3.03 -17.95, 2.1 -21.21 M4.32 -11.03 C3.94 -14.02, 3.59 -15.74, 1.8 -21.43" stroke="#000000" stroke-width="2" fill="none"></path></g></g><g stroke-linecap="round"><g transform="translate(337.0630691556762 283.83032104678387) rotate(0 -24.625155354868184 -20.85807816273973)"><path d="M-0.06 1.45 C-9.57 -9.38, -20.2 -18.51, -49.83 -43.17 M0.58 -0.6 C-12.8 -12.53, -26.79 -22.62, -48.24 -41.42" stroke="#000000" stroke-width="2" fill="none"></path></g></g><g stroke-linecap="round"><g transform="translate(94.73248508580218 108.49227984854633) rotate(0 22.86646559717701 -0.4899495045815456)"><path d="M-0.04 0.87 C2.25 1.07, 9.31 0.34, 13.27 0.27 C17.23 0.2, 20.54 0.67, 23.74 0.47 C26.93 0.27, 28.51 -0.71, 32.43 -0.95 C36.35 -1.18, 44.77 -1.23, 47.25 -0.96 M-1.52 0.28 C0.71 0.18, 8.55 -1.39, 12.71 -1.71 C16.88 -2.03, 20.23 -1.85, 23.47 -1.63 C26.71 -1.4, 28.47 -0.43, 32.17 -0.34 C35.87 -0.25, 42.93 -1.13, 45.67 -1.08" stroke="#000000" stroke-width="2" fill="none"></path></g></g><g stroke-linecap="round"><g transform="translate(288.9108119991215 163.71662432632593) rotate(0 24.02556538216777 0.029799246017319092)"><path d="M0.87 0.75 C3.15 0.91, 9.06 1.24, 12.79 0.95 C16.52 0.66, 19.98 -0.78, 23.25 -0.98 C26.53 -1.17, 28.59 -0.35, 32.46 -0.21 C36.34 -0.08, 43.88 -0.08, 46.5 -0.17 M-0.13 0.09 C2.1 -0.06, 8.18 -0.63, 11.99 -0.67 C15.8 -0.72, 19.36 -0.41, 22.73 -0.17 C26.11 0.07, 27.97 0.73, 32.21 0.78 C36.45 0.83, 45.84 0.02, 48.18 0.14" stroke="#000000" stroke-width="2" fill="none"></path></g></g><g stroke-linecap="round"><g transform="translate(31.10265681767123 194.29625941571612) rotate(0 23.4872677383064 0.0150288536322023)"><path d="M0.75 0.27 C3 0.2, 9.96 0.67, 13.47 0.47 C16.98 0.27, 18.52 -0.71, 21.81 -0.95 C25.09 -1.18, 28.95 -1.23, 33.2 -0.96 C37.45 -0.69, 45.04 0.44, 47.29 0.69 M-0.32 -0.63 C1.86 -1.14, 8.94 -1.49, 13.03 -1.41 C17.11 -1.32, 20.8 -0.3, 24.19 -0.12 C27.57 0.05, 29.74 -0.62, 33.33 -0.36 C36.92 -0.1, 43.33 1.42, 45.74 1.45" stroke="#000000" stroke-width="2" fill="none"></path></g></g><g stroke-linecap="round"><g transform="translate(252.45725230742755 77.66015911426939) rotate(0 17.89153901715872 0.039622996625439555)"><path d="M0.27 0.95 C1.79 0.66, 7.32 -0.78, 10 -0.98 C12.69 -1.17, 13.99 -0.35, 16.4 -0.21 C18.81 -0.08, 21.07 -0.08, 24.48 -0.17 C27.88 -0.25, 34.79 -0.61, 36.83 -0.72 M-1.05 0.41 C0.28 0.17, 6 -0.05, 9.3 0.05 C12.61 0.15, 16.31 0.86, 18.8 1 C21.29 1.13, 21.4 1.14, 24.22 0.85 C27.04 0.57, 33.97 -0.79, 35.72 -0.71" stroke="#000000" stroke-width="2" fill="none"></path></g></g><g stroke-linecap="round" transform="translate(78.9008096003854 123.50605330076269) rotate(0 34.31138716809437 29.32629411346079)"><path d="M19.93 2.26 C25.84 -0.34, 35.65 -1.05, 42.42 0.11 C49.19 1.28, 56.2 4.67, 60.56 9.25 C64.92 13.82, 68.04 21.68, 68.58 27.55 C69.12 33.42, 67.06 39.51, 63.78 44.46 C60.49 49.41, 55.08 55.09, 48.88 57.23 C42.68 59.37, 33.32 58.85, 26.57 57.28 C19.81 55.71, 12.67 52.05, 8.35 47.8 C4.04 43.55, 1.16 37.33, 0.66 31.76 C0.17 26.2, 1.03 19.58, 5.39 14.43 C9.75 9.27, 21.78 3.21, 26.85 0.84 C31.91 -1.52, 35.37 -0.22, 35.77 0.24 M18.93 3.05 C23.98 0.1, 31.23 -1.32, 37.93 -0.37 C44.64 0.58, 54.01 4.86, 59.16 8.75 C64.32 12.63, 67.83 17.35, 68.86 22.94 C69.9 28.53, 68.3 37.03, 65.37 42.3 C62.44 47.57, 57.22 52.02, 51.29 54.55 C45.37 57.08, 36.49 58.14, 29.83 57.49 C23.17 56.84, 16.14 54.46, 11.33 50.63 C6.52 46.81, 2.08 40.07, 0.99 34.52 C-0.11 28.96, 1.82 22.68, 4.76 17.29 C7.7 11.91, 16.55 4.17, 18.62 2.2 C20.68 0.23, 16.96 4.93, 17.16 5.47" stroke="#000000" stroke-width="2" fill="none"></path></g><g stroke-linecap="round" transform="translate(86.96564023401515 147.64578847433222) rotate(0 17.00491572228202 14.826489740309853)"><path d="M12.38 -0.36 C15.83 -1.41, 21.95 -0.77, 25.3 0.74 C28.66 2.25, 31.15 5.76, 32.52 8.7 C33.89 11.64, 34.55 15.32, 33.51 18.38 C32.47 21.45, 29.32 25.16, 26.31 27.09 C23.29 29.02, 19.12 30.32, 15.45 29.96 C11.77 29.6, 6.81 27.18, 4.27 24.93 C1.74 22.67, 0.55 19.65, 0.25 16.43 C-0.04 13.21, -0.12 8.17, 2.53 5.59 C5.18 3.02, 13.1 1.83, 16.13 0.99 C19.16 0.15, 20.66 0.47, 20.69 0.57 M24.44 2.06 C27.79 3.12, 32.15 6.49, 33.46 9.16 C34.76 11.83, 33.6 15.1, 32.28 18.08 C30.96 21.07, 28.56 25.06, 25.54 27.06 C22.51 29.06, 17.65 30.53, 14.13 30.08 C10.62 29.63, 7.03 26.62, 4.45 24.36 C1.86 22.1, -1.15 19.54, -1.37 16.52 C-1.58 13.51, 0.49 9.19, 3.16 6.29 C5.82 3.38, 10.92 0.02, 14.6 -0.88 C18.29 -1.79, 23.51 0.21, 25.26 0.84 C27.01 1.47, 25.18 2.64, 25.11 2.9" stroke="none" stroke-width="0" fill="#fab005"></path><path d="M10.34 1.71 C13.38 0.59, 18.11 0.28, 21.49 1.16 C24.87 2.03, 28.4 4.36, 30.62 6.95 C32.83 9.54, 35.13 13.4, 34.81 16.7 C34.48 20, 31.36 24.61, 28.68 26.73 C26 28.85, 22.52 29.48, 18.74 29.43 C14.96 29.37, 9.22 28.22, 6.02 26.41 C2.81 24.6, 0.25 21.54, -0.48 18.57 C-1.21 15.6, -0.36 11.69, 1.63 8.58 C3.62 5.48, 9.62 1.09, 11.47 -0.08 C13.32 -1.25, 12.72 1.04, 12.74 1.57 M18.1 0.93 C21.73 0.68, 26.13 1.12, 28.67 3.42 C31.21 5.73, 32.85 11.31, 33.32 14.78 C33.79 18.24, 33.67 21.79, 31.47 24.21 C29.27 26.64, 23.71 28.54, 20.12 29.33 C16.54 30.11, 13.14 30.32, 9.94 28.95 C6.75 27.58, 2.64 24.01, 0.94 21.12 C-0.77 18.24, -1.37 14.63, -0.28 11.62 C0.81 8.61, 4.33 4.76, 7.47 3.06 C10.62 1.36, 16.61 1.78, 18.58 1.42 C20.55 1.06, 19.52 1.1, 19.28 0.92" stroke="#000000" stroke-width="2" fill="none"></path></g><g stroke-linecap="round" transform="translate(88.46578020615561 160.51573595337504) rotate(0 8.398012779813143 7.851443030912151)"><path d="M16.8 7.85 C16.8 8.31, 16.75 8.77, 16.67 9.21 C16.58 9.66, 16.46 10.11, 16.29 10.54 C16.12 10.96, 15.91 11.38, 15.67 11.78 C15.43 12.17, 15.14 12.55, 14.83 12.9 C14.52 13.25, 14.17 13.57, 13.8 13.87 C13.42 14.16, 13.02 14.42, 12.6 14.65 C12.18 14.88, 11.73 15.07, 11.27 15.23 C10.81 15.38, 10.34 15.5, 9.86 15.58 C9.38 15.66, 8.88 15.7, 8.4 15.7 C7.91 15.7, 7.42 15.66, 6.94 15.58 C6.46 15.5, 5.98 15.38, 5.53 15.23 C5.07 15.07, 4.62 14.88, 4.2 14.65 C3.78 14.42, 3.37 14.16, 3 13.87 C2.63 13.57, 2.28 13.25, 1.96 12.9 C1.65 12.55, 1.37 12.17, 1.13 11.78 C0.88 11.38, 0.67 10.96, 0.51 10.54 C0.34 10.11, 0.21 9.66, 0.13 9.21 C0.04 8.77, 0 8.31, 0 7.85 C0 7.4, 0.04 6.94, 0.13 6.49 C0.21 6.04, 0.34 5.59, 0.51 5.17 C0.67 4.74, 0.88 4.32, 1.13 3.93 C1.37 3.53, 1.65 3.15, 1.96 2.8 C2.28 2.46, 2.63 2.13, 3 1.84 C3.37 1.54, 3.78 1.28, 4.2 1.05 C4.62 0.82, 5.07 0.63, 5.53 0.47 C5.98 0.32, 6.46 0.2, 6.94 0.12 C7.42 0.04, 7.91 0, 8.4 0 C8.88 0, 9.38 0.04, 9.86 0.12 C10.34 0.2, 10.81 0.32, 11.27 0.47 C11.73 0.63, 12.18 0.82, 12.6 1.05 C13.02 1.28, 13.42 1.54, 13.8 1.84 C14.17 2.13, 14.52 2.46, 14.83 2.8 C15.14 3.15, 15.43 3.53, 15.67 3.93 C15.91 4.32, 16.12 4.74, 16.29 5.17 C16.46 5.59, 16.58 6.04, 16.67 6.49 C16.75 6.94, 16.77 7.62, 16.8 7.85 C16.82 8.08, 16.82 7.62, 16.8 7.85" stroke="none" stroke-width="0" fill="#000"></path><path d="M16.8 7.85 C16.8 8.31, 16.75 8.77, 16.67 9.21 C16.58 9.66, 16.46 10.11, 16.29 10.54 C16.12 10.96, 15.91 11.38, 15.67 11.78 C15.43 12.17, 15.14 12.55, 14.83 12.9 C14.52 13.25, 14.17 13.57, 13.8 13.87 C13.42 14.16, 13.02 14.42, 12.6 14.65 C12.18 14.88, 11.73 15.07, 11.27 15.23 C10.81 15.38, 10.34 15.5, 9.86 15.58 C9.38 15.66, 8.88 15.7, 8.4 15.7 C7.91 15.7, 7.42 15.66, 6.94 15.58 C6.46 15.5, 5.98 15.38, 5.53 15.23 C5.07 15.07, 4.62 14.88, 4.2 14.65 C3.78 14.42, 3.37 14.16, 3 13.87 C2.63 13.57, 2.28 13.25, 1.96 12.9 C1.65 12.55, 1.37 12.17, 1.13 11.78 C0.88 11.38, 0.67 10.96, 0.51 10.54 C0.34 10.11, 0.21 9.66, 0.13 9.21 C0.04 8.77, 0 8.31, 0 7.85 C0 7.4, 0.04 6.94, 0.13 6.49 C0.21 6.04, 0.34 5.59, 0.51 5.17 C0.67 4.74, 0.88 4.32, 1.13 3.93 C1.37 3.53, 1.65 3.15, 1.96 2.8 C2.28 2.46, 2.63 2.13, 3 1.84 C3.37 1.54, 3.78 1.28, 4.2 1.05 C4.62 0.82, 5.07 0.63, 5.53 0.47 C5.98 0.32, 6.46 0.2, 6.94 0.12 C7.42 0.04, 7.91 0, 8.4 0 C8.88 0, 9.38 0.04, 9.86 0.12 C10.34 0.2, 10.81 0.32, 11.27 0.47 C11.73 0.63, 12.18 0.82, 12.6 1.05 C13.02 1.28, 13.42 1.54, 13.8 1.84 C14.17 2.13, 14.52 2.46, 14.83 2.8 C15.14 3.15, 15.43 3.53, 15.67 3.93 C15.91 4.32, 16.12 4.74, 16.29 5.17 C16.46 5.59, 16.58 6.04, 16.67 6.49 C16.75 6.94, 16.77 7.62, 16.8 7.85 C16.82 8.08, 16.82 7.62, 16.8 7.85" stroke="#000000" stroke-width="2" fill="none"></path></g></svg>
