<svg version="1.1" xmlns="http://www.w3.org/2000/svg" viewBox="0 0 242.59003594765545 214.30715002468853" width="485.1800718953109" height="428.61430004937705">
  <!-- svg-source:excalidraw -->
  
  <defs>
    <style class="style-fonts">
      @font-face {
        font-family: "Virgil";
        src: url("https://excalidraw.com/Virgil.woff2");
      }
      @font-face {
        font-family: "Cascadia";
        src: url("https://excalidraw.com/Cascadia.woff2");
      }
    </style>
  </defs>
  <g stroke-linecap="round"><g transform="translate(72.27090153776135 198.86476981739287) rotate(0 0.48579946231939175 -93.71269643107007)"><path d="M-1.67 1.35 C-1.2 -29.43, 1.02 -153.03, 1.42 -184.53 M2.61 -0.39 C2.97 -32.01, 0.49 -157.93, -0.06 -188.77" stroke="#000000" stroke-width="2" fill="none"></path></g></g><g stroke-linecap="round"><g transform="translate(72.59931236433022 12.92026584520653) rotate(0 79.05490622388697 -0.6041073978291536)"><path d="M1.35 1.38 C27.9 1.95, 133.64 1.4, 159.47 1.71 M-1.36 -0.33 C24.93 -0.51, 130.73 -2.8, 158 -2.92" stroke="#000000" stroke-width="2" fill="none"></path></g></g><g stroke-linecap="round"><g transform="translate(231.20468129369965 13.389424168873973) rotate(0 -0.9269296669563118 95.31503285711365)"><path d="M1.38 1.41 C1.44 32.56, -1.17 156.4, -1.37 188.21 M-1.31 -0.29 C-1.42 31.06, -3.38 159.54, -3.23 190.92" stroke="#000000" stroke-width="2" fill="none"></path></g></g><g stroke-linecap="round"><g transform="translate(228.99537209679238 203.15543594111767) rotate(0 -78.25458022317935 -2.6703980622508823)"><path d="M1.41 0.7 C-25.13 0.09, -132.04 -1.39, -157.92 -2.24 M-1.26 -1.39 C-27.02 -2.88, -126.92 -6.06, -152.44 -6.04" stroke="#000000" stroke-width="2" fill="none"></path></g></g><g stroke-linecap="round" transform="translate(99.24324007298401 35.017622889954794) rotate(0 13.661037370069153 16.452529395892185)"><path d="M-0.14 -2.26 L29.54 0.95 L30.46 34.61 L0.9 30.01" stroke="none" stroke-width="0" fill="#fab005"></path><path d="M-2.42 3.2 C12.91 -0.02, 16.56 -1.5, 26.23 1.4 M-0.46 1.06 C7.03 -0.2, 14.34 -0.83, 27.15 -1.41 M27.18 -1.96 C23.82 12.52, 24.52 29.64, 30.01 32.22 M26.85 0.97 C28.65 10.62, 28.3 19.78, 26.55 31.5 M28.78 36.06 C20.09 29.42, 7.67 29.7, 1.46 36.67 M29.24 32.55 C21.51 32.69, 10.4 31.4, -1.99 33.37 M3.55 35.67 C-0.64 28.95, -3.39 16.42, -2.72 -2.7 M0.56 32.38 C1.4 22.39, -0.99 12.97, -1.35 -1.11" stroke="#000000" stroke-width="2" fill="none"></path></g><g stroke-linecap="round" transform="translate(98.44567092275156 89.45704873808614) rotate(0 14.605751630909253 15.245512981365266)"><path d="M-2.26 2.22 L30.16 3.14 L30.92 31.39 L-2.9 32.1" stroke="none" stroke-width="0" fill="#fd7e14"></path><path d="M3.2 3.36 C10.36 -2.19, 19.12 -0.73, 30.61 -2.67 M1.06 0.66 C7.73 1.73, 15.23 -0.04, 27.8 1.81 M27.25 -2.87 C28.64 4.02, 32.89 15.05, 28.53 31.36 M30.18 1.56 C29.8 9.28, 28.37 15.36, 27.8 31.86 M32.37 33.34 C18.24 31.2, 11.22 32.17, 3.76 29.6 M28.86 32.27 C18.48 29.31, 7.05 29.06, 0.47 29.3 M2.76 29.57 C3.44 18.96, -1.17 12.04, -2.7 0.12 M-0.53 32.33 C-0.67 18.77, -0.12 6.82, -1.11 -0.07" stroke="#000000" stroke-width="2" fill="none"></path></g><g stroke-linecap="round" transform="translate(98.71863576561282 146.83084664697589) rotate(0 13.53521763781282 14.25175035032369)"><path d="M2.22 0.95 L30.21 1.71 L27.97 25.61 L1.61 29.2" stroke="none" stroke-width="0" fill="#fab005"></path><path d="M3.36 0.12 C6.25 -1.79, 16.5 0.97, 24.4 -0.87 M0.66 -0.4 C8.72 -1.32, 14.06 -1.7, 28.88 -1.94 M24.2 -0.33 C24.88 11.34, 29.74 14.15, 27.94 27.08 M28.63 0.03 C28.15 9.75, 26.17 20.88, 28.44 27.5 M29.91 24.83 C18.54 25.54, 10.47 32.69, -0.89 30.39 M28.85 27.91 C15.34 26.53, 5.11 28.87, -1.19 27.66 M-0.92 32.47 C-4.17 16.82, -3.22 3.72, 0.12 2.64 M1.84 27.96 C-0.72 19.35, -1.51 9.08, -0.07 -1.13" stroke="#000000" stroke-width="2" fill="none"></path></g><g stroke-linecap="round"><g transform="translate(141.97076813210424 57.83151264721397) rotate(0 33.25491784616224 0.43600042048254295)"><path d="M2.35 0.08 C12.78 -0.27, 50.96 -0.22, 60.89 0.1 M0.18 -2.34 C11.67 -2.5, 56.41 3.32, 66.33 3.22" stroke="#000000" stroke-width="2" fill="none"></path></g></g><g stroke-linecap="round"><g transform="translate(149.5242171431555 112.38183046275759) rotate(0 24.11722518475699 0.873725447783869)"><path d="M0.08 -1.78 C8.3 -2.4, 42.65 -1.27, 51.55 -1.39 M-3.32 3.43 C4.24 4.45, 39.54 2.47, 48.8 1.83" stroke="#000000" stroke-width="2" fill="none"></path></g></g><g stroke-linecap="round"><g transform="translate(148.50059898242307 166.02795223632387) rotate(0 26.873354211440528 -1.7058744960034602)"><path d="M-1.78 -0.95 C7.08 -0.8, 46.16 0.92, 55.52 0.98 M2.45 -3.94 C10.66 -4.66, 43.24 -4.52, 52.87 -3.5" stroke="#000000" stroke-width="2" fill="none"></path></g></g><g stroke-linecap="round"><g transform="translate(152.75857343599182 90.02834236591406) rotate(187.3445537013068 0.5971281921442824 10.876194304854067)" fill-rule="evenodd"><path d="M0.9 -2.9 L10.82 10 L-9.07 15.02 L1.97 -1.33" stroke="none" stroke-width="0" fill="#e8d18c" fill-rule="evenodd"></path><path d="M-0.71 0.92 C0.92 2.31, 4.49 5.1, 10.59 10.17 M-0.11 -0.92 C3.91 1.43, 4.79 5.26, 8.57 8.37 M11.89 8.62 C4.75 11.04, 2.29 14.33, -6.77 22.03 M8.44 7.9 C5.3 10.95, -0.81 15.58, -7.13 20.33 M-7.25 22.67 C-7.83 17.01, -2.37 15.02, -0.7 3.56 M-10.7 19.38 C-7.21 13.12, -1.92 10.62, 1.38 -0.46 M0 0 C0 0, 0 0, 0 0 M0 0 C0 0, 0 0, 0 0" stroke="transparent" stroke-width="1" fill="none"></path></g></g><g stroke-linecap="round"><g transform="translate(157.83984105219042 93.26246200353427) rotate(187.3445537013068 0.17547408456857738 2.081178679721205)" fill-rule="evenodd"><path d="M-3.67 -0.64 L-0.33 -0.16 L-2.26 7.26" stroke="none" stroke-width="0" fill="#495057" fill-rule="evenodd"></path><path d="M0.24 -0.47 C0.4 0.36, 0.95 1.59, 2.62 2.41 M-0.25 0.32 C0.54 0.83, 1.77 1.77, 2.14 2.52 M2.21 2.77 C0.88 4.06, -0.16 4.13, -1.58 4.63 M2.02 2.9 C0.38 3.43, -0.9 4.41, -2.02 4.14 M-1.41 4.38 C-1.07 3.87, 0.18 1.53, 0.92 -0.31 M-2.27 4.31 C-2.01 4.13, -0.82 3.05, -0.12 0.52" stroke="transparent" stroke-width="1" fill="none"></path></g></g><g stroke-linecap="round"><g transform="translate(36.00011956288745 184.35864919520424) rotate(187.3445537013068 54.668412715959676 -41.92724369543721)" fill-rule="evenodd"><path d="M1.75 -1.37 L10.74 8.01 L113.63 -81.99 L101.64 -95.26 L2.55 3.76" stroke="none" stroke-width="0" fill="#fab005" fill-rule="evenodd"></path><path d="M-1.67 -0.54 C1.4 1.68, 6.01 5.4, 8.41 10.71 M1.13 -1.21 C1.7 2.25, 3.8 3.56, 8.81 8.04 M9.78 7.29 C51.95 -28.22, 90.87 -60.52, 111 -80.15 M10.28 7.71 C33.77 -10.14, 58.16 -30.46, 109.11 -82.34 M110.35 -81.33 C110.73 -81.93, 106.44 -84.19, 100.95 -94.56 M110.15 -83.15 C110.4 -83.35, 108.26 -86.83, 103.06 -93.46 M101.86 -89.6 C72.45 -66.31, 41.65 -37.56, -1.08 -1.12 M101.67 -93.37 C71.04 -65.18, 40.95 -37.1, 0.45 -1.45 M0 0 C0 0, 0 0, 0 0 M0 0 C0 0, 0 0, 0 0" stroke="#000000" stroke-width="1" fill="none"></path></g></g><g stroke-linecap="round" transform="translate(17.4680979356408 183.679228935131) rotate(236.61849979890542 5.740772662082691 5.483745751099946)"><path d="M0.7 -0.36 L7.59 1.97 L10.15 11.54 L1.03 7.72" stroke="none" stroke-width="0" fill="#f87762"></path><path d="M-0.5 -0.85 C2.6 1.37, 7.02 -0.31, 13.32 -1.18 M-1.12 -0.46 C3.31 -0.77, 5.87 -0.3, 10.86 1.13 M10.7 2 C10.93 5.09, 13.15 8.09, 12.81 9.44 M10.93 0.37 C11.73 3.73, 12.11 4.73, 11.62 10.04 M12.57 12.55 C9.82 10.51, 5.8 10.24, -2 8.81 M11 11.97 C10.2 11.62, 6.61 11.97, -1.05 10.78 M1.45 11.44 C0.76 7.84, 2.16 5.28, -0.61 0.01 M-0.62 11.58 C0.38 9.28, 0.59 6.11, -0.79 0.44" stroke="transparent" stroke-width="1" fill="none"></path></g><g stroke-linecap="round"><g transform="translate(25.449090612305554 183.99807831150798) rotate(187.3445537013068 5.7230975983716235 -0.159888983181105)" fill-rule="evenodd"><path d="M3.32 0.08 L-0.18 2.2 L5.16 1 L4.21 4.16 L6.3 8.93 L14.47 -0.6 L11.58 -4.62 L4.68 -6.97 L3.11 -5.74 L-1.67 -0.8" stroke="none" stroke-width="0" fill="#ced4da" fill-rule="evenodd"></path><path d="M-0.2 -0.12 C0.74 0.95, 0.83 1.96, 1.17 2.23 M-0.11 -0.01 C0.24 0.36, 0.69 0.93, 1.72 2.46 M1.92 2.16 C2.2 3.23, 2.45 3.68, 2.83 3.98 M1.54 2.37 C2.08 2.91, 2.04 3.2, 2.97 4.27 M3.64 4.8 C4.04 5.55, 4.93 5.24, 5.05 5.62 M3.47 4.46 C4.18 4.8, 5.08 5.25, 5.6 6.05 M5.73 6.36 C5.93 6.69, 6.3 6.42, 7.24 6.62 M5.75 6.31 C6.17 6.5, 6.47 6.45, 7.31 6.87 M6.71 7.07 C9.5 3.98, 11.94 2.79, 11.68 1.73 M6.59 7.24 C10.18 4.81, 11.93 2.73, 13.57 1.35 M13.36 1.6 C11.23 1.33, 11.5 0.16, 9.14 -1.52 M13 1.2 C11.62 0.5, 10.66 -0.42, 9.12 -1.28 M10.1 -0.3 C8.8 -2.03, 6.94 -2.99, 6.36 -4.93 M9.88 -1.2 C9.08 -2.34, 7.58 -3.04, 6.65 -4.87 M6.28 -4.97 C5.57 -6.13, 4.95 -7.35, 4.47 -7.56 M6.17 -5.1 C5.5 -5.81, 5.3 -6.6, 4.54 -7.51 M4.05 -6.05 C1.5 -6.51, 0.83 -4.96, -0.89 -1.83 M4.88 -6.89 C2.29 -5.17, 0.89 -4.27, -2.13 -1.96 M-1.2 -1.76 C-0.59 -1.54, -0.65 -0.98, -0.45 -0.04 M-1.47 -1.92 C-1.19 -1.78, -0.61 -1.49, -0.09 -0.23" stroke="#000000" stroke-width="1" fill="none"></path></g></g><g stroke-linecap="round"><g transform="translate(146.61506098801237 82.3025046469051) rotate(187.3445537013068 -60.16323297581039 62.49306160763459)"><path d="M-0.62 1.43 C2.99 1.83, 6.41 3.29, 8.97 7.98 M-0.05 -0.66 C2.44 3.82, 6.27 9.12, 10.11 9.65 M8.27 11.83 C-26.05 45.97, -64.36 77.01, -109.26 112.4 M9.93 11.46 C-33.54 47.67, -77.82 86.65, -106.98 117.1 M-103.88 114.51 C-109.28 116.76, -121.53 116.64, -130.44 125.01 M-105.94 116.6 C-112.76 119.66, -118.65 119.49, -127.82 122.73 M-125.35 123.02 C-120.25 117.28, -122.25 112.69, -119.96 103.12 M-125.99 125.65 C-122.67 118.86, -122.24 113.66, -116.91 105.15 M-116.69 106.36 C-97.77 87.54, -73.16 59.52, 0.28 3.39 M-116.26 106.69 C-91.95 84.95, -67.31 63.54, -0.68 0.92" stroke="#000000" stroke-width="1" fill="none"></path></g></g></svg>
