<svg version="1.1" xmlns="http://www.w3.org/2000/svg" viewBox="0 0 717.7104567253846 699.3406795233177" width="1435.4209134507691" height="1398.6813590466354">
  <!-- svg-source:excalidraw -->
  
  <defs>
    <style class="style-fonts">
      @font-face {
        font-family: "Virgil";
        src: url("https://excalidraw.com/Virgil.woff2");
      }
      @font-face {
        font-family: "Cascadia";
        src: url("https://excalidraw.com/Cascadia.woff2");
      }
    </style>
  </defs>
  <g stroke-linecap="round" transform="translate(114.46090891032509 92.11150415375505) rotate(0 296.62477390752974 298.6145876847813)"><path d="M334.34 2.29 C355.82 0.33, 378.81 10.88, 399.43 18.68 C420.04 26.49, 439.6 37.09, 458.04 49.11 C476.49 61.12, 494.67 75.06, 510.11 90.75 C525.55 106.45, 539.49 124.37, 550.67 143.29 C561.84 162.21, 570.32 183.21, 577.16 204.26 C583.99 225.32, 589.5 247.47, 591.69 269.63 C593.87 291.78, 593.05 315.27, 590.26 337.19 C587.47 359.11, 582.48 380.41, 574.94 401.15 C567.41 421.89, 557.01 442.96, 545.07 461.62 C533.12 480.28, 519.01 497.7, 503.29 513.09 C487.56 528.49, 469.44 542.65, 450.71 553.98 C431.98 565.3, 411.87 574.22, 390.91 581.04 C369.96 587.86, 346.88 592.66, 324.98 594.88 C303.09 597.09, 281.42 596.83, 259.53 594.31 C237.64 591.8, 214.42 587.22, 193.66 579.78 C172.9 572.35, 153.15 562.04, 134.97 549.68 C116.78 537.33, 99.87 521.79, 84.54 505.65 C69.21 489.51, 54.5 471.59, 42.98 452.86 C31.45 434.12, 22.3 414.1, 15.37 393.24 C8.44 372.38, 3.56 349.69, 1.41 327.71 C-0.75 305.72, -0.26 283.36, 2.44 261.33 C5.13 239.29, 10.17 216.53, 17.59 195.51 C25 174.49, 34.91 153.61, 46.93 135.19 C58.94 116.77, 73.59 100.45, 89.67 85 C105.75 69.55, 124.63 53.93, 143.4 42.47 C162.18 31, 181.46 23.09, 202.33 16.22 C223.19 9.34, 244.26 3.07, 268.58 1.23 C292.91 -0.6, 333.11 3.38, 348.28 5.21 C363.46 7.04, 360.4 7.47, 359.64 12.2 M409.56 23.38 C431.06 26.67, 451.05 41.15, 469.12 53.73 C487.2 66.3, 503.44 81.97, 518.01 98.83 C532.58 115.7, 545.76 135.39, 556.54 154.91 C567.32 174.43, 576.41 194.58, 582.69 215.95 C588.97 237.32, 593.12 261.01, 594.23 283.15 C595.33 305.28, 593.1 327.35, 589.31 348.74 C585.52 370.12, 580 390.84, 571.5 411.44 C562.99 432.03, 551.02 454.19, 538.28 472.32 C525.53 490.46, 511.33 505.52, 495.03 520.24 C478.73 534.97, 460.05 549.7, 440.46 560.68 C420.87 571.67, 398.63 580.26, 377.5 586.14 C356.38 592.01, 335.27 594.7, 313.71 595.94 C292.14 597.18, 269.79 597.32, 248.09 593.56 C226.39 589.79, 203.94 581.98, 183.5 573.35 C163.05 564.73, 143.28 554.34, 125.44 541.82 C107.6 529.3, 91.04 514.57, 76.46 498.26 C61.89 481.94, 48.95 463.53, 38.01 443.93 C27.06 424.34, 17.17 402.34, 10.79 380.69 C4.42 359.05, 0.64 336.05, -0.25 314.09 C-1.13 292.12, 1.57 270.7, 5.48 248.9 C9.39 227.1, 14.9 203.89, 23.21 183.28 C31.52 162.68, 42.79 143.33, 55.35 125.26 C67.9 107.18, 82.22 89.44, 98.53 74.83 C114.85 60.21, 134.01 47.92, 153.23 37.56 C172.45 27.2, 192.99 18.82, 213.86 12.68 C234.73 6.54, 256.63 2.21, 278.45 0.72 C300.28 -0.78, 322.69 -0.15, 344.82 3.69 C366.94 7.54, 400.49 19.76, 411.21 23.79 C421.93 27.81, 411.15 23.67, 409.11 27.83" stroke="#000000" stroke-width="2" fill="none"></path></g><g stroke-linecap="round"><g transform="translate(272.472952830607 656.5429128445585) rotate(0 -14.487456364980062 -104.70790544506781)"><path d="M1.14 0.31 C-3.46 -16.99, -23.82 -69.84, -27.9 -104.85 C-31.98 -139.85, -24.22 -192.35, -23.35 -209.72 M0.29 -0.58 C-4.47 -17.64, -24.9 -69.07, -28.96 -103.72 C-33.02 -138.37, -25.22 -190.54, -24.07 -208.48" stroke="#000000" stroke-width="2" fill="none"></path></g></g><g stroke-linecap="round"><g transform="translate(493.45082408432063 676.9909104029202) rotate(0 18.165973244041197 -39.28410385254574)"><path d="M0.31 -0.21 C3.87 -5.57, 14.09 -18.33, 20.26 -31.03 C26.43 -43.73, 34.37 -68.69, 37.33 -76.41 M-0.99 -1.37 C3.05 -6.01, 16.32 -16.62, 22.56 -29.45 C28.81 -42.28, 33.83 -70.54, 36.48 -78.36" stroke="#000000" stroke-width="2" fill="none"></path></g></g><g stroke-linecap="round"><g transform="translate(114.48723546868314 373.6526968631724) rotate(0 38.4080700102013 -5.071980336429078)"><path d="M-0.21 -0.78 C2.99 -1.53, 13.61 -3.1, 20.37 -4.17 C27.14 -5.25, 33.96 -6.35, 40.4 -7.25 C46.84 -8.15, 52.65 -8.93, 59.01 -9.56 C65.38 -10.19, 75.35 -10.69, 78.6 -11.01 M-1.78 1.42 C1.17 0.84, 12.5 -0.92, 19.47 -2.71 C26.44 -4.51, 33.41 -7.87, 40.03 -9.34 C46.64 -10.81, 52.91 -11.34, 59.16 -11.54 C65.41 -11.75, 74.6 -10.37, 77.51 -10.56" stroke="#000000" stroke-width="2" fill="none"></path></g></g><g stroke-linecap="round"><g transform="translate(346.5157988387091 383.13600604916337) rotate(0 67.8450280103425 42.170965930250986)"><path d="M-0.78 0.08 C11.1 6.18, 48.75 22.4, 71.63 36.39 C94.51 50.39, 125.57 75.95, 136.47 84.04 M1 -0.92 C12.69 4.86, 48.11 20.3, 70.6 34.67 C93.1 49.03, 125.36 77.24, 135.97 85.26" stroke="#000000" stroke-width="2" fill="none"></path></g></g><g stroke-linecap="round"><g transform="translate(553.9638975361177 442.02173088381005) rotate(0 -33.48881464037913 -91.79105943283002)"><path d="M0.08 -0.15 C-3.58 -16.22, -11.14 -66.96, -22.18 -97.22 C-33.23 -127.47, -59.01 -167.43, -66.2 -181.67 M-1.33 -1.27 C-5.07 -17.64, -11.78 -68.72, -22.74 -99.08 C-33.69 -129.44, -60.07 -169.7, -67.06 -183.43" stroke="#000000" stroke-width="2" fill="none"></path></g></g><g stroke-linecap="round"><g transform="translate(316.33001091145707 295.9168352852448) rotate(0 24.998353631242026 -32.00970470285347)"><path d="M-0.15 0.75 C3.66 -5.08, 13.45 -24.34, 22.09 -34.93 C30.73 -45.53, 46.92 -58.15, 51.68 -62.81 M-1.69 0.1 C2.08 -5.55, 12.54 -22.68, 21.4 -33.49 C30.27 -44.31, 46.56 -59.5, 51.49 -64.77" stroke="#000000" stroke-width="2" fill="none"></path></g></g><g stroke-linecap="round"><g transform="translate(323.50073361530485 107.21659677907792) rotate(0 28.773270389738173 19.09880837302353)"><path d="M0.75 0.49 C5.69 3.48, 20.21 11.68, 29.73 17.79 C39.24 23.89, 53.18 33.97, 57.86 37.12 M-0.31 -0.29 C4.45 2.4, 19.05 9.78, 28.68 16.24 C38.31 22.71, 52.53 34.93, 57.47 38.49" stroke="#000000" stroke-width="2" fill="none"></path></g></g><g stroke-linecap="round"><g transform="translate(502.68925278213646 150.50230641292274) rotate(0 27.817965741634907 -10.179611151687823)"><path d="M0.49 -0.19 C5.56 -1.52, 20.96 -4.26, 30.27 -7.26 C39.58 -10.25, 52.07 -16.06, 56.34 -18.16 M-0.71 -1.33 C4.31 -3.08, 20.51 -5.86, 29.9 -9 C39.29 -12.14, 51.29 -18.45, 55.63 -20.17" stroke="#000000" stroke-width="2" fill="none"></path></g></g><g stroke-linecap="round" transform="translate(394.78180835363673 137.90808543583807) rotate(0 49.11440499600667 47.83559569177396)"><path d="M52.86 0.34 C60.58 -0.09, 70.51 2.87, 77.22 7.44 C83.92 12.01, 89.53 20.53, 93.07 27.75 C96.62 34.96, 99.03 42.83, 98.49 50.75 C97.95 58.67, 94.67 68.51, 89.84 75.27 C85.01 82.04, 76.88 88.04, 69.52 91.33 C62.16 94.62, 53.56 95.6, 45.67 95.01 C37.77 94.41, 28.9 92.27, 22.13 87.74 C15.35 83.21, 8.65 75.12, 5.01 67.83 C1.38 60.55, -0.36 51.78, 0.32 44.02 C1 36.26, 4.4 27.74, 9.07 21.28 C13.74 14.81, 19.51 8.55, 28.33 5.22 C37.15 1.89, 54.9 1.28, 62 1.3 C69.1 1.31, 70.92 4.43, 70.93 5.3 M59.99 1.09 C67.71 2.13, 75.68 8.04, 81.76 13.52 C87.83 19, 93.77 26.58, 96.44 33.96 C99.11 41.35, 99.71 50.23, 97.78 57.83 C95.85 65.44, 90.76 73.4, 84.87 79.6 C78.97 85.8, 70.13 92.33, 62.42 95.02 C54.72 97.72, 46.56 97.8, 38.64 95.76 C30.71 93.72, 21.22 88.34, 14.86 82.8 C8.51 77.25, 2.54 70.08, 0.51 62.49 C-1.52 54.9, 0.28 45.17, 2.69 37.26 C5.11 29.35, 9.5 20.91, 15.01 15.05 C20.51 9.19, 27.99 4.55, 35.73 2.11 C43.46 -0.34, 57.34 0.37, 61.41 0.39 C65.48 0.42, 60.36 1.19, 60.15 2.25" stroke="none" stroke-width="0" fill="#fd7e14"></path><path d="M63.52 1.3 C71.14 2.79, 79.7 9.37, 85.29 15.29 C90.87 21.21, 95.12 29.02, 97.02 36.8 C98.91 44.58, 99.15 54.33, 96.66 61.98 C94.16 69.64, 88.12 77.29, 82.04 82.73 C75.96 88.17, 68.08 92.82, 60.17 94.62 C52.27 96.42, 42.44 95.86, 34.6 93.55 C26.76 91.24, 18.83 86.71, 13.12 80.76 C7.4 74.81, 2.27 65.64, 0.3 57.86 C-1.67 50.09, -1.21 41.76, 1.3 34.09 C3.81 26.41, 9.04 17.34, 15.37 11.83 C21.69 6.33, 29.8 2.05, 39.23 1.07 C48.65 0.09, 65.68 4.48, 71.92 5.95 C78.16 7.42, 77.28 9.29, 76.67 9.89 M55.47 1.31 C63.13 1.5, 71.81 4.95, 78.07 9.45 C84.33 13.94, 89.84 20.69, 93.03 28.28 C96.23 35.87, 97.86 47.15, 97.24 55.01 C96.62 62.87, 94.34 69.06, 89.34 75.45 C84.33 81.85, 74.75 90.1, 67.18 93.35 C59.61 96.61, 51.83 96.09, 43.91 95.01 C36 93.94, 26.57 91.92, 19.7 86.9 C12.83 81.88, 5.72 72.53, 2.71 64.91 C-0.31 57.29, 0.19 49.05, 1.61 41.2 C3.04 33.34, 6.43 24.1, 11.25 17.78 C16.08 11.47, 23.11 6.04, 30.59 3.31 C38.07 0.59, 52.23 1.69, 56.15 1.42 C60.06 1.16, 54.4 1.02, 54.06 1.7" stroke="#000000" stroke-width="2" fill="none"></path></g><g stroke-linecap="round" transform="translate(410.298013602076 152.59471420665614) rotate(0 33.907518015223104 32.766850358490046)"><path d="M44.9 2.19 C51.24 3.9, 58.69 9.6, 62.53 15.02 C66.37 20.43, 68.08 28.37, 67.95 34.69 C67.82 41.01, 65.79 47.93, 61.75 52.93 C57.7 57.94, 50.34 62.97, 43.66 64.71 C36.98 66.44, 27.83 65.54, 21.66 63.36 C15.49 61.18, 10.34 56.88, 6.63 51.64 C2.93 46.4, -0.74 38.56, -0.57 31.92 C-0.41 25.27, 3.39 16.85, 7.62 11.77 C11.85 6.7, 17.81 2.67, 24.8 1.47 C31.79 0.28, 44.63 3.61, 49.56 4.6 C54.5 5.58, 54.74 6.96, 54.42 7.37 M29.59 1.06 C35.47 -0.53, 42.89 0.24, 48.53 2.82 C54.17 5.39, 60.08 10.61, 63.44 16.48 C66.8 22.36, 69.53 31.7, 68.71 38.08 C67.89 44.46, 63.33 50.36, 58.53 54.74 C53.72 59.13, 46.6 63.42, 39.88 64.4 C33.15 65.39, 24.14 63.42, 18.15 60.64 C12.16 57.86, 6.95 53.1, 3.93 47.74 C0.9 42.38, -0.79 34.81, 0 28.48 C0.79 22.15, 4.12 14.52, 8.69 9.76 C13.26 5, 23.87 1.16, 27.43 -0.1 C31 -1.37, 29.55 1.61, 30.09 2.18" stroke="none" stroke-width="0" fill="#fff"></path><path d="M34.52 0.05 C40.73 -0.08, 49.62 3, 54.87 7.11 C60.11 11.22, 64.22 18.57, 65.99 24.7 C67.77 30.84, 67.79 37.98, 65.51 43.94 C63.22 49.9, 57.79 56.82, 52.29 60.45 C46.79 64.07, 39.08 65.99, 32.51 65.67 C25.93 65.36, 17.97 62.73, 12.85 58.55 C7.73 54.37, 3.62 46.99, 1.77 40.62 C-0.08 34.25, -0.59 26.27, 1.75 20.33 C4.08 14.38, 8.89 7.94, 15.76 4.93 C22.64 1.92, 37.12 2.08, 43.02 2.26 C48.92 2.44, 51.05 5.78, 51.15 6.01 M31.89 0.1 C38.39 -0.81, 46.32 1.77, 52.04 5.02 C57.77 8.27, 63.85 13.91, 66.25 19.61 C68.65 25.32, 68.39 32.97, 66.45 39.25 C64.5 45.52, 59.44 52.7, 54.59 57.26 C49.74 61.83, 44.02 66.22, 37.35 66.64 C30.68 67.05, 20.14 63.15, 14.56 59.74 C8.97 56.33, 6.15 51.91, 3.85 46.16 C1.55 40.42, -0.81 31.86, 0.73 25.26 C2.28 18.67, 8.22 10.6, 13.13 6.61 C18.04 2.61, 27.18 2.07, 30.17 1.29 C33.16 0.51, 30.95 1.51, 31.05 1.91" stroke="#000000" stroke-width="2" fill="none"></path></g><g stroke-linecap="round" transform="translate(224.44468515553854 313.2825415163343) rotate(0 49.11440499600667 47.83559569177396)"><path d="M73.14 5.02 C80.24 8.12, 86.54 16.81, 90.79 23.66 C95.03 30.51, 98.35 38.16, 98.6 46.1 C98.86 54.04, 96.48 64.13, 92.33 71.3 C88.18 78.47, 80.7 85.13, 73.72 89.1 C66.74 93.07, 58.36 94.94, 50.44 95.12 C42.53 95.3, 33.4 94.03, 26.21 90.16 C19.01 86.3, 11.63 78.84, 7.3 71.92 C2.97 65.01, 0.32 56.45, 0.2 48.68 C0.08 40.9, 2.59 32.12, 6.58 25.25 C10.57 18.38, 17.34 11.74, 24.13 7.44 C30.93 3.15, 38.05 -0.95, 47.36 -0.52 C56.67 -0.09, 73.32 6.89, 79.97 10 C86.61 13.12, 87.59 17.54, 87.23 18.18 M60.27 1.84 C68.13 3.06, 77.64 8.04, 83.83 13.38 C90.02 18.72, 95.25 26.32, 97.42 33.87 C99.6 41.42, 99.17 50.53, 96.86 58.67 C94.55 66.82, 89.16 76.62, 83.55 82.74 C77.95 88.87, 71.11 93.46, 63.24 95.42 C55.38 97.37, 44.7 96.54, 36.35 94.48 C27.99 92.42, 18.67 88.62, 13.12 83.07 C7.57 77.53, 4.73 69.07, 3.05 61.23 C1.36 53.38, 1.09 43.79, 3.01 35.98 C4.94 28.17, 8.96 20.26, 14.6 14.39 C20.23 8.51, 29.04 2.88, 36.8 0.74 C44.57 -1.41, 57.02 1.1, 61.2 1.52 C65.39 1.94, 61.91 2.4, 61.9 3.24" stroke="none" stroke-width="0" fill="#fd7e14"></path><path d="M62.14 1.54 C69.86 2.93, 78.17 7.95, 84.03 13.62 C89.89 19.3, 95.28 27.82, 97.31 35.58 C99.33 43.34, 98.38 52.45, 96.15 60.19 C93.93 67.92, 89.71 76.3, 83.97 81.97 C78.23 87.63, 69.66 92.1, 61.71 94.19 C53.76 96.28, 44.34 96.7, 36.27 94.51 C28.2 92.32, 19.22 86.71, 13.29 81.04 C7.35 75.37, 2.66 68.26, 0.65 60.49 C-1.35 52.71, -1.21 42.17, 1.25 34.38 C3.71 26.59, 9.41 19.06, 15.43 13.72 C21.44 8.39, 28.64 4.02, 37.34 2.35 C46.03 0.69, 61.6 2.82, 67.58 3.74 C73.55 4.66, 73.32 7.11, 73.19 7.87 M51.5 -0.27 C59.06 -0.8, 68.15 2.26, 75 6.93 C81.85 11.6, 88.54 20.63, 92.59 27.74 C96.64 34.84, 99.89 41.56, 99.31 49.57 C98.73 57.58, 93.67 68.98, 89.11 75.8 C84.54 82.61, 79.05 87.01, 71.91 90.48 C64.77 93.95, 54.8 97.31, 46.27 96.61 C37.74 95.91, 27.4 90.95, 20.73 86.26 C14.07 81.57, 9.51 75.57, 6.27 68.47 C3.02 61.37, 0.88 51.6, 1.28 43.67 C1.68 35.73, 4.19 27.16, 8.67 20.87 C13.14 14.59, 21.07 9.36, 28.15 5.95 C35.22 2.55, 47.21 1.21, 51.13 0.47 C55.04 -0.28, 51.34 0.55, 51.65 1.47" stroke="#000000" stroke-width="2" fill="none"></path></g><g stroke-linecap="round" transform="translate(239.86997791328213 327.8782577964512) rotate(0 33.907518015223104 32.766850358490046)"><path d="M38.61 0.97 C45.02 1.38, 52.21 5.46, 57.14 9.74 C62.07 14.01, 66.89 20.38, 68.18 26.6 C69.47 32.82, 67.98 41.3, 64.88 47.06 C61.77 52.82, 55.28 58.03, 49.56 61.14 C43.84 64.24, 37.11 66.4, 30.56 65.69 C24 64.97, 15.13 61.47, 10.23 56.87 C5.34 52.27, 2.29 44.39, 1.18 38.1 C0.07 31.81, 0.96 24.68, 3.58 19.12 C6.2 13.56, 10.79 7.84, 16.88 4.75 C22.98 1.67, 36.2 1.13, 40.17 0.62 C44.13 0.11, 40.89 1.08, 40.68 1.69 M38.62 -0.36 C44.65 -0.15, 52.32 3.56, 57.35 8.29 C62.37 13.01, 67.54 21.6, 68.77 27.99 C69.99 34.37, 67.87 41.05, 64.71 46.61 C61.56 52.17, 55.94 58.47, 49.83 61.34 C43.72 64.21, 34.7 64.71, 28.06 63.81 C21.43 62.91, 14.71 60.14, 10.02 55.94 C5.34 51.73, 1.19 44.92, -0.06 38.58 C-1.31 32.24, -0.42 23.83, 2.5 17.89 C5.43 11.96, 11.1 5.68, 17.48 2.96 C23.86 0.24, 36.87 1.95, 40.76 1.59 C44.65 1.22, 41.06 0.66, 40.82 0.76" stroke="none" stroke-width="0" fill="#fff"></path><path d="M29.01 0.29 C35.25 -0.89, 43.35 1.54, 49.22 4.5 C55.09 7.47, 61.26 12.36, 64.23 18.07 C67.19 23.78, 68.1 32.38, 66.99 38.79 C65.88 45.19, 62.28 52.07, 57.57 56.5 C52.86 60.93, 45.21 64.65, 38.71 65.37 C32.2 66.09, 24.49 64.01, 18.54 60.82 C12.6 57.62, 5.94 51.9, 3.03 46.2 C0.11 40.49, -0.02 32.61, 1.07 26.59 C2.15 20.56, 3.85 14.35, 9.55 10.03 C15.25 5.72, 29.84 2.25, 35.27 0.67 C40.7 -0.91, 42.16 0.25, 42.12 0.55 M36.95 0.17 C43.36 0.1, 52.05 3.17, 56.98 7.12 C61.92 11.07, 65.38 17.58, 66.55 23.87 C67.72 30.17, 66.36 38.53, 64.02 44.88 C61.68 51.23, 58.24 58.7, 52.51 61.98 C46.78 65.27, 36.22 65.14, 29.66 64.58 C23.09 64.03, 17.95 62.65, 13.12 58.66 C8.28 54.67, 2.2 47.25, 0.63 40.64 C-0.94 34.02, 1.3 24.77, 3.69 18.99 C6.09 13.21, 9.58 8.9, 15.01 5.95 C20.43 3, 32.8 2.09, 36.24 1.29 C39.68 0.49, 35.69 0.67, 35.67 1.15" stroke="#000000" stroke-width="2" fill="none"></path></g><g stroke-linecap="round" transform="translate(503.795475851075 475.32837415582344) rotate(0 49.11440499600667 47.83559569177396)"><path d="M54.14 1.01 C61.93 1.17, 71.83 3.96, 78.49 8.63 C85.16 13.31, 91.07 21.6, 94.15 29.06 C97.23 36.52, 97.85 45.66, 96.97 53.41 C96.1 61.16, 93.48 69.11, 88.91 75.53 C84.34 81.96, 77.07 88.76, 69.57 91.94 C62.08 95.11, 52.16 95.54, 43.95 94.57 C35.74 93.61, 26.84 90.66, 20.31 86.14 C13.78 81.63, 8 74.65, 4.76 67.49 C1.52 60.32, 0.19 51.21, 0.88 43.14 C1.56 35.07, 4.24 25.74, 8.89 19.06 C13.55 12.39, 19.77 5.96, 28.79 3.08 C37.81 0.2, 56.22 1.56, 63.03 1.77 C69.83 1.99, 69.9 3.69, 69.62 4.37 M44.86 -0.24 C52.91 -1.88, 63.23 -0.11, 70.67 3.1 C78.1 6.3, 85.01 12.05, 89.49 18.99 C93.97 25.94, 96.65 36.39, 97.54 44.79 C98.43 53.18, 98.24 62.27, 94.84 69.36 C91.43 76.44, 84.21 82.74, 77.09 87.3 C69.96 91.85, 59.97 95.91, 52.09 96.69 C44.21 97.48, 36.75 95.5, 29.8 92 C22.85 88.49, 15.25 82.27, 10.39 75.66 C5.52 69.05, 1.48 60.49, 0.61 52.34 C-0.25 44.2, 1.9 34.07, 5.21 26.8 C8.52 19.52, 13.79 13.01, 20.47 8.71 C27.14 4.4, 41.09 2.15, 45.27 0.95 C49.45 -0.25, 45.7 0.69, 45.56 1.51" stroke="none" stroke-width="0" fill="#fd7e14"></path><path d="M27.93 4.07 C34.75 0.19, 45.51 -0.68, 53.62 -0.01 C61.74 0.66, 69.9 3.54, 76.6 8.09 C83.29 12.65, 90.17 20.07, 93.78 27.33 C97.39 34.59, 98.92 43.62, 98.25 51.64 C97.58 59.66, 94.56 68.97, 89.75 75.46 C84.94 81.95, 76.96 87.16, 69.39 90.59 C61.82 94.03, 52.43 96.76, 44.33 96.08 C36.24 95.39, 27.26 91.09, 20.81 86.47 C14.36 81.85, 8.96 75.29, 5.62 68.36 C2.29 61.43, 0.44 52.86, 0.79 44.9 C1.14 36.94, 2.58 27.59, 7.71 20.61 C12.85 13.63, 26.62 6.06, 31.58 3.03 C36.54 0, 37.05 1.69, 37.48 2.42 M62.46 1.07 C70.13 2.92, 78.77 10.72, 84.73 16.55 C90.7 22.38, 96.52 28.22, 98.25 36.06 C99.98 43.9, 97.6 55.78, 95.13 63.58 C92.65 71.37, 89.23 77.5, 83.4 82.83 C77.57 88.16, 68.5 94.03, 60.15 95.58 C51.79 97.13, 40.95 94.78, 33.28 92.12 C25.61 89.47, 19.28 85.48, 14.12 79.65 C8.97 73.83, 4.26 64.94, 2.34 57.18 C0.43 49.42, 0.26 40.35, 2.65 33.09 C5.03 25.83, 10.89 18.87, 16.66 13.61 C22.43 8.34, 29.49 3.33, 37.25 1.5 C45.01 -0.33, 58.7 2.17, 63.24 2.62 C67.78 3.07, 64.62 3.28, 64.51 4.22" stroke="#000000" stroke-width="2" fill="none"></path></g><g stroke-linecap="round" transform="translate(519.3116810995161 490.0150029266397) rotate(0 33.907518015223104 32.766850358490046)"><path d="M38.69 1.28 C45.07 1.58, 53.6 4.91, 58.4 9.28 C63.2 13.65, 66.64 21.24, 67.5 27.49 C68.37 33.75, 66.4 41.04, 63.59 46.8 C60.78 52.56, 56.44 58.96, 50.63 62.05 C44.81 65.14, 35.29 66.43, 28.68 65.33 C22.07 64.23, 15.58 59.86, 10.96 55.42 C6.34 50.98, 2.31 44.74, 0.96 38.69 C-0.39 32.63, -0.02 24.88, 2.86 19.09 C5.74 13.31, 11.93 7, 18.26 3.99 C24.58 0.98, 36.5 1.23, 40.81 1.05 C45.12 0.86, 44.06 2.29, 44.12 2.89 M40.75 -0.67 C47.37 0.41, 56.17 6.43, 60.78 11.31 C65.39 16.19, 67.9 22.33, 68.4 28.59 C68.9 34.84, 67.35 43.34, 63.77 48.85 C60.2 54.36, 53.14 58.95, 46.94 61.63 C40.75 64.3, 33.13 65.96, 26.62 64.9 C20.12 63.83, 12.56 60.08, 7.92 55.25 C3.29 50.42, -0.45 42.55, -1.18 35.92 C-1.91 29.29, -0.31 20.81, 3.53 15.45 C7.38 10.1, 15.31 6.26, 21.88 3.77 C28.44 1.28, 39.62 1.12, 42.92 0.49 C46.22 -0.13, 41.85 -0.81, 41.69 0" stroke="none" stroke-width="0" fill="#fff"></path><path d="M33.66 0.67 C39.98 0.25, 48.58 2.36, 53.96 6.13 C59.35 9.9, 63.92 17.09, 65.95 23.3 C67.98 29.51, 68.2 37.33, 66.15 43.38 C64.09 49.43, 58.97 56.08, 53.63 59.62 C48.29 63.17, 40.83 64.89, 34.11 64.65 C27.38 64.4, 18.62 61.9, 13.29 58.13 C7.96 54.37, 4.16 47.9, 2.11 42.07 C0.05 36.24, -1.04 29.05, 0.97 23.15 C2.99 17.26, 8.27 10.71, 14.18 6.71 C20.08 2.7, 32.65 0.25, 36.42 -0.87 C40.18 -1.99, 36.91 -0.76, 36.78 -0.02 M34.99 -0.85 C41.21 -1.51, 48.59 1.1, 53.61 4.94 C58.62 8.78, 62.81 15.66, 65.06 22.21 C67.32 28.76, 69.27 38.18, 67.14 44.23 C65.01 50.29, 57.63 54.81, 52.29 58.54 C46.95 62.27, 41.56 66.45, 35.11 66.63 C28.65 66.8, 18.98 63.73, 13.57 59.57 C8.17 55.41, 4.85 47.64, 2.65 41.66 C0.45 35.68, -1.45 29.41, 0.38 23.69 C2.2 17.97, 8.16 11.22, 13.61 7.34 C19.05 3.45, 29.71 1.37, 33.06 0.38 C36.41 -0.61, 33.36 1.11, 33.7 1.39" stroke="#000000" stroke-width="2" fill="none"></path></g><g stroke-linecap="round" transform="translate(10 120.18971222217533) rotate(0 93.0673909108391 69.46334249142365)"><path d="M0.66 1.18 L187.03 -1.15 L185.06 137.96 L-2 140.7" stroke="none" stroke-width="0" fill="#fab005"></path><path d="M-0.06 -1.19 C40.61 0, 77.87 -0.32, 186.82 0.2 M0.54 -0.89 C58.6 -1.23, 118.58 -0.79, 185.34 0.83 M184.3 -0.28 C185.42 40.88, 187.54 81.11, 186.4 139 M185.19 -0.76 C184.96 50.85, 186.14 99.37, 185.58 139.84 M187.53 137.49 C114.96 141.02, 46.68 140.98, -1.36 139.43 M185.32 139.17 C134.49 140.48, 84.3 140.93, 0.15 139.9 M0.99 137.26 C-0.72 84.82, 0.58 26.63, 0.21 1.1 M-0.54 139.55 C-0.25 110.83, -1.41 82.68, -0.31 0.58" stroke="#000000" stroke-width="2" fill="none"></path></g><g stroke-linecap="round" transform="translate(73.17997841574834 147.61676393042853) rotate(0 26.839406879382295 24.979249966949737)"><path d="M30.66 1.21 C36.18 1.49, 43.87 4.47, 47.74 8.36 C51.61 12.25, 53.97 19.26, 53.88 24.54 C53.79 29.82, 50.64 35.84, 47.2 40.05 C43.75 44.26, 38.79 48.6, 33.21 49.79 C27.63 50.98, 18.82 49.9, 13.71 47.17 C8.59 44.44, 4.53 38.37, 2.53 33.42 C0.53 28.47, 0.14 22.3, 1.72 17.47 C3.3 12.64, 6.72 7.22, 12.02 4.45 C17.33 1.68, 29.75 1.22, 33.56 0.83 C37.37 0.44, 35.07 1.63, 34.86 2.11 M30.39 -0.46 C35.56 -0.3, 42.41 3.03, 46.51 7.25 C50.61 11.46, 54.71 19.44, 55 24.83 C55.3 30.22, 52.03 35.6, 48.28 39.59 C44.53 43.58, 38.34 47.82, 32.52 48.8 C26.7 49.77, 18.46 47.93, 13.37 45.45 C8.28 42.97, 4.03 38.57, 1.99 33.93 C-0.06 29.29, -0.55 22.64, 1.1 17.6 C2.75 12.56, 7.07 6.66, 11.88 3.7 C16.7 0.74, 26.55 0.14, 29.97 -0.15 C33.4 -0.44, 32.06 1.54, 32.44 1.97" stroke="none" stroke-width="0" fill="white"></path><path d="M35.39 1.74 C40.7 3.2, 47.01 7.82, 50.01 12.39 C53.02 16.96, 54.25 24.06, 53.4 29.16 C52.54 34.27, 49.33 39.72, 44.89 43.03 C40.45 46.33, 32.51 48.88, 26.76 49.01 C21.02 49.14, 14.91 46.9, 10.4 43.81 C5.88 40.72, 0.85 35.52, -0.33 30.45 C-1.5 25.38, 0.27 18.36, 3.35 13.4 C6.43 8.44, 12.46 2.72, 18.14 0.7 C23.83 -1.32, 33.94 0.81, 37.48 1.3 C41.02 1.79, 39.54 3.1, 39.39 3.64 M26.99 -1.41 C32.12 -1.59, 38.77 1.62, 43.34 5.57 C47.91 9.53, 53.55 17.06, 54.4 22.3 C55.24 27.55, 51.32 32.48, 48.41 37.05 C45.49 41.62, 42.15 47.77, 36.9 49.7 C31.65 51.64, 22.33 50.96, 16.91 48.67 C11.49 46.38, 7.34 40.52, 4.38 35.97 C1.43 31.42, -1.68 26.25, -0.83 21.38 C0.01 16.5, 4.95 10.21, 9.48 6.71 C14.01 3.21, 23.42 1.29, 26.34 0.38 C29.25 -0.53, 26.64 1.09, 26.98 1.24" stroke="#000000" stroke-width="4" fill="none"></path></g><g stroke-linecap="round"><g transform="translate(102.94248901466563 225.74335425259233) rotate(0 -0.32346334987232694 -14.404988036847499)"><path d="M-0.71 0.81 C-0.8 -4.12, -0.68 -24.68, -0.71 -29.62 M1.11 0.19 C0.87 -4.57, -1.26 -23.09, -1.76 -28.28" stroke="#000000" stroke-width="4" fill="none"></path></g></g><g stroke-linecap="round"><g transform="translate(151.30656873790758 158.24623200147016) rotate(0 19.889007292284987 0.35145479561560933)"><path d="M0.81 -0.18 C7.48 0.05, 33.34 0.46, 40.01 0.69 M-0.23 -1.32 C6.26 -0.86, 32.11 1.38, 38.85 2.03" stroke="#000000" stroke-width="4" fill="none"></path></g></g><g stroke-linecap="round"><g transform="translate(148.64920172014718 217.77125319930929) rotate(0 21.79640596634181 -1.1905664462510686)"><path d="M-0.18 -0.39 C7.49 -0.54, 37.66 -0.13, 45.33 -0.12 M-1.74 -1.64 C5.81 -2.23, 36.38 -2.48, 44.19 -2.03" stroke="#000000" stroke-width="4" fill="none"></path></g></g><g stroke-linecap="round"><g transform="translate(174.69139849420026 117.32277992795662) rotate(0 -75.76195339146852 -53.49588438230148)"><path d="M-0.39 -0.38 C-1.66 -12.05, -0.02 -53.72, -6.84 -70.21 C-13.66 -86.7, -29.88 -93.49, -41.29 -99.31 C-52.7 -105.13, -64.22 -105.31, -75.29 -105.11 C-86.35 -104.91, -97.06 -103.27, -107.7 -98.11 C-118.34 -92.94, -131.56 -90.22, -139.13 -74.12 C-146.7 -58.01, -151.07 -13.73, -153.13 -1.48 M1.61 -1.62 C0.14 -13.06, -0.31 -52.56, -7.57 -68.61 C-14.83 -84.67, -30.72 -91.5, -41.95 -97.95 C-53.18 -104.4, -64.26 -107.32, -74.94 -107.32 C-85.63 -107.33, -95.51 -103.39, -106.07 -97.97 C-116.63 -92.55, -130.52 -91.19, -138.31 -74.81 C-146.1 -58.42, -150.52 -11.97, -152.81 0.33" stroke="#000000" stroke-width="4" fill="none"></path></g></g><g stroke-linecap="round"><g transform="translate(149.7900265979806 116.1021495476225) rotate(0 -52.474114812355765 -42.93136743267405)"><path d="M-0.38 0.41 C-1.16 -8.95, -0.19 -43.15, -4.9 -56.56 C-9.61 -69.97, -20.87 -75.06, -28.65 -80.04 C-36.43 -85.02, -43.99 -86.45, -51.61 -86.43 C-59.22 -86.41, -67.12 -84.17, -74.33 -79.92 C-81.55 -75.68, -89.52 -74.37, -94.89 -60.96 C-100.27 -47.55, -104.77 -9.65, -106.58 0.57 M1.63 -0.42 C0.71 -10.14, -0.62 -45.54, -5.78 -58.58 C-10.95 -71.61, -21.83 -74.08, -29.37 -78.63 C-36.91 -83.18, -43.84 -85.63, -51.02 -85.88 C-58.19 -86.13, -64.77 -84.67, -72.4 -80.13 C-80.03 -75.59, -91.12 -71.97, -96.79 -58.66 C-102.46 -45.34, -104.77 -10.1, -106.43 -0.26" stroke="#000000" stroke-width="4" fill="none"></path></g></g></svg>
