<svg version="1.1" xmlns="http://www.w3.org/2000/svg" viewBox="0 0 156.35994060307348 184.9912095455502" width="312.71988120614697" height="369.9824190911004">
  <!-- svg-source:excalidraw -->
  
  <defs>
    <style class="style-fonts">
      @font-face {
        font-family: "Virgil";
        src: url("https://excalidraw.com/Virgil.woff2");
      }
      @font-face {
        font-family: "Cascadia";
        src: url("https://excalidraw.com/Cascadia.woff2");
      }
    </style>
  </defs>
  <g stroke-linecap="round"><g transform="translate(102.10190961958506 19.34666422889768) rotate(0 -20.917938988117385 -4.373133866138232)"><path d="M-0.4 0.17 C-3.68 -1.04, -13.16 -6.01, -20.27 -7.18 C-27.38 -8.34, -38.98 -6.85, -43.06 -6.84 M1.58 -0.79 C-1.78 -1.81, -13.64 -4.32, -21.14 -5.67 C-28.64 -7.03, -39.45 -8.87, -43.42 -8.91" stroke="#000" stroke-width="2" fill="none"></path></g></g><g stroke-linecap="round"><g transform="translate(58.04282598341888 12.275511846413792) rotate(0 -21.340551281375156 7.786036710702092)"><path d="M0.39 0.33 C-1.33 0.86, -6.18 2.08, -10.18 2.25 C-14.18 2.42, -19.51 0.28, -23.6 1.34 C-27.69 2.39, -31.9 6.1, -34.73 8.58 C-37.56 11.06, -38.99 14.97, -40.6 16.2 M-2.84 -1.97 C-4.97 -2.14, -8.85 -2.66, -12.5 -1.78 C-16.15 -0.9, -21.2 1.16, -24.76 3.3 C-28.33 5.43, -30.82 8.63, -33.87 11.05 C-36.92 13.48, -41.71 17.35, -43.07 17.85" stroke="#000" stroke-width="2" fill="none"></path></g></g><g stroke-linecap="round"><g transform="translate(16.190352216191968 27.57563697572141) rotate(0 0.19581899862532737 17.594649433823406)"><path d="M0.33 -0.16 C0.52 2.81, 0.65 12.41, 0.2 18.19 C-0.24 23.97, -2.24 31.57, -2.35 34.51 M-2.94 -2.71 C-2.87 -0.63, -2.1 7.06, -1.06 13.82 C-0.01 20.59, 3.16 35.07, 3.33 37.9" stroke="#000" stroke-width="2" fill="none"></path></g></g><g stroke-linecap="round"><g transform="translate(15.507552589922852 39.50367494818556) rotate(0 24.690441855302197 8.529884326210777)"><path d="M-0.16 1.8 C4.26 3.22, 17.98 6.81, 26.85 8.8 C35.72 10.79, 48.47 12.67, 53.06 13.75 M-3.68 0.32 C0.43 1.99, 16.05 8.55, 25.26 11.28 C34.46 14.02, 46.41 16.94, 51.53 16.73" stroke="#000" stroke-width="2" fill="none"></path></g></g><g stroke-linecap="round"><g transform="translate(16.074223891006113 61.54273551936922) rotate(0 22.468839737734015 8.275538990265431)"><path d="M1.8 1.19 C2.73 2.88, 3.01 7.38, 5.9 10.01 C8.8 12.65, 12.76 16.06, 19.16 16.99 C25.56 17.93, 40.15 15.13, 44.29 15.61 M-0.66 -0.63 C1.12 0.16, 8.18 3.1, 11.16 5.28 C14.14 7.46, 11.48 10.48, 17.22 12.46 C22.96 14.44, 41.61 17.01, 45.6 17.18" stroke="#000" stroke-width="2" fill="none"></path></g></g><g stroke-linecap="round"><g transform="translate(24.19185576495147 58.308605320260995) rotate(0 4.983584172525298 2.134008646241682)"><path d="M1.19 -2.12 C2.09 -1.94, 3.52 1.6, 5.25 2.86 C6.98 4.12, 11.15 5.04, 11.58 5.42 M-1.61 2.9 C-1.02 3.37, 1.22 6.74, 3.29 6.36 C5.35 5.98, 10.09 0.28, 10.77 0.61" stroke="#000" stroke-width="2" fill="none"></path></g></g><g stroke-linecap="round"><g transform="translate(21.416126849468128 67.48623559099997) rotate(0 -3.695312695337634 6.142884231204334)"><path d="M-2.12 0.51 C-3.49 1.69, -5.73 6.4, -6.43 8.3 C-7.13 10.2, -6.28 10.59, -6.3 11.9 M1.92 -1.68 C-0.01 -1.4, -7.25 1.68, -8.8 4.29 C-10.35 6.9, -7.95 12.78, -7.39 13.97" stroke="#000" stroke-width="2" fill="none"></path></g></g><g stroke-linecap="round"><g transform="translate(13.88175603734635 82.40043049676433) rotate(0 30.833803907715264 7.938642703400774)"><path d="M0.51 -0.24 C2.59 1.91, 9.67 8.07, 13.7 10.81 C17.73 13.55, 16.54 14.89, 24.67 16.2 C32.8 17.51, 56.42 18.96, 62.47 18.69 M-2.66 -2.84 C-0.89 -1.33, 6.94 4.17, 12.46 6.52 C17.98 8.87, 21.82 10.1, 30.47 11.25 C39.11 12.41, 59.75 12.98, 64.33 13.45" stroke="#000" stroke-width="2" fill="none"></path></g></g><g stroke-linecap="round"><g transform="translate(13.8180164302903 82.95138518241174) rotate(0 -0.8115582588143297 14.017051881968655)"><path d="M-0.24 1.84 C0.48 5.93, 1.83 20.49, 2.19 25.08 M-3.82 0.37 C-3.16 4.73, -0.07 23.55, 0.68 27.67" stroke="#000" stroke-width="2" fill="none"></path></g></g><g stroke-linecap="round"><g transform="translate(14.678937698197842 109.9446721979084) rotate(0 26.458741039288725 8.268982761843972)"><path d="M1.84 1.33 C5.5 3.74, 13.85 11.59, 22.46 14.18 C31.07 16.77, 48.6 17.12, 53.52 16.89 M-0.61 -0.41 C3.9 1.15, 18.89 7.66, 27.82 9.75 C36.75 11.85, 48.78 11.46, 52.99 12.16" stroke="#000" stroke-width="2" fill="none"></path></g></g><g stroke-linecap="round"><g transform="translate(22.03693315928831 115.31626209664228) rotate(0 -3.0816228725743713 8.496765121370345)"><path d="M1.33 -1.92 C0.46 -0.67, -4.22 5.87, -5.49 9.34 C-6.77 12.81, -5.49 17.28, -6.31 18.91 M-1.39 3.21 C-2.52 3.55, -6.16 3.83, -7.15 5.6 C-8.14 7.37, -6.63 11.06, -7.32 13.84" stroke="#000" stroke-width="2" fill="none"></path></g></g><g stroke-linecap="round"><g transform="translate(14.315709252510715 132.17582473556286) rotate(0 24.715590726807932 6.079635893319619)"><path d="M-1.92 1.07 C0.27 2.06, 10.38 6.09, 14.98 7.28 C19.57 8.48, 19.79 7.52, 25.66 8.24 C31.53 8.96, 46.05 11.11, 50.2 11.59 M2.24 -0.82 C4.1 -0.77, 10.33 1.28, 14.01 3.07 C17.69 4.86, 18.09 8.27, 24.31 9.92 C30.53 11.57, 47.43 12.86, 51.35 12.97" stroke="#000" stroke-width="2" fill="none"></path></g></g><g stroke-linecap="round"><g transform="translate(64.40892838128639 145.60218004648914) rotate(0 27.555951027004994 -8.010514022241523)"><path d="M1.07 2.34 C6.26 2.44, 24.06 1.31, 32.46 -1.32 C40.87 -3.94, 48.27 -11.45, 51.5 -13.41 M-1.79 1.15 C3.04 0.54, 21.24 -2.62, 31.02 -5.87 C40.81 -9.13, 53.53 -16.29, 56.9 -18.37" stroke="#000" stroke-width="2" fill="none"></path></g></g><g stroke-linecap="round"><g transform="translate(118.74039480662395 131.37253105759874) rotate(0 -1.6041947799076297 -8.272535014740924)"><path d="M2.34 1.47 C2.67 -0.66, 1.17 -8.51, 0.06 -11.76 C-1.06 -15.01, -3.68 -16.9, -4.36 -18.02 M0.17 -0.19 C0.38 -2.19, -0.76 -6.91, -1.72 -9.56 C-2.69 -12.22, -5.44 -14.84, -5.6 -16.13" stroke="#000" stroke-width="2" fill="none"></path></g></g><g stroke-linecap="round"><g transform="translate(106.69186278246343 117.7305088570447) rotate(0 6.59995597194029 -5.859841248680368)"><path d="M1.47 0.84 C2.12 0.09, 3.72 -0.72, 4.92 -2.15 C6.13 -3.59, 8.15 -6.65, 8.71 -7.78 M-1.17 -1.17 C0.2 -1.56, 7.31 -4.7, 9.89 -6.6 C12.48 -8.5, 14.74 -12.62, 14.32 -12.56" stroke="#000" stroke-width="2" fill="none"></path></g></g><g stroke-linecap="round"><g transform="translate(13.643387369862467 133.94219768178118) rotate(0 0.26344394283478323 9.644568912252225)"><path d="M0.84 -2.64 C0.57 -1.39, 0.38 5.16, 0.72 8.97 C1.07 12.79, 2.74 18.23, 2.91 20.28 M-2.15 2.1 C-2.91 3.5, -1.62 8.08, -0.95 11.38 C-0.28 14.69, 1.29 20.01, 1.86 21.93" stroke="#000" stroke-width="2" fill="none"></path></g></g><g stroke-linecap="round"><g transform="translate(15.103286315035803 157.13904892359642) rotate(0 26.537206866985798 8.495909485927314)"><path d="M-2.64 1.04 C-1 2.61, 6.57 8.13, 11.28 10.27 C15.98 12.41, 18.16 13.14, 25.57 13.89 C32.97 14.64, 50.62 14.38, 55.71 14.76 M1.13 -0.86 C3.49 -0.2, 11.49 3.02, 16.46 6.02 C21.42 9.01, 24.46 15.31, 30.94 17.12 C37.42 18.92, 50.42 16.83, 55.36 16.87" stroke="#000" stroke-width="2" fill="none"></path></g></g><g stroke-linecap="round"><g transform="translate(24.23900561127448 150.33550072936168) rotate(0 4.098271834054685 1.2429383731534926)"><path d="M1.04 -2.25 C1.85 -1.66, 4.19 0.11, 5.69 0.91 C7.19 1.71, 9.5 2.23, 10.03 2.57 M-1.84 2.7 C-1.35 3.77, 2.51 2.74, 4.2 3.08 C5.9 3.42, 7.55 4.44, 8.34 4.74" stroke="#000" stroke-width="2" fill="none"></path></g></g><g stroke-linecap="round"><g transform="translate(24.282662876379618 104.37400517028891) rotate(0 5.79163814815729 4.047512436260831)"><path d="M-2.25 1.39 C-1.47 1.95, 0.36 4.05, 2.06 4.43 C3.76 4.81, 6.9 3.57, 7.94 3.68 M1.72 -0.32 C3.57 0.65, 4.98 7.07, 7 8.17 C9.02 9.28, 13.64 6.33, 13.83 6.29" stroke="#000" stroke-width="2" fill="none"></path></g></g><g stroke-linecap="round"><g transform="translate(73.11331389826591 172.33963548846123) rotate(0 21.51294091415184 -7.655649662725182)"><path d="M1.39 -2.69 C5.69 -3.23, 19.68 -3.04, 26.84 -5.49 C34 -7.93, 41.18 -15.15, 44.33 -17.33 M-1.3 2.02 C2.55 2.01, 17.5 0.03, 24.72 -2.8 C31.94 -5.62, 38.38 -12.52, 42.02 -14.95" stroke="#000" stroke-width="2" fill="none"></path></g></g><g stroke-linecap="round"><g transform="translate(118.76833545629052 155.95331760329736) rotate(0 0.7218329471361358 -12.148294284584154)"><path d="M-2.69 0.22 C-2.39 -2.19, -0.74 -8.95, -0.48 -13.07 C-0.22 -17.2, -0.81 -22.53, -1.12 -24.51 M1.05 -2.13 C2.46 -4.27, 5.77 -6.78, 4.98 -9.94 C4.2 -13.11, -2.29 -19.07, -3.66 -21.14" stroke="#000" stroke-width="2" fill="none"></path></g></g><g stroke-linecap="round"><g transform="translate(70.84195131426895 135.2274704231645) rotate(0 7.74446187997637 -33.075953223182296)"><path d="M0.22 -1.73 C3.08 -12.89, 15.3 -58.13, 18.6 -69.65 M-3.11 3.5 C-0.82 -7.05, 12.27 -54.64, 15.86 -66.75" stroke="#000" stroke-width="2" fill="none"></path></g></g><g stroke-linecap="round"><g transform="translate(90.36198768879694 66.80081938546527) rotate(0 -12.470087817771855 -2.414471429207424)"><path d="M-1.73 -0.92 C-5.37 -0.92, -20.5 0.12, -24.5 0.23 M2.53 -3.89 C-1.36 -4.82, -23.66 -5.64, -27.47 -4.52" stroke="#000" stroke-width="2" fill="none"></path></g></g><g stroke-linecap="round"><g transform="translate(67.200062259064 66.43933723038117) rotate(0 10.341389664039525 -19.218571235224772)"><path d="M-0.92 -1.34 C2.64 -8.14, 17.93 -36.01, 21.6 -42.54 M3.78 4.11 C6.99 -2.29, 17.04 -33.34, 19.63 -40.32" stroke="#000" stroke-width="2" fill="none"></path></g></g><g stroke-linecap="round"><g transform="translate(88.32144711770525 26.4850813499952) rotate(0 21.991336792025322 1.390097560821232)"><path d="M-1.34 0.48 C5.67 0.78, 33.05 0.67, 40.33 0.87 M3.13 -1.73 C11.13 -0.86, 39.14 4.78, 45.32 4.49" stroke="#000" stroke-width="2" fill="none"></path></g></g><g stroke-linecap="round"><g transform="translate(131.23479242702888 27.24471776285236) rotate(0 -6.04051127195271 14.59206776745873)"><path d="M0.48 -2.59 C-1.09 2.38, -8.65 23.49, -10.32 28.46 M-2.7 2.18 C-4.56 7.7, -11.2 27.24, -12.56 31.77" stroke="#000" stroke-width="2" fill="none"></path></g></g><g stroke-linecap="round"><g transform="translate(120.91596124639545 56.1763873490886) rotate(0 11.137980358422283 -1.7539728948186166)"><path d="M-2.59 0 C1.78 0.03, 20.49 0.68, 24.86 0.69 M1.2 -2.47 C5.26 -3.37, 17.59 -4.84, 22.31 -3.89" stroke="#000" stroke-width="2" fill="none"></path></g></g><g stroke-linecap="round"><g transform="translate(146.36378107711425 56.186865092714015) rotate(0 -38.0993037374883 38.332296465219315)"><path d="M0 -0.58 C-12.48 12.74, -61.88 64.44, -74.39 77.38 M-3.45 -3.37 C-16.27 10.51, -63.98 66.31, -76.19 80.03" stroke="#000" stroke-width="2" fill="none"></path></g></g><g stroke-linecap="round"><g transform="translate(74.23745046272597 132.83491766906764) rotate(0 32.08689570436218 -52.06081459153074)" fill-rule="evenodd"><path d="M12.58 -103.01 C12.58 -103.01, 12.58 -103.01, 12.58 -103.01 M12.58 -103.01 C12.58 -103.01, 12.58 -103.01, 12.58 -103.01 M-3.69 -72.73 C6.71 -87.25, 13.56 -89.15, 22.95 -103 M-1.09 -77.37 C6.64 -85.45, 14.9 -93.1, 23.27 -100.71 M3.04 -59.92 C8.08 -71.21, 20.98 -84.63, 32.6 -101.21 M-2.04 -64.07 C7.62 -73.18, 18.5 -84.74, 31.89 -100.92 M6.37 -60.28 C14.8 -68.61, 29.87 -83.2, 40.65 -98.76 M11.04 -63.34 C15.66 -73.9, 24.37 -79.61, 43.86 -102.35 M17.07 -61.78 C31.13 -77.12, 38.69 -87.8, 52.09 -102.37 M17.77 -63.33 C27.86 -70.44, 33.85 -79.79, 53.31 -103.59 M12.82 -42.72 C29.81 -60.7, 48.89 -81.21, 61.24 -93.81 M15.76 -47.54 C31.37 -65.14, 47.11 -81.45, 57.36 -95.9 M10.68 -27.97 C29.23 -46.7, 36.95 -65.9, 53.06 -69.71 M10.74 -30.67 C24.34 -40.48, 36.29 -55.64, 51.15 -74.73 M4.66 -8.63 C17.17 -27.11, 31.23 -40.93, 62.95 -77.56 M7.73 -9.98 C24.25 -34.22, 47.11 -56.17, 61.19 -75.27 M0 0 C0 0, 0 0, 0 0 M0 0 C0 0, 0 0, 0 0 M4.87 -5.35 C4.96 -6.54, 2.94 -6.91, 2.05 -9.14 M4.93 -6.29 C4.76 -6.98, 3.95 -7.3, 2.11 -8.64 M11.29 -13.25 C10.31 -12.6, 6.65 -13.8, 4.3 -17.15 M10.83 -11.55 C9.46 -13.1, 8.64 -14.22, 4.31 -17.62 M13.53 -18.12 C9.67 -22.98, 6.38 -25.61, 7.59 -28.08 M15.54 -17.8 C12.44 -21.58, 11.6 -21.55, 5.62 -27.51 M21.01 -23.71 C12.97 -29.84, 10.41 -30.16, 6.9 -33.05 M21.7 -25.15 C18.88 -27.63, 13.81 -30.95, 9.1 -34.43 M21.94 -30.61 C18.71 -37.88, 20.38 -36.57, 13.3 -44 M24.57 -29.36 C21.71 -32.44, 20.97 -35.58, 10.56 -42.55 M31.52 -40.8 C24.84 -41.91, 24.72 -42.82, 15.89 -49.84 M29.11 -36.74 C24.59 -41.42, 23.78 -43.46, 11.56 -50.89 M36.19 -39.01 C29.08 -47.79, 26.37 -55.66, 11.62 -59.22 M38.23 -43.3 C28.52 -47.68, 25.79 -51.17, 15.04 -61.97 M1.27 -73.1 C1.27 -73.1, 1.27 -73.1, 1.27 -73.1 M1.27 -73.1 C1.27 -73.1, 1.27 -73.1, 1.27 -73.1 M40.84 -45.42 C26.97 -60.27, 13.84 -72.72, 4.48 -82.81 M43.89 -47.77 C27.3 -57.94, 15.3 -71.52, 4.66 -79.75 M48.44 -52.45 C30.83 -70.1, 17.08 -81.81, 5.84 -85.69 M47.99 -53.4 C38.63 -62.7, 30.1 -70.19, 6.38 -88.29 M51.82 -61.51 C40.51 -65.43, 34.49 -74.11, 11.97 -98.32 M52.52 -61.27 C40.2 -70.51, 29.97 -79.23, 12.1 -95.31 M61.38 -65.22 C43.91 -80.6, 25.31 -95.91, 14.02 -106.1 M57.25 -63.71 C43.36 -79.11, 23 -96.46, 12.64 -103.65 M63.71 -68.17 C58.92 -71.33, 55.99 -74.01, 54.49 -83.8 M66.75 -71.5 C62.23 -72.41, 60.36 -73.78, 53.97 -81.53 M51.25 -85.59 C47.22 -88.91, 37.82 -94.46, 22.71 -109.82 M52.29 -83.04 C41.78 -93.42, 31.19 -103.52, 21.88 -110.53 M54.75 -94.66 C46.09 -94.52, 39.51 -100.19, 36.81 -110.92 M52.61 -89.45 C45.22 -96.54, 40.04 -103.59, 34.46 -109.86 M58.1 -101.11 C54.27 -101.92, 52.56 -103.73, 44.15 -107.13 M56.5 -99.52 C53.49 -101.63, 48.83 -105.41, 46.2 -108.34" stroke="#fd7e14" stroke-width="1" fill="none"></path><path d="M-0.58 0.79 C3.63 -4.14, 13.63 -18.93, 22.7 -29.57 C31.77 -40.22, 45.97 -55.8, 53.81 -63.08 C61.66 -70.36, 69.52 -71.09, 69.77 -73.25 C70.02 -75.41, 59.49 -75.24, 55.3 -76.05 C51.12 -76.87, 45 -73.7, 44.67 -78.13 C44.34 -82.55, 55.27 -98.38, 53.32 -102.59 C51.38 -106.8, 39.53 -103.39, 32.99 -103.4 C26.46 -103.41, 17.55 -103.43, 14.11 -102.65 C10.68 -101.88, 13.9 -101.19, 12.38 -98.73 C10.85 -96.26, 7.65 -92.66, 4.96 -87.87 C2.27 -83.08, -3.36 -73.16, -3.76 -69.99 C-4.16 -66.81, 0.4 -69.58, 2.56 -68.8 C4.71 -68.03, 7.19 -65.54, 9.15 -65.32 C11.11 -65.11, 13.97 -72.31, 14.3 -67.49 C14.63 -62.68, 13.62 -48.15, 11.12 -36.44 C8.63 -24.73, 1.18 -3.52, -0.66 2.78 M4.3 -1.25 C9.65 -5.68, 18.93 -15.93, 28.13 -25.86 C37.33 -35.78, 52.33 -52.13, 59.48 -60.82 C66.62 -69.51, 70.99 -75.65, 70.99 -78.01 C70.98 -80.38, 63.38 -74.49, 59.43 -74.99 C55.47 -75.49, 48.13 -75.89, 47.26 -81 C46.4 -86.12, 55.84 -101.92, 54.25 -105.66 C52.66 -109.39, 43.68 -103.54, 37.72 -103.42 C31.76 -103.3, 22.3 -105.41, 18.48 -104.95 C14.65 -104.49, 17.01 -104.02, 14.78 -100.67 C12.55 -97.32, 8.69 -91.02, 5.09 -84.87 C1.49 -78.72, -6.7 -66.03, -6.81 -63.78 C-6.92 -61.54, 2.03 -71.2, 4.43 -71.42 C6.82 -71.64, 5.88 -65.43, 7.56 -65.13 C9.23 -64.84, 14.71 -73.72, 14.45 -69.65 C14.19 -65.57, 9.08 -51.85, 6.01 -40.67 C2.94 -29.49, -2.49 -9.86, -3.98 -2.58" stroke="#e67700" stroke-width="2" fill="none"></path></g></g></svg>
