<svg version="1.1" xmlns="http://www.w3.org/2000/svg" viewBox="0 0 184.66052880456118 174.13788844410556" width="369.32105760912236" height="348.2757768882111">
  <!-- svg-source:excalidraw -->
  
  <defs>
    <style class="style-fonts">
      @font-face {
        font-family: "Virgil";
        src: url("https://excalidraw.com/Virgil.woff2");
      }
      @font-face {
        font-family: "Cascadia";
        src: url("https://excalidraw.com/Cascadia.woff2");
      }
    </style>
  </defs>
  <g stroke-linecap="round"><g transform="translate(27.109664670479106 52.030036965768886) rotate(0 -0.6366012406579102 -15.866343834758709)"><path d="M-0.85 0.09 C-0.87 -5.06, -0.96 -24.77, -1.11 -29.89 M0.9 -0.91 C0.79 -5.92, -2.13 -27.05, -2.17 -31.82" stroke="#000000" stroke-width="4" fill="none"></path></g></g><g stroke-linecap="round"><g transform="translate(26.206828046291776 21.788912807471206) rotate(0 52.9382984139811 -1.094325284243041)"><path d="M0.09 -0.21 C17.78 -0.4, 89.47 -1.94, 107.2 -1.98 M-1.32 -1.37 C16.15 -1.35, 88.64 -0.72, 106.44 -0.9" stroke="#000000" stroke-width="4" fill="none"></path></g></g><g stroke-linecap="round" transform="translate(10 65.85098263632517) rotate(0 17.957862766976177 17.553277478615655)"><path d="M0.15 -1.89 L34.57 -1.77 L33.92 34.8 L-0.18 35.17" stroke="none" stroke-width="0" fill="#fab005"></path><path d="M0.59 -1.47 C7.58 1.13, 15.98 1.7, 37.32 -1.28 M-0.55 -0.31 C12.34 0.79, 23.43 -0.32, 36.83 0.98 M34.71 -1.65 C37.78 10.25, 36.29 16.7, 36.19 33.97 M35 0.26 C36.31 12.81, 35.49 25.34, 35.38 35.39 M36.52 36.18 C25.66 34.65, 19.93 33.53, 1.2 35.43 M36.57 35.84 C26.87 34.99, 15.68 35.69, 0.87 34.67 M-1.81 36.55 C1.61 26.01, -0.07 12.17, 0.62 0.38 M-0.15 35.63 C0.83 22.35, 0.79 9.21, 0.63 0.53" stroke="#000000" stroke-width="4" fill="none"></path></g><g stroke-linecap="round"><g transform="translate(26.95355459136772 117.54163166436274) rotate(0 -1.0709682983087987 16.631932876022347)"><path d="M0.36 -0.88 C0.12 4.84, -1.08 28.25, -1.35 34.15 M-0.92 1.27 C-1.36 6.66, -2.29 27.13, -2.5 32.36" stroke="#000000" stroke-width="4" fill="none"></path></g></g><g stroke-linecap="round"><g transform="translate(25.993477604843065 151.04545647606255) rotate(0 52.31089145665828 0.6920585485270294)"><path d="M-0.88 -0.39 C16.74 -0.17, 87.72 1.1, 105.5 1.63 M0.86 -1.63 C18.39 -1.27, 87.44 2.6, 104.89 3.02" stroke="#000000" stroke-width="4" fill="none"></path></g></g><g stroke-linecap="round"><g transform="translate(59.02637034455984 85.30750216275874) rotate(0 5.072126252529415 0.5430171529956169)"><path d="M-0.39 0.64 C1.31 1.01, 8.52 1.51, 10.53 1.34 M1.61 -0.07 C3.09 0.06, 7.82 -0.37, 9.44 -0.27" stroke="#000000" stroke-width="4" fill="none"></path></g></g><g stroke-linecap="round"><g transform="translate(86.55898463029371 83.25725645711145) rotate(0 6.384924772766681 -0.3160902193833408)"><path d="M0.64 -0.28 C3 -0.07, 11.44 0.72, 13.25 0.84 M-0.48 -1.47 C1.88 -1.56, 10.4 -0.81, 12.82 -0.83" stroke="#000000" stroke-width="4" fill="none"></path></g></g><g stroke-linecap="round"><g transform="translate(115.92068867626949 84.70647835818454) rotate(0 5.613384793541627 -0.2717396028174335)"><path d="M-0.28 0.98 C1.7 0.62, 9.6 -1.09, 11.5 -1.53 M1.78 0.45 C3.71 0.17, 9.53 -0.19, 11 -0.39" stroke="#000000" stroke-width="4" fill="none"></path></g></g><g stroke-linecap="round"><g transform="translate(136.165564102208 102.39114848671807) rotate(0 10.259379792483742 -16.52116960391436)"><path d="M0.98 0.84 C3.9 -4.44, 15.32 -26.4, 18.17 -32.01 M0.04 0.24 C3.29 -5.39, 17.06 -28.56, 20.48 -33.89" stroke="#000000" stroke-width="4" fill="none"></path></g></g><g stroke-linecap="round"><g transform="translate(155.10171669827469 69.90464102388705) rotate(0 9.413722819981558 15.185068144618299)"><path d="M0.84 -0.77 C4.06 4.08, 16.11 24.87, 19 30.04 M-0.17 1.45 C2.95 6.34, 15.4 26.18, 18.3 31.14" stroke="#000000" stroke-width="4" fill="none"></path></g></g><g stroke-linecap="round"><g transform="translate(173.62677941935544 100.52593332986226) rotate(0 -18.03861616692302 1.0413062459363118)"><path d="M-0.77 0.47 C-7.11 0.51, -31.08 0.96, -37.11 1.05 M1.03 -0.32 C-5.02 -0.19, -28.33 2, -34.84 2.41" stroke="#000000" stroke-width="4" fill="none"></path></g></g><g stroke-linecap="round" transform="translate(134.3624926884877 10) rotate(0 13.121052149212119 11.471488979947708)"><path d="M4.33 4.01 C5.32 1.97, 6.16 1.03, 8.73 0.86 C11.29 0.69, 16.98 1.87, 19.71 2.99 C22.45 4.1, 24.22 5.35, 25.15 7.54 C26.07 9.72, 25.86 13.63, 25.27 16.12 C24.69 18.6, 23.72 21.06, 21.63 22.46 C19.55 23.86, 15.6 24.9, 12.76 24.52 C9.92 24.13, 6.69 22.59, 4.59 20.16 C2.49 17.73, -0.23 13.45, 0.15 9.93 C0.54 6.41, 4.77 0.7, 6.9 -0.95 C9.04 -2.6, 12.68 -0.45, 12.95 0.03 M21.05 1.23 C23.73 2.81, 28.98 9.77, 29.06 12.26 C29.15 14.75, 23.99 14.61, 21.56 16.17 C19.14 17.73, 17.37 20.4, 14.5 21.61 C11.64 22.82, 6.79 24.53, 4.39 23.44 C2 22.35, 0.76 18.04, 0.15 15.08 C-0.45 12.11, 0.19 8.14, 0.74 5.64 C1.29 3.15, 1.34 0.54, 3.45 0.1 C5.57 -0.35, 9.92 2.24, 13.43 2.96 C16.94 3.68, 23.19 4.53, 24.51 4.41 C25.83 4.29, 21.38 1.96, 21.34 2.23" stroke="none" stroke-width="0" fill="#fab005"></path><path d="M9.74 1.83 C12.12 0.99, 13.66 -0.96, 16.48 0.13 C19.31 1.22, 25.32 5.88, 26.71 8.36 C28.1 10.83, 26.05 13.11, 24.82 14.97 C23.59 16.83, 21.68 17.9, 19.32 19.51 C16.95 21.13, 12.9 24.57, 10.62 24.65 C8.34 24.73, 7.49 21.94, 5.62 20 C3.75 18.06, 0.15 15.25, -0.6 13.01 C-1.36 10.77, -0.95 8.83, 1.07 6.59 C3.09 4.34, 9.42 0.48, 11.5 -0.46 C13.58 -1.4, 13.18 0.75, 13.53 0.92 M10.47 -1.13 C12.98 -1.53, 13.13 0.09, 15.7 1.64 C18.27 3.19, 24.53 6.17, 25.88 8.16 C27.23 10.15, 24.22 11.87, 23.83 13.57 C23.43 15.27, 25.18 16.7, 23.52 18.34 C21.86 19.98, 17.27 23.29, 13.87 23.39 C10.48 23.5, 5.02 20.45, 3.15 18.97 C1.28 17.49, 2.43 16.44, 2.66 14.52 C2.88 12.59, 3.56 10.03, 4.51 7.42 C5.46 4.81, 7.35 -0.44, 8.35 -1.13 C9.35 -1.83, 10.48 2.8, 10.53 3.25" stroke="#000000" stroke-width="2" fill="none"></path></g><g stroke-linecap="round" transform="translate(132.72073502318017 141.1949104842097) rotate(0 13.121052149212119 11.471488979947708)"><path d="M21.43 1.13 C23.43 2.37, 25.96 7.42, 26.71 10.11 C27.47 12.8, 27.46 15.28, 25.95 17.27 C24.44 19.26, 20.4 20.95, 17.64 22.03 C14.88 23.11, 11.87 24.36, 9.41 23.77 C6.94 23.18, 4.09 20.72, 2.85 18.51 C1.6 16.29, 1.43 13.13, 1.95 10.49 C2.47 7.85, 4.37 4.64, 5.97 2.67 C7.57 0.69, 9 -1.22, 11.53 -1.35 C14.07 -1.48, 19.2 0.82, 21.18 1.87 C23.17 2.92, 23.3 4.21, 23.44 4.96 M1.95 5.48 C3.79 3.93, 11.23 -1.06, 14.07 -1.69 C16.92 -2.32, 17.2 0.2, 19.01 1.69 C20.82 3.18, 23.68 4.76, 24.92 7.24 C26.15 9.72, 27.73 14.06, 26.44 16.56 C25.14 19.07, 20.45 21.82, 17.14 22.26 C13.83 22.71, 9.39 20.4, 6.57 19.24 C3.76 18.09, 0.83 16.73, 0.23 15.33 C-0.36 13.93, 2.2 13.23, 3.01 10.86 C3.83 8.49, 5.13 2.08, 5.12 1.11 C5.12 0.13, 2.67 4.21, 2.97 5" stroke="none" stroke-width="0" fill="#fab005"></path><path d="M7.65 -0.23 C9.8 -1.32, 11.36 1.44, 14.24 1.95 C17.12 2.46, 22.8 1.56, 24.93 2.84 C27.06 4.11, 27.48 7.26, 27.03 9.62 C26.57 11.97, 23.77 14.53, 22.18 16.97 C20.58 19.42, 19.96 23.63, 17.45 24.28 C14.93 24.93, 9.79 22.49, 7.08 20.86 C4.37 19.23, 2 16.85, 1.18 14.52 C0.36 12.2, 0.81 9.57, 2.16 6.91 C3.51 4.24, 7.31 -0.53, 9.29 -1.46 C11.26 -2.39, 14 0.93, 14.03 1.33 M1.21 1.56 C3.08 -0.36, 7.67 1.54, 10.95 1.17 C14.22 0.8, 18.59 -2.13, 20.85 -0.67 C23.1 0.79, 24.1 7.02, 24.48 9.93 C24.86 12.84, 23.78 15.03, 23.13 16.77 C22.49 18.52, 22.68 18.97, 20.6 20.41 C18.53 21.86, 13.21 25.27, 10.67 25.43 C8.13 25.59, 6.73 23.84, 5.37 21.37 C4 18.9, 3.16 13.32, 2.47 10.63 C1.77 7.95, 0.69 6.5, 1.21 5.28 C1.73 4.05, 5.14 3.71, 5.58 3.28" stroke="#000000" stroke-width="2" fill="none"></path></g></svg>
