<svg version="1.1" xmlns="http://www.w3.org/2000/svg" viewBox="0 0 848.0532938358028 538.2080587238402" width="1696.1065876716057" height="1076.4161174476803">
  <!-- svg-source:excalidraw -->
  
  <defs>
    <style class="style-fonts">
      @font-face {
        font-family: "Virgil";
        src: url("https://excalidraw.com/Virgil.woff2");
      }
      @font-face {
        font-family: "Cascadia";
        src: url("https://excalidraw.com/Cascadia.woff2");
      }
    </style>
  </defs>
  <g stroke-linecap="round" transform="translate(10 10) rotate(0 414.0266469179014 259.1040293619201)"><path d="M0.84 -0.67 C265.81 -1.08, 532.22 0.5, 827.62 1.03 M0.53 0.52 C331.7 7.02, 662.5 6.43, 827.94 0.75 M826.63 -1.14 C827.11 171.57, 828.86 342.36, 827.73 516.67 M828.62 0.13 C829.18 153.25, 828.36 306.88, 828.38 518.22 M827.9 519.63 C579.29 524.26, 329.2 525.05, 0.58 516.94 M827.51 518 C614.03 515.34, 401.56 515.53, 0.1 517.42 M-0.09 517.81 C-0.96 321.53, -1.02 126.22, 0.25 1.05 M0.47 517.87 C-3.73 318.75, -3.28 117.85, 0.64 0.33" stroke="#000000" stroke-width="2" fill="none"></path></g><g stroke-linecap="round"><g transform="translate(413.7889601554634 324.364421935471) rotate(0 156.60784027464524 -2.456297017943598)"><path d="M0.63 -0.51 C52.74 -1.24, 261.41 -3.95, 313.72 -4.41 M-0.5 -1.82 C51.39 -2.42, 260.46 -2.72, 312.92 -3.31" stroke="#000000" stroke-width="2" fill="none"></path></g></g><g stroke-linecap="round"><g transform="translate(725.2621054981464 324.04162287664894) rotate(0 29.92518466484762 -30.229840268697444)"><path d="M-0.51 0.3 C9.18 -9.67, 48.12 -49.04, 58.09 -59.18 M1.43 -0.6 C11.49 -10.93, 50.81 -50.95, 60.36 -60.75" stroke="#000000" stroke-width="2" fill="none"></path></g></g><g stroke-linecap="round"><g transform="translate(713.899279766556 208.6464225108066) rotate(0 32.94530477011449 27.816937208537865)"><path d="M0.3 -0.85 C11.34 8.65, 56.03 46.85, 66.9 56.48 M-1.01 1.33 C9.91 10.49, 55.57 45.59, 66.5 54.54" stroke="#000000" stroke-width="2" fill="none"></path></g></g><g stroke-linecap="round"><g transform="translate(710.6604793995157 208.6464225108066) rotate(0 -151.86982647256355 -14.277173882488114)"><path d="M-0.85 1.04 C-7.54 1.48, -27.28 9.73, -40.68 2.92 C-54.09 -3.9, -67.3 -39.68, -81.28 -39.83 C-95.25 -39.97, -111.74 -6.15, -124.51 2.06 C-137.28 10.27, -145.16 15.57, -157.9 9.42 C-170.65 3.26, -186.35 -33.64, -200.98 -34.87 C-215.61 -36.1, -228.58 -4.87, -245.67 2.03 C-262.77 8.93, -293.98 5.93, -303.54 6.52 M0.91 0.55 C-5.87 1.13, -27.7 11.3, -41.45 4.28 C-55.21 -2.73, -67.9 -41.25, -81.63 -41.54 C-95.37 -41.83, -110.99 -6.08, -123.88 2.54 C-136.77 11.17, -145.81 16.56, -158.96 10.22 C-172.1 3.88, -188.45 -33.91, -202.75 -35.51 C-217.06 -37.11, -227.8 -6.43, -244.78 0.62 C-261.76 7.67, -294.7 6.16, -304.65 6.76" stroke="#000000" stroke-width="2" fill="none"></path></g></g><g stroke-linecap="round"><g transform="translate(401.8948444098951 207.5668223884627) rotate(0 -164.62498664030954 61.748461433185184)"><path d="M2.44 0.79 C-10.4 -15.85, -39.86 -84.71, -76.32 -101.83 C-112.79 -118.96, -172.49 -121.75, -216.36 -101.95 C-260.24 -82.14, -325.21 -28.62, -339.59 16.98 C-353.97 62.57, -327.49 134.49, -302.63 171.61 C-277.76 208.73, -226.04 231.12, -190.4 239.7 C-154.77 248.28, -123.15 243.1, -88.82 223.08 C-54.49 203.07, -1.46 136.55, 15.57 119.62 M0.31 -1.24 C-13.02 -18.5, -42.81 -88.31, -78.97 -105.86 C-115.13 -123.42, -173.06 -126.19, -216.65 -106.55 C-260.24 -86.92, -325.76 -34.75, -340.5 11.95 C-355.25 58.66, -329.4 136.03, -305.11 173.68 C-280.82 211.33, -231.03 230.18, -194.75 237.85 C-158.48 245.52, -122.35 239.45, -87.46 219.69 C-52.58 199.93, -1.61 135.95, 14.56 119.29" stroke="#000000" stroke-width="2" fill="none"></path></g></g><g stroke-linecap="round" transform="translate(138.47241455862604 214.04442312251103) rotate(0 56.13920636174953 53.4402060558964)"><path d="M81.95 6.57 C90.17 9.91, 99.31 18.34, 104.25 25.96 C109.19 33.57, 111.26 43.58, 111.58 52.24 C111.9 60.9, 110.35 70.21, 106.18 77.92 C102.02 85.64, 94.71 93.9, 86.58 98.56 C78.46 103.21, 66.95 105.39, 57.43 105.86 C47.91 106.32, 37.73 105.3, 29.47 101.32 C21.2 97.34, 12.84 89.52, 7.84 81.97 C2.83 74.42, -0.21 64.9, -0.57 56.04 C-0.94 47.18, 1.02 36.67, 5.66 28.81 C10.3 20.94, 19.03 13.78, 27.24 8.86 C35.46 3.93, 44.06 -1.41, 54.95 -0.73 C65.85 -0.06, 84.96 9.28, 92.62 12.93 C100.28 16.57, 101.48 20.51, 100.9 21.13 M69.03 0.78 C77.89 1.64, 87.75 6.59, 94.42 12.63 C101.1 18.66, 106.26 28.48, 109.09 36.99 C111.92 45.5, 113.39 54.78, 111.4 63.7 C109.41 72.62, 103.49 83.94, 97.15 90.51 C90.8 97.08, 81.95 100.8, 73.35 103.13 C64.76 105.45, 54.82 106.03, 45.58 104.47 C36.34 102.92, 24.99 99.49, 17.91 93.8 C10.83 88.1, 5.84 78.72, 3.08 70.29 C0.33 61.85, -0.56 51.79, 1.39 43.18 C3.34 34.58, 8.43 25.38, 14.76 18.63 C21.09 11.88, 30.7 5.78, 39.39 2.69 C48.09 -0.39, 62.19 0.45, 66.94 0.13 C71.69 -0.19, 67.94 -0.38, 67.88 0.77" stroke="none" stroke-width="0" fill="#fd7e14"></path><path d="M72.96 3.42 C81.59 5.4, 92.36 12.15, 98.83 18.78 C105.3 25.4, 110.04 34.6, 111.78 43.17 C113.52 51.75, 112.19 61.82, 109.27 70.25 C106.36 78.68, 101.24 87.68, 94.28 93.77 C87.31 99.86, 76.94 105.17, 67.47 106.78 C58 108.38, 46.49 106.39, 37.44 103.41 C28.39 100.43, 19.2 95.53, 13.18 88.92 C7.15 82.31, 3.05 72.65, 1.3 63.75 C-0.45 54.85, -0.24 43.9, 2.69 35.53 C5.63 27.16, 11.92 19.16, 18.9 13.53 C25.89 7.91, 34.6 3.14, 44.6 1.78 C54.6 0.42, 72.64 4.42, 78.91 5.36 C85.18 6.31, 82.73 6.71, 82.21 7.45 M57.79 -0.14 C66.9 -0.67, 77.94 3.33, 85.92 7.8 C93.9 12.28, 101.03 18.95, 105.66 26.71 C110.29 34.48, 114.09 45.54, 113.7 54.4 C113.32 63.26, 108.17 72.4, 103.35 79.89 C98.53 87.38, 92.88 94.91, 84.77 99.34 C76.65 103.77, 64.37 106.53, 54.67 106.48 C44.98 106.43, 34.36 103.49, 26.58 99.02 C18.8 94.54, 12.4 87.56, 8.01 79.64 C3.61 71.73, 0.05 60.41, 0.2 51.55 C0.35 42.69, 4.34 33.92, 8.9 26.48 C13.47 19.03, 19.7 11.38, 27.58 6.87 C35.47 2.36, 51.57 0.49, 56.21 -0.58 C60.85 -1.65, 55.55 -0.6, 55.45 0.43" stroke="#000000" stroke-width="2" fill="none"></path></g></svg>
