<svg version="1.1" xmlns="http://www.w3.org/2000/svg" viewBox="0 0 437.0271021137421 257.8029768528701" width="437.0271021137421" height="257.8029768528701">
  <!-- svg-source:excalidraw -->
  
  <defs>
    <style class="style-fonts">
      @font-face {
        font-family: "Virgil";
        src: url("https://excalidraw.com/Virgil.woff2");
      }
      @font-face {
        font-family: "Cascadia";
        src: url("https://excalidraw.com/Cascadia.woff2");
      }
    </style>
  </defs>
  <rect x="0" y="0" width="437.0271021137421" height="257.8029768528701" fill="#ffffff"></rect><g stroke-linecap="round" transform="translate(162.303587891515 93.50631254417863) rotate(0 37.94140625 42.630859375)"><path d="M1.88 0.18 C19.69 -1.99, 36.45 -2.05, 77.06 -3.53 M1.36 -0.9 C29.31 -0.05, 58.28 1.25, 77.03 -1.2 M76.2 1.26 C75.63 21.15, 75.58 44.1, 73.79 82.2 M74.39 -0.05 C74.35 30.09, 76.15 58, 77.79 86.38 M75.8 87.19 C48.32 82.55, 13.23 84.94, 0.34 88.16 M74.22 85.21 C61.59 84.71, 43.75 86.98, 0.19 84.65 M-1.59 86.04 C2.17 58.98, -2.77 36.37, 1.01 2.67 M0.4 84.5 C-1.47 58.37, -1.52 31.08, 0.91 0.15" stroke="#2b3849" stroke-width="2" fill="none"></path></g><g stroke-linecap="round" transform="translate(173.73578108289303 106.47594458817571) rotate(0 5.639108543148836 12.617272327534153)"><path d="M0.16 -0.4 C4.07 0.13, 8.16 -0.26, 11.74 -0.7 M-0.36 -0.2 C3.46 -0.19, 6.48 -0.54, 11.45 -0.25 M11.85 0.05 C9.72 10.53, 11.87 18.6, 10.55 23.53 M11.05 -0.69 C12.1 5.23, 11.36 11.39, 11.73 25.8 M12.35 24.37 C9.6 25.51, 6.63 25.27, -0.93 24.98 M11.58 25.49 C7.96 25.79, 5.11 25.09, 0.24 25.43 M-1.42 25.15 C-1.75 18.47, 1 8.95, 1.75 -1.69 M0.59 25.58 C0.74 14.91, -0.2 6.19, -0.92 0.33" stroke="#60a86a" stroke-width="1" fill="none"></path></g><g stroke-linecap="round" transform="translate(192.94295602014404 107.30758543412526) rotate(0 5.6869319446216196 12.109857932247223)"><path d="M0.12 -0.45 C3.3 0.49, 6.44 -0.07, 11.07 1.06 M-0.08 -0.09 C2.25 0.13, 5.13 0.38, 11.93 0.39 M12.51 0.35 C11.19 7.22, 9.68 14.35, 12.67 25.3 M10.99 -0.08 C11.39 7.18, 11.77 12.61, 10.84 24.92 M11.57 24.45 C6.84 23.36, 2.14 23.89, -0.78 24.48 M11.91 24 C7.18 24.39, 3.52 24.32, 0.19 24.63 M1.53 25.31 C0.32 20.42, -1.68 14.57, 1.07 0.07 M-0.92 24.15 C-0.31 14.59, 0.24 6.94, -0.74 -0.82" stroke="#60a86a" stroke-width="1" fill="none"></path></g><g stroke-linecap="round" transform="translate(210.6246455070277 107.33514468243152) rotate(0 5.789873842706925 12.083109250067565)"><path d="M-0.26 -1.06 C4.87 0.17, 8.12 -0.94, 11.54 0.34 M-0.21 0.47 C4.45 0.31, 8.82 0.42, 11.01 -0.44 M11.26 1.42 C11.11 5.32, 11.5 9.94, 11.29 26.08 M11.22 0.04 C11.54 9.72, 12.34 19.3, 11.84 23.31 M11.13 24.4 C8.24 23.04, 5.3 25.1, 0.98 24.78 M12.06 23.82 C9.04 23.96, 7.21 24.34, -0.34 24.48 M-0.42 24.86 C1.25 16.61, -1.07 6.24, 1.14 1.52 M0.47 24.34 C0.47 17.94, 0.42 12.6, -0.55 -0.81" stroke="#60a86a" stroke-width="1" fill="none"></path></g><g stroke-linecap="round" transform="translate(174.59498117714884 141.05307441908616) rotate(0 5.80608516524012 11.707006567298976)"><path d="M0.06 0.45 C5.18 -0.69, 7.12 -1.18, 11.3 0.59 M-0.39 0.23 C3.98 -0.49, 8.69 -0.37, 11.91 0.33 M10.46 -1.25 C12.25 7.35, 13.4 14.59, 12.11 22.65 M12.31 0.65 C10.82 5.98, 11 12.78, 12.37 24.34 M10.96 22.79 C6.66 24.6, 2.34 24.42, -0.73 22.61 M11.92 22.88 C7.87 23.51, 3.83 23.41, 0.37 23.07 M1.69 24.13 C0.66 13.02, 0.65 7.46, 1.54 0.49 M-0.95 22.45 C-0.24 18.61, 0.62 12.53, 0.08 -0.19" stroke="#60a86a" stroke-width="1" fill="none"></path></g><g stroke-linecap="round" transform="translate(192.2458691512195 140.6526547525179) rotate(0 6.046012738730383 11.792926576724568)"><path d="M-0.63 -1.2 C3.42 0.61, 8.28 -1.1, 11.54 -0.64 M-0.05 0.01 C4.79 -0.61, 9.76 0.22, 11.87 0.12 M11.49 0.54 C9.94 5.75, 11.15 9.79, 11.33 23.12 M12.35 0.15 C12.98 7.86, 11.82 15.32, 11.45 24.48 M12.65 23.09 C9.37 24.19, 6.48 24.73, -0.88 23.53 M12.61 23.82 C10.03 23.11, 7.03 23.74, -0.23 24.18 M-1.07 24.79 C0.86 19.66, 0.8 14.51, -1.21 1.2 M-0.01 23.66 C0.48 17.23, -0.86 13.35, 0.88 -0.49" stroke="#60a86a" stroke-width="1" fill="none"></path></g><g stroke-linecap="round" transform="translate(211.27796180511268 140.48243586592002) rotate(0 5.233825479820666 11.800221671864477)"><path d="M0.4 0.8 C3.49 0.88, 5.6 0.56, 9.73 0.81 M0.35 -0.49 C2.1 0.3, 5.36 -0.26, 10.91 0.46 M8.66 1.84 C8.69 7.8, 9.45 13.8, 12.18 21.93 M9.92 0.7 C9.78 7.82, 9.99 17.35, 11.35 23.26 M11.37 23.2 C6.21 24.43, 2.68 24.3, -0.35 23.08 M10.88 24.02 C7.23 24.07, 3.39 24.08, 0.43 23.79 M-0.66 25.51 C0.4 16.21, 1.2 7.4, 0.84 -1.35 M0.88 23.59 C0.67 15.75, -0.49 6.98, -0.44 0.82" stroke="#60a86a" stroke-width="1" fill="none"></path></g><g stroke-linecap="round"><g transform="translate(190.4128805812236 76.87849936288637) rotate(0 0.49830047582480574 6.973399734796374)"><path d="M0.71 0.67 C0.58 3.91, 0.66 9.04, -0.07 14.2 M0.26 -0.62 C0.27 5.1, -0.19 10.65, 1.07 14.56" stroke="#2b3849" stroke-width="2" fill="none"></path></g></g><mask></mask><g stroke-linecap="round"><g transform="translate(207.48586001375838 76.41889485315187) rotate(0 -0.6085850659291054 7.7192524464374515)"><path d="M-1.35 0.99 C-0.73 5.78, -0.16 9.29, 0.13 16 M-0.41 -0.57 C-0.3 3.83, -0.09 7.44, 0 15.94" stroke="#2b3849" stroke-width="2" fill="none"></path></g></g><mask></mask><g stroke-linecap="round"><g transform="translate(223.74024437378898 76.4003818869104) rotate(0 0.21193595314457525 7.072135912508259)"><path d="M1.05 -1.52 C-0.74 4.87, 0.24 11.36, -0.16 15.66 M-0.5 -0.01 C-0.66 2.6, -0.75 6.47, -0.26 15.59" stroke="#2b3849" stroke-width="2" fill="none"></path></g></g><mask></mask><g stroke-linecap="round"><g transform="translate(237.51630599218663 111.51706411229486) rotate(0 17.345111106918182 -0.21355803419794483)"><path d="M0.4 -0.27 C13.96 -1.4, 25.58 0.68, 34.29 -0.97 M0.89 -0.4 C8.22 -0.33, 16.06 0, 32.1 0.54" stroke="#2b3849" stroke-width="2" fill="none"></path></g></g><mask></mask><g stroke-linecap="round"><g transform="translate(237.9203716031966 129.53018026526718) rotate(0 82.29736191428185 -0.8888984280331726)"><path d="M1.23 -1.29 C36.92 -2.69, 72.21 0.62, 163.19 -0.65 M-0.26 -0.14 C42.39 -0.48, 83.7 -1.81, 164.86 -0.52" stroke="#2b3849" stroke-width="2" fill="none"></path></g></g><mask></mask><g stroke-linecap="round"><g transform="translate(132.72325812642964 111.18222089679648) rotate(0 13.538280003451973 0.5233150128925104)"><path d="M-1.68 0.35 C4.28 1.11, 10.68 1.6, 28.76 -0.42 M0.37 -0.5 C9.24 0.45, 18.72 0.06, 27.48 1.54" stroke="#2b3849" stroke-width="2" fill="none"></path></g></g><mask></mask><g stroke-linecap="round"><g transform="translate(145.89885570934234 128.9747912780224) rotate(0 7.9156822364467985 0.10835350724926229)"><path d="M1.14 -0.91 C5.25 1.64, 8.98 -0.8, 15.22 -0.37 M0.61 0.25 C3.7 0.37, 6.52 -0.25, 13.89 1.12" stroke="#2b3849" stroke-width="2" fill="none"></path></g></g><mask></mask><g stroke-linecap="round"><g transform="translate(145.81997437492214 146.72389643415954) rotate(0 7.62592107002672 -0.1543742601989777)"><path d="M-0.62 0.29 C1.82 -0.07, 6.73 0.86, 15.87 0.02 M0.31 -0.69 C2.88 -0.39, 6.23 -0.24, 15.02 -0.68" stroke="#2b3849" stroke-width="2" fill="none"></path></g></g><mask></mask><g stroke-linecap="round"><g transform="translate(145.89563606303955 162.25708002234762) rotate(0 7.456813633697664 0.1509183612767515)"><path d="M0.75 0.71 C2.95 0.27, 8.53 0.51, 13.66 -0.41 M0.36 0.31 C4.27 0.26, 8.76 0.04, 14.56 0.25" stroke="#2b3849" stroke-width="2" fill="none"></path></g></g><mask></mask><g stroke-linecap="round"><g transform="translate(174.25267087555198 179.9273038440645) rotate(0 0.19141327501830574 6.94354250790289)"><path d="M0.85 -1.11 C0.78 5.78, 0.56 11.78, 0.1 15 M-0.56 0.16 C-0.2 4.42, 0.57 8.74, 0.95 14.4" stroke="#2b3849" stroke-width="2" fill="none"></path></g></g><mask></mask><g stroke-linecap="round"><g transform="translate(191.1936448096692 179.7309054195896) rotate(0 0.35541126147370505 7.2445400014194945)"><path d="M1.18 -0.12 C0.84 2.29, -1.32 7.88, -0.11 14.61 M-0.01 0.55 C-0.11 3.18, -0.43 7.74, -0.12 12.8" stroke="#2b3849" stroke-width="2" fill="none"></path></g></g><mask></mask><g stroke-linecap="round"><g transform="translate(207.83438672604393 178.40521605438357) rotate(0 -0.11528316330861799 7.202917560180907)"><path d="M0.41 -0.75 C-0.16 4.15, 0.56 8.44, -0.22 15.15 M0.05 0.29 C-0.61 5.51, -0.95 12, -0.27 15.09" stroke="#2b3849" stroke-width="2" fill="none"></path></g></g><mask></mask><g stroke-linecap="round"><g transform="translate(224.42119956684564 178.9992407972627) rotate(0 -0.7383016157922384 7.79645363288796)"><path d="M-1.07 1.23 C-1.47 5.12, -0.99 7.29, -0.57 14.92 M-0.42 0.39 C0.12 5.3, -0.82 10.02, -1.14 15.2" stroke="#2b3849" stroke-width="2" fill="none"></path></g></g><mask></mask><g stroke-linecap="round"><g transform="translate(239.72498335595424 165.2851573701953) rotate(0 6.1095009734544306 -0.7860714066561343)"><path d="M-1.17 -1.02 C3.22 0.82, 6.31 0.04, 12.5 -1.61 M-0.69 -0.63 C3.65 -0.04, 7.5 -0.42, 13.39 -0.82" stroke="#2b3849" stroke-width="2" fill="none"></path></g></g><mask></mask><g stroke-linecap="round"><g transform="translate(238.68745233485492 145.05692456084955) rotate(0 18.0015071419341 -0.7486383469407372)"><path d="M1.33 -0.46 C12.95 -0.53, 24.3 0.01, 35.16 -1.11 M0.84 -0.82 C9.32 -0.35, 19.48 -0.44, 34.46 -0.55" stroke="#2b3849" stroke-width="2" fill="none"></path></g></g><mask></mask><g stroke-linecap="round"><g transform="translate(238.07893918361287 144.7744005977728) rotate(0 22.19754642795533 12.533590594520092)"><path d="M1.94 0.1 C11.6 -1.15, 25.5 -0.43, 36.47 0.7 M0.43 -0.53 C13.78 -0.55, 25.61 -1.4, 36.32 -1.46 M37.05 -0.95 C39.1 0.25, 40.47 2.05, 43.96 4.87 M36.77 -1 C38.89 1.38, 41 3.14, 43.64 4.98 M42.72 4.96 C44.16 11.34, 43.01 18.29, 42.58 26.53 M43.42 4.38 C43.61 12.13, 44.25 19.38, 42.45 25.26" stroke="#2b3849" stroke-width="2" fill="none"></path></g></g><mask></mask><g stroke-linecap="round"><g transform="translate(174.42331212960403 92.24506625490096) rotate(0 -49.338397877845125 -32.23989740750591)"><path d="M0.58 0.94 C-1.84 -16.41, -1.47 -33.04, 1.18 -53.65 M0 0.12 C-0.96 -19.65, -1.68 -39.84, -0.59 -55.05 M0.35 -54.76 C-2.96 -57.9, -5.62 -60.12, -6.67 -62.76 M-0.55 -54.07 C-2.72 -57.28, -5.2 -59.03, -7.13 -62.81 M-8.7 -64.57 C-36.58 -65.41, -68.94 -66.46, -99.85 -63.21 M-7.99 -63.82 C-40.81 -63.73, -75.16 -63.62, -99.39 -63.91" stroke="#2b3849" stroke-width="2" fill="none"></path></g></g><mask></mask><g stroke-linecap="round"><g transform="translate(32.5246455348655 28.620025840769586) rotate(0 8.894832548976012 0.864331666734472)"><path d="M1.45 1.7 C4.92 1.21, 13.55 -1.3, 18.37 0.96 M-0.58 0.84 C5.53 0.31, 9.64 -0.37, 16.7 0.6" stroke="#2b3849" stroke-width="2" fill="none"></path></g></g><mask></mask><g stroke-linecap="round"><g transform="translate(322.9238634683736 94.40625383570227) rotate(0 36.92992143884089 -27.71041654430303)"><path d="M-1.23 -0.53 C12.49 2.25, 28.33 2.28, 58.33 -2.12 M0.23 -0.35 C16.95 -0.42, 34.22 0.76, 59.44 0.7 M61.57 -1.58 C63.78 -6.05, 66.47 -8.87, 73.73 -18.16 M59.91 -1.14 C64.41 -7.03, 69 -13.38, 74.46 -18.41 M75.09 -16.31 C69.28 -23.88, 67.06 -30.67, 61.28 -38.38 M73.43 -18.32 C68.66 -25.67, 64.46 -34.59, 61.47 -39.29 M62.18 -39.52 C57.97 -38.09, 54.99 -38.83, 50.09 -39.08 M62.73 -39.25 C58.86 -39.65, 56.84 -39.16, 49.21 -38.91 M48.48 -38.04 C46.52 -45.08, 42.78 -49.17, 31.95 -56.25 M49.91 -40.36 C43.78 -44.97, 39.12 -49.74, 33.71 -55.43 M33.13 -55.22 C30.47 -57.17, 27.21 -55.95, 20.99 -56.42 M33.24 -56.48 C29.3 -56.66, 24.92 -56.24, 20.91 -56.29 M20.41 -56.82 C18.76 -53.65, 14.13 -52.34, 10.47 -49.3 M21.47 -56.2 C16.93 -53.54, 14.07 -51.98, 11.77 -50.67 M9.39 -49.79 C8.2 -43.44, 6.54 -37.76, 5.33 -31.76 M11.67 -50.82 C9.38 -43.64, 6.59 -37.98, 4.99 -32.38" stroke="#2b3849" stroke-width="2" fill="none"></path></g></g><mask></mask><g stroke-linecap="round"><g transform="translate(278.37844704503937 59.378916795222494) rotate(0 28.94168197234876 -18.63600881616145)"><path d="M-0.44 0.1 C3.48 -2.05, 5.75 -3.36, 7.58 -4.48 M0.25 -0.01 C1.25 -0.89, 3.49 -2.11, 7.71 -4.45 M6.79 -4.61 C6.54 -10.16, 8.7 -13.03, 8.7 -25.64 M8.36 -4.39 C8.24 -8.11, 8.92 -13.44, 7.9 -23.61 M9.34 -25.39 C12.74 -25.84, 14.85 -28.41, 21.25 -34.88 M8.43 -24.53 C13.35 -27.7, 18.66 -32.55, 21.26 -33.67 M19.58 -35.38 C25.98 -34.6, 30.37 -33.66, 39.53 -37 M20.37 -33.4 C27.31 -35.47, 31.84 -35.04, 38.07 -36.32 M40.28 -37.16 C43.2 -33.91, 44.28 -32.4, 52.73 -28.01 M38.43 -37.37 C45.06 -32.57, 50.14 -30.13, 53.05 -27.61 M54.71 -27.24 C55.38 -22.35, 56.35 -18.86, 58.33 -16.6 M53.92 -27.61 C55.43 -22.63, 56.22 -19.59, 57.28 -17.19" stroke="#2b3849" stroke-width="2" fill="none"></path></g></g><mask></mask><g stroke-linecap="round" transform="translate(270.3397951383531 170.48810579563133) rotate(0 12.046709097969483 12.04670909796954)"><path d="M6.68 1.22 C8.77 0.24, 12.55 0.41, 15.25 1.23 C17.95 2.06, 21.35 4.15, 22.88 6.16 C24.41 8.18, 24.94 10.91, 24.46 13.31 C23.97 15.7, 21.86 18.78, 19.98 20.54 C18.1 22.3, 15.69 23.83, 13.18 23.85 C10.67 23.88, 7.16 22.27, 4.93 20.69 C2.71 19.12, 0.53 16.61, -0.17 14.39 C-0.87 12.18, -0.82 9.62, 0.74 7.39 C2.3 5.17, 7.58 2.36, 9.18 1.04 C10.77 -0.27, 10.5 -0.46, 10.3 -0.51 M18.43 0.65 C20.96 1.72, 23 5.65, 23.98 7.99 C24.96 10.33, 25.06 12.49, 24.34 14.69 C23.61 16.88, 21.91 19.75, 19.62 21.16 C17.34 22.57, 13.34 23.43, 10.63 23.14 C7.92 22.86, 4.98 21.18, 3.36 19.47 C1.75 17.76, 1.23 15.53, 0.93 12.91 C0.62 10.28, 0.12 5.81, 1.52 3.72 C2.93 1.63, 6.81 0.96, 9.35 0.37 C11.9 -0.21, 15.4 0.1, 16.77 0.21 C18.14 0.32, 17.76 0.67, 17.59 1.03" stroke="#2b3849" stroke-width="2" fill="none"></path></g><g stroke-linecap="round" transform="translate(109.00170907847166 99.5995433222289) rotate(0 11.445842606696715 11.445842606696715)"><path d="M6.7 0.38 C8.42 -1.05, 10.82 -0.88, 13.13 -0.34 C15.45 0.2, 19.11 1.6, 20.58 3.63 C22.04 5.65, 22.16 9.09, 21.93 11.81 C21.7 14.53, 20.81 18.02, 19.19 19.95 C17.57 21.87, 14.35 23.3, 12.2 23.36 C10.06 23.42, 8.17 21.77, 6.32 20.3 C4.47 18.83, 2 16.8, 1.1 14.52 C0.2 12.24, -0.07 9.04, 0.91 6.64 C1.9 4.25, 5.92 1.24, 7.02 0.16 C8.11 -0.93, 7.36 -0.22, 7.49 0.15 M9.8 -0.74 C12.16 -1.21, 16.94 -0.16, 19.01 1.59 C21.08 3.33, 21.81 7.44, 22.24 9.73 C22.67 12.02, 22.57 13.24, 21.59 15.32 C20.6 17.41, 18.53 21.17, 16.33 22.23 C14.13 23.29, 10.99 22.42, 8.4 21.68 C5.82 20.95, 2.45 19.73, 0.83 17.84 C-0.8 15.94, -1.9 12.85, -1.36 10.33 C-0.81 7.8, 2.23 4.23, 4.09 2.67 C5.96 1.11, 8.9 1.58, 9.82 0.98 C10.75 0.37, 9.53 -0.87, 9.64 -0.96" stroke="#2b3849" stroke-width="2" fill="none"></path></g><g stroke-linecap="round" transform="translate(10 15.33254554883365) rotate(0 11.480453804452623 11.480453804452623)"><path d="M13.32 0.89 C15.65 1.2, 19.09 2.89, 20.59 4.65 C22.1 6.42, 22.59 9.09, 22.36 11.49 C22.14 13.89, 20.85 17.03, 19.23 19.06 C17.61 21.09, 15.09 23.25, 12.65 23.68 C10.2 24.11, 6.66 22.97, 4.56 21.65 C2.46 20.33, 0.81 18.25, 0.04 15.76 C-0.73 13.26, -1.06 9.08, -0.07 6.66 C0.93 4.25, 3.52 2.18, 6.03 1.27 C8.54 0.36, 13.27 1.07, 14.98 1.21 C16.69 1.34, 16.38 1.92, 16.29 2.06 M6.98 0.79 C9.12 -0.1, 13.07 0.53, 15.58 1.13 C18.08 1.73, 20.66 2.76, 22 4.37 C23.34 5.99, 24.17 8.37, 23.62 10.82 C23.07 13.27, 20.55 17.2, 18.71 19.08 C16.87 20.95, 14.95 21.75, 12.57 22.08 C10.19 22.4, 6.44 22.28, 4.45 21.03 C2.46 19.78, 1.32 16.79, 0.66 14.58 C0 12.36, -0.54 9.85, 0.49 7.75 C1.53 5.64, 5.9 3.12, 6.87 1.96 C7.84 0.8, 6.38 0.93, 6.31 0.8" stroke="#60a86a" stroke-width="2" fill="none"></path></g><g stroke-linecap="round" transform="translate(51.25171825549978 15.84366439941391) rotate(0 11.302568346219232 11.302568346219232)"><path d="M12.77 -0.73 C15.26 -0.42, 17.93 2.17, 19.53 3.9 C21.13 5.63, 22.29 7.41, 22.38 9.66 C22.47 11.92, 21.31 15.45, 20.07 17.45 C18.84 19.45, 17.18 20.97, 14.96 21.67 C12.75 22.36, 9.02 22.52, 6.79 21.61 C4.56 20.71, 2.69 18.55, 1.6 16.25 C0.51 13.94, -0.4 10.11, 0.26 7.77 C0.91 5.44, 3.44 3.59, 5.53 2.23 C7.62 0.87, 11.34 -0.19, 12.79 -0.38 C14.23 -0.57, 14.3 0.7, 14.21 1.11 M8.62 0.69 C10.66 0.12, 15.07 -0.15, 17.2 0.94 C19.33 2.04, 20.74 4.92, 21.41 7.23 C22.07 9.55, 22 12.34, 21.21 14.82 C20.42 17.3, 18.45 20.62, 16.68 22.09 C14.9 23.55, 12.71 24.32, 10.57 23.6 C8.44 22.88, 5.69 19.95, 3.88 17.75 C2.08 15.56, 0.12 12.98, -0.25 10.44 C-0.62 7.9, 0.04 4.15, 1.68 2.52 C3.31 0.88, 8.27 1.09, 9.56 0.63 C10.85 0.16, 9.52 -0.25, 9.4 -0.28" stroke="#60a86a" stroke-width="2" fill="none"></path></g><g stroke-linecap="round" transform="translate(403.61383419928393 117.12407814874172) rotate(0 11.706633957229087 11.706633957229087)"><path d="M6.67 1.04 C8.67 -0.13, 11.5 0.03, 14.01 0.78 C16.51 1.54, 20.24 3.51, 21.71 5.59 C23.18 7.68, 23.05 11.02, 22.83 13.3 C22.62 15.57, 22.19 17.5, 20.41 19.26 C18.63 21.02, 14.56 23.43, 12.13 23.84 C9.71 24.25, 7.84 23.3, 5.87 21.74 C3.91 20.17, 1.05 16.81, 0.33 14.44 C-0.38 12.08, 0.33 9.89, 1.58 7.57 C2.84 5.25, 6.54 1.9, 7.87 0.55 C9.2 -0.8, 9.31 -0.54, 9.57 -0.51 M17.97 1.89 C20.35 2.63, 22.77 3.66, 23.43 5.99 C24.09 8.32, 22.76 13.49, 21.95 15.87 C21.15 18.25, 20.33 19.14, 18.6 20.29 C16.87 21.43, 14.2 22.91, 11.55 22.74 C8.9 22.57, 4.86 21.18, 2.71 19.26 C0.55 17.34, -1.35 13.6, -1.38 11.22 C-1.41 8.84, 1.1 6.57, 2.54 4.98 C3.98 3.39, 4.98 2.19, 7.29 1.67 C9.59 1.16, 15.04 1.73, 16.37 1.87 C17.7 2.01, 15.37 2.29, 15.27 2.5" stroke="#60a86a" stroke-width="2" fill="none"></path></g><g stroke-linecap="round"><g transform="translate(131.19473104414374 160.05886650906575) rotate(0 -56.01254410802983 -34.75487292318218)"><path d="M0.94 -0.46 C-34.27 2.31, -67.54 -0.41, -91.73 2.01 M-0.93 -0.37 C-27.3 0, -52.17 -1.06, -91.89 -0.2 M-89.25 2.45 C-98.37 -3.03, -105.12 -7.7, -108.93 -11.27 M-91.27 1.64 C-98.22 -3.67, -103.77 -7.7, -108.17 -9.89 M-108.31 -9.63 C-108.29 -15.32, -110.42 -21.32, -112.97 -33.29 M-107.91 -10.74 C-109.7 -17.91, -110.44 -26.33, -112.08 -30.88 M-110.67 -31.3 C-108.41 -34.01, -106.34 -39.6, -100.61 -46.01 M-112.3 -31.26 C-108.7 -35.66, -105.88 -40.3, -101.48 -46.62 M-103.23 -46.44 C-97.57 -46.64, -95.85 -48.16, -90.94 -48.97 M-101.78 -46.67 C-97.79 -47.36, -92.45 -48.21, -90.6 -48.73 M-89.35 -49.48 C-90.82 -50.89, -91.05 -54.24, -90.66 -59.09 M-89.87 -49.21 C-90.13 -51.9, -89.71 -53.94, -90.65 -59.26 M-89.32 -59.87 C-84.8 -63.37, -82.79 -68.91, -78.73 -69.88 M-90.18 -58.82 C-88.2 -61.7, -85.42 -64.45, -79.42 -71.07 M-79.77 -69.71 C-75.8 -70.85, -72.42 -70.16, -66.16 -71.96 M-79.6 -70.96 C-75.71 -71.03, -70.44 -71.34, -66.78 -71.12 M-68.17 -71.11 C-63.71 -71.71, -61.79 -68.75, -55.77 -67.41 M-67.76 -71.43 C-63.71 -70.82, -59.87 -69.77, -56.64 -67.55 M-54.71 -67.7 C-55.25 -60.91, -50.83 -57.18, -46.2 -49.06 M-57.18 -67.86 C-53.58 -60.07, -50.01 -53.57, -47.61 -49.32" stroke="#60a86a" stroke-width="2" fill="none"></path></g></g><mask></mask><g stroke-linecap="round"><g transform="translate(71.3914107915167 90.30522935742431) rotate(0 36.650867374292886 -26.228665770133716)"><path d="M-0.13 0.14 C-0.43 -7.44, 0.75 -13.81, 1.1 -14.26 M-0.15 0.66 C-0.22 -5.05, 0.09 -9.16, 0.1 -15.71 M-0.36 -14.18 C3.62 -19.03, 5.39 -25.56, 7.81 -30.21 M-0.7 -16.52 C2.79 -21.23, 6.12 -28.5, 9.19 -30.93 M8.71 -31.22 C16.21 -37.66, 20.54 -40.77, 26.09 -43.84 M9.39 -31.12 C14.1 -35.68, 19.31 -39.69, 24.44 -43.82 M22.71 -43.69 C29.35 -46.64, 37.64 -46.52, 43.26 -45.4 M25.01 -43.68 C28.12 -44.31, 33.03 -45.53, 43.51 -45.82 M44.34 -47.93 C47.08 -45.82, 49.05 -44.68, 59.25 -42.66 M44.48 -47.28 C48.48 -45.07, 52.82 -43.86, 60.39 -41.98 M61.51 -42.38 C62.7 -38.74, 65.79 -37.42, 69.06 -34.91 M60.73 -41.42 C64.03 -38.47, 66.7 -35.4, 68.18 -34.82 M68.51 -33.83 C68.11 -40.83, 72.89 -44.33, 74 -52.8 M69.36 -33.67 C69.62 -39.69, 71.7 -45.03, 73.58 -53.12" stroke="#60a86a" stroke-width="2" fill="none"></path></g></g><mask></mask><g stroke-linecap="round"><g transform="translate(158.59472599312858 19.28305156245267) rotate(0 55.190908620074424 17.6207351460082)"><path d="M-0.43 0.88 C5.99 -1.13, 13.46 -4.14, 18.06 -8.27 M-0.56 0.61 C4.28 -1.99, 8.19 -3.3, 19.8 -8.49 M18.51 -9.28 C25.51 -7.77, 29.43 -9.34, 37.98 -6.79 M20.79 -8.28 C26.82 -7.49, 31.58 -6.8, 36.65 -6.96 M38.28 -7.96 C40.28 -4.69, 45.06 -3.27, 53.67 0.92 M37.33 -7.46 C42.51 -3.64, 47.35 -0.66, 53.38 1.65 M54.1 1.7 C54.35 4.69, 57.14 6.28, 64.13 11.8 M52.98 1.91 C57.55 6.4, 61.47 10.52, 63.86 12.49 M62.98 13.85 C64.85 15.45, 66.97 21.6, 70.4 25.02 M64.13 11.92 C64.76 16.58, 66.75 18.97, 69.56 25.34 M68.75 26.52 C69.51 29.32, 70.35 32.01, 71.1 38.14 M69.61 25.53 C68.87 28.84, 69.72 32.12, 70.5 37.59 M70.18 39.28 C75.31 36.99, 81.55 34.83, 89 35.8 M70.31 37.09 C74.96 36.96, 79.49 35.12, 88.01 33.96 M87.47 35.57 C92.78 35.79, 96.83 36.46, 103.18 37.06 M89.6 34.9 C92.98 35.25, 96.88 36.36, 102.5 38.23 M102.95 38.08 C105.38 38.84, 106.69 41.13, 110.94 44.52 M103.31 37.82 C104.77 39.16, 107.08 41.22, 110.66 44.11" stroke="#60a86a" stroke-width="2" fill="none"></path></g></g><mask></mask><g stroke-linecap="round"><g transform="translate(298.5020413495429 87.05902097255739) rotate(0 5.298356118553102 3.344275140376226)"><path d="M0.94 -0.93 C2.37 1.17, 5.44 4.23, 10.08 7.62 M-0.28 0.37 C4.22 2.76, 8.01 5.2, 10.88 6.11" stroke="#60a86a" stroke-width="2" fill="none"></path></g></g><mask></mask><g stroke-linecap="round"><g transform="translate(313.12245521086766 99.08118026746752) rotate(0 7.357077081121247 8.942288161292254)"><path d="M0.44 0.88 C-0.03 3.84, 1.21 8.52, 5.27 14.83 M-0.64 -0.19 C1.61 2.96, 1.65 6.56, 3.87 15.37 M4.13 15.48 C8.34 14.77, 10.37 15.46, 14.85 18.07 M4.34 14.58 C8.61 15.65, 13.57 16.78, 15.35 16.96" stroke="#60a86a" stroke-width="2" fill="none"></path></g></g><mask></mask><g stroke-linecap="round"><g transform="translate(338.93918909041713 139.45152034755728) rotate(0 -22.49885490041538 10.700013762149752)"><path d="M-0.23 -1.16 C-2.07 4.87, -2.42 8.99, -3.44 12.76 M0.07 -0.53 C-1.31 5.23, -2.09 9.34, -3.42 12.87 M-3.03 12.35 C-8.1 16.39, -14.05 18.72, -16.27 21.39 M-3.62 13.45 C-6.71 15.01, -9.72 16.87, -15.55 20.7 M-14.96 20.49 C-27.49 22.82, -40.39 23.24, -45.07 21.46 M-15.32 22 C-24.49 21.6, -33.78 21.66, -44.24 22.2" stroke="#60a86a" stroke-width="2" fill="none"></path></g></g><mask></mask><g transform="translate(138.36809292422947 211.80297685287007) rotate(0 62.49999999999994 18)"><text x="62.5" y="25" font-family="Virgil, Segoe UI Emoji" font-size="28px" fill="#000000" text-anchor="middle" style="white-space: pre;" direction="ltr">AWS IoT</text></g></svg>