<svg version="1.1" xmlns="http://www.w3.org/2000/svg" viewBox="0 0 333.21282303187036 328.85821952413744" width="666.4256460637407" height="657.7164390482749">
  <!-- svg-source:excalidraw -->
  
  <defs>
    <style class="style-fonts">
      @font-face {
        font-family: "Virgil";
        src: url("https://excalidraw.com/Virgil.woff2");
      }
      @font-face {
        font-family: "Cascadia";
        src: url("https://excalidraw.com/Cascadia.woff2");
      }
    </style>
  </defs>
  <g stroke-linecap="round" transform="translate(10 10) rotate(0 156.60641151593518 154.42910976206872)"><path d="M35.62 57.47 C35.62 57.47, 35.62 57.47, 35.62 57.47 M35.62 57.47 C35.62 57.47, 35.62 57.47, 35.62 57.47 M24.3 78.09 C35.92 64.42, 45.11 52.87, 60.45 35.52 M23.34 76.81 C33.34 64.99, 42.44 55.2, 59.6 36.46 M13.92 97.36 C30.74 77.55, 48.58 55.93, 72.92 27.15 M12.72 96.34 C31.46 73.38, 49.83 52.56, 72.53 26.86 M12.34 103.08 C28.23 82.65, 45.16 65.3, 82.85 23.9 M12.66 100.67 C33.45 79.11, 51.74 57.22, 81.65 24.07 M9.06 109.29 C30.67 85.49, 50.86 60.68, 90.29 20.31 M10.79 109.85 C29.8 86.05, 49.7 63.3, 90.35 18.64 M10.14 117.5 C36.21 88.09, 63.38 57.83, 99.77 16.17 M9.32 117.84 C37.38 84.21, 66.91 50.51, 100.23 14.15 M6.39 125.75 C46.45 83.01, 81.88 41.11, 109.39 12.42 M7.45 126.37 C45.92 81.92, 85.74 36.33, 108.39 11.84 M7.2 136.17 C37.27 98.85, 70.61 61.59, 114.69 8.96 M5.4 135.32 C47.23 86.27, 88.6 39.75, 117.43 7.3 M1.09 144.67 C31.96 110.41, 67.31 74.94, 123.92 4.33 M1.1 147.18 C45.44 95.9, 90.24 44.24, 123.01 6.9 M1.41 151.42 C35.56 115.68, 67.16 77.67, 129.78 4.55 M2.12 150.4 C37.58 110.5, 71.57 68.82, 127.7 5.5 M2.58 158.3 C30.53 122.6, 57.4 87.85, 132.87 6.57 M2.11 157.69 C53.37 98.92, 103.87 41.86, 134.45 4.88 M4.25 163.95 C47.29 111.37, 89.42 60.79, 139.56 6.28 M3.12 161.79 C51.14 107.02, 99.52 51.04, 139.58 5.68 M2.76 167.49 C47.06 120.62, 90 69.36, 146.39 4.4 M2.88 167.4 C31.94 134.1, 61.14 100.23, 145.65 3.73 M4.59 174.53 C47.94 119.85, 95.45 65.21, 150.59 2.03 M3.74 172.32 C57.37 112.06, 111.75 50.28, 151.28 2.67 M3.93 178.87 C57.12 119.59, 107.31 60.05, 158.7 3.18 M4.22 177.97 C60.19 116.51, 116.8 51, 157.09 3.02 M6.65 182.18 C61.2 119.48, 119.91 56.29, 161.64 0.87 M5.86 183.71 C59.79 119.77, 114.11 58.07, 163.07 2.77 M6.06 189.31 C64.36 118.11, 127.13 47.5, 166.89 4.39 M6.2 190.02 C60.82 124.41, 115.17 61.66, 168.66 3.23 M5.28 194.03 C49.48 149.08, 88.1 101.86, 170.94 4.32 M6.11 194.77 C69.09 122.97, 131.48 49.25, 172.49 3.31 M7.32 200.43 C49.82 149.87, 91.99 102.16, 178.25 5.17 M8.46 198.74 C73.14 125.66, 136.81 53.16, 177.96 4.4 M10.17 203.98 C63.06 144.4, 113.21 84.53, 182.56 6.83 M10.05 203.59 C50.07 158.58, 87.32 114.81, 181.22 5.88 M12.34 206.52 C72.91 132.9, 137.39 59.21, 185.89 6.06 M12.05 206.55 C61.88 151.38, 109.1 95.59, 185.52 7.18 M13.03 211.28 C61.92 151.75, 114.63 93.23, 190.93 9.1 M12.38 210.68 C62.55 155.97, 110.01 99.99, 190.57 8.22 M13.57 216.71 C77.59 143.97, 139.66 73.24, 194.36 8.1 M15.16 216 C52.18 172.35, 89.79 129.1, 195.57 8.71 M15.68 219.9 C69.06 159.15, 124.79 95.41, 198.31 9.44 M16.68 220.34 C55.58 174.86, 92.8 131.88, 199.78 8.75 M16.78 222.76 C86.66 145.8, 155.33 65.41, 203.2 10.48 M18 223.2 C68.7 164.81, 120.79 105.88, 203.34 9.7 M20.68 228.92 C75.28 165.55, 129.18 99.91, 209.69 12.05 M20.19 227.92 C82.63 152.72, 148.66 77.74, 207.8 11.67 M20.74 231.78 C69.33 176.71, 119.02 120.89, 213.09 10.15 M21.46 231.7 C95.43 148.05, 168 64.61, 213.5 10.59 M22.42 235.82 C88.94 160.91, 155.9 84.48, 216.83 11.87 M23.22 236.97 C76.63 176.58, 130.55 114.46, 216.86 13.2 M24.33 240.72 C94.89 159.43, 164.56 81.47, 219.74 15.14 M26.23 239.34 C91.41 161.76, 160.15 84.52, 221.62 14.43 M26.58 243.91 C104.02 153.91, 179.8 63.89, 225.09 17.21 M28.77 242.43 C74.36 189.98, 121.65 136.8, 224.38 16.86 M31.82 246.51 C80.67 187.36, 134.11 128.49, 229.24 18.38 M30.74 245.2 C106.26 158.97, 181.3 70.81, 228.34 18.73 M34.6 248.26 C91.69 184.83, 148.7 118.64, 231.17 19.86 M33.37 249.35 C100.4 172.36, 168.01 94.84, 230.96 21.33 M36.07 251.2 C100.36 176.77, 166.1 100.23, 236.45 23.8 M36.53 251.8 C85.83 194.9, 133.7 139.51, 235.38 22.25 M40.09 254.08 C110.9 173.28, 182.26 89.23, 240.04 26.18 M39.37 254.38 C108.9 175.59, 176.74 97.17, 239.3 24.97 M42.37 258.06 C100.84 185.8, 162.91 115.74, 242.04 25.64 M41.26 256.94 C94.35 199.88, 143.59 141.89, 241.95 26.33 M44.06 261.27 C89.05 207.22, 134.02 155, 244.71 27.89 M43.85 261.19 C99.16 196.77, 153.53 133.76, 245.78 28.9 M46.68 264.4 C117.54 184.58, 184.7 104.9, 250.69 31.19 M47.62 263.91 C105 198.95, 160.58 134.4, 248.93 31.37 M48.99 267.42 C95.66 217.35, 136.71 168.54, 251.82 33.89 M50.3 265.82 C91.35 217.68, 134.14 168.09, 252.97 32.34 M53.06 270.3 C129.68 181.8, 204.42 96.57, 255.45 35.18 M53.15 269.94 C126.56 184.05, 201.32 98.34, 256.2 35.94 M56.22 270.84 C120.73 199.1, 183.09 125.62, 258.36 39.36 M55.81 272.82 C116.35 202.94, 177.93 131.81, 259.37 38 M59.2 275.73 C122.11 204.01, 184.75 130.66, 262.67 41.72 M57.5 276.27 C121.64 203.82, 184.48 130.94, 261.62 41.31 M61.96 276.71 C106.62 223.54, 153.58 171.83, 263.35 44.97 M61.5 276.93 C129.83 198.48, 199.03 118.31, 263.86 43.84 M64.19 278.22 C121.64 213.03, 179.63 147.35, 267.81 47.41 M65.82 278.75 C118.19 216.89, 172.51 154.31, 267.04 47.61 M68.37 280.8 C137.33 203.98, 203.28 126.44, 271 51.28 M69.19 281.27 C150.05 190.79, 228.92 98.85, 270.3 50.41 M74.11 282.61 C112.46 237.29, 151.78 191, 272.22 53.82 M72.77 283.17 C142.73 200.61, 213.7 120.24, 272.14 53.25 M76.5 285.33 C140.24 212.08, 203.33 139.08, 275.64 56.57 M75.78 284.45 C153.28 197.83, 228.72 111.62, 275.35 55.83 M79.11 285.54 C148.76 208.83, 217.96 128.35, 279.11 60.33 M79.97 287.05 C127.71 233.93, 175.02 179.96, 277.45 59.36 M83.12 290.15 C151.48 210.72, 222.47 132.45, 279.62 61.85 M83.11 289.09 C136.28 227.52, 191.41 165.76, 280.63 62.28 M85.44 290.09 C128.51 241.98, 168.12 194.5, 282.86 65.31 M86.12 291.21 C157.27 210.85, 226.67 129.62, 283.99 65.19 M90.76 294.19 C146.12 232.28, 198.64 171.88, 284.76 68.04 M90.56 293.07 C153.33 220.86, 216.95 149.39, 285.54 68.73 M95.02 294 C149.22 232.51, 203.52 170.66, 289.12 72.91 M94.04 295.4 C154.66 228.66, 212.35 160.98, 288.44 71.97 M97.89 297 C143.28 242.08, 190.6 187.84, 291.03 74.49 M98.38 296.99 C138.85 250.58, 180.09 203.63, 290.3 75.34 M101.22 300.14 C143.02 252.41, 185.16 204.18, 293.31 79.06 M100.82 298.39 C146.78 246.38, 190.57 195.21, 292.47 79.12 M105.17 300.97 C162.81 235.12, 216.63 170.27, 294.45 83.31 M105.11 300.35 C166.18 231.79, 223.78 164.84, 293.99 83.41 M110.64 299.98 C161.97 242.72, 212.51 184.53, 294.58 86.91 M110.67 300.81 C159.05 245.92, 206.27 191.35, 296.24 88.03 M113.51 301.6 C183.94 223.24, 252.35 146.22, 297.35 92.81 M114.53 302.36 C158.24 254.35, 200.51 205.66, 297.34 91.74 M117.64 302.85 C174.49 240.35, 230.94 176.39, 299.8 94.26 M118.3 303.07 C164.51 253.63, 207.77 202.4, 298.92 95.21 M124.14 305.62 C173.49 247.73, 223.86 190.75, 299.8 99.51 M123.73 304.94 C166.9 252.01, 211.81 202.22, 300.09 100.29 M127.08 303.62 C189.45 233.16, 251.35 158.64, 303.91 104.17 M128.72 304.48 C168.17 259.95, 207.47 214.94, 302.05 104.51 M131.14 307.42 C187.83 238.71, 245.16 174.43, 303.71 106.67 M132.46 305.89 C182.68 246.72, 233.41 186.69, 303.55 107.94 M138.3 308.6 C178.51 257.17, 222.64 207.31, 305.65 111.71 M136.38 306.27 C203.1 229.89, 270.35 152.31, 305.57 112.53 M140.08 307.99 C193.6 244.6, 248.21 182.86, 307.88 116.9 M141.58 308.88 C203.89 237.2, 266.44 164.33, 308.92 115.63 M145.43 308.92 C181.95 267.93, 218.19 226.88, 307.29 120.41 M144.66 308.71 C194.53 252.42, 244.59 196.75, 308.69 121.74 M150.08 310.81 C208.46 243.67, 263.32 179.88, 309.02 128.3 M149.09 311.02 C202.32 249.02, 255.25 187.06, 308.63 127.72 M156.09 310.15 C196.44 261.93, 237.28 214.69, 308.94 132.14 M155.9 308.65 C194.46 263.62, 234.11 219.41, 310.53 131.93 M160.36 308.1 C192.33 271.96, 223.92 236.77, 311.08 135.93 M162.03 308.42 C205.09 256.85, 247.65 207.24, 310.18 137.47 M167.56 308.42 C223.88 242.62, 281.47 178.62, 309.69 142.11 M166.51 307.96 C211.46 258.33, 257.11 205.37, 311.43 143.48 M174.07 308.53 C222.8 251.57, 275.24 190.82, 312.7 146.91 M173.58 307.7 C205.43 272.48, 235.81 236.2, 312.43 148.07 M176.9 309.02 C205.48 274.77, 231.5 245.95, 313.79 152.99 M177.71 307.48 C219.5 258.97, 262.62 210.92, 312.24 153.14 M183.22 305.97 C232.42 251.85, 281 193.58, 312.25 157.22 M185.41 306.68 C229.81 255.18, 275.66 204.4, 313.89 158.23 M188.69 304.99 C224.61 266.56, 257.05 226.23, 314.52 163.85 M191.26 306.15 C219.82 271.84, 250.19 236.75, 314.21 163.15 M197.21 305.37 C229.24 267.45, 265.22 227.14, 313.12 172.49 M196.96 305.87 C237.9 254.46, 281.1 205.82, 313.49 172.32 M205.99 301.74 C243.98 254.06, 283.79 210.44, 310.29 178.91 M206.01 300.18 C230.68 271.35, 257.52 242.52, 310.24 180.47 M213.31 299.1 C240.1 269.82, 264.02 239.57, 310.84 189.09 M213.79 297.48 C235.51 271.95, 257.9 246.13, 310.01 187.56 M222.27 293.68 C247.99 263.85, 272.54 236.52, 306.66 196.93 M223.45 293.89 C241.49 271.25, 262.54 248.85, 308.12 195.24 M231.38 289.34 C254.57 262.34, 279.47 233.89, 304.62 206.04 M230.77 290.44 C259.08 261.09, 285.29 229.22, 305.69 203.5 M241.75 283.65 C264.76 260.72, 286.33 233.5, 303.65 210.14 M239.45 286 C257.13 265.77, 273.15 247.8, 304.99 211.83 M245.75 286.6 C252.94 275.41, 266.61 261.52, 292.38 232.53 M243.99 286.76 C263.17 265.8, 282.77 243.17, 293.19 231.59 M56.92 274.43 C56.92 274.43, 56.92 274.43, 56.92 274.43 M56.92 274.43 C56.92 274.43, 56.92 274.43, 56.92 274.43 M71.22 281.68 C59.82 272.27, 43.35 259.84, 30.62 249.48 M72.74 283.55 C61.65 273.57, 48.92 262.03, 31.47 246.83 M89.8 292.53 C69.27 276.08, 51.18 257.14, 25.4 238.18 M89.75 292.66 C71.39 274.72, 51.39 258.28, 25.77 237.01 M99.5 297.06 C84.78 281.25, 68.7 267.55, 21.96 226.72 M99.91 296.38 C81.22 280.78, 63.87 263.13, 23.33 228.89 M110.22 300.03 C82.22 275.01, 58.79 252.97, 17.95 218.99 M109.8 298.48 C86 278.86, 64.16 259.67, 19.32 219.78 M115.39 298.5 C93.95 281.48, 73.46 261.46, 16.72 212.94 M116.21 300.85 C90.05 275.6, 62.45 251.9, 16.98 212.1 M127.42 303.27 C85.48 270.27, 48.59 235.75, 11.19 203.37 M125.75 301.73 C93.57 273.42, 59.72 245.75, 13.65 205.12 M132.48 304.39 C101.59 274.19, 70.34 245.41, 7.22 195.45 M133.86 304 C95.13 270.86, 58.11 238.16, 6.35 193.17 M142.51 304.5 C114.67 282.95, 85.4 257.57, 4.81 186.62 M142.97 305.43 C100.36 271.93, 58.74 234.61, 5.17 186.4 M150.98 305.75 C105.2 270.95, 63.25 232.79, 4.58 182.42 M150.43 308.29 C108.7 272.39, 65.3 235.39, 5.91 181.45 M153.98 308.4 C101.49 261.67, 50.35 214.74, 6.1 175.14 M155.69 307 C112.49 268.79, 67.16 229.64, 4.76 176.68 M162.8 306.84 C122.72 273.47, 86.5 242.87, 2.84 168.32 M161.99 306.24 C117.58 269.58, 72.5 231.41, 2.74 170.16 M165.82 306.48 C118.27 264.77, 74.12 224.36, 4.17 163.11 M166.11 305.91 C126.29 271.4, 84.83 236.94, 3.37 164.12 M171.68 306.11 C105.56 247.39, 39.66 189.44, 2.99 157.88 M172.6 305.22 C115.43 256.97, 57.07 207.28, 2.64 157.54 M177.81 305.01 C124.77 259.89, 74.11 215.15, 1.32 153.53 M177.1 304.81 C122.47 258.85, 69.2 211.82, 2.14 152.26 M182.37 305.51 C136.94 265.39, 93.29 224.48, 2.83 145.66 M183.15 304.87 C142.04 270.72, 102.74 236.18, 1.95 145.78 M188.31 305.71 C145.72 265.51, 102.35 228.11, 2.89 142.66 M187.91 303.73 C121.2 245.46, 53.37 185.91, 2.67 143.41 M194.07 302.38 C129.43 246.2, 66.25 191.56, 5.33 138.46 M193.16 302.91 C131.81 248.91, 69.79 195.09, 3.8 138.48 M197.58 302.82 C125.63 238.94, 52.9 178.22, 5.66 133.27 M197.74 301.64 C142.33 252.52, 87.02 202.97, 3.83 133.56 M201.23 299.44 C143.31 250.69, 87.66 198.67, 4.46 128.99 M202.71 299.89 C138.25 245.39, 73.62 190.61, 5.32 128.45 M206.58 298.47 C131.64 235.81, 59.5 171.12, 8.03 126.03 M206.4 298.52 C148.2 247.09, 88.81 196.14, 6.41 124.12 M210.53 295.59 C160.91 254.64, 113.51 214.16, 7.43 119.71 M210.16 296.46 C143.37 237.29, 75.34 177.57, 8.57 121.22 M213.21 295.1 C161.72 245.79, 109.77 201.28, 7.94 115.51 M213.62 294.65 C141.96 230.95, 70.14 168.32, 9.65 115.58 M219.15 293.72 C140.07 225.91, 60.37 154.52, 11.3 113.35 M217.8 293.06 C146.71 229.9, 76.59 169.68, 10.21 111.42 M221.84 292.5 C164.6 238.86, 105.35 186.8, 11.23 107.84 M222.17 290.7 C178.29 252.59, 133.5 213.2, 11.94 107.98 M226.83 290.1 C177.92 245.23, 129.17 203.42, 12.64 103.18 M226.2 288.85 C146.91 220.89, 66.09 150.09, 10.82 102.78 M230.76 288.44 C173.34 239.68, 117.49 190.49, 10.71 96.72 M230.16 288.11 C150.54 220.68, 70.24 150.66, 11.7 97.43 M235.09 286.67 C151.28 212.18, 68.72 139.51, 13.62 94.31 M235.14 286.08 C155.82 218.33, 78.39 150.2, 14.57 95.11 M238.45 284.31 C193.53 244.55, 148.4 206.82, 16.06 89.37 M238.64 284.13 C181.37 234.53, 122.69 183.9, 17.03 91.02 M243.95 281.34 C171.05 219.69, 99.66 156.99, 18.67 85.93 M243.57 282.03 C191.46 236.63, 139.3 192.78, 18.77 86.88 M247.25 279.92 C172.09 217.11, 97.38 150.54, 19.03 82.72 M246.35 280.36 C173.65 217.69, 101.3 155.68, 20.14 83.22 M249.15 277.27 C200.3 235.85, 151.22 191.87, 23.36 80.67 M249.65 276.93 C199.09 234.84, 148.82 192.46, 22.21 79.89 M252.3 273.97 C201.52 231.22, 151.63 188.6, 24.26 77.33 M251.99 274.16 C180.33 213.87, 107.94 150.27, 25.19 77.13 M254.75 271.1 C176.07 201.41, 94.15 132.59, 27.18 73.86 M254.5 272.43 C206.68 230.1, 160.37 188.86, 27.25 72.81 M256.98 268 C195.8 212.93, 130.71 159.66, 28.31 69.59 M257.9 268.49 C170.17 193.17, 82.6 115.64, 28.8 69.29 M260.51 267.64 C199.1 211.7, 136.34 156.66, 31.99 66.29 M261.27 267.2 C184.85 200.06, 107.62 134.51, 31.14 66.64 M263.28 262.73 C203.97 208.95, 141.28 154.12, 31.67 62.75 M263.38 263.86 C214.71 219.49, 163.53 175.66, 33.48 62.19 M266.26 260.71 C214.56 215.62, 162.07 168.24, 36.05 58.85 M266.49 261.14 C176.01 182.58, 85.99 104.47, 34.62 59.47 M269.68 258.72 C185.26 181.66, 100.09 107.1, 36.34 56.49 M269.84 257.6 C207.31 204.67, 146.27 150.45, 37.95 55.36 M272.08 256.14 C188.46 184.15, 105.36 110.44, 40.8 52.69 M271.77 255.1 C216.26 206.26, 161.42 157.5, 39.92 52.41 M276.99 253.54 C200.08 187.4, 122.02 117.64, 44.48 50.87 M276.46 252.51 C195.06 183.46, 115.73 113.74, 43.14 50.68 M279.54 250.39 C211.63 189.3, 141.84 131.66, 46.97 49.09 M277.85 249.82 C186.5 169.83, 94.53 89.56, 45.5 47.94 M281.79 246.84 C208.06 184.61, 134.08 120.41, 50.4 44.65 M280.86 246.15 C226.61 201.44, 174.33 154.77, 49.77 44.99 M281.64 243.47 C202.42 172.08, 121.79 102.96, 51.83 43.43 M283.2 242.95 C226.96 196.98, 173.97 149.85, 51.88 42.5 M285.86 238.14 C226.4 188.57, 168.33 139.38, 56.48 39.19 M284.22 240.08 C228.26 193.4, 173.22 145.72, 55.66 39.73 M286.8 236.44 C208.36 168.85, 129.24 100.08, 58.55 37.36 M287.78 236.62 C199.12 159.11, 107.55 80.12, 58.14 37.21 M290.49 232.35 C230.64 178.78, 169.05 125.27, 60.19 34.29 M289.94 232.43 C228.29 179.51, 165.11 126.16, 61.46 33.91 M290.51 229.72 C208.23 155.41, 122.93 81.8, 63.98 32.42 M290.68 228.51 C207.16 157.45, 122.53 85.45, 63.98 31.45 M293.36 225.82 C225.03 168.04, 159.83 109.22, 68.62 28.14 M293.26 225.64 C208.72 152.62, 122.64 77.71, 67.78 29.84 M297.16 221.15 C246.89 179.83, 196.04 135.45, 70.14 27.1 M296.09 221.64 C226.81 159.6, 156.58 99.02, 69.78 25.78 M297.42 217.63 C241.58 170.05, 186.25 123.18, 72.18 23.19 M297.34 218.96 C217.75 146.31, 135.45 75.19, 73.67 24.47 M300.97 216.76 C215.22 140.16, 128.64 65.28, 77.08 21.06 M300.03 216.04 C247.4 169.18, 195.43 124.54, 78.09 21.73 M301.42 211.69 C253.7 168.94, 205.12 127.45, 81.27 18.64 M302.48 211.86 C212.72 136.48, 125.85 61.18, 81.09 19.36 M302.87 209.19 C252.29 163.49, 201.6 118.85, 84.14 17.05 M304.32 207.72 C257.9 167.05, 211.18 125.58, 84.68 17.98 M305.66 202.53 C240.46 148.63, 175.33 92.66, 90.18 16.06 M304.29 204.62 C261.23 164.1, 216.35 124.83, 89.68 16.07 M304.71 198.24 C256.81 157.74, 207.84 114.71, 92.36 13.82 M306.28 199.07 C224.51 130.39, 144.78 60.98, 92.7 14.82 M306.83 196.19 C227.13 125.34, 146.11 54.03, 96.94 12.36 M306.6 195.39 C249.82 144.52, 191.33 94.46, 97.52 12.12 M307.89 189.51 C240.86 132.5, 175.7 74.07, 100.65 11.63 M307.63 189.78 C242.04 132.75, 175.2 74.48, 101.52 10.91 M309.37 185.76 C240.15 123.57, 168.94 62.34, 104.29 9.52 M308.71 185.86 C255.14 138.24, 201.99 91.66, 106.38 9.17 M309.18 181.57 C237.9 118.19, 164.87 55.62, 110.44 7.51 M309.27 182.2 C249.72 128.78, 190.09 76.71, 109.68 7.7 M312.48 177.73 C260.38 132.8, 212.89 89.48, 112.18 4.05 M310.49 177.22 C238.69 116.06, 168.54 54.26, 112.59 5.65 M313.4 172.3 C255.81 125.85, 200.44 76.48, 118.47 3.35 M311.33 172.41 C269.39 137.16, 228.14 101.18, 117.05 3.62 M311.56 166.47 C248 111.05, 182.63 55.41, 122.09 3.52 M312.67 167.72 C248.75 112.58, 183.83 56.35, 122.42 3.65 M313.63 164.19 C252.73 114.16, 196.75 63.53, 127.03 0.91 M313.91 163.3 C267.78 126.35, 222.28 87.26, 127.39 1.43 M314.78 159.07 C265.13 114.31, 212.06 71.08, 135.17 3.49 M315.71 160.18 C255.3 109.72, 196.17 58.08, 132.83 1.79 M314.99 152.8 C248.79 98.66, 186.06 42.26, 138.09 2.61 M315.29 154.85 C278.58 123.2, 243.26 91.74, 139.03 1.09 M315.05 148.92 C263.37 103.91, 212.47 57.89, 145.11 2.14 M314.06 148.2 C244.84 89.87, 177.61 31.86, 145.5 0.49 M313.37 141.81 C270.3 105.77, 231.25 67.9, 149.84 0.7 M313.07 142.45 C280.76 113.16, 247.67 83.59, 149.35 0.58 M312.27 135.42 C277.63 106.35, 240.91 76.06, 154.98 1.17 M312.58 136.53 C280.94 108.67, 248.87 79.15, 155.4 -0.56 M311.65 131.81 C268.9 95.5, 230.68 60.87, 162.76 -0.16 M312.68 130.64 C255.62 81.79, 198.11 33.1, 161.23 0.08 M312.85 125.92 C272.52 87.72, 230.29 52.58, 165.11 -0.22 M311.99 125.54 C262.07 81.5, 211.2 37.36, 167.36 -2.12 M310.8 118.42 C284.52 95.04, 255.03 71.5, 176.54 1.34 M311.27 118.41 C265.42 77.45, 220.89 39.83, 174.87 1.16 M310.15 111.36 C274.6 82.33, 243.6 51.14, 183.43 0.09 M310.63 113.4 C261.38 70.23, 211.69 27.14, 182.94 1.38 M306.85 104.17 C268.74 69.86, 225.23 35.23, 191.67 4.76 M306.81 105.19 C267.99 71.47, 228.86 37.42, 189.52 3.48 M301.34 95.75 C262.78 60.26, 222.82 26.2, 198.5 3.44 M302.65 95.82 C277.78 73.72, 252.23 51.15, 199.2 4.91 M297.65 86.73 C275.41 65.72, 252.59 48.12, 206.33 7.71 M298.34 87.72 C269.16 62.79, 239.96 36.37, 205.24 6.63 M294.96 77.58 C277.17 61.69, 258.36 44.82, 213.42 9.41 M295.26 78.65 C278.76 64.75, 263.09 51.35, 214.4 8.64 M290.05 68.72 C267.33 49.76, 245.67 32.83, 234.51 18.67 M290.51 68.6 C274.4 56.05, 260.6 42.6, 231.79 18.85" stroke="#fd7e14" stroke-width="0.5" fill="none"></path><path d="M213.67 10.38 C228.68 13.35, 242.01 23.61, 254.46 33.77 C266.9 43.93, 279.44 57.7, 288.34 71.35 C297.23 85, 303.67 100.44, 307.84 115.65 C312.01 130.86, 314.14 147.02, 313.37 162.62 C312.6 178.22, 309.22 194.48, 303.24 209.23 C297.27 223.99, 287.77 238.62, 277.52 251.12 C267.26 263.63, 255.23 275.36, 241.72 284.24 C228.2 293.12, 211.92 300.3, 196.42 304.41 C180.92 308.51, 164.86 310, 148.72 308.87 C132.57 307.74, 114.82 303.33, 99.57 297.63 C84.32 291.93, 69.73 284.44, 57.21 274.69 C44.68 264.94, 32.95 252.56, 24.42 239.14 C15.89 225.71, 10.03 209.7, 6.01 194.12 C1.99 178.55, -0.49 161.45, 0.29 145.69 C1.06 129.92, 4.8 114.19, 10.66 99.52 C16.51 84.86, 25.25 70.05, 35.42 57.7 C45.59 45.35, 58.35 34.08, 71.66 25.43 C84.98 16.78, 99.72 9.92, 115.33 5.79 C130.94 1.67, 147.55 -0.54, 165.35 0.69 C183.15 1.92, 211.83 10.05, 222.12 13.17 C232.41 16.28, 228.45 16.86, 227.08 19.4 M86.65 17.39 C99.34 8.37, 116.99 5.92, 132.81 3.14 C148.63 0.36, 165.96 -1.76, 181.59 0.72 C197.21 3.19, 212.06 10.39, 226.56 17.99 C241.07 25.59, 256.85 35.25, 268.62 46.29 C280.39 57.33, 290.23 70.5, 297.18 84.26 C304.14 98.02, 308.05 113.15, 310.35 128.84 C312.65 144.53, 313.28 162.56, 310.99 178.38 C308.71 194.21, 303.93 209.57, 296.64 223.8 C289.36 238.02, 278.9 252.24, 267.29 263.72 C255.69 275.2, 241.16 285.44, 227.03 292.7 C212.91 299.96, 198.3 305.06, 182.55 307.27 C166.8 309.48, 148.45 308.48, 132.53 305.95 C116.6 303.42, 101.64 298.99, 86.99 292.11 C72.34 285.22, 56.11 276.07, 44.62 264.66 C33.14 253.26, 25.11 237.99, 18.07 223.69 C11.03 209.39, 5.3 194.34, 2.37 178.84 C-0.57 163.35, -1.78 146.33, 0.45 130.71 C2.68 115.08, 8.33 99.16, 15.76 85.08 C23.2 71, 33.3 57.71, 45.07 46.22 C56.83 34.73, 79.41 20.4, 86.35 16.13 C93.29 11.86, 85.46 18.15, 86.72 20.61" stroke="#000000" stroke-width="1" fill="none"></path></g><g stroke-opacity="0.5" fill-opacity="0.5" stroke-linecap="round" transform="translate(40.13496630831651 34.920060753348935) rotate(0 127.94554221931867 126.70547055462498)"><path d="M140.01 1.11 C153.19 0.39, 168.04 6.54, 180.74 12.06 C193.44 17.59, 206.25 25.05, 216.19 34.26 C226.13 43.47, 234.14 55.16, 240.35 67.32 C246.57 79.48, 251.28 93.69, 253.47 107.22 C255.66 120.75, 255.83 134.95, 253.49 148.51 C251.16 162.06, 246.27 176.33, 239.47 188.56 C232.68 200.8, 222.99 212.93, 212.71 221.92 C202.42 230.92, 190.31 237.19, 177.75 242.53 C165.19 247.87, 151.12 252.81, 137.34 253.96 C123.57 255.12, 108.62 253.14, 95.12 249.46 C81.62 245.78, 67.76 239.56, 56.35 231.9 C44.94 224.24, 34.93 214.58, 26.64 203.52 C18.36 192.47, 10.94 178.54, 6.66 165.58 C2.37 152.62, 0.9 139.42, 0.94 125.76 C0.99 112.11, 2.41 96.61, 6.9 83.64 C11.4 70.66, 19.3 58.55, 27.9 47.92 C36.5 37.28, 46.83 27.4, 58.52 19.84 C70.21 12.27, 81.45 5.24, 98.03 2.52 C114.61 -0.21, 145.11 2.02, 158.01 3.48 C170.91 4.94, 175.91 9.19, 175.43 11.29 M87.75 7.49 C99.59 1.21, 115.98 -0.38, 129.71 -0.35 C143.44 -0.32, 157.19 2.81, 170.13 7.64 C183.08 12.47, 196.4 20.25, 207.37 28.65 C218.35 37.04, 228.4 46.58, 235.97 58.01 C243.55 69.45, 249.78 83.89, 252.82 97.27 C255.86 110.65, 255.55 124.92, 254.2 138.28 C252.85 151.64, 250.08 165.16, 244.72 177.45 C239.36 189.74, 231.41 201.71, 222.04 212.02 C212.67 222.34, 200.92 232.51, 188.49 239.33 C176.07 246.15, 161.27 251.04, 147.51 252.96 C133.76 254.88, 119.32 253.48, 105.97 250.87 C92.62 248.25, 79.35 243.67, 67.41 237.28 C55.47 230.89, 43.83 222.47, 34.3 212.51 C24.78 202.55, 16.08 190.37, 10.27 177.54 C4.45 164.71, 0.66 149.09, -0.59 135.53 C-1.84 121.96, -0.81 109.42, 2.79 96.15 C6.39 82.88, 12.97 67.54, 20.99 55.93 C29.02 44.33, 39.64 34.85, 50.93 26.54 C62.21 18.23, 82.37 9.24, 88.71 6.08 C95.05 2.91, 88.78 5.58, 88.97 7.55" stroke="none" stroke-width="0" fill="#fff"></path><path d="M140.15 -0.31 C153.26 -1.14, 167.28 5.79, 180.02 11.58 C192.77 17.38, 206.25 25.04, 216.61 34.47 C226.97 43.91, 235.92 55.95, 242.19 68.19 C248.47 80.44, 252.46 94.56, 254.28 107.94 C256.1 121.33, 255.66 135.07, 253.12 148.49 C250.57 161.9, 245.61 176.42, 239.02 188.43 C232.43 200.43, 223.64 211.26, 213.57 220.51 C203.5 229.76, 191.35 238.6, 178.61 243.91 C165.87 249.23, 151.23 251.65, 137.14 252.41 C123.06 253.17, 107.45 252.01, 94.09 248.47 C80.74 244.93, 68.23 238.59, 57.01 231.18 C45.8 223.77, 35.23 214.8, 26.79 204 C18.35 193.2, 10.9 179.51, 6.37 166.39 C1.83 153.27, -0.71 138.94, -0.42 125.28 C-0.13 111.62, 3.28 97.34, 8.12 84.43 C12.96 71.51, 19.98 58.72, 28.62 47.78 C37.26 36.84, 48.28 26.12, 59.96 18.79 C71.64 11.46, 83.45 6.43, 98.7 3.8 C113.94 1.17, 141.16 2.61, 151.46 3.02 C161.75 3.43, 161.07 4.5, 160.46 6.28 M164.35 6.13 C177.87 7.98, 190.46 15.91, 201.84 23.66 C213.21 31.42, 224.73 41.88, 232.6 52.66 C240.47 63.43, 244.98 75.09, 249.05 88.33 C253.12 101.56, 257.07 118.01, 257.01 132.07 C256.95 146.14, 253.78 160.27, 248.67 172.72 C243.56 185.17, 235.6 196.44, 226.34 206.76 C217.08 217.08, 204.95 227.28, 193.1 234.64 C181.24 242, 168.65 247.96, 155.23 250.94 C141.82 253.91, 126.33 254.25, 112.62 252.49 C98.91 250.72, 85.24 245.99, 72.97 240.33 C60.7 234.67, 48.88 227.94, 39.03 218.52 C29.18 209.09, 20.34 196.03, 13.86 183.78 C7.37 171.52, 2.01 158.85, 0.12 144.99 C-1.77 131.12, -0.51 114.1, 2.53 100.58 C5.58 87.06, 11.6 75.4, 18.42 63.84 C25.23 52.28, 33.09 40.59, 43.44 31.22 C53.79 21.85, 67.45 13.02, 80.52 7.64 C93.58 2.25, 107.92 -0.54, 121.83 -1.12 C135.75 -1.69, 157.05 2.61, 164.01 4.17 C170.96 5.74, 164.37 6.13, 163.54 8.27" stroke="#000000" stroke-width="1" fill="none"></path></g><g stroke-linecap="round"><g stroke-opacity="0.5" fill-opacity="0.5" transform="translate(94.07708947459105 241.50323014662354) rotate(0 23.777588206683504 -47.62717142631993)"><path d="M0.88 0.23 C8.65 -15.33, 39.92 -77.82, 47.67 -93.82 M-0.11 -0.7 C7.44 -16.54, 39.1 -79.77, 46.89 -95.48" stroke="#000000" stroke-width="1" fill="none"></path></g></g><g stroke-linecap="round"><g stroke-opacity="0.5" fill-opacity="0.5" transform="translate(141.38747450868323 147.0730082345051) rotate(0 9.920045556729747 21.305928296233674)"><path d="M0.23 0.33 C3.8 7.12, 17.82 34.88, 20.95 41.59 M-1.11 -0.54 C2.42 6.38, 16.71 36.16, 20.46 43.15" stroke="#000000" stroke-width="1" fill="none"></path></g></g><g stroke-linecap="round"><g stroke-opacity="0.5" fill-opacity="0.5" transform="translate(161.4948418342574 188.3675157700145) rotate(0 -11.94764808180662 26.97855573060974)"><path d="M0.33 0.87 C-3.7 9.61, -19.2 43.83, -23.3 52.7 M-0.95 0.28 C-5.22 9.11, -20.74 44.46, -24.23 53.68" stroke="#000000" stroke-width="1" fill="none"></path></g></g><g stroke-linecap="round"><g stroke-opacity="0.5" fill-opacity="0.5" transform="translate(138.15042428602828 242.13612223640575) rotate(0 -21.63252382124665 -0.9305049027935866)"><path d="M0.87 0.04 C-6.53 -0.33, -36.86 -1.9, -44.13 -1.9 M-0.14 -0.98 C-7.19 -1.26, -34.78 -0.73, -41.98 -0.86" stroke="#000000" stroke-width="1" fill="none"></path></g></g><g stroke-linecap="round"><g stroke-opacity="0.5" fill-opacity="0.5" transform="translate(210.2887803691301 243.5629649764537) rotate(0 -30.62993029131394 -63.020485840336505)"><path d="M0.04 -1.07 C-10.23 -22.06, -51.4 -104.33, -61.3 -125.07 M-1.39 0.99 C-11.33 -20.46, -49.39 -106.16, -59.09 -127.03" stroke="#000000" stroke-width="1" fill="none"></path></g></g><g stroke-linecap="round"><g stroke-opacity="0.5" fill-opacity="0.5" transform="translate(149.9349203663951 117.15241087165123) rotate(0 -12.999925504747807 -0.1276300873934133)"><path d="M-1.07 -0.95 C-5.51 -0.93, -21.6 -0.04, -25.79 0.18 M0.57 1.17 C-4.08 0.87, -21.97 -0.99, -26.57 -1.42" stroke="#000000" stroke-width="1" fill="none"></path></g></g><g stroke-linecap="round"><g stroke-opacity="0.5" fill-opacity="0.5" transform="translate(123.83209141610496 116.32897062580537) rotate(0 0.025035660713911057 -18.10210479809325)"><path d="M-0.95 0.31 C-0.79 -5.6, 0.65 -30.48, 1 -36.52 M0.75 -0.57 C0.84 -6.19, 0.53 -28.8, 0.58 -35.04" stroke="#000000" stroke-width="1" fill="none"></path></g></g><g stroke-linecap="round"><g stroke-opacity="0.5" fill-opacity="0.5" transform="translate(123.83209141610496 79.93200438721806) rotate(0 24.701139951879668 0.9144829750803183)"><path d="M0.31 1 C8.89 1.44, 41.94 1.78, 50.38 1.68 M-0.98 0.48 C7.52 0.69, 40.8 -0.03, 49.37 0.16" stroke="#000000" stroke-width="1" fill="none"></path></g></g><g stroke-linecap="round"><g stroke-opacity="0.5" fill-opacity="0.5" transform="translate(174.3364264946904 80.45374338596298) rotate(0 29.88578941779997 62.09812689170667)"><path d="M1 -0.12 C11.11 20.73, 50.14 104.47, 59.71 125.43 M0.06 -1.23 C10.2 19.23, 49.78 102.75, 59.37 123.55" stroke="#000000" stroke-width="1" fill="none"></path></g></g><g stroke-linecap="round"><g stroke-opacity="0.5" fill-opacity="0.5" transform="translate(232.88688430610273 205.41703887685276) rotate(0 7.449029195804542 0.6026386586745502)"><path d="M-0.12 1.16 C2.58 0.97, 13.74 0.2, 16.54 -0.15 M-1.64 0.72 C0.92 1.24, 12.85 1.44, 15.84 1.31" stroke="#000000" stroke-width="1" fill="none"></path></g></g><g stroke-linecap="round"><g stroke-opacity="0.5" fill-opacity="0.5" transform="translate(249.25587828414427 206.44463786133883) rotate(0 0.26924556655285414 17.839762366592595)"><path d="M1.16 0.46 C0.98 3.58, 0.25 12.79, -0.07 18.56 C-0.39 24.34, -0.66 32.22, -0.76 35.11 M0.31 -0.34 C-0.13 2.43, -1.32 10.71, -1.1 16.77 C-0.87 22.83, 1.62 32.65, 1.66 36.02" stroke="#000000" stroke-width="1" fill="none"></path></g></g><g stroke-linecap="round"><g stroke-opacity="0.5" fill-opacity="0.5" transform="translate(249.40559469248547 243.11381575144696) rotate(0 -19.249102518895597 -0.49258215881843626)"><path d="M0.46 -0.15 C-5.91 -0.47, -31.64 -0.69, -38.34 -0.78 M-0.75 -1.27 C-7.22 -0.96, -32.88 0.04, -38.96 0.28" stroke="#000000" stroke-width="1" fill="none"></path></g></g><g stroke-opacity="0.5" fill-opacity="0.5" stroke-linecap="round" transform="translate(38.9967220391336 35.05691102109904) rotate(0 128.8717822412782 127.080075536668)"><path d="M81.43 9.09 C93.03 2.66, 108.38 1.51, 122.41 0.89 C136.43 0.26, 152.2 1.75, 165.56 5.34 C178.91 8.92, 191.34 14.44, 202.53 22.4 C213.72 30.36, 224.55 41.67, 232.71 53.1 C240.87 64.54, 247.2 77.91, 251.48 91 C255.76 104.08, 258.77 118.09, 258.4 131.64 C258.02 145.18, 254.32 159.29, 249.22 172.25 C244.12 185.2, 236.71 198.65, 227.8 209.37 C218.89 220.09, 207.72 229.46, 195.77 236.56 C183.82 243.66, 169.97 249.08, 156.11 251.96 C142.25 254.84, 126.43 255.52, 112.61 253.85 C98.78 252.19, 85.41 248.16, 73.17 241.99 C60.93 235.82, 49.23 226.73, 39.16 216.82 C29.08 206.92, 19.22 194.68, 12.72 182.55 C6.23 170.41, 2.05 157.51, 0.21 144 C-1.63 130.49, -1.39 114.9, 1.67 101.47 C4.72 88.03, 11.23 75.12, 18.53 63.38 C25.82 51.64, 33.05 40.65, 45.44 31.03 C57.82 21.41, 83.31 10.11, 92.85 5.67 C102.38 1.22, 102.05 2.25, 102.66 4.37 M174.22 7.1 C187.09 9.9, 200.47 20.62, 211.39 29.57 C222.31 38.53, 232.5 48.99, 239.73 60.82 C246.97 72.65, 252.05 86.86, 254.78 100.54 C257.51 114.22, 257.51 129.21, 256.1 142.9 C254.69 156.58, 252.18 170.57, 246.3 182.67 C240.41 194.77, 230.6 205.77, 220.79 215.49 C210.98 225.22, 200.23 234.6, 187.46 241.03 C174.68 247.47, 158.04 252.49, 144.13 254.1 C130.23 255.71, 117.38 253.57, 104 250.68 C90.62 247.79, 76.29 243.53, 63.86 236.75 C51.44 229.98, 38.81 220.42, 29.46 210.05 C20.11 199.68, 12.78 187.24, 7.76 174.55 C2.75 161.85, -0.34 147.86, -0.62 133.88 C-0.9 119.9, 2.06 103.87, 6.08 90.67 C10.1 77.48, 15.35 65.79, 23.48 54.73 C31.61 43.67, 43.41 32.36, 54.87 24.3 C66.32 16.23, 79.14 10.24, 92.21 6.33 C105.28 2.43, 119.51 0.34, 133.29 0.87 C147.08 1.4, 168.01 7.96, 174.92 9.53 C181.83 11.1, 175.71 8.63, 174.74 10.29" stroke="#000000" stroke-width="1" fill="none"></path></g><g stroke-opacity="0.5" fill-opacity="0.5" stroke-linecap="round" transform="translate(210.90022128922647 205.99734535566927) rotate(0 18.794836168019174 17.926498949108122)"><path d="M1.17 -0.39 L38.64 -0.3 L39 36.55 L-0.74 34.03" stroke="none" stroke-width="0" fill="#fd7e14"></path><path d="M-1.51 -1.3 C11.38 -0.16, 25.78 -1.17, 39.09 1.08 M-0.66 0.39 C11.46 1.13, 25.09 0.28, 37.65 -0.43 M38.87 0.31 C39.1 9.41, 39.01 23.34, 38.51 37.75 M36.73 0.56 C36.41 8.54, 38.05 18.22, 37.94 36.36 M36.14 37.43 C25 37.03, 10.3 35.55, -1.23 34.02 M37.13 35.79 C27.16 35.49, 17.01 36.89, 0.22 36.09 M-1.72 37.18 C0.95 26.32, 0.23 19.45, -1.96 0.5 M0.63 36.45 C-0.65 28.05, 0.5 21.38, 0.19 0.47" stroke="#e67700" stroke-width="1" fill="none"></path></g><g stroke-opacity="0.5" fill-opacity="0.5" stroke-linecap="round" transform="translate(173.74068375191928 184.2881915029327) rotate(64.06738432092567 36.36185467182986 17.294030673795532)"><path d="M-0.39 1.05 L72.42 1.41 L73.43 33.85 L-1.82 33.46" stroke="none" stroke-width="0" fill="#fd7e14"></path><path d="M-1.3 -1.34 C20.96 0.88, 40.88 2.05, 73.81 0.48 M0.39 -0.72 C17.59 1.22, 33.54 0.54, 72.3 0.17 M73.03 1.28 C70.9 13.82, 73.47 26.19, 74.62 33.45 M73.28 -0.94 C72.24 8.79, 73.2 16.55, 73.23 35.41 M74.3 36.35 C49.74 35.48, 23.82 32.83, -1.83 34.19 M72.66 34.68 C51.11 34.72, 31.39 34.47, 0.24 33.91 M1.32 35.88 C-1.21 21.49, 0.25 5.28, 0.5 -1.71 M0.6 34.1 C0.07 23.25, 1.1 10.78, 0.47 0.58" stroke="#fd7e14" stroke-width="1" fill="none"></path></g><g stroke-opacity="0.5" fill-opacity="0.5" stroke-linecap="round" transform="translate(144.53552161882544 122.70107443578217) rotate(64.06738432092567 36.36185467182986 17.294030673795532)"><path d="M1.05 -0.3 L74.13 0.7 L71.98 32.76 L-1.12 32.69" stroke="none" stroke-width="0" fill="#fd7e14"></path><path d="M-1.34 0.03 C25.91 -0.5, 52.66 1.56, 73.2 -1.38 M-0.72 0.79 C16.11 -0.33, 30.81 -0.71, 72.89 0.65 M74 -1.95 C74.13 12.27, 73.87 25.2, 71.58 33.27 M71.78 -0.17 C73.12 7.97, 72.78 14.85, 73.54 34.95 M74.48 36.06 C58.03 35.15, 39.27 33.33, -0.4 34.4 M72.81 34.1 C49.09 35.46, 24.73 34.78, -0.68 35.54 M1.3 33.39 C0.87 24.35, -1.66 14.1, -1.71 0.94 M-0.49 34.49 C0.45 26.88, -0.03 17.81, 0.58 -0.19" stroke="#fd7e14" stroke-width="1" fill="none"></path></g><g stroke-opacity="0.5" fill-opacity="0.5" stroke-linecap="round" transform="translate(136.81664961335628 103.77562886789246) rotate(64.06738432092567 36.36185467182986 17.294030673795532)"><path d="M-0.3 1.41 L73.43 -0.74 L70.9 33.46 L-1.89 34.01" stroke="none" stroke-width="0" fill="#fd7e14"></path><path d="M0.03 0.33 C15.36 1.99, 33.75 0.96, 71.34 -1.77 M0.79 0.74 C16.95 0.58, 33.58 0.69, 73.38 0.37 M70.78 1.19 C73.39 13.52, 74.67 24.04, 71.41 32.73 M72.56 0.7 C73.71 7.75, 73.43 15.61, 73.09 33.8 M74.19 36.01 C56.17 34, 37.81 34.83, -0.19 35.22 M72.24 35.06 C55.16 34.87, 36 33.98, 0.95 34.62 M-1.2 35.16 C0.03 25.22, 0.27 18.07, 0.94 -1.01 M-0.1 35.25 C0.71 22.23, 0.26 10.07, -0.19 0.52" stroke="#fd7e14" stroke-width="1" fill="none"></path></g><g stroke-opacity="0.5" fill-opacity="0.5" stroke-linecap="round" transform="translate(125.5426417555791 80.71265941825527) rotate(0.1484764834476908 23.531611926588084 17.622058362325333)"><path d="M1.41 0.7 L46.32 -1.82 L45.94 33.35 L-0.57 34.52" stroke="none" stroke-width="0" fill="#fd7e14"></path><path d="M0.33 -0.98 C12.57 1.08, 22.62 -1.39, 45.29 -1.32 M0.74 -0.05 C16.02 -0.8, 32.08 0.28, 47.43 0.64 M48.25 0.62 C48.21 13.01, 46.15 20.91, 45.21 33.52 M47.76 0.8 C47.08 13.06, 47.55 25.46, 46.28 34.52 M48.48 35.23 C27.99 33.76, 10.98 35.4, 0.63 34.33 M47.53 36.16 C33.45 35.25, 18.74 35.97, 0.03 34.38 M0.57 35.51 C-2.19 22.84, -1.93 10.37, -1.01 1.26 M0.67 36.17 C0.36 23.03, 0.76 9.69, 0.52 -0.15" stroke="#fd7e14" stroke-width="1" fill="none"></path></g><g stroke-opacity="0.5" fill-opacity="0.5" stroke-linecap="round" transform="translate(106.58744223065878 188.0172698174067) rotate(115.17254261283806 26.661205022302966 17.406139958221843)"><path d="M0.7 -0.74 L51.5 -1.12 L51.43 34.24 L-0.73 33.4" stroke="none" stroke-width="0" fill="#fd7e14"></path><path d="M-0.98 1.5 C13.51 0.39, 23.46 -1.86, 52 0.78 M-0.05 0.06 C11.74 -0.22, 24.98 -0.03, 53.96 0.15 M53.94 0.93 C54.88 11.53, 51.67 23.49, 51.6 35.93 M54.12 0.35 C53.77 7.98, 53.63 13.54, 52.6 35.6 M53.31 33.58 C30.81 34.79, 11.75 35.82, -0.92 34.69 M54.24 35.03 C37.08 34.39, 21.31 35.1, -0.86 35.47 M0.26 32.85 C0.71 20.41, 1.15 8.4, 1.26 1.2 M0.92 35 C0.51 26.64, -0.16 17.83, -0.15 0.7" stroke="#fd7e14" stroke-width="1" fill="none"></path></g><g stroke-opacity="0.5" fill-opacity="0.5" stroke-linecap="round" transform="translate(134.4135665554677 154.87883562216803) rotate(8.017820505681417 8.203992633554662 13.22169001754878)"><path d="M8.26 -1.82 L15.28 12.11 L8.43 25.72 L-1.42 13.64" stroke="none" stroke-width="0" fill="#fd7e14" fill-rule="evenodd"></path><path d="M10.19 0.86 C11.63 3.16, 12.09 7.43, 17.03 12.86 M9.05 -0.34 C12.05 5.83, 15.02 11.13, 16.53 14.51 M17.08 15.37 C14.15 15.59, 12.14 17.82, 9.81 25.08 M16.66 14.37 C14.99 17.85, 11.73 20.58, 9.57 27.08 M8.05 25.04 C5.24 21.65, 2.67 16.44, -0.1 14.14 M9.17 26.63 C6.16 24.13, 4.44 19.61, 0.51 14.5 M-1.63 14.42 C0.7 11.41, 3.43 8.32, 9.99 -0.81 M0.16 14.39 C3 9.7, 5.56 5.68, 9.59 0.29" stroke="#fd7e14" stroke-width="1" fill="none"></path></g><g stroke-opacity="0.5" fill-opacity="0.5" stroke-linecap="round" transform="translate(136.1219244570275 157.43123035230838) rotate(0 4.135007483777372 9.169928085336437)"><path d="M-1.82 -1.12 L6.38 -0.57 L7.54 16.92 L-0.36 18.5" stroke="none" stroke-width="0" fill="#fd7e14"></path><path d="M0.45 0.2 C2.05 -0.79, 4.69 0.26, 7.68 0.66 M-0.18 0.07 C3.36 0.15, 6.45 0.06, 8.53 -0.4 M10.01 -1.05 C7.12 4.89, 6.75 14.2, 6.54 18.03 M8.74 0.75 C8.75 6.06, 7.75 14.29, 9.08 19.01 M7.51 18.17 C5.12 18.55, 1.75 18.24, 0.08 17.94 M8.37 18.06 C5.8 18.37, 2.18 18.63, 0.27 18.09 M0.46 16.78 C0.84 11.38, 1.13 7.38, -0.89 -0.19 M0.43 18.88 C-0.35 12.1, -0.31 5.54, 0.32 -0.34" stroke="#fd7e14" stroke-width="1" fill="none"></path></g><g stroke-opacity="0.5" fill-opacity="0.5" stroke-linecap="round" transform="translate(134.93052836188144 148.25912101063068) rotate(8.017820505681417 3.8094492355412513 13.22169001754878)"><path d="M2.88 -1.89 L7.05 13.27 L2.58 26.09 L0.16 12.72" stroke="none" stroke-width="0" fill="#fd7e14" fill-rule="evenodd"></path><path d="M4.35 -1 C3.73 2.54, 6.49 5.98, 8.77 15.07 M4.12 0.47 C5.34 4.61, 6.25 8.74, 6.92 14.43 M6.88 13.15 C5.28 17.03, 6.01 21.04, 3.78 27.35 M8.15 14.23 C5.78 18.27, 5.43 24.04, 4.48 26.9 M3.74 26.32 C3.29 22.08, 1.6 19.07, -0.63 14.61 M3.56 27.07 C2.43 21.01, 1.27 17.12, -0.39 14.19 M-1.24 14.68 C0.65 10.52, 3.51 4.52, 3.85 0.97 M0.43 13.86 C1.92 8.38, 3.62 3.26, 3.73 -0.66" stroke="#fd7e14" stroke-width="1" fill="none"></path></g><g stroke-opacity="0.5" fill-opacity="0.5" stroke-linecap="round" transform="translate(144.2028091971224 148.71840487529516) rotate(337.64779307302933 2.0080303719405492 13.22169001754878)"><path d="M1.11 -0.57 L3.29 12.58 L2.64 26.61 L-1.28 15.73" stroke="none" stroke-width="0" fill="#fd7e14" fill-rule="evenodd"></path><path d="M2.03 -1.24 C2.53 5.8, 2.83 11.62, 5.05 13.93 M3.46 0.26 C3.7 4.39, 4.01 7.88, 4.43 14.22 M3.19 12.84 C2.71 19, 2.25 22.4, 3.87 27.44 M4.24 13.51 C3.29 18.67, 3.95 22.81, 3.44 26.44 M2.88 26.85 C1.81 23.39, 1.8 19.88, 0.6 15.18 M3.61 26.47 C1.46 22.85, 1.46 18.04, 0.18 14.08 M0.67 13.27 C1.47 12.05, 0.48 8.22, 3.95 1.32 M-0.14 14.38 C0.78 10.02, 2.1 4.78, 2.35 -0.4" stroke="#fd7e14" stroke-width="1" fill="none"></path></g><g stroke-opacity="0.5" fill-opacity="0.5" stroke-linecap="round" transform="translate(122.10156830694905 169.4547728041698) rotate(337.64779307302933 14.905619080715041 13.22169001754878)"><path d="M14.43 -0.73 L28.4 13.64 L15.16 25.16 L1.73 13.94" stroke="none" stroke-width="0" fill="#fd7e14" fill-rule="evenodd"></path><path d="M13.23 -1.32 C21.06 3.62, 27.11 11.5, 29.71 14.12 M15.37 0.64 C18.99 4.15, 21.67 7.7, 30.12 14.46 M28.02 12.33 C24.98 16.99, 17.72 25.08, 16.54 27.12 M29.05 13.3 C25.48 19.27, 20.23 23.47, 14.99 25.85 M15.61 25.55 C11.77 24.01, 7.82 22.15, 1.79 14.42 M15.03 25.61 C10.87 23.19, 4.78 18.81, 0.13 13.04 M-1.01 15.26 C6.19 8.41, 9.67 6.16, 16.84 0.38 M0.52 13.85 C5.83 9.52, 9.96 3.4, 14.44 -0.95" stroke="#fd7e14" stroke-width="1" fill="none"></path></g><g stroke-linecap="round"><g stroke-opacity="0.5" fill-opacity="0.5" transform="translate(160.4075112606224 189.1477301764196) rotate(0 -8.992862435628922 -19.03354946560671)"><path d="M0 0 C-3 -6.34, -14.99 -31.72, -17.99 -38.07 M0 0 C-3 -6.34, -14.99 -31.72, -17.99 -38.07" stroke="#fd7e14" stroke-width="4" fill="none"></path></g></g><g stroke-linecap="round"><g stroke-opacity="0.5" fill-opacity="0.5" transform="translate(158.98952551560433 189.80591145427775) rotate(0 -8.992862435628922 -19.03354946560671)"><path d="M0 0 C-3 -6.34, -14.99 -31.72, -17.99 -38.07 M0 0 C-3 -6.34, -14.99 -31.72, -17.99 -38.07" stroke="#fd7e14" stroke-width="4" fill="none"></path></g></g><g stroke-linecap="round"><g stroke-opacity="0.5" fill-opacity="0.5" transform="translate(158.51352881545608 190.7989753663087) rotate(0 -8.992862435628922 -19.03354946560671)"><path d="M0 0 C-3 -6.34, -14.99 -31.72, -17.99 -38.07 M0 0 C-3 -6.34, -14.99 -31.72, -17.99 -38.07" stroke="#fd7e14" stroke-width="4" fill="none"></path></g></g><g stroke-linecap="round"><g stroke-opacity="0.5" fill-opacity="0.5" transform="translate(158.17864618128806 193.03889789111508) rotate(0 -8.992862435628922 -19.03354946560671)"><path d="M0 0 C-3 -6.34, -14.99 -31.72, -17.99 -38.07 M0 0 C-3 -6.34, -14.99 -31.72, -17.99 -38.07" stroke="#fd7e14" stroke-width="4" fill="none"></path></g></g><g stroke-linecap="round"><g stroke-opacity="0.5" fill-opacity="0.5" transform="translate(158.39663582051435 194.34262336629627) rotate(0 -8.992862435628922 -19.03354946560671)"><path d="M0 0 C-3 -6.34, -14.99 -31.72, -17.99 -38.07 M0 0 C-3 -6.34, -14.99 -31.72, -17.99 -38.07" stroke="#fd7e14" stroke-width="4" fill="none"></path></g></g><g stroke-linecap="round"><g stroke-opacity="0.5" fill-opacity="0.5" transform="translate(157.47202276137614 194.75122230359057) rotate(0 -8.992862435628922 -19.03354946560671)"><path d="M0 0 C-3 -6.34, -14.99 -31.72, -17.99 -38.07 M0 0 C-3 -6.34, -14.99 -31.72, -17.99 -38.07" stroke="#fd7e14" stroke-width="4" fill="none"></path></g></g><g stroke-linecap="round"><g stroke-opacity="0.5" fill-opacity="0.5" transform="translate(155.9545200071443 195.62949940076396) rotate(0 -8.992862435628922 -19.03354946560671)"><path d="M0 0 C-3 -6.34, -14.99 -31.72, -17.99 -38.07 M0 0 C-3 -6.34, -14.99 -31.72, -17.99 -38.07" stroke="#fd7e14" stroke-width="4" fill="none"></path></g></g><g stroke-linecap="round"><g stroke-opacity="0.5" fill-opacity="0.5" transform="translate(155.14785303300232 196.17815931398627) rotate(0 -8.992862435628922 -19.03354946560671)"><path d="M0 0 C-3 -6.34, -14.99 -31.72, -17.99 -38.07 M0 0 C-3 -6.34, -14.99 -31.72, -17.99 -38.07" stroke="#fd7e14" stroke-width="4" fill="none"></path></g></g><g stroke-linecap="round"><g stroke-opacity="0.5" fill-opacity="0.5" transform="translate(157.10133506569036 194.78808045515098) rotate(0 -8.992862435628922 -19.03354946560671)"><path d="M0 0 C-3 -6.34, -14.99 -31.72, -17.99 -38.07 M0 0 C-3 -6.34, -14.99 -31.72, -17.99 -38.07" stroke="#fd7e14" stroke-width="4" fill="none"></path></g></g><g stroke-linecap="round"><g stroke-opacity="0.5" fill-opacity="0.5" transform="translate(152.36242986510842 200.9117990643408) rotate(0 -8.992862435628922 -19.03354946560671)"><path d="M0 0 C-3 -6.34, -14.99 -31.72, -17.99 -38.07 M0 0 C-3 -6.34, -14.99 -31.72, -17.99 -38.07" stroke="#fd7e14" stroke-width="4" fill="none"></path></g></g><g stroke-linecap="round"><g stroke-opacity="0.5" fill-opacity="0.5" transform="translate(152.8278956648137 199.45537553269673) rotate(0 -8.992862435628922 -19.03354946560671)"><path d="M0 0 C-3 -6.34, -14.99 -31.72, -17.99 -38.07 M0 0 C-3 -6.34, -14.99 -31.72, -17.99 -38.07" stroke="#fd7e14" stroke-width="4" fill="none"></path></g></g><g stroke-linecap="round"><g stroke-opacity="0.5" fill-opacity="0.5" transform="translate(151.68108060627128 202.10073772466285) rotate(0 -8.992862435628922 -19.03354946560671)"><path d="M0 0 C-3 -6.34, -14.99 -31.72, -17.99 -38.07 M0 0 C-3 -6.34, -14.99 -31.72, -17.99 -38.07" stroke="#fd7e14" stroke-width="4" fill="none"></path></g></g><g stroke-linecap="round"><g stroke-opacity="0.5" fill-opacity="0.5" transform="translate(151.20192463599597 203.11907579776516) rotate(0 -8.992862435628922 -19.03354946560671)"><path d="M0 0 C-3 -6.34, -14.99 -31.72, -17.99 -38.07 M0 0 C-3 -6.34, -14.99 -31.72, -17.99 -38.07" stroke="#fd7e14" stroke-width="4" fill="none"></path></g></g><g stroke-linecap="round"><g stroke-opacity="0.5" fill-opacity="0.5" transform="translate(150.64905236259074 203.9720787338697) rotate(0 -8.992862435628922 -19.03354946560671)"><path d="M0 0 C-3 -6.34, -14.99 -31.72, -17.99 -38.07 M0 0 C-3 -6.34, -14.99 -31.72, -17.99 -38.07" stroke="#fd7e14" stroke-width="4" fill="none"></path></g></g><g stroke-linecap="round"><g stroke-opacity="0.5" fill-opacity="0.5" transform="translate(150.02667614624806 204.93249685451974) rotate(0 -8.992862435628922 -19.03354946560671)"><path d="M0 0 C-3 -6.34, -14.99 -31.72, -17.99 -38.07 M0 0 C-3 -6.34, -14.99 -31.72, -17.99 -38.07" stroke="#fd7e14" stroke-width="4" fill="none"></path></g></g><g stroke-linecap="round"><g stroke-opacity="0.5" fill-opacity="0.5" transform="translate(149.41167156021402 206.26465576090322) rotate(0 -8.992862435628922 -19.03354946560671)"><path d="M0 0 C-3 -6.34, -14.99 -31.72, -17.99 -38.07 M0 0 C-3 -6.34, -14.99 -31.72, -17.99 -38.07" stroke="#fd7e14" stroke-width="4" fill="none"></path></g></g><g stroke-linecap="round"><g stroke-opacity="0.5" fill-opacity="0.5" transform="translate(148.99780717270187 207.26509130324735) rotate(0 -8.992862435628922 -19.03354946560671)"><path d="M0 0 C-3 -6.34, -14.99 -31.72, -17.99 -38.07 M0 0 C-3 -6.34, -14.99 -31.72, -17.99 -38.07" stroke="#fd7e14" stroke-width="4" fill="none"></path></g></g><g stroke-linecap="round"><g stroke-opacity="0.5" fill-opacity="0.5" transform="translate(148.36595314595252 208.1812796420254) rotate(0 -8.992862435628922 -19.03354946560671)"><path d="M0 0 C-3 -6.34, -14.99 -31.72, -17.99 -38.07 M0 0 C-3 -6.34, -14.99 -31.72, -17.99 -38.07" stroke="#fd7e14" stroke-width="4" fill="none"></path></g></g><g stroke-linecap="round"><g stroke-opacity="0.5" fill-opacity="0.5" transform="translate(147.2981198407615 209.60716356237754) rotate(0 -8.992862435628922 -19.03354946560671)"><path d="M0 0 C-3 -6.34, -14.99 -31.72, -17.99 -38.07 M0 0 C-3 -6.34, -14.99 -31.72, -17.99 -38.07" stroke="#fd7e14" stroke-width="4" fill="none"></path></g></g><g stroke-linecap="round"><g stroke-opacity="0.5" fill-opacity="0.5" transform="translate(147.38447322441425 217.01038657572326) rotate(0 -8.992862435628922 -19.03354946560671)"><path d="M0 0 C-3 -6.34, -14.99 -31.72, -17.99 -38.07 M0 0 C-3 -6.34, -14.99 -31.72, -17.99 -38.07" stroke="#fd7e14" stroke-width="4" fill="none"></path></g></g><g stroke-linecap="round"><g stroke-opacity="0.5" fill-opacity="0.5" transform="translate(147.0116793486377 211.15309974781053) rotate(0 -8.992862435628922 -19.03354946560671)"><path d="M0 0 C-3 -6.34, -14.99 -31.72, -17.99 -38.07 M0 0 C-3 -6.34, -14.99 -31.72, -17.99 -38.07" stroke="#fd7e14" stroke-width="4" fill="none"></path></g></g><g stroke-linecap="round"><g stroke-opacity="0.5" fill-opacity="0.5" transform="translate(95.46081548671646 240.06252765142017) rotate(0 22.772019123838618 -45.65935160756021)"><path d="M0 0 C7.59 -15.22, 37.95 -76.1, 45.54 -91.32 M0 0 C7.59 -15.22, 37.95 -76.1, 45.54 -91.32" stroke="#fd7e14" stroke-width="4" fill="none"></path></g></g><g stroke-linecap="round"><g stroke-opacity="0.5" fill-opacity="0.5" transform="translate(137.53702821761544 241.02189268202528) rotate(0 -20.614764167532485 -0.5033770413057255)"><path d="M0 0 C-6.87 -0.17, -34.36 -0.84, -41.23 -1.01 M0 0 C-6.87 -0.17, -34.36 -0.84, -41.23 -1.01" stroke="#fd7e14" stroke-width="4" fill="none"></path></g></g><g stroke-linecap="round"><g stroke-opacity="0.5" fill-opacity="0.5" transform="translate(137.22531356441687 241.63057872778836) rotate(0 11.569247229674147 -26.300397318180558)"><path d="M0 0 C3.86 -8.77, 19.28 -43.83, 23.14 -52.6 M0 0 C3.86 -8.77, 19.28 -43.83, 23.14 -52.6" stroke="#fd7e14" stroke-width="4" fill="none"></path></g></g><g stroke-linecap="round"><g stroke-opacity="0.5" fill-opacity="0.5" transform="translate(136.67138820097534 240.3868793851475) rotate(0 7.836569566687103 -18.706565006766937)"><path d="M0 0 C2.61 -6.24, 13.06 -31.18, 15.67 -37.41 M0 0 C2.61 -6.24, 13.06 -31.18, 15.67 -37.41" stroke="#fd7e14" stroke-width="4" fill="none"></path></g></g><g stroke-linecap="round"><g stroke-opacity="0.5" fill-opacity="0.5" transform="translate(115.84653256955062 201.66370535616625) rotate(0 -9.127131416311386 18.52753969918956)"><path d="M0 0 C-3.04 6.18, -15.21 30.88, -18.25 37.06 M0 0 C-3.04 6.18, -15.21 30.88, -18.25 37.06" stroke="#fd7e14" stroke-width="4" fill="none"></path></g></g><g stroke-opacity="0.5" fill-opacity="0.5" stroke-linecap="round" transform="translate(104.97285131431272 221.86197241107038) rotate(0 15.955893810343696 8.916513407396906)"><path d="M0 0 L31.91 0 L31.91 17.83 L0 17.83" stroke="none" stroke-width="0" fill="#fd7e14"></path><path d="M0 0 C11.36 0, 22.72 0, 31.91 0 M0 0 C12.1 0, 24.19 0, 31.91 0 M31.91 0 C31.91 5.24, 31.91 10.48, 31.91 17.83 M31.91 0 C31.91 6.53, 31.91 13.06, 31.91 17.83 M31.91 17.83 C20.43 17.83, 8.95 17.83, 0 17.83 M31.91 17.83 C20.09 17.83, 8.27 17.83, 0 17.83 M0 17.83 C0 13.63, 0 9.42, 0 0 M0 17.83 C0 11.9, 0 5.97, 0 0" stroke="#fd7e14" stroke-width="4" fill="none"></path></g><g stroke-opacity="0.5" fill-opacity="0.5" stroke-linecap="round" transform="translate(97.0439207276977 231.6668275650611) rotate(107.91683296107722 5.7189829831477255 2.2303136534103487)"><path d="M0 0 L11.44 0 L11.44 4.46 L0 4.46" stroke="none" stroke-width="0" fill="#fd7e14"></path><path d="M0 0 C2.35 0, 4.7 0, 11.44 0 M0 0 C4.44 0, 8.88 0, 11.44 0 M11.44 0 C11.44 1.38, 11.44 2.76, 11.44 4.46 M11.44 0 C11.44 1.63, 11.44 3.25, 11.44 4.46 M11.44 4.46 C8.56 4.46, 5.69 4.46, 0 4.46 M11.44 4.46 C7.61 4.46, 3.77 4.46, 0 4.46 M0 4.46 C0 2.74, 0 1.01, 0 0 M0 4.46 C0 3, 0 1.55, 0 0" stroke="#fd7e14" stroke-width="4" fill="none"></path></g></svg>
