<svg version="1.1" xmlns="http://www.w3.org/2000/svg" viewBox="0 0 165.536736121554 170.0005735908544" width="331.073472243108" height="340.0011471817088">
  <!-- svg-source:excalidraw -->
  
  <defs>
    <style class="style-fonts">
      @font-face {
        font-family: "Virgil";
        src: url("https://excalidraw.com/Virgil.woff2");
      }
      @font-face {
        font-family: "Cascadia";
        src: url("https://excalidraw.com/Cascadia.woff2");
      }
    </style>
  </defs>
  <g stroke-linecap="round"><g transform="translate(33.055675847786915 149.58640465701956) rotate(0 -9.417438513839443 -58.876376478742486)"><path d="M-0.63 -2.48 C-3.61 -22.15, -16.67 -100.54, -20.18 -120.09 M4.22 2.34 C0.97 -16.85, -19.62 -97.65, -23.06 -117.66" stroke="#000000" stroke-width="2" fill="none"></path></g></g><g stroke-linecap="round"><g transform="translate(133.6665965081338 148.2617954505231) rotate(0 6.968807239598391 -59.04916424703856)"><path d="M-2.48 -1.17 C-0.26 -20.55, 8.89 -98.49, 11.22 -116.93 M1.36 -4.27 C4.64 -23.36, 13.77 -96.15, 16.42 -114.78" stroke="#000000" stroke-width="2" fill="none"></path></g></g><g stroke-linecap="round" transform="translate(18.608300261068507 10) rotate(0 64.0014627635519 21.31250537073447)"><path d="M89.55 2.24 C98.84 3.07, 108.11 4.67, 114.68 7.76 C121.25 10.85, 127.68 17.01, 128.97 20.76 C130.25 24.52, 126.75 27.21, 122.38 30.29 C118.01 33.37, 111.52 37.49, 102.74 39.24 C93.97 40.99, 80.91 40.23, 69.75 40.78 C58.6 41.34, 45.74 43.6, 35.83 42.59 C25.92 41.58, 16.37 37.63, 10.29 34.73 C4.2 31.83, -0.06 29.15, -0.67 25.19 C-1.28 21.24, 2.04 14.35, 6.62 11 C11.19 7.65, 18.52 7.06, 26.79 5.08 C35.05 3.09, 40.05 -2.68, 56.21 -0.89 C72.38 0.89, 113.45 10.07, 123.79 15.79 C134.13 21.52, 118.99 33.2, 118.24 33.46 M100.89 1.25 C109.2 3.02, 114.6 8.59, 119.28 11.99 C123.96 15.4, 129.74 18.55, 128.98 21.65 C128.22 24.76, 121.24 27.25, 114.69 30.63 C108.15 34.02, 99.06 40.14, 89.73 41.95 C80.39 43.77, 69.11 42.15, 58.67 41.55 C48.23 40.95, 36.09 39.94, 27.07 38.36 C18.05 36.78, 8.74 34.72, 4.55 32.06 C0.36 29.39, 0.83 25.7, 1.94 22.35 C3.04 19, 5.79 15.11, 11.19 11.96 C16.58 8.8, 25.24 5.1, 34.3 3.41 C43.35 1.72, 54.81 1.4, 65.51 1.83 C76.22 2.27, 92.85 5.67, 98.53 6.01 C104.21 6.34, 99.92 4.11, 99.57 3.86" stroke="none" stroke-width="0" fill="#868e96"></path><path d="M12.57 9.16 C17.56 5.6, 25.96 1.48, 35.11 0.25 C44.27 -0.98, 56.85 1.39, 67.51 1.78 C78.16 2.16, 90.31 0.74, 99.03 2.56 C107.75 4.37, 114.74 9.21, 119.84 12.66 C124.94 16.11, 130.01 19.56, 129.62 23.27 C129.23 26.98, 123.62 31.82, 117.49 34.92 C111.36 38.03, 102.61 40.96, 92.84 41.91 C83.07 42.86, 69.48 41.33, 58.88 40.64 C48.29 39.96, 37.73 39.56, 29.27 37.8 C20.81 36.04, 12.63 33.12, 8.1 30.09 C3.56 27.07, 1.15 23.47, 2.05 19.64 C2.95 15.81, 10.2 9.08, 13.52 7.12 C16.85 5.16, 20.76 7.53, 21.99 7.88 M33.68 3.02 C42.26 1.78, 56.06 1.29, 66.79 1.16 C77.52 1.03, 89.48 0.96, 98.05 2.26 C106.61 3.57, 113.28 5.36, 118.18 9 C123.09 12.64, 127.36 20.52, 127.48 24.12 C127.6 27.72, 124.14 28.29, 118.89 30.61 C113.63 32.93, 105.84 35.66, 95.95 38.03 C86.06 40.4, 70.61 45.1, 59.56 44.84 C48.51 44.57, 38.53 38.75, 29.67 36.46 C20.8 34.16, 11.8 33.32, 6.37 31.06 C0.94 28.8, -3.24 26.52, -2.89 22.88 C-2.54 19.23, 2.47 12.14, 8.47 9.18 C14.46 6.21, 28.47 6.41, 33.07 5.06 C37.66 3.72, 35.61 0.75, 36.04 1.13" stroke="#000000" stroke-width="2" fill="none"></path></g><g stroke-opacity="0.4" fill-opacity="0.4" stroke-linecap="round" transform="translate(68.83839489500679 65.89850851415667) rotate(0 10.870930729179236 9.626254836867247)"><path d="M17.86 4.48 C19.84 5.67, 22.46 5.46, 22.64 7.55 C22.82 9.65, 20.13 14.96, 18.94 17.08 C17.74 19.2, 17.43 19.96, 15.47 20.28 C13.52 20.6, 9.52 20.23, 7.21 19.01 C4.9 17.8, 2.7 15.15, 1.62 12.96 C0.53 10.78, 0.39 7.55, 0.7 5.9 C1 4.25, 1.34 4.04, 3.44 3.07 C5.54 2.1, 10.65 -0.19, 13.29 0.09 C15.93 0.36, 18.16 4.17, 19.29 4.73 C20.42 5.29, 20.53 3.88, 20.07 3.45 M18.08 6.5 C20.19 7.36, 22.98 5.95, 23.14 7.84 C23.29 9.72, 21.18 16.17, 18.99 17.81 C16.8 19.45, 12.72 17.54, 10.01 17.69 C7.3 17.83, 4.07 19.28, 2.74 18.68 C1.41 18.07, 2.32 15.79, 2.03 14.05 C1.75 12.31, 0.08 10.06, 1.02 8.23 C1.96 6.4, 5.77 4.14, 7.69 3.09 C9.62 2.04, 10.96 2.13, 12.56 1.93 C14.16 1.74, 16.12 1.39, 17.29 1.9 C18.47 2.42, 19.54 5.08, 19.62 5.04" stroke="none" stroke-width="0" fill="#000"></path><path d="M3.85 1.02 C4.88 -0.77, 6.52 -1.35, 9.16 -1.31 C11.8 -1.27, 17.8 0.02, 19.68 1.28 C21.57 2.54, 20.26 3.73, 20.45 6.24 C20.63 8.75, 21.74 14.16, 20.8 16.35 C19.86 18.53, 16.84 18.78, 14.81 19.34 C12.78 19.91, 10.62 20.61, 8.61 19.73 C6.61 18.84, 4.5 15.79, 2.78 14.03 C1.05 12.27, -1.86 10.94, -1.73 9.18 C-1.6 7.43, 2.42 4.47, 3.55 3.5 C4.68 2.52, 4.76 3.84, 5.04 3.35 M10.16 0.73 C11.89 -0.13, 13.62 0.59, 15.03 1.5 C16.44 2.41, 17.55 4.16, 18.64 6.17 C19.72 8.19, 21.78 11.58, 21.55 13.58 C21.32 15.57, 19.56 17.61, 17.27 18.13 C14.97 18.65, 10.65 17.2, 7.79 16.71 C4.92 16.22, 1.04 16.29, 0.08 15.19 C-0.88 14.08, 1.94 11.74, 2.04 10.09 C2.14 8.43, -0.18 7.28, 0.66 5.26 C1.51 3.24, 5.29 -1.13, 7.09 -2.02 C8.88 -2.91, 11.56 -0.39, 11.45 -0.05" stroke="#000000" stroke-width="2" fill="none"></path></g><g transform="translate(89.96362792965374 76.10713464008677) rotate(0 32.78655409595012 11.067539687805947)" stroke="none"><path fill="#e67700" d="M 0.71,-2.52 Q 0.71,-2.52 1.49,-2.34 2.27,-2.16 3.86,-1.56 5.44,-0.95 6.52,-0.51 7.61,-0.07 8.62,0.61 9.63,1.29 10.72,2.07 11.81,2.85 12.71,3.54 13.61,4.22 14.57,4.93 15.54,5.64 16.46,6.52 17.37,7.39 16.23,6.64 15.08,5.88 16.13,6.32 17.19,6.75 18.17,7.17 19.15,7.58 20.18,7.99 21.21,8.40 22.44,8.87 23.67,9.34 24.89,9.77 26.11,10.21 27.12,10.62 28.12,11.04 29.28,11.66 30.44,12.27 31.60,12.98 32.77,13.68 33.78,14.39 34.79,15.09 35.86,15.46 36.94,15.84 38.11,16.08 39.29,16.33 40.36,16.46 41.42,16.60 42.59,16.88 43.75,17.16 45.14,17.38 46.53,17.59 47.68,17.63 48.83,17.67 50.09,17.91 51.35,18.14 52.48,18.22 53.60,18.29 54.72,18.25 55.85,18.20 56.92,18.20 58.00,18.20 59.15,18.19 60.30,18.19 61.36,18.19 62.42,18.19 60.98,19.02 59.53,19.86 60.36,19.09 61.18,18.31 62.46,17.51 63.75,16.70 62.76,17.75 61.78,18.80 62.93,19.33 64.09,19.86 62.63,18.89 61.18,17.91 60.61,16.85 60.05,15.79 60.73,16.86 61.41,17.94 60.80,17.03 60.19,16.12 60.79,17.00 61.40,17.88 60.42,17.09 59.44,16.29 58.74,15.45 58.04,14.61 59.02,15.61 59.99,16.60 58.61,15.92 57.23,15.23 58.31,15.81 59.40,16.39 57.84,15.59 56.28,14.78 55.76,13.83 55.25,12.87 54.00,12.93 52.76,12.98 52.25,12.59 51.74,12.19 51.39,11.65 51.03,11.12 50.87,10.50 50.70,9.87 50.74,9.23 50.79,8.59 51.03,8.00 51.28,7.40 51.70,6.92 52.12,6.43 52.67,6.10 53.23,5.78 53.86,5.65 54.49,5.52 55.13,5.59 55.77,5.67 56.35,5.95 56.93,6.23 57.39,6.67 57.85,7.12 58.15,7.69 58.44,8.26 58.54,8.90 58.63,9.54 58.52,10.17 58.41,10.80 58.10,11.37 57.79,11.93 57.32,12.37 56.85,12.81 56.26,13.07 55.68,13.33 55.04,13.39 54.40,13.46 53.77,13.31 53.14,13.17 52.60,12.83 52.05,12.49 51.64,11.99 51.23,11.50 51.00,10.90 50.77,10.30 50.74,9.66 50.71,9.01 50.89,8.40 51.07,7.78 51.44,7.25 51.80,6.72 52.32,6.34 52.84,5.96 53.45,5.76 54.06,5.56 54.70,5.57 55.35,5.57 55.95,5.79 56.56,6.00 56.56,6.00 56.56,6.00 58.17,6.47 59.79,6.94 60.60,7.64 61.42,8.34 62.19,9.65 62.96,10.96 62.11,9.87 61.25,8.77 61.94,9.65 62.63,10.53 61.91,9.60 61.19,8.68 62.18,9.31 63.16,9.95 62.26,9.38 61.35,8.80 62.51,9.28 63.68,9.77 64.32,10.66 64.95,11.55 64.20,10.64 63.44,9.73 64.55,10.60 65.65,11.48 64.78,10.87 63.91,10.26 65.11,11.04 66.31,11.83 67.08,12.75 67.85,13.67 66.61,12.86 65.37,12.06 66.64,12.72 67.91,13.37 68.42,14.36 68.93,15.35 69.22,16.71 69.52,18.08 69.50,19.19 69.48,20.31 68.96,21.49 68.43,22.68 67.52,23.28 66.60,23.88 65.76,24.55 64.92,25.21 63.24,25.64 61.57,26.07 60.46,26.07 59.36,26.07 58.14,26.06 56.93,26.06 55.75,26.06 54.58,26.05 53.46,26.02 52.35,25.99 51.26,25.87 50.16,25.75 49.02,25.62 47.87,25.49 46.73,25.41 45.58,25.33 44.47,25.12 43.36,24.92 42.21,24.64 41.06,24.36 39.99,24.20 38.92,24.04 37.68,23.77 36.44,23.50 35.14,23.21 33.84,22.91 32.83,22.54 31.82,22.18 30.85,21.52 29.88,20.86 28.60,20.08 27.32,19.29 26.20,18.66 25.07,18.02 24.16,17.35 23.25,16.67 24.21,17.14 25.17,17.61 24.14,17.32 23.11,17.04 21.89,16.59 20.67,16.13 19.57,15.69 18.46,15.24 17.33,14.76 16.20,14.27 15.21,13.60 14.22,12.93 12.84,12.13 11.45,11.32 10.52,10.51 9.59,9.69 8.61,8.83 7.64,7.96 6.75,7.15 5.86,6.34 4.80,5.52 3.74,4.70 2.27,3.87 0.80,3.03 0.04,2.77 -0.71,2.52 -1.00,2.40 -1.29,2.27 -1.54,2.09 -1.80,1.90 -2.00,1.66 -2.20,1.41 -2.34,1.13 -2.48,0.84 -2.54,0.53 -2.61,0.22 -2.60,-0.08 -2.59,-0.40 -2.50,-0.70 -2.41,-1.01 -2.26,-1.28 -2.10,-1.55 -1.88,-1.78 -1.67,-2.01 -1.40,-2.18 -1.14,-2.35 -0.84,-2.46 -0.54,-2.56 -0.22,-2.59 0.08,-2.61 0.39,-2.57 0.71,-2.52 0.71,-2.52 L 0.71,-2.52 Z"></path></g><g transform="translate(33.47589669950685 149.5635665672521) rotate(0 50.07479562352455 4.700078874085875)" stroke="none"><path fill="#000000" d="M 0.08,-2.60 Q 0.08,-2.60 1.06,-2.60 2.04,-2.60 3.48,-2.38 4.92,-2.16 6.16,-1.65 7.40,-1.14 8.38,-0.61 9.36,-0.08 10.45,0.30 11.54,0.68 12.69,1.17 13.84,1.66 15.16,1.77 16.48,1.88 17.78,2.01 19.09,2.14 20.36,2.28 21.64,2.43 22.69,2.61 23.74,2.78 24.82,2.90 25.89,3.02 27.21,3.26 28.53,3.49 29.82,3.83 31.11,4.17 32.53,4.51 33.94,4.85 35.14,5.28 36.33,5.70 37.63,5.80 38.93,5.91 40.47,5.97 42.02,6.04 43.09,6.16 44.16,6.27 45.23,6.28 46.31,6.28 47.65,6.40 48.99,6.52 50.17,6.54 51.35,6.56 52.44,6.55 53.52,6.55 54.65,6.54 55.79,6.54 56.86,6.54 57.92,6.53 59.14,6.53 60.35,6.53 61.48,6.52 62.60,6.52 63.79,6.52 64.98,6.51 66.09,6.51 67.19,6.52 68.48,6.52 69.76,6.52 70.94,6.38 72.13,6.24 73.19,6.03 74.25,5.81 75.45,5.55 76.64,5.29 77.81,5.13 78.98,4.97 80.26,4.80 81.54,4.63 82.45,4.03 83.35,3.44 84.18,2.72 85.01,2.01 85.99,1.41 86.97,0.80 87.95,0.28 88.93,-0.24 90.00,-0.77 91.08,-1.31 92.01,-1.84 92.94,-2.37 94.22,-2.83 95.50,-3.30 97.37,-4.07 99.25,-4.85 99.88,-4.89 100.51,-4.92 101.13,-4.76 101.74,-4.59 102.26,-4.23 102.79,-3.88 103.18,-3.38 103.56,-2.87 103.77,-2.27 103.97,-1.67 103.97,-1.04 103.98,-0.40 103.78,0.19 103.58,0.79 103.19,1.30 102.81,1.81 102.29,2.16 101.76,2.52 101.15,2.69 100.54,2.87 99.91,2.83 99.27,2.80 98.68,2.57 98.09,2.34 97.61,1.93 97.12,1.52 96.79,0.97 96.46,0.43 96.33,-0.18 96.19,-0.80 96.25,-1.43 96.32,-2.06 96.58,-2.64 96.85,-3.21 97.28,-3.67 97.72,-4.14 98.28,-4.44 98.84,-4.74 99.46,-4.84 100.09,-4.94 100.72,-4.84 101.34,-4.74 101.90,-4.45 102.47,-4.15 102.90,-3.69 103.34,-3.23 103.61,-2.66 103.88,-2.08 103.95,-1.45 104.02,-0.82 103.89,-0.20 103.75,0.41 103.43,0.95 103.10,1.50 102.62,1.91 102.14,2.32 101.55,2.56 100.96,2.80 100.96,2.80 100.96,2.79 98.79,3.63 96.63,4.47 95.52,5.13 94.42,5.79 93.43,6.25 92.43,6.70 91.39,7.35 90.36,8.00 89.18,8.83 88.01,9.66 86.97,10.27 85.94,10.87 84.76,11.37 83.58,11.87 81.97,12.21 80.37,12.56 79.21,12.79 78.06,13.02 76.98,13.21 75.90,13.41 74.42,13.71 72.95,14.00 71.69,14.17 70.42,14.34 69.06,14.34 67.71,14.35 66.49,14.35 65.27,14.35 64.07,14.35 62.86,14.35 61.77,14.34 60.67,14.34 59.52,14.33 58.37,14.33 57.20,14.33 56.02,14.33 54.92,14.32 53.83,14.32 52.75,14.31 51.66,14.31 50.56,14.30 49.45,14.30 48.38,14.14 47.31,13.99 46.18,13.98 45.05,13.98 43.74,13.93 42.43,13.89 41.00,13.77 39.57,13.65 38.46,13.49 37.36,13.33 36.18,13.13 35.00,12.93 33.90,12.64 32.80,12.35 31.62,12.04 30.44,11.72 29.29,11.44 28.14,11.16 27.06,10.89 25.97,10.61 24.70,10.36 23.43,10.12 22.30,9.93 21.17,9.74 19.85,9.55 18.52,9.36 17.43,9.18 16.33,9.01 15.16,8.83 13.99,8.64 12.71,8.27 11.42,7.91 10.20,7.25 8.98,6.59 7.73,6.01 6.47,5.43 5.24,4.58 4.00,3.72 2.93,3.22 1.86,2.73 0.88,2.66 -0.08,2.60 -0.39,2.55 -0.70,2.50 -0.99,2.38 -1.28,2.26 -1.53,2.07 -1.78,1.89 -1.98,1.64 -2.18,1.40 -2.32,1.12 -2.46,0.84 -2.52,0.53 -2.59,0.22 -2.58,-0.08 -2.57,-0.39 -2.48,-0.69 -2.40,-1.00 -2.24,-1.27 -2.09,-1.54 -1.87,-1.77 -1.66,-2.00 -1.39,-2.17 -1.13,-2.34 -0.83,-2.44 -0.54,-2.54 -0.22,-2.57 0.08,-2.60 0.08,-2.60 L 0.08,-2.60 Z"></path></g></svg>
