<svg version="1.1" xmlns="http://www.w3.org/2000/svg" viewBox="0 0 266.8861208935315 283.445918090717" width="533.772241787063" height="566.891836181434">
  <!-- svg-source:excalidraw -->
  
  <defs>
    <style class="style-fonts">
      @font-face {
        font-family: "Virgil";
        src: url("https://excalidraw.com/Virgil.woff2");
      }
      @font-face {
        font-family: "Cascadia";
        src: url("https://excalidraw.com/Cascadia.woff2");
      }
    </style>
  </defs>
  <g stroke-linecap="round"><g transform="translate(41.77270765713437 255.15551939257966) rotate(0 -14.858631061571757 -102.53431543094473)"><path d="M2.06 -2.39 C-3.3 -36.71, -25.25 -173.78, -30.89 -207.56 M-0.27 2.49 C-5.88 -31.25, -26.36 -168.88, -31.77 -204.2" stroke="#000000" stroke-width="2" fill="none"></path></g></g><g stroke-linecap="round"><g transform="translate(218.47560771146465 252.82910903185143) rotate(0 11.949409050057099 -101.71947994119375)"><path d="M-2.25 0.97 C2.34 -32.65, 21.85 -166.61, 26.15 -199.81 M1.73 -0.98 C6.3 -35.65, 21.97 -170.81, 25.3 -204.41" stroke="#000000" stroke-width="2" fill="none"></path></g></g><g stroke-linecap="round" transform="translate(16.39879051581483 10) rotate(0 112.40573094662358 37.43114049364431)"><path d="M73.26 3.67 C86.02 1.13, 105.19 -0.74, 120.75 -0.78 C136.31 -0.82, 153.04 0.58, 166.63 3.41 C180.23 6.23, 193.22 12.16, 202.34 16.18 C211.46 20.2, 218.2 22.76, 221.38 27.53 C224.56 32.3, 224 39.37, 221.4 44.81 C218.81 50.24, 213.91 55.96, 205.8 60.13 C197.69 64.31, 185.78 67.55, 172.75 69.86 C159.71 72.18, 143.24 73.73, 127.62 74.03 C112 74.32, 93.89 73.33, 79.04 71.64 C64.19 69.94, 49.68 66.97, 38.51 63.86 C27.35 60.74, 18.48 57.41, 12.06 52.93 C5.63 48.46, 0.48 41.71, -0.04 37.01 C-0.55 32.31, 2.81 29.27, 8.96 24.74 C15.11 20.21, 20.76 14.03, 36.87 9.83 C52.98 5.62, 88.87 0.95, 105.64 -0.49 C122.4 -1.93, 137.34 0.55, 137.45 1.19 M200.55 12.99 C210.99 16.37, 217.09 19.54, 221.13 24.95 C225.17 30.36, 226.65 39.99, 224.78 45.43 C222.9 50.87, 218.65 53.58, 209.9 57.57 C201.15 61.56, 185.08 66.69, 172.27 69.36 C159.47 72.04, 148.06 72.88, 133.08 73.6 C118.11 74.33, 97.52 74.74, 82.43 73.71 C67.34 72.68, 54.47 70.67, 42.54 67.42 C30.62 64.18, 18.08 58.35, 10.88 54.25 C3.69 50.15, -0.14 48.19, -0.6 42.8 C-1.06 37.41, 3.14 27.42, 8.11 21.9 C13.08 16.38, 18.93 13.23, 29.22 9.66 C39.51 6.1, 55.51 1.74, 69.84 0.52 C84.18 -0.7, 99.46 2.15, 115.21 2.33 C130.96 2.52, 150.22 -0.15, 164.34 1.62 C178.46 3.4, 194.9 11.01, 199.93 12.99 C204.97 14.97, 196.42 13.34, 194.54 13.48" stroke="none" stroke-width="0" fill="#868e96"></path><path d="M128.3 -0.05 C143.02 0.14, 159.42 4.79, 172.71 7.35 C186.01 9.91, 199.34 10.97, 208.06 15.31 C216.78 19.64, 222.77 28.33, 225.02 33.38 C227.27 38.42, 225.65 40.84, 221.54 45.56 C217.44 50.28, 210.31 57.8, 200.38 61.7 C190.45 65.6, 175.9 66.7, 161.99 68.95 C148.08 71.2, 131.63 74.63, 116.92 75.2 C102.21 75.77, 87.44 74.31, 73.73 72.37 C60.03 70.42, 45.75 67.27, 34.66 63.51 C23.58 59.74, 12.99 54.17, 7.21 49.77 C1.43 45.37, -0.64 42.25, -0.03 37.11 C0.59 31.98, 4.23 24.03, 10.91 18.95 C17.6 13.88, 28.07 9.79, 40.08 6.66 C52.09 3.53, 61.43 0.69, 83 0.16 C104.57 -0.38, 149.84 0.74, 169.48 3.44 C189.11 6.14, 201.48 15.19, 200.81 16.37 M23.76 11.51 C30.73 7.29, 44.96 5.36, 58.65 3.34 C72.34 1.31, 89.87 -0.09, 105.89 -0.65 C121.92 -1.22, 140.02 -2.01, 154.79 -0.05 C169.55 1.91, 183.63 7.45, 194.48 11.12 C205.33 14.8, 214.74 17.76, 219.87 22.02 C225 26.27, 226.97 31.69, 225.28 36.67 C223.58 41.66, 216.99 47.15, 209.7 51.95 C202.42 56.75, 193.37 62.2, 181.55 65.46 C169.73 68.72, 152.94 69.93, 138.76 71.52 C124.58 73.12, 110.55 75.42, 96.46 75.03 C82.36 74.63, 67.42 71.51, 54.17 69.15 C40.92 66.79, 26.22 65.35, 16.97 60.88 C7.71 56.41, 1.27 47.82, -1.36 42.34 C-3.99 36.85, -3.18 32.76, 1.2 27.97 C5.57 23.18, 20.71 16.3, 24.89 13.59 C29.07 10.89, 24.54 11.09, 26.25 11.74" stroke="#000000" stroke-width="2" fill="none"></path></g><g stroke-opacity="0.4" fill-opacity="0.4" stroke-linecap="round" transform="translate(104.61787581555923 108.17451722272313) rotate(0 19.09260916735399 16.90658563873876)"><path d="M12.56 0.93 C16.15 0.14, 21.94 0.55, 25.93 2.2 C29.93 3.86, 34.58 8.07, 36.52 10.84 C38.45 13.61, 38.47 15.32, 37.54 18.82 C36.61 22.32, 34.07 29.51, 30.94 31.84 C27.81 34.17, 23.14 33.27, 18.77 32.8 C14.4 32.33, 8.12 31.49, 4.72 29.01 C1.32 26.53, -1.43 21.55, -1.63 17.93 C-1.83 14.3, -0.93 9.88, 3.54 7.24 C8.01 4.6, 19.73 1.7, 25.21 2.08 C30.68 2.47, 36.3 9.33, 36.39 9.56 M22.47 -2.38 C26.09 -2.59, 30.92 -0.37, 33.16 3.2 C35.39 6.77, 36.01 14.57, 35.87 19.02 C35.74 23.46, 34.46 27.88, 32.34 29.87 C30.22 31.87, 27.15 31.15, 23.16 31 C19.18 30.85, 12.49 30.21, 8.44 28.95 C4.39 27.7, -0.13 26.36, -1.16 23.46 C-2.18 20.56, 0.17 15.09, 2.28 11.55 C4.38 8, 7.96 4.07, 11.48 2.19 C15 0.31, 22.17 0.97, 23.42 0.26 C24.66 -0.45, 19.46 -2.3, 18.95 -2.07" stroke="none" stroke-width="0" fill="#000"></path><path d="M23.99 1.3 C27.92 1.79, 33.36 3.9, 35.66 6.47 C37.95 9.05, 37.84 13.26, 37.77 16.77 C37.7 20.28, 37.83 24.73, 35.22 27.54 C32.62 30.35, 26.7 32.76, 22.12 33.64 C17.54 34.52, 11.26 34.43, 7.76 32.81 C4.27 31.2, 1.92 27.49, 1.15 23.94 C0.39 20.4, 2.07 15.4, 3.19 11.55 C4.3 7.7, 3.73 2.35, 7.84 0.83 C11.94 -0.68, 23.34 1.1, 27.81 2.46 C32.28 3.82, 34.74 8.55, 34.67 9 M9.31 3.86 C12.12 1.23, 17.1 -2.81, 20.49 -2.71 C23.88 -2.61, 27.01 1.49, 29.66 4.46 C32.3 7.43, 35.06 11.41, 36.37 15.1 C37.69 18.8, 39.54 23.67, 37.54 26.62 C35.54 29.57, 28.39 32.1, 24.37 32.78 C20.35 33.47, 16.82 31.67, 13.42 30.72 C10.01 29.76, 6.09 30.09, 3.93 27.05 C1.78 24, 0.1 15.87, 0.48 12.45 C0.87 9.04, 5.33 7.91, 6.25 6.54 C7.17 5.17, 6.13 4.35, 6.02 4.23" stroke="#000000" stroke-width="2" fill="none"></path></g><g transform="translate(141.72011001682466 126.10392120971233) rotate(0 57.5830054383534 19.437913364334236)" stroke="none"><path fill="#e67700" d="M 0.46,-2.63 Q 0.46,-2.63 1.49,-2.47 2.53,-2.32 4.28,-1.68 6.04,-1.04 7.34,-0.42 8.64,0.19 9.95,0.79 11.26,1.39 12.53,2.11 13.79,2.83 14.65,3.49 15.52,4.14 16.54,4.85 17.56,5.56 18.65,6.46 19.74,7.37 20.62,8.02 21.49,8.67 22.54,9.41 23.60,10.16 24.51,10.89 25.43,11.63 26.47,12.54 27.52,13.45 28.54,13.84 29.55,14.23 30.88,14.90 32.21,15.56 33.29,16.12 34.38,16.68 35.39,17.02 36.41,17.36 37.68,17.89 38.96,18.42 40.24,18.88 41.52,19.35 42.73,19.79 43.95,20.23 45.38,20.69 46.82,21.16 47.86,21.97 48.89,22.77 50.08,23.20 51.26,23.62 52.49,24.32 53.72,25.02 54.72,25.65 55.72,26.28 57.09,27.18 58.46,28.07 59.46,28.80 60.46,29.54 61.85,29.96 63.25,30.39 64.38,30.57 65.52,30.75 66.63,31.06 67.74,31.37 69.13,31.63 70.52,31.90 71.61,32.02 72.69,32.15 73.85,32.46 75.01,32.77 76.14,32.93 77.26,33.10 78.90,33.37 80.54,33.65 81.66,33.84 82.78,34.03 83.94,34.04 85.09,34.04 86.66,34.19 88.22,34.34 89.78,34.46 91.34,34.59 92.44,34.80 93.54,35.00 94.70,35.00 95.86,35.00 96.97,35.00 98.09,35.00 99.28,35.00 100.46,34.99 101.56,34.99 102.65,34.99 103.88,34.99 105.11,34.99 106.20,34.98 107.29,34.98 108.47,34.98 109.64,34.98 108.35,35.73 107.05,36.48 107.98,35.65 108.90,34.83 110.02,33.92 111.13,33.00 112.30,32.44 113.46,31.87 112.43,32.90 111.40,33.94 111.33,32.85 111.26,31.76 111.26,30.66 111.25,29.56 111.94,30.82 112.63,32.08 111.32,30.96 110.01,29.83 109.23,28.51 108.45,27.19 109.09,28.18 109.73,29.17 109.06,28.19 108.38,27.20 109.18,28.10 109.98,29.00 109.06,28.33 108.13,27.66 107.19,27.14 106.25,26.62 105.42,25.56 104.58,24.50 105.35,25.36 106.13,26.22 104.45,25.48 102.78,24.73 103.73,25.25 104.68,25.78 102.95,24.95 101.22,24.12 100.60,23.00 99.98,21.88 99.06,21.06 98.13,20.23 99.21,20.88 100.30,21.53 98.69,21.14 97.09,20.74 95.60,20.44 94.11,20.13 93.61,19.74 93.11,19.35 92.75,18.82 92.40,18.29 92.24,17.67 92.07,17.05 92.12,16.41 92.16,15.78 92.40,15.19 92.64,14.60 93.06,14.12 93.48,13.63 94.03,13.31 94.58,12.99 95.21,12.86 95.83,12.73 96.47,12.81 97.10,12.88 97.67,13.16 98.25,13.43 98.71,13.88 99.17,14.32 99.46,14.89 99.75,15.45 99.85,16.09 99.94,16.72 99.83,17.35 99.72,17.97 99.42,18.53 99.11,19.09 98.64,19.53 98.17,19.96 97.59,20.22 97.01,20.48 96.38,20.54 95.74,20.61 95.12,20.46 94.50,20.32 93.95,19.98 93.41,19.65 93.00,19.16 92.60,18.66 92.37,18.07 92.14,17.47 92.11,16.84 92.08,16.20 92.26,15.59 92.44,14.97 92.80,14.45 93.17,13.92 93.68,13.54 94.19,13.16 94.80,12.97 95.41,12.77 96.05,12.78 96.68,12.79 97.29,13.00 97.89,13.21 97.89,13.21 97.89,13.21 99.60,13.46 101.30,13.72 102.73,14.54 104.16,15.36 105.05,16.18 105.94,17.00 106.65,18.16 107.37,19.32 106.47,18.64 105.58,17.95 106.83,18.28 108.08,18.60 109.09,19.13 110.11,19.65 110.77,20.56 111.44,21.47 110.45,20.61 109.47,19.75 110.46,20.35 111.45,20.95 113.02,22.03 114.59,23.12 115.38,24.46 116.17,25.80 115.57,24.90 114.97,23.99 115.79,24.82 116.61,25.64 115.46,24.91 114.32,24.17 115.87,25.03 117.42,25.89 118.25,27.73 119.07,29.56 119.07,30.66 119.06,31.76 119.06,32.87 119.06,33.97 118.94,35.12 118.83,36.26 117.64,37.65 116.45,39.04 115.39,39.66 114.33,40.29 113.32,41.07 112.32,41.86 110.98,42.31 109.64,42.77 108.47,42.76 107.29,42.76 106.20,42.76 105.11,42.75 103.88,42.75 102.65,42.76 101.56,42.75 100.46,42.75 99.28,42.75 98.09,42.75 96.97,42.74 95.86,42.74 94.76,42.73 93.66,42.71 92.46,42.59 91.25,42.46 90.11,42.35 88.98,42.24 87.79,42.00 86.61,41.76 85.35,41.76 84.09,41.76 82.91,41.74 81.73,41.71 80.44,41.45 79.15,41.20 78.05,40.99 76.95,40.79 75.88,40.72 74.82,40.65 73.48,40.22 72.15,39.79 70.93,39.71 69.72,39.63 68.18,39.20 66.64,38.77 65.43,38.54 64.21,38.32 62.79,38.05 61.37,37.78 60.27,37.38 59.16,36.99 58.15,36.64 57.13,36.29 56.06,35.65 54.98,35.02 53.83,34.25 52.67,33.48 51.80,32.81 50.92,32.14 49.77,31.53 48.61,30.91 47.52,30.28 46.42,29.65 45.47,28.87 44.51,28.09 43.22,27.76 41.93,27.43 40.86,27.03 39.80,26.63 38.51,26.17 37.23,25.70 35.87,25.18 34.51,24.66 33.43,24.26 32.36,23.87 31.01,23.27 29.66,22.67 28.42,21.97 27.18,21.27 26.24,20.70 25.29,20.14 24.32,19.62 23.34,19.09 22.48,18.46 21.61,17.82 20.58,16.85 19.54,15.89 18.57,15.12 17.61,14.36 16.61,13.57 15.62,12.78 14.75,11.89 13.88,11.01 12.78,10.14 11.69,9.26 10.66,8.34 9.63,7.41 8.59,6.85 7.54,6.28 6.56,5.78 5.57,5.28 4.52,4.67 3.47,4.06 2.52,3.55 1.57,3.04 0.55,2.83 -0.46,2.63 -0.77,2.54 -1.08,2.44 -1.35,2.28 -1.63,2.11 -1.86,1.89 -2.09,1.66 -2.26,1.39 -2.43,1.11 -2.53,0.80 -2.62,0.50 -2.65,0.17 -2.67,-0.14 -2.61,-0.45 -2.56,-0.77 -2.43,-1.07 -2.29,-1.36 -2.10,-1.62 -1.90,-1.87 -1.65,-2.07 -1.40,-2.27 -1.10,-2.41 -0.81,-2.54 -0.49,-2.60 -0.18,-2.66 0.14,-2.65 0.46,-2.63 0.46,-2.63 L 0.46,-2.63 Z"></path></g><g transform="translate(42.510741288813406 255.1154088691187) rotate(0 87.94633374021086 8.254745728238163)" stroke="none"><path fill="#000000" d="M 0,-2.65 Q 0,-2.65 1.35,-2.65 2.71,-2.64 4.70,-2.45 6.69,-2.26 8.23,-1.71 9.77,-1.16 10.89,-0.60 12.01,-0.05 13.07,0.57 14.13,1.20 15.27,1.81 16.40,2.42 17.50,2.75 18.61,3.08 19.75,3.45 20.90,3.82 21.86,4.32 22.82,4.82 23.56,5.73 24.31,6.64 23.31,5.68 22.31,4.72 23.71,5.08 25.10,5.45 26.68,5.60 28.25,5.76 29.40,5.83 30.56,5.91 31.71,6.10 32.86,6.29 34.48,6.45 36.10,6.60 37.15,6.80 38.19,7.00 39.57,7.26 40.94,7.53 42.04,7.66 43.14,7.79 44.20,7.96 45.26,8.13 46.46,8.38 47.67,8.63 49.19,8.94 50.70,9.25 51.74,9.55 52.79,9.85 53.83,10.13 54.88,10.41 56.57,10.76 58.26,11.10 59.73,11.47 61.20,11.83 62.41,12.17 63.61,12.52 64.65,12.77 65.69,13.03 67.02,13.26 68.34,13.49 69.78,13.46 71.22,13.43 72.36,13.50 73.49,13.57 74.66,13.76 75.82,13.96 77.07,14.00 78.31,14.05 79.53,14.05 80.74,14.05 81.92,14.05 83.10,14.04 84.57,14.36 86.05,14.68 87.26,14.62 88.47,14.55 89.60,14.55 90.74,14.54 91.82,14.54 92.91,14.53 93.99,14.53 95.07,14.52 96.17,14.52 97.26,14.52 98.67,14.51 100.08,14.51 101.30,14.51 102.52,14.51 103.67,14.51 104.82,14.50 105.97,14.50 107.11,14.50 108.19,14.49 109.26,14.49 110.35,14.48 111.44,14.48 112.52,14.48 113.60,14.48 114.75,14.48 115.90,14.48 117.41,14.49 118.92,14.50 120.20,14.51 121.49,14.51 122.58,14.53 123.68,14.54 124.93,14.36 126.18,14.18 127.55,13.89 128.92,13.60 130.00,13.42 131.07,13.24 132.48,12.89 133.89,12.55 135.15,12.42 136.42,12.30 137.76,12.05 139.10,11.79 140.20,11.75 141.31,11.70 142.41,11.44 143.51,11.18 144.99,10.26 146.48,9.35 147.45,8.69 148.42,8.03 149.27,7.31 150.13,6.59 151.48,6.00 152.83,5.41 153.79,4.64 154.75,3.87 156.04,3.13 157.34,2.39 158.48,1.85 159.61,1.31 160.96,0.68 162.30,0.04 163.20,-0.54 164.09,-1.14 165.39,-1.67 166.70,-2.21 167.75,-2.61 168.81,-3.02 169.97,-3.46 171.13,-3.89 173.05,-4.72 174.98,-5.54 175.60,-5.58 176.22,-5.61 176.81,-5.45 177.41,-5.29 177.93,-4.94 178.44,-4.59 178.82,-4.10 179.20,-3.61 179.40,-3.02 179.60,-2.43 179.60,-1.81 179.60,-1.19 179.41,-0.60 179.21,-0.02 178.84,0.47 178.46,0.97 177.95,1.32 177.44,1.67 176.84,1.83 176.24,2.00 175.62,1.97 175.00,1.94 174.43,1.71 173.85,1.48 173.37,1.08 172.90,0.68 172.58,0.15 172.26,-0.37 172.12,-0.97 171.99,-1.58 172.05,-2.20 172.12,-2.81 172.37,-3.38 172.63,-3.94 173.06,-4.39 173.48,-4.85 174.03,-5.14 174.58,-5.43 175.19,-5.53 175.80,-5.64 176.41,-5.54 177.03,-5.44 177.58,-5.15 178.13,-4.86 178.55,-4.41 178.98,-3.96 179.24,-3.40 179.51,-2.84 179.58,-2.22 179.65,-1.61 179.51,-1.00 179.38,-0.39 179.06,0.13 178.75,0.66 178.28,1.07 177.80,1.47 177.23,1.70 176.65,1.93 176.65,1.93 176.65,1.93 174.87,2.67 173.09,3.41 171.63,3.96 170.18,4.51 168.99,4.98 167.80,5.45 166.17,6.43 164.53,7.40 163.57,7.92 162.61,8.43 161.60,8.85 160.60,9.27 159.30,9.98 158.01,10.70 157.01,11.47 156.00,12.25 154.94,12.84 153.87,13.43 152.93,14.28 151.99,15.12 150.95,15.58 149.91,16.04 148.67,16.80 147.44,17.55 146.23,17.95 145.02,18.35 143.17,18.81 141.32,19.27 140.15,19.41 138.98,19.56 137.24,19.69 135.50,19.82 134.07,20.17 132.65,20.52 131.17,20.79 129.70,21.07 128.11,21.42 126.51,21.77 125.10,21.94 123.68,22.11 122.16,22.13 120.63,22.14 119.33,22.15 118.02,22.16 116.58,22.17 115.15,22.17 113.84,22.17 112.52,22.17 111.24,22.17 109.95,22.17 108.78,22.16 107.60,22.15 106.50,22.15 105.40,22.15 104.28,22.15 103.16,22.14 102.10,22.15 101.03,22.15 99.95,22.15 98.86,22.15 97.79,22.14 96.72,22.13 95.63,22.13 94.54,22.13 93.46,22.12 92.37,22.12 91.28,22.11 90.19,22.11 88.96,22.10 87.74,22.10 86.57,22.08 85.40,22.06 84.02,21.80 82.63,21.55 81.33,21.54 80.03,21.53 78.65,21.53 77.27,21.52 76.08,21.47 74.90,21.42 73.49,21.22 72.09,21.02 70.81,21.02 69.52,21.03 68.25,20.97 66.98,20.91 65.58,20.64 64.19,20.37 63.09,20.10 61.98,19.83 60.60,19.36 59.21,18.89 58.10,18.61 56.99,18.34 55.91,18.07 54.84,17.80 53.43,17.53 52.02,17.26 50.76,16.93 49.51,16.59 48.41,16.29 47.31,16.00 46.12,15.79 44.92,15.59 43.75,15.45 42.57,15.32 41.37,15.12 40.17,14.92 38.81,14.67 37.46,14.41 36.27,14.19 35.09,13.96 33.97,13.89 32.84,13.81 31.69,13.55 30.53,13.30 29.33,13.26 28.13,13.23 26.93,12.98 25.72,12.73 24.49,12.45 23.26,12.17 22.09,12.01 20.93,11.85 20.04,11.14 19.15,10.43 17.88,9.98 16.62,9.54 15.55,9.09 14.49,8.65 13.46,8.08 12.43,7.52 11.22,6.67 10.01,5.82 9.02,5.21 8.03,4.60 6.75,3.88 5.47,3.16 4.09,2.90 2.71,2.64 1.35,2.65 0,2.65 -0.31,2.62 -0.63,2.58 -0.93,2.46 -1.23,2.35 -1.49,2.17 -1.76,1.99 -1.97,1.75 -2.18,1.51 -2.33,1.22 -2.48,0.94 -2.56,0.63 -2.64,0.32 -2.64,-0.00 -2.64,-0.32 -2.56,-0.63 -2.48,-0.94 -2.33,-1.22 -2.18,-1.51 -1.97,-1.75 -1.76,-1.99 -1.49,-2.17 -1.23,-2.35 -0.93,-2.46 -0.63,-2.58 -0.31,-2.62 0.00,-2.65 0.00,-2.65 L 0,-2.65 Z"></path></g><g stroke-linecap="round"><g transform="translate(113.63564278351788 231.05707245664166) rotate(0 -6.294562564550503 -9.757771332917855)"><path d="M-1.14 -0.1 C-3.17 -3.41, -10.99 -16.53, -13.06 -19.42 M0.47 -1.19 C-1.09 -4.45, -8.71 -15.48, -10.65 -18.5" stroke="#000000" stroke-width="2" fill="none"></path></g></g><g stroke-linecap="round"><g transform="translate(100.66325529764507 212.82685747568507) rotate(0 8.409234513532319 -14.207953008412687)"><path d="M-0.59 -1.19 C2.15 -5.76, 12.53 -23.1, 15.25 -27.53 M1.31 0.8 C4.5 -4.09, 15.18 -24.12, 17.4 -29.22" stroke="#000000" stroke-width="2" fill="none"></path></g></g><g stroke-linecap="round"><g transform="translate(116.4829327529003 184.47154497823817) rotate(0 16.9956686337105 1.0301669745848585)"><path d="M-1.07 0.83 C4.47 1.36, 26.91 1.91, 32.65 2 M0.57 0.21 C6.57 0.5, 29.71 -0.22, 35.06 0.19" stroke="#000000" stroke-width="2" fill="none"></path></g></g><g stroke-linecap="round"><g transform="translate(149.71811389993707 185.8909904202019) rotate(0 6.215437150004121 13.709425372020405)"><path d="M-0.58 0.58 C1.76 4.79, 10.66 21.79, 13.01 26.07 M1.31 -0.16 C3.61 4.18, 10.17 22.93, 12.14 27.58" stroke="#000000" stroke-width="2" fill="none"></path></g></g><g stroke-linecap="round"><g transform="translate(162.58551281761726 212.0247448146938) rotate(0 -4.7288622058361085 9.871473944204013)"><path d="M0.15 -0.06 C-1.26 3.05, -7.22 16.24, -9.01 19.26 M-1.24 -1.14 C-2.69 2.14, -8.44 17.56, -9.6 20.88" stroke="#000000" stroke-width="2" fill="none"></path></g></g><g stroke-linecap="round"><g transform="translate(94.83428999159425 244.9659579707918) rotate(0 38.649423807650535 -2.412646243490485)"><path d="M0.68 0.16 C13.24 -0.66, 62.94 -4.21, 75.5 -4.99 M-0.42 -0.79 C12.49 -1.5, 65.14 -3.55, 77.72 -4" stroke="#000000" stroke-width="2" fill="none"></path></g></g><g stroke-linecap="round"><g transform="translate(180.08080782122516 217.3581640788757) rotate(0 9.164004187235406 -0.018228246087005573)"><path d="M-0.94 -1.04 C2.16 -1.16, 15.98 -0.71, 19.27 -0.55 M0.77 1.02 C3.61 1.05, 14.7 0.66, 18.11 0.69" stroke="#000000" stroke-width="2" fill="none"></path></g></g><g stroke-linecap="round"><g transform="translate(170.90480696119573 195.63812909119883) rotate(0 9.891596689470688 -3.515837589098055)"><path d="M-0.39 -0.57 C2.75 -1.86, 14.81 -7.51, 17.92 -8.77 M1.6 1.74 C5.2 0.74, 17.56 -5.3, 20.18 -7.29" stroke="#000000" stroke-width="2" fill="none"></path></g></g><g stroke-linecap="round"><g transform="translate(155.19851715958868 180.70455515148956) rotate(0 4.5743277307436045 -9.084635348102665)"><path d="M-0.87 -0.09 C0.86 -2.7, 7.94 -13.51, 10.02 -16.24 M0.87 -1.19 C2.44 -4.11, 7.05 -15.77, 8.81 -18.08" stroke="#000000" stroke-width="2" fill="none"></path></g></g><g stroke-linecap="round"><g transform="translate(133.93203278650387 175.14436058001115) rotate(0 -0.01690950857624074 -10.182561443856684)"><path d="M-0.5 0.54 C-0.54 -2.6, -0.98 -15.84, -1.11 -18.95 M1.44 -0.22 C1.42 -3.73, -0.99 -17.65, -1.48 -20.91" stroke="#000000" stroke-width="2" fill="none"></path></g></g><g stroke-linecap="round"><g transform="translate(109.12953343669298 181.38068153064955) rotate(0 -4.905502273399989 -8.41241112605826)"><path d="M1.1 0.31 C-0.56 -2.39, -8.49 -12.84, -10.48 -15.63 M0.22 -0.58 C-1.47 -3.63, -9 -14.13, -10.91 -17.13" stroke="#000000" stroke-width="2" fill="none"></path></g></g><g stroke-linecap="round"><g transform="translate(92.33556206861104 200.2954219762214) rotate(0 -12.174814408224066 -5.371258444484397)"><path d="M0.97 1.18 C-3.33 -0.54, -20.24 -7.96, -24.71 -10 M0.02 0.75 C-4.48 -1.36, -20.84 -10.11, -25.32 -11.92" stroke="#000000" stroke-width="2" fill="none"></path></g></g><g stroke-linecap="round"><g transform="translate(88.10662254181497 219.80649748912697) rotate(0 -11.441765407852017 0.11956690969714145)"><path d="M0.64 0.37 C-3.24 0.1, -18.63 -0.55, -22.33 -0.47 M-0.48 -0.48 C-4.65 -0.1, -19.91 0.82, -23.53 0.71" stroke="#000000" stroke-width="2" fill="none"></path></g></g></svg>
