<svg version="1.1" xmlns="http://www.w3.org/2000/svg" viewBox="0 0 780.710434905588 901.5228593608917" width="1561.420869811176" height="1803.0457187217835">
  <!-- svg-source:excalidraw -->
  
  <defs>
    <style class="style-fonts">
      @font-face {
        font-family: "Virgil";
        src: url("https://excalidraw.com/Virgil.woff2");
      }
      @font-face {
        font-family: "Cascadia";
        src: url("https://excalidraw.com/Cascadia.woff2");
      }
    </style>
  </defs>
  <g stroke-linecap="round"><g transform="translate(358.4470854090214 11.208631230518222) rotate(0 -172.26688255346198 72.52683528533566)"><path d="M-2.16 -1.21 C-59.23 23.01, -286.71 119.68, -343.59 144.1 M1.86 4.31 C-55.56 28.88, -288.46 122.38, -346.39 146.26" stroke="#000000" stroke-width="2" fill="none"></path></g></g><g stroke-linecap="round"><g transform="translate(11.208631230518222 157.99704894688693) rotate(0 4.293952941874522 245.04951587085066)"><path d="M-1.21 -1.04 C-0.2 81.16, 3.64 408.54, 4.86 491.02 M3.33 -4.07 C5.28 78.73, 9.78 411.93, 9.8 494.17" stroke="#000000" stroke-width="2" fill="none"></path></g></g><g stroke-linecap="round"><g transform="translate(361.7703078027971 14.654368735595881) rotate(0 165.5031330742031 73.20658181548833)"><path d="M-1.04 -2.69 C54.66 21.89, 276.06 121.25, 332.04 146.28 M3.59 2.02 C59.04 27.06, 274.24 124.36, 329.32 149.11" stroke="#000000" stroke-width="2" fill="none"></path></g></g><g stroke-linecap="round"><g transform="translate(694.7051227379943 164.38314912296687) rotate(0 -0.01770928903897584 180.14139488941464)"><path d="M-2.69 -0.89 C-2.97 59.97, -3.04 303.75, -2.86 364.12 M1.04 -3.84 C1.81 56.33, 3.5 298.85, 2.73 360.17" stroke="#000000" stroke-width="2" fill="none"></path></g></g><g stroke-linecap="round"><g transform="translate(585.2225564099626 531.7600247200444) rotate(0 1.4727365981043476 -153.31119587828744)"><path d="M-0.89 -1.49 C-0.54 -52.79, 1.17 -258.64, 1.04 -310.5 M3.82 3.88 C4.06 -46.72, 1.15 -254.55, -0.15 -307" stroke="#000000" stroke-width="2" fill="none"></path></g></g><g stroke-linecap="round"><g transform="translate(584.3190074641861 221.49050537381254) rotate(0 -115.99882727945987 -46.8145787958058)"><path d="M-1.49 1.94 C-39.79 -13.84, -193.67 -79.39, -232.54 -95.57 M2.9 0.52 C-35.55 -14.77, -196.23 -76.92, -234.9 -92.38" stroke="#000000" stroke-width="2" fill="none"></path></g></g><g stroke-linecap="round"><g transform="translate(352.0150420661994 126.74038117859163) rotate(0 -0.6808411748243088 327.0368642467989)"><path d="M1.94 -0.23 C1.98 109.11, -0.26 544.66, -0.62 654.57 M-0.45 -2.83 C-0.77 106.91, -3.01 547.28, -3.3 656.9" stroke="#000000" stroke-width="2" fill="none"></path></g></g><g stroke-linecap="round"><g transform="translate(353.0411061232735 135.62272674724136) rotate(0 -120.41819840361677 43.15378559945577)"><path d="M-0.23 -0.82 C-40.09 13.3, -201.31 72.13, -240.6 86.63 M-3.8 -3.73 C-42.67 10.65, -196.7 74.61, -235.5 90.04" stroke="#000000" stroke-width="2" fill="none"></path></g></g><g stroke-linecap="round"><g transform="translate(114.82578660548097 222.65439893108328) rotate(0 3.0032766901367722 199.14934868575904)"><path d="M-0.82 -2.39 C0 64.43, 5.63 334.1, 6.83 400.69 M3.93 2.49 C4.16 68.57, 4.34 330.71, 4.37 396.89" stroke="#000000" stroke-width="2" fill="none"></path></g></g><g stroke-linecap="round" transform="translate(469.36920429473685 569.9387962763199) rotate(0 150.6706153054247 145.44075149215996)"><path d="M164.39 1.45 C179.83 0.64, 198.8 8.09, 213.58 13.78 C228.36 19.47, 241.8 25.77, 253.06 35.6 C264.31 45.42, 273.33 59.8, 281.09 72.74 C288.84 85.67, 296.25 98.69, 299.56 113.22 C302.88 127.75, 302.69 144.57, 300.98 159.91 C299.27 175.26, 295.69 191.25, 289.29 205.28 C282.9 219.31, 273.19 232.94, 262.61 244.08 C252.02 255.23, 239.4 264.99, 225.77 272.14 C212.14 279.3, 195.9 283.95, 180.82 287.02 C165.73 290.1, 150.67 292.18, 135.28 290.6 C119.9 289.02, 102.41 283.69, 88.5 277.53 C74.59 271.37, 63.42 263.21, 51.81 253.62 C40.19 244.03, 27.16 233.07, 18.82 219.99 C10.47 206.91, 4.58 189.99, 1.72 175.16 C-1.13 160.33, -0.26 145.76, 1.69 131.03 C3.63 116.3, 7.06 100.5, 13.39 86.79 C19.72 73.08, 29.18 59.84, 39.68 48.77 C50.17 37.71, 63.11 28.18, 76.35 20.39 C89.6 12.59, 102.09 4.89, 119.14 2.02 C136.19 -0.86, 166.69 2.02, 178.66 3.13 C190.63 4.24, 191.09 6.61, 190.97 8.67 M228.97 19.34 C242.94 24.3, 256.42 38.25, 266.24 49.58 C276.06 60.91, 281.61 73.37, 287.86 87.33 C294.12 101.29, 301.87 118.13, 303.79 133.35 C305.71 148.58, 303.68 164.57, 299.4 178.68 C295.13 192.78, 286.89 205.41, 278.12 218 C269.35 230.59, 258.13 243.58, 246.78 254.2 C235.43 264.83, 224.25 275.6, 210.01 281.74 C195.77 287.88, 176.46 290.04, 161.35 291.04 C146.24 292.04, 134.47 290.78, 119.35 287.74 C104.22 284.71, 84.53 281.19, 70.61 272.86 C56.68 264.52, 45.45 249.21, 35.79 237.73 C26.13 226.24, 18.59 217.22, 12.67 203.95 C6.75 190.67, 2.04 172.84, 0.27 158.06 C-1.5 143.27, -1.29 129.6, 2.06 115.25 C5.4 100.9, 11.73 85.59, 20.35 71.95 C28.97 58.32, 41.84 44.02, 53.78 33.43 C65.71 22.84, 78.05 13.85, 91.95 8.41 C105.86 2.97, 121.29 1.46, 137.21 0.8 C153.13 0.14, 172.31 1.39, 187.47 4.44 C202.62 7.5, 221.8 15.74, 228.13 19.1 C234.45 22.47, 226.85 22.16, 225.42 24.62" stroke="none" stroke-width="0" fill="#fd7e14"></path><path d="M257.73 44.4 C270.11 53.15, 280.36 67.92, 287.54 81.15 C294.73 94.38, 298.82 109.19, 300.84 123.78 C302.86 138.38, 302.17 153.72, 299.65 168.72 C297.13 183.71, 293.13 200.07, 285.73 213.77 C278.32 227.48, 266.31 240.39, 255.23 250.95 C244.15 261.51, 233.42 270.49, 219.26 277.12 C205.1 283.75, 185.74 288.52, 170.27 290.71 C154.79 292.91, 141.16 292.91, 126.4 290.28 C111.64 287.65, 95.71 282.2, 81.73 274.92 C67.74 267.64, 53.22 257.37, 42.5 246.61 C31.77 235.84, 24.16 223.4, 17.38 210.34 C10.6 197.27, 4.64 183.37, 1.81 168.2 C-1.02 153.03, -1.88 134.4, 0.4 119.33 C2.69 104.27, 7.92 90.94, 15.51 77.81 C23.1 64.67, 34.56 51.3, 45.92 40.51 C57.28 29.72, 69.82 19.52, 83.67 13.05 C97.52 6.59, 113.72 3.3, 129.04 1.72 C144.36 0.13, 160.21 0.74, 175.57 3.52 C190.93 6.31, 205.33 9.21, 221.2 18.43 C237.07 27.65, 261.17 48.87, 270.79 58.85 C280.42 68.82, 280.79 76.77, 278.97 78.27 M92.3 13.33 C104.64 5.38, 121.1 1.53, 136.57 0.02 C152.04 -1.48, 170.57 1.26, 185.12 4.31 C199.67 7.37, 210.6 11.21, 223.87 18.35 C237.13 25.49, 254.28 35.91, 264.7 47.14 C275.12 58.37, 280.77 72, 286.38 85.73 C291.98 99.45, 296.16 114.53, 298.33 129.51 C300.5 144.49, 302.22 161.31, 299.4 175.63 C296.58 189.96, 289.04 202.39, 281.41 215.44 C273.78 228.49, 265.51 243.47, 253.6 253.94 C241.7 264.41, 224.67 272.41, 209.97 278.25 C195.27 284.08, 180.93 287.59, 165.41 288.95 C149.89 290.3, 132.2 289.24, 116.83 286.37 C101.46 283.5, 85.91 278.6, 73.19 271.73 C60.46 264.86, 50.04 256.02, 40.48 245.14 C30.93 234.26, 22.15 220.81, 15.83 206.47 C9.52 192.13, 4.47 174.08, 2.57 159.11 C0.68 144.15, 1.06 131.44, 4.48 116.67 C7.91 101.9, 15.16 83.55, 23.15 70.51 C31.14 57.47, 41.61 47.81, 52.44 38.43 C63.28 29.04, 81.83 18.49, 88.16 14.21 C94.49 9.93, 89.67 11.02, 90.44 12.73" stroke="#000000" stroke-width="2" fill="none"></path></g><g stroke-linecap="round"><g transform="translate(127.10792651246084 625.3615697469022) rotate(0 149.5010652397359 82.26659313630921)"><path d="M-0.4 2.24 C4.2 14.82, 11.21 51.27, 26.83 73.13 C42.45 95, 60.37 118.84, 93.32 133.42 C126.28 148, 189.61 157.58, 224.57 160.62 C259.52 163.66, 290.11 153.28, 303.07 151.66 M-4.07 0.98 C0.16 14.15, 8.31 53.41, 24.12 76.06 C39.94 98.7, 57.11 122.31, 90.83 136.84 C124.55 151.37, 191.53 160.7, 226.45 163.22 C261.38 165.74, 288.58 153.15, 300.39 151.94" stroke="#000000" stroke-width="2" fill="none"></path></g></g><g stroke-linecap="round"><g transform="translate(19.386514909245307 647.73589194655) rotate(0 243.5522129777455 119.99794142783776)"><path d="M2.24 -0.86 C14.11 20.88, 34.56 92.23, 68.85 130.01 C103.15 167.8, 159.22 207.01, 208.03 225.84 C256.85 244.67, 315.98 244.92, 361.74 243.02 C407.5 241.12, 462.56 218.92, 482.57 214.45 M0.01 -3.79 C11.61 18.35, 31.49 95.39, 65.91 132.96 C100.33 170.52, 157.14 204.14, 206.54 221.61 C255.94 239.08, 315.55 238.76, 362.31 237.78 C409.07 236.8, 466.81 219.53, 487.1 215.74" stroke="#000000" stroke-width="2" fill="none"></path></g></g><g stroke-linecap="round"><g transform="translate(623.7076157444662 648.0574941136792) rotate(0 1.3084138302310748 73.82060716115916)"><path d="M-0.86 -1.3 C-0.51 23.15, 0.64 124, 1.67 148.94 M3.87 4.17 C3.77 27.51, -1.41 119.7, -1.25 144.24" stroke="#000000" stroke-width="4" fill="none"></path></g></g><g stroke-linecap="round"><g transform="translate(553.889316697112 719.3000313298007) rotate(0 62.96270542293223 0.36160432825636235)"><path d="M-1.3 -1.27 C19.53 -1.09, 105.9 0.12, 127.22 0.21 M3.19 4.22 C23.5 3.73, 105.03 -1.88, 125.3 -3.49" stroke="#000000" stroke-width="4" fill="none"></path></g></g><g stroke-linecap="round"><g transform="translate(631.4368662281977 643.3253479400332) rotate(0 1.8079568386156097 63.58280953459803)"><path d="M-1.27 0.57 C-0.31 21.65, 4.01 104.56, 4.88 125.13 M3.24 -1.58 C4.12 20.09, 4 107.41, 3.95 128.75" stroke="white" stroke-width="4" fill="none"></path></g></g><g stroke-linecap="round"><g transform="translate(573.3573549456833 703.8334508865028) rotate(0 52.12680588060812 -1.0947638331365397)"><path d="M0.57 2.4 C18.59 2.55, 89.3 0.21, 106.81 -0.38 M-2.56 1.24 C15.2 0.68, 86.94 -4.78, 104.56 -4.59" stroke="white" stroke-width="4" fill="none"></path></g></g></svg>
