<svg version="1.1" xmlns="http://www.w3.org/2000/svg" viewBox="0 0 297.86830547177533 296.93698548607927" width="595.7366109435507" height="593.8739709721585">
  <!-- svg-source:excalidraw -->
  
  <defs>
    <style class="style-fonts">
      @font-face {
        font-family: "Virgil";
        src: url("https://excalidraw.com/Virgil.woff2");
      }
      @font-face {
        font-family: "Cascadia";
        src: url("https://excalidraw.com/Cascadia.woff2");
      }
    </style>
  </defs>
  <g stroke-linecap="round"><g transform="translate(15.588291369400167 14.189417133201232) rotate(0 35.394512282567916 35.98613211570762)"><path d="M0.73 0.14 C12.62 12.4, 59.16 60.96, 71.14 72.8 M-0.35 -0.83 C11.36 11.19, 57.81 59.11, 69.93 71.28" stroke="#000000" stroke-width="2" fill="none"></path></g></g><g stroke-linecap="round"><g transform="translate(262.6255441842816 31.355147691335333) rotate(0 -16.10345399568166 17.835647720005568)"><path d="M0.08 0.1 C-4.97 6.25, -25.85 30.47, -31.08 36.57 M-1.34 -0.9 C-6.51 4.95, -27.1 28.89, -32.28 34.84" stroke="#000000" stroke-width="2" fill="none"></path></g></g><g stroke-linecap="round"><g transform="translate(215.6063691772199 45.53553380457606) rotate(0 -66.86766444511579 -11.130926819251044)"><path d="M-0.41 -0.29 C-11.85 -3.81, -46.87 -20.07, -69.22 -20.34 C-91.56 -20.61, -123.56 -5.02, -134.47 -1.89 M1.57 -1.48 C-10.02 -5.4, -47.64 -22.03, -70.46 -21.98 C-93.27 -21.92, -124.61 -4.69, -135.3 -1.17" stroke="#000000" stroke-width="2" fill="none"></path></g></g><g stroke-linecap="round"><g transform="translate(148.4361191671312 9.71140046586288) rotate(0 0.34360179205100394 19.350665379252746)"><path d="M-0.33 0.87 C-0.35 7.22, -1.27 32.12, -1.1 38.41 M1.7 0.29 C2.11 6.23, 1.28 30.42, 1.03 36.47" stroke="#000000" stroke-width="2" fill="none"></path></g></g><g stroke-linecap="round"><g transform="translate(250.68416640471037 79.12065880962086) rotate(0 10.25025746705171 68.831677255219)"><path d="M0.74 0.18 C3.78 11.54, 19.44 45.96, 19.21 69.01 C18.98 92.05, 2.87 126.92, -0.62 138.44 M-0.33 -0.78 C2.99 10.72, 21.53 47.68, 21.43 70.53 C21.33 93.37, 2.91 124.83, -0.93 136.29" stroke="#000000" stroke-width="2" fill="none"></path></g></g><g stroke-linecap="round"><g transform="translate(249.19149418226402 147.03724493093296) rotate(0 19.42190237182831 1.2984277632765497)"><path d="M1.07 -0.65 C7.15 -0.18, 30.5 2.93, 36.43 3.25 M0.17 1.62 C6.63 1.74, 32.78 1.58, 38.68 1.66" stroke="#000000" stroke-width="2" fill="none"></path></g></g><g stroke-linecap="round"><g transform="translate(216.35270528844308 214.95383105224505) rotate(0 33.87637293812759 34.42360703169561)"><path d="M0.65 -0.2 C12.03 11.5, 57.11 58.57, 68.22 70.2 M-0.47 -1.35 C10.86 10.02, 56.64 56.44, 67.83 68.49" stroke="#000000" stroke-width="2" fill="none"></path></g></g><g stroke-linecap="round"><g transform="translate(217.84537751088897 249.28529216851211) rotate(0 -70.34004362114263 11.251722716353129)"><path d="M-0.07 -0.15 C-11.84 3.65, -47.51 23.45, -70.93 23.78 C-94.35 24.11, -129.06 5.62, -140.61 1.82 M-1.57 -1.28 C-13.37 2.06, -48.52 21.58, -71.3 21.8 C-94.08 22.02, -126.76 3.3, -138.26 0.04" stroke="#000000" stroke-width="2" fill="none"></path></g></g><g stroke-linecap="round"><g transform="translate(149.92879138957755 250.0316282797346) rotate(0 0.17930010808458974 18.054700078657902)"><path d="M-0.55 0.16 C-0.63 6.14, -1.02 30.78, -1.1 36.91 M1.37 -0.8 C1.69 5.32, 1.05 28.43, 1.04 34.96" stroke="#000000" stroke-width="2" fill="none"></path></g></g><g stroke-linecap="round"><g transform="translate(64.84647471013159 226.1488727205924) rotate(0 -17.569059051670138 18.507346706280146)"><path d="M-0.6 0.02 C-6.6 6.4, -29.5 31.71, -35.34 38.03 M1.29 -1.02 C-4.96 5.05, -30.09 30.12, -36.43 36.29" stroke="#000000" stroke-width="2" fill="none"></path></g></g><g stroke-linecap="round"><g transform="translate(44.69539970710525 77.62798658717361) rotate(0 -9.579992582003115 70.304672759357)"><path d="M0.68 0.62 C-2.64 12.54, -19.06 48.48, -19.04 71.62 C-19.01 94.76, -2.39 128.19, 0.83 139.45 M-0.42 -0.09 C-3.98 11.5, -20.07 46.6, -19.99 70.07 C-19.9 93.53, -3.27 129.04, 0.1 140.7" stroke="#000000" stroke-width="2" fill="none"></path></g></g><g stroke-linecap="round"><g transform="translate(10.363938590837733 147.03724493093296) rotate(0 18.570424515270474 0.3559648420467738)"><path d="M0.72 0.9 C6.89 0.73, 31.49 -0.04, 37.5 -0.33 M-0.36 0.32 C5.7 0.27, 30.97 1.08, 37.05 1.04" stroke="#000000" stroke-width="2" fill="none"></path></g></g><g stroke-linecap="round" transform="translate(97.68526360395276 135.84220326258423) rotate(0 51.49719167440128 38.436309727995194)"><path d="M1.73 1.83 L102.93 -0.03 L103.58 78.19 L-0.17 75.87" stroke="none" stroke-width="0" fill="#fd7e14"></path><path d="M-1.04 -1.76 C35.31 -1.45, 72.53 -1.12, 104.91 1.38 M-0.67 -0.72 C31.13 0.27, 64.14 -1.64, 102.07 0.54 M103.49 0.37 C102.72 18.24, 101.2 40.19, 103.32 77.06 M103.23 -0.05 C102.98 28.12, 103.3 56.18, 103.06 77.7 M102.63 76.91 C66.87 76.58, 25.04 77.68, 0.61 77.85 M103.53 76.46 C68.41 76.11, 34.46 75.57, 0.97 77.73 M0.83 76.78 C1 55.4, -0.47 33.4, -1.93 -0.07 M-0.86 76.01 C-0.58 60.61, 0.94 43.16, 0.33 0.76" stroke="#000000" stroke-width="2" fill="none"></path></g><g stroke-linecap="round" transform="translate(132.64478515729002 151.01847633804596) rotate(0 14.851110222042621 13.821825355168357)"><path d="M19.16 1.44 C21.82 2.1, 25.04 4.43, 26.92 6.78 C28.8 9.12, 31.05 12.67, 30.45 15.5 C29.86 18.33, 26.09 21.63, 23.35 23.76 C20.61 25.9, 16.87 28.16, 14.02 28.3 C11.16 28.45, 8.45 26.66, 6.21 24.61 C3.97 22.57, 1.24 18.9, 0.55 16.01 C-0.14 13.13, 0.38 9.75, 2.07 7.3 C3.77 4.86, 7.64 2.26, 10.73 1.35 C13.81 0.45, 18.75 1.87, 20.59 1.87 C22.44 1.86, 21.71 1.21, 21.78 1.32 M13.63 0.25 C16.95 -0.58, 20.71 0.75, 23.39 2.25 C26.07 3.74, 28.58 6.33, 29.69 9.2 C30.81 12.08, 31.11 16.86, 30.08 19.5 C29.06 22.15, 26.71 23.67, 23.54 25.05 C20.36 26.43, 14.34 28.18, 11.05 27.79 C7.76 27.4, 5.55 25.23, 3.78 22.73 C2.01 20.22, 0.41 15.86, 0.41 12.74 C0.41 9.62, 1.91 6.04, 3.79 4 C5.68 1.96, 10.47 1.13, 11.72 0.48 C12.97 -0.17, 11.27 -0.03, 11.3 0.1" stroke="none" stroke-width="0" fill="white"></path><path d="M16.16 0.7 C18.91 0.48, 21.77 0.95, 23.97 2.82 C26.17 4.68, 28.63 8.8, 29.37 11.89 C30.11 14.97, 30.22 18.7, 28.41 21.34 C26.61 23.98, 21.65 26.76, 18.52 27.73 C15.39 28.7, 12.37 28.29, 9.62 27.14 C6.88 25.99, 3.67 23.42, 2.06 20.82 C0.46 18.22, -0.56 14.58, -0.02 11.52 C0.51 8.46, 2.36 4.38, 5.27 2.45 C8.17 0.51, 15.1 -0.05, 17.41 -0.1 C19.73 -0.15, 19.01 1.91, 19.17 2.17 M7.98 1.73 C10.37 0.04, 15.1 -0.94, 18.16 -0.56 C21.22 -0.18, 24.42 1.72, 26.34 4.01 C28.25 6.3, 29.79 9.82, 29.64 13.19 C29.48 16.56, 27.77 22.04, 25.4 24.21 C23.03 26.39, 18.72 25.99, 15.43 26.23 C12.14 26.48, 7.94 27.28, 5.67 25.67 C3.4 24.05, 2.48 19.24, 1.81 16.56 C1.14 13.89, 0.39 11.89, 1.65 9.61 C2.9 7.33, 8.27 4.21, 9.35 2.9 C10.43 1.59, 8.17 1.62, 8.14 1.76" stroke="#000000" stroke-width="4" fill="none"></path></g><g stroke-linecap="round"><g transform="translate(149.11334302727778 194.24844074676366) rotate(0 -0.029284388240739645 -8.132370176791483)"><path d="M-0.96 -1.18 C-1.1 -4.23, -1.37 -14.77, -1.13 -17.08 M0.74 0.81 C0.99 -1.6, 1.24 -13.09, 1.15 -16.01" stroke="#000000" stroke-width="4" fill="none"></path></g></g><g stroke-linecap="round"><g transform="translate(175.87474956600795 156.90010414875542) rotate(0 10.600545577733442 0.32541014137257207)"><path d="M-0.16 0.05 C3.61 0.25, 19.04 1.66, 22.9 1.64 M-1.7 -0.97 C1.93 -1.12, 18.2 -0.24, 22.25 0.07" stroke="#000000" stroke-width="4" fill="none"></path></g></g><g stroke-linecap="round"><g transform="translate(174.40434261333053 189.83721988873185) rotate(0 13.018658128288394 0.49318944710967116)"><path d="M0.96 0.35 C5.11 0.33, 21.81 -0.17, 26.03 -0.13 M0.01 -0.51 C3.96 -0.32, 21.13 1.63, 25.47 1.49" stroke="#000000" stroke-width="4" fill="none"></path></g></g><g stroke-linecap="round"><g transform="translate(188.81433074956976 134.2558370775223) rotate(0 -41.47535854443345 -28.726488621755834)"><path d="M-0.86 0.95 C-1.81 -5.79, -0.94 -29.92, -4.8 -39.4 C-8.66 -48.88, -17.78 -52.76, -24.03 -55.9 C-30.28 -59.04, -36.64 -58.4, -42.31 -58.25 C-47.98 -58.1, -52.49 -57.92, -58.05 -55.01 C-63.61 -52.11, -71.38 -49.93, -75.68 -40.84 C-79.98 -31.75, -82.47 -7.27, -83.83 -0.48 M0.88 0.41 C0.24 -5.65, 1.27 -28.87, -2.5 -38.12 C-6.26 -47.36, -15.06 -51.91, -21.7 -55.06 C-28.34 -58.21, -36.13 -56.99, -42.35 -57 C-48.57 -57.02, -53.15 -57.72, -59.02 -55.15 C-64.89 -52.58, -73.59 -50.47, -77.57 -41.6 C-81.55 -32.73, -81.72 -8.79, -82.89 -1.92" stroke="#000000" stroke-width="4" fill="none"></path></g></g><g stroke-linecap="round"><g transform="translate(175.03559784489676 133.5804228852437) rotate(0 -29.017394645481545 -23.959197241112747)"><path d="M0.87 -1.12 C0.55 -6.5, 0.07 -25.2, -2.73 -32.25 C-5.53 -39.3, -11.51 -41.04, -15.93 -43.42 C-20.36 -45.8, -24.96 -46.53, -29.27 -46.55 C-33.59 -46.56, -37.81 -45.89, -41.82 -43.51 C-45.84 -41.13, -50.5 -39.6, -53.35 -32.28 C-56.2 -24.95, -58.03 -4.86, -58.9 0.42 M-0.14 0.9 C-0.53 -4.35, -0.9 -23.46, -3.66 -31.15 C-6.42 -38.85, -12.46 -42.32, -16.71 -45.25 C-20.97 -48.18, -25.31 -49.11, -29.21 -48.74 C-33.12 -48.38, -36.31 -45.74, -40.14 -43.07 C-43.97 -40.4, -49.13 -39.81, -52.19 -32.73 C-55.25 -25.64, -57.25 -5.84, -58.5 -0.58" stroke="#000000" stroke-width="4" fill="none"></path></g></g></svg>
