<svg version="1.1" xmlns="http://www.w3.org/2000/svg" viewBox="0 0 736.4815245427671 745.4163945349501" width="1472.9630490855343" height="1490.8327890699002">
  <!-- svg-source:excalidraw -->
  
  <defs>
    <style class="style-fonts">
      @font-face {
        font-family: "Virgil";
        src: url("https://excalidraw.com/Virgil.woff2");
      }
      @font-face {
        font-family: "Cascadia";
        src: url("https://excalidraw.com/Cascadia.woff2");
      }
    </style>
  </defs>
  <g stroke-linecap="round" transform="translate(10 10) rotate(0 358.24076227138266 362.70819726747504)"><path d="M241.47 19.18 C260.79 5.64, 286.23 4.83, 309.9 1.78 C333.58 -1.27, 359.49 -0.89, 383.53 0.88 C407.58 2.65, 430.9 5.93, 454.19 12.41 C477.49 18.89, 501.61 28.42, 523.29 39.76 C544.98 51.1, 565.66 65.26, 584.29 80.45 C602.92 95.63, 619.72 112.1, 635.07 130.87 C650.43 149.64, 665.53 171.63, 676.41 193.06 C687.28 214.48, 693.64 236.34, 700.32 259.44 C707 282.53, 714.44 307.33, 716.49 331.63 C718.53 355.94, 715.89 381.08, 712.58 405.27 C709.27 429.45, 703.84 453.61, 696.62 476.75 C689.4 499.9, 681.02 523.28, 669.27 544.13 C657.53 564.98, 642.02 583.6, 626.14 601.85 C610.26 620.09, 593.51 638.72, 574.01 653.58 C554.5 668.45, 531.23 680.85, 509.12 691.02 C487.02 701.19, 464.81 709.06, 441.37 714.62 C417.94 720.18, 392.69 723.38, 368.54 724.37 C344.38 725.35, 319.67 724.2, 296.44 720.51 C273.22 716.83, 251.05 710.94, 229.19 702.27 C207.34 693.59, 185.52 682.14, 165.33 668.47 C145.14 654.81, 125.37 637.4, 108.04 620.28 C90.72 603.16, 74.65 586.04, 61.38 565.75 C48.12 545.45, 37.41 521.07, 28.46 498.49 C19.52 475.9, 12.6 453.75, 7.7 430.24 C2.8 406.73, -1.04 382.17, -0.93 357.44 C-0.81 332.7, 3.3 305.89, 8.39 281.81 C13.48 257.72, 19.49 235.09, 29.62 212.91 C39.74 190.73, 54.72 168.51, 69.16 148.73 C83.61 128.94, 98.57 110.68, 116.27 94.2 C133.98 77.72, 145.2 64.33, 175.38 49.85 C205.56 35.37, 267.15 14.12, 297.35 7.33 C327.55 0.54, 355.92 3.43, 356.57 9.08 M411.79 3.37 C435.06 1.59, 460.25 14.71, 482.65 23.57 C505.05 32.43, 526.09 43.74, 546.19 56.52 C566.3 69.3, 586.11 84.08, 603.28 100.24 C620.45 116.4, 635.28 133.64, 649.23 153.46 C663.17 173.27, 677.31 196.87, 686.95 219.13 C696.6 241.38, 701.73 263.32, 707.08 286.99 C712.43 310.66, 719.03 336.21, 719.03 361.16 C719.04 386.11, 712.7 413.02, 707.11 436.7 C701.53 460.38, 694.31 481.09, 685.52 503.22 C676.73 525.36, 667.51 549.2, 654.39 569.49 C641.27 589.77, 624.08 608.14, 606.79 624.95 C589.51 641.77, 570.84 657.32, 550.69 670.4 C530.54 683.49, 508.68 695.34, 485.9 703.47 C463.12 711.6, 438.44 715.51, 414.01 719.18 C389.59 722.86, 363.88 726.4, 339.36 725.52 C314.83 724.64, 289.59 720.37, 266.86 713.88 C244.13 707.39, 223.86 697.01, 202.99 686.57 C182.13 676.13, 160.64 665.62, 141.67 651.25 C122.69 636.88, 105.43 618.64, 89.16 600.35 C72.89 582.06, 56.21 563.09, 44.04 541.52 C31.86 519.95, 23.38 493.9, 16.09 470.94 C8.81 447.98, 2.69 427.35, 0.32 403.76 C-2.04 380.17, -0.75 354.37, 1.89 329.4 C4.53 304.43, 9.52 277.94, 16.15 253.95 C22.78 229.96, 30.31 206.4, 41.67 185.46 C53.02 164.53, 67.86 146.81, 84.27 128.35 C100.69 109.89, 120.88 89.31, 140.15 74.69 C159.43 60.08, 178.66 51.46, 199.93 40.65 C221.21 29.84, 244.19 16.65, 267.81 9.82 C291.44 2.98, 318.28 0.47, 341.69 -0.36 C365.11 -1.19, 396.58 2.96, 408.32 4.83 C420.06 6.71, 412.49 5.36, 412.13 10.88" stroke="#000000" stroke-width="2" fill="none"></path></g><g stroke-linecap="round"><g transform="translate(173.4950797429683 148.3513465117685) rotate(0 36.78959668611333 57.47904068918069)" fill-rule="evenodd"><path d="M0.04 -1.67 L58.45 36.04 L76.73 55.17 L77.76 60.87 L76.99 71.71 L52.07 88.97 L32.09 107.77 L4.17 117.48 L-2.95 115.84 L-0.2 113.96 L-4.82 93.32 L3.09 0.32" stroke="none" stroke-width="0" fill="#fd7e14" fill-rule="evenodd"></path><path d="M0.31 -0.94 C13.74 9.46, 77.56 42.92, 77.9 62.32 C78.24 81.72, 15.42 126.19, 2.34 115.45 C-10.73 104.72, -0.33 17.16, -0.53 -2.07 M-2.97 -3.92 C10.51 5.57, 75.94 37.29, 76.74 57.55 C77.54 77.81, 14.64 127.33, 1.81 117.64 C-11.02 107.95, 0.35 18.85, -0.24 -0.59" stroke="#000000" stroke-width="2" fill="none"></path></g></g><g stroke-linecap="round"><g transform="translate(176.306952092149 333.9349215580205) rotate(0 30.87600802025463 54.89069259299913)" fill-rule="evenodd"><path d="M-1.67 3.21 L49.4 35.01 L67.1 48.94 L67.43 58.17 L67.39 59.28 L48.09 85.16 L25.09 98.92 L5.15 108.59 L-1.32 112.48 L-2.28 108.59 L-8.74 95.18 L0.32 -2.32" stroke="none" stroke-width="0" fill="#fab005" fill-rule="evenodd"></path><path d="M-0.94 1.98 C10.55 11.38, 69.01 38.69, 68.88 56.71 C68.75 74.72, 10.12 119.33, -1.71 110.07 C-13.53 100.81, -2.37 19.47, -2.07 1.13 M3.74 0.59 C14.91 9.21, 66.81 34.25, 66.89 52.97 C66.96 71.69, 15.78 122.44, 4.2 112.89 C-7.38 103.35, -1.35 14.36, -2.62 -4.29" stroke="#000000" stroke-width="2" fill="none"></path></g></g><g stroke-linecap="round"><g transform="translate(175.36966130909605 609.498411778216) rotate(0 30.06453017727563 -56.94095868529121)" fill-rule="evenodd"><path d="M3.21 -0.38 L-4.44 -93.11 L-3.73 -111.75 L0.06 -111.97 L-0.65 -116.28 L26.08 -106.73 L44.91 -87.53 L61.76 -67.63 L69.37 -58.51 L65.75 -54.51 L52.46 -33.65 L-2.32 -0.22" stroke="none" stroke-width="0" fill="#fd7e14" fill-rule="evenodd"></path><path d="M1.98 0.46 C1.7 -18.57, -12.23 -105.01, -1.4 -115.12 C9.42 -125.23, 66.53 -79.38, 66.95 -60.19 C67.38 -40.99, 12.28 -9.79, 1.13 0.04 M-0.39 -1.76 C-0.86 -20.38, -13.24 -103.01, -2.37 -112.42 C8.5 -121.82, 64.08 -77.38, 64.86 -58.2 C65.64 -39.02, 13.7 -6.88, 2.32 2.67" stroke="#000000" stroke-width="2" fill="none"></path></g></g><g stroke-linecap="round"><g transform="translate(291.5937184087743 206.4633750616049) rotate(0 66.10637971286724 180.51661136050916)"><path d="M0.46 2.34 C20.64 2.55, 100.41 -20.79, 120.14 3.22 C139.87 27.23, 118.86 90.23, 118.84 146.41 C118.82 202.58, 120.8 303.52, 120.02 340.26 C119.23 377.01, 133.7 362.54, 114.12 366.86 C94.54 371.17, 20.96 366.47, 2.54 366.16 M-2.74 1.15 C18.44 1.61, 104.4 -16.83, 125.62 6.56 C146.83 29.95, 125.38 85.44, 124.54 141.49 C123.71 197.54, 121.61 306.41, 120.62 342.88 C119.64 379.36, 137.8 356.67, 118.65 360.36 C99.5 364.05, 24.58 364.7, 5.73 365.05" stroke="#000000" stroke-width="2" fill="none"></path></g></g><g stroke-linecap="round"><g transform="translate(288.7818460595936 391.10965932479303) rotate(0 145.5696546492709 -0.20473343732123794)"><path d="M2.34 -1.71 C50.51 -2.44, 242.59 -3.93, 290.97 -3.95 M0.17 3.54 C47.74 3.06, 239.9 -1.07, 288.44 -1.44" stroke="#000000" stroke-width="2" fill="none"></path></g></g><g stroke-linecap="round"><g transform="translate(578.4046980257153 316.12639667984604) rotate(0 0.6305357259407174 74.84103867274166)"><path d="M-1.71 -0.53 C-2.13 24.57, -2.37 127.57, -2.07 152.97 M2.56 -3.29 C2.98 22.19, 3.92 122.19, 3.2 148.57" stroke="#000000" stroke-width="2" fill="none"></path></g></g><g stroke-linecap="round"><g transform="translate(580.2792795918413 318.00097824597106) rotate(0 35.92400993690808 36.89746870446561)"><path d="M-0.53 -2.07 C11.76 10.25, 63.52 60.04, 76.11 72.22 M-4.26 2.97 C7.55 15.93, 61.57 64.12, 74.49 75.87" stroke="#000000" stroke-width="2" fill="none"></path></g></g><g stroke-linecap="round"><g transform="translate(655.2625422367837 390.1723685417346) rotate(0 -36.641388419705436 36.620174792643866)"><path d="M-2.07 1.13 C-13.97 12.94, -61.03 58.42, -73.06 70.32 M2 -0.73 C-10.11 11.61, -62.16 62.47, -75.28 73.97" stroke="#000000" stroke-width="2" fill="none"></path></g></g></svg>
